<?xml version="1.0" standalone="no"?>
<svg width="567.429" height="409.002" viewBox="0 0 567.429 409.002" xmlns="http://www.w3.org/2000/svg" shape-rendering="crispEdges">
<title>
/Users/jinhyunpark/npl/gitHub/xloadFromServer/Git_Bias_correction_RxA/plots/dNdeta_Ncoll1_opt0.svg
</title>
<desc>
Creator: ROOT Version 6.26/06
CreationDate: Mon Apr  3 18:29:39 2023</desc>
<defs>
</defs>
<rect x="0.5" y="0" width="566.929" height="408.502" fill="white"/>
<rect x="85.5394" y="20.4251" width="396.85" height="339.056" fill="white"/>
<rect x="85.5394" y="20.4251" width="396.85" height="339.056" fill="none" stroke="black"/>
<rect x="85.5394" y="20.4251" width="396.85" height="339.056" fill="white"/>
<rect x="85.5394" y="20.4251" width="396.85" height="339.056" fill="none" stroke="black"/>
<path d="M85.5394,359.481h 396.85" fill="none" stroke="black"/>
<path d="M85.5394,350.903v 8.57853" fill="none" stroke="black"/>
<path d="M102.075,355.192v 4.28927" fill="none" stroke="black"/>
<path d="M118.61,355.192v 4.28927" fill="none" stroke="black"/>
<path d="M135.146,355.192v 4.28927" fill="none" stroke="black"/>
<path d="M151.681,350.903v 8.57853" fill="none" stroke="black"/>
<path d="M168.217,355.192v 4.28927" fill="none" stroke="black"/>
<path d="M184.752,355.192v 4.28927" fill="none" stroke="black"/>
<path d="M201.287,355.192v 4.28927" fill="none" stroke="black"/>
<path d="M217.823,350.903v 8.57853" fill="none" stroke="black"/>
<path d="M234.358,355.192v 4.28927" fill="none" stroke="black"/>
<path d="M250.894,355.192v 4.28927" fill="none" stroke="black"/>
<path d="M267.429,355.192v 4.28927" fill="none" stroke="black"/>
<path d="M283.965,350.903v 8.57853" fill="none" stroke="black"/>
<path d="M300.5,355.192v 4.28927" fill="none" stroke="black"/>
<path d="M317.035,355.192v 4.28927" fill="none" stroke="black"/>
<path d="M333.571,355.192v 4.28927" fill="none" stroke="black"/>
<path d="M350.106,350.903v 8.57853" fill="none" stroke="black"/>
<path d="M366.642,355.192v 4.28927" fill="none" stroke="black"/>
<path d="M383.177,355.192v 4.28927" fill="none" stroke="black"/>
<path d="M399.713,355.192v 4.28927" fill="none" stroke="black"/>
<path d="M416.248,350.903v 8.57853" fill="none" stroke="black"/>
<path d="M432.783,355.192v 4.28927" fill="none" stroke="black"/>
<path d="M449.319,355.192v 4.28927" fill="none" stroke="black"/>
<path d="M465.854,355.192v 4.28927" fill="none" stroke="black"/>
<path d="M482.39,350.903v 8.57853" fill="none" stroke="black"/>
<text xml:space="preserve" x="85.0421" y="374.401" fill="black" font-size="15.4909" font-family="Helvetica">6</text>
<text xml:space="preserve" x="76.5168" y="374.401" fill="black" font-size="15.4909" font-family="Times">&#8722;</text>
<text xml:space="preserve" x="151.113" y="374.401" fill="black" font-size="15.4909" font-family="Helvetica">4</text>
<text xml:space="preserve" x="142.588" y="374.401" fill="black" font-size="15.4909" font-family="Times">&#8722;</text>
<text xml:space="preserve" x="217.183" y="374.401" fill="black" font-size="15.4909" font-family="Helvetica">2</text>
<text xml:space="preserve" x="208.658" y="374.401" fill="black" font-size="15.4909" font-family="Times">&#8722;</text>
<text xml:space="preserve" x="279.702" y="374.401" fill="black" font-size="15.4909" font-family="Helvetica">0</text>
<text xml:space="preserve" x="345.773" y="374.401" fill="black" font-size="15.4909" font-family="Helvetica">2</text>
<text xml:space="preserve" x="411.843" y="374.401" fill="black" font-size="15.4909" font-family="Helvetica">4</text>
<text xml:space="preserve" x="477.914" y="374.401" fill="black" font-size="15.4909" font-family="Helvetica">6</text>
<text xml:space="preserve" x="471.52" y="398.555" fill="black" font-size="19.2386" font-family="Times">&#0951;</text>
<path d="M85.5394,20.4251h 396.85" fill="none" stroke="black"/>
<path d="M85.5394,29.0036v -8.57853" fill="none" stroke="black"/>
<path d="M102.075,24.7143v -4.28927" fill="none" stroke="black"/>
<path d="M118.61,24.7143v -4.28927" fill="none" stroke="black"/>
<path d="M135.146,24.7143v -4.28927" fill="none" stroke="black"/>
<path d="M151.681,29.0036v -8.57853" fill="none" stroke="black"/>
<path d="M168.217,24.7143v -4.28927" fill="none" stroke="black"/>
<path d="M184.752,24.7143v -4.28927" fill="none" stroke="black"/>
<path d="M201.287,24.7143v -4.28927" fill="none" stroke="black"/>
<path d="M217.823,29.0036v -8.57853" fill="none" stroke="black"/>
<path d="M234.358,24.7143v -4.28927" fill="none" stroke="black"/>
<path d="M250.894,24.7143v -4.28927" fill="none" stroke="black"/>
<path d="M267.429,24.7143v -4.28927" fill="none" stroke="black"/>
<path d="M283.965,29.0036v -8.57853" fill="none" stroke="black"/>
<path d="M300.5,24.7143v -4.28927" fill="none" stroke="black"/>
<path d="M317.035,24.7143v -4.28927" fill="none" stroke="black"/>
<path d="M333.571,24.7143v -4.28927" fill="none" stroke="black"/>
<path d="M350.106,29.0036v -8.57853" fill="none" stroke="black"/>
<path d="M366.642,24.7143v -4.28927" fill="none" stroke="black"/>
<path d="M383.177,24.7143v -4.28927" fill="none" stroke="black"/>
<path d="M399.713,24.7143v -4.28927" fill="none" stroke="black"/>
<path d="M416.248,29.0036v -8.57853" fill="none" stroke="black"/>
<path d="M432.783,24.7143v -4.28927" fill="none" stroke="black"/>
<path d="M449.319,24.7143v -4.28927" fill="none" stroke="black"/>
<path d="M465.854,24.7143v -4.28927" fill="none" stroke="black"/>
<path d="M482.39,29.0036v -8.57853" fill="none" stroke="black"/>
<path d="M85.5394,359.481v -339.056" fill="none" stroke="black"/>
<path d="M99.6559,359.481h -14.1165" fill="none" stroke="black"/>
<path d="M92.5976,347.152h -7.05827" fill="none" stroke="black"/>
<path d="M92.5976,334.823h -7.05827" fill="none" stroke="black"/>
<path d="M92.5976,322.493h -7.05827" fill="none" stroke="black"/>
<path d="M92.5976,310.164h -7.05827" fill="none" stroke="black"/>
<path d="M99.6559,297.835h -14.1165" fill="none" stroke="black"/>
<path d="M92.5976,285.505h -7.05827" fill="none" stroke="black"/>
<path d="M92.5976,273.176h -7.05827" fill="none" stroke="black"/>
<path d="M92.5976,260.847h -7.05827" fill="none" stroke="black"/>
<path d="M92.5976,248.518h -7.05827" fill="none" stroke="black"/>
<path d="M99.6559,236.188h -14.1165" fill="none" stroke="black"/>
<path d="M92.5976,223.859h -7.05827" fill="none" stroke="black"/>
<path d="M92.5976,211.53h -7.05827" fill="none" stroke="black"/>
<path d="M92.5976,199.2h -7.05827" fill="none" stroke="black"/>
<path d="M92.5976,186.871h -7.05827" fill="none" stroke="black"/>
<path d="M99.6559,174.542h -14.1165" fill="none" stroke="black"/>
<path d="M92.5976,162.212h -7.05827" fill="none" stroke="black"/>
<path d="M92.5976,149.883h -7.05827" fill="none" stroke="black"/>
<path d="M92.5976,137.554h -7.05827" fill="none" stroke="black"/>
<path d="M92.5976,125.224h -7.05827" fill="none" stroke="black"/>
<path d="M99.6559,112.895h -14.1165" fill="none" stroke="black"/>
<path d="M92.5976,100.566h -7.05827" fill="none" stroke="black"/>
<path d="M92.5976,88.2363h -7.05827" fill="none" stroke="black"/>
<path d="M92.5976,75.907h -7.05827" fill="none" stroke="black"/>
<path d="M92.5976,63.5777h -7.05827" fill="none" stroke="black"/>
<path d="M99.6559,51.2484h -14.1165" fill="none" stroke="black"/>
<path d="M99.6559,51.2484h -14.1165" fill="none" stroke="black"/>
<path d="M92.5976,38.9191h -7.05827" fill="none" stroke="black"/>
<path d="M92.5976,26.5897h -7.05827" fill="none" stroke="black"/>
<text xml:space="preserve" x="74.3855" y="365.165" fill="black" font-size="15.4909" font-family="Helvetica">0</text>
<text xml:space="preserve" x="76.5168" y="303.357" fill="black" font-size="15.4909" font-family="Helvetica">1</text>
<text xml:space="preserve" x="74.3855" y="241.549" fill="black" font-size="15.4909" font-family="Helvetica">2</text>
<text xml:space="preserve" x="74.3855" y="179.741" fill="black" font-size="15.4909" font-family="Helvetica">3</text>
<text xml:space="preserve" x="74.3855" y="117.933" fill="black" font-size="15.4909" font-family="Helvetica">4</text>
<text xml:space="preserve" x="74.3855" y="56.835" fill="black" font-size="15.4909" font-family="Helvetica">5</text>
<g transform="rotate(-90,54.4933,30.5488)">
<text xml:space="preserve" x="54.4933" y="30.5488" fill="black" font-size="19.2386" font-family="Times">&#0951;</text>
</g>
<g transform="rotate(-90,54.4933,70.3333)">
<text xml:space="preserve" x="54.4933" y="70.3333" fill="black" font-size="19.2386" font-family="Helvetica">dN/d</text>
</g>
<path d="M482.39,359.481v -339.056" fill="none" stroke="black"/>
<path d="M468.273,359.481h 14.1165" fill="none" stroke="black"/>
<path d="M475.332,347.152h 7.05827" fill="none" stroke="black"/>
<path d="M475.332,334.823h 7.05827" fill="none" stroke="black"/>
<path d="M475.332,322.493h 7.05827" fill="none" stroke="black"/>
<path d="M475.332,310.164h 7.05827" fill="none" stroke="black"/>
<path d="M468.273,297.835h 14.1165" fill="none" stroke="black"/>
<path d="M475.332,285.505h 7.05827" fill="none" stroke="black"/>
<path d="M475.332,273.176h 7.05827" fill="none" stroke="black"/>
<path d="M475.332,260.847h 7.05827" fill="none" stroke="black"/>
<path d="M475.332,248.518h 7.05827" fill="none" stroke="black"/>
<path d="M468.273,236.188h 14.1165" fill="none" stroke="black"/>
<path d="M475.332,223.859h 7.05827" fill="none" stroke="black"/>
<path d="M475.332,211.53h 7.05827" fill="none" stroke="black"/>
<path d="M475.332,199.2h 7.05827" fill="none" stroke="black"/>
<path d="M475.332,186.871h 7.05827" fill="none" stroke="black"/>
<path d="M468.273,174.542h 14.1165" fill="none" stroke="black"/>
<path d="M475.332,162.212h 7.05827" fill="none" stroke="black"/>
<path d="M475.332,149.883h 7.05827" fill="none" stroke="black"/>
<path d="M475.332,137.554h 7.05827" fill="none" stroke="black"/>
<path d="M475.332,125.224h 7.05827" fill="none" stroke="black"/>
<path d="M468.273,112.895h 14.1165" fill="none" stroke="black"/>
<path d="M475.332,100.566h 7.05827" fill="none" stroke="black"/>
<path d="M475.332,88.2363h 7.05827" fill="none" stroke="black"/>
<path d="M475.332,75.907h 7.05827" fill="none" stroke="black"/>
<path d="M475.332,63.5777h 7.05827" fill="none" stroke="black"/>
<path d="M468.273,51.2484h 14.1165" fill="none" stroke="black"/>
<path d="M468.273,51.2484h 14.1165" fill="none" stroke="black"/>
<path d="M475.332,38.9191h 7.05827" fill="none" stroke="black"/>
<path d="M475.332,26.5897h 7.05827" fill="none" stroke="black"/>
<path d="M118.61,301.302h 5.42597" fill="none" stroke="black"/>
<path d="M129.72,301.302h 5.42597" fill="none" stroke="black"/>
<g fill="black">
<circle cx="126.878" cy="301.302" r="2.84175"/>
</g>
<path d="M135.146,277.394h 5.42597" fill="none" stroke="black"/>
<path d="M146.255,277.394h 5.42597" fill="none" stroke="black"/>
<g fill="black">
<circle cx="143.413" cy="277.394" r="2.84175"/>
</g>
<path d="M151.681,255.343h 5.42597" fill="none" stroke="black"/>
<path d="M162.791,255.343h 5.42597" fill="none" stroke="black"/>
<g fill="black">
<circle cx="159.949" cy="255.343" r="2.84175"/>
</g>
<path d="M168.217,233.565h 5.42597" fill="none" stroke="black"/>
<path d="M179.326,233.565h 5.42597" fill="none" stroke="black"/>
<g fill="black">
<circle cx="176.484" cy="233.565" r="2.84175"/>
</g>
<path d="M184.752,216.358h 5.42597" fill="none" stroke="black"/>
<path d="M195.861,216.358h 5.42597" fill="none" stroke="black"/>
<g fill="black">
<circle cx="193.02" cy="216.358" r="2.84175"/>
</g>
<path d="M201.287,201.969h 5.42597" fill="none" stroke="black"/>
<path d="M212.397,201.969h 5.42597" fill="none" stroke="black"/>
<g fill="black">
<circle cx="209.555" cy="201.969" r="2.84175"/>
</g>
<path d="M217.823,197.086h 5.42597" fill="none" stroke="black"/>
<path d="M228.932,197.086h 5.42597" fill="none" stroke="black"/>
<g fill="black">
<circle cx="226.091" cy="197.086" r="2.84175"/>
</g>
<path d="M234.358,191.943h 5.42597" fill="none" stroke="black"/>
<path d="M245.468,191.943h 5.42597" fill="none" stroke="black"/>
<g fill="black">
<circle cx="242.626" cy="191.943" r="2.84175"/>
</g>
<path d="M250.894,199.073h 5.42597" fill="none" stroke="black"/>
<path d="M262.003,199.073h 5.42597" fill="none" stroke="black"/>
<g fill="black">
<circle cx="259.161" cy="199.073" r="2.84175"/>
</g>
<path d="M267.429,204.878h 5.42597" fill="none" stroke="black"/>
<path d="M278.539,204.878h 5.42597" fill="none" stroke="black"/>
<g fill="black">
<circle cx="275.697" cy="204.878" r="2.84175"/>
</g>
<path d="M283.965,200.826h 5.42597" fill="none" stroke="black"/>
<path d="M295.074,200.826h 5.42597" fill="none" stroke="black"/>
<g fill="black">
<circle cx="292.232" cy="200.826" r="2.84175"/>
</g>
<path d="M300.5,198.982h 5.42597" fill="none" stroke="black"/>
<path d="M311.609,198.982h 5.42597" fill="none" stroke="black"/>
<g fill="black">
<circle cx="308.768" cy="198.982" r="2.84175"/>
</g>
<path d="M317.035,192.969h 5.42597" fill="none" stroke="black"/>
<path d="M328.145,192.969h 5.42597" fill="none" stroke="black"/>
<g fill="black">
<circle cx="325.303" cy="192.969" r="2.84175"/>
</g>
<path d="M333.571,192.839h 5.42597" fill="none" stroke="black"/>
<path d="M344.68,192.839h 5.42597" fill="none" stroke="black"/>
<g fill="black">
<circle cx="341.839" cy="192.839" r="2.84175"/>
</g>
<path d="M350.106,198.722h 5.42597" fill="none" stroke="black"/>
<path d="M361.216,198.722h 5.42597" fill="none" stroke="black"/>
<g fill="black">
<circle cx="358.374" cy="198.722" r="2.84175"/>
</g>
<path d="M366.642,213.722h 5.42597" fill="none" stroke="black"/>
<path d="M377.751,213.722h 5.42597" fill="none" stroke="black"/>
<g fill="black">
<circle cx="374.909" cy="213.722" r="2.84175"/>
</g>
<path d="M383.177,235.24h 5.42597" fill="none" stroke="black"/>
<path d="M394.287,235.24h 5.42597" fill="none" stroke="black"/>
<g fill="black">
<circle cx="391.445" cy="235.24" r="2.84175"/>
</g>
<path d="M399.713,254.733h 5.42597" fill="none" stroke="black"/>
<path d="M410.822,254.733h 5.42597" fill="none" stroke="black"/>
<g fill="black">
<circle cx="407.98" cy="254.733" r="2.84175"/>
</g>
<path d="M416.248,278.355h 5.42597" fill="none" stroke="black"/>
<path d="M427.358,278.355h 5.42597" fill="none" stroke="black"/>
<g fill="black">
<circle cx="424.516" cy="278.355" r="2.84175"/>
</g>
<path d="M432.783,301.523h 5.42597" fill="none" stroke="black"/>
<path d="M443.893,301.523h 5.42597" fill="none" stroke="black"/>
<g fill="black">
<circle cx="441.051" cy="301.523" r="2.84175"/>
</g>
<text xml:space="preserve" x="304.567" y="49.7306" fill="black" font-size="15.4909" font-family="Helvetica">PYTHIA8</text>
<text xml:space="preserve" x="304.567" y="78.8586" fill="black" font-size="15.4909" font-family="Helvetica">p+Au 200 GeV</text>
<text xml:space="preserve" x="304.567" y="108.697" fill="black" font-size="15.4909" font-family="Helvetica">option0(MC Glauber)</text>
<text xml:space="preserve" x="342.931" y="137.825" fill="black" font-size="15.4909" font-family="Helvetica">, p</text>
<text xml:space="preserve" x="337.247" y="130.721" fill="black" font-size="10.4939" font-family="Times">&#0177;</text>
<text xml:space="preserve" x="318.776" y="137.825" fill="black" font-size="15.4909" font-family="Helvetica">, K</text>
<text xml:space="preserve" x="313.092" y="132.852" fill="black" font-size="10.4939" font-family="Times">&#0177;</text>
<text xml:space="preserve" x="304.567" y="137.825" fill="black" font-size="15.4909" font-family="Times">&#0960;</text>
<text xml:space="preserve" x="304.567" y="166.953" fill="black" font-size="15.4909" font-family="Helvetica">Ncoll = 1 event: 9,494</text></svg>
