<?xml version="1.0" standalone="no"?>
<svg width="567.429" height="409.002" viewBox="0 0 567.429 409.002" xmlns="http://www.w3.org/2000/svg" shape-rendering="crispEdges">
<title>
/Users/jinhyunpark/npl/gitHub/xloadFromServer/Git_Bias_correction_RxA/plots/R_pAu_opt1_allClass.svg
</title>
<desc>
Creator: ROOT Version 6.26/06
CreationDate: Thu Mar 23 00:25:11 2023</desc>
<defs>
</defs>
<rect x="0.5" y="0" width="566.929" height="408.502" fill="white"/>
<rect x="85.5394" y="20.4251" width="396.85" height="339.056" fill="white"/>
<rect x="85.5394" y="20.4251" width="396.85" height="339.056" fill="none" stroke="black"/>
<rect x="85.5394" y="20.4251" width="396.85" height="339.056" fill="white"/>
<rect x="85.5394" y="20.4251" width="396.85" height="339.056" fill="none" stroke="black"/>
<path d="M85.5394,359.481h 396.85" fill="none" stroke="black"/>
<path d="M85.5394,350.903v 8.57853" fill="none" stroke="black"/>
<path d="M96.878,355.192v 4.28927" fill="none" stroke="black"/>
<path d="M108.217,355.192v 4.28927" fill="none" stroke="black"/>
<path d="M119.555,355.192v 4.28927" fill="none" stroke="black"/>
<path d="M130.894,355.192v 4.28927" fill="none" stroke="black"/>
<path d="M142.232,350.903v 8.57853" fill="none" stroke="black"/>
<path d="M153.571,355.192v 4.28927" fill="none" stroke="black"/>
<path d="M164.909,355.192v 4.28927" fill="none" stroke="black"/>
<path d="M176.248,355.192v 4.28927" fill="none" stroke="black"/>
<path d="M187.587,355.192v 4.28927" fill="none" stroke="black"/>
<path d="M198.925,350.903v 8.57853" fill="none" stroke="black"/>
<path d="M210.264,355.192v 4.28927" fill="none" stroke="black"/>
<path d="M221.602,355.192v 4.28927" fill="none" stroke="black"/>
<path d="M232.941,355.192v 4.28927" fill="none" stroke="black"/>
<path d="M244.28,355.192v 4.28927" fill="none" stroke="black"/>
<path d="M255.618,350.903v 8.57853" fill="none" stroke="black"/>
<path d="M266.957,355.192v 4.28927" fill="none" stroke="black"/>
<path d="M278.295,355.192v 4.28927" fill="none" stroke="black"/>
<path d="M289.634,355.192v 4.28927" fill="none" stroke="black"/>
<path d="M300.972,355.192v 4.28927" fill="none" stroke="black"/>
<path d="M312.311,350.903v 8.57853" fill="none" stroke="black"/>
<path d="M323.65,355.192v 4.28927" fill="none" stroke="black"/>
<path d="M334.988,355.192v 4.28927" fill="none" stroke="black"/>
<path d="M346.327,355.192v 4.28927" fill="none" stroke="black"/>
<path d="M357.665,355.192v 4.28927" fill="none" stroke="black"/>
<path d="M369.004,350.903v 8.57853" fill="none" stroke="black"/>
<path d="M380.343,355.192v 4.28927" fill="none" stroke="black"/>
<path d="M391.681,355.192v 4.28927" fill="none" stroke="black"/>
<path d="M403.02,355.192v 4.28927" fill="none" stroke="black"/>
<path d="M414.358,355.192v 4.28927" fill="none" stroke="black"/>
<path d="M425.697,350.903v 8.57853" fill="none" stroke="black"/>
<path d="M437.035,355.192v 4.28927" fill="none" stroke="black"/>
<path d="M448.374,355.192v 4.28927" fill="none" stroke="black"/>
<path d="M459.713,355.192v 4.28927" fill="none" stroke="black"/>
<path d="M471.051,355.192v 4.28927" fill="none" stroke="black"/>
<path d="M482.39,350.903v 8.57853" fill="none" stroke="black"/>
<text xml:space="preserve" x="80.7794" y="374.401" fill="black" font-size="15.4909" font-family="Helvetica">0</text>
<text xml:space="preserve" x="139.035" y="374.401" fill="black" font-size="15.4909" font-family="Helvetica">1</text>
<text xml:space="preserve" x="194.449" y="374.401" fill="black" font-size="15.4909" font-family="Helvetica">2</text>
<text xml:space="preserve" x="251.284" y="374.401" fill="black" font-size="15.4909" font-family="Helvetica">3</text>
<text xml:space="preserve" x="307.409" y="374.401" fill="black" font-size="15.4909" font-family="Helvetica">4</text>
<text xml:space="preserve" x="364.244" y="374.401" fill="black" font-size="15.4909" font-family="Helvetica">5</text>
<text xml:space="preserve" x="421.079" y="374.401" fill="black" font-size="15.4909" font-family="Helvetica">6</text>
<text xml:space="preserve" x="477.914" y="374.401" fill="black" font-size="15.4909" font-family="Helvetica">7</text>
<text xml:space="preserve" x="432.446" y="397.845" fill="black" font-size="19.2386" font-family="Helvetica">(GeV)</text>
<text xml:space="preserve" x="424.631" y="407.791" fill="black" font-size="12.9924" font-family="Helvetica">T</text>
<text xml:space="preserve" x="413.975" y="397.845" fill="black" font-size="19.2386" font-family="Helvetica">p</text>
<path d="M85.5394,20.4251h 396.85" fill="none" stroke="black"/>
<path d="M85.5394,29.0036v -8.57853" fill="none" stroke="black"/>
<path d="M96.878,24.7143v -4.28927" fill="none" stroke="black"/>
<path d="M108.217,24.7143v -4.28927" fill="none" stroke="black"/>
<path d="M119.555,24.7143v -4.28927" fill="none" stroke="black"/>
<path d="M130.894,24.7143v -4.28927" fill="none" stroke="black"/>
<path d="M142.232,29.0036v -8.57853" fill="none" stroke="black"/>
<path d="M153.571,24.7143v -4.28927" fill="none" stroke="black"/>
<path d="M164.909,24.7143v -4.28927" fill="none" stroke="black"/>
<path d="M176.248,24.7143v -4.28927" fill="none" stroke="black"/>
<path d="M187.587,24.7143v -4.28927" fill="none" stroke="black"/>
<path d="M198.925,29.0036v -8.57853" fill="none" stroke="black"/>
<path d="M210.264,24.7143v -4.28927" fill="none" stroke="black"/>
<path d="M221.602,24.7143v -4.28927" fill="none" stroke="black"/>
<path d="M232.941,24.7143v -4.28927" fill="none" stroke="black"/>
<path d="M244.28,24.7143v -4.28927" fill="none" stroke="black"/>
<path d="M255.618,29.0036v -8.57853" fill="none" stroke="black"/>
<path d="M266.957,24.7143v -4.28927" fill="none" stroke="black"/>
<path d="M278.295,24.7143v -4.28927" fill="none" stroke="black"/>
<path d="M289.634,24.7143v -4.28927" fill="none" stroke="black"/>
<path d="M300.972,24.7143v -4.28927" fill="none" stroke="black"/>
<path d="M312.311,29.0036v -8.57853" fill="none" stroke="black"/>
<path d="M323.65,24.7143v -4.28927" fill="none" stroke="black"/>
<path d="M334.988,24.7143v -4.28927" fill="none" stroke="black"/>
<path d="M346.327,24.7143v -4.28927" fill="none" stroke="black"/>
<path d="M357.665,24.7143v -4.28927" fill="none" stroke="black"/>
<path d="M369.004,29.0036v -8.57853" fill="none" stroke="black"/>
<path d="M380.343,24.7143v -4.28927" fill="none" stroke="black"/>
<path d="M391.681,24.7143v -4.28927" fill="none" stroke="black"/>
<path d="M403.02,24.7143v -4.28927" fill="none" stroke="black"/>
<path d="M414.358,24.7143v -4.28927" fill="none" stroke="black"/>
<path d="M425.697,29.0036v -8.57853" fill="none" stroke="black"/>
<path d="M437.035,24.7143v -4.28927" fill="none" stroke="black"/>
<path d="M448.374,24.7143v -4.28927" fill="none" stroke="black"/>
<path d="M459.713,24.7143v -4.28927" fill="none" stroke="black"/>
<path d="M471.051,24.7143v -4.28927" fill="none" stroke="black"/>
<path d="M482.39,29.0036v -8.57853" fill="none" stroke="black"/>
<path d="M85.5394,359.481v -339.056" fill="none" stroke="black"/>
<path d="M99.6559,359.481h -14.1165" fill="none" stroke="black"/>
<path d="M92.5976,352.7h -7.05827" fill="none" stroke="black"/>
<path d="M92.5976,345.919h -7.05827" fill="none" stroke="black"/>
<path d="M92.5976,339.138h -7.05827" fill="none" stroke="black"/>
<path d="M92.5976,332.357h -7.05827" fill="none" stroke="black"/>
<path d="M99.6559,325.576h -14.1165" fill="none" stroke="black"/>
<path d="M92.5976,318.795h -7.05827" fill="none" stroke="black"/>
<path d="M92.5976,312.014h -7.05827" fill="none" stroke="black"/>
<path d="M92.5976,305.232h -7.05827" fill="none" stroke="black"/>
<path d="M92.5976,298.451h -7.05827" fill="none" stroke="black"/>
<path d="M99.6559,291.67h -14.1165" fill="none" stroke="black"/>
<path d="M92.5976,284.889h -7.05827" fill="none" stroke="black"/>
<path d="M92.5976,278.108h -7.05827" fill="none" stroke="black"/>
<path d="M92.5976,271.327h -7.05827" fill="none" stroke="black"/>
<path d="M92.5976,264.546h -7.05827" fill="none" stroke="black"/>
<path d="M99.6559,257.764h -14.1165" fill="none" stroke="black"/>
<path d="M92.5976,250.983h -7.05827" fill="none" stroke="black"/>
<path d="M92.5976,244.202h -7.05827" fill="none" stroke="black"/>
<path d="M92.5976,237.421h -7.05827" fill="none" stroke="black"/>
<path d="M92.5976,230.64h -7.05827" fill="none" stroke="black"/>
<path d="M99.6559,223.859h -14.1165" fill="none" stroke="black"/>
<path d="M92.5976,217.078h -7.05827" fill="none" stroke="black"/>
<path d="M92.5976,210.297h -7.05827" fill="none" stroke="black"/>
<path d="M92.5976,203.515h -7.05827" fill="none" stroke="black"/>
<path d="M92.5976,196.734h -7.05827" fill="none" stroke="black"/>
<path d="M99.6559,189.953h -14.1165" fill="none" stroke="black"/>
<path d="M92.5976,183.172h -7.05827" fill="none" stroke="black"/>
<path d="M92.5976,176.391h -7.05827" fill="none" stroke="black"/>
<path d="M92.5976,169.61h -7.05827" fill="none" stroke="black"/>
<path d="M92.5976,162.829h -7.05827" fill="none" stroke="black"/>
<path d="M99.6559,156.048h -14.1165" fill="none" stroke="black"/>
<path d="M92.5976,149.266h -7.05827" fill="none" stroke="black"/>
<path d="M92.5976,142.485h -7.05827" fill="none" stroke="black"/>
<path d="M92.5976,135.704h -7.05827" fill="none" stroke="black"/>
<path d="M92.5976,128.923h -7.05827" fill="none" stroke="black"/>
<path d="M99.6559,122.142h -14.1165" fill="none" stroke="black"/>
<path d="M92.5976,115.361h -7.05827" fill="none" stroke="black"/>
<path d="M92.5976,108.58h -7.05827" fill="none" stroke="black"/>
<path d="M92.5976,101.799h -7.05827" fill="none" stroke="black"/>
<path d="M92.5976,95.0175h -7.05827" fill="none" stroke="black"/>
<path d="M99.6559,88.2363h -14.1165" fill="none" stroke="black"/>
<path d="M92.5976,81.4552h -7.05827" fill="none" stroke="black"/>
<path d="M92.5976,74.6741h -7.05827" fill="none" stroke="black"/>
<path d="M92.5976,67.893h -7.05827" fill="none" stroke="black"/>
<path d="M92.5976,61.1118h -7.05827" fill="none" stroke="black"/>
<path d="M99.6559,54.3307h -14.1165" fill="none" stroke="black"/>
<path d="M92.5976,47.5496h -7.05827" fill="none" stroke="black"/>
<path d="M92.5976,40.7685h -7.05827" fill="none" stroke="black"/>
<path d="M92.5976,33.9873h -7.05827" fill="none" stroke="black"/>
<path d="M92.5976,27.2062h -7.05827" fill="none" stroke="black"/>
<path d="M99.6559,20.4251h -14.1165" fill="none" stroke="black"/>
<text xml:space="preserve" x="74.3855" y="365.165" fill="black" font-size="15.4909" font-family="Helvetica">0</text>
<text xml:space="preserve" x="61.5976" y="331.064" fill="black" font-size="15.4909" font-family="Helvetica">0.5</text>
<text xml:space="preserve" x="76.5168" y="296.963" fill="black" font-size="15.4909" font-family="Helvetica">1</text>
<text xml:space="preserve" x="61.5976" y="262.862" fill="black" font-size="15.4909" font-family="Helvetica">1.5</text>
<text xml:space="preserve" x="74.3855" y="229.471" fill="black" font-size="15.4909" font-family="Helvetica">2</text>
<text xml:space="preserve" x="61.5976" y="195.37" fill="black" font-size="15.4909" font-family="Helvetica">2.5</text>
<text xml:space="preserve" x="74.3855" y="161.269" fill="black" font-size="15.4909" font-family="Helvetica">3</text>
<text xml:space="preserve" x="61.5976" y="127.168" fill="black" font-size="15.4909" font-family="Helvetica">3.5</text>
<text xml:space="preserve" x="74.3855" y="93.7778" fill="black" font-size="15.4909" font-family="Helvetica">4</text>
<text xml:space="preserve" x="61.5976" y="59.6768" fill="black" font-size="15.4909" font-family="Helvetica">4.5</text>
<text xml:space="preserve" x="74.3855" y="25.5758" fill="black" font-size="15.4909" font-family="Helvetica">5</text>
<g transform="rotate(-90,45.2576,41.9158)">
<text xml:space="preserve" x="45.2576" y="41.9158" fill="black" font-size="12.9924" font-family="Helvetica">pAu</text>
</g>
<g transform="rotate(-90,38.8636,55.4141)">
<text xml:space="preserve" x="38.8636" y="55.4141" fill="black" font-size="19.2386" font-family="Helvetica">R</text>
</g>
<path d="M482.39,359.481v -339.056" fill="none" stroke="black"/>
<path d="M468.273,359.481h 14.1165" fill="none" stroke="black"/>
<path d="M475.332,352.7h 7.05827" fill="none" stroke="black"/>
<path d="M475.332,345.919h 7.05827" fill="none" stroke="black"/>
<path d="M475.332,339.138h 7.05827" fill="none" stroke="black"/>
<path d="M475.332,332.357h 7.05827" fill="none" stroke="black"/>
<path d="M468.273,325.576h 14.1165" fill="none" stroke="black"/>
<path d="M475.332,318.795h 7.05827" fill="none" stroke="black"/>
<path d="M475.332,312.014h 7.05827" fill="none" stroke="black"/>
<path d="M475.332,305.232h 7.05827" fill="none" stroke="black"/>
<path d="M475.332,298.451h 7.05827" fill="none" stroke="black"/>
<path d="M468.273,291.67h 14.1165" fill="none" stroke="black"/>
<path d="M475.332,284.889h 7.05827" fill="none" stroke="black"/>
<path d="M475.332,278.108h 7.05827" fill="none" stroke="black"/>
<path d="M475.332,271.327h 7.05827" fill="none" stroke="black"/>
<path d="M475.332,264.546h 7.05827" fill="none" stroke="black"/>
<path d="M468.273,257.764h 14.1165" fill="none" stroke="black"/>
<path d="M475.332,250.983h 7.05827" fill="none" stroke="black"/>
<path d="M475.332,244.202h 7.05827" fill="none" stroke="black"/>
<path d="M475.332,237.421h 7.05827" fill="none" stroke="black"/>
<path d="M475.332,230.64h 7.05827" fill="none" stroke="black"/>
<path d="M468.273,223.859h 14.1165" fill="none" stroke="black"/>
<path d="M475.332,217.078h 7.05827" fill="none" stroke="black"/>
<path d="M475.332,210.297h 7.05827" fill="none" stroke="black"/>
<path d="M475.332,203.515h 7.05827" fill="none" stroke="black"/>
<path d="M475.332,196.734h 7.05827" fill="none" stroke="black"/>
<path d="M468.273,189.953h 14.1165" fill="none" stroke="black"/>
<path d="M475.332,183.172h 7.05827" fill="none" stroke="black"/>
<path d="M475.332,176.391h 7.05827" fill="none" stroke="black"/>
<path d="M475.332,169.61h 7.05827" fill="none" stroke="black"/>
<path d="M475.332,162.829h 7.05827" fill="none" stroke="black"/>
<path d="M468.273,156.048h 14.1165" fill="none" stroke="black"/>
<path d="M475.332,149.266h 7.05827" fill="none" stroke="black"/>
<path d="M475.332,142.485h 7.05827" fill="none" stroke="black"/>
<path d="M475.332,135.704h 7.05827" fill="none" stroke="black"/>
<path d="M475.332,128.923h 7.05827" fill="none" stroke="black"/>
<path d="M468.273,122.142h 14.1165" fill="none" stroke="black"/>
<path d="M475.332,115.361h 7.05827" fill="none" stroke="black"/>
<path d="M475.332,108.58h 7.05827" fill="none" stroke="black"/>
<path d="M475.332,101.799h 7.05827" fill="none" stroke="black"/>
<path d="M475.332,95.0175h 7.05827" fill="none" stroke="black"/>
<path d="M468.273,88.2363h 14.1165" fill="none" stroke="black"/>
<path d="M475.332,81.4552h 7.05827" fill="none" stroke="black"/>
<path d="M475.332,74.6741h 7.05827" fill="none" stroke="black"/>
<path d="M475.332,67.893h 7.05827" fill="none" stroke="black"/>
<path d="M475.332,61.1118h 7.05827" fill="none" stroke="black"/>
<path d="M468.273,54.3307h 14.1165" fill="none" stroke="black"/>
<path d="M475.332,47.5496h 7.05827" fill="none" stroke="black"/>
<path d="M475.332,40.7685h 7.05827" fill="none" stroke="black"/>
<path d="M475.332,33.9873h 7.05827" fill="none" stroke="black"/>
<path d="M475.332,27.2062h 7.05827" fill="none" stroke="black"/>
<path d="M468.273,20.4251h 14.1165" fill="none" stroke="black"/>
<path d="M85.5394,334.248h 11.3315" fill="none" stroke="black"/>
<path d="M102.554,334.248h 11.3315" fill="none" stroke="black"/>
<g fill="black">
<circle cx="99.7126" cy="334.248" r="2.84175"/>
</g>
<path d="M113.886,335.155h 11.3315" fill="none" stroke="black"/>
<path d="M130.901,335.155h 11.3315" fill="none" stroke="black"/>
<g fill="black">
<circle cx="128.059" cy="335.155" r="2.84175"/>
</g>
<path d="M142.232,336.178h 11.3315" fill="none" stroke="black"/>
<path d="M159.247,336.178h 11.3315" fill="none" stroke="black"/>
<g fill="black">
<circle cx="156.406" cy="336.178" r="2.84175"/>
</g>
<path d="M170.579,333.404h 11.3315" fill="none" stroke="black"/>
<path d="M187.594,333.404h 11.3315" fill="none" stroke="black"/>
<g fill="black">
<circle cx="184.752" cy="333.404" r="2.84175"/>
</g>
<path d="M213.098,330.837v -1.97615" fill="none" stroke="black"/>
<path d="M213.098,323.177v -1.97615" fill="none" stroke="black"/>
<path d="M198.925,326.019h 11.3315" fill="none" stroke="black"/>
<path d="M215.94,326.019h 11.3315" fill="none" stroke="black"/>
<g fill="black">
<circle cx="213.098" cy="326.019" r="2.84175"/>
</g>
<path d="M241.445,343.613v -3.66056" fill="none" stroke="black"/>
<path d="M241.445,334.269v -3.66056" fill="none" stroke="black"/>
<path d="M227.272,337.111h 11.3315" fill="none" stroke="black"/>
<path d="M244.287,337.111h 11.3315" fill="none" stroke="black"/>
<g fill="black">
<circle cx="241.445" cy="337.111" r="2.84175"/>
</g>
<path d="M269.791,348.49v -6.12822" fill="none" stroke="black"/>
<path d="M269.791,336.678v -6.12822" fill="none" stroke="black"/>
<path d="M255.618,339.52h 11.3315" fill="none" stroke="black"/>
<path d="M272.633,339.52h 11.3315" fill="none" stroke="black"/>
<g fill="black">
<circle cx="269.791" cy="339.52" r="2.84175"/>
</g>
<path d="M298.138,352.146v -6.04171" fill="none" stroke="black"/>
<path d="M298.138,340.421v -6.04171" fill="none" stroke="black"/>
<path d="M283.965,343.262h 11.3315" fill="none" stroke="black"/>
<path d="M300.98,343.262h 11.3315" fill="none" stroke="black"/>
<g fill="black">
<circle cx="298.138" cy="343.262" r="2.84175"/>
</g>
<path d="M326.484,359.481v -13.3771" fill="none" stroke="black"/>
<path d="M326.484,340.421v -17.0223" fill="none" stroke="black"/>
<path d="M312.311,343.262h 11.3315" fill="none" stroke="black"/>
<path d="M329.326,343.262h 11.3315" fill="none" stroke="black"/>
<g fill="black">
<circle cx="326.484" cy="343.262" r="2.84175"/>
</g>
<path d="M85.5394,325.352h 11.3315" fill="none" stroke="#ff0000"/>
<path d="M102.554,325.352h 11.3315" fill="none" stroke="#ff0000"/>
<g fill="#ff0000">
<rect x="96.8708" y="322.51" width="5.6835" height="5.6835"/>
</g>
<path d="M113.886,325.916h 11.3315" fill="none" stroke="#ff0000"/>
<path d="M130.901,325.916h 11.3315" fill="none" stroke="#ff0000"/>
<g fill="#ff0000">
<rect x="125.217" y="323.074" width="5.6835" height="5.6835"/>
</g>
<path d="M142.232,324.612h 11.3315" fill="none" stroke="#ff0000"/>
<path d="M159.247,324.612h 11.3315" fill="none" stroke="#ff0000"/>
<g fill="#ff0000">
<rect x="153.564" y="321.771" width="5.6835" height="5.6835"/>
</g>
<path d="M184.752,323.55v -0.239703" fill="none" stroke="#ff0000"/>
<path d="M184.752,317.627v -0.239703" fill="none" stroke="#ff0000"/>
<path d="M170.579,320.469h 11.3315" fill="none" stroke="#ff0000"/>
<path d="M187.594,320.469h 11.3315" fill="none" stroke="#ff0000"/>
<g fill="#ff0000">
<rect x="181.91" y="317.627" width="5.6835" height="5.6835"/>
</g>
<path d="M213.098,329.367v -3.21909" fill="none" stroke="#ff0000"/>
<path d="M213.098,320.464v -3.21909" fill="none" stroke="#ff0000"/>
<path d="M198.925,323.306h 11.3315" fill="none" stroke="#ff0000"/>
<path d="M215.94,323.306h 11.3315" fill="none" stroke="#ff0000"/>
<g fill="#ff0000">
<rect x="210.257" y="320.464" width="5.6835" height="5.6835"/>
</g>
<path d="M241.445,339.847v -6.63066" fill="none" stroke="#ff0000"/>
<path d="M241.445,327.533v -6.63066" fill="none" stroke="#ff0000"/>
<path d="M227.272,330.375h 11.3315" fill="none" stroke="#ff0000"/>
<path d="M244.287,330.375h 11.3315" fill="none" stroke="#ff0000"/>
<g fill="#ff0000">
<rect x="238.603" y="327.533" width="5.6835" height="5.6835"/>
</g>
<path d="M269.791,335.841v -15.2582" fill="none" stroke="#ff0000"/>
<path d="M269.791,314.899v -15.2582" fill="none" stroke="#ff0000"/>
<path d="M255.618,317.741h 11.3315" fill="none" stroke="#ff0000"/>
<path d="M272.633,317.741h 11.3315" fill="none" stroke="#ff0000"/>
<g fill="#ff0000">
<rect x="266.95" y="314.899" width="5.6835" height="5.6835"/>
</g>
<path d="M298.138,349.632v -11.4259" fill="none" stroke="#ff0000"/>
<path d="M298.138,332.523v -11.4259" fill="none" stroke="#ff0000"/>
<path d="M283.965,335.365h 11.3315" fill="none" stroke="#ff0000"/>
<path d="M300.98,335.365h 11.3315" fill="none" stroke="#ff0000"/>
<g fill="#ff0000">
<rect x="295.296" y="332.523" width="5.6835" height="5.6835"/>
</g>
<path d="M326.484,359.481v -27.3042" fill="none" stroke="#ff0000"/>
<path d="M326.484,326.494v -34.0794" fill="none" stroke="#ff0000"/>
<path d="M312.311,329.335h 11.3315" fill="none" stroke="#ff0000"/>
<path d="M329.326,329.335h 11.3315" fill="none" stroke="#ff0000"/>
<g fill="#ff0000">
<rect x="323.643" y="326.494" width="5.6835" height="5.6835"/>
</g>
<path d="M85.5394,319.191h 12.7524" fill="none" stroke="#00ff00"/>
<path d="M101.133,319.191h 12.7524" fill="none" stroke="#00ff00"/>
<g fill="#00ff00">
<polygon points=" 99.7126, 316.349 102.554, 322.033 96.8708, 322.033"/>
</g>
<path d="M113.886,318.725h 12.7524" fill="none" stroke="#00ff00"/>
<path d="M129.48,318.725h 12.7524" fill="none" stroke="#00ff00"/>
<g fill="#00ff00">
<polygon points=" 128.059, 315.883 130.901, 321.566 125.217, 321.566"/>
</g>
<path d="M142.232,317.427h 12.7524" fill="none" stroke="#00ff00"/>
<path d="M157.826,317.427h 12.7524" fill="none" stroke="#00ff00"/>
<g fill="#00ff00">
<polygon points=" 156.406, 314.585 159.247, 320.269 153.564, 320.269"/>
</g>
<path d="M184.752,314.549v -0.449638" fill="none" stroke="#00ff00"/>
<path d="M184.752,308.416v -0.449638" fill="none" stroke="#00ff00"/>
<path d="M170.579,311.258h 12.7524" fill="none" stroke="#00ff00"/>
<path d="M186.173,311.258h 12.7524" fill="none" stroke="#00ff00"/>
<g fill="#00ff00">
<polygon points=" 184.752, 308.416 187.594, 314.1 181.91, 314.1"/>
</g>
<path d="M213.098,315.01v -4.3495" fill="none" stroke="#00ff00"/>
<path d="M213.098,304.977v -4.3495" fill="none" stroke="#00ff00"/>
<path d="M198.925,307.819h 12.7524" fill="none" stroke="#00ff00"/>
<path d="M214.519,307.819h 12.7524" fill="none" stroke="#00ff00"/>
<g fill="#00ff00">
<polygon points=" 213.098, 304.977 215.94, 310.661 210.257, 310.661"/>
</g>
<path d="M241.445,327.455v -8.56428" fill="none" stroke="#00ff00"/>
<path d="M241.445,313.207v -8.56428" fill="none" stroke="#00ff00"/>
<path d="M227.272,316.048h 12.7524" fill="none" stroke="#00ff00"/>
<path d="M242.866,316.048h 12.7524" fill="none" stroke="#00ff00"/>
<g fill="#00ff00">
<polygon points=" 241.445, 313.207 244.287, 318.89 238.603, 318.89"/>
</g>
<path d="M269.791,349.329v -7.05189" fill="none" stroke="#00ff00"/>
<path d="M269.791,336.594v -7.05189" fill="none" stroke="#00ff00"/>
<path d="M255.618,339.435h 12.7524" fill="none" stroke="#00ff00"/>
<path d="M271.212,339.435h 12.7524" fill="none" stroke="#00ff00"/>
<g fill="#00ff00">
<polygon points=" 269.791, 336.594 272.633, 342.277 266.95, 342.277"/>
</g>
<path d="M298.138,359.481v -1.50154" fill="none" stroke="#00ff00"/>
<path d="M298.138,352.296v -1.71353" fill="none" stroke="#00ff00"/>
<path d="M283.965,355.138h 12.7524" fill="none" stroke="#00ff00"/>
<path d="M299.559,355.138h 12.7524" fill="none" stroke="#00ff00"/>
<g fill="#00ff00">
<polygon points=" 298.138, 352.296 300.98, 357.98 295.296, 357.98"/>
</g>
<path d="M326.484,347.844v -72.3862" fill="none" stroke="#00ff00"/>
<path d="M326.484,269.774v -72.3862" fill="none" stroke="#00ff00"/>
<path d="M312.311,272.616h 12.7524" fill="none" stroke="#00ff00"/>
<path d="M327.905,272.616h 12.7524" fill="none" stroke="#00ff00"/>
<g fill="#00ff00">
<polygon points=" 326.484, 269.774 329.326, 275.457 323.643, 275.457"/>
</g>
<path d="M85.5394,314.541h 12.7524" fill="none" stroke="#0000ff"/>
<path d="M101.133,314.541h 12.7524" fill="none" stroke="#0000ff"/>
<g fill="#0000ff">
<polygon points=" 96.8708, 311.699 102.554, 311.699 99.7126, 317.383"/>
</g>
<path d="M113.886,314.791h 12.7524" fill="none" stroke="#0000ff"/>
<path d="M129.48,314.791h 12.7524" fill="none" stroke="#0000ff"/>
<g fill="#0000ff">
<polygon points=" 125.217, 311.949 130.901, 311.949 128.059, 317.633"/>
</g>
<path d="M142.232,311.782h 12.7524" fill="none" stroke="#0000ff"/>
<path d="M157.826,311.782h 12.7524" fill="none" stroke="#0000ff"/>
<g fill="#0000ff">
<polygon points=" 153.564, 308.94 159.247, 308.94 156.406, 314.624"/>
</g>
<path d="M184.752,312.189v -0.871494" fill="none" stroke="#0000ff"/>
<path d="M184.752,305.634v -0.871494" fill="none" stroke="#0000ff"/>
<path d="M170.579,308.476h 12.7524" fill="none" stroke="#0000ff"/>
<path d="M186.173,308.476h 12.7524" fill="none" stroke="#0000ff"/>
<g fill="#0000ff">
<polygon points=" 181.91, 305.634 187.594, 305.634 184.752, 311.318"/>
</g>
<path d="M213.098,322.677v -4.03962" fill="none" stroke="#0000ff"/>
<path d="M213.098,312.953v -4.03962" fill="none" stroke="#0000ff"/>
<path d="M198.925,315.795h 12.7524" fill="none" stroke="#0000ff"/>
<path d="M214.519,315.795h 12.7524" fill="none" stroke="#0000ff"/>
<g fill="#0000ff">
<polygon points=" 210.257, 312.953 215.94, 312.953 213.098, 318.637"/>
</g>
<path d="M241.445,315.763v -12.7281" fill="none" stroke="#0000ff"/>
<path d="M241.445,297.351v -12.7281" fill="none" stroke="#0000ff"/>
<path d="M227.272,300.193h 12.7524" fill="none" stroke="#0000ff"/>
<path d="M242.866,300.193h 12.7524" fill="none" stroke="#0000ff"/>
<g fill="#0000ff">
<polygon points=" 238.603, 297.351 244.287, 297.351 241.445, 303.035"/>
</g>
<path d="M269.791,351.669v -7.58884" fill="none" stroke="#0000ff"/>
<path d="M269.791,338.397v -7.58884" fill="none" stroke="#0000ff"/>
<path d="M255.618,341.239h 12.7524" fill="none" stroke="#0000ff"/>
<path d="M271.212,341.239h 12.7524" fill="none" stroke="#0000ff"/>
<g fill="#0000ff">
<polygon points=" 266.95, 338.397 272.633, 338.397 269.791, 344.081"/>
</g>
<path d="M298.138,353.403v -8.86676" fill="none" stroke="#0000ff"/>
<path d="M298.138,338.853v -8.86676" fill="none" stroke="#0000ff"/>
<path d="M283.965,341.695h 12.7524" fill="none" stroke="#0000ff"/>
<path d="M299.559,341.695h 12.7524" fill="none" stroke="#0000ff"/>
<g fill="#0000ff">
<polygon points=" 295.296, 338.853 300.98, 338.853 298.138, 344.537"/>
</g>
<path d="M326.484,359.481v -26.8024" fill="none" stroke="#0000ff"/>
<path d="M326.484,326.995v -33.4648" fill="none" stroke="#0000ff"/>
<path d="M312.311,329.837h 12.7524" fill="none" stroke="#0000ff"/>
<path d="M327.905,329.837h 12.7524" fill="none" stroke="#0000ff"/>
<g fill="#0000ff">
<polygon points=" 323.643, 326.995 329.326, 326.995 326.484, 332.679"/>
</g>
<path d="M411.524,359.481v -16.921" fill="none" stroke="#0000ff"/>
<path d="M411.524,336.877v -19.9783" fill="none" stroke="#0000ff"/>
<path d="M397.35,339.719h 12.7524" fill="none" stroke="#0000ff"/>
<path d="M412.944,339.719h 12.7524" fill="none" stroke="#0000ff"/>
<g fill="#0000ff">
<polygon points=" 408.682, 336.877 414.365, 336.877 411.524, 342.56"/>
</g>
<path d="M468.217,359.481v -56.4466" fill="none" stroke="#0000ff"/>
<path d="M468.217,297.351v -81.0046" fill="none" stroke="#0000ff"/>
<path d="M454.043,300.193h 12.7524" fill="none" stroke="#0000ff"/>
<path d="M469.637,300.193h 12.7524" fill="none" stroke="#0000ff"/>
<g fill="#0000ff">
<polygon points=" 465.375, 297.351 471.058, 297.351 468.217, 303.035"/>
</g>
<path d="M85.5394,311.296h 11.3315" fill="none" stroke="#ff00ff"/>
<path d="M102.554,311.296h 11.3315" fill="none" stroke="#ff00ff"/>
<g stroke="#ff00ff" stroke-width="1" fill="none">
<polygon points=" 98.7654, 310.349 98.7654, 308.454 100.66, 308.454 100.66, 310.349 102.554, 310.349 102.554, 312.243 100.66, 312.243 100.66, 314.138 98.7654, 314.138 98.7654, 312.243 96.8708, 312.243 96.8708, 310.349"/>
</g>
<path d="M113.886,311.55h 11.3315" fill="none" stroke="#ff00ff"/>
<path d="M130.901,311.55h 11.3315" fill="none" stroke="#ff00ff"/>
<g stroke="#ff00ff" stroke-width="1" fill="none">
<polygon points=" 127.112, 310.603 127.112, 308.708 129.006, 308.708 129.006, 310.603 130.901, 310.603 130.901, 312.497 129.006, 312.497 129.006, 314.392 127.112, 314.392 127.112, 312.497 125.217, 312.497 125.217, 310.603"/>
</g>
<path d="M142.232,307.471h 11.3315" fill="none" stroke="#ff00ff"/>
<path d="M159.247,307.471h 11.3315" fill="none" stroke="#ff00ff"/>
<g stroke="#ff00ff" stroke-width="1" fill="none">
<polygon points=" 155.458, 306.524 155.458, 304.629 157.353, 304.629 157.353, 306.524 159.247, 306.524 159.247, 308.418 157.353, 308.418 157.353, 310.313 155.458, 310.313 155.458, 308.418 153.564, 308.418 153.564, 306.524"/>
</g>
<path d="M184.752,312.835v -1.11974" fill="none" stroke="#ff00ff"/>
<path d="M184.752,306.032v -1.11974" fill="none" stroke="#ff00ff"/>
<path d="M170.579,308.873h 11.3315" fill="none" stroke="#ff00ff"/>
<path d="M187.594,308.873h 11.3315" fill="none" stroke="#ff00ff"/>
<g stroke="#ff00ff" stroke-width="1" fill="none">
<polygon points=" 183.805, 307.926 183.805, 306.032 185.699, 306.032 185.699, 307.926 187.594, 307.926 187.594, 309.821 185.699, 309.821 185.699, 311.715 183.805, 311.715 183.805, 309.821 181.91, 309.821 181.91, 307.926"/>
</g>
<path d="M213.098,312.357v -5.96906" fill="none" stroke="#ff00ff"/>
<path d="M213.098,300.704v -5.96906" fill="none" stroke="#ff00ff"/>
<path d="M198.925,303.546h 11.3315" fill="none" stroke="#ff00ff"/>
<path d="M215.94,303.546h 11.3315" fill="none" stroke="#ff00ff"/>
<g stroke="#ff00ff" stroke-width="1" fill="none">
<polygon points=" 212.151, 302.599 212.151, 300.704 214.046, 300.704 214.046, 302.599 215.94, 302.599 215.94, 304.493 214.046, 304.493 214.046, 306.388 212.151, 306.388 212.151, 304.493 210.257, 304.493 210.257, 302.599"/>
</g>
<path d="M241.445,324.425v -11.8377" fill="none" stroke="#ff00ff"/>
<path d="M241.445,306.904v -11.8377" fill="none" stroke="#ff00ff"/>
<path d="M227.272,309.746h 11.3315" fill="none" stroke="#ff00ff"/>
<path d="M244.287,309.746h 11.3315" fill="none" stroke="#ff00ff"/>
<g stroke="#ff00ff" stroke-width="1" fill="none">
<polygon points=" 240.498, 308.799 240.498, 306.904 242.392, 306.904 242.392, 308.799 244.287, 308.799 244.287, 310.693 242.392, 310.693 242.392, 312.588 240.498, 312.588 240.498, 310.693 238.603, 310.693 238.603, 308.799"/>
</g>
<path d="M269.791,321.563v -23.4729" fill="none" stroke="#ff00ff"/>
<path d="M269.791,292.406v -23.4729" fill="none" stroke="#ff00ff"/>
<path d="M255.618,295.248h 11.3315" fill="none" stroke="#ff00ff"/>
<path d="M272.633,295.248h 11.3315" fill="none" stroke="#ff00ff"/>
<g stroke="#ff00ff" stroke-width="1" fill="none">
<polygon points=" 268.844, 294.301 268.844, 292.406 270.739, 292.406 270.739, 294.301 272.633, 294.301 272.633, 296.195 270.739, 296.195 270.739, 298.09 268.844, 298.09 268.844, 296.195 266.95, 296.195 266.95, 294.301"/>
</g>
<path d="M298.138,342.315v -17.9476" fill="none" stroke="#ff00ff"/>
<path d="M298.138,318.684v -17.9476" fill="none" stroke="#ff00ff"/>
<path d="M283.965,321.525h 11.3315" fill="none" stroke="#ff00ff"/>
<path d="M300.98,321.525h 11.3315" fill="none" stroke="#ff00ff"/>
<g stroke="#ff00ff" stroke-width="1" fill="none">
<polygon points=" 297.191, 320.578 297.191, 318.684 299.085, 318.684 299.085, 320.578 300.98, 320.578 300.98, 322.473 299.085, 322.473 299.085, 324.367 297.191, 324.367 297.191, 322.473 295.296, 322.473 295.296, 320.578"/>
</g>
<path d="M326.484,349.56v -101.105" fill="none" stroke="#ff00ff"/>
<path d="M326.484,242.772v -101.105" fill="none" stroke="#ff00ff"/>
<path d="M312.311,245.613h 11.3315" fill="none" stroke="#ff00ff"/>
<path d="M329.326,245.613h 11.3315" fill="none" stroke="#ff00ff"/>
<g stroke="#ff00ff" stroke-width="1" fill="none">
<polygon points=" 325.537, 244.666 325.537, 242.772 327.431, 242.772 327.431, 244.666 329.326, 244.666 329.326, 246.561 327.431, 246.561 327.431, 248.455 325.537, 248.455 325.537, 246.561 323.643, 246.561 323.643, 244.666"/>
</g>
<path d="M354.831,359.481v -73.0702" fill="none" stroke="#ff00ff"/>
<path d="M354.831,280.728v -73.0702" fill="none" stroke="#ff00ff"/>
<path d="M340.657,283.569h 11.3315" fill="none" stroke="#ff00ff"/>
<path d="M357.672,283.569h 11.3315" fill="none" stroke="#ff00ff"/>
<g stroke="#ff00ff" stroke-width="1" fill="none">
<polygon points=" 353.883, 282.622 353.883, 280.728 355.778, 280.728 355.778, 282.622 357.672, 282.622 357.672, 284.517 355.778, 284.517 355.778, 286.411 353.883, 286.411 353.883, 284.517 351.989, 284.517 351.989, 282.622"/>
</g>
<text xml:space="preserve" x="304.567" y="39.7845" fill="black" font-size="15.4909" font-family="Helvetica">PYTHIA8</text>
<text xml:space="preserve" x="304.567" y="56.1246" fill="black" font-size="15.4909" font-family="Helvetica">p+Au 200 GeV</text>
<text xml:space="preserve" x="304.567" y="72.4646" fill="black" font-size="15.4909" font-family="Helvetica">option1(Default)</text>
<text xml:space="preserve" x="338.668" y="88.8047" fill="black" font-size="15.4909" font-family="Helvetica">|&lt;1</text>
<text xml:space="preserve" x="330.143" y="88.8047" fill="black" font-size="15.4909" font-family="Times">&#0951;</text>
<text xml:space="preserve" x="318.776" y="88.8047" fill="black" font-size="15.4909" font-family="Helvetica">, |</text>
<text xml:space="preserve" x="313.092" y="83.1212" fill="black" font-size="10.4939" font-family="Helvetica">0</text>
<text xml:space="preserve" x="304.567" y="88.8047" fill="black" font-size="15.4909" font-family="Times">&#0960;</text>
<text xml:space="preserve" x="342.931" y="105.145" fill="black" font-size="15.4909" font-family="Helvetica">0~10%</text>
<g fill="black">
<circle cx="322.232" cy="102.125" r="2.84175"/>
</g>
<text xml:space="preserve" x="342.931" y="121.485" fill="black" font-size="15.4909" font-family="Helvetica">10~20%</text>
<g fill="#ff0000">
<rect x="319.391" y="115.624" width="5.6835" height="5.6835"/>
</g>
<text xml:space="preserve" x="342.931" y="137.825" fill="black" font-size="15.4909" font-family="Helvetica">20~40%</text>
<g fill="#00ff00">
<polygon points=" 322.232, 131.964 325.074, 137.647 319.391, 137.647"/>
</g>
<text xml:space="preserve" x="342.931" y="154.165" fill="black" font-size="15.4909" font-family="Helvetica">40~60%</text>
<g fill="#0000ff">
<polygon points=" 319.391, 148.304 325.074, 148.304 322.232, 153.987"/>
</g>
<text xml:space="preserve" x="342.931" y="170.505" fill="black" font-size="15.4909" font-family="Helvetica">60~80%</text>
<g stroke="#ff00ff" stroke-width="1" fill="none">
<polygon points=" 321.285, 166.538 321.285, 164.644 323.18, 164.644 323.18, 166.538 325.074, 166.538 325.074, 168.433 323.18, 168.433 323.18, 170.327 321.285, 170.327 321.285, 168.433 319.391, 168.433 319.391, 166.538"/>
</g></svg>
