<?xml version="1.0" standalone="no"?>
<svg width="567.429" height="409.002" viewBox="0 0 567.429 409.002" xmlns="http://www.w3.org/2000/svg" shape-rendering="crispEdges">
<title>
/Users/jinhyunpark/npl/gitHub/git_share/Centrality_dependent_BiasCorrection/plots/plots_scaled-dNdpT/dNdpT_pion0_byCentrality.svg
</title>
<desc>
Creator: ROOT Version 6.28/04
CreationDate: Mon Sep 25 17:43:42 2023</desc>
<defs>
</defs>
<rect x="0.5" y="0" width="566.929" height="408.502" fill="white"/>
<rect x="85.5394" y="20.4251" width="396.85" height="339.056" fill="white"/>
<rect x="85.5394" y="20.4251" width="396.85" height="339.056" fill="none" stroke="black"/>
<rect x="85.5394" y="20.4251" width="396.85" height="339.056" fill="white"/>
<rect x="85.5394" y="20.4251" width="396.85" height="339.056" fill="none" stroke="black"/>
<path d="M85.5394,359.481h 396.85" fill="none" stroke="black"/>
<path d="M85.5394,350.903v 8.57853" fill="none" stroke="black"/>
<path d="M95.4606,355.192v 4.28927" fill="none" stroke="black"/>
<path d="M105.382,355.192v 4.28927" fill="none" stroke="black"/>
<path d="M115.303,355.192v 4.28927" fill="none" stroke="black"/>
<path d="M125.224,350.903v 8.57853" fill="none" stroke="black"/>
<path d="M135.146,355.192v 4.28927" fill="none" stroke="black"/>
<path d="M145.067,355.192v 4.28927" fill="none" stroke="black"/>
<path d="M154.988,355.192v 4.28927" fill="none" stroke="black"/>
<path d="M164.909,350.903v 8.57853" fill="none" stroke="black"/>
<path d="M174.831,355.192v 4.28927" fill="none" stroke="black"/>
<path d="M184.752,355.192v 4.28927" fill="none" stroke="black"/>
<path d="M194.673,355.192v 4.28927" fill="none" stroke="black"/>
<path d="M204.594,350.903v 8.57853" fill="none" stroke="black"/>
<path d="M214.516,355.192v 4.28927" fill="none" stroke="black"/>
<path d="M224.437,355.192v 4.28927" fill="none" stroke="black"/>
<path d="M234.358,355.192v 4.28927" fill="none" stroke="black"/>
<path d="M244.28,350.903v 8.57853" fill="none" stroke="black"/>
<path d="M254.201,355.192v 4.28927" fill="none" stroke="black"/>
<path d="M264.122,355.192v 4.28927" fill="none" stroke="black"/>
<path d="M274.043,355.192v 4.28927" fill="none" stroke="black"/>
<path d="M283.965,350.903v 8.57853" fill="none" stroke="black"/>
<path d="M293.886,355.192v 4.28927" fill="none" stroke="black"/>
<path d="M303.807,355.192v 4.28927" fill="none" stroke="black"/>
<path d="M313.728,355.192v 4.28927" fill="none" stroke="black"/>
<path d="M323.65,350.903v 8.57853" fill="none" stroke="black"/>
<path d="M333.571,355.192v 4.28927" fill="none" stroke="black"/>
<path d="M343.492,355.192v 4.28927" fill="none" stroke="black"/>
<path d="M353.413,355.192v 4.28927" fill="none" stroke="black"/>
<path d="M363.335,350.903v 8.57853" fill="none" stroke="black"/>
<path d="M373.256,355.192v 4.28927" fill="none" stroke="black"/>
<path d="M383.177,355.192v 4.28927" fill="none" stroke="black"/>
<path d="M393.098,355.192v 4.28927" fill="none" stroke="black"/>
<path d="M403.02,350.903v 8.57853" fill="none" stroke="black"/>
<path d="M412.941,355.192v 4.28927" fill="none" stroke="black"/>
<path d="M422.862,355.192v 4.28927" fill="none" stroke="black"/>
<path d="M432.783,355.192v 4.28927" fill="none" stroke="black"/>
<path d="M442.705,350.903v 8.57853" fill="none" stroke="black"/>
<path d="M452.626,355.192v 4.28927" fill="none" stroke="black"/>
<path d="M462.547,355.192v 4.28927" fill="none" stroke="black"/>
<path d="M472.469,355.192v 4.28927" fill="none" stroke="black"/>
<path d="M482.39,350.903v 8.57853" fill="none" stroke="black"/>
<text xml:space="preserve" x="81.4899" y="372.269" fill="black" font-size="13.617" font-family="Helvetica">0</text>
<text xml:space="preserve" x="121.274" y="372.269" fill="black" font-size="13.617" font-family="Helvetica">2</text>
<text xml:space="preserve" x="161.059" y="372.269" fill="black" font-size="13.617" font-family="Helvetica">4</text>
<text xml:space="preserve" x="200.843" y="372.269" fill="black" font-size="13.617" font-family="Helvetica">6</text>
<text xml:space="preserve" x="240.628" y="372.269" fill="black" font-size="13.617" font-family="Helvetica">8</text>
<text xml:space="preserve" x="276.15" y="372.269" fill="black" font-size="13.617" font-family="Helvetica">10</text>
<text xml:space="preserve" x="315.224" y="372.269" fill="black" font-size="13.617" font-family="Helvetica">12</text>
<text xml:space="preserve" x="355.008" y="372.269" fill="black" font-size="13.617" font-family="Helvetica">14</text>
<text xml:space="preserve" x="394.793" y="372.269" fill="black" font-size="13.617" font-family="Helvetica">16</text>
<text xml:space="preserve" x="434.577" y="372.269" fill="black" font-size="13.617" font-family="Helvetica">18</text>
<text xml:space="preserve" x="474.362" y="372.269" fill="black" font-size="13.617" font-family="Helvetica">20</text>
<text xml:space="preserve" x="436.709" y="384.347" fill="black" font-size="13.617" font-family="Helvetica">(GeV/c)</text>
<text xml:space="preserve" x="431.025" y="392.162" fill="black" font-size="9.24468" font-family="Helvetica">T</text>
<text xml:space="preserve" x="423.21" y="384.347" fill="black" font-size="13.617" font-family="Helvetica">p</text>
<path d="M85.5394,20.4251h 396.85" fill="none" stroke="black"/>
<path d="M85.5394,29.0036v -8.57853" fill="none" stroke="black"/>
<path d="M95.4606,24.7143v -4.28927" fill="none" stroke="black"/>
<path d="M105.382,24.7143v -4.28927" fill="none" stroke="black"/>
<path d="M115.303,24.7143v -4.28927" fill="none" stroke="black"/>
<path d="M125.224,29.0036v -8.57853" fill="none" stroke="black"/>
<path d="M135.146,24.7143v -4.28927" fill="none" stroke="black"/>
<path d="M145.067,24.7143v -4.28927" fill="none" stroke="black"/>
<path d="M154.988,24.7143v -4.28927" fill="none" stroke="black"/>
<path d="M164.909,29.0036v -8.57853" fill="none" stroke="black"/>
<path d="M174.831,24.7143v -4.28927" fill="none" stroke="black"/>
<path d="M184.752,24.7143v -4.28927" fill="none" stroke="black"/>
<path d="M194.673,24.7143v -4.28927" fill="none" stroke="black"/>
<path d="M204.594,29.0036v -8.57853" fill="none" stroke="black"/>
<path d="M214.516,24.7143v -4.28927" fill="none" stroke="black"/>
<path d="M224.437,24.7143v -4.28927" fill="none" stroke="black"/>
<path d="M234.358,24.7143v -4.28927" fill="none" stroke="black"/>
<path d="M244.28,29.0036v -8.57853" fill="none" stroke="black"/>
<path d="M254.201,24.7143v -4.28927" fill="none" stroke="black"/>
<path d="M264.122,24.7143v -4.28927" fill="none" stroke="black"/>
<path d="M274.043,24.7143v -4.28927" fill="none" stroke="black"/>
<path d="M283.965,29.0036v -8.57853" fill="none" stroke="black"/>
<path d="M293.886,24.7143v -4.28927" fill="none" stroke="black"/>
<path d="M303.807,24.7143v -4.28927" fill="none" stroke="black"/>
<path d="M313.728,24.7143v -4.28927" fill="none" stroke="black"/>
<path d="M323.65,29.0036v -8.57853" fill="none" stroke="black"/>
<path d="M333.571,24.7143v -4.28927" fill="none" stroke="black"/>
<path d="M343.492,24.7143v -4.28927" fill="none" stroke="black"/>
<path d="M353.413,24.7143v -4.28927" fill="none" stroke="black"/>
<path d="M363.335,29.0036v -8.57853" fill="none" stroke="black"/>
<path d="M373.256,24.7143v -4.28927" fill="none" stroke="black"/>
<path d="M383.177,24.7143v -4.28927" fill="none" stroke="black"/>
<path d="M393.098,24.7143v -4.28927" fill="none" stroke="black"/>
<path d="M403.02,29.0036v -8.57853" fill="none" stroke="black"/>
<path d="M412.941,24.7143v -4.28927" fill="none" stroke="black"/>
<path d="M422.862,24.7143v -4.28927" fill="none" stroke="black"/>
<path d="M432.783,24.7143v -4.28927" fill="none" stroke="black"/>
<path d="M442.705,29.0036v -8.57853" fill="none" stroke="black"/>
<path d="M452.626,24.7143v -4.28927" fill="none" stroke="black"/>
<path d="M462.547,24.7143v -4.28927" fill="none" stroke="black"/>
<path d="M472.469,24.7143v -4.28927" fill="none" stroke="black"/>
<path d="M482.39,29.0036v -8.57853" fill="none" stroke="black"/>
<path d="M85.5394,359.481v -339.056" fill="none" stroke="black"/>
<path d="M92.5976,359.481h -7.05827" fill="none" stroke="black"/>
<path d="M92.5976,356.875h -7.05827" fill="none" stroke="black"/>
<path d="M92.5976,354.672h -7.05827" fill="none" stroke="black"/>
<path d="M92.5976,352.763h -7.05827" fill="none" stroke="black"/>
<path d="M92.5976,351.079h -7.05827" fill="none" stroke="black"/>
<path d="M99.6559,349.573h -14.1165" fill="none" stroke="black"/>
<text xml:space="preserve" x="75.8064" y="349.535" fill="black" font-size="9.24468" font-family="Helvetica">8</text>
<text xml:space="preserve" x="70.8333" y="349.535" fill="black" font-size="9.24468" font-family="Times">&#8722;</text>
<text xml:space="preserve" x="55.9141" y="355.929" fill="black" font-size="13.617" font-family="Helvetica">10</text>
<path d="M92.5976,339.665h -7.05827" fill="none" stroke="black"/>
<path d="M92.5976,333.869h -7.05827" fill="none" stroke="black"/>
<path d="M92.5976,329.756h -7.05827" fill="none" stroke="black"/>
<path d="M92.5976,326.567h -7.05827" fill="none" stroke="black"/>
<path d="M92.5976,323.96h -7.05827" fill="none" stroke="black"/>
<path d="M92.5976,321.757h -7.05827" fill="none" stroke="black"/>
<path d="M92.5976,319.848h -7.05827" fill="none" stroke="black"/>
<path d="M92.5976,318.164h -7.05827" fill="none" stroke="black"/>
<path d="M99.6559,316.658h -14.1165" fill="none" stroke="black"/>
<text xml:space="preserve" x="75.8064" y="316.855" fill="black" font-size="9.24468" font-family="Helvetica">7</text>
<text xml:space="preserve" x="70.8333" y="316.855" fill="black" font-size="9.24468" font-family="Times">&#8722;</text>
<text xml:space="preserve" x="55.9141" y="322.539" fill="black" font-size="13.617" font-family="Helvetica">10</text>
<path d="M92.5976,306.75h -7.05827" fill="none" stroke="black"/>
<path d="M92.5976,300.954h -7.05827" fill="none" stroke="black"/>
<path d="M92.5976,296.842h -7.05827" fill="none" stroke="black"/>
<path d="M92.5976,293.652h -7.05827" fill="none" stroke="black"/>
<path d="M92.5976,291.046h -7.05827" fill="none" stroke="black"/>
<path d="M92.5976,288.842h -7.05827" fill="none" stroke="black"/>
<path d="M92.5976,286.933h -7.05827" fill="none" stroke="black"/>
<path d="M92.5976,285.25h -7.05827" fill="none" stroke="black"/>
<path d="M99.6559,283.743h -14.1165" fill="none" stroke="black"/>
<text xml:space="preserve" x="75.8064" y="283.465" fill="black" font-size="9.24468" font-family="Helvetica">6</text>
<text xml:space="preserve" x="70.8333" y="283.465" fill="black" font-size="9.24468" font-family="Times">&#8722;</text>
<text xml:space="preserve" x="55.9141" y="289.859" fill="black" font-size="13.617" font-family="Helvetica">10</text>
<path d="M92.5976,273.835h -7.05827" fill="none" stroke="black"/>
<path d="M92.5976,268.039h -7.05827" fill="none" stroke="black"/>
<path d="M92.5976,263.927h -7.05827" fill="none" stroke="black"/>
<path d="M92.5976,260.737h -7.05827" fill="none" stroke="black"/>
<path d="M92.5976,258.131h -7.05827" fill="none" stroke="black"/>
<path d="M92.5976,255.927h -7.05827" fill="none" stroke="black"/>
<path d="M92.5976,254.018h -7.05827" fill="none" stroke="black"/>
<path d="M92.5976,252.335h -7.05827" fill="none" stroke="black"/>
<path d="M99.6559,250.829h -14.1165" fill="none" stroke="black"/>
<text xml:space="preserve" x="75.8064" y="250.784" fill="black" font-size="9.24468" font-family="Helvetica">5</text>
<text xml:space="preserve" x="70.8333" y="250.784" fill="black" font-size="9.24468" font-family="Times">&#8722;</text>
<text xml:space="preserve" x="55.9141" y="257.178" fill="black" font-size="13.617" font-family="Helvetica">10</text>
<path d="M92.5976,240.92h -7.05827" fill="none" stroke="black"/>
<path d="M92.5976,235.124h -7.05827" fill="none" stroke="black"/>
<path d="M92.5976,231.012h -7.05827" fill="none" stroke="black"/>
<path d="M92.5976,227.822h -7.05827" fill="none" stroke="black"/>
<path d="M92.5976,225.216h -7.05827" fill="none" stroke="black"/>
<path d="M92.5976,223.012h -7.05827" fill="none" stroke="black"/>
<path d="M92.5976,221.104h -7.05827" fill="none" stroke="black"/>
<path d="M92.5976,219.42h -7.05827" fill="none" stroke="black"/>
<path d="M99.6559,217.914h -14.1165" fill="none" stroke="black"/>
<text xml:space="preserve" x="75.8064" y="218.104" fill="black" font-size="9.24468" font-family="Helvetica">4</text>
<text xml:space="preserve" x="70.8333" y="218.104" fill="black" font-size="9.24468" font-family="Times">&#8722;</text>
<text xml:space="preserve" x="55.9141" y="223.788" fill="black" font-size="13.617" font-family="Helvetica">10</text>
<path d="M92.5976,208.006h -7.05827" fill="none" stroke="black"/>
<path d="M92.5976,202.209h -7.05827" fill="none" stroke="black"/>
<path d="M92.5976,198.097h -7.05827" fill="none" stroke="black"/>
<path d="M92.5976,194.907h -7.05827" fill="none" stroke="black"/>
<path d="M92.5976,192.301h -7.05827" fill="none" stroke="black"/>
<path d="M92.5976,190.098h -7.05827" fill="none" stroke="black"/>
<path d="M92.5976,188.189h -7.05827" fill="none" stroke="black"/>
<path d="M92.5976,186.505h -7.05827" fill="none" stroke="black"/>
<path d="M99.6559,184.999h -14.1165" fill="none" stroke="black"/>
<text xml:space="preserve" x="75.8064" y="184.714" fill="black" font-size="9.24468" font-family="Helvetica">3</text>
<text xml:space="preserve" x="70.8333" y="184.714" fill="black" font-size="9.24468" font-family="Times">&#8722;</text>
<text xml:space="preserve" x="55.9141" y="191.108" fill="black" font-size="13.617" font-family="Helvetica">10</text>
<path d="M92.5976,175.091h -7.05827" fill="none" stroke="black"/>
<path d="M92.5976,169.295h -7.05827" fill="none" stroke="black"/>
<path d="M92.5976,165.182h -7.05827" fill="none" stroke="black"/>
<path d="M92.5976,161.993h -7.05827" fill="none" stroke="black"/>
<path d="M92.5976,159.386h -7.05827" fill="none" stroke="black"/>
<path d="M92.5976,157.183h -7.05827" fill="none" stroke="black"/>
<path d="M92.5976,155.274h -7.05827" fill="none" stroke="black"/>
<path d="M92.5976,153.59h -7.05827" fill="none" stroke="black"/>
<path d="M99.6559,152.084h -14.1165" fill="none" stroke="black"/>
<text xml:space="preserve" x="75.8064" y="152.744" fill="black" font-size="9.24468" font-family="Helvetica">2</text>
<text xml:space="preserve" x="70.8333" y="152.744" fill="black" font-size="9.24468" font-family="Times">&#8722;</text>
<text xml:space="preserve" x="55.9141" y="158.428" fill="black" font-size="13.617" font-family="Helvetica">10</text>
<path d="M92.5976,142.176h -7.05827" fill="none" stroke="black"/>
<path d="M92.5976,136.38h -7.05827" fill="none" stroke="black"/>
<path d="M92.5976,132.268h -7.05827" fill="none" stroke="black"/>
<path d="M92.5976,129.078h -7.05827" fill="none" stroke="black"/>
<path d="M92.5976,126.472h -7.05827" fill="none" stroke="black"/>
<path d="M92.5976,124.268h -7.05827" fill="none" stroke="black"/>
<path d="M92.5976,122.359h -7.05827" fill="none" stroke="black"/>
<path d="M92.5976,120.676h -7.05827" fill="none" stroke="black"/>
<path d="M99.6559,119.169h -14.1165" fill="none" stroke="black"/>
<text xml:space="preserve" x="77.2272" y="119.354" fill="black" font-size="9.24468" font-family="Helvetica">1</text>
<text xml:space="preserve" x="72.2542" y="119.354" fill="black" font-size="9.24468" font-family="Times">&#8722;</text>
<text xml:space="preserve" x="57.335" y="125.037" fill="black" font-size="13.617" font-family="Helvetica">10</text>
<path d="M92.5976,109.261h -7.05827" fill="none" stroke="black"/>
<path d="M92.5976,103.465h -7.05827" fill="none" stroke="black"/>
<path d="M92.5976,99.3528h -7.05827" fill="none" stroke="black"/>
<path d="M92.5976,96.163h -7.05827" fill="none" stroke="black"/>
<path d="M92.5976,93.5568h -7.05827" fill="none" stroke="black"/>
<path d="M92.5976,91.3532h -7.05827" fill="none" stroke="black"/>
<path d="M92.5976,89.4444h -7.05827" fill="none" stroke="black"/>
<path d="M92.5976,87.7608h -7.05827" fill="none" stroke="black"/>
<path d="M99.6559,86.2547h -14.1165" fill="none" stroke="black"/>
<text xml:space="preserve" x="75.8064" y="91.6464" fill="black" font-size="13.617" font-family="Helvetica">1</text>
<path d="M92.5976,76.3463h -7.05827" fill="none" stroke="black"/>
<path d="M92.5976,70.5503h -7.05827" fill="none" stroke="black"/>
<path d="M92.5976,66.438h -7.05827" fill="none" stroke="black"/>
<path d="M92.5976,63.2482h -7.05827" fill="none" stroke="black"/>
<path d="M92.5976,60.642h -7.05827" fill="none" stroke="black"/>
<path d="M92.5976,58.4384h -7.05827" fill="none" stroke="black"/>
<path d="M92.5976,56.5296h -7.05827" fill="none" stroke="black"/>
<path d="M92.5976,54.846h -7.05827" fill="none" stroke="black"/>
<path d="M99.6559,53.3399h -14.1165" fill="none" stroke="black"/>
<text xml:space="preserve" x="65.8603" y="58.2559" fill="black" font-size="13.617" font-family="Helvetica">10</text>
<path d="M92.5976,43.4315h -7.05827" fill="none" stroke="black"/>
<path d="M92.5976,37.6355h -7.05827" fill="none" stroke="black"/>
<path d="M92.5976,33.5232h -7.05827" fill="none" stroke="black"/>
<path d="M92.5976,30.3334h -7.05827" fill="none" stroke="black"/>
<path d="M92.5976,27.7272h -7.05827" fill="none" stroke="black"/>
<path d="M92.5976,25.5236h -7.05827" fill="none" stroke="black"/>
<path d="M92.5976,23.6149h -7.05827" fill="none" stroke="black"/>
<path d="M92.5976,21.9312h -7.05827" fill="none" stroke="black"/>
<path d="M99.6559,20.4251h -14.1165" fill="none" stroke="black"/>
<text xml:space="preserve" x="75.8064" y="20.6027" fill="black" font-size="9.24468" font-family="Helvetica">2</text>
<text xml:space="preserve" x="60.8872" y="26.2862" fill="black" font-size="13.617" font-family="Helvetica">10</text>
<g transform="rotate(-90,60.1768,27.7071)">
<text xml:space="preserve" x="60.1768" y="27.7071" fill="black" font-size="9.24468" font-family="Helvetica">T</text>
</g>
<g transform="rotate(-90,52.3619,42.6263)">
<text xml:space="preserve" x="52.3619" y="42.6263" fill="black" font-size="13.617" font-family="Helvetica">dp</text>
</g>
<g transform="rotate(-90,28.2071,23.4444)">
<text xml:space="preserve" x="28.2071" y="23.4444" fill="black" font-size="6.32979" font-family="Helvetica">0</text>
</g>
<g transform="rotate(-90,31.7593,28.4175)">
<text xml:space="preserve" x="31.7593" y="28.4175" fill="black" font-size="9.24468" font-family="Times">&#0960;</text>
</g>
<g transform="rotate(-90,38.1532,44.7576)">
<text xml:space="preserve" x="38.1532" y="44.7576" fill="black" font-size="13.617" font-family="Helvetica">dN</text>
</g>
<path d="M40.9949,44.7576v -24.8653" fill="none" stroke="black" stroke-width="2"/>
<g transform="rotate(-90,44.5471,49.0202)">
<text xml:space="preserve" x="44.5471" y="49.0202" fill="black" font-size="13.617" font-family="Helvetica"> </text>
</g>
<g transform="rotate(-90,56.6246,71.7542)">
<text xml:space="preserve" x="56.6246" y="71.7542" fill="black" font-size="9.24468" font-family="Helvetica">event</text>
</g>
<g transform="rotate(-90,52.3619,80.9899)">
<text xml:space="preserve" x="52.3619" y="80.9899" fill="black" font-size="13.617" font-family="Helvetica">N</text>
</g>
<g transform="rotate(-90,38.8636,67.4916)">
<text xml:space="preserve" x="38.8636" y="67.4916" fill="black" font-size="13.617" font-family="Helvetica">1</text>
</g>
<path d="M40.9949,80.9899v -31.9697" fill="none" stroke="black" stroke-width="2"/>
<path d="M482.39,359.481v -339.056" fill="none" stroke="black"/>
<path d="M475.332,359.481h 7.05827" fill="none" stroke="black"/>
<path d="M475.332,356.875h 7.05827" fill="none" stroke="black"/>
<path d="M475.332,354.672h 7.05827" fill="none" stroke="black"/>
<path d="M475.332,352.763h 7.05827" fill="none" stroke="black"/>
<path d="M475.332,351.079h 7.05827" fill="none" stroke="black"/>
<path d="M468.273,349.573h 14.1165" fill="none" stroke="black"/>
<path d="M475.332,339.665h 7.05827" fill="none" stroke="black"/>
<path d="M475.332,333.869h 7.05827" fill="none" stroke="black"/>
<path d="M475.332,329.756h 7.05827" fill="none" stroke="black"/>
<path d="M475.332,326.567h 7.05827" fill="none" stroke="black"/>
<path d="M475.332,323.96h 7.05827" fill="none" stroke="black"/>
<path d="M475.332,321.757h 7.05827" fill="none" stroke="black"/>
<path d="M475.332,319.848h 7.05827" fill="none" stroke="black"/>
<path d="M475.332,318.164h 7.05827" fill="none" stroke="black"/>
<path d="M468.273,316.658h 14.1165" fill="none" stroke="black"/>
<path d="M475.332,306.75h 7.05827" fill="none" stroke="black"/>
<path d="M475.332,300.954h 7.05827" fill="none" stroke="black"/>
<path d="M475.332,296.842h 7.05827" fill="none" stroke="black"/>
<path d="M475.332,293.652h 7.05827" fill="none" stroke="black"/>
<path d="M475.332,291.046h 7.05827" fill="none" stroke="black"/>
<path d="M475.332,288.842h 7.05827" fill="none" stroke="black"/>
<path d="M475.332,286.933h 7.05827" fill="none" stroke="black"/>
<path d="M475.332,285.25h 7.05827" fill="none" stroke="black"/>
<path d="M468.273,283.743h 14.1165" fill="none" stroke="black"/>
<path d="M475.332,273.835h 7.05827" fill="none" stroke="black"/>
<path d="M475.332,268.039h 7.05827" fill="none" stroke="black"/>
<path d="M475.332,263.927h 7.05827" fill="none" stroke="black"/>
<path d="M475.332,260.737h 7.05827" fill="none" stroke="black"/>
<path d="M475.332,258.131h 7.05827" fill="none" stroke="black"/>
<path d="M475.332,255.927h 7.05827" fill="none" stroke="black"/>
<path d="M475.332,254.018h 7.05827" fill="none" stroke="black"/>
<path d="M475.332,252.335h 7.05827" fill="none" stroke="black"/>
<path d="M468.273,250.829h 14.1165" fill="none" stroke="black"/>
<path d="M475.332,240.92h 7.05827" fill="none" stroke="black"/>
<path d="M475.332,235.124h 7.05827" fill="none" stroke="black"/>
<path d="M475.332,231.012h 7.05827" fill="none" stroke="black"/>
<path d="M475.332,227.822h 7.05827" fill="none" stroke="black"/>
<path d="M475.332,225.216h 7.05827" fill="none" stroke="black"/>
<path d="M475.332,223.012h 7.05827" fill="none" stroke="black"/>
<path d="M475.332,221.104h 7.05827" fill="none" stroke="black"/>
<path d="M475.332,219.42h 7.05827" fill="none" stroke="black"/>
<path d="M468.273,217.914h 14.1165" fill="none" stroke="black"/>
<path d="M475.332,208.006h 7.05827" fill="none" stroke="black"/>
<path d="M475.332,202.209h 7.05827" fill="none" stroke="black"/>
<path d="M475.332,198.097h 7.05827" fill="none" stroke="black"/>
<path d="M475.332,194.907h 7.05827" fill="none" stroke="black"/>
<path d="M475.332,192.301h 7.05827" fill="none" stroke="black"/>
<path d="M475.332,190.098h 7.05827" fill="none" stroke="black"/>
<path d="M475.332,188.189h 7.05827" fill="none" stroke="black"/>
<path d="M475.332,186.505h 7.05827" fill="none" stroke="black"/>
<path d="M468.273,184.999h 14.1165" fill="none" stroke="black"/>
<path d="M475.332,175.091h 7.05827" fill="none" stroke="black"/>
<path d="M475.332,169.295h 7.05827" fill="none" stroke="black"/>
<path d="M475.332,165.182h 7.05827" fill="none" stroke="black"/>
<path d="M475.332,161.993h 7.05827" fill="none" stroke="black"/>
<path d="M475.332,159.386h 7.05827" fill="none" stroke="black"/>
<path d="M475.332,157.183h 7.05827" fill="none" stroke="black"/>
<path d="M475.332,155.274h 7.05827" fill="none" stroke="black"/>
<path d="M475.332,153.59h 7.05827" fill="none" stroke="black"/>
<path d="M468.273,152.084h 14.1165" fill="none" stroke="black"/>
<path d="M475.332,142.176h 7.05827" fill="none" stroke="black"/>
<path d="M475.332,136.38h 7.05827" fill="none" stroke="black"/>
<path d="M475.332,132.268h 7.05827" fill="none" stroke="black"/>
<path d="M475.332,129.078h 7.05827" fill="none" stroke="black"/>
<path d="M475.332,126.472h 7.05827" fill="none" stroke="black"/>
<path d="M475.332,124.268h 7.05827" fill="none" stroke="black"/>
<path d="M475.332,122.359h 7.05827" fill="none" stroke="black"/>
<path d="M475.332,120.676h 7.05827" fill="none" stroke="black"/>
<path d="M468.273,119.169h 14.1165" fill="none" stroke="black"/>
<path d="M475.332,109.261h 7.05827" fill="none" stroke="black"/>
<path d="M475.332,103.465h 7.05827" fill="none" stroke="black"/>
<path d="M475.332,99.3528h 7.05827" fill="none" stroke="black"/>
<path d="M475.332,96.163h 7.05827" fill="none" stroke="black"/>
<path d="M475.332,93.5568h 7.05827" fill="none" stroke="black"/>
<path d="M475.332,91.3532h 7.05827" fill="none" stroke="black"/>
<path d="M475.332,89.4444h 7.05827" fill="none" stroke="black"/>
<path d="M475.332,87.7608h 7.05827" fill="none" stroke="black"/>
<path d="M468.273,86.2547h 14.1165" fill="none" stroke="black"/>
<path d="M475.332,76.3463h 7.05827" fill="none" stroke="black"/>
<path d="M475.332,70.5503h 7.05827" fill="none" stroke="black"/>
<path d="M475.332,66.438h 7.05827" fill="none" stroke="black"/>
<path d="M475.332,63.2482h 7.05827" fill="none" stroke="black"/>
<path d="M475.332,60.642h 7.05827" fill="none" stroke="black"/>
<path d="M475.332,58.4384h 7.05827" fill="none" stroke="black"/>
<path d="M475.332,56.5296h 7.05827" fill="none" stroke="black"/>
<path d="M475.332,54.846h 7.05827" fill="none" stroke="black"/>
<path d="M468.273,53.3399h 14.1165" fill="none" stroke="black"/>
<path d="M475.332,43.4315h 7.05827" fill="none" stroke="black"/>
<path d="M475.332,37.6355h 7.05827" fill="none" stroke="black"/>
<path d="M475.332,33.5232h 7.05827" fill="none" stroke="black"/>
<path d="M475.332,30.3334h 7.05827" fill="none" stroke="black"/>
<path d="M475.332,27.7272h 7.05827" fill="none" stroke="black"/>
<path d="M475.332,25.5236h 7.05827" fill="none" stroke="black"/>
<path d="M475.332,23.6149h 7.05827" fill="none" stroke="black"/>
<path d="M475.332,21.9312h 7.05827" fill="none" stroke="black"/>
<path d="M468.273,20.4251h 14.1165" fill="none" stroke="black"/>
<path d="M85.5394,54.7834h 2.11888" fill="none" stroke="black"/>
<path d="M93.3418,54.7834h 2.11888" fill="none" stroke="black"/>
<g fill="black">
<rect x="87.6582" y="51.9417" width="5.6835" height="5.6835"/>
</g>
<path d="M95.4606,70.0382h 2.11888" fill="none" stroke="black"/>
<path d="M103.263,70.0382h 2.11888" fill="none" stroke="black"/>
<g fill="black">
<rect x="97.5795" y="67.1964" width="5.6835" height="5.6835"/>
</g>
<path d="M105.382,98.2661h 2.11888" fill="none" stroke="black"/>
<path d="M113.184,98.2661h 2.11888" fill="none" stroke="black"/>
<g fill="black">
<rect x="107.501" y="95.4244" width="5.6835" height="5.6835"/>
</g>
<path d="M115.303,121.913h 2.11888" fill="none" stroke="black"/>
<path d="M123.106,121.913h 2.11888" fill="none" stroke="black"/>
<g fill="black">
<rect x="117.422" y="119.071" width="5.6835" height="5.6835"/>
</g>
<path d="M125.224,147.78h 7.07951" fill="none" stroke="black"/>
<path d="M137.987,147.78h 7.07951" fill="none" stroke="black"/>
<g fill="black">
<rect x="132.304" y="144.939" width="5.6835" height="5.6835"/>
</g>
<path d="M145.067,179.288h 7.07951" fill="none" stroke="black"/>
<path d="M157.83,179.288h 7.07951" fill="none" stroke="black"/>
<g fill="black">
<rect x="152.146" y="176.446" width="5.6835" height="5.6835"/>
</g>
<path d="M164.909,204.367h 7.07951" fill="none" stroke="black"/>
<path d="M177.672,204.367h 7.07951" fill="none" stroke="black"/>
<g fill="black">
<rect x="171.989" y="201.525" width="5.6835" height="5.6835"/>
</g>
<path d="M184.752,231.475h 17.0008" fill="none" stroke="black"/>
<path d="M207.436,231.475h 17.0008" fill="none" stroke="black"/>
<g fill="black">
<rect x="201.753" y="228.633" width="5.6835" height="5.6835"/>
</g>
<path d="M224.437,266.376h 26.922" fill="none" stroke="black"/>
<path d="M257.043,266.376h 26.922" fill="none" stroke="black"/>
<g fill="black">
<rect x="251.359" y="263.534" width="5.6835" height="5.6835"/>
</g>
<path d="M283.965,304.036h 46.7645" fill="none" stroke="black"/>
<path d="M336.413,304.036h 46.7645" fill="none" stroke="black"/>
<g fill="black">
<rect x="330.729" y="301.194" width="5.6835" height="5.6835"/>
</g>
<path d="M383.177,344.834h 46.7645" fill="none" stroke="black"/>
<path d="M435.625,344.834h 46.7645" fill="none" stroke="black"/>
<g fill="black">
<rect x="429.942" y="341.992" width="5.6835" height="5.6835"/>
</g>
<path d="M85.5394,47.5421h 2.11888" fill="none" stroke="#ffcc00"/>
<path d="M93.3418,47.5421h 2.11888" fill="none" stroke="#ffcc00"/>
<g fill="#ffcc00">
<polygon points=" 89.5527, 46.5948 89.5527, 44.7003 91.4473, 44.7003 91.4473, 46.5948 93.3418, 46.5948 93.3418, 48.4893 91.4473, 48.4893 91.4473, 50.3838 89.5527, 50.3838 89.5527, 48.4893 87.6582, 48.4893 87.6582, 46.5948"/>
</g>
<path d="M95.4606,62.897h 2.11888" fill="none" stroke="#ffcc00"/>
<path d="M103.263,62.897h 2.11888" fill="none" stroke="#ffcc00"/>
<g fill="#ffcc00">
<polygon points=" 99.474, 61.9497 99.474, 60.0552 101.369, 60.0552 101.369, 61.9497 103.263, 61.9497 103.263, 63.8442 101.369, 63.8442 101.369, 65.7387 99.474, 65.7387 99.474, 63.8442 97.5795, 63.8442 97.5795, 61.9497"/>
</g>
<path d="M105.382,91.2874h 2.11888" fill="none" stroke="#ffcc00"/>
<path d="M113.184,91.2874h 2.11888" fill="none" stroke="#ffcc00"/>
<g fill="#ffcc00">
<polygon points=" 109.395, 90.3402 109.395, 88.4457 111.29, 88.4457 111.29, 90.3402 113.184, 90.3402 113.184, 92.2347 111.29, 92.2347 111.29, 94.1292 109.395, 94.1292 109.395, 92.2347 107.501, 92.2347 107.501, 90.3402"/>
</g>
<path d="M115.303,115.234h 2.11888" fill="none" stroke="#ffcc00"/>
<path d="M123.106,115.234h 2.11888" fill="none" stroke="#ffcc00"/>
<g fill="#ffcc00">
<polygon points=" 119.317, 114.287 119.317, 112.392 121.211, 112.392 121.211, 114.287 123.106, 114.287 123.106, 116.181 121.211, 116.181 121.211, 118.076 119.317, 118.076 119.317, 116.181 117.422, 116.181 117.422, 114.287"/>
</g>
<path d="M125.224,141.439h 7.07951" fill="none" stroke="#ffcc00"/>
<path d="M137.987,141.439h 7.07951" fill="none" stroke="#ffcc00"/>
<g fill="#ffcc00">
<polygon points=" 134.198, 140.492 134.198, 138.597 136.093, 138.597 136.093, 140.492 137.987, 140.492 137.987, 142.386 136.093, 142.386 136.093, 144.281 134.198, 144.281 134.198, 142.386 132.304, 142.386 132.304, 140.492"/>
</g>
<path d="M145.067,173.405h 7.07951" fill="none" stroke="#ffcc00"/>
<path d="M157.83,173.405h 7.07951" fill="none" stroke="#ffcc00"/>
<g fill="#ffcc00">
<polygon points=" 154.041, 172.458 154.041, 170.563 155.935, 170.563 155.935, 172.458 157.83, 172.458 157.83, 174.352 155.935, 174.352 155.935, 176.247 154.041, 176.247 154.041, 174.352 152.146, 174.352 152.146, 172.458"/>
</g>
<path d="M164.909,198.993h 7.07951" fill="none" stroke="#ffcc00"/>
<path d="M177.672,198.993h 7.07951" fill="none" stroke="#ffcc00"/>
<g fill="#ffcc00">
<polygon points=" 173.883, 198.045 173.883, 196.151 175.778, 196.151 175.778, 198.045 177.672, 198.045 177.672, 199.94 175.778, 199.94 175.778, 201.834 173.883, 201.834 173.883, 199.94 171.989, 199.94 171.989, 198.045"/>
</g>
<path d="M184.752,227.177h 17.0008" fill="none" stroke="#ffcc00"/>
<path d="M207.436,227.177h 17.0008" fill="none" stroke="#ffcc00"/>
<g fill="#ffcc00">
<polygon points=" 203.647, 226.23 203.647, 224.335 205.542, 224.335 205.542, 226.23 207.436, 226.23 207.436, 228.124 205.542, 228.124 205.542, 230.019 203.647, 230.019 203.647, 228.124 201.753, 228.124 201.753, 226.23"/>
</g>
<path d="M224.437,263.661h 26.922" fill="none" stroke="#ffcc00"/>
<path d="M257.043,263.661h 26.922" fill="none" stroke="#ffcc00"/>
<g fill="#ffcc00">
<polygon points=" 253.254, 262.713 253.254, 260.819 255.148, 260.819 255.148, 262.713 257.043, 262.713 257.043, 264.608 255.148, 264.608 255.148, 266.502 253.254, 266.502 253.254, 264.608 251.359, 264.608 251.359, 262.713"/>
</g>
<path d="M283.965,300.995h 46.7645" fill="none" stroke="#ffcc00"/>
<path d="M336.413,300.995h 46.7645" fill="none" stroke="#ffcc00"/>
<g fill="#ffcc00">
<polygon points=" 332.624, 300.047 332.624, 298.153 334.518, 298.153 334.518, 300.047 336.413, 300.047 336.413, 301.942 334.518, 301.942 334.518, 303.836 332.624, 303.836 332.624, 301.942 330.729, 301.942 330.729, 300.047"/>
</g>
<path d="M432.783,353.924v -4.65823" fill="none" stroke="#ffcc00"/>
<path d="M432.783,343.582v -2.052" fill="none" stroke="#ffcc00"/>
<path d="M383.177,346.424h 46.7645" fill="none" stroke="#ffcc00"/>
<path d="M435.625,346.424h 46.7645" fill="none" stroke="#ffcc00"/>
<g fill="#ffcc00">
<polygon points=" 431.836, 345.477 431.836, 343.582 433.731, 343.582 433.731, 345.477 435.625, 345.477 435.625, 347.371 433.731, 347.371 433.731, 349.266 431.836, 349.266 431.836, 347.371 429.942, 347.371 429.942, 345.477"/>
</g>
<path d="M85.5394,49.6706h 2.11888" fill="none" stroke="#ff0000"/>
<path d="M93.3418,49.6706h 2.11888" fill="none" stroke="#ff0000"/>
<g fill="#ff0000">
<polygon points=" 89.5527, 48.7233 89.5527, 46.8288 91.4473, 46.8288 91.4473, 48.7233 93.3418, 48.7233 93.3418, 50.6178 91.4473, 50.6178 91.4473, 52.5123 89.5527, 52.5123 89.5527, 50.6178 87.6582, 50.6178 87.6582, 48.7233"/>
</g>
<path d="M95.4606,64.944h 2.11888" fill="none" stroke="#ff0000"/>
<path d="M103.263,64.944h 2.11888" fill="none" stroke="#ff0000"/>
<g fill="#ff0000">
<polygon points=" 99.474, 63.9967 99.474, 62.1022 101.369, 62.1022 101.369, 63.9967 103.263, 63.9967 103.263, 65.8912 101.369, 65.8912 101.369, 67.7857 99.474, 67.7857 99.474, 65.8912 97.5795, 65.8912 97.5795, 63.9967"/>
</g>
<path d="M105.382,93.1123h 2.11888" fill="none" stroke="#ff0000"/>
<path d="M113.184,93.1123h 2.11888" fill="none" stroke="#ff0000"/>
<g fill="#ff0000">
<polygon points=" 109.395, 92.165 109.395, 90.2705 111.29, 90.2705 111.29, 92.165 113.184, 92.165 113.184, 94.0595 111.29, 94.0595 111.29, 95.954 109.395, 95.954 109.395, 94.0595 107.501, 94.0595 107.501, 92.165"/>
</g>
<path d="M115.303,116.844h 2.11888" fill="none" stroke="#ff0000"/>
<path d="M123.106,116.844h 2.11888" fill="none" stroke="#ff0000"/>
<g fill="#ff0000">
<polygon points=" 119.317, 115.897 119.317, 114.002 121.211, 114.002 121.211, 115.897 123.106, 115.897 123.106, 117.791 121.211, 117.791 121.211, 119.686 119.317, 119.686 119.317, 117.791 117.422, 117.791 117.422, 115.897"/>
</g>
<path d="M125.224,142.83h 7.07951" fill="none" stroke="#ff0000"/>
<path d="M137.987,142.83h 7.07951" fill="none" stroke="#ff0000"/>
<g fill="#ff0000">
<polygon points=" 134.198, 141.883 134.198, 139.989 136.093, 139.989 136.093, 141.883 137.987, 141.883 137.987, 143.778 136.093, 143.778 136.093, 145.672 134.198, 145.672 134.198, 143.778 132.304, 143.778 132.304, 141.883"/>
</g>
<path d="M145.067,174.576h 7.07951" fill="none" stroke="#ff0000"/>
<path d="M157.83,174.576h 7.07951" fill="none" stroke="#ff0000"/>
<g fill="#ff0000">
<polygon points=" 154.041, 173.629 154.041, 171.735 155.935, 171.735 155.935, 173.629 157.83, 173.629 157.83, 175.524 155.935, 175.524 155.935, 177.418 154.041, 177.418 154.041, 175.524 152.146, 175.524 152.146, 173.629"/>
</g>
<path d="M164.909,200.107h 7.07951" fill="none" stroke="#ff0000"/>
<path d="M177.672,200.107h 7.07951" fill="none" stroke="#ff0000"/>
<g fill="#ff0000">
<polygon points=" 173.883, 199.16 173.883, 197.266 175.778, 197.266 175.778, 199.16 177.672, 199.16 177.672, 201.055 175.778, 201.055 175.778, 202.949 173.883, 202.949 173.883, 201.055 171.989, 201.055 171.989, 199.16"/>
</g>
<path d="M184.752,227.35h 17.0008" fill="none" stroke="#ff0000"/>
<path d="M207.436,227.35h 17.0008" fill="none" stroke="#ff0000"/>
<g fill="#ff0000">
<polygon points=" 203.647, 226.403 203.647, 224.508 205.542, 224.508 205.542, 226.403 207.436, 226.403 207.436, 228.297 205.542, 228.297 205.542, 230.192 203.647, 230.192 203.647, 228.297 201.753, 228.297 201.753, 226.403"/>
</g>
<path d="M224.437,263.147h 26.922" fill="none" stroke="#ff0000"/>
<path d="M257.043,263.147h 26.922" fill="none" stroke="#ff0000"/>
<g fill="#ff0000">
<polygon points=" 253.254, 262.2 253.254, 260.305 255.148, 260.305 255.148, 262.2 257.043, 262.2 257.043, 264.094 255.148, 264.094 255.148, 265.989 253.254, 265.989 253.254, 264.094 251.359, 264.094 251.359, 262.2"/>
</g>
<path d="M283.965,301.476h 46.7645" fill="none" stroke="#ff0000"/>
<path d="M336.413,301.476h 46.7645" fill="none" stroke="#ff0000"/>
<g fill="#ff0000">
<polygon points=" 332.624, 300.528 332.624, 298.634 334.518, 298.634 334.518, 300.528 336.413, 300.528 336.413, 302.423 334.518, 302.423 334.518, 304.317 332.624, 304.317 332.624, 302.423 330.729, 302.423 330.729, 300.528"/>
</g>
<path d="M432.783,350.983v -3.94478" fill="none" stroke="#ff0000"/>
<path d="M432.783,341.355v -1.74124" fill="none" stroke="#ff0000"/>
<path d="M383.177,344.196h 46.7645" fill="none" stroke="#ff0000"/>
<path d="M435.625,344.196h 46.7645" fill="none" stroke="#ff0000"/>
<g fill="#ff0000">
<polygon points=" 431.836, 343.249 431.836, 341.355 433.731, 341.355 433.731, 343.249 435.625, 343.249 435.625, 345.144 433.731, 345.144 433.731, 347.038 431.836, 347.038 431.836, 345.144 429.942, 345.144 429.942, 343.249"/>
</g>
<path d="M85.5394,51.7712h 2.11888" fill="none" stroke="#ff0033"/>
<path d="M93.3418,51.7712h 2.11888" fill="none" stroke="#ff0033"/>
<g stroke="#ff0033" stroke-width="1" fill="none">
<polygon points=" 89.5527, 50.8239 89.5527, 48.9294 91.4473, 48.9294 91.4473, 50.8239 93.3418, 50.8239 93.3418, 52.7184 91.4473, 52.7184 91.4473, 54.6129 89.5527, 54.6129 89.5527, 52.7184 87.6582, 52.7184 87.6582, 50.8239"/>
</g>
<path d="M95.4606,66.9836h 2.11888" fill="none" stroke="#ff0033"/>
<path d="M103.263,66.9836h 2.11888" fill="none" stroke="#ff0033"/>
<g stroke="#ff0033" stroke-width="1" fill="none">
<polygon points=" 99.474, 66.0363 99.474, 64.1418 101.369, 64.1418 101.369, 66.0363 103.263, 66.0363 103.263, 67.9308 101.369, 67.9308 101.369, 69.8253 99.474, 69.8253 99.474, 67.9308 97.5795, 67.9308 97.5795, 66.0363"/>
</g>
<path d="M105.382,95.0146h 2.11888" fill="none" stroke="#ff0033"/>
<path d="M113.184,95.0146h 2.11888" fill="none" stroke="#ff0033"/>
<g stroke="#ff0033" stroke-width="1" fill="none">
<polygon points=" 109.395, 94.0674 109.395, 92.1729 111.29, 92.1729 111.29, 94.0674 113.184, 94.0674 113.184, 95.9619 111.29, 95.9619 111.29, 97.8564 109.395, 97.8564 109.395, 95.9619 107.501, 95.9619 107.501, 94.0674"/>
</g>
<path d="M115.303,118.585h 2.11888" fill="none" stroke="#ff0033"/>
<path d="M123.106,118.585h 2.11888" fill="none" stroke="#ff0033"/>
<g stroke="#ff0033" stroke-width="1" fill="none">
<polygon points=" 119.317, 117.638 119.317, 115.743 121.211, 115.743 121.211, 117.638 123.106, 117.638 123.106, 119.532 121.211, 119.532 121.211, 121.427 119.317, 121.427 119.317, 119.532 117.422, 119.532 117.422, 117.638"/>
</g>
<path d="M125.224,144.448h 7.07951" fill="none" stroke="#ff0033"/>
<path d="M137.987,144.448h 7.07951" fill="none" stroke="#ff0033"/>
<g stroke="#ff0033" stroke-width="1" fill="none">
<polygon points=" 134.198, 143.501 134.198, 141.606 136.093, 141.606 136.093, 143.501 137.987, 143.501 137.987, 145.395 136.093, 145.395 136.093, 147.29 134.198, 147.29 134.198, 145.395 132.304, 145.395 132.304, 143.501"/>
</g>
<path d="M145.067,176.04h 7.07951" fill="none" stroke="#ff0033"/>
<path d="M157.83,176.04h 7.07951" fill="none" stroke="#ff0033"/>
<g stroke="#ff0033" stroke-width="1" fill="none">
<polygon points=" 154.041, 175.093 154.041, 173.198 155.935, 173.198 155.935, 175.093 157.83, 175.093 157.83, 176.987 155.935, 176.987 155.935, 178.882 154.041, 178.882 154.041, 176.987 152.146, 176.987 152.146, 175.093"/>
</g>
<path d="M164.909,201.244h 7.07951" fill="none" stroke="#ff0033"/>
<path d="M177.672,201.244h 7.07951" fill="none" stroke="#ff0033"/>
<g stroke="#ff0033" stroke-width="1" fill="none">
<polygon points=" 173.883, 200.297 173.883, 198.402 175.778, 198.402 175.778, 200.297 177.672, 200.297 177.672, 202.191 175.778, 202.191 175.778, 204.086 173.883, 204.086 173.883, 202.191 171.989, 202.191 171.989, 200.297"/>
</g>
<path d="M184.752,228.686h 17.0008" fill="none" stroke="#ff0033"/>
<path d="M207.436,228.686h 17.0008" fill="none" stroke="#ff0033"/>
<g stroke="#ff0033" stroke-width="1" fill="none">
<polygon points=" 203.647, 227.739 203.647, 225.844 205.542, 225.844 205.542, 227.739 207.436, 227.739 207.436, 229.633 205.542, 229.633 205.542, 231.528 203.647, 231.528 203.647, 229.633 201.753, 229.633 201.753, 227.739"/>
</g>
<path d="M224.437,263.992h 26.922" fill="none" stroke="#ff0033"/>
<path d="M257.043,263.992h 26.922" fill="none" stroke="#ff0033"/>
<g stroke="#ff0033" stroke-width="1" fill="none">
<polygon points=" 253.254, 263.044 253.254, 261.15 255.148, 261.15 255.148, 263.044 257.043, 263.044 257.043, 264.939 255.148, 264.939 255.148, 266.833 253.254, 266.833 253.254, 264.939 251.359, 264.939 251.359, 263.044"/>
</g>
<path d="M283.965,302.443h 46.7645" fill="none" stroke="#ff0033"/>
<path d="M336.413,302.443h 46.7645" fill="none" stroke="#ff0033"/>
<g stroke="#ff0033" stroke-width="1" fill="none">
<polygon points=" 332.624, 301.496 332.624, 299.602 334.518, 299.602 334.518, 301.496 336.413, 301.496 336.413, 303.391 334.518, 303.391 334.518, 305.285 332.624, 305.285 332.624, 303.391 330.729, 303.391 330.729, 301.496"/>
</g>
<path d="M432.783,348.652v -1.60342" fill="none" stroke="#ff0033"/>
<path d="M432.783,341.366v -0.544068" fill="none" stroke="#ff0033"/>
<path d="M383.177,344.207h 46.7645" fill="none" stroke="#ff0033"/>
<path d="M435.625,344.207h 46.7645" fill="none" stroke="#ff0033"/>
<g stroke="#ff0033" stroke-width="1" fill="none">
<polygon points=" 431.836, 343.26 431.836, 341.366 433.731, 341.366 433.731, 343.26 435.625, 343.26 435.625, 345.155 433.731, 345.155 433.731, 347.049 431.836, 347.049 431.836, 345.155 429.942, 345.155 429.942, 343.26"/>
</g>
<path d="M85.5394,54.8824h 3.53975" fill="none" stroke="#ff00ff"/>
<path d="M91.9209,54.8824h 3.53975" fill="none" stroke="#ff00ff"/>
<g fill="#ff00ff">
<polygon points=" 90.5, 56.3032 89.0791, 57.7241 87.6582, 56.3032 89.0791, 54.8824 87.6582, 53.4615 89.0791, 52.0406 90.5, 53.4615 91.9209, 52.0406 93.3418, 53.4615 91.9209, 54.8824 93.3418, 56.3032 91.9209, 57.7241 90.5, 56.3032"/>
</g>
<path d="M95.4606,70.0504h 3.53975" fill="none" stroke="#ff00ff"/>
<path d="M101.842,70.0504h 3.53975" fill="none" stroke="#ff00ff"/>
<g fill="#ff00ff">
<polygon points=" 100.421, 71.4713 99.0004, 72.8922 97.5795, 71.4713 99.0004, 70.0504 97.5795, 68.6295 99.0004, 67.2086 100.421, 68.6295 101.842, 67.2086 103.263, 68.6295 101.842, 70.0504 103.263, 71.4713 101.842, 72.8922 100.421, 71.4713"/>
</g>
<path d="M105.382,98.034h 3.53975" fill="none" stroke="#ff00ff"/>
<path d="M111.763,98.034h 3.53975" fill="none" stroke="#ff00ff"/>
<g fill="#ff00ff">
<polygon points=" 110.343, 99.4549 108.922, 100.876 107.501, 99.4549 108.922, 98.034 107.501, 96.6131 108.922, 95.1922 110.343, 96.6131 111.763, 95.1922 113.184, 96.6131 111.763, 98.034 113.184, 99.4549 111.763, 100.876 110.343, 99.4549"/>
</g>
<path d="M115.303,121.476h 3.53975" fill="none" stroke="#ff00ff"/>
<path d="M121.685,121.476h 3.53975" fill="none" stroke="#ff00ff"/>
<g fill="#ff00ff">
<polygon points=" 120.264, 122.897 118.843, 124.318 117.422, 122.897 118.843, 121.476 117.422, 120.055 118.843, 118.634 120.264, 120.055 121.685, 118.634 123.106, 120.055 121.685, 121.476 123.106, 122.897 121.685, 124.318 120.264, 122.897"/>
</g>
<path d="M125.224,147.223h 8.50039" fill="none" stroke="#ff00ff"/>
<path d="M136.567,147.223h 8.50039" fill="none" stroke="#ff00ff"/>
<g fill="#ff00ff">
<polygon points=" 135.146, 148.644 133.725, 150.064 132.304, 148.644 133.725, 147.223 132.304, 145.802 133.725, 144.381 135.146, 145.802 136.567, 144.381 137.987, 145.802 136.567, 147.223 137.987, 148.644 136.567, 150.064 135.146, 148.644"/>
</g>
<path d="M145.067,178.614h 8.50039" fill="none" stroke="#ff00ff"/>
<path d="M156.409,178.614h 8.50039" fill="none" stroke="#ff00ff"/>
<g fill="#ff00ff">
<polygon points=" 154.988, 180.034 153.567, 181.455 152.146, 180.034 153.567, 178.614 152.146, 177.193 153.567, 175.772 154.988, 177.193 156.409, 175.772 157.83, 177.193 156.409, 178.614 157.83, 180.034 156.409, 181.455 154.988, 180.034"/>
</g>
<path d="M164.909,203.648h 8.50039" fill="none" stroke="#ff00ff"/>
<path d="M176.252,203.648h 8.50039" fill="none" stroke="#ff00ff"/>
<g fill="#ff00ff">
<polygon points=" 174.831, 205.069 173.41, 206.49 171.989, 205.069 173.41, 203.648 171.989, 202.227 173.41, 200.807 174.831, 202.227 176.252, 200.807 177.672, 202.227 176.252, 203.648 177.672, 205.069 176.252, 206.49 174.831, 205.069"/>
</g>
<path d="M184.752,230.332h 18.4216" fill="none" stroke="#ff00ff"/>
<path d="M206.015,230.332h 18.4216" fill="none" stroke="#ff00ff"/>
<g fill="#ff00ff">
<polygon points=" 204.594, 231.753 203.174, 233.174 201.753, 231.753 203.174, 230.332 201.753, 228.911 203.174, 227.491 204.594, 228.911 206.015, 227.491 207.436, 228.911 206.015, 230.332 207.436, 231.753 206.015, 233.174 204.594, 231.753"/>
</g>
<path d="M224.437,265.177h 28.3429" fill="none" stroke="#ff00ff"/>
<path d="M255.622,265.177h 28.3429" fill="none" stroke="#ff00ff"/>
<g fill="#ff00ff">
<polygon points=" 254.201, 266.598 252.78, 268.019 251.359, 266.598 252.78, 265.177 251.359, 263.756 252.78, 262.335 254.201, 263.756 255.622, 262.335 257.043, 263.756 255.622, 265.177 257.043, 266.598 255.622, 268.019 254.201, 266.598"/>
</g>
<path d="M283.965,302.117h 48.1854" fill="none" stroke="#ff00ff"/>
<path d="M334.992,302.117h 48.1854" fill="none" stroke="#ff00ff"/>
<g fill="#ff00ff">
<polygon points=" 333.571, 303.537 332.15, 304.958 330.729, 303.537 332.15, 302.117 330.729, 300.696 332.15, 299.275 333.571, 300.696 334.992, 299.275 336.413, 300.696 334.992, 302.117 336.413, 303.537 334.992, 304.958 333.571, 303.537"/>
</g>
<path d="M432.783,344.456v -2.42151" fill="none" stroke="#ff00ff"/>
<path d="M432.783,339.193v -1.60445" fill="none" stroke="#ff00ff"/>
<path d="M383.177,340.614h 48.1854" fill="none" stroke="#ff00ff"/>
<path d="M434.204,340.614h 48.1854" fill="none" stroke="#ff00ff"/>
<g fill="#ff00ff">
<polygon points=" 432.783, 342.035 431.363, 343.456 429.942, 342.035 431.363, 340.614 429.942, 339.193 431.363, 337.772 432.783, 339.193 434.204, 337.772 435.625, 339.193 434.204, 340.614 435.625, 342.035 434.204, 343.456 432.783, 342.035"/>
</g>
<path d="M85.5394,59.2167h 2.11888" fill="none" stroke="#cc00ff"/>
<path d="M93.3418,59.2167h 2.11888" fill="none" stroke="#cc00ff"/>
<g stroke="#cc00ff" stroke-width="1" fill="none">
<polygon points=" 89.5527, 58.2694 89.5527, 56.3749 91.4473, 56.3749 91.4473, 58.2694 93.3418, 58.2694 93.3418, 60.1639 91.4473, 60.1639 91.4473, 62.0584 89.5527, 62.0584 89.5527, 60.1639 87.6582, 60.1639 87.6582, 58.2694"/>
</g>
<path d="M95.4606,74.4326h 2.11888" fill="none" stroke="#cc00ff"/>
<path d="M103.263,74.4326h 2.11888" fill="none" stroke="#cc00ff"/>
<g stroke="#cc00ff" stroke-width="1" fill="none">
<polygon points=" 99.474, 73.4854 99.474, 71.5909 101.369, 71.5909 101.369, 73.4854 103.263, 73.4854 103.263, 75.3799 101.369, 75.3799 101.369, 77.2744 99.474, 77.2744 99.474, 75.3799 97.5795, 75.3799 97.5795, 73.4854"/>
</g>
<path d="M105.382,102.67h 2.11888" fill="none" stroke="#cc00ff"/>
<path d="M113.184,102.67h 2.11888" fill="none" stroke="#cc00ff"/>
<g stroke="#cc00ff" stroke-width="1" fill="none">
<polygon points=" 109.395, 101.723 109.395, 99.8282 111.29, 99.8282 111.29, 101.723 113.184, 101.723 113.184, 103.617 111.29, 103.617 111.29, 105.512 109.395, 105.512 109.395, 103.617 107.501, 103.617 107.501, 101.723"/>
</g>
<path d="M115.303,126.164h 2.11888" fill="none" stroke="#cc00ff"/>
<path d="M123.106,126.164h 2.11888" fill="none" stroke="#cc00ff"/>
<g stroke="#cc00ff" stroke-width="1" fill="none">
<polygon points=" 119.317, 125.217 119.317, 123.322 121.211, 123.322 121.211, 125.217 123.106, 125.217 123.106, 127.111 121.211, 127.111 121.211, 129.006 119.317, 129.006 119.317, 127.111 117.422, 127.111 117.422, 125.217"/>
</g>
<path d="M125.224,151.86h 7.07951" fill="none" stroke="#cc00ff"/>
<path d="M137.987,151.86h 7.07951" fill="none" stroke="#cc00ff"/>
<g stroke="#cc00ff" stroke-width="1" fill="none">
<polygon points=" 134.198, 150.913 134.198, 149.018 136.093, 149.018 136.093, 150.913 137.987, 150.913 137.987, 152.807 136.093, 152.807 136.093, 154.702 134.198, 154.702 134.198, 152.807 132.304, 152.807 132.304, 150.913"/>
</g>
<path d="M145.067,183.095h 7.07951" fill="none" stroke="#cc00ff"/>
<path d="M157.83,183.095h 7.07951" fill="none" stroke="#cc00ff"/>
<g stroke="#cc00ff" stroke-width="1" fill="none">
<polygon points=" 154.041, 182.147 154.041, 180.253 155.935, 180.253 155.935, 182.147 157.83, 182.147 157.83, 184.042 155.935, 184.042 155.935, 185.936 154.041, 185.936 154.041, 184.042 152.146, 184.042 152.146, 182.147"/>
</g>
<path d="M164.909,207.661h 7.07951" fill="none" stroke="#cc00ff"/>
<path d="M177.672,207.661h 7.07951" fill="none" stroke="#cc00ff"/>
<g stroke="#cc00ff" stroke-width="1" fill="none">
<polygon points=" 173.883, 206.714 173.883, 204.819 175.778, 204.819 175.778, 206.714 177.672, 206.714 177.672, 208.608 175.778, 208.608 175.778, 210.503 173.883, 210.503 173.883, 208.608 171.989, 208.608 171.989, 206.714"/>
</g>
<path d="M184.752,234.616h 17.0008" fill="none" stroke="#cc00ff"/>
<path d="M207.436,234.616h 17.0008" fill="none" stroke="#cc00ff"/>
<g stroke="#cc00ff" stroke-width="1" fill="none">
<polygon points=" 203.647, 233.669 203.647, 231.774 205.542, 231.774 205.542, 233.669 207.436, 233.669 207.436, 235.563 205.542, 235.563 205.542, 237.458 203.647, 237.458 203.647, 235.563 201.753, 235.563 201.753, 233.669"/>
</g>
<path d="M224.437,268.423h 26.922" fill="none" stroke="#cc00ff"/>
<path d="M257.043,268.423h 26.922" fill="none" stroke="#cc00ff"/>
<g stroke="#cc00ff" stroke-width="1" fill="none">
<polygon points=" 253.254, 267.476 253.254, 265.581 255.148, 265.581 255.148, 267.476 257.043, 267.476 257.043, 269.37 255.148, 269.37 255.148, 271.265 253.254, 271.265 253.254, 269.37 251.359, 269.37 251.359, 267.476"/>
</g>
<path d="M283.965,306.199h 46.7645" fill="none" stroke="#cc00ff"/>
<path d="M336.413,306.199h 46.7645" fill="none" stroke="#cc00ff"/>
<g stroke="#cc00ff" stroke-width="1" fill="none">
<polygon points=" 332.624, 305.251 332.624, 303.357 334.518, 303.357 334.518, 305.251 336.413, 305.251 336.413, 307.146 334.518, 307.146 334.518, 309.04 332.624, 309.04 332.624, 307.146 330.729, 307.146 330.729, 305.251"/>
</g>
<path d="M432.783,348.657v -1.60342" fill="none" stroke="#cc00ff"/>
<path d="M432.783,341.37v -0.544068" fill="none" stroke="#cc00ff"/>
<path d="M383.177,344.212h 46.7645" fill="none" stroke="#cc00ff"/>
<path d="M435.625,344.212h 46.7645" fill="none" stroke="#cc00ff"/>
<g stroke="#cc00ff" stroke-width="1" fill="none">
<polygon points=" 431.836, 343.265 431.836, 341.37 433.731, 341.37 433.731, 343.265 435.625, 343.265 435.625, 345.159 433.731, 345.159 433.731, 347.054 431.836, 347.054 431.836, 345.159 429.942, 345.159 429.942, 343.265"/>
</g>
<text xml:space="preserve" x="232.813" y="49.7306" fill="black" font-size="11.7432" font-family="Helvetica">PYTHIA8, pAu200GeV with option3</text>
<text xml:space="preserve" x="266.914" y="62.5185" fill="black" font-size="11.7432" font-family="Helvetica">|&lt;1</text>
<text xml:space="preserve" x="260.52" y="62.5185" fill="black" font-size="11.7432" font-family="Times">&#0951;</text>
<text xml:space="preserve" x="243.47" y="62.5185" fill="black" font-size="11.7432" font-family="Helvetica"> in |</text>
<text xml:space="preserve" x="239.207" y="58.2559" fill="black" font-size="7.99544" font-family="Helvetica">0</text>
<text xml:space="preserve" x="232.813" y="62.5185" fill="black" font-size="11.7432" font-family="Times">&#0960;</text>
<text xml:space="preserve" x="283.965" y="75.3064" fill="black" font-size="11.7432" font-family="Helvetica">all inelastic(MB)</text>
<g fill="black">
<rect x="252.776" y="69.9226" width="5.6835" height="5.6835"/>
</g>
<text xml:space="preserve" x="283.965" y="88.0943" fill="black" font-size="11.7432" font-family="Helvetica">cent: 0~10%</text>
<g fill="#ffcc00">
<polygon points=" 254.671, 84.5828 254.671, 82.6883 256.565, 82.6883 256.565, 84.5828 258.46, 84.5828 258.46, 86.4773 256.565, 86.4773 256.565, 88.3718 254.671, 88.3718 254.671, 86.4773 252.776, 86.4773 252.776, 84.5828"/>
</g>
<text xml:space="preserve" x="283.965" y="100.882" fill="black" font-size="11.7432" font-family="Helvetica">cent: 10~20%</text>
<g fill="#ff0000">
<polygon points=" 254.671, 97.3484 254.671, 95.4539 256.565, 95.4539 256.565, 97.3484 258.46, 97.3484 258.46, 99.2429 256.565, 99.2429 256.565, 101.137 254.671, 101.137 254.671, 99.2429 252.776, 99.2429 252.776, 97.3484"/>
</g>
<text xml:space="preserve" x="283.965" y="113.67" fill="black" font-size="11.7432" font-family="Helvetica">cent: 20~40%</text>
<g stroke="#ff0033" stroke-width="1" fill="none">
<polygon points=" 254.671, 110.114 254.671, 108.22 256.565, 108.22 256.565, 110.114 258.46, 110.114 258.46, 112.009 256.565, 112.009 256.565, 113.903 254.671, 113.903 254.671, 112.009 252.776, 112.009 252.776, 110.114"/>
</g>
<text xml:space="preserve" x="283.965" y="126.458" fill="black" font-size="11.7432" font-family="Helvetica">cent: 40~60%</text>
<g fill="#ff00ff">
<polygon points=" 255.618, 125.248 254.197, 126.669 252.776, 125.248 254.197, 123.827 252.776, 122.406 254.197, 120.985 255.618, 122.406 257.039, 120.985 258.46, 122.406 257.039, 123.827 258.46, 125.248 257.039, 126.669 255.618, 125.248"/>
</g>
<text xml:space="preserve" x="283.965" y="139.246" fill="black" font-size="11.7432" font-family="Helvetica">cent: 60~80%</text>
<g stroke="#cc00ff" stroke-width="1" fill="none">
<polygon points=" 254.671, 135.645 254.671, 133.751 256.565, 133.751 256.565, 135.645 258.46, 135.645 258.46, 137.54 256.565, 137.54 256.565, 139.434 254.671, 139.434 254.671, 137.54 252.776, 137.54 252.776, 135.645"/>
</g></svg>
