<?xml version="1.0" standalone="no"?>
<svg width="567.429" height="409.002" viewBox="0 0 567.429 409.002" xmlns="http://www.w3.org/2000/svg" shape-rendering="crispEdges">
<title>
/Users/jinhyunpark/npl/gitHub/git_share/Centrality_dependent_BiasCorrection/plots/plots_scaled-dNdpT/ratio_scaledYield_pion0_cent2mb.svg
</title>
<desc>
Creator: ROOT Version 6.28/04
CreationDate: Mon Sep 25 12:58:37 2023</desc>
<defs>
</defs>
<rect x="0.5" y="0" width="566.929" height="408.502" fill="white"/>
<rect x="85.5394" y="20.4251" width="396.85" height="339.056" fill="white"/>
<rect x="85.5394" y="20.4251" width="396.85" height="339.056" fill="none" stroke="black"/>
<rect x="85.5394" y="20.4251" width="396.85" height="339.056" fill="white"/>
<rect x="85.5394" y="20.4251" width="396.85" height="339.056" fill="none" stroke="black"/>
<path d="M85.5394,359.481h 396.85" fill="none" stroke="black"/>
<path d="M85.5394,350.903v 8.57853" fill="none" stroke="black"/>
<path d="M95.4606,355.192v 4.28927" fill="none" stroke="black"/>
<path d="M105.382,355.192v 4.28927" fill="none" stroke="black"/>
<path d="M115.303,355.192v 4.28927" fill="none" stroke="black"/>
<path d="M125.224,350.903v 8.57853" fill="none" stroke="black"/>
<path d="M135.146,355.192v 4.28927" fill="none" stroke="black"/>
<path d="M145.067,355.192v 4.28927" fill="none" stroke="black"/>
<path d="M154.988,355.192v 4.28927" fill="none" stroke="black"/>
<path d="M164.909,350.903v 8.57853" fill="none" stroke="black"/>
<path d="M174.831,355.192v 4.28927" fill="none" stroke="black"/>
<path d="M184.752,355.192v 4.28927" fill="none" stroke="black"/>
<path d="M194.673,355.192v 4.28927" fill="none" stroke="black"/>
<path d="M204.594,350.903v 8.57853" fill="none" stroke="black"/>
<path d="M214.516,355.192v 4.28927" fill="none" stroke="black"/>
<path d="M224.437,355.192v 4.28927" fill="none" stroke="black"/>
<path d="M234.358,355.192v 4.28927" fill="none" stroke="black"/>
<path d="M244.28,350.903v 8.57853" fill="none" stroke="black"/>
<path d="M254.201,355.192v 4.28927" fill="none" stroke="black"/>
<path d="M264.122,355.192v 4.28927" fill="none" stroke="black"/>
<path d="M274.043,355.192v 4.28927" fill="none" stroke="black"/>
<path d="M283.965,350.903v 8.57853" fill="none" stroke="black"/>
<path d="M293.886,355.192v 4.28927" fill="none" stroke="black"/>
<path d="M303.807,355.192v 4.28927" fill="none" stroke="black"/>
<path d="M313.728,355.192v 4.28927" fill="none" stroke="black"/>
<path d="M323.65,350.903v 8.57853" fill="none" stroke="black"/>
<path d="M333.571,355.192v 4.28927" fill="none" stroke="black"/>
<path d="M343.492,355.192v 4.28927" fill="none" stroke="black"/>
<path d="M353.413,355.192v 4.28927" fill="none" stroke="black"/>
<path d="M363.335,350.903v 8.57853" fill="none" stroke="black"/>
<path d="M373.256,355.192v 4.28927" fill="none" stroke="black"/>
<path d="M383.177,355.192v 4.28927" fill="none" stroke="black"/>
<path d="M393.098,355.192v 4.28927" fill="none" stroke="black"/>
<path d="M403.02,350.903v 8.57853" fill="none" stroke="black"/>
<path d="M412.941,355.192v 4.28927" fill="none" stroke="black"/>
<path d="M422.862,355.192v 4.28927" fill="none" stroke="black"/>
<path d="M432.783,355.192v 4.28927" fill="none" stroke="black"/>
<path d="M442.705,350.903v 8.57853" fill="none" stroke="black"/>
<path d="M452.626,355.192v 4.28927" fill="none" stroke="black"/>
<path d="M462.547,355.192v 4.28927" fill="none" stroke="black"/>
<path d="M472.469,355.192v 4.28927" fill="none" stroke="black"/>
<path d="M482.39,350.903v 8.57853" fill="none" stroke="black"/>
<text xml:space="preserve" x="81.4899" y="372.269" fill="black" font-size="13.617" font-family="Helvetica">0</text>
<text xml:space="preserve" x="121.274" y="372.269" fill="black" font-size="13.617" font-family="Helvetica">2</text>
<text xml:space="preserve" x="161.059" y="372.269" fill="black" font-size="13.617" font-family="Helvetica">4</text>
<text xml:space="preserve" x="200.843" y="372.269" fill="black" font-size="13.617" font-family="Helvetica">6</text>
<text xml:space="preserve" x="240.628" y="372.269" fill="black" font-size="13.617" font-family="Helvetica">8</text>
<text xml:space="preserve" x="276.15" y="372.269" fill="black" font-size="13.617" font-family="Helvetica">10</text>
<text xml:space="preserve" x="315.224" y="372.269" fill="black" font-size="13.617" font-family="Helvetica">12</text>
<text xml:space="preserve" x="355.008" y="372.269" fill="black" font-size="13.617" font-family="Helvetica">14</text>
<text xml:space="preserve" x="394.793" y="372.269" fill="black" font-size="13.617" font-family="Helvetica">16</text>
<text xml:space="preserve" x="434.577" y="372.269" fill="black" font-size="13.617" font-family="Helvetica">18</text>
<text xml:space="preserve" x="474.362" y="372.269" fill="black" font-size="13.617" font-family="Helvetica">20</text>
<text xml:space="preserve" x="436.709" y="384.347" fill="black" font-size="13.617" font-family="Helvetica">(GeV/c)</text>
<text xml:space="preserve" x="431.025" y="392.162" fill="black" font-size="9.24468" font-family="Helvetica">T</text>
<text xml:space="preserve" x="423.21" y="384.347" fill="black" font-size="13.617" font-family="Helvetica">p</text>
<path d="M85.5394,20.4251h 396.85" fill="none" stroke="black"/>
<path d="M85.5394,29.0036v -8.57853" fill="none" stroke="black"/>
<path d="M95.4606,24.7143v -4.28927" fill="none" stroke="black"/>
<path d="M105.382,24.7143v -4.28927" fill="none" stroke="black"/>
<path d="M115.303,24.7143v -4.28927" fill="none" stroke="black"/>
<path d="M125.224,29.0036v -8.57853" fill="none" stroke="black"/>
<path d="M135.146,24.7143v -4.28927" fill="none" stroke="black"/>
<path d="M145.067,24.7143v -4.28927" fill="none" stroke="black"/>
<path d="M154.988,24.7143v -4.28927" fill="none" stroke="black"/>
<path d="M164.909,29.0036v -8.57853" fill="none" stroke="black"/>
<path d="M174.831,24.7143v -4.28927" fill="none" stroke="black"/>
<path d="M184.752,24.7143v -4.28927" fill="none" stroke="black"/>
<path d="M194.673,24.7143v -4.28927" fill="none" stroke="black"/>
<path d="M204.594,29.0036v -8.57853" fill="none" stroke="black"/>
<path d="M214.516,24.7143v -4.28927" fill="none" stroke="black"/>
<path d="M224.437,24.7143v -4.28927" fill="none" stroke="black"/>
<path d="M234.358,24.7143v -4.28927" fill="none" stroke="black"/>
<path d="M244.28,29.0036v -8.57853" fill="none" stroke="black"/>
<path d="M254.201,24.7143v -4.28927" fill="none" stroke="black"/>
<path d="M264.122,24.7143v -4.28927" fill="none" stroke="black"/>
<path d="M274.043,24.7143v -4.28927" fill="none" stroke="black"/>
<path d="M283.965,29.0036v -8.57853" fill="none" stroke="black"/>
<path d="M293.886,24.7143v -4.28927" fill="none" stroke="black"/>
<path d="M303.807,24.7143v -4.28927" fill="none" stroke="black"/>
<path d="M313.728,24.7143v -4.28927" fill="none" stroke="black"/>
<path d="M323.65,29.0036v -8.57853" fill="none" stroke="black"/>
<path d="M333.571,24.7143v -4.28927" fill="none" stroke="black"/>
<path d="M343.492,24.7143v -4.28927" fill="none" stroke="black"/>
<path d="M353.413,24.7143v -4.28927" fill="none" stroke="black"/>
<path d="M363.335,29.0036v -8.57853" fill="none" stroke="black"/>
<path d="M373.256,24.7143v -4.28927" fill="none" stroke="black"/>
<path d="M383.177,24.7143v -4.28927" fill="none" stroke="black"/>
<path d="M393.098,24.7143v -4.28927" fill="none" stroke="black"/>
<path d="M403.02,29.0036v -8.57853" fill="none" stroke="black"/>
<path d="M412.941,24.7143v -4.28927" fill="none" stroke="black"/>
<path d="M422.862,24.7143v -4.28927" fill="none" stroke="black"/>
<path d="M432.783,24.7143v -4.28927" fill="none" stroke="black"/>
<path d="M442.705,29.0036v -8.57853" fill="none" stroke="black"/>
<path d="M452.626,24.7143v -4.28927" fill="none" stroke="black"/>
<path d="M462.547,24.7143v -4.28927" fill="none" stroke="black"/>
<path d="M472.469,24.7143v -4.28927" fill="none" stroke="black"/>
<path d="M482.39,29.0036v -8.57853" fill="none" stroke="black"/>
<path d="M85.5394,359.481v -339.056" fill="none" stroke="black"/>
<path d="M99.6559,359.481h -14.1165" fill="none" stroke="black"/>
<path d="M92.5976,348.18h -7.05827" fill="none" stroke="black"/>
<path d="M92.5976,336.878h -7.05827" fill="none" stroke="black"/>
<path d="M92.5976,325.576h -7.05827" fill="none" stroke="black"/>
<path d="M92.5976,314.274h -7.05827" fill="none" stroke="black"/>
<path d="M99.6559,302.972h -14.1165" fill="none" stroke="black"/>
<path d="M92.5976,291.67h -7.05827" fill="none" stroke="black"/>
<path d="M92.5976,280.368h -7.05827" fill="none" stroke="black"/>
<path d="M92.5976,269.066h -7.05827" fill="none" stroke="black"/>
<path d="M92.5976,257.764h -7.05827" fill="none" stroke="black"/>
<path d="M99.6559,246.463h -14.1165" fill="none" stroke="black"/>
<path d="M92.5976,235.161h -7.05827" fill="none" stroke="black"/>
<path d="M92.5976,223.859h -7.05827" fill="none" stroke="black"/>
<path d="M92.5976,212.557h -7.05827" fill="none" stroke="black"/>
<path d="M92.5976,201.255h -7.05827" fill="none" stroke="black"/>
<path d="M99.6559,189.953h -14.1165" fill="none" stroke="black"/>
<path d="M92.5976,178.651h -7.05827" fill="none" stroke="black"/>
<path d="M92.5976,167.349h -7.05827" fill="none" stroke="black"/>
<path d="M92.5976,156.048h -7.05827" fill="none" stroke="black"/>
<path d="M92.5976,144.746h -7.05827" fill="none" stroke="black"/>
<path d="M99.6559,133.444h -14.1165" fill="none" stroke="black"/>
<path d="M92.5976,122.142h -7.05827" fill="none" stroke="black"/>
<path d="M92.5976,110.84h -7.05827" fill="none" stroke="black"/>
<path d="M92.5976,99.5382h -7.05827" fill="none" stroke="black"/>
<path d="M92.5976,88.2363h -7.05827" fill="none" stroke="black"/>
<path d="M99.6559,76.9345h -14.1165" fill="none" stroke="black"/>
<path d="M92.5976,65.6326h -7.05827" fill="none" stroke="black"/>
<path d="M92.5976,54.3307h -7.05827" fill="none" stroke="black"/>
<path d="M92.5976,43.0288h -7.05827" fill="none" stroke="black"/>
<path d="M92.5976,31.727h -7.05827" fill="none" stroke="black"/>
<path d="M99.6559,20.4251h -14.1165" fill="none" stroke="black"/>
<text xml:space="preserve" x="75.0959" y="364.454" fill="black" font-size="13.617" font-family="Helvetica">0</text>
<text xml:space="preserve" x="63.7289" y="307.619" fill="black" font-size="13.617" font-family="Helvetica">0.5</text>
<text xml:space="preserve" x="77.2272" y="251.495" fill="black" font-size="13.617" font-family="Helvetica">1</text>
<text xml:space="preserve" x="63.7289" y="194.66" fill="black" font-size="13.617" font-family="Helvetica">1.5</text>
<text xml:space="preserve" x="75.0959" y="138.535" fill="black" font-size="13.617" font-family="Helvetica">2</text>
<text xml:space="preserve" x="63.7289" y="81.7003" fill="black" font-size="13.617" font-family="Helvetica">2.5</text>
<text xml:space="preserve" x="75.0959" y="24.8653" fill="black" font-size="13.617" font-family="Helvetica">3</text>
<g transform="rotate(-90,49.5202,24.1549)">
<text xml:space="preserve" x="49.5202" y="24.1549" fill="black" font-size="13.617" font-family="Helvetica"> </text>
</g>
<g transform="rotate(-90,57.335,37.6532)">
<text xml:space="preserve" x="57.335" y="37.6532" fill="black" font-size="9.24468" font-family="Helvetica">MB</text>
</g>
<g transform="rotate(-90,49.5202,41.2054)">
<text xml:space="preserve" x="49.5202" y="41.2054" fill="black" font-size="13.617" font-family="Helvetica">)</text>
</g>
<g transform="rotate(-90,65.1498,49.0202)">
<text xml:space="preserve" x="65.1498" y="49.0202" fill="black" font-size="9.24468" font-family="Helvetica">T</text>
</g>
<g transform="rotate(-90,57.335,63.9394)">
<text xml:space="preserve" x="57.335" y="63.9394" fill="black" font-size="13.617" font-family="Helvetica">dp</text>
</g>
<g transform="rotate(-90,33.1801,44.7576)">
<text xml:space="preserve" x="33.1801" y="44.7576" fill="black" font-size="6.32979" font-family="Helvetica">0</text>
</g>
<g transform="rotate(-90,36.7323,49.7306)">
<text xml:space="preserve" x="36.7323" y="49.7306" fill="black" font-size="9.24468" font-family="Times">&#0960;</text>
</g>
<g transform="rotate(-90,43.1263,66.0707)">
<text xml:space="preserve" x="43.1263" y="66.0707" fill="black" font-size="13.617" font-family="Helvetica">dN</text>
</g>
<path d="M45.968,66.0707v -24.8653" fill="none" stroke="black" stroke-width="2"/>
<g transform="rotate(-90,49.5202,70.3333)">
<text xml:space="preserve" x="49.5202" y="70.3333" fill="black" font-size="13.617" font-family="Helvetica"> </text>
</g>
<g transform="rotate(-90,61.5976,93.0673)">
<text xml:space="preserve" x="61.5976" y="93.0673" fill="black" font-size="9.24468" font-family="Helvetica">event</text>
</g>
<g transform="rotate(-90,57.335,102.303)">
<text xml:space="preserve" x="57.335" y="102.303" fill="black" font-size="13.617" font-family="Helvetica">N</text>
</g>
<g transform="rotate(-90,43.8367,88.8047)">
<text xml:space="preserve" x="43.8367" y="88.8047" fill="black" font-size="13.617" font-family="Helvetica">1</text>
</g>
<path d="M45.968,102.303v -31.9697" fill="none" stroke="black" stroke-width="2"/>
<g transform="rotate(-90,49.5202,106.566)">
<text xml:space="preserve" x="49.5202" y="106.566" fill="black" font-size="13.617" font-family="Helvetica"> </text>
</g>
<g transform="rotate(-90,58.0454,110.828)">
<text xml:space="preserve" x="58.0454" y="110.828" fill="black" font-size="13.617" font-family="Times">&#0062;</text>
</g>
<g transform="rotate(-90,64.4394,124.327)">
<text xml:space="preserve" x="64.4394" y="124.327" fill="black" font-size="9.24468" font-family="Helvetica">coll</text>
</g>
<g transform="rotate(-90,58.0454,133.562)">
<text xml:space="preserve" x="58.0454" y="133.562" fill="black" font-size="13.617" font-family="Helvetica">N</text>
</g>
<g transform="rotate(-90,58.0454,137.825)">
<text xml:space="preserve" x="58.0454" y="137.825" fill="black" font-size="13.617" font-family="Times">&#0060;</text>
</g>
<g transform="rotate(-90,43.8367,124.327)">
<text xml:space="preserve" x="43.8367" y="124.327" fill="black" font-size="13.617" font-family="Helvetica">1</text>
</g>
<path d="M45.968,137.825v -31.2593" fill="none" stroke="black" stroke-width="2"/>
<g transform="rotate(-90,49.5202,153.455)">
<text xml:space="preserve" x="49.5202" y="153.455" fill="black" font-size="13.617" font-family="Helvetica"> / (</text>
</g>
<g transform="rotate(-90,56.6246,171.215)">
<text xml:space="preserve" x="56.6246" y="171.215" fill="black" font-size="9.24468" font-family="Helvetica">cent</text>
</g>
<g transform="rotate(-90,49.5202,174.768)">
<text xml:space="preserve" x="49.5202" y="174.768" fill="black" font-size="13.617" font-family="Helvetica">)</text>
</g>
<g transform="rotate(-90,65.1498,182.582)">
<text xml:space="preserve" x="65.1498" y="182.582" fill="black" font-size="9.24468" font-family="Helvetica">T</text>
</g>
<g transform="rotate(-90,57.335,197.502)">
<text xml:space="preserve" x="57.335" y="197.502" fill="black" font-size="13.617" font-family="Helvetica">dp</text>
</g>
<g transform="rotate(-90,33.1801,178.32)">
<text xml:space="preserve" x="33.1801" y="178.32" fill="black" font-size="6.32979" font-family="Helvetica">0</text>
</g>
<g transform="rotate(-90,36.7323,183.293)">
<text xml:space="preserve" x="36.7323" y="183.293" fill="black" font-size="9.24468" font-family="Times">&#0960;</text>
</g>
<g transform="rotate(-90,43.1263,199.633)">
<text xml:space="preserve" x="43.1263" y="199.633" fill="black" font-size="13.617" font-family="Helvetica">dN</text>
</g>
<path d="M45.968,199.633v -24.8653" fill="none" stroke="black" stroke-width="2"/>
<g transform="rotate(-90,49.5202,203.896)">
<text xml:space="preserve" x="49.5202" y="203.896" fill="black" font-size="13.617" font-family="Helvetica"> </text>
</g>
<g transform="rotate(-90,61.5976,226.63)">
<text xml:space="preserve" x="61.5976" y="226.63" fill="black" font-size="9.24468" font-family="Helvetica">event</text>
</g>
<g transform="rotate(-90,57.335,235.865)">
<text xml:space="preserve" x="57.335" y="235.865" fill="black" font-size="13.617" font-family="Helvetica">N</text>
</g>
<g transform="rotate(-90,43.8367,222.367)">
<text xml:space="preserve" x="43.8367" y="222.367" fill="black" font-size="13.617" font-family="Helvetica">1</text>
</g>
<path d="M45.968,235.865v -31.9697" fill="none" stroke="black" stroke-width="2"/>
<g transform="rotate(-90,49.5202,240.128)">
<text xml:space="preserve" x="49.5202" y="240.128" fill="black" font-size="13.617" font-family="Helvetica"> </text>
</g>
<g transform="rotate(-90,58.0454,244.391)">
<text xml:space="preserve" x="58.0454" y="244.391" fill="black" font-size="13.617" font-family="Times">&#0062;</text>
</g>
<g transform="rotate(-90,64.4394,257.889)">
<text xml:space="preserve" x="64.4394" y="257.889" fill="black" font-size="9.24468" font-family="Helvetica">coll</text>
</g>
<g transform="rotate(-90,58.0454,267.125)">
<text xml:space="preserve" x="58.0454" y="267.125" fill="black" font-size="13.617" font-family="Helvetica">N</text>
</g>
<g transform="rotate(-90,58.0454,271.387)">
<text xml:space="preserve" x="58.0454" y="271.387" fill="black" font-size="13.617" font-family="Times">&#0060;</text>
</g>
<g transform="rotate(-90,43.8367,257.889)">
<text xml:space="preserve" x="43.8367" y="257.889" fill="black" font-size="13.617" font-family="Helvetica">1</text>
</g>
<path d="M45.968,271.387v -31.2593" fill="none" stroke="black" stroke-width="2"/>
<g transform="rotate(-90,49.5202,275.65)">
<text xml:space="preserve" x="49.5202" y="275.65" fill="black" font-size="13.617" font-family="Helvetica">(</text>
</g>
<path d="M482.39,359.481v -339.056" fill="none" stroke="black"/>
<path d="M468.273,359.481h 14.1165" fill="none" stroke="black"/>
<path d="M475.332,348.18h 7.05827" fill="none" stroke="black"/>
<path d="M475.332,336.878h 7.05827" fill="none" stroke="black"/>
<path d="M475.332,325.576h 7.05827" fill="none" stroke="black"/>
<path d="M475.332,314.274h 7.05827" fill="none" stroke="black"/>
<path d="M468.273,302.972h 14.1165" fill="none" stroke="black"/>
<path d="M475.332,291.67h 7.05827" fill="none" stroke="black"/>
<path d="M475.332,280.368h 7.05827" fill="none" stroke="black"/>
<path d="M475.332,269.066h 7.05827" fill="none" stroke="black"/>
<path d="M475.332,257.764h 7.05827" fill="none" stroke="black"/>
<path d="M468.273,246.463h 14.1165" fill="none" stroke="black"/>
<path d="M475.332,235.161h 7.05827" fill="none" stroke="black"/>
<path d="M475.332,223.859h 7.05827" fill="none" stroke="black"/>
<path d="M475.332,212.557h 7.05827" fill="none" stroke="black"/>
<path d="M475.332,201.255h 7.05827" fill="none" stroke="black"/>
<path d="M468.273,189.953h 14.1165" fill="none" stroke="black"/>
<path d="M475.332,178.651h 7.05827" fill="none" stroke="black"/>
<path d="M475.332,167.349h 7.05827" fill="none" stroke="black"/>
<path d="M475.332,156.048h 7.05827" fill="none" stroke="black"/>
<path d="M475.332,144.746h 7.05827" fill="none" stroke="black"/>
<path d="M468.273,133.444h 14.1165" fill="none" stroke="black"/>
<path d="M475.332,122.142h 7.05827" fill="none" stroke="black"/>
<path d="M475.332,110.84h 7.05827" fill="none" stroke="black"/>
<path d="M475.332,99.5382h 7.05827" fill="none" stroke="black"/>
<path d="M475.332,88.2363h 7.05827" fill="none" stroke="black"/>
<path d="M468.273,76.9345h 14.1165" fill="none" stroke="black"/>
<path d="M475.332,65.6326h 7.05827" fill="none" stroke="black"/>
<path d="M475.332,54.3307h 7.05827" fill="none" stroke="black"/>
<path d="M475.332,43.0288h 7.05827" fill="none" stroke="black"/>
<path d="M475.332,31.727h 7.05827" fill="none" stroke="black"/>
<path d="M468.273,20.4251h 14.1165" fill="none" stroke="black"/>
<path d="M85.5394,253.738h 2.11888" fill="none" stroke="#ffcc00"/>
<path d="M93.3418,253.738h 2.11888" fill="none" stroke="#ffcc00"/>
<g fill="#ffcc00">
<polygon points=" 89.5527, 252.791 89.5527, 250.896 91.4473, 250.896 91.4473, 252.791 93.3418, 252.791 93.3418, 254.685 91.4473, 254.685 91.4473, 256.58 89.5527, 256.58 89.5527, 254.685 87.6582, 254.685 87.6582, 252.791"/>
</g>
<path d="M95.4606,254.476h 2.11888" fill="none" stroke="#ffcc00"/>
<path d="M103.263,254.476h 2.11888" fill="none" stroke="#ffcc00"/>
<g fill="#ffcc00">
<polygon points=" 99.474, 253.529 99.474, 251.634 101.369, 251.634 101.369, 253.529 103.263, 253.529 103.263, 255.423 101.369, 255.423 101.369, 257.318 99.474, 257.318 99.474, 255.423 97.5795, 255.423 97.5795, 253.529"/>
</g>
<path d="M105.382,255.663h 2.11888" fill="none" stroke="#ffcc00"/>
<path d="M113.184,255.663h 2.11888" fill="none" stroke="#ffcc00"/>
<g fill="#ffcc00">
<polygon points=" 109.395, 254.716 109.395, 252.821 111.29, 252.821 111.29, 254.716 113.184, 254.716 113.184, 256.61 111.29, 256.61 111.29, 258.505 109.395, 258.505 109.395, 256.61 107.501, 256.61 107.501, 254.716"/>
</g>
<path d="M115.303,257.819h 2.11888" fill="none" stroke="#ffcc00"/>
<path d="M123.106,257.819h 2.11888" fill="none" stroke="#ffcc00"/>
<g fill="#ffcc00">
<polygon points=" 119.317, 256.872 119.317, 254.977 121.211, 254.977 121.211, 256.872 123.106, 256.872 123.106, 258.766 121.211, 258.766 121.211, 260.661 119.317, 260.661 119.317, 258.766 117.422, 258.766 117.422, 256.872"/>
</g>
<path d="M125.224,260.189h 7.07951" fill="none" stroke="#ffcc00"/>
<path d="M137.987,260.189h 7.07951" fill="none" stroke="#ffcc00"/>
<g fill="#ffcc00">
<polygon points=" 134.198, 259.242 134.198, 257.348 136.093, 257.348 136.093, 259.242 137.987, 259.242 137.987, 261.137 136.093, 261.137 136.093, 263.031 134.198, 263.031 134.198, 261.137 132.304, 261.137 132.304, 259.242"/>
</g>
<path d="M145.067,263.324h 7.07951" fill="none" stroke="#ffcc00"/>
<path d="M157.83,263.324h 7.07951" fill="none" stroke="#ffcc00"/>
<g fill="#ffcc00">
<polygon points=" 154.041, 262.377 154.041, 260.483 155.935, 260.483 155.935, 262.377 157.83, 262.377 157.83, 264.272 155.935, 264.272 155.935, 266.166 154.041, 266.166 154.041, 264.272 152.146, 264.272 152.146, 262.377"/>
</g>
<path d="M164.909,266.685h 7.07951" fill="none" stroke="#ffcc00"/>
<path d="M177.672,266.685h 7.07951" fill="none" stroke="#ffcc00"/>
<g fill="#ffcc00">
<polygon points=" 173.883, 265.737 173.883, 263.843 175.778, 263.843 175.778, 265.737 177.672, 265.737 177.672, 267.632 175.778, 267.632 175.778, 269.526 173.883, 269.526 173.883, 267.632 171.989, 267.632 171.989, 265.737"/>
</g>
<path d="M184.752,273.414h 17.0008" fill="none" stroke="#ffcc00"/>
<path d="M207.436,273.414h 17.0008" fill="none" stroke="#ffcc00"/>
<g fill="#ffcc00">
<polygon points=" 203.647, 272.467 203.647, 270.572 205.542, 270.572 205.542, 272.467 207.436, 272.467 207.436, 274.361 205.542, 274.361 205.542, 276.256 203.647, 276.256 203.647, 274.361 201.753, 274.361 201.753, 272.467"/>
</g>
<path d="M224.437,282.436h 26.922" fill="none" stroke="#ffcc00"/>
<path d="M257.043,282.436h 26.922" fill="none" stroke="#ffcc00"/>
<g fill="#ffcc00">
<polygon points=" 253.254, 281.488 253.254, 279.594 255.148, 279.594 255.148, 281.488 257.043, 281.488 257.043, 283.383 255.148, 283.383 255.148, 285.277 253.254, 285.277 253.254, 283.383 251.359, 283.383 251.359, 281.488"/>
</g>
<path d="M333.571,287.623v -4.12149" fill="none" stroke="#ffcc00"/>
<path d="M333.571,277.818v -4.12149" fill="none" stroke="#ffcc00"/>
<path d="M283.965,280.66h 46.7645" fill="none" stroke="#ffcc00"/>
<path d="M336.413,280.66h 46.7645" fill="none" stroke="#ffcc00"/>
<g fill="#ffcc00">
<polygon points=" 332.624, 279.713 332.624, 277.818 334.518, 277.818 334.518, 279.713 336.413, 279.713 336.413, 281.607 334.518, 281.607 334.518, 283.502 332.624, 283.502 332.624, 281.607 330.729, 281.607 330.729, 279.713"/>
</g>
<path d="M432.783,326.766v -21.4516" fill="none" stroke="#ffcc00"/>
<path d="M432.783,299.631v -21.4516" fill="none" stroke="#ffcc00"/>
<path d="M383.177,302.473h 46.7645" fill="none" stroke="#ffcc00"/>
<path d="M435.625,302.473h 46.7645" fill="none" stroke="#ffcc00"/>
<g fill="#ffcc00">
<polygon points=" 431.836, 301.526 431.836, 299.631 433.731, 299.631 433.731, 301.526 435.625, 301.526 435.625, 303.42 433.731, 303.42 433.731, 305.315 431.836, 305.315 431.836, 303.42 429.942, 303.42 429.942, 301.526"/>
</g>
<path d="M85.5394,252.646h 2.11888" fill="none" stroke="#ff0000"/>
<path d="M93.3418,252.646h 2.11888" fill="none" stroke="#ff0000"/>
<g fill="#ff0000">
<polygon points=" 89.5527, 251.699 89.5527, 249.805 91.4473, 249.805 91.4473, 251.699 93.3418, 251.699 93.3418, 253.594 91.4473, 253.594 91.4473, 255.488 89.5527, 255.488 89.5527, 253.594 87.6582, 253.594 87.6582, 251.699"/>
</g>
<path d="M95.4606,252.785h 2.11888" fill="none" stroke="#ff0000"/>
<path d="M103.263,252.785h 2.11888" fill="none" stroke="#ff0000"/>
<g fill="#ff0000">
<polygon points=" 99.474, 251.838 99.474, 249.944 101.369, 249.944 101.369, 251.838 103.263, 251.838 103.263, 253.733 101.369, 253.733 101.369, 255.627 99.474, 255.627 99.474, 253.733 97.5795, 253.733 97.5795, 251.838"/>
</g>
<path d="M105.382,252.339h 2.11888" fill="none" stroke="#ff0000"/>
<path d="M113.184,252.339h 2.11888" fill="none" stroke="#ff0000"/>
<g fill="#ff0000">
<polygon points=" 109.395, 251.392 109.395, 249.497 111.29, 249.497 111.29, 251.392 113.184, 251.392 113.184, 253.286 111.29, 253.286 111.29, 255.181 109.395, 255.181 109.395, 253.286 107.501, 253.286 107.501, 251.392"/>
</g>
<path d="M115.303,252.977h 2.11888" fill="none" stroke="#ff0000"/>
<path d="M123.106,252.977h 2.11888" fill="none" stroke="#ff0000"/>
<g fill="#ff0000">
<polygon points=" 119.317, 252.03 119.317, 250.135 121.211, 250.135 121.211, 252.03 123.106, 252.03 123.106, 253.924 121.211, 253.924 121.211, 255.819 119.317, 255.819 119.317, 253.924 117.422, 253.924 117.422, 252.03"/>
</g>
<path d="M125.224,253.855h 7.07951" fill="none" stroke="#ff0000"/>
<path d="M137.987,253.855h 7.07951" fill="none" stroke="#ff0000"/>
<g fill="#ff0000">
<polygon points=" 134.198, 252.908 134.198, 251.013 136.093, 251.013 136.093, 252.908 137.987, 252.908 137.987, 254.802 136.093, 254.802 136.093, 256.697 134.198, 256.697 134.198, 254.802 132.304, 254.802 132.304, 252.908"/>
</g>
<path d="M145.067,255.605h 7.07951" fill="none" stroke="#ff0000"/>
<path d="M157.83,255.605h 7.07951" fill="none" stroke="#ff0000"/>
<g fill="#ff0000">
<polygon points=" 154.041, 254.658 154.041, 252.763 155.935, 252.763 155.935, 254.658 157.83, 254.658 157.83, 256.552 155.935, 256.552 155.935, 258.447 154.041, 258.447 154.041, 256.552 152.146, 256.552 152.146, 254.658"/>
</g>
<path d="M164.909,258.836h 7.07951" fill="none" stroke="#ff0000"/>
<path d="M177.672,258.836h 7.07951" fill="none" stroke="#ff0000"/>
<g fill="#ff0000">
<polygon points=" 173.883, 257.889 173.883, 255.994 175.778, 255.994 175.778, 257.889 177.672, 257.889 177.672, 259.783 175.778, 259.783 175.778, 261.678 173.883, 261.678 173.883, 259.783 171.989, 259.783 171.989, 257.889"/>
</g>
<path d="M184.752,259.778h 17.0008" fill="none" stroke="#ff0000"/>
<path d="M207.436,259.778h 17.0008" fill="none" stroke="#ff0000"/>
<g fill="#ff0000">
<polygon points=" 203.647, 258.831 203.647, 256.936 205.542, 256.936 205.542, 258.831 207.436, 258.831 207.436, 260.725 205.542, 260.725 205.542, 262.62 203.647, 262.62 203.647, 260.725 201.753, 260.725 201.753, 258.831"/>
</g>
<path d="M254.201,268.683v -0.00455325" fill="none" stroke="#ff0000"/>
<path d="M254.201,262.995v -0.00455325" fill="none" stroke="#ff0000"/>
<path d="M224.437,265.837h 26.922" fill="none" stroke="#ff0000"/>
<path d="M257.043,265.837h 26.922" fill="none" stroke="#ff0000"/>
<g fill="#ff0000">
<polygon points=" 253.254, 264.89 253.254, 262.995 255.148, 262.995 255.148, 264.89 257.043, 264.89 257.043, 266.784 255.148, 266.784 255.148, 268.679 253.254, 268.679 253.254, 266.784 251.359, 266.784 251.359, 264.89"/>
</g>
<path d="M333.571,278.138v -5.17812" fill="none" stroke="#ff0000"/>
<path d="M333.571,267.276v -5.17812" fill="none" stroke="#ff0000"/>
<path d="M283.965,270.118h 46.7645" fill="none" stroke="#ff0000"/>
<path d="M336.413,270.118h 46.7645" fill="none" stroke="#ff0000"/>
<g fill="#ff0000">
<polygon points=" 332.624, 269.171 332.624, 267.276 334.518, 267.276 334.518, 269.171 336.413, 269.171 336.413, 271.065 334.518, 271.065 334.518, 272.96 332.624, 272.96 332.624, 271.065 330.729, 271.065 330.729, 269.171"/>
</g>
<path d="M432.783,312.394v -28.1879" fill="none" stroke="#ff0000"/>
<path d="M432.783,278.522v -28.1879" fill="none" stroke="#ff0000"/>
<path d="M383.177,281.364h 46.7645" fill="none" stroke="#ff0000"/>
<path d="M435.625,281.364h 46.7645" fill="none" stroke="#ff0000"/>
<g fill="#ff0000">
<polygon points=" 431.836, 280.417 431.836, 278.522 433.731, 278.522 433.731, 280.417 435.625, 280.417 435.625, 282.311 433.731, 282.311 433.731, 284.206 431.836, 284.206 431.836, 282.311 429.942, 282.311 429.942, 280.417"/>
</g>
<path d="M85.5394,250.709h 2.11888" fill="none" stroke="#ff0033"/>
<path d="M93.3418,250.709h 2.11888" fill="none" stroke="#ff0033"/>
<g stroke="#ff0033" stroke-width="1" fill="none">
<polygon points=" 89.5527, 249.761 89.5527, 247.867 91.4473, 247.867 91.4473, 249.761 93.3418, 249.761 93.3418, 251.656 91.4473, 251.656 91.4473, 253.55 89.5527, 253.55 89.5527, 251.656 87.6582, 251.656 87.6582, 249.761"/>
</g>
<path d="M95.4606,250.386h 2.11888" fill="none" stroke="#ff0033"/>
<path d="M103.263,250.386h 2.11888" fill="none" stroke="#ff0033"/>
<g stroke="#ff0033" stroke-width="1" fill="none">
<polygon points=" 99.474, 249.439 99.474, 247.544 101.369, 247.544 101.369, 249.439 103.263, 249.439 103.263, 251.333 101.369, 251.333 101.369, 253.228 99.474, 253.228 99.474, 251.333 97.5795, 251.333 97.5795, 249.439"/>
</g>
<path d="M105.382,248.873h 2.11888" fill="none" stroke="#ff0033"/>
<path d="M113.184,248.873h 2.11888" fill="none" stroke="#ff0033"/>
<g stroke="#ff0033" stroke-width="1" fill="none">
<polygon points=" 109.395, 247.925 109.395, 246.031 111.29, 246.031 111.29, 247.925 113.184, 247.925 113.184, 249.82 111.29, 249.82 111.29, 251.714 109.395, 251.714 109.395, 249.82 107.501, 249.82 107.501, 247.925"/>
</g>
<path d="M115.303,248.283h 2.11888" fill="none" stroke="#ff0033"/>
<path d="M123.106,248.283h 2.11888" fill="none" stroke="#ff0033"/>
<g stroke="#ff0033" stroke-width="1" fill="none">
<polygon points=" 119.317, 247.336 119.317, 245.441 121.211, 245.441 121.211, 247.336 123.106, 247.336 123.106, 249.23 121.211, 249.23 121.211, 251.125 119.317, 251.125 119.317, 249.23 117.422, 249.23 117.422, 247.336"/>
</g>
<path d="M125.224,248.245h 7.07951" fill="none" stroke="#ff0033"/>
<path d="M137.987,248.245h 7.07951" fill="none" stroke="#ff0033"/>
<g stroke="#ff0033" stroke-width="1" fill="none">
<polygon points=" 134.198, 247.298 134.198, 245.403 136.093, 245.403 136.093, 247.298 137.987, 247.298 137.987, 249.192 136.093, 249.192 136.093, 251.087 134.198, 251.087 134.198, 249.192 132.304, 249.192 132.304, 247.298"/>
</g>
<path d="M145.067,248.903h 7.07951" fill="none" stroke="#ff0033"/>
<path d="M157.83,248.903h 7.07951" fill="none" stroke="#ff0033"/>
<g stroke="#ff0033" stroke-width="1" fill="none">
<polygon points=" 154.041, 247.955 154.041, 246.061 155.935, 246.061 155.935, 247.955 157.83, 247.955 157.83, 249.85 155.935, 249.85 155.935, 251.744 154.041, 251.744 154.041, 249.85 152.146, 249.85 152.146, 247.955"/>
</g>
<path d="M164.909,249.861h 7.07951" fill="none" stroke="#ff0033"/>
<path d="M177.672,249.861h 7.07951" fill="none" stroke="#ff0033"/>
<g stroke="#ff0033" stroke-width="1" fill="none">
<polygon points=" 173.883, 248.914 173.883, 247.019 175.778, 247.019 175.778, 248.914 177.672, 248.914 177.672, 250.808 175.778, 250.808 175.778, 252.703 173.883, 252.703 173.883, 250.808 171.989, 250.808 171.989, 248.914"/>
</g>
<path d="M184.752,252.393h 17.0008" fill="none" stroke="#ff0033"/>
<path d="M207.436,252.393h 17.0008" fill="none" stroke="#ff0033"/>
<g stroke="#ff0033" stroke-width="1" fill="none">
<polygon points=" 203.647, 251.446 203.647, 249.552 205.542, 249.552 205.542, 251.446 207.436, 251.446 207.436, 253.341 205.542, 253.341 205.542, 255.235 203.647, 255.235 203.647, 253.341 201.753, 253.341 201.753, 251.446"/>
</g>
<path d="M224.437,255.383h 26.922" fill="none" stroke="#ff0033"/>
<path d="M257.043,255.383h 26.922" fill="none" stroke="#ff0033"/>
<g stroke="#ff0033" stroke-width="1" fill="none">
<polygon points=" 253.254, 254.435 253.254, 252.541 255.148, 252.541 255.148, 254.435 257.043, 254.435 257.043, 256.33 255.148, 256.33 255.148, 258.224 253.254, 258.224 253.254, 256.33 251.359, 256.33 251.359, 254.435"/>
</g>
<path d="M333.571,267.751v -3.91449" fill="none" stroke="#ff0033"/>
<path d="M333.571,258.153v -3.91449" fill="none" stroke="#ff0033"/>
<path d="M283.965,260.994h 46.7645" fill="none" stroke="#ff0033"/>
<path d="M336.413,260.994h 46.7645" fill="none" stroke="#ff0033"/>
<g stroke="#ff0033" stroke-width="1" fill="none">
<polygon points=" 332.624, 260.047 332.624, 258.153 334.518, 258.153 334.518, 260.047 336.413, 260.047 336.413, 261.942 334.518, 261.942 334.518, 263.836 332.624, 263.836 332.624, 261.942 330.729, 261.942 330.729, 260.047"/>
</g>
<path d="M432.783,294.479v -24.209" fill="none" stroke="#ff0033"/>
<path d="M432.783,264.586v -24.209" fill="none" stroke="#ff0033"/>
<path d="M383.177,267.428h 46.7645" fill="none" stroke="#ff0033"/>
<path d="M435.625,267.428h 46.7645" fill="none" stroke="#ff0033"/>
<g stroke="#ff0033" stroke-width="1" fill="none">
<polygon points=" 431.836, 266.481 431.836, 264.586 433.731, 264.586 433.731, 266.481 435.625, 266.481 435.625, 268.375 433.731, 268.375 433.731, 270.27 431.836, 270.27 431.836, 268.375 429.942, 268.375 429.942, 266.481"/>
</g>
<path d="M85.5394,246.334h 3.53975" fill="none" stroke="#ff00ff"/>
<path d="M91.9209,246.334h 3.53975" fill="none" stroke="#ff00ff"/>
<g fill="#ff00ff">
<polygon points=" 90.5, 247.755 89.0791, 249.176 87.6582, 247.755 89.0791, 246.334 87.6582, 244.913 89.0791, 243.492 90.5, 244.913 91.9209, 243.492 93.3418, 244.913 91.9209, 246.334 93.3418, 247.755 91.9209, 249.176 90.5, 247.755"/>
</g>
<path d="M95.4606,245.645h 3.53975" fill="none" stroke="#ff00ff"/>
<path d="M101.842,245.645h 3.53975" fill="none" stroke="#ff00ff"/>
<g fill="#ff00ff">
<polygon points=" 100.421, 247.066 99.0004, 248.487 97.5795, 247.066 99.0004, 245.645 97.5795, 244.225 99.0004, 242.804 100.421, 244.225 101.842, 242.804 103.263, 244.225 101.842, 245.645 103.263, 247.066 101.842, 248.487 100.421, 247.066"/>
</g>
<path d="M105.382,243.683h 3.53975" fill="none" stroke="#ff00ff"/>
<path d="M111.763,243.683h 3.53975" fill="none" stroke="#ff00ff"/>
<g fill="#ff00ff">
<polygon points=" 110.343, 245.104 108.922, 246.524 107.501, 245.104 108.922, 243.683 107.501, 242.262 108.922, 240.841 110.343, 242.262 111.763, 240.841 113.184, 242.262 111.763, 243.683 113.184, 245.104 111.763, 246.524 110.343, 245.104"/>
</g>
<path d="M115.303,242.013h 3.53975" fill="none" stroke="#ff00ff"/>
<path d="M121.685,242.013h 3.53975" fill="none" stroke="#ff00ff"/>
<g fill="#ff00ff">
<polygon points=" 120.264, 243.434 118.843, 244.855 117.422, 243.434 118.843, 242.013 117.422, 240.593 118.843, 239.172 120.264, 240.593 121.685, 239.172 123.106, 240.593 121.685, 242.013 123.106, 243.434 121.685, 244.855 120.264, 243.434"/>
</g>
<path d="M125.224,241.015h 8.50039" fill="none" stroke="#ff00ff"/>
<path d="M136.567,241.015h 8.50039" fill="none" stroke="#ff00ff"/>
<g fill="#ff00ff">
<polygon points=" 135.146, 242.436 133.725, 243.857 132.304, 242.436 133.725, 241.015 132.304, 239.594 133.725, 238.173 135.146, 239.594 136.567, 238.173 137.987, 239.594 136.567, 241.015 137.987, 242.436 136.567, 243.857 135.146, 242.436"/>
</g>
<path d="M145.067,240.046h 8.50039" fill="none" stroke="#ff00ff"/>
<path d="M156.409,240.046h 8.50039" fill="none" stroke="#ff00ff"/>
<g fill="#ff00ff">
<polygon points=" 154.988, 241.467 153.567, 242.888 152.146, 241.467 153.567, 240.046 152.146, 238.625 153.567, 237.204 154.988, 238.625 156.409, 237.204 157.83, 238.625 156.409, 240.046 157.83, 241.467 156.409, 242.888 154.988, 241.467"/>
</g>
<path d="M164.909,239.673h 8.50039" fill="none" stroke="#ff00ff"/>
<path d="M176.252,239.673h 8.50039" fill="none" stroke="#ff00ff"/>
<g fill="#ff00ff">
<polygon points=" 174.831, 241.093 173.41, 242.514 171.989, 241.093 173.41, 239.673 171.989, 238.252 173.41, 236.831 174.831, 238.252 176.252, 236.831 177.672, 238.252 176.252, 239.673 177.672, 241.093 176.252, 242.514 174.831, 241.093"/>
</g>
<path d="M184.752,236.066h 18.4216" fill="none" stroke="#ff00ff"/>
<path d="M206.015,236.066h 18.4216" fill="none" stroke="#ff00ff"/>
<g fill="#ff00ff">
<polygon points=" 204.594, 237.487 203.174, 238.908 201.753, 237.487 203.174, 236.066 201.753, 234.645 203.174, 233.224 204.594, 234.645 206.015, 233.224 207.436, 234.645 206.015, 236.066 207.436, 237.487 206.015, 238.908 204.594, 237.487"/>
</g>
<path d="M254.201,238.552v -1.55185" fill="none" stroke="#ff00ff"/>
<path d="M254.201,234.158v -1.55185" fill="none" stroke="#ff00ff"/>
<path d="M224.437,235.579h 28.3429" fill="none" stroke="#ff00ff"/>
<path d="M255.622,235.579h 28.3429" fill="none" stroke="#ff00ff"/>
<g fill="#ff00ff">
<polygon points=" 254.201, 237 252.78, 238.421 251.359, 237 252.78, 235.579 251.359, 234.158 252.78, 232.738 254.201, 234.158 255.622, 232.738 257.043, 234.158 255.622, 235.579 257.043, 237 255.622, 238.421 254.201, 237"/>
</g>
<path d="M333.571,238.033v -7.43528" fill="none" stroke="#ff00ff"/>
<path d="M333.571,227.756v -7.43528" fill="none" stroke="#ff00ff"/>
<path d="M283.965,229.177h 48.1854" fill="none" stroke="#ff00ff"/>
<path d="M334.992,229.177h 48.1854" fill="none" stroke="#ff00ff"/>
<g fill="#ff00ff">
<polygon points=" 333.571, 230.598 332.15, 232.019 330.729, 230.598 332.15, 229.177 330.729, 227.756 332.15, 226.335 333.571, 227.756 334.992, 226.335 336.413, 227.756 334.992, 229.177 336.413, 230.598 334.992, 232.019 333.571, 230.598"/>
</g>
<path d="M432.783,247.058v -39.2133" fill="none" stroke="#ff00ff"/>
<path d="M432.783,205.003v -39.2133" fill="none" stroke="#ff00ff"/>
<path d="M383.177,206.424h 48.1854" fill="none" stroke="#ff00ff"/>
<path d="M434.204,206.424h 48.1854" fill="none" stroke="#ff00ff"/>
<g fill="#ff00ff">
<polygon points=" 432.783, 207.844 431.363, 209.265 429.942, 207.844 431.363, 206.424 429.942, 205.003 431.363, 203.582 432.783, 205.003 434.204, 203.582 435.625, 205.003 434.204, 206.424 435.625, 207.844 434.204, 209.265 432.783, 207.844"/>
</g>
<path d="M85.5394,237.502h 2.11888" fill="none" stroke="#cc00ff"/>
<path d="M93.3418,237.502h 2.11888" fill="none" stroke="#cc00ff"/>
<g stroke="#cc00ff" stroke-width="1" fill="none">
<polygon points=" 89.5527, 236.554 89.5527, 234.66 91.4473, 234.66 91.4473, 236.554 93.3418, 236.554 93.3418, 238.449 91.4473, 238.449 91.4473, 240.343 89.5527, 240.343 89.5527, 238.449 87.6582, 238.449 87.6582, 236.554"/>
</g>
<path d="M95.4606,237.17h 2.11888" fill="none" stroke="#cc00ff"/>
<path d="M103.263,237.17h 2.11888" fill="none" stroke="#cc00ff"/>
<g stroke="#cc00ff" stroke-width="1" fill="none">
<polygon points=" 99.474, 236.222 99.474, 234.328 101.369, 234.328 101.369, 236.222 103.263, 236.222 103.263, 238.117 101.369, 238.117 101.369, 240.011 99.474, 240.011 99.474, 238.117 97.5795, 238.117 97.5795, 236.222"/>
</g>
<path d="M105.382,237.25h 2.11888" fill="none" stroke="#cc00ff"/>
<path d="M113.184,237.25h 2.11888" fill="none" stroke="#cc00ff"/>
<g stroke="#cc00ff" stroke-width="1" fill="none">
<polygon points=" 109.395, 236.302 109.395, 234.408 111.29, 234.408 111.29, 236.302 113.184, 236.302 113.184, 238.197 111.29, 238.197 111.29, 240.091 109.395, 240.091 109.395, 238.197 107.501, 238.197 107.501, 236.302"/>
</g>
<path d="M115.303,235.939h 2.11888" fill="none" stroke="#cc00ff"/>
<path d="M123.106,235.939h 2.11888" fill="none" stroke="#cc00ff"/>
<g stroke="#cc00ff" stroke-width="1" fill="none">
<polygon points=" 119.317, 234.991 119.317, 233.097 121.211, 233.097 121.211, 234.991 123.106, 234.991 123.106, 236.886 121.211, 236.886 121.211, 238.78 119.317, 238.78 119.317, 236.886 117.422, 236.886 117.422, 234.991"/>
</g>
<path d="M125.224,234.445h 7.07951" fill="none" stroke="#cc00ff"/>
<path d="M137.987,234.445h 7.07951" fill="none" stroke="#cc00ff"/>
<g stroke="#cc00ff" stroke-width="1" fill="none">
<polygon points=" 134.198, 233.498 134.198, 231.604 136.093, 231.604 136.093, 233.498 137.987, 233.498 137.987, 235.393 136.093, 235.393 136.093, 237.287 134.198, 237.287 134.198, 235.393 132.304, 235.393 132.304, 233.498"/>
</g>
<path d="M145.067,232.037h 7.07951" fill="none" stroke="#cc00ff"/>
<path d="M157.83,232.037h 7.07951" fill="none" stroke="#cc00ff"/>
<g stroke="#cc00ff" stroke-width="1" fill="none">
<polygon points=" 154.041, 231.09 154.041, 229.195 155.935, 229.195 155.935, 231.09 157.83, 231.09 157.83, 232.984 155.935, 232.984 155.935, 234.879 154.041, 234.879 154.041, 232.984 152.146, 232.984 152.146, 231.09"/>
</g>
<path d="M164.909,227.38h 7.07951" fill="none" stroke="#cc00ff"/>
<path d="M177.672,227.38h 7.07951" fill="none" stroke="#cc00ff"/>
<g stroke="#cc00ff" stroke-width="1" fill="none">
<polygon points=" 173.883, 226.433 173.883, 224.538 175.778, 224.538 175.778, 226.433 177.672, 226.433 177.672, 228.327 175.778, 228.327 175.778, 230.222 173.883, 230.222 173.883, 228.327 171.989, 228.327 171.989, 226.433"/>
</g>
<path d="M184.752,225.96h 17.0008" fill="none" stroke="#cc00ff"/>
<path d="M207.436,225.96h 17.0008" fill="none" stroke="#cc00ff"/>
<g stroke="#cc00ff" stroke-width="1" fill="none">
<polygon points=" 203.647, 225.012 203.647, 223.118 205.542, 223.118 205.542, 225.012 207.436, 225.012 207.436, 226.907 205.542, 226.907 205.542, 228.801 203.647, 228.801 203.647, 226.907 201.753, 226.907 201.753, 225.012"/>
</g>
<path d="M254.201,219.145v -0.960763" fill="none" stroke="#cc00ff"/>
<path d="M254.201,212.5v -0.960763" fill="none" stroke="#cc00ff"/>
<path d="M224.437,215.342h 26.922" fill="none" stroke="#cc00ff"/>
<path d="M257.043,215.342h 26.922" fill="none" stroke="#cc00ff"/>
<g stroke="#cc00ff" stroke-width="1" fill="none">
<polygon points=" 253.254, 214.395 253.254, 212.5 255.148, 212.5 255.148, 214.395 257.043, 214.395 257.043, 216.289 255.148, 216.289 255.148, 218.184 253.254, 218.184 253.254, 216.289 251.359, 216.289 251.359, 214.395"/>
</g>
<path d="M333.571,227.45v -8.10305" fill="none" stroke="#cc00ff"/>
<path d="M333.571,213.663v -8.10305" fill="none" stroke="#cc00ff"/>
<path d="M283.965,216.505h 46.7645" fill="none" stroke="#cc00ff"/>
<path d="M336.413,216.505h 46.7645" fill="none" stroke="#cc00ff"/>
<g stroke="#cc00ff" stroke-width="1" fill="none">
<polygon points=" 332.624, 215.558 332.624, 213.663 334.518, 213.663 334.518, 215.558 336.413, 215.558 336.413, 217.452 334.518, 217.452 334.518, 219.347 332.624, 219.347 332.624, 217.452 330.729, 217.452 330.729, 215.558"/>
</g>
<path d="M432.783,236.806v -48.2098" fill="none" stroke="#cc00ff"/>
<path d="M432.783,182.912v -48.2098" fill="none" stroke="#cc00ff"/>
<path d="M383.177,185.754h 46.7645" fill="none" stroke="#cc00ff"/>
<path d="M435.625,185.754h 46.7645" fill="none" stroke="#cc00ff"/>
<g stroke="#cc00ff" stroke-width="1" fill="none">
<polygon points=" 431.836, 184.807 431.836, 182.912 433.731, 182.912 433.731, 184.807 435.625, 184.807 435.625, 186.701 433.731, 186.701 433.731, 188.596 431.836, 188.596 431.836, 186.701 429.942, 186.701 429.942, 184.807"/>
</g>
<text xml:space="preserve" x="232.813" y="51.1515" fill="black" font-size="11.7432" font-family="Helvetica">PYTHIA8, pAu200GeV with option3</text>
<text xml:space="preserve" x="266.914" y="65.3603" fill="black" font-size="11.7432" font-family="Helvetica">|&lt;1</text>
<text xml:space="preserve" x="260.52" y="65.3603" fill="black" font-size="11.7432" font-family="Times">&#0951;</text>
<text xml:space="preserve" x="243.47" y="65.3603" fill="black" font-size="11.7432" font-family="Helvetica"> in |</text>
<text xml:space="preserve" x="239.207" y="61.0976" fill="black" font-size="7.99544" font-family="Helvetica">0</text>
<text xml:space="preserve" x="232.813" y="65.3603" fill="black" font-size="11.7432" font-family="Times">&#0960;</text>
<text xml:space="preserve" x="283.965" y="80.2794" fill="black" font-size="11.7432" font-family="Helvetica">centrality: 0~10%</text>
<g fill="#ffcc00">
<polygon points=" 254.671, 76.3763 254.671, 74.4818 256.565, 74.4818 256.565, 76.3763 258.46, 76.3763 258.46, 78.2708 256.565, 78.2708 256.565, 80.1653 254.671, 80.1653 254.671, 78.2708 252.776, 78.2708 252.776, 76.3763"/>
</g>
<text xml:space="preserve" x="283.965" y="94.4882" fill="black" font-size="11.7432" font-family="Helvetica">centrality: 10~20%</text>
<g fill="#ff0000">
<polygon points=" 254.671, 90.9656 254.671, 89.0711 256.565, 89.0711 256.565, 90.9656 258.46, 90.9656 258.46, 92.8601 256.565, 92.8601 256.565, 94.7546 254.671, 94.7546 254.671, 92.8601 252.776, 92.8601 252.776, 90.9656"/>
</g>
<text xml:space="preserve" x="283.965" y="109.407" fill="black" font-size="11.7432" font-family="Helvetica">centrality: 20~40%</text>
<g stroke="#ff0033" stroke-width="1" fill="none">
<polygon points=" 254.671, 105.555 254.671, 103.66 256.565, 103.66 256.565, 105.555 258.46, 105.555 258.46, 107.449 256.565, 107.449 256.565, 109.344 254.671, 109.344 254.671, 107.449 252.776, 107.449 252.776, 105.555"/>
</g>
<text xml:space="preserve" x="283.965" y="124.327" fill="black" font-size="11.7432" font-family="Helvetica">centrality: 40~60%</text>
<g fill="#ff00ff">
<polygon points=" 255.618, 122.512 254.197, 123.933 252.776, 122.512 254.197, 121.092 252.776, 119.671 254.197, 118.25 255.618, 119.671 257.039, 118.25 258.46, 119.671 257.039, 121.092 258.46, 122.512 257.039, 123.933 255.618, 122.512"/>
</g>
<text xml:space="preserve" x="283.965" y="138.535" fill="black" font-size="11.7432" font-family="Helvetica">centrality: 60~80%</text>
<g stroke="#cc00ff" stroke-width="1" fill="none">
<polygon points=" 254.671, 134.734 254.671, 132.839 256.565, 132.839 256.565, 134.734 258.46, 134.734 258.46, 136.628 256.565, 136.628 256.565, 138.523 254.671, 138.523 254.671, 136.628 252.776, 136.628 252.776, 134.734"/>
</g></svg>
