<?xml version="1.0" standalone="no"?>
<svg width="567.429" height="409.002" viewBox="0 0 567.429 409.002" xmlns="http://www.w3.org/2000/svg" shape-rendering="crispEdges">
<title>
/Users/jinhyunpark/npl/gitHub/git_share/Centrality_dependent_BiasCorrection/plots/plots_scaled-dNdpT/ratio_scaledYield_highpT_pion0_cent2mb.svg
</title>
<desc>
Creator: ROOT Version 6.28/04
CreationDate: Tue Sep 26 01:08:56 2023</desc>
<defs>
</defs>
<rect x="0.5" y="0" width="566.929" height="408.502" fill="white"/>
<rect x="85.5394" y="20.4251" width="396.85" height="339.056" fill="white"/>
<rect x="85.5394" y="20.4251" width="396.85" height="339.056" fill="none" stroke="black"/>
<rect x="85.5394" y="20.4251" width="396.85" height="339.056" fill="white"/>
<rect x="85.5394" y="20.4251" width="396.85" height="339.056" fill="none" stroke="black"/>
<path d="M85.5394,359.481h 396.85" fill="none" stroke="black"/>
<path d="M85.5394,350.903v 8.57853" fill="none" stroke="black"/>
<path d="M96.563,355.192v 4.28927" fill="none" stroke="black"/>
<path d="M107.587,355.192v 4.28927" fill="none" stroke="black"/>
<path d="M118.61,355.192v 4.28927" fill="none" stroke="black"/>
<path d="M129.634,350.903v 8.57853" fill="none" stroke="black"/>
<path d="M140.657,355.192v 4.28927" fill="none" stroke="black"/>
<path d="M151.681,355.192v 4.28927" fill="none" stroke="black"/>
<path d="M162.705,355.192v 4.28927" fill="none" stroke="black"/>
<path d="M173.728,350.903v 8.57853" fill="none" stroke="black"/>
<path d="M184.752,355.192v 4.28927" fill="none" stroke="black"/>
<path d="M195.776,355.192v 4.28927" fill="none" stroke="black"/>
<path d="M206.799,355.192v 4.28927" fill="none" stroke="black"/>
<path d="M217.823,350.903v 8.57853" fill="none" stroke="black"/>
<path d="M228.846,355.192v 4.28927" fill="none" stroke="black"/>
<path d="M239.87,355.192v 4.28927" fill="none" stroke="black"/>
<path d="M250.894,355.192v 4.28927" fill="none" stroke="black"/>
<path d="M261.917,350.903v 8.57853" fill="none" stroke="black"/>
<path d="M272.941,355.192v 4.28927" fill="none" stroke="black"/>
<path d="M283.965,355.192v 4.28927" fill="none" stroke="black"/>
<path d="M294.988,355.192v 4.28927" fill="none" stroke="black"/>
<path d="M306.012,350.903v 8.57853" fill="none" stroke="black"/>
<path d="M317.035,355.192v 4.28927" fill="none" stroke="black"/>
<path d="M328.059,355.192v 4.28927" fill="none" stroke="black"/>
<path d="M339.083,355.192v 4.28927" fill="none" stroke="black"/>
<path d="M350.106,350.903v 8.57853" fill="none" stroke="black"/>
<path d="M361.13,355.192v 4.28927" fill="none" stroke="black"/>
<path d="M372.154,355.192v 4.28927" fill="none" stroke="black"/>
<path d="M383.177,355.192v 4.28927" fill="none" stroke="black"/>
<path d="M394.201,350.903v 8.57853" fill="none" stroke="black"/>
<path d="M405.224,355.192v 4.28927" fill="none" stroke="black"/>
<path d="M416.248,355.192v 4.28927" fill="none" stroke="black"/>
<path d="M427.272,355.192v 4.28927" fill="none" stroke="black"/>
<path d="M438.295,350.903v 8.57853" fill="none" stroke="black"/>
<path d="M449.319,355.192v 4.28927" fill="none" stroke="black"/>
<path d="M460.343,355.192v 4.28927" fill="none" stroke="black"/>
<path d="M471.366,355.192v 4.28927" fill="none" stroke="black"/>
<path d="M482.39,350.903v 8.57853" fill="none" stroke="black"/>
<text xml:space="preserve" x="81.4899" y="372.269" fill="black" font-size="13.617" font-family="Helvetica">2</text>
<text xml:space="preserve" x="125.537" y="372.269" fill="black" font-size="13.617" font-family="Helvetica">4</text>
<text xml:space="preserve" x="169.584" y="372.269" fill="black" font-size="13.617" font-family="Helvetica">6</text>
<text xml:space="preserve" x="213.631" y="372.269" fill="black" font-size="13.617" font-family="Helvetica">8</text>
<text xml:space="preserve" x="253.416" y="372.269" fill="black" font-size="13.617" font-family="Helvetica">10</text>
<text xml:space="preserve" x="298.173" y="372.269" fill="black" font-size="13.617" font-family="Helvetica">12</text>
<text xml:space="preserve" x="342.22" y="372.269" fill="black" font-size="13.617" font-family="Helvetica">14</text>
<text xml:space="preserve" x="386.268" y="372.269" fill="black" font-size="13.617" font-family="Helvetica">16</text>
<text xml:space="preserve" x="430.315" y="372.269" fill="black" font-size="13.617" font-family="Helvetica">18</text>
<text xml:space="preserve" x="474.362" y="372.269" fill="black" font-size="13.617" font-family="Helvetica">20</text>
<text xml:space="preserve" x="436.709" y="384.347" fill="black" font-size="13.617" font-family="Helvetica">(GeV/c)</text>
<text xml:space="preserve" x="431.025" y="392.162" fill="black" font-size="9.24468" font-family="Helvetica">T</text>
<text xml:space="preserve" x="423.21" y="384.347" fill="black" font-size="13.617" font-family="Helvetica">p</text>
<path d="M85.5394,20.4251h 396.85" fill="none" stroke="black"/>
<path d="M85.5394,29.0036v -8.57853" fill="none" stroke="black"/>
<path d="M96.563,24.7143v -4.28927" fill="none" stroke="black"/>
<path d="M107.587,24.7143v -4.28927" fill="none" stroke="black"/>
<path d="M118.61,24.7143v -4.28927" fill="none" stroke="black"/>
<path d="M129.634,29.0036v -8.57853" fill="none" stroke="black"/>
<path d="M140.657,24.7143v -4.28927" fill="none" stroke="black"/>
<path d="M151.681,24.7143v -4.28927" fill="none" stroke="black"/>
<path d="M162.705,24.7143v -4.28927" fill="none" stroke="black"/>
<path d="M173.728,29.0036v -8.57853" fill="none" stroke="black"/>
<path d="M184.752,24.7143v -4.28927" fill="none" stroke="black"/>
<path d="M195.776,24.7143v -4.28927" fill="none" stroke="black"/>
<path d="M206.799,24.7143v -4.28927" fill="none" stroke="black"/>
<path d="M217.823,29.0036v -8.57853" fill="none" stroke="black"/>
<path d="M228.846,24.7143v -4.28927" fill="none" stroke="black"/>
<path d="M239.87,24.7143v -4.28927" fill="none" stroke="black"/>
<path d="M250.894,24.7143v -4.28927" fill="none" stroke="black"/>
<path d="M261.917,29.0036v -8.57853" fill="none" stroke="black"/>
<path d="M272.941,24.7143v -4.28927" fill="none" stroke="black"/>
<path d="M283.965,24.7143v -4.28927" fill="none" stroke="black"/>
<path d="M294.988,24.7143v -4.28927" fill="none" stroke="black"/>
<path d="M306.012,29.0036v -8.57853" fill="none" stroke="black"/>
<path d="M317.035,24.7143v -4.28927" fill="none" stroke="black"/>
<path d="M328.059,24.7143v -4.28927" fill="none" stroke="black"/>
<path d="M339.083,24.7143v -4.28927" fill="none" stroke="black"/>
<path d="M350.106,29.0036v -8.57853" fill="none" stroke="black"/>
<path d="M361.13,24.7143v -4.28927" fill="none" stroke="black"/>
<path d="M372.154,24.7143v -4.28927" fill="none" stroke="black"/>
<path d="M383.177,24.7143v -4.28927" fill="none" stroke="black"/>
<path d="M394.201,29.0036v -8.57853" fill="none" stroke="black"/>
<path d="M405.224,24.7143v -4.28927" fill="none" stroke="black"/>
<path d="M416.248,24.7143v -4.28927" fill="none" stroke="black"/>
<path d="M427.272,24.7143v -4.28927" fill="none" stroke="black"/>
<path d="M438.295,29.0036v -8.57853" fill="none" stroke="black"/>
<path d="M449.319,24.7143v -4.28927" fill="none" stroke="black"/>
<path d="M460.343,24.7143v -4.28927" fill="none" stroke="black"/>
<path d="M471.366,24.7143v -4.28927" fill="none" stroke="black"/>
<path d="M482.39,29.0036v -8.57853" fill="none" stroke="black"/>
<path d="M85.5394,359.481v -339.056" fill="none" stroke="black"/>
<path d="M99.6559,359.481h -14.1165" fill="none" stroke="black"/>
<path d="M92.5976,345.919h -7.05827" fill="none" stroke="black"/>
<path d="M92.5976,332.357h -7.05827" fill="none" stroke="black"/>
<path d="M92.5976,318.795h -7.05827" fill="none" stroke="black"/>
<path d="M92.5976,305.232h -7.05827" fill="none" stroke="black"/>
<path d="M99.6559,291.67h -14.1165" fill="none" stroke="black"/>
<path d="M92.5976,278.108h -7.05827" fill="none" stroke="black"/>
<path d="M92.5976,264.546h -7.05827" fill="none" stroke="black"/>
<path d="M92.5976,250.983h -7.05827" fill="none" stroke="black"/>
<path d="M92.5976,237.421h -7.05827" fill="none" stroke="black"/>
<path d="M99.6559,223.859h -14.1165" fill="none" stroke="black"/>
<path d="M92.5976,210.297h -7.05827" fill="none" stroke="black"/>
<path d="M92.5976,196.734h -7.05827" fill="none" stroke="black"/>
<path d="M92.5976,183.172h -7.05827" fill="none" stroke="black"/>
<path d="M92.5976,169.61h -7.05827" fill="none" stroke="black"/>
<path d="M99.6559,156.048h -14.1165" fill="none" stroke="black"/>
<path d="M92.5976,142.485h -7.05827" fill="none" stroke="black"/>
<path d="M92.5976,128.923h -7.05827" fill="none" stroke="black"/>
<path d="M92.5976,115.361h -7.05827" fill="none" stroke="black"/>
<path d="M92.5976,101.799h -7.05827" fill="none" stroke="black"/>
<path d="M99.6559,88.2363h -14.1165" fill="none" stroke="black"/>
<path d="M92.5976,74.6741h -7.05827" fill="none" stroke="black"/>
<path d="M92.5976,61.1118h -7.05827" fill="none" stroke="black"/>
<path d="M92.5976,47.5496h -7.05827" fill="none" stroke="black"/>
<path d="M92.5976,33.9873h -7.05827" fill="none" stroke="black"/>
<path d="M99.6559,20.4251h -14.1165" fill="none" stroke="black"/>
<text xml:space="preserve" x="75.0959" y="364.454" fill="black" font-size="13.617" font-family="Helvetica">0</text>
<text xml:space="preserve" x="63.7289" y="296.252" fill="black" font-size="13.617" font-family="Helvetica">0.5</text>
<text xml:space="preserve" x="77.2272" y="229.471" fill="black" font-size="13.617" font-family="Helvetica">1</text>
<text xml:space="preserve" x="63.7289" y="160.559" fill="black" font-size="13.617" font-family="Helvetica">1.5</text>
<text xml:space="preserve" x="75.0959" y="93.7778" fill="black" font-size="13.617" font-family="Helvetica">2</text>
<text xml:space="preserve" x="63.7289" y="24.8653" fill="black" font-size="13.617" font-family="Helvetica">2.5</text>
<g transform="rotate(-90,49.5202,24.1549)">
<text xml:space="preserve" x="49.5202" y="24.1549" fill="black" font-size="13.617" font-family="Helvetica"> </text>
</g>
<g transform="rotate(-90,57.335,37.6532)">
<text xml:space="preserve" x="57.335" y="37.6532" fill="black" font-size="9.24468" font-family="Helvetica">MB</text>
</g>
<g transform="rotate(-90,49.5202,41.2054)">
<text xml:space="preserve" x="49.5202" y="41.2054" fill="black" font-size="13.617" font-family="Helvetica">)</text>
</g>
<g transform="rotate(-90,65.1498,49.0202)">
<text xml:space="preserve" x="65.1498" y="49.0202" fill="black" font-size="9.24468" font-family="Helvetica">T</text>
</g>
<g transform="rotate(-90,57.335,63.9394)">
<text xml:space="preserve" x="57.335" y="63.9394" fill="black" font-size="13.617" font-family="Helvetica">dp</text>
</g>
<g transform="rotate(-90,33.1801,44.7576)">
<text xml:space="preserve" x="33.1801" y="44.7576" fill="black" font-size="6.32979" font-family="Helvetica">0</text>
</g>
<g transform="rotate(-90,36.7323,49.7306)">
<text xml:space="preserve" x="36.7323" y="49.7306" fill="black" font-size="9.24468" font-family="Times">&#0960;</text>
</g>
<g transform="rotate(-90,43.1263,66.0707)">
<text xml:space="preserve" x="43.1263" y="66.0707" fill="black" font-size="13.617" font-family="Helvetica">dN</text>
</g>
<path d="M45.968,66.0707v -24.8653" fill="none" stroke="black" stroke-width="2"/>
<g transform="rotate(-90,49.5202,70.3333)">
<text xml:space="preserve" x="49.5202" y="70.3333" fill="black" font-size="13.617" font-family="Helvetica"> </text>
</g>
<g transform="rotate(-90,61.5976,93.0673)">
<text xml:space="preserve" x="61.5976" y="93.0673" fill="black" font-size="9.24468" font-family="Helvetica">event</text>
</g>
<g transform="rotate(-90,57.335,102.303)">
<text xml:space="preserve" x="57.335" y="102.303" fill="black" font-size="13.617" font-family="Helvetica">N</text>
</g>
<g transform="rotate(-90,43.8367,88.8047)">
<text xml:space="preserve" x="43.8367" y="88.8047" fill="black" font-size="13.617" font-family="Helvetica">1</text>
</g>
<path d="M45.968,102.303v -31.9697" fill="none" stroke="black" stroke-width="2"/>
<g transform="rotate(-90,49.5202,106.566)">
<text xml:space="preserve" x="49.5202" y="106.566" fill="black" font-size="13.617" font-family="Helvetica"> </text>
</g>
<g transform="rotate(-90,58.0454,110.828)">
<text xml:space="preserve" x="58.0454" y="110.828" fill="black" font-size="13.617" font-family="Times">&#0062;</text>
</g>
<g transform="rotate(-90,64.4394,124.327)">
<text xml:space="preserve" x="64.4394" y="124.327" fill="black" font-size="9.24468" font-family="Helvetica">coll</text>
</g>
<g transform="rotate(-90,58.0454,133.562)">
<text xml:space="preserve" x="58.0454" y="133.562" fill="black" font-size="13.617" font-family="Helvetica">N</text>
</g>
<g transform="rotate(-90,58.0454,137.825)">
<text xml:space="preserve" x="58.0454" y="137.825" fill="black" font-size="13.617" font-family="Times">&#0060;</text>
</g>
<g transform="rotate(-90,43.8367,124.327)">
<text xml:space="preserve" x="43.8367" y="124.327" fill="black" font-size="13.617" font-family="Helvetica">1</text>
</g>
<path d="M45.968,137.825v -31.2593" fill="none" stroke="black" stroke-width="2"/>
<g transform="rotate(-90,49.5202,153.455)">
<text xml:space="preserve" x="49.5202" y="153.455" fill="black" font-size="13.617" font-family="Helvetica"> / (</text>
</g>
<g transform="rotate(-90,56.6246,171.215)">
<text xml:space="preserve" x="56.6246" y="171.215" fill="black" font-size="9.24468" font-family="Helvetica">cent</text>
</g>
<g transform="rotate(-90,49.5202,174.768)">
<text xml:space="preserve" x="49.5202" y="174.768" fill="black" font-size="13.617" font-family="Helvetica">)</text>
</g>
<g transform="rotate(-90,65.1498,182.582)">
<text xml:space="preserve" x="65.1498" y="182.582" fill="black" font-size="9.24468" font-family="Helvetica">T</text>
</g>
<g transform="rotate(-90,57.335,197.502)">
<text xml:space="preserve" x="57.335" y="197.502" fill="black" font-size="13.617" font-family="Helvetica">dp</text>
</g>
<g transform="rotate(-90,33.1801,178.32)">
<text xml:space="preserve" x="33.1801" y="178.32" fill="black" font-size="6.32979" font-family="Helvetica">0</text>
</g>
<g transform="rotate(-90,36.7323,183.293)">
<text xml:space="preserve" x="36.7323" y="183.293" fill="black" font-size="9.24468" font-family="Times">&#0960;</text>
</g>
<g transform="rotate(-90,43.1263,199.633)">
<text xml:space="preserve" x="43.1263" y="199.633" fill="black" font-size="13.617" font-family="Helvetica">dN</text>
</g>
<path d="M45.968,199.633v -24.8653" fill="none" stroke="black" stroke-width="2"/>
<g transform="rotate(-90,49.5202,203.896)">
<text xml:space="preserve" x="49.5202" y="203.896" fill="black" font-size="13.617" font-family="Helvetica"> </text>
</g>
<g transform="rotate(-90,61.5976,226.63)">
<text xml:space="preserve" x="61.5976" y="226.63" fill="black" font-size="9.24468" font-family="Helvetica">event</text>
</g>
<g transform="rotate(-90,57.335,235.865)">
<text xml:space="preserve" x="57.335" y="235.865" fill="black" font-size="13.617" font-family="Helvetica">N</text>
</g>
<g transform="rotate(-90,43.8367,222.367)">
<text xml:space="preserve" x="43.8367" y="222.367" fill="black" font-size="13.617" font-family="Helvetica">1</text>
</g>
<path d="M45.968,235.865v -31.9697" fill="none" stroke="black" stroke-width="2"/>
<g transform="rotate(-90,49.5202,240.128)">
<text xml:space="preserve" x="49.5202" y="240.128" fill="black" font-size="13.617" font-family="Helvetica"> </text>
</g>
<g transform="rotate(-90,58.0454,244.391)">
<text xml:space="preserve" x="58.0454" y="244.391" fill="black" font-size="13.617" font-family="Times">&#0062;</text>
</g>
<g transform="rotate(-90,64.4394,257.889)">
<text xml:space="preserve" x="64.4394" y="257.889" fill="black" font-size="9.24468" font-family="Helvetica">coll</text>
</g>
<g transform="rotate(-90,58.0454,267.125)">
<text xml:space="preserve" x="58.0454" y="267.125" fill="black" font-size="13.617" font-family="Helvetica">N</text>
</g>
<g transform="rotate(-90,58.0454,271.387)">
<text xml:space="preserve" x="58.0454" y="271.387" fill="black" font-size="13.617" font-family="Times">&#0060;</text>
</g>
<g transform="rotate(-90,43.8367,257.889)">
<text xml:space="preserve" x="43.8367" y="257.889" fill="black" font-size="13.617" font-family="Helvetica">1</text>
</g>
<path d="M45.968,271.387v -31.2593" fill="none" stroke="black" stroke-width="2"/>
<g transform="rotate(-90,49.5202,275.65)">
<text xml:space="preserve" x="49.5202" y="275.65" fill="black" font-size="13.617" font-family="Helvetica">(</text>
</g>
<path d="M482.39,359.481v -339.056" fill="none" stroke="black"/>
<path d="M468.273,359.481h 14.1165" fill="none" stroke="black"/>
<path d="M475.332,345.919h 7.05827" fill="none" stroke="black"/>
<path d="M475.332,332.357h 7.05827" fill="none" stroke="black"/>
<path d="M475.332,318.795h 7.05827" fill="none" stroke="black"/>
<path d="M475.332,305.232h 7.05827" fill="none" stroke="black"/>
<path d="M468.273,291.67h 14.1165" fill="none" stroke="black"/>
<path d="M475.332,278.108h 7.05827" fill="none" stroke="black"/>
<path d="M475.332,264.546h 7.05827" fill="none" stroke="black"/>
<path d="M475.332,250.983h 7.05827" fill="none" stroke="black"/>
<path d="M475.332,237.421h 7.05827" fill="none" stroke="black"/>
<path d="M468.273,223.859h 14.1165" fill="none" stroke="black"/>
<path d="M475.332,210.297h 7.05827" fill="none" stroke="black"/>
<path d="M475.332,196.734h 7.05827" fill="none" stroke="black"/>
<path d="M475.332,183.172h 7.05827" fill="none" stroke="black"/>
<path d="M475.332,169.61h 7.05827" fill="none" stroke="black"/>
<path d="M468.273,156.048h 14.1165" fill="none" stroke="black"/>
<path d="M475.332,142.485h 7.05827" fill="none" stroke="black"/>
<path d="M475.332,128.923h 7.05827" fill="none" stroke="black"/>
<path d="M475.332,115.361h 7.05827" fill="none" stroke="black"/>
<path d="M475.332,101.799h 7.05827" fill="none" stroke="black"/>
<path d="M468.273,88.2363h 14.1165" fill="none" stroke="black"/>
<path d="M475.332,74.6741h 7.05827" fill="none" stroke="black"/>
<path d="M475.332,61.1118h 7.05827" fill="none" stroke="black"/>
<path d="M475.332,47.5496h 7.05827" fill="none" stroke="black"/>
<path d="M475.332,33.9873h 7.05827" fill="none" stroke="black"/>
<path d="M468.273,20.4251h 14.1165" fill="none" stroke="black"/>
<path d="M85.5394,240.192h 8.18187" fill="none" stroke="#ffcc00"/>
<path d="M99.4047,240.192h 8.18187" fill="none" stroke="#ffcc00"/>
<g fill="#ffcc00">
<polygon points=" 95.6157, 239.245 95.6157, 237.351 97.5102, 237.351 97.5102, 239.245 99.4047, 239.245 99.4047, 241.14 97.5102, 241.14 97.5102, 243.034 95.6157, 243.034 95.6157, 241.14 93.7212, 241.14 93.7212, 239.245"/>
</g>
<path d="M107.587,244.019h 8.18187" fill="none" stroke="#ffcc00"/>
<path d="M121.452,244.019h 8.18187" fill="none" stroke="#ffcc00"/>
<g fill="#ffcc00">
<polygon points=" 117.663, 243.072 117.663, 241.177 119.557, 241.177 119.557, 243.072 121.452, 243.072 121.452, 244.966 119.557, 244.966 119.557, 246.861 117.663, 246.861 117.663, 244.966 115.768, 244.966 115.768, 243.072"/>
</g>
<path d="M129.634,247.935h 8.18187" fill="none" stroke="#ffcc00"/>
<path d="M143.499,247.935h 8.18187" fill="none" stroke="#ffcc00"/>
<g fill="#ffcc00">
<polygon points=" 139.71, 246.987 139.71, 245.093 141.605, 245.093 141.605, 246.987 143.499, 246.987 143.499, 248.882 141.605, 248.882 141.605, 250.776 139.71, 250.776 139.71, 248.882 137.816, 248.882 137.816, 246.987"/>
</g>
<path d="M151.681,254.956h 19.2055" fill="none" stroke="#ffcc00"/>
<path d="M176.57,254.956h 19.2055" fill="none" stroke="#ffcc00"/>
<g fill="#ffcc00">
<polygon points=" 172.781, 254.008 172.781, 252.114 174.676, 252.114 174.676, 254.008 176.57, 254.008 176.57, 255.903 174.676, 255.903 174.676, 257.797 172.781, 257.797 172.781, 255.903 170.887, 255.903 170.887, 254.008"/>
</g>
<path d="M195.776,264.036h 30.2291" fill="none" stroke="#ffcc00"/>
<path d="M231.688,264.036h 30.2291" fill="none" stroke="#ffcc00"/>
<g fill="#ffcc00">
<polygon points=" 227.899, 263.088 227.899, 261.194 229.794, 261.194 229.794, 263.088 231.688, 263.088 231.688, 264.983 229.794, 264.983 229.794, 266.877 227.899, 266.877 227.899, 264.983 226.005, 264.983 226.005, 263.088"/>
</g>
<path d="M261.917,266.955h 52.2764" fill="none" stroke="#ffcc00"/>
<path d="M319.877,266.955h 52.2764" fill="none" stroke="#ffcc00"/>
<g fill="#ffcc00">
<polygon points=" 316.088, 266.008 316.088, 264.113 317.983, 264.113 317.983, 266.008 319.877, 266.008 319.877, 267.902 317.983, 267.902 317.983, 269.797 316.088, 269.797 316.088, 267.902 314.194, 267.902 314.194, 266.008"/>
</g>
<path d="M427.272,298.344v -6.02844" fill="none" stroke="#ffcc00"/>
<path d="M427.272,286.632v -6.02844" fill="none" stroke="#ffcc00"/>
<path d="M372.154,289.473h 52.2764" fill="none" stroke="#ffcc00"/>
<path d="M430.113,289.473h 52.2764" fill="none" stroke="#ffcc00"/>
<g fill="#ffcc00">
<polygon points=" 426.324, 288.526 426.324, 286.632 428.219, 286.632 428.219, 288.526 430.113, 288.526 430.113, 290.421 428.219, 290.421 428.219, 292.315 426.324, 292.315 426.324, 290.421 424.43, 290.421 424.43, 288.526"/>
</g>
<path d="M85.5394,232.786h 8.18187" fill="none" stroke="#ff0000"/>
<path d="M99.4047,232.786h 8.18187" fill="none" stroke="#ff0000"/>
<g fill="#ff0000">
<polygon points=" 95.6157, 231.839 95.6157, 229.944 97.5102, 229.944 97.5102, 231.839 99.4047, 231.839 99.4047, 233.733 97.5102, 233.733 97.5102, 235.628 95.6157, 235.628 95.6157, 233.733 93.7212, 233.733 93.7212, 231.839"/>
</g>
<path d="M107.587,235.041h 8.18187" fill="none" stroke="#ff0000"/>
<path d="M121.452,235.041h 8.18187" fill="none" stroke="#ff0000"/>
<g fill="#ff0000">
<polygon points=" 117.663, 234.094 117.663, 232.199 119.557, 232.199 119.557, 234.094 121.452, 234.094 121.452, 235.988 119.557, 235.988 119.557, 237.883 117.663, 237.883 117.663, 235.988 115.768, 235.988 115.768, 234.094"/>
</g>
<path d="M129.634,238.079h 8.18187" fill="none" stroke="#ff0000"/>
<path d="M143.499,238.079h 8.18187" fill="none" stroke="#ff0000"/>
<g fill="#ff0000">
<polygon points=" 139.71, 237.131 139.71, 235.237 141.605, 235.237 141.605, 237.131 143.499, 237.131 143.499, 239.026 141.605, 239.026 141.605, 240.92 139.71, 240.92 139.71, 239.026 137.816, 239.026 137.816, 237.131"/>
</g>
<path d="M151.681,241.621h 19.2055" fill="none" stroke="#ff0000"/>
<path d="M176.57,241.621h 19.2055" fill="none" stroke="#ff0000"/>
<g fill="#ff0000">
<polygon points=" 172.781, 240.674 172.781, 238.78 174.676, 238.78 174.676, 240.674 176.57, 240.674 176.57, 242.569 174.676, 242.569 174.676, 244.463 172.781, 244.463 172.781, 242.569 170.887, 242.569 170.887, 240.674"/>
</g>
<path d="M195.776,247.291h 30.2291" fill="none" stroke="#ff0000"/>
<path d="M231.688,247.291h 30.2291" fill="none" stroke="#ff0000"/>
<g fill="#ff0000">
<polygon points=" 227.899, 246.344 227.899, 244.45 229.794, 244.45 229.794, 246.344 231.688, 246.344 231.688, 248.239 229.794, 248.239 229.794, 250.133 227.899, 250.133 227.899, 248.239 226.005, 248.239 226.005, 246.344"/>
</g>
<path d="M317.035,258.378v -0.176711" fill="none" stroke="#ff0000"/>
<path d="M317.035,252.518v -0.176711" fill="none" stroke="#ff0000"/>
<path d="M261.917,255.359h 52.2764" fill="none" stroke="#ff0000"/>
<path d="M319.877,255.359h 52.2764" fill="none" stroke="#ff0000"/>
<g fill="#ff0000">
<polygon points=" 316.088, 254.412 316.088, 252.518 317.983, 252.518 317.983, 254.412 319.877, 254.412 319.877, 256.307 317.983, 256.307 317.983, 258.201 316.088, 258.201 316.088, 256.307 314.194, 256.307 314.194, 254.412"/>
</g>
<path d="M427.272,278.654v -8.22606" fill="none" stroke="#ff0000"/>
<path d="M427.272,264.744v -8.22606" fill="none" stroke="#ff0000"/>
<path d="M372.154,267.586h 52.2764" fill="none" stroke="#ff0000"/>
<path d="M430.113,267.586h 52.2764" fill="none" stroke="#ff0000"/>
<g fill="#ff0000">
<polygon points=" 426.324, 266.639 426.324, 264.744 428.219, 264.744 428.219, 266.639 430.113, 266.639 430.113, 268.533 428.219, 268.533 428.219, 270.428 426.324, 270.428 426.324, 268.533 424.43, 268.533 424.43, 266.639"/>
</g>
<path d="M85.5394,225.974h 8.18187" fill="none" stroke="#ff0033"/>
<path d="M99.4047,225.974h 8.18187" fill="none" stroke="#ff0033"/>
<g stroke="#ff0033" stroke-width="1" fill="none">
<polygon points=" 95.6157, 225.027 95.6157, 223.133 97.5102, 223.133 97.5102, 225.027 99.4047, 225.027 99.4047, 226.922 97.5102, 226.922 97.5102, 228.816 95.6157, 228.816 95.6157, 226.922 93.7212, 226.922 93.7212, 225.027"/>
</g>
<path d="M107.587,226.925h 8.18187" fill="none" stroke="#ff0033"/>
<path d="M121.452,226.925h 8.18187" fill="none" stroke="#ff0033"/>
<g stroke="#ff0033" stroke-width="1" fill="none">
<polygon points=" 117.663, 225.977 117.663, 224.083 119.557, 224.083 119.557, 225.977 121.452, 225.977 121.452, 227.872 119.557, 227.872 119.557, 229.766 117.663, 229.766 117.663, 227.872 115.768, 227.872 115.768, 225.977"/>
</g>
<path d="M129.634,228.062h 8.18187" fill="none" stroke="#ff0033"/>
<path d="M143.499,228.062h 8.18187" fill="none" stroke="#ff0033"/>
<g stroke="#ff0033" stroke-width="1" fill="none">
<polygon points=" 139.71, 227.115 139.71, 225.221 141.605, 225.221 141.605, 227.115 143.499, 227.115 143.499, 229.01 141.605, 229.01 141.605, 230.904 139.71, 230.904 139.71, 229.01 137.816, 229.01 137.816, 227.115"/>
</g>
<path d="M151.681,229.998h 19.2055" fill="none" stroke="#ff0033"/>
<path d="M176.57,229.998h 19.2055" fill="none" stroke="#ff0033"/>
<g stroke="#ff0033" stroke-width="1" fill="none">
<polygon points=" 172.781, 229.051 172.781, 227.156 174.676, 227.156 174.676, 229.051 176.57, 229.051 176.57, 230.945 174.676, 230.945 174.676, 232.84 172.781, 232.84 172.781, 230.945 170.887, 230.945 170.887, 229.051"/>
</g>
<path d="M195.776,232.779h 30.2291" fill="none" stroke="#ff0033"/>
<path d="M231.688,232.779h 30.2291" fill="none" stroke="#ff0033"/>
<g stroke="#ff0033" stroke-width="1" fill="none">
<polygon points=" 227.899, 231.831 227.899, 229.937 229.794, 229.937 229.794, 231.831 231.688, 231.831 231.688, 233.726 229.794, 233.726 229.794, 235.62 227.899, 235.62 227.899, 233.726 226.005, 233.726 226.005, 231.831"/>
</g>
<path d="M261.917,235.846h 52.2764" fill="none" stroke="#ff0033"/>
<path d="M319.877,235.846h 52.2764" fill="none" stroke="#ff0033"/>
<g stroke="#ff0033" stroke-width="1" fill="none">
<polygon points=" 316.088, 234.899 316.088, 233.004 317.983, 233.004 317.983, 234.899 319.877, 234.899 319.877, 236.793 317.983, 236.793 317.983, 238.688 316.088, 238.688 316.088, 236.793 314.194, 236.793 314.194, 234.899"/>
</g>
<path d="M427.272,256.768v -7.02195" fill="none" stroke="#ff0033"/>
<path d="M427.272,244.063v -7.02195" fill="none" stroke="#ff0033"/>
<path d="M372.154,246.904h 52.2764" fill="none" stroke="#ff0033"/>
<path d="M430.113,246.904h 52.2764" fill="none" stroke="#ff0033"/>
<g stroke="#ff0033" stroke-width="1" fill="none">
<polygon points=" 426.324, 245.957 426.324, 244.063 428.219, 244.063 428.219, 245.957 430.113, 245.957 430.113, 247.852 428.219, 247.852 428.219, 249.746 426.324, 249.746 426.324, 247.852 424.43, 247.852 424.43, 245.957"/>
</g>
<path d="M85.5394,217.373h 9.60275" fill="none" stroke="#ff00ff"/>
<path d="M97.9839,217.373h 9.60275" fill="none" stroke="#ff00ff"/>
<g fill="#ff00ff">
<polygon points=" 96.563, 218.793 95.1421, 220.214 93.7212, 218.793 95.1421, 217.373 93.7212, 215.952 95.1421, 214.531 96.563, 215.952 97.9839, 214.531 99.4047, 215.952 97.9839, 217.373 99.4047, 218.793 97.9839, 220.214 96.563, 218.793"/>
</g>
<path d="M107.587,216.217h 9.60275" fill="none" stroke="#ff00ff"/>
<path d="M120.031,216.217h 9.60275" fill="none" stroke="#ff00ff"/>
<g fill="#ff00ff">
<polygon points=" 118.61, 217.638 117.189, 219.059 115.768, 217.638 117.189, 216.217 115.768, 214.796 117.189, 213.376 118.61, 214.796 120.031, 213.376 121.452, 214.796 120.031, 216.217 121.452, 217.638 120.031, 219.059 118.61, 217.638"/>
</g>
<path d="M129.634,215.563h 9.60275" fill="none" stroke="#ff00ff"/>
<path d="M142.078,215.563h 9.60275" fill="none" stroke="#ff00ff"/>
<g fill="#ff00ff">
<polygon points=" 140.657, 216.984 139.237, 218.405 137.816, 216.984 139.237, 215.563 137.816, 214.142 139.237, 212.721 140.657, 214.142 142.078, 212.721 143.499, 214.142 142.078, 215.563 143.499, 216.984 142.078, 218.405 140.657, 216.984"/>
</g>
<path d="M151.681,213.125h 20.6264" fill="none" stroke="#ff00ff"/>
<path d="M175.149,213.125h 20.6264" fill="none" stroke="#ff00ff"/>
<g fill="#ff00ff">
<polygon points=" 173.728, 214.546 172.307, 215.967 170.887, 214.546 172.307, 213.125 170.887, 211.704 172.307, 210.283 173.728, 211.704 175.149, 210.283 176.57, 211.704 175.149, 213.125 176.57, 214.546 175.149, 215.967 173.728, 214.546"/>
</g>
<path d="M195.776,212.945h 31.65" fill="none" stroke="#ff00ff"/>
<path d="M230.267,212.945h 31.65" fill="none" stroke="#ff00ff"/>
<g fill="#ff00ff">
<polygon points=" 228.846, 214.366 227.426, 215.787 226.005, 214.366 227.426, 212.945 226.005, 211.524 227.426, 210.103 228.846, 211.524 230.267, 210.103 231.688, 211.524 230.267, 212.945 231.688, 214.366 230.267, 215.787 228.846, 214.366"/>
</g>
<path d="M317.035,216.897v -1.83051" fill="none" stroke="#ff00ff"/>
<path d="M317.035,212.225v -1.83051" fill="none" stroke="#ff00ff"/>
<path d="M261.917,213.645h 53.6972" fill="none" stroke="#ff00ff"/>
<path d="M318.456,213.645h 53.6972" fill="none" stroke="#ff00ff"/>
<g fill="#ff00ff">
<polygon points=" 317.035, 215.066 315.615, 216.487 314.194, 215.066 315.615, 213.645 314.194, 212.225 315.615, 210.804 317.035, 212.225 318.456, 210.804 319.877, 212.225 318.456, 213.645 319.877, 215.066 318.456, 216.487 317.035, 215.066"/>
</g>
<path d="M427.272,209.166v -12.267" fill="none" stroke="#ff00ff"/>
<path d="M427.272,194.057v -12.267" fill="none" stroke="#ff00ff"/>
<path d="M372.154,195.478h 53.6972" fill="none" stroke="#ff00ff"/>
<path d="M428.693,195.478h 53.6972" fill="none" stroke="#ff00ff"/>
<g fill="#ff00ff">
<polygon points=" 427.272, 196.899 425.851, 198.32 424.43, 196.899 425.851, 195.478 424.43, 194.057 425.851, 192.636 427.272, 194.057 428.693, 192.636 430.113, 194.057 428.693, 195.478 430.113, 196.899 428.693, 198.32 427.272, 196.899"/>
</g>
<path d="M85.5394,209.41h 8.18187" fill="none" stroke="#cc00ff"/>
<path d="M99.4047,209.41h 8.18187" fill="none" stroke="#cc00ff"/>
<g stroke="#cc00ff" stroke-width="1" fill="none">
<polygon points=" 95.6157, 208.463 95.6157, 206.568 97.5102, 206.568 97.5102, 208.463 99.4047, 208.463 99.4047, 210.357 97.5102, 210.357 97.5102, 212.252 95.6157, 212.252 95.6157, 210.357 93.7212, 210.357 93.7212, 208.463"/>
</g>
<path d="M107.587,206.047h 8.18187" fill="none" stroke="#cc00ff"/>
<path d="M121.452,206.047h 8.18187" fill="none" stroke="#cc00ff"/>
<g stroke="#cc00ff" stroke-width="1" fill="none">
<polygon points=" 117.663, 205.099 117.663, 203.205 119.557, 203.205 119.557, 205.099 121.452, 205.099 121.452, 206.994 119.557, 206.994 119.557, 208.888 117.663, 208.888 117.663, 206.994 115.768, 206.994 115.768, 205.099"/>
</g>
<path d="M129.634,202.196h 8.18187" fill="none" stroke="#cc00ff"/>
<path d="M143.499,202.196h 8.18187" fill="none" stroke="#cc00ff"/>
<g stroke="#cc00ff" stroke-width="1" fill="none">
<polygon points=" 139.71, 201.249 139.71, 199.354 141.605, 199.354 141.605, 201.249 143.499, 201.249 143.499, 203.143 141.605, 203.143 141.605, 205.038 139.71, 205.038 139.71, 203.143 137.816, 203.143 137.816, 201.249"/>
</g>
<path d="M151.681,197.068h 19.2055" fill="none" stroke="#cc00ff"/>
<path d="M176.57,197.068h 19.2055" fill="none" stroke="#cc00ff"/>
<g stroke="#cc00ff" stroke-width="1" fill="none">
<polygon points=" 172.781, 196.121 172.781, 194.227 174.676, 194.227 174.676, 196.121 176.57, 196.121 176.57, 198.016 174.676, 198.016 174.676, 199.91 172.781, 199.91 172.781, 198.016 170.887, 198.016 170.887, 196.121"/>
</g>
<path d="M195.776,187.414h 30.2291" fill="none" stroke="#cc00ff"/>
<path d="M231.688,187.414h 30.2291" fill="none" stroke="#cc00ff"/>
<g stroke="#cc00ff" stroke-width="1" fill="none">
<polygon points=" 227.899, 186.467 227.899, 184.572 229.794, 184.572 229.794, 186.467 231.688, 186.467 231.688, 188.361 229.794, 188.361 229.794, 190.256 227.899, 190.256 227.899, 188.361 226.005, 188.361 226.005, 186.467"/>
</g>
<path d="M317.035,181.78v -1.49018" fill="none" stroke="#cc00ff"/>
<path d="M317.035,174.606v -1.49018" fill="none" stroke="#cc00ff"/>
<path d="M261.917,177.448h 52.2764" fill="none" stroke="#cc00ff"/>
<path d="M319.877,177.448h 52.2764" fill="none" stroke="#cc00ff"/>
<g stroke="#cc00ff" stroke-width="1" fill="none">
<polygon points=" 316.088, 176.501 316.088, 174.606 317.983, 174.606 317.983, 176.501 319.877, 176.501 319.877, 178.395 317.983, 178.395 317.983, 180.29 316.088, 180.29 316.088, 178.395 314.194, 178.395 314.194, 176.501"/>
</g>
<path d="M427.272,177.137v -15.1423" fill="none" stroke="#cc00ff"/>
<path d="M427.272,156.311v -15.1423" fill="none" stroke="#cc00ff"/>
<path d="M372.154,159.153h 52.2764" fill="none" stroke="#cc00ff"/>
<path d="M430.113,159.153h 52.2764" fill="none" stroke="#cc00ff"/>
<g stroke="#cc00ff" stroke-width="1" fill="none">
<polygon points=" 426.324, 158.205 426.324, 156.311 428.219, 156.311 428.219, 158.205 430.113, 158.205 430.113, 160.1 428.219, 160.1 428.219, 161.994 426.324, 161.994 426.324, 160.1 424.43, 160.1 424.43, 158.205"/>
</g>
<text xml:space="preserve" x="119.143" y="51.1515" fill="black" font-size="11.7432" font-family="Helvetica">PYTHIA8, pAu200GeV with option3</text>
<text xml:space="preserve" x="153.244" y="65.3603" fill="black" font-size="11.7432" font-family="Helvetica">|&lt;1</text>
<text xml:space="preserve" x="146.85" y="65.3603" fill="black" font-size="11.7432" font-family="Times">&#0951;</text>
<text xml:space="preserve" x="129.8" y="65.3603" fill="black" font-size="11.7432" font-family="Helvetica"> in |</text>
<text xml:space="preserve" x="125.537" y="61.0976" fill="black" font-size="7.99544" font-family="Helvetica">0</text>
<text xml:space="preserve" x="119.143" y="65.3603" fill="black" font-size="11.7432" font-family="Times">&#0960;</text>
<text xml:space="preserve" x="170.295" y="80.2794" fill="black" font-size="11.7432" font-family="Helvetica">centrality: 0~10%</text>
<g fill="#ffcc00">
<polygon points=" 141.285, 76.3763 141.285, 74.4818 143.18, 74.4818 143.18, 76.3763 145.074, 76.3763 145.074, 78.2708 143.18, 78.2708 143.18, 80.1653 141.285, 80.1653 141.285, 78.2708 139.391, 78.2708 139.391, 76.3763"/>
</g>
<text xml:space="preserve" x="170.295" y="94.4882" fill="black" font-size="11.7432" font-family="Helvetica">centrality: 10~20%</text>
<g fill="#ff0000">
<polygon points=" 141.285, 90.9656 141.285, 89.0711 143.18, 89.0711 143.18, 90.9656 145.074, 90.9656 145.074, 92.8601 143.18, 92.8601 143.18, 94.7546 141.285, 94.7546 141.285, 92.8601 139.391, 92.8601 139.391, 90.9656"/>
</g>
<text xml:space="preserve" x="170.295" y="109.407" fill="black" font-size="11.7432" font-family="Helvetica">centrality: 20~40%</text>
<g stroke="#ff0033" stroke-width="1" fill="none">
<polygon points=" 141.285, 105.555 141.285, 103.66 143.18, 103.66 143.18, 105.555 145.074, 105.555 145.074, 107.449 143.18, 107.449 143.18, 109.344 141.285, 109.344 141.285, 107.449 139.391, 107.449 139.391, 105.555"/>
</g>
<text xml:space="preserve" x="170.295" y="124.327" fill="black" font-size="11.7432" font-family="Helvetica">centrality: 40~60%</text>
<g fill="#ff00ff">
<polygon points=" 142.232, 122.512 140.811, 123.933 139.391, 122.512 140.811, 121.092 139.391, 119.671 140.811, 118.25 142.232, 119.671 143.653, 118.25 145.074, 119.671 143.653, 121.092 145.074, 122.512 143.653, 123.933 142.232, 122.512"/>
</g>
<text xml:space="preserve" x="170.295" y="138.535" fill="black" font-size="11.7432" font-family="Helvetica">centrality: 60~80%</text>
<g stroke="#cc00ff" stroke-width="1" fill="none">
<polygon points=" 141.285, 134.734 141.285, 132.839 143.18, 132.839 143.18, 134.734 145.074, 134.734 145.074, 136.628 143.18, 136.628 143.18, 138.523 141.285, 138.523 141.285, 136.628 139.391, 136.628 139.391, 134.734"/>
</g></svg>
