<?xml version="1.0" standalone="no"?>
<svg width="567.429" height="409.002" viewBox="0 0 567.429 409.002" xmlns="http://www.w3.org/2000/svg" shape-rendering="crispEdges">
<title>
/Users/jinhyunpark/npl/gitHub/git_share/Centrality_dependent_BiasCorrection/plots/plots_scaled-dNdpT/ratio_scaledYield_highpT_pion0_cent2mb.svg
</title>
<desc>
Creator: ROOT Version 6.28/04
CreationDate: Mon Sep 25 12:59:58 2023</desc>
<defs>
</defs>
<rect x="0.5" y="0" width="566.929" height="408.502" fill="white"/>
<rect x="85.5394" y="20.4251" width="396.85" height="339.056" fill="white"/>
<rect x="85.5394" y="20.4251" width="396.85" height="339.056" fill="none" stroke="black"/>
<rect x="85.5394" y="20.4251" width="396.85" height="339.056" fill="white"/>
<rect x="85.5394" y="20.4251" width="396.85" height="339.056" fill="none" stroke="black"/>
<path d="M85.5394,359.481h 396.85" fill="none" stroke="black"/>
<path d="M85.5394,350.903v 8.57853" fill="none" stroke="black"/>
<path d="M96.563,355.192v 4.28927" fill="none" stroke="black"/>
<path d="M107.587,355.192v 4.28927" fill="none" stroke="black"/>
<path d="M118.61,355.192v 4.28927" fill="none" stroke="black"/>
<path d="M129.634,350.903v 8.57853" fill="none" stroke="black"/>
<path d="M140.657,355.192v 4.28927" fill="none" stroke="black"/>
<path d="M151.681,355.192v 4.28927" fill="none" stroke="black"/>
<path d="M162.705,355.192v 4.28927" fill="none" stroke="black"/>
<path d="M173.728,350.903v 8.57853" fill="none" stroke="black"/>
<path d="M184.752,355.192v 4.28927" fill="none" stroke="black"/>
<path d="M195.776,355.192v 4.28927" fill="none" stroke="black"/>
<path d="M206.799,355.192v 4.28927" fill="none" stroke="black"/>
<path d="M217.823,350.903v 8.57853" fill="none" stroke="black"/>
<path d="M228.846,355.192v 4.28927" fill="none" stroke="black"/>
<path d="M239.87,355.192v 4.28927" fill="none" stroke="black"/>
<path d="M250.894,355.192v 4.28927" fill="none" stroke="black"/>
<path d="M261.917,350.903v 8.57853" fill="none" stroke="black"/>
<path d="M272.941,355.192v 4.28927" fill="none" stroke="black"/>
<path d="M283.965,355.192v 4.28927" fill="none" stroke="black"/>
<path d="M294.988,355.192v 4.28927" fill="none" stroke="black"/>
<path d="M306.012,350.903v 8.57853" fill="none" stroke="black"/>
<path d="M317.035,355.192v 4.28927" fill="none" stroke="black"/>
<path d="M328.059,355.192v 4.28927" fill="none" stroke="black"/>
<path d="M339.083,355.192v 4.28927" fill="none" stroke="black"/>
<path d="M350.106,350.903v 8.57853" fill="none" stroke="black"/>
<path d="M361.13,355.192v 4.28927" fill="none" stroke="black"/>
<path d="M372.154,355.192v 4.28927" fill="none" stroke="black"/>
<path d="M383.177,355.192v 4.28927" fill="none" stroke="black"/>
<path d="M394.201,350.903v 8.57853" fill="none" stroke="black"/>
<path d="M405.224,355.192v 4.28927" fill="none" stroke="black"/>
<path d="M416.248,355.192v 4.28927" fill="none" stroke="black"/>
<path d="M427.272,355.192v 4.28927" fill="none" stroke="black"/>
<path d="M438.295,350.903v 8.57853" fill="none" stroke="black"/>
<path d="M449.319,355.192v 4.28927" fill="none" stroke="black"/>
<path d="M460.343,355.192v 4.28927" fill="none" stroke="black"/>
<path d="M471.366,355.192v 4.28927" fill="none" stroke="black"/>
<path d="M482.39,350.903v 8.57853" fill="none" stroke="black"/>
<text xml:space="preserve" x="81.4899" y="372.269" fill="black" font-size="13.617" font-family="Helvetica">2</text>
<text xml:space="preserve" x="125.537" y="372.269" fill="black" font-size="13.617" font-family="Helvetica">4</text>
<text xml:space="preserve" x="169.584" y="372.269" fill="black" font-size="13.617" font-family="Helvetica">6</text>
<text xml:space="preserve" x="213.631" y="372.269" fill="black" font-size="13.617" font-family="Helvetica">8</text>
<text xml:space="preserve" x="253.416" y="372.269" fill="black" font-size="13.617" font-family="Helvetica">10</text>
<text xml:space="preserve" x="298.173" y="372.269" fill="black" font-size="13.617" font-family="Helvetica">12</text>
<text xml:space="preserve" x="342.22" y="372.269" fill="black" font-size="13.617" font-family="Helvetica">14</text>
<text xml:space="preserve" x="386.268" y="372.269" fill="black" font-size="13.617" font-family="Helvetica">16</text>
<text xml:space="preserve" x="430.315" y="372.269" fill="black" font-size="13.617" font-family="Helvetica">18</text>
<text xml:space="preserve" x="474.362" y="372.269" fill="black" font-size="13.617" font-family="Helvetica">20</text>
<text xml:space="preserve" x="436.709" y="384.347" fill="black" font-size="13.617" font-family="Helvetica">(GeV/c)</text>
<text xml:space="preserve" x="431.025" y="392.162" fill="black" font-size="9.24468" font-family="Helvetica">T</text>
<text xml:space="preserve" x="423.21" y="384.347" fill="black" font-size="13.617" font-family="Helvetica">p</text>
<path d="M85.5394,20.4251h 396.85" fill="none" stroke="black"/>
<path d="M85.5394,29.0036v -8.57853" fill="none" stroke="black"/>
<path d="M96.563,24.7143v -4.28927" fill="none" stroke="black"/>
<path d="M107.587,24.7143v -4.28927" fill="none" stroke="black"/>
<path d="M118.61,24.7143v -4.28927" fill="none" stroke="black"/>
<path d="M129.634,29.0036v -8.57853" fill="none" stroke="black"/>
<path d="M140.657,24.7143v -4.28927" fill="none" stroke="black"/>
<path d="M151.681,24.7143v -4.28927" fill="none" stroke="black"/>
<path d="M162.705,24.7143v -4.28927" fill="none" stroke="black"/>
<path d="M173.728,29.0036v -8.57853" fill="none" stroke="black"/>
<path d="M184.752,24.7143v -4.28927" fill="none" stroke="black"/>
<path d="M195.776,24.7143v -4.28927" fill="none" stroke="black"/>
<path d="M206.799,24.7143v -4.28927" fill="none" stroke="black"/>
<path d="M217.823,29.0036v -8.57853" fill="none" stroke="black"/>
<path d="M228.846,24.7143v -4.28927" fill="none" stroke="black"/>
<path d="M239.87,24.7143v -4.28927" fill="none" stroke="black"/>
<path d="M250.894,24.7143v -4.28927" fill="none" stroke="black"/>
<path d="M261.917,29.0036v -8.57853" fill="none" stroke="black"/>
<path d="M272.941,24.7143v -4.28927" fill="none" stroke="black"/>
<path d="M283.965,24.7143v -4.28927" fill="none" stroke="black"/>
<path d="M294.988,24.7143v -4.28927" fill="none" stroke="black"/>
<path d="M306.012,29.0036v -8.57853" fill="none" stroke="black"/>
<path d="M317.035,24.7143v -4.28927" fill="none" stroke="black"/>
<path d="M328.059,24.7143v -4.28927" fill="none" stroke="black"/>
<path d="M339.083,24.7143v -4.28927" fill="none" stroke="black"/>
<path d="M350.106,29.0036v -8.57853" fill="none" stroke="black"/>
<path d="M361.13,24.7143v -4.28927" fill="none" stroke="black"/>
<path d="M372.154,24.7143v -4.28927" fill="none" stroke="black"/>
<path d="M383.177,24.7143v -4.28927" fill="none" stroke="black"/>
<path d="M394.201,29.0036v -8.57853" fill="none" stroke="black"/>
<path d="M405.224,24.7143v -4.28927" fill="none" stroke="black"/>
<path d="M416.248,24.7143v -4.28927" fill="none" stroke="black"/>
<path d="M427.272,24.7143v -4.28927" fill="none" stroke="black"/>
<path d="M438.295,29.0036v -8.57853" fill="none" stroke="black"/>
<path d="M449.319,24.7143v -4.28927" fill="none" stroke="black"/>
<path d="M460.343,24.7143v -4.28927" fill="none" stroke="black"/>
<path d="M471.366,24.7143v -4.28927" fill="none" stroke="black"/>
<path d="M482.39,29.0036v -8.57853" fill="none" stroke="black"/>
<path d="M85.5394,359.481v -339.056" fill="none" stroke="black"/>
<path d="M99.6559,359.481h -14.1165" fill="none" stroke="black"/>
<path d="M92.5976,348.18h -7.05827" fill="none" stroke="black"/>
<path d="M92.5976,336.878h -7.05827" fill="none" stroke="black"/>
<path d="M92.5976,325.576h -7.05827" fill="none" stroke="black"/>
<path d="M92.5976,314.274h -7.05827" fill="none" stroke="black"/>
<path d="M99.6559,302.972h -14.1165" fill="none" stroke="black"/>
<path d="M92.5976,291.67h -7.05827" fill="none" stroke="black"/>
<path d="M92.5976,280.368h -7.05827" fill="none" stroke="black"/>
<path d="M92.5976,269.066h -7.05827" fill="none" stroke="black"/>
<path d="M92.5976,257.764h -7.05827" fill="none" stroke="black"/>
<path d="M99.6559,246.463h -14.1165" fill="none" stroke="black"/>
<path d="M92.5976,235.161h -7.05827" fill="none" stroke="black"/>
<path d="M92.5976,223.859h -7.05827" fill="none" stroke="black"/>
<path d="M92.5976,212.557h -7.05827" fill="none" stroke="black"/>
<path d="M92.5976,201.255h -7.05827" fill="none" stroke="black"/>
<path d="M99.6559,189.953h -14.1165" fill="none" stroke="black"/>
<path d="M92.5976,178.651h -7.05827" fill="none" stroke="black"/>
<path d="M92.5976,167.349h -7.05827" fill="none" stroke="black"/>
<path d="M92.5976,156.048h -7.05827" fill="none" stroke="black"/>
<path d="M92.5976,144.746h -7.05827" fill="none" stroke="black"/>
<path d="M99.6559,133.444h -14.1165" fill="none" stroke="black"/>
<path d="M92.5976,122.142h -7.05827" fill="none" stroke="black"/>
<path d="M92.5976,110.84h -7.05827" fill="none" stroke="black"/>
<path d="M92.5976,99.5382h -7.05827" fill="none" stroke="black"/>
<path d="M92.5976,88.2363h -7.05827" fill="none" stroke="black"/>
<path d="M99.6559,76.9345h -14.1165" fill="none" stroke="black"/>
<path d="M92.5976,65.6326h -7.05827" fill="none" stroke="black"/>
<path d="M92.5976,54.3307h -7.05827" fill="none" stroke="black"/>
<path d="M92.5976,43.0288h -7.05827" fill="none" stroke="black"/>
<path d="M92.5976,31.727h -7.05827" fill="none" stroke="black"/>
<path d="M99.6559,20.4251h -14.1165" fill="none" stroke="black"/>
<text xml:space="preserve" x="75.0959" y="364.454" fill="black" font-size="13.617" font-family="Helvetica">0</text>
<text xml:space="preserve" x="63.7289" y="307.619" fill="black" font-size="13.617" font-family="Helvetica">0.5</text>
<text xml:space="preserve" x="77.2272" y="251.495" fill="black" font-size="13.617" font-family="Helvetica">1</text>
<text xml:space="preserve" x="63.7289" y="194.66" fill="black" font-size="13.617" font-family="Helvetica">1.5</text>
<text xml:space="preserve" x="75.0959" y="138.535" fill="black" font-size="13.617" font-family="Helvetica">2</text>
<text xml:space="preserve" x="63.7289" y="81.7003" fill="black" font-size="13.617" font-family="Helvetica">2.5</text>
<text xml:space="preserve" x="75.0959" y="24.8653" fill="black" font-size="13.617" font-family="Helvetica">3</text>
<g transform="rotate(-90,49.5202,24.1549)">
<text xml:space="preserve" x="49.5202" y="24.1549" fill="black" font-size="13.617" font-family="Helvetica"> </text>
</g>
<g transform="rotate(-90,57.335,37.6532)">
<text xml:space="preserve" x="57.335" y="37.6532" fill="black" font-size="9.24468" font-family="Helvetica">MB</text>
</g>
<g transform="rotate(-90,49.5202,41.2054)">
<text xml:space="preserve" x="49.5202" y="41.2054" fill="black" font-size="13.617" font-family="Helvetica">)</text>
</g>
<g transform="rotate(-90,65.1498,49.0202)">
<text xml:space="preserve" x="65.1498" y="49.0202" fill="black" font-size="9.24468" font-family="Helvetica">T</text>
</g>
<g transform="rotate(-90,57.335,63.9394)">
<text xml:space="preserve" x="57.335" y="63.9394" fill="black" font-size="13.617" font-family="Helvetica">dp</text>
</g>
<g transform="rotate(-90,33.1801,44.7576)">
<text xml:space="preserve" x="33.1801" y="44.7576" fill="black" font-size="6.32979" font-family="Helvetica">0</text>
</g>
<g transform="rotate(-90,36.7323,49.7306)">
<text xml:space="preserve" x="36.7323" y="49.7306" fill="black" font-size="9.24468" font-family="Times">&#0960;</text>
</g>
<g transform="rotate(-90,43.1263,66.0707)">
<text xml:space="preserve" x="43.1263" y="66.0707" fill="black" font-size="13.617" font-family="Helvetica">dN</text>
</g>
<path d="M45.968,66.0707v -24.8653" fill="none" stroke="black" stroke-width="2"/>
<g transform="rotate(-90,49.5202,70.3333)">
<text xml:space="preserve" x="49.5202" y="70.3333" fill="black" font-size="13.617" font-family="Helvetica"> </text>
</g>
<g transform="rotate(-90,61.5976,93.0673)">
<text xml:space="preserve" x="61.5976" y="93.0673" fill="black" font-size="9.24468" font-family="Helvetica">event</text>
</g>
<g transform="rotate(-90,57.335,102.303)">
<text xml:space="preserve" x="57.335" y="102.303" fill="black" font-size="13.617" font-family="Helvetica">N</text>
</g>
<g transform="rotate(-90,43.8367,88.8047)">
<text xml:space="preserve" x="43.8367" y="88.8047" fill="black" font-size="13.617" font-family="Helvetica">1</text>
</g>
<path d="M45.968,102.303v -31.9697" fill="none" stroke="black" stroke-width="2"/>
<g transform="rotate(-90,49.5202,106.566)">
<text xml:space="preserve" x="49.5202" y="106.566" fill="black" font-size="13.617" font-family="Helvetica"> </text>
</g>
<g transform="rotate(-90,58.0454,110.828)">
<text xml:space="preserve" x="58.0454" y="110.828" fill="black" font-size="13.617" font-family="Times">&#0062;</text>
</g>
<g transform="rotate(-90,64.4394,124.327)">
<text xml:space="preserve" x="64.4394" y="124.327" fill="black" font-size="9.24468" font-family="Helvetica">coll</text>
</g>
<g transform="rotate(-90,58.0454,133.562)">
<text xml:space="preserve" x="58.0454" y="133.562" fill="black" font-size="13.617" font-family="Helvetica">N</text>
</g>
<g transform="rotate(-90,58.0454,137.825)">
<text xml:space="preserve" x="58.0454" y="137.825" fill="black" font-size="13.617" font-family="Times">&#0060;</text>
</g>
<g transform="rotate(-90,43.8367,124.327)">
<text xml:space="preserve" x="43.8367" y="124.327" fill="black" font-size="13.617" font-family="Helvetica">1</text>
</g>
<path d="M45.968,137.825v -31.2593" fill="none" stroke="black" stroke-width="2"/>
<g transform="rotate(-90,49.5202,153.455)">
<text xml:space="preserve" x="49.5202" y="153.455" fill="black" font-size="13.617" font-family="Helvetica"> / (</text>
</g>
<g transform="rotate(-90,56.6246,171.215)">
<text xml:space="preserve" x="56.6246" y="171.215" fill="black" font-size="9.24468" font-family="Helvetica">cent</text>
</g>
<g transform="rotate(-90,49.5202,174.768)">
<text xml:space="preserve" x="49.5202" y="174.768" fill="black" font-size="13.617" font-family="Helvetica">)</text>
</g>
<g transform="rotate(-90,65.1498,182.582)">
<text xml:space="preserve" x="65.1498" y="182.582" fill="black" font-size="9.24468" font-family="Helvetica">T</text>
</g>
<g transform="rotate(-90,57.335,197.502)">
<text xml:space="preserve" x="57.335" y="197.502" fill="black" font-size="13.617" font-family="Helvetica">dp</text>
</g>
<g transform="rotate(-90,33.1801,178.32)">
<text xml:space="preserve" x="33.1801" y="178.32" fill="black" font-size="6.32979" font-family="Helvetica">0</text>
</g>
<g transform="rotate(-90,36.7323,183.293)">
<text xml:space="preserve" x="36.7323" y="183.293" fill="black" font-size="9.24468" font-family="Times">&#0960;</text>
</g>
<g transform="rotate(-90,43.1263,199.633)">
<text xml:space="preserve" x="43.1263" y="199.633" fill="black" font-size="13.617" font-family="Helvetica">dN</text>
</g>
<path d="M45.968,199.633v -24.8653" fill="none" stroke="black" stroke-width="2"/>
<g transform="rotate(-90,49.5202,203.896)">
<text xml:space="preserve" x="49.5202" y="203.896" fill="black" font-size="13.617" font-family="Helvetica"> </text>
</g>
<g transform="rotate(-90,61.5976,226.63)">
<text xml:space="preserve" x="61.5976" y="226.63" fill="black" font-size="9.24468" font-family="Helvetica">event</text>
</g>
<g transform="rotate(-90,57.335,235.865)">
<text xml:space="preserve" x="57.335" y="235.865" fill="black" font-size="13.617" font-family="Helvetica">N</text>
</g>
<g transform="rotate(-90,43.8367,222.367)">
<text xml:space="preserve" x="43.8367" y="222.367" fill="black" font-size="13.617" font-family="Helvetica">1</text>
</g>
<path d="M45.968,235.865v -31.9697" fill="none" stroke="black" stroke-width="2"/>
<g transform="rotate(-90,49.5202,240.128)">
<text xml:space="preserve" x="49.5202" y="240.128" fill="black" font-size="13.617" font-family="Helvetica"> </text>
</g>
<g transform="rotate(-90,58.0454,244.391)">
<text xml:space="preserve" x="58.0454" y="244.391" fill="black" font-size="13.617" font-family="Times">&#0062;</text>
</g>
<g transform="rotate(-90,64.4394,257.889)">
<text xml:space="preserve" x="64.4394" y="257.889" fill="black" font-size="9.24468" font-family="Helvetica">coll</text>
</g>
<g transform="rotate(-90,58.0454,267.125)">
<text xml:space="preserve" x="58.0454" y="267.125" fill="black" font-size="13.617" font-family="Helvetica">N</text>
</g>
<g transform="rotate(-90,58.0454,271.387)">
<text xml:space="preserve" x="58.0454" y="271.387" fill="black" font-size="13.617" font-family="Times">&#0060;</text>
</g>
<g transform="rotate(-90,43.8367,257.889)">
<text xml:space="preserve" x="43.8367" y="257.889" fill="black" font-size="13.617" font-family="Helvetica">1</text>
</g>
<path d="M45.968,271.387v -31.2593" fill="none" stroke="black" stroke-width="2"/>
<g transform="rotate(-90,49.5202,275.65)">
<text xml:space="preserve" x="49.5202" y="275.65" fill="black" font-size="13.617" font-family="Helvetica">(</text>
</g>
<path d="M482.39,359.481v -339.056" fill="none" stroke="black"/>
<path d="M468.273,359.481h 14.1165" fill="none" stroke="black"/>
<path d="M475.332,348.18h 7.05827" fill="none" stroke="black"/>
<path d="M475.332,336.878h 7.05827" fill="none" stroke="black"/>
<path d="M475.332,325.576h 7.05827" fill="none" stroke="black"/>
<path d="M475.332,314.274h 7.05827" fill="none" stroke="black"/>
<path d="M468.273,302.972h 14.1165" fill="none" stroke="black"/>
<path d="M475.332,291.67h 7.05827" fill="none" stroke="black"/>
<path d="M475.332,280.368h 7.05827" fill="none" stroke="black"/>
<path d="M475.332,269.066h 7.05827" fill="none" stroke="black"/>
<path d="M475.332,257.764h 7.05827" fill="none" stroke="black"/>
<path d="M468.273,246.463h 14.1165" fill="none" stroke="black"/>
<path d="M475.332,235.161h 7.05827" fill="none" stroke="black"/>
<path d="M475.332,223.859h 7.05827" fill="none" stroke="black"/>
<path d="M475.332,212.557h 7.05827" fill="none" stroke="black"/>
<path d="M475.332,201.255h 7.05827" fill="none" stroke="black"/>
<path d="M468.273,189.953h 14.1165" fill="none" stroke="black"/>
<path d="M475.332,178.651h 7.05827" fill="none" stroke="black"/>
<path d="M475.332,167.349h 7.05827" fill="none" stroke="black"/>
<path d="M475.332,156.048h 7.05827" fill="none" stroke="black"/>
<path d="M475.332,144.746h 7.05827" fill="none" stroke="black"/>
<path d="M468.273,133.444h 14.1165" fill="none" stroke="black"/>
<path d="M475.332,122.142h 7.05827" fill="none" stroke="black"/>
<path d="M475.332,110.84h 7.05827" fill="none" stroke="black"/>
<path d="M475.332,99.5382h 7.05827" fill="none" stroke="black"/>
<path d="M475.332,88.2363h 7.05827" fill="none" stroke="black"/>
<path d="M468.273,76.9345h 14.1165" fill="none" stroke="black"/>
<path d="M475.332,65.6326h 7.05827" fill="none" stroke="black"/>
<path d="M475.332,54.3307h 7.05827" fill="none" stroke="black"/>
<path d="M475.332,43.0288h 7.05827" fill="none" stroke="black"/>
<path d="M475.332,31.727h 7.05827" fill="none" stroke="black"/>
<path d="M468.273,20.4251h 14.1165" fill="none" stroke="black"/>
<path d="M85.5394,260.074h 8.18187" fill="none" stroke="#ffcc00"/>
<path d="M99.4047,260.074h 8.18187" fill="none" stroke="#ffcc00"/>
<g fill="#ffcc00">
<polygon points=" 95.6157, 259.127 95.6157, 257.232 97.5102, 257.232 97.5102, 259.127 99.4047, 259.127 99.4047, 261.021 97.5102, 261.021 97.5102, 262.916 95.6157, 262.916 95.6157, 261.021 93.7212, 261.021 93.7212, 259.127"/>
</g>
<path d="M107.587,263.263h 8.18187" fill="none" stroke="#ffcc00"/>
<path d="M121.452,263.263h 8.18187" fill="none" stroke="#ffcc00"/>
<g fill="#ffcc00">
<polygon points=" 117.663, 262.316 117.663, 260.421 119.557, 260.421 119.557, 262.316 121.452, 262.316 121.452, 264.21 119.557, 264.21 119.557, 266.105 117.663, 266.105 117.663, 264.21 115.768, 264.21 115.768, 262.316"/>
</g>
<path d="M129.634,266.526h 8.18187" fill="none" stroke="#ffcc00"/>
<path d="M143.499,266.526h 8.18187" fill="none" stroke="#ffcc00"/>
<g fill="#ffcc00">
<polygon points=" 139.71, 265.578 139.71, 263.684 141.605, 263.684 141.605, 265.578 143.499, 265.578 143.499, 267.473 141.605, 267.473 141.605, 269.367 139.71, 269.367 139.71, 267.473 137.816, 267.473 137.816, 265.578"/>
</g>
<path d="M151.681,272.377h 19.2055" fill="none" stroke="#ffcc00"/>
<path d="M176.57,272.377h 19.2055" fill="none" stroke="#ffcc00"/>
<g fill="#ffcc00">
<polygon points=" 172.781, 271.429 172.781, 269.535 174.676, 269.535 174.676, 271.429 176.57, 271.429 176.57, 273.324 174.676, 273.324 174.676, 275.218 172.781, 275.218 172.781, 273.324 170.887, 273.324 170.887, 271.429"/>
</g>
<path d="M195.776,279.943h 30.2291" fill="none" stroke="#ffcc00"/>
<path d="M231.688,279.943h 30.2291" fill="none" stroke="#ffcc00"/>
<g fill="#ffcc00">
<polygon points=" 227.899, 278.996 227.899, 277.102 229.794, 277.102 229.794, 278.996 231.688, 278.996 231.688, 280.891 229.794, 280.891 229.794, 282.785 227.899, 282.785 227.899, 280.891 226.005, 280.891 226.005, 278.996"/>
</g>
<path d="M261.917,282.376h 52.2764" fill="none" stroke="#ffcc00"/>
<path d="M319.877,282.376h 52.2764" fill="none" stroke="#ffcc00"/>
<g fill="#ffcc00">
<polygon points=" 316.088, 281.429 316.088, 279.534 317.983, 279.534 317.983, 281.429 319.877, 281.429 319.877, 283.323 317.983, 283.323 317.983, 285.218 316.088, 285.218 316.088, 283.323 314.194, 283.323 314.194, 281.429"/>
</g>
<path d="M427.272,308.533v -4.55008" fill="none" stroke="#ffcc00"/>
<path d="M427.272,298.3v -4.55008" fill="none" stroke="#ffcc00"/>
<path d="M372.154,301.141h 52.2764" fill="none" stroke="#ffcc00"/>
<path d="M430.113,301.141h 52.2764" fill="none" stroke="#ffcc00"/>
<g fill="#ffcc00">
<polygon points=" 426.324, 300.194 426.324, 298.3 428.219, 298.3 428.219, 300.194 430.113, 300.194 430.113, 302.089 428.219, 302.089 428.219, 303.983 426.324, 303.983 426.324, 302.089 424.43, 302.089 424.43, 300.194"/>
</g>
<path d="M85.5394,253.902h 8.18187" fill="none" stroke="#ff0000"/>
<path d="M99.4047,253.902h 8.18187" fill="none" stroke="#ff0000"/>
<g fill="#ff0000">
<polygon points=" 95.6157, 252.955 95.6157, 251.06 97.5102, 251.06 97.5102, 252.955 99.4047, 252.955 99.4047, 254.849 97.5102, 254.849 97.5102, 256.744 95.6157, 256.744 95.6157, 254.849 93.7212, 254.849 93.7212, 252.955"/>
</g>
<path d="M107.587,255.781h 8.18187" fill="none" stroke="#ff0000"/>
<path d="M121.452,255.781h 8.18187" fill="none" stroke="#ff0000"/>
<g fill="#ff0000">
<polygon points=" 117.663, 254.834 117.663, 252.939 119.557, 252.939 119.557, 254.834 121.452, 254.834 121.452, 256.728 119.557, 256.728 119.557, 258.623 117.663, 258.623 117.663, 256.728 115.768, 256.728 115.768, 254.834"/>
</g>
<path d="M129.634,258.312h 8.18187" fill="none" stroke="#ff0000"/>
<path d="M143.499,258.312h 8.18187" fill="none" stroke="#ff0000"/>
<g fill="#ff0000">
<polygon points=" 139.71, 257.365 139.71, 255.471 141.605, 255.471 141.605, 257.365 143.499, 257.365 143.499, 259.26 141.605, 259.26 141.605, 261.154 139.71, 261.154 139.71, 259.26 137.816, 259.26 137.816, 257.365"/>
</g>
<path d="M151.681,261.265h 19.2055" fill="none" stroke="#ff0000"/>
<path d="M176.57,261.265h 19.2055" fill="none" stroke="#ff0000"/>
<g fill="#ff0000">
<polygon points=" 172.781, 260.317 172.781, 258.423 174.676, 258.423 174.676, 260.317 176.57, 260.317 176.57, 262.212 174.676, 262.212 174.676, 264.106 172.781, 264.106 172.781, 262.212 170.887, 262.212 170.887, 260.317"/>
</g>
<path d="M195.776,265.99h 30.2291" fill="none" stroke="#ff0000"/>
<path d="M231.688,265.99h 30.2291" fill="none" stroke="#ff0000"/>
<g fill="#ff0000">
<polygon points=" 227.899, 265.043 227.899, 263.148 229.794, 263.148 229.794, 265.043 231.688, 265.043 231.688, 266.937 229.794, 266.937 229.794, 268.832 227.899, 268.832 227.899, 266.937 226.005, 266.937 226.005, 265.043"/>
</g>
<path d="M261.917,272.713h 52.2764" fill="none" stroke="#ff0000"/>
<path d="M319.877,272.713h 52.2764" fill="none" stroke="#ff0000"/>
<g fill="#ff0000">
<polygon points=" 316.088, 271.766 316.088, 269.871 317.983, 269.871 317.983, 271.766 319.877, 271.766 319.877, 273.66 317.983, 273.66 317.983, 275.555 316.088, 275.555 316.088, 273.66 314.194, 273.66 314.194, 271.766"/>
</g>
<path d="M427.272,292.125v -6.38142" fill="none" stroke="#ff0000"/>
<path d="M427.272,280.06v -6.38142" fill="none" stroke="#ff0000"/>
<path d="M372.154,282.902h 52.2764" fill="none" stroke="#ff0000"/>
<path d="M430.113,282.902h 52.2764" fill="none" stroke="#ff0000"/>
<g fill="#ff0000">
<polygon points=" 426.324, 281.955 426.324, 280.06 428.219, 280.06 428.219, 281.955 430.113, 281.955 430.113, 283.849 428.219, 283.849 428.219, 285.744 426.324, 285.744 426.324, 283.849 424.43, 283.849 424.43, 281.955"/>
</g>
<path d="M85.5394,248.226h 8.18187" fill="none" stroke="#ff0033"/>
<path d="M99.4047,248.226h 8.18187" fill="none" stroke="#ff0033"/>
<g stroke="#ff0033" stroke-width="1" fill="none">
<polygon points=" 95.6157, 247.278 95.6157, 245.384 97.5102, 245.384 97.5102, 247.278 99.4047, 247.278 99.4047, 249.173 97.5102, 249.173 97.5102, 251.067 95.6157, 251.067 95.6157, 249.173 93.7212, 249.173 93.7212, 247.278"/>
</g>
<path d="M107.587,249.017h 8.18187" fill="none" stroke="#ff0033"/>
<path d="M121.452,249.017h 8.18187" fill="none" stroke="#ff0033"/>
<g stroke="#ff0033" stroke-width="1" fill="none">
<polygon points=" 117.663, 248.07 117.663, 246.176 119.557, 246.176 119.557, 248.07 121.452, 248.07 121.452, 249.965 119.557, 249.965 119.557, 251.859 117.663, 251.859 117.663, 249.965 115.768, 249.965 115.768, 248.07"/>
</g>
<path d="M129.634,249.966h 8.18187" fill="none" stroke="#ff0033"/>
<path d="M143.499,249.966h 8.18187" fill="none" stroke="#ff0033"/>
<g stroke="#ff0033" stroke-width="1" fill="none">
<polygon points=" 139.71, 249.018 139.71, 247.124 141.605, 247.124 141.605, 249.018 143.499, 249.018 143.499, 250.913 141.605, 250.913 141.605, 252.807 139.71, 252.807 139.71, 250.913 137.816, 250.913 137.816, 249.018"/>
</g>
<path d="M151.681,251.579h 19.2055" fill="none" stroke="#ff0033"/>
<path d="M176.57,251.579h 19.2055" fill="none" stroke="#ff0033"/>
<g stroke="#ff0033" stroke-width="1" fill="none">
<polygon points=" 172.781, 250.631 172.781, 248.737 174.676, 248.737 174.676, 250.631 176.57, 250.631 176.57, 252.526 174.676, 252.526 174.676, 254.42 172.781, 254.42 172.781, 252.526 170.887, 252.526 170.887, 250.631"/>
</g>
<path d="M195.776,253.896h 30.2291" fill="none" stroke="#ff0033"/>
<path d="M231.688,253.896h 30.2291" fill="none" stroke="#ff0033"/>
<g stroke="#ff0033" stroke-width="1" fill="none">
<polygon points=" 227.899, 252.948 227.899, 251.054 229.794, 251.054 229.794, 252.948 231.688, 252.948 231.688, 254.843 229.794, 254.843 229.794, 256.737 227.899, 256.737 227.899, 254.843 226.005, 254.843 226.005, 252.948"/>
</g>
<path d="M261.917,256.452h 52.2764" fill="none" stroke="#ff0033"/>
<path d="M319.877,256.452h 52.2764" fill="none" stroke="#ff0033"/>
<g stroke="#ff0033" stroke-width="1" fill="none">
<polygon points=" 316.088, 255.505 316.088, 253.61 317.983, 253.61 317.983, 255.505 319.877, 255.505 319.877, 257.399 317.983, 257.399 317.983, 259.294 316.088, 259.294 316.088, 257.399 314.194, 257.399 314.194, 255.505"/>
</g>
<path d="M427.272,273.887v -5.378" fill="none" stroke="#ff0033"/>
<path d="M427.272,262.826v -5.378" fill="none" stroke="#ff0033"/>
<path d="M372.154,265.667h 52.2764" fill="none" stroke="#ff0033"/>
<path d="M430.113,265.667h 52.2764" fill="none" stroke="#ff0033"/>
<g stroke="#ff0033" stroke-width="1" fill="none">
<polygon points=" 426.324, 264.72 426.324, 262.826 428.219, 262.826 428.219, 264.72 430.113, 264.72 430.113, 266.615 428.219, 266.615 428.219, 268.509 426.324, 268.509 426.324, 266.615 424.43, 266.615 424.43, 264.72"/>
</g>
<path d="M85.5394,241.057h 9.60275" fill="none" stroke="#ff00ff"/>
<path d="M97.9839,241.057h 9.60275" fill="none" stroke="#ff00ff"/>
<g fill="#ff00ff">
<polygon points=" 96.563, 242.478 95.1421, 243.899 93.7212, 242.478 95.1421, 241.057 93.7212, 239.636 95.1421, 238.216 96.563, 239.636 97.9839, 238.216 99.4047, 239.636 97.9839, 241.057 99.4047, 242.478 97.9839, 243.899 96.563, 242.478"/>
</g>
<path d="M107.587,240.095h 9.60275" fill="none" stroke="#ff00ff"/>
<path d="M120.031,240.095h 9.60275" fill="none" stroke="#ff00ff"/>
<g fill="#ff00ff">
<polygon points=" 118.61, 241.516 117.189, 242.936 115.768, 241.516 117.189, 240.095 115.768, 238.674 117.189, 237.253 118.61, 238.674 120.031, 237.253 121.452, 238.674 120.031, 240.095 121.452, 241.516 120.031, 242.936 118.61, 241.516"/>
</g>
<path d="M129.634,239.549h 9.60275" fill="none" stroke="#ff00ff"/>
<path d="M142.078,239.549h 9.60275" fill="none" stroke="#ff00ff"/>
<g fill="#ff00ff">
<polygon points=" 140.657, 240.97 139.237, 242.391 137.816, 240.97 139.237, 239.549 137.816, 238.129 139.237, 236.708 140.657, 238.129 142.078, 236.708 143.499, 238.129 142.078, 239.549 143.499, 240.97 142.078, 242.391 140.657, 240.97"/>
</g>
<path d="M151.681,237.518h 20.6264" fill="none" stroke="#ff00ff"/>
<path d="M175.149,237.518h 20.6264" fill="none" stroke="#ff00ff"/>
<g fill="#ff00ff">
<polygon points=" 173.728, 238.939 172.307, 240.36 170.887, 238.939 172.307, 237.518 170.887, 236.097 172.307, 234.676 173.728, 236.097 175.149, 234.676 176.57, 236.097 175.149, 237.518 176.57, 238.939 175.149, 240.36 173.728, 238.939"/>
</g>
<path d="M195.776,237.368h 31.65" fill="none" stroke="#ff00ff"/>
<path d="M230.267,237.368h 31.65" fill="none" stroke="#ff00ff"/>
<g fill="#ff00ff">
<polygon points=" 228.846, 238.789 227.426, 240.209 226.005, 238.789 227.426, 237.368 226.005, 235.947 227.426, 234.526 228.846, 235.947 230.267, 234.526 231.688, 235.947 230.267, 237.368 231.688, 238.789 230.267, 240.209 228.846, 238.789"/>
</g>
<path d="M317.035,240.661v -1.28861" fill="none" stroke="#ff00ff"/>
<path d="M317.035,236.531v -1.28861" fill="none" stroke="#ff00ff"/>
<path d="M261.917,237.951h 53.6972" fill="none" stroke="#ff00ff"/>
<path d="M318.456,237.951h 53.6972" fill="none" stroke="#ff00ff"/>
<g fill="#ff00ff">
<polygon points=" 317.035, 239.372 315.615, 240.793 314.194, 239.372 315.615, 237.951 314.194, 236.531 315.615, 235.11 317.035, 236.531 318.456, 235.11 319.877, 236.531 318.456, 237.951 319.877, 239.372 318.456, 240.793 317.035, 239.372"/>
</g>
<path d="M427.272,234.218v -9.98566" fill="none" stroke="#ff00ff"/>
<path d="M427.272,221.391v -9.98566" fill="none" stroke="#ff00ff"/>
<path d="M372.154,222.812h 53.6972" fill="none" stroke="#ff00ff"/>
<path d="M428.693,222.812h 53.6972" fill="none" stroke="#ff00ff"/>
<g fill="#ff00ff">
<polygon points=" 427.272, 224.233 425.851, 225.654 424.43, 224.233 425.851, 222.812 424.43, 221.391 425.851, 219.97 427.272, 221.391 428.693, 219.97 430.113, 221.391 428.693, 222.812 430.113, 224.233 428.693, 225.654 427.272, 224.233"/>
</g>
<path d="M85.5394,234.422h 8.18187" fill="none" stroke="#cc00ff"/>
<path d="M99.4047,234.422h 8.18187" fill="none" stroke="#cc00ff"/>
<g stroke="#cc00ff" stroke-width="1" fill="none">
<polygon points=" 95.6157, 233.475 95.6157, 231.58 97.5102, 231.58 97.5102, 233.475 99.4047, 233.475 99.4047, 235.369 97.5102, 235.369 97.5102, 237.264 95.6157, 237.264 95.6157, 235.369 93.7212, 235.369 93.7212, 233.475"/>
</g>
<path d="M107.587,231.619h 8.18187" fill="none" stroke="#cc00ff"/>
<path d="M121.452,231.619h 8.18187" fill="none" stroke="#cc00ff"/>
<g stroke="#cc00ff" stroke-width="1" fill="none">
<polygon points=" 117.663, 230.672 117.663, 228.777 119.557, 228.777 119.557, 230.672 121.452, 230.672 121.452, 232.566 119.557, 232.566 119.557, 234.461 117.663, 234.461 117.663, 232.566 115.768, 232.566 115.768, 230.672"/>
</g>
<path d="M129.634,228.41h 8.18187" fill="none" stroke="#cc00ff"/>
<path d="M143.499,228.41h 8.18187" fill="none" stroke="#cc00ff"/>
<g stroke="#cc00ff" stroke-width="1" fill="none">
<polygon points=" 139.71, 227.463 139.71, 225.569 141.605, 225.569 141.605, 227.463 143.499, 227.463 143.499, 229.358 141.605, 229.358 141.605, 231.252 139.71, 231.252 139.71, 229.358 137.816, 229.358 137.816, 227.463"/>
</g>
<path d="M151.681,224.137h 19.2055" fill="none" stroke="#cc00ff"/>
<path d="M176.57,224.137h 19.2055" fill="none" stroke="#cc00ff"/>
<g stroke="#cc00ff" stroke-width="1" fill="none">
<polygon points=" 172.781, 223.19 172.781, 221.295 174.676, 221.295 174.676, 223.19 176.57, 223.19 176.57, 225.084 174.676, 225.084 174.676, 226.979 172.781, 226.979 172.781, 225.084 170.887, 225.084 170.887, 223.19"/>
</g>
<path d="M195.776,216.092h 30.2291" fill="none" stroke="#cc00ff"/>
<path d="M231.688,216.092h 30.2291" fill="none" stroke="#cc00ff"/>
<g stroke="#cc00ff" stroke-width="1" fill="none">
<polygon points=" 227.899, 215.144 227.899, 213.25 229.794, 213.25 229.794, 215.144 231.688, 215.144 231.688, 217.039 229.794, 217.039 229.794, 218.933 227.899, 218.933 227.899, 217.039 226.005, 217.039 226.005, 215.144"/>
</g>
<path d="M317.035,211.397v -0.76819" fill="none" stroke="#cc00ff"/>
<path d="M317.035,204.945v -0.76819" fill="none" stroke="#cc00ff"/>
<path d="M261.917,207.787h 52.2764" fill="none" stroke="#cc00ff"/>
<path d="M319.877,207.787h 52.2764" fill="none" stroke="#cc00ff"/>
<g stroke="#cc00ff" stroke-width="1" fill="none">
<polygon points=" 316.088, 206.84 316.088, 204.945 317.983, 204.945 317.983, 206.84 319.877, 206.84 319.877, 208.734 317.983, 208.734 317.983, 210.629 316.088, 210.629 316.088, 208.734 314.194, 208.734 314.194, 206.84"/>
</g>
<path d="M427.272,207.527v -12.1449" fill="none" stroke="#cc00ff"/>
<path d="M427.272,189.699v -12.1449" fill="none" stroke="#cc00ff"/>
<path d="M372.154,192.541h 52.2764" fill="none" stroke="#cc00ff"/>
<path d="M430.113,192.541h 52.2764" fill="none" stroke="#cc00ff"/>
<g stroke="#cc00ff" stroke-width="1" fill="none">
<polygon points=" 426.324, 191.594 426.324, 189.699 428.219, 189.699 428.219, 191.594 430.113, 191.594 430.113, 193.488 428.219, 193.488 428.219, 195.383 426.324, 195.383 426.324, 193.488 424.43, 193.488 424.43, 191.594"/>
</g>
<text xml:space="preserve" x="232.813" y="51.1515" fill="black" font-size="11.7432" font-family="Helvetica">PYTHIA8, pAu200GeV with option3</text>
<text xml:space="preserve" x="266.914" y="65.3603" fill="black" font-size="11.7432" font-family="Helvetica">|&lt;1</text>
<text xml:space="preserve" x="260.52" y="65.3603" fill="black" font-size="11.7432" font-family="Times">&#0951;</text>
<text xml:space="preserve" x="243.47" y="65.3603" fill="black" font-size="11.7432" font-family="Helvetica"> in |</text>
<text xml:space="preserve" x="239.207" y="61.0976" fill="black" font-size="7.99544" font-family="Helvetica">0</text>
<text xml:space="preserve" x="232.813" y="65.3603" fill="black" font-size="11.7432" font-family="Times">&#0960;</text>
<text xml:space="preserve" x="283.965" y="80.2794" fill="black" font-size="11.7432" font-family="Helvetica">centrality: 0~10%</text>
<g fill="#ffcc00">
<polygon points=" 254.671, 76.3763 254.671, 74.4818 256.565, 74.4818 256.565, 76.3763 258.46, 76.3763 258.46, 78.2708 256.565, 78.2708 256.565, 80.1653 254.671, 80.1653 254.671, 78.2708 252.776, 78.2708 252.776, 76.3763"/>
</g>
<text xml:space="preserve" x="283.965" y="94.4882" fill="black" font-size="11.7432" font-family="Helvetica">centrality: 10~20%</text>
<g fill="#ff0000">
<polygon points=" 254.671, 90.9656 254.671, 89.0711 256.565, 89.0711 256.565, 90.9656 258.46, 90.9656 258.46, 92.8601 256.565, 92.8601 256.565, 94.7546 254.671, 94.7546 254.671, 92.8601 252.776, 92.8601 252.776, 90.9656"/>
</g>
<text xml:space="preserve" x="283.965" y="109.407" fill="black" font-size="11.7432" font-family="Helvetica">centrality: 20~40%</text>
<g stroke="#ff0033" stroke-width="1" fill="none">
<polygon points=" 254.671, 105.555 254.671, 103.66 256.565, 103.66 256.565, 105.555 258.46, 105.555 258.46, 107.449 256.565, 107.449 256.565, 109.344 254.671, 109.344 254.671, 107.449 252.776, 107.449 252.776, 105.555"/>
</g>
<text xml:space="preserve" x="283.965" y="124.327" fill="black" font-size="11.7432" font-family="Helvetica">centrality: 40~60%</text>
<g fill="#ff00ff">
<polygon points=" 255.618, 122.512 254.197, 123.933 252.776, 122.512 254.197, 121.092 252.776, 119.671 254.197, 118.25 255.618, 119.671 257.039, 118.25 258.46, 119.671 257.039, 121.092 258.46, 122.512 257.039, 123.933 255.618, 122.512"/>
</g>
<text xml:space="preserve" x="283.965" y="138.535" fill="black" font-size="11.7432" font-family="Helvetica">centrality: 60~80%</text>
<g stroke="#cc00ff" stroke-width="1" fill="none">
<polygon points=" 254.671, 134.734 254.671, 132.839 256.565, 132.839 256.565, 134.734 258.46, 134.734 258.46, 136.628 256.565, 136.628 256.565, 138.523 254.671, 138.523 254.671, 136.628 252.776, 136.628 252.776, 134.734"/>
</g></svg>
