<?xml version="1.0" standalone="no"?>
<svg width="567.429" height="409.002" viewBox="0 0 567.429 409.002" xmlns="http://www.w3.org/2000/svg" shape-rendering="crispEdges">
<title>
/Users/jinhyunpark/npl/gitHub/git_share/Centrality_dependent_BiasCorrection/plots/plots_scaled-dNdpT/ratio_scaledYield_directPhoton_cent2mb.svg
</title>
<desc>
Creator: ROOT Version 6.28/04
CreationDate: Mon Sep 25 12:43:13 2023</desc>
<defs>
</defs>
<rect x="0.5" y="0" width="566.929" height="408.502" fill="white"/>
<rect x="85.5394" y="20.4251" width="396.85" height="339.056" fill="white"/>
<rect x="85.5394" y="20.4251" width="396.85" height="339.056" fill="none" stroke="black"/>
<rect x="85.5394" y="20.4251" width="396.85" height="339.056" fill="white"/>
<rect x="85.5394" y="20.4251" width="396.85" height="339.056" fill="none" stroke="black"/>
<path d="M85.5394,359.481h 396.85" fill="none" stroke="black"/>
<path d="M85.5394,350.903v 8.57853" fill="none" stroke="black"/>
<path d="M95.4606,355.192v 4.28927" fill="none" stroke="black"/>
<path d="M105.382,355.192v 4.28927" fill="none" stroke="black"/>
<path d="M115.303,355.192v 4.28927" fill="none" stroke="black"/>
<path d="M125.224,350.903v 8.57853" fill="none" stroke="black"/>
<path d="M135.146,355.192v 4.28927" fill="none" stroke="black"/>
<path d="M145.067,355.192v 4.28927" fill="none" stroke="black"/>
<path d="M154.988,355.192v 4.28927" fill="none" stroke="black"/>
<path d="M164.909,350.903v 8.57853" fill="none" stroke="black"/>
<path d="M174.831,355.192v 4.28927" fill="none" stroke="black"/>
<path d="M184.752,355.192v 4.28927" fill="none" stroke="black"/>
<path d="M194.673,355.192v 4.28927" fill="none" stroke="black"/>
<path d="M204.594,350.903v 8.57853" fill="none" stroke="black"/>
<path d="M214.516,355.192v 4.28927" fill="none" stroke="black"/>
<path d="M224.437,355.192v 4.28927" fill="none" stroke="black"/>
<path d="M234.358,355.192v 4.28927" fill="none" stroke="black"/>
<path d="M244.28,350.903v 8.57853" fill="none" stroke="black"/>
<path d="M254.201,355.192v 4.28927" fill="none" stroke="black"/>
<path d="M264.122,355.192v 4.28927" fill="none" stroke="black"/>
<path d="M274.043,355.192v 4.28927" fill="none" stroke="black"/>
<path d="M283.965,350.903v 8.57853" fill="none" stroke="black"/>
<path d="M293.886,355.192v 4.28927" fill="none" stroke="black"/>
<path d="M303.807,355.192v 4.28927" fill="none" stroke="black"/>
<path d="M313.728,355.192v 4.28927" fill="none" stroke="black"/>
<path d="M323.65,350.903v 8.57853" fill="none" stroke="black"/>
<path d="M333.571,355.192v 4.28927" fill="none" stroke="black"/>
<path d="M343.492,355.192v 4.28927" fill="none" stroke="black"/>
<path d="M353.413,355.192v 4.28927" fill="none" stroke="black"/>
<path d="M363.335,350.903v 8.57853" fill="none" stroke="black"/>
<path d="M373.256,355.192v 4.28927" fill="none" stroke="black"/>
<path d="M383.177,355.192v 4.28927" fill="none" stroke="black"/>
<path d="M393.098,355.192v 4.28927" fill="none" stroke="black"/>
<path d="M403.02,350.903v 8.57853" fill="none" stroke="black"/>
<path d="M412.941,355.192v 4.28927" fill="none" stroke="black"/>
<path d="M422.862,355.192v 4.28927" fill="none" stroke="black"/>
<path d="M432.783,355.192v 4.28927" fill="none" stroke="black"/>
<path d="M442.705,350.903v 8.57853" fill="none" stroke="black"/>
<path d="M452.626,355.192v 4.28927" fill="none" stroke="black"/>
<path d="M462.547,355.192v 4.28927" fill="none" stroke="black"/>
<path d="M472.469,355.192v 4.28927" fill="none" stroke="black"/>
<path d="M482.39,350.903v 8.57853" fill="none" stroke="black"/>
<text xml:space="preserve" x="81.4899" y="372.269" fill="black" font-size="13.617" font-family="Helvetica">0</text>
<text xml:space="preserve" x="121.274" y="372.269" fill="black" font-size="13.617" font-family="Helvetica">2</text>
<text xml:space="preserve" x="161.059" y="372.269" fill="black" font-size="13.617" font-family="Helvetica">4</text>
<text xml:space="preserve" x="200.843" y="372.269" fill="black" font-size="13.617" font-family="Helvetica">6</text>
<text xml:space="preserve" x="240.628" y="372.269" fill="black" font-size="13.617" font-family="Helvetica">8</text>
<text xml:space="preserve" x="276.15" y="372.269" fill="black" font-size="13.617" font-family="Helvetica">10</text>
<text xml:space="preserve" x="315.224" y="372.269" fill="black" font-size="13.617" font-family="Helvetica">12</text>
<text xml:space="preserve" x="355.008" y="372.269" fill="black" font-size="13.617" font-family="Helvetica">14</text>
<text xml:space="preserve" x="394.793" y="372.269" fill="black" font-size="13.617" font-family="Helvetica">16</text>
<text xml:space="preserve" x="434.577" y="372.269" fill="black" font-size="13.617" font-family="Helvetica">18</text>
<text xml:space="preserve" x="474.362" y="372.269" fill="black" font-size="13.617" font-family="Helvetica">20</text>
<text xml:space="preserve" x="436.709" y="384.347" fill="black" font-size="13.617" font-family="Helvetica">(GeV/c)</text>
<text xml:space="preserve" x="431.025" y="392.162" fill="black" font-size="9.24468" font-family="Helvetica">T</text>
<text xml:space="preserve" x="423.21" y="384.347" fill="black" font-size="13.617" font-family="Helvetica">p</text>
<path d="M85.5394,20.4251h 396.85" fill="none" stroke="black"/>
<path d="M85.5394,29.0036v -8.57853" fill="none" stroke="black"/>
<path d="M95.4606,24.7143v -4.28927" fill="none" stroke="black"/>
<path d="M105.382,24.7143v -4.28927" fill="none" stroke="black"/>
<path d="M115.303,24.7143v -4.28927" fill="none" stroke="black"/>
<path d="M125.224,29.0036v -8.57853" fill="none" stroke="black"/>
<path d="M135.146,24.7143v -4.28927" fill="none" stroke="black"/>
<path d="M145.067,24.7143v -4.28927" fill="none" stroke="black"/>
<path d="M154.988,24.7143v -4.28927" fill="none" stroke="black"/>
<path d="M164.909,29.0036v -8.57853" fill="none" stroke="black"/>
<path d="M174.831,24.7143v -4.28927" fill="none" stroke="black"/>
<path d="M184.752,24.7143v -4.28927" fill="none" stroke="black"/>
<path d="M194.673,24.7143v -4.28927" fill="none" stroke="black"/>
<path d="M204.594,29.0036v -8.57853" fill="none" stroke="black"/>
<path d="M214.516,24.7143v -4.28927" fill="none" stroke="black"/>
<path d="M224.437,24.7143v -4.28927" fill="none" stroke="black"/>
<path d="M234.358,24.7143v -4.28927" fill="none" stroke="black"/>
<path d="M244.28,29.0036v -8.57853" fill="none" stroke="black"/>
<path d="M254.201,24.7143v -4.28927" fill="none" stroke="black"/>
<path d="M264.122,24.7143v -4.28927" fill="none" stroke="black"/>
<path d="M274.043,24.7143v -4.28927" fill="none" stroke="black"/>
<path d="M283.965,29.0036v -8.57853" fill="none" stroke="black"/>
<path d="M293.886,24.7143v -4.28927" fill="none" stroke="black"/>
<path d="M303.807,24.7143v -4.28927" fill="none" stroke="black"/>
<path d="M313.728,24.7143v -4.28927" fill="none" stroke="black"/>
<path d="M323.65,29.0036v -8.57853" fill="none" stroke="black"/>
<path d="M333.571,24.7143v -4.28927" fill="none" stroke="black"/>
<path d="M343.492,24.7143v -4.28927" fill="none" stroke="black"/>
<path d="M353.413,24.7143v -4.28927" fill="none" stroke="black"/>
<path d="M363.335,29.0036v -8.57853" fill="none" stroke="black"/>
<path d="M373.256,24.7143v -4.28927" fill="none" stroke="black"/>
<path d="M383.177,24.7143v -4.28927" fill="none" stroke="black"/>
<path d="M393.098,24.7143v -4.28927" fill="none" stroke="black"/>
<path d="M403.02,29.0036v -8.57853" fill="none" stroke="black"/>
<path d="M412.941,24.7143v -4.28927" fill="none" stroke="black"/>
<path d="M422.862,24.7143v -4.28927" fill="none" stroke="black"/>
<path d="M432.783,24.7143v -4.28927" fill="none" stroke="black"/>
<path d="M442.705,29.0036v -8.57853" fill="none" stroke="black"/>
<path d="M452.626,24.7143v -4.28927" fill="none" stroke="black"/>
<path d="M462.547,24.7143v -4.28927" fill="none" stroke="black"/>
<path d="M472.469,24.7143v -4.28927" fill="none" stroke="black"/>
<path d="M482.39,29.0036v -8.57853" fill="none" stroke="black"/>
<path d="M85.5394,359.481v -339.056" fill="none" stroke="black"/>
<path d="M99.6559,359.481h -14.1165" fill="none" stroke="black"/>
<path d="M92.5976,348.18h -7.05827" fill="none" stroke="black"/>
<path d="M92.5976,336.878h -7.05827" fill="none" stroke="black"/>
<path d="M92.5976,325.576h -7.05827" fill="none" stroke="black"/>
<path d="M92.5976,314.274h -7.05827" fill="none" stroke="black"/>
<path d="M99.6559,302.972h -14.1165" fill="none" stroke="black"/>
<path d="M92.5976,291.67h -7.05827" fill="none" stroke="black"/>
<path d="M92.5976,280.368h -7.05827" fill="none" stroke="black"/>
<path d="M92.5976,269.066h -7.05827" fill="none" stroke="black"/>
<path d="M92.5976,257.764h -7.05827" fill="none" stroke="black"/>
<path d="M99.6559,246.463h -14.1165" fill="none" stroke="black"/>
<path d="M92.5976,235.161h -7.05827" fill="none" stroke="black"/>
<path d="M92.5976,223.859h -7.05827" fill="none" stroke="black"/>
<path d="M92.5976,212.557h -7.05827" fill="none" stroke="black"/>
<path d="M92.5976,201.255h -7.05827" fill="none" stroke="black"/>
<path d="M99.6559,189.953h -14.1165" fill="none" stroke="black"/>
<path d="M92.5976,178.651h -7.05827" fill="none" stroke="black"/>
<path d="M92.5976,167.349h -7.05827" fill="none" stroke="black"/>
<path d="M92.5976,156.048h -7.05827" fill="none" stroke="black"/>
<path d="M92.5976,144.746h -7.05827" fill="none" stroke="black"/>
<path d="M99.6559,133.444h -14.1165" fill="none" stroke="black"/>
<path d="M92.5976,122.142h -7.05827" fill="none" stroke="black"/>
<path d="M92.5976,110.84h -7.05827" fill="none" stroke="black"/>
<path d="M92.5976,99.5382h -7.05827" fill="none" stroke="black"/>
<path d="M92.5976,88.2363h -7.05827" fill="none" stroke="black"/>
<path d="M99.6559,76.9345h -14.1165" fill="none" stroke="black"/>
<path d="M92.5976,65.6326h -7.05827" fill="none" stroke="black"/>
<path d="M92.5976,54.3307h -7.05827" fill="none" stroke="black"/>
<path d="M92.5976,43.0288h -7.05827" fill="none" stroke="black"/>
<path d="M92.5976,31.727h -7.05827" fill="none" stroke="black"/>
<path d="M99.6559,20.4251h -14.1165" fill="none" stroke="black"/>
<text xml:space="preserve" x="77.2272" y="365.165" fill="black" font-size="13.617" font-family="Helvetica">1</text>
<text xml:space="preserve" x="69.4124" y="365.165" fill="black" font-size="13.617" font-family="Times">&#8722;</text>
<text xml:space="preserve" x="75.0959" y="307.619" fill="black" font-size="13.617" font-family="Helvetica">0</text>
<text xml:space="preserve" x="77.2272" y="251.495" fill="black" font-size="13.617" font-family="Helvetica">1</text>
<text xml:space="preserve" x="75.0959" y="195.37" fill="black" font-size="13.617" font-family="Helvetica">2</text>
<text xml:space="preserve" x="75.0959" y="137.825" fill="black" font-size="13.617" font-family="Helvetica">3</text>
<text xml:space="preserve" x="75.0959" y="82.4108" fill="black" font-size="13.617" font-family="Helvetica">4</text>
<text xml:space="preserve" x="75.0959" y="24.8653" fill="black" font-size="13.617" font-family="Helvetica">5</text>
<g transform="rotate(-90,53.0724,24.1549)">
<text xml:space="preserve" x="53.0724" y="24.1549" fill="black" font-size="13.617" font-family="Helvetica"> </text>
</g>
<g transform="rotate(-90,60.8872,37.6532)">
<text xml:space="preserve" x="60.8872" y="37.6532" fill="black" font-size="9.24468" font-family="Helvetica">MB</text>
</g>
<g transform="rotate(-90,53.0724,41.2054)">
<text xml:space="preserve" x="53.0724" y="41.2054" fill="black" font-size="13.617" font-family="Helvetica">)</text>
</g>
<g transform="rotate(-90,68.702,50.4411)">
<text xml:space="preserve" x="68.702" y="50.4411" fill="black" font-size="9.24468" font-family="Helvetica">T</text>
</g>
<g transform="rotate(-90,60.8872,65.3603)">
<text xml:space="preserve" x="60.8872" y="65.3603" fill="black" font-size="13.617" font-family="Helvetica">dp</text>
</g>
<g transform="rotate(-90,35.3114,47.5993)">
<text xml:space="preserve" x="35.3114" y="47.5993" fill="black" font-size="6.32979" font-family="Helvetica">dir</text>
</g>
<g transform="rotate(-90,38.8636,52.5724)">
<text xml:space="preserve" x="38.8636" y="52.5724" fill="black" font-size="9.24468" font-family="Times">&#0947;</text>
</g>
<g transform="rotate(-90,46.6784,68.9124)">
<text xml:space="preserve" x="46.6784" y="68.9124" fill="black" font-size="13.617" font-family="Helvetica">dN</text>
</g>
<path d="M49.5202,68.9124v -27.7071" fill="none" stroke="black" stroke-width="2"/>
<g transform="rotate(-90,53.0724,73.1751)">
<text xml:space="preserve" x="53.0724" y="73.1751" fill="black" font-size="13.617" font-family="Helvetica"> </text>
</g>
<g transform="rotate(-90,65.1498,95.9091)">
<text xml:space="preserve" x="65.1498" y="95.9091" fill="black" font-size="9.24468" font-family="Helvetica">event</text>
</g>
<g transform="rotate(-90,60.8872,105.145)">
<text xml:space="preserve" x="60.8872" y="105.145" fill="black" font-size="13.617" font-family="Helvetica">N</text>
</g>
<g transform="rotate(-90,47.3889,91.6464)">
<text xml:space="preserve" x="47.3889" y="91.6464" fill="black" font-size="13.617" font-family="Helvetica">1</text>
</g>
<path d="M49.5202,105.145v -31.9697" fill="none" stroke="black" stroke-width="2"/>
<g transform="rotate(-90,53.0724,120.774)">
<text xml:space="preserve" x="53.0724" y="120.774" fill="black" font-size="13.617" font-family="Helvetica"> / (</text>
</g>
<g transform="rotate(-90,60.1768,138.535)">
<text xml:space="preserve" x="60.1768" y="138.535" fill="black" font-size="9.24468" font-family="Helvetica">cent</text>
</g>
<g transform="rotate(-90,53.0724,142.088)">
<text xml:space="preserve" x="53.0724" y="142.088" fill="black" font-size="13.617" font-family="Helvetica">)</text>
</g>
<g transform="rotate(-90,68.702,151.323)">
<text xml:space="preserve" x="68.702" y="151.323" fill="black" font-size="9.24468" font-family="Helvetica">T</text>
</g>
<g transform="rotate(-90,60.8872,166.242)">
<text xml:space="preserve" x="60.8872" y="166.242" fill="black" font-size="13.617" font-family="Helvetica">dp</text>
</g>
<g transform="rotate(-90,35.3114,148.481)">
<text xml:space="preserve" x="35.3114" y="148.481" fill="black" font-size="6.32979" font-family="Helvetica">dir</text>
</g>
<g transform="rotate(-90,38.8636,153.455)">
<text xml:space="preserve" x="38.8636" y="153.455" fill="black" font-size="9.24468" font-family="Times">&#0947;</text>
</g>
<g transform="rotate(-90,46.6784,169.795)">
<text xml:space="preserve" x="46.6784" y="169.795" fill="black" font-size="13.617" font-family="Helvetica">dN</text>
</g>
<path d="M49.5202,169.795v -27.7071" fill="none" stroke="black" stroke-width="2"/>
<g transform="rotate(-90,53.0724,174.057)">
<text xml:space="preserve" x="53.0724" y="174.057" fill="black" font-size="13.617" font-family="Helvetica"> </text>
</g>
<g transform="rotate(-90,65.1498,196.791)">
<text xml:space="preserve" x="65.1498" y="196.791" fill="black" font-size="9.24468" font-family="Helvetica">event</text>
</g>
<g transform="rotate(-90,60.8872,206.027)">
<text xml:space="preserve" x="60.8872" y="206.027" fill="black" font-size="13.617" font-family="Helvetica">N</text>
</g>
<g transform="rotate(-90,47.3889,192.529)">
<text xml:space="preserve" x="47.3889" y="192.529" fill="black" font-size="13.617" font-family="Helvetica">1</text>
</g>
<path d="M49.5202,206.027v -31.9697" fill="none" stroke="black" stroke-width="2"/>
<g transform="rotate(-90,53.0724,210.29)">
<text xml:space="preserve" x="53.0724" y="210.29" fill="black" font-size="13.617" font-family="Helvetica">(</text>
</g>
<path d="M482.39,359.481v -339.056" fill="none" stroke="black"/>
<path d="M468.273,359.481h 14.1165" fill="none" stroke="black"/>
<path d="M475.332,348.18h 7.05827" fill="none" stroke="black"/>
<path d="M475.332,336.878h 7.05827" fill="none" stroke="black"/>
<path d="M475.332,325.576h 7.05827" fill="none" stroke="black"/>
<path d="M475.332,314.274h 7.05827" fill="none" stroke="black"/>
<path d="M468.273,302.972h 14.1165" fill="none" stroke="black"/>
<path d="M475.332,291.67h 7.05827" fill="none" stroke="black"/>
<path d="M475.332,280.368h 7.05827" fill="none" stroke="black"/>
<path d="M475.332,269.066h 7.05827" fill="none" stroke="black"/>
<path d="M475.332,257.764h 7.05827" fill="none" stroke="black"/>
<path d="M468.273,246.463h 14.1165" fill="none" stroke="black"/>
<path d="M475.332,235.161h 7.05827" fill="none" stroke="black"/>
<path d="M475.332,223.859h 7.05827" fill="none" stroke="black"/>
<path d="M475.332,212.557h 7.05827" fill="none" stroke="black"/>
<path d="M475.332,201.255h 7.05827" fill="none" stroke="black"/>
<path d="M468.273,189.953h 14.1165" fill="none" stroke="black"/>
<path d="M475.332,178.651h 7.05827" fill="none" stroke="black"/>
<path d="M475.332,167.349h 7.05827" fill="none" stroke="black"/>
<path d="M475.332,156.048h 7.05827" fill="none" stroke="black"/>
<path d="M475.332,144.746h 7.05827" fill="none" stroke="black"/>
<path d="M468.273,133.444h 14.1165" fill="none" stroke="black"/>
<path d="M475.332,122.142h 7.05827" fill="none" stroke="black"/>
<path d="M475.332,110.84h 7.05827" fill="none" stroke="black"/>
<path d="M475.332,99.5382h 7.05827" fill="none" stroke="black"/>
<path d="M475.332,88.2363h 7.05827" fill="none" stroke="black"/>
<path d="M468.273,76.9345h 14.1165" fill="none" stroke="black"/>
<path d="M475.332,65.6326h 7.05827" fill="none" stroke="black"/>
<path d="M475.332,54.3307h 7.05827" fill="none" stroke="black"/>
<path d="M475.332,43.0288h 7.05827" fill="none" stroke="black"/>
<path d="M475.332,31.727h 7.05827" fill="none" stroke="black"/>
<path d="M468.273,20.4251h 14.1165" fill="none" stroke="black"/>
<path d="M85.5394,255.452h 2.11888" fill="none" stroke="#00cc00"/>
<path d="M93.3418,255.452h 2.11888" fill="none" stroke="#00cc00"/>
<g fill="#00cc00">
<polygon points=" 89.5527, 254.505 89.5527, 252.61 91.4473, 252.61 91.4473, 254.505 93.3418, 254.505 93.3418, 256.399 91.4473, 256.399 91.4473, 258.294 89.5527, 258.294 89.5527, 256.399 87.6582, 256.399 87.6582, 254.505"/>
</g>
<path d="M95.4606,256.776h 2.11888" fill="none" stroke="#00cc00"/>
<path d="M103.263,256.776h 2.11888" fill="none" stroke="#00cc00"/>
<g fill="#00cc00">
<polygon points=" 99.474, 255.828 99.474, 253.934 101.369, 253.934 101.369, 255.828 103.263, 255.828 103.263, 257.723 101.369, 257.723 101.369, 259.617 99.474, 259.617 99.474, 257.723 97.5795, 257.723 97.5795, 255.828"/>
</g>
<path d="M105.382,256.21h 2.11888" fill="none" stroke="#00cc00"/>
<path d="M113.184,256.21h 2.11888" fill="none" stroke="#00cc00"/>
<g fill="#00cc00">
<polygon points=" 109.395, 255.263 109.395, 253.368 111.29, 253.368 111.29, 255.263 113.184, 255.263 113.184, 257.157 111.29, 257.157 111.29, 259.052 109.395, 259.052 109.395, 257.157 107.501, 257.157 107.501, 255.263"/>
</g>
<path d="M115.303,255.61h 2.11888" fill="none" stroke="#00cc00"/>
<path d="M123.106,255.61h 2.11888" fill="none" stroke="#00cc00"/>
<g fill="#00cc00">
<polygon points=" 119.317, 254.663 119.317, 252.769 121.211, 252.769 121.211, 254.663 123.106, 254.663 123.106, 256.558 121.211, 256.558 121.211, 258.452 119.317, 258.452 119.317, 256.558 117.422, 256.558 117.422, 254.663"/>
</g>
<path d="M125.224,256.201h 7.07951" fill="none" stroke="#00cc00"/>
<path d="M137.987,256.201h 7.07951" fill="none" stroke="#00cc00"/>
<g fill="#00cc00">
<polygon points=" 134.198, 255.253 134.198, 253.359 136.093, 253.359 136.093, 255.253 137.987, 255.253 137.987, 257.148 136.093, 257.148 136.093, 259.042 134.198, 259.042 134.198, 257.148 132.304, 257.148 132.304, 255.253"/>
</g>
<path d="M145.067,258.328h 7.07951" fill="none" stroke="#00cc00"/>
<path d="M157.83,258.328h 7.07951" fill="none" stroke="#00cc00"/>
<g fill="#00cc00">
<polygon points=" 154.041, 257.381 154.041, 255.486 155.935, 255.486 155.935, 257.381 157.83, 257.381 157.83, 259.275 155.935, 259.275 155.935, 261.17 154.041, 261.17 154.041, 259.275 152.146, 259.275 152.146, 257.381"/>
</g>
<path d="M174.831,263.177v -0.981444" fill="none" stroke="#00cc00"/>
<path d="M174.831,256.512v -0.981444" fill="none" stroke="#00cc00"/>
<path d="M164.909,259.354h 7.07951" fill="none" stroke="#00cc00"/>
<path d="M177.672,259.354h 7.07951" fill="none" stroke="#00cc00"/>
<g fill="#00cc00">
<polygon points=" 173.883, 258.406 173.883, 256.512 175.778, 256.512 175.778, 258.406 177.672, 258.406 177.672, 260.301 175.778, 260.301 175.778, 262.195 173.883, 262.195 173.883, 260.301 171.989, 260.301 171.989, 258.406"/>
</g>
<path d="M204.594,269.636v -2.10909" fill="none" stroke="#00cc00"/>
<path d="M204.594,261.843v -2.10909" fill="none" stroke="#00cc00"/>
<path d="M184.752,264.685h 17.0008" fill="none" stroke="#00cc00"/>
<path d="M207.436,264.685h 17.0008" fill="none" stroke="#00cc00"/>
<g fill="#00cc00">
<polygon points=" 203.647, 263.738 203.647, 261.843 205.542, 261.843 205.542, 263.738 207.436, 263.738 207.436, 265.632 205.542, 265.632 205.542, 267.527 203.647, 267.527 203.647, 265.632 201.753, 265.632 201.753, 263.738"/>
</g>
<path d="M254.201,281.979v -5.29062" fill="none" stroke="#00cc00"/>
<path d="M254.201,271.005v -5.29062" fill="none" stroke="#00cc00"/>
<path d="M224.437,273.847h 26.922" fill="none" stroke="#00cc00"/>
<path d="M257.043,273.847h 26.922" fill="none" stroke="#00cc00"/>
<g fill="#00cc00">
<polygon points=" 253.254, 272.9 253.254, 271.005 255.148, 271.005 255.148, 272.9 257.043, 272.9 257.043, 274.794 255.148, 274.794 255.148, 276.689 253.254, 276.689 253.254, 274.794 251.359, 274.794 251.359, 272.9"/>
</g>
<path d="M333.571,276.557v -28.615" fill="none" stroke="#00cc00"/>
<path d="M333.571,242.258v -28.615" fill="none" stroke="#00cc00"/>
<path d="M283.965,245.1h 46.7645" fill="none" stroke="#00cc00"/>
<path d="M336.413,245.1h 46.7645" fill="none" stroke="#00cc00"/>
<g fill="#00cc00">
<polygon points=" 332.624, 244.153 332.624, 242.258 334.518, 242.258 334.518, 244.153 336.413, 244.153 336.413, 246.047 334.518, 246.047 334.518, 247.942 332.624, 247.942 332.624, 246.047 330.729, 246.047 330.729, 244.153"/>
</g>
<path d="M85.5394,252.098h 2.11888" fill="none" stroke="#33ff99"/>
<path d="M93.3418,252.098h 2.11888" fill="none" stroke="#33ff99"/>
<g fill="#33ff99">
<polygon points=" 89.5527, 251.151 89.5527, 249.256 91.4473, 249.256 91.4473, 251.151 93.3418, 251.151 93.3418, 253.045 91.4473, 253.045 91.4473, 254.94 89.5527, 254.94 89.5527, 253.045 87.6582, 253.045 87.6582, 251.151"/>
</g>
<path d="M95.4606,252.624h 2.11888" fill="none" stroke="#33ff99"/>
<path d="M103.263,252.624h 2.11888" fill="none" stroke="#33ff99"/>
<g fill="#33ff99">
<polygon points=" 99.474, 251.676 99.474, 249.782 101.369, 249.782 101.369, 251.676 103.263, 251.676 103.263, 253.571 101.369, 253.571 101.369, 255.465 99.474, 255.465 99.474, 253.571 97.5795, 253.571 97.5795, 251.676"/>
</g>
<path d="M105.382,253.077h 2.11888" fill="none" stroke="#33ff99"/>
<path d="M113.184,253.077h 2.11888" fill="none" stroke="#33ff99"/>
<g fill="#33ff99">
<polygon points=" 109.395, 252.13 109.395, 250.235 111.29, 250.235 111.29, 252.13 113.184, 252.13 113.184, 254.024 111.29, 254.024 111.29, 255.919 109.395, 255.919 109.395, 254.024 107.501, 254.024 107.501, 252.13"/>
</g>
<path d="M115.303,252.495h 2.11888" fill="none" stroke="#33ff99"/>
<path d="M123.106,252.495h 2.11888" fill="none" stroke="#33ff99"/>
<g fill="#33ff99">
<polygon points=" 119.317, 251.548 119.317, 249.654 121.211, 249.654 121.211, 251.548 123.106, 251.548 123.106, 253.443 121.211, 253.443 121.211, 255.337 119.317, 255.337 119.317, 253.443 117.422, 253.443 117.422, 251.548"/>
</g>
<path d="M125.224,253.054h 7.07951" fill="none" stroke="#33ff99"/>
<path d="M137.987,253.054h 7.07951" fill="none" stroke="#33ff99"/>
<g fill="#33ff99">
<polygon points=" 134.198, 252.106 134.198, 250.212 136.093, 250.212 136.093, 252.106 137.987, 252.106 137.987, 254.001 136.093, 254.001 136.093, 255.895 134.198, 255.895 134.198, 254.001 132.304, 254.001 132.304, 252.106"/>
</g>
<path d="M145.067,253.989h 7.07951" fill="none" stroke="#33ff99"/>
<path d="M157.83,253.989h 7.07951" fill="none" stroke="#33ff99"/>
<g fill="#33ff99">
<polygon points=" 154.041, 253.042 154.041, 251.147 155.935, 251.147 155.935, 253.042 157.83, 253.042 157.83, 254.936 155.935, 254.936 155.935, 256.831 154.041, 256.831 154.041, 254.936 152.146, 254.936 152.146, 253.042"/>
</g>
<path d="M174.831,261.493v -1.3713" fill="none" stroke="#33ff99"/>
<path d="M174.831,254.438v -1.3713" fill="none" stroke="#33ff99"/>
<path d="M164.909,257.28h 7.07951" fill="none" stroke="#33ff99"/>
<path d="M177.672,257.28h 7.07951" fill="none" stroke="#33ff99"/>
<g fill="#33ff99">
<polygon points=" 173.883, 256.332 173.883, 254.438 175.778, 254.438 175.778, 256.332 177.672, 256.332 177.672, 258.227 175.778, 258.227 175.778, 260.121 173.883, 260.121 173.883, 258.227 171.989, 258.227 171.989, 256.332"/>
</g>
<path d="M204.594,264.441v -2.92494" fill="none" stroke="#33ff99"/>
<path d="M204.594,255.832v -2.92494" fill="none" stroke="#33ff99"/>
<path d="M184.752,258.674h 17.0008" fill="none" stroke="#33ff99"/>
<path d="M207.436,258.674h 17.0008" fill="none" stroke="#33ff99"/>
<g fill="#33ff99">
<polygon points=" 203.647, 257.727 203.647, 255.832 205.542, 255.832 205.542, 257.727 207.436, 257.727 207.436, 259.621 205.542, 259.621 205.542, 261.516 203.647, 261.516 203.647, 259.621 201.753, 259.621 201.753, 257.727"/>
</g>
<path d="M254.201,261.473v -9.41533" fill="none" stroke="#33ff99"/>
<path d="M254.201,246.374v -9.41533" fill="none" stroke="#33ff99"/>
<path d="M224.437,249.216h 26.922" fill="none" stroke="#33ff99"/>
<path d="M257.043,249.216h 26.922" fill="none" stroke="#33ff99"/>
<g fill="#33ff99">
<polygon points=" 253.254, 248.269 253.254, 246.374 255.148, 246.374 255.148, 248.269 257.043, 248.269 257.043, 250.163 255.148, 250.163 255.148, 252.058 253.254, 252.058 253.254, 250.163 251.359, 250.163 251.359, 248.269"/>
</g>
<path d="M333.571,294.086v -22.2586" fill="none" stroke="#33ff99"/>
<path d="M333.571,266.144v -22.2586" fill="none" stroke="#33ff99"/>
<path d="M283.965,268.986h 46.7645" fill="none" stroke="#33ff99"/>
<path d="M336.413,268.986h 46.7645" fill="none" stroke="#33ff99"/>
<g fill="#33ff99">
<polygon points=" 332.624, 268.039 332.624, 266.144 334.518, 266.144 334.518, 268.039 336.413, 268.039 336.413, 269.933 334.518, 269.933 334.518, 271.828 332.624, 271.828 332.624, 269.933 330.729, 269.933 330.729, 268.039"/>
</g>
<path d="M432.783,322.25v -141.052" fill="none" stroke="#33ff99"/>
<path d="M432.783,175.515v -141.052" fill="none" stroke="#33ff99"/>
<path d="M383.177,178.356h 46.7645" fill="none" stroke="#33ff99"/>
<path d="M435.625,178.356h 46.7645" fill="none" stroke="#33ff99"/>
<g fill="#33ff99">
<polygon points=" 431.836, 177.409 431.836, 175.515 433.731, 175.515 433.731, 177.409 435.625, 177.409 435.625, 179.304 433.731, 179.304 433.731, 181.198 431.836, 181.198 431.836, 179.304 429.942, 179.304 429.942, 177.409"/>
</g>
<path d="M85.5394,248.538h 2.11888" fill="none" stroke="#00cccc"/>
<path d="M93.3418,248.538h 2.11888" fill="none" stroke="#00cccc"/>
<g stroke="#00cccc" stroke-width="1" fill="none">
<polygon points=" 89.5527, 247.591 89.5527, 245.696 91.4473, 245.696 91.4473, 247.591 93.3418, 247.591 93.3418, 249.485 91.4473, 249.485 91.4473, 251.38 89.5527, 251.38 89.5527, 249.485 87.6582, 249.485 87.6582, 247.591"/>
</g>
<path d="M95.4606,249.617h 2.11888" fill="none" stroke="#00cccc"/>
<path d="M103.263,249.617h 2.11888" fill="none" stroke="#00cccc"/>
<g stroke="#00cccc" stroke-width="1" fill="none">
<polygon points=" 99.474, 248.67 99.474, 246.776 101.369, 246.776 101.369, 248.67 103.263, 248.67 103.263, 250.565 101.369, 250.565 101.369, 252.459 99.474, 252.459 99.474, 250.565 97.5795, 250.565 97.5795, 248.67"/>
</g>
<path d="M105.382,249.17h 2.11888" fill="none" stroke="#00cccc"/>
<path d="M113.184,249.17h 2.11888" fill="none" stroke="#00cccc"/>
<g stroke="#00cccc" stroke-width="1" fill="none">
<polygon points=" 109.395, 248.222 109.395, 246.328 111.29, 246.328 111.29, 248.222 113.184, 248.222 113.184, 250.117 111.29, 250.117 111.29, 252.011 109.395, 252.011 109.395, 250.117 107.501, 250.117 107.501, 248.222"/>
</g>
<path d="M115.303,248.573h 2.11888" fill="none" stroke="#00cccc"/>
<path d="M123.106,248.573h 2.11888" fill="none" stroke="#00cccc"/>
<g stroke="#00cccc" stroke-width="1" fill="none">
<polygon points=" 119.317, 247.625 119.317, 245.731 121.211, 245.731 121.211, 247.625 123.106, 247.625 123.106, 249.52 121.211, 249.52 121.211, 251.414 119.317, 251.414 119.317, 249.52 117.422, 249.52 117.422, 247.625"/>
</g>
<path d="M125.224,248.705h 7.07951" fill="none" stroke="#00cccc"/>
<path d="M137.987,248.705h 7.07951" fill="none" stroke="#00cccc"/>
<g stroke="#00cccc" stroke-width="1" fill="none">
<polygon points=" 134.198, 247.758 134.198, 245.864 136.093, 245.864 136.093, 247.758 137.987, 247.758 137.987, 249.653 136.093, 249.653 136.093, 251.547 134.198, 251.547 134.198, 249.653 132.304, 249.653 132.304, 247.758"/>
</g>
<path d="M145.067,246.84h 7.07951" fill="none" stroke="#00cccc"/>
<path d="M157.83,246.84h 7.07951" fill="none" stroke="#00cccc"/>
<g stroke="#00cccc" stroke-width="1" fill="none">
<polygon points=" 154.041, 245.892 154.041, 243.998 155.935, 243.998 155.935, 245.892 157.83, 245.892 157.83, 247.787 155.935, 247.787 155.935, 249.681 154.041, 249.681 154.041, 247.787 152.146, 247.787 152.146, 245.892"/>
</g>
<path d="M174.831,256.344v -0.702785" fill="none" stroke="#00cccc"/>
<path d="M174.831,249.958v -0.702785" fill="none" stroke="#00cccc"/>
<path d="M164.909,252.799h 7.07951" fill="none" stroke="#00cccc"/>
<path d="M177.672,252.799h 7.07951" fill="none" stroke="#00cccc"/>
<g stroke="#00cccc" stroke-width="1" fill="none">
<polygon points=" 173.883, 251.852 173.883, 249.958 175.778, 249.958 175.778, 251.852 177.672, 251.852 177.672, 253.747 175.778, 253.747 175.778, 255.641 173.883, 255.641 173.883, 253.747 171.989, 253.747 171.989, 251.852"/>
</g>
<path d="M204.594,254.707v -2.2797" fill="none" stroke="#00cccc"/>
<path d="M204.594,246.743v -2.2797" fill="none" stroke="#00cccc"/>
<path d="M184.752,249.585h 17.0008" fill="none" stroke="#00cccc"/>
<path d="M207.436,249.585h 17.0008" fill="none" stroke="#00cccc"/>
<g stroke="#00cccc" stroke-width="1" fill="none">
<polygon points=" 203.647, 248.638 203.647, 246.743 205.542, 246.743 205.542, 248.638 207.436, 248.638 207.436, 250.532 205.542, 250.532 205.542, 252.427 203.647, 252.427 203.647, 250.532 201.753, 250.532 201.753, 248.638"/>
</g>
<path d="M254.201,268.406v -5.78217" fill="none" stroke="#00cccc"/>
<path d="M254.201,256.94v -5.78217" fill="none" stroke="#00cccc"/>
<path d="M224.437,259.782h 26.922" fill="none" stroke="#00cccc"/>
<path d="M257.043,259.782h 26.922" fill="none" stroke="#00cccc"/>
<g stroke="#00cccc" stroke-width="1" fill="none">
<polygon points=" 253.254, 258.835 253.254, 256.94 255.148, 256.94 255.148, 258.835 257.043, 258.835 257.043, 260.729 255.148, 260.729 255.148, 262.624 253.254, 262.624 253.254, 260.729 251.359, 260.729 251.359, 258.835"/>
</g>
<path d="M333.571,255.943v -30.2277" fill="none" stroke="#00cccc"/>
<path d="M333.571,220.032v -30.2277" fill="none" stroke="#00cccc"/>
<path d="M283.965,222.874h 46.7645" fill="none" stroke="#00cccc"/>
<path d="M336.413,222.874h 46.7645" fill="none" stroke="#00cccc"/>
<g stroke="#00cccc" stroke-width="1" fill="none">
<polygon points=" 332.624, 221.927 332.624, 220.032 334.518, 220.032 334.518, 221.927 336.413, 221.927 336.413, 223.821 334.518, 223.821 334.518, 225.716 332.624, 225.716 332.624, 223.821 330.729, 223.821 330.729, 221.927"/>
</g>
<path d="M432.783,314.331v -81.9403" fill="none" stroke="#00cccc"/>
<path d="M432.783,226.707v -81.9403" fill="none" stroke="#00cccc"/>
<path d="M383.177,229.549h 46.7645" fill="none" stroke="#00cccc"/>
<path d="M435.625,229.549h 46.7645" fill="none" stroke="#00cccc"/>
<g stroke="#00cccc" stroke-width="1" fill="none">
<polygon points=" 431.836, 228.601 431.836, 226.707 433.731, 226.707 433.731, 228.601 435.625, 228.601 435.625, 230.496 433.731, 230.496 433.731, 232.39 431.836, 232.39 431.836, 230.496 429.942, 230.496 429.942, 228.601"/>
</g>
<path d="M85.5394,244.145h 3.53975" fill="none" stroke="#0033ff"/>
<path d="M91.9209,244.145h 3.53975" fill="none" stroke="#0033ff"/>
<g fill="#0033ff">
<polygon points=" 90.5, 245.566 89.0791, 246.986 87.6582, 245.566 89.0791, 244.145 87.6582, 242.724 89.0791, 241.303 90.5, 242.724 91.9209, 241.303 93.3418, 242.724 91.9209, 244.145 93.3418, 245.566 91.9209, 246.986 90.5, 245.566"/>
</g>
<path d="M95.4606,243.458h 3.53975" fill="none" stroke="#0033ff"/>
<path d="M101.842,243.458h 3.53975" fill="none" stroke="#0033ff"/>
<g fill="#0033ff">
<polygon points=" 100.421, 244.879 99.0004, 246.3 97.5795, 244.879 99.0004, 243.458 97.5795, 242.037 99.0004, 240.616 100.421, 242.037 101.842, 240.616 103.263, 242.037 101.842, 243.458 103.263, 244.879 101.842, 246.3 100.421, 244.879"/>
</g>
<path d="M105.382,243.758h 3.53975" fill="none" stroke="#0033ff"/>
<path d="M111.763,243.758h 3.53975" fill="none" stroke="#0033ff"/>
<g fill="#0033ff">
<polygon points=" 110.343, 245.179 108.922, 246.6 107.501, 245.179 108.922, 243.758 107.501, 242.337 108.922, 240.916 110.343, 242.337 111.763, 240.916 113.184, 242.337 111.763, 243.758 113.184, 245.179 111.763, 246.6 110.343, 245.179"/>
</g>
<path d="M115.303,243.529h 3.53975" fill="none" stroke="#0033ff"/>
<path d="M121.685,243.529h 3.53975" fill="none" stroke="#0033ff"/>
<g fill="#0033ff">
<polygon points=" 120.264, 244.949 118.843, 246.37 117.422, 244.949 118.843, 243.529 117.422, 242.108 118.843, 240.687 120.264, 242.108 121.685, 240.687 123.106, 242.108 121.685, 243.529 123.106, 244.949 121.685, 246.37 120.264, 244.949"/>
</g>
<path d="M125.224,243.796h 8.50039" fill="none" stroke="#0033ff"/>
<path d="M136.567,243.796h 8.50039" fill="none" stroke="#0033ff"/>
<g fill="#0033ff">
<polygon points=" 135.146, 245.217 133.725, 246.638 132.304, 245.217 133.725, 243.796 132.304, 242.375 133.725, 240.954 135.146, 242.375 136.567, 240.954 137.987, 242.375 136.567, 243.796 137.987, 245.217 136.567, 246.638 135.146, 245.217"/>
</g>
<path d="M154.988,248.532v -0.94586" fill="none" stroke="#0033ff"/>
<path d="M154.988,244.744v -0.94586" fill="none" stroke="#0033ff"/>
<path d="M145.067,246.165h 8.50039" fill="none" stroke="#0033ff"/>
<path d="M156.409,246.165h 8.50039" fill="none" stroke="#0033ff"/>
<g fill="#0033ff">
<polygon points=" 154.988, 247.586 153.567, 249.007 152.146, 247.586 153.567, 246.165 152.146, 244.744 153.567, 243.323 154.988, 244.744 156.409, 243.323 157.83, 244.744 156.409, 246.165 157.83, 247.586 156.409, 249.007 154.988, 247.586"/>
</g>
<path d="M174.831,242.672v -3.16299" fill="none" stroke="#0033ff"/>
<path d="M174.831,236.667v -3.16299" fill="none" stroke="#0033ff"/>
<path d="M164.909,238.088h 8.50039" fill="none" stroke="#0033ff"/>
<path d="M176.252,238.088h 8.50039" fill="none" stroke="#0033ff"/>
<g fill="#0033ff">
<polygon points=" 174.831, 239.509 173.41, 240.93 171.989, 239.509 173.41, 238.088 171.989, 236.667 173.41, 235.246 174.831, 236.667 176.252, 235.246 177.672, 236.667 176.252, 238.088 177.672, 239.509 176.252, 240.93 174.831, 239.509"/>
</g>
<path d="M204.594,250.664v -4.57232" fill="none" stroke="#0033ff"/>
<path d="M204.594,243.25v -4.57232" fill="none" stroke="#0033ff"/>
<path d="M184.752,244.671h 18.4216" fill="none" stroke="#0033ff"/>
<path d="M206.015,244.671h 18.4216" fill="none" stroke="#0033ff"/>
<g fill="#0033ff">
<polygon points=" 204.594, 246.092 203.174, 247.513 201.753, 246.092 203.174, 244.671 201.753, 243.25 203.174, 241.829 204.594, 243.25 206.015, 241.829 207.436, 243.25 206.015, 244.671 207.436, 246.092 206.015, 247.513 204.594, 246.092"/>
</g>
<path d="M254.201,250.018v -10.7888" fill="none" stroke="#0033ff"/>
<path d="M254.201,236.388v -10.7888" fill="none" stroke="#0033ff"/>
<path d="M224.437,237.809h 28.3429" fill="none" stroke="#0033ff"/>
<path d="M255.622,237.809h 28.3429" fill="none" stroke="#0033ff"/>
<g fill="#0033ff">
<polygon points=" 254.201, 239.229 252.78, 240.65 251.359, 239.229 252.78, 237.809 251.359, 236.388 252.78, 234.967 254.201, 236.388 255.622, 234.967 257.043, 236.388 255.622, 237.809 257.043, 239.229 255.622, 240.65 254.201, 239.229"/>
</g>
<path d="M333.571,270.306v -30.6537" fill="none" stroke="#0033ff"/>
<path d="M333.571,236.811v -30.6537" fill="none" stroke="#0033ff"/>
<path d="M283.965,238.232h 48.1854" fill="none" stroke="#0033ff"/>
<path d="M334.992,238.232h 48.1854" fill="none" stroke="#0033ff"/>
<g fill="#0033ff">
<polygon points=" 333.571, 239.653 332.15, 241.073 330.729, 239.653 332.15, 238.232 330.729, 236.811 332.15, 235.39 333.571, 236.811 334.992, 235.39 336.413, 236.811 334.992, 238.232 336.413, 239.653 334.992, 241.073 333.571, 239.653"/>
</g>
<path d="M85.5394,238.095h 2.11888" fill="none" stroke="#0000ff"/>
<path d="M93.3418,238.095h 2.11888" fill="none" stroke="#0000ff"/>
<g stroke="#0000ff" stroke-width="1" fill="none">
<polygon points=" 89.5527, 237.148 89.5527, 235.254 91.4473, 235.254 91.4473, 237.148 93.3418, 237.148 93.3418, 239.043 91.4473, 239.043 91.4473, 240.937 89.5527, 240.937 89.5527, 239.043 87.6582, 239.043 87.6582, 237.148"/>
</g>
<path d="M95.4606,236.794h 2.11888" fill="none" stroke="#0000ff"/>
<path d="M103.263,236.794h 2.11888" fill="none" stroke="#0000ff"/>
<g stroke="#0000ff" stroke-width="1" fill="none">
<polygon points=" 99.474, 235.847 99.474, 233.952 101.369, 233.952 101.369, 235.847 103.263, 235.847 103.263, 237.741 101.369, 237.741 101.369, 239.636 99.474, 239.636 99.474, 237.741 97.5795, 237.741 97.5795, 235.847"/>
</g>
<path d="M105.382,236.43h 2.11888" fill="none" stroke="#0000ff"/>
<path d="M113.184,236.43h 2.11888" fill="none" stroke="#0000ff"/>
<g stroke="#0000ff" stroke-width="1" fill="none">
<polygon points=" 109.395, 235.482 109.395, 233.588 111.29, 233.588 111.29, 235.482 113.184, 235.482 113.184, 237.377 111.29, 237.377 111.29, 239.271 109.395, 239.271 109.395, 237.377 107.501, 237.377 107.501, 235.482"/>
</g>
<path d="M115.303,238.996h 2.11888" fill="none" stroke="#0000ff"/>
<path d="M123.106,238.996h 2.11888" fill="none" stroke="#0000ff"/>
<g stroke="#0000ff" stroke-width="1" fill="none">
<polygon points=" 119.317, 238.049 119.317, 236.155 121.211, 236.155 121.211, 238.049 123.106, 238.049 123.106, 239.944 121.211, 239.944 121.211, 241.838 119.317, 241.838 119.317, 239.944 117.422, 239.944 117.422, 238.049"/>
</g>
<path d="M125.224,238.248h 7.07951" fill="none" stroke="#0000ff"/>
<path d="M137.987,238.248h 7.07951" fill="none" stroke="#0000ff"/>
<g stroke="#0000ff" stroke-width="1" fill="none">
<polygon points=" 134.198, 237.3 134.198, 235.406 136.093, 235.406 136.093, 237.3 137.987, 237.3 137.987, 239.195 136.093, 239.195 136.093, 241.089 134.198, 241.089 134.198, 239.195 132.304, 239.195 132.304, 237.3"/>
</g>
<path d="M154.988,241.067v -0.158681" fill="none" stroke="#0000ff"/>
<path d="M154.988,235.225v -0.158681" fill="none" stroke="#0000ff"/>
<path d="M145.067,238.067h 7.07951" fill="none" stroke="#0000ff"/>
<path d="M157.83,238.067h 7.07951" fill="none" stroke="#0000ff"/>
<g stroke="#0000ff" stroke-width="1" fill="none">
<polygon points=" 154.041, 237.12 154.041, 235.225 155.935, 235.225 155.935, 237.12 157.83, 237.12 157.83, 239.014 155.935, 239.014 155.935, 240.909 154.041, 240.909 154.041, 239.014 152.146, 239.014 152.146, 237.12"/>
</g>
<path d="M174.831,235.225v -2.92908" fill="none" stroke="#0000ff"/>
<path d="M174.831,226.612v -2.92908" fill="none" stroke="#0000ff"/>
<path d="M164.909,229.454h 7.07951" fill="none" stroke="#0000ff"/>
<path d="M177.672,229.454h 7.07951" fill="none" stroke="#0000ff"/>
<g stroke="#0000ff" stroke-width="1" fill="none">
<polygon points=" 173.883, 228.507 173.883, 226.612 175.778, 226.612 175.778, 228.507 177.672, 228.507 177.672, 230.401 175.778, 230.401 175.778, 232.296 173.883, 232.296 173.883, 230.401 171.989, 230.401 171.989, 228.507"/>
</g>
<path d="M204.594,239.242v -5.07586" fill="none" stroke="#0000ff"/>
<path d="M204.594,228.483v -5.07586" fill="none" stroke="#0000ff"/>
<path d="M184.752,231.325h 17.0008" fill="none" stroke="#0000ff"/>
<path d="M207.436,231.325h 17.0008" fill="none" stroke="#0000ff"/>
<g stroke="#0000ff" stroke-width="1" fill="none">
<polygon points=" 203.647, 230.377 203.647, 228.483 205.542, 228.483 205.542, 230.377 207.436, 230.377 207.436, 232.272 205.542, 232.272 205.542, 234.166 203.647, 234.166 203.647, 232.272 201.753, 232.272 201.753, 230.377"/>
</g>
<path d="M254.201,252.08v -11.4748" fill="none" stroke="#0000ff"/>
<path d="M254.201,234.922v -11.4748" fill="none" stroke="#0000ff"/>
<path d="M224.437,237.763h 26.922" fill="none" stroke="#0000ff"/>
<path d="M257.043,237.763h 26.922" fill="none" stroke="#0000ff"/>
<g stroke="#0000ff" stroke-width="1" fill="none">
<polygon points=" 253.254, 236.816 253.254, 234.922 255.148, 234.922 255.148, 236.816 257.043, 236.816 257.043, 238.711 255.148, 238.711 255.148, 240.605 253.254, 240.605 253.254, 238.711 251.359, 238.711 251.359, 236.816"/>
</g>
<path d="M333.571,303.397v -16.4786" fill="none" stroke="#0000ff"/>
<path d="M333.571,281.235v -16.4786" fill="none" stroke="#0000ff"/>
<path d="M283.965,284.076h 46.7645" fill="none" stroke="#0000ff"/>
<path d="M336.413,284.076h 46.7645" fill="none" stroke="#0000ff"/>
<g stroke="#0000ff" stroke-width="1" fill="none">
<polygon points=" 332.624, 283.129 332.624, 281.235 334.518, 281.235 334.518, 283.129 336.413, 283.129 336.413, 285.024 334.518, 285.024 334.518, 286.918 332.624, 286.918 332.624, 285.024 330.729, 285.024 330.729, 283.129"/>
</g>
<text xml:space="preserve" x="232.813" y="51.1515" fill="black" font-size="11.7432" font-family="Helvetica">PYTHIA8, pAu200GeV with option3</text>
<text xml:space="preserve" x="270.466" y="65.3603" fill="black" font-size="11.7432" font-family="Helvetica">|&lt;1</text>
<text xml:space="preserve" x="264.072" y="65.3603" fill="black" font-size="11.7432" font-family="Times">&#0951;</text>
<text xml:space="preserve" x="247.022" y="65.3603" fill="black" font-size="11.7432" font-family="Helvetica"> in |</text>
<text xml:space="preserve" x="238.497" y="60.3872" fill="black" font-size="7.99544" font-family="Helvetica">dir</text>
<text xml:space="preserve" x="232.813" y="65.3603" fill="black" font-size="11.7432" font-family="Times">&#0947;</text>
<text xml:space="preserve" x="283.965" y="80.2794" fill="black" font-size="11.7432" font-family="Helvetica">centrality: 0~10%</text>
<g fill="#00cc00">
<polygon points=" 254.671, 76.3763 254.671, 74.4818 256.565, 74.4818 256.565, 76.3763 258.46, 76.3763 258.46, 78.2708 256.565, 78.2708 256.565, 80.1653 254.671, 80.1653 254.671, 78.2708 252.776, 78.2708 252.776, 76.3763"/>
</g>
<text xml:space="preserve" x="283.965" y="94.4882" fill="black" font-size="11.7432" font-family="Helvetica">centrality: 10~20%</text>
<g fill="#33ff99">
<polygon points=" 254.671, 90.9656 254.671, 89.0711 256.565, 89.0711 256.565, 90.9656 258.46, 90.9656 258.46, 92.8601 256.565, 92.8601 256.565, 94.7546 254.671, 94.7546 254.671, 92.8601 252.776, 92.8601 252.776, 90.9656"/>
</g>
<text xml:space="preserve" x="283.965" y="109.407" fill="black" font-size="11.7432" font-family="Helvetica">centrality: 20~40%</text>
<g stroke="#00cccc" stroke-width="1" fill="none">
<polygon points=" 254.671, 105.555 254.671, 103.66 256.565, 103.66 256.565, 105.555 258.46, 105.555 258.46, 107.449 256.565, 107.449 256.565, 109.344 254.671, 109.344 254.671, 107.449 252.776, 107.449 252.776, 105.555"/>
</g>
<text xml:space="preserve" x="283.965" y="124.327" fill="black" font-size="11.7432" font-family="Helvetica">centrality: 40~60%</text>
<g fill="#0033ff">
<polygon points=" 255.618, 122.512 254.197, 123.933 252.776, 122.512 254.197, 121.092 252.776, 119.671 254.197, 118.25 255.618, 119.671 257.039, 118.25 258.46, 119.671 257.039, 121.092 258.46, 122.512 257.039, 123.933 255.618, 122.512"/>
</g>
<text xml:space="preserve" x="283.965" y="138.535" fill="black" font-size="11.7432" font-family="Helvetica">centrality: 60~80%</text>
<g stroke="#0000ff" stroke-width="1" fill="none">
<polygon points=" 254.671, 134.734 254.671, 132.839 256.565, 132.839 256.565, 134.734 258.46, 134.734 258.46, 136.628 256.565, 136.628 256.565, 138.523 254.671, 138.523 254.671, 136.628 252.776, 136.628 252.776, 134.734"/>
</g></svg>
