<?xml version="1.0" standalone="no"?>
<svg width="567.429" height="409.002" viewBox="0 0 567.429 409.002" xmlns="http://www.w3.org/2000/svg" shape-rendering="crispEdges">
<title>
/Users/jinhyunpark/npl/gitHub/git_share/Centrality_dependent_BiasCorrection/plots/plots_scaled-dNdpT/scaledYield_highpT_pion0_byCentrality.svg
</title>
<desc>
Creator: ROOT Version 6.28/04
CreationDate: Mon Sep 25 12:36:46 2023</desc>
<defs>
</defs>
<rect x="0.5" y="0" width="566.929" height="408.502" fill="white"/>
<rect x="85.5394" y="20.4251" width="396.85" height="339.056" fill="white"/>
<rect x="85.5394" y="20.4251" width="396.85" height="339.056" fill="none" stroke="black"/>
<rect x="85.5394" y="20.4251" width="396.85" height="339.056" fill="white"/>
<rect x="85.5394" y="20.4251" width="396.85" height="339.056" fill="none" stroke="black"/>
<path d="M85.5394,359.481h 396.85" fill="none" stroke="black"/>
<path d="M85.5394,350.903v 8.57853" fill="none" stroke="black"/>
<path d="M96.563,355.192v 4.28927" fill="none" stroke="black"/>
<path d="M107.587,355.192v 4.28927" fill="none" stroke="black"/>
<path d="M118.61,355.192v 4.28927" fill="none" stroke="black"/>
<path d="M129.634,350.903v 8.57853" fill="none" stroke="black"/>
<path d="M140.657,355.192v 4.28927" fill="none" stroke="black"/>
<path d="M151.681,355.192v 4.28927" fill="none" stroke="black"/>
<path d="M162.705,355.192v 4.28927" fill="none" stroke="black"/>
<path d="M173.728,350.903v 8.57853" fill="none" stroke="black"/>
<path d="M184.752,355.192v 4.28927" fill="none" stroke="black"/>
<path d="M195.776,355.192v 4.28927" fill="none" stroke="black"/>
<path d="M206.799,355.192v 4.28927" fill="none" stroke="black"/>
<path d="M217.823,350.903v 8.57853" fill="none" stroke="black"/>
<path d="M228.846,355.192v 4.28927" fill="none" stroke="black"/>
<path d="M239.87,355.192v 4.28927" fill="none" stroke="black"/>
<path d="M250.894,355.192v 4.28927" fill="none" stroke="black"/>
<path d="M261.917,350.903v 8.57853" fill="none" stroke="black"/>
<path d="M272.941,355.192v 4.28927" fill="none" stroke="black"/>
<path d="M283.965,355.192v 4.28927" fill="none" stroke="black"/>
<path d="M294.988,355.192v 4.28927" fill="none" stroke="black"/>
<path d="M306.012,350.903v 8.57853" fill="none" stroke="black"/>
<path d="M317.035,355.192v 4.28927" fill="none" stroke="black"/>
<path d="M328.059,355.192v 4.28927" fill="none" stroke="black"/>
<path d="M339.083,355.192v 4.28927" fill="none" stroke="black"/>
<path d="M350.106,350.903v 8.57853" fill="none" stroke="black"/>
<path d="M361.13,355.192v 4.28927" fill="none" stroke="black"/>
<path d="M372.154,355.192v 4.28927" fill="none" stroke="black"/>
<path d="M383.177,355.192v 4.28927" fill="none" stroke="black"/>
<path d="M394.201,350.903v 8.57853" fill="none" stroke="black"/>
<path d="M405.224,355.192v 4.28927" fill="none" stroke="black"/>
<path d="M416.248,355.192v 4.28927" fill="none" stroke="black"/>
<path d="M427.272,355.192v 4.28927" fill="none" stroke="black"/>
<path d="M438.295,350.903v 8.57853" fill="none" stroke="black"/>
<path d="M449.319,355.192v 4.28927" fill="none" stroke="black"/>
<path d="M460.343,355.192v 4.28927" fill="none" stroke="black"/>
<path d="M471.366,355.192v 4.28927" fill="none" stroke="black"/>
<path d="M482.39,350.903v 8.57853" fill="none" stroke="black"/>
<text xml:space="preserve" x="81.4899" y="372.269" fill="black" font-size="13.617" font-family="Helvetica">2</text>
<text xml:space="preserve" x="125.537" y="372.269" fill="black" font-size="13.617" font-family="Helvetica">4</text>
<text xml:space="preserve" x="169.584" y="372.269" fill="black" font-size="13.617" font-family="Helvetica">6</text>
<text xml:space="preserve" x="213.631" y="372.269" fill="black" font-size="13.617" font-family="Helvetica">8</text>
<text xml:space="preserve" x="253.416" y="372.269" fill="black" font-size="13.617" font-family="Helvetica">10</text>
<text xml:space="preserve" x="298.173" y="372.269" fill="black" font-size="13.617" font-family="Helvetica">12</text>
<text xml:space="preserve" x="342.22" y="372.269" fill="black" font-size="13.617" font-family="Helvetica">14</text>
<text xml:space="preserve" x="386.268" y="372.269" fill="black" font-size="13.617" font-family="Helvetica">16</text>
<text xml:space="preserve" x="430.315" y="372.269" fill="black" font-size="13.617" font-family="Helvetica">18</text>
<text xml:space="preserve" x="474.362" y="372.269" fill="black" font-size="13.617" font-family="Helvetica">20</text>
<text xml:space="preserve" x="436.709" y="384.347" fill="black" font-size="13.617" font-family="Helvetica">(GeV/c)</text>
<text xml:space="preserve" x="431.025" y="392.162" fill="black" font-size="9.24468" font-family="Helvetica">T</text>
<text xml:space="preserve" x="423.21" y="384.347" fill="black" font-size="13.617" font-family="Helvetica">p</text>
<path d="M85.5394,20.4251h 396.85" fill="none" stroke="black"/>
<path d="M85.5394,29.0036v -8.57853" fill="none" stroke="black"/>
<path d="M96.563,24.7143v -4.28927" fill="none" stroke="black"/>
<path d="M107.587,24.7143v -4.28927" fill="none" stroke="black"/>
<path d="M118.61,24.7143v -4.28927" fill="none" stroke="black"/>
<path d="M129.634,29.0036v -8.57853" fill="none" stroke="black"/>
<path d="M140.657,24.7143v -4.28927" fill="none" stroke="black"/>
<path d="M151.681,24.7143v -4.28927" fill="none" stroke="black"/>
<path d="M162.705,24.7143v -4.28927" fill="none" stroke="black"/>
<path d="M173.728,29.0036v -8.57853" fill="none" stroke="black"/>
<path d="M184.752,24.7143v -4.28927" fill="none" stroke="black"/>
<path d="M195.776,24.7143v -4.28927" fill="none" stroke="black"/>
<path d="M206.799,24.7143v -4.28927" fill="none" stroke="black"/>
<path d="M217.823,29.0036v -8.57853" fill="none" stroke="black"/>
<path d="M228.846,24.7143v -4.28927" fill="none" stroke="black"/>
<path d="M239.87,24.7143v -4.28927" fill="none" stroke="black"/>
<path d="M250.894,24.7143v -4.28927" fill="none" stroke="black"/>
<path d="M261.917,29.0036v -8.57853" fill="none" stroke="black"/>
<path d="M272.941,24.7143v -4.28927" fill="none" stroke="black"/>
<path d="M283.965,24.7143v -4.28927" fill="none" stroke="black"/>
<path d="M294.988,24.7143v -4.28927" fill="none" stroke="black"/>
<path d="M306.012,29.0036v -8.57853" fill="none" stroke="black"/>
<path d="M317.035,24.7143v -4.28927" fill="none" stroke="black"/>
<path d="M328.059,24.7143v -4.28927" fill="none" stroke="black"/>
<path d="M339.083,24.7143v -4.28927" fill="none" stroke="black"/>
<path d="M350.106,29.0036v -8.57853" fill="none" stroke="black"/>
<path d="M361.13,24.7143v -4.28927" fill="none" stroke="black"/>
<path d="M372.154,24.7143v -4.28927" fill="none" stroke="black"/>
<path d="M383.177,24.7143v -4.28927" fill="none" stroke="black"/>
<path d="M394.201,29.0036v -8.57853" fill="none" stroke="black"/>
<path d="M405.224,24.7143v -4.28927" fill="none" stroke="black"/>
<path d="M416.248,24.7143v -4.28927" fill="none" stroke="black"/>
<path d="M427.272,24.7143v -4.28927" fill="none" stroke="black"/>
<path d="M438.295,29.0036v -8.57853" fill="none" stroke="black"/>
<path d="M449.319,24.7143v -4.28927" fill="none" stroke="black"/>
<path d="M460.343,24.7143v -4.28927" fill="none" stroke="black"/>
<path d="M471.366,24.7143v -4.28927" fill="none" stroke="black"/>
<path d="M482.39,29.0036v -8.57853" fill="none" stroke="black"/>
<path d="M85.5394,359.481v -339.056" fill="none" stroke="black"/>
<path d="M99.6559,359.481h -14.1165" fill="none" stroke="black"/>
<text xml:space="preserve" x="70.8333" y="358.771" fill="black" font-size="9.24468" font-family="Helvetica">10</text>
<text xml:space="preserve" x="65.8603" y="358.771" fill="black" font-size="9.24468" font-family="Times">&#8722;</text>
<text xml:space="preserve" x="50.9411" y="365.165" fill="black" font-size="13.617" font-family="Helvetica">10</text>
<path d="M92.5976,346.723h -7.05827" fill="none" stroke="black"/>
<path d="M92.5976,339.26h -7.05827" fill="none" stroke="black"/>
<path d="M92.5976,333.965h -7.05827" fill="none" stroke="black"/>
<path d="M92.5976,329.858h -7.05827" fill="none" stroke="black"/>
<path d="M92.5976,326.502h -7.05827" fill="none" stroke="black"/>
<path d="M92.5976,323.664h -7.05827" fill="none" stroke="black"/>
<path d="M92.5976,321.207h -7.05827" fill="none" stroke="black"/>
<path d="M92.5976,319.039h -7.05827" fill="none" stroke="black"/>
<path d="M99.6559,317.099h -14.1165" fill="none" stroke="black"/>
<text xml:space="preserve" x="75.8064" y="316.855" fill="black" font-size="9.24468" font-family="Helvetica">9</text>
<text xml:space="preserve" x="70.8333" y="316.855" fill="black" font-size="9.24468" font-family="Times">&#8722;</text>
<text xml:space="preserve" x="55.9141" y="323.249" fill="black" font-size="13.617" font-family="Helvetica">10</text>
<path d="M92.5976,304.341h -7.05827" fill="none" stroke="black"/>
<path d="M92.5976,296.878h -7.05827" fill="none" stroke="black"/>
<path d="M92.5976,291.583h -7.05827" fill="none" stroke="black"/>
<path d="M92.5976,287.476h -7.05827" fill="none" stroke="black"/>
<path d="M92.5976,284.12h -7.05827" fill="none" stroke="black"/>
<path d="M92.5976,281.282h -7.05827" fill="none" stroke="black"/>
<path d="M92.5976,278.825h -7.05827" fill="none" stroke="black"/>
<path d="M92.5976,276.657h -7.05827" fill="none" stroke="black"/>
<path d="M99.6559,274.717h -14.1165" fill="none" stroke="black"/>
<text xml:space="preserve" x="75.8064" y="274.229" fill="black" font-size="9.24468" font-family="Helvetica">8</text>
<text xml:space="preserve" x="70.8333" y="274.229" fill="black" font-size="9.24468" font-family="Times">&#8722;</text>
<text xml:space="preserve" x="55.9141" y="280.623" fill="black" font-size="13.617" font-family="Helvetica">10</text>
<path d="M92.5976,261.959h -7.05827" fill="none" stroke="black"/>
<path d="M92.5976,254.496h -7.05827" fill="none" stroke="black"/>
<path d="M92.5976,249.201h -7.05827" fill="none" stroke="black"/>
<path d="M92.5976,245.094h -7.05827" fill="none" stroke="black"/>
<path d="M92.5976,241.738h -7.05827" fill="none" stroke="black"/>
<path d="M92.5976,238.9h -7.05827" fill="none" stroke="black"/>
<path d="M92.5976,236.442h -7.05827" fill="none" stroke="black"/>
<path d="M92.5976,234.275h -7.05827" fill="none" stroke="black"/>
<path d="M99.6559,232.335h -14.1165" fill="none" stroke="black"/>
<text xml:space="preserve" x="75.8064" y="233.024" fill="black" font-size="9.24468" font-family="Helvetica">7</text>
<text xml:space="preserve" x="70.8333" y="233.024" fill="black" font-size="9.24468" font-family="Times">&#8722;</text>
<text xml:space="preserve" x="55.9141" y="238.707" fill="black" font-size="13.617" font-family="Helvetica">10</text>
<path d="M92.5976,219.577h -7.05827" fill="none" stroke="black"/>
<path d="M92.5976,212.114h -7.05827" fill="none" stroke="black"/>
<path d="M92.5976,206.819h -7.05827" fill="none" stroke="black"/>
<path d="M92.5976,202.711h -7.05827" fill="none" stroke="black"/>
<path d="M92.5976,199.356h -7.05827" fill="none" stroke="black"/>
<path d="M92.5976,196.518h -7.05827" fill="none" stroke="black"/>
<path d="M92.5976,194.06h -7.05827" fill="none" stroke="black"/>
<path d="M92.5976,191.893h -7.05827" fill="none" stroke="black"/>
<path d="M99.6559,189.953h -14.1165" fill="none" stroke="black"/>
<text xml:space="preserve" x="75.8064" y="189.687" fill="black" font-size="9.24468" font-family="Helvetica">6</text>
<text xml:space="preserve" x="70.8333" y="189.687" fill="black" font-size="9.24468" font-family="Times">&#8722;</text>
<text xml:space="preserve" x="55.9141" y="196.081" fill="black" font-size="13.617" font-family="Helvetica">10</text>
<path d="M92.5976,177.195h -7.05827" fill="none" stroke="black"/>
<path d="M92.5976,169.732h -7.05827" fill="none" stroke="black"/>
<path d="M92.5976,164.437h -7.05827" fill="none" stroke="black"/>
<path d="M92.5976,160.329h -7.05827" fill="none" stroke="black"/>
<path d="M92.5976,156.974h -7.05827" fill="none" stroke="black"/>
<path d="M92.5976,154.136h -7.05827" fill="none" stroke="black"/>
<path d="M92.5976,151.678h -7.05827" fill="none" stroke="black"/>
<path d="M92.5976,149.51h -7.05827" fill="none" stroke="black"/>
<path d="M99.6559,147.571h -14.1165" fill="none" stroke="black"/>
<text xml:space="preserve" x="75.8064" y="147.061" fill="black" font-size="9.24468" font-family="Helvetica">5</text>
<text xml:space="preserve" x="70.8333" y="147.061" fill="black" font-size="9.24468" font-family="Times">&#8722;</text>
<text xml:space="preserve" x="55.9141" y="153.455" fill="black" font-size="13.617" font-family="Helvetica">10</text>
<path d="M92.5976,134.813h -7.05827" fill="none" stroke="black"/>
<path d="M92.5976,127.35h -7.05827" fill="none" stroke="black"/>
<path d="M92.5976,122.055h -7.05827" fill="none" stroke="black"/>
<path d="M92.5976,117.947h -7.05827" fill="none" stroke="black"/>
<path d="M92.5976,114.592h -7.05827" fill="none" stroke="black"/>
<path d="M92.5976,111.754h -7.05827" fill="none" stroke="black"/>
<path d="M92.5976,109.296h -7.05827" fill="none" stroke="black"/>
<path d="M92.5976,107.128h -7.05827" fill="none" stroke="black"/>
<path d="M99.6559,105.189h -14.1165" fill="none" stroke="black"/>
<text xml:space="preserve" x="75.8064" y="105.855" fill="black" font-size="9.24468" font-family="Helvetica">4</text>
<text xml:space="preserve" x="70.8333" y="105.855" fill="black" font-size="9.24468" font-family="Times">&#8722;</text>
<text xml:space="preserve" x="55.9141" y="111.539" fill="black" font-size="13.617" font-family="Helvetica">10</text>
<path d="M92.5976,92.4309h -7.05827" fill="none" stroke="black"/>
<path d="M92.5976,84.9678h -7.05827" fill="none" stroke="black"/>
<path d="M92.5976,79.6726h -7.05827" fill="none" stroke="black"/>
<path d="M92.5976,75.5654h -7.05827" fill="none" stroke="black"/>
<path d="M92.5976,72.2095h -7.05827" fill="none" stroke="black"/>
<path d="M92.5976,69.3722h -7.05827" fill="none" stroke="black"/>
<path d="M92.5976,66.9144h -7.05827" fill="none" stroke="black"/>
<path d="M92.5976,64.7464h -7.05827" fill="none" stroke="black"/>
<path d="M99.6559,62.8071h -14.1165" fill="none" stroke="black"/>
<text xml:space="preserve" x="75.8064" y="62.5185" fill="black" font-size="9.24468" font-family="Helvetica">3</text>
<text xml:space="preserve" x="70.8333" y="62.5185" fill="black" font-size="9.24468" font-family="Times">&#8722;</text>
<text xml:space="preserve" x="55.9141" y="68.9124" fill="black" font-size="13.617" font-family="Helvetica">10</text>
<path d="M92.5976,50.0489h -7.05827" fill="none" stroke="black"/>
<path d="M92.5976,42.5857h -7.05827" fill="none" stroke="black"/>
<path d="M92.5976,37.2906h -7.05827" fill="none" stroke="black"/>
<path d="M92.5976,33.1833h -7.05827" fill="none" stroke="black"/>
<path d="M92.5976,29.8275h -7.05827" fill="none" stroke="black"/>
<path d="M92.5976,26.9901h -7.05827" fill="none" stroke="black"/>
<path d="M92.5976,24.5323h -7.05827" fill="none" stroke="black"/>
<path d="M92.5976,22.3644h -7.05827" fill="none" stroke="black"/>
<path d="M99.6559,20.4251h -14.1165" fill="none" stroke="black"/>
<text xml:space="preserve" x="75.8064" y="20.6027" fill="black" font-size="9.24468" font-family="Helvetica">2</text>
<text xml:space="preserve" x="70.8333" y="20.6027" fill="black" font-size="9.24468" font-family="Times">&#8722;</text>
<text xml:space="preserve" x="55.9141" y="26.2862" fill="black" font-size="13.617" font-family="Helvetica">10</text>
<g transform="rotate(-90,39.5741,24.1549)">
<text xml:space="preserve" x="39.5741" y="24.1549" fill="black" font-size="13.617" font-family="Helvetica"> </text>
</g>
<g transform="rotate(-90,55.2037,31.9697)">
<text xml:space="preserve" x="55.2037" y="31.9697" fill="black" font-size="9.24468" font-family="Helvetica">T</text>
</g>
<g transform="rotate(-90,47.3889,46.8889)">
<text xml:space="preserve" x="47.3889" y="46.8889" fill="black" font-size="13.617" font-family="Helvetica">dp</text>
</g>
<g transform="rotate(-90,23.234,27.7071)">
<text xml:space="preserve" x="23.234" y="27.7071" fill="black" font-size="6.32979" font-family="Helvetica">0</text>
</g>
<g transform="rotate(-90,26.7862,32.6801)">
<text xml:space="preserve" x="26.7862" y="32.6801" fill="black" font-size="9.24468" font-family="Times">&#0960;</text>
</g>
<g transform="rotate(-90,33.1801,49.0202)">
<text xml:space="preserve" x="33.1801" y="49.0202" fill="black" font-size="13.617" font-family="Helvetica">dN</text>
</g>
<path d="M36.0219,49.0202v -24.8653" fill="none" stroke="black" stroke-width="2"/>
<g transform="rotate(-90,39.5741,53.2828)">
<text xml:space="preserve" x="39.5741" y="53.2828" fill="black" font-size="13.617" font-family="Helvetica"> </text>
</g>
<g transform="rotate(-90,51.6515,76.0168)">
<text xml:space="preserve" x="51.6515" y="76.0168" fill="black" font-size="9.24468" font-family="Helvetica">event</text>
</g>
<g transform="rotate(-90,47.3889,85.2525)">
<text xml:space="preserve" x="47.3889" y="85.2525" fill="black" font-size="13.617" font-family="Helvetica">N</text>
</g>
<g transform="rotate(-90,33.8906,71.7542)">
<text xml:space="preserve" x="33.8906" y="71.7542" fill="black" font-size="13.617" font-family="Helvetica">1</text>
</g>
<path d="M36.0219,85.2525v -31.9697" fill="none" stroke="black" stroke-width="2"/>
<g transform="rotate(-90,39.5741,89.5151)">
<text xml:space="preserve" x="39.5741" y="89.5151" fill="black" font-size="13.617" font-family="Helvetica"> </text>
</g>
<g transform="rotate(-90,54.4933,107.276)">
<text xml:space="preserve" x="54.4933" y="107.276" fill="black" font-size="9.24468" font-family="Helvetica">cent</text>
</g>
<g transform="rotate(-90,48.0993,111.539)">
<text xml:space="preserve" x="48.0993" y="111.539" fill="black" font-size="13.617" font-family="Times">&#0062;</text>
</g>
<g transform="rotate(-90,54.4933,125.037)">
<text xml:space="preserve" x="54.4933" y="125.037" fill="black" font-size="9.24468" font-family="Helvetica">coll</text>
</g>
<g transform="rotate(-90,48.0993,134.273)">
<text xml:space="preserve" x="48.0993" y="134.273" fill="black" font-size="13.617" font-family="Helvetica">N</text>
</g>
<g transform="rotate(-90,48.0993,138.535)">
<text xml:space="preserve" x="48.0993" y="138.535" fill="black" font-size="13.617" font-family="Times">&#0060;</text>
</g>
<g transform="rotate(-90,33.8906,116.512)">
<text xml:space="preserve" x="33.8906" y="116.512" fill="black" font-size="13.617" font-family="Helvetica">1</text>
</g>
<path d="M36.0219,138.535v -49.0202" fill="none" stroke="black" stroke-width="2"/>
<path d="M482.39,359.481v -339.056" fill="none" stroke="black"/>
<path d="M468.273,359.481h 14.1165" fill="none" stroke="black"/>
<path d="M475.332,346.723h 7.05827" fill="none" stroke="black"/>
<path d="M475.332,339.26h 7.05827" fill="none" stroke="black"/>
<path d="M475.332,333.965h 7.05827" fill="none" stroke="black"/>
<path d="M475.332,329.858h 7.05827" fill="none" stroke="black"/>
<path d="M475.332,326.502h 7.05827" fill="none" stroke="black"/>
<path d="M475.332,323.664h 7.05827" fill="none" stroke="black"/>
<path d="M475.332,321.207h 7.05827" fill="none" stroke="black"/>
<path d="M475.332,319.039h 7.05827" fill="none" stroke="black"/>
<path d="M468.273,317.099h 14.1165" fill="none" stroke="black"/>
<path d="M475.332,304.341h 7.05827" fill="none" stroke="black"/>
<path d="M475.332,296.878h 7.05827" fill="none" stroke="black"/>
<path d="M475.332,291.583h 7.05827" fill="none" stroke="black"/>
<path d="M475.332,287.476h 7.05827" fill="none" stroke="black"/>
<path d="M475.332,284.12h 7.05827" fill="none" stroke="black"/>
<path d="M475.332,281.282h 7.05827" fill="none" stroke="black"/>
<path d="M475.332,278.825h 7.05827" fill="none" stroke="black"/>
<path d="M475.332,276.657h 7.05827" fill="none" stroke="black"/>
<path d="M468.273,274.717h 14.1165" fill="none" stroke="black"/>
<path d="M475.332,261.959h 7.05827" fill="none" stroke="black"/>
<path d="M475.332,254.496h 7.05827" fill="none" stroke="black"/>
<path d="M475.332,249.201h 7.05827" fill="none" stroke="black"/>
<path d="M475.332,245.094h 7.05827" fill="none" stroke="black"/>
<path d="M475.332,241.738h 7.05827" fill="none" stroke="black"/>
<path d="M475.332,238.9h 7.05827" fill="none" stroke="black"/>
<path d="M475.332,236.442h 7.05827" fill="none" stroke="black"/>
<path d="M475.332,234.275h 7.05827" fill="none" stroke="black"/>
<path d="M468.273,232.335h 14.1165" fill="none" stroke="black"/>
<path d="M475.332,219.577h 7.05827" fill="none" stroke="black"/>
<path d="M475.332,212.114h 7.05827" fill="none" stroke="black"/>
<path d="M475.332,206.819h 7.05827" fill="none" stroke="black"/>
<path d="M475.332,202.711h 7.05827" fill="none" stroke="black"/>
<path d="M475.332,199.356h 7.05827" fill="none" stroke="black"/>
<path d="M475.332,196.518h 7.05827" fill="none" stroke="black"/>
<path d="M475.332,194.06h 7.05827" fill="none" stroke="black"/>
<path d="M475.332,191.893h 7.05827" fill="none" stroke="black"/>
<path d="M468.273,189.953h 14.1165" fill="none" stroke="black"/>
<path d="M475.332,177.195h 7.05827" fill="none" stroke="black"/>
<path d="M475.332,169.732h 7.05827" fill="none" stroke="black"/>
<path d="M475.332,164.437h 7.05827" fill="none" stroke="black"/>
<path d="M475.332,160.329h 7.05827" fill="none" stroke="black"/>
<path d="M475.332,156.974h 7.05827" fill="none" stroke="black"/>
<path d="M475.332,154.136h 7.05827" fill="none" stroke="black"/>
<path d="M475.332,151.678h 7.05827" fill="none" stroke="black"/>
<path d="M475.332,149.51h 7.05827" fill="none" stroke="black"/>
<path d="M468.273,147.571h 14.1165" fill="none" stroke="black"/>
<path d="M475.332,134.813h 7.05827" fill="none" stroke="black"/>
<path d="M475.332,127.35h 7.05827" fill="none" stroke="black"/>
<path d="M475.332,122.055h 7.05827" fill="none" stroke="black"/>
<path d="M475.332,117.947h 7.05827" fill="none" stroke="black"/>
<path d="M475.332,114.592h 7.05827" fill="none" stroke="black"/>
<path d="M475.332,111.754h 7.05827" fill="none" stroke="black"/>
<path d="M475.332,109.296h 7.05827" fill="none" stroke="black"/>
<path d="M475.332,107.128h 7.05827" fill="none" stroke="black"/>
<path d="M468.273,105.189h 14.1165" fill="none" stroke="black"/>
<path d="M475.332,92.4309h 7.05827" fill="none" stroke="black"/>
<path d="M475.332,84.9678h 7.05827" fill="none" stroke="black"/>
<path d="M475.332,79.6726h 7.05827" fill="none" stroke="black"/>
<path d="M475.332,75.5654h 7.05827" fill="none" stroke="black"/>
<path d="M475.332,72.2095h 7.05827" fill="none" stroke="black"/>
<path d="M475.332,69.3722h 7.05827" fill="none" stroke="black"/>
<path d="M475.332,66.9144h 7.05827" fill="none" stroke="black"/>
<path d="M475.332,64.7464h 7.05827" fill="none" stroke="black"/>
<path d="M468.273,62.8071h 14.1165" fill="none" stroke="black"/>
<path d="M475.332,50.0489h 7.05827" fill="none" stroke="black"/>
<path d="M475.332,42.5857h 7.05827" fill="none" stroke="black"/>
<path d="M475.332,37.2906h 7.05827" fill="none" stroke="black"/>
<path d="M475.332,33.1833h 7.05827" fill="none" stroke="black"/>
<path d="M475.332,29.8275h 7.05827" fill="none" stroke="black"/>
<path d="M475.332,26.9901h 7.05827" fill="none" stroke="black"/>
<path d="M475.332,24.5323h 7.05827" fill="none" stroke="black"/>
<path d="M475.332,22.3644h 7.05827" fill="none" stroke="black"/>
<path d="M468.273,20.4251h 14.1165" fill="none" stroke="black"/>
<path d="M85.5394,44.8182h 8.18187" fill="none" stroke="black"/>
<path d="M99.4047,44.8182h 8.18187" fill="none" stroke="black"/>
<g fill="black">
<polygon points=" 95.6157, 43.8709 95.6157, 41.9764 97.5102, 41.9764 97.5102, 43.8709 99.4047, 43.8709 99.4047, 45.7654 97.5102, 45.7654 97.5102, 47.6599 95.6157, 47.6599 95.6157, 45.7654 93.7212, 45.7654 93.7212, 43.8709"/>
</g>
<path d="M107.587,85.4032h 8.18187" fill="none" stroke="black"/>
<path d="M121.452,85.4032h 8.18187" fill="none" stroke="black"/>
<g fill="black">
<polygon points=" 117.663, 84.456 117.663, 82.5615 119.557, 82.5615 119.557, 84.456 121.452, 84.456 121.452, 86.3505 119.557, 86.3505 119.557, 88.245 117.663, 88.245 117.663, 86.3505 115.768, 86.3505 115.768, 84.456"/>
</g>
<path d="M129.634,117.727h 8.18187" fill="none" stroke="black"/>
<path d="M143.499,117.727h 8.18187" fill="none" stroke="black"/>
<g fill="black">
<polygon points=" 139.71, 116.78 139.71, 114.885 141.605, 114.885 141.605, 116.78 143.499, 116.78 143.499, 118.674 141.605, 118.674 141.605, 120.569 139.71, 120.569 139.71, 118.674 137.816, 118.674 137.816, 116.78"/>
</g>
<path d="M151.681,152.476h 19.2055" fill="none" stroke="black"/>
<path d="M176.57,152.476h 19.2055" fill="none" stroke="black"/>
<g fill="black">
<polygon points=" 172.781, 151.528 172.781, 149.634 174.676, 149.634 174.676, 151.528 176.57, 151.528 176.57, 153.423 174.676, 153.423 174.676, 155.317 172.781, 155.317 172.781, 153.423 170.887, 153.423 170.887, 151.528"/>
</g>
<path d="M195.776,197.45h 30.2291" fill="none" stroke="black"/>
<path d="M231.688,197.45h 30.2291" fill="none" stroke="black"/>
<g fill="black">
<polygon points=" 227.899, 196.502 227.899, 194.608 229.794, 194.608 229.794, 196.502 231.688, 196.502 231.688, 198.397 229.794, 198.397 229.794, 200.291 227.899, 200.291 227.899, 198.397 226.005, 198.397 226.005, 196.502"/>
</g>
<path d="M261.917,246.316h 52.2764" fill="none" stroke="black"/>
<path d="M319.877,246.316h 52.2764" fill="none" stroke="black"/>
<g fill="black">
<polygon points=" 316.088, 245.368 316.088, 243.474 317.983, 243.474 317.983, 245.368 319.877, 245.368 319.877, 247.263 317.983, 247.263 317.983, 249.157 316.088, 249.157 316.088, 247.263 314.194, 247.263 314.194, 245.368"/>
</g>
<path d="M372.154,296.671h 52.2764" fill="none" stroke="black"/>
<path d="M430.113,296.671h 52.2764" fill="none" stroke="black"/>
<g fill="black">
<polygon points=" 426.324, 295.724 426.324, 293.83 428.219, 293.83 428.219, 295.724 430.113, 295.724 430.113, 297.619 428.219, 297.619 428.219, 299.513 426.324, 299.513 426.324, 297.619 424.43, 297.619 424.43, 295.724"/>
</g>
<path d="M85.5394,47.1802h 8.18187" fill="none" stroke="#ffcc00"/>
<path d="M99.4047,47.1802h 8.18187" fill="none" stroke="#ffcc00"/>
<g fill="#ffcc00">
<polygon points=" 95.6157, 46.2329 95.6157, 44.3384 97.5102, 44.3384 97.5102, 46.2329 99.4047, 46.2329 99.4047, 48.1274 97.5102, 48.1274 97.5102, 50.0219 95.6157, 50.0219 95.6157, 48.1274 93.7212, 48.1274 93.7212, 46.2329"/>
</g>
<path d="M107.587,88.3654h 8.18187" fill="none" stroke="#ffcc00"/>
<path d="M121.452,88.3654h 8.18187" fill="none" stroke="#ffcc00"/>
<g fill="#ffcc00">
<polygon points=" 117.663, 87.4181 117.663, 85.5236 119.557, 85.5236 119.557, 87.4181 121.452, 87.4181 121.452, 89.3126 119.557, 89.3126 119.557, 91.2071 117.663, 91.2071 117.663, 89.3126 115.768, 89.3126 115.768, 87.4181"/>
</g>
<path d="M129.634,121.324h 8.18187" fill="none" stroke="#ffcc00"/>
<path d="M143.499,121.324h 8.18187" fill="none" stroke="#ffcc00"/>
<g fill="#ffcc00">
<polygon points=" 139.71, 120.377 139.71, 118.482 141.605, 118.482 141.605, 120.377 143.499, 120.377 143.499, 122.271 141.605, 122.271 141.605, 124.166 139.71, 124.166 139.71, 122.271 137.816, 122.271 137.816, 120.377"/>
</g>
<path d="M151.681,157.269h 19.2055" fill="none" stroke="#ffcc00"/>
<path d="M176.57,157.269h 19.2055" fill="none" stroke="#ffcc00"/>
<g fill="#ffcc00">
<polygon points=" 172.781, 156.322 172.781, 154.428 174.676, 154.428 174.676, 156.322 176.57, 156.322 176.57, 158.217 174.676, 158.217 174.676, 160.111 172.781, 160.111 172.781, 158.217 170.887, 158.217 170.887, 156.322"/>
</g>
<path d="M195.776,203.916h 30.2291" fill="none" stroke="#ffcc00"/>
<path d="M231.688,203.916h 30.2291" fill="none" stroke="#ffcc00"/>
<g fill="#ffcc00">
<polygon points=" 227.899, 202.969 227.899, 201.074 229.794, 201.074 229.794, 202.969 231.688, 202.969 231.688, 204.863 229.794, 204.863 229.794, 206.758 227.899, 206.758 227.899, 204.863 226.005, 204.863 226.005, 202.969"/>
</g>
<path d="M261.917,253.354h 52.2764" fill="none" stroke="#ffcc00"/>
<path d="M319.877,253.354h 52.2764" fill="none" stroke="#ffcc00"/>
<g fill="#ffcc00">
<polygon points=" 316.088, 252.407 316.088, 250.512 317.983, 250.512 317.983, 252.407 319.877, 252.407 319.877, 254.301 317.983, 254.301 317.983, 256.196 316.088, 256.196 316.088, 254.301 314.194, 254.301 314.194, 252.407"/>
</g>
<path d="M372.154,308.843h 52.2764" fill="none" stroke="#ffcc00"/>
<path d="M430.113,308.843h 52.2764" fill="none" stroke="#ffcc00"/>
<g fill="#ffcc00">
<polygon points=" 426.324, 307.896 426.324, 306.001 428.219, 306.001 428.219, 307.896 430.113, 307.896 430.113, 309.79 428.219, 309.79 428.219, 311.685 426.324, 311.685 426.324, 309.79 424.43, 309.79 424.43, 307.896"/>
</g>
<path d="M85.5394,46.0715h 8.18187" fill="none" stroke="#ff0000"/>
<path d="M99.4047,46.0715h 8.18187" fill="none" stroke="#ff0000"/>
<g fill="#ff0000">
<polygon points=" 95.6157, 45.1242 95.6157, 43.2297 97.5102, 43.2297 97.5102, 45.1242 99.4047, 45.1242 99.4047, 47.0187 97.5102, 47.0187 97.5102, 48.9132 95.6157, 48.9132 95.6157, 47.0187 93.7212, 47.0187 93.7212, 45.1242"/>
</g>
<path d="M107.587,86.9871h 8.18187" fill="none" stroke="#ff0000"/>
<path d="M121.452,86.9871h 8.18187" fill="none" stroke="#ff0000"/>
<g fill="#ff0000">
<polygon points=" 117.663, 86.0398 117.663, 84.1453 119.557, 84.1453 119.557, 86.0398 121.452, 86.0398 121.452, 87.9343 119.557, 87.9343 119.557, 89.8288 117.663, 89.8288 117.663, 87.9343 115.768, 87.9343 115.768, 86.0398"/>
</g>
<path d="M129.634,119.766h 8.18187" fill="none" stroke="#ff0000"/>
<path d="M143.499,119.766h 8.18187" fill="none" stroke="#ff0000"/>
<g fill="#ff0000">
<polygon points=" 139.71, 118.818 139.71, 116.924 141.605, 116.924 141.605, 118.818 143.499, 118.818 143.499, 120.713 141.605, 120.713 141.605, 122.607 139.71, 122.607 139.71, 120.713 137.816, 120.713 137.816, 118.818"/>
</g>
<path d="M151.681,155.059h 19.2055" fill="none" stroke="#ff0000"/>
<path d="M176.57,155.059h 19.2055" fill="none" stroke="#ff0000"/>
<g fill="#ff0000">
<polygon points=" 172.781, 154.112 172.781, 152.218 174.676, 152.218 174.676, 154.112 176.57, 154.112 176.57, 156.007 174.676, 156.007 174.676, 157.901 172.781, 157.901 172.781, 156.007 170.887, 156.007 170.887, 154.112"/>
</g>
<path d="M195.776,200.941h 30.2291" fill="none" stroke="#ff0000"/>
<path d="M231.688,200.941h 30.2291" fill="none" stroke="#ff0000"/>
<g fill="#ff0000">
<polygon points=" 227.899, 199.994 227.899, 198.099 229.794, 198.099 229.794, 199.994 231.688, 199.994 231.688, 201.888 229.794, 201.888 229.794, 203.783 227.899, 203.783 227.899, 201.888 226.005, 201.888 226.005, 199.994"/>
</g>
<path d="M261.917,251.181h 52.2764" fill="none" stroke="#ff0000"/>
<path d="M319.877,251.181h 52.2764" fill="none" stroke="#ff0000"/>
<g fill="#ff0000">
<polygon points=" 316.088, 250.233 316.088, 248.339 317.983, 248.339 317.983, 250.233 319.877, 250.233 319.877, 252.128 317.983, 252.128 317.983, 254.022 316.088, 254.022 316.088, 252.128 314.194, 252.128 314.194, 250.233"/>
</g>
<path d="M372.154,303.835h 52.2764" fill="none" stroke="#ff0000"/>
<path d="M430.113,303.835h 52.2764" fill="none" stroke="#ff0000"/>
<g fill="#ff0000">
<polygon points=" 426.324, 302.888 426.324, 300.994 428.219, 300.994 428.219, 302.888 430.113, 302.888 430.113, 304.783 428.219, 304.783 428.219, 306.677 426.324, 306.677 426.324, 304.783 424.43, 304.783 424.43, 302.888"/>
</g>
<path d="M85.5394,45.1076h 8.18187" fill="none" stroke="#ff0033"/>
<path d="M99.4047,45.1076h 8.18187" fill="none" stroke="#ff0033"/>
<g stroke="#ff0033" stroke-width="1" fill="none">
<polygon points=" 95.6157, 44.1603 95.6157, 42.2658 97.5102, 42.2658 97.5102, 44.1603 99.4047, 44.1603 99.4047, 46.0548 97.5102, 46.0548 97.5102, 47.9493 95.6157, 47.9493 95.6157, 46.0548 93.7212, 46.0548 93.7212, 44.1603"/>
</g>
<path d="M107.587,85.8241h 8.18187" fill="none" stroke="#ff0033"/>
<path d="M121.452,85.8241h 8.18187" fill="none" stroke="#ff0033"/>
<g stroke="#ff0033" stroke-width="1" fill="none">
<polygon points=" 117.663, 84.8768 117.663, 82.9823 119.557, 82.9823 119.557, 84.8768 121.452, 84.8768 121.452, 86.7713 119.557, 86.7713 119.557, 88.6658 117.663, 88.6658 117.663, 86.7713 115.768, 86.7713 115.768, 84.8768"/>
</g>
<path d="M129.634,118.307h 8.18187" fill="none" stroke="#ff0033"/>
<path d="M143.499,118.307h 8.18187" fill="none" stroke="#ff0033"/>
<g stroke="#ff0033" stroke-width="1" fill="none">
<polygon points=" 139.71, 117.359 139.71, 115.465 141.605, 115.465 141.605, 117.359 143.499, 117.359 143.499, 119.254 141.605, 119.254 141.605, 121.148 139.71, 121.148 139.71, 119.254 137.816, 119.254 137.816, 117.359"/>
</g>
<path d="M151.681,153.328h 19.2055" fill="none" stroke="#ff0033"/>
<path d="M176.57,153.328h 19.2055" fill="none" stroke="#ff0033"/>
<g stroke="#ff0033" stroke-width="1" fill="none">
<polygon points=" 172.781, 152.381 172.781, 150.487 174.676, 150.487 174.676, 152.381 176.57, 152.381 176.57, 154.276 174.676, 154.276 174.676, 156.17 172.781, 156.17 172.781, 154.276 170.887, 154.276 170.887, 152.381"/>
</g>
<path d="M195.776,198.702h 30.2291" fill="none" stroke="#ff0033"/>
<path d="M231.688,198.702h 30.2291" fill="none" stroke="#ff0033"/>
<g stroke="#ff0033" stroke-width="1" fill="none">
<polygon points=" 227.899, 197.755 227.899, 195.86 229.794, 195.86 229.794, 197.755 231.688, 197.755 231.688, 199.649 229.794, 199.649 229.794, 201.544 227.899, 201.544 227.899, 199.649 226.005, 199.649 226.005, 197.755"/>
</g>
<path d="M261.917,248.019h 52.2764" fill="none" stroke="#ff0033"/>
<path d="M319.877,248.019h 52.2764" fill="none" stroke="#ff0033"/>
<g stroke="#ff0033" stroke-width="1" fill="none">
<polygon points=" 316.088, 247.072 316.088, 245.177 317.983, 245.177 317.983, 247.072 319.877, 247.072 319.877, 248.966 317.983, 248.966 317.983, 250.861 316.088, 250.861 316.088, 248.966 314.194, 248.966 314.194, 247.072"/>
</g>
<path d="M372.154,300.099h 52.2764" fill="none" stroke="#ff0033"/>
<path d="M430.113,300.099h 52.2764" fill="none" stroke="#ff0033"/>
<g stroke="#ff0033" stroke-width="1" fill="none">
<polygon points=" 426.324, 299.152 426.324, 297.258 428.219, 297.258 428.219, 299.152 430.113, 299.152 430.113, 301.047 428.219, 301.047 428.219, 302.941 426.324, 302.941 426.324, 301.047 424.43, 301.047 424.43, 299.152"/>
</g>
<path d="M85.5394,43.9583h 9.60275" fill="none" stroke="#ff00ff"/>
<path d="M97.9839,43.9583h 9.60275" fill="none" stroke="#ff00ff"/>
<g stroke="#ff00ff" stroke-width="1" fill="none">
<polygon points=" 96.563, 45.3792 95.1421, 46.8 93.7212, 45.3792 95.1421, 43.9583 93.7212, 42.5374 95.1421, 41.1165 96.563, 42.5374 97.9839, 41.1165 99.4047, 42.5374 97.9839, 43.9583 99.4047, 45.3792 97.9839, 46.8 96.563, 45.3792"/>
</g>
<path d="M107.587,84.3943h 9.60275" fill="none" stroke="#ff00ff"/>
<path d="M120.031,84.3943h 9.60275" fill="none" stroke="#ff00ff"/>
<g stroke="#ff00ff" stroke-width="1" fill="none">
<polygon points=" 118.61, 85.8151 117.189, 87.236 115.768, 85.8151 117.189, 84.3943 115.768, 82.9734 117.189, 81.5525 118.61, 82.9734 120.031, 81.5525 121.452, 82.9734 120.031, 84.3943 121.452, 85.8151 120.031, 87.236 118.61, 85.8151"/>
</g>
<path d="M129.634,116.634h 9.60275" fill="none" stroke="#ff00ff"/>
<path d="M142.078,116.634h 9.60275" fill="none" stroke="#ff00ff"/>
<g stroke="#ff00ff" stroke-width="1" fill="none">
<polygon points=" 140.657, 118.055 139.237, 119.476 137.816, 118.055 139.237, 116.634 137.816, 115.213 139.237, 113.792 140.657, 115.213 142.078, 113.792 143.499, 115.213 142.078, 116.634 143.499, 118.055 142.078, 119.476 140.657, 118.055"/>
</g>
<path d="M151.681,151.074h 20.6264" fill="none" stroke="#ff00ff"/>
<path d="M175.149,151.074h 20.6264" fill="none" stroke="#ff00ff"/>
<g stroke="#ff00ff" stroke-width="1" fill="none">
<polygon points=" 173.728, 152.495 172.307, 153.915 170.887, 152.495 172.307, 151.074 170.887, 149.653 172.307, 148.232 173.728, 149.653 175.149, 148.232 176.57, 149.653 175.149, 151.074 176.57, 152.495 175.149, 153.915 173.728, 152.495"/>
</g>
<path d="M195.776,196.025h 31.65" fill="none" stroke="#ff00ff"/>
<path d="M230.267,196.025h 31.65" fill="none" stroke="#ff00ff"/>
<g stroke="#ff00ff" stroke-width="1" fill="none">
<polygon points=" 228.846, 197.446 227.426, 198.867 226.005, 197.446 227.426, 196.025 226.005, 194.604 227.426, 193.183 228.846, 194.604 230.267, 193.183 231.688, 194.604 230.267, 196.025 231.688, 197.446 230.267, 198.867 228.846, 197.446"/>
</g>
<path d="M261.917,244.979h 53.6972" fill="none" stroke="#ff00ff"/>
<path d="M318.456,244.979h 53.6972" fill="none" stroke="#ff00ff"/>
<g stroke="#ff00ff" stroke-width="1" fill="none">
<polygon points=" 317.035, 246.4 315.615, 247.821 314.194, 246.4 315.615, 244.979 314.194, 243.558 315.615, 242.137 317.035, 243.558 318.456, 242.137 319.877, 243.558 318.456, 244.979 319.877, 246.4 318.456, 247.821 317.035, 246.4"/>
</g>
<path d="M427.272,294.608v -0.0131755" fill="none" stroke="#ff00ff"/>
<path d="M372.154,293.174h 53.6972" fill="none" stroke="#ff00ff"/>
<path d="M428.693,293.174h 53.6972" fill="none" stroke="#ff00ff"/>
<g stroke="#ff00ff" stroke-width="1" fill="none">
<polygon points=" 427.272, 294.595 425.851, 296.016 424.43, 294.595 425.851, 293.174 424.43, 291.753 425.851, 290.332 427.272, 291.753 428.693, 290.332 430.113, 291.753 428.693, 293.174 430.113, 294.595 428.693, 296.016 427.272, 294.595"/>
</g>
<path d="M85.5394,42.9548h 8.18187" fill="none" stroke="#cc00ff"/>
<path d="M99.4047,42.9548h 8.18187" fill="none" stroke="#cc00ff"/>
<g stroke="#cc00ff" stroke-width="1" fill="none">
<polygon points=" 95.6157, 42.0076 95.6157, 40.1131 97.5102, 40.1131 97.5102, 42.0076 99.4047, 42.0076 99.4047, 43.9021 97.5102, 43.9021 97.5102, 45.7966 95.6157, 45.7966 95.6157, 43.9021 93.7212, 43.9021 93.7212, 42.0076"/>
</g>
<path d="M107.587,83.1319h 8.18187" fill="none" stroke="#cc00ff"/>
<path d="M121.452,83.1319h 8.18187" fill="none" stroke="#cc00ff"/>
<g stroke="#cc00ff" stroke-width="1" fill="none">
<polygon points=" 117.663, 82.1846 117.663, 80.2901 119.557, 80.2901 119.557, 82.1846 121.452, 82.1846 121.452, 84.0791 119.557, 84.0791 119.557, 85.9736 117.663, 85.9736 117.663, 84.0791 115.768, 84.0791 115.768, 82.1846"/>
</g>
<path d="M129.634,114.999h 8.18187" fill="none" stroke="#cc00ff"/>
<path d="M143.499,114.999h 8.18187" fill="none" stroke="#cc00ff"/>
<g stroke="#cc00ff" stroke-width="1" fill="none">
<polygon points=" 139.71, 114.052 139.71, 112.158 141.605, 112.158 141.605, 114.052 143.499, 114.052 143.499, 115.947 141.605, 115.947 141.605, 117.841 139.71, 117.841 139.71, 115.947 137.816, 115.947 137.816, 114.052"/>
</g>
<path d="M151.681,149.158h 19.2055" fill="none" stroke="#cc00ff"/>
<path d="M176.57,149.158h 19.2055" fill="none" stroke="#cc00ff"/>
<g stroke="#cc00ff" stroke-width="1" fill="none">
<polygon points=" 172.781, 148.21 172.781, 146.316 174.676, 146.316 174.676, 148.21 176.57, 148.21 176.57, 150.105 174.676, 150.105 174.676, 151.999 172.781, 151.999 172.781, 150.105 170.887, 150.105 170.887, 148.21"/>
</g>
<path d="M195.776,193.069h 30.2291" fill="none" stroke="#cc00ff"/>
<path d="M231.688,193.069h 30.2291" fill="none" stroke="#cc00ff"/>
<g stroke="#cc00ff" stroke-width="1" fill="none">
<polygon points=" 227.899, 192.121 227.899, 190.227 229.794, 190.227 229.794, 192.121 231.688, 192.121 231.688, 194.016 229.794, 194.016 229.794, 195.91 227.899, 195.91 227.899, 194.016 226.005, 194.016 226.005, 192.121"/>
</g>
<path d="M261.917,240.898h 52.2764" fill="none" stroke="#cc00ff"/>
<path d="M319.877,240.898h 52.2764" fill="none" stroke="#cc00ff"/>
<g stroke="#cc00ff" stroke-width="1" fill="none">
<polygon points=" 316.088, 239.951 316.088, 238.057 317.983, 238.057 317.983, 239.951 319.877, 239.951 319.877, 241.846 317.983, 241.846 317.983, 243.74 316.088, 243.74 316.088, 241.846 314.194, 241.846 314.194, 239.951"/>
</g>
<path d="M372.154,289.491h 52.2764" fill="none" stroke="#cc00ff"/>
<path d="M430.113,289.491h 52.2764" fill="none" stroke="#cc00ff"/>
<g stroke="#cc00ff" stroke-width="1" fill="none">
<polygon points=" 426.324, 288.544 426.324, 286.65 428.219, 286.65 428.219, 288.544 430.113, 288.544 430.113, 290.439 428.219, 290.439 428.219, 292.333 426.324, 292.333 426.324, 290.439 424.43, 290.439 424.43, 288.544"/>
</g>
<text xml:space="preserve" x="232.813" y="49.7306" fill="black" font-size="11.7432" font-family="Helvetica">PYTHIA8, pAu200GeV with option3</text>
<text xml:space="preserve" x="266.914" y="62.5185" fill="black" font-size="11.7432" font-family="Helvetica">|&lt;1</text>
<text xml:space="preserve" x="260.52" y="62.5185" fill="black" font-size="11.7432" font-family="Times">&#0951;</text>
<text xml:space="preserve" x="243.47" y="62.5185" fill="black" font-size="11.7432" font-family="Helvetica"> in |</text>
<text xml:space="preserve" x="239.207" y="58.2559" fill="black" font-size="7.99544" font-family="Helvetica">0</text>
<text xml:space="preserve" x="232.813" y="62.5185" fill="black" font-size="11.7432" font-family="Times">&#0960;</text>
<text xml:space="preserve" x="283.965" y="75.3064" fill="black" font-size="11.7432" font-family="Helvetica">inelastic events(MB)</text>
<g fill="black">
<polygon points=" 254.671, 71.8171 254.671, 69.9226 256.565, 69.9226 256.565, 71.8171 258.46, 71.8171 258.46, 73.7116 256.565, 73.7116 256.565, 75.6061 254.671, 75.6061 254.671, 73.7116 252.776, 73.7116 252.776, 71.8171"/>
</g>
<text xml:space="preserve" x="283.965" y="88.0943" fill="black" font-size="11.7432" font-family="Helvetica">centrality: 0~10%</text>
<g fill="#ffcc00">
<polygon points=" 254.671, 84.5828 254.671, 82.6883 256.565, 82.6883 256.565, 84.5828 258.46, 84.5828 258.46, 86.4773 256.565, 86.4773 256.565, 88.3718 254.671, 88.3718 254.671, 86.4773 252.776, 86.4773 252.776, 84.5828"/>
</g>
<text xml:space="preserve" x="283.965" y="100.882" fill="black" font-size="11.7432" font-family="Helvetica">centrality: 10~20%</text>
<g fill="#ff0000">
<polygon points=" 254.671, 97.3484 254.671, 95.4539 256.565, 95.4539 256.565, 97.3484 258.46, 97.3484 258.46, 99.2429 256.565, 99.2429 256.565, 101.137 254.671, 101.137 254.671, 99.2429 252.776, 99.2429 252.776, 97.3484"/>
</g>
<text xml:space="preserve" x="283.965" y="113.67" fill="black" font-size="11.7432" font-family="Helvetica">centrality: 20~40%</text>
<g stroke="#ff0033" stroke-width="1" fill="none">
<polygon points=" 254.671, 110.114 254.671, 108.22 256.565, 108.22 256.565, 110.114 258.46, 110.114 258.46, 112.009 256.565, 112.009 256.565, 113.903 254.671, 113.903 254.671, 112.009 252.776, 112.009 252.776, 110.114"/>
</g>
<text xml:space="preserve" x="283.965" y="126.458" fill="black" font-size="11.7432" font-family="Helvetica">centrality: 40~60%</text>
<g stroke="#ff00ff" stroke-width="1" fill="none">
<polygon points=" 255.618, 125.248 254.197, 126.669 252.776, 125.248 254.197, 123.827 252.776, 122.406 254.197, 120.985 255.618, 122.406 257.039, 120.985 258.46, 122.406 257.039, 123.827 258.46, 125.248 257.039, 126.669 255.618, 125.248"/>
</g>
<text xml:space="preserve" x="283.965" y="139.246" fill="black" font-size="11.7432" font-family="Helvetica">centrality: 60~80%</text>
<g stroke="#cc00ff" stroke-width="1" fill="none">
<polygon points=" 254.671, 135.645 254.671, 133.751 256.565, 133.751 256.565, 135.645 258.46, 135.645 258.46, 137.54 256.565, 137.54 256.565, 139.434 254.671, 139.434 254.671, 137.54 252.776, 137.54 252.776, 135.645"/>
</g></svg>
