<svg width="700" height="413" xmlns="http://www.w3.org/2000/svg"><path d="M0,0H700V413H0Z" style="pointer-events: visiblefill; fill: rgb(255, 255, 255);"></path><g><g transform="translate(70,41)"><title></title><path d="M0,0H546V330H0Z" style="fill: rgb(255, 255, 255); stroke: rgb(0, 0, 0); stroke-width: 1; pointer-events: visiblefill; cursor: default;"></path><svg x="0" y="0" overflow="hidden" width="546" height="330" viewBox="0 0 546 330" style="pointer-events: visiblefill; cursor: default;"><g><path fill="#263da8" d="M0,13h5v2h-5zM0,28h5v3h-5zM0,50h5v1h-5zM0,66h5v2h-5zm0,5h5v2h-5zm0,3h5v5h-5zm0,7h5v2h-5zm0,3h5v5h-5zm0,7h5v1h-5zm0,5h5v15h-5zm0,18h5v196h-5zM0,328h5v2h-5zM5,5h6v2h-6zM5,17h6v1h-6zm0,8h6v1h-6zm0,5h6v1h-6zm0,5h6v3h-6zm0,6h6v2h-6zm0,4h6v3h-6zM5,73h6v1h-6zm0,3h6v2h-6zm0,3h6v4h-6zm0,7h6v11h-6zM5,99h6v3h-6zm0,7h6v199h-6zM11,0h5v2h-5zm0,5h5v2h-5zm0,12h5v3h-5zm0,14h5v4h-5zm0,5h5v2h-5zm0,4h5v1h-5zm0,3h5v3h-5zm0,7h5v3h-5zm0,6h5v5h-5zm0,8h5v4h-5zm0,5h5v2h-5zm0,4h5v5h-5zm0,8h5v2h-5zm0,3h5v15h-5zm0,17h5v10h-5zm0,11h5v192h-5zM16,0h6v2h-6zm0,13h6v4h-6zm0,8h6v2h-6zm0,10h6v4h-6zm0,7h6v3h-6zm0,7h6v1h-6zm0,9h6v9h-6zm0,12h6v2h-6zm0,3h6v12h-6zm0,14h6v219h-6zm0,245h6v2h-6zM22,10h5v2h-5zm0,7h5v1h-5zm0,11h5v2h-5zm0,5h5v2h-5zm0,5h5v2h-5zm0,8h5v5h-5zm0,7h5v3h-5zm0,5h5v1h-5zm0,3h5v5h-5zm0,7h5v3h-5zm0,5h5v1h-5zm0,6h5v223h-5zm0,249h5v2h-5zM27,3h6v2h-6zm0,4h6v1h-6zm0,10h6v3h-6zm0,6h6v2h-6zm0,12h6v1h-6zm0,3h6v2h-6zm0,10h6v2h-6zm0,3h6v3h-6zm0,7h6v1h-6zm0,3h6v2h-6zm0,3h6v2h-6zm0,4h6v6h-6zm0,8h6v11h-6zm0,13h6v10h-6zm0,12h6v201h-6zm0,227h6v2h-6zM33,3h5v2h-5zm0,5h5v4h-5zm0,7h5v3h-5zm0,8h5v3h-5zm0,8h5v4h-5zm0,5h5v2h-5zm0,4h5v1h-5zm0,5h5v3h-5zm0,8h5v5h-5zm0,6h5v2h-5zm0,4h5v15h-5zm0,16h5v5h-5zm0,7h5v30h-5zm0,31h5v183h-5zm0,211h5v2h-5zM38,15h6v2h-6zm0,10h6v1h-6zm0,6h6v2h-6zm0,7h6v2h-6zm0,7h6v1h-6zm0,3h6v6h-6zm0,11h6v4h-6zm0,5h6v9h-6zm0,10h6v7h-6zm0,9h6v1h-6zm0,8h6v21h-6zm0,23h6v186h-6zm0,214h6v2h-6zM44,7h5v3h-5zm0,5h5v1h-5zm0,6h5v2h-5zm0,3h5v2h-5zm0,5h5v5h-5zm0,10h5v2h-5zm0,4h5v6h-5zm0,8h5v2h-5zm0,3h5v2h-5zm0,5h5v5h-5zm0,7h5v8h-5zm0,10h5v10h-5zm0,11h5v3h-5zm0,5h5v8h-5zm0,10h5v203h-5zm0,228h5v3h-5zM49,2h6v1h-6zm0,19h6v2h-6zm0,4h6v3h-6zm0,11h6v2h-6zm0,5h6v2h-6zm0,7h6v2h-6zm0,8h6v3h-6zm0,8h6v7h-6zm0,10h6v2h-6zm0,4h6v8h-6zm0,9h6v10h-6zm0,12h6v12h-6zm0,13h6v190h-6zm0,215h6v3h-6zM55,2h5v1h-5zm0,10h5v1h-5zm0,11h5v2h-5zm0,15h5v2h-5zm0,5h5v3h-5zm0,8h5v2h-5zm0,3h5v4h-5zm0,7h5v2h-5zm0,3h5v4h-5zm0,7h5v7h-5zm0,8h5v5h-5zm0,7h5v1h-5zm0,6h5v210h-5zm0,235h5v3h-5zM60,35h6v5h-6zm0,18h6v1h-6zm0,3h6v2h-6zm0,7h6v1h-6zm0,5h6v1h-6zm0,3h6v2h-6zm0,3h6v10h-6zm0,12h6v3h-6zm0,5h6v1h-6zm0,3h6v33h-6zm0,35h6v175h-6zm0,196h6v5h-6zM66,21h5v2h-5zm0,24h5v5h-5zm0,11h5v3h-5zm0,7h5v3h-5zm0,8h5v5h-5zm0,7h5v3h-5zm0,5h5v6h-5zm0,8h5v6h-5zm0,8h5v3h-5zm0,5h5v2h-5zm0,3h5v197h-5zm0,218h5v5h-5zM71,17h5v1h-5zm0,18h5v1h-5zm0,5h5v1h-5zm0,6h5v2h-5zm0,5h5v2h-5zm0,15h5v3h-5zm0,12h5v3h-5zm0,6h5v5h-5zm0,8h5v2h-5zm0,4h5v3h-5zm0,5h5v1h-5zm0,3h5v10h-5zm0,12h5v14h-5zm0,16h5v173h-5zm0,193h5v5h-5zM76,30h6v1h-6zm0,18h6v2h-6zm0,3h6v3h-6zm0,5h6v2h-6zm0,8h6v4h-6zm0,5h6v2h-6zm0,5h6v2h-6zm0,5h6v4h-6zm0,8h6v5h-6zm0,7h6v2h-6zm0,5h6v2h-6zm0,10h6v5h-6zm0,7h6v6h-6zm0,8h6v3h-6zm0,5h6v8h-6zm0,10h6v168h-6zm0,184h6v7h-6zM82,10h5v2h-5zm0,18h5v2h-5zm0,17h5v1h-5zm0,5h5v1h-5zm0,11h5v7h-5zm0,10h5v2h-5zm0,3h5v2h-5zm0,5h5v2h-5zm0,10h5v2h-5zm0,7h5v1h-5zm0,5h5v1h-5zm0,3h5v13h-5zm0,15h5v11h-5zm0,13h5v177h-5zm0,191h5v7h-5zM87,46h6v2h-6zm0,7h6v1h-6zm0,11h6v2h-6zm0,5h6v2h-6zm0,7h6v3h-6zm0,18h6v8h-6zm0,10h6v2h-6zm0,5h6v2h-6zm0,3h6v2h-6zm0,4h6v6h-6zm0,8h6v6h-6zm0,10h6v1h-6zm0,5h6v11h-6zm0,13h6v158h-6zm0,170h6v8h-6zM93,53h5v1h-5zm0,5h5v1h-5zm0,8h5v2h-5zm0,20h5v1h-5zm0,5h5v1h-5zm0,8h5v3h-5zm0,8h5v7h-5zm0,13h5v2h-5zm0,5h5v2h-5zm0,5h5v2h-5zm0,4h5v15h-5zm0,16h5v162h-5zm0,172h5v8h-5zM98,66h6v2h-6zm0,17h6v1h-6zm0,8h6v1h-6zm0,8h6v2h-6zm0,7h6v1h-6zm0,3h6v2h-6zm0,3h6v2h-6zm0,4h6v1h-6zm0,8h6v3h-6zm0,11h6v2h-6zm0,5h6v2h-6zm0,4h6v1h-6zm0,6h6v8h-6zm0,10h6v3h-6zm0,5h6v149h-6zm0,155h6v10h-6zM104,45h5v1h-5zm0,33h5v3h-5zm0,47h5v2h-5zm0,7h5v2h-5zm0,3h5v2h-5zm0,4h5v1h-5zm0,5h5v3h-5zm0,5h5v4h-5zm0,8h5v160h-5zm0,161h5v12h-5zM109,45h6v1h-6zm0,38h6v1h-6zm0,33h6v3h-6zm0,9h6v2h-6zm0,5h6v2h-6zm0,12h6v2h-6zm0,8h6v7h-6zm0,12h6v3h-6zm0,5h6v6h-6zm0,8h6v155h-6zm6,-94h5v2h-5zm0,8h5v2h-5zm0,18h5v2h-5zm0,25h5v2h-5zm0,5h5v2h-5zm0,12h5v1h-5zm0,3h5v1h-5zm0,6h5v4h-5zm0,7h5v2h-5zm0,5h5v10h-5zm0,12h5v148h-5zm5,-98h6v2h-6zm0,33h6v2h-6zm0,7h6v1h-6zm0,23h6v2h-6zm0,6h6v2h-6zm0,5h6v5h-6zm0,7h6v3h-6zm0,5h6v2h-6zm0,7h6v3h-6zm0,5h6v8h-6zm0,9h6v139h-6zm6,-19h5v1h-5zm0,3h5v3h-5zm0,7h5v4h-5zm0,6h5v142h-5zm5,-77h6v1h-6zm0,13h6v1h-6zm0,20h6v1h-6zm0,9h6v2h-6zm0,7h6v2h-6zm0,5h6v2h-6zm0,5h6v3h-6zm0,5h6v2h-6zm0,7h6v1h-6zm0,11h6v137h-6zm6,-58h5v2h-5zm0,47h5v1h-5zm0,16h5v132h-5zm5,-97h5v1h-5zm0,48h5v1h-5zm0,14h5v2h-5zm0,40h5v10h-5zm0,12h5v9h-5zm0,11h5v104h-5zm5,-36h6v1h-6zm0,5h6v1h-6zm0,5h6v3h-6zm0,16h6v114h-6zm6,-69h5v2h-5zm0,6h5v2h-5zm0,47h5v1h-5zm0,15h5v1h-5zm0,3h5v5h-5zm0,6h5v2h-5zm0,4h5v1h-5zm0,6h5v96h-5zm5,-81h6v2h-6zm0,57h6v1h-6zm0,11h6v2h-6zm0,7h6v1h-6zm0,3h6v99h-6zm6,-41h5v1h-5zm0,28h5v1h-5zm0,5h5v1h-5zm0,11h5v2h-5zm0,4h5v92h-5zm5,-68h6v2h-6zm0,8h6v2h-6zm0,45h6v1h-6zm0,6h6v2h-6zm0,4h6v3h-6zm0,5h6v6h-6zm0,8h6v84h-6zm6,-46h5v1h-5zm0,15h5v3h-5zm0,6h5v2h-5zm0,10h5v2h-5zm0,12h5v5h-5zm0,6h5v2h-5zm0,5h5v76h-5zm5,-46h6v2h-6zm0,10h6v1h-6zm0,10h6v1h-6zm0,6h6v2h-6zm0,15h6v7h-6zm0,8h6v5h-6zm0,7h6v64h-6zm6,-31h5v1h-5zm0,13h5v2h-5zm0,3h5v2h-5zm0,3h5v2h-5zm0,4h5v1h-5zm0,3h5v2h-5zm0,3h5v5h-5zm0,7h5v59h-5zm5,-25h6v2h-6zm0,13h6v2h-6zm0,4h6v1h-6zm0,3h6v63h-6zm6,-16h5v1h-5zm0,14h5v2h-5zm0,4h5v3h-5zm0,5h5v1h-5zm0,3h5v53h-5zm0,54h5v2h-5zm5,-99h5v2h-5zm0,7h5v2h-5zm0,3h5v2h-5zm0,5h5v2h-5zm0,20h5v2h-5zm0,3h5v2h-5zm0,5h5v2h-5zm0,4h5v52h-5zm5,-17h6v2h-6zm0,10h6v2h-6zm0,3h6v2h-6zm0,4h6v1h-6zm0,3h6v2h-6zm0,3h6v43h-6zm6,-8h5v2h-5zm0,5h5v2h-5zm0,3h5v2h-5zm0,5h5v2h-5zm0,3h5v37h-5zm5,-14h6v1h-6zm0,6h6v2h-6zm0,3h6v40h-6zm6,-9h5v1h-5zm0,9h5v2h-5zm0,9h5v31h-5zm5,-7h6v2h-6zm0,5h6v2h-6zm0,5h6v2h-6zm0,3h6v23h-6zm6,-21h5v2h-5zm0,10h5v1h-5zm0,8h5v26h-5zm5,-3h6v1h-6zm0,5h6v1h-6zm0,5h6v18h-6zm0,19h6v2h-6zm6,-23h5v2h-5zm0,5h5v2h-5zm0,5h5v10h-5zm5,-11h6v3h-6zm0,11h6v4h-6zm0,7h6v1h-6zm6,-12h5v2h-5zm0,4h5v1h-5zm0,3h5v2h-5zm0,6h5v2h-5zm5,-13h6v4h-6zm0,15h6v2h-6zm6,-10h5v5h-5zm5,-1h5v1h-5z"></path><path fill="#1652cc" d="M0,310h5v4h-5zm5,-5h6v5h-6zm0,23h6v2h-6zm6,-24h5v3h-5zm0,24h5v2h-5zm5,-26h6v5h-6zm6,0h5v3h-5zm5,0h6v3h-6zm6,-2h5v5h-5zm0,27h5v1h-5zm5,-27h6v5h-6zm0,27h6v1h-6zm6,-25h5v3h-5zm5,0h6v3h-6zm0,23h6v2h-6zm6,-23h5v5h-5zm0,23h5v2h-5zm5,-21h6v3h-6zm6,0h5v5h-5zm0,19h5v2h-5zm5,-18h5v4h-5zm0,18h5v2h-5zm5,-16h6v3h-6zm0,15h6v1h-6zm6,-13h5v3h-5zm0,13h5v1h-5zm5,-12h6v4h-6zm0,10h6v2h-6zm6,-8h5v5h-5zm0,6h5v4h-5zm5,-4h6v6h-6zm6,3h5v1h-5z"></path><path fill="#1063db" d="M0,314h5v1h-5zm5,-4h6v2h-6zm6,-3h5v3h-5zm5,0h6v2h-6zm6,-2h5v4h-5zm5,0h6v2h-6zm0,22h6v1h-6zm6,-22h5v2h-5zm5,0h6v2h-6zm6,0h5v2h-5zm0,20h5v2h-5zm5,-20h6v4h-6zm6,2h5v2h-5zm0,16h5v2h-5zm5,-16h6v3h-6zm0,16h6v2h-6zm6,-14h5v1h-5zm5,0h5v3h-5zm0,13h5v1h-5zm5,-12h6v4h-6zm6,2h5v3h-5zm0,8h5v2h-5zm5,-6h6v6h-6zm6,3h5v1h-5z"></path><path fill="#1171d8" d="M5,312h6v2h-6zm6,-2h5v2h-5zm5,-1h6v1h-6zm6,0h5v1h-5zm0,18h5v1h-5zm5,-20h6v2h-6zm6,0h5v2h-5zm5,0h6v2h-6zm0,18h6v2h-6zm6,-18h5v2h-5zm5,2h6v1h-6zm0,14h6v2h-6zm6,-14h5v1h-5zm11,1h5v2h-5zm0,12h5v1h-5zm5,-10h5v2h-5zm5,2h6v1h-6zm0,6h6v2h-6zm6,-5h5v5h-5z"></path><path fill="#1380d5" d="M0,315h5v2h-5zm0,12h5v1h-5zM16,310h6v2h-6zm0,17h6v1h-6zM27,309h6v1h-6zm6,0h5v1h-5zm0,16h5v2h-5zm5,-16h6v1h-6zm6,0h5v1h-5zm0,14h5v2h-5zM55,310h5v2h-5zm5,0h6v2h-6zm0,12h6v1h-6zm6,-10h5v2h-5zm5,2h5v1h-5zm0,6h5v2h-5zm5,-5h6v5h-6z"></path><path fill="#0e8ed0" d="M0,317h5v1h-5zm5,-3h6v1h-6zm6,-2h5v2h-5zm11,-2h5v2h-5zm5,0h6v2h-6zm0,15h6v2h-6zm6,-15h5v2h-5zm5,0h6v2h-6zm6,0h5v2h-5zm5,0h6v2h-6zm6,12h5v1h-5zm5,-10h6v2h-6zm6,2h5v1h-5zm0,6h5v2h-5zm5,-5h5v2h-5zm0,3h5v2h-5z"></path><path fill="#089dcc" d="M5,327h6v1h-6zm6,0h5v1h-5zm5,-15h6v2h-6zm22,11h6v2h-6zM49,312h6v2h-6zm6,0h5v2h-5zm5,2h6v1h-6zm11,3h5v1h-5z"></path><path fill="#0da7c2" d="M0,318h5v2h-5zm0,7h5v2h-5zM11,314h5v1h-5zm11,-2h5v2h-5zm0,13h5v2h-5zm5,-13h6v2h-6zm6,0h5v2h-5zm0,11h5v2h-5zm5,-11h6v2h-6zm6,0h5v2h-5zm5,10h6v1h-6zm11,-2h6v2h-6zm6,-5h5v5h-5z"></path><path fill="#1dafb3" d="M5,315h6v2h-6zm11,-1h6v1h-6zm28,8h5v1h-5zm11,-8h5v1h-5zm0,6h5v2h-5zm5,-5h6v2h-6z"></path><path fill="#2db7a3" d="M0,320h5v2h-5zm0,3h5v2h-5zm16,2h6v2h-6zm6,-11h5v1h-5zm5,9h6v2h-6zm17,-9h5v1h-5zm5,0h6v1h-6zm6,1h5v2h-5zm5,2h6v3h-6z"></path><path fill="#52ba91" d="M0,322h5v1h-5zm11,-7h5v2h-5zm16,-1h6v1h-6zm6,0h5v1h-5zm5,0h6v1h-6zm0,8h6v1h-6zm11,-2h6v2h-6zm6,-2h5v2h-5z"></path><path fill="#73bd80" d="M5,317h6v1h-6zm44,-2h6v2h-6zm6,2h5v1h-5z"></path><path fill="#94be71" d="M5,325h6v2h-6zm6,0h5v2h-5zm5,-10h6v2h-6zm6,8h5v2h-5zm11,-1h5v1h-5zm11,-7h5v2h-5zm0,5h5v2h-5zm5,-3h6v3h-6z"></path><path fill="#b2bc65" d="M22,315h5v2h-5zm5,0h6v2h-6zm6,0h5v2h-5zm5,0h6v2h-6z"></path><path fill="#d0ba59" d="M5,318h6v2h-6zm6,-1h5v1h-5zm5,6h6v2h-6zm11,-1h6v1h-6zm11,-2h6v2h-6zm6,-3h5v3h-5z"></path><path fill="#e1bf4a" d="M16,317h6v1h-6zm17,3h5v2h-5zm5,-3h6v1h-6z"></path><path fill="#f4c53a" d="M5,323h6v2h-6zm6,0h5v2h-5zm11,-6h5v1h-5zm0,5h5v1h-5zm5,-5h6v1h-6zm6,0h5v1h-5zm5,1h6v2h-6z"></path><path fill="#fcd12b" d="M5,320h6v3h-6zm6,-2h5v2h-5zm16,2h6v2h-6zm6,-2h5v2h-5z"></path><path fill="#fae61c" d="M16,318h6v2h-6zm0,4h6v1h-6zm6,-4h5v4h-5zm5,0h6v2h-6z"></path><path fill="#f9f90e" d="M11,320h5v3h-5zm5,0h6v2h-6z"></path></g></svg><g><g transform="translate(0,330)"><path d="M0,0h546M0,-12V0M11,-6V0M22,-6V0M33,-6V0M44,-6V0M55,-12V0M66,-6V0M76,-6V0M87,-6V0M98,-6V0M109,-12V0M120,-6V0M131,-6V0M142,-6V0M153,-6V0M164,-12V0M175,-6V0M186,-6V0M197,-6V0M207,-6V0M218,-12V0M229,-6V0M240,-6V0M251,-6V0M262,-6V0M273,-12V0M284,-6V0M295,-6V0M306,-6V0M317,-6V0M328,-12V0M339,-6V0M349,-6V0M360,-6V0M371,-6V0M382,-12V0M393,-6V0M404,-6V0M415,-6V0M426,-6V0M437,-12V0M448,-6V0M459,-6V0M470,-6V0M480,-6V0M491,-12V0M502,-6V0M513,-6V0M524,-6V0M535,-6V0M546,-12V0" style="stroke: rgb(0, 0, 0); stroke-width: 1;"></path><g font-family="Arial" font-size="14" xml:space="preserve" fill="#000000" text-anchor="middle"><text dy=".8em" transform="translate(0,3)">0</text><text dy=".8em" transform="translate(55,3)">10</text><text dy=".8em" transform="translate(109,3)">20</text><text dy=".8em" transform="translate(164,3)">30</text><text dy=".8em" transform="translate(218,3)">40</text><text dy=".8em" transform="translate(273,3)">50</text><text dy=".8em" transform="translate(328,3)">60</text><text dy=".8em" transform="translate(382,3)">70</text><text dy=".8em" transform="translate(437,3)">80</text><text dy=".8em" transform="translate(491,3)">90</text><text dy=".8em" transform="translate(546,3)">100</text></g><rect x="0" y="0" width="546" height="17" style="opacity: 0; cursor: crosshair;"></rect></g><g><path d="M0,0v330M21,330H0M11,322H0M11,314H0M11,305H0M21,297H0M11,289H0M11,281H0M11,272H0M21,264H0M11,256H0M11,248H0M11,239H0M21,231H0M11,223H0M11,215H0M11,206H0M21,198H0M11,190H0M11,182H0M11,173H0M21,165H0M11,157H0M11,148H0M11,140H0M21,132H0M11,124H0M11,115H0M11,107H0M21,99H0M11,91H0M11,83H0M11,74H0M21,66H0M11,58H0M11,50H0M11,41H0M21,33H0M11,25H0M11,17H0M11,8H0M21,0H0" style="stroke: rgb(0, 0, 0); stroke-width: 1;"></path><g font-family="Arial" font-size="14" xml:space="preserve" fill="#000000" text-anchor="end"><text dominant-baseline="middle" transform="translate(-3,330)">0</text><text dominant-baseline="middle" transform="translate(-3,297)">2</text><text dominant-baseline="middle" transform="translate(-3,264)">4</text><text dominant-baseline="middle" transform="translate(-3,231)">6</text><text dominant-baseline="middle" transform="translate(-3,198)">8</text><text dominant-baseline="middle" transform="translate(-3,165)">10</text><text dominant-baseline="middle" transform="translate(-3,132)">12</text><text dominant-baseline="middle" transform="translate(-3,99)">14</text><text dominant-baseline="middle" transform="translate(-3,66)">16</text><text dominant-baseline="middle" transform="translate(-3,33)">18</text><text dominant-baseline="middle" transform="translate(-3)">20</text></g><rect x="-18" y="0" width="18" height="330" style="opacity: 0; cursor: crosshair;"></rect></g></g><path d="M2,2h15v-5h-20v20h5Z" style="opacity: 0; cursor: nw-resize;"></path><path d="M544,2h-15v-5h20v20h-5 Z" style="opacity: 0; cursor: ne-resize;"></path><path d="M2,328h15v5h-20v-20h5Z" style="opacity: 0; cursor: sw-resize;"></path><path d="M544,328h-15v5h20v-20h-5Z" style="opacity: 0; cursor: se-resize;"></path><path d="M-3,18h5v294h-5Z" style="opacity: 0; cursor: w-resize;"></path><path d="M549,18h-5v294h5Z" style="opacity: 0; cursor: e-resize;"></path><path d="M18,-3v5h510v-5Z" style="opacity: 0; cursor: n-resize;"></path><path d="M18,333v-5h510v5Z" style="opacity: 0; cursor: s-resize;"></path></g><g transform="translate(623,41)" style="cursor: move;"><path d="M0,0H35V330H0Z" style="fill: rgb(242, 242, 242); stroke: rgb(0, 0, 0); stroke-width: 1; pointer-events: visiblefill;"></path><path d="M0,314H35V330H0Z" style="fill: rgb(22, 82, 204);"><title>0.00 - 2839524.35</title></path><path d="M0,297H35V315H0Z" style="fill: rgb(22, 82, 204);"><title>2839524.35 - 5679048.70</title></path><path d="M0,281H35V298H0Z" style="fill: rgb(16, 99, 219);"><title>5679048.70 - 8518573.05</title></path><path d="M0,264H35V282H0Z" style="fill: rgb(17, 113, 216);"><title>8518573.05 - 11358097.40</title></path><path d="M0,248H35V265H0Z" style="fill: rgb(19, 128, 213);"><title>11358097.40 - 14197621.75</title></path><path d="M0,231H35V249H0Z" style="fill: rgb(14, 142, 208);"><title>14197621.75 - 17037146.10</title></path><path d="M0,215H35V232H0Z" style="fill: rgb(8, 157, 204);"><title>17037146.10 - 19876670.45</title></path><path d="M0,198H35V216H0Z" style="fill: rgb(13, 167, 194);"><title>19876670.45 - 22716194.80</title></path><path d="M0,181H35V199H0Z" style="fill: rgb(29, 175, 179);"><title>22716194.80 - 25555719.15</title></path><path d="M0,165H35V182H0Z" style="fill: rgb(45, 183, 163);"><title>25555719.15 - 28395243.50</title></path><path d="M0,148H35V166H0Z" style="fill: rgb(82, 186, 145);"><title>28395243.50 - 31234767.85</title></path><path d="M0,132H35V149H0Z" style="fill: rgb(115, 189, 128);"><title>31234767.85 - 34074292.20</title></path><path d="M0,115H35V133H0Z" style="fill: rgb(148, 190, 113);"><title>34074292.20 - 36913816.55</title></path><path d="M0,99H35V116H0Z" style="fill: rgb(178, 188, 101);"><title>36913816.55 - 39753340.90</title></path><path d="M0,83H35V100H0Z" style="fill: rgb(208, 186, 89);"><title>39753340.90 - 42592865.25</title></path><path d="M0,66H35V84H0Z" style="fill: rgb(225, 191, 74);"><title>42592865.25 - 45432389.60</title></path><path d="M0,49H35V67H0Z" style="fill: rgb(244, 197, 58);"><title>45432389.60 - 48271913.95</title></path><path d="M0,33H35V50H0Z" style="fill: rgb(252, 209, 43);"><title>48271913.95 - 51111438.30</title></path><path d="M0,17H35V34H0Z" style="fill: rgb(250, 230, 28);"><title>51111438.30 - 53950962.65</title></path><path d="M0,0H35V18H0Z" style="fill: rgb(249, 249, 14);"><title>53950962.65 - 56790487.00</title></path><g transform="translate(35)"><path d="M0,0v330M0,330H-17M0,301H-17M0,272H-17M0,243H-17M0,214H-17M0,185H-17M0,156H-17M0,127H-17M0,98H-17M0,69H-17M0,39H-17M0,10H-17" style="stroke: rgb(0, 0, 0); stroke-width: 1;"></path><g font-family="Arial" font-size="14" xml:space="preserve"><text fill="#000000" text-anchor="start" dominant-baseline="middle" transform="translate(3,330)">0</text><text fill="#000000" text-anchor="start" dominant-baseline="middle" transform="translate(3,301)">5</text><text fill="#000000" text-anchor="start" dominant-baseline="middle" transform="translate(3,272)">10</text><text fill="#000000" text-anchor="start" dominant-baseline="middle" transform="translate(3,243)">15</text><text fill="#000000" text-anchor="start" dominant-baseline="middle" transform="translate(3,214)">20</text><text fill="#000000" text-anchor="start" dominant-baseline="middle" transform="translate(3,185)">25</text><text fill="#000000" text-anchor="start" dominant-baseline="middle" transform="translate(3,156)">30</text><text fill="#000000" text-anchor="start" dominant-baseline="middle" transform="translate(3,127)">35</text><text fill="#000000" text-anchor="start" dominant-baseline="middle" transform="translate(3,98)">40</text><text fill="#000000" text-anchor="start" dominant-baseline="middle" transform="translate(3,69)">45</text><text fill="#000000" text-anchor="start" dominant-baseline="middle" transform="translate(3,39)">50</text><text fill="#000000" text-anchor="start" dominant-baseline="middle" transform="translate(3,10)">55</text><g transform="translate(-32,-6)"><text fill="#000000" font-size="14">×10</text><text fill="#000000" font-size="8" transform="translate(23,-9)">6</text></g></g><rect x="0" y="0" width="18" height="330" style="opacity: 0; cursor: crosshair;"></rect></g><path d="M2,2h15v-5h-20v20h5Z" style="opacity: 0; cursor: nw-resize;"></path><path d="M33,2h-15v-5h20v20h-5 Z" style="opacity: 0; cursor: ne-resize;"></path><path d="M2,328h15v5h-20v-20h5Z" style="opacity: 0; cursor: sw-resize;"></path><path d="M33,328h-15v5h20v-20h-5Z" style="opacity: 0; cursor: se-resize;"></path><path d="M-3,18h5v294h-5Z" style="opacity: 0; cursor: w-resize;"></path><path d="M38,18h-5v294h5Z" style="opacity: 0; cursor: e-resize;"></path><path d="M18,-3v5h0v-5Z" style="opacity: 0; cursor: n-resize;"></path><path d="M18,333v-5h0v5Z" style="opacity: 0; cursor: s-resize;"></path></g><g transform="translate(77,2)" font-family="Arial" font-size="23" xml:space="preserve" style="cursor: move;"><path d="M0,0H546V27H0Z" style="fill: none; pointer-events: visiblefill;"></path><text fill="#000000" text-anchor="middle" dominant-baseline="middle" transform="translate(273,14)">x: Nch, y: max-pion0's pT</text><path d="M2,2h15v-5h-20v20h5Z" style="opacity: 0; cursor: nw-resize;"></path><path d="M544,2h-15v-5h20v20h-5 Z" style="opacity: 0; cursor: ne-resize;"></path><path d="M2,25h15v5h-20v-20h5Z" style="opacity: 0; cursor: sw-resize;"></path><path d="M544,25h-15v5h20v-20h-5Z" style="opacity: 0; cursor: se-resize;"></path><path d="M-3,18h5v0h-5Z" style="opacity: 0; cursor: w-resize;"></path><path d="M549,18h-5v0h5Z" style="opacity: 0; cursor: e-resize;"></path><path d="M18,-3v5h510v-5Z" style="opacity: 0; cursor: n-resize;"></path><path d="M18,30v-5h510v5Z" style="opacity: 0; cursor: s-resize;"></path></g></g></svg>