<svg width="800" height="513" xmlns="http://www.w3.org/2000/svg"><path d="M0,0H800V513H0Z" style="pointer-events: visiblefill; fill: rgb(255, 255, 255);"></path><g><g transform="translate(96,26)"><title></title><path d="M0,0H608V426H0Z" style="fill: rgb(255, 255, 255); stroke: rgb(0, 0, 0); stroke-width: 1; pointer-events: visiblefill; cursor: default;"></path><svg x="0" y="0" overflow="hidden" width="608" height="426" viewBox="0 0 608 426" style="pointer-events: visiblefill; cursor: default;"><g><path d="M0,278h30M15,278v0M30,252h32M46,252v1M61,219h30M76,218v1M91,199h32M107,199v1M122,196h30M137,196v1M152,205h30M167,205v1M182,226h32M198,226v1M213,253h30M228,253v0M243,283h32M259,283v1M274,312h30M289,312v0M304,339h30M319,338v1M334,361h32M350,360v1M365,379h30M380,379v0M395,393h32M411,393v0M426,404h30M441,404v0M456,411h30M471,411v0M486,416h32M502,416v0M517,420h30M532,420v0M547,422h32M563,422v0M578,424h30M593,424v0" style="stroke: rgb(0, 0, 0); stroke-width: 1;"></path><path d="M0,278h30v0h-30zM30,252h32v1h-32zM61,218h30v1h-30zM91,199h32v1h-32zM122,196h30v1h-30zM152,205h30v1h-30zM182,226h32v1h-32zM213,253h30v0h-30zM243,283h32v1h-32zM274,312h30v0h-30zM304,338h30v1h-30zM334,360h32v1h-32zM365,379h30v0h-30zM395,393h32v0h-32zM426,404h30v0h-30zM456,411h30v0h-30zM486,416h32v0h-32zM517,420h30v0h-30zM547,422h32v0h-32zM578,424h30v0h-30z" style="fill: none; pointer-events: visiblefill;"></path><path d="M11,274v8h8v-8zM42,248v8h8v-8zM72,215v8h8v-8zM103,195v8h8v-8zM133,192v8h8v-8zM163,201v8h8v-8zM194,222v8h8v-8zM224,249v8h8v-8zM255,279v8h8v-8zM285,308v8h8v-8zM315,335v8h8v-8zM346,357v8h8v-8zM376,375v8h8v-8zM407,389v8h8v-8zM437,400v8h8v-8zM467,407v8h8v-8zM498,412v8h8v-8zM528,416v8h8v-8zM559,418v8h8v-8zM589,420v8h8v-8z" style="stroke: rgb(0, 0, 0); fill: rgb(0, 0, 0);"></path></g><g><path d="M0,278h30M15,278v0M30,252h32M46,252v1M61,218h30M76,217v1M91,198h32M107,198v0M122,194h30M137,194v1M152,204h30M167,204v0M182,225h32M198,225v1M213,253h30M228,253v0M243,284h32M259,284v0M274,313h30M289,313v0M304,340h30M319,339v1M334,362h32M350,362v0M365,380h30M380,380v0M395,394h32M411,394v0M426,404h30M441,404v0M456,411h30M471,411v0M486,417h32M502,417v0M517,420h30M532,420v0M547,422h32M563,422v0M578,424h30M593,424v0" style="stroke: rgb(0, 204, 0); stroke-width: 1;"></path><path d="M0,278h30v0h-30zM30,252h32v1h-32zM61,217h30v1h-30zM91,198h32v0h-32zM122,194h30v1h-30zM152,204h30v0h-30zM182,225h32v1h-32zM213,253h30v0h-30zM243,284h32v0h-32zM274,313h30v0h-30zM304,339h30v1h-30zM334,362h32v0h-32zM365,380h30v0h-30zM395,394h32v0h-32zM426,404h30v0h-30zM456,411h30v0h-30zM486,417h32v0h-32zM517,420h30v0h-30zM547,422h32v0h-32zM578,424h30v0h-30z" style="fill: none; pointer-events: visiblefill;"></path><path d="M16,279h3v-3h-3v-3h-3v3h-3v3h3v3h3zM47,253h3v-3h-3v-3h-3v3h-3v3h3v3h3zM77,219h3v-3h-3v-3h-3v3h-3v3h3v3h3zM108,199h3v-3h-3v-3h-3v3h-3v3h3v3h3zM138,195h3v-3h-3v-3h-3v3h-3v3h3v3h3zM168,205h3v-3h-3v-3h-3v3h-3v3h3v3h3zM199,226h3v-3h-3v-3h-3v3h-3v3h3v3h3zM229,254h3v-3h-3v-3h-3v3h-3v3h3v3h3zM260,285h3v-3h-3v-3h-3v3h-3v3h3v3h3zM290,314h3v-3h-3v-3h-3v3h-3v3h3v3h3zM320,341h3v-3h-3v-3h-3v3h-3v3h3v3h3zM351,363h3v-3h-3v-3h-3v3h-3v3h3v3h3zM381,381h3v-3h-3v-3h-3v3h-3v3h3v3h3zM412,395h3v-3h-3v-3h-3v3h-3v3h3v3h3zM442,405h3v-3h-3v-3h-3v3h-3v3h3v3h3zM472,412h3v-3h-3v-3h-3v3h-3v3h3v3h3zM503,418h3v-3h-3v-3h-3v3h-3v3h3v3h3zM533,421h3v-3h-3v-3h-3v3h-3v3h3v3h3zM564,423h3v-3h-3v-3h-3v3h-3v3h3v3h3zM594,425h3v-3h-3v-3h-3v3h-3v3h3v3h3z" style="stroke: rgb(0, 204, 0); fill: rgb(0, 204, 0);"></path></g><g><path d="M0,267h30M15,266v2M30,244h32M46,243v2M61,211h30M76,210v2M91,195h32M107,194v2M122,191h30M137,190v2M152,205h30M167,204v2M182,229h32M198,228v2M213,257h30M228,256v2M243,287h32M259,286v2M274,318h30M289,317v1M304,343h30M319,343v1M334,365h32M350,364v1M365,383h30M380,382v1M395,396h32M411,395v1M426,406h30M441,406v0M456,413h30M471,412v1M486,417h32M502,417v1M517,421h30M532,420v1M547,423h32M563,423v0M578,424h30M593,424v0" style="stroke: rgb(51, 255, 153); stroke-width: 1;"></path><path d="M0,266h30v2h-30zM30,243h32v2h-32zM61,210h30v2h-30zM91,194h32v2h-32zM122,190h30v2h-30zM152,204h30v2h-30zM182,228h32v2h-32zM213,256h30v2h-30zM243,286h32v2h-32zM274,317h30v1h-30zM304,343h30v1h-30zM334,364h32v1h-32zM365,382h30v1h-30zM395,395h32v1h-32zM426,406h30v0h-30zM456,412h30v1h-30zM486,417h32v1h-32zM517,420h30v1h-30zM547,423h32v0h-32zM578,424h30v0h-30z" style="fill: none; pointer-events: visiblefill;"></path><path d="M16,268h3v-3h-3v-3h-3v3h-3v3h3v3h3zM47,245h3v-3h-3v-3h-3v3h-3v3h3v3h3zM77,212h3v-3h-3v-3h-3v3h-3v3h3v3h3zM108,196h3v-3h-3v-3h-3v3h-3v3h3v3h3zM138,192h3v-3h-3v-3h-3v3h-3v3h3v3h3zM168,206h3v-3h-3v-3h-3v3h-3v3h3v3h3zM199,230h3v-3h-3v-3h-3v3h-3v3h3v3h3zM229,258h3v-3h-3v-3h-3v3h-3v3h3v3h3zM260,288h3v-3h-3v-3h-3v3h-3v3h3v3h3zM290,319h3v-3h-3v-3h-3v3h-3v3h3v3h3zM320,344h3v-3h-3v-3h-3v3h-3v3h3v3h3zM351,366h3v-3h-3v-3h-3v3h-3v3h3v3h3zM381,384h3v-3h-3v-3h-3v3h-3v3h3v3h3zM412,397h3v-3h-3v-3h-3v3h-3v3h3v3h3zM442,407h3v-3h-3v-3h-3v3h-3v3h3v3h3zM472,414h3v-3h-3v-3h-3v3h-3v3h3v3h3zM503,418h3v-3h-3v-3h-3v3h-3v3h3v3h3zM533,422h3v-3h-3v-3h-3v3h-3v3h3v3h3zM564,424h3v-3h-3v-3h-3v3h-3v3h3v3h3zM594,425h3v-3h-3v-3h-3v3h-3v3h3v3h3z" style="stroke: rgb(51, 255, 153); fill: rgb(51, 255, 153);"></path></g><g><path d="M0,246h30M15,242v7M30,231h32M46,228v7M61,198h30M76,194v8M91,195h32M107,191v8M122,187h30M137,183v8M152,210h30M167,206v8M182,235h32M198,232v7M213,262h30M228,259v6M243,292h32M259,289v6M274,324h30M289,322v5M304,350h30M319,347v5M334,371h32M350,369v3M365,386h30M380,384v3M395,399h32M411,397v3M426,408h30M441,407v2M456,413h30M471,412v1M486,419h32M502,418v1M517,422h30M532,421v1M547,423h32M563,422v1M578,423h30M593,423v1" style="stroke: rgb(0, 204, 204); stroke-width: 1;"></path><path d="M0,242h30v7h-30zM30,228h32v7h-32zM61,194h30v8h-30zM91,191h32v8h-32zM122,183h30v8h-30zM152,206h30v8h-30zM182,232h32v7h-32zM213,259h30v6h-30zM243,289h32v6h-32zM274,322h30v5h-30zM304,347h30v5h-30zM334,369h32v3h-32zM365,384h30v3h-30zM395,397h32v3h-32zM426,407h30v2h-30zM456,412h30v1h-30zM486,418h32v1h-32zM517,421h30v1h-30zM547,422h32v1h-32zM578,423h30v1h-30z" style="fill: none; pointer-events: visiblefill;"></path><path d="M16,247h3v-3h-3v-3h-3v3h-3v3h3v3h3zM47,232h3v-3h-3v-3h-3v3h-3v3h3v3h3zM77,199h3v-3h-3v-3h-3v3h-3v3h3v3h3zM108,196h3v-3h-3v-3h-3v3h-3v3h3v3h3zM138,188h3v-3h-3v-3h-3v3h-3v3h3v3h3zM168,211h3v-3h-3v-3h-3v3h-3v3h3v3h3zM199,236h3v-3h-3v-3h-3v3h-3v3h3v3h3zM229,263h3v-3h-3v-3h-3v3h-3v3h3v3h3zM260,293h3v-3h-3v-3h-3v3h-3v3h3v3h3zM290,325h3v-3h-3v-3h-3v3h-3v3h3v3h3zM320,351h3v-3h-3v-3h-3v3h-3v3h3v3h3zM351,372h3v-3h-3v-3h-3v3h-3v3h3v3h3zM381,387h3v-3h-3v-3h-3v3h-3v3h3v3h3zM412,400h3v-3h-3v-3h-3v3h-3v3h3v3h3zM442,409h3v-3h-3v-3h-3v3h-3v3h3v3h3zM472,414h3v-3h-3v-3h-3v3h-3v3h3v3h3zM503,420h3v-3h-3v-3h-3v3h-3v3h3v3h3zM533,423h3v-3h-3v-3h-3v3h-3v3h3v3h3zM564,424h3v-3h-3v-3h-3v3h-3v3h3v3h3zM594,424h3v-3h-3v-3h-3v3h-3v3h3v3h3z" style="stroke: rgb(0, 204, 204); fill: none;"></path></g><g><path d="M0,231h30M15,223v16M30,237h32M46,229v16M61,204h30M76,196v17M91,165h32M107,156v18M122,191h30M137,182v18M152,199h30M167,191v17M182,245h32M198,237v15M213,272h30M228,265v14M243,292h32M259,286v13M274,324h30M289,319v11M304,354h30M319,349v10M334,374h32M350,369v9M365,389h30M380,386v6M395,396h32M411,393v6M426,412h30M441,410v4M456,418h30M471,417v3M486,419h32M502,417v3M517,423h30M532,422v2M547,422h32M563,421v2M578,425h30M593,424v1" style="stroke: rgb(0, 51, 255); stroke-width: 1;"></path><path d="M0,223h30v16h-30zM30,229h32v16h-32zM61,196h30v17h-30zM91,156h32v18h-32zM122,182h30v18h-30zM152,191h30v17h-30zM182,237h32v15h-32zM213,265h30v14h-30zM243,286h32v13h-32zM274,319h30v11h-30zM304,349h30v10h-30zM334,369h32v9h-32zM365,386h30v6h-30zM395,393h32v6h-32zM426,410h30v4h-30zM456,417h30v3h-30zM486,417h32v3h-32zM517,422h30v2h-30zM547,421h32v2h-32zM578,424h30v1h-30z" style="fill: none; pointer-events: visiblefill;"></path><path d="M13,227l2,2l2,-2l2,2l-2,2l2,2l-2,2l-2,-2l-2,2l-2,-2l2,-2l-2,-2zM44,233l2,2l2,-2l2,2l-2,2l2,2l-2,2l-2,-2l-2,2l-2,-2l2,-2l-2,-2zM74,200l2,2l2,-2l2,2l-2,2l2,2l-2,2l-2,-2l-2,2l-2,-2l2,-2l-2,-2zM105,161l2,2l2,-2l2,2l-2,2l2,2l-2,2l-2,-2l-2,2l-2,-2l2,-2l-2,-2zM135,187l2,2l2,-2l2,2l-2,2l2,2l-2,2l-2,-2l-2,2l-2,-2l2,-2l-2,-2zM165,195l2,2l2,-2l2,2l-2,2l2,2l-2,2l-2,-2l-2,2l-2,-2l2,-2l-2,-2zM196,241l2,2l2,-2l2,2l-2,2l2,2l-2,2l-2,-2l-2,2l-2,-2l2,-2l-2,-2zM226,268l2,2l2,-2l2,2l-2,2l2,2l-2,2l-2,-2l-2,2l-2,-2l2,-2l-2,-2zM257,288l2,2l2,-2l2,2l-2,2l2,2l-2,2l-2,-2l-2,2l-2,-2l2,-2l-2,-2zM287,320l2,2l2,-2l2,2l-2,2l2,2l-2,2l-2,-2l-2,2l-2,-2l2,-2l-2,-2zM317,350l2,2l2,-2l2,2l-2,2l2,2l-2,2l-2,-2l-2,2l-2,-2l2,-2l-2,-2zM348,370l2,2l2,-2l2,2l-2,2l2,2l-2,2l-2,-2l-2,2l-2,-2l2,-2l-2,-2zM378,385l2,2l2,-2l2,2l-2,2l2,2l-2,2l-2,-2l-2,2l-2,-2l2,-2l-2,-2zM409,392l2,2l2,-2l2,2l-2,2l2,2l-2,2l-2,-2l-2,2l-2,-2l2,-2l-2,-2zM439,408l2,2l2,-2l2,2l-2,2l2,2l-2,2l-2,-2l-2,2l-2,-2l2,-2l-2,-2zM469,414l2,2l2,-2l2,2l-2,2l2,2l-2,2l-2,-2l-2,2l-2,-2l2,-2l-2,-2zM500,415l2,2l2,-2l2,2l-2,2l2,2l-2,2l-2,-2l-2,2l-2,-2l2,-2l-2,-2zM530,419l2,2l2,-2l2,2l-2,2l2,2l-2,2l-2,-2l-2,2l-2,-2l2,-2l-2,-2zM561,418l2,2l2,-2l2,2l-2,2l2,2l-2,2l-2,-2l-2,2l-2,-2l2,-2l-2,-2zM591,421l2,2l2,-2l2,2l-2,2l2,2l-2,2l-2,-2l-2,2l-2,-2l2,-2l-2,-2z" style="stroke: rgb(0, 51, 255); fill: rgb(0, 51, 255);"></path></g><g><path d="M0,207h30M15,180v53M30,239h32M46,214v49M61,171h30M76,142v58M91,168h32M107,139v58M122,242h30M137,218v48M152,190h30M167,163v55M182,197h32M198,170v54M213,261h30M228,238v46M243,303h32M259,283v40M274,345h30M289,329v32M304,371h30M319,358v26M334,371h32M350,358v26M365,410h30M380,403v14M395,400h32M411,391v18M426,407h30M441,399v16M456,413h30M471,407v13M486,420h32M502,415v9M547,423h32M563,420v6" style="stroke: rgb(0, 0, 204); stroke-width: 1;"></path><path d="M0,180h30v53h-30zM30,214h32v49h-32zM61,142h30v58h-30zM91,139h32v58h-32zM122,218h30v48h-30zM152,163h30v55h-30zM182,170h32v54h-32zM213,238h30v46h-30zM243,283h32v40h-32zM274,329h30v32h-30zM304,358h30v26h-30zM334,358h32v26h-32zM365,403h30v14h-30zM395,391h32v18h-32zM426,399h30v16h-30zM456,407h30v13h-30zM486,415h32v9h-32zM547,420h32v6h-32z" style="fill: none; pointer-events: visiblefill;"></path><path d="M11,203v8h8v-8zM42,235v8h8v-8zM72,167v8h8v-8zM103,164v8h8v-8zM133,238v8h8v-8zM163,186v8h8v-8zM194,193v8h8v-8zM224,257v8h8v-8zM255,299v8h8v-8zM285,341v8h8v-8zM315,367v8h8v-8zM346,367v8h8v-8zM376,406v8h8v-8zM407,396v8h8v-8zM437,403v8h8v-8zM467,409v8h8v-8zM498,416v8h8v-8zM559,419v8h8v-8z" style="stroke: rgb(0, 0, 204); fill: none;"></path></g></svg><g><g transform="translate(0,426)"><path d="M0,0h608M0,-426h608M0,-15V0M12,-8V0M24,-8V0M36,-8V0M49,-8V0M61,-15V0M73,-8V0M85,-8V0M97,-8V0M109,-8V0M122,-15V0M134,-8V0M146,-8V0M158,-8V0M170,-8V0M182,-15V0M195,-8V0M207,-8V0M219,-8V0M231,-8V0M243,-15V0M255,-8V0M268,-8V0M280,-8V0M292,-8V0M304,-15V0M316,-8V0M328,-8V0M340,-8V0M353,-8V0M365,-15V0M377,-8V0M389,-8V0M401,-8V0M413,-8V0M426,-15V0M438,-8V0M450,-8V0M462,-8V0M474,-8V0M486,-15V0M499,-8V0M511,-8V0M523,-8V0M535,-8V0M547,-15V0M559,-8V0M572,-8V0M584,-8V0M596,-8V0M608,-15V0M0,-411V-426M12,-418V-426M24,-418V-426M36,-418V-426M49,-418V-426M61,-411V-426M73,-418V-426M85,-418V-426M97,-418V-426M109,-418V-426M122,-411V-426M134,-418V-426M146,-418V-426M158,-418V-426M170,-418V-426M182,-411V-426M195,-418V-426M207,-418V-426M219,-418V-426M231,-418V-426M243,-411V-426M255,-418V-426M268,-418V-426M280,-418V-426M292,-418V-426M304,-411V-426M316,-418V-426M328,-418V-426M340,-418V-426M353,-418V-426M365,-411V-426M377,-418V-426M389,-418V-426M401,-418V-426M413,-418V-426M426,-411V-426M438,-418V-426M450,-418V-426M462,-418V-426M474,-418V-426M486,-411V-426M499,-418V-426M511,-418V-426M523,-418V-426M535,-418V-426M547,-411V-426M559,-418V-426M572,-418V-426M584,-418V-426M596,-418V-426M608,-411V-426" style="stroke: rgb(0, 0, 0); stroke-width: 1;"></path><g font-family="Arial" font-size="18" xml:space="preserve" fill="#000000" text-anchor="middle"><text dy=".8em" transform="translate(0,3)">0</text><text dy=".8em" transform="translate(61,3)">1</text><text dy=".8em" transform="translate(122,3)">2</text><text dy=".8em" transform="translate(182,3)">3</text><text dy=".8em" transform="translate(243,3)">4</text><text dy=".8em" transform="translate(304,3)">5</text><text dy=".8em" transform="translate(365,3)">6</text><text dy=".8em" transform="translate(426,3)">7</text><text dy=".8em" transform="translate(486,3)">8</text><text dy=".8em" transform="translate(547,3)">9</text><text dy=".8em" transform="translate(608,3)">10</text></g><rect x="0" y="0" width="608" height="21" style="opacity: 0; cursor: crosshair;"></rect><g font-family="Arial" font-size="18" xml:space="preserve" transform="translate(608,29)" style="cursor: move;"><g transform="translate(-104,3)"><g><path d="M18,-23h-18l7,9l-7,22h18" style="stroke: rgb(0, 0, 0); stroke-width: 1; fill: none;"></path></g><text fill="#000000" font-size="18" x="25">p</text><text fill="#000000" font-size="11" transform="translate(36,4)">T</text><text fill="#000000" font-size="18" x="42">(GeV/c)</text></g></g></g><g><path d="M0,0v426M608,0v426M24,426H0M12,415H0M12,405H0M12,394H0M24,383H0M12,373H0M12,362H0M12,351H0M24,341H0M12,330H0M12,320H0M12,309H0M24,298H0M12,288H0M12,277H0M12,266H0M24,256H0M12,245H0M12,234H0M12,224H0M24,213H0M12,202H0M12,192H0M12,181H0M24,170H0M12,160H0M12,149H0M12,138H0M24,128H0M12,117H0M12,107H0M12,96H0M24,85H0M12,75H0M12,64H0M12,53H0M24,43H0M12,32H0M12,21H0M12,11H0M24,0H0M584,426H608M596,415H608M596,405H608M596,394H608M584,383H608M596,373H608M596,362H608M596,351H608M584,341H608M596,330H608M596,320H608M596,309H608M584,298H608M596,288H608M596,277H608M596,266H608M584,256H608M596,245H608M596,234H608M596,224H608M584,213H608M596,202H608M596,192H608M596,181H608M584,170H608M596,160H608M596,149H608M596,138H608M584,128H608M596,117H608M596,107H608M596,96H608M584,85H608M596,75H608M596,64H608M596,53H608M584,43H608M596,32H608M596,21H608M596,11H608M584,0H608" style="stroke: rgb(0, 0, 0); stroke-width: 1;"></path><g font-family="Arial" font-size="18" xml:space="preserve" fill="#000000" text-anchor="end"><text dominant-baseline="middle" transform="translate(-4,426)">0</text><text dominant-baseline="middle" transform="translate(-4,383)">0.02</text><text dominant-baseline="middle" transform="translate(-4,341)">0.04</text><text dominant-baseline="middle" transform="translate(-4,298)">0.06</text><text dominant-baseline="middle" transform="translate(-4,256)">0.08</text><text dominant-baseline="middle" transform="translate(-4,213)">0.1</text><text dominant-baseline="middle" transform="translate(-4,170)">0.12</text><text dominant-baseline="middle" transform="translate(-4,128)">0.14</text><text dominant-baseline="middle" transform="translate(-4,85)">0.16</text><text dominant-baseline="middle" transform="translate(-4,43)">0.18</text><text dominant-baseline="middle" transform="translate(-4)">0.2</text></g><rect x="-38" y="0" width="38" height="426" style="opacity: 0; cursor: crosshair;"></rect></g></g><path d="M2,2h15v-5h-20v20h5Z" style="opacity: 0; cursor: nw-resize;"></path><path d="M606,2h-15v-5h20v20h-5 Z" style="opacity: 0; cursor: ne-resize;"></path><path d="M2,424h15v5h-20v-20h5Z" style="opacity: 0; cursor: sw-resize;"></path><path d="M606,424h-15v5h20v-20h-5Z" style="opacity: 0; cursor: se-resize;"></path><path d="M-3,18h5v390h-5Z" style="opacity: 0; cursor: w-resize;"></path><path d="M611,18h-5v390h5Z" style="opacity: 0; cursor: e-resize;"></path><path d="M18,-3v5h572v-5Z" style="opacity: 0; cursor: n-resize;"></path><path d="M18,429v-5h572v5Z" style="opacity: 0; cursor: s-resize;"></path></g><g transform="translate(120,51)" font-family="Arial" font-size="12" xml:space="preserve" style="cursor: move;"><path d="M0,0H288V103H0Z" style="fill: none; pointer-events: visiblefill;"></path><text fill="#000000" text-anchor="start" dominant-baseline="middle" transform="translate(9,10)">PYTHIA8, pAu200GeV with option3</text><path d="M32,20v8h8v-8z" style="stroke: rgb(0, 0, 0); fill: rgb(0, 0, 0);"></path><g transform="translate(72,28)"><text fill="#000000" font-size="12">Events with p</text><text fill="#000000" font-size="7" transform="translate(71,3)">T</text><text fill="#000000" font-size="12" x="80">&lt; 2 GeV γ</text><text fill="#000000" font-size="7" transform="translate(133,-7)">dir</text><text fill="#000000" font-size="12" x="145">at |η|&lt;1</text></g><path d="M37,39h3v-3h-3v-3h-3v3h-3v3h3v3h3z" style="stroke: rgb(0, 204, 0); fill: rgb(0, 204, 0);"></path><g transform="translate(72,42)"><text fill="#000000" font-size="12">Events with 2 GeV ≤ p</text><text fill="#000000" font-size="7" transform="translate(118,3)">T</text><text fill="#000000" font-size="12" x="127">&lt; 4 GeV γ</text><text fill="#000000" font-size="7" transform="translate(180,-7)">dir</text><text fill="#000000" font-size="12" x="192">at |η|&lt;1</text></g><path d="M37,53h3v-3h-3v-3h-3v3h-3v3h3v3h3z" style="stroke: rgb(51, 255, 153); fill: rgb(51, 255, 153);"></path><g transform="translate(72,56)"><text fill="#000000" font-size="12">Events with 4 GeV ≤ p</text><text fill="#000000" font-size="7" transform="translate(118,3)">T</text><text fill="#000000" font-size="12" x="127">&lt; 7 GeV γ</text><text fill="#000000" font-size="7" transform="translate(180,-7)">dir</text><text fill="#000000" font-size="12" x="192">at |η|&lt;1</text></g><path d="M37,66h3v-3h-3v-3h-3v3h-3v3h3v3h3z" style="stroke: rgb(0, 204, 204); fill: none;"></path><g transform="translate(72,69)"><text fill="#000000" font-size="12">Events with 7 GeV ≤ p</text><text fill="#000000" font-size="7" transform="translate(118,3)">T</text><text fill="#000000" font-size="12" x="127">&lt; 10 GeV γ</text><text fill="#000000" font-size="7" transform="translate(187,-7)">dir</text><text fill="#000000" font-size="12" x="199">at |η|&lt;1</text></g><path d="M34,75l2,2l2,-2l2,2l-2,2l2,2l-2,2l-2,-2l-2,2l-2,-2l2,-2l-2,-2z" style="stroke: rgb(0, 51, 255); fill: rgb(0, 51, 255);"></path><g transform="translate(72,83)"><text fill="#000000" font-size="12">Events with 10 GeV ≤ p</text><text fill="#000000" font-size="7" transform="translate(125,3)">T</text><text fill="#000000" font-size="12" x="134">&lt; 15 GeV γ</text><text fill="#000000" font-size="7" transform="translate(194,-7)">dir</text><text fill="#000000" font-size="12" x="206">at |η|&lt;1</text></g><path d="M32,89v8h8v-8z" style="stroke: rgb(0, 0, 204); fill: none;"></path><g transform="translate(72,97)"><text fill="#000000" font-size="12">Events with 15 GeV ≤ p</text><text fill="#000000" font-size="7" transform="translate(125,3)">T</text><text fill="#000000" font-size="12" x="134">&lt; 20 GeV γ</text><text fill="#000000" font-size="7" transform="translate(194,-7)">dir</text><text fill="#000000" font-size="12" x="206">at |η|&lt;1</text></g><path d="M2,2h15v-5h-20v20h5Z" style="opacity: 0; cursor: nw-resize;"></path><path d="M286,2h-15v-5h20v20h-5 Z" style="opacity: 0; cursor: ne-resize;"></path><path d="M2,101h15v5h-20v-20h5Z" style="opacity: 0; cursor: sw-resize;"></path><path d="M286,101h-15v5h20v-20h-5Z" style="opacity: 0; cursor: se-resize;"></path><path d="M-3,18h5v67h-5Z" style="opacity: 0; cursor: w-resize;"></path><path d="M291,18h-5v67h5Z" style="opacity: 0; cursor: e-resize;"></path><path d="M18,-3v5h252v-5Z" style="opacity: 0; cursor: n-resize;"></path><path d="M18,106v-5h252v5Z" style="opacity: 0; cursor: s-resize;"></path></g></g></svg>