<svg width="800" height="513" xmlns="http://www.w3.org/2000/svg"><path d="M0,0H800V513H0Z" style="pointer-events: visiblefill; fill: rgb(255, 255, 255);"></path><g><g transform="translate(96,26)"><title></title><path d="M0,0H608V426H0Z" style="fill: rgb(255, 255, 255); stroke: rgb(0, 0, 0); stroke-width: 1; pointer-events: visiblefill; cursor: default;"></path><svg x="0" y="0" overflow="hidden" width="608" height="426" viewBox="0 0 608 426" style="pointer-events: visiblefill; cursor: default;"><g><path d="M0,157h30M15,157v0M30,174h32M46,174v0M61,176h30M76,176v0M91,189h32M107,189v0M122,208h30M137,208v0M152,232h30M167,232v0M182,259h32M198,259v0M213,287h30M228,287v0M243,315h32M259,315v0M274,341h30M289,340v1M304,362h30M319,362v0M334,380h32M350,380v0M365,393h30M380,393v0M395,403h32M411,403v0M426,411h30M441,411v0M456,416h30M471,416v0M486,420h32M502,420v0M517,422h30M532,422v0M547,424h32M563,424v0M578,424h30M593,424v0" style="stroke: rgb(0, 0, 0); stroke-width: 1;"></path><path d="M0,157h30v0h-30zM30,174h32v0h-32zM61,176h30v0h-30zM91,189h32v0h-32zM122,208h30v0h-30zM152,232h30v0h-30zM182,259h32v0h-32zM213,287h30v0h-30zM243,315h32v0h-32zM274,340h30v1h-30zM304,362h30v0h-30zM334,380h32v0h-32zM365,393h30v0h-30zM395,403h32v0h-32zM426,411h30v0h-30zM456,416h30v0h-30zM486,420h32v0h-32zM517,422h30v0h-30zM547,424h32v0h-32zM578,424h30v0h-30z" style="fill: none; pointer-events: visiblefill;"></path><path d="M11,153v8h8v-8zM42,170v8h8v-8zM72,172v8h8v-8zM103,185v8h8v-8zM133,204v8h8v-8zM163,228v8h8v-8zM194,255v8h8v-8zM224,283v8h8v-8zM255,311v8h8v-8zM285,337v8h8v-8zM315,358v8h8v-8zM346,376v8h8v-8zM376,389v8h8v-8zM407,399v8h8v-8zM437,407v8h8v-8zM467,412v8h8v-8zM498,416v8h8v-8zM528,418v8h8v-8zM559,420v8h8v-8zM589,420v8h8v-8z" style="stroke: rgb(0, 0, 0); fill: rgb(0, 0, 0);"></path></g><g><path d="M0,303h30M15,303v0M30,268h32M46,268v0M61,227h30M76,227v0M91,202h32M107,202v0M122,193h30M137,193v0M152,200h30M167,200v0M182,219h32M198,219v0M213,246h30M228,246v0M243,276h32M259,276v0M274,306h30M289,306v0M304,334h30M319,334v0M334,357h32M350,357v0M365,376h30M380,376v0M395,391h32M411,391v0M426,402h30M441,402v0M456,410h30M471,410v0M486,416h32M502,416v0M517,419h30M532,419v0M547,422h32M563,422v0M578,423h30M593,423v0" style="stroke: rgb(255, 204, 0); stroke-width: 1;"></path><path d="M0,303h30v0h-30zM30,268h32v0h-32zM61,227h30v0h-30zM91,202h32v0h-32zM122,193h30v0h-30zM152,200h30v0h-30zM182,219h32v0h-32zM213,246h30v0h-30zM243,276h32v0h-32zM274,306h30v0h-30zM304,334h30v0h-30zM334,357h32v0h-32zM365,376h30v0h-30zM395,391h32v0h-32zM426,402h30v0h-30zM456,410h30v0h-30zM486,416h32v0h-32zM517,419h30v0h-30zM547,422h32v0h-32zM578,423h30v0h-30z" style="fill: none; pointer-events: visiblefill;"></path><path d="M16,304h3v-3h-3v-3h-3v3h-3v3h3v3h3zM47,269h3v-3h-3v-3h-3v3h-3v3h3v3h3zM77,228h3v-3h-3v-3h-3v3h-3v3h3v3h3zM108,203h3v-3h-3v-3h-3v3h-3v3h3v3h3zM138,194h3v-3h-3v-3h-3v3h-3v3h3v3h3zM168,201h3v-3h-3v-3h-3v3h-3v3h3v3h3zM199,220h3v-3h-3v-3h-3v3h-3v3h3v3h3zM229,247h3v-3h-3v-3h-3v3h-3v3h3v3h3zM260,277h3v-3h-3v-3h-3v3h-3v3h3v3h3zM290,307h3v-3h-3v-3h-3v3h-3v3h3v3h3zM320,335h3v-3h-3v-3h-3v3h-3v3h3v3h3zM351,358h3v-3h-3v-3h-3v3h-3v3h3v3h3zM381,377h3v-3h-3v-3h-3v3h-3v3h3v3h3zM412,392h3v-3h-3v-3h-3v3h-3v3h3v3h3zM442,403h3v-3h-3v-3h-3v3h-3v3h3v3h3zM472,411h3v-3h-3v-3h-3v3h-3v3h3v3h3zM503,417h3v-3h-3v-3h-3v3h-3v3h3v3h3zM533,420h3v-3h-3v-3h-3v3h-3v3h3v3h3zM564,423h3v-3h-3v-3h-3v3h-3v3h3v3h3zM594,424h3v-3h-3v-3h-3v3h-3v3h3v3h3z" style="stroke: rgb(255, 204, 0); fill: rgb(255, 204, 0);"></path></g><g><path d="M0,286h30M15,286v0M30,256h32M46,256v0M61,217h30M76,217v0M91,196h32M107,196v0M122,191h30M137,191v1M152,201h30M167,201v1M182,223h32M198,223v0M213,252h30M228,251v1M243,282h32M259,282v1M274,313h30M289,313v0M304,340h30M319,340v0M334,362h32M350,362v0M365,380h30M380,380v0M395,394h32M411,394v0M426,404h30M441,404v1M456,412h30M471,412v0M486,417h32M502,417v0M517,420h30M532,420v0M547,422h32M563,422v0M578,424h30M593,424v0" style="stroke: rgb(255, 0, 0); stroke-width: 1;"></path><path d="M0,286h30v0h-30zM30,256h32v0h-32zM61,217h30v0h-30zM91,196h32v0h-32zM122,191h30v1h-30zM152,201h30v1h-30zM182,223h32v0h-32zM213,251h30v1h-30zM243,282h32v1h-32zM274,313h30v0h-30zM304,340h30v0h-30zM334,362h32v0h-32zM365,380h30v0h-30zM395,394h32v0h-32zM426,404h30v1h-30zM456,412h30v0h-30zM486,417h32v0h-32zM517,420h30v0h-30zM547,422h32v0h-32zM578,424h30v0h-30z" style="fill: none; pointer-events: visiblefill;"></path><path d="M16,287h3v-3h-3v-3h-3v3h-3v3h3v3h3zM47,257h3v-3h-3v-3h-3v3h-3v3h3v3h3zM77,218h3v-3h-3v-3h-3v3h-3v3h3v3h3zM108,197h3v-3h-3v-3h-3v3h-3v3h3v3h3zM138,192h3v-3h-3v-3h-3v3h-3v3h3v3h3zM168,202h3v-3h-3v-3h-3v3h-3v3h3v3h3zM199,224h3v-3h-3v-3h-3v3h-3v3h3v3h3zM229,253h3v-3h-3v-3h-3v3h-3v3h3v3h3zM260,283h3v-3h-3v-3h-3v3h-3v3h3v3h3zM290,314h3v-3h-3v-3h-3v3h-3v3h3v3h3zM320,341h3v-3h-3v-3h-3v3h-3v3h3v3h3zM351,363h3v-3h-3v-3h-3v3h-3v3h3v3h3zM381,381h3v-3h-3v-3h-3v3h-3v3h3v3h3zM412,395h3v-3h-3v-3h-3v3h-3v3h3v3h3zM442,405h3v-3h-3v-3h-3v3h-3v3h3v3h3zM472,413h3v-3h-3v-3h-3v3h-3v3h3v3h3zM503,418h3v-3h-3v-3h-3v3h-3v3h3v3h3zM533,421h3v-3h-3v-3h-3v3h-3v3h3v3h3zM564,423h3v-3h-3v-3h-3v3h-3v3h3v3h3zM594,425h3v-3h-3v-3h-3v3h-3v3h3v3h3z" style="stroke: rgb(255, 0, 0); fill: rgb(255, 0, 0);"></path></g><g><path d="M0,254h30M15,253v1M30,234h32M46,233v1M61,202h30M76,202v0M91,188h32M107,188v1M122,190h30M137,189v1M152,205h30M167,205v1M182,231h32M198,230v1M213,262h30M228,261v1M243,292h32M259,292v1M274,323h30M289,323v0M304,348h30M319,348v1M334,370h32M350,369v1M365,386h30M380,386v0M395,399h32M411,399v0M426,408h30M441,408v0M456,414h30M471,414v0M486,418h32M502,418v0M517,421h30M532,421v0M547,423h32M563,423v0M578,424h30M593,424v0" style="stroke: rgb(255, 0, 51); stroke-width: 1;"></path><path d="M0,253h30v1h-30zM30,233h32v1h-32zM61,202h30v0h-30zM91,188h32v1h-32zM122,189h30v1h-30zM152,205h30v1h-30zM182,230h32v1h-32zM213,261h30v1h-30zM243,292h32v1h-32zM274,323h30v0h-30zM304,348h30v1h-30zM334,369h32v1h-32zM365,386h30v0h-30zM395,399h32v0h-32zM426,408h30v0h-30zM456,414h30v0h-30zM486,418h32v0h-32zM517,421h30v0h-30zM547,423h32v0h-32zM578,424h30v0h-30z" style="fill: none; pointer-events: visiblefill;"></path><path d="M16,255h3v-3h-3v-3h-3v3h-3v3h3v3h3zM47,235h3v-3h-3v-3h-3v3h-3v3h3v3h3zM77,203h3v-3h-3v-3h-3v3h-3v3h3v3h3zM108,189h3v-3h-3v-3h-3v3h-3v3h3v3h3zM138,191h3v-3h-3v-3h-3v3h-3v3h3v3h3zM168,206h3v-3h-3v-3h-3v3h-3v3h3v3h3zM199,232h3v-3h-3v-3h-3v3h-3v3h3v3h3zM229,263h3v-3h-3v-3h-3v3h-3v3h3v3h3zM260,293h3v-3h-3v-3h-3v3h-3v3h3v3h3zM290,324h3v-3h-3v-3h-3v3h-3v3h3v3h3zM320,349h3v-3h-3v-3h-3v3h-3v3h3v3h3zM351,371h3v-3h-3v-3h-3v3h-3v3h3v3h3zM381,387h3v-3h-3v-3h-3v3h-3v3h3v3h3zM412,400h3v-3h-3v-3h-3v3h-3v3h3v3h3zM442,409h3v-3h-3v-3h-3v3h-3v3h3v3h3zM472,415h3v-3h-3v-3h-3v3h-3v3h3v3h3zM503,419h3v-3h-3v-3h-3v3h-3v3h3v3h3zM533,422h3v-3h-3v-3h-3v3h-3v3h3v3h3zM564,424h3v-3h-3v-3h-3v3h-3v3h3v3h3zM594,425h3v-3h-3v-3h-3v3h-3v3h3v3h3z" style="stroke: rgb(255, 0, 51); fill: none;"></path></g><g><path d="M0,232h30M15,231v2M30,219h32M46,218v2M61,194h30M76,193v3M91,181h32M107,180v2M122,188h30M137,187v2M152,208h30M167,207v2M182,234h32M198,233v2M213,268h30M228,267v2M243,301h32M259,300v1M274,330h30M289,329v2M304,354h30M319,354v1M334,375h32M350,374v2M365,390h30M380,389v1M395,402h32M411,402v1M426,410h30M441,409v1M456,416h30M471,415v1M486,420h32M502,420v0M517,422h30M532,422v0M547,423h32M563,423v1M578,425h30M593,425v0" style="stroke: rgb(255, 0, 255); stroke-width: 1;"></path><path d="M0,231h30v2h-30zM30,218h32v2h-32zM61,193h30v3h-30zM91,180h32v2h-32zM122,187h30v2h-30zM152,207h30v2h-30zM182,233h32v2h-32zM213,267h30v2h-30zM243,300h32v1h-32zM274,329h30v2h-30zM304,354h30v1h-30zM334,374h32v2h-32zM365,389h30v1h-30zM395,402h32v1h-32zM426,409h30v1h-30zM456,415h30v1h-30zM486,420h32v0h-32zM517,422h30v0h-30zM547,423h32v1h-32zM578,425h30v0h-30z" style="fill: none; pointer-events: visiblefill;"></path><path d="M13,228l2,2l2,-2l2,2l-2,2l2,2l-2,2l-2,-2l-2,2l-2,-2l2,-2l-2,-2zM44,215l2,2l2,-2l2,2l-2,2l2,2l-2,2l-2,-2l-2,2l-2,-2l2,-2l-2,-2zM74,190l2,2l2,-2l2,2l-2,2l2,2l-2,2l-2,-2l-2,2l-2,-2l2,-2l-2,-2zM105,177l2,2l2,-2l2,2l-2,2l2,2l-2,2l-2,-2l-2,2l-2,-2l2,-2l-2,-2zM135,184l2,2l2,-2l2,2l-2,2l2,2l-2,2l-2,-2l-2,2l-2,-2l2,-2l-2,-2zM165,204l2,2l2,-2l2,2l-2,2l2,2l-2,2l-2,-2l-2,2l-2,-2l2,-2l-2,-2zM196,230l2,2l2,-2l2,2l-2,2l2,2l-2,2l-2,-2l-2,2l-2,-2l2,-2l-2,-2zM226,264l2,2l2,-2l2,2l-2,2l2,2l-2,2l-2,-2l-2,2l-2,-2l2,-2l-2,-2zM257,297l2,2l2,-2l2,2l-2,2l2,2l-2,2l-2,-2l-2,2l-2,-2l2,-2l-2,-2zM287,326l2,2l2,-2l2,2l-2,2l2,2l-2,2l-2,-2l-2,2l-2,-2l2,-2l-2,-2zM317,350l2,2l2,-2l2,2l-2,2l2,2l-2,2l-2,-2l-2,2l-2,-2l2,-2l-2,-2zM348,371l2,2l2,-2l2,2l-2,2l2,2l-2,2l-2,-2l-2,2l-2,-2l2,-2l-2,-2zM378,386l2,2l2,-2l2,2l-2,2l2,2l-2,2l-2,-2l-2,2l-2,-2l2,-2l-2,-2zM409,398l2,2l2,-2l2,2l-2,2l2,2l-2,2l-2,-2l-2,2l-2,-2l2,-2l-2,-2zM439,406l2,2l2,-2l2,2l-2,2l2,2l-2,2l-2,-2l-2,2l-2,-2l2,-2l-2,-2zM469,412l2,2l2,-2l2,2l-2,2l2,2l-2,2l-2,-2l-2,2l-2,-2l2,-2l-2,-2zM500,416l2,2l2,-2l2,2l-2,2l2,2l-2,2l-2,-2l-2,2l-2,-2l2,-2l-2,-2zM530,418l2,2l2,-2l2,2l-2,2l2,2l-2,2l-2,-2l-2,2l-2,-2l2,-2l-2,-2zM561,419l2,2l2,-2l2,2l-2,2l2,2l-2,2l-2,-2l-2,2l-2,-2l2,-2l-2,-2zM591,421l2,2l2,-2l2,2l-2,2l2,2l-2,2l-2,-2l-2,2l-2,-2l2,-2l-2,-2z" style="stroke: rgb(255, 0, 255); fill: rgb(255, 0, 255);"></path></g><g><path d="M0,219h30M15,215v9M30,206h32M46,201v10M61,182h30M76,177v10M91,177h32M107,172v10M122,189h30M137,183v11M152,214h30M167,209v10M182,236h32M198,231v9M213,270h30M228,266v8M243,309h32M259,306v7M274,337h30M289,334v6M304,359h30M319,356v6M334,378h32M350,376v5M365,393h30M380,391v4M395,403h32M411,402v3M426,412h30M441,411v3M456,417h30M471,416v2M486,419h32M502,418v2M517,422h30M532,422v1M547,424h32M563,423v1M578,424h30M593,424v1" style="stroke: rgb(204, 0, 255); stroke-width: 1;"></path><path d="M0,215h30v9h-30zM30,201h32v10h-32zM61,177h30v10h-30zM91,172h32v10h-32zM122,183h30v11h-30zM152,209h30v10h-30zM182,231h32v9h-32zM213,266h30v8h-30zM243,306h32v7h-32zM274,334h30v6h-30zM304,356h30v6h-30zM334,376h32v5h-32zM365,391h30v4h-30zM395,402h32v3h-32zM426,411h30v3h-30zM456,416h30v2h-30zM486,418h32v2h-32zM517,422h30v1h-30zM547,423h32v1h-32zM578,424h30v1h-30z" style="fill: none; pointer-events: visiblefill;"></path><path d="M11,215v8h8v-8zM42,202v8h8v-8zM72,178v8h8v-8zM103,173v8h8v-8zM133,185v8h8v-8zM163,210v8h8v-8zM194,232v8h8v-8zM224,266v8h8v-8zM255,305v8h8v-8zM285,333v8h8v-8zM315,355v8h8v-8zM346,374v8h8v-8zM376,389v8h8v-8zM407,399v8h8v-8zM437,408v8h8v-8zM467,413v8h8v-8zM498,415v8h8v-8zM528,418v8h8v-8zM559,420v8h8v-8zM589,420v8h8v-8z" style="stroke: rgb(204, 0, 255); fill: none;"></path></g></svg><g><g transform="translate(0,426)"><path d="M0,0h608M0,-426h608M0,-15V0M12,-8V0M24,-8V0M36,-8V0M49,-8V0M61,-15V0M73,-8V0M85,-8V0M97,-8V0M109,-8V0M122,-15V0M134,-8V0M146,-8V0M158,-8V0M170,-8V0M182,-15V0M195,-8V0M207,-8V0M219,-8V0M231,-8V0M243,-15V0M255,-8V0M268,-8V0M280,-8V0M292,-8V0M304,-15V0M316,-8V0M328,-8V0M340,-8V0M353,-8V0M365,-15V0M377,-8V0M389,-8V0M401,-8V0M413,-8V0M426,-15V0M438,-8V0M450,-8V0M462,-8V0M474,-8V0M486,-15V0M499,-8V0M511,-8V0M523,-8V0M535,-8V0M547,-15V0M559,-8V0M572,-8V0M584,-8V0M596,-8V0M608,-15V0M0,-411V-426M12,-418V-426M24,-418V-426M36,-418V-426M49,-418V-426M61,-411V-426M73,-418V-426M85,-418V-426M97,-418V-426M109,-418V-426M122,-411V-426M134,-418V-426M146,-418V-426M158,-418V-426M170,-418V-426M182,-411V-426M195,-418V-426M207,-418V-426M219,-418V-426M231,-418V-426M243,-411V-426M255,-418V-426M268,-418V-426M280,-418V-426M292,-418V-426M304,-411V-426M316,-418V-426M328,-418V-426M340,-418V-426M353,-418V-426M365,-411V-426M377,-418V-426M389,-418V-426M401,-418V-426M413,-418V-426M426,-411V-426M438,-418V-426M450,-418V-426M462,-418V-426M474,-418V-426M486,-411V-426M499,-418V-426M511,-418V-426M523,-418V-426M535,-418V-426M547,-411V-426M559,-418V-426M572,-418V-426M584,-418V-426M596,-418V-426M608,-411V-426" style="stroke: rgb(0, 0, 0); stroke-width: 1;"></path><g font-family="Arial" font-size="18" xml:space="preserve" fill="#000000" text-anchor="middle"><text dy=".8em" transform="translate(0,3)">0</text><text dy=".8em" transform="translate(61,3)">1</text><text dy=".8em" transform="translate(122,3)">2</text><text dy=".8em" transform="translate(182,3)">3</text><text dy=".8em" transform="translate(243,3)">4</text><text dy=".8em" transform="translate(304,3)">5</text><text dy=".8em" transform="translate(365,3)">6</text><text dy=".8em" transform="translate(426,3)">7</text><text dy=".8em" transform="translate(486,3)">8</text><text dy=".8em" transform="translate(547,3)">9</text><text dy=".8em" transform="translate(608,3)">10</text></g><rect x="0" y="0" width="608" height="21" style="opacity: 0; cursor: crosshair;"></rect><g font-family="Arial" font-size="18" xml:space="preserve" transform="translate(608,29)" style="cursor: move;"><g transform="translate(-104,3)"><g><path d="M18,-23h-18l7,9l-7,22h18" style="stroke: rgb(0, 0, 0); stroke-width: 1; fill: none;"></path></g><text fill="#000000" font-size="18" x="25">p</text><text fill="#000000" font-size="11" transform="translate(36,4)">T</text><text fill="#000000" font-size="18" x="42">(GeV/c)</text></g></g></g><g><path d="M0,0v426M608,0v426M24,426H0M12,415H0M12,405H0M12,394H0M24,383H0M12,373H0M12,362H0M12,351H0M24,341H0M12,330H0M12,320H0M12,309H0M24,298H0M12,288H0M12,277H0M12,266H0M24,256H0M12,245H0M12,234H0M12,224H0M24,213H0M12,202H0M12,192H0M12,181H0M24,170H0M12,160H0M12,149H0M12,138H0M24,128H0M12,117H0M12,107H0M12,96H0M24,85H0M12,75H0M12,64H0M12,53H0M24,43H0M12,32H0M12,21H0M12,11H0M24,0H0M584,426H608M596,415H608M596,405H608M596,394H608M584,383H608M596,373H608M596,362H608M596,351H608M584,341H608M596,330H608M596,320H608M596,309H608M584,298H608M596,288H608M596,277H608M596,266H608M584,256H608M596,245H608M596,234H608M596,224H608M584,213H608M596,202H608M596,192H608M596,181H608M584,170H608M596,160H608M596,149H608M596,138H608M584,128H608M596,117H608M596,107H608M596,96H608M584,85H608M596,75H608M596,64H608M596,53H608M584,43H608M596,32H608M596,21H608M596,11H608M584,0H608" style="stroke: rgb(0, 0, 0); stroke-width: 1;"></path><g font-family="Arial" font-size="18" xml:space="preserve" fill="#000000" text-anchor="end"><text dominant-baseline="middle" transform="translate(-4,426)">0</text><text dominant-baseline="middle" transform="translate(-4,383)">0.02</text><text dominant-baseline="middle" transform="translate(-4,341)">0.04</text><text dominant-baseline="middle" transform="translate(-4,298)">0.06</text><text dominant-baseline="middle" transform="translate(-4,256)">0.08</text><text dominant-baseline="middle" transform="translate(-4,213)">0.1</text><text dominant-baseline="middle" transform="translate(-4,170)">0.12</text><text dominant-baseline="middle" transform="translate(-4,128)">0.14</text><text dominant-baseline="middle" transform="translate(-4,85)">0.16</text><text dominant-baseline="middle" transform="translate(-4,43)">0.18</text><text dominant-baseline="middle" transform="translate(-4)">0.2</text></g><rect x="-38" y="0" width="38" height="426" style="opacity: 0; cursor: crosshair;"></rect></g></g><path d="M2,2h15v-5h-20v20h5Z" style="opacity: 0; cursor: nw-resize;"></path><path d="M606,2h-15v-5h20v20h-5 Z" style="opacity: 0; cursor: ne-resize;"></path><path d="M2,424h15v5h-20v-20h5Z" style="opacity: 0; cursor: sw-resize;"></path><path d="M606,424h-15v5h20v-20h-5Z" style="opacity: 0; cursor: se-resize;"></path><path d="M-3,18h5v390h-5Z" style="opacity: 0; cursor: w-resize;"></path><path d="M611,18h-5v390h5Z" style="opacity: 0; cursor: e-resize;"></path><path d="M18,-3v5h572v-5Z" style="opacity: 0; cursor: n-resize;"></path><path d="M18,429v-5h572v5Z" style="opacity: 0; cursor: s-resize;"></path></g><g transform="translate(120,51)" font-family="Arial" font-size="12" xml:space="preserve" style="cursor: move;"><path d="M0,0H288V103H0Z" style="fill: none; pointer-events: visiblefill;"></path><text fill="#000000" text-anchor="start" dominant-baseline="middle" transform="translate(9,10)">PYTHIA8, pAu200GeV with option3</text><path d="M32,20v8h8v-8z" style="stroke: rgb(0, 0, 0); fill: rgb(0, 0, 0);"></path><g transform="translate(72,28)"><text fill="#000000" font-size="12">Events with p</text><text fill="#000000" font-size="7" transform="translate(71,3)">T</text><text fill="#000000" font-size="12" x="80">&lt; 2 GeV π</text><text fill="#000000" font-size="7" transform="translate(135,-7)">0</text><text fill="#000000" font-size="12" x="143">at |η|&lt;1</text></g><path d="M37,39h3v-3h-3v-3h-3v3h-3v3h3v3h3z" style="stroke: rgb(255, 204, 0); fill: rgb(255, 204, 0);"></path><g transform="translate(72,42)"><text fill="#000000" font-size="12">Events with 2 GeV ≤ p</text><text fill="#000000" font-size="7" transform="translate(118,3)">T</text><text fill="#000000" font-size="12" x="127">&lt; 4 GeV π</text><text fill="#000000" font-size="7" transform="translate(182,-7)">0</text><text fill="#000000" font-size="12" x="190">at |η|&lt;1</text></g><path d="M37,53h3v-3h-3v-3h-3v3h-3v3h3v3h3z" style="stroke: rgb(255, 0, 0); fill: rgb(255, 0, 0);"></path><g transform="translate(72,56)"><text fill="#000000" font-size="12">Events with 4 GeV ≤ p</text><text fill="#000000" font-size="7" transform="translate(118,3)">T</text><text fill="#000000" font-size="12" x="127">&lt; 7 GeV π</text><text fill="#000000" font-size="7" transform="translate(182,-7)">0</text><text fill="#000000" font-size="12" x="190">at |η|&lt;1</text></g><path d="M37,66h3v-3h-3v-3h-3v3h-3v3h3v3h3z" style="stroke: rgb(255, 0, 51); fill: none;"></path><g transform="translate(72,69)"><text fill="#000000" font-size="12">Events with 7 GeV ≤ p</text><text fill="#000000" font-size="7" transform="translate(118,3)">T</text><text fill="#000000" font-size="12" x="127">&lt; 10 GeV π</text><text fill="#000000" font-size="7" transform="translate(189,-7)">0</text><text fill="#000000" font-size="12" x="197">at |η|&lt;1</text></g><path d="M34,75l2,2l2,-2l2,2l-2,2l2,2l-2,2l-2,-2l-2,2l-2,-2l2,-2l-2,-2z" style="stroke: rgb(255, 0, 255); fill: rgb(255, 0, 255);"></path><g transform="translate(72,83)"><text fill="#000000" font-size="12">Events with 10 GeV ≤ p</text><text fill="#000000" font-size="7" transform="translate(125,3)">T</text><text fill="#000000" font-size="12" x="134">&lt; 15 GeV π</text><text fill="#000000" font-size="7" transform="translate(196,-7)">0</text><text fill="#000000" font-size="12" x="204">at |η|&lt;1</text></g><path d="M32,89v8h8v-8z" style="stroke: rgb(204, 0, 255); fill: none;"></path><g transform="translate(72,97)"><text fill="#000000" font-size="12">Events with 15 GeV ≤ p</text><text fill="#000000" font-size="7" transform="translate(125,3)">T</text><text fill="#000000" font-size="12" x="134">&lt; 20 GeV π</text><text fill="#000000" font-size="7" transform="translate(196,-7)">0</text><text fill="#000000" font-size="12" x="204">at |η|&lt;1</text></g><path d="M2,2h15v-5h-20v20h5Z" style="opacity: 0; cursor: nw-resize;"></path><path d="M286,2h-15v-5h20v20h-5 Z" style="opacity: 0; cursor: ne-resize;"></path><path d="M2,101h15v5h-20v-20h5Z" style="opacity: 0; cursor: sw-resize;"></path><path d="M286,101h-15v5h20v-20h-5Z" style="opacity: 0; cursor: se-resize;"></path><path d="M-3,18h5v67h-5Z" style="opacity: 0; cursor: w-resize;"></path><path d="M291,18h-5v67h5Z" style="opacity: 0; cursor: e-resize;"></path><path d="M18,-3v5h252v-5Z" style="opacity: 0; cursor: n-resize;"></path><path d="M18,106v-5h252v5Z" style="opacity: 0; cursor: s-resize;"></path></g></g></svg>