<svg width="800" height="513" xmlns="http://www.w3.org/2000/svg"><path d="M0,0H800V513H0Z" style="pointer-events: visiblefill; fill: rgb(255, 255, 255);"></path><g><g transform="translate(96,26)"><title></title><path d="M0,0H608V426H0Z" style="fill: rgb(255, 255, 255); stroke: rgb(0, 0, 0); stroke-width: 1; pointer-events: visiblefill; cursor: default;"></path><svg x="0" y="0" overflow="hidden" width="608" height="426" viewBox="0 0 608 426" style="pointer-events: visiblefill; cursor: default;"><g><path d="M0,739h62M31,739v0M61,179h62M92,178v1M122,227h92M168,226v1M213,300h92M259,299v1M304,345h152M380,343v5M456,372h152M532,362v19" style="stroke: rgb(255, 0, 255); stroke-width: 1;"></path><path d="M0,739h62v0h-62zM61,178h62v1h-62zM122,226h92v1h-92zM213,299h92v1h-92zM304,343h152v5h-152zM456,362h152v19h-152z" style="fill: none; pointer-events: visiblefill;"></path><path d="M32,740h3v-3h-3v-3h-3v3h-3v3h3v3h3zM93,180h3v-3h-3v-3h-3v3h-3v3h3v3h3zM169,228h3v-3h-3v-3h-3v3h-3v3h3v3h3zM260,301h3v-3h-3v-3h-3v3h-3v3h3v3h3zM381,346h3v-3h-3v-3h-3v3h-3v3h3v3h3zM533,373h3v-3h-3v-3h-3v3h-3v3h3v3h3z" style="stroke: rgb(255, 0, 255); fill: rgb(255, 0, 255);"></path></g><g><path d="M0,730h62M31,730v0M61,262h62M92,261v1M122,286h92M168,285v2M213,323h92M259,321v5M304,352h152M380,346v12M456,368h152M532,348v40" style="stroke: rgb(0, 0, 255); stroke-width: 1;"></path><path d="M0,730h62v0h-62zM61,261h62v1h-62zM122,285h92v2h-92zM213,321h92v5h-92zM304,346h152v12h-152zM456,348h152v40h-152z" style="fill: none; pointer-events: visiblefill;"></path><path d="M32,731h3v-3h-3v-3h-3v3h-3v3h3v3h3zM93,263h3v-3h-3v-3h-3v3h-3v3h3v3h3zM169,287h3v-3h-3v-3h-3v3h-3v3h3v3h3zM260,324h3v-3h-3v-3h-3v3h-3v3h3v3h3zM381,353h3v-3h-3v-3h-3v3h-3v3h3v3h3zM533,369h3v-3h-3v-3h-3v3h-3v3h3v3h3z" style="stroke: rgb(0, 0, 255); fill: none;"></path></g></svg><g><g transform="translate(0,426)"><path d="M0,0h608M0,-426h608M0,-15V0M15,-8V0M30,-8V0M46,-8V0M61,-15V0M76,-8V0M91,-8V0M106,-8V0M122,-15V0M137,-8V0M152,-8V0M167,-8V0M182,-15V0M198,-8V0M213,-8V0M228,-8V0M243,-15V0M258,-8V0M274,-8V0M289,-8V0M304,-15V0M319,-8V0M334,-8V0M350,-8V0M365,-15V0M380,-8V0M395,-8V0M410,-8V0M426,-15V0M441,-8V0M456,-8V0M471,-8V0M486,-15V0M502,-8V0M517,-8V0M532,-8V0M547,-15V0M562,-8V0M578,-8V0M593,-8V0M608,-15V0M0,-411V-426M15,-418V-426M30,-418V-426M46,-418V-426M61,-411V-426M76,-418V-426M91,-418V-426M106,-418V-426M122,-411V-426M137,-418V-426M152,-418V-426M167,-418V-426M182,-411V-426M198,-418V-426M213,-418V-426M228,-418V-426M243,-411V-426M258,-418V-426M274,-418V-426M289,-418V-426M304,-411V-426M319,-418V-426M334,-418V-426M350,-418V-426M365,-411V-426M380,-418V-426M395,-418V-426M410,-418V-426M426,-411V-426M441,-418V-426M456,-418V-426M471,-418V-426M486,-411V-426M502,-418V-426M517,-418V-426M532,-418V-426M547,-411V-426M562,-418V-426M578,-418V-426M593,-418V-426M608,-411V-426" style="stroke: rgb(0, 0, 0); stroke-width: 1;"></path><g font-family="Arial" font-size="18" xml:space="preserve" fill="#000000" text-anchor="middle"><text dy=".8em" transform="translate(0,3)">0</text><text dy=".8em" transform="translate(61,3)">2</text><text dy=".8em" transform="translate(122,3)">4</text><text dy=".8em" transform="translate(182,3)">6</text><text dy=".8em" transform="translate(243,3)">8</text><text dy=".8em" transform="translate(304,3)">10</text><text dy=".8em" transform="translate(365,3)">12</text><text dy=".8em" transform="translate(426,3)">14</text><text dy=".8em" transform="translate(486,3)">16</text><text dy=".8em" transform="translate(547,3)">18</text><text dy=".8em" transform="translate(608,3)">20</text></g><rect x="0" y="0" width="608" height="21" style="opacity: 0; cursor: crosshair;"></rect><g font-family="Arial" font-size="18" xml:space="preserve" transform="translate(608,29)" style="cursor: move;"><g transform="translate(-56,5)"><text fill="#000000" font-size="18">max p</text><text fill="#000000" font-size="11" transform="translate(50,4)">T</text></g></g></g><g><path d="M0,0v426M608,0v426M24,426H0M12,417H0M12,409H0M12,400H0M12,392H0M24,383H0M12,375H0M12,366H0M12,358H0M12,349H0M24,341H0M12,332H0M12,324H0M12,315H0M12,307H0M24,298H0M12,290H0M12,281H0M12,273H0M12,264H0M24,256H0M12,247H0M12,239H0M12,230H0M12,222H0M24,213H0M12,204H0M12,196H0M12,187H0M12,179H0M24,170H0M12,162H0M12,153H0M12,145H0M12,136H0M24,128H0M12,119H0M12,111H0M12,102H0M12,94H0M24,85H0M12,77H0M12,68H0M12,60H0M12,51H0M24,43H0M12,34H0M12,26H0M12,17H0M12,9H0M24,0H0M584,426H608M596,417H608M596,409H608M596,400H608M596,392H608M584,383H608M596,375H608M596,366H608M596,358H608M596,349H608M584,341H608M596,332H608M596,324H608M596,315H608M596,307H608M584,298H608M596,290H608M596,281H608M596,273H608M596,264H608M584,256H608M596,247H608M596,239H608M596,230H608M596,222H608M584,213H608M596,204H608M596,196H608M596,187H608M596,179H608M584,170H608M596,162H608M596,153H608M596,145H608M596,136H608M584,128H608M596,119H608M596,111H608M596,102H608M596,94H608M584,85H608M596,77H608M596,68H608M596,60H608M596,51H608M584,43H608M596,34H608M596,26H608M596,17H608M596,9H608M584,0H608" style="stroke: rgb(0, 0, 0); stroke-width: 1;"></path><g font-family="Arial" font-size="18" xml:space="preserve" fill="#000000" text-anchor="end"><text dominant-baseline="middle" transform="translate(-4,426)">5.8</text><text dominant-baseline="middle" transform="translate(-4,383)">5.9</text><text dominant-baseline="middle" transform="translate(-4,341)">6</text><text dominant-baseline="middle" transform="translate(-4,298)">6.1</text><text dominant-baseline="middle" transform="translate(-4,256)">6.2</text><text dominant-baseline="middle" transform="translate(-4,213)">6.3</text><text dominant-baseline="middle" transform="translate(-4,170)">6.4</text><text dominant-baseline="middle" transform="translate(-4,128)">6.5</text><text dominant-baseline="middle" transform="translate(-4,85)">6.6</text><text dominant-baseline="middle" transform="translate(-4,43)">6.7</text><text dominant-baseline="middle" transform="translate(-4)">6.8</text></g><rect x="-28" y="0" width="28" height="426" style="opacity: 0; cursor: crosshair;"></rect><g font-family="Arial" font-size="18" xml:space="preserve" transform="translate(-45)" style="cursor: move;"><g transform="rotate(270) translate(-50,5)"><text fill="#000000" font-size="18">&lt;N</text><text fill="#000000" font-size="11" transform="translate(24,4)">coll</text><text fill="#000000" font-size="18" x="40">&gt;</text></g></g></g></g><path d="M2,2h15v-5h-20v20h5Z" style="opacity: 0; cursor: nw-resize;"></path><path d="M606,2h-15v-5h20v20h-5 Z" style="opacity: 0; cursor: ne-resize;"></path><path d="M2,424h15v5h-20v-20h5Z" style="opacity: 0; cursor: sw-resize;"></path><path d="M606,424h-15v5h20v-20h-5Z" style="opacity: 0; cursor: se-resize;"></path><path d="M-3,18h5v390h-5Z" style="opacity: 0; cursor: w-resize;"></path><path d="M611,18h-5v390h5Z" style="opacity: 0; cursor: e-resize;"></path><path d="M18,-3v5h572v-5Z" style="opacity: 0; cursor: n-resize;"></path><path d="M18,429v-5h572v5Z" style="opacity: 0; cursor: s-resize;"></path></g><g transform="translate(120,51)" font-family="Arial" font-size="15" xml:space="preserve" style="cursor: move;"><path d="M0,0H288V103H0Z" style="fill: none; pointer-events: visiblefill;"></path><text fill="#000000" text-anchor="start" dominant-baseline="middle" transform="translate(9,19)">PYTHIA8, pAu200GeV with option3</text><path d="M37,53h3v-3h-3v-3h-3v3h-3v3h3v3h3z" style="stroke: rgb(255, 0, 255); fill: rgb(255, 0, 255);"></path><g transform="translate(72,58)"><text fill="#000000" font-size="15">Events with π</text><text fill="#000000" font-size="9" transform="translate(91,-8)">0</text><text fill="#000000" font-size="15" x="102">at |η|&lt;1</text></g><path d="M37,85h3v-3h-3v-3h-3v3h-3v3h3v3h3z" style="stroke: rgb(0, 0, 255); fill: none;"></path><g transform="translate(72,91)"><text fill="#000000" font-size="15">Events with γ</text><text fill="#000000" font-size="9" transform="translate(88,-8)">dir</text><text fill="#000000" font-size="15" x="104">at |η|&lt;1</text></g><path d="M2,2h15v-5h-20v20h5Z" style="opacity: 0; cursor: nw-resize;"></path><path d="M286,2h-15v-5h20v20h-5 Z" style="opacity: 0; cursor: ne-resize;"></path><path d="M2,101h15v5h-20v-20h5Z" style="opacity: 0; cursor: sw-resize;"></path><path d="M286,101h-15v5h20v-20h-5Z" style="opacity: 0; cursor: se-resize;"></path><path d="M-3,18h5v67h-5Z" style="opacity: 0; cursor: w-resize;"></path><path d="M291,18h-5v67h5Z" style="opacity: 0; cursor: e-resize;"></path><path d="M18,-3v5h252v-5Z" style="opacity: 0; cursor: n-resize;"></path><path d="M18,106v-5h252v5Z" style="opacity: 0; cursor: s-resize;"></path></g></g></svg>