<svg width="800" height="513" xmlns="http://www.w3.org/2000/svg"><path d="M0,0H800V513H0Z" style="pointer-events: visiblefill; fill: rgb(255, 255, 255);"></path><g><g transform="translate(96,26)"><title></title><path d="M0,0H608V426H0Z" style="fill: rgb(255, 255, 255); stroke: rgb(0, 0, 0); stroke-width: 1; pointer-events: visiblefill; cursor: default;"></path><svg x="0" y="0" overflow="hidden" width="608" height="426" viewBox="0 0 608 426" style="pointer-events: visiblefill; cursor: default;"><g><path d="M0,333h30M15,333v0M30,306h32M46,306v0M61,287h30M76,287v0M91,273h32M107,273v0M122,263h30M137,263v0M152,259h30M167,259v0M182,261h32M198,261v0M213,270h30M228,270v0M243,282h32M259,282v0M274,294h30M289,294v0M304,302h30M319,302v0M334,306h32M350,306v0M365,311h30M380,311v0M395,320h32M411,320v0M426,334h30M441,334v0M456,350h30M471,350v0M486,368h32M502,368v0M517,384h30M532,384v0M547,399h32M563,399v0M578,410h30M593,410v0" style="stroke: rgb(153, 0, 204); stroke-width: 1;"></path><path d="M0,333h30v0h-30zM30,306h32v0h-32zM61,287h30v0h-30zM91,273h32v0h-32zM122,263h30v0h-30zM152,259h30v0h-30zM182,261h32v0h-32zM213,270h30v0h-30zM243,282h32v0h-32zM274,294h30v0h-30zM304,302h30v0h-30zM334,306h32v0h-32zM365,311h30v0h-30zM395,320h32v0h-32zM426,334h30v0h-30zM456,350h30v0h-30zM486,368h32v0h-32zM517,384h30v0h-30zM547,399h32v0h-32zM578,410h30v0h-30z" style="fill: none; pointer-events: visiblefill;"></path><path d="M11,329v8h8v-8zM42,302v8h8v-8zM72,283v8h8v-8zM103,269v8h8v-8zM133,259v8h8v-8zM163,255v8h8v-8zM194,257v8h8v-8zM224,266v8h8v-8zM255,278v8h8v-8zM285,290v8h8v-8zM315,298v8h8v-8zM346,302v8h8v-8zM376,307v8h8v-8zM407,316v8h8v-8zM437,330v8h8v-8zM467,346v8h8v-8zM498,364v8h8v-8zM528,380v8h8v-8zM559,395v8h8v-8zM589,406v8h8v-8z" style="stroke: rgb(153, 0, 204); fill: none;"></path></g><g><path d="M0,311h30M15,311v0M30,277h32M46,277v0M61,251h30M76,251v0M91,228h32M107,228v0M122,209h30M137,209v0M152,197h30M167,197v0M182,194h32M198,194v0M213,199h30M228,199v0M243,203h32M259,203v0M274,217h30M289,217v0M304,229h30M319,229v0M334,239h32M350,239v0M365,259h30M380,259v0M395,278h32M411,278v0M426,303h30M441,303v0M456,332h30M471,332v0M486,361h32M502,361v0M517,385h30M532,385v0M547,404h32M563,404v0M578,415h30M593,415v0" style="stroke: rgb(0, 204, 0); stroke-width: 1;"></path><path d="M0,311h30v0h-30zM30,277h32v0h-32zM61,251h30v0h-30zM91,228h32v0h-32zM122,209h30v0h-30zM152,197h30v0h-30zM182,194h32v0h-32zM213,199h30v0h-30zM243,203h32v0h-32zM274,217h30v0h-30zM304,229h30v0h-30zM334,239h32v0h-32zM365,259h30v0h-30zM395,278h32v0h-32zM426,303h30v0h-30zM456,332h30v0h-30zM486,361h32v0h-32zM517,385h30v0h-30zM547,404h32v0h-32zM578,415h30v0h-30z" style="fill: none; pointer-events: visiblefill;"></path><path d="M16,312h3v-3h-3v-3h-3v3h-3v3h3v3h3zM47,278h3v-3h-3v-3h-3v3h-3v3h3v3h3zM77,252h3v-3h-3v-3h-3v3h-3v3h3v3h3zM108,229h3v-3h-3v-3h-3v3h-3v3h3v3h3zM138,210h3v-3h-3v-3h-3v3h-3v3h3v3h3zM168,198h3v-3h-3v-3h-3v3h-3v3h3v3h3zM199,195h3v-3h-3v-3h-3v3h-3v3h3v3h3zM229,200h3v-3h-3v-3h-3v3h-3v3h3v3h3zM260,204h3v-3h-3v-3h-3v3h-3v3h3v3h3zM290,218h3v-3h-3v-3h-3v3h-3v3h3v3h3zM320,230h3v-3h-3v-3h-3v3h-3v3h3v3h3zM351,240h3v-3h-3v-3h-3v3h-3v3h3v3h3zM381,260h3v-3h-3v-3h-3v3h-3v3h3v3h3zM412,279h3v-3h-3v-3h-3v3h-3v3h3v3h3zM442,304h3v-3h-3v-3h-3v3h-3v3h3v3h3zM472,333h3v-3h-3v-3h-3v3h-3v3h3v3h3zM503,362h3v-3h-3v-3h-3v3h-3v3h3v3h3zM533,386h3v-3h-3v-3h-3v3h-3v3h3v3h3zM564,405h3v-3h-3v-3h-3v3h-3v3h3v3h3zM594,416h3v-3h-3v-3h-3v3h-3v3h3v3h3z" style="stroke: rgb(0, 204, 0); fill: rgb(0, 204, 0);"></path></g><g><path d="M0,315h30M15,315v0M30,282h32M46,282v0M61,257h30M76,257v0M91,235h32M107,235v0M122,215h30M137,215v1M152,201h30M167,201v0M182,194h32M198,194v0M213,195h30M228,195v0M243,193h32M259,193v0M274,205h30M289,205v0M304,216h30M319,216v0M334,229h32M350,229v0M365,254h30M380,253v1M395,276h32M411,276v0M426,304h30M441,304v0M456,335h30M471,335v0M486,364h32M502,364v0M517,388h30M532,388v0M547,405h32M563,405v0M578,416h30M593,416v0" style="stroke: rgb(51, 255, 153); stroke-width: 1;"></path><path d="M0,315h30v0h-30zM30,282h32v0h-32zM61,257h30v0h-30zM91,235h32v0h-32zM122,215h30v1h-30zM152,201h30v0h-30zM182,194h32v0h-32zM213,195h30v0h-30zM243,193h32v0h-32zM274,205h30v0h-30zM304,216h30v0h-30zM334,229h32v0h-32zM365,253h30v1h-30zM395,276h32v0h-32zM426,304h30v0h-30zM456,335h30v0h-30zM486,364h32v0h-32zM517,388h30v0h-30zM547,405h32v0h-32zM578,416h30v0h-30z" style="fill: none; pointer-events: visiblefill;"></path><path d="M16,316h3v-3h-3v-3h-3v3h-3v3h3v3h3zM47,283h3v-3h-3v-3h-3v3h-3v3h3v3h3zM77,258h3v-3h-3v-3h-3v3h-3v3h3v3h3zM108,236h3v-3h-3v-3h-3v3h-3v3h3v3h3zM138,216h3v-3h-3v-3h-3v3h-3v3h3v3h3zM168,202h3v-3h-3v-3h-3v3h-3v3h3v3h3zM199,195h3v-3h-3v-3h-3v3h-3v3h3v3h3zM229,196h3v-3h-3v-3h-3v3h-3v3h3v3h3zM260,194h3v-3h-3v-3h-3v3h-3v3h3v3h3zM290,206h3v-3h-3v-3h-3v3h-3v3h3v3h3zM320,217h3v-3h-3v-3h-3v3h-3v3h3v3h3zM351,230h3v-3h-3v-3h-3v3h-3v3h3v3h3zM381,255h3v-3h-3v-3h-3v3h-3v3h3v3h3zM412,277h3v-3h-3v-3h-3v3h-3v3h3v3h3zM442,305h3v-3h-3v-3h-3v3h-3v3h3v3h3zM472,336h3v-3h-3v-3h-3v3h-3v3h3v3h3zM503,365h3v-3h-3v-3h-3v3h-3v3h3v3h3zM533,389h3v-3h-3v-3h-3v3h-3v3h3v3h3zM564,406h3v-3h-3v-3h-3v3h-3v3h3v3h3zM594,417h3v-3h-3v-3h-3v3h-3v3h3v3h3z" style="stroke: rgb(51, 255, 153); fill: rgb(51, 255, 153);"></path></g><g><path d="M0,320h30M15,320v0M30,289h32M46,288v1M61,266h30M76,265v1M91,246h32M107,246v1M122,229h30M137,229v0M152,214h30M167,214v1M182,202h32M198,202v0M213,194h30M228,194v0M243,182h32M259,182v0M274,188h30M289,188v1M304,200h30M319,200v0M334,217h32M350,217v0M365,251h30M380,251v0M395,280h32M411,280v1M426,312h30M441,312v0M456,342h30M471,342v1M486,370h32M502,370v0M517,392h30M532,392v0M547,407h32M563,407v0M578,417h30M593,417v0" style="stroke: rgb(0, 204, 204); stroke-width: 1;"></path><path d="M0,320h30v0h-30zM30,288h32v1h-32zM61,265h30v1h-30zM91,246h32v1h-32zM122,229h30v0h-30zM152,214h30v1h-30zM182,202h32v0h-32zM213,194h30v0h-30zM243,182h32v0h-32zM274,188h30v1h-30zM304,200h30v0h-30zM334,217h32v0h-32zM365,251h30v0h-30zM395,280h32v1h-32zM426,312h30v0h-30zM456,342h30v1h-30zM486,370h32v0h-32zM517,392h30v0h-30zM547,407h32v0h-32zM578,417h30v0h-30z" style="fill: none; pointer-events: visiblefill;"></path><path d="M16,321h3v-3h-3v-3h-3v3h-3v3h3v3h3zM47,290h3v-3h-3v-3h-3v3h-3v3h3v3h3zM77,267h3v-3h-3v-3h-3v3h-3v3h3v3h3zM108,247h3v-3h-3v-3h-3v3h-3v3h3v3h3zM138,230h3v-3h-3v-3h-3v3h-3v3h3v3h3zM168,215h3v-3h-3v-3h-3v3h-3v3h3v3h3zM199,203h3v-3h-3v-3h-3v3h-3v3h3v3h3zM229,195h3v-3h-3v-3h-3v3h-3v3h3v3h3zM260,183h3v-3h-3v-3h-3v3h-3v3h3v3h3zM290,189h3v-3h-3v-3h-3v3h-3v3h3v3h3zM320,201h3v-3h-3v-3h-3v3h-3v3h3v3h3zM351,218h3v-3h-3v-3h-3v3h-3v3h3v3h3zM381,252h3v-3h-3v-3h-3v3h-3v3h3v3h3zM412,281h3v-3h-3v-3h-3v3h-3v3h3v3h3zM442,313h3v-3h-3v-3h-3v3h-3v3h3v3h3zM472,343h3v-3h-3v-3h-3v3h-3v3h3v3h3zM503,371h3v-3h-3v-3h-3v3h-3v3h3v3h3zM533,393h3v-3h-3v-3h-3v3h-3v3h3v3h3zM564,408h3v-3h-3v-3h-3v3h-3v3h3v3h3zM594,418h3v-3h-3v-3h-3v3h-3v3h3v3h3z" style="stroke: rgb(0, 204, 204); fill: none;"></path></g><g><path d="M0,323h30M15,323v1M30,293h32M46,292v1M61,271h30M76,270v1M91,254h32M107,253v2M122,239h30M137,238v1M152,225h30M167,224v2M182,212h32M198,211v1M213,198h30M228,197v1M243,176h32M259,175v1M274,175h30M289,175v1M304,184h30M319,183v2M334,210h32M350,209v2M365,252h30M380,252v1M395,288h32M411,287v1M426,320h30M441,319v1M456,349h30M471,348v1M486,375h32M502,374v1M517,394h30M532,394v0M547,409h32M563,408v1M578,418h30M593,418v0" style="stroke: rgb(0, 51, 255); stroke-width: 1;"></path><path d="M0,323h30v1h-30zM30,292h32v1h-32zM61,270h30v1h-30zM91,253h32v2h-32zM122,238h30v1h-30zM152,224h30v2h-30zM182,211h32v1h-32zM213,197h30v1h-30zM243,175h32v1h-32zM274,175h30v1h-30zM304,183h30v2h-30zM334,209h32v2h-32zM365,252h30v1h-30zM395,287h32v1h-32zM426,319h30v1h-30zM456,348h30v1h-30zM486,374h32v1h-32zM517,394h30v0h-30zM547,408h32v1h-32zM578,418h30v0h-30z" style="fill: none; pointer-events: visiblefill;"></path><path d="M13,319l2,2l2,-2l2,2l-2,2l2,2l-2,2l-2,-2l-2,2l-2,-2l2,-2l-2,-2zM44,289l2,2l2,-2l2,2l-2,2l2,2l-2,2l-2,-2l-2,2l-2,-2l2,-2l-2,-2zM74,267l2,2l2,-2l2,2l-2,2l2,2l-2,2l-2,-2l-2,2l-2,-2l2,-2l-2,-2zM105,250l2,2l2,-2l2,2l-2,2l2,2l-2,2l-2,-2l-2,2l-2,-2l2,-2l-2,-2zM135,235l2,2l2,-2l2,2l-2,2l2,2l-2,2l-2,-2l-2,2l-2,-2l2,-2l-2,-2zM165,221l2,2l2,-2l2,2l-2,2l2,2l-2,2l-2,-2l-2,2l-2,-2l2,-2l-2,-2zM196,208l2,2l2,-2l2,2l-2,2l2,2l-2,2l-2,-2l-2,2l-2,-2l2,-2l-2,-2zM226,194l2,2l2,-2l2,2l-2,2l2,2l-2,2l-2,-2l-2,2l-2,-2l2,-2l-2,-2zM257,172l2,2l2,-2l2,2l-2,2l2,2l-2,2l-2,-2l-2,2l-2,-2l2,-2l-2,-2zM287,171l2,2l2,-2l2,2l-2,2l2,2l-2,2l-2,-2l-2,2l-2,-2l2,-2l-2,-2zM317,180l2,2l2,-2l2,2l-2,2l2,2l-2,2l-2,-2l-2,2l-2,-2l2,-2l-2,-2zM348,206l2,2l2,-2l2,2l-2,2l2,2l-2,2l-2,-2l-2,2l-2,-2l2,-2l-2,-2zM378,248l2,2l2,-2l2,2l-2,2l2,2l-2,2l-2,-2l-2,2l-2,-2l2,-2l-2,-2zM409,284l2,2l2,-2l2,2l-2,2l2,2l-2,2l-2,-2l-2,2l-2,-2l2,-2l-2,-2zM439,316l2,2l2,-2l2,2l-2,2l2,2l-2,2l-2,-2l-2,2l-2,-2l2,-2l-2,-2zM469,345l2,2l2,-2l2,2l-2,2l2,2l-2,2l-2,-2l-2,2l-2,-2l2,-2l-2,-2zM500,371l2,2l2,-2l2,2l-2,2l2,2l-2,2l-2,-2l-2,2l-2,-2l2,-2l-2,-2zM530,390l2,2l2,-2l2,2l-2,2l2,2l-2,2l-2,-2l-2,2l-2,-2l2,-2l-2,-2zM561,405l2,2l2,-2l2,2l-2,2l2,2l-2,2l-2,-2l-2,2l-2,-2l2,-2l-2,-2zM591,414l2,2l2,-2l2,2l-2,2l2,2l-2,2l-2,-2l-2,2l-2,-2l2,-2l-2,-2z" style="stroke: rgb(0, 51, 255); fill: rgb(0, 51, 255);"></path></g><g><path d="M0,325h30M15,323v4M30,295h32M46,293v4M61,273h30M76,271v4M91,256h32M107,254v4M122,249h30M137,246v5M152,234h30M167,232v5M182,219h32M198,216v5M213,201h30M228,198v6M243,165h32M259,162v6M274,156h30M289,153v6M304,172h30M319,169v6M334,200h32M350,197v6M365,261h30M380,259v4M395,296h32M411,294v4M426,327h30M441,326v3M456,356h30M471,354v3M486,379h32M502,378v2M517,398h30M532,397v2M547,410h32M563,410v1M578,419h30M593,419v1" style="stroke: rgb(0, 0, 204); stroke-width: 1;"></path><path d="M0,323h30v4h-30zM30,293h32v4h-32zM61,271h30v4h-30zM91,254h32v4h-32zM122,246h30v5h-30zM152,232h30v5h-30zM182,216h32v5h-32zM213,198h30v6h-30zM243,162h32v6h-32zM274,153h30v6h-30zM304,169h30v6h-30zM334,197h32v6h-32zM365,259h30v4h-30zM395,294h32v4h-32zM426,326h30v3h-30zM456,354h30v3h-30zM486,378h32v2h-32zM517,397h30v2h-30zM547,410h32v1h-32zM578,419h30v1h-30z" style="fill: none; pointer-events: visiblefill;"></path><path d="M11,321v8h8v-8zM42,291v8h8v-8zM72,269v8h8v-8zM103,252v8h8v-8zM133,245v8h8v-8zM163,230v8h8v-8zM194,215v8h8v-8zM224,197v8h8v-8zM255,161v8h8v-8zM285,152v8h8v-8zM315,168v8h8v-8zM346,196v8h8v-8zM376,257v8h8v-8zM407,292v8h8v-8zM437,323v8h8v-8zM467,352v8h8v-8zM498,375v8h8v-8zM528,394v8h8v-8zM559,406v8h8v-8zM589,415v8h8v-8z" style="stroke: rgb(0, 0, 204); fill: none;"></path></g><g><path d="M0,332h30M15,332v0M30,305h32M46,305v0M61,285h30M76,285v0M91,271h32M107,271v0M122,261h30M137,261v0M152,256h30M167,256v0M182,258h32M198,258v0M213,266h30M228,266v0M243,279h32M259,279v0M274,291h30M289,291v0M304,299h30M319,299v0M334,303h32M350,303v0M365,308h30M380,308v0M395,318h32M411,318v0M426,332h30M441,332v0M456,349h30M471,349v0M486,368h32M502,368v0M517,384h30M532,384v0M547,399h32M563,399v0M578,410h30M593,410v0" style="stroke: rgb(0, 0, 0); stroke-width: 1;"></path><path d="M0,332h30v0h-30zM30,305h32v0h-32zM61,285h30v0h-30zM91,271h32v0h-32zM122,261h30v0h-30zM152,256h30v0h-30zM182,258h32v0h-32zM213,266h30v0h-30zM243,279h32v0h-32zM274,291h30v0h-30zM304,299h30v0h-30zM334,303h32v0h-32zM365,308h30v0h-30zM395,318h32v0h-32zM426,332h30v0h-30zM456,349h30v0h-30zM486,368h32v0h-32zM517,384h30v0h-30zM547,399h32v0h-32zM578,410h30v0h-30z" style="fill: none; pointer-events: visiblefill;"></path><path d="M16,333h3v-3h-3v-3h-3v3h-3v3h3v3h3zM47,306h3v-3h-3v-3h-3v3h-3v3h3v3h3zM77,286h3v-3h-3v-3h-3v3h-3v3h3v3h3zM108,272h3v-3h-3v-3h-3v3h-3v3h3v3h3zM138,262h3v-3h-3v-3h-3v3h-3v3h3v3h3zM168,257h3v-3h-3v-3h-3v3h-3v3h3v3h3zM199,259h3v-3h-3v-3h-3v3h-3v3h3v3h3zM229,267h3v-3h-3v-3h-3v3h-3v3h3v3h3zM260,280h3v-3h-3v-3h-3v3h-3v3h3v3h3zM290,292h3v-3h-3v-3h-3v3h-3v3h3v3h3zM320,300h3v-3h-3v-3h-3v3h-3v3h3v3h3zM351,304h3v-3h-3v-3h-3v3h-3v3h3v3h3zM381,309h3v-3h-3v-3h-3v3h-3v3h3v3h3zM412,319h3v-3h-3v-3h-3v3h-3v3h3v3h3zM442,333h3v-3h-3v-3h-3v3h-3v3h3v3h3zM472,350h3v-3h-3v-3h-3v3h-3v3h3v3h3zM503,369h3v-3h-3v-3h-3v3h-3v3h3v3h3zM533,385h3v-3h-3v-3h-3v3h-3v3h3v3h3zM564,400h3v-3h-3v-3h-3v3h-3v3h3v3h3zM594,411h3v-3h-3v-3h-3v3h-3v3h3v3h3z" style="stroke: rgb(0, 0, 0); fill: rgb(0, 0, 0);"></path></g></svg><g><g transform="translate(0,426)"><path d="M0,0h608M0,-426h608M0,-15V0M12,-8V0M24,-8V0M36,-8V0M49,-8V0M61,-15V0M73,-8V0M85,-8V0M97,-8V0M109,-8V0M122,-15V0M134,-8V0M146,-8V0M158,-8V0M170,-8V0M182,-15V0M195,-8V0M207,-8V0M219,-8V0M231,-8V0M243,-15V0M255,-8V0M268,-8V0M280,-8V0M292,-8V0M304,-15V0M316,-8V0M328,-8V0M340,-8V0M353,-8V0M365,-15V0M377,-8V0M389,-8V0M401,-8V0M413,-8V0M426,-15V0M438,-8V0M450,-8V0M462,-8V0M474,-8V0M486,-15V0M499,-8V0M511,-8V0M523,-8V0M535,-8V0M547,-15V0M559,-8V0M572,-8V0M584,-8V0M596,-8V0M608,-15V0M0,-411V-426M12,-418V-426M24,-418V-426M36,-418V-426M49,-418V-426M61,-411V-426M73,-418V-426M85,-418V-426M97,-418V-426M109,-418V-426M122,-411V-426M134,-418V-426M146,-418V-426M158,-418V-426M170,-418V-426M182,-411V-426M195,-418V-426M207,-418V-426M219,-418V-426M231,-418V-426M243,-411V-426M255,-418V-426M268,-418V-426M280,-418V-426M292,-418V-426M304,-411V-426M316,-418V-426M328,-418V-426M340,-418V-426M353,-418V-426M365,-411V-426M377,-418V-426M389,-418V-426M401,-418V-426M413,-418V-426M426,-411V-426M438,-418V-426M450,-418V-426M462,-418V-426M474,-418V-426M486,-411V-426M499,-418V-426M511,-418V-426M523,-418V-426M535,-418V-426M547,-411V-426M559,-418V-426M572,-418V-426M584,-418V-426M596,-418V-426M608,-411V-426" style="stroke: rgb(0, 0, 0); stroke-width: 1;"></path><g font-family="Arial" font-size="18" xml:space="preserve" fill="#000000" text-anchor="middle"><text dy=".8em" transform="translate(0,3)">-5</text><text dy=".8em" transform="translate(61,3)">-4</text><text dy=".8em" transform="translate(122,3)">-3</text><text dy=".8em" transform="translate(182,3)">-2</text><text dy=".8em" transform="translate(243,3)">-1</text><text dy=".8em" transform="translate(304,3)">0</text><text dy=".8em" transform="translate(365,3)">1</text><text dy=".8em" transform="translate(426,3)">2</text><text dy=".8em" transform="translate(486,3)">3</text><text dy=".8em" transform="translate(547,3)">4</text><text dy=".8em" transform="translate(608,3)">5</text></g><rect x="0" y="0" width="608" height="21" style="opacity: 0; cursor: crosshair;"></rect><g font-family="Arial" font-size="18" xml:space="preserve" transform="translate(608,29)" style="cursor: move;"><g transform="translate(-10,6)"><text fill="#000000" font-size="18">η</text></g></g></g><g><path d="M0,0v426M608,0v426M24,426H0M12,415H0M12,405H0M12,394H0M24,383H0M12,373H0M12,362H0M12,351H0M24,341H0M12,330H0M12,320H0M12,309H0M24,298H0M12,288H0M12,277H0M12,266H0M24,256H0M12,245H0M12,234H0M12,224H0M24,213H0M12,202H0M12,192H0M12,181H0M24,170H0M12,160H0M12,149H0M12,138H0M24,128H0M12,117H0M12,107H0M12,96H0M24,85H0M12,75H0M12,64H0M12,53H0M24,43H0M12,32H0M12,21H0M12,11H0M24,0H0M584,426H608M596,415H608M596,405H608M596,394H608M584,383H608M596,373H608M596,362H608M596,351H608M584,341H608M596,330H608M596,320H608M596,309H608M584,298H608M596,288H608M596,277H608M596,266H608M584,256H608M596,245H608M596,234H608M596,224H608M584,213H608M596,202H608M596,192H608M596,181H608M584,170H608M596,160H608M596,149H608M596,138H608M584,128H608M596,117H608M596,107H608M596,96H608M584,85H608M596,75H608M596,64H608M596,53H608M584,43H608M596,32H608M596,21H608M596,11H608M584,0H608" style="stroke: rgb(0, 0, 0); stroke-width: 1;"></path><g font-family="Arial" font-size="18" xml:space="preserve" fill="#000000" text-anchor="end"><text dominant-baseline="middle" transform="translate(-4,426)">0</text><text dominant-baseline="middle" transform="translate(-4,383)">2</text><text dominant-baseline="middle" transform="translate(-4,341)">4</text><text dominant-baseline="middle" transform="translate(-4,298)">6</text><text dominant-baseline="middle" transform="translate(-4,256)">8</text><text dominant-baseline="middle" transform="translate(-4,213)">10</text><text dominant-baseline="middle" transform="translate(-4,170)">12</text><text dominant-baseline="middle" transform="translate(-4,128)">14</text><text dominant-baseline="middle" transform="translate(-4,85)">16</text><text dominant-baseline="middle" transform="translate(-4,43)">18</text><text dominant-baseline="middle" transform="translate(-4)">20</text></g><rect x="-23" y="0" width="23" height="426" style="opacity: 0; cursor: crosshair;"></rect><g font-family="Arial" font-size="18" xml:space="preserve" transform="translate(-40)" style="cursor: move;"><g transform="rotate(270) translate(-60,8)"><text fill="#000000" font-size="18">dN</text><text fill="#000000" font-size="11" transform="translate(24,-10)">ch</text><text fill="#000000" font-size="18" x="35">/dη</text></g></g></g></g><path d="M2,2h15v-5h-20v20h5Z" style="opacity: 0; cursor: nw-resize;"></path><path d="M606,2h-15v-5h20v20h-5 Z" style="opacity: 0; cursor: ne-resize;"></path><path d="M2,424h15v5h-20v-20h5Z" style="opacity: 0; cursor: sw-resize;"></path><path d="M606,424h-15v5h20v-20h-5Z" style="opacity: 0; cursor: se-resize;"></path><path d="M-3,18h5v390h-5Z" style="opacity: 0; cursor: w-resize;"></path><path d="M611,18h-5v390h5Z" style="opacity: 0; cursor: e-resize;"></path><path d="M18,-3v5h572v-5Z" style="opacity: 0; cursor: n-resize;"></path><path d="M18,429v-5h572v5Z" style="opacity: 0; cursor: s-resize;"></path></g><g transform="translate(120,51)" font-family="Arial" font-size="11" xml:space="preserve" style="cursor: move;"><path d="M0,0H288V103H0Z" style="fill: none; pointer-events: visiblefill;"></path><text fill="#000000" text-anchor="start" dominant-baseline="middle" transform="translate(9,9)">PYTHIA8, pAu200GeV with option3</text><path d="M32,17v8h8v-8z" style="stroke: rgb(153, 0, 204); fill: none;"></path><g transform="translate(72,25)"><text fill="#000000" font-size="11">Events with p</text><text fill="#000000" font-size="7" transform="translate(65,2)">T</text><text fill="#000000" font-size="11" x="73">&lt; 2 GeV γ</text><text fill="#000000" font-size="7" transform="translate(122,-6)">dir</text><text fill="#000000" font-size="11" x="133">at |η|&lt;1</text></g><path d="M37,34h3v-3h-3v-3h-3v3h-3v3h3v3h3z" style="stroke: rgb(0, 204, 0); fill: rgb(0, 204, 0);"></path><g transform="translate(72,37)"><text fill="#000000" font-size="11">Events with 2 GeV ≤ p</text><text fill="#000000" font-size="7" transform="translate(108,2)">T</text><text fill="#000000" font-size="11" x="116">&lt; 4 GeV γ</text><text fill="#000000" font-size="7" transform="translate(165,-6)">dir</text><text fill="#000000" font-size="11" x="176">at |η|&lt;1</text></g><path d="M37,46h3v-3h-3v-3h-3v3h-3v3h3v3h3z" style="stroke: rgb(51, 255, 153); fill: rgb(51, 255, 153);"></path><g transform="translate(72,49)"><text fill="#000000" font-size="11">Events with 4 GeV ≤ p</text><text fill="#000000" font-size="7" transform="translate(108,2)">T</text><text fill="#000000" font-size="11" x="116">&lt; 7 GeV γ</text><text fill="#000000" font-size="7" transform="translate(165,-6)">dir</text><text fill="#000000" font-size="11" x="176">at |η|&lt;1</text></g><path d="M37,59h3v-3h-3v-3h-3v3h-3v3h3v3h3z" style="stroke: rgb(0, 204, 204); fill: none;"></path><g transform="translate(72,62)"><text fill="#000000" font-size="11">Events with 7 GeV ≤ p</text><text fill="#000000" font-size="7" transform="translate(108,2)">T</text><text fill="#000000" font-size="11" x="116">&lt; 10 GeV γ</text><text fill="#000000" font-size="7" transform="translate(171,-6)">dir</text><text fill="#000000" font-size="11" x="182">at |η|&lt;1</text></g><path d="M34,66l2,2l2,-2l2,2l-2,2l2,2l-2,2l-2,-2l-2,2l-2,-2l2,-2l-2,-2z" style="stroke: rgb(0, 51, 255); fill: rgb(0, 51, 255);"></path><g transform="translate(72,74)"><text fill="#000000" font-size="11">Events with 10 GeV ≤ p</text><text fill="#000000" font-size="7" transform="translate(114,2)">T</text><text fill="#000000" font-size="11" x="122">&lt; 15 GeV γ</text><text fill="#000000" font-size="7" transform="translate(177,-6)">dir</text><text fill="#000000" font-size="11" x="188">at |η|&lt;1</text></g><path d="M32,78v8h8v-8z" style="stroke: rgb(0, 0, 204); fill: none;"></path><g transform="translate(72,86)"><text fill="#000000" font-size="11">Events with 15 GeV ≤ p</text><text fill="#000000" font-size="7" transform="translate(114,2)">T</text><text fill="#000000" font-size="11" x="122">&lt; 20 GeV γ</text><text fill="#000000" font-size="7" transform="translate(177,-6)">dir</text><text fill="#000000" font-size="11" x="188">at |η|&lt;1</text></g><path d="M37,95h3v-3h-3v-3h-3v3h-3v3h3v3h3z" style="stroke: rgb(0, 0, 0); fill: rgb(0, 0, 0);"></path><text fill="#000000" text-anchor="start" dominant-baseline="middle" transform="translate(72,94)">MB events</text><path d="M2,2h15v-5h-20v20h5Z" style="opacity: 0; cursor: nw-resize;"></path><path d="M286,2h-15v-5h20v20h-5 Z" style="opacity: 0; cursor: ne-resize;"></path><path d="M2,101h15v5h-20v-20h5Z" style="opacity: 0; cursor: sw-resize;"></path><path d="M286,101h-15v5h20v-20h-5Z" style="opacity: 0; cursor: se-resize;"></path><path d="M-3,18h5v67h-5Z" style="opacity: 0; cursor: w-resize;"></path><path d="M291,18h-5v67h5Z" style="opacity: 0; cursor: e-resize;"></path><path d="M18,-3v5h252v-5Z" style="opacity: 0; cursor: n-resize;"></path><path d="M18,106v-5h252v5Z" style="opacity: 0; cursor: s-resize;"></path></g></g></svg>