<svg width="800" height="513" xmlns="http://www.w3.org/2000/svg"><path d="M0,0H800V513H0Z" style="pointer-events: visiblefill; fill: rgb(255, 255, 255);"></path><g><g transform="translate(96,26)"><title></title><path d="M0,0H608V426H0Z" style="fill: rgb(255, 255, 255); stroke: rgb(0, 0, 0); stroke-width: 1; pointer-events: visiblefill; cursor: default;"></path><svg x="0" y="0" overflow="hidden" width="608" height="426" viewBox="0 0 608 426" style="pointer-events: visiblefill; cursor: default;"><g><path d="M0,332h30M15,332v0M30,305h32M46,305v0M61,286h30M76,286v0M91,271h32M107,271v0M122,261h30M137,261v0M152,257h30M167,257v0M182,259h32M198,259v0M213,267h30M228,267v0M243,280h32M259,280v0M274,292h30M289,292v0M304,300h30M319,300v0M334,304h32M350,304v0M365,309h30M380,309v0M395,319h32M411,319v0M426,333h30M441,333v0M456,350h30M471,350v0M486,368h32M502,368v0M517,384h30M532,384v0M547,399h32M563,399v0M578,410h30M593,410v0" style="stroke: rgb(255, 51, 0); stroke-width: 1;"></path><path d="M0,332h30v0h-30zM30,305h32v0h-32zM61,286h30v0h-30zM91,271h32v0h-32zM122,261h30v0h-30zM152,257h30v0h-30zM182,259h32v0h-32zM213,267h30v0h-30zM243,280h32v0h-32zM274,292h30v0h-30zM304,300h30v0h-30zM334,304h32v0h-32zM365,309h30v0h-30zM395,319h32v0h-32zM426,333h30v0h-30zM456,350h30v0h-30zM486,368h32v0h-32zM517,384h30v0h-30zM547,399h32v0h-32zM578,410h30v0h-30z" style="fill: none; pointer-events: visiblefill;"></path><path d="M11,328v8h8v-8zM42,301v8h8v-8zM72,282v8h8v-8zM103,267v8h8v-8zM133,257v8h8v-8zM163,253v8h8v-8zM194,255v8h8v-8zM224,263v8h8v-8zM255,276v8h8v-8zM285,288v8h8v-8zM315,296v8h8v-8zM346,300v8h8v-8zM376,305v8h8v-8zM407,315v8h8v-8zM437,329v8h8v-8zM467,346v8h8v-8zM498,364v8h8v-8zM528,380v8h8v-8zM559,395v8h8v-8zM589,406v8h8v-8z" style="stroke: rgb(255, 51, 0); fill: none;"></path></g><g><path d="M0,312h30M15,312v0M30,278h32M46,278v0M61,251h30M76,251v0M91,228h32M107,228v0M122,209h30M137,209v0M152,197h30M167,197v0M182,193h32M198,193v0M213,197h30M228,197v0M243,208h32M259,208v0M274,221h30M289,221v0M304,233h30M319,233v0M334,243h32M350,243v0M365,257h30M380,257v0M395,277h32M411,277v0M426,302h30M441,302v0M456,331h30M471,331v0M486,361h32M502,361v0M517,385h30M532,385v0M547,404h32M563,404v0M578,415h30M593,415v0" style="stroke: rgb(255, 204, 0); stroke-width: 1;"></path><path d="M0,312h30v0h-30zM30,278h32v0h-32zM61,251h30v0h-30zM91,228h32v0h-32zM122,209h30v0h-30zM152,197h30v0h-30zM182,193h32v0h-32zM213,197h30v0h-30zM243,208h32v0h-32zM274,221h30v0h-30zM304,233h30v0h-30zM334,243h32v0h-32zM365,257h30v0h-30zM395,277h32v0h-32zM426,302h30v0h-30zM456,331h30v0h-30zM486,361h32v0h-32zM517,385h30v0h-30zM547,404h32v0h-32zM578,415h30v0h-30z" style="fill: none; pointer-events: visiblefill;"></path><path d="M16,313h3v-3h-3v-3h-3v3h-3v3h3v3h3zM47,279h3v-3h-3v-3h-3v3h-3v3h3v3h3zM77,252h3v-3h-3v-3h-3v3h-3v3h3v3h3zM108,229h3v-3h-3v-3h-3v3h-3v3h3v3h3zM138,210h3v-3h-3v-3h-3v3h-3v3h3v3h3zM168,198h3v-3h-3v-3h-3v3h-3v3h3v3h3zM199,194h3v-3h-3v-3h-3v3h-3v3h3v3h3zM229,198h3v-3h-3v-3h-3v3h-3v3h3v3h3zM260,209h3v-3h-3v-3h-3v3h-3v3h3v3h3zM290,222h3v-3h-3v-3h-3v3h-3v3h3v3h3zM320,234h3v-3h-3v-3h-3v3h-3v3h3v3h3zM351,244h3v-3h-3v-3h-3v3h-3v3h3v3h3zM381,258h3v-3h-3v-3h-3v3h-3v3h3v3h3zM412,278h3v-3h-3v-3h-3v3h-3v3h3v3h3zM442,303h3v-3h-3v-3h-3v3h-3v3h3v3h3zM472,332h3v-3h-3v-3h-3v3h-3v3h3v3h3zM503,362h3v-3h-3v-3h-3v3h-3v3h3v3h3zM533,386h3v-3h-3v-3h-3v3h-3v3h3v3h3zM564,405h3v-3h-3v-3h-3v3h-3v3h3v3h3zM594,416h3v-3h-3v-3h-3v3h-3v3h3v3h3z" style="stroke: rgb(255, 204, 0); fill: rgb(255, 204, 0);"></path></g><g><path d="M0,315h30M15,315v0M30,282h32M46,282v0M61,257h30M76,257v0M91,235h32M107,235v0M122,216h30M137,216v0M152,202h30M167,202v0M182,195h32M198,195v0M213,196h30M228,196v0M243,202h32M259,201v1M274,213h30M289,213v0M304,224h30M319,224v0M334,236h32M350,236v0M365,254h30M380,254v0M395,277h32M411,277v0M426,304h30M441,304v0M456,334h30M471,334v0M486,364h32M502,364v0M517,388h30M532,388v0M547,405h32M563,405v0M578,416h30M593,416v0" style="stroke: rgb(255, 0, 0); stroke-width: 1;"></path><path d="M0,315h30v0h-30zM30,282h32v0h-32zM61,257h30v0h-30zM91,235h32v0h-32zM122,216h30v0h-30zM152,202h30v0h-30zM182,195h32v0h-32zM213,196h30v0h-30zM243,201h32v1h-32zM274,213h30v0h-30zM304,224h30v0h-30zM334,236h32v0h-32zM365,254h30v0h-30zM395,277h32v0h-32zM426,304h30v0h-30zM456,334h30v0h-30zM486,364h32v0h-32zM517,388h30v0h-30zM547,405h32v0h-32zM578,416h30v0h-30z" style="fill: none; pointer-events: visiblefill;"></path><path d="M16,316h3v-3h-3v-3h-3v3h-3v3h3v3h3zM47,283h3v-3h-3v-3h-3v3h-3v3h3v3h3zM77,258h3v-3h-3v-3h-3v3h-3v3h3v3h3zM108,236h3v-3h-3v-3h-3v3h-3v3h3v3h3zM138,217h3v-3h-3v-3h-3v3h-3v3h3v3h3zM168,203h3v-3h-3v-3h-3v3h-3v3h3v3h3zM199,196h3v-3h-3v-3h-3v3h-3v3h3v3h3zM229,197h3v-3h-3v-3h-3v3h-3v3h3v3h3zM260,203h3v-3h-3v-3h-3v3h-3v3h3v3h3zM290,214h3v-3h-3v-3h-3v3h-3v3h3v3h3zM320,225h3v-3h-3v-3h-3v3h-3v3h3v3h3zM351,237h3v-3h-3v-3h-3v3h-3v3h3v3h3zM381,255h3v-3h-3v-3h-3v3h-3v3h3v3h3zM412,278h3v-3h-3v-3h-3v3h-3v3h3v3h3zM442,305h3v-3h-3v-3h-3v3h-3v3h3v3h3zM472,335h3v-3h-3v-3h-3v3h-3v3h3v3h3zM503,365h3v-3h-3v-3h-3v3h-3v3h3v3h3zM533,389h3v-3h-3v-3h-3v3h-3v3h3v3h3zM564,406h3v-3h-3v-3h-3v3h-3v3h3v3h3zM594,417h3v-3h-3v-3h-3v3h-3v3h3v3h3z" style="stroke: rgb(255, 0, 0); fill: rgb(255, 0, 0);"></path></g><g><path d="M0,319h30M15,319v1M30,288h32M46,288v0M61,264h30M76,264v1M91,245h32M107,244v1M122,227h30M137,227v0M152,212h30M167,212v1M182,200h32M198,200v1M213,192h30M228,192v0M243,187h32M259,187v0M274,193h30M289,192v1M304,204h30M319,204v1M334,220h32M350,220v1M365,248h30M380,248v1M395,278h32M411,278v1M426,310h30M441,310v0M456,341h30M471,341v1M486,369h32M502,369v1M517,392h30M532,391v1M547,407h32M563,407v0M578,417h30M593,417v0" style="stroke: rgb(255, 0, 51); stroke-width: 1;"></path><path d="M0,319h30v1h-30zM30,288h32v0h-32zM61,264h30v1h-30zM91,244h32v1h-32zM122,227h30v0h-30zM152,212h30v1h-30zM182,200h32v1h-32zM213,192h30v0h-30zM243,187h32v0h-32zM274,192h30v1h-30zM304,204h30v1h-30zM334,220h32v1h-32zM365,248h30v1h-30zM395,278h32v1h-32zM426,310h30v0h-30zM456,341h30v1h-30zM486,369h32v1h-32zM517,391h30v1h-30zM547,407h32v0h-32zM578,417h30v0h-30z" style="fill: none; pointer-events: visiblefill;"></path><path d="M16,320h3v-3h-3v-3h-3v3h-3v3h3v3h3zM47,289h3v-3h-3v-3h-3v3h-3v3h3v3h3zM77,265h3v-3h-3v-3h-3v3h-3v3h3v3h3zM108,246h3v-3h-3v-3h-3v3h-3v3h3v3h3zM138,228h3v-3h-3v-3h-3v3h-3v3h3v3h3zM168,213h3v-3h-3v-3h-3v3h-3v3h3v3h3zM199,201h3v-3h-3v-3h-3v3h-3v3h3v3h3zM229,193h3v-3h-3v-3h-3v3h-3v3h3v3h3zM260,188h3v-3h-3v-3h-3v3h-3v3h3v3h3zM290,194h3v-3h-3v-3h-3v3h-3v3h3v3h3zM320,205h3v-3h-3v-3h-3v3h-3v3h3v3h3zM351,221h3v-3h-3v-3h-3v3h-3v3h3v3h3zM381,249h3v-3h-3v-3h-3v3h-3v3h3v3h3zM412,279h3v-3h-3v-3h-3v3h-3v3h3v3h3zM442,311h3v-3h-3v-3h-3v3h-3v3h3v3h3zM472,342h3v-3h-3v-3h-3v3h-3v3h3v3h3zM503,370h3v-3h-3v-3h-3v3h-3v3h3v3h3zM533,393h3v-3h-3v-3h-3v3h-3v3h3v3h3zM564,408h3v-3h-3v-3h-3v3h-3v3h3v3h3zM594,418h3v-3h-3v-3h-3v3h-3v3h3v3h3z" style="stroke: rgb(255, 0, 51); fill: none;"></path></g><g><path d="M0,323h30M15,322v2M30,292h32M46,291v2M61,272h30M76,271v2M91,251h32M107,250v2M122,235h30M137,234v2M152,222h30M167,220v3M182,205h32M198,203v3M213,193h30M228,192v3M243,177h32M259,175v3M274,177h30M289,175v3M304,187h30M319,186v2M334,210h32M350,209v2M365,248h30M380,247v2M395,285h32M411,284v2M426,318h30M441,317v2M456,347h30M471,346v2M486,374h32M502,374v1M517,394h30M532,393v1M547,409h32M563,409v0M578,418h30M593,418v0" style="stroke: rgb(255, 0, 255); stroke-width: 1;"></path><path d="M0,322h30v2h-30zM30,291h32v2h-32zM61,271h30v2h-30zM91,250h32v2h-32zM122,234h30v2h-30zM152,220h30v3h-30zM182,203h32v3h-32zM213,192h30v3h-30zM243,175h32v3h-32zM274,175h30v3h-30zM304,186h30v2h-30zM334,209h32v2h-32zM365,247h30v2h-30zM395,284h32v2h-32zM426,317h30v2h-30zM456,346h30v2h-30zM486,374h32v1h-32zM517,393h30v1h-30zM547,409h32v0h-32zM578,418h30v0h-30z" style="fill: none; pointer-events: visiblefill;"></path><path d="M13,319l2,2l2,-2l2,2l-2,2l2,2l-2,2l-2,-2l-2,2l-2,-2l2,-2l-2,-2zM44,288l2,2l2,-2l2,2l-2,2l2,2l-2,2l-2,-2l-2,2l-2,-2l2,-2l-2,-2zM74,268l2,2l2,-2l2,2l-2,2l2,2l-2,2l-2,-2l-2,2l-2,-2l2,-2l-2,-2zM105,247l2,2l2,-2l2,2l-2,2l2,2l-2,2l-2,-2l-2,2l-2,-2l2,-2l-2,-2zM135,231l2,2l2,-2l2,2l-2,2l2,2l-2,2l-2,-2l-2,2l-2,-2l2,-2l-2,-2zM165,218l2,2l2,-2l2,2l-2,2l2,2l-2,2l-2,-2l-2,2l-2,-2l2,-2l-2,-2zM196,201l2,2l2,-2l2,2l-2,2l2,2l-2,2l-2,-2l-2,2l-2,-2l2,-2l-2,-2zM226,189l2,2l2,-2l2,2l-2,2l2,2l-2,2l-2,-2l-2,2l-2,-2l2,-2l-2,-2zM257,173l2,2l2,-2l2,2l-2,2l2,2l-2,2l-2,-2l-2,2l-2,-2l2,-2l-2,-2zM287,173l2,2l2,-2l2,2l-2,2l2,2l-2,2l-2,-2l-2,2l-2,-2l2,-2l-2,-2zM317,183l2,2l2,-2l2,2l-2,2l2,2l-2,2l-2,-2l-2,2l-2,-2l2,-2l-2,-2zM348,206l2,2l2,-2l2,2l-2,2l2,2l-2,2l-2,-2l-2,2l-2,-2l2,-2l-2,-2zM378,244l2,2l2,-2l2,2l-2,2l2,2l-2,2l-2,-2l-2,2l-2,-2l2,-2l-2,-2zM409,281l2,2l2,-2l2,2l-2,2l2,2l-2,2l-2,-2l-2,2l-2,-2l2,-2l-2,-2zM439,314l2,2l2,-2l2,2l-2,2l2,2l-2,2l-2,-2l-2,2l-2,-2l2,-2l-2,-2zM469,343l2,2l2,-2l2,2l-2,2l2,2l-2,2l-2,-2l-2,2l-2,-2l2,-2l-2,-2zM500,370l2,2l2,-2l2,2l-2,2l2,2l-2,2l-2,-2l-2,2l-2,-2l2,-2l-2,-2zM530,390l2,2l2,-2l2,2l-2,2l2,2l-2,2l-2,-2l-2,2l-2,-2l2,-2l-2,-2zM561,405l2,2l2,-2l2,2l-2,2l2,2l-2,2l-2,-2l-2,2l-2,-2l2,-2l-2,-2zM591,414l2,2l2,-2l2,2l-2,2l2,2l-2,2l-2,-2l-2,2l-2,-2l2,-2l-2,-2z" style="stroke: rgb(255, 0, 255); fill: rgb(255, 0, 255);"></path></g><g><path d="M0,321h30M15,317v7M30,292h32M46,288v8M61,269h30M76,264v9M91,252h32M107,247v9M122,245h30M137,241v8M152,230h30M167,226v9M182,218h32M198,213v10M213,199h30M228,194v10M243,177h32M259,172v10M274,156h30M289,151v10M304,181h30M319,176v10M334,209h32M350,204v10M365,262h30M380,258v8M395,290h32M411,287v7M426,321h30M441,318v6M456,356h30M471,353v6M486,377h32M502,374v5M517,399h30M532,397v4M547,410h32M563,409v2M578,419h30M593,418v2" style="stroke: rgb(204, 0, 255); stroke-width: 1;"></path><path d="M0,317h30v7h-30zM30,288h32v8h-32zM61,264h30v9h-30zM91,247h32v9h-32zM122,241h30v8h-30zM152,226h30v9h-30zM182,213h32v10h-32zM213,194h30v10h-30zM243,172h32v10h-32zM274,151h30v10h-30zM304,176h30v10h-30zM334,204h32v10h-32zM365,258h30v8h-30zM395,287h32v7h-32zM426,318h30v6h-30zM456,353h30v6h-30zM486,374h32v5h-32zM517,397h30v4h-30zM547,409h32v2h-32zM578,418h30v2h-30z" style="fill: none; pointer-events: visiblefill;"></path><path d="M11,317v8h8v-8zM42,288v8h8v-8zM72,265v8h8v-8zM103,248v8h8v-8zM133,241v8h8v-8zM163,226v8h8v-8zM194,214v8h8v-8zM224,195v8h8v-8zM255,173v8h8v-8zM285,152v8h8v-8zM315,177v8h8v-8zM346,205v8h8v-8zM376,258v8h8v-8zM407,286v8h8v-8zM437,317v8h8v-8zM467,352v8h8v-8zM498,373v8h8v-8zM528,395v8h8v-8zM559,406v8h8v-8zM589,415v8h8v-8z" style="stroke: rgb(204, 0, 255); fill: none;"></path></g><g><path d="M0,332h30M15,332v0M30,305h32M46,305v0M61,285h30M76,285v0M91,271h32M107,271v0M122,261h30M137,261v0M152,256h30M167,256v0M182,258h32M198,258v0M213,266h30M228,266v0M243,279h32M259,279v0M274,291h30M289,291v0M304,299h30M319,299v0M334,303h32M350,303v0M365,308h30M380,308v0M395,318h32M411,318v0M426,332h30M441,332v0M456,349h30M471,349v0M486,368h32M502,368v0M517,384h30M532,384v0M547,399h32M563,399v0M578,410h30M593,410v0" style="stroke: rgb(0, 0, 0); stroke-width: 1;"></path><path d="M0,332h30v0h-30zM30,305h32v0h-32zM61,285h30v0h-30zM91,271h32v0h-32zM122,261h30v0h-30zM152,256h30v0h-30zM182,258h32v0h-32zM213,266h30v0h-30zM243,279h32v0h-32zM274,291h30v0h-30zM304,299h30v0h-30zM334,303h32v0h-32zM365,308h30v0h-30zM395,318h32v0h-32zM426,332h30v0h-30zM456,349h30v0h-30zM486,368h32v0h-32zM517,384h30v0h-30zM547,399h32v0h-32zM578,410h30v0h-30z" style="fill: none; pointer-events: visiblefill;"></path><path d="M16,333h3v-3h-3v-3h-3v3h-3v3h3v3h3zM47,306h3v-3h-3v-3h-3v3h-3v3h3v3h3zM77,286h3v-3h-3v-3h-3v3h-3v3h3v3h3zM108,272h3v-3h-3v-3h-3v3h-3v3h3v3h3zM138,262h3v-3h-3v-3h-3v3h-3v3h3v3h3zM168,257h3v-3h-3v-3h-3v3h-3v3h3v3h3zM199,259h3v-3h-3v-3h-3v3h-3v3h3v3h3zM229,267h3v-3h-3v-3h-3v3h-3v3h3v3h3zM260,280h3v-3h-3v-3h-3v3h-3v3h3v3h3zM290,292h3v-3h-3v-3h-3v3h-3v3h3v3h3zM320,300h3v-3h-3v-3h-3v3h-3v3h3v3h3zM351,304h3v-3h-3v-3h-3v3h-3v3h3v3h3zM381,309h3v-3h-3v-3h-3v3h-3v3h3v3h3zM412,319h3v-3h-3v-3h-3v3h-3v3h3v3h3zM442,333h3v-3h-3v-3h-3v3h-3v3h3v3h3zM472,350h3v-3h-3v-3h-3v3h-3v3h3v3h3zM503,369h3v-3h-3v-3h-3v3h-3v3h3v3h3zM533,385h3v-3h-3v-3h-3v3h-3v3h3v3h3zM564,400h3v-3h-3v-3h-3v3h-3v3h3v3h3zM594,411h3v-3h-3v-3h-3v3h-3v3h3v3h3z" style="stroke: rgb(0, 0, 0); fill: rgb(0, 0, 0);"></path></g></svg><g><g transform="translate(0,426)"><path d="M0,0h608M0,-426h608M0,-15V0M12,-8V0M24,-8V0M36,-8V0M49,-8V0M61,-15V0M73,-8V0M85,-8V0M97,-8V0M109,-8V0M122,-15V0M134,-8V0M146,-8V0M158,-8V0M170,-8V0M182,-15V0M195,-8V0M207,-8V0M219,-8V0M231,-8V0M243,-15V0M255,-8V0M268,-8V0M280,-8V0M292,-8V0M304,-15V0M316,-8V0M328,-8V0M340,-8V0M353,-8V0M365,-15V0M377,-8V0M389,-8V0M401,-8V0M413,-8V0M426,-15V0M438,-8V0M450,-8V0M462,-8V0M474,-8V0M486,-15V0M499,-8V0M511,-8V0M523,-8V0M535,-8V0M547,-15V0M559,-8V0M572,-8V0M584,-8V0M596,-8V0M608,-15V0M0,-411V-426M12,-418V-426M24,-418V-426M36,-418V-426M49,-418V-426M61,-411V-426M73,-418V-426M85,-418V-426M97,-418V-426M109,-418V-426M122,-411V-426M134,-418V-426M146,-418V-426M158,-418V-426M170,-418V-426M182,-411V-426M195,-418V-426M207,-418V-426M219,-418V-426M231,-418V-426M243,-411V-426M255,-418V-426M268,-418V-426M280,-418V-426M292,-418V-426M304,-411V-426M316,-418V-426M328,-418V-426M340,-418V-426M353,-418V-426M365,-411V-426M377,-418V-426M389,-418V-426M401,-418V-426M413,-418V-426M426,-411V-426M438,-418V-426M450,-418V-426M462,-418V-426M474,-418V-426M486,-411V-426M499,-418V-426M511,-418V-426M523,-418V-426M535,-418V-426M547,-411V-426M559,-418V-426M572,-418V-426M584,-418V-426M596,-418V-426M608,-411V-426" style="stroke: rgb(0, 0, 0); stroke-width: 1;"></path><g font-family="Arial" font-size="18" xml:space="preserve" fill="#000000" text-anchor="middle"><text dy=".8em" transform="translate(0,3)">-5</text><text dy=".8em" transform="translate(61,3)">-4</text><text dy=".8em" transform="translate(122,3)">-3</text><text dy=".8em" transform="translate(182,3)">-2</text><text dy=".8em" transform="translate(243,3)">-1</text><text dy=".8em" transform="translate(304,3)">0</text><text dy=".8em" transform="translate(365,3)">1</text><text dy=".8em" transform="translate(426,3)">2</text><text dy=".8em" transform="translate(486,3)">3</text><text dy=".8em" transform="translate(547,3)">4</text><text dy=".8em" transform="translate(608,3)">5</text></g><rect x="0" y="0" width="608" height="21" style="opacity: 0; cursor: crosshair;"></rect><g font-family="Arial" font-size="18" xml:space="preserve" transform="translate(608,29)" style="cursor: move;"><g transform="translate(-10,6)"><text fill="#000000" font-size="18">η</text></g></g></g><g><path d="M0,0v426M608,0v426M24,426H0M12,415H0M12,405H0M12,394H0M24,383H0M12,373H0M12,362H0M12,351H0M24,341H0M12,330H0M12,320H0M12,309H0M24,298H0M12,288H0M12,277H0M12,266H0M24,256H0M12,245H0M12,234H0M12,224H0M24,213H0M12,202H0M12,192H0M12,181H0M24,170H0M12,160H0M12,149H0M12,138H0M24,128H0M12,117H0M12,107H0M12,96H0M24,85H0M12,75H0M12,64H0M12,53H0M24,43H0M12,32H0M12,21H0M12,11H0M24,0H0M584,426H608M596,415H608M596,405H608M596,394H608M584,383H608M596,373H608M596,362H608M596,351H608M584,341H608M596,330H608M596,320H608M596,309H608M584,298H608M596,288H608M596,277H608M596,266H608M584,256H608M596,245H608M596,234H608M596,224H608M584,213H608M596,202H608M596,192H608M596,181H608M584,170H608M596,160H608M596,149H608M596,138H608M584,128H608M596,117H608M596,107H608M596,96H608M584,85H608M596,75H608M596,64H608M596,53H608M584,43H608M596,32H608M596,21H608M596,11H608M584,0H608" style="stroke: rgb(0, 0, 0); stroke-width: 1;"></path><g font-family="Arial" font-size="18" xml:space="preserve" fill="#000000" text-anchor="end"><text dominant-baseline="middle" transform="translate(-4,426)">0</text><text dominant-baseline="middle" transform="translate(-4,383)">2</text><text dominant-baseline="middle" transform="translate(-4,341)">4</text><text dominant-baseline="middle" transform="translate(-4,298)">6</text><text dominant-baseline="middle" transform="translate(-4,256)">8</text><text dominant-baseline="middle" transform="translate(-4,213)">10</text><text dominant-baseline="middle" transform="translate(-4,170)">12</text><text dominant-baseline="middle" transform="translate(-4,128)">14</text><text dominant-baseline="middle" transform="translate(-4,85)">16</text><text dominant-baseline="middle" transform="translate(-4,43)">18</text><text dominant-baseline="middle" transform="translate(-4)">20</text></g><rect x="-23" y="0" width="23" height="426" style="opacity: 0; cursor: crosshair;"></rect><g font-family="Arial" font-size="18" xml:space="preserve" transform="translate(-40)" style="cursor: move;"><g transform="rotate(270) translate(-60,8)"><text fill="#000000" font-size="18">dN</text><text fill="#000000" font-size="11" transform="translate(24,-10)">ch</text><text fill="#000000" font-size="18" x="35">/dη</text></g></g></g></g><path d="M2,2h15v-5h-20v20h5Z" style="opacity: 0; cursor: nw-resize;"></path><path d="M606,2h-15v-5h20v20h-5 Z" style="opacity: 0; cursor: ne-resize;"></path><path d="M2,424h15v5h-20v-20h5Z" style="opacity: 0; cursor: sw-resize;"></path><path d="M606,424h-15v5h20v-20h-5Z" style="opacity: 0; cursor: se-resize;"></path><path d="M-3,18h5v390h-5Z" style="opacity: 0; cursor: w-resize;"></path><path d="M611,18h-5v390h5Z" style="opacity: 0; cursor: e-resize;"></path><path d="M18,-3v5h572v-5Z" style="opacity: 0; cursor: n-resize;"></path><path d="M18,429v-5h572v5Z" style="opacity: 0; cursor: s-resize;"></path></g><g transform="translate(120,51)" font-family="Arial" font-size="11" xml:space="preserve" style="cursor: move;"><path d="M0,0H288V103H0Z" style="fill: none; pointer-events: visiblefill;"></path><text fill="#000000" text-anchor="start" dominant-baseline="middle" transform="translate(9,9)">PYTHIA8, pAu200GeV with option3</text><path d="M32,17v8h8v-8z" style="stroke: rgb(255, 51, 0); fill: none;"></path><g transform="translate(72,25)"><text fill="#000000" font-size="11">Events with p</text><text fill="#000000" font-size="7" transform="translate(65,2)">T</text><text fill="#000000" font-size="11" x="73">&lt; 2 GeV π</text><text fill="#000000" font-size="7" transform="translate(124,-6)">0</text><text fill="#000000" font-size="11" x="131">at |η|&lt;1</text></g><path d="M37,34h3v-3h-3v-3h-3v3h-3v3h3v3h3z" style="stroke: rgb(255, 204, 0); fill: rgb(255, 204, 0);"></path><g transform="translate(72,37)"><text fill="#000000" font-size="11">Events with 2 GeV ≤ p</text><text fill="#000000" font-size="7" transform="translate(108,2)">T</text><text fill="#000000" font-size="11" x="116">&lt; 4 GeV π</text><text fill="#000000" font-size="7" transform="translate(167,-6)">0</text><text fill="#000000" font-size="11" x="174">at |η|&lt;1</text></g><path d="M37,46h3v-3h-3v-3h-3v3h-3v3h3v3h3z" style="stroke: rgb(255, 0, 0); fill: rgb(255, 0, 0);"></path><g transform="translate(72,49)"><text fill="#000000" font-size="11">Events with 4 GeV ≤ p</text><text fill="#000000" font-size="7" transform="translate(108,2)">T</text><text fill="#000000" font-size="11" x="116">&lt; 7 GeV π</text><text fill="#000000" font-size="7" transform="translate(167,-6)">0</text><text fill="#000000" font-size="11" x="174">at |η|&lt;1</text></g><path d="M37,59h3v-3h-3v-3h-3v3h-3v3h3v3h3z" style="stroke: rgb(255, 0, 51); fill: none;"></path><g transform="translate(72,62)"><text fill="#000000" font-size="11">Events with 7 GeV ≤ p</text><text fill="#000000" font-size="7" transform="translate(108,2)">T</text><text fill="#000000" font-size="11" x="116">&lt; 10 GeV π</text><text fill="#000000" font-size="7" transform="translate(173,-6)">0</text><text fill="#000000" font-size="11" x="180">at |η|&lt;1</text></g><path d="M34,66l2,2l2,-2l2,2l-2,2l2,2l-2,2l-2,-2l-2,2l-2,-2l2,-2l-2,-2z" style="stroke: rgb(255, 0, 255); fill: rgb(255, 0, 255);"></path><g transform="translate(72,74)"><text fill="#000000" font-size="11">Events with 10 GeV ≤ p</text><text fill="#000000" font-size="7" transform="translate(114,2)">T</text><text fill="#000000" font-size="11" x="122">&lt; 15 GeV π</text><text fill="#000000" font-size="7" transform="translate(179,-6)">0</text><text fill="#000000" font-size="11" x="186">at |η|&lt;1</text></g><path d="M32,78v8h8v-8z" style="stroke: rgb(204, 0, 255); fill: none;"></path><g transform="translate(72,86)"><text fill="#000000" font-size="11">Events with 15 GeV ≤ p</text><text fill="#000000" font-size="7" transform="translate(114,2)">T</text><text fill="#000000" font-size="11" x="122">&lt; 20 GeV π</text><text fill="#000000" font-size="7" transform="translate(179,-6)">0</text><text fill="#000000" font-size="11" x="186">at |η|&lt;1</text></g><path d="M37,95h3v-3h-3v-3h-3v3h-3v3h3v3h3z" style="stroke: rgb(0, 0, 0); fill: rgb(0, 0, 0);"></path><text fill="#000000" text-anchor="start" dominant-baseline="middle" transform="translate(72,94)">MB events</text><path d="M2,2h15v-5h-20v20h5Z" style="opacity: 0; cursor: nw-resize;"></path><path d="M286,2h-15v-5h20v20h-5 Z" style="opacity: 0; cursor: ne-resize;"></path><path d="M2,101h15v5h-20v-20h5Z" style="opacity: 0; cursor: sw-resize;"></path><path d="M286,101h-15v5h20v-20h-5Z" style="opacity: 0; cursor: se-resize;"></path><path d="M-3,18h5v67h-5Z" style="opacity: 0; cursor: w-resize;"></path><path d="M291,18h-5v67h5Z" style="opacity: 0; cursor: e-resize;"></path><path d="M18,-3v5h252v-5Z" style="opacity: 0; cursor: n-resize;"></path><path d="M18,106v-5h252v5Z" style="opacity: 0; cursor: s-resize;"></path></g></g></svg>