<svg width="800" height="513" xmlns="http://www.w3.org/2000/svg"><path d="M0,0H800V513H0Z" style="pointer-events: visiblefill; fill: rgb(255, 255, 255);"></path><g><g transform="translate(96,26)"><title></title><path d="M0,0H608V426H0Z" style="fill: rgb(255, 255, 255); stroke: rgb(0, 0, 0); stroke-width: 1; pointer-events: visiblefill; cursor: default;"></path><svg x="0" y="0" overflow="hidden" width="608" height="426" viewBox="0 0 608 426" style="pointer-events: visiblefill; cursor: default;"><g><path d="M0,343h30M15,343v0M30,343h32M46,343v0M61,343h30M76,343v0M91,343h32M107,343v0M122,343h30M137,343v0M152,344h30M167,344v0M182,344h32M198,344v0M213,344h30M228,344v0M243,345h32M259,345v0M274,345h30M289,345v0M304,345h30M319,345v0M334,345h32M350,345v0M365,344h30M380,344v0M395,344h32M411,344v0M426,343h30M441,343v0M456,343h30M471,343v0M486,342h32M502,342v0M517,341h30M532,341v0M547,339h32M563,339v0M578,338h30M593,338v0" style="stroke: rgb(153, 255, 153); stroke-width: 1;"></path><path d="M0,343h30v0h-30zM30,343h32v0h-32zM61,343h30v0h-30zM91,343h32v0h-32zM122,343h30v0h-30zM152,344h30v0h-30zM182,344h32v0h-32zM213,344h30v0h-30zM243,345h32v0h-32zM274,345h30v0h-30zM304,345h30v0h-30zM334,345h32v0h-32zM365,344h30v0h-30zM395,344h32v0h-32zM426,343h30v0h-30zM456,343h30v0h-30zM486,342h32v0h-32zM517,341h30v0h-30zM547,339h32v0h-32zM578,338h30v0h-30z" style="fill: none; pointer-events: visiblefill;"></path><path d="M15,339l-4,8h8zM46,339l-4,8h8zM76,339l-4,8h8zM107,339l-4,8h8zM137,339l-4,8h8zM167,340l-4,8h8zM198,340l-4,8h8zM228,340l-4,8h8zM259,341l-4,8h8zM289,341l-4,8h8zM319,341l-4,8h8zM350,341l-4,8h8zM380,340l-4,8h8zM411,340l-4,8h8zM441,339l-4,8h8zM471,339l-4,8h8zM502,338l-4,8h8zM532,337l-4,8h8zM563,335l-4,8h8zM593,334l-4,8h8z" style="stroke: rgb(153, 255, 153); fill: rgb(153, 255, 153);"></path></g><g><path d="M0,303h30M15,303v0M30,302h32M46,302v0M61,299h30M76,299v0M91,294h32M107,294v0M122,288h30M137,288v0M152,282h30M167,282v0M182,276h32M198,276v0M213,269h30M228,269v0M243,253h32M259,253v1M274,248h30M289,248v0M304,248h30M319,248v0M334,252h32M350,252v0M365,269h30M380,269v0M395,277h32M411,277v0M426,287h30M441,287v0M456,301h30M471,301v0M486,321h32M502,321v0M517,345h30M532,345v0M547,370h32M563,370v0M578,393h30M593,393v0" style="stroke: rgb(0, 204, 0); stroke-width: 1;"></path><path d="M0,303h30v0h-30zM30,302h32v0h-32zM61,299h30v0h-30zM91,294h32v0h-32zM122,288h30v0h-30zM152,282h30v0h-30zM182,276h32v0h-32zM213,269h30v0h-30zM243,253h32v1h-32zM274,248h30v0h-30zM304,248h30v0h-30zM334,252h32v0h-32zM365,269h30v0h-30zM395,277h32v0h-32zM426,287h30v0h-30zM456,301h30v0h-30zM486,321h32v0h-32zM517,345h30v0h-30zM547,370h32v0h-32zM578,393h30v0h-30z" style="fill: none; pointer-events: visiblefill;"></path><path d="M16,304h3v-3h-3v-3h-3v3h-3v3h3v3h3zM47,303h3v-3h-3v-3h-3v3h-3v3h3v3h3zM77,300h3v-3h-3v-3h-3v3h-3v3h3v3h3zM108,295h3v-3h-3v-3h-3v3h-3v3h3v3h3zM138,289h3v-3h-3v-3h-3v3h-3v3h3v3h3zM168,283h3v-3h-3v-3h-3v3h-3v3h3v3h3zM199,277h3v-3h-3v-3h-3v3h-3v3h3v3h3zM229,270h3v-3h-3v-3h-3v3h-3v3h3v3h3zM260,254h3v-3h-3v-3h-3v3h-3v3h3v3h3zM290,249h3v-3h-3v-3h-3v3h-3v3h3v3h3zM320,249h3v-3h-3v-3h-3v3h-3v3h3v3h3zM351,253h3v-3h-3v-3h-3v3h-3v3h3v3h3zM381,270h3v-3h-3v-3h-3v3h-3v3h3v3h3zM412,278h3v-3h-3v-3h-3v3h-3v3h3v3h3zM442,288h3v-3h-3v-3h-3v3h-3v3h3v3h3zM472,302h3v-3h-3v-3h-3v3h-3v3h3v3h3zM503,322h3v-3h-3v-3h-3v3h-3v3h3v3h3zM533,346h3v-3h-3v-3h-3v3h-3v3h3v3h3zM564,371h3v-3h-3v-3h-3v3h-3v3h3v3h3zM594,394h3v-3h-3v-3h-3v3h-3v3h3v3h3z" style="stroke: rgb(0, 204, 0); fill: rgb(0, 204, 0);"></path></g><g><path d="M0,310h30M15,310v0M30,308h32M46,308v0M61,306h30M76,306v0M91,302h32M107,302v0M122,294h30M137,294v0M152,285h30M167,285v0M182,276h32M198,276v0M213,264h30M228,264v0M243,242h32M259,242v0M274,232h30M289,232v0M304,231h30M319,231v0M334,238h32M350,238v0M365,261h30M380,261v0M395,275h32M411,274v1M426,289h30M441,289v0M456,308h30M471,308v0M486,330h32M502,330v0M517,356h30M532,356v0M547,382h32M563,382v0M578,404h30M593,403v1" style="stroke: rgb(51, 255, 153); stroke-width: 1;"></path><path d="M0,310h30v0h-30zM30,308h32v0h-32zM61,306h30v0h-30zM91,302h32v0h-32zM122,294h30v0h-30zM152,285h30v0h-30zM182,276h32v0h-32zM213,264h30v0h-30zM243,242h32v0h-32zM274,232h30v0h-30zM304,231h30v0h-30zM334,238h32v0h-32zM365,261h30v0h-30zM395,274h32v1h-32zM426,289h30v0h-30zM456,308h30v0h-30zM486,330h32v0h-32zM517,356h30v0h-30zM547,382h32v0h-32zM578,403h30v1h-30z" style="fill: none; pointer-events: visiblefill;"></path><path d="M16,311h3v-3h-3v-3h-3v3h-3v3h3v3h3zM47,309h3v-3h-3v-3h-3v3h-3v3h3v3h3zM77,307h3v-3h-3v-3h-3v3h-3v3h3v3h3zM108,303h3v-3h-3v-3h-3v3h-3v3h3v3h3zM138,295h3v-3h-3v-3h-3v3h-3v3h3v3h3zM168,286h3v-3h-3v-3h-3v3h-3v3h3v3h3zM199,277h3v-3h-3v-3h-3v3h-3v3h3v3h3zM229,265h3v-3h-3v-3h-3v3h-3v3h3v3h3zM260,243h3v-3h-3v-3h-3v3h-3v3h3v3h3zM290,233h3v-3h-3v-3h-3v3h-3v3h3v3h3zM320,232h3v-3h-3v-3h-3v3h-3v3h3v3h3zM351,239h3v-3h-3v-3h-3v3h-3v3h3v3h3zM381,262h3v-3h-3v-3h-3v3h-3v3h3v3h3zM412,276h3v-3h-3v-3h-3v3h-3v3h3v3h3zM442,290h3v-3h-3v-3h-3v3h-3v3h3v3h3zM472,309h3v-3h-3v-3h-3v3h-3v3h3v3h3zM503,331h3v-3h-3v-3h-3v3h-3v3h3v3h3zM533,357h3v-3h-3v-3h-3v3h-3v3h3v3h3zM564,383h3v-3h-3v-3h-3v3h-3v3h3v3h3zM594,405h3v-3h-3v-3h-3v3h-3v3h3v3h3z" style="stroke: rgb(51, 255, 153); fill: rgb(51, 255, 153);"></path></g><g><path d="M0,319h30M15,319v0M30,318h32M46,318v0M61,317h30M76,317v0M91,314h32M107,314v1M122,308h30M137,308v1M152,299h30M167,299v0M182,284h32M198,283v1M213,264h30M228,263v1M243,229h32M259,229v0M274,212h30M289,211v1M304,209h30M319,209v1M334,222h32M350,222v0M365,257h30M380,257v1M395,281h32M411,281v0M426,304h30M441,303v1M456,325h30M471,325v1M486,348h32M502,347v1M517,371h30M532,370v1M547,393h32M563,392v1M578,412h30M593,411v1" style="stroke: rgb(0, 204, 204); stroke-width: 1;"></path><path d="M0,319h30v0h-30zM30,318h32v0h-32zM61,317h30v0h-30zM91,314h32v1h-32zM122,308h30v1h-30zM152,299h30v0h-30zM182,283h32v1h-32zM213,263h30v1h-30zM243,229h32v0h-32zM274,211h30v1h-30zM304,209h30v1h-30zM334,222h32v0h-32zM365,257h30v1h-30zM395,281h32v0h-32zM426,303h30v1h-30zM456,325h30v1h-30zM486,347h32v1h-32zM517,370h30v1h-30zM547,392h32v1h-32zM578,411h30v1h-30z" style="fill: none; pointer-events: visiblefill;"></path><path d="M16,320h3v-3h-3v-3h-3v3h-3v3h3v3h3zM47,319h3v-3h-3v-3h-3v3h-3v3h3v3h3zM77,318h3v-3h-3v-3h-3v3h-3v3h3v3h3zM108,315h3v-3h-3v-3h-3v3h-3v3h3v3h3zM138,309h3v-3h-3v-3h-3v3h-3v3h3v3h3zM168,300h3v-3h-3v-3h-3v3h-3v3h3v3h3zM199,285h3v-3h-3v-3h-3v3h-3v3h3v3h3zM229,265h3v-3h-3v-3h-3v3h-3v3h3v3h3zM260,230h3v-3h-3v-3h-3v3h-3v3h3v3h3zM290,213h3v-3h-3v-3h-3v3h-3v3h3v3h3zM320,210h3v-3h-3v-3h-3v3h-3v3h3v3h3zM351,223h3v-3h-3v-3h-3v3h-3v3h3v3h3zM381,258h3v-3h-3v-3h-3v3h-3v3h3v3h3zM412,282h3v-3h-3v-3h-3v3h-3v3h3v3h3zM442,305h3v-3h-3v-3h-3v3h-3v3h3v3h3zM472,326h3v-3h-3v-3h-3v3h-3v3h3v3h3zM503,349h3v-3h-3v-3h-3v3h-3v3h3v3h3zM533,372h3v-3h-3v-3h-3v3h-3v3h3v3h3zM564,394h3v-3h-3v-3h-3v3h-3v3h3v3h3zM594,413h3v-3h-3v-3h-3v3h-3v3h3v3h3z" style="stroke: rgb(0, 204, 204); fill: none;"></path></g><g><path d="M0,325h30M15,324v1M30,323h32M46,323v1M61,323h30M76,322v2M91,323h32M107,322v1M122,318h30M137,318v1M152,310h30M167,309v1M182,293h32M198,293v1M213,267h30M228,267v1M243,222h32M259,221v2M274,196h30M289,195v1M304,188h30M319,187v2M334,212h32M350,211v2M365,259h30M380,258v2M395,292h32M411,291v2M426,318h30M441,317v2M456,339h30M471,338v2M486,361h32M502,360v2M517,381h30M532,380v2M547,403h32M563,401v3M578,424h30M593,422v3" style="stroke: rgb(0, 51, 255); stroke-width: 1;"></path><path d="M0,324h30v1h-30zM30,323h32v1h-32zM61,322h30v2h-30zM91,322h32v1h-32zM122,318h30v1h-30zM152,309h30v1h-30zM182,293h32v1h-32zM213,267h30v1h-30zM243,221h32v2h-32zM274,195h30v1h-30zM304,187h30v2h-30zM334,211h32v2h-32zM365,258h30v2h-30zM395,291h32v2h-32zM426,317h30v2h-30zM456,338h30v2h-30zM486,360h32v2h-32zM517,380h30v2h-30zM547,401h32v3h-32zM578,422h30v3h-30z" style="fill: none; pointer-events: visiblefill;"></path><path d="M13,321l2,2l2,-2l2,2l-2,2l2,2l-2,2l-2,-2l-2,2l-2,-2l2,-2l-2,-2zM44,319l2,2l2,-2l2,2l-2,2l2,2l-2,2l-2,-2l-2,2l-2,-2l2,-2l-2,-2zM74,319l2,2l2,-2l2,2l-2,2l2,2l-2,2l-2,-2l-2,2l-2,-2l2,-2l-2,-2zM105,319l2,2l2,-2l2,2l-2,2l2,2l-2,2l-2,-2l-2,2l-2,-2l2,-2l-2,-2zM135,314l2,2l2,-2l2,2l-2,2l2,2l-2,2l-2,-2l-2,2l-2,-2l2,-2l-2,-2zM165,306l2,2l2,-2l2,2l-2,2l2,2l-2,2l-2,-2l-2,2l-2,-2l2,-2l-2,-2zM196,289l2,2l2,-2l2,2l-2,2l2,2l-2,2l-2,-2l-2,2l-2,-2l2,-2l-2,-2zM226,263l2,2l2,-2l2,2l-2,2l2,2l-2,2l-2,-2l-2,2l-2,-2l2,-2l-2,-2zM257,218l2,2l2,-2l2,2l-2,2l2,2l-2,2l-2,-2l-2,2l-2,-2l2,-2l-2,-2zM287,192l2,2l2,-2l2,2l-2,2l2,2l-2,2l-2,-2l-2,2l-2,-2l2,-2l-2,-2zM317,184l2,2l2,-2l2,2l-2,2l2,2l-2,2l-2,-2l-2,2l-2,-2l2,-2l-2,-2zM348,208l2,2l2,-2l2,2l-2,2l2,2l-2,2l-2,-2l-2,2l-2,-2l2,-2l-2,-2zM378,255l2,2l2,-2l2,2l-2,2l2,2l-2,2l-2,-2l-2,2l-2,-2l2,-2l-2,-2zM409,288l2,2l2,-2l2,2l-2,2l2,2l-2,2l-2,-2l-2,2l-2,-2l2,-2l-2,-2zM439,314l2,2l2,-2l2,2l-2,2l2,2l-2,2l-2,-2l-2,2l-2,-2l2,-2l-2,-2zM469,335l2,2l2,-2l2,2l-2,2l2,2l-2,2l-2,-2l-2,2l-2,-2l2,-2l-2,-2zM500,357l2,2l2,-2l2,2l-2,2l2,2l-2,2l-2,-2l-2,2l-2,-2l2,-2l-2,-2zM530,377l2,2l2,-2l2,2l-2,2l2,2l-2,2l-2,-2l-2,2l-2,-2l2,-2l-2,-2zM561,399l2,2l2,-2l2,2l-2,2l2,2l-2,2l-2,-2l-2,2l-2,-2l2,-2l-2,-2zM591,420l2,2l2,-2l2,2l-2,2l2,2l-2,2l-2,-2l-2,2l-2,-2l2,-2l-2,-2z" style="stroke: rgb(0, 51, 255); fill: rgb(0, 51, 255);"></path></g><g><path d="M0,328h30M15,325v6M30,327h32M46,324v6M61,326h30M76,323v6M91,325h32M107,322v5M122,329h30M137,326v5M152,319h30M167,316v6M182,301h32M198,298v5M213,271h30M228,268v6M243,210h32M259,206v7M274,171h30M289,168v7M304,172h30M319,168v8M334,199h32M350,195v7M365,272h30M380,269v7M395,305h32M411,302v7M426,332h30M441,329v6M456,354h30M471,351v7M486,374h32M502,370v8M517,398h30M532,394v8M547,414h32M563,409v9M578,437h30M593,432v10" style="stroke: rgb(0, 0, 204); stroke-width: 1;"></path><path d="M0,325h30v6h-30zM30,324h32v6h-32zM61,323h30v6h-30zM91,322h32v5h-32zM122,326h30v5h-30zM152,316h30v6h-30zM182,298h32v5h-32zM213,268h30v6h-30zM243,206h32v7h-32zM274,168h30v7h-30zM304,168h30v8h-30zM334,195h32v7h-32zM365,269h30v7h-30zM395,302h32v7h-32zM426,329h30v6h-30zM456,351h30v7h-30zM486,370h32v8h-32zM517,394h30v8h-30zM547,409h32v9h-32zM578,432h30v10h-30z" style="fill: none; pointer-events: visiblefill;"></path><path d="M11,324v8h8v-8zM42,323v8h8v-8zM72,322v8h8v-8zM103,321v8h8v-8zM133,325v8h8v-8zM163,315v8h8v-8zM194,297v8h8v-8zM224,267v8h8v-8zM255,206v8h8v-8zM285,167v8h8v-8zM315,168v8h8v-8zM346,195v8h8v-8zM376,268v8h8v-8zM407,301v8h8v-8zM437,328v8h8v-8zM467,350v8h8v-8zM498,370v8h8v-8zM528,394v8h8v-8zM559,410v8h8v-8zM589,433v8h8v-8z" style="stroke: rgb(0, 0, 204); fill: none;"></path></g></svg><g><g transform="translate(0,426)"><path d="M0,0h608M0,-426h608M0,-15V0M12,-8V0M24,-8V0M36,-8V0M49,-8V0M61,-15V0M73,-8V0M85,-8V0M97,-8V0M109,-8V0M122,-15V0M134,-8V0M146,-8V0M158,-8V0M170,-8V0M182,-15V0M195,-8V0M207,-8V0M219,-8V0M231,-8V0M243,-15V0M255,-8V0M268,-8V0M280,-8V0M292,-8V0M304,-15V0M316,-8V0M328,-8V0M340,-8V0M353,-8V0M365,-15V0M377,-8V0M389,-8V0M401,-8V0M413,-8V0M426,-15V0M438,-8V0M450,-8V0M462,-8V0M474,-8V0M486,-15V0M499,-8V0M511,-8V0M523,-8V0M535,-8V0M547,-15V0M559,-8V0M572,-8V0M584,-8V0M596,-8V0M608,-15V0M0,-411V-426M12,-418V-426M24,-418V-426M36,-418V-426M49,-418V-426M61,-411V-426M73,-418V-426M85,-418V-426M97,-418V-426M109,-418V-426M122,-411V-426M134,-418V-426M146,-418V-426M158,-418V-426M170,-418V-426M182,-411V-426M195,-418V-426M207,-418V-426M219,-418V-426M231,-418V-426M243,-411V-426M255,-418V-426M268,-418V-426M280,-418V-426M292,-418V-426M304,-411V-426M316,-418V-426M328,-418V-426M340,-418V-426M353,-418V-426M365,-411V-426M377,-418V-426M389,-418V-426M401,-418V-426M413,-418V-426M426,-411V-426M438,-418V-426M450,-418V-426M462,-418V-426M474,-418V-426M486,-411V-426M499,-418V-426M511,-418V-426M523,-418V-426M535,-418V-426M547,-411V-426M559,-418V-426M572,-418V-426M584,-418V-426M596,-418V-426M608,-411V-426" style="stroke: rgb(0, 0, 0); stroke-width: 1;"></path><g font-family="Arial" font-size="18" xml:space="preserve" fill="#000000" text-anchor="middle"><text dy=".8em" transform="translate(0,3)">-5</text><text dy=".8em" transform="translate(61,3)">-4</text><text dy=".8em" transform="translate(122,3)">-3</text><text dy=".8em" transform="translate(182,3)">-2</text><text dy=".8em" transform="translate(243,3)">-1</text><text dy=".8em" transform="translate(304,3)">0</text><text dy=".8em" transform="translate(365,3)">1</text><text dy=".8em" transform="translate(426,3)">2</text><text dy=".8em" transform="translate(486,3)">3</text><text dy=".8em" transform="translate(547,3)">4</text><text dy=".8em" transform="translate(608,3)">5</text></g><rect x="0" y="0" width="608" height="21" style="opacity: 0; cursor: crosshair;"></rect><g font-family="Arial" font-size="18" xml:space="preserve" transform="translate(608,29)" style="cursor: move;"><g transform="translate(-10,6)"><text fill="#000000" font-size="18">η</text></g></g></g><g><path d="M0,0v426M608,0v426M24,426H0M12,409H0M12,392H0M12,375H0M12,358H0M24,341H0M12,324H0M12,307H0M12,290H0M12,273H0M24,256H0M12,239H0M12,222H0M12,204H0M12,187H0M24,170H0M12,153H0M12,136H0M12,119H0M12,102H0M24,85H0M12,68H0M12,51H0M12,34H0M12,17H0M24,0H0M584,426H608M596,409H608M596,392H608M596,375H608M596,358H608M584,341H608M596,324H608M596,307H608M596,290H608M596,273H608M584,256H608M596,239H608M596,222H608M596,204H608M596,187H608M584,170H608M596,153H608M596,136H608M596,119H608M596,102H608M584,85H608M596,68H608M596,51H608M596,34H608M596,17H608M584,0H608" style="stroke: rgb(0, 0, 0); stroke-width: 1;"></path><g font-family="Arial" font-size="18" xml:space="preserve" fill="#000000" text-anchor="end"><text dominant-baseline="middle" transform="translate(-4,426)">0.5</text><text dominant-baseline="middle" transform="translate(-4,341)">1</text><text dominant-baseline="middle" transform="translate(-4,256)">1.5</text><text dominant-baseline="middle" transform="translate(-4,170)">2</text><text dominant-baseline="middle" transform="translate(-4,85)">2.5</text><text dominant-baseline="middle" transform="translate(-4)">3</text></g><rect x="-28" y="0" width="28" height="426" style="opacity: 0; cursor: crosshair;"></rect><g font-family="Arial" font-size="18" xml:space="preserve" transform="translate(-45)" style="cursor: move;"><g transform="rotate(270) translate(-219,7)"><text fill="#000000" font-size="18">(dN</text><text fill="#000000" font-size="11" transform="translate(30,-10)">ch</text><text fill="#000000" font-size="18" x="41">/dη)</text><text fill="#000000" font-size="11" transform="translate(73,4)">pTClass</text><text fill="#000000" font-size="18" x="120">/ (dN</text><text fill="#000000" font-size="11" transform="translate(160,-10)">ch</text><text fill="#000000" font-size="18" x="171">/dη)</text><text fill="#000000" font-size="11" transform="translate(203,4)">MB</text></g></g></g></g><path d="M2,2h15v-5h-20v20h5Z" style="opacity: 0; cursor: nw-resize;"></path><path d="M606,2h-15v-5h20v20h-5 Z" style="opacity: 0; cursor: ne-resize;"></path><path d="M2,424h15v5h-20v-20h5Z" style="opacity: 0; cursor: sw-resize;"></path><path d="M606,424h-15v5h20v-20h-5Z" style="opacity: 0; cursor: se-resize;"></path><path d="M-3,18h5v390h-5Z" style="opacity: 0; cursor: w-resize;"></path><path d="M611,18h-5v390h5Z" style="opacity: 0; cursor: e-resize;"></path><path d="M18,-3v5h572v-5Z" style="opacity: 0; cursor: n-resize;"></path><path d="M18,429v-5h572v5Z" style="opacity: 0; cursor: s-resize;"></path></g><g style="cursor: move;"><path d="M96,366H704" style="stroke: rgb(0, 0, 0); stroke-width: 1;"></path></g><g transform="translate(120,51)" font-family="Arial" font-size="12" xml:space="preserve" style="cursor: move;"><path d="M0,0H288V103H0Z" style="fill: none; pointer-events: visiblefill;"></path><text fill="#000000" text-anchor="start" dominant-baseline="middle" transform="translate(9,10)">PYTHIA8, pAu200GeV with option3</text><path d="M36,20l-4,8h8z" style="stroke: rgb(153, 255, 153); fill: rgb(153, 255, 153);"></path><g transform="translate(72,28)"><text fill="#000000" font-size="12">Events with p</text><text fill="#000000" font-size="7" transform="translate(71,3)">T</text><text fill="#000000" font-size="12" x="80">&lt; 2 GeV γ</text><text fill="#000000" font-size="7" transform="translate(133,-7)">dir</text><text fill="#000000" font-size="12" x="145">at |η|&lt;1</text></g><path d="M37,39h3v-3h-3v-3h-3v3h-3v3h3v3h3z" style="stroke: rgb(0, 204, 0); fill: rgb(0, 204, 0);"></path><g transform="translate(72,42)"><text fill="#000000" font-size="12">Events with 2 GeV ≤ p</text><text fill="#000000" font-size="7" transform="translate(118,3)">T</text><text fill="#000000" font-size="12" x="127">&lt; 4 GeV γ</text><text fill="#000000" font-size="7" transform="translate(180,-7)">dir</text><text fill="#000000" font-size="12" x="192">at |η|&lt;1</text></g><path d="M37,53h3v-3h-3v-3h-3v3h-3v3h3v3h3z" style="stroke: rgb(51, 255, 153); fill: rgb(51, 255, 153);"></path><g transform="translate(72,56)"><text fill="#000000" font-size="12">Events with 4 GeV ≤ p</text><text fill="#000000" font-size="7" transform="translate(118,3)">T</text><text fill="#000000" font-size="12" x="127">&lt; 7 GeV γ</text><text fill="#000000" font-size="7" transform="translate(180,-7)">dir</text><text fill="#000000" font-size="12" x="192">at |η|&lt;1</text></g><path d="M37,66h3v-3h-3v-3h-3v3h-3v3h3v3h3z" style="stroke: rgb(0, 204, 204); fill: none;"></path><g transform="translate(72,69)"><text fill="#000000" font-size="12">Events with 7 GeV ≤ p</text><text fill="#000000" font-size="7" transform="translate(118,3)">T</text><text fill="#000000" font-size="12" x="127">&lt; 10 GeV γ</text><text fill="#000000" font-size="7" transform="translate(187,-7)">dir</text><text fill="#000000" font-size="12" x="199">at |η|&lt;1</text></g><path d="M34,75l2,2l2,-2l2,2l-2,2l2,2l-2,2l-2,-2l-2,2l-2,-2l2,-2l-2,-2z" style="stroke: rgb(0, 51, 255); fill: rgb(0, 51, 255);"></path><g transform="translate(72,83)"><text fill="#000000" font-size="12">Events with 10 GeV ≤ p</text><text fill="#000000" font-size="7" transform="translate(125,3)">T</text><text fill="#000000" font-size="12" x="134">&lt; 15 GeV γ</text><text fill="#000000" font-size="7" transform="translate(194,-7)">dir</text><text fill="#000000" font-size="12" x="206">at |η|&lt;1</text></g><path d="M32,89v8h8v-8z" style="stroke: rgb(0, 0, 204); fill: none;"></path><g transform="translate(72,97)"><text fill="#000000" font-size="12">Events with 15 GeV ≤ p</text><text fill="#000000" font-size="7" transform="translate(125,3)">T</text><text fill="#000000" font-size="12" x="134">&lt; 20 GeV γ</text><text fill="#000000" font-size="7" transform="translate(194,-7)">dir</text><text fill="#000000" font-size="12" x="206">at |η|&lt;1</text></g><path d="M2,2h15v-5h-20v20h5Z" style="opacity: 0; cursor: nw-resize;"></path><path d="M286,2h-15v-5h20v20h-5 Z" style="opacity: 0; cursor: ne-resize;"></path><path d="M2,101h15v5h-20v-20h5Z" style="opacity: 0; cursor: sw-resize;"></path><path d="M286,101h-15v5h20v-20h-5Z" style="opacity: 0; cursor: se-resize;"></path><path d="M-3,18h5v67h-5Z" style="opacity: 0; cursor: w-resize;"></path><path d="M291,18h-5v67h5Z" style="opacity: 0; cursor: e-resize;"></path><path d="M18,-3v5h252v-5Z" style="opacity: 0; cursor: n-resize;"></path><path d="M18,106v-5h252v5Z" style="opacity: 0; cursor: s-resize;"></path></g></g></svg>