<svg width="700" height="413" xmlns="http://www.w3.org/2000/svg"><path d="M0,0H700V413H0Z" style="pointer-events: visiblefill; fill: rgb(255, 255, 255);"></path><g><g transform="translate(70,41)"><title></title><path d="M0,0H546V330H0Z" style="fill: rgb(255, 255, 255); stroke: rgb(0, 0, 0); stroke-width: 1; pointer-events: visiblefill; cursor: default;"></path><svg x="0" y="0" overflow="hidden" width="546" height="330" viewBox="0 0 546 330" style="pointer-events: visiblefill; cursor: default;"><g><path fill="#263da8" d="M0,74h5v2h-5zm0,55h5v1h-5zm0,13h5v2h-5zm0,10h5v1h-5zm0,21h5v2h-5zm0,12h5v1h-5zm0,10h5v3h-5zm0,8h5v2h-5zm0,5h5v5h-5zm0,8h5v96h-5zM0,327h5v3h-5zM5,92h6v4h-6zm0,10h6v2h-6zm0,32h6v1h-6zm0,5h6v1h-6zm0,14h6v2h-6zm0,5h6v2h-6zm0,4h6v1h-6zm0,5h6v1h-6zm0,3h6v3h-6zm0,12h6v1h-6zm0,3h6v3h-6zm0,5h6v1h-6zm0,5h6v1h-6zm0,6h6v4h-6zm0,5h6v99h-6zM5,328h6v2h-6zM11,12h5v1h-5zm0,95h5v2h-5zm0,15h5v2h-5zm0,7h5v1h-5zm0,11h5v2h-5zm0,5h5v2h-5zm0,4h5v1h-5zm0,6h5v2h-5zm0,13h5v2h-5zm0,4h5v1h-5zm0,3h5v2h-5zm0,3h5v5h-5zm0,8h5v5h-5zm0,7h5v111h-5zm0,135h5v2h-5zM16,104h6v3h-6zm0,7h6v1h-6zm0,16h6v2h-6zm0,8h6v2h-6zm0,14h6v3h-6zm0,6h6v5h-6zm0,7h6v3h-6zm0,8h6v5h-6zm0,10h6v15h-6zm0,18h6v2h-6zm0,3h6v101h-6zm0,127h6v2h-6zM22,31h5v2h-5zm0,78h5v2h-5zm0,25h5v1h-5zm0,3h5v3h-5zm0,12h5v4h-5zm0,6h5v5h-5zm0,10h5v5h-5zm0,7h5v1h-5zm0,3h5v11h-5zm0,16h5v5h-5zm0,9h5v102h-5zm0,128h5v2h-5zM27,30h6v1h-6zm0,81h6v3h-6zm0,13h6v1h-6zm0,5h6v1h-6zm0,10h6v3h-6zm0,6h6v7h-6zm0,18h6v2h-6zm0,4h6v1h-6zm0,3h6v15h-6zm0,16h6v114h-6zm0,142h6v2h-6zM33,45h5v1h-5zm0,29h5v2h-5zm0,50h5v1h-5zm0,16h5v5h-5zm0,7h5v2h-5zm0,5h5v11h-5zm0,16h5v4h-5zm0,7h5v7h-5zm0,10h5v13h-5zm0,15h5v100h-5zm0,128h5v2h-5zM38,15h6v2h-6zm0,104h6v1h-6zm0,6h6v2h-6zm0,7h6v2h-6zm0,3h6v4h-6zm0,5h6v2h-6zm0,4h6v5h-6zm0,8h6v3h-6zm0,5h6v3h-6zm0,6h6v2h-6zm0,4h6v1h-6zm0,3h6v13h-6zm0,15h6v3h-6zm0,6h6v109h-6zm0,137h6v2h-6zM44,69h5v2h-5zm0,27h5v1h-5zm0,34h5v4h-5zm0,15h5v2h-5zm0,7h5v1h-5zm0,3h5v2h-5zm0,12h5v1h-5zm0,6h5v2h-5zm0,4h5v16h-5zm0,18h5v1h-5zm0,3h5v102h-5zm0,130h5v2h-5zM49,41h6v2h-6zm0,70h6v1h-6zm0,34h6v2h-6zm0,4h6v1h-6zm0,3h6v1h-6zm0,3h6v2h-6zm0,7h6v5h-6zm0,8h6v3h-6zm0,5h6v5h-6zm0,7h6v120h-6zm0,146h6v2h-6zM55,45h5v1h-5zm0,6h5v2h-5zm0,30h5v2h-5zm0,30h5v1h-5zm0,21h5v3h-5zm0,8h5v5h-5zm0,7h5v3h-5zm0,5h5v1h-5zm0,3h5v7h-5zm0,12h5v1h-5zm0,5h5v5h-5zm0,10h5v1h-5zm0,6h5v2h-5zm0,3h5v2h-5zm0,5h5v4h-5zm0,5h5v103h-5zm0,127h5v2h-5zM60,71h6v2h-6zm0,21h6v2h-6zm0,20h6v2h-6zm0,12h6v1h-6zm0,10h6v1h-6zm0,18h6v1h-6zm0,6h6v2h-6zm0,12h6v3h-6zm0,5h6v2h-6zm0,5h6v3h-6zm0,5h6v8h-6zm0,10h6v1h-6zm0,3h6v106h-6zm0,130h6v2h-6zM66,102h5v4h-5zm0,22h5v1h-5zm0,10h5v1h-5zm0,31h5v2h-5zm0,3h5v2h-5zm0,5h5v4h-5zm0,7h5v5h-5zm0,8h5v5h-5zm0,8h5v9h-5zm0,12h5v97h-5zm0,120h5v2h-5zM71,58h5v1h-5zm0,36h5v2h-5zm0,59h5v2h-5zm0,9h5v1h-5zm0,13h5v3h-5zm0,5h5v3h-5zm0,8h5v2h-5zm0,7h5v1h-5zm0,3h5v2h-5zm0,3h5v2h-5zm0,4h5v14h-5zm0,16h5v86h-5zm0,107h5v2h-5zM76,89h6v2h-6zm0,41h6v2h-6zm0,35h6v2h-6zm0,10h6v5h-6zm0,8h6v2h-6zm0,3h6v4h-6zm0,10h6v4h-6zm0,5h6v2h-6zm0,4h6v5h-6zm0,6h6v2h-6zm0,4h6v1h-6zm0,3h6v10h-6zm0,11h6v80h-6zm0,99h6v2h-6zM82,132h5v3h-5zm0,18h5v2h-5zm0,5h5v2h-5zm0,8h5v2h-5zm0,9h5v1h-5zm0,3h5v2h-5zm0,8h5v3h-5zm0,8h5v2h-5zm0,5h5v2h-5zm0,4h5v1h-5zm0,3h5v5h-5zm0,8h5v2h-5zm0,4h5v18h-5zm0,19h5v76h-5zm0,94h5v2h-5zM87,84h6v2h-6zm0,20h6v2h-6zm0,16h6v2h-6zm0,9h6v1h-6zm0,18h6v2h-6zm0,13h6v2h-6zm0,28h6v2h-6zm0,22h6v3h-6zm0,8h6v1h-6zm0,3h6v91h-6zm0,107h6v2h-6zM93,168h5v2h-5zm0,12h5v2h-5zm0,6h5v2h-5zm0,7h5v2h-5zm0,3h5v2h-5zm0,7h5v2h-5zm0,7h5v3h-5zm0,5h5v1h-5zm0,4h5v2h-5zm0,4h5v3h-5zm0,5h5v86h-5zm0,99h5v3h-5zM98,155h6v2h-6zm0,3h6v2h-6zm0,32h6v1h-6zm0,10h6v1h-6zm0,3h6v3h-6zm0,8h6v2h-6zm0,7h6v1h-6zm0,3h6v2h-6zm0,3h6v5h-6zm0,7h6v2h-6zm0,3h6v5h-6zm0,7h6v3h-6zm0,5h6v71h-6zm0,81h6v3h-6zm6,-157h5v3h-5zm0,13h5v2h-5zm0,12h5v1h-5zm0,10h5v1h-5zm0,14h5v2h-5zm0,4h5v5h-5zm0,6h5v2h-5zm0,5h5v10h-5zm0,12h5v72h-5zm0,79h5v5h-5zm5,-185h6v2h-6zm0,70h6v1h-6zm0,26h6v2h-6zm0,3h6v4h-6zm0,7h6v76h-6zm0,77h6v7h-6zm6,-156h5v1h-5zm0,19h5v2h-5zm0,27h5v2h-5zm0,3h5v2h-5zm0,12h5v1h-5zm0,6h5v4h-5zm0,9h5v1h-5zm0,5h5v1h-5zm0,4h5v2h-5zm0,4h5v74h-5zm5,-28h6v1h-6zm0,13h6v3h-6zm0,13h6v7h-6zm0,8h6v68h-6zm6,-57h5v1h-5zm0,18h5v1h-5zm0,16h5v2h-5zm0,4h5v3h-5zm0,6h5v3h-5zm0,5h5v2h-5zm0,5h5v12h-5zm0,15h5v56h-5zm5,-33h6v2h-6zm0,18h6v2h-6zm0,3h6v2h-6zm0,4h6v8h-6zm0,10h6v54h-6zm6,-22h5v2h-5zm0,5h5v2h-5zm0,7h5v1h-5zm0,3h5v5h-5zm0,7h5v5h-5zm0,6h5v48h-5zm5,-20h5v2h-5zm0,14h5v5h-5zm0,6h5v48h-5zm5,-39h6v1h-6zm0,24h6v2h-6zm0,5h6v2h-6zm0,7h6v3h-6zm0,6h6v4h-6zm0,7h6v38h-6zm6,-23h5v2h-5zm0,12h5v6h-5zm0,8h5v1h-5zm0,5h5v34h-5zm5,-30h6v3h-6zm0,15h6v2h-6zm0,6h6v2h-6zm0,7h6v2h-6zm0,3h6v2h-6zm0,4h6v31h-6zm6,-17h5v2h-5zm0,5h5v2h-5zm0,7h5v1h-5zm0,3h5v2h-5zm0,5h5v28h-5zm5,-2h6v5h-6zm0,7h6v20h-6zm0,21h6v2h-6zm6,-59h5v2h-5zm0,18h5v2h-5zm0,5h5v2h-5zm0,7h5v1h-5zm0,3h5v5h-5zm0,7h5v3h-5zm0,5h5v14h-5zm5,-14h6v2h-6zm0,7h6v21h-6zm6,3h5v2h-5zm0,5h5v13h-5zm5,-21h6v1h-6zm0,18h6v2h-6zm0,6h6v4h-6zm0,7h6v2h-6zm6,-16h5v1h-5zm0,5h5v1h-5zm0,3h5v1h-5zm0,3h5v2h-5zm0,5h5v2h-5zm5,-26h5v1h-5zm0,16h5v2h-5zm0,3h5v4h-5zm0,5h5v2h-5zm5,-9h6v1h-6zm0,3h6v1h-6zm22,-30h6v2h-6z"></path><path fill="#1652cc" d="M0,312h5v3h-5zm5,-7h6v5h-6zm6,-1h5v5h-5zm5,-2h6v5h-6zm6,0h5v5h-5zm5,-2h6v5h-6zm6,0h5v5h-5zm5,0h6v7h-6zm6,0h5v7h-5zm5,2h6v5h-6zm6,2h5v5h-5zm5,0h6v5h-6zm6,1h5v5h-5zm5,2h5v5h-5zm5,2h6v5h-6zm0,18h6v1h-6zm6,-17h5v5h-5zm0,17h5v1h-5zm5,-15h6v5h-6zm0,15h6v1h-6zm6,-13h5v4h-5zm0,11h5v2h-5zm5,-8h6v3h-6zm0,6h6v4h-6zm6,-5h5v7h-5zm5,4h6v1h-6z"></path><path fill="#1063db" d="M0,315h5v3h-5zm0,10h5v2h-5zM5,310h6v4h-6zm0,17h6v1h-6zm6,-18h5v3h-5zm0,18h5v1h-5zm5,-20h6v3h-6zm6,0h5v3h-5zm5,-2h6v4h-6zm6,0h5v4h-5zm5,2h6v2h-6zm6,0h5v2h-5zm5,0h6v3h-6zm6,2h5v1h-5zm5,0h6v3h-6zm6,1h5v4h-5zm0,17h5v1h-5zm5,-15h5v3h-5zm0,15h5v1h-5zm5,-13h6v1h-6zm6,1h5v2h-5zm0,10h5v2h-5zm5,-8h6v1h-6zm0,8h6v2h-6zm6,-7h5v7h-5zm5,2h6v3h-6z"></path><path fill="#1171d8" d="M0,318h5v2h-5zm0,5h5v2h-5zm5,-9h6v1h-6zm6,-2h5v2h-5zm5,-2h6v2h-6zm0,17h6v1h-6zm6,-17h5v2h-5zm5,-1h6v3h-6zm6,0h5v1h-5zm5,0h6v3h-6zm6,0h5v3h-5zm5,1h6v2h-6zm0,17h6v1h-6zm6,-17h5v4h-5zm0,17h5v1h-5zm5,-15h6v2h-6zm0,15h6v1h-6zm6,-13h5v1h-5zm5,1h5v2h-5zm5,0h6v2h-6zm0,10h6v2h-6zm6,-8h5v1h-5zm5,1h6v4h-6zm0,5h6v2h-6z"></path><path fill="#1380d5" d="M0,320h5v3h-5zm5,-5h6v2h-6zm0,10h6v2h-6zm6,-11h5v1h-5zm5,-2h6v2h-6zm6,0h5v2h-5zm0,15h5v1h-5zm5,0h6v1h-6zm6,-17h5v2h-5zm0,17h5v1h-5zm5,0h6v1h-6zm6,-15h5v2h-5zm0,15h5v1h-5zm5,-15h6v2h-6zm11,2h6v1h-6zm6,1h5v2h-5zm5,10h5v2h-5zm5,-8h6v1h-6zm6,1h5v2h-5zm0,5h5v2h-5zm5,-1h6v1h-6z"></path><path fill="#0e8ed0" d="M5,317h6v1h-6zm11,-3h6v1h-6zm11,-2h6v2h-6zm6,0h5v2h-5zm5,0h6v2h-6zm11,2h6v1h-6zm6,0h5v1h-5zm5,1h6v2h-6zm6,10h5v2h-5zm5,-8h5v1h-5zm5,1h6v2h-6zm0,5h6v2h-6zm6,-3h5v3h-5z"></path><path fill="#089dcc" d="M11,315h5v2h-5zm0,10h5v2h-5zM22,314h5v1h-5zm5,0h6v1h-6zm6,0h5v1h-5zm5,0h6v1h-6zm6,0h5v1h-5zm11,1h5v2h-5zm5,10h6v2h-6zm6,-8h5v1h-5zm5,1h5v2h-5zm0,5h5v2h-5zm5,-3h6v3h-6z"></path><path fill="#0da7c2" d="M5,318h6v2h-6zm0,5h6v2h-6zm11,-8h6v2h-6zm0,10h6v2h-6zM49,315h6v2h-6zm6,10h5v2h-5zm5,-8h6v1h-6z"></path><path fill="#1dafb3" d="M11,317h5v1h-5zm11,-2h5v2h-5zm0,10h5v2h-5zm5,-10h6v2h-6zm0,10h6v2h-6zm6,-10h5v2h-5zm5,0h6v2h-6zm6,0h5v2h-5zm0,10h5v2h-5zm5,0h6v2h-6zm6,-8h5v1h-5zm11,1h5v2h-5zm0,5h5v2h-5zm5,-3h5v3h-5z"></path><path fill="#2db7a3" d="M5,320h6v2h-6zm11,-3h6v1h-6zm17,8h5v2h-5zm5,0h6v2h-6zm11,-8h6v1h-6zm11,1h6v2h-6zm0,5h6v2h-6z"></path><path fill="#52ba91" d="M5,322h6v1h-6zm6,-4h5v2h-5zm0,5h5v2h-5zm11,-6h5v1h-5zm22,0h5v1h-5zm22,3h5v3h-5z"></path><path fill="#73bd80" d="M27,317h6v1h-6zm6,0h5v1h-5zm5,0h6v1h-6zm17,1h5v2h-5zm0,5h5v2h-5z"></path><path fill="#94be71" d="M16,318h6v2h-6zm0,5h6v2h-6zm44,-3h6v2h-6z"></path><path fill="#b2bc65" d="M11,320h5v2h-5zm11,-2h5v2h-5zm0,5h5v2h-5zm27,-5h6v2h-6zm0,5h6v2h-6zm11,-1h6v1h-6z"></path><path fill="#d0ba59" d="M11,322h5v1h-5zm16,-4h6v2h-6zm0,5h6v2h-6zm11,-5h6v2h-6zm0,5h6v2h-6zm6,-5h5v2h-5zm0,5h5v2h-5zm11,-3h5v2h-5z"></path><path fill="#e1bf4a" d="M33,318h5v2h-5zm0,5h5v2h-5zm22,-1h5v1h-5z"></path><path fill="#f4c53a" d="M16,320h6v3h-6zm33,0h6v2h-6z"></path><path fill="#fcd12b" d="M22,320h5v2h-5zm22,0h5v2h-5zm5,2h6v1h-6z"></path><path fill="#fae61c" d="M22,322h5v1h-5zm5,-2h6v2h-6zm11,0h6v2h-6zm6,2h5v1h-5z"></path><path fill="#f9f90e" d="M27,322h6v1h-6zm6,-2h5v3h-5zm5,2h6v1h-6z"></path></g></svg><g><g transform="translate(0,330)"><path d="M0,0h546M0,-12V0M11,-6V0M22,-6V0M33,-6V0M44,-6V0M55,-12V0M66,-6V0M76,-6V0M87,-6V0M98,-6V0M109,-12V0M120,-6V0M131,-6V0M142,-6V0M153,-6V0M164,-12V0M175,-6V0M186,-6V0M197,-6V0M207,-6V0M218,-12V0M229,-6V0M240,-6V0M251,-6V0M262,-6V0M273,-12V0M284,-6V0M295,-6V0M306,-6V0M317,-6V0M328,-12V0M339,-6V0M349,-6V0M360,-6V0M371,-6V0M382,-12V0M393,-6V0M404,-6V0M415,-6V0M426,-6V0M437,-12V0M448,-6V0M459,-6V0M470,-6V0M480,-6V0M491,-12V0M502,-6V0M513,-6V0M524,-6V0M535,-6V0M546,-12V0" style="stroke: rgb(0, 0, 0); stroke-width: 1;"></path><g font-family="Arial" font-size="14" xml:space="preserve" fill="#000000" text-anchor="middle"><text dy=".8em" transform="translate(0,3)">0</text><text dy=".8em" transform="translate(55,3)">10</text><text dy=".8em" transform="translate(109,3)">20</text><text dy=".8em" transform="translate(164,3)">30</text><text dy=".8em" transform="translate(218,3)">40</text><text dy=".8em" transform="translate(273,3)">50</text><text dy=".8em" transform="translate(328,3)">60</text><text dy=".8em" transform="translate(382,3)">70</text><text dy=".8em" transform="translate(437,3)">80</text><text dy=".8em" transform="translate(491,3)">90</text><text dy=".8em" transform="translate(546,3)">100</text></g><rect x="0" y="0" width="546" height="17" style="opacity: 0; cursor: crosshair;"></rect></g><g><path d="M0,0v330M21,330H0M11,322H0M11,314H0M11,305H0M21,297H0M11,289H0M11,281H0M11,272H0M21,264H0M11,256H0M11,248H0M11,239H0M21,231H0M11,223H0M11,215H0M11,206H0M21,198H0M11,190H0M11,182H0M11,173H0M21,165H0M11,157H0M11,148H0M11,140H0M21,132H0M11,124H0M11,115H0M11,107H0M21,99H0M11,91H0M11,83H0M11,74H0M21,66H0M11,58H0M11,50H0M11,41H0M21,33H0M11,25H0M11,17H0M11,8H0M21,0H0" style="stroke: rgb(0, 0, 0); stroke-width: 1;"></path><g font-family="Arial" font-size="14" xml:space="preserve" fill="#000000" text-anchor="end"><text dominant-baseline="middle" transform="translate(-3,330)">0</text><text dominant-baseline="middle" transform="translate(-3,297)">2</text><text dominant-baseline="middle" transform="translate(-3,264)">4</text><text dominant-baseline="middle" transform="translate(-3,231)">6</text><text dominant-baseline="middle" transform="translate(-3,198)">8</text><text dominant-baseline="middle" transform="translate(-3,165)">10</text><text dominant-baseline="middle" transform="translate(-3,132)">12</text><text dominant-baseline="middle" transform="translate(-3,99)">14</text><text dominant-baseline="middle" transform="translate(-3,66)">16</text><text dominant-baseline="middle" transform="translate(-3,33)">18</text><text dominant-baseline="middle" transform="translate(-3)">20</text></g><rect x="-18" y="0" width="18" height="330" style="opacity: 0; cursor: crosshair;"></rect></g></g><path d="M2,2h15v-5h-20v20h5Z" style="opacity: 0; cursor: nw-resize;"></path><path d="M544,2h-15v-5h20v20h-5 Z" style="opacity: 0; cursor: ne-resize;"></path><path d="M2,328h15v5h-20v-20h5Z" style="opacity: 0; cursor: sw-resize;"></path><path d="M544,328h-15v5h20v-20h-5Z" style="opacity: 0; cursor: se-resize;"></path><path d="M-3,18h5v294h-5Z" style="opacity: 0; cursor: w-resize;"></path><path d="M549,18h-5v294h5Z" style="opacity: 0; cursor: e-resize;"></path><path d="M18,-3v5h510v-5Z" style="opacity: 0; cursor: n-resize;"></path><path d="M18,333v-5h510v5Z" style="opacity: 0; cursor: s-resize;"></path></g><g transform="translate(623,41)" style="cursor: move;"><path d="M0,0H35V330H0Z" style="fill: rgb(242, 242, 242); stroke: rgb(0, 0, 0); stroke-width: 1; pointer-events: visiblefill;"></path><path d="M0,314H35V330H0Z" style="fill: rgb(22, 82, 204);"><title>0.00 - 1845.95</title></path><path d="M0,297H35V315H0Z" style="fill: rgb(22, 82, 204);"><title>1845.95 - 3691.90</title></path><path d="M0,281H35V298H0Z" style="fill: rgb(16, 99, 219);"><title>3691.90 - 5537.85</title></path><path d="M0,264H35V282H0Z" style="fill: rgb(17, 113, 216);"><title>5537.85 - 7383.80</title></path><path d="M0,248H35V265H0Z" style="fill: rgb(19, 128, 213);"><title>7383.80 - 9229.75</title></path><path d="M0,231H35V249H0Z" style="fill: rgb(14, 142, 208);"><title>9229.75 - 11075.70</title></path><path d="M0,215H35V232H0Z" style="fill: rgb(8, 157, 204);"><title>11075.70 - 12921.65</title></path><path d="M0,198H35V216H0Z" style="fill: rgb(13, 167, 194);"><title>12921.65 - 14767.60</title></path><path d="M0,182H35V199H0Z" style="fill: rgb(29, 175, 179);"><title>14767.60 - 16613.55</title></path><path d="M0,165H35V183H0Z" style="fill: rgb(45, 183, 163);"><title>16613.55 - 18459.50</title></path><path d="M0,148H35V166H0Z" style="fill: rgb(82, 186, 145);"><title>18459.50 - 20305.45</title></path><path d="M0,132H35V149H0Z" style="fill: rgb(115, 189, 128);"><title>20305.45 - 22151.40</title></path><path d="M0,115H35V133H0Z" style="fill: rgb(148, 190, 113);"><title>22151.40 - 23997.35</title></path><path d="M0,99H35V116H0Z" style="fill: rgb(178, 188, 101);"><title>23997.35 - 25843.30</title></path><path d="M0,83H35V100H0Z" style="fill: rgb(208, 186, 89);"><title>25843.30 - 27689.25</title></path><path d="M0,66H35V84H0Z" style="fill: rgb(225, 191, 74);"><title>27689.25 - 29535.20</title></path><path d="M0,49H35V67H0Z" style="fill: rgb(244, 197, 58);"><title>29535.20 - 31381.15</title></path><path d="M0,33H35V50H0Z" style="fill: rgb(252, 209, 43);"><title>31381.15 - 33227.10</title></path><path d="M0,16H35V34H0Z" style="fill: rgb(250, 230, 28);"><title>33227.10 - 35073.05</title></path><path d="M0,0H35V17H0Z" style="fill: rgb(249, 249, 14);"><title>35073.05 - 36919.00</title></path><g transform="translate(35)"><path d="M0,0v330M0,330H-17M0,285H-17M0,241H-17M0,196H-17M0,151H-17M0,107H-17M0,62H-17M0,17H-17" style="stroke: rgb(0, 0, 0); stroke-width: 1;"></path><g font-family="Arial" font-size="14" xml:space="preserve"><text fill="#000000" text-anchor="start" dominant-baseline="middle" transform="translate(3,330)">0</text><text fill="#000000" text-anchor="start" dominant-baseline="middle" transform="translate(3,285)">5</text><text fill="#000000" text-anchor="start" dominant-baseline="middle" transform="translate(3,241)">10</text><text fill="#000000" text-anchor="start" dominant-baseline="middle" transform="translate(3,196)">15</text><text fill="#000000" text-anchor="start" dominant-baseline="middle" transform="translate(3,151)">20</text><text fill="#000000" text-anchor="start" dominant-baseline="middle" transform="translate(3,107)">25</text><text fill="#000000" text-anchor="start" dominant-baseline="middle" transform="translate(3,62)">30</text><text fill="#000000" text-anchor="start" dominant-baseline="middle" transform="translate(3,17)">35</text><g transform="translate(-32,-6)"><text fill="#000000" font-size="14">×10</text><text fill="#000000" font-size="8" transform="translate(23,-9)">3</text></g></g><rect x="0" y="0" width="18" height="330" style="opacity: 0; cursor: crosshair;"></rect></g><path d="M2,2h15v-5h-20v20h5Z" style="opacity: 0; cursor: nw-resize;"></path><path d="M33,2h-15v-5h20v20h-5 Z" style="opacity: 0; cursor: ne-resize;"></path><path d="M2,328h15v5h-20v-20h5Z" style="opacity: 0; cursor: sw-resize;"></path><path d="M33,328h-15v5h20v-20h-5Z" style="opacity: 0; cursor: se-resize;"></path><path d="M-3,18h5v294h-5Z" style="opacity: 0; cursor: w-resize;"></path><path d="M38,18h-5v294h5Z" style="opacity: 0; cursor: e-resize;"></path><path d="M18,-3v5h0v-5Z" style="opacity: 0; cursor: n-resize;"></path><path d="M18,333v-5h0v5Z" style="opacity: 0; cursor: s-resize;"></path></g><g transform="translate(77,2)" font-family="Arial" font-size="23" xml:space="preserve" style="cursor: move;"><path d="M0,0H546V27H0Z" style="fill: none; pointer-events: visiblefill;"></path><text fill="#000000" text-anchor="middle" dominant-baseline="middle" transform="translate(273,14)">x: Nch, y: max-dirPhoton's pT</text><path d="M2,2h15v-5h-20v20h5Z" style="opacity: 0; cursor: nw-resize;"></path><path d="M544,2h-15v-5h20v20h-5 Z" style="opacity: 0; cursor: ne-resize;"></path><path d="M2,25h15v5h-20v-20h5Z" style="opacity: 0; cursor: sw-resize;"></path><path d="M544,25h-15v5h20v-20h-5Z" style="opacity: 0; cursor: se-resize;"></path><path d="M-3,18h5v0h-5Z" style="opacity: 0; cursor: w-resize;"></path><path d="M549,18h-5v0h5Z" style="opacity: 0; cursor: e-resize;"></path><path d="M18,-3v5h510v-5Z" style="opacity: 0; cursor: n-resize;"></path><path d="M18,30v-5h510v5Z" style="opacity: 0; cursor: s-resize;"></path></g></g></svg>