<svg width="1746" height="980" xmlns="http://www.w3.org/2000/svg"><path d="M0,0H1746V980H0Z" style="pointer-events: visiblefill; fill: rgb(255, 255, 255);"></path><g><g transform="translate(210,49)"><title></title><path d="M0,0H1327V813H0Z" style="fill: rgb(255, 255, 255); stroke: rgb(0, 0, 0); stroke-width: 1; pointer-events: visiblefill; cursor: default;"></path><svg x="0" y="0" overflow="hidden" width="1327" height="813" viewBox="0 0 1327 813" style="pointer-events: visiblefill; cursor: default;"><g><path d="M0,650h66M33,650v0M66,650h68M100,650v0M133,650h66M166,650v0M199,650h66M232,650v0M265,651h68M299,651v0M332,651h66M365,651v0M398,651h66M431,651v0M464,651h68M498,651v0M531,652h66M564,652v0M597,652h68M631,652v0M664,652h66M697,652v0M730,652h66M763,652v0M796,651h68M830,651v0M863,651h66M896,651v0M929,651h66M962,651v0M995,650h68M1029,650v0M1062,650h66M1095,650v0M1128,649h66M1161,649v0M1194,648h68M1228,648v0M1261,648h66M1294,648v0" style="stroke: rgb(255, 51, 0); stroke-width: 1;"></path><path d="M0,650h66v0h-66zM66,650h68v0h-68zM133,650h66v0h-66zM199,650h66v0h-66zM265,651h68v0h-68zM332,651h66v0h-66zM398,651h66v0h-66zM464,651h68v0h-68zM531,652h66v0h-66zM597,652h68v0h-68zM664,652h66v0h-66zM730,652h66v0h-66zM796,651h68v0h-68zM863,651h66v0h-66zM929,651h66v0h-66zM995,650h68v0h-68zM1062,650h66v0h-66zM1128,649h66v0h-66zM1194,648h68v0h-68zM1261,648h66v0h-66z" style="fill: none; pointer-events: visiblefill;"></path><path d="M33,646l-4,8h8zM100,646l-4,8h8zM166,646l-4,8h8zM232,646l-4,8h8zM299,647l-4,8h8zM365,647l-4,8h8zM431,647l-4,8h8zM498,647l-4,8h8zM564,648l-4,8h8zM631,648l-4,8h8zM697,648l-4,8h8zM763,648l-4,8h8zM830,647l-4,8h8zM896,647l-4,8h8zM962,647l-4,8h8zM1029,646l-4,8h8zM1095,646l-4,8h8zM1161,645l-4,8h8zM1228,644l-4,8h8zM1294,644l-4,8h8z" style="stroke: rgb(255, 51, 0); fill: rgb(255, 51, 0);"></path></g><g><path d="M0,660h66M33,660v0M66,658h68M100,658v0M133,654h66M166,654v0M199,646h66M232,646v0M265,636h68M299,636v0M332,626h66M365,626v0M398,616h66M431,615v1M464,604h68M498,604v0M531,592h66M564,592v0M597,584h68M631,584v0M664,583h66M697,582v1M730,590h66M763,590v0M796,602h68M830,602v0M863,617h66M896,617v0M929,633h66M962,633v0M995,655h68M1029,655v0M1062,686h66M1095,685v1M1128,723h66M1161,723v0M1194,763h68M1228,763v0M1261,797h66M1294,797v1" style="stroke: rgb(255, 204, 0); stroke-width: 1;"></path><path d="M0,660h66v0h-66zM66,658h68v0h-68zM133,654h66v0h-66zM199,646h66v0h-66zM265,636h68v0h-68zM332,626h66v0h-66zM398,615h66v1h-66zM464,604h68v0h-68zM531,592h66v0h-66zM597,584h68v0h-68zM664,582h66v1h-66zM730,590h66v0h-66zM796,602h68v0h-68zM863,617h66v0h-66zM929,633h66v0h-66zM995,655h68v0h-68zM1062,685h66v1h-66zM1128,723h66v0h-66zM1194,763h68v0h-68zM1261,797h66v1h-66z" style="fill: none; pointer-events: visiblefill;"></path><path d="M34,661h3v-3h-3v-3h-3v3h-3v3h3v3h3zM101,659h3v-3h-3v-3h-3v3h-3v3h3v3h3zM167,655h3v-3h-3v-3h-3v3h-3v3h3v3h3zM233,647h3v-3h-3v-3h-3v3h-3v3h3v3h3zM300,637h3v-3h-3v-3h-3v3h-3v3h3v3h3zM366,627h3v-3h-3v-3h-3v3h-3v3h3v3h3zM432,617h3v-3h-3v-3h-3v3h-3v3h3v3h3zM499,605h3v-3h-3v-3h-3v3h-3v3h3v3h3zM565,593h3v-3h-3v-3h-3v3h-3v3h3v3h3zM632,585h3v-3h-3v-3h-3v3h-3v3h3v3h3zM698,584h3v-3h-3v-3h-3v3h-3v3h3v3h3zM764,591h3v-3h-3v-3h-3v3h-3v3h3v3h3zM831,603h3v-3h-3v-3h-3v3h-3v3h3v3h3zM897,618h3v-3h-3v-3h-3v3h-3v3h3v3h3zM963,634h3v-3h-3v-3h-3v3h-3v3h3v3h3zM1030,656h3v-3h-3v-3h-3v3h-3v3h3v3h3zM1096,687h3v-3h-3v-3h-3v3h-3v3h3v3h3zM1162,724h3v-3h-3v-3h-3v3h-3v3h3v3h3zM1229,764h3v-3h-3v-3h-3v3h-3v3h3v3h3zM1295,798h3v-3h-3v-3h-3v3h-3v3h3v3h3z" style="stroke: rgb(255, 204, 0); fill: rgb(255, 204, 0);"></path></g><g><path d="M0,664h66M33,664v0M66,662h68M100,662v0M133,658h66M166,658v0M199,651h66M232,651v0M265,641h68M299,640v1M332,627h66M365,627v0M398,612h66M431,612v0M464,595h68M498,595v0M531,573h66M564,573v1M597,560h68M631,559v1M664,558h66M697,558v0M730,568h66M763,568v1M796,590h68M830,589v1M863,610h66M896,610v0M929,632h66M962,632v0M995,660h68M1029,660v0M1062,694h66M1095,694v1M1128,734h66M1161,734v0M1194,774h68M1228,774v0M1261,808h66M1294,807v1" style="stroke: rgb(255, 0, 0); stroke-width: 1;"></path><path d="M0,664h66v0h-66zM66,662h68v0h-68zM133,658h66v0h-66zM199,651h66v0h-66zM265,640h68v1h-68zM332,627h66v0h-66zM398,612h66v0h-66zM464,595h68v0h-68zM531,573h66v1h-66zM597,559h68v1h-68zM664,558h66v0h-66zM730,568h66v1h-66zM796,589h68v1h-68zM863,610h66v0h-66zM929,632h66v0h-66zM995,660h68v0h-68zM1062,694h66v1h-66zM1128,734h66v0h-66zM1194,774h68v0h-68zM1261,807h66v1h-66z" style="fill: none; pointer-events: visiblefill;"></path><path d="M34,665h3v-3h-3v-3h-3v3h-3v3h3v3h3zM101,663h3v-3h-3v-3h-3v3h-3v3h3v3h3zM167,659h3v-3h-3v-3h-3v3h-3v3h3v3h3zM233,652h3v-3h-3v-3h-3v3h-3v3h3v3h3zM300,642h3v-3h-3v-3h-3v3h-3v3h3v3h3zM366,628h3v-3h-3v-3h-3v3h-3v3h3v3h3zM432,613h3v-3h-3v-3h-3v3h-3v3h3v3h3zM499,596h3v-3h-3v-3h-3v3h-3v3h3v3h3zM565,574h3v-3h-3v-3h-3v3h-3v3h3v3h3zM632,561h3v-3h-3v-3h-3v3h-3v3h3v3h3zM698,559h3v-3h-3v-3h-3v3h-3v3h3v3h3zM764,569h3v-3h-3v-3h-3v3h-3v3h3v3h3zM831,591h3v-3h-3v-3h-3v3h-3v3h3v3h3zM897,611h3v-3h-3v-3h-3v3h-3v3h3v3h3zM963,633h3v-3h-3v-3h-3v3h-3v3h3v3h3zM1030,661h3v-3h-3v-3h-3v3h-3v3h3v3h3zM1096,695h3v-3h-3v-3h-3v3h-3v3h3v3h3zM1162,735h3v-3h-3v-3h-3v3h-3v3h3v3h3zM1229,775h3v-3h-3v-3h-3v3h-3v3h3v3h3zM1295,809h3v-3h-3v-3h-3v3h-3v3h3v3h3z" style="stroke: rgb(255, 0, 0); fill: rgb(255, 0, 0);"></path></g><g><path d="M0,668h66M33,667v2M66,667h68M100,667v1M133,665h66M166,664v1M199,660h66M232,659v1M265,650h68M299,650v1M332,635h66M365,634v2M398,612h66M431,611v1M464,579h68M498,578v2M531,537h66M564,536v2M597,509h68M631,508v2M664,505h66M697,504v2M730,524h66M763,523v2M796,566h68M830,566v1M863,605h66M896,604v2M929,641h66M962,640v2M995,676h68M1029,675v2M1062,714h66M1095,712v3M1128,752h66M1161,751v2M1194,790h68M1228,789v2M1261,822h66M1294,821v3" style="stroke: rgb(255, 0, 51); stroke-width: 1;"></path><path d="M0,667h66v2h-66zM66,667h68v1h-68zM133,664h66v1h-66zM199,659h66v1h-66zM265,650h68v1h-68zM332,634h66v2h-66zM398,611h66v1h-66zM464,578h68v2h-68zM531,536h66v2h-66zM597,508h68v2h-68zM664,504h66v2h-66zM730,523h66v2h-66zM796,566h68v1h-68zM863,604h66v2h-66zM929,640h66v2h-66zM995,675h68v2h-68zM1062,712h66v3h-66zM1128,751h66v2h-66zM1194,789h68v2h-68zM1261,821h66v3h-66z" style="fill: none; pointer-events: visiblefill;"></path><path d="M34,669h3v-3h-3v-3h-3v3h-3v3h3v3h3zM101,668h3v-3h-3v-3h-3v3h-3v3h3v3h3zM167,666h3v-3h-3v-3h-3v3h-3v3h3v3h3zM233,661h3v-3h-3v-3h-3v3h-3v3h3v3h3zM300,651h3v-3h-3v-3h-3v3h-3v3h3v3h3zM366,636h3v-3h-3v-3h-3v3h-3v3h3v3h3zM432,613h3v-3h-3v-3h-3v3h-3v3h3v3h3zM499,580h3v-3h-3v-3h-3v3h-3v3h3v3h3zM565,538h3v-3h-3v-3h-3v3h-3v3h3v3h3zM632,510h3v-3h-3v-3h-3v3h-3v3h3v3h3zM698,506h3v-3h-3v-3h-3v3h-3v3h3v3h3zM764,525h3v-3h-3v-3h-3v3h-3v3h3v3h3zM831,567h3v-3h-3v-3h-3v3h-3v3h3v3h3zM897,606h3v-3h-3v-3h-3v3h-3v3h3v3h3zM963,642h3v-3h-3v-3h-3v3h-3v3h3v3h3zM1030,677h3v-3h-3v-3h-3v3h-3v3h3v3h3zM1096,715h3v-3h-3v-3h-3v3h-3v3h3v3h3zM1162,753h3v-3h-3v-3h-3v3h-3v3h3v3h3zM1229,791h3v-3h-3v-3h-3v3h-3v3h3v3h3zM1295,823h3v-3h-3v-3h-3v3h-3v3h3v3h3z" style="stroke: rgb(255, 0, 51); fill: none;"></path></g><g><path d="M0,675h66M33,672v5M66,671h68M100,668v5M133,674h66M166,672v4M199,666h66M232,664v4M265,659h68M299,657v4M332,645h66M365,643v4M398,613h66M431,611v4M464,575h68M498,573v4M531,511h66M564,508v6M597,469h68M631,466v6M664,460h66M697,457v6M730,493h66M763,490v6M796,560h68M830,557v6M863,615h66M896,613v5M929,660h66M962,657v5M995,693h68M1029,690v5M1062,733h66M1095,730v6M1128,764h66M1161,761v7M1194,805h68M1228,802v7M1261,839h66M1294,835v8" style="stroke: rgb(255, 0, 255); stroke-width: 1;"></path><path d="M0,672h66v5h-66zM66,668h68v5h-68zM133,672h66v4h-66zM199,664h66v4h-66zM265,657h68v4h-68zM332,643h66v4h-66zM398,611h66v4h-66zM464,573h68v4h-68zM531,508h66v6h-66zM597,466h68v6h-68zM664,457h66v6h-66zM730,490h66v6h-66zM796,557h68v6h-68zM863,613h66v5h-66zM929,657h66v5h-66zM995,690h68v5h-68zM1062,730h66v6h-66zM1128,761h66v7h-66zM1194,802h68v7h-68zM1261,835h66v8h-66z" style="fill: none; pointer-events: visiblefill;"></path><path d="M31,671l2,2l2,-2l2,2l-2,2l2,2l-2,2l-2,-2l-2,2l-2,-2l2,-2l-2,-2zM98,667l2,2l2,-2l2,2l-2,2l2,2l-2,2l-2,-2l-2,2l-2,-2l2,-2l-2,-2zM164,670l2,2l2,-2l2,2l-2,2l2,2l-2,2l-2,-2l-2,2l-2,-2l2,-2l-2,-2zM230,662l2,2l2,-2l2,2l-2,2l2,2l-2,2l-2,-2l-2,2l-2,-2l2,-2l-2,-2zM297,655l2,2l2,-2l2,2l-2,2l2,2l-2,2l-2,-2l-2,2l-2,-2l2,-2l-2,-2zM363,641l2,2l2,-2l2,2l-2,2l2,2l-2,2l-2,-2l-2,2l-2,-2l2,-2l-2,-2zM429,609l2,2l2,-2l2,2l-2,2l2,2l-2,2l-2,-2l-2,2l-2,-2l2,-2l-2,-2zM496,571l2,2l2,-2l2,2l-2,2l2,2l-2,2l-2,-2l-2,2l-2,-2l2,-2l-2,-2zM562,507l2,2l2,-2l2,2l-2,2l2,2l-2,2l-2,-2l-2,2l-2,-2l2,-2l-2,-2zM629,465l2,2l2,-2l2,2l-2,2l2,2l-2,2l-2,-2l-2,2l-2,-2l2,-2l-2,-2zM695,456l2,2l2,-2l2,2l-2,2l2,2l-2,2l-2,-2l-2,2l-2,-2l2,-2l-2,-2zM761,489l2,2l2,-2l2,2l-2,2l2,2l-2,2l-2,-2l-2,2l-2,-2l2,-2l-2,-2zM828,556l2,2l2,-2l2,2l-2,2l2,2l-2,2l-2,-2l-2,2l-2,-2l2,-2l-2,-2zM894,611l2,2l2,-2l2,2l-2,2l2,2l-2,2l-2,-2l-2,2l-2,-2l2,-2l-2,-2zM960,656l2,2l2,-2l2,2l-2,2l2,2l-2,2l-2,-2l-2,2l-2,-2l2,-2l-2,-2zM1027,689l2,2l2,-2l2,2l-2,2l2,2l-2,2l-2,-2l-2,2l-2,-2l2,-2l-2,-2zM1093,729l2,2l2,-2l2,2l-2,2l2,2l-2,2l-2,-2l-2,2l-2,-2l2,-2l-2,-2zM1159,760l2,2l2,-2l2,2l-2,2l2,2l-2,2l-2,-2l-2,2l-2,-2l2,-2l-2,-2zM1226,801l2,2l2,-2l2,2l-2,2l2,2l-2,2l-2,-2l-2,2l-2,-2l2,-2l-2,-2zM1292,835l2,2l2,-2l2,2l-2,2l2,2l-2,2l-2,-2l-2,2l-2,-2l2,-2l-2,-2z" style="stroke: rgb(255, 0, 255); fill: rgb(255, 0, 255);"></path></g><g><path d="M0,665h66M33,655v19M66,669h68M100,660v17M133,665h66M166,657v16M199,664h66M232,657v15M265,672h68M299,665v14M332,656h66M365,648v15M398,632h66M431,624v16M464,581h68M498,572v17M531,507h66M564,497v19M597,422h68M631,411v22M664,442h66M697,431v22M730,486h66M763,475v22M796,589h68M830,579v19M863,627h66M896,617v19M929,665h66M962,655v20M995,722h68M1029,712v20M1062,742h66M1095,731v22M1128,797h66M1161,786v22M1194,814h68M1228,801v26M1261,851h66M1294,836v31" style="stroke: rgb(204, 0, 255); stroke-width: 1;"></path><path d="M0,655h66v19h-66zM66,660h68v17h-68zM133,657h66v16h-66zM199,657h66v15h-66zM265,665h68v14h-68zM332,648h66v15h-66zM398,624h66v16h-66zM464,572h68v17h-68zM531,497h66v19h-66zM597,411h68v22h-68zM664,431h66v22h-66zM730,475h66v22h-66zM796,579h68v19h-68zM863,617h66v19h-66zM929,655h66v20h-66zM995,712h68v20h-68zM1062,731h66v22h-66zM1128,786h66v22h-66zM1194,801h68v26h-68zM1261,836h66v31h-66z" style="fill: none; pointer-events: visiblefill;"></path><path d="M29,661v8h8v-8zM96,665v8h8v-8zM162,661v8h8v-8zM228,660v8h8v-8zM295,668v8h8v-8zM361,652v8h8v-8zM427,628v8h8v-8zM494,577v8h8v-8zM560,503v8h8v-8zM627,418v8h8v-8zM693,438v8h8v-8zM759,482v8h8v-8zM826,585v8h8v-8zM892,623v8h8v-8zM958,661v8h8v-8zM1025,718v8h8v-8zM1091,738v8h8v-8zM1157,793v8h8v-8zM1224,810v8h8v-8zM1290,847v8h8v-8z" style="stroke: rgb(204, 0, 255); fill: none;"></path></g></svg><g><g transform="translate(0,813)"><path d="M0,0h1327M0,-813h1327M0,-29V0M27,-15V0M53,-15V0M80,-15V0M106,-15V0M133,-29V0M159,-15V0M186,-15V0M212,-15V0M239,-15V0M265,-29V0M292,-15V0M318,-15V0M345,-15V0M372,-15V0M398,-29V0M425,-15V0M451,-15V0M478,-15V0M504,-15V0M531,-29V0M557,-15V0M584,-15V0M610,-15V0M637,-15V0M664,-29V0M690,-15V0M717,-15V0M743,-15V0M770,-15V0M796,-29V0M823,-15V0M849,-15V0M876,-15V0M902,-15V0M929,-29V0M955,-15V0M982,-15V0M1009,-15V0M1035,-15V0M1062,-29V0M1088,-15V0M1115,-15V0M1141,-15V0M1168,-15V0M1194,-29V0M1221,-15V0M1247,-15V0M1274,-15V0M1300,-15V0M1327,-29V0M0,-784V-813M27,-798V-813M53,-798V-813M80,-798V-813M106,-798V-813M133,-784V-813M159,-798V-813M186,-798V-813M212,-798V-813M239,-798V-813M265,-784V-813M292,-798V-813M318,-798V-813M345,-798V-813M372,-798V-813M398,-784V-813M425,-798V-813M451,-798V-813M478,-798V-813M504,-798V-813M531,-784V-813M557,-798V-813M584,-798V-813M610,-798V-813M637,-798V-813M664,-784V-813M690,-798V-813M717,-798V-813M743,-798V-813M770,-798V-813M796,-784V-813M823,-798V-813M849,-798V-813M876,-798V-813M902,-798V-813M929,-784V-813M955,-798V-813M982,-798V-813M1009,-798V-813M1035,-798V-813M1062,-784V-813M1088,-798V-813M1115,-798V-813M1141,-798V-813M1168,-798V-813M1194,-784V-813M1221,-798V-813M1247,-798V-813M1274,-798V-813M1300,-798V-813M1327,-784V-813" style="stroke: rgb(0, 0, 0); stroke-width: 1;"></path><g font-family="Arial" font-size="34" xml:space="preserve" fill="#000000" text-anchor="middle"><text dy=".8em" transform="translate(0,7)">-5</text><text dy=".8em" transform="translate(133,7)">-4</text><text dy=".8em" transform="translate(265,7)">-3</text><text dy=".8em" transform="translate(398,7)">-2</text><text dy=".8em" transform="translate(531,7)">-1</text><text dy=".8em" transform="translate(664,7)">0</text><text dy=".8em" transform="translate(796,7)">1</text><text dy=".8em" transform="translate(929,7)">2</text><text dy=".8em" transform="translate(1062,7)">3</text><text dy=".8em" transform="translate(1194,7)">4</text><text dy=".8em" transform="translate(1327,7)">5</text></g><rect x="0" y="0" width="1327" height="37" style="opacity: 0; cursor: crosshair;"></rect><g font-family="Arial" font-size="34" xml:space="preserve" transform="translate(1327,54)" style="cursor: move;"><g transform="translate(-18,11)"><text fill="#000000" font-size="34">η</text></g></g></g><g><path d="M0,0v813M1327,0v813M52,813H0M26,780H0M26,748H0M26,715H0M26,683H0M52,650H0M26,618H0M26,585H0M26,553H0M26,520H0M52,488H0M26,455H0M26,423H0M26,390H0M26,358H0M52,325H0M26,293H0M26,260H0M26,228H0M26,195H0M52,163H0M26,130H0M26,98H0M26,65H0M26,33H0M52,0H0M1275,813H1327M1301,780H1327M1301,748H1327M1301,715H1327M1301,683H1327M1275,650H1327M1301,618H1327M1301,585H1327M1301,553H1327M1301,520H1327M1275,488H1327M1301,455H1327M1301,423H1327M1301,390H1327M1301,358H1327M1275,325H1327M1301,293H1327M1301,260H1327M1301,228H1327M1301,195H1327M1275,163H1327M1301,130H1327M1301,98H1327M1301,65H1327M1301,33H1327M1275,0H1327" style="stroke: rgb(0, 0, 0); stroke-width: 1;"></path><g font-family="Arial" font-size="34" xml:space="preserve" fill="#000000" text-anchor="end"><text dominant-baseline="middle" transform="translate(-7,813)">0.5</text><text dominant-baseline="middle" transform="translate(-7,650)">1</text><text dominant-baseline="middle" transform="translate(-7,488)">1.5</text><text dominant-baseline="middle" transform="translate(-7,325)">2</text><text dominant-baseline="middle" transform="translate(-7,163)">2.5</text><text dominant-baseline="middle" transform="translate(-7)">3</text></g><rect x="-50" y="0" width="50" height="813" style="opacity: 0; cursor: crosshair;"></rect><g font-family="Arial" font-size="34" xml:space="preserve" transform="translate(-89)" style="cursor: move;"><g transform="rotate(270) translate(-502,15)"><g><text fill="#000000" font-size="34" transform="translate(49,-19)">1</text><path d="M0,-12h112" style="stroke: rgb(0, 0, 0); stroke-width: 2; fill: none;"></path><text fill="#000000" font-size="34" transform="translate(0,19)">&lt;Ncoll&gt;</text></g><g transform="translate(115)"><g transform="translate(0,-19)"><text fill="#000000" font-size="34">dN</text><text fill="#000000" font-size="20" transform="translate(44,-20)">ch</text></g><path d="M0,-12h62" style="stroke: rgb(0, 0, 0); stroke-width: 2; fill: none;"></path><text fill="#000000" font-size="34" transform="translate(14,19)">dη</text></g><text fill="#000000" font-size="20" transform="translate(181,8)">pTClass</text><text fill="#000000" font-size="34" x="268">/</text><g transform="translate(291)"><text fill="#000000" font-size="34" transform="translate(49,-19)">1</text><path d="M0,-12h112" style="stroke: rgb(0, 0, 0); stroke-width: 2; fill: none;"></path><text fill="#000000" font-size="34" transform="translate(0,19)">&lt;Ncoll&gt;</text></g><g transform="translate(406)"><g transform="translate(0,-19)"><text fill="#000000" font-size="34">dN</text><text fill="#000000" font-size="20" transform="translate(44,-20)">ch</text></g><path d="M0,-12h62" style="stroke: rgb(0, 0, 0); stroke-width: 2; fill: none;"></path><text fill="#000000" font-size="34" transform="translate(14,19)">dη</text></g><text fill="#000000" font-size="20" transform="translate(472,8)">MB</text></g></g></g></g><path d="M2,2h15v-5h-20v20h5Z" style="opacity: 0; cursor: nw-resize;"></path><path d="M1325,2h-15v-5h20v20h-5 Z" style="opacity: 0; cursor: ne-resize;"></path><path d="M2,811h15v5h-20v-20h5Z" style="opacity: 0; cursor: sw-resize;"></path><path d="M1325,811h-15v5h20v-20h-5Z" style="opacity: 0; cursor: se-resize;"></path><path d="M-3,18h5v777h-5Z" style="opacity: 0; cursor: w-resize;"></path><path d="M1330,18h-5v777h5Z" style="opacity: 0; cursor: e-resize;"></path><path d="M18,-3v5h1291v-5Z" style="opacity: 0; cursor: n-resize;"></path><path d="M18,816v-5h1291v5Z" style="opacity: 0; cursor: s-resize;"></path></g><g style="cursor: move;"><path d="M210,700H1536" style="stroke: rgb(0, 0, 0); stroke-width: 1;"></path></g><g transform="translate(262,98)" font-family="Arial" font-size="24" xml:space="preserve" style="cursor: move;"><path d="M0,0H629V196H0Z" style="fill: none; pointer-events: visiblefill;"></path><text fill="#000000" text-anchor="start" dominant-baseline="middle" transform="translate(19,19)">PYTHIA8, pAu200GeV with option3</text><path d="M79,41l-4,8h8z" style="stroke: rgb(255, 51, 0); fill: rgb(255, 51, 0);"></path><g transform="translate(157,54)"><text fill="#000000" font-size="24">Events with p</text><text fill="#000000" font-size="14" transform="translate(143,5)">T</text><text fill="#000000" font-size="24" x="161">&lt; 2 GeV π</text><text fill="#000000" font-size="14" transform="translate(273,-14)">0</text><text fill="#000000" font-size="24" x="290">at |η|&lt;1</text></g><path d="M80,73h3v-3h-3v-3h-3v3h-3v3h3v3h3z" style="stroke: rgb(255, 204, 0); fill: rgb(255, 204, 0);"></path><g transform="translate(157,81)"><text fill="#000000" font-size="24">Events with 2 GeV ≤ p</text><text fill="#000000" font-size="14" transform="translate(238,5)">T</text><text fill="#000000" font-size="24" x="256">4 GeV π</text><text fill="#000000" font-size="14" transform="translate(348,-14)">0</text><text fill="#000000" font-size="24" x="365">at |η|&lt;1</text></g><path d="M80,99h3v-3h-3v-3h-3v3h-3v3h3v3h3z" style="stroke: rgb(255, 0, 0); fill: rgb(255, 0, 0);"></path><g transform="translate(157,107)"><text fill="#000000" font-size="24">Events with 4 GeV ≤ p</text><text fill="#000000" font-size="14" transform="translate(238,5)">T</text><text fill="#000000" font-size="24" x="256">7 GeV π</text><text fill="#000000" font-size="14" transform="translate(348,-14)">0</text><text fill="#000000" font-size="24" x="365">at |η|&lt;1</text></g><path d="M80,125h3v-3h-3v-3h-3v3h-3v3h3v3h3z" style="stroke: rgb(255, 0, 51); fill: none;"></path><g transform="translate(157,133)"><text fill="#000000" font-size="24">Events with 7 GeV ≤ p</text><text fill="#000000" font-size="14" transform="translate(238,5)">T</text><text fill="#000000" font-size="24" x="256">10 GeV π</text><text fill="#000000" font-size="14" transform="translate(361,-14)">0</text><text fill="#000000" font-size="24" x="378">at |η|&lt;1</text></g><path d="M77,147l2,2l2,-2l2,2l-2,2l2,2l-2,2l-2,-2l-2,2l-2,-2l2,-2l-2,-2z" style="stroke: rgb(255, 0, 255); fill: rgb(255, 0, 255);"></path><g transform="translate(157,159)"><text fill="#000000" font-size="24">Events with 10 GeV ≤ p</text><text fill="#000000" font-size="14" transform="translate(251,5)">T</text><text fill="#000000" font-size="24" x="269">15 GeV π</text><text fill="#000000" font-size="14" transform="translate(374,-14)">0</text><text fill="#000000" font-size="24" x="391">at |η|&lt;1</text></g><path d="M75,173v8h8v-8z" style="stroke: rgb(204, 0, 255); fill: none;"></path><g transform="translate(157,186)"><text fill="#000000" font-size="24">Events with 15 GeV ≤ p</text><text fill="#000000" font-size="14" transform="translate(251,5)">T</text><text fill="#000000" font-size="24" x="269">20 GeV π</text><text fill="#000000" font-size="14" transform="translate(374,-14)">0</text><text fill="#000000" font-size="24" x="391">at |η|&lt;1</text></g><path d="M2,2h15v-5h-20v20h5Z" style="opacity: 0; cursor: nw-resize;"></path><path d="M627,2h-15v-5h20v20h-5 Z" style="opacity: 0; cursor: ne-resize;"></path><path d="M2,194h15v5h-20v-20h5Z" style="opacity: 0; cursor: sw-resize;"></path><path d="M627,194h-15v5h20v-20h-5Z" style="opacity: 0; cursor: se-resize;"></path><path d="M-3,18h5v160h-5Z" style="opacity: 0; cursor: w-resize;"></path><path d="M632,18h-5v160h5Z" style="opacity: 0; cursor: e-resize;"></path><path d="M18,-3v5h593v-5Z" style="opacity: 0; cursor: n-resize;"></path><path d="M18,199v-5h593v5Z" style="opacity: 0; cursor: s-resize;"></path></g></g></svg>