<?xml version="1.0" standalone="no"?>
<svg width="567.429" height="409.002" viewBox="0 0 567.429 409.002" xmlns="http://www.w3.org/2000/svg" shape-rendering="crispEdges">
<title>
/Users/jinhyunpark/npl/gitHub/xloadFromServer/Git_Bias_correction_RxA/plots_dirAdded/yieldOfPion0Dir_centrality_lowpT.svg
</title>
<desc>
Creator: ROOT Version 6.28/04
CreationDate: Mon Aug 21 12:16:45 2023</desc>
<defs>
</defs>
<rect x="0.5" y="0" width="566.929" height="408.502" fill="white"/>
<rect x="85.5394" y="20.4251" width="396.85" height="339.056" fill="white"/>
<rect x="85.5394" y="20.4251" width="396.85" height="339.056" fill="none" stroke="black"/>
<rect x="85.5394" y="20.4251" width="396.85" height="339.056" fill="white"/>
<rect x="85.5394" y="20.4251" width="396.85" height="339.056" fill="none" stroke="black"/>
<path d="M85.5394,359.481h 396.85" fill="none" stroke="black"/>
<path d="M85.5394,350.903v 8.57853" fill="none" stroke="black"/>
<path d="M95.4606,355.192v 4.28927" fill="none" stroke="black"/>
<path d="M105.382,355.192v 4.28927" fill="none" stroke="black"/>
<path d="M115.303,355.192v 4.28927" fill="none" stroke="black"/>
<path d="M125.224,355.192v 4.28927" fill="none" stroke="black"/>
<path d="M135.146,350.903v 8.57853" fill="none" stroke="black"/>
<path d="M145.067,355.192v 4.28927" fill="none" stroke="black"/>
<path d="M154.988,355.192v 4.28927" fill="none" stroke="black"/>
<path d="M164.909,355.192v 4.28927" fill="none" stroke="black"/>
<path d="M174.831,355.192v 4.28927" fill="none" stroke="black"/>
<path d="M184.752,350.903v 8.57853" fill="none" stroke="black"/>
<path d="M194.673,355.192v 4.28927" fill="none" stroke="black"/>
<path d="M204.594,355.192v 4.28927" fill="none" stroke="black"/>
<path d="M214.516,355.192v 4.28927" fill="none" stroke="black"/>
<path d="M224.437,355.192v 4.28927" fill="none" stroke="black"/>
<path d="M234.358,350.903v 8.57853" fill="none" stroke="black"/>
<path d="M244.28,355.192v 4.28927" fill="none" stroke="black"/>
<path d="M254.201,355.192v 4.28927" fill="none" stroke="black"/>
<path d="M264.122,355.192v 4.28927" fill="none" stroke="black"/>
<path d="M274.043,355.192v 4.28927" fill="none" stroke="black"/>
<path d="M283.965,350.903v 8.57853" fill="none" stroke="black"/>
<path d="M293.886,355.192v 4.28927" fill="none" stroke="black"/>
<path d="M303.807,355.192v 4.28927" fill="none" stroke="black"/>
<path d="M313.728,355.192v 4.28927" fill="none" stroke="black"/>
<path d="M323.65,355.192v 4.28927" fill="none" stroke="black"/>
<path d="M333.571,350.903v 8.57853" fill="none" stroke="black"/>
<path d="M343.492,355.192v 4.28927" fill="none" stroke="black"/>
<path d="M353.413,355.192v 4.28927" fill="none" stroke="black"/>
<path d="M363.335,355.192v 4.28927" fill="none" stroke="black"/>
<path d="M373.256,355.192v 4.28927" fill="none" stroke="black"/>
<path d="M383.177,350.903v 8.57853" fill="none" stroke="black"/>
<path d="M393.098,355.192v 4.28927" fill="none" stroke="black"/>
<path d="M403.02,355.192v 4.28927" fill="none" stroke="black"/>
<path d="M412.941,355.192v 4.28927" fill="none" stroke="black"/>
<path d="M422.862,355.192v 4.28927" fill="none" stroke="black"/>
<path d="M432.783,350.903v 8.57853" fill="none" stroke="black"/>
<path d="M442.705,355.192v 4.28927" fill="none" stroke="black"/>
<path d="M452.626,355.192v 4.28927" fill="none" stroke="black"/>
<path d="M462.547,355.192v 4.28927" fill="none" stroke="black"/>
<path d="M472.469,355.192v 4.28927" fill="none" stroke="black"/>
<path d="M482.39,350.903v 8.57853" fill="none" stroke="black"/>
<text xml:space="preserve" x="81.4899" y="372.269" fill="black" font-size="13.617" font-family="Helvetica">0</text>
<text xml:space="preserve" x="126.958" y="372.269" fill="black" font-size="13.617" font-family="Helvetica">10</text>
<text xml:space="preserve" x="176.689" y="372.269" fill="black" font-size="13.617" font-family="Helvetica">20</text>
<text xml:space="preserve" x="226.419" y="372.269" fill="black" font-size="13.617" font-family="Helvetica">30</text>
<text xml:space="preserve" x="276.15" y="372.269" fill="black" font-size="13.617" font-family="Helvetica">40</text>
<text xml:space="preserve" x="325.17" y="372.269" fill="black" font-size="13.617" font-family="Helvetica">50</text>
<text xml:space="preserve" x="374.901" y="372.269" fill="black" font-size="13.617" font-family="Helvetica">60</text>
<text xml:space="preserve" x="424.631" y="372.269" fill="black" font-size="13.617" font-family="Helvetica">70</text>
<text xml:space="preserve" x="474.362" y="372.269" fill="black" font-size="13.617" font-family="Helvetica">80</text>
<text xml:space="preserve" x="407.581" y="385.768" fill="black" font-size="13.617" font-family="Helvetica">centrality(%)</text>
<path d="M85.5394,20.4251h 396.85" fill="none" stroke="black"/>
<path d="M85.5394,29.0036v -8.57853" fill="none" stroke="black"/>
<path d="M95.4606,24.7143v -4.28927" fill="none" stroke="black"/>
<path d="M105.382,24.7143v -4.28927" fill="none" stroke="black"/>
<path d="M115.303,24.7143v -4.28927" fill="none" stroke="black"/>
<path d="M125.224,24.7143v -4.28927" fill="none" stroke="black"/>
<path d="M135.146,29.0036v -8.57853" fill="none" stroke="black"/>
<path d="M145.067,24.7143v -4.28927" fill="none" stroke="black"/>
<path d="M154.988,24.7143v -4.28927" fill="none" stroke="black"/>
<path d="M164.909,24.7143v -4.28927" fill="none" stroke="black"/>
<path d="M174.831,24.7143v -4.28927" fill="none" stroke="black"/>
<path d="M184.752,29.0036v -8.57853" fill="none" stroke="black"/>
<path d="M194.673,24.7143v -4.28927" fill="none" stroke="black"/>
<path d="M204.594,24.7143v -4.28927" fill="none" stroke="black"/>
<path d="M214.516,24.7143v -4.28927" fill="none" stroke="black"/>
<path d="M224.437,24.7143v -4.28927" fill="none" stroke="black"/>
<path d="M234.358,29.0036v -8.57853" fill="none" stroke="black"/>
<path d="M244.28,24.7143v -4.28927" fill="none" stroke="black"/>
<path d="M254.201,24.7143v -4.28927" fill="none" stroke="black"/>
<path d="M264.122,24.7143v -4.28927" fill="none" stroke="black"/>
<path d="M274.043,24.7143v -4.28927" fill="none" stroke="black"/>
<path d="M283.965,29.0036v -8.57853" fill="none" stroke="black"/>
<path d="M293.886,24.7143v -4.28927" fill="none" stroke="black"/>
<path d="M303.807,24.7143v -4.28927" fill="none" stroke="black"/>
<path d="M313.728,24.7143v -4.28927" fill="none" stroke="black"/>
<path d="M323.65,24.7143v -4.28927" fill="none" stroke="black"/>
<path d="M333.571,29.0036v -8.57853" fill="none" stroke="black"/>
<path d="M343.492,24.7143v -4.28927" fill="none" stroke="black"/>
<path d="M353.413,24.7143v -4.28927" fill="none" stroke="black"/>
<path d="M363.335,24.7143v -4.28927" fill="none" stroke="black"/>
<path d="M373.256,24.7143v -4.28927" fill="none" stroke="black"/>
<path d="M383.177,29.0036v -8.57853" fill="none" stroke="black"/>
<path d="M393.098,24.7143v -4.28927" fill="none" stroke="black"/>
<path d="M403.02,24.7143v -4.28927" fill="none" stroke="black"/>
<path d="M412.941,24.7143v -4.28927" fill="none" stroke="black"/>
<path d="M422.862,24.7143v -4.28927" fill="none" stroke="black"/>
<path d="M432.783,29.0036v -8.57853" fill="none" stroke="black"/>
<path d="M442.705,24.7143v -4.28927" fill="none" stroke="black"/>
<path d="M452.626,24.7143v -4.28927" fill="none" stroke="black"/>
<path d="M462.547,24.7143v -4.28927" fill="none" stroke="black"/>
<path d="M472.469,24.7143v -4.28927" fill="none" stroke="black"/>
<path d="M482.39,29.0036v -8.57853" fill="none" stroke="black"/>
<path d="M85.5394,359.481v -339.056" fill="none" stroke="black"/>
<path d="M99.6559,359.481h -14.1165" fill="none" stroke="black"/>
<path d="M92.5976,352.7h -7.05827" fill="none" stroke="black"/>
<path d="M92.5976,345.919h -7.05827" fill="none" stroke="black"/>
<path d="M92.5976,339.138h -7.05827" fill="none" stroke="black"/>
<path d="M92.5976,332.357h -7.05827" fill="none" stroke="black"/>
<path d="M99.6559,325.576h -14.1165" fill="none" stroke="black"/>
<path d="M92.5976,318.795h -7.05827" fill="none" stroke="black"/>
<path d="M92.5976,312.014h -7.05827" fill="none" stroke="black"/>
<path d="M92.5976,305.232h -7.05827" fill="none" stroke="black"/>
<path d="M92.5976,298.451h -7.05827" fill="none" stroke="black"/>
<path d="M99.6559,291.67h -14.1165" fill="none" stroke="black"/>
<path d="M92.5976,284.889h -7.05827" fill="none" stroke="black"/>
<path d="M92.5976,278.108h -7.05827" fill="none" stroke="black"/>
<path d="M92.5976,271.327h -7.05827" fill="none" stroke="black"/>
<path d="M92.5976,264.546h -7.05827" fill="none" stroke="black"/>
<path d="M99.6559,257.764h -14.1165" fill="none" stroke="black"/>
<path d="M92.5976,250.983h -7.05827" fill="none" stroke="black"/>
<path d="M92.5976,244.202h -7.05827" fill="none" stroke="black"/>
<path d="M92.5976,237.421h -7.05827" fill="none" stroke="black"/>
<path d="M92.5976,230.64h -7.05827" fill="none" stroke="black"/>
<path d="M99.6559,223.859h -14.1165" fill="none" stroke="black"/>
<path d="M92.5976,217.078h -7.05827" fill="none" stroke="black"/>
<path d="M92.5976,210.297h -7.05827" fill="none" stroke="black"/>
<path d="M92.5976,203.515h -7.05827" fill="none" stroke="black"/>
<path d="M92.5976,196.734h -7.05827" fill="none" stroke="black"/>
<path d="M99.6559,189.953h -14.1165" fill="none" stroke="black"/>
<path d="M92.5976,183.172h -7.05827" fill="none" stroke="black"/>
<path d="M92.5976,176.391h -7.05827" fill="none" stroke="black"/>
<path d="M92.5976,169.61h -7.05827" fill="none" stroke="black"/>
<path d="M92.5976,162.829h -7.05827" fill="none" stroke="black"/>
<path d="M99.6559,156.048h -14.1165" fill="none" stroke="black"/>
<path d="M92.5976,149.266h -7.05827" fill="none" stroke="black"/>
<path d="M92.5976,142.485h -7.05827" fill="none" stroke="black"/>
<path d="M92.5976,135.704h -7.05827" fill="none" stroke="black"/>
<path d="M92.5976,128.923h -7.05827" fill="none" stroke="black"/>
<path d="M99.6559,122.142h -14.1165" fill="none" stroke="black"/>
<path d="M92.5976,115.361h -7.05827" fill="none" stroke="black"/>
<path d="M92.5976,108.58h -7.05827" fill="none" stroke="black"/>
<path d="M92.5976,101.799h -7.05827" fill="none" stroke="black"/>
<path d="M92.5976,95.0175h -7.05827" fill="none" stroke="black"/>
<path d="M99.6559,88.2363h -14.1165" fill="none" stroke="black"/>
<path d="M92.5976,81.4552h -7.05827" fill="none" stroke="black"/>
<path d="M92.5976,74.6741h -7.05827" fill="none" stroke="black"/>
<path d="M92.5976,67.893h -7.05827" fill="none" stroke="black"/>
<path d="M92.5976,61.1118h -7.05827" fill="none" stroke="black"/>
<path d="M99.6559,54.3307h -14.1165" fill="none" stroke="black"/>
<path d="M92.5976,47.5496h -7.05827" fill="none" stroke="black"/>
<path d="M92.5976,40.7685h -7.05827" fill="none" stroke="black"/>
<path d="M92.5976,33.9873h -7.05827" fill="none" stroke="black"/>
<path d="M92.5976,27.2062h -7.05827" fill="none" stroke="black"/>
<path d="M99.6559,20.4251h -14.1165" fill="none" stroke="black"/>
<text xml:space="preserve" x="75.0959" y="364.454" fill="black" font-size="13.617" font-family="Helvetica">0</text>
<text xml:space="preserve" x="63.7289" y="330.353" fill="black" font-size="13.617" font-family="Helvetica">0.5</text>
<text xml:space="preserve" x="77.2272" y="296.963" fill="black" font-size="13.617" font-family="Helvetica">1</text>
<text xml:space="preserve" x="63.7289" y="262.151" fill="black" font-size="13.617" font-family="Helvetica">1.5</text>
<text xml:space="preserve" x="75.0959" y="229.471" fill="black" font-size="13.617" font-family="Helvetica">2</text>
<text xml:space="preserve" x="63.7289" y="194.66" fill="black" font-size="13.617" font-family="Helvetica">2.5</text>
<text xml:space="preserve" x="75.0959" y="160.559" fill="black" font-size="13.617" font-family="Helvetica">3</text>
<text xml:space="preserve" x="63.7289" y="126.458" fill="black" font-size="13.617" font-family="Helvetica">3.5</text>
<text xml:space="preserve" x="75.0959" y="93.7778" fill="black" font-size="13.617" font-family="Helvetica">4</text>
<text xml:space="preserve" x="63.7289" y="58.9663" fill="black" font-size="13.617" font-family="Helvetica">4.5</text>
<text xml:space="preserve" x="75.0959" y="24.8653" fill="black" font-size="13.617" font-family="Helvetica">5</text>
<g transform="rotate(-90,50.9411,24.1549)">
<text xml:space="preserve" x="50.9411" y="24.1549" fill="black" font-size="13.617" font-family="Times">&#0062;</text>
</g>
<g transform="rotate(-90,57.335,37.6532)">
<text xml:space="preserve" x="57.335" y="37.6532" fill="black" font-size="9.24468" font-family="Helvetica">coll</text>
</g>
<g transform="rotate(-90,50.9411,46.8889)">
<text xml:space="preserve" x="50.9411" y="46.8889" fill="black" font-size="13.617" font-family="Helvetica">N</text>
</g>
<g transform="rotate(-90,50.9411,51.1515)">
<text xml:space="preserve" x="50.9411" y="51.1515" fill="black" font-size="13.617" font-family="Times">&#0060;</text>
</g>
<g transform="rotate(-90,50.9411,56.1246)">
<text xml:space="preserve" x="50.9411" y="56.1246" fill="black" font-size="13.617" font-family="Helvetica">/</text>
</g>
<g transform="rotate(-90,40.2845,59.6768)">
<text xml:space="preserve" x="40.2845" y="59.6768" fill="black" font-size="6.32979" font-family="Helvetica">0</text>
</g>
<g transform="rotate(-90,43.8367,64.6498)">
<text xml:space="preserve" x="43.8367" y="64.6498" fill="black" font-size="9.24468" font-family="Times">&#0960;</text>
</g>
<g transform="rotate(-90,50.9411,73.8855)">
<text xml:space="preserve" x="50.9411" y="73.8855" fill="black" font-size="13.617" font-family="Helvetica">Y</text>
</g>
<path d="M482.39,359.481v -339.056" fill="none" stroke="black"/>
<path d="M468.273,359.481h 14.1165" fill="none" stroke="black"/>
<path d="M475.332,352.7h 7.05827" fill="none" stroke="black"/>
<path d="M475.332,345.919h 7.05827" fill="none" stroke="black"/>
<path d="M475.332,339.138h 7.05827" fill="none" stroke="black"/>
<path d="M475.332,332.357h 7.05827" fill="none" stroke="black"/>
<path d="M468.273,325.576h 14.1165" fill="none" stroke="black"/>
<path d="M475.332,318.795h 7.05827" fill="none" stroke="black"/>
<path d="M475.332,312.014h 7.05827" fill="none" stroke="black"/>
<path d="M475.332,305.232h 7.05827" fill="none" stroke="black"/>
<path d="M475.332,298.451h 7.05827" fill="none" stroke="black"/>
<path d="M468.273,291.67h 14.1165" fill="none" stroke="black"/>
<path d="M475.332,284.889h 7.05827" fill="none" stroke="black"/>
<path d="M475.332,278.108h 7.05827" fill="none" stroke="black"/>
<path d="M475.332,271.327h 7.05827" fill="none" stroke="black"/>
<path d="M475.332,264.546h 7.05827" fill="none" stroke="black"/>
<path d="M468.273,257.764h 14.1165" fill="none" stroke="black"/>
<path d="M475.332,250.983h 7.05827" fill="none" stroke="black"/>
<path d="M475.332,244.202h 7.05827" fill="none" stroke="black"/>
<path d="M475.332,237.421h 7.05827" fill="none" stroke="black"/>
<path d="M475.332,230.64h 7.05827" fill="none" stroke="black"/>
<path d="M468.273,223.859h 14.1165" fill="none" stroke="black"/>
<path d="M475.332,217.078h 7.05827" fill="none" stroke="black"/>
<path d="M475.332,210.297h 7.05827" fill="none" stroke="black"/>
<path d="M475.332,203.515h 7.05827" fill="none" stroke="black"/>
<path d="M475.332,196.734h 7.05827" fill="none" stroke="black"/>
<path d="M468.273,189.953h 14.1165" fill="none" stroke="black"/>
<path d="M475.332,183.172h 7.05827" fill="none" stroke="black"/>
<path d="M475.332,176.391h 7.05827" fill="none" stroke="black"/>
<path d="M475.332,169.61h 7.05827" fill="none" stroke="black"/>
<path d="M475.332,162.829h 7.05827" fill="none" stroke="black"/>
<path d="M468.273,156.048h 14.1165" fill="none" stroke="black"/>
<path d="M475.332,149.266h 7.05827" fill="none" stroke="black"/>
<path d="M475.332,142.485h 7.05827" fill="none" stroke="black"/>
<path d="M475.332,135.704h 7.05827" fill="none" stroke="black"/>
<path d="M475.332,128.923h 7.05827" fill="none" stroke="black"/>
<path d="M468.273,122.142h 14.1165" fill="none" stroke="black"/>
<path d="M475.332,115.361h 7.05827" fill="none" stroke="black"/>
<path d="M475.332,108.58h 7.05827" fill="none" stroke="black"/>
<path d="M475.332,101.799h 7.05827" fill="none" stroke="black"/>
<path d="M475.332,95.0175h 7.05827" fill="none" stroke="black"/>
<path d="M468.273,88.2363h 14.1165" fill="none" stroke="black"/>
<path d="M475.332,81.4552h 7.05827" fill="none" stroke="black"/>
<path d="M475.332,74.6741h 7.05827" fill="none" stroke="black"/>
<path d="M475.332,67.893h 7.05827" fill="none" stroke="black"/>
<path d="M475.332,61.1118h 7.05827" fill="none" stroke="black"/>
<path d="M468.273,54.3307h 14.1165" fill="none" stroke="black"/>
<path d="M475.332,47.5496h 7.05827" fill="none" stroke="black"/>
<path d="M475.332,40.7685h 7.05827" fill="none" stroke="black"/>
<path d="M475.332,33.9873h 7.05827" fill="none" stroke="black"/>
<path d="M475.332,27.2062h 7.05827" fill="none" stroke="black"/>
<path d="M468.273,20.4251h 14.1165" fill="none" stroke="black"/>
<path d="M85.5394,280.617h 23.3823" fill="none" stroke="black"/>
<path d="M111.763,280.617h 23.3823" fill="none" stroke="black"/>
<g fill="black">
<polygon points=" 110.343, 282.052 108.922, 283.459 107.501, 282.038 108.922, 280.617 107.501, 279.196 108.922, 277.775 110.343, 279.196 111.763, 277.775 113.184, 279.196 111.763, 280.617 113.184, 282.038 111.763, 283.459 110.343, 282.023 111.749,
 280.617 110.343, 279.21 108.936, 280.617 110.343, 282.023"/>
</g>
<path d="M135.146,279.463h 23.3823" fill="none" stroke="black"/>
<path d="M161.37,279.463h 23.3823" fill="none" stroke="black"/>
<g fill="black">
<polygon points=" 159.949, 280.898 158.528, 282.305 157.107, 280.884 158.528, 279.463 157.107, 278.042 158.528, 276.621 159.949, 278.042 161.37, 276.621 162.791, 278.042 161.37, 279.463 162.791, 280.884 161.37, 282.305 159.949, 280.87 161.355,
 279.463 159.949, 278.056 158.542, 279.463 159.949, 280.87"/>
</g>
<path d="M184.752,277.584h 48.1854" fill="none" stroke="black"/>
<path d="M235.779,277.584h 48.1854" fill="none" stroke="black"/>
<g fill="black">
<polygon points=" 234.358, 279.019 232.937, 280.426 231.517, 279.005 232.937, 277.584 231.517, 276.163 232.937, 274.742 234.358, 276.163 235.779, 274.742 237.2, 276.163 235.779, 277.584 237.2, 279.005 235.779, 280.426 234.358, 278.991 235.765,
 277.584 234.358, 276.177 232.952, 277.584 234.358, 278.991"/>
</g>
<path d="M283.965,273.372h 48.1854" fill="none" stroke="black"/>
<path d="M334.992,273.372h 48.1854" fill="none" stroke="black"/>
<g fill="black">
<polygon points=" 333.571, 274.807 332.15, 276.214 330.729, 274.793 332.15, 273.372 330.729, 271.951 332.15, 270.53 333.571, 271.951 334.992, 270.53 336.413, 271.951 334.992, 273.372 336.413, 274.793 334.992, 276.214 333.571, 274.779 334.978, 273.372
 333.571, 271.965 332.164, 273.372 333.571, 274.779"/>
</g>
<path d="M383.177,264.737h 48.1854" fill="none" stroke="black"/>
<path d="M434.204,264.737h 48.1854" fill="none" stroke="black"/>
<g fill="black">
<polygon points=" 432.783, 266.172 431.363, 267.579 429.942, 266.158 431.363, 264.737 429.942, 263.316 431.363, 261.895 432.783, 263.316 434.204, 261.895 435.625, 263.316 434.204, 264.737 435.625, 266.158 434.204, 267.579 432.783, 266.143 434.19,
 264.737 432.783, 263.33 431.377, 264.737 432.783, 266.143"/>
</g>
<text xml:space="preserve" x="287.517" y="46.8889" fill="black" font-size="11.7432" font-family="Helvetica">PYTHIA8, option3</text>
<text xml:space="preserve" x="287.517" y="77.4377" fill="black" font-size="11.7432" font-family="Helvetica">p+Au, 200 GeV</text>
<text xml:space="preserve" x="368.507" y="106.566" fill="black" font-size="11.7432" font-family="Helvetica"> 1</text>
<text xml:space="preserve" x="364.954" y="106.566" fill="black" font-size="11.7432" font-family="Times">&#0060;</text>
<text xml:space="preserve" x="359.271" y="106.566" fill="black" font-size="11.7432" font-family="Helvetica">| </text>
<text xml:space="preserve" x="352.877" y="106.566" fill="black" font-size="11.7432" font-family="Times">&#0951;</text>
<text xml:space="preserve" x="308.83" y="106.566" fill="black" font-size="11.7432" font-family="Helvetica"> 2 GeV, |</text>
<text xml:space="preserve" x="302.436" y="106.566" fill="black" font-size="11.7432" font-family="Times">&#8804;</text>
<text xml:space="preserve" x="298.884" y="106.566" fill="black" font-size="11.7432" font-family="Helvetica"> </text>
<text xml:space="preserve" x="293.911" y="113.67" fill="black" font-size="7.99544" font-family="Helvetica">T</text>
<text xml:space="preserve" x="287.517" y="106.566" fill="black" font-size="11.7432" font-family="Helvetica">p</text>
<text xml:space="preserve" x="287.517" y="139.246" fill="black" font-size="11.7432" font-family="Helvetica">present analysis method applied</text></svg>
