<?xml version="1.0" standalone="no"?>
<svg width="567.429" height="409.002" viewBox="0 0 567.429 409.002" xmlns="http://www.w3.org/2000/svg" shape-rendering="crispEdges">
<title>
/Users/jinhyunpark/npl/gitHub/Centrality_dependent_BiasCorrection/plots/plots_NcollDistribution/avgNcollByCent.svg
</title>
<desc>
Creator: ROOT Version 6.28/04
CreationDate: Fri Oct 20 20:46:02 2023</desc>
<defs>
</defs>
<rect x="0.5" y="0" width="566.929" height="408.502" fill="white"/>
<rect x="85.5394" y="20.4251" width="396.85" height="339.056" fill="white"/>
<rect x="85.5394" y="20.4251" width="396.85" height="339.056" fill="none" stroke="black"/>
<rect x="85.5394" y="20.4251" width="396.85" height="339.056" fill="white"/>
<rect x="85.5394" y="20.4251" width="396.85" height="339.056" fill="none" stroke="black"/>
<path d="M85.5394,359.481h 396.85" fill="none" stroke="black"/>
<path d="M85.5394,350.903v 8.57853" fill="none" stroke="black"/>
<path d="M95.4606,355.192v 4.28927" fill="none" stroke="black"/>
<path d="M105.382,355.192v 4.28927" fill="none" stroke="black"/>
<path d="M115.303,355.192v 4.28927" fill="none" stroke="black"/>
<path d="M125.224,355.192v 4.28927" fill="none" stroke="black"/>
<path d="M135.146,350.903v 8.57853" fill="none" stroke="black"/>
<path d="M145.067,355.192v 4.28927" fill="none" stroke="black"/>
<path d="M154.988,355.192v 4.28927" fill="none" stroke="black"/>
<path d="M164.909,355.192v 4.28927" fill="none" stroke="black"/>
<path d="M174.831,355.192v 4.28927" fill="none" stroke="black"/>
<path d="M184.752,350.903v 8.57853" fill="none" stroke="black"/>
<path d="M194.673,355.192v 4.28927" fill="none" stroke="black"/>
<path d="M204.594,355.192v 4.28927" fill="none" stroke="black"/>
<path d="M214.516,355.192v 4.28927" fill="none" stroke="black"/>
<path d="M224.437,355.192v 4.28927" fill="none" stroke="black"/>
<path d="M234.358,350.903v 8.57853" fill="none" stroke="black"/>
<path d="M244.28,355.192v 4.28927" fill="none" stroke="black"/>
<path d="M254.201,355.192v 4.28927" fill="none" stroke="black"/>
<path d="M264.122,355.192v 4.28927" fill="none" stroke="black"/>
<path d="M274.043,355.192v 4.28927" fill="none" stroke="black"/>
<path d="M283.965,350.903v 8.57853" fill="none" stroke="black"/>
<path d="M293.886,355.192v 4.28927" fill="none" stroke="black"/>
<path d="M303.807,355.192v 4.28927" fill="none" stroke="black"/>
<path d="M313.728,355.192v 4.28927" fill="none" stroke="black"/>
<path d="M323.65,355.192v 4.28927" fill="none" stroke="black"/>
<path d="M333.571,350.903v 8.57853" fill="none" stroke="black"/>
<path d="M343.492,355.192v 4.28927" fill="none" stroke="black"/>
<path d="M353.413,355.192v 4.28927" fill="none" stroke="black"/>
<path d="M363.335,355.192v 4.28927" fill="none" stroke="black"/>
<path d="M373.256,355.192v 4.28927" fill="none" stroke="black"/>
<path d="M383.177,350.903v 8.57853" fill="none" stroke="black"/>
<path d="M393.098,355.192v 4.28927" fill="none" stroke="black"/>
<path d="M403.02,355.192v 4.28927" fill="none" stroke="black"/>
<path d="M412.941,355.192v 4.28927" fill="none" stroke="black"/>
<path d="M422.862,355.192v 4.28927" fill="none" stroke="black"/>
<path d="M432.783,350.903v 8.57853" fill="none" stroke="black"/>
<path d="M442.705,355.192v 4.28927" fill="none" stroke="black"/>
<path d="M452.626,355.192v 4.28927" fill="none" stroke="black"/>
<path d="M462.547,355.192v 4.28927" fill="none" stroke="black"/>
<path d="M472.469,355.192v 4.28927" fill="none" stroke="black"/>
<path d="M482.39,350.903v 8.57853" fill="none" stroke="black"/>
<text xml:space="preserve" x="81.4899" y="372.269" fill="black" font-size="13.617" font-family="Helvetica">0</text>
<text xml:space="preserve" x="126.958" y="372.269" fill="black" font-size="13.617" font-family="Helvetica">10</text>
<text xml:space="preserve" x="176.689" y="372.269" fill="black" font-size="13.617" font-family="Helvetica">20</text>
<text xml:space="preserve" x="226.419" y="372.269" fill="black" font-size="13.617" font-family="Helvetica">30</text>
<text xml:space="preserve" x="276.15" y="372.269" fill="black" font-size="13.617" font-family="Helvetica">40</text>
<text xml:space="preserve" x="325.17" y="372.269" fill="black" font-size="13.617" font-family="Helvetica">50</text>
<text xml:space="preserve" x="374.901" y="372.269" fill="black" font-size="13.617" font-family="Helvetica">60</text>
<text xml:space="preserve" x="424.631" y="372.269" fill="black" font-size="13.617" font-family="Helvetica">70</text>
<text xml:space="preserve" x="474.362" y="372.269" fill="black" font-size="13.617" font-family="Helvetica">80</text>
<text xml:space="preserve" x="407.581" y="385.768" fill="black" font-size="13.617" font-family="Helvetica">centrality(%)</text>
<path d="M85.5394,20.4251h 396.85" fill="none" stroke="black"/>
<path d="M85.5394,29.0036v -8.57853" fill="none" stroke="black"/>
<path d="M95.4606,24.7143v -4.28927" fill="none" stroke="black"/>
<path d="M105.382,24.7143v -4.28927" fill="none" stroke="black"/>
<path d="M115.303,24.7143v -4.28927" fill="none" stroke="black"/>
<path d="M125.224,24.7143v -4.28927" fill="none" stroke="black"/>
<path d="M135.146,29.0036v -8.57853" fill="none" stroke="black"/>
<path d="M145.067,24.7143v -4.28927" fill="none" stroke="black"/>
<path d="M154.988,24.7143v -4.28927" fill="none" stroke="black"/>
<path d="M164.909,24.7143v -4.28927" fill="none" stroke="black"/>
<path d="M174.831,24.7143v -4.28927" fill="none" stroke="black"/>
<path d="M184.752,29.0036v -8.57853" fill="none" stroke="black"/>
<path d="M194.673,24.7143v -4.28927" fill="none" stroke="black"/>
<path d="M204.594,24.7143v -4.28927" fill="none" stroke="black"/>
<path d="M214.516,24.7143v -4.28927" fill="none" stroke="black"/>
<path d="M224.437,24.7143v -4.28927" fill="none" stroke="black"/>
<path d="M234.358,29.0036v -8.57853" fill="none" stroke="black"/>
<path d="M244.28,24.7143v -4.28927" fill="none" stroke="black"/>
<path d="M254.201,24.7143v -4.28927" fill="none" stroke="black"/>
<path d="M264.122,24.7143v -4.28927" fill="none" stroke="black"/>
<path d="M274.043,24.7143v -4.28927" fill="none" stroke="black"/>
<path d="M283.965,29.0036v -8.57853" fill="none" stroke="black"/>
<path d="M293.886,24.7143v -4.28927" fill="none" stroke="black"/>
<path d="M303.807,24.7143v -4.28927" fill="none" stroke="black"/>
<path d="M313.728,24.7143v -4.28927" fill="none" stroke="black"/>
<path d="M323.65,24.7143v -4.28927" fill="none" stroke="black"/>
<path d="M333.571,29.0036v -8.57853" fill="none" stroke="black"/>
<path d="M343.492,24.7143v -4.28927" fill="none" stroke="black"/>
<path d="M353.413,24.7143v -4.28927" fill="none" stroke="black"/>
<path d="M363.335,24.7143v -4.28927" fill="none" stroke="black"/>
<path d="M373.256,24.7143v -4.28927" fill="none" stroke="black"/>
<path d="M383.177,29.0036v -8.57853" fill="none" stroke="black"/>
<path d="M393.098,24.7143v -4.28927" fill="none" stroke="black"/>
<path d="M403.02,24.7143v -4.28927" fill="none" stroke="black"/>
<path d="M412.941,24.7143v -4.28927" fill="none" stroke="black"/>
<path d="M422.862,24.7143v -4.28927" fill="none" stroke="black"/>
<path d="M432.783,29.0036v -8.57853" fill="none" stroke="black"/>
<path d="M442.705,24.7143v -4.28927" fill="none" stroke="black"/>
<path d="M452.626,24.7143v -4.28927" fill="none" stroke="black"/>
<path d="M462.547,24.7143v -4.28927" fill="none" stroke="black"/>
<path d="M472.469,24.7143v -4.28927" fill="none" stroke="black"/>
<path d="M482.39,29.0036v -8.57853" fill="none" stroke="black"/>
<path d="M85.5394,359.481v -339.056" fill="none" stroke="black"/>
<path d="M99.6559,359.481h -14.1165" fill="none" stroke="black"/>
<path d="M92.5976,349.794h -7.05827" fill="none" stroke="black"/>
<path d="M92.5976,340.107h -7.05827" fill="none" stroke="black"/>
<path d="M92.5976,330.419h -7.05827" fill="none" stroke="black"/>
<path d="M92.5976,320.732h -7.05827" fill="none" stroke="black"/>
<path d="M99.6559,311.045h -14.1165" fill="none" stroke="black"/>
<path d="M92.5976,301.357h -7.05827" fill="none" stroke="black"/>
<path d="M92.5976,291.67h -7.05827" fill="none" stroke="black"/>
<path d="M92.5976,281.983h -7.05827" fill="none" stroke="black"/>
<path d="M92.5976,272.295h -7.05827" fill="none" stroke="black"/>
<path d="M99.6559,262.608h -14.1165" fill="none" stroke="black"/>
<path d="M92.5976,252.921h -7.05827" fill="none" stroke="black"/>
<path d="M92.5976,243.234h -7.05827" fill="none" stroke="black"/>
<path d="M92.5976,233.546h -7.05827" fill="none" stroke="black"/>
<path d="M92.5976,223.859h -7.05827" fill="none" stroke="black"/>
<path d="M99.6559,214.172h -14.1165" fill="none" stroke="black"/>
<path d="M92.5976,204.484h -7.05827" fill="none" stroke="black"/>
<path d="M92.5976,194.797h -7.05827" fill="none" stroke="black"/>
<path d="M92.5976,185.11h -7.05827" fill="none" stroke="black"/>
<path d="M92.5976,175.422h -7.05827" fill="none" stroke="black"/>
<path d="M99.6559,165.735h -14.1165" fill="none" stroke="black"/>
<path d="M92.5976,156.048h -7.05827" fill="none" stroke="black"/>
<path d="M92.5976,146.36h -7.05827" fill="none" stroke="black"/>
<path d="M92.5976,136.673h -7.05827" fill="none" stroke="black"/>
<path d="M92.5976,126.986h -7.05827" fill="none" stroke="black"/>
<path d="M99.6559,117.298h -14.1165" fill="none" stroke="black"/>
<path d="M92.5976,107.611h -7.05827" fill="none" stroke="black"/>
<path d="M92.5976,97.9237h -7.05827" fill="none" stroke="black"/>
<path d="M92.5976,88.2363h -7.05827" fill="none" stroke="black"/>
<path d="M92.5976,78.549h -7.05827" fill="none" stroke="black"/>
<path d="M99.6559,68.8617h -14.1165" fill="none" stroke="black"/>
<path d="M92.5976,59.1744h -7.05827" fill="none" stroke="black"/>
<path d="M92.5976,49.487h -7.05827" fill="none" stroke="black"/>
<path d="M92.5976,39.7997h -7.05827" fill="none" stroke="black"/>
<path d="M92.5976,30.1124h -7.05827" fill="none" stroke="black"/>
<path d="M99.6559,20.4251h -14.1165" fill="none" stroke="black"/>
<text xml:space="preserve" x="75.0959" y="364.454" fill="black" font-size="13.617" font-family="Helvetica">3</text>
<text xml:space="preserve" x="75.0959" y="316.145" fill="black" font-size="13.617" font-family="Helvetica">4</text>
<text xml:space="preserve" x="75.0959" y="267.125" fill="black" font-size="13.617" font-family="Helvetica">5</text>
<text xml:space="preserve" x="75.0959" y="218.815" fill="black" font-size="13.617" font-family="Helvetica">6</text>
<text xml:space="preserve" x="75.0959" y="171.215" fill="black" font-size="13.617" font-family="Helvetica">7</text>
<text xml:space="preserve" x="75.0959" y="122.195" fill="black" font-size="13.617" font-family="Helvetica">8</text>
<text xml:space="preserve" x="75.0959" y="73.1751" fill="black" font-size="13.617" font-family="Helvetica">9</text>
<text xml:space="preserve" x="67.2811" y="24.8653" fill="black" font-size="13.617" font-family="Helvetica">10</text>
<g transform="rotate(-90,53.0724,24.1549)">
<text xml:space="preserve" x="53.0724" y="24.1549" fill="black" font-size="13.617" font-family="Times">&#0062;</text>
</g>
<g transform="rotate(-90,59.4663,37.6532)">
<text xml:space="preserve" x="59.4663" y="37.6532" fill="black" font-size="9.24468" font-family="Helvetica">coll</text>
</g>
<g transform="rotate(-90,53.0724,46.8889)">
<text xml:space="preserve" x="53.0724" y="46.8889" fill="black" font-size="13.617" font-family="Helvetica">N</text>
</g>
<g transform="rotate(-90,53.0724,51.1515)">
<text xml:space="preserve" x="53.0724" y="51.1515" fill="black" font-size="13.617" font-family="Times">&#0060;</text>
</g>
<path d="M482.39,359.481v -339.056" fill="none" stroke="black"/>
<path d="M468.273,359.481h 14.1165" fill="none" stroke="black"/>
<path d="M475.332,349.794h 7.05827" fill="none" stroke="black"/>
<path d="M475.332,340.107h 7.05827" fill="none" stroke="black"/>
<path d="M475.332,330.419h 7.05827" fill="none" stroke="black"/>
<path d="M475.332,320.732h 7.05827" fill="none" stroke="black"/>
<path d="M468.273,311.045h 14.1165" fill="none" stroke="black"/>
<path d="M475.332,301.357h 7.05827" fill="none" stroke="black"/>
<path d="M475.332,291.67h 7.05827" fill="none" stroke="black"/>
<path d="M475.332,281.983h 7.05827" fill="none" stroke="black"/>
<path d="M475.332,272.295h 7.05827" fill="none" stroke="black"/>
<path d="M468.273,262.608h 14.1165" fill="none" stroke="black"/>
<path d="M475.332,252.921h 7.05827" fill="none" stroke="black"/>
<path d="M475.332,243.234h 7.05827" fill="none" stroke="black"/>
<path d="M475.332,233.546h 7.05827" fill="none" stroke="black"/>
<path d="M475.332,223.859h 7.05827" fill="none" stroke="black"/>
<path d="M468.273,214.172h 14.1165" fill="none" stroke="black"/>
<path d="M475.332,204.484h 7.05827" fill="none" stroke="black"/>
<path d="M475.332,194.797h 7.05827" fill="none" stroke="black"/>
<path d="M475.332,185.11h 7.05827" fill="none" stroke="black"/>
<path d="M475.332,175.422h 7.05827" fill="none" stroke="black"/>
<path d="M468.273,165.735h 14.1165" fill="none" stroke="black"/>
<path d="M475.332,156.048h 7.05827" fill="none" stroke="black"/>
<path d="M475.332,146.36h 7.05827" fill="none" stroke="black"/>
<path d="M475.332,136.673h 7.05827" fill="none" stroke="black"/>
<path d="M475.332,126.986h 7.05827" fill="none" stroke="black"/>
<path d="M468.273,117.298h 14.1165" fill="none" stroke="black"/>
<path d="M475.332,107.611h 7.05827" fill="none" stroke="black"/>
<path d="M475.332,97.9237h 7.05827" fill="none" stroke="black"/>
<path d="M475.332,88.2363h 7.05827" fill="none" stroke="black"/>
<path d="M475.332,78.549h 7.05827" fill="none" stroke="black"/>
<path d="M468.273,68.8617h 14.1165" fill="none" stroke="black"/>
<path d="M475.332,59.1744h 7.05827" fill="none" stroke="black"/>
<path d="M475.332,49.487h 7.05827" fill="none" stroke="black"/>
<path d="M475.332,39.7997h 7.05827" fill="none" stroke="black"/>
<path d="M475.332,30.1124h 7.05827" fill="none" stroke="black"/>
<path d="M468.273,20.4251h 14.1165" fill="none" stroke="black"/>
<path d="M85.5394,67.866h 21.9614" fill="none" stroke="#ff0000"/>
<path d="M113.184,67.866h 21.9614" fill="none" stroke="#ff0000"/>
<g stroke="#ff0000" stroke-width="1" fill="none">
<rect x="107.501" y="65.0243" width="5.6835" height="5.6835"/>
</g>
<path d="M135.146,132.175h 21.9614" fill="none" stroke="#ff0000"/>
<path d="M162.791,132.175h 21.9614" fill="none" stroke="#ff0000"/>
<g stroke="#ff0000" stroke-width="1" fill="none">
<rect x="157.107" y="129.333" width="5.6835" height="5.6835"/>
</g>
<path d="M184.752,188.828h 46.7645" fill="none" stroke="#ff0000"/>
<path d="M237.2,188.828h 46.7645" fill="none" stroke="#ff0000"/>
<g stroke="#ff0000" stroke-width="1" fill="none">
<rect x="231.517" y="185.986" width="5.6835" height="5.6835"/>
</g>
<path d="M283.965,260.465h 46.7645" fill="none" stroke="#ff0000"/>
<path d="M336.413,260.465h 46.7645" fill="none" stroke="#ff0000"/>
<g stroke="#ff0000" stroke-width="1" fill="none">
<rect x="330.729" y="257.623" width="5.6835" height="5.6835"/>
</g>
<path d="M383.177,337.43h 46.7645" fill="none" stroke="#ff0000"/>
<path d="M435.625,337.43h 46.7645" fill="none" stroke="#ff0000"/>
<g stroke="#ff0000" stroke-width="1" fill="none">
<rect x="429.942" y="334.589" width="5.6835" height="5.6835"/>
</g>
<text xml:space="preserve" x="259.81" y="43.3367" fill="black" font-size="15.4909" font-family="Helvetica">PYTHIA8, option3</text>
<text xml:space="preserve" x="259.81" y="63.2289" fill="black" font-size="15.4909" font-family="Helvetica">p+Au, 200 GeV</text>
<text xml:space="preserve" x="438.13" y="80.9899" fill="black" font-size="11.7432" font-family="Helvetica">(stat)</text>
<text xml:space="preserve" x="431.025" y="74.5959" fill="black" font-size="7.99544" font-family="Helvetica">-5</text>
<text xml:space="preserve" x="415.396" y="80.9899" fill="black" font-size="11.7432" font-family="Helvetica"> 10</text>
<text xml:space="preserve" x="409.002" y="80.9899" fill="black" font-size="11.7432" font-family="Times">&#0215;</text>
<text xml:space="preserve" x="380.584" y="80.9899" fill="black" font-size="11.7432" font-family="Helvetica"> 7.45 </text>
<text xml:space="preserve" x="374.19" y="80.9899" fill="black" font-size="11.7432" font-family="Times">&#0177;</text>
<text xml:space="preserve" x="316.645" y="80.9899" fill="black" font-size="11.7432" font-family="Helvetica"> = 9.02056 </text>
<text xml:space="preserve" x="291.779" y="85.9629" fill="black" font-size="7.99544" font-family="Helvetica">0~10%</text>
<text xml:space="preserve" x="288.227" y="80.9899" fill="black" font-size="11.7432" font-family="Times">&#0062;</text>
<text xml:space="preserve" x="284.675" y="80.9899" fill="black" font-size="11.7432" font-family="Helvetica"> </text>
<text xml:space="preserve" x="273.308" y="86.6734" fill="black" font-size="7.99544" font-family="Helvetica">coll</text>
<text xml:space="preserve" x="262.651" y="80.9899" fill="black" font-size="11.7432" font-family="Helvetica"> N</text>
<text xml:space="preserve" x="259.099" y="80.9899" fill="black" font-size="11.7432" font-family="Times">&#0060;</text>
<text xml:space="preserve" x="442.392" y="97.3299" fill="black" font-size="11.7432" font-family="Helvetica">(stat)</text>
<text xml:space="preserve" x="435.288" y="90.936" fill="black" font-size="7.99544" font-family="Helvetica">-5</text>
<text xml:space="preserve" x="419.658" y="97.3299" fill="black" font-size="11.7432" font-family="Helvetica"> 10</text>
<text xml:space="preserve" x="413.264" y="97.3299" fill="black" font-size="11.7432" font-family="Times">&#0215;</text>
<text xml:space="preserve" x="384.847" y="97.3299" fill="black" font-size="11.7432" font-family="Helvetica"> 7.26 </text>
<text xml:space="preserve" x="378.453" y="97.3299" fill="black" font-size="11.7432" font-family="Times">&#0177;</text>
<text xml:space="preserve" x="320.907" y="97.3299" fill="black" font-size="11.7432" font-family="Helvetica"> = 7.69286 </text>
<text xml:space="preserve" x="291.779" y="102.303" fill="black" font-size="7.99544" font-family="Helvetica">10~20%</text>
<text xml:space="preserve" x="288.227" y="97.3299" fill="black" font-size="11.7432" font-family="Times">&#0062;</text>
<text xml:space="preserve" x="284.675" y="97.3299" fill="black" font-size="11.7432" font-family="Helvetica"> </text>
<text xml:space="preserve" x="273.308" y="103.013" fill="black" font-size="7.99544" font-family="Helvetica">coll</text>
<text xml:space="preserve" x="262.651" y="97.3299" fill="black" font-size="11.7432" font-family="Helvetica"> N</text>
<text xml:space="preserve" x="259.099" y="97.3299" fill="black" font-size="11.7432" font-family="Times">&#0060;</text>
<text xml:space="preserve" x="442.392" y="113.67" fill="black" font-size="11.7432" font-family="Helvetica"> (stat)</text>
<text xml:space="preserve" x="435.288" y="107.276" fill="black" font-size="7.99544" font-family="Helvetica">-5</text>
<text xml:space="preserve" x="419.658" y="113.67" fill="black" font-size="11.7432" font-family="Helvetica"> 10</text>
<text xml:space="preserve" x="413.264" y="113.67" fill="black" font-size="11.7432" font-family="Times">&#0215;</text>
<text xml:space="preserve" x="384.847" y="113.67" fill="black" font-size="11.7432" font-family="Helvetica"> 5.29 </text>
<text xml:space="preserve" x="378.453" y="113.67" fill="black" font-size="11.7432" font-family="Times">&#0177;</text>
<text xml:space="preserve" x="320.907" y="113.67" fill="black" font-size="11.7432" font-family="Helvetica"> = 6.52323 </text>
<text xml:space="preserve" x="291.779" y="118.643" fill="black" font-size="7.99544" font-family="Helvetica">20~40%</text>
<text xml:space="preserve" x="288.227" y="113.67" fill="black" font-size="11.7432" font-family="Times">&#0062;</text>
<text xml:space="preserve" x="284.675" y="113.67" fill="black" font-size="11.7432" font-family="Helvetica"> </text>
<text xml:space="preserve" x="273.308" y="119.354" fill="black" font-size="7.99544" font-family="Helvetica">coll</text>
<text xml:space="preserve" x="262.651" y="113.67" fill="black" font-size="11.7432" font-family="Helvetica"> N</text>
<text xml:space="preserve" x="259.099" y="113.67" fill="black" font-size="11.7432" font-family="Times">&#0060;</text>
<text xml:space="preserve" x="443.103" y="130.01" fill="black" font-size="11.7432" font-family="Helvetica">(stat)</text>
<text xml:space="preserve" x="435.998" y="123.616" fill="black" font-size="7.99544" font-family="Helvetica">-5</text>
<text xml:space="preserve" x="420.369" y="130.01" fill="black" font-size="11.7432" font-family="Helvetica"> 10</text>
<text xml:space="preserve" x="413.975" y="130.01" fill="black" font-size="11.7432" font-family="Times">&#0215;</text>
<text xml:space="preserve" x="384.847" y="130.01" fill="black" font-size="11.7432" font-family="Helvetica"> 5.34 </text>
<text xml:space="preserve" x="378.453" y="130.01" fill="black" font-size="11.7432" font-family="Times">&#0177;</text>
<text xml:space="preserve" x="320.907" y="130.01" fill="black" font-size="11.7432" font-family="Helvetica"> = 5.04424 </text>
<text xml:space="preserve" x="291.779" y="134.983" fill="black" font-size="7.99544" font-family="Helvetica">40~60%</text>
<text xml:space="preserve" x="288.227" y="130.01" fill="black" font-size="11.7432" font-family="Times">&#0062;</text>
<text xml:space="preserve" x="284.675" y="130.01" fill="black" font-size="11.7432" font-family="Helvetica"> </text>
<text xml:space="preserve" x="273.308" y="135.694" fill="black" font-size="7.99544" font-family="Helvetica">coll</text>
<text xml:space="preserve" x="262.651" y="130.01" fill="black" font-size="11.7432" font-family="Helvetica"> N</text>
<text xml:space="preserve" x="259.099" y="130.01" fill="black" font-size="11.7432" font-family="Times">&#0060;</text>
<text xml:space="preserve" x="442.392" y="146.35" fill="black" font-size="11.7432" font-family="Helvetica">(stat)</text>
<text xml:space="preserve" x="435.288" y="139.956" fill="black" font-size="7.99544" font-family="Helvetica">-5</text>
<text xml:space="preserve" x="419.658" y="146.35" fill="black" font-size="11.7432" font-family="Helvetica"> 10</text>
<text xml:space="preserve" x="413.264" y="146.35" fill="black" font-size="11.7432" font-family="Times">&#0215;</text>
<text xml:space="preserve" x="384.847" y="146.35" fill="black" font-size="11.7432" font-family="Helvetica"> 4.88 </text>
<text xml:space="preserve" x="378.453" y="146.35" fill="black" font-size="11.7432" font-family="Times">&#0177;</text>
<text xml:space="preserve" x="320.907" y="146.35" fill="black" font-size="11.7432" font-family="Helvetica"> = 3.45525 </text>
<text xml:space="preserve" x="291.779" y="151.323" fill="black" font-size="7.99544" font-family="Helvetica">60~80%</text>
<text xml:space="preserve" x="288.227" y="146.35" fill="black" font-size="11.7432" font-family="Times">&#0062;</text>
<text xml:space="preserve" x="284.675" y="146.35" fill="black" font-size="11.7432" font-family="Helvetica"> </text>
<text xml:space="preserve" x="273.308" y="152.034" fill="black" font-size="7.99544" font-family="Helvetica">coll</text>
<text xml:space="preserve" x="262.651" y="146.35" fill="black" font-size="11.7432" font-family="Helvetica"> N</text>
<text xml:space="preserve" x="259.099" y="146.35" fill="black" font-size="11.7432" font-family="Times">&#0060;</text></svg>
