<svg width="800" height="513" xmlns="http://www.w3.org/2000/svg"><path d="M0,0H800V513H0Z" style="pointer-events: visiblefill; fill: rgb(255, 255, 255);"></path><g><g transform="translate(120,26)"><title></title><path d="M0,0H560V426H0Z" style="fill: rgb(255, 255, 255); stroke: rgb(0, 0, 0); stroke-width: 1; pointer-events: visiblefill; cursor: default;"></path><svg x="0" y="0" overflow="hidden" width="560" height="426" viewBox="0 0 560 426" style="pointer-events: visiblefill; cursor: default;"><g><path d="M0,60h70M35,60v0M70,140h70M105,140v0M140,212h140M210,212v0M280,302h140M350,302v0M420,398h140M490,398v0" style="stroke: rgb(255, 0, 0); stroke-width: 1;"></path><path d="M0,60h70v0h-70zM70,140h70v0h-70zM140,212h140v0h-140zM280,302h140v0h-140zM420,398h140v0h-140z" style="fill: none; pointer-events: visiblefill;"></path><path d="M31,56v8h8v-8zM101,136v8h8v-8zM206,208v8h8v-8zM346,298v8h8v-8zM486,394v8h8v-8z" style="stroke: rgb(255, 0, 0); fill: none;"></path></g></svg><g><g transform="translate(0,426)"><path d="M0,0h560M0,-426h560M0,-15V0M14,-8V0M28,-8V0M42,-8V0M56,-8V0M70,-15V0M84,-8V0M98,-8V0M112,-8V0M126,-8V0M140,-15V0M154,-8V0M168,-8V0M182,-8V0M196,-8V0M210,-15V0M224,-8V0M238,-8V0M252,-8V0M266,-8V0M280,-15V0M294,-8V0M308,-8V0M322,-8V0M336,-8V0M350,-15V0M364,-8V0M378,-8V0M392,-8V0M406,-8V0M420,-15V0M434,-8V0M448,-8V0M462,-8V0M476,-8V0M490,-15V0M504,-8V0M518,-8V0M532,-8V0M546,-8V0M560,-15V0M0,-411V-426M14,-418V-426M28,-418V-426M42,-418V-426M56,-418V-426M70,-411V-426M84,-418V-426M98,-418V-426M112,-418V-426M126,-418V-426M140,-411V-426M154,-418V-426M168,-418V-426M182,-418V-426M196,-418V-426M210,-411V-426M224,-418V-426M238,-418V-426M252,-418V-426M266,-418V-426M280,-411V-426M294,-418V-426M308,-418V-426M322,-418V-426M336,-418V-426M350,-411V-426M364,-418V-426M378,-418V-426M392,-418V-426M406,-418V-426M420,-411V-426M434,-418V-426M448,-418V-426M462,-418V-426M476,-418V-426M490,-411V-426M504,-418V-426M518,-418V-426M532,-418V-426M546,-418V-426M560,-411V-426" style="stroke: rgb(0, 0, 0); stroke-width: 1;"></path><g font-family="Arial" font-size="18" xml:space="preserve" fill="#000000" text-anchor="middle"><text dy=".8em" transform="translate(0,3)">0</text><text dy=".8em" transform="translate(70,3)">10</text><text dy=".8em" transform="translate(140,3)">20</text><text dy=".8em" transform="translate(210,3)">30</text><text dy=".8em" transform="translate(280,3)">40</text><text dy=".8em" transform="translate(350,3)">50</text><text dy=".8em" transform="translate(420,3)">60</text><text dy=".8em" transform="translate(490,3)">70</text><text dy=".8em" transform="translate(560,3)">80</text></g><rect x="0" y="0" width="560" height="21" style="opacity: 0; cursor: crosshair;"></rect><g font-family="Arial" font-size="18" xml:space="preserve" transform="translate(560,29)" style="cursor: move;"><text fill="#000000" text-anchor="end" dominant-baseline="middle">centrality(%)</text></g></g><g><path d="M0,0v426M560,0v426M24,426H0M12,414H0M12,402H0M12,389H0M12,377H0M24,365H0M12,353H0M12,341H0M12,329H0M12,316H0M24,304H0M12,292H0M12,280H0M12,268H0M12,256H0M24,243H0M12,231H0M12,219H0M12,207H0M12,195H0M24,183H0M12,170H0M12,158H0M12,146H0M12,134H0M24,122H0M12,110H0M12,97H0M12,85H0M12,73H0M24,61H0M12,49H0M12,37H0M12,24H0M12,12H0M24,0H0M536,426H560M548,414H560M548,402H560M548,389H560M548,377H560M536,365H560M548,353H560M548,341H560M548,329H560M548,316H560M536,304H560M548,292H560M548,280H560M548,268H560M548,256H560M536,243H560M548,231H560M548,219H560M548,207H560M548,195H560M536,183H560M548,170H560M548,158H560M548,146H560M548,134H560M536,122H560M548,110H560M548,97H560M548,85H560M548,73H560M536,61H560M548,49H560M548,37H560M548,24H560M548,12H560M536,0H560" style="stroke: rgb(0, 0, 0); stroke-width: 1;"></path><g font-family="Arial" font-size="18" xml:space="preserve" fill="#000000" text-anchor="end"><text dominant-baseline="middle" transform="translate(-4,426)">3</text><text dominant-baseline="middle" transform="translate(-4,365)">4</text><text dominant-baseline="middle" transform="translate(-4,304)">5</text><text dominant-baseline="middle" transform="translate(-4,243)">6</text><text dominant-baseline="middle" transform="translate(-4,183)">7</text><text dominant-baseline="middle" transform="translate(-4,122)">8</text><text dominant-baseline="middle" transform="translate(-4,61)">9</text><text dominant-baseline="middle" transform="translate(-4)">10</text></g><rect x="-23" y="0" width="23" height="426" style="opacity: 0; cursor: crosshair;"></rect><g font-family="Arial" font-size="18" xml:space="preserve" transform="translate(-40)" style="cursor: move;"><g transform="rotate(270) translate(-50,5)"><text fill="#000000" font-size="18">&lt;N</text><text fill="#000000" font-size="11" transform="translate(24,4)">coll</text><text fill="#000000" font-size="18" x="40">&gt;</text></g></g></g></g><path d="M2,2h15v-5h-20v20h5Z" style="opacity: 0; cursor: nw-resize;"></path><path d="M558,2h-15v-5h20v20h-5 Z" style="opacity: 0; cursor: ne-resize;"></path><path d="M2,424h15v5h-20v-20h5Z" style="opacity: 0; cursor: sw-resize;"></path><path d="M558,424h-15v5h20v-20h-5Z" style="opacity: 0; cursor: se-resize;"></path><path d="M-3,18h5v390h-5Z" style="opacity: 0; cursor: w-resize;"></path><path d="M563,18h-5v390h5Z" style="opacity: 0; cursor: e-resize;"></path><path d="M18,-3v5h524v-5Z" style="opacity: 0; cursor: n-resize;"></path><path d="M18,429v-5h524v5Z" style="opacity: 0; cursor: s-resize;"></path></g><g style="cursor: move;"><path d="M120,325H680" style="stroke: rgb(0, 0, 0); stroke-width: 1; stroke-dasharray: 5, 5;"></path></g><g transform="translate(360,51)" font-family="Arial" font-size="17" xml:space="preserve" style="cursor: move;"><path d="M0,0H240V62H0Z" style="fill: none; pointer-events: visiblefill;"></path><text fill="#000000" text-anchor="start" dominant-baseline="middle" transform="translate(7,12)">PYTHIA8, option3</text><text fill="#000000" text-anchor="start" dominant-baseline="middle" transform="translate(7,31)">p+Au, 200 GeV</text><path d="M26,46v8h8v-8z" style="stroke: rgb(0, 0, 0); fill: rgb(0, 0, 0);"></path><g transform="translate(60,55)"><text fill="#000000" font-size="17">&lt;N</text><text fill="#000000" font-size="10" transform="translate(23,4)">coll</text><text fill="#000000" font-size="17" x="38">&gt; of total events</text></g><path d="M2,2h15v-5h-20v20h5Z" style="opacity: 0; cursor: nw-resize;"></path><path d="M238,2h-15v-5h20v20h-5 Z" style="opacity: 0; cursor: ne-resize;"></path><path d="M2,60h15v5h-20v-20h5Z" style="opacity: 0; cursor: sw-resize;"></path><path d="M238,60h-15v5h20v-20h-5Z" style="opacity: 0; cursor: se-resize;"></path><path d="M-3,18h5v26h-5Z" style="opacity: 0; cursor: w-resize;"></path><path d="M243,18h-5v26h5Z" style="opacity: 0; cursor: e-resize;"></path><path d="M18,-3v5h204v-5Z" style="opacity: 0; cursor: n-resize;"></path><path d="M18,65v-5h204v5Z" style="opacity: 0; cursor: s-resize;"></path></g></g></svg>