<svg width="800" height="513" xmlns="http://www.w3.org/2000/svg"><path d="M0,0H800V513H0Z" style="pointer-events: visiblefill; fill: rgb(255, 255, 255);"></path><g><g transform="translate(96,26)"><title></title><path d="M0,0H608V426H0Z" style="fill: rgb(255, 255, 255); stroke: rgb(0, 0, 0); stroke-width: 1; pointer-events: visiblefill; cursor: default;"></path><svg x="0" y="0" overflow="hidden" width="608" height="426" viewBox="0 0 608 426" style="pointer-events: visiblefill; cursor: default;"><g><path d="M6,92l13,5l12,2h13l12,-1h12l13,1l12,2l13,4l12,6l12,7l13,9l12,11l13,12l12,14l13,15l12,17l12,19l13,20l12,22l13,23l12,24l12,26l13,26l12,37" style="fill: none; stroke: rgb(0, 0, 0); stroke-width: 1;"></path><path d="M2,88v8h8v-8zM15,93v8h8v-8zM27,95v8h8v-8zM40,95v8h8v-8zM52,94v8h8v-8zM64,94v8h8v-8zM77,95v8h8v-8zM89,97v8h8v-8zM102,101v8h8v-8zM114,107v8h8v-8zM126,114v8h8v-8zM139,123v8h8v-8zM151,134v8h8v-8zM164,146v8h8v-8zM176,160v8h8v-8zM189,175v8h8v-8zM201,192v8h8v-8zM213,211v8h8v-8zM226,231v8h8v-8zM238,253v8h8v-8zM251,276v8h8v-8zM263,300v8h8v-8zM275,326v8h8v-8zM288,352v8h8v-8zM300,389v8h8v-8z" style="stroke: rgb(0, 0, 0); fill: rgb(0, 0, 0);"></path></g><g><path d="M6,217l13,-47l12,-26l13,-18l12,-14l12,-10l13,-7l12,-4h13l12,1l12,4l13,7l12,9l13,10l12,13l13,15l12,16l12,18l13,20l12,21l13,23l12,24l12,26l13,31l12,8" style="fill: none; stroke: rgb(204, 0, 0); stroke-width: 1;"></path><path d="M4,213l2,2l2,-2l2,2l-2,2l2,2l-2,2l-2,-2l-2,2l-2,-2l2,-2l-2,-2zM17,166l2,2l2,-2l2,2l-2,2l2,2l-2,2l-2,-2l-2,2l-2,-2l2,-2l-2,-2zM29,140l2,2l2,-2l2,2l-2,2l2,2l-2,2l-2,-2l-2,2l-2,-2l2,-2l-2,-2zM42,122l2,2l2,-2l2,2l-2,2l2,2l-2,2l-2,-2l-2,2l-2,-2l2,-2l-2,-2zM54,108l2,2l2,-2l2,2l-2,2l2,2l-2,2l-2,-2l-2,2l-2,-2l2,-2l-2,-2zM66,98l2,2l2,-2l2,2l-2,2l2,2l-2,2l-2,-2l-2,2l-2,-2l2,-2l-2,-2zM79,91l2,2l2,-2l2,2l-2,2l2,2l-2,2l-2,-2l-2,2l-2,-2l2,-2l-2,-2zM91,87l2,2l2,-2l2,2l-2,2l2,2l-2,2l-2,-2l-2,2l-2,-2l2,-2l-2,-2zM104,87l2,2l2,-2l2,2l-2,2l2,2l-2,2l-2,-2l-2,2l-2,-2l2,-2l-2,-2zM116,88l2,2l2,-2l2,2l-2,2l2,2l-2,2l-2,-2l-2,2l-2,-2l2,-2l-2,-2zM128,92l2,2l2,-2l2,2l-2,2l2,2l-2,2l-2,-2l-2,2l-2,-2l2,-2l-2,-2zM141,99l2,2l2,-2l2,2l-2,2l2,2l-2,2l-2,-2l-2,2l-2,-2l2,-2l-2,-2zM153,108l2,2l2,-2l2,2l-2,2l2,2l-2,2l-2,-2l-2,2l-2,-2l2,-2l-2,-2zM166,118l2,2l2,-2l2,2l-2,2l2,2l-2,2l-2,-2l-2,2l-2,-2l2,-2l-2,-2zM178,131l2,2l2,-2l2,2l-2,2l2,2l-2,2l-2,-2l-2,2l-2,-2l2,-2l-2,-2zM191,146l2,2l2,-2l2,2l-2,2l2,2l-2,2l-2,-2l-2,2l-2,-2l2,-2l-2,-2zM203,162l2,2l2,-2l2,2l-2,2l2,2l-2,2l-2,-2l-2,2l-2,-2l2,-2l-2,-2zM215,180l2,2l2,-2l2,2l-2,2l2,2l-2,2l-2,-2l-2,2l-2,-2l2,-2l-2,-2zM228,200l2,2l2,-2l2,2l-2,2l2,2l-2,2l-2,-2l-2,2l-2,-2l2,-2l-2,-2zM240,221l2,2l2,-2l2,2l-2,2l2,2l-2,2l-2,-2l-2,2l-2,-2l2,-2l-2,-2zM253,244l2,2l2,-2l2,2l-2,2l2,2l-2,2l-2,-2l-2,2l-2,-2l2,-2l-2,-2zM265,268l2,2l2,-2l2,2l-2,2l2,2l-2,2l-2,-2l-2,2l-2,-2l2,-2l-2,-2zM277,294l2,2l2,-2l2,2l-2,2l2,2l-2,2l-2,-2l-2,2l-2,-2l2,-2l-2,-2zM290,325l2,2l2,-2l2,2l-2,2l2,2l-2,2l-2,-2l-2,2l-2,-2l2,-2l-2,-2zM302,333l2,2l2,-2l2,2l-2,2l2,2l-2,2l-2,-2l-2,2l-2,-2l2,-2l-2,-2z" style="stroke: rgb(204, 0, 0); fill: rgb(204, 0, 0);"></path></g><g><path d="M6,174l13,-34l12,-19l13,-12l12,-9l12,-6l13,-3h12l13,2l12,5l12,8l13,10l12,12l13,14l12,16l13,19l12,20l12,22l13,23l12,26l13,27l12,26l12,29" style="fill: none; stroke: rgb(51, 255, 153); stroke-width: 1;"></path><path d="M7,175h3v-3h-3v-3h-3v3h-3v3h3v3h3zM20,141h3v-3h-3v-3h-3v3h-3v3h3v3h3zM32,122h3v-3h-3v-3h-3v3h-3v3h3v3h3zM45,110h3v-3h-3v-3h-3v3h-3v3h3v3h3zM57,101h3v-3h-3v-3h-3v3h-3v3h3v3h3zM69,95h3v-3h-3v-3h-3v3h-3v3h3v3h3zM82,92h3v-3h-3v-3h-3v3h-3v3h3v3h3zM94,92h3v-3h-3v-3h-3v3h-3v3h3v3h3zM107,94h3v-3h-3v-3h-3v3h-3v3h3v3h3zM119,99h3v-3h-3v-3h-3v3h-3v3h3v3h3zM131,107h3v-3h-3v-3h-3v3h-3v3h3v3h3zM144,117h3v-3h-3v-3h-3v3h-3v3h3v3h3zM156,129h3v-3h-3v-3h-3v3h-3v3h3v3h3zM169,143h3v-3h-3v-3h-3v3h-3v3h3v3h3zM181,159h3v-3h-3v-3h-3v3h-3v3h3v3h3zM194,178h3v-3h-3v-3h-3v3h-3v3h3v3h3zM206,198h3v-3h-3v-3h-3v3h-3v3h3v3h3zM218,220h3v-3h-3v-3h-3v3h-3v3h3v3h3zM231,243h3v-3h-3v-3h-3v3h-3v3h3v3h3zM243,269h3v-3h-3v-3h-3v3h-3v3h3v3h3zM256,296h3v-3h-3v-3h-3v3h-3v3h3v3h3zM268,322h3v-3h-3v-3h-3v3h-3v3h3v3h3zM280,351h3v-3h-3v-3h-3v3h-3v3h3v3h3z" style="stroke: rgb(51, 255, 153); fill: rgb(51, 255, 153);"></path></g><g><path d="M6,137l13,-21l12,-11l13,-7l12,-5l12,-2h13l12,3l13,5l12,8l12,9l13,12l12,14l13,16l12,18l13,20l12,21l12,24l13,25l12,28l13,28l12,32" style="fill: none; stroke: rgb(0, 204, 204); stroke-width: 1;"></path><path d="M7,138h3v-3h-3v-3h-3v3h-3v3h3v3h3zM20,117h3v-3h-3v-3h-3v3h-3v3h3v3h3zM32,106h3v-3h-3v-3h-3v3h-3v3h3v3h3zM45,99h3v-3h-3v-3h-3v3h-3v3h3v3h3zM57,94h3v-3h-3v-3h-3v3h-3v3h3v3h3zM69,92h3v-3h-3v-3h-3v3h-3v3h3v3h3zM82,92h3v-3h-3v-3h-3v3h-3v3h3v3h3zM94,95h3v-3h-3v-3h-3v3h-3v3h3v3h3zM107,100h3v-3h-3v-3h-3v3h-3v3h3v3h3zM119,108h3v-3h-3v-3h-3v3h-3v3h3v3h3zM131,117h3v-3h-3v-3h-3v3h-3v3h3v3h3zM144,129h3v-3h-3v-3h-3v3h-3v3h3v3h3zM156,143h3v-3h-3v-3h-3v3h-3v3h3v3h3zM169,159h3v-3h-3v-3h-3v3h-3v3h3v3h3zM181,177h3v-3h-3v-3h-3v3h-3v3h3v3h3zM194,197h3v-3h-3v-3h-3v3h-3v3h3v3h3zM206,218h3v-3h-3v-3h-3v3h-3v3h3v3h3zM218,242h3v-3h-3v-3h-3v3h-3v3h3v3h3zM231,267h3v-3h-3v-3h-3v3h-3v3h3v3h3zM243,295h3v-3h-3v-3h-3v3h-3v3h3v3h3zM256,323h3v-3h-3v-3h-3v3h-3v3h3v3h3zM268,355h3v-3h-3v-3h-3v3h-3v3h3v3h3z" style="stroke: rgb(0, 204, 204); fill: none;"></path><path d="M0,131h12v12h-12zM13,110h12v12h-12zM25,99h12v12h-12zM38,92h12v12h-12zM50,87h12v12h-12zM62,85h12v12h-12zM75,85h12v12h-12zM87,88h12v12h-12zM100,93h12v12h-12zM112,101h12v12h-12zM124,110h12v12h-12zM137,122h12v12h-12zM149,136h12v12h-12zM162,152h12v12h-12zM174,170h12v12h-12zM187,190h12v12h-12zM199,211h12v12h-12zM211,235h12v12h-12zM224,260h12v12h-12zM236,288h12v12h-12zM249,316h12v12h-12zM261,348h12v12h-12z" style="fill: none; pointer-events: visiblefill;"></path></g><g><path d="M6,107l13,-8l12,-5l13,-2h12l12,1l13,4l12,5l13,8l12,10l12,12l13,14l12,16l13,18l12,20l13,22l12,23l12,25l13,27l12,26l13,37" style="fill: none; stroke: rgb(0, 153, 204); stroke-width: 1;"></path><path d="M6,103l-4,8h8zM19,95l-4,8h8zM31,90l-4,8h8zM44,88l-4,8h8zM56,88l-4,8h8zM68,89l-4,8h8zM81,93l-4,8h8zM93,98l-4,8h8zM106,106l-4,8h8zM118,116l-4,8h8zM130,128l-4,8h8zM143,142l-4,8h8zM155,158l-4,8h8zM168,176l-4,8h8zM180,196l-4,8h8zM193,218l-4,8h8zM205,241l-4,8h8zM217,266l-4,8h8zM230,293l-4,8h8zM242,319l-4,8h8zM255,356l-4,8h8z" style="stroke: rgb(0, 153, 204); fill: rgb(0, 153, 204);"></path></g><g><path d="M6,88l13,1l12,2l13,3l12,3l12,5l13,6l12,9l13,10l12,12l12,14l13,16l12,18l13,20l12,21l13,23l12,25l12,27l13,30l12,27" style="fill: none; stroke: rgb(0, 0, 51); stroke-width: 1;"></path><path d="M2,88a4,4,0,1,0,8,0a4,4,0,1,0,-8,0zM15,89a4,4,0,1,0,8,0a4,4,0,1,0,-8,0zM27,91a4,4,0,1,0,8,0a4,4,0,1,0,-8,0zM40,94a4,4,0,1,0,8,0a4,4,0,1,0,-8,0zM52,97a4,4,0,1,0,8,0a4,4,0,1,0,-8,0zM64,102a4,4,0,1,0,8,0a4,4,0,1,0,-8,0zM77,108a4,4,0,1,0,8,0a4,4,0,1,0,-8,0zM89,117a4,4,0,1,0,8,0a4,4,0,1,0,-8,0zM102,127a4,4,0,1,0,8,0a4,4,0,1,0,-8,0zM114,139a4,4,0,1,0,8,0a4,4,0,1,0,-8,0zM126,153a4,4,0,1,0,8,0a4,4,0,1,0,-8,0zM139,169a4,4,0,1,0,8,0a4,4,0,1,0,-8,0zM151,187a4,4,0,1,0,8,0a4,4,0,1,0,-8,0zM164,207a4,4,0,1,0,8,0a4,4,0,1,0,-8,0zM176,228a4,4,0,1,0,8,0a4,4,0,1,0,-8,0zM189,251a4,4,0,1,0,8,0a4,4,0,1,0,-8,0zM201,276a4,4,0,1,0,8,0a4,4,0,1,0,-8,0zM213,303a4,4,0,1,0,8,0a4,4,0,1,0,-8,0zM226,333a4,4,0,1,0,8,0a4,4,0,1,0,-8,0zM238,360a4,4,0,1,0,8,0a4,4,0,1,0,-8,0z" style="stroke: rgb(0, 0, 51); fill: none;"></path><path d="M0,82h12v12h-12zM13,83h12v12h-12zM25,85h12v12h-12zM38,88h12v12h-12zM50,91h12v12h-12zM62,96h12v12h-12zM75,102h12v12h-12zM87,111h12v12h-12zM100,121h12v12h-12zM112,133h12v12h-12zM124,147h12v12h-12zM137,163h12v12h-12zM149,181h12v12h-12zM162,201h12v12h-12zM174,222h12v12h-12zM187,245h12v12h-12zM199,270h12v12h-12zM211,297h12v12h-12zM224,327h12v12h-12zM236,354h12v12h-12z" style="fill: none; pointer-events: visiblefill;"></path></g></svg><g><g transform="translate(0,426)"><path d="M0,0h608M0,-426h608M0,-8V0M12,-8V0M25,-8V0M37,-8V0M50,-15V0M62,-8V0M74,-8V0M87,-8V0M99,-8V0M112,-15V0M124,-8V0M136,-8V0M149,-8V0M161,-8V0M174,-15V0M186,-8V0M199,-8V0M211,-8V0M223,-8V0M236,-15V0M248,-8V0M261,-8V0M273,-8V0M285,-8V0M298,-15V0M310,-8V0M323,-8V0M335,-8V0M347,-8V0M360,-15V0M372,-8V0M385,-8V0M397,-8V0M409,-8V0M422,-15V0M434,-8V0M447,-8V0M459,-8V0M472,-8V0M484,-15V0M496,-8V0M509,-8V0M521,-8V0M534,-8V0M546,-15V0M558,-8V0M571,-8V0M583,-8V0M596,-8V0M608,-15V0M0,-418V-426M12,-418V-426M25,-418V-426M37,-418V-426M50,-411V-426M62,-418V-426M74,-418V-426M87,-418V-426M99,-418V-426M112,-411V-426M124,-418V-426M136,-418V-426M149,-418V-426M161,-418V-426M174,-411V-426M186,-418V-426M199,-418V-426M211,-418V-426M223,-418V-426M236,-411V-426M248,-418V-426M261,-418V-426M273,-418V-426M285,-418V-426M298,-411V-426M310,-418V-426M323,-418V-426M335,-418V-426M347,-418V-426M360,-411V-426M372,-418V-426M385,-418V-426M397,-418V-426M409,-418V-426M422,-411V-426M434,-418V-426M447,-418V-426M459,-418V-426M472,-418V-426M484,-411V-426M496,-418V-426M509,-418V-426M521,-418V-426M534,-418V-426M546,-411V-426M558,-418V-426M571,-418V-426M583,-418V-426M596,-418V-426M608,-411V-426" style="stroke: rgb(0, 0, 0); stroke-width: 1;"></path><g font-family="Arial" font-size="18" xml:space="preserve" fill="#000000" text-anchor="middle"><text dy=".8em" transform="translate(50,3)">5</text><text dy=".8em" transform="translate(112,3)">10</text><text dy=".8em" transform="translate(174,3)">15</text><text dy=".8em" transform="translate(236,3)">20</text><text dy=".8em" transform="translate(298,3)">25</text><text dy=".8em" transform="translate(360,3)">30</text><text dy=".8em" transform="translate(422,3)">35</text><text dy=".8em" transform="translate(484,3)">40</text><text dy=".8em" transform="translate(546,3)">45</text><text dy=".8em" transform="translate(608,3)">50</text></g><rect x="0" y="0" width="608" height="21" style="opacity: 0; cursor: crosshair;"></rect><g font-family="Arial" font-size="21" xml:space="preserve" transform="translate(608,34)" style="cursor: move;"><g transform="translate(-35,6)"><text fill="#000000" font-size="21">N</text><text fill="#000000" font-size="13" transform="translate(16,4)">coll</text></g></g></g><g><path d="M0,0v426M608,0v426M24,426H0M12,416H0M12,410H0M12,406H0M12,403H0M12,401H0M12,398H0M12,396H0M12,395H0M24,393H0M12,383H0M12,378H0M12,374H0M12,370H0M12,368H0M12,366H0M12,364H0M12,362H0M24,360H0M12,351H0M12,345H0M12,341H0M12,338H0M12,335H0M12,333H0M12,331H0M12,329H0M24,328H0M12,318H0M12,312H0M12,308H0M12,305H0M12,302H0M12,300H0M12,298H0M12,296H0M24,295H0M12,285H0M12,279H0M12,275H0M12,272H0M12,269H0M12,267H0M12,265H0M12,264H0M24,262H0M12,252H0M12,247H0M12,242H0M12,239H0M12,237H0M12,234H0M12,233H0M12,231H0M24,229H0M12,220H0M12,214H0M12,210H0M12,206H0M12,204H0M12,202H0M12,200H0M12,198H0M24,197H0M12,187H0M12,181H0M12,177H0M12,174H0M12,171H0M12,169H0M12,167H0M12,165H0M24,164H0M12,154H0M12,148H0M12,144H0M12,141H0M12,138H0M12,136H0M12,134H0M12,133H0M24,131H0M12,121H0M12,115H0M12,111H0M12,108H0M12,106H0M12,103H0M12,101H0M12,100H0M24,98H0M12,88H0M12,83H0M12,79H0M12,75H0M12,73H0M12,71H0M12,69H0M12,67H0M24,66H0M12,56H0M12,50H0M12,46H0M12,43H0M12,40H0M12,38H0M12,36H0M12,34H0M24,33H0M12,23H0M12,17H0M12,13H0M12,10H0M12,7H0M12,5H0M12,3H0M12,1H0M24,0H0M584,426H608M596,416H608M596,410H608M596,406H608M596,403H608M596,401H608M596,398H608M596,396H608M596,395H608M584,393H608M596,383H608M596,378H608M596,374H608M596,370H608M596,368H608M596,366H608M596,364H608M596,362H608M584,360H608M596,351H608M596,345H608M596,341H608M596,338H608M596,335H608M596,333H608M596,331H608M596,329H608M584,328H608M596,318H608M596,312H608M596,308H608M596,305H608M596,302H608M596,300H608M596,298H608M596,296H608M584,295H608M596,285H608M596,279H608M596,275H608M596,272H608M596,269H608M596,267H608M596,265H608M596,264H608M584,262H608M596,252H608M596,247H608M596,242H608M596,239H608M596,237H608M596,234H608M596,233H608M596,231H608M584,229H608M596,220H608M596,214H608M596,210H608M596,206H608M596,204H608M596,202H608M596,200H608M596,198H608M584,197H608M596,187H608M596,181H608M596,177H608M596,174H608M596,171H608M596,169H608M596,167H608M596,165H608M584,164H608M596,154H608M596,148H608M596,144H608M596,141H608M596,138H608M596,136H608M596,134H608M596,133H608M584,131H608M596,121H608M596,115H608M596,111H608M596,108H608M596,106H608M596,103H608M596,101H608M596,100H608M584,98H608M596,88H608M596,83H608M596,79H608M596,75H608M596,73H608M596,71H608M596,69H608M596,67H608M584,66H608M596,56H608M596,50H608M596,46H608M596,43H608M596,40H608M596,38H608M596,36H608M596,34H608M584,33H608M596,23H608M596,17H608M596,13H608M596,10H608M596,7H608M596,5H608M596,3H608M596,1H608M584,0H608" style="stroke: rgb(0, 0, 0); stroke-width: 1;"></path><g font-family="Arial" font-size="18" xml:space="preserve"><g transform="translate(-40,434)"><text fill="#000000" font-size="18">10</text><text fill="#000000" font-size="11" transform="translate(21,-10)">-11</text></g><g transform="translate(-40,401)"><text fill="#000000" font-size="18">10</text><text fill="#000000" font-size="11" transform="translate(21,-10)">-10</text></g><g transform="translate(-34,368)"><text fill="#000000" font-size="18">10</text><text fill="#000000" font-size="11" transform="translate(21,-10)">-9</text></g><g transform="translate(-34,336)"><text fill="#000000" font-size="18">10</text><text fill="#000000" font-size="11" transform="translate(21,-10)">-8</text></g><g transform="translate(-34,303)"><text fill="#000000" font-size="18">10</text><text fill="#000000" font-size="11" transform="translate(21,-10)">-7</text></g><g transform="translate(-34,270)"><text fill="#000000" font-size="18">10</text><text fill="#000000" font-size="11" transform="translate(21,-10)">-6</text></g><g transform="translate(-34,237)"><text fill="#000000" font-size="18">10</text><text fill="#000000" font-size="11" transform="translate(21,-10)">-5</text></g><g transform="translate(-34,205)"><text fill="#000000" font-size="18">10</text><text fill="#000000" font-size="11" transform="translate(21,-10)">-4</text></g><g transform="translate(-34,172)"><text fill="#000000" font-size="18">10</text><text fill="#000000" font-size="11" transform="translate(21,-10)">-3</text></g><g transform="translate(-34,139)"><text fill="#000000" font-size="18">10</text><text fill="#000000" font-size="11" transform="translate(21,-10)">-2</text></g><g transform="translate(-34,106)"><text fill="#000000" font-size="18">10</text><text fill="#000000" font-size="11" transform="translate(21,-10)">-1</text></g><text fill="#000000" text-anchor="end" dominant-baseline="middle" transform="translate(-4,66)">1</text><text fill="#000000" text-anchor="end" dominant-baseline="middle" transform="translate(-4,33)">10</text><g transform="translate(-31,8)"><text fill="#000000" font-size="18">10</text><text fill="#000000" font-size="11" transform="translate(21,-10)">2</text></g></g><rect x="-39" y="0" width="39" height="426" style="opacity: 0; cursor: crosshair;"></rect><g font-family="Arial" font-size="21" xml:space="preserve" transform="translate(-59)" style="cursor: move;"><g transform="rotate(270) translate(-79,6)"><text fill="#000000" font-size="21">dN/dN</text><text fill="#000000" font-size="13" transform="translate(60,4)">coll</text></g></g></g></g><path d="M2,2h15v-5h-20v20h5Z" style="opacity: 0; cursor: nw-resize;"></path><path d="M606,2h-15v-5h20v20h-5 Z" style="opacity: 0; cursor: ne-resize;"></path><path d="M2,424h15v5h-20v-20h5Z" style="opacity: 0; cursor: sw-resize;"></path><path d="M606,424h-15v5h20v-20h-5Z" style="opacity: 0; cursor: se-resize;"></path><path d="M-3,18h5v390h-5Z" style="opacity: 0; cursor: w-resize;"></path><path d="M611,18h-5v390h5Z" style="opacity: 0; cursor: e-resize;"></path><path d="M18,-3v5h572v-5Z" style="opacity: 0; cursor: n-resize;"></path><path d="M18,429v-5h572v5Z" style="opacity: 0; cursor: s-resize;"></path></g><g transform="translate(360,51)" font-family="Arial" font-size="15" xml:space="preserve" style="cursor: move;"><path d="M0,0H280V154H0Z" style="fill: none; pointer-events: visiblefill;"></path><text fill="#000000" text-anchor="start" dominant-baseline="middle" transform="translate(8,14)">PYTHIA8</text><text fill="#000000" text-anchor="start" dominant-baseline="middle" transform="translate(8,32)">pAu200GeV, option3</text><path d="M31,46v8h8v-8z" style="stroke: rgb(0, 0, 0); fill: rgb(0, 0, 0);"></path><g transform="translate(70,54)"><text fill="#000000" font-size="15">all inelastic events(MB), &lt;N</text><text fill="#000000" font-size="9" transform="translate(182,3)">coll</text><text fill="#000000" font-size="15" x="195">&gt;: 5.085</text></g><path d="M33,64l2,2l2,-2l2,2l-2,2l2,2l-2,2l-2,-2l-2,2l-2,-2l2,-2l-2,-2z" style="stroke: rgb(204, 0, 0); fill: rgb(204, 0, 0);"></path><g transform="translate(70,72)"><text fill="#000000" font-size="15">centrality: 0~10%, &lt;N</text><text fill="#000000" font-size="9" transform="translate(143,3)">coll</text><text fill="#000000" font-size="15" x="156">&gt;: 9.02</text></g><path d="M36,87h3v-3h-3v-3h-3v3h-3v3h3v3h3z" style="stroke: rgb(51, 255, 153); fill: rgb(51, 255, 153);"></path><g transform="translate(70,90)"><text fill="#000000" font-size="15">centrality: 10~20%, &lt;N</text><text fill="#000000" font-size="9" transform="translate(151,3)">coll</text><text fill="#000000" font-size="15" x="164">&gt;: 7.69</text></g><path d="M36,105h3v-3h-3v-3h-3v3h-3v3h3v3h3z" style="stroke: rgb(0, 204, 204); fill: none;"></path><g transform="translate(70,108)"><text fill="#000000" font-size="15">centrality: 20~40%, &lt;N</text><text fill="#000000" font-size="9" transform="translate(151,3)">coll</text><text fill="#000000" font-size="15" x="164">&gt;: 6.52</text></g><path d="M35,118l-4,8h8z" style="stroke: rgb(0, 153, 204); fill: rgb(0, 153, 204);"></path><g transform="translate(70,126)"><text fill="#000000" font-size="15">centrality: 40~60%, &lt;N</text><text fill="#000000" font-size="9" transform="translate(151,3)">coll</text><text fill="#000000" font-size="15" x="164">&gt;: 5.04</text></g><path d="M31,140a4,4,0,1,0,8,0a4,4,0,1,0,-8,0z" style="stroke: rgb(0, 0, 51); fill: none;"></path><g transform="translate(70,144)"><text fill="#000000" font-size="15">centrality: 60~80%, &lt;N</text><text fill="#000000" font-size="9" transform="translate(151,3)">coll</text><text fill="#000000" font-size="15" x="164">&gt;: 3.45</text></g><path d="M2,2h15v-5h-20v20h5Z" style="opacity: 0; cursor: nw-resize;"></path><path d="M278,2h-15v-5h20v20h-5 Z" style="opacity: 0; cursor: ne-resize;"></path><path d="M2,152h15v5h-20v-20h5Z" style="opacity: 0; cursor: sw-resize;"></path><path d="M278,152h-15v5h20v-20h-5Z" style="opacity: 0; cursor: se-resize;"></path><path d="M-3,18h5v118h-5Z" style="opacity: 0; cursor: w-resize;"></path><path d="M283,18h-5v118h5Z" style="opacity: 0; cursor: e-resize;"></path><path d="M18,-3v5h244v-5Z" style="opacity: 0; cursor: n-resize;"></path><path d="M18,157v-5h244v5Z" style="opacity: 0; cursor: s-resize;"></path></g></g></svg>