<?xml version="1.0" standalone="no"?>
<svg width="567.429" height="312.341" viewBox="0 0 567.429 312.341" xmlns="http://www.w3.org/2000/svg" shape-rendering="crispEdges">
<title>
/Users/jinhyunpark/npl/gitHub/git_share/Centrality_dependent_BiasCorrection/plots/plots_NcollDistribution/NcollByCentAndMB.svg
</title>
<desc>
Creator: ROOT Version 6.28/04
CreationDate: Mon Sep 25 16:56:06 2023</desc>
<defs>
</defs>
<rect x="0.5" y="0" width="566.929" height="311.841" fill="white"/>
<rect x="85.5394" y="15.592" width="396.85" height="258.828" fill="white"/>
<rect x="85.5394" y="15.592" width="396.85" height="258.828" fill="none" stroke="black"/>
<rect x="85.5394" y="15.592" width="396.85" height="258.828" fill="white"/>
<rect x="85.5394" y="15.592" width="396.85" height="258.828" fill="none" stroke="black"/>
<path d="M85.5394,274.42h 396.85" fill="none" stroke="black"/>
<path d="M151.681,267.871v 6.54865" fill="none" stroke="black"/>
<path d="M168.217,271.145v 3.27433" fill="none" stroke="black"/>
<path d="M184.752,271.145v 3.27433" fill="none" stroke="black"/>
<path d="M201.287,271.145v 3.27433" fill="none" stroke="black"/>
<path d="M217.823,271.145v 3.27433" fill="none" stroke="black"/>
<path d="M234.358,267.871v 6.54865" fill="none" stroke="black"/>
<path d="M250.894,271.145v 3.27433" fill="none" stroke="black"/>
<path d="M267.429,271.145v 3.27433" fill="none" stroke="black"/>
<path d="M283.965,271.145v 3.27433" fill="none" stroke="black"/>
<path d="M300.5,271.145v 3.27433" fill="none" stroke="black"/>
<path d="M317.035,267.871v 6.54865" fill="none" stroke="black"/>
<path d="M333.571,271.145v 3.27433" fill="none" stroke="black"/>
<path d="M350.106,271.145v 3.27433" fill="none" stroke="black"/>
<path d="M366.642,271.145v 3.27433" fill="none" stroke="black"/>
<path d="M383.177,271.145v 3.27433" fill="none" stroke="black"/>
<path d="M399.713,267.871v 6.54865" fill="none" stroke="black"/>
<path d="M416.248,271.145v 3.27433" fill="none" stroke="black"/>
<path d="M432.783,271.145v 3.27433" fill="none" stroke="black"/>
<path d="M449.319,271.145v 3.27433" fill="none" stroke="black"/>
<path d="M465.854,271.145v 3.27433" fill="none" stroke="black"/>
<path d="M482.39,267.871v 6.54865" fill="none" stroke="black"/>
<path d="M151.681,267.871v 6.54865" fill="none" stroke="black"/>
<path d="M135.146,271.145v 3.27433" fill="none" stroke="black"/>
<path d="M118.61,271.145v 3.27433" fill="none" stroke="black"/>
<path d="M102.075,271.145v 3.27433" fill="none" stroke="black"/>
<text xml:space="preserve" x="148.883" y="284.647" fill="black" font-size="10.5132" font-family="Helvetica">5</text>
<text xml:space="preserve" x="228.69" y="284.647" fill="black" font-size="10.5132" font-family="Helvetica">10</text>
<text xml:space="preserve" x="311.158" y="284.647" fill="black" font-size="10.5132" font-family="Helvetica">15</text>
<text xml:space="preserve" x="393.922" y="284.647" fill="black" font-size="10.5132" font-family="Helvetica">20</text>
<text xml:space="preserve" x="476.685" y="284.647" fill="black" font-size="10.5132" font-family="Helvetica">25</text>
<text xml:space="preserve" x="460.428" y="295.583" fill="black" font-size="10.5132" font-family="Helvetica">Ncoll</text>
<path d="M85.5394,15.592h 396.85" fill="none" stroke="black"/>
<path d="M151.681,22.1407v -6.54865" fill="none" stroke="black"/>
<path d="M168.217,18.8664v -3.27433" fill="none" stroke="black"/>
<path d="M184.752,18.8664v -3.27433" fill="none" stroke="black"/>
<path d="M201.287,18.8664v -3.27433" fill="none" stroke="black"/>
<path d="M217.823,18.8664v -3.27433" fill="none" stroke="black"/>
<path d="M234.358,22.1407v -6.54865" fill="none" stroke="black"/>
<path d="M250.894,18.8664v -3.27433" fill="none" stroke="black"/>
<path d="M267.429,18.8664v -3.27433" fill="none" stroke="black"/>
<path d="M283.965,18.8664v -3.27433" fill="none" stroke="black"/>
<path d="M300.5,18.8664v -3.27433" fill="none" stroke="black"/>
<path d="M317.035,22.1407v -6.54865" fill="none" stroke="black"/>
<path d="M333.571,18.8664v -3.27433" fill="none" stroke="black"/>
<path d="M350.106,18.8664v -3.27433" fill="none" stroke="black"/>
<path d="M366.642,18.8664v -3.27433" fill="none" stroke="black"/>
<path d="M383.177,18.8664v -3.27433" fill="none" stroke="black"/>
<path d="M399.713,22.1407v -6.54865" fill="none" stroke="black"/>
<path d="M416.248,18.8664v -3.27433" fill="none" stroke="black"/>
<path d="M432.783,18.8664v -3.27433" fill="none" stroke="black"/>
<path d="M449.319,18.8664v -3.27433" fill="none" stroke="black"/>
<path d="M465.854,18.8664v -3.27433" fill="none" stroke="black"/>
<path d="M482.39,22.1407v -6.54865" fill="none" stroke="black"/>
<path d="M151.681,22.1407v -6.54865" fill="none" stroke="black"/>
<path d="M135.146,18.8664v -3.27433" fill="none" stroke="black"/>
<path d="M118.61,18.8664v -3.27433" fill="none" stroke="black"/>
<path d="M102.075,18.8664v -3.27433" fill="none" stroke="black"/>
<path d="M85.5394,274.42v -258.828" fill="none" stroke="black"/>
<path d="M99.6559,274.42h -14.1165" fill="none" stroke="black"/>
<path d="M92.5976,264.067h -7.05827" fill="none" stroke="black"/>
<path d="M92.5976,253.713h -7.05827" fill="none" stroke="black"/>
<path d="M92.5976,243.36h -7.05827" fill="none" stroke="black"/>
<path d="M92.5976,233.007h -7.05827" fill="none" stroke="black"/>
<path d="M99.6559,222.654h -14.1165" fill="none" stroke="black"/>
<path d="M92.5976,212.301h -7.05827" fill="none" stroke="black"/>
<path d="M92.5976,201.948h -7.05827" fill="none" stroke="black"/>
<path d="M92.5976,191.595h -7.05827" fill="none" stroke="black"/>
<path d="M92.5976,181.242h -7.05827" fill="none" stroke="black"/>
<path d="M99.6559,170.889h -14.1165" fill="none" stroke="black"/>
<path d="M92.5976,160.536h -7.05827" fill="none" stroke="black"/>
<path d="M92.5976,150.182h -7.05827" fill="none" stroke="black"/>
<path d="M92.5976,139.829h -7.05827" fill="none" stroke="black"/>
<path d="M92.5976,129.476h -7.05827" fill="none" stroke="black"/>
<path d="M99.6559,119.123h -14.1165" fill="none" stroke="black"/>
<path d="M92.5976,108.77h -7.05827" fill="none" stroke="black"/>
<path d="M92.5976,98.4169h -7.05827" fill="none" stroke="black"/>
<path d="M92.5976,88.0638h -7.05827" fill="none" stroke="black"/>
<path d="M92.5976,77.7107h -7.05827" fill="none" stroke="black"/>
<path d="M99.6559,67.3576h -14.1165" fill="none" stroke="black"/>
<path d="M92.5976,57.0045h -7.05827" fill="none" stroke="black"/>
<path d="M92.5976,46.6513h -7.05827" fill="none" stroke="black"/>
<path d="M92.5976,36.2982h -7.05827" fill="none" stroke="black"/>
<path d="M92.5976,25.9451h -7.05827" fill="none" stroke="black"/>
<path d="M99.6559,15.592h -14.1165" fill="none" stroke="black"/>
<path d="M99.6559,15.592h -14.1165" fill="none" stroke="black"/>
<text xml:space="preserve" x="77.3517" y="278.144" fill="black" font-size="10.5132" font-family="Helvetica">0</text>
<text xml:space="preserve" x="63.4593" y="226.417" fill="black" font-size="10.5132" font-family="Helvetica">0.05</text>
<text xml:space="preserve" x="70.5533" y="174.69" fill="black" font-size="10.5132" font-family="Helvetica">0.1</text>
<text xml:space="preserve" x="63.4593" y="122.963" fill="black" font-size="10.5132" font-family="Helvetica">0.15</text>
<text xml:space="preserve" x="69.0754" y="70.94" fill="black" font-size="10.5132" font-family="Helvetica">0.2</text>
<text xml:space="preserve" x="63.4593" y="19.2129" fill="black" font-size="10.5132" font-family="Helvetica">0.25</text>
<g transform="rotate(-90,51.9315,42.2684)">
<text xml:space="preserve" x="51.9315" y="42.2684" fill="black" font-size="7.17549" font-family="Helvetica">MB, cent</text>
</g>
<g transform="rotate(-90,46.611,44.9287)">
<text xml:space="preserve" x="46.611" y="44.9287" fill="black" font-size="10.5132" font-family="Helvetica">)</text>
</g>
<g transform="rotate(-90,51.9315,54.6829)">
<text xml:space="preserve" x="51.9315" y="54.6829" fill="black" font-size="7.17549" font-family="Helvetica">coll</text>
</g>
<g transform="rotate(-90,46.611,71.2356)">
<text xml:space="preserve" x="46.611" y="71.2356" fill="black" font-size="10.5132" font-family="Helvetica">P(N</text>
</g>
<path d="M482.39,274.42v -258.828" fill="none" stroke="black"/>
<path d="M468.273,274.42h 14.1165" fill="none" stroke="black"/>
<path d="M475.332,264.067h 7.05827" fill="none" stroke="black"/>
<path d="M475.332,253.713h 7.05827" fill="none" stroke="black"/>
<path d="M475.332,243.36h 7.05827" fill="none" stroke="black"/>
<path d="M475.332,233.007h 7.05827" fill="none" stroke="black"/>
<path d="M468.273,222.654h 14.1165" fill="none" stroke="black"/>
<path d="M475.332,212.301h 7.05827" fill="none" stroke="black"/>
<path d="M475.332,201.948h 7.05827" fill="none" stroke="black"/>
<path d="M475.332,191.595h 7.05827" fill="none" stroke="black"/>
<path d="M475.332,181.242h 7.05827" fill="none" stroke="black"/>
<path d="M468.273,170.889h 14.1165" fill="none" stroke="black"/>
<path d="M475.332,160.536h 7.05827" fill="none" stroke="black"/>
<path d="M475.332,150.182h 7.05827" fill="none" stroke="black"/>
<path d="M475.332,139.829h 7.05827" fill="none" stroke="black"/>
<path d="M475.332,129.476h 7.05827" fill="none" stroke="black"/>
<path d="M468.273,119.123h 14.1165" fill="none" stroke="black"/>
<path d="M475.332,108.77h 7.05827" fill="none" stroke="black"/>
<path d="M475.332,98.4169h 7.05827" fill="none" stroke="black"/>
<path d="M475.332,88.0638h 7.05827" fill="none" stroke="black"/>
<path d="M475.332,77.7107h 7.05827" fill="none" stroke="black"/>
<path d="M468.273,67.3576h 14.1165" fill="none" stroke="black"/>
<path d="M475.332,57.0045h 7.05827" fill="none" stroke="black"/>
<path d="M475.332,46.6513h 7.05827" fill="none" stroke="black"/>
<path d="M475.332,36.2982h 7.05827" fill="none" stroke="black"/>
<path d="M475.332,25.9451h 7.05827" fill="none" stroke="black"/>
<path d="M468.273,15.592h 14.1165" fill="none" stroke="black"/>
<path d="M468.273,15.592h 14.1165" fill="none" stroke="black"/>
<path d="M93.8071,111.054l 16.5354, 51.0742l 16.5354, 10.9429l 16.5354, -0.75999l 16.5354, -3.88143l 16.5354, -0.725967l 16.5354, 6.81123l 16.5354, 15.0976l 16.5354, 20.3958l 16.5354, 20.902l 16.5354, 17.4203l 16.5354, 12.2007l 16.5354, 7.31654l
 16.5354, 3.80191l 16.5354, 1.72888l 16.5354, 0.691153l 16.5354, 0.244717l 16.5354, 0.0769152l 16.5354, 0.0285532h 90.9449" fill="none" stroke="black"/>
<g fill="black">
<rect x="92.6247" y="109.871" width="2.36467" height="2.36467"/>
<rect x="109.16" y="160.946" width="2.36467" height="2.36467"/>
<rect x="125.696" y="171.888" width="2.36467" height="2.36467"/>
<rect x="142.231" y="171.128" width="2.36467" height="2.36467"/>
<rect x="158.766" y="167.247" width="2.36467" height="2.36467"/>
<rect x="175.302" y="166.521" width="2.36467" height="2.36467"/>
<rect x="191.837" y="173.332" width="2.36467" height="2.36467"/>
<rect x="208.373" y="188.43" width="2.36467" height="2.36467"/>
<rect x="224.908" y="208.826" width="2.36467" height="2.36467"/>
<rect x="241.444" y="229.728" width="2.36467" height="2.36467"/>
<rect x="257.979" y="247.148" width="2.36467" height="2.36467"/>
<rect x="274.515" y="259.349" width="2.36467" height="2.36467"/>
<rect x="291.05" y="266.665" width="2.36467" height="2.36467"/>
<rect x="307.585" y="270.467" width="2.36467" height="2.36467"/>
<rect x="324.121" y="272.196" width="2.36467" height="2.36467"/>
<rect x="340.656" y="272.887" width="2.36467" height="2.36467"/>
<rect x="357.192" y="273.132" width="2.36467" height="2.36467"/>
<rect x="373.727" y="273.209" width="2.36467" height="2.36467"/>
<rect x="390.263" y="273.23" width="2.36467" height="2.36467"/>
<rect x="406.798" y="273.236" width="2.36467" height="2.36467"/>
<rect x="423.333" y="273.237" width="2.36467" height="2.36467"/>
<rect x="439.869" y="273.237" width="2.36467" height="2.36467"/>
<rect x="456.404" y="273.237" width="2.36467" height="2.36467"/>
<rect x="472.94" y="273.237" width="2.36467" height="2.36467"/>
</g>
<path d="M93.8071,274.42l 16.5354, -0.669522l 16.5354, -3.51404l 16.5354, -10.9988l 16.5354, -24.487l 16.5354, -40.4865l 16.5354, -48.5436l 16.5354, -38.4834l 16.5354, -10.9838l 16.5354, 20.3513l 16.5354, 40.2281l 16.5354, 43.0825l 16.5354, 33.9871l
 16.5354, 21.4417l 16.5354, 11.2497l 16.5354, 5.00872l 16.5354, 1.92213l 16.5354, 0.642598l 16.5354, 0.189385l 16.5354, 0.0635509h 74.4094" fill="none" stroke="#cc0000"/>
<g fill="#cc0000">
<polygon points=" 93.8071, 274.985 93.2159, 275.577 92.6247, 274.985 93.2159, 274.394 92.6247, 273.803 93.2159, 273.212 93.8071, 273.803 94.3983, 273.212 94.9894, 273.803 94.3983, 274.394 94.9894, 274.985 94.3983, 275.577 93.8071, 274.985"/>
<polygon points=" 110.343, 274.341 109.751, 274.933 109.16, 274.341 109.751, 273.75 109.16, 273.159 109.751, 272.568 110.343, 273.159 110.934, 272.568 111.525, 273.159 110.934, 273.75 111.525, 274.341 110.934, 274.933 110.343, 274.341"/>
<polygon points=" 126.878, 270.827 126.287, 271.418 125.696, 270.827 126.287, 270.236 125.696, 269.645 126.287, 269.054 126.878, 269.645 127.469, 269.054 128.06, 269.645 127.469, 270.236 128.06, 270.827 127.469, 271.418 126.878, 270.827"/>
<polygon points=" 143.413, 259.828 142.822, 260.42 142.231, 259.828 142.822, 259.237 142.231, 258.646 142.822, 258.055 143.413, 258.646 144.005, 258.055 144.596, 258.646 144.005, 259.237 144.596, 259.828 144.005, 260.42 143.413, 259.828"/>
<polygon points=" 159.949, 235.341 159.358, 235.933 158.766, 235.341 159.358, 234.75 158.766, 234.159 159.358, 233.568 159.949, 234.159 160.54, 233.568 161.131, 234.159 160.54, 234.75 161.131, 235.341 160.54, 235.933 159.949, 235.341"/>
<polygon points=" 176.484, 194.855 175.893, 195.446 175.302, 194.855 175.893, 194.264 175.302, 193.673 175.893, 193.081 176.484, 193.673 177.075, 193.081 177.667, 193.673 177.075, 194.264 177.667, 194.855 177.075, 195.446 176.484, 194.855"/>
<polygon points=" 193.02, 146.311 192.429, 146.902 191.837, 146.311 192.429, 145.72 191.837, 145.129 192.429, 144.538 193.02, 145.129 193.611, 144.538 194.202, 145.129 193.611, 145.72 194.202, 146.311 193.611, 146.902 193.02, 146.311"/>
<polygon points=" 209.555, 107.828 208.964, 108.419 208.373, 107.828 208.964, 107.237 208.373, 106.646 208.964, 106.054 209.555, 106.646 210.146, 106.054 210.737, 106.646 210.146, 107.237 210.737, 107.828 210.146, 108.419 209.555, 107.828"/>
<polygon points=" 226.091, 96.8441 225.499, 97.4353 224.908, 96.8441 225.499, 96.253 224.908, 95.6618 225.499, 95.0706 226.091, 95.6618 226.682, 95.0706 227.273, 95.6618 226.682, 96.253 227.273, 96.8441 226.682, 97.4353 226.091, 96.8441"/>
<polygon points=" 242.626, 117.195 242.035, 117.787 241.444, 117.195 242.035, 116.604 241.444, 116.013 242.035, 115.422 242.626, 116.013 243.217, 115.422 243.808, 116.013 243.217, 116.604 243.808, 117.195 243.217, 117.787 242.626, 117.195"/>
<polygon points=" 259.161, 157.424 258.57, 158.015 257.979, 157.424 258.57, 156.832 257.979, 156.241 258.57, 155.65 259.161, 156.241 259.753, 155.65 260.344, 156.241 259.753, 156.832 260.344, 157.424 259.753, 158.015 259.161, 157.424"/>
<polygon points=" 275.697, 200.506 275.106, 201.097 274.515, 200.506 275.106, 199.915 274.515, 199.324 275.106, 198.732 275.697, 199.324 276.288, 198.732 276.879, 199.324 276.288, 199.915 276.879, 200.506 276.288, 201.097 275.697, 200.506"/>
<polygon points=" 292.232, 234.493 291.641, 235.084 291.05, 234.493 291.641, 233.902 291.05, 233.311 291.641, 232.72 292.232, 233.311 292.823, 232.72 293.415, 233.311 292.823, 233.902 293.415, 234.493 292.823, 235.084 292.232, 234.493"/>
<polygon points=" 308.768, 255.935 308.177, 256.526 307.585, 255.935 308.177, 255.344 307.585, 254.752 308.177, 254.161 308.768, 254.752 309.359, 254.161 309.95, 254.752 309.359, 255.344 309.95, 255.935 309.359, 256.526 308.768, 255.935"/>
<polygon points=" 325.303, 267.184 324.712, 267.776 324.121, 267.184 324.712, 266.593 324.121, 266.002 324.712, 265.411 325.303, 266.002 325.894, 265.411 326.485, 266.002 325.894, 266.593 326.485, 267.184 325.894, 267.776 325.303, 267.184"/>
<polygon points=" 341.839, 272.193 341.247, 272.784 340.656, 272.193 341.247, 271.602 340.656, 271.011 341.247, 270.42 341.839, 271.011 342.43, 270.42 343.021, 271.011 342.43, 271.602 343.021, 272.193 342.43, 272.784 341.839, 272.193"/>
<polygon points=" 358.374, 274.115 357.783, 274.707 357.192, 274.115 357.783, 273.524 357.192, 272.933 357.783, 272.342 358.374, 272.933 358.965, 272.342 359.556, 272.933 358.965, 273.524 359.556, 274.115 358.965, 274.707 358.374, 274.115"/>
<polygon points=" 374.909, 274.758 374.318, 275.349 373.727, 274.758 374.318, 274.167 373.727, 273.576 374.318, 272.984 374.909, 273.576 375.501, 272.984 376.092, 273.576 375.501, 274.167 376.092, 274.758 375.501, 275.349 374.909, 274.758"/>
<polygon points=" 391.445, 274.947 390.854, 275.538 390.263, 274.947 390.854, 274.356 390.263, 273.765 390.854, 273.174 391.445, 273.765 392.036, 273.174 392.627, 273.765 392.036, 274.356 392.627, 274.947 392.036, 275.538 391.445, 274.947"/>
<polygon points=" 407.98, 274.997 407.389, 275.588 406.798, 274.997 407.389, 274.406 406.798, 273.814 407.389, 273.223 407.98, 273.814 408.571, 273.223 409.163, 273.814 408.571, 274.406 409.163, 274.997 408.571, 275.588 407.98, 274.997"/>
<polygon points=" 424.516, 275.008 423.925, 275.599 423.333, 275.008 423.925, 274.417 423.333, 273.826 423.925, 273.234 424.516, 273.826 425.107, 273.234 425.698, 273.826 425.107, 274.417 425.698, 275.008 425.107, 275.599 424.516, 275.008"/>
<polygon points=" 441.051, 275.01 440.46, 275.602 439.869, 275.01 440.46, 274.419 439.869, 273.828 440.46, 273.237 441.051, 273.828 441.642, 273.237 442.234, 273.828 441.642, 274.419 442.234, 275.01 441.642, 275.602 441.051, 275.01"/>
<polygon points=" 457.587, 275.011 456.995, 275.602 456.404, 275.011 456.995, 274.42 456.404, 273.828 456.995, 273.237 457.587, 273.828 458.178, 273.237 458.769, 273.828 458.178, 274.42 458.769, 275.011 458.178, 275.602 457.587, 275.011"/>
<polygon points=" 474.122, 275.011 473.531, 275.602 472.94, 275.011 473.531, 274.42 472.94, 273.829 473.531, 273.237 474.122, 273.829 474.713, 273.237 475.304, 273.829 474.713, 274.42 475.304, 275.011 474.713, 275.602 474.122, 275.011"/>
</g>
<path d="M93.8071,273.9l 16.5354, -4.88845l 16.5354, -14.9456l 16.5354, -29.8934l 16.5354, -44.7376l 16.5354, -48.8489l 16.5354, -33.1912l 16.5354, -1.60634l 16.5354, 29.5176l 16.5354, 45.1904l 16.5354, 42.919l 16.5354, 30.5798l 16.5354, 17.4389l
 16.5354, 8.20891l 16.5354, 3.25435l 16.5354, 1.09828l 16.5354, 0.321458l 16.5354, 0.102778h 82.6772" fill="none" stroke="#33ff99"/>
<g fill="#33ff99">
<polygon points=" 93.413, 273.506 93.413, 272.717 94.2012, 272.717 94.2012, 273.506 94.9894, 273.506 94.9894, 274.294 94.2012, 274.294 94.2012, 275.082 93.413, 275.082 93.413, 274.294 92.6247, 274.294 92.6247, 273.506"/>
<polygon points=" 109.948, 268.617 109.948, 267.829 110.737, 267.829 110.737, 268.617 111.525, 268.617 111.525, 269.405 110.737, 269.405 110.737, 270.194 109.948, 270.194 109.948, 269.405 109.16, 269.405 109.16, 268.617"/>
<polygon points=" 126.484, 253.672 126.484, 252.883 127.272, 252.883 127.272, 253.672 128.06, 253.672 128.06, 254.46 127.272, 254.46 127.272, 255.248 126.484, 255.248 126.484, 254.46 125.696, 254.46 125.696, 253.672"/>
<polygon points=" 143.019, 223.778 143.019, 222.99 143.807, 222.99 143.807, 223.778 144.596, 223.778 144.596, 224.566 143.807, 224.566 143.807, 225.355 143.019, 225.355 143.019, 224.566 142.231, 224.566 142.231, 223.778"/>
<polygon points=" 159.555, 179.041 159.555, 178.252 160.343, 178.252 160.343, 179.041 161.131, 179.041 161.131, 179.829 160.343, 179.829 160.343, 180.617 159.555, 180.617 159.555, 179.829 158.766, 179.829 158.766, 179.041"/>
<polygon points=" 176.09, 130.192 176.09, 129.403 176.878, 129.403 176.878, 130.192 177.667, 130.192 177.667, 130.98 176.878, 130.98 176.878, 131.768 176.09, 131.768 176.09, 130.98 175.302, 130.98 175.302, 130.192"/>
<polygon points=" 192.626, 97.0005 192.626, 96.2123 193.414, 96.2123 193.414, 97.0005 194.202, 97.0005 194.202, 97.7887 193.414, 97.7887 193.414, 98.5769 192.626, 98.5769 192.626, 97.7887 191.837, 97.7887 191.837, 97.0005"/>
<polygon points=" 209.161, 95.3942 209.161, 94.6059 209.949, 94.6059 209.949, 95.3942 210.737, 95.3942 210.737, 96.1824 209.949, 96.1824 209.949, 96.9706 209.161, 96.9706 209.161, 96.1824 208.373, 96.1824 208.373, 95.3942"/>
<polygon points=" 225.696, 124.912 225.696, 124.124 226.485, 124.124 226.485, 124.912 227.273, 124.912 227.273, 125.7 226.485, 125.7 226.485, 126.488 225.696, 126.488 225.696, 125.7 224.908, 125.7 224.908, 124.912"/>
<polygon points=" 242.232, 170.102 242.232, 169.314 243.02, 169.314 243.02, 170.102 243.808, 170.102 243.808, 170.89 243.02, 170.89 243.02, 171.679 242.232, 171.679 242.232, 170.89 241.444, 170.89 241.444, 170.102"/>
<polygon points=" 258.767, 213.021 258.767, 212.233 259.556, 212.233 259.556, 213.021 260.344, 213.021 260.344, 213.809 259.556, 213.809 259.556, 214.598 258.767, 214.598 258.767, 213.809 257.979, 213.809 257.979, 213.021"/>
<polygon points=" 275.303, 243.601 275.303, 242.813 276.091, 242.813 276.091, 243.601 276.879, 243.601 276.879, 244.389 276.091, 244.389 276.091, 245.177 275.303, 245.177 275.303, 244.389 274.515, 244.389 274.515, 243.601"/>
<polygon points=" 291.838, 261.04 291.838, 260.252 292.626, 260.252 292.626, 261.04 293.415, 261.04 293.415, 261.828 292.626, 261.828 292.626, 262.616 291.838, 262.616 291.838, 261.828 291.05, 261.828 291.05, 261.04"/>
<polygon points=" 308.374, 269.249 308.374, 268.461 309.162, 268.461 309.162, 269.249 309.95, 269.249 309.95, 270.037 309.162, 270.037 309.162, 270.825 308.374, 270.825 308.374, 270.037 307.585, 270.037 307.585, 269.249"/>
<polygon points=" 324.909, 272.503 324.909, 271.715 325.697, 271.715 325.697, 272.503 326.485, 272.503 326.485, 273.291 325.697, 273.291 325.697, 274.08 324.909, 274.08 324.909, 273.291 324.121, 273.291 324.121, 272.503"/>
<polygon points=" 341.444, 273.601 341.444, 272.813 342.233, 272.813 342.233, 273.601 343.021, 273.601 343.021, 274.39 342.233, 274.39 342.233, 275.178 341.444, 275.178 341.444, 274.39 340.656, 274.39 340.656, 273.601"/>
<polygon points=" 357.98, 273.923 357.98, 273.135 358.768, 273.135 358.768, 273.923 359.556, 273.923 359.556, 274.711 358.768, 274.711 358.768, 275.499 357.98, 275.499 357.98, 274.711 357.192, 274.711 357.192, 273.923"/>
<polygon points=" 374.515, 274.004 374.515, 273.215 375.304, 273.215 375.304, 274.004 376.092, 274.004 376.092, 274.792 375.304, 274.792 375.304, 275.58 374.515, 275.58 374.515, 274.792 373.727, 274.792 373.727, 274.004"/>
<polygon points=" 391.051, 274.021 391.051, 273.233 391.839, 273.233 391.839, 274.021 392.627, 274.021 392.627, 274.81 391.839, 274.81 391.839, 275.598 391.051, 275.598 391.051, 274.81 390.263, 274.81 390.263, 274.021"/>
<polygon points=" 407.586, 274.025 407.586, 273.237 408.374, 273.237 408.374, 274.025 409.163, 274.025 409.163, 274.813 408.374, 274.813 408.374, 275.601 407.586, 275.601 407.586, 274.813 406.798, 274.813 406.798, 274.025"/>
<polygon points=" 424.122, 274.025 424.122, 273.237 424.91, 273.237 424.91, 274.025 425.698, 274.025 425.698, 274.814 424.91, 274.814 424.91, 275.602 424.122, 275.602 424.122, 274.814 423.333, 274.814 423.333, 274.025"/>
<polygon points=" 440.657, 274.026 440.657, 273.237 441.445, 273.237 441.445, 274.026 442.234, 274.026 442.234, 274.814 441.445, 274.814 441.445, 275.602 440.657, 275.602 440.657, 274.814 439.869, 274.814 439.869, 274.026"/>
<polygon points=" 457.193, 274.026 457.193, 273.237 457.981, 273.237 457.981, 274.026 458.769, 274.026 458.769, 274.814 457.981, 274.814 457.981, 275.602 457.193, 275.602 457.193, 274.814 456.404, 274.814 456.404, 274.026"/>
</g>
<path d="M93.8071,267.398l 16.5354, -22.0276l 16.5354, -34.4365l 16.5354, -42.4335l 16.5354, -40.852l 16.5354, -24.6722l 16.5354, 2.84435l 16.5354, 29.1129l 16.5354, 42.1286l 16.5354, 39.7389l 16.5354, 28.5159l 16.5354, 16.4834l 16.5354, 7.89383l
 16.5354, 3.18754l 16.5354, 1.10148l 16.5354, 0.327654l 16.5354, 0.108805h 82.6772" fill="none" stroke="#00cccc"/>
<g stroke="#00cccc" stroke-width="1" fill="none">
<polygon points=" 93.413, 267.004 93.413, 266.216 94.2012, 266.216 94.2012, 267.004 94.9894, 267.004 94.9894, 267.792 94.2012, 267.792 94.2012, 268.581 93.413, 268.581 93.413, 267.792 92.6247, 267.792 92.6247, 267.004"/>
<polygon points=" 109.948, 244.977 109.948, 244.188 110.737, 244.188 110.737, 244.977 111.525, 244.977 111.525, 245.765 110.737, 245.765 110.737, 246.553 109.948, 246.553 109.948, 245.765 109.16, 245.765 109.16, 244.977"/>
<polygon points=" 126.484, 210.54 126.484, 209.752 127.272, 209.752 127.272, 210.54 128.06, 210.54 128.06, 211.328 127.272, 211.328 127.272, 212.117 126.484, 212.117 126.484, 211.328 125.696, 211.328 125.696, 210.54"/>
<polygon points=" 143.019, 168.107 143.019, 167.318 143.807, 167.318 143.807, 168.107 144.596, 168.107 144.596, 168.895 143.807, 168.895 143.807, 169.683 143.019, 169.683 143.019, 168.895 142.231, 168.895 142.231, 168.107"/>
<polygon points=" 159.555, 127.255 159.555, 126.466 160.343, 126.466 160.343, 127.255 161.131, 127.255 161.131, 128.043 160.343, 128.043 160.343, 128.831 159.555, 128.831 159.555, 128.043 158.766, 128.043 158.766, 127.255"/>
<polygon points=" 176.09, 102.582 176.09, 101.794 176.878, 101.794 176.878, 102.582 177.667, 102.582 177.667, 103.371 176.878, 103.371 176.878, 104.159 176.09, 104.159 176.09, 103.371 175.302, 103.371 175.302, 102.582"/>
<polygon points=" 192.626, 105.427 192.626, 104.638 193.414, 104.638 193.414, 105.427 194.202, 105.427 194.202, 106.215 193.414, 106.215 193.414, 107.003 192.626, 107.003 192.626, 106.215 191.837, 106.215 191.837, 105.427"/>
<polygon points=" 209.161, 134.54 209.161, 133.751 209.949, 133.751 209.949, 134.54 210.737, 134.54 210.737, 135.328 209.949, 135.328 209.949, 136.116 209.161, 136.116 209.161, 135.328 208.373, 135.328 208.373, 134.54"/>
<polygon points=" 225.696, 176.668 225.696, 175.88 226.485, 175.88 226.485, 176.668 227.273, 176.668 227.273, 177.456 226.485, 177.456 226.485, 178.245 225.696, 178.245 225.696, 177.456 224.908, 177.456 224.908, 176.668"/>
<polygon points=" 242.232, 216.407 242.232, 215.619 243.02, 215.619 243.02, 216.407 243.808, 216.407 243.808, 217.195 243.02, 217.195 243.02, 217.983 242.232, 217.983 242.232, 217.195 241.444, 217.195 241.444, 216.407"/>
<polygon points=" 258.767, 244.923 258.767, 244.135 259.556, 244.135 259.556, 244.923 260.344, 244.923 260.344, 245.711 259.556, 245.711 259.556, 246.499 258.767, 246.499 258.767, 245.711 257.979, 245.711 257.979, 244.923"/>
<polygon points=" 275.303, 261.406 275.303, 260.618 276.091, 260.618 276.091, 261.406 276.879, 261.406 276.879, 262.195 276.091, 262.195 276.091, 262.983 275.303, 262.983 275.303, 262.195 274.515, 262.195 274.515, 261.406"/>
<polygon points=" 291.838, 269.3 291.838, 268.512 292.626, 268.512 292.626, 269.3 293.415, 269.3 293.415, 270.088 292.626, 270.088 292.626, 270.877 291.838, 270.877 291.838, 270.088 291.05, 270.088 291.05, 269.3"/>
<polygon points=" 308.374, 272.488 308.374, 271.699 309.162, 271.699 309.162, 272.488 309.95, 272.488 309.95, 273.276 309.162, 273.276 309.162, 274.064 308.374, 274.064 308.374, 273.276 307.585, 273.276 307.585, 272.488"/>
<polygon points=" 324.909, 273.589 324.909, 272.801 325.697, 272.801 325.697, 273.589 326.485, 273.589 326.485, 274.377 325.697, 274.377 325.697, 275.166 324.909, 275.166 324.909, 274.377 324.121, 274.377 324.121, 273.589"/>
<polygon points=" 341.444, 273.917 341.444, 273.129 342.233, 273.129 342.233, 273.917 343.021, 273.917 343.021, 274.705 342.233, 274.705 342.233, 275.493 341.444, 275.493 341.444, 274.705 340.656, 274.705 340.656, 273.917"/>
<polygon points=" 357.98, 274.002 357.98, 273.213 358.768, 273.213 358.768, 274.002 359.556, 274.002 359.556, 274.79 358.768, 274.79 358.768, 275.578 357.98, 275.578 357.98, 274.79 357.192, 274.79 357.192, 274.002"/>
<polygon points=" 374.515, 274.021 374.515, 273.233 375.304, 273.233 375.304, 274.021 376.092, 274.021 376.092, 274.809 375.304, 274.809 375.304, 275.597 374.515, 275.597 374.515, 274.809 373.727, 274.809 373.727, 274.021"/>
<polygon points=" 391.051, 274.025 391.051, 273.237 391.839, 273.237 391.839, 274.025 392.627, 274.025 392.627, 274.813 391.839, 274.813 391.839, 275.601 391.051, 275.601 391.051, 274.813 390.263, 274.813 390.263, 274.025"/>
<polygon points=" 407.586, 274.025 407.586, 273.237 408.374, 273.237 408.374, 274.025 409.163, 274.025 409.163, 274.814 408.374, 274.814 408.374, 275.602 407.586, 275.602 407.586, 274.814 406.798, 274.814 406.798, 274.025"/>
<polygon points=" 424.122, 274.026 424.122, 273.237 424.91, 273.237 424.91, 274.026 425.698, 274.026 425.698, 274.814 424.91, 274.814 424.91, 275.602 424.122, 275.602 424.122, 274.814 423.333, 274.814 423.333, 274.026"/>
<polygon points=" 440.657, 274.026 440.657, 273.237 441.445, 273.237 441.445, 274.026 442.234, 274.026 442.234, 274.814 441.445, 274.814 441.445, 275.602 440.657, 275.602 440.657, 274.814 439.869, 274.814 439.869, 274.026"/>
</g>
<path d="M93.8071,220.133l 16.5354, -47.0191l 16.5354, -35.1709l 16.5354, -21.7757l 16.5354, -4.51022l 16.5354, 15.5967l 16.5354, 31.8293l 16.5354, 37.6155l 16.5354, 32.7874l 16.5354, 22.5952l 16.5354, 12.7554l 16.5354, 6.02195l 16.5354, 2.40881l
 16.5354, 0.826262l 16.5354, 0.245359l 16.5354, 0.0810924h 82.6772" fill="none" stroke="#0099cc"/>
<g fill="#0099cc">
<polygon points=" 93.8071, 218.95 94.9894, 221.315 92.6247, 221.315"/>
<polygon points=" 110.343, 171.931 111.525, 174.296 109.16, 174.296"/>
<polygon points=" 126.878, 136.76 128.06, 139.125 125.696, 139.125"/>
<polygon points=" 143.413, 114.985 144.596, 117.349 142.231, 117.349"/>
<polygon points=" 159.949, 110.474 161.131, 112.839 158.766, 112.839"/>
<polygon points=" 176.484, 126.071 177.667, 128.436 175.302, 128.436"/>
<polygon points=" 193.02, 157.9 194.202, 160.265 191.837, 160.265"/>
<polygon points=" 209.555, 195.516 210.737, 197.881 208.373, 197.881"/>
<polygon points=" 226.091, 228.303 227.273, 230.668 224.908, 230.668"/>
<polygon points=" 242.626, 250.899 243.808, 253.263 241.444, 253.263"/>
<polygon points=" 259.161, 263.654 260.344, 266.019 257.979, 266.019"/>
<polygon points=" 275.697, 269.676 276.879, 272.04 274.515, 272.04"/>
<polygon points=" 292.232, 272.085 293.415, 274.449 291.05, 274.449"/>
<polygon points=" 308.768, 272.911 309.95, 275.276 307.585, 275.276"/>
<polygon points=" 325.303, 273.156 326.485, 275.521 324.121, 275.521"/>
<polygon points=" 341.839, 273.22 343.021, 275.584 340.656, 275.584"/>
<polygon points=" 358.374, 273.234 359.556, 275.599 357.192, 275.599"/>
<polygon points=" 374.909, 273.237 376.092, 275.601 373.727, 275.601"/>
<polygon points=" 391.445, 273.237 392.627, 275.602 390.263, 275.602"/>
<polygon points=" 407.98, 273.237 409.163, 275.602 406.798, 275.602"/>
<polygon points=" 424.516, 273.237 425.698, 275.602 423.333, 275.602"/>
</g>
<path d="M93.8071,53.4342l 16.5354, 20.9062l 16.5354, 26.6875l 16.5354, 29.274l 16.5354, 31.3125l 16.5354, 32.1244l 16.5354, 29.2889l 16.5354, 22.6572l 16.5354, 14.7308l 16.5354, 8.06294l 16.5354, 3.74067l 16.5354, 1.48829l 16.5354, 0.509897l
 16.5354, 0.151764l 16.5354, 0.0503625h 82.6772" fill="none" stroke="#000033"/>
<g stroke="#000033" stroke-width="1" fill="none">
<circle cx="93.8071" cy="53.4342" r="1.18233"/>
<circle cx="110.343" cy="74.3404" r="1.18233"/>
<circle cx="126.878" cy="101.028" r="1.18233"/>
<circle cx="143.413" cy="130.302" r="1.18233"/>
<circle cx="159.949" cy="161.614" r="1.18233"/>
<circle cx="176.484" cy="193.739" r="1.18233"/>
<circle cx="193.02" cy="223.028" r="1.18233"/>
<circle cx="209.555" cy="245.685" r="1.18233"/>
<circle cx="226.091" cy="260.416" r="1.18233"/>
<circle cx="242.626" cy="268.479" r="1.18233"/>
<circle cx="259.161" cy="272.219" r="1.18233"/>
<circle cx="275.697" cy="273.708" r="1.18233"/>
<circle cx="292.232" cy="274.218" r="1.18233"/>
<circle cx="308.768" cy="274.369" r="1.18233"/>
<circle cx="325.303" cy="274.408" r="1.18233"/>
<circle cx="341.839" cy="274.418" r="1.18233"/>
<circle cx="358.374" cy="274.419" r="1.18233"/>
<circle cx="374.909" cy="274.42" r="1.18233"/>
<circle cx="391.445" cy="274.42" r="1.18233"/>
<circle cx="407.98" cy="274.42" r="1.18233"/>
</g>
<text xml:space="preserve" x="272.437" y="39.6082" fill="black" font-size="9.08277" font-family="Helvetica">PYTHIA8</text>
<text xml:space="preserve" x="272.437" y="51.1359" fill="black" font-size="9.08277" font-family="Helvetica">pAu200GeV, option3</text>
<text xml:space="preserve" x="440.033" y="62.9593" fill="black" font-size="9.08277" font-family="Helvetica">: 5.085</text>
<text xml:space="preserve" x="437.077" y="62.9593" fill="black" font-size="9.08277" font-family="Times">&#0062;</text>
<text xml:space="preserve" x="428.505" y="67.0975" fill="black" font-size="6.22185" font-family="Helvetica">coll</text>
<text xml:space="preserve" x="422.593" y="62.9593" fill="black" font-size="9.08277" font-family="Helvetica">N</text>
<text xml:space="preserve" x="419.637" y="62.9593" fill="black" font-size="9.08277" font-family="Times">&#0060;</text>
<text xml:space="preserve" x="323.573" y="62.9593" fill="black" font-size="9.08277" font-family="Helvetica">all inelastic events(MB), </text>
<g fill="black">
<rect x="294.121" y="59.2368" width="2.36467" height="2.36467"/>
</g>
<text xml:space="preserve" x="416.977" y="74.487" fill="black" font-size="9.08277" font-family="Helvetica">: 9.02</text>
<text xml:space="preserve" x="414.021" y="74.487" fill="black" font-size="9.08277" font-family="Times">&#0062;</text>
<text xml:space="preserve" x="405.449" y="78.6252" fill="black" font-size="6.22185" font-family="Helvetica">coll</text>
<text xml:space="preserve" x="399.538" y="74.487" fill="black" font-size="9.08277" font-family="Helvetica">N</text>
<text xml:space="preserve" x="396.582" y="74.487" fill="black" font-size="9.08277" font-family="Times">&#0060;</text>
<text xml:space="preserve" x="323.573" y="74.487" fill="black" font-size="9.08277" font-family="Helvetica">centrality: 0~10%, </text>
<g fill="#cc0000">
<polygon points=" 295.303, 72.7043 294.712, 73.2955 294.121, 72.7043 294.712, 72.1131 294.121, 71.522 294.712, 70.9308 295.303, 71.522 295.894, 70.9308 296.485, 71.522 295.894, 72.1131 296.485, 72.7043 295.894, 73.2955 295.303, 72.7043"/>
</g>
<text xml:space="preserve" x="422.002" y="86.3104" fill="black" font-size="9.08277" font-family="Helvetica">: 7.69</text>
<text xml:space="preserve" x="419.046" y="86.3104" fill="black" font-size="9.08277" font-family="Times">&#0062;</text>
<text xml:space="preserve" x="410.474" y="90.4485" fill="black" font-size="6.22185" font-family="Helvetica">coll</text>
<text xml:space="preserve" x="404.563" y="86.3104" fill="black" font-size="9.08277" font-family="Helvetica">N</text>
<text xml:space="preserve" x="401.607" y="86.3104" fill="black" font-size="9.08277" font-family="Times">&#0060;</text>
<text xml:space="preserve" x="323.573" y="86.3104" fill="black" font-size="9.08277" font-family="Helvetica">centrality: 10~20%, </text>
<g fill="#33ff99">
<polygon points=" 294.909, 83.413 294.909, 82.6248 295.697, 82.6248 295.697, 83.413 296.485, 83.413 296.485, 84.2013 295.697, 84.2013 295.697, 84.9895 294.909, 84.9895 294.909, 84.2013 294.121, 84.2013 294.121, 83.413"/>
</g>
<text xml:space="preserve" x="422.002" y="97.8381" fill="black" font-size="9.08277" font-family="Helvetica">: 6.52</text>
<text xml:space="preserve" x="419.046" y="97.8381" fill="black" font-size="9.08277" font-family="Times">&#0062;</text>
<text xml:space="preserve" x="410.474" y="101.976" fill="black" font-size="6.22185" font-family="Helvetica">coll</text>
<text xml:space="preserve" x="404.563" y="97.8381" fill="black" font-size="9.08277" font-family="Helvetica">N</text>
<text xml:space="preserve" x="401.607" y="97.8381" fill="black" font-size="9.08277" font-family="Times">&#0060;</text>
<text xml:space="preserve" x="323.573" y="97.8381" fill="black" font-size="9.08277" font-family="Helvetica">centrality: 20~40%, </text>
<g stroke="#00cccc" stroke-width="1" fill="none">
<polygon points=" 294.909, 95.1071 294.909, 94.3188 295.697, 94.3188 295.697, 95.1071 296.485, 95.1071 296.485, 95.8953 295.697, 95.8953 295.697, 96.6835 294.909, 96.6835 294.909, 95.8953 294.121, 95.8953 294.121, 95.1071"/>
</g>
<text xml:space="preserve" x="422.002" y="109.661" fill="black" font-size="9.08277" font-family="Helvetica">: 5.04</text>
<text xml:space="preserve" x="419.046" y="109.661" fill="black" font-size="9.08277" font-family="Times">&#0062;</text>
<text xml:space="preserve" x="410.474" y="113.8" fill="black" font-size="6.22185" font-family="Helvetica">coll</text>
<text xml:space="preserve" x="404.563" y="109.661" fill="black" font-size="9.08277" font-family="Helvetica">N</text>
<text xml:space="preserve" x="401.607" y="109.661" fill="black" font-size="9.08277" font-family="Times">&#0060;</text>
<text xml:space="preserve" x="323.573" y="109.661" fill="black" font-size="9.08277" font-family="Helvetica">centrality: 40~60%, </text>
<g fill="#0099cc">
<polygon points=" 295.303, 106.013 296.485, 108.378 294.121, 108.378"/>
</g>
<text xml:space="preserve" x="422.002" y="121.485" fill="black" font-size="9.08277" font-family="Helvetica">: 3.45</text>
<text xml:space="preserve" x="419.046" y="121.485" fill="black" font-size="9.08277" font-family="Times">&#0062;</text>
<text xml:space="preserve" x="410.474" y="125.623" fill="black" font-size="6.22185" font-family="Helvetica">coll</text>
<text xml:space="preserve" x="404.563" y="121.485" fill="black" font-size="9.08277" font-family="Helvetica">N</text>
<text xml:space="preserve" x="401.607" y="121.485" fill="black" font-size="9.08277" font-family="Times">&#0060;</text>
<text xml:space="preserve" x="323.573" y="121.485" fill="black" font-size="9.08277" font-family="Helvetica">centrality: 60~80%, </text>
<g stroke="#000033" stroke-width="1" fill="none">
<circle cx="295.303" cy="118.889" r="1.18233"/>
</g></svg>
