<?xml version="1.0" standalone="no"?>
<svg width="567.429" height="409.002" viewBox="0 0 567.429 409.002" xmlns="http://www.w3.org/2000/svg" shape-rendering="crispEdges">
<title>
/Users/jinhyunpark/npl/gitHub/xloadFromServer/Git_Bias_correction_RxA/plots_dirAdded/avgNcoll_allEvents.svg
</title>
<desc>
Creator: ROOT Version 6.28/04
CreationDate: Thu Aug 24 00:49:19 2023</desc>
<defs>
</defs>
<rect x="0.5" y="0" width="566.929" height="408.502" fill="white"/>
<rect x="85.5394" y="20.4251" width="396.85" height="339.056" fill="white"/>
<rect x="85.5394" y="20.4251" width="396.85" height="339.056" fill="none" stroke="black"/>
<rect x="85.5394" y="20.4251" width="396.85" height="339.056" fill="white"/>
<rect x="85.5394" y="20.4251" width="396.85" height="339.056" fill="none" stroke="black"/>
<path d="M85.5394,359.481h 396.85" fill="none" stroke="black"/>
<path d="M85.5394,350.903v 8.57853" fill="none" stroke="black"/>
<path d="M93.4764,355.192v 4.28927" fill="none" stroke="black"/>
<path d="M101.413,355.192v 4.28927" fill="none" stroke="black"/>
<path d="M109.35,355.192v 4.28927" fill="none" stroke="black"/>
<path d="M117.287,355.192v 4.28927" fill="none" stroke="black"/>
<path d="M125.224,350.903v 8.57853" fill="none" stroke="black"/>
<path d="M133.161,355.192v 4.28927" fill="none" stroke="black"/>
<path d="M141.098,355.192v 4.28927" fill="none" stroke="black"/>
<path d="M149.035,355.192v 4.28927" fill="none" stroke="black"/>
<path d="M156.972,355.192v 4.28927" fill="none" stroke="black"/>
<path d="M164.909,350.903v 8.57853" fill="none" stroke="black"/>
<path d="M172.846,355.192v 4.28927" fill="none" stroke="black"/>
<path d="M180.783,355.192v 4.28927" fill="none" stroke="black"/>
<path d="M188.72,355.192v 4.28927" fill="none" stroke="black"/>
<path d="M196.657,355.192v 4.28927" fill="none" stroke="black"/>
<path d="M204.594,350.903v 8.57853" fill="none" stroke="black"/>
<path d="M212.531,355.192v 4.28927" fill="none" stroke="black"/>
<path d="M220.469,355.192v 4.28927" fill="none" stroke="black"/>
<path d="M228.406,355.192v 4.28927" fill="none" stroke="black"/>
<path d="M236.343,355.192v 4.28927" fill="none" stroke="black"/>
<path d="M244.28,350.903v 8.57853" fill="none" stroke="black"/>
<path d="M252.217,355.192v 4.28927" fill="none" stroke="black"/>
<path d="M260.154,355.192v 4.28927" fill="none" stroke="black"/>
<path d="M268.091,355.192v 4.28927" fill="none" stroke="black"/>
<path d="M276.028,355.192v 4.28927" fill="none" stroke="black"/>
<path d="M283.965,350.903v 8.57853" fill="none" stroke="black"/>
<path d="M291.902,355.192v 4.28927" fill="none" stroke="black"/>
<path d="M299.839,355.192v 4.28927" fill="none" stroke="black"/>
<path d="M307.776,355.192v 4.28927" fill="none" stroke="black"/>
<path d="M315.713,355.192v 4.28927" fill="none" stroke="black"/>
<path d="M323.65,350.903v 8.57853" fill="none" stroke="black"/>
<path d="M331.587,355.192v 4.28927" fill="none" stroke="black"/>
<path d="M339.524,355.192v 4.28927" fill="none" stroke="black"/>
<path d="M347.461,355.192v 4.28927" fill="none" stroke="black"/>
<path d="M355.398,355.192v 4.28927" fill="none" stroke="black"/>
<path d="M363.335,350.903v 8.57853" fill="none" stroke="black"/>
<path d="M371.272,355.192v 4.28927" fill="none" stroke="black"/>
<path d="M379.209,355.192v 4.28927" fill="none" stroke="black"/>
<path d="M387.146,355.192v 4.28927" fill="none" stroke="black"/>
<path d="M395.083,355.192v 4.28927" fill="none" stroke="black"/>
<path d="M403.02,350.903v 8.57853" fill="none" stroke="black"/>
<path d="M410.957,355.192v 4.28927" fill="none" stroke="black"/>
<path d="M418.894,355.192v 4.28927" fill="none" stroke="black"/>
<path d="M426.831,355.192v 4.28927" fill="none" stroke="black"/>
<path d="M434.768,355.192v 4.28927" fill="none" stroke="black"/>
<path d="M442.705,350.903v 8.57853" fill="none" stroke="black"/>
<path d="M450.642,355.192v 4.28927" fill="none" stroke="black"/>
<path d="M458.579,355.192v 4.28927" fill="none" stroke="black"/>
<path d="M466.516,355.192v 4.28927" fill="none" stroke="black"/>
<path d="M474.453,355.192v 4.28927" fill="none" stroke="black"/>
<path d="M482.39,350.903v 8.57853" fill="none" stroke="black"/>
<text xml:space="preserve" x="81.4899" y="372.269" fill="black" font-size="13.617" font-family="Helvetica">0</text>
<text xml:space="preserve" x="117.012" y="372.269" fill="black" font-size="13.617" font-family="Helvetica">10</text>
<text xml:space="preserve" x="156.796" y="372.269" fill="black" font-size="13.617" font-family="Helvetica">20</text>
<text xml:space="preserve" x="196.581" y="372.269" fill="black" font-size="13.617" font-family="Helvetica">30</text>
<text xml:space="preserve" x="236.365" y="372.269" fill="black" font-size="13.617" font-family="Helvetica">40</text>
<text xml:space="preserve" x="276.15" y="372.269" fill="black" font-size="13.617" font-family="Helvetica">50</text>
<text xml:space="preserve" x="315.224" y="372.269" fill="black" font-size="13.617" font-family="Helvetica">60</text>
<text xml:space="preserve" x="355.008" y="372.269" fill="black" font-size="13.617" font-family="Helvetica">70</text>
<text xml:space="preserve" x="394.793" y="372.269" fill="black" font-size="13.617" font-family="Helvetica">80</text>
<text xml:space="preserve" x="434.577" y="372.269" fill="black" font-size="13.617" font-family="Helvetica">90</text>
<text xml:space="preserve" x="470.81" y="372.269" fill="black" font-size="13.617" font-family="Helvetica">100</text>
<text xml:space="preserve" x="407.581" y="385.768" fill="black" font-size="13.617" font-family="Helvetica">centrality(%)</text>
<path d="M85.5394,20.4251h 396.85" fill="none" stroke="black"/>
<path d="M85.5394,29.0036v -8.57853" fill="none" stroke="black"/>
<path d="M93.4764,24.7143v -4.28927" fill="none" stroke="black"/>
<path d="M101.413,24.7143v -4.28927" fill="none" stroke="black"/>
<path d="M109.35,24.7143v -4.28927" fill="none" stroke="black"/>
<path d="M117.287,24.7143v -4.28927" fill="none" stroke="black"/>
<path d="M125.224,29.0036v -8.57853" fill="none" stroke="black"/>
<path d="M133.161,24.7143v -4.28927" fill="none" stroke="black"/>
<path d="M141.098,24.7143v -4.28927" fill="none" stroke="black"/>
<path d="M149.035,24.7143v -4.28927" fill="none" stroke="black"/>
<path d="M156.972,24.7143v -4.28927" fill="none" stroke="black"/>
<path d="M164.909,29.0036v -8.57853" fill="none" stroke="black"/>
<path d="M172.846,24.7143v -4.28927" fill="none" stroke="black"/>
<path d="M180.783,24.7143v -4.28927" fill="none" stroke="black"/>
<path d="M188.72,24.7143v -4.28927" fill="none" stroke="black"/>
<path d="M196.657,24.7143v -4.28927" fill="none" stroke="black"/>
<path d="M204.594,29.0036v -8.57853" fill="none" stroke="black"/>
<path d="M212.531,24.7143v -4.28927" fill="none" stroke="black"/>
<path d="M220.469,24.7143v -4.28927" fill="none" stroke="black"/>
<path d="M228.406,24.7143v -4.28927" fill="none" stroke="black"/>
<path d="M236.343,24.7143v -4.28927" fill="none" stroke="black"/>
<path d="M244.28,29.0036v -8.57853" fill="none" stroke="black"/>
<path d="M252.217,24.7143v -4.28927" fill="none" stroke="black"/>
<path d="M260.154,24.7143v -4.28927" fill="none" stroke="black"/>
<path d="M268.091,24.7143v -4.28927" fill="none" stroke="black"/>
<path d="M276.028,24.7143v -4.28927" fill="none" stroke="black"/>
<path d="M283.965,29.0036v -8.57853" fill="none" stroke="black"/>
<path d="M291.902,24.7143v -4.28927" fill="none" stroke="black"/>
<path d="M299.839,24.7143v -4.28927" fill="none" stroke="black"/>
<path d="M307.776,24.7143v -4.28927" fill="none" stroke="black"/>
<path d="M315.713,24.7143v -4.28927" fill="none" stroke="black"/>
<path d="M323.65,29.0036v -8.57853" fill="none" stroke="black"/>
<path d="M331.587,24.7143v -4.28927" fill="none" stroke="black"/>
<path d="M339.524,24.7143v -4.28927" fill="none" stroke="black"/>
<path d="M347.461,24.7143v -4.28927" fill="none" stroke="black"/>
<path d="M355.398,24.7143v -4.28927" fill="none" stroke="black"/>
<path d="M363.335,29.0036v -8.57853" fill="none" stroke="black"/>
<path d="M371.272,24.7143v -4.28927" fill="none" stroke="black"/>
<path d="M379.209,24.7143v -4.28927" fill="none" stroke="black"/>
<path d="M387.146,24.7143v -4.28927" fill="none" stroke="black"/>
<path d="M395.083,24.7143v -4.28927" fill="none" stroke="black"/>
<path d="M403.02,29.0036v -8.57853" fill="none" stroke="black"/>
<path d="M410.957,24.7143v -4.28927" fill="none" stroke="black"/>
<path d="M418.894,24.7143v -4.28927" fill="none" stroke="black"/>
<path d="M426.831,24.7143v -4.28927" fill="none" stroke="black"/>
<path d="M434.768,24.7143v -4.28927" fill="none" stroke="black"/>
<path d="M442.705,29.0036v -8.57853" fill="none" stroke="black"/>
<path d="M450.642,24.7143v -4.28927" fill="none" stroke="black"/>
<path d="M458.579,24.7143v -4.28927" fill="none" stroke="black"/>
<path d="M466.516,24.7143v -4.28927" fill="none" stroke="black"/>
<path d="M474.453,24.7143v -4.28927" fill="none" stroke="black"/>
<path d="M482.39,29.0036v -8.57853" fill="none" stroke="black"/>
<path d="M85.5394,359.481v -339.056" fill="none" stroke="black"/>
<path d="M99.6559,359.481h -14.1165" fill="none" stroke="black"/>
<path d="M92.5976,348.18h -7.05827" fill="none" stroke="black"/>
<path d="M92.5976,336.878h -7.05827" fill="none" stroke="black"/>
<path d="M92.5976,325.576h -7.05827" fill="none" stroke="black"/>
<path d="M99.6559,314.274h -14.1165" fill="none" stroke="black"/>
<path d="M92.5976,302.972h -7.05827" fill="none" stroke="black"/>
<path d="M92.5976,291.67h -7.05827" fill="none" stroke="black"/>
<path d="M92.5976,280.368h -7.05827" fill="none" stroke="black"/>
<path d="M99.6559,269.066h -14.1165" fill="none" stroke="black"/>
<path d="M92.5976,257.764h -7.05827" fill="none" stroke="black"/>
<path d="M92.5976,246.463h -7.05827" fill="none" stroke="black"/>
<path d="M92.5976,235.161h -7.05827" fill="none" stroke="black"/>
<path d="M99.6559,223.859h -14.1165" fill="none" stroke="black"/>
<path d="M92.5976,212.557h -7.05827" fill="none" stroke="black"/>
<path d="M92.5976,201.255h -7.05827" fill="none" stroke="black"/>
<path d="M92.5976,189.953h -7.05827" fill="none" stroke="black"/>
<path d="M99.6559,178.651h -14.1165" fill="none" stroke="black"/>
<path d="M92.5976,167.349h -7.05827" fill="none" stroke="black"/>
<path d="M92.5976,156.048h -7.05827" fill="none" stroke="black"/>
<path d="M92.5976,144.746h -7.05827" fill="none" stroke="black"/>
<path d="M99.6559,133.444h -14.1165" fill="none" stroke="black"/>
<path d="M92.5976,122.142h -7.05827" fill="none" stroke="black"/>
<path d="M92.5976,110.84h -7.05827" fill="none" stroke="black"/>
<path d="M92.5976,99.5382h -7.05827" fill="none" stroke="black"/>
<path d="M99.6559,88.2363h -14.1165" fill="none" stroke="black"/>
<path d="M92.5976,76.9345h -7.05827" fill="none" stroke="black"/>
<path d="M92.5976,65.6326h -7.05827" fill="none" stroke="black"/>
<path d="M92.5976,54.3307h -7.05827" fill="none" stroke="black"/>
<path d="M99.6559,43.0288h -14.1165" fill="none" stroke="black"/>
<path d="M99.6559,43.0288h -14.1165" fill="none" stroke="black"/>
<path d="M92.5976,31.727h -7.05827" fill="none" stroke="black"/>
<text xml:space="preserve" x="75.0959" y="364.454" fill="black" font-size="13.617" font-family="Helvetica">0</text>
<text xml:space="preserve" x="75.0959" y="319.697" fill="black" font-size="13.617" font-family="Helvetica">2</text>
<text xml:space="preserve" x="75.0959" y="274.229" fill="black" font-size="13.617" font-family="Helvetica">4</text>
<text xml:space="preserve" x="75.0959" y="228.761" fill="black" font-size="13.617" font-family="Helvetica">6</text>
<text xml:space="preserve" x="75.0959" y="183.293" fill="black" font-size="13.617" font-family="Helvetica">8</text>
<text xml:space="preserve" x="67.2811" y="137.825" fill="black" font-size="13.617" font-family="Helvetica">10</text>
<text xml:space="preserve" x="67.2811" y="93.7778" fill="black" font-size="13.617" font-family="Helvetica">12</text>
<text xml:space="preserve" x="67.2811" y="48.3098" fill="black" font-size="13.617" font-family="Helvetica">14</text>
<g transform="rotate(-90,53.0724,24.1549)">
<text xml:space="preserve" x="53.0724" y="24.1549" fill="black" font-size="13.617" font-family="Times">&#0062;</text>
</g>
<g transform="rotate(-90,59.4663,37.6532)">
<text xml:space="preserve" x="59.4663" y="37.6532" fill="black" font-size="9.24468" font-family="Helvetica">coll</text>
</g>
<g transform="rotate(-90,53.0724,46.8889)">
<text xml:space="preserve" x="53.0724" y="46.8889" fill="black" font-size="13.617" font-family="Helvetica">N</text>
</g>
<g transform="rotate(-90,53.0724,51.1515)">
<text xml:space="preserve" x="53.0724" y="51.1515" fill="black" font-size="13.617" font-family="Times">&#0060;</text>
</g>
<path d="M482.39,359.481v -339.056" fill="none" stroke="black"/>
<path d="M468.273,359.481h 14.1165" fill="none" stroke="black"/>
<path d="M475.332,348.18h 7.05827" fill="none" stroke="black"/>
<path d="M475.332,336.878h 7.05827" fill="none" stroke="black"/>
<path d="M475.332,325.576h 7.05827" fill="none" stroke="black"/>
<path d="M468.273,314.274h 14.1165" fill="none" stroke="black"/>
<path d="M475.332,302.972h 7.05827" fill="none" stroke="black"/>
<path d="M475.332,291.67h 7.05827" fill="none" stroke="black"/>
<path d="M475.332,280.368h 7.05827" fill="none" stroke="black"/>
<path d="M468.273,269.066h 14.1165" fill="none" stroke="black"/>
<path d="M475.332,257.764h 7.05827" fill="none" stroke="black"/>
<path d="M475.332,246.463h 7.05827" fill="none" stroke="black"/>
<path d="M475.332,235.161h 7.05827" fill="none" stroke="black"/>
<path d="M468.273,223.859h 14.1165" fill="none" stroke="black"/>
<path d="M475.332,212.557h 7.05827" fill="none" stroke="black"/>
<path d="M475.332,201.255h 7.05827" fill="none" stroke="black"/>
<path d="M475.332,189.953h 7.05827" fill="none" stroke="black"/>
<path d="M468.273,178.651h 14.1165" fill="none" stroke="black"/>
<path d="M475.332,167.349h 7.05827" fill="none" stroke="black"/>
<path d="M475.332,156.048h 7.05827" fill="none" stroke="black"/>
<path d="M475.332,144.746h 7.05827" fill="none" stroke="black"/>
<path d="M468.273,133.444h 14.1165" fill="none" stroke="black"/>
<path d="M475.332,122.142h 7.05827" fill="none" stroke="black"/>
<path d="M475.332,110.84h 7.05827" fill="none" stroke="black"/>
<path d="M475.332,99.5382h 7.05827" fill="none" stroke="black"/>
<path d="M468.273,88.2363h 14.1165" fill="none" stroke="black"/>
<path d="M475.332,76.9345h 7.05827" fill="none" stroke="black"/>
<path d="M475.332,65.6326h 7.05827" fill="none" stroke="black"/>
<path d="M475.332,54.3307h 7.05827" fill="none" stroke="black"/>
<path d="M468.273,43.0288h 14.1165" fill="none" stroke="black"/>
<path d="M468.273,43.0288h 14.1165" fill="none" stroke="black"/>
<path d="M475.332,31.727h 7.05827" fill="none" stroke="black"/>
<path d="M85.5394,155.63h 17.0008" fill="none" stroke="#59d354"/>
<path d="M108.224,155.63h 17.0008" fill="none" stroke="#59d354"/>
<g fill="#59d354">
<rect x="102.54" y="152.788" width="5.6835" height="5.6835"/>
</g>
<path d="M125.224,185.613h 17.0008" fill="none" stroke="#59d354"/>
<path d="M147.909,185.613h 17.0008" fill="none" stroke="#59d354"/>
<g fill="#59d354">
<rect x="142.225" y="182.771" width="5.6835" height="5.6835"/>
</g>
<path d="M164.909,203.852h 17.0008" fill="none" stroke="#59d354"/>
<path d="M187.594,203.852h 17.0008" fill="none" stroke="#59d354"/>
<g fill="#59d354">
<rect x="181.91" y="201.011" width="5.6835" height="5.6835"/>
</g>
<path d="M204.594,220.183h 17.0008" fill="none" stroke="#59d354"/>
<path d="M227.279,220.183h 17.0008" fill="none" stroke="#59d354"/>
<g fill="#59d354">
<rect x="221.595" y="217.342" width="5.6835" height="5.6835"/>
</g>
<path d="M244.28,236.742h 17.0008" fill="none" stroke="#59d354"/>
<path d="M266.964,236.742h 17.0008" fill="none" stroke="#59d354"/>
<g fill="#59d354">
<rect x="261.28" y="233.9" width="5.6835" height="5.6835"/>
</g>
<path d="M283.965,254.182h 17.0008" fill="none" stroke="#59d354"/>
<path d="M306.649,254.182h 17.0008" fill="none" stroke="#59d354"/>
<g fill="#59d354">
<rect x="300.965" y="251.341" width="5.6835" height="5.6835"/>
</g>
<path d="M323.65,272.409h 17.0008" fill="none" stroke="#59d354"/>
<path d="M346.334,272.409h 17.0008" fill="none" stroke="#59d354"/>
<g fill="#59d354">
<rect x="340.65" y="269.567" width="5.6835" height="5.6835"/>
</g>
<path d="M363.335,290.352h 17.0008" fill="none" stroke="#59d354"/>
<path d="M386.019,290.352h 17.0008" fill="none" stroke="#59d354"/>
<g fill="#59d354">
<rect x="380.335" y="287.511" width="5.6835" height="5.6835"/>
</g>
<path d="M403.02,306.062h 17.0008" fill="none" stroke="#59d354"/>
<path d="M425.704,306.062h 17.0008" fill="none" stroke="#59d354"/>
<g fill="#59d354">
<rect x="420.02" y="303.22" width="5.6835" height="5.6835"/>
</g>
<path d="M442.705,315.744h 17.0008" fill="none" stroke="#59d354"/>
<path d="M465.389,315.744h 17.0008" fill="none" stroke="#59d354"/>
<g fill="#59d354">
<rect x="459.706" y="312.902" width="5.6835" height="5.6835"/>
</g>
<text xml:space="preserve" x="287.517" y="53.2828" fill="black" font-size="15.4909" font-family="Helvetica">PYTHIA8, option3</text>
<text xml:space="preserve" x="287.517" y="93.7778" fill="black" font-size="15.4909" font-family="Helvetica">p+Au, 200 GeV</text>
<text xml:space="preserve" x="321.618" y="132.852" fill="black" font-size="15.4909" font-family="Helvetica"> of Inelastic events</text>
<text xml:space="preserve" x="316.645" y="132.852" fill="black" font-size="15.4909" font-family="Times">&#0062;</text>
<text xml:space="preserve" x="302.436" y="139.956" fill="black" font-size="10.4939" font-family="Helvetica">coll</text>
<text xml:space="preserve" x="292.49" y="132.852" fill="black" font-size="15.4909" font-family="Helvetica">N</text>
<text xml:space="preserve" x="287.517" y="132.852" fill="black" font-size="15.4909" font-family="Times">&#0060;</text></svg>
