<?xml version="1.0" standalone="no"?>
<svg width="567.429" height="409.002" viewBox="0 0 567.429 409.002" xmlns="http://www.w3.org/2000/svg" shape-rendering="crispEdges">
<title>
/Users/jinhyunpark/npl/gitHub/git_share/Git_Bias_correction_RxA/plots_dirAdded/dNdeta_MBevents_pion0_MCcompare.svg
</title>
<desc>
Creator: ROOT Version 6.28/04
CreationDate: Thu Sep  7 17:54:29 2023</desc>
<defs>
</defs>
<rect x="0.5" y="0" width="566.929" height="408.502" fill="white"/>
<rect x="85.5394" y="20.4251" width="396.85" height="339.056" fill="white"/>
<rect x="85.5394" y="20.4251" width="396.85" height="339.056" fill="none" stroke="black"/>
<rect x="85.5394" y="20.4251" width="396.85" height="339.056" fill="white"/>
<rect x="85.5394" y="20.4251" width="396.85" height="339.056" fill="none" stroke="black"/>
<path d="M85.5394,359.481h 396.85" fill="none" stroke="black"/>
<path d="M85.5394,350.903v 8.57853" fill="none" stroke="black"/>
<path d="M102.075,355.192v 4.28927" fill="none" stroke="black"/>
<path d="M118.61,355.192v 4.28927" fill="none" stroke="black"/>
<path d="M135.146,355.192v 4.28927" fill="none" stroke="black"/>
<path d="M151.681,350.903v 8.57853" fill="none" stroke="black"/>
<path d="M168.217,355.192v 4.28927" fill="none" stroke="black"/>
<path d="M184.752,355.192v 4.28927" fill="none" stroke="black"/>
<path d="M201.287,355.192v 4.28927" fill="none" stroke="black"/>
<path d="M217.823,350.903v 8.57853" fill="none" stroke="black"/>
<path d="M234.358,355.192v 4.28927" fill="none" stroke="black"/>
<path d="M250.894,355.192v 4.28927" fill="none" stroke="black"/>
<path d="M267.429,355.192v 4.28927" fill="none" stroke="black"/>
<path d="M283.965,350.903v 8.57853" fill="none" stroke="black"/>
<path d="M300.5,355.192v 4.28927" fill="none" stroke="black"/>
<path d="M317.035,355.192v 4.28927" fill="none" stroke="black"/>
<path d="M333.571,355.192v 4.28927" fill="none" stroke="black"/>
<path d="M350.106,350.903v 8.57853" fill="none" stroke="black"/>
<path d="M366.642,355.192v 4.28927" fill="none" stroke="black"/>
<path d="M383.177,355.192v 4.28927" fill="none" stroke="black"/>
<path d="M399.713,355.192v 4.28927" fill="none" stroke="black"/>
<path d="M416.248,350.903v 8.57853" fill="none" stroke="black"/>
<path d="M432.783,355.192v 4.28927" fill="none" stroke="black"/>
<path d="M449.319,355.192v 4.28927" fill="none" stroke="black"/>
<path d="M465.854,355.192v 4.28927" fill="none" stroke="black"/>
<path d="M482.39,350.903v 8.57853" fill="none" stroke="black"/>
<text xml:space="preserve" x="85.0421" y="372.269" fill="black" font-size="13.617" font-family="Helvetica">6</text>
<text xml:space="preserve" x="77.2272" y="372.269" fill="black" font-size="13.617" font-family="Times">&#8722;</text>
<text xml:space="preserve" x="151.113" y="372.269" fill="black" font-size="13.617" font-family="Helvetica">4</text>
<text xml:space="preserve" x="143.298" y="372.269" fill="black" font-size="13.617" font-family="Times">&#8722;</text>
<text xml:space="preserve" x="217.183" y="372.269" fill="black" font-size="13.617" font-family="Helvetica">2</text>
<text xml:space="preserve" x="209.369" y="372.269" fill="black" font-size="13.617" font-family="Times">&#8722;</text>
<text xml:space="preserve" x="280.412" y="372.269" fill="black" font-size="13.617" font-family="Helvetica">0</text>
<text xml:space="preserve" x="346.483" y="372.269" fill="black" font-size="13.617" font-family="Helvetica">2</text>
<text xml:space="preserve" x="412.554" y="372.269" fill="black" font-size="13.617" font-family="Helvetica">4</text>
<text xml:space="preserve" x="478.624" y="372.269" fill="black" font-size="13.617" font-family="Helvetica">6</text>
<text xml:space="preserve" x="474.362" y="384.347" fill="black" font-size="13.617" font-family="Times">&#0951;</text>
<path d="M85.5394,20.4251h 396.85" fill="none" stroke="black"/>
<path d="M85.5394,29.0036v -8.57853" fill="none" stroke="black"/>
<path d="M102.075,24.7143v -4.28927" fill="none" stroke="black"/>
<path d="M118.61,24.7143v -4.28927" fill="none" stroke="black"/>
<path d="M135.146,24.7143v -4.28927" fill="none" stroke="black"/>
<path d="M151.681,29.0036v -8.57853" fill="none" stroke="black"/>
<path d="M168.217,24.7143v -4.28927" fill="none" stroke="black"/>
<path d="M184.752,24.7143v -4.28927" fill="none" stroke="black"/>
<path d="M201.287,24.7143v -4.28927" fill="none" stroke="black"/>
<path d="M217.823,29.0036v -8.57853" fill="none" stroke="black"/>
<path d="M234.358,24.7143v -4.28927" fill="none" stroke="black"/>
<path d="M250.894,24.7143v -4.28927" fill="none" stroke="black"/>
<path d="M267.429,24.7143v -4.28927" fill="none" stroke="black"/>
<path d="M283.965,29.0036v -8.57853" fill="none" stroke="black"/>
<path d="M300.5,24.7143v -4.28927" fill="none" stroke="black"/>
<path d="M317.035,24.7143v -4.28927" fill="none" stroke="black"/>
<path d="M333.571,24.7143v -4.28927" fill="none" stroke="black"/>
<path d="M350.106,29.0036v -8.57853" fill="none" stroke="black"/>
<path d="M366.642,24.7143v -4.28927" fill="none" stroke="black"/>
<path d="M383.177,24.7143v -4.28927" fill="none" stroke="black"/>
<path d="M399.713,24.7143v -4.28927" fill="none" stroke="black"/>
<path d="M416.248,29.0036v -8.57853" fill="none" stroke="black"/>
<path d="M432.783,24.7143v -4.28927" fill="none" stroke="black"/>
<path d="M449.319,24.7143v -4.28927" fill="none" stroke="black"/>
<path d="M465.854,24.7143v -4.28927" fill="none" stroke="black"/>
<path d="M482.39,29.0036v -8.57853" fill="none" stroke="black"/>
<path d="M85.5394,359.481v -339.056" fill="none" stroke="black"/>
<path d="M99.6559,359.481h -14.1165" fill="none" stroke="black"/>
<path d="M92.5976,351.005h -7.05827" fill="none" stroke="black"/>
<path d="M92.5976,342.529h -7.05827" fill="none" stroke="black"/>
<path d="M92.5976,334.052h -7.05827" fill="none" stroke="black"/>
<path d="M92.5976,325.576h -7.05827" fill="none" stroke="black"/>
<path d="M99.6559,317.099h -14.1165" fill="none" stroke="black"/>
<path d="M92.5976,308.623h -7.05827" fill="none" stroke="black"/>
<path d="M92.5976,300.147h -7.05827" fill="none" stroke="black"/>
<path d="M92.5976,291.67h -7.05827" fill="none" stroke="black"/>
<path d="M92.5976,283.194h -7.05827" fill="none" stroke="black"/>
<path d="M99.6559,274.717h -14.1165" fill="none" stroke="black"/>
<path d="M92.5976,266.241h -7.05827" fill="none" stroke="black"/>
<path d="M92.5976,257.764h -7.05827" fill="none" stroke="black"/>
<path d="M92.5976,249.288h -7.05827" fill="none" stroke="black"/>
<path d="M92.5976,240.812h -7.05827" fill="none" stroke="black"/>
<path d="M99.6559,232.335h -14.1165" fill="none" stroke="black"/>
<path d="M92.5976,223.859h -7.05827" fill="none" stroke="black"/>
<path d="M92.5976,215.382h -7.05827" fill="none" stroke="black"/>
<path d="M92.5976,206.906h -7.05827" fill="none" stroke="black"/>
<path d="M92.5976,198.43h -7.05827" fill="none" stroke="black"/>
<path d="M99.6559,189.953h -14.1165" fill="none" stroke="black"/>
<path d="M92.5976,181.477h -7.05827" fill="none" stroke="black"/>
<path d="M92.5976,173h -7.05827" fill="none" stroke="black"/>
<path d="M92.5976,164.524h -7.05827" fill="none" stroke="black"/>
<path d="M92.5976,156.048h -7.05827" fill="none" stroke="black"/>
<path d="M99.6559,147.571h -14.1165" fill="none" stroke="black"/>
<path d="M92.5976,139.095h -7.05827" fill="none" stroke="black"/>
<path d="M92.5976,130.618h -7.05827" fill="none" stroke="black"/>
<path d="M92.5976,122.142h -7.05827" fill="none" stroke="black"/>
<path d="M92.5976,113.666h -7.05827" fill="none" stroke="black"/>
<path d="M99.6559,105.189h -14.1165" fill="none" stroke="black"/>
<path d="M92.5976,96.7127h -7.05827" fill="none" stroke="black"/>
<path d="M92.5976,88.2363h -7.05827" fill="none" stroke="black"/>
<path d="M92.5976,79.7599h -7.05827" fill="none" stroke="black"/>
<path d="M92.5976,71.2835h -7.05827" fill="none" stroke="black"/>
<path d="M99.6559,62.8071h -14.1165" fill="none" stroke="black"/>
<path d="M92.5976,54.3307h -7.05827" fill="none" stroke="black"/>
<path d="M92.5976,45.8543h -7.05827" fill="none" stroke="black"/>
<path d="M92.5976,37.3779h -7.05827" fill="none" stroke="black"/>
<path d="M92.5976,28.9015h -7.05827" fill="none" stroke="black"/>
<path d="M99.6559,20.4251h -14.1165" fill="none" stroke="black"/>
<text xml:space="preserve" x="75.0959" y="364.454" fill="black" font-size="13.617" font-family="Helvetica">0</text>
<text xml:space="preserve" x="77.2272" y="322.539" fill="black" font-size="13.617" font-family="Helvetica">1</text>
<text xml:space="preserve" x="75.0959" y="279.912" fill="black" font-size="13.617" font-family="Helvetica">2</text>
<text xml:space="preserve" x="75.0959" y="237.286" fill="black" font-size="13.617" font-family="Helvetica">3</text>
<text xml:space="preserve" x="75.0959" y="195.37" fill="black" font-size="13.617" font-family="Helvetica">4</text>
<text xml:space="preserve" x="75.0959" y="152.034" fill="black" font-size="13.617" font-family="Helvetica">5</text>
<text xml:space="preserve" x="75.0959" y="110.118" fill="black" font-size="13.617" font-family="Helvetica">6</text>
<text xml:space="preserve" x="75.0959" y="68.202" fill="black" font-size="13.617" font-family="Helvetica">7</text>
<text xml:space="preserve" x="75.0959" y="24.8653" fill="black" font-size="13.617" font-family="Helvetica">8</text>
<g transform="rotate(-90,60.8872,27.7071)">
<text xml:space="preserve" x="60.8872" y="27.7071" fill="black" font-size="13.617" font-family="Times">&#0951;</text>
</g>
<g transform="rotate(-90,60.8872,59.6768)">
<text xml:space="preserve" x="60.8872" y="59.6768" fill="black" font-size="13.617" font-family="Helvetica"> dN/d</text>
</g>
<g transform="rotate(-90,65.1498,82.4108)">
<text xml:space="preserve" x="65.1498" y="82.4108" fill="black" font-size="9.24468" font-family="Helvetica">event</text>
</g>
<g transform="rotate(-90,60.8872,103.013)">
<text xml:space="preserve" x="60.8872" y="103.013" fill="black" font-size="13.617" font-family="Helvetica">1/N</text>
</g>
<path d="M482.39,359.481v -339.056" fill="none" stroke="black"/>
<path d="M468.273,359.481h 14.1165" fill="none" stroke="black"/>
<path d="M475.332,351.005h 7.05827" fill="none" stroke="black"/>
<path d="M475.332,342.529h 7.05827" fill="none" stroke="black"/>
<path d="M475.332,334.052h 7.05827" fill="none" stroke="black"/>
<path d="M475.332,325.576h 7.05827" fill="none" stroke="black"/>
<path d="M468.273,317.099h 14.1165" fill="none" stroke="black"/>
<path d="M475.332,308.623h 7.05827" fill="none" stroke="black"/>
<path d="M475.332,300.147h 7.05827" fill="none" stroke="black"/>
<path d="M475.332,291.67h 7.05827" fill="none" stroke="black"/>
<path d="M475.332,283.194h 7.05827" fill="none" stroke="black"/>
<path d="M468.273,274.717h 14.1165" fill="none" stroke="black"/>
<path d="M475.332,266.241h 7.05827" fill="none" stroke="black"/>
<path d="M475.332,257.764h 7.05827" fill="none" stroke="black"/>
<path d="M475.332,249.288h 7.05827" fill="none" stroke="black"/>
<path d="M475.332,240.812h 7.05827" fill="none" stroke="black"/>
<path d="M468.273,232.335h 14.1165" fill="none" stroke="black"/>
<path d="M475.332,223.859h 7.05827" fill="none" stroke="black"/>
<path d="M475.332,215.382h 7.05827" fill="none" stroke="black"/>
<path d="M475.332,206.906h 7.05827" fill="none" stroke="black"/>
<path d="M475.332,198.43h 7.05827" fill="none" stroke="black"/>
<path d="M468.273,189.953h 14.1165" fill="none" stroke="black"/>
<path d="M475.332,181.477h 7.05827" fill="none" stroke="black"/>
<path d="M475.332,173h 7.05827" fill="none" stroke="black"/>
<path d="M475.332,164.524h 7.05827" fill="none" stroke="black"/>
<path d="M475.332,156.048h 7.05827" fill="none" stroke="black"/>
<path d="M468.273,147.571h 14.1165" fill="none" stroke="black"/>
<path d="M475.332,139.095h 7.05827" fill="none" stroke="black"/>
<path d="M475.332,130.618h 7.05827" fill="none" stroke="black"/>
<path d="M475.332,122.142h 7.05827" fill="none" stroke="black"/>
<path d="M475.332,113.666h 7.05827" fill="none" stroke="black"/>
<path d="M468.273,105.189h 14.1165" fill="none" stroke="black"/>
<path d="M475.332,96.7127h 7.05827" fill="none" stroke="black"/>
<path d="M475.332,88.2363h 7.05827" fill="none" stroke="black"/>
<path d="M475.332,79.7599h 7.05827" fill="none" stroke="black"/>
<path d="M475.332,71.2835h 7.05827" fill="none" stroke="black"/>
<path d="M468.273,62.8071h 14.1165" fill="none" stroke="black"/>
<path d="M475.332,54.3307h 7.05827" fill="none" stroke="black"/>
<path d="M475.332,45.8543h 7.05827" fill="none" stroke="black"/>
<path d="M475.332,37.3779h 7.05827" fill="none" stroke="black"/>
<path d="M475.332,28.9015h 7.05827" fill="none" stroke="black"/>
<path d="M468.273,20.4251h 14.1165" fill="none" stroke="black"/>
<path d="M118.61,278.655h 5.42597" fill="none" stroke="#5954d8"/>
<path d="M129.72,278.655h 5.42597" fill="none" stroke="#5954d8"/>
<g fill="#5954d8">
<polygon points=" 125.931, 277.707 125.931, 275.813 127.825, 275.813 127.825, 277.707 129.72, 277.707 129.72, 279.602 127.825, 279.602 127.825, 281.496 125.931, 281.496 125.931, 279.602 124.036, 279.602 124.036, 277.707"/>
</g>
<path d="M135.146,248.827h 5.42597" fill="none" stroke="#5954d8"/>
<path d="M146.255,248.827h 5.42597" fill="none" stroke="#5954d8"/>
<g fill="#5954d8">
<polygon points=" 142.466, 247.88 142.466, 245.985 144.361, 245.985 144.361, 247.88 146.255, 247.88 146.255, 249.774 144.361, 249.774 144.361, 251.669 142.466, 251.669 142.466, 249.774 140.572, 249.774 140.572, 247.88"/>
</g>
<path d="M151.681,225.58h 5.42597" fill="none" stroke="#5954d8"/>
<path d="M162.791,225.58h 5.42597" fill="none" stroke="#5954d8"/>
<g fill="#5954d8">
<polygon points=" 159.002, 224.633 159.002, 222.738 160.896, 222.738 160.896, 224.633 162.791, 224.633 162.791, 226.527 160.896, 226.527 160.896, 228.422 159.002, 228.422 159.002, 226.527 157.107, 226.527 157.107, 224.633"/>
</g>
<path d="M168.217,208.741h 5.42597" fill="none" stroke="#5954d8"/>
<path d="M179.326,208.741h 5.42597" fill="none" stroke="#5954d8"/>
<g fill="#5954d8">
<polygon points=" 175.537, 207.793 175.537, 205.899 177.432, 205.899 177.432, 207.793 179.326, 207.793 179.326, 209.688 177.432, 209.688 177.432, 211.582 175.537, 211.582 175.537, 209.688 173.643, 209.688 173.643, 207.793"/>
</g>
<path d="M184.752,197.736h 5.42597" fill="none" stroke="#5954d8"/>
<path d="M195.861,197.736h 5.42597" fill="none" stroke="#5954d8"/>
<g fill="#5954d8">
<polygon points=" 192.072, 196.789 192.072, 194.894 193.967, 194.894 193.967, 196.789 195.861, 196.789 195.861, 198.683 193.967, 198.683 193.967, 200.578 192.072, 200.578 192.072, 198.683 190.178, 198.683 190.178, 196.789"/>
</g>
<path d="M201.287,192.47h 5.42597" fill="none" stroke="#5954d8"/>
<path d="M212.397,192.47h 5.42597" fill="none" stroke="#5954d8"/>
<g fill="#5954d8">
<polygon points=" 208.608, 191.523 208.608, 189.628 210.502, 189.628 210.502, 191.523 212.397, 191.523 212.397, 193.417 210.502, 193.417 210.502, 195.312 208.608, 195.312 208.608, 193.417 206.713, 193.417 206.713, 191.523"/>
</g>
<path d="M217.823,193.193h 5.42597" fill="none" stroke="#5954d8"/>
<path d="M228.932,193.193h 5.42597" fill="none" stroke="#5954d8"/>
<g fill="#5954d8">
<polygon points=" 225.143, 192.246 225.143, 190.351 227.038, 190.351 227.038, 192.246 228.932, 192.246 228.932, 194.14 227.038, 194.14 227.038, 196.035 225.143, 196.035 225.143, 194.14 223.249, 194.14 223.249, 192.246"/>
</g>
<path d="M234.358,199.841h 5.42597" fill="none" stroke="#5954d8"/>
<path d="M245.468,199.841h 5.42597" fill="none" stroke="#5954d8"/>
<g fill="#5954d8">
<polygon points=" 241.679, 198.893 241.679, 196.999 243.573, 196.999 243.573, 198.893 245.468, 198.893 245.468, 200.788 243.573, 200.788 243.573, 202.682 241.679, 202.682 241.679, 200.788 239.784, 200.788 239.784, 198.893"/>
</g>
<path d="M250.894,210.981h 5.42597" fill="none" stroke="#5954d8"/>
<path d="M262.003,210.981h 5.42597" fill="none" stroke="#5954d8"/>
<g fill="#5954d8">
<polygon points=" 258.214, 210.033 258.214, 208.139 260.109, 208.139 260.109, 210.033 262.003, 210.033 262.003, 211.928 260.109, 211.928 260.109, 213.822 258.214, 213.822 258.214, 211.928 256.32, 211.928 256.32, 210.033"/>
</g>
<path d="M267.429,222.532h 5.42597" fill="none" stroke="#5954d8"/>
<path d="M278.539,222.532h 5.42597" fill="none" stroke="#5954d8"/>
<g fill="#5954d8">
<polygon points=" 274.75, 221.585 274.75, 219.691 276.644, 219.691 276.644, 221.585 278.539, 221.585 278.539, 223.48 276.644, 223.48 276.644, 225.374 274.75, 225.374 274.75, 223.48 272.855, 223.48 272.855, 221.585"/>
</g>
<path d="M283.965,230.564h 5.42597" fill="none" stroke="#5954d8"/>
<path d="M295.074,230.564h 5.42597" fill="none" stroke="#5954d8"/>
<g fill="#5954d8">
<polygon points=" 291.285, 229.617 291.285, 227.723 293.18, 227.723 293.18, 229.617 295.074, 229.617 295.074, 231.512 293.18, 231.512 293.18, 233.406 291.285, 233.406 291.285, 231.512 289.391, 231.512 289.391, 229.617"/>
</g>
<path d="M300.5,235.899h 5.42597" fill="none" stroke="#5954d8"/>
<path d="M311.609,235.899h 5.42597" fill="none" stroke="#5954d8"/>
<g fill="#5954d8">
<polygon points=" 307.82, 234.952 307.82, 233.057 309.715, 233.057 309.715, 234.952 311.609, 234.952 311.609, 236.846 309.715, 236.846 309.715, 238.741 307.82, 238.741 307.82, 236.846 305.926, 236.846 305.926, 234.952"/>
</g>
<path d="M317.035,242.794h 5.42597" fill="none" stroke="#5954d8"/>
<path d="M328.145,242.794h 5.42597" fill="none" stroke="#5954d8"/>
<g fill="#5954d8">
<polygon points=" 324.356, 241.847 324.356, 239.952 326.25, 239.952 326.25, 241.847 328.145, 241.847 328.145, 243.741 326.25, 243.741 326.25, 245.636 324.356, 245.636 324.356, 243.741 322.461, 243.741 322.461, 241.847"/>
</g>
<path d="M333.571,253.796h 5.42597" fill="none" stroke="#5954d8"/>
<path d="M344.68,253.796h 5.42597" fill="none" stroke="#5954d8"/>
<g fill="#5954d8">
<polygon points=" 340.891, 252.848 340.891, 250.954 342.786, 250.954 342.786, 252.848 344.68, 252.848 344.68, 254.743 342.786, 254.743 342.786, 256.637 340.891, 256.637 340.891, 254.743 338.997, 254.743 338.997, 252.848"/>
</g>
<path d="M350.106,268.75h 5.42597" fill="none" stroke="#5954d8"/>
<path d="M361.216,268.75h 5.42597" fill="none" stroke="#5954d8"/>
<g fill="#5954d8">
<polygon points=" 357.427, 267.802 357.427, 265.908 359.321, 265.908 359.321, 267.802 361.216, 267.802 361.216, 269.697 359.321, 269.697 359.321, 271.591 357.427, 271.591 357.427, 269.697 355.532, 269.697 355.532, 267.802"/>
</g>
<path d="M366.642,286.415h 5.42597" fill="none" stroke="#5954d8"/>
<path d="M377.751,286.415h 5.42597" fill="none" stroke="#5954d8"/>
<g fill="#5954d8">
<polygon points=" 373.962, 285.468 373.962, 283.574 375.857, 283.574 375.857, 285.468 377.751, 285.468 377.751, 287.363 375.857, 287.363 375.857, 289.257 373.962, 289.257 373.962, 287.363 372.068, 287.363 372.068, 285.468"/>
</g>
<path d="M383.177,304.946h 5.42597" fill="none" stroke="#5954d8"/>
<path d="M394.287,304.946h 5.42597" fill="none" stroke="#5954d8"/>
<g fill="#5954d8">
<polygon points=" 390.498, 303.999 390.498, 302.104 392.392, 302.104 392.392, 303.999 394.287, 303.999 394.287, 305.893 392.392, 305.893 392.392, 307.788 390.498, 307.788 390.498, 305.893 388.603, 305.893 388.603, 303.999"/>
</g>
<path d="M399.713,322.21h 5.42597" fill="none" stroke="#5954d8"/>
<path d="M410.822,322.21h 5.42597" fill="none" stroke="#5954d8"/>
<g fill="#5954d8">
<polygon points=" 407.033, 321.263 407.033, 319.368 408.928, 319.368 408.928, 321.263 410.822, 321.263 410.822, 323.157 408.928, 323.157 408.928, 325.052 407.033, 325.052 407.033, 323.157 405.139, 323.157 405.139, 321.263"/>
</g>
<path d="M416.248,336.858h 5.42597" fill="none" stroke="#5954d8"/>
<path d="M427.358,336.858h 5.42597" fill="none" stroke="#5954d8"/>
<g fill="#5954d8">
<polygon points=" 423.569, 335.911 423.569, 334.016 425.463, 334.016 425.463, 335.911 427.358, 335.911 427.358, 337.805 425.463, 337.805 425.463, 339.7 423.569, 339.7 423.569, 337.805 421.674, 337.805 421.674, 335.911"/>
</g>
<path d="M432.783,347.721h 5.42597" fill="none" stroke="#5954d8"/>
<path d="M443.893,347.721h 5.42597" fill="none" stroke="#5954d8"/>
<g fill="#5954d8">
<polygon points=" 440.104, 346.774 440.104, 344.88 441.998, 344.88 441.998, 346.774 443.893, 346.774 443.893, 348.669 441.998, 348.669 441.998, 350.563 440.104, 350.563 440.104, 348.669 438.209, 348.669 438.209, 346.774"/>
</g>
<path d="M449.319,359.481h 5.42597" fill="none" stroke="#5954d8"/>
<path d="M460.428,359.481h 5.42597" fill="none" stroke="#5954d8"/>
<g fill="#5954d8">
<polygon points=" 456.639, 358.534 456.639, 356.64 458.534, 356.64 458.534, 358.534 460.428, 358.534 460.428, 360.429 458.534, 360.429 458.534, 362.323 456.639, 362.323 456.639, 360.429 454.745, 360.429 454.745, 358.534"/>
</g>
<path d="M118.61,278.75h 5.42597" fill="none" stroke="#ff00ff"/>
<path d="M129.72,278.75h 5.42597" fill="none" stroke="#ff00ff"/>
<g stroke="#ff00ff" stroke-width="1" fill="none">
<polygon points=" 125.931, 277.802 125.931, 275.908 127.825, 275.908 127.825, 277.802 129.72, 277.802 129.72, 279.697 127.825, 279.697 127.825, 281.591 125.931, 281.591 125.931, 279.697 124.036, 279.697 124.036, 277.802"/>
</g>
<path d="M135.146,248.931h 5.42597" fill="none" stroke="#ff00ff"/>
<path d="M146.255,248.931h 5.42597" fill="none" stroke="#ff00ff"/>
<g stroke="#ff00ff" stroke-width="1" fill="none">
<polygon points=" 142.466, 247.984 142.466, 246.089 144.361, 246.089 144.361, 247.984 146.255, 247.984 146.255, 249.878 144.361, 249.878 144.361, 251.773 142.466, 251.773 142.466, 249.878 140.572, 249.878 140.572, 247.984"/>
</g>
<path d="M151.681,225.648h 5.42597" fill="none" stroke="#ff00ff"/>
<path d="M162.791,225.648h 5.42597" fill="none" stroke="#ff00ff"/>
<g stroke="#ff00ff" stroke-width="1" fill="none">
<polygon points=" 159.002, 224.701 159.002, 222.806 160.896, 222.806 160.896, 224.701 162.791, 224.701 162.791, 226.595 160.896, 226.595 160.896, 228.49 159.002, 228.49 159.002, 226.595 157.107, 226.595 157.107, 224.701"/>
</g>
<path d="M168.217,208.742h 5.42597" fill="none" stroke="#ff00ff"/>
<path d="M179.326,208.742h 5.42597" fill="none" stroke="#ff00ff"/>
<g stroke="#ff00ff" stroke-width="1" fill="none">
<polygon points=" 175.537, 207.794 175.537, 205.9 177.432, 205.9 177.432, 207.794 179.326, 207.794 179.326, 209.689 177.432, 209.689 177.432, 211.583 175.537, 211.583 175.537, 209.689 173.643, 209.689 173.643, 207.794"/>
</g>
<path d="M184.752,197.603h 5.42597" fill="none" stroke="#ff00ff"/>
<path d="M195.861,197.603h 5.42597" fill="none" stroke="#ff00ff"/>
<g stroke="#ff00ff" stroke-width="1" fill="none">
<polygon points=" 192.072, 196.656 192.072, 194.761 193.967, 194.761 193.967, 196.656 195.861, 196.656 195.861, 198.55 193.967, 198.55 193.967, 200.445 192.072, 200.445 192.072, 198.55 190.178, 198.55 190.178, 196.656"/>
</g>
<path d="M201.287,192.2h 5.42597" fill="none" stroke="#ff00ff"/>
<path d="M212.397,192.2h 5.42597" fill="none" stroke="#ff00ff"/>
<g stroke="#ff00ff" stroke-width="1" fill="none">
<polygon points=" 208.608, 191.252 208.608, 189.358 210.502, 189.358 210.502, 191.252 212.397, 191.252 212.397, 193.147 210.502, 193.147 210.502, 195.041 208.608, 195.041 208.608, 193.147 206.713, 193.147 206.713, 191.252"/>
</g>
<path d="M217.823,192.847h 5.42597" fill="none" stroke="#ff00ff"/>
<path d="M228.932,192.847h 5.42597" fill="none" stroke="#ff00ff"/>
<g stroke="#ff00ff" stroke-width="1" fill="none">
<polygon points=" 225.143, 191.9 225.143, 190.005 227.038, 190.005 227.038, 191.9 228.932, 191.9 228.932, 193.794 227.038, 193.794 227.038, 195.689 225.143, 195.689 225.143, 193.794 223.249, 193.794 223.249, 191.9"/>
</g>
<path d="M234.358,199.448h 5.42597" fill="none" stroke="#ff00ff"/>
<path d="M245.468,199.448h 5.42597" fill="none" stroke="#ff00ff"/>
<g stroke="#ff00ff" stroke-width="1" fill="none">
<polygon points=" 241.679, 198.501 241.679, 196.606 243.573, 196.606 243.573, 198.501 245.468, 198.501 245.468, 200.395 243.573, 200.395 243.573, 202.29 241.679, 202.29 241.679, 200.395 239.784, 200.395 239.784, 198.501"/>
</g>
<path d="M250.894,210.525h 5.42597" fill="none" stroke="#ff00ff"/>
<path d="M262.003,210.525h 5.42597" fill="none" stroke="#ff00ff"/>
<g stroke="#ff00ff" stroke-width="1" fill="none">
<polygon points=" 258.214, 209.578 258.214, 207.683 260.109, 207.683 260.109, 209.578 262.003, 209.578 262.003, 211.472 260.109, 211.472 260.109, 213.367 258.214, 213.367 258.214, 211.472 256.32, 211.472 256.32, 209.578"/>
</g>
<path d="M267.429,222.136h 5.42597" fill="none" stroke="#ff00ff"/>
<path d="M278.539,222.136h 5.42597" fill="none" stroke="#ff00ff"/>
<g stroke="#ff00ff" stroke-width="1" fill="none">
<polygon points=" 274.75, 221.189 274.75, 219.294 276.644, 219.294 276.644, 221.189 278.539, 221.189 278.539, 223.083 276.644, 223.083 276.644, 224.978 274.75, 224.978 274.75, 223.083 272.855, 223.083 272.855, 221.189"/>
</g>
<path d="M283.965,230.182h 5.42597" fill="none" stroke="#ff00ff"/>
<path d="M295.074,230.182h 5.42597" fill="none" stroke="#ff00ff"/>
<g stroke="#ff00ff" stroke-width="1" fill="none">
<polygon points=" 291.285, 229.234 291.285, 227.34 293.18, 227.34 293.18, 229.234 295.074, 229.234 295.074, 231.129 293.18, 231.129 293.18, 233.023 291.285, 233.023 291.285, 231.129 289.391, 231.129 289.391, 229.234"/>
</g>
<path d="M300.5,235.517h 5.42597" fill="none" stroke="#ff00ff"/>
<path d="M311.609,235.517h 5.42597" fill="none" stroke="#ff00ff"/>
<g stroke="#ff00ff" stroke-width="1" fill="none">
<polygon points=" 307.82, 234.57 307.82, 232.675 309.715, 232.675 309.715, 234.57 311.609, 234.57 311.609, 236.464 309.715, 236.464 309.715, 238.359 307.82, 238.359 307.82, 236.464 305.926, 236.464 305.926, 234.57"/>
</g>
<path d="M317.035,242.465h 5.42597" fill="none" stroke="#ff00ff"/>
<path d="M328.145,242.465h 5.42597" fill="none" stroke="#ff00ff"/>
<g stroke="#ff00ff" stroke-width="1" fill="none">
<polygon points=" 324.356, 241.518 324.356, 239.623 326.25, 239.623 326.25, 241.518 328.145, 241.518 328.145, 243.412 326.25, 243.412 326.25, 245.307 324.356, 245.307 324.356, 243.412 322.461, 243.412 322.461, 241.518"/>
</g>
<path d="M333.571,253.534h 5.42597" fill="none" stroke="#ff00ff"/>
<path d="M344.68,253.534h 5.42597" fill="none" stroke="#ff00ff"/>
<g stroke="#ff00ff" stroke-width="1" fill="none">
<polygon points=" 340.891, 252.586 340.891, 250.692 342.786, 250.692 342.786, 252.586 344.68, 252.586 344.68, 254.481 342.786, 254.481 342.786, 256.375 340.891, 256.375 340.891, 254.481 338.997, 254.481 338.997, 252.586"/>
</g>
<path d="M350.106,268.57h 5.42597" fill="none" stroke="#ff00ff"/>
<path d="M361.216,268.57h 5.42597" fill="none" stroke="#ff00ff"/>
<g stroke="#ff00ff" stroke-width="1" fill="none">
<polygon points=" 357.427, 267.623 357.427, 265.729 359.321, 265.729 359.321, 267.623 361.216, 267.623 361.216, 269.518 359.321, 269.518 359.321, 271.412 357.427, 271.412 357.427, 269.518 355.532, 269.518 355.532, 267.623"/>
</g>
<path d="M366.642,286.329h 5.42597" fill="none" stroke="#ff00ff"/>
<path d="M377.751,286.329h 5.42597" fill="none" stroke="#ff00ff"/>
<g stroke="#ff00ff" stroke-width="1" fill="none">
<polygon points=" 373.962, 285.381 373.962, 283.487 375.857, 283.487 375.857, 285.381 377.751, 285.381 377.751, 287.276 375.857, 287.276 375.857, 289.17 373.962, 289.17 373.962, 287.276 372.068, 287.276 372.068, 285.381"/>
</g>
<path d="M383.177,304.931h 5.42597" fill="none" stroke="#ff00ff"/>
<path d="M394.287,304.931h 5.42597" fill="none" stroke="#ff00ff"/>
<g stroke="#ff00ff" stroke-width="1" fill="none">
<polygon points=" 390.498, 303.984 390.498, 302.089 392.392, 302.089 392.392, 303.984 394.287, 303.984 394.287, 305.878 392.392, 305.878 392.392, 307.773 390.498, 307.773 390.498, 305.878 388.603, 305.878 388.603, 303.984"/>
</g>
<path d="M399.713,322.258h 5.42597" fill="none" stroke="#ff00ff"/>
<path d="M410.822,322.258h 5.42597" fill="none" stroke="#ff00ff"/>
<g stroke="#ff00ff" stroke-width="1" fill="none">
<polygon points=" 407.033, 321.311 407.033, 319.416 408.928, 319.416 408.928, 321.311 410.822, 321.311 410.822, 323.205 408.928, 323.205 408.928, 325.1 407.033, 325.1 407.033, 323.205 405.139, 323.205 405.139, 321.311"/>
</g>
<path d="M416.248,336.913h 5.42597" fill="none" stroke="#ff00ff"/>
<path d="M427.358,336.913h 5.42597" fill="none" stroke="#ff00ff"/>
<g stroke="#ff00ff" stroke-width="1" fill="none">
<polygon points=" 423.569, 335.966 423.569, 334.072 425.463, 334.072 425.463, 335.966 427.358, 335.966 427.358, 337.861 425.463, 337.861 425.463, 339.755 423.569, 339.755 423.569, 337.861 421.674, 337.861 421.674, 335.966"/>
</g>
<path d="M432.783,347.748h 5.42597" fill="none" stroke="#ff00ff"/>
<path d="M443.893,347.748h 5.42597" fill="none" stroke="#ff00ff"/>
<g stroke="#ff00ff" stroke-width="1" fill="none">
<polygon points=" 440.104, 346.801 440.104, 344.907 441.998, 344.907 441.998, 346.801 443.893, 346.801 443.893, 348.696 441.998, 348.696 441.998, 350.59 440.104, 350.59 440.104, 348.696 438.209, 348.696 438.209, 346.801"/>
</g>
<path d="M449.319,359.481h 5.42597" fill="none" stroke="#ff00ff"/>
<path d="M460.428,359.481h 5.42597" fill="none" stroke="#ff00ff"/>
<g stroke="#ff00ff" stroke-width="1" fill="none">
<polygon points=" 456.639, 358.534 456.639, 356.64 458.534, 356.64 458.534, 358.534 460.428, 358.534 460.428, 360.429 458.534, 360.429 458.534, 362.323 456.639, 362.323 456.639, 360.429 454.745, 360.429 454.745, 358.534"/>
</g>
<text xml:space="preserve" x="117.722" y="45.468" fill="black" font-size="11.7432" font-family="Helvetica">PYTHIA8, option3</text>
<text xml:space="preserve" x="117.722" y="72.4646" fill="black" font-size="11.7432" font-family="Helvetica">p+Au, 200 GeV</text>
<text xml:space="preserve" x="117.722" y="100.172" fill="black" font-size="11.7432" font-family="Helvetica">MB events</text>
<text xml:space="preserve" x="166.742" y="126.458" fill="black" font-size="11.7432" font-family="Helvetica"> in Old-MC(ver.2)</text>
<text xml:space="preserve" x="162.48" y="122.195" fill="black" font-size="7.99544" font-family="Helvetica">0</text>
<text xml:space="preserve" x="156.086" y="126.458" fill="black" font-size="11.7432" font-family="Times">&#0960;</text>
<g fill="#5954d8">
<polygon points=" 134.198, 122.012 134.198, 120.117 136.093, 120.117 136.093, 122.012 137.987, 122.012 137.987, 123.906 136.093, 123.906 136.093, 125.801 134.198, 125.801 134.198, 123.906 132.304, 123.906 132.304, 122.012"/>
</g>
<text xml:space="preserve" x="166.742" y="153.455" fill="black" font-size="11.7432" font-family="Helvetica"> in New-MC(ver.3)</text>
<text xml:space="preserve" x="162.48" y="149.192" fill="black" font-size="7.99544" font-family="Helvetica">0</text>
<text xml:space="preserve" x="156.086" y="153.455" fill="black" font-size="11.7432" font-family="Times">&#0960;</text>
<g stroke="#ff00ff" stroke-width="1" fill="none">
<polygon points=" 134.198, 148.973 134.198, 147.078 136.093, 147.078 136.093, 148.973 137.987, 148.973 137.987, 150.867 136.093, 150.867 136.093, 152.762 134.198, 152.762 134.198, 150.867 132.304, 150.867 132.304, 148.973"/>
</g>
<text xml:space="preserve" x="355.008" y="46.8889" fill="black" font-size="11.7432" font-family="Helvetica"> events</text>
<text xml:space="preserve" x="350.746" y="41.2054" fill="black" font-size="7.99544" font-family="Helvetica">7</text>
<text xml:space="preserve" x="335.116" y="46.8889" fill="black" font-size="11.7432" font-family="Helvetica"> 10</text>
<text xml:space="preserve" x="328.722" y="46.8889" fill="black" font-size="11.7432" font-family="Times">&#0215;</text>
<text xml:space="preserve" x="287.517" y="46.8889" fill="black" font-size="11.7432" font-family="Helvetica">ver.2: 3 </text>
<text xml:space="preserve" x="335.827" y="73.8855" fill="black" font-size="11.7432" font-family="Helvetica"> events</text>
<text xml:space="preserve" x="331.564" y="67.4916" fill="black" font-size="7.99544" font-family="Helvetica">9</text>
<text xml:space="preserve" x="287.517" y="73.8855" fill="black" font-size="11.7432" font-family="Helvetica">ver.3: 10</text></svg>
