<?xml version="1.0" standalone="no"?>
<svg width="567.429" height="409.002" viewBox="0 0 567.429 409.002" xmlns="http://www.w3.org/2000/svg" shape-rendering="crispEdges">
<title>
/Users/jinhyunpark/npl/gitHub/git_share/Git_Bias_correction_RxA/plots_dirAdded/ratioOfScaleYield_cent2mb_pion0.svg
</title>
<desc>
Creator: ROOT Version 6.28/04
CreationDate: Wed Sep  6 00:18:07 2023</desc>
<defs>
</defs>
<rect x="0.5" y="0" width="566.929" height="408.502" fill="white"/>
<rect x="85.5394" y="20.4251" width="396.85" height="339.056" fill="white"/>
<rect x="85.5394" y="20.4251" width="396.85" height="339.056" fill="none" stroke="black"/>
<rect x="85.5394" y="20.4251" width="396.85" height="339.056" fill="white"/>
<rect x="85.5394" y="20.4251" width="396.85" height="339.056" fill="none" stroke="black"/>
<path d="M85.5394,359.481h 396.85" fill="none" stroke="black"/>
<path d="M85.5394,350.903v 8.57853" fill="none" stroke="black"/>
<path d="M99.7126,355.192v 4.28927" fill="none" stroke="black"/>
<path d="M113.886,355.192v 4.28927" fill="none" stroke="black"/>
<path d="M128.059,355.192v 4.28927" fill="none" stroke="black"/>
<path d="M142.232,350.903v 8.57853" fill="none" stroke="black"/>
<path d="M156.406,355.192v 4.28927" fill="none" stroke="black"/>
<path d="M170.579,355.192v 4.28927" fill="none" stroke="black"/>
<path d="M184.752,355.192v 4.28927" fill="none" stroke="black"/>
<path d="M198.925,350.903v 8.57853" fill="none" stroke="black"/>
<path d="M213.098,355.192v 4.28927" fill="none" stroke="black"/>
<path d="M227.272,355.192v 4.28927" fill="none" stroke="black"/>
<path d="M241.445,355.192v 4.28927" fill="none" stroke="black"/>
<path d="M255.618,350.903v 8.57853" fill="none" stroke="black"/>
<path d="M269.791,355.192v 4.28927" fill="none" stroke="black"/>
<path d="M283.965,355.192v 4.28927" fill="none" stroke="black"/>
<path d="M298.138,355.192v 4.28927" fill="none" stroke="black"/>
<path d="M312.311,350.903v 8.57853" fill="none" stroke="black"/>
<path d="M326.484,355.192v 4.28927" fill="none" stroke="black"/>
<path d="M340.657,355.192v 4.28927" fill="none" stroke="black"/>
<path d="M354.831,355.192v 4.28927" fill="none" stroke="black"/>
<path d="M369.004,350.903v 8.57853" fill="none" stroke="black"/>
<path d="M383.177,355.192v 4.28927" fill="none" stroke="black"/>
<path d="M397.35,355.192v 4.28927" fill="none" stroke="black"/>
<path d="M411.524,355.192v 4.28927" fill="none" stroke="black"/>
<path d="M425.697,350.903v 8.57853" fill="none" stroke="black"/>
<path d="M439.87,355.192v 4.28927" fill="none" stroke="black"/>
<path d="M454.043,355.192v 4.28927" fill="none" stroke="black"/>
<path d="M468.217,355.192v 4.28927" fill="none" stroke="black"/>
<path d="M482.39,350.903v 8.57853" fill="none" stroke="black"/>
<text xml:space="preserve" x="81.4899" y="372.269" fill="black" font-size="13.617" font-family="Helvetica">0</text>
<text xml:space="preserve" x="138.325" y="372.269" fill="black" font-size="13.617" font-family="Helvetica">2</text>
<text xml:space="preserve" x="195.16" y="372.269" fill="black" font-size="13.617" font-family="Helvetica">4</text>
<text xml:space="preserve" x="251.995" y="372.269" fill="black" font-size="13.617" font-family="Helvetica">6</text>
<text xml:space="preserve" x="308.119" y="372.269" fill="black" font-size="13.617" font-family="Helvetica">8</text>
<text xml:space="preserve" x="360.692" y="372.269" fill="black" font-size="13.617" font-family="Helvetica">10</text>
<text xml:space="preserve" x="417.527" y="372.269" fill="black" font-size="13.617" font-family="Helvetica">12</text>
<text xml:space="preserve" x="474.362" y="372.269" fill="black" font-size="13.617" font-family="Helvetica">14</text>
<text xml:space="preserve" x="476.493" y="390.741" fill="black" font-size="9.24468" font-family="Helvetica">T</text>
<text xml:space="preserve" x="468.678" y="382.926" fill="black" font-size="13.617" font-family="Helvetica">p</text>
<path d="M85.5394,20.4251h 396.85" fill="none" stroke="black"/>
<path d="M85.5394,29.0036v -8.57853" fill="none" stroke="black"/>
<path d="M99.7126,24.7143v -4.28927" fill="none" stroke="black"/>
<path d="M113.886,24.7143v -4.28927" fill="none" stroke="black"/>
<path d="M128.059,24.7143v -4.28927" fill="none" stroke="black"/>
<path d="M142.232,29.0036v -8.57853" fill="none" stroke="black"/>
<path d="M156.406,24.7143v -4.28927" fill="none" stroke="black"/>
<path d="M170.579,24.7143v -4.28927" fill="none" stroke="black"/>
<path d="M184.752,24.7143v -4.28927" fill="none" stroke="black"/>
<path d="M198.925,29.0036v -8.57853" fill="none" stroke="black"/>
<path d="M213.098,24.7143v -4.28927" fill="none" stroke="black"/>
<path d="M227.272,24.7143v -4.28927" fill="none" stroke="black"/>
<path d="M241.445,24.7143v -4.28927" fill="none" stroke="black"/>
<path d="M255.618,29.0036v -8.57853" fill="none" stroke="black"/>
<path d="M269.791,24.7143v -4.28927" fill="none" stroke="black"/>
<path d="M283.965,24.7143v -4.28927" fill="none" stroke="black"/>
<path d="M298.138,24.7143v -4.28927" fill="none" stroke="black"/>
<path d="M312.311,29.0036v -8.57853" fill="none" stroke="black"/>
<path d="M326.484,24.7143v -4.28927" fill="none" stroke="black"/>
<path d="M340.657,24.7143v -4.28927" fill="none" stroke="black"/>
<path d="M354.831,24.7143v -4.28927" fill="none" stroke="black"/>
<path d="M369.004,29.0036v -8.57853" fill="none" stroke="black"/>
<path d="M383.177,24.7143v -4.28927" fill="none" stroke="black"/>
<path d="M397.35,24.7143v -4.28927" fill="none" stroke="black"/>
<path d="M411.524,24.7143v -4.28927" fill="none" stroke="black"/>
<path d="M425.697,29.0036v -8.57853" fill="none" stroke="black"/>
<path d="M439.87,24.7143v -4.28927" fill="none" stroke="black"/>
<path d="M454.043,24.7143v -4.28927" fill="none" stroke="black"/>
<path d="M468.217,24.7143v -4.28927" fill="none" stroke="black"/>
<path d="M482.39,29.0036v -8.57853" fill="none" stroke="black"/>
<path d="M85.5394,359.481v -339.056" fill="none" stroke="black"/>
<path d="M99.6559,359.481h -14.1165" fill="none" stroke="black"/>
<path d="M92.5976,348.18h -7.05827" fill="none" stroke="black"/>
<path d="M92.5976,336.878h -7.05827" fill="none" stroke="black"/>
<path d="M92.5976,325.576h -7.05827" fill="none" stroke="black"/>
<path d="M92.5976,314.274h -7.05827" fill="none" stroke="black"/>
<path d="M99.6559,302.972h -14.1165" fill="none" stroke="black"/>
<path d="M92.5976,291.67h -7.05827" fill="none" stroke="black"/>
<path d="M92.5976,280.368h -7.05827" fill="none" stroke="black"/>
<path d="M92.5976,269.066h -7.05827" fill="none" stroke="black"/>
<path d="M92.5976,257.764h -7.05827" fill="none" stroke="black"/>
<path d="M99.6559,246.463h -14.1165" fill="none" stroke="black"/>
<path d="M92.5976,235.161h -7.05827" fill="none" stroke="black"/>
<path d="M92.5976,223.859h -7.05827" fill="none" stroke="black"/>
<path d="M92.5976,212.557h -7.05827" fill="none" stroke="black"/>
<path d="M92.5976,201.255h -7.05827" fill="none" stroke="black"/>
<path d="M99.6559,189.953h -14.1165" fill="none" stroke="black"/>
<path d="M92.5976,178.651h -7.05827" fill="none" stroke="black"/>
<path d="M92.5976,167.349h -7.05827" fill="none" stroke="black"/>
<path d="M92.5976,156.048h -7.05827" fill="none" stroke="black"/>
<path d="M92.5976,144.746h -7.05827" fill="none" stroke="black"/>
<path d="M99.6559,133.444h -14.1165" fill="none" stroke="black"/>
<path d="M92.5976,122.142h -7.05827" fill="none" stroke="black"/>
<path d="M92.5976,110.84h -7.05827" fill="none" stroke="black"/>
<path d="M92.5976,99.5382h -7.05827" fill="none" stroke="black"/>
<path d="M92.5976,88.2363h -7.05827" fill="none" stroke="black"/>
<path d="M99.6559,76.9345h -14.1165" fill="none" stroke="black"/>
<path d="M92.5976,65.6326h -7.05827" fill="none" stroke="black"/>
<path d="M92.5976,54.3307h -7.05827" fill="none" stroke="black"/>
<path d="M92.5976,43.0288h -7.05827" fill="none" stroke="black"/>
<path d="M92.5976,31.727h -7.05827" fill="none" stroke="black"/>
<path d="M99.6559,20.4251h -14.1165" fill="none" stroke="black"/>
<text xml:space="preserve" x="75.0959" y="364.454" fill="black" font-size="13.617" font-family="Helvetica">0</text>
<text xml:space="preserve" x="63.7289" y="307.619" fill="black" font-size="13.617" font-family="Helvetica">0.5</text>
<text xml:space="preserve" x="77.2272" y="251.495" fill="black" font-size="13.617" font-family="Helvetica">1</text>
<text xml:space="preserve" x="63.7289" y="194.66" fill="black" font-size="13.617" font-family="Helvetica">1.5</text>
<text xml:space="preserve" x="75.0959" y="138.535" fill="black" font-size="13.617" font-family="Helvetica">2</text>
<text xml:space="preserve" x="63.7289" y="81.7003" fill="black" font-size="13.617" font-family="Helvetica">2.5</text>
<text xml:space="preserve" x="75.0959" y="24.8653" fill="black" font-size="13.617" font-family="Helvetica">3</text>
<g transform="rotate(-90,51.6515,24.1549)">
<text xml:space="preserve" x="51.6515" y="24.1549" fill="black" font-size="13.617" font-family="Helvetica"> </text>
</g>
<g transform="rotate(-90,69.4124,39.7845)">
<text xml:space="preserve" x="69.4124" y="39.7845" fill="black" font-size="9.24468" font-family="Helvetica">MB</text>
</g>
<g transform="rotate(-90,63.0185,44.0471)">
<text xml:space="preserve" x="63.0185" y="44.0471" fill="black" font-size="13.617" font-family="Times">&#0062;</text>
</g>
<g transform="rotate(-90,69.4124,57.5454)">
<text xml:space="preserve" x="69.4124" y="57.5454" fill="black" font-size="9.24468" font-family="Helvetica">coll</text>
</g>
<g transform="rotate(-90,63.0185,66.7811)">
<text xml:space="preserve" x="63.0185" y="66.7811" fill="black" font-size="13.617" font-family="Helvetica">N</text>
</g>
<g transform="rotate(-90,63.0185,71.0438)">
<text xml:space="preserve" x="63.0185" y="71.0438" fill="black" font-size="13.617" font-family="Times">&#0060;</text>
</g>
<g transform="rotate(-90,63.0185,76.0168)">
<text xml:space="preserve" x="63.0185" y="76.0168" fill="black" font-size="13.617" font-family="Helvetica">/</text>
</g>
<g transform="rotate(-90,52.3619,79.569)">
<text xml:space="preserve" x="52.3619" y="79.569" fill="black" font-size="6.32979" font-family="Helvetica">0</text>
</g>
<g transform="rotate(-90,55.9141,84.5421)">
<text xml:space="preserve" x="55.9141" y="84.5421" fill="black" font-size="9.24468" font-family="Times">&#0960;</text>
</g>
<g transform="rotate(-90,63.0185,93.7778)">
<text xml:space="preserve" x="63.0185" y="93.7778" fill="black" font-size="13.617" font-family="Helvetica">Y</text>
</g>
<g transform="rotate(-90,44.5471,41.9158)">
<text xml:space="preserve" x="44.5471" y="41.9158" fill="black" font-size="9.24468" font-family="Helvetica">cent</text>
</g>
<g transform="rotate(-90,38.8636,46.1784)">
<text xml:space="preserve" x="38.8636" y="46.1784" fill="black" font-size="13.617" font-family="Times">&#0062;</text>
</g>
<g transform="rotate(-90,45.2576,59.6768)">
<text xml:space="preserve" x="45.2576" y="59.6768" fill="black" font-size="9.24468" font-family="Helvetica">coll</text>
</g>
<g transform="rotate(-90,38.8636,68.9124)">
<text xml:space="preserve" x="38.8636" y="68.9124" fill="black" font-size="13.617" font-family="Helvetica">N</text>
</g>
<g transform="rotate(-90,38.8636,73.1751)">
<text xml:space="preserve" x="38.8636" y="73.1751" fill="black" font-size="13.617" font-family="Times">&#0060;</text>
</g>
<g transform="rotate(-90,38.8636,78.1481)">
<text xml:space="preserve" x="38.8636" y="78.1481" fill="black" font-size="13.617" font-family="Helvetica">/</text>
</g>
<g transform="rotate(-90,28.2071,81.7003)">
<text xml:space="preserve" x="28.2071" y="81.7003" fill="black" font-size="6.32979" font-family="Helvetica">0</text>
</g>
<g transform="rotate(-90,32.4697,86.6734)">
<text xml:space="preserve" x="32.4697" y="86.6734" fill="black" font-size="9.24468" font-family="Times">&#0960;</text>
</g>
<g transform="rotate(-90,38.8636,95.9091)">
<text xml:space="preserve" x="38.8636" y="95.9091" fill="black" font-size="13.617" font-family="Helvetica">Y</text>
</g>
<path d="M48.0993,95.9091v -71.7542" fill="none" stroke="black" stroke-width="2"/>
<path d="M482.39,359.481v -339.056" fill="none" stroke="black"/>
<path d="M468.273,359.481h 14.1165" fill="none" stroke="black"/>
<path d="M475.332,348.18h 7.05827" fill="none" stroke="black"/>
<path d="M475.332,336.878h 7.05827" fill="none" stroke="black"/>
<path d="M475.332,325.576h 7.05827" fill="none" stroke="black"/>
<path d="M475.332,314.274h 7.05827" fill="none" stroke="black"/>
<path d="M468.273,302.972h 14.1165" fill="none" stroke="black"/>
<path d="M475.332,291.67h 7.05827" fill="none" stroke="black"/>
<path d="M475.332,280.368h 7.05827" fill="none" stroke="black"/>
<path d="M475.332,269.066h 7.05827" fill="none" stroke="black"/>
<path d="M475.332,257.764h 7.05827" fill="none" stroke="black"/>
<path d="M468.273,246.463h 14.1165" fill="none" stroke="black"/>
<path d="M475.332,235.161h 7.05827" fill="none" stroke="black"/>
<path d="M475.332,223.859h 7.05827" fill="none" stroke="black"/>
<path d="M475.332,212.557h 7.05827" fill="none" stroke="black"/>
<path d="M475.332,201.255h 7.05827" fill="none" stroke="black"/>
<path d="M468.273,189.953h 14.1165" fill="none" stroke="black"/>
<path d="M475.332,178.651h 7.05827" fill="none" stroke="black"/>
<path d="M475.332,167.349h 7.05827" fill="none" stroke="black"/>
<path d="M475.332,156.048h 7.05827" fill="none" stroke="black"/>
<path d="M475.332,144.746h 7.05827" fill="none" stroke="black"/>
<path d="M468.273,133.444h 14.1165" fill="none" stroke="black"/>
<path d="M475.332,122.142h 7.05827" fill="none" stroke="black"/>
<path d="M475.332,110.84h 7.05827" fill="none" stroke="black"/>
<path d="M475.332,99.5382h 7.05827" fill="none" stroke="black"/>
<path d="M475.332,88.2363h 7.05827" fill="none" stroke="black"/>
<path d="M468.273,76.9345h 14.1165" fill="none" stroke="black"/>
<path d="M475.332,65.6326h 7.05827" fill="none" stroke="black"/>
<path d="M475.332,54.3307h 7.05827" fill="none" stroke="black"/>
<path d="M475.332,43.0288h 7.05827" fill="none" stroke="black"/>
<path d="M475.332,31.727h 7.05827" fill="none" stroke="black"/>
<path d="M468.273,20.4251h 14.1165" fill="none" stroke="black"/>
<path d="M85.5394,335.087h 4.24486" fill="none" stroke="black"/>
<path d="M95.4677,335.087h 4.24486" fill="none" stroke="black"/>
<g fill="black">
<circle cx="92.626" cy="335.087" r="2.84175"/>
</g>
<path d="M99.7126,329.042h 4.24486" fill="none" stroke="black"/>
<path d="M109.641,329.042h 4.24486" fill="none" stroke="black"/>
<g fill="black">
<circle cx="106.799" cy="329.042" r="2.84175"/>
</g>
<path d="M113.886,324.275h 4.24486" fill="none" stroke="black"/>
<path d="M123.814,324.275h 4.24486" fill="none" stroke="black"/>
<g fill="black">
<circle cx="120.972" cy="324.275" r="2.84175"/>
</g>
<path d="M128.059,321.097h 4.24486" fill="none" stroke="black"/>
<path d="M137.987,321.097h 4.24486" fill="none" stroke="black"/>
<g fill="black">
<circle cx="135.146" cy="321.097" r="2.84175"/>
</g>
<path d="M142.232,319.881h 11.3315" fill="none" stroke="black"/>
<path d="M159.247,319.881h 11.3315" fill="none" stroke="black"/>
<g fill="black">
<circle cx="156.406" cy="319.881" r="2.84175"/>
</g>
<path d="M170.579,318.671h 11.3315" fill="none" stroke="black"/>
<path d="M187.594,318.671h 11.3315" fill="none" stroke="black"/>
<g fill="black">
<circle cx="184.752" cy="318.671" r="2.84175"/>
</g>
<path d="M198.925,319.123h 11.3315" fill="none" stroke="black"/>
<path d="M215.94,319.123h 11.3315" fill="none" stroke="black"/>
<g fill="black">
<circle cx="213.098" cy="319.123" r="2.84175"/>
</g>
<path d="M227.272,318.364h 25.5047" fill="none" stroke="black"/>
<path d="M258.46,318.364h 25.5047" fill="none" stroke="black"/>
<g fill="black">
<circle cx="255.618" cy="318.364" r="2.84175"/>
</g>
<path d="M326.484,324.215v -4.75219" fill="none" stroke="black"/>
<path d="M326.484,313.779v -4.75219" fill="none" stroke="black"/>
<path d="M283.965,316.621h 39.6779" fill="none" stroke="black"/>
<path d="M329.326,316.621h 39.6779" fill="none" stroke="black"/>
<g fill="black">
<circle cx="326.484" cy="316.621" r="2.84175"/>
</g>
<path d="M439.87,359.481v -11.963" fill="none" stroke="black"/>
<path d="M439.87,341.835v -12.1342" fill="none" stroke="black"/>
<path d="M369.004,344.677h 68.0244" fill="none" stroke="black"/>
<path d="M442.712,344.677h 39.6779" fill="none" stroke="black"/>
<g fill="black">
<circle cx="439.87" cy="344.677" r="2.84175"/>
</g>
<path d="M85.5394,334.841h 4.24486" fill="none" stroke="#ff0000"/>
<path d="M95.4677,334.841h 4.24486" fill="none" stroke="#ff0000"/>
<g stroke="#ff0000" stroke-width="1" fill="none">
<rect x="89.7842" y="331.999" width="5.6835" height="5.6835"/>
</g>
<path d="M99.7126,328.518h 4.24486" fill="none" stroke="#ff0000"/>
<path d="M109.641,328.518h 4.24486" fill="none" stroke="#ff0000"/>
<g stroke="#ff0000" stroke-width="1" fill="none">
<rect x="103.957" y="325.676" width="5.6835" height="5.6835"/>
</g>
<path d="M113.886,323.067h 4.24486" fill="none" stroke="#ff0000"/>
<path d="M123.814,323.067h 4.24486" fill="none" stroke="#ff0000"/>
<g stroke="#ff0000" stroke-width="1" fill="none">
<rect x="118.131" y="320.225" width="5.6835" height="5.6835"/>
</g>
<path d="M128.059,319.247h 4.24486" fill="none" stroke="#ff0000"/>
<path d="M137.987,319.247h 4.24486" fill="none" stroke="#ff0000"/>
<g stroke="#ff0000" stroke-width="1" fill="none">
<rect x="132.304" y="316.406" width="5.6835" height="5.6835"/>
</g>
<path d="M142.232,317.538h 11.3315" fill="none" stroke="#ff0000"/>
<path d="M159.247,317.538h 11.3315" fill="none" stroke="#ff0000"/>
<g stroke="#ff0000" stroke-width="1" fill="none">
<rect x="153.564" y="314.696" width="5.6835" height="5.6835"/>
</g>
<path d="M170.579,316.846h 11.3315" fill="none" stroke="#ff0000"/>
<path d="M187.594,316.846h 11.3315" fill="none" stroke="#ff0000"/>
<g stroke="#ff0000" stroke-width="1" fill="none">
<rect x="181.91" y="314.004" width="5.6835" height="5.6835"/>
</g>
<path d="M198.925,313.86h 11.3315" fill="none" stroke="#ff0000"/>
<path d="M215.94,313.86h 11.3315" fill="none" stroke="#ff0000"/>
<g stroke="#ff0000" stroke-width="1" fill="none">
<rect x="210.257" y="311.018" width="5.6835" height="5.6835"/>
</g>
<path d="M255.618,316.551v -0.0128434" fill="none" stroke="#ff0000"/>
<path d="M255.618,310.855v -0.0128434" fill="none" stroke="#ff0000"/>
<path d="M227.272,313.697h 25.5047" fill="none" stroke="#ff0000"/>
<path d="M258.46,313.697h 25.5047" fill="none" stroke="#ff0000"/>
<g stroke="#ff0000" stroke-width="1" fill="none">
<rect x="252.776" y="310.855" width="5.6835" height="5.6835"/>
</g>
<path d="M326.484,320.733v -5.79642" fill="none" stroke="#ff0000"/>
<path d="M326.484,309.253v -5.79642" fill="none" stroke="#ff0000"/>
<path d="M283.965,312.095h 39.6779" fill="none" stroke="#ff0000"/>
<path d="M329.326,312.095h 39.6779" fill="none" stroke="#ff0000"/>
<g stroke="#ff0000" stroke-width="1" fill="none">
<rect x="323.643" y="309.253" width="5.6835" height="5.6835"/>
</g>
<path d="M439.87,313.612v -38.2448" fill="none" stroke="#ff0000"/>
<path d="M439.87,269.684v -38.2448" fill="none" stroke="#ff0000"/>
<path d="M369.004,272.526h 68.0244" fill="none" stroke="#ff0000"/>
<path d="M442.712,272.526h 39.6779" fill="none" stroke="#ff0000"/>
<g stroke="#ff0000" stroke-width="1" fill="none">
<rect x="437.028" y="269.684" width="5.6835" height="5.6835"/>
</g>
<path d="M85.5394,334.387h 5.66574" fill="none" stroke="#59d354"/>
<path d="M94.0469,334.387h 5.66574" fill="none" stroke="#59d354"/>
<g stroke="#59d354" stroke-width="1" fill="none">
<polygon points=" 92.626, 331.545 95.4677, 337.229 89.7842, 337.229"/>
</g>
<path d="M99.7126,327.846h 5.66574" fill="none" stroke="#59d354"/>
<path d="M108.22,327.846h 5.66574" fill="none" stroke="#59d354"/>
<g stroke="#59d354" stroke-width="1" fill="none">
<polygon points=" 106.799, 325.004 109.641, 330.687 103.957, 330.687"/>
</g>
<path d="M113.886,321.942h 5.66574" fill="none" stroke="#59d354"/>
<path d="M122.393,321.942h 5.66574" fill="none" stroke="#59d354"/>
<g stroke="#59d354" stroke-width="1" fill="none">
<polygon points=" 120.972, 319.1 123.814, 324.784 118.131, 324.784"/>
</g>
<path d="M128.059,317.193h 5.66574" fill="none" stroke="#59d354"/>
<path d="M136.567,317.193h 5.66574" fill="none" stroke="#59d354"/>
<g stroke="#59d354" stroke-width="1" fill="none">
<polygon points=" 135.146, 314.351 137.987, 320.034 132.304, 320.034"/>
</g>
<path d="M142.232,315.315h 12.7524" fill="none" stroke="#59d354"/>
<path d="M157.826,315.315h 12.7524" fill="none" stroke="#59d354"/>
<g stroke="#59d354" stroke-width="1" fill="none">
<polygon points=" 156.406, 312.473 159.247, 318.157 153.564, 318.157"/>
</g>
<path d="M170.579,312.331h 12.7524" fill="none" stroke="#59d354"/>
<path d="M186.173,312.331h 12.7524" fill="none" stroke="#59d354"/>
<g stroke="#59d354" stroke-width="1" fill="none">
<polygon points=" 184.752, 309.489 187.594, 315.172 181.91, 315.172"/>
</g>
<path d="M198.925,311.259h 12.7524" fill="none" stroke="#59d354"/>
<path d="M214.519,311.259h 12.7524" fill="none" stroke="#59d354"/>
<g stroke="#59d354" stroke-width="1" fill="none">
<polygon points=" 213.098, 308.417 215.94, 314.1 210.257, 314.1"/>
</g>
<path d="M227.272,305.311h 26.9256" fill="none" stroke="#59d354"/>
<path d="M257.039,305.311h 26.9256" fill="none" stroke="#59d354"/>
<g stroke="#59d354" stroke-width="1" fill="none">
<polygon points=" 255.618, 302.47 258.46, 308.153 252.776, 308.153"/>
</g>
<path d="M326.484,316.682v -4.10985" fill="none" stroke="#59d354"/>
<path d="M326.484,306.889v -4.10985" fill="none" stroke="#59d354"/>
<path d="M283.965,309.731h 41.0988" fill="none" stroke="#59d354"/>
<path d="M327.905,309.731h 41.0988" fill="none" stroke="#59d354"/>
<g stroke="#59d354" stroke-width="1" fill="none">
<polygon points=" 326.484, 306.889 329.326, 312.572 323.643, 312.572"/>
</g>
<path d="M439.87,324.781v -23.9615" fill="none" stroke="#59d354"/>
<path d="M439.87,295.136v -23.9615" fill="none" stroke="#59d354"/>
<path d="M369.004,297.978h 69.4453" fill="none" stroke="#59d354"/>
<path d="M441.291,297.978h 41.0988" fill="none" stroke="#59d354"/>
<g stroke="#59d354" stroke-width="1" fill="none">
<polygon points=" 439.87, 295.136 442.712, 300.82 437.028, 300.82"/>
</g>
<path d="M85.5394,333.373h 5.66574" fill="none" stroke="#0000ff"/>
<path d="M94.0469,333.373h 5.66574" fill="none" stroke="#0000ff"/>
<g stroke="#0000ff" stroke-width="1" fill="none">
<polygon points=" 89.7842, 330.531 95.4677, 330.531 92.626, 336.215"/>
</g>
<path d="M99.7126,326.448h 5.66574" fill="none" stroke="#0000ff"/>
<path d="M108.22,326.448h 5.66574" fill="none" stroke="#0000ff"/>
<g stroke="#0000ff" stroke-width="1" fill="none">
<polygon points=" 103.957, 323.606 109.641, 323.606 106.799, 329.289"/>
</g>
<path d="M113.886,320.201h 5.66574" fill="none" stroke="#0000ff"/>
<path d="M122.393,320.201h 5.66574" fill="none" stroke="#0000ff"/>
<g stroke="#0000ff" stroke-width="1" fill="none">
<polygon points=" 118.131, 317.359 123.814, 317.359 120.972, 323.042"/>
</g>
<path d="M128.059,314.828h 5.66574" fill="none" stroke="#0000ff"/>
<path d="M136.567,314.828h 5.66574" fill="none" stroke="#0000ff"/>
<g stroke="#0000ff" stroke-width="1" fill="none">
<polygon points=" 132.304, 311.986 137.987, 311.986 135.146, 317.67"/>
</g>
<path d="M142.232,312.276h 12.7524" fill="none" stroke="#0000ff"/>
<path d="M157.826,312.276h 12.7524" fill="none" stroke="#0000ff"/>
<g stroke="#0000ff" stroke-width="1" fill="none">
<polygon points=" 153.564, 309.435 159.247, 309.435 156.406, 315.118"/>
</g>
<path d="M170.579,309.72h 12.7524" fill="none" stroke="#0000ff"/>
<path d="M186.173,309.72h 12.7524" fill="none" stroke="#0000ff"/>
<g stroke="#0000ff" stroke-width="1" fill="none">
<polygon points=" 181.91, 306.878 187.594, 306.878 184.752, 312.561"/>
</g>
<path d="M198.925,303.615h 12.7524" fill="none" stroke="#0000ff"/>
<path d="M214.519,303.615h 12.7524" fill="none" stroke="#0000ff"/>
<g stroke="#0000ff" stroke-width="1" fill="none">
<polygon points=" 210.257, 300.773 215.94, 300.773 213.098, 306.456"/>
</g>
<path d="M255.618,301.005v -0.106142" fill="none" stroke="#0000ff"/>
<path d="M255.618,295.215v -0.106142" fill="none" stroke="#0000ff"/>
<path d="M227.272,298.057h 26.9256" fill="none" stroke="#0000ff"/>
<path d="M257.039,298.057h 26.9256" fill="none" stroke="#0000ff"/>
<g stroke="#0000ff" stroke-width="1" fill="none">
<polygon points=" 252.776, 295.215 258.46, 295.215 255.618, 300.899"/>
</g>
<path d="M326.484,285.379v -7.62325" fill="none" stroke="#0000ff"/>
<path d="M326.484,272.072v -7.62325" fill="none" stroke="#0000ff"/>
<path d="M283.965,274.914h 41.0988" fill="none" stroke="#0000ff"/>
<path d="M327.905,274.914h 41.0988" fill="none" stroke="#0000ff"/>
<g stroke="#0000ff" stroke-width="1" fill="none">
<polygon points=" 323.643, 272.072 329.326, 272.072 326.484, 277.756"/>
</g>
<path d="M439.87,294.334v -37.9488" fill="none" stroke="#0000ff"/>
<path d="M439.87,250.701v -37.9488" fill="none" stroke="#0000ff"/>
<path d="M369.004,253.543h 69.4453" fill="none" stroke="#0000ff"/>
<path d="M441.291,253.543h 41.0988" fill="none" stroke="#0000ff"/>
<g stroke="#0000ff" stroke-width="1" fill="none">
<polygon points=" 437.028, 250.701 442.712, 250.701 439.87, 256.385"/>
</g>
<path d="M85.5394,331.332h 4.24486" fill="none" stroke="#ff00ff"/>
<path d="M95.4677,331.332h 4.24486" fill="none" stroke="#ff00ff"/>
<g fill="#ff00ff">
<polygon points=" 91.6787, 330.385 91.6787, 328.49 93.5732, 328.49 93.5732, 330.385 95.4677, 330.385 95.4677, 332.279 93.5732, 332.279 93.5732, 334.174 91.6787, 334.174 91.6787, 332.279 89.7842, 332.279 89.7842, 330.385"/>
</g>
<path d="M99.7126,324.02h 4.24486" fill="none" stroke="#ff00ff"/>
<path d="M109.641,324.02h 4.24486" fill="none" stroke="#ff00ff"/>
<g fill="#ff00ff">
<polygon points=" 105.852, 323.073 105.852, 321.178 107.746, 321.178 107.746, 323.073 109.641, 323.073 109.641, 324.967 107.746, 324.967 107.746, 326.862 105.852, 326.862 105.852, 324.967 103.957, 324.967 103.957, 323.073"/>
</g>
<path d="M113.886,317.87h 4.24486" fill="none" stroke="#ff00ff"/>
<path d="M123.814,317.87h 4.24486" fill="none" stroke="#ff00ff"/>
<g fill="#ff00ff">
<polygon points=" 120.025, 316.923 120.025, 315.028 121.92, 315.028 121.92, 316.923 123.814, 316.923 123.814, 318.817 121.92, 318.817 121.92, 320.712 120.025, 320.712 120.025, 318.817 118.131, 318.817 118.131, 316.923"/>
</g>
<path d="M128.059,312.701h 4.24486" fill="none" stroke="#ff00ff"/>
<path d="M137.987,312.701h 4.24486" fill="none" stroke="#ff00ff"/>
<g fill="#ff00ff">
<polygon points=" 134.198, 311.754 134.198, 309.859 136.093, 309.859 136.093, 311.754 137.987, 311.754 137.987, 313.648 136.093, 313.648 136.093, 315.543 134.198, 315.543 134.198, 313.648 132.304, 313.648 132.304, 311.754"/>
</g>
<path d="M142.232,309.383h 11.3315" fill="none" stroke="#ff00ff"/>
<path d="M159.247,309.383h 11.3315" fill="none" stroke="#ff00ff"/>
<g fill="#ff00ff">
<polygon points=" 155.458, 308.436 155.458, 306.541 157.353, 306.541 157.353, 308.436 159.247, 308.436 159.247, 310.33 157.353, 310.33 157.353, 312.225 155.458, 312.225 155.458, 310.33 153.564, 310.33 153.564, 308.436"/>
</g>
<path d="M170.579,306.705h 11.3315" fill="none" stroke="#ff00ff"/>
<path d="M187.594,306.705h 11.3315" fill="none" stroke="#ff00ff"/>
<g fill="#ff00ff">
<polygon points=" 183.805, 305.757 183.805, 303.863 185.699, 303.863 185.699, 305.757 187.594, 305.757 187.594, 307.652 185.699, 307.652 185.699, 309.546 183.805, 309.546 183.805, 307.652 181.91, 307.652 181.91, 305.757"/>
</g>
<path d="M198.925,297.943h 11.3315" fill="none" stroke="#ff00ff"/>
<path d="M215.94,297.943h 11.3315" fill="none" stroke="#ff00ff"/>
<g fill="#ff00ff">
<polygon points=" 212.151, 296.996 212.151, 295.101 214.046, 295.101 214.046, 296.996 215.94, 296.996 215.94, 298.89 214.046, 298.89 214.046, 300.785 212.151, 300.785 212.151, 298.89 210.257, 298.89 210.257, 296.996"/>
</g>
<path d="M255.618,292.428v -0.943881" fill="none" stroke="#ff00ff"/>
<path d="M255.618,285.801v -0.943881" fill="none" stroke="#ff00ff"/>
<path d="M227.272,288.643h 25.5047" fill="none" stroke="#ff00ff"/>
<path d="M258.46,288.643h 25.5047" fill="none" stroke="#ff00ff"/>
<g fill="#ff00ff">
<polygon points=" 254.671, 287.695 254.671, 285.801 256.565, 285.801 256.565, 287.695 258.46, 287.695 258.46, 289.59 256.565, 289.59 256.565, 291.484 254.671, 291.484 254.671, 289.59 252.776, 289.59 252.776, 287.695"/>
</g>
<path d="M326.484,275.728v -10.5197" fill="none" stroke="#ff00ff"/>
<path d="M326.484,259.525v -10.5197" fill="none" stroke="#ff00ff"/>
<path d="M283.965,262.367h 39.6779" fill="none" stroke="#ff00ff"/>
<path d="M329.326,262.367h 39.6779" fill="none" stroke="#ff00ff"/>
<g fill="#ff00ff">
<polygon points=" 325.537, 261.419 325.537, 259.525 327.431, 259.525 327.431, 261.419 329.326, 261.419 329.326, 263.314 327.431, 263.314 327.431, 265.208 325.537, 265.208 325.537, 263.314 323.643, 263.314 323.643, 261.419"/>
</g>
<path d="M439.87,322.577v -37.5787" fill="none" stroke="#ff00ff"/>
<path d="M439.87,279.315v -37.5787" fill="none" stroke="#ff00ff"/>
<path d="M369.004,282.157h 68.0244" fill="none" stroke="#ff00ff"/>
<path d="M442.712,282.157h 39.6779" fill="none" stroke="#ff00ff"/>
<g fill="#ff00ff">
<polygon points=" 438.923, 281.21 438.923, 279.315 440.817, 279.315 440.817, 281.21 442.712, 281.21 442.712, 283.104 440.817, 283.104 440.817, 284.999 438.923, 284.999 438.923, 283.104 437.028, 283.104 437.028, 281.21"/>
</g>
<text xml:space="preserve" x="117.722" y="44.0471" fill="black" font-size="11.7432" font-family="Helvetica">PYTHIA8, option3</text>
<text xml:space="preserve" x="210.79" y="69.6229" fill="black" font-size="11.7432" font-family="Helvetica">|&lt;1</text>
<text xml:space="preserve" x="204.396" y="69.6229" fill="black" font-size="11.7432" font-family="Times">&#0951;</text>
<text xml:space="preserve" x="117.722" y="69.6229" fill="black" font-size="11.7432" font-family="Helvetica">p+Au, 200 GeV, |</text>
<text xml:space="preserve" x="156.086" y="95.1986" fill="black" font-size="11.7432" font-family="Helvetica">cent: 0~10%</text>
<g fill="black">
<circle cx="135.146" cy="91.3293" r="2.84175"/>
</g>
<text xml:space="preserve" x="156.086" y="120.064" fill="black" font-size="11.7432" font-family="Helvetica">cent: 10~20%</text>
<g stroke="#ff0000" stroke-width="1" fill="none">
<rect x="132.304" y="113.581" width="5.6835" height="5.6835"/>
</g>
<text xml:space="preserve" x="156.086" y="145.64" fill="black" font-size="11.7432" font-family="Helvetica">cent: 20~40%</text>
<g stroke="#59d354" stroke-width="1" fill="none">
<polygon points=" 135.146, 138.675 137.987, 144.358 132.304, 144.358"/>
</g>
<text xml:space="preserve" x="156.086" y="170.505" fill="black" font-size="11.7432" font-family="Helvetica">cent: 40~60%</text>
<g stroke="#0000ff" stroke-width="1" fill="none">
<polygon points=" 132.304, 163.769 137.987, 163.769 135.146, 169.452"/>
</g>
<text xml:space="preserve" x="156.086" y="195.37" fill="black" font-size="11.7432" font-family="Helvetica">cent: 60~80%</text>
<g fill="#ff00ff">
<polygon points=" 134.198, 190.757 134.198, 188.862 136.093, 188.862 136.093, 190.757 137.987, 190.757 137.987, 192.651 136.093, 192.651 136.093, 194.546 134.198, 194.546 134.198, 192.651 132.304, 192.651 132.304, 190.757"/>
</g></svg>
