<?xml version="1.0" standalone="no"?>
<svg width="567.429" height="386.304" viewBox="0 0 567.429 386.304" xmlns="http://www.w3.org/2000/svg" shape-rendering="crispEdges">
<title>
/Users/jinhyunpark/npl/gitHub/xloadFromServer/Git_Bias_correction_RxA/plots_dirIncluded/YieldCentPion0.svg
</title>
<desc>
Creator: ROOT Version 6.28/04
CreationDate: Fri Aug  4 21:16:28 2023</desc>
<defs>
</defs>
<rect x="0.5" y="0" width="566.929" height="385.804" fill="white"/>
<rect x="57.1929" y="38.5804" width="453.543" height="308.643" fill="white"/>
<rect x="57.1929" y="38.5804" width="453.543" height="308.643" fill="none" stroke="black"/>
<rect x="57.1929" y="38.5804" width="453.543" height="308.643" fill="white"/>
<rect x="57.1929" y="38.5804" width="453.543" height="308.643" fill="none" stroke="black"/>
<path d="M77.8085,53.7159v -0.219095" fill="none" stroke="#000099"/>
<path d="M77.8085,53.4968v -0.219095" fill="none" stroke="#000099"/>
<path d="M57.1929,53.4968h 20.6156" fill="none" stroke="#000099"/>
<path d="M77.8085,53.4968h 20.6156" fill="none" stroke="#000099"/>
<g stroke="black" stroke-width="1" fill="none">
<line x1="76.8085" y1="53.4968" x2="77.8085" y2="53.4968"/>
</g>
<path d="M119.04,96.763v -0.203543" fill="none" stroke="#000099"/>
<path d="M119.04,96.5595v -0.203543" fill="none" stroke="#000099"/>
<path d="M98.4241,96.5595h 20.6156" fill="none" stroke="#000099"/>
<path d="M119.04,96.5595h 20.6156" fill="none" stroke="#000099"/>
<g stroke="black" stroke-width="1" fill="none">
<line x1="118.04" y1="96.5595" x2="119.04" y2="96.5595"/>
</g>
<path d="M160.271,124.783v -0.192748" fill="none" stroke="#000099"/>
<path d="M160.271,124.59v -0.192748" fill="none" stroke="#000099"/>
<path d="M139.655,124.59h 20.6156" fill="none" stroke="#000099"/>
<path d="M160.271,124.59h 20.6156" fill="none" stroke="#000099"/>
<g stroke="black" stroke-width="1" fill="none">
<line x1="159.271" y1="124.59" x2="160.271" y2="124.59"/>
</g>
<path d="M201.502,147.021v -0.183728" fill="none" stroke="#000099"/>
<path d="M201.502,146.837v -0.183728" fill="none" stroke="#000099"/>
<path d="M180.887,146.837h 20.6156" fill="none" stroke="#000099"/>
<path d="M201.502,146.837h 20.6156" fill="none" stroke="#000099"/>
<g stroke="black" stroke-width="1" fill="none">
<line x1="200.502" y1="146.837" x2="201.502" y2="146.837"/>
</g>
<path d="M242.733,169.943v -0.173942" fill="none" stroke="#000099"/>
<path d="M242.733,169.769v -0.173942" fill="none" stroke="#000099"/>
<path d="M222.118,169.769h 20.6156" fill="none" stroke="#000099"/>
<path d="M242.733,169.769h 20.6156" fill="none" stroke="#000099"/>
<g stroke="black" stroke-width="1" fill="none">
<line x1="241.733" y1="169.769" x2="242.733" y2="169.769"/>
</g>
<path d="M283.965,193.346v -0.163347" fill="none" stroke="#000099"/>
<path d="M283.965,193.182v -0.163347" fill="none" stroke="#000099"/>
<path d="M263.349,193.182h 20.6156" fill="none" stroke="#000099"/>
<path d="M283.965,193.182h 20.6156" fill="none" stroke="#000099"/>
<g stroke="black" stroke-width="1" fill="none">
<line x1="282.965" y1="193.182" x2="283.965" y2="193.182"/>
</g>
<path d="M325.196,218.021v -0.151375" fill="none" stroke="#000099"/>
<path d="M325.196,217.869v -0.151375" fill="none" stroke="#000099"/>
<path d="M304.58,217.869h 20.6156" fill="none" stroke="#000099"/>
<path d="M325.196,217.869h 20.6156" fill="none" stroke="#000099"/>
<g stroke="black" stroke-width="1" fill="none">
<line x1="324.196" y1="217.869" x2="325.196" y2="217.869"/>
</g>
<path d="M366.427,241.635v -0.138954" fill="none" stroke="#000099"/>
<path d="M366.427,241.496v -0.138954" fill="none" stroke="#000099"/>
<path d="M345.811,241.496h 20.6156" fill="none" stroke="#000099"/>
<path d="M366.427,241.496h 20.6156" fill="none" stroke="#000099"/>
<g stroke="black" stroke-width="1" fill="none">
<line x1="365.427" y1="241.496" x2="366.427" y2="241.496"/>
</g>
<path d="M407.658,263.72v -0.126236" fill="none" stroke="#000099"/>
<path d="M407.658,263.594v -0.126236" fill="none" stroke="#000099"/>
<path d="M387.043,263.594h 20.6156" fill="none" stroke="#000099"/>
<path d="M407.658,263.594h 20.6156" fill="none" stroke="#000099"/>
<g stroke="black" stroke-width="1" fill="none">
<line x1="406.658" y1="263.594" x2="407.658" y2="263.594"/>
</g>
<path d="M448.889,319.579v -0.0860447" fill="none" stroke="#000099"/>
<path d="M448.889,319.493v -0.0860447" fill="none" stroke="#000099"/>
<path d="M428.274,319.493h 20.6156" fill="none" stroke="#000099"/>
<path d="M448.889,319.493h 20.6156" fill="none" stroke="#000099"/>
<g stroke="black" stroke-width="1" fill="none">
<line x1="447.889" y1="319.493" x2="448.889" y2="319.493"/>
</g>
<path d="M490.121,333.226v -0.0729292" fill="none" stroke="#000099"/>
<path d="M490.121,333.153v -0.0729292" fill="none" stroke="#000099"/>
<path d="M469.505,333.153h 20.6156" fill="none" stroke="#000099"/>
<path d="M490.121,333.153h 20.6156" fill="none" stroke="#000099"/>
<g stroke="black" stroke-width="1" fill="none">
<line x1="489.121" y1="333.153" x2="490.121" y2="333.153"/>
</g>
<rect x="442.705" y="25.0773" width="113.386" height="61.7287" fill="white"/>
<path d="M442.705,86.8059h 113.386" fill="none" stroke="black"/>
<path d="M556.091,86.8059v -61.7287" fill="none" stroke="black"/>
<path d="M556.091,25.0773h -113.386" fill="none" stroke="black"/>
<path d="M442.705,25.0773v 61.7287" fill="none" stroke="black"/>
<text xml:space="preserve" x="459.404" y="36.5499" fill="black" font-size="13.5253" font-family="Helvetica">centPion0_px</text>
<path d="M442.705,40.5094h 113.386" fill="none" stroke="black"/>
<text xml:space="preserve" x="448.033" y="51.982" fill="black" font-size="9.41162" font-family="Helvetica">Entries </text>
<text xml:space="preserve" x="485.395" y="51.1698" fill="black" font-size="9.41162" font-family="Helvetica">   1.236956e+07</text>
<text xml:space="preserve" x="448.033" y="67.4142" fill="black" font-size="9.41162" font-family="Helvetica">Mean  </text>
<text xml:space="preserve" x="522.757" y="66.602" fill="black" font-size="9.41162" font-family="Helvetica">  39.13</text>
<text xml:space="preserve" x="448.033" y="82.8464" fill="black" font-size="9.41162" font-family="Helvetica">Std Dev   </text>
<text xml:space="preserve" x="522.757" y="82.0342" fill="black" font-size="9.41162" font-family="Helvetica">  27.19</text>
<path d="M57.1929,347.224h 453.543" fill="none" stroke="black"/>
<path d="M57.1929,337.964v 9.2593" fill="none" stroke="black"/>
<path d="M77.8085,342.594v 4.62965" fill="none" stroke="black"/>
<path d="M98.4241,342.594v 4.62965" fill="none" stroke="black"/>
<path d="M119.04,342.594v 4.62965" fill="none" stroke="black"/>
<path d="M139.655,337.964v 9.2593" fill="none" stroke="black"/>
<path d="M160.271,342.594v 4.62965" fill="none" stroke="black"/>
<path d="M180.887,342.594v 4.62965" fill="none" stroke="black"/>
<path d="M201.502,342.594v 4.62965" fill="none" stroke="black"/>
<path d="M222.118,337.964v 9.2593" fill="none" stroke="black"/>
<path d="M242.733,342.594v 4.62965" fill="none" stroke="black"/>
<path d="M263.349,342.594v 4.62965" fill="none" stroke="black"/>
<path d="M283.965,342.594v 4.62965" fill="none" stroke="black"/>
<path d="M304.58,337.964v 9.2593" fill="none" stroke="black"/>
<path d="M325.196,342.594v 4.62965" fill="none" stroke="black"/>
<path d="M345.811,342.594v 4.62965" fill="none" stroke="black"/>
<path d="M366.427,342.594v 4.62965" fill="none" stroke="black"/>
<path d="M387.043,337.964v 9.2593" fill="none" stroke="black"/>
<path d="M407.658,342.594v 4.62965" fill="none" stroke="black"/>
<path d="M428.274,342.594v 4.62965" fill="none" stroke="black"/>
<path d="M448.889,342.594v 4.62965" fill="none" stroke="black"/>
<path d="M469.505,337.964v 9.2593" fill="none" stroke="black"/>
<path d="M469.505,337.964v 9.2593" fill="none" stroke="black"/>
<path d="M490.121,342.594v 4.62965" fill="none" stroke="black"/>
<text xml:space="preserve" x="52.482" y="359.813" fill="black" font-size="12.8882" font-family="Helvetica">0</text>
<text xml:space="preserve" x="132.08" y="359.813" fill="black" font-size="12.8882" font-family="Helvetica">20</text>
<text xml:space="preserve" x="214.114" y="359.813" fill="black" font-size="12.8882" font-family="Helvetica">40</text>
<text xml:space="preserve" x="296.96" y="359.813" fill="black" font-size="12.8882" font-family="Helvetica">60</text>
<text xml:space="preserve" x="378.994" y="359.813" fill="black" font-size="12.8882" font-family="Helvetica">80</text>
<text xml:space="preserve" x="458.592" y="359.813" fill="black" font-size="12.8882" font-family="Helvetica">100</text>
<path d="M57.1929,347.224v -308.643" fill="none" stroke="black"/>
<path d="M70.7992,337.474h -13.6063" fill="none" stroke="black"/>
<path d="M63.9961,329.843h -6.80315" fill="none" stroke="black"/>
<path d="M63.9961,322.211h -6.80315" fill="none" stroke="black"/>
<path d="M63.9961,314.58h -6.80315" fill="none" stroke="black"/>
<path d="M70.7992,306.948h -13.6063" fill="none" stroke="black"/>
<path d="M63.9961,299.317h -6.80315" fill="none" stroke="black"/>
<path d="M63.9961,291.685h -6.80315" fill="none" stroke="black"/>
<path d="M63.9961,284.054h -6.80315" fill="none" stroke="black"/>
<path d="M70.7992,276.422h -13.6063" fill="none" stroke="black"/>
<path d="M63.9961,268.791h -6.80315" fill="none" stroke="black"/>
<path d="M63.9961,261.16h -6.80315" fill="none" stroke="black"/>
<path d="M63.9961,253.528h -6.80315" fill="none" stroke="black"/>
<path d="M70.7992,245.897h -13.6063" fill="none" stroke="black"/>
<path d="M63.9961,238.265h -6.80315" fill="none" stroke="black"/>
<path d="M63.9961,230.634h -6.80315" fill="none" stroke="black"/>
<path d="M63.9961,223.002h -6.80315" fill="none" stroke="black"/>
<path d="M70.7992,215.371h -13.6063" fill="none" stroke="black"/>
<path d="M63.9961,207.739h -6.80315" fill="none" stroke="black"/>
<path d="M63.9961,200.108h -6.80315" fill="none" stroke="black"/>
<path d="M63.9961,192.476h -6.80315" fill="none" stroke="black"/>
<path d="M70.7992,184.845h -13.6063" fill="none" stroke="black"/>
<path d="M63.9961,177.213h -6.80315" fill="none" stroke="black"/>
<path d="M63.9961,169.582h -6.80315" fill="none" stroke="black"/>
<path d="M63.9961,161.95h -6.80315" fill="none" stroke="black"/>
<path d="M70.7992,154.319h -13.6063" fill="none" stroke="black"/>
<path d="M63.9961,146.687h -6.80315" fill="none" stroke="black"/>
<path d="M63.9961,139.056h -6.80315" fill="none" stroke="black"/>
<path d="M63.9961,131.424h -6.80315" fill="none" stroke="black"/>
<path d="M70.7992,123.793h -13.6063" fill="none" stroke="black"/>
<path d="M63.9961,116.161h -6.80315" fill="none" stroke="black"/>
<path d="M63.9961,108.53h -6.80315" fill="none" stroke="black"/>
<path d="M63.9961,100.898h -6.80315" fill="none" stroke="black"/>
<path d="M70.7992,93.2668h -13.6063" fill="none" stroke="black"/>
<path d="M63.9961,85.6353h -6.80315" fill="none" stroke="black"/>
<path d="M63.9961,78.0038h -6.80315" fill="none" stroke="black"/>
<path d="M63.9961,70.3723h -6.80315" fill="none" stroke="black"/>
<path d="M70.7992,62.7408h -13.6063" fill="none" stroke="black"/>
<path d="M70.7992,337.474h -13.6063" fill="none" stroke="black"/>
<path d="M63.9961,345.106h -6.80315" fill="none" stroke="black"/>
<path d="M70.7992,62.7408h -13.6063" fill="none" stroke="black"/>
<path d="M63.9961,55.1094h -6.80315" fill="none" stroke="black"/>
<path d="M63.9961,47.4779h -6.80315" fill="none" stroke="black"/>
<path d="M63.9961,39.8464h -6.80315" fill="none" stroke="black"/>
<text xml:space="preserve" x="32.9888" y="341.944" fill="black" font-size="12.8882" font-family="Helvetica">200</text>
<text xml:space="preserve" x="32.9888" y="311.08" fill="black" font-size="12.8882" font-family="Helvetica">400</text>
<text xml:space="preserve" x="32.9888" y="281.028" fill="black" font-size="12.8882" font-family="Helvetica">600</text>
<text xml:space="preserve" x="32.9888" y="250.164" fill="black" font-size="12.8882" font-family="Helvetica">800</text>
<text xml:space="preserve" x="25.6788" y="220.111" fill="black" font-size="12.8882" font-family="Helvetica">1000</text>
<text xml:space="preserve" x="25.6788" y="189.247" fill="black" font-size="12.8882" font-family="Helvetica">1200</text>
<text xml:space="preserve" x="25.6788" y="158.383" fill="black" font-size="12.8882" font-family="Helvetica">1400</text>
<text xml:space="preserve" x="25.6788" y="128.331" fill="black" font-size="12.8882" font-family="Helvetica">1600</text>
<text xml:space="preserve" x="25.6788" y="97.4663" fill="black" font-size="12.8882" font-family="Helvetica">1800</text>
<text xml:space="preserve" x="25.6788" y="67.4142" fill="black" font-size="12.8882" font-family="Helvetica">2000</text>
<text xml:space="preserve" x="78.4731" y="29.2399" fill="black" font-size="8.75881" font-family="Helvetica">3</text>
<text xml:space="preserve" x="63.8531" y="36.5499" fill="black" font-size="12.8882" font-family="Helvetica">10</text>
<text xml:space="preserve" x="56.5431" y="36.5499" fill="black" font-size="12.8882" font-family="Times">&#0215;</text>
<rect x="442.705" y="25.0773" width="113.386" height="61.7287" fill="white"/>
<path d="M442.705,86.8059h 113.386" fill="none" stroke="black"/>
<path d="M556.091,86.8059v -61.7287" fill="none" stroke="black"/>
<path d="M556.091,25.0773h -113.386" fill="none" stroke="black"/>
<path d="M442.705,25.0773v 61.7287" fill="none" stroke="black"/>
<text xml:space="preserve" x="459.404" y="36.5499" fill="black" font-size="13.5253" font-family="Helvetica">centPion0_px</text>
<path d="M442.705,40.5094h 113.386" fill="none" stroke="black"/>
<text xml:space="preserve" x="448.033" y="51.982" fill="black" font-size="9.41162" font-family="Helvetica">Entries </text>
<text xml:space="preserve" x="485.395" y="51.1698" fill="black" font-size="9.41162" font-family="Helvetica">   1.236956e+07</text>
<text xml:space="preserve" x="448.033" y="67.4142" fill="black" font-size="9.41162" font-family="Helvetica">Mean  </text>
<text xml:space="preserve" x="522.757" y="66.602" fill="black" font-size="9.41162" font-family="Helvetica">  39.13</text>
<text xml:space="preserve" x="448.033" y="82.8464" fill="black" font-size="9.41162" font-family="Helvetica">Std Dev   </text>
<text xml:space="preserve" x="522.757" y="82.0342" fill="black" font-size="9.41162" font-family="Helvetica">  27.19</text>
<text xml:space="preserve" x="185.686" y="18.681" fill="black" font-size="17.9813" font-family="Helvetica">x: centrality y: pion0's pT</text></svg>
