<svg width="800" height="513" xmlns="http://www.w3.org/2000/svg"><path d="M0,0H800V513H0Z" style="pointer-events: visiblefill; fill: rgb(255, 255, 255);"></path><g><g transform="translate(96,26)"><title></title><path d="M0,0H608V426H0Z" style="fill: rgb(255, 255, 255); stroke: rgb(0, 0, 0); stroke-width: 1; pointer-events: visiblefill; cursor: default;"></path><svg x="0" y="0" overflow="hidden" width="608" height="426" viewBox="0 0 608 426" style="pointer-events: visiblefill; cursor: default;"><g><path d="M0,287h68M34,287v0M68,295h102M119,295v0M169,306h102M220,305v2M270,315h170M355,313v4M439,329h170M524,324v10" style="stroke: rgb(0, 204, 0); stroke-width: 1;"></path><path d="M0,287h68v0h-68zM68,295h102v0h-102zM169,305h102v2h-102zM270,313h170v4h-170zM439,324h170v10h-170z" style="fill: none; pointer-events: visiblefill;"></path><path d="M35,288h3v-3h-3v-3h-3v3h-3v3h3v3h3zM120,296h3v-3h-3v-3h-3v3h-3v3h3v3h3zM221,307h3v-3h-3v-3h-3v3h-3v3h3v3h3zM356,316h3v-3h-3v-3h-3v3h-3v3h3v3h3zM525,330h3v-3h-3v-3h-3v3h-3v3h3v3h3z" style="stroke: rgb(0, 204, 0); fill: rgb(0, 204, 0);"></path></g><g><path d="M0,275h68M34,275v0M68,280h102M119,279v1M169,286h102M220,285v2M270,293h170M355,291v4M439,298h170M524,292v13" style="stroke: rgb(51, 255, 153); stroke-width: 1;"></path><path d="M0,275h68v0h-68zM68,279h102v1h-102zM169,285h102v2h-102zM270,291h170v4h-170zM439,292h170v13h-170z" style="fill: none; pointer-events: visiblefill;"></path><path d="M35,276h3v-3h-3v-3h-3v3h-3v3h3v3h3zM120,281h3v-3h-3v-3h-3v3h-3v3h3v3h3zM221,287h3v-3h-3v-3h-3v3h-3v3h3v3h3zM356,294h3v-3h-3v-3h-3v3h-3v3h3v3h3zM525,299h3v-3h-3v-3h-3v3h-3v3h3v3h3z" style="stroke: rgb(51, 255, 153); fill: rgb(51, 255, 153);"></path></g><g><path d="M0,263h68M34,263v0M68,265h102M119,265v0M169,268h102M220,267v2M270,268h170M355,266v4M439,272h170M524,267v11" style="stroke: rgb(0, 204, 204); stroke-width: 1;"></path><path d="M0,263h68v0h-68zM68,265h102v0h-102zM169,267h102v2h-102zM270,266h170v4h-170zM439,267h170v11h-170z" style="fill: none; pointer-events: visiblefill;"></path><path d="M35,264h3v-3h-3v-3h-3v3h-3v3h3v3h3zM120,266h3v-3h-3v-3h-3v3h-3v3h3v3h3zM221,269h3v-3h-3v-3h-3v3h-3v3h3v3h3zM356,269h3v-3h-3v-3h-3v3h-3v3h3v3h3zM525,273h3v-3h-3v-3h-3v3h-3v3h3v3h3z" style="stroke: rgb(0, 204, 204); fill: none;"></path></g><g><path d="M0,247h68M34,247v0M68,245h102M119,245v0M169,242h102M220,241v2M270,239h170M355,237v4M439,228h170M524,221v14" style="stroke: rgb(0, 51, 255); stroke-width: 1;"></path><path d="M0,247h68v0h-68zM68,245h102v0h-102zM169,241h102v2h-102zM270,237h170v4h-170zM439,221h170v14h-170z" style="fill: none; pointer-events: visiblefill;"></path><path d="M32,243l2,2l2,-2l2,2l-2,2l2,2l-2,2l-2,-2l-2,2l-2,-2l2,-2l-2,-2zM117,241l2,2l2,-2l2,2l-2,2l2,2l-2,2l-2,-2l-2,2l-2,-2l2,-2l-2,-2zM218,238l2,2l2,-2l2,2l-2,2l2,2l-2,2l-2,-2l-2,2l-2,-2l2,-2l-2,-2zM353,235l2,2l2,-2l2,2l-2,2l2,2l-2,2l-2,-2l-2,2l-2,-2l2,-2l-2,-2zM522,224l2,2l2,-2l2,2l-2,2l2,2l-2,2l-2,-2l-2,2l-2,-2l2,-2l-2,-2z" style="stroke: rgb(0, 51, 255); fill: rgb(0, 51, 255);"></path></g><g><path d="M0,227h68M34,227v0M68,220h102M119,220v0M169,210h102M220,209v2M270,207h170M355,204v5M439,201h170M524,192v18" style="stroke: rgb(0, 0, 255); stroke-width: 1;"></path><path d="M0,227h68v0h-68zM68,220h102v0h-102zM169,209h102v2h-102zM270,204h170v5h-170zM439,192h170v18h-170z" style="fill: none; pointer-events: visiblefill;"></path><path d="M35,228h3v-3h-3v-3h-3v3h-3v3h3v3h3zM120,221h3v-3h-3v-3h-3v3h-3v3h3v3h3zM221,211h3v-3h-3v-3h-3v3h-3v3h3v3h3zM356,208h3v-3h-3v-3h-3v3h-3v3h3v3h3zM525,202h3v-3h-3v-3h-3v3h-3v3h3v3h3z" style="stroke: rgb(0, 0, 255); fill: none;"></path></g></svg><g><g transform="translate(0,426)"><path d="M0,0h608M0,-426h608M0,-15V0M17,-8V0M34,-8V0M51,-8V0M68,-15V0M84,-8V0M101,-8V0M118,-8V0M135,-15V0M152,-8V0M169,-8V0M186,-8V0M203,-15V0M220,-8V0M236,-8V0M253,-8V0M270,-15V0M287,-8V0M304,-8V0M321,-8V0M338,-15V0M355,-8V0M372,-8V0M388,-8V0M405,-15V0M422,-8V0M439,-8V0M456,-8V0M473,-15V0M490,-8V0M507,-8V0M524,-8V0M540,-15V0M557,-8V0M574,-8V0M591,-8V0M608,-15V0M0,-411V-426M17,-418V-426M34,-418V-426M51,-418V-426M68,-411V-426M84,-418V-426M101,-418V-426M118,-418V-426M135,-411V-426M152,-418V-426M169,-418V-426M186,-418V-426M203,-411V-426M220,-418V-426M236,-418V-426M253,-418V-426M270,-411V-426M287,-418V-426M304,-418V-426M321,-418V-426M338,-411V-426M355,-418V-426M372,-418V-426M388,-418V-426M405,-411V-426M422,-418V-426M439,-418V-426M456,-418V-426M473,-411V-426M490,-418V-426M507,-418V-426M524,-418V-426M540,-411V-426M557,-418V-426M574,-418V-426M591,-418V-426M608,-411V-426" style="stroke: rgb(0, 0, 0); stroke-width: 1;"></path><g font-family="Arial" font-size="18" xml:space="preserve" fill="#000000" text-anchor="middle"><text dy=".8em" transform="translate(0,3)">2</text><text dy=".8em" transform="translate(68,3)">4</text><text dy=".8em" transform="translate(135,3)">6</text><text dy=".8em" transform="translate(203,3)">8</text><text dy=".8em" transform="translate(270,3)">10</text><text dy=".8em" transform="translate(338,3)">12</text><text dy=".8em" transform="translate(405,3)">14</text><text dy=".8em" transform="translate(473,3)">16</text><text dy=".8em" transform="translate(540,3)">18</text><text dy=".8em" transform="translate(608,3)">20</text></g><rect x="0" y="0" width="608" height="21" style="opacity: 0; cursor: crosshair;"></rect><g font-family="Arial" font-size="18" xml:space="preserve" transform="translate(608,29)" style="cursor: move;"><g transform="translate(-79,5)"><text fill="#000000" font-size="18">p</text><text fill="#000000" font-size="11" transform="translate(11,4)">T</text><text fill="#000000" font-size="18" x="17">(GeV/c)</text></g></g></g><g><path d="M0,0v426M608,0v426M24,426H0M12,409H0M12,392H0M12,375H0M12,358H0M24,341H0M12,324H0M12,307H0M12,290H0M12,273H0M24,256H0M12,239H0M12,222H0M12,204H0M12,187H0M24,170H0M12,153H0M12,136H0M12,119H0M12,102H0M24,85H0M12,68H0M12,51H0M12,34H0M12,17H0M24,0H0M584,426H608M596,409H608M596,392H608M596,375H608M596,358H608M584,341H608M596,324H608M596,307H608M596,290H608M596,273H608M584,256H608M596,239H608M596,222H608M596,204H608M596,187H608M584,170H608M596,153H608M596,136H608M596,119H608M596,102H608M584,85H608M596,68H608M596,51H608M596,34H608M596,17H608M584,0H608" style="stroke: rgb(0, 0, 0); stroke-width: 1;"></path><g font-family="Arial" font-size="18" xml:space="preserve" fill="#000000" text-anchor="end"><text dominant-baseline="middle" transform="translate(-4,426)">0</text><text dominant-baseline="middle" transform="translate(-4,341)">0.5</text><text dominant-baseline="middle" transform="translate(-4,256)">1</text><text dominant-baseline="middle" transform="translate(-4,170)">1.5</text><text dominant-baseline="middle" transform="translate(-4,85)">2</text><text dominant-baseline="middle" transform="translate(-4)">2.5</text></g><rect x="-28" y="0" width="28" height="426" style="opacity: 0; cursor: crosshair;"></rect><g font-family="Arial" font-size="18" xml:space="preserve" transform="translate(-58)" style="cursor: move;"><g transform="rotate(270) translate(-388,7)"><text fill="#000000" font-size="18">(</text><g transform="translate(6)"><text fill="#000000" font-size="18" transform="translate(26,-10)">1</text><path d="M0,-6h60" style="stroke: rgb(0, 0, 0); stroke-width: 1; fill: none;"></path><g transform="translate(0,10)"><text fill="#000000" font-size="18">&lt; N</text><text fill="#000000" font-size="11" transform="translate(29,4)">coll</text><text fill="#000000" font-size="18" x="52">&gt;</text></g></g><g transform="translate(75)"><text fill="#000000" font-size="18" transform="translate(15,-10)">1</text><path d="M0,-6h38" style="stroke: rgb(0, 0, 0); stroke-width: 1; fill: none;"></path><g transform="translate(0,10)"><text fill="#000000" font-size="18">N</text><text fill="#000000" font-size="11" transform="translate(14,4)">event</text></g></g><g transform="translate(122)"><g transform="translate(0,-10)"><text fill="#000000" font-size="18">dN</text><g transform="translate(24,-8)"><text fill="#000000" font-size="11">γ</text><text fill="#000000" font-size="6" transform="translate(5,-6)">dir</text></g></g><path d="M0,-6h33" style="stroke: rgb(0, 0, 0); stroke-width: 1; fill: none;"></path><g transform="translate(4,10)"><text fill="#000000" font-size="18">dp</text><text fill="#000000" font-size="11" transform="translate(21,4)">T</text></g></g><text fill="#000000" font-size="18" x="157">)</text><text fill="#000000" font-size="11" transform="translate(164,4)">cent</text><text fill="#000000" font-size="18" x="191">/ (</text><g transform="translate(207)"><text fill="#000000" font-size="18" transform="translate(26,-10)">1</text><path d="M0,-6h60" style="stroke: rgb(0, 0, 0); stroke-width: 1; fill: none;"></path><g transform="translate(0,10)"><text fill="#000000" font-size="18">&lt; N</text><text fill="#000000" font-size="11" transform="translate(29,4)">coll</text><text fill="#000000" font-size="18" x="52">&gt;</text></g></g><g transform="translate(276)"><text fill="#000000" font-size="18" transform="translate(15,-10)">1</text><path d="M0,-6h38" style="stroke: rgb(0, 0, 0); stroke-width: 1; fill: none;"></path><g transform="translate(0,10)"><text fill="#000000" font-size="18">N</text><text fill="#000000" font-size="11" transform="translate(14,4)">event</text></g></g><g transform="translate(323)"><g transform="translate(0,-10)"><text fill="#000000" font-size="18">dN</text><g transform="translate(24,-8)"><text fill="#000000" font-size="11">γ</text><text fill="#000000" font-size="6" transform="translate(5,-6)">dir</text></g></g><path d="M0,-6h33" style="stroke: rgb(0, 0, 0); stroke-width: 1; fill: none;"></path><g transform="translate(4,10)"><text fill="#000000" font-size="18">dp</text><text fill="#000000" font-size="11" transform="translate(21,4)">T</text></g></g><text fill="#000000" font-size="18" x="358">)</text><text fill="#000000" font-size="11" transform="translate(365,4)">MB</text></g></g></g></g><path d="M2,2h15v-5h-20v20h5Z" style="opacity: 0; cursor: nw-resize;"></path><path d="M606,2h-15v-5h20v20h-5 Z" style="opacity: 0; cursor: ne-resize;"></path><path d="M2,424h15v5h-20v-20h5Z" style="opacity: 0; cursor: sw-resize;"></path><path d="M606,424h-15v5h20v-20h-5Z" style="opacity: 0; cursor: se-resize;"></path><path d="M-3,18h5v390h-5Z" style="opacity: 0; cursor: w-resize;"></path><path d="M611,18h-5v390h5Z" style="opacity: 0; cursor: e-resize;"></path><path d="M18,-3v5h572v-5Z" style="opacity: 0; cursor: n-resize;"></path><path d="M18,429v-5h572v5Z" style="opacity: 0; cursor: s-resize;"></path></g><g transform="translate(112,51)" font-family="Arial" font-size="19" xml:space="preserve" style="cursor: move;"><path d="M0,0H336V154H0Z" style="fill: none; pointer-events: visiblefill;"></path><text fill="#000000" text-anchor="start" dominant-baseline="middle" transform="translate(10,15)">PYTHIA8, p+Au 200 GeV with option3</text><g transform="translate(10,44)"><text fill="#000000" font-size="19">γ</text><text fill="#000000" font-size="11" transform="translate(10,-11)">dir</text><text fill="#000000" font-size="19" x="30">in |η|&lt;1</text></g><path d="M43,57h3v-3h-3v-3h-3v3h-3v3h3v3h3z" style="stroke: rgb(0, 204, 0); fill: rgb(0, 204, 0);"></path><text fill="#000000" text-anchor="start" dominant-baseline="middle" transform="translate(84,56)">centrality: 0~10%</text><path d="M43,78h3v-3h-3v-3h-3v3h-3v3h3v3h3z" style="stroke: rgb(51, 255, 153); fill: rgb(51, 255, 153);"></path><text fill="#000000" text-anchor="start" dominant-baseline="middle" transform="translate(84,77)">centrality: 10~20%</text><path d="M43,99h3v-3h-3v-3h-3v3h-3v3h3v3h3z" style="stroke: rgb(0, 204, 204); fill: none;"></path><text fill="#000000" text-anchor="start" dominant-baseline="middle" transform="translate(84,97)">centrality: 20~40%</text><path d="M40,114l2,2l2,-2l2,2l-2,2l2,2l-2,2l-2,-2l-2,2l-2,-2l2,-2l-2,-2z" style="stroke: rgb(0, 51, 255); fill: rgb(0, 51, 255);"></path><text fill="#000000" text-anchor="start" dominant-baseline="middle" transform="translate(84,118)">centrality: 40~60%</text><path d="M43,140h3v-3h-3v-3h-3v3h-3v3h3v3h3z" style="stroke: rgb(0, 0, 255); fill: none;"></path><text fill="#000000" text-anchor="start" dominant-baseline="middle" transform="translate(84,138)">centrality: 60~80%</text><path d="M2,2h15v-5h-20v20h5Z" style="opacity: 0; cursor: nw-resize;"></path><path d="M334,2h-15v-5h20v20h-5 Z" style="opacity: 0; cursor: ne-resize;"></path><path d="M2,152h15v5h-20v-20h5Z" style="opacity: 0; cursor: sw-resize;"></path><path d="M334,152h-15v5h20v-20h-5Z" style="opacity: 0; cursor: se-resize;"></path><path d="M-3,18h5v118h-5Z" style="opacity: 0; cursor: w-resize;"></path><path d="M339,18h-5v118h5Z" style="opacity: 0; cursor: e-resize;"></path><path d="M18,-3v5h300v-5Z" style="opacity: 0; cursor: n-resize;"></path><path d="M18,157v-5h300v5Z" style="opacity: 0; cursor: s-resize;"></path></g></g></svg>