<?xml version="1.0" standalone="no"?>
<svg width="567.429" height="409.002" viewBox="0 0 567.429 409.002" xmlns="http://www.w3.org/2000/svg" shape-rendering="crispEdges">
<title>
/Users/jinhyunpark/npl/gitHub/Centrality_dependent_BiasCorrection/plots/plots_scaled-dNdpT/ratio_scaledYield_highpT_pion0_cent2mb.svg
</title>
<desc>
Creator: ROOT Version 6.28/06
CreationDate: Fri Nov 10 20:52:49 2023</desc>
<defs>
</defs>
<rect x="0.5" y="0" width="566.929" height="408.502" fill="white"/>
<rect x="68.5315" y="20.4251" width="430.866" height="339.056" fill="white"/>
<rect x="68.5315" y="20.4251" width="430.866" height="339.056" fill="none" stroke="black"/>
<rect x="68.5315" y="20.4251" width="430.866" height="339.056" fill="white"/>
<rect x="68.5315" y="20.4251" width="430.866" height="339.056" fill="none" stroke="black"/>
<path d="M68.5315,359.481h 430.866" fill="none" stroke="black"/>
<path d="M68.5315,350.168v 9.31384" fill="none" stroke="black"/>
<path d="M80.5,354.824v 4.65692" fill="none" stroke="black"/>
<path d="M92.4685,354.824v 4.65692" fill="none" stroke="black"/>
<path d="M104.437,354.824v 4.65692" fill="none" stroke="black"/>
<path d="M116.406,350.168v 9.31384" fill="none" stroke="black"/>
<path d="M128.374,354.824v 4.65692" fill="none" stroke="black"/>
<path d="M140.343,354.824v 4.65692" fill="none" stroke="black"/>
<path d="M152.311,354.824v 4.65692" fill="none" stroke="black"/>
<path d="M164.28,350.168v 9.31384" fill="none" stroke="black"/>
<path d="M176.248,354.824v 4.65692" fill="none" stroke="black"/>
<path d="M188.217,354.824v 4.65692" fill="none" stroke="black"/>
<path d="M200.185,354.824v 4.65692" fill="none" stroke="black"/>
<path d="M212.154,350.168v 9.31384" fill="none" stroke="black"/>
<path d="M224.122,354.824v 4.65692" fill="none" stroke="black"/>
<path d="M236.091,354.824v 4.65692" fill="none" stroke="black"/>
<path d="M248.059,354.824v 4.65692" fill="none" stroke="black"/>
<path d="M260.028,350.168v 9.31384" fill="none" stroke="black"/>
<path d="M271.996,354.824v 4.65692" fill="none" stroke="black"/>
<path d="M283.965,354.824v 4.65692" fill="none" stroke="black"/>
<path d="M295.933,354.824v 4.65692" fill="none" stroke="black"/>
<path d="M307.902,350.168v 9.31384" fill="none" stroke="black"/>
<path d="M319.87,354.824v 4.65692" fill="none" stroke="black"/>
<path d="M331.839,354.824v 4.65692" fill="none" stroke="black"/>
<path d="M343.807,354.824v 4.65692" fill="none" stroke="black"/>
<path d="M355.776,350.168v 9.31384" fill="none" stroke="black"/>
<path d="M367.744,354.824v 4.65692" fill="none" stroke="black"/>
<path d="M379.713,354.824v 4.65692" fill="none" stroke="black"/>
<path d="M391.681,354.824v 4.65692" fill="none" stroke="black"/>
<path d="M403.65,350.168v 9.31384" fill="none" stroke="black"/>
<path d="M415.618,354.824v 4.65692" fill="none" stroke="black"/>
<path d="M427.587,354.824v 4.65692" fill="none" stroke="black"/>
<path d="M439.555,354.824v 4.65692" fill="none" stroke="black"/>
<path d="M451.524,350.168v 9.31384" fill="none" stroke="black"/>
<path d="M463.492,354.824v 4.65692" fill="none" stroke="black"/>
<path d="M475.461,354.824v 4.65692" fill="none" stroke="black"/>
<path d="M487.429,354.824v 4.65692" fill="none" stroke="black"/>
<path d="M499.398,350.168v 9.31384" fill="none" stroke="black"/>
<text xml:space="preserve" x="64.4394" y="372.269" fill="black" font-size="13.617" font-family="Helvetica">2</text>
<text xml:space="preserve" x="112.749" y="372.269" fill="black" font-size="13.617" font-family="Helvetica">4</text>
<text xml:space="preserve" x="160.348" y="372.269" fill="black" font-size="13.617" font-family="Helvetica">6</text>
<text xml:space="preserve" x="207.948" y="372.269" fill="black" font-size="13.617" font-family="Helvetica">8</text>
<text xml:space="preserve" x="251.995" y="372.269" fill="black" font-size="13.617" font-family="Helvetica">10</text>
<text xml:space="preserve" x="299.594" y="372.269" fill="black" font-size="13.617" font-family="Helvetica">12</text>
<text xml:space="preserve" x="347.904" y="372.269" fill="black" font-size="13.617" font-family="Helvetica">14</text>
<text xml:space="preserve" x="395.503" y="372.269" fill="black" font-size="13.617" font-family="Helvetica">16</text>
<text xml:space="preserve" x="443.103" y="372.269" fill="black" font-size="13.617" font-family="Helvetica">18</text>
<text xml:space="preserve" x="491.412" y="372.269" fill="black" font-size="13.617" font-family="Helvetica">20</text>
<text xml:space="preserve" x="453.759" y="384.347" fill="black" font-size="13.617" font-family="Helvetica">(GeV/c)</text>
<text xml:space="preserve" x="448.076" y="392.162" fill="black" font-size="9.24468" font-family="Helvetica">T</text>
<text xml:space="preserve" x="440.261" y="384.347" fill="black" font-size="13.617" font-family="Helvetica">p</text>
<path d="M68.5315,20.4251h 430.866" fill="none" stroke="black"/>
<path d="M68.5315,29.7389v -9.31384" fill="none" stroke="black"/>
<path d="M80.5,25.082v -4.65692" fill="none" stroke="black"/>
<path d="M92.4685,25.082v -4.65692" fill="none" stroke="black"/>
<path d="M104.437,25.082v -4.65692" fill="none" stroke="black"/>
<path d="M116.406,29.7389v -9.31384" fill="none" stroke="black"/>
<path d="M128.374,25.082v -4.65692" fill="none" stroke="black"/>
<path d="M140.343,25.082v -4.65692" fill="none" stroke="black"/>
<path d="M152.311,25.082v -4.65692" fill="none" stroke="black"/>
<path d="M164.28,29.7389v -9.31384" fill="none" stroke="black"/>
<path d="M176.248,25.082v -4.65692" fill="none" stroke="black"/>
<path d="M188.217,25.082v -4.65692" fill="none" stroke="black"/>
<path d="M200.185,25.082v -4.65692" fill="none" stroke="black"/>
<path d="M212.154,29.7389v -9.31384" fill="none" stroke="black"/>
<path d="M224.122,25.082v -4.65692" fill="none" stroke="black"/>
<path d="M236.091,25.082v -4.65692" fill="none" stroke="black"/>
<path d="M248.059,25.082v -4.65692" fill="none" stroke="black"/>
<path d="M260.028,29.7389v -9.31384" fill="none" stroke="black"/>
<path d="M271.996,25.082v -4.65692" fill="none" stroke="black"/>
<path d="M283.965,25.082v -4.65692" fill="none" stroke="black"/>
<path d="M295.933,25.082v -4.65692" fill="none" stroke="black"/>
<path d="M307.902,29.7389v -9.31384" fill="none" stroke="black"/>
<path d="M319.87,25.082v -4.65692" fill="none" stroke="black"/>
<path d="M331.839,25.082v -4.65692" fill="none" stroke="black"/>
<path d="M343.807,25.082v -4.65692" fill="none" stroke="black"/>
<path d="M355.776,29.7389v -9.31384" fill="none" stroke="black"/>
<path d="M367.744,25.082v -4.65692" fill="none" stroke="black"/>
<path d="M379.713,25.082v -4.65692" fill="none" stroke="black"/>
<path d="M391.681,25.082v -4.65692" fill="none" stroke="black"/>
<path d="M403.65,29.7389v -9.31384" fill="none" stroke="black"/>
<path d="M415.618,25.082v -4.65692" fill="none" stroke="black"/>
<path d="M427.587,25.082v -4.65692" fill="none" stroke="black"/>
<path d="M439.555,25.082v -4.65692" fill="none" stroke="black"/>
<path d="M451.524,29.7389v -9.31384" fill="none" stroke="black"/>
<path d="M463.492,25.082v -4.65692" fill="none" stroke="black"/>
<path d="M475.461,25.082v -4.65692" fill="none" stroke="black"/>
<path d="M487.429,25.082v -4.65692" fill="none" stroke="black"/>
<path d="M499.398,29.7389v -9.31384" fill="none" stroke="black"/>
<path d="M68.5315,359.481v -339.056" fill="none" stroke="black"/>
<path d="M82.648,359.481h -14.1165" fill="none" stroke="black"/>
<path d="M75.5898,345.919h -7.05827" fill="none" stroke="black"/>
<path d="M75.5898,332.357h -7.05827" fill="none" stroke="black"/>
<path d="M75.5898,318.795h -7.05827" fill="none" stroke="black"/>
<path d="M75.5898,305.232h -7.05827" fill="none" stroke="black"/>
<path d="M82.648,291.67h -14.1165" fill="none" stroke="black"/>
<path d="M75.5898,278.108h -7.05827" fill="none" stroke="black"/>
<path d="M75.5898,264.546h -7.05827" fill="none" stroke="black"/>
<path d="M75.5898,250.983h -7.05827" fill="none" stroke="black"/>
<path d="M75.5898,237.421h -7.05827" fill="none" stroke="black"/>
<path d="M82.648,223.859h -14.1165" fill="none" stroke="black"/>
<path d="M75.5898,210.297h -7.05827" fill="none" stroke="black"/>
<path d="M75.5898,196.734h -7.05827" fill="none" stroke="black"/>
<path d="M75.5898,183.172h -7.05827" fill="none" stroke="black"/>
<path d="M75.5898,169.61h -7.05827" fill="none" stroke="black"/>
<path d="M82.648,156.048h -14.1165" fill="none" stroke="black"/>
<path d="M75.5898,142.485h -7.05827" fill="none" stroke="black"/>
<path d="M75.5898,128.923h -7.05827" fill="none" stroke="black"/>
<path d="M75.5898,115.361h -7.05827" fill="none" stroke="black"/>
<path d="M75.5898,101.799h -7.05827" fill="none" stroke="black"/>
<path d="M82.648,88.2363h -14.1165" fill="none" stroke="black"/>
<path d="M75.5898,74.6741h -7.05827" fill="none" stroke="black"/>
<path d="M75.5898,61.1118h -7.05827" fill="none" stroke="black"/>
<path d="M75.5898,47.5496h -7.05827" fill="none" stroke="black"/>
<path d="M75.5898,33.9873h -7.05827" fill="none" stroke="black"/>
<path d="M82.648,20.4251h -14.1165" fill="none" stroke="black"/>
<text xml:space="preserve" x="58.0454" y="364.454" fill="black" font-size="13.617" font-family="Helvetica">0</text>
<text xml:space="preserve" x="46.6784" y="296.252" fill="black" font-size="13.617" font-family="Helvetica">0.5</text>
<text xml:space="preserve" x="60.1768" y="229.471" fill="black" font-size="13.617" font-family="Helvetica">1</text>
<text xml:space="preserve" x="46.6784" y="160.559" fill="black" font-size="13.617" font-family="Helvetica">1.5</text>
<text xml:space="preserve" x="58.0454" y="93.7778" fill="black" font-size="13.617" font-family="Helvetica">2</text>
<text xml:space="preserve" x="46.6784" y="24.8653" fill="black" font-size="13.617" font-family="Helvetica">2.5</text>
<g transform="rotate(-90,32.4697,24.1549)">
<text xml:space="preserve" x="32.4697" y="24.1549" fill="black" font-size="13.617" font-family="Helvetica"> </text>
</g>
<g transform="rotate(-90,40.2845,37.6532)">
<text xml:space="preserve" x="40.2845" y="37.6532" fill="black" font-size="9.24468" font-family="Helvetica">MB</text>
</g>
<g transform="rotate(-90,32.4697,41.2054)">
<text xml:space="preserve" x="32.4697" y="41.2054" fill="black" font-size="13.617" font-family="Helvetica">)</text>
</g>
<g transform="rotate(-90,48.0993,49.0202)">
<text xml:space="preserve" x="48.0993" y="49.0202" fill="black" font-size="9.24468" font-family="Helvetica">T</text>
</g>
<g transform="rotate(-90,40.2845,63.9394)">
<text xml:space="preserve" x="40.2845" y="63.9394" fill="black" font-size="13.617" font-family="Helvetica">dp</text>
</g>
<g transform="rotate(-90,16.1296,44.7576)">
<text xml:space="preserve" x="16.1296" y="44.7576" fill="black" font-size="6.32979" font-family="Helvetica">0</text>
</g>
<g transform="rotate(-90,19.6818,49.7306)">
<text xml:space="preserve" x="19.6818" y="49.7306" fill="black" font-size="9.24468" font-family="Times">&#0960;</text>
</g>
<g transform="rotate(-90,26.0758,66.0707)">
<text xml:space="preserve" x="26.0758" y="66.0707" fill="black" font-size="13.617" font-family="Helvetica">dN</text>
</g>
<path d="M28.9175,66.0707v -24.8653" fill="none" stroke="black" stroke-width="2"/>
<g transform="rotate(-90,32.4697,70.3333)">
<text xml:space="preserve" x="32.4697" y="70.3333" fill="black" font-size="13.617" font-family="Helvetica"> </text>
</g>
<g transform="rotate(-90,44.5471,93.0673)">
<text xml:space="preserve" x="44.5471" y="93.0673" fill="black" font-size="9.24468" font-family="Helvetica">event</text>
</g>
<g transform="rotate(-90,40.2845,102.303)">
<text xml:space="preserve" x="40.2845" y="102.303" fill="black" font-size="13.617" font-family="Helvetica">N</text>
</g>
<g transform="rotate(-90,26.7862,88.8047)">
<text xml:space="preserve" x="26.7862" y="88.8047" fill="black" font-size="13.617" font-family="Helvetica">1</text>
</g>
<path d="M28.9175,102.303v -31.9697" fill="none" stroke="black" stroke-width="2"/>
<g transform="rotate(-90,32.4697,106.566)">
<text xml:space="preserve" x="32.4697" y="106.566" fill="black" font-size="13.617" font-family="Helvetica"> </text>
</g>
<g transform="rotate(-90,40.9949,110.828)">
<text xml:space="preserve" x="40.9949" y="110.828" fill="black" font-size="13.617" font-family="Times">&#0062;</text>
</g>
<g transform="rotate(-90,40.9949,115.091)">
<text xml:space="preserve" x="40.9949" y="115.091" fill="black" font-size="13.617" font-family="Helvetica"> </text>
</g>
<g transform="rotate(-90,47.3889,128.589)">
<text xml:space="preserve" x="47.3889" y="128.589" fill="black" font-size="9.24468" font-family="Helvetica">coll</text>
</g>
<g transform="rotate(-90,40.9949,141.377)">
<text xml:space="preserve" x="40.9949" y="141.377" fill="black" font-size="13.617" font-family="Helvetica"> N</text>
</g>
<g transform="rotate(-90,40.9949,145.64)">
<text xml:space="preserve" x="40.9949" y="145.64" fill="black" font-size="13.617" font-family="Times">&#0060;</text>
</g>
<g transform="rotate(-90,26.7862,128.589)">
<text xml:space="preserve" x="26.7862" y="128.589" fill="black" font-size="13.617" font-family="Helvetica">1</text>
</g>
<path d="M28.9175,145.64v -39.0741" fill="none" stroke="black" stroke-width="2"/>
<g transform="rotate(-90,32.4697,161.269)">
<text xml:space="preserve" x="32.4697" y="161.269" fill="black" font-size="13.617" font-family="Helvetica"> / (</text>
</g>
<g transform="rotate(-90,39.5741,179.03)">
<text xml:space="preserve" x="39.5741" y="179.03" fill="black" font-size="9.24468" font-family="Helvetica">cent</text>
</g>
<g transform="rotate(-90,32.4697,182.582)">
<text xml:space="preserve" x="32.4697" y="182.582" fill="black" font-size="13.617" font-family="Helvetica">)</text>
</g>
<g transform="rotate(-90,48.0993,190.397)">
<text xml:space="preserve" x="48.0993" y="190.397" fill="black" font-size="9.24468" font-family="Helvetica">T</text>
</g>
<g transform="rotate(-90,40.2845,205.316)">
<text xml:space="preserve" x="40.2845" y="205.316" fill="black" font-size="13.617" font-family="Helvetica">dp</text>
</g>
<g transform="rotate(-90,16.1296,186.135)">
<text xml:space="preserve" x="16.1296" y="186.135" fill="black" font-size="6.32979" font-family="Helvetica">0</text>
</g>
<g transform="rotate(-90,19.6818,191.108)">
<text xml:space="preserve" x="19.6818" y="191.108" fill="black" font-size="9.24468" font-family="Times">&#0960;</text>
</g>
<g transform="rotate(-90,26.0758,207.448)">
<text xml:space="preserve" x="26.0758" y="207.448" fill="black" font-size="13.617" font-family="Helvetica">dN</text>
</g>
<path d="M28.9175,207.448v -24.8653" fill="none" stroke="black" stroke-width="2"/>
<g transform="rotate(-90,32.4697,211.71)">
<text xml:space="preserve" x="32.4697" y="211.71" fill="black" font-size="13.617" font-family="Helvetica"> </text>
</g>
<g transform="rotate(-90,44.5471,234.444)">
<text xml:space="preserve" x="44.5471" y="234.444" fill="black" font-size="9.24468" font-family="Helvetica">event</text>
</g>
<g transform="rotate(-90,40.2845,243.68)">
<text xml:space="preserve" x="40.2845" y="243.68" fill="black" font-size="13.617" font-family="Helvetica">N</text>
</g>
<g transform="rotate(-90,26.7862,230.182)">
<text xml:space="preserve" x="26.7862" y="230.182" fill="black" font-size="13.617" font-family="Helvetica">1</text>
</g>
<path d="M28.9175,243.68v -31.9697" fill="none" stroke="black" stroke-width="2"/>
<g transform="rotate(-90,32.4697,247.943)">
<text xml:space="preserve" x="32.4697" y="247.943" fill="black" font-size="13.617" font-family="Helvetica"> </text>
</g>
<g transform="rotate(-90,40.9949,252.205)">
<text xml:space="preserve" x="40.9949" y="252.205" fill="black" font-size="13.617" font-family="Times">&#0062;</text>
</g>
<g transform="rotate(-90,40.9949,256.468)">
<text xml:space="preserve" x="40.9949" y="256.468" fill="black" font-size="13.617" font-family="Helvetica"> </text>
</g>
<g transform="rotate(-90,47.3889,269.966)">
<text xml:space="preserve" x="47.3889" y="269.966" fill="black" font-size="9.24468" font-family="Helvetica">coll</text>
</g>
<g transform="rotate(-90,40.9949,282.754)">
<text xml:space="preserve" x="40.9949" y="282.754" fill="black" font-size="13.617" font-family="Helvetica"> N</text>
</g>
<g transform="rotate(-90,40.9949,287.017)">
<text xml:space="preserve" x="40.9949" y="287.017" fill="black" font-size="13.617" font-family="Times">&#0060;</text>
</g>
<g transform="rotate(-90,26.7862,269.966)">
<text xml:space="preserve" x="26.7862" y="269.966" fill="black" font-size="13.617" font-family="Helvetica">1</text>
</g>
<path d="M28.9175,287.017v -39.0741" fill="none" stroke="black" stroke-width="2"/>
<g transform="rotate(-90,32.4697,291.279)">
<text xml:space="preserve" x="32.4697" y="291.279" fill="black" font-size="13.617" font-family="Helvetica">(</text>
</g>
<path d="M499.398,359.481v -339.056" fill="none" stroke="black"/>
<path d="M485.281,359.481h 14.1165" fill="none" stroke="black"/>
<path d="M492.339,345.919h 7.05827" fill="none" stroke="black"/>
<path d="M492.339,332.357h 7.05827" fill="none" stroke="black"/>
<path d="M492.339,318.795h 7.05827" fill="none" stroke="black"/>
<path d="M492.339,305.232h 7.05827" fill="none" stroke="black"/>
<path d="M485.281,291.67h 14.1165" fill="none" stroke="black"/>
<path d="M492.339,278.108h 7.05827" fill="none" stroke="black"/>
<path d="M492.339,264.546h 7.05827" fill="none" stroke="black"/>
<path d="M492.339,250.983h 7.05827" fill="none" stroke="black"/>
<path d="M492.339,237.421h 7.05827" fill="none" stroke="black"/>
<path d="M485.281,223.859h 14.1165" fill="none" stroke="black"/>
<path d="M492.339,210.297h 7.05827" fill="none" stroke="black"/>
<path d="M492.339,196.734h 7.05827" fill="none" stroke="black"/>
<path d="M492.339,183.172h 7.05827" fill="none" stroke="black"/>
<path d="M492.339,169.61h 7.05827" fill="none" stroke="black"/>
<path d="M485.281,156.048h 14.1165" fill="none" stroke="black"/>
<path d="M492.339,142.485h 7.05827" fill="none" stroke="black"/>
<path d="M492.339,128.923h 7.05827" fill="none" stroke="black"/>
<path d="M492.339,115.361h 7.05827" fill="none" stroke="black"/>
<path d="M492.339,101.799h 7.05827" fill="none" stroke="black"/>
<path d="M485.281,88.2363h 14.1165" fill="none" stroke="black"/>
<path d="M492.339,74.6741h 7.05827" fill="none" stroke="black"/>
<path d="M492.339,61.1118h 7.05827" fill="none" stroke="black"/>
<path d="M492.339,47.5496h 7.05827" fill="none" stroke="black"/>
<path d="M492.339,33.9873h 7.05827" fill="none" stroke="black"/>
<path d="M485.281,20.4251h 14.1165" fill="none" stroke="black"/>
<path d="M68.5315,240.159h 9.12675" fill="none" stroke="#ffcc00"/>
<path d="M83.3418,240.159h 9.12675" fill="none" stroke="#ffcc00"/>
<g fill="#ffcc00">
<polygon points=" 79.5527, 239.212 79.5527, 237.318 81.4473, 237.318 81.4473, 239.212 83.3418, 239.212 83.3418, 241.107 81.4473, 241.107 81.4473, 243.001 79.5527, 243.001 79.5527, 241.107 77.6582, 241.107 77.6582, 239.212"/>
</g>
<path d="M92.4685,244.7h 21.0953" fill="none" stroke="#ffcc00"/>
<path d="M119.247,244.7h 21.0953" fill="none" stroke="#ffcc00"/>
<g fill="#ffcc00">
<polygon points=" 115.458, 243.753 115.458, 241.859 117.353, 241.859 117.353, 243.753 119.247, 243.753 119.247, 245.648 117.353, 245.648 117.353, 247.542 115.458, 247.542 115.458, 245.648 113.564, 245.648 113.564, 243.753"/>
</g>
<path d="M140.343,254.445h 21.0953" fill="none" stroke="#ffcc00"/>
<path d="M167.121,254.445h 21.0953" fill="none" stroke="#ffcc00"/>
<g fill="#ffcc00">
<polygon points=" 163.332, 253.497 163.332, 251.603 165.227, 251.603 165.227, 253.497 167.121, 253.497 167.121, 255.392 165.227, 255.392 165.227, 257.286 163.332, 257.286 163.332, 255.392 161.438, 255.392 161.438, 253.497"/>
</g>
<path d="M188.217,263.236h 21.0953" fill="none" stroke="#ffcc00"/>
<path d="M214.995,263.236h 21.0953" fill="none" stroke="#ffcc00"/>
<g fill="#ffcc00">
<polygon points=" 211.206, 262.288 211.206, 260.394 213.101, 260.394 213.101, 262.288 214.995, 262.288 214.995, 264.183 213.101, 264.183 213.101, 266.077 211.206, 266.077 211.206, 264.183 209.312, 264.183 209.312, 262.288"/>
</g>
<path d="M236.091,269.53h 21.0953" fill="none" stroke="#ffcc00"/>
<path d="M262.869,269.53h 21.0953" fill="none" stroke="#ffcc00"/>
<g fill="#ffcc00">
<polygon points=" 259.08, 268.583 259.08, 266.689 260.975, 266.689 260.975, 268.583 262.869, 268.583 262.869, 270.478 260.975, 270.478 260.975, 272.372 259.08, 272.372 259.08, 270.478 257.186, 270.478 257.186, 268.583"/>
</g>
<path d="M283.965,274.44h 45.0323" fill="none" stroke="#ffcc00"/>
<path d="M334.68,274.44h 45.0323" fill="none" stroke="#ffcc00"/>
<g fill="#ffcc00">
<polygon points=" 330.891, 273.493 330.891, 271.598 332.786, 271.598 332.786, 273.493 334.68, 273.493 334.68, 275.387 332.786, 275.387 332.786, 277.282 330.891, 277.282 330.891, 275.387 328.997, 275.387 328.997, 273.493"/>
</g>
<path d="M379.713,278.619h 57.0008" fill="none" stroke="#ffcc00"/>
<path d="M442.397,278.619h 57.0008" fill="none" stroke="#ffcc00"/>
<g fill="#ffcc00">
<polygon points=" 438.608, 277.672 438.608, 275.777 440.502, 275.777 440.502, 277.672 442.397, 277.672 442.397, 279.566 440.502, 279.566 440.502, 281.461 438.608, 281.461 438.608, 279.566 436.713, 279.566 436.713, 277.672"/>
</g>
<path d="M68.5315,232.803h 9.12675" fill="none" stroke="#ff0000"/>
<path d="M83.3418,232.803h 9.12675" fill="none" stroke="#ff0000"/>
<g fill="#ff0000">
<polygon points=" 79.5527, 231.856 79.5527, 229.961 81.4473, 229.961 81.4473, 231.856 83.3418, 231.856 83.3418, 233.75 81.4473, 233.75 81.4473, 235.645 79.5527, 235.645 79.5527, 233.75 77.6582, 233.75 77.6582, 231.856"/>
</g>
<path d="M92.4685,235.487h 21.0953" fill="none" stroke="#ff0000"/>
<path d="M119.247,235.487h 21.0953" fill="none" stroke="#ff0000"/>
<g fill="#ff0000">
<polygon points=" 115.458, 234.54 115.458, 232.646 117.353, 232.646 117.353, 234.54 119.247, 234.54 119.247, 236.435 117.353, 236.435 117.353, 238.329 115.458, 238.329 115.458, 236.435 113.564, 236.435 113.564, 234.54"/>
</g>
<path d="M140.343,241.503h 21.0953" fill="none" stroke="#ff0000"/>
<path d="M167.121,241.503h 21.0953" fill="none" stroke="#ff0000"/>
<g fill="#ff0000">
<polygon points=" 163.332, 240.556 163.332, 238.662 165.227, 238.662 165.227, 240.556 167.121, 240.556 167.121, 242.451 165.227, 242.451 165.227, 244.345 163.332, 244.345 163.332, 242.451 161.438, 242.451 161.438, 240.556"/>
</g>
<path d="M188.217,247.332h 21.0953" fill="none" stroke="#ff0000"/>
<path d="M214.995,247.332h 21.0953" fill="none" stroke="#ff0000"/>
<g fill="#ff0000">
<polygon points=" 211.206, 246.385 211.206, 244.491 213.101, 244.491 213.101, 246.385 214.995, 246.385 214.995, 248.28 213.101, 248.28 213.101, 250.174 211.206, 250.174 211.206, 248.28 209.312, 248.28 209.312, 246.385"/>
</g>
<path d="M236.091,251.64h 21.0953" fill="none" stroke="#ff0000"/>
<path d="M262.869,251.64h 21.0953" fill="none" stroke="#ff0000"/>
<g fill="#ff0000">
<polygon points=" 259.08, 250.693 259.08, 248.798 260.975, 248.798 260.975, 250.693 262.869, 250.693 262.869, 252.587 260.975, 252.587 260.975, 254.482 259.08, 254.482 259.08, 252.587 257.186, 252.587 257.186, 250.693"/>
</g>
<path d="M283.965,256.171h 45.0323" fill="none" stroke="#ff0000"/>
<path d="M334.68,256.171h 45.0323" fill="none" stroke="#ff0000"/>
<g fill="#ff0000">
<polygon points=" 330.891, 255.224 330.891, 253.33 332.786, 253.33 332.786, 255.224 334.68, 255.224 334.68, 257.119 332.786, 257.119 332.786, 259.013 330.891, 259.013 330.891, 257.119 328.997, 257.119 328.997, 255.224"/>
</g>
<path d="M379.713,260.842h 57.0008" fill="none" stroke="#ff0000"/>
<path d="M442.397,260.842h 57.0008" fill="none" stroke="#ff0000"/>
<g fill="#ff0000">
<polygon points=" 438.608, 259.895 438.608, 258 440.502, 258 440.502, 259.895 442.397, 259.895 442.397, 261.789 440.502, 261.789 440.502, 263.684 438.608, 263.684 438.608, 261.789 436.713, 261.789 436.713, 259.895"/>
</g>
<path d="M68.5315,226.008h 9.12675" fill="none" stroke="#ff0033"/>
<path d="M83.3418,226.008h 9.12675" fill="none" stroke="#ff0033"/>
<g stroke="#ff0033" stroke-width="1" fill="none">
<polygon points=" 79.5527, 225.061 79.5527, 223.167 81.4473, 223.167 81.4473, 225.061 83.3418, 225.061 83.3418, 226.956 81.4473, 226.956 81.4473, 228.85 79.5527, 228.85 79.5527, 226.956 77.6582, 226.956 77.6582, 225.061"/>
</g>
<path d="M92.4685,226.988h 21.0953" fill="none" stroke="#ff0033"/>
<path d="M119.247,226.988h 21.0953" fill="none" stroke="#ff0033"/>
<g stroke="#ff0033" stroke-width="1" fill="none">
<polygon points=" 115.458, 226.04 115.458, 224.146 117.353, 224.146 117.353, 226.04 119.247, 226.04 119.247, 227.935 117.353, 227.935 117.353, 229.829 115.458, 229.829 115.458, 227.935 113.564, 227.935 113.564, 226.04"/>
</g>
<path d="M140.343,229.759h 21.0953" fill="none" stroke="#ff0033"/>
<path d="M167.121,229.759h 21.0953" fill="none" stroke="#ff0033"/>
<g stroke="#ff0033" stroke-width="1" fill="none">
<polygon points=" 163.332, 228.812 163.332, 226.917 165.227, 226.917 165.227, 228.812 167.121, 228.812 167.121, 230.706 165.227, 230.706 165.227, 232.601 163.332, 232.601 163.332, 230.706 161.438, 230.706 161.438, 228.812"/>
</g>
<path d="M188.217,232.756h 21.0953" fill="none" stroke="#ff0033"/>
<path d="M214.995,232.756h 21.0953" fill="none" stroke="#ff0033"/>
<g stroke="#ff0033" stroke-width="1" fill="none">
<polygon points=" 211.206, 231.809 211.206, 229.914 213.101, 229.914 213.101, 231.809 214.995, 231.809 214.995, 233.703 213.101, 233.703 213.101, 235.598 211.206, 235.598 211.206, 233.703 209.312, 233.703 209.312, 231.809"/>
</g>
<path d="M236.091,234.345h 21.0953" fill="none" stroke="#ff0033"/>
<path d="M262.869,234.345h 21.0953" fill="none" stroke="#ff0033"/>
<g stroke="#ff0033" stroke-width="1" fill="none">
<polygon points=" 259.08, 233.398 259.08, 231.503 260.975, 231.503 260.975, 233.398 262.869, 233.398 262.869, 235.292 260.975, 235.292 260.975, 237.187 259.08, 237.187 259.08, 235.292 257.186, 235.292 257.186, 233.398"/>
</g>
<path d="M283.965,235.818h 45.0323" fill="none" stroke="#ff0033"/>
<path d="M334.68,235.818h 45.0323" fill="none" stroke="#ff0033"/>
<g stroke="#ff0033" stroke-width="1" fill="none">
<polygon points=" 330.891, 234.871 330.891, 232.977 332.786, 232.977 332.786, 234.871 334.68, 234.871 334.68, 236.766 332.786, 236.766 332.786, 238.66 330.891, 238.66 330.891, 236.766 328.997, 236.766 328.997, 234.871"/>
</g>
<path d="M379.713,237.894h 57.0008" fill="none" stroke="#ff0033"/>
<path d="M442.397,237.894h 57.0008" fill="none" stroke="#ff0033"/>
<g stroke="#ff0033" stroke-width="1" fill="none">
<polygon points=" 438.608, 236.947 438.608, 235.053 440.502, 235.053 440.502, 236.947 442.397, 236.947 442.397, 238.842 440.502, 238.842 440.502, 240.736 438.608, 240.736 438.608, 238.842 436.713, 238.842 436.713, 236.947"/>
</g>
<path d="M68.5315,217.358h 10.5476" fill="none" stroke="#ff00ff"/>
<path d="M81.9209,217.358h 10.5476" fill="none" stroke="#ff00ff"/>
<g fill="#ff00ff">
<polygon points=" 80.5, 218.779 79.0791, 220.2 77.6582, 218.779 79.0791, 217.358 77.6582, 215.937 79.0791, 214.516 80.5, 215.937 81.9209, 214.516 83.3418, 215.937 81.9209, 217.358 83.3418, 218.779 81.9209, 220.2 80.5, 218.779"/>
</g>
<path d="M92.4685,216.143h 22.5161" fill="none" stroke="#ff00ff"/>
<path d="M117.826,216.143h 22.5161" fill="none" stroke="#ff00ff"/>
<g fill="#ff00ff">
<polygon points=" 116.406, 217.564 114.985, 218.985 113.564, 217.564 114.985, 216.143 113.564, 214.722 114.985, 213.301 116.406, 214.722 117.826, 213.301 119.247, 214.722 117.826, 216.143 119.247, 217.564 117.826, 218.985 116.406, 217.564"/>
</g>
<path d="M140.343,214.288h 22.5161" fill="none" stroke="#ff00ff"/>
<path d="M165.7,214.288h 22.5161" fill="none" stroke="#ff00ff"/>
<g fill="#ff00ff">
<polygon points=" 164.28, 215.709 162.859, 217.13 161.438, 215.709 162.859, 214.288 161.438, 212.868 162.859, 211.447 164.28, 212.868 165.7, 211.447 167.121, 212.868 165.7, 214.288 167.121, 215.709 165.7, 217.13 164.28, 215.709"/>
</g>
<path d="M188.217,212.703h 22.5161" fill="none" stroke="#ff00ff"/>
<path d="M213.574,212.703h 22.5161" fill="none" stroke="#ff00ff"/>
<g fill="#ff00ff">
<polygon points=" 212.154, 214.124 210.733, 215.544 209.312, 214.124 210.733, 212.703 209.312, 211.282 210.733, 209.861 212.154, 211.282 213.574, 209.861 214.995, 211.282 213.574, 212.703 214.995, 214.124 213.574, 215.544 212.154, 214.124"/>
</g>
<path d="M236.091,211.621h 22.5161" fill="none" stroke="#ff00ff"/>
<path d="M261.448,211.621h 22.5161" fill="none" stroke="#ff00ff"/>
<g fill="#ff00ff">
<polygon points=" 260.028, 213.042 258.607, 214.463 257.186, 213.042 258.607, 211.621 257.186, 210.2 258.607, 208.779 260.028, 210.2 261.448, 208.779 262.869, 210.2 261.448, 211.621 262.869, 213.042 261.448, 214.463 260.028, 213.042"/>
</g>
<path d="M283.965,210.163h 46.4531" fill="none" stroke="#ff00ff"/>
<path d="M333.259,210.163h 46.4531" fill="none" stroke="#ff00ff"/>
<g fill="#ff00ff">
<polygon points=" 331.839, 211.584 330.418, 213.005 328.997, 211.584 330.418, 210.163 328.997, 208.742 330.418, 207.321 331.839, 208.742 333.259, 207.321 334.68, 208.742 333.259, 210.163 334.68, 211.584 333.259, 213.005 331.839, 211.584"/>
</g>
<path d="M439.555,212.731v -1.16911" fill="none" stroke="#ff00ff"/>
<path d="M439.555,208.721v -1.16911" fill="none" stroke="#ff00ff"/>
<path d="M379.713,210.141h 58.4216" fill="none" stroke="#ff00ff"/>
<path d="M440.976,210.141h 58.4216" fill="none" stroke="#ff00ff"/>
<g fill="#ff00ff">
<polygon points=" 439.555, 211.562 438.134, 212.983 436.713, 211.562 438.134, 210.141 436.713, 208.721 438.134, 207.3 439.555, 208.721 440.976, 207.3 442.397, 208.721 440.976, 210.141 442.397, 211.562 440.976, 212.983 439.555, 211.562"/>
</g>
<path d="M68.5315,209.383h 9.12675" fill="none" stroke="#cc00ff"/>
<path d="M83.3418,209.383h 9.12675" fill="none" stroke="#cc00ff"/>
<g stroke="#cc00ff" stroke-width="1" fill="none">
<polygon points=" 79.5527, 208.436 79.5527, 206.542 81.4473, 206.542 81.4473, 208.436 83.3418, 208.436 83.3418, 210.331 81.4473, 210.331 81.4473, 212.225 79.5527, 212.225 79.5527, 210.331 77.6582, 210.331 77.6582, 208.436"/>
</g>
<path d="M92.4685,205.421h 21.0953" fill="none" stroke="#cc00ff"/>
<path d="M119.247,205.421h 21.0953" fill="none" stroke="#cc00ff"/>
<g stroke="#cc00ff" stroke-width="1" fill="none">
<polygon points=" 115.458, 204.473 115.458, 202.579 117.353, 202.579 117.353, 204.473 119.247, 204.473 119.247, 206.368 117.353, 206.368 117.353, 208.262 115.458, 208.262 115.458, 206.368 113.564, 206.368 113.564, 204.473"/>
</g>
<path d="M140.343,196.76h 21.0953" fill="none" stroke="#cc00ff"/>
<path d="M167.121,196.76h 21.0953" fill="none" stroke="#cc00ff"/>
<g stroke="#cc00ff" stroke-width="1" fill="none">
<polygon points=" 163.332, 195.813 163.332, 193.918 165.227, 193.918 165.227, 195.813 167.121, 195.813 167.121, 197.707 165.227, 197.707 165.227, 199.602 163.332, 199.602 163.332, 197.707 161.438, 197.707 161.438, 195.813"/>
</g>
<path d="M188.217,188.958h 21.0953" fill="none" stroke="#cc00ff"/>
<path d="M214.995,188.958h 21.0953" fill="none" stroke="#cc00ff"/>
<g stroke="#cc00ff" stroke-width="1" fill="none">
<polygon points=" 211.206, 188.011 211.206, 186.116 213.101, 186.116 213.101, 188.011 214.995, 188.011 214.995, 189.905 213.101, 189.905 213.101, 191.8 211.206, 191.8 211.206, 189.905 209.312, 189.905 209.312, 188.011"/>
</g>
<path d="M236.091,183.631h 21.0953" fill="none" stroke="#cc00ff"/>
<path d="M262.869,183.631h 21.0953" fill="none" stroke="#cc00ff"/>
<g stroke="#cc00ff" stroke-width="1" fill="none">
<polygon points=" 259.08, 182.684 259.08, 180.79 260.975, 180.79 260.975, 182.684 262.869, 182.684 262.869, 184.579 260.975, 184.579 260.975, 186.473 259.08, 186.473 259.08, 184.579 257.186, 184.579 257.186, 182.684"/>
</g>
<path d="M283.965,179.255h 45.0323" fill="none" stroke="#cc00ff"/>
<path d="M334.68,179.255h 45.0323" fill="none" stroke="#cc00ff"/>
<g stroke="#cc00ff" stroke-width="1" fill="none">
<polygon points=" 330.891, 178.307 330.891, 176.413 332.786, 176.413 332.786, 178.307 334.68, 178.307 334.68, 180.202 332.786, 180.202 332.786, 182.096 330.891, 182.096 330.891, 180.202 328.997, 180.202 328.997, 178.307"/>
</g>
<path d="M439.555,173.233v -0.643629" fill="none" stroke="#cc00ff"/>
<path d="M439.555,166.906v -0.643629" fill="none" stroke="#cc00ff"/>
<path d="M379.713,169.747h 57.0008" fill="none" stroke="#cc00ff"/>
<path d="M442.397,169.747h 57.0008" fill="none" stroke="#cc00ff"/>
<g stroke="#cc00ff" stroke-width="1" fill="none">
<polygon points=" 438.608, 168.8 438.608, 166.906 440.502, 166.906 440.502, 168.8 442.397, 168.8 442.397, 170.695 440.502, 170.695 440.502, 172.589 438.608, 172.589 438.608, 170.695 436.713, 170.695 436.713, 168.8"/>
</g>
<text xml:space="preserve" x="85.7525" y="53.2828" fill="black" font-size="19.2386" font-family="Helvetica">PYTHIA8, pAu200GeV with option3</text>
<text xml:space="preserve" x="143.298" y="71.0438" fill="black" font-size="19.2386" font-family="Helvetica">|&lt;1</text>
<text xml:space="preserve" x="132.641" y="71.0438" fill="black" font-size="19.2386" font-family="Times">&#0951;</text>
<text xml:space="preserve" x="103.513" y="71.0438" fill="black" font-size="19.2386" font-family="Helvetica"> in |</text>
<text xml:space="preserve" x="96.4091" y="63.9394" fill="black" font-size="12.9924" font-family="Helvetica">0</text>
<text xml:space="preserve" x="85.7525" y="71.0438" fill="black" font-size="19.2386" font-family="Times">&#0960;</text>
<text xml:space="preserve" x="139.035" y="88.0943" fill="black" font-size="19.2386" font-family="Helvetica">centrality: 0~10%</text>
<g fill="#ffcc00">
<polygon points=" 108.687, 83.6709 108.687, 81.7764 110.581, 81.7764 110.581, 83.6709 112.476, 83.6709 112.476, 85.5654 110.581, 85.5654 110.581, 87.4599 108.687, 87.4599 108.687, 85.5654 106.792, 85.5654 106.792, 83.6709"/>
</g>
<text xml:space="preserve" x="139.035" y="105.855" fill="black" font-size="19.2386" font-family="Helvetica">centrality: 10~20%</text>
<g fill="#ff0000">
<polygon points=" 108.687, 101.178 108.687, 99.2836 110.581, 99.2836 110.581, 101.178 112.476, 101.178 112.476, 103.073 110.581, 103.073 110.581, 104.967 108.687, 104.967 108.687, 103.073 106.792, 103.073 106.792, 101.178"/>
</g>
<text xml:space="preserve" x="139.035" y="122.906" fill="black" font-size="19.2386" font-family="Helvetica">centrality: 20~40%</text>
<g stroke="#ff0033" stroke-width="1" fill="none">
<polygon points=" 108.687, 118.685 108.687, 116.791 110.581, 116.791 110.581, 118.685 112.476, 118.685 112.476, 120.58 110.581, 120.58 110.581, 122.474 108.687, 122.474 108.687, 120.58 106.792, 120.58 106.792, 118.685"/>
</g>
<text xml:space="preserve" x="139.035" y="140.667" fill="black" font-size="19.2386" font-family="Helvetica">centrality: 40~60%</text>
<g fill="#ff00ff">
<polygon points=" 109.634, 138.561 108.213, 139.982 106.792, 138.561 108.213, 137.14 106.792, 135.719 108.213, 134.298 109.634, 135.719 111.055, 134.298 112.476, 135.719 111.055, 137.14 112.476, 138.561 111.055, 139.982 109.634, 138.561"/>
</g>
<text xml:space="preserve" x="139.035" y="158.428" fill="black" font-size="19.2386" font-family="Helvetica">centrality: 60~80%</text>
<g stroke="#cc00ff" stroke-width="1" fill="none">
<polygon points=" 108.687, 153.7 108.687, 151.805 110.581, 151.805 110.581, 153.7 112.476, 153.7 112.476, 155.594 110.581, 155.594 110.581, 157.489 108.687, 157.489 108.687, 155.594 106.792, 155.594 106.792, 153.7"/>
</g></svg>
