<svg width="800" height="513" xmlns="http://www.w3.org/2000/svg"><path d="M0,0H800V513H0Z" style="pointer-events: visiblefill; fill: rgb(255, 255, 255);"></path><g><g transform="translate(96,26)"><title></title><path d="M0,0H608V426H0Z" style="fill: rgb(255, 255, 255); stroke: rgb(0, 0, 0); stroke-width: 1; pointer-events: visiblefill; cursor: default;"></path><svg x="0" y="0" overflow="hidden" width="608" height="426" viewBox="0 0 608 426" style="pointer-events: visiblefill; cursor: default;"><g><path d="M0,227h34M17,226v1M34,232h68M68,231v1M101,248h68M135,247v3M169,265h68M203,261v8M236,279h68M270,271v16M304,275h136M372,263v23M439,239h170M524,207v63" style="stroke: rgb(204, 0, 255); stroke-width: 1;"></path><path d="M0,226h34v1h-34zM34,231h68v1h-68zM101,247h68v3h-68zM169,261h68v8h-68zM236,271h68v16h-68zM304,263h136v23h-136zM439,207h170v63h-170z" style="fill: none; pointer-events: visiblefill;"></path><path d="M18,228h3v-3h-3v-3h-3v3h-3v3h3v3h3zM69,233h3v-3h-3v-3h-3v3h-3v3h3v3h3zM136,249h3v-3h-3v-3h-3v3h-3v3h3v3h3zM204,266h3v-3h-3v-3h-3v3h-3v3h3v3h3zM271,280h3v-3h-3v-3h-3v3h-3v3h3v3h3zM373,276h3v-3h-3v-3h-3v3h-3v3h3v3h3zM525,240h3v-3h-3v-3h-3v3h-3v3h3v3h3z" style="stroke: rgb(204, 0, 255); fill: rgb(204, 0, 255);"></path></g><g><path d="M0,239h34M17,239v1M34,242h68M68,241v2M101,254h68M135,252v4M169,263h68M203,259v8M236,273h68M270,265v16M304,278h136M372,266v23M439,281h170M524,253v57" style="stroke: rgb(0, 0, 255); stroke-width: 1;"></path><path d="M0,239h34v1h-34zM34,241h68v2h-68zM101,252h68v4h-68zM169,259h68v8h-68zM236,265h68v16h-68zM304,266h136v23h-136zM439,253h170v57h-170z" style="fill: none; pointer-events: visiblefill;"></path><path d="M16,235h3v3h-3zm3,3h3v3h-3zm-3,3h3v3h-3zm-3,-3h3v3h-3zM67,238h3v3h-3zm3,3h3v3h-3zm-3,3h3v3h-3zm-3,-3h3v3h-3zM134,250h3v3h-3zm3,3h3v3h-3zm-3,3h3v3h-3zm-3,-3h3v3h-3zM202,259h3v3h-3zm3,3h3v3h-3zm-3,3h3v3h-3zm-3,-3h3v3h-3zM269,269h3v3h-3zm3,3h3v3h-3zm-3,3h3v3h-3zm-3,-3h3v3h-3zM371,274h3v3h-3zm3,3h3v3h-3zm-3,3h3v3h-3zm-3,-3h3v3h-3zM523,277h3v3h-3zm3,3h3v3h-3zm-3,3h3v3h-3zm-3,-3h3v3h-3z" style="stroke: rgb(0, 0, 255); fill: rgb(0, 0, 255);"></path></g><g><path d="M0,251h34M17,251v0M34,252h68M68,251v1M101,257h68M135,256v3M169,265h68M203,262v6M236,262h68M270,256v12M304,268h136M372,259v18M439,269h170M524,248v42" style="stroke: rgb(0, 204, 0); stroke-width: 1;"></path><path d="M0,251h34v0h-34zM34,251h68v1h-68zM101,256h68v3h-68zM169,262h68v6h-68zM236,256h68v12h-68zM304,259h136v18h-136zM439,248h170v42h-170z" style="fill: none; pointer-events: visiblefill;"></path><path d="M18,252h3v-3h-3v-3h-3v3h-3v3h3v3h3zM69,253h3v-3h-3v-3h-3v3h-3v3h3v3h3zM136,258h3v-3h-3v-3h-3v3h-3v3h3v3h3zM204,266h3v-3h-3v-3h-3v3h-3v3h3v3h3zM271,263h3v-3h-3v-3h-3v3h-3v3h3v3h3zM373,269h3v-3h-3v-3h-3v3h-3v3h3v3h3zM525,270h3v-3h-3v-3h-3v3h-3v3h3v3h3z" style="stroke: rgb(0, 204, 0); fill: none;"></path></g><g><path d="M0,268h34M17,268v0M34,266h68M68,266v1M101,264h68M135,262v3M169,263h68M203,259v7M236,265h68M270,259v12M304,269h136M372,260v18M439,294h170M524,273v41" style="stroke: rgb(255, 204, 0); stroke-width: 1;"></path><path d="M0,268h34v0h-34zM34,266h68v1h-68zM101,262h68v3h-68zM169,259h68v7h-68zM236,259h68v12h-68zM304,260h136v18h-136zM439,273h170v41h-170z" style="fill: none; pointer-events: visiblefill;"></path><path d="M15,264l2,2l-2,2l-2,-2zm4,0l2,2l-2,2l-2,-2zm0,4l2,2l-2,2l-2,-2zm-4,0l2,2l-2,2l-2,-2zM66,262l2,2l-2,2l-2,-2zm4,0l2,2l-2,2l-2,-2zm0,4l2,2l-2,2l-2,-2zm-4,0l2,2l-2,2l-2,-2zM133,260l2,2l-2,2l-2,-2zm4,0l2,2l-2,2l-2,-2zm0,4l2,2l-2,2l-2,-2zm-4,0l2,2l-2,2l-2,-2zM201,259l2,2l-2,2l-2,-2zm4,0l2,2l-2,2l-2,-2zm0,4l2,2l-2,2l-2,-2zm-4,0l2,2l-2,2l-2,-2zM268,261l2,2l-2,2l-2,-2zm4,0l2,2l-2,2l-2,-2zm0,4l2,2l-2,2l-2,-2zm-4,0l2,2l-2,2l-2,-2zM370,265l2,2l-2,2l-2,-2zm4,0l2,2l-2,2l-2,-2zm0,4l2,2l-2,2l-2,-2zm-4,0l2,2l-2,2l-2,-2zM522,290l2,2l-2,2l-2,-2zm4,0l2,2l-2,2l-2,-2zm0,4l2,2l-2,2l-2,-2zm-4,0l2,2l-2,2l-2,-2z" style="stroke: rgb(255, 204, 0); fill: rgb(255, 204, 0);"></path></g><g><path d="M0,293h34M17,293v1M34,289h68M68,288v2M101,279h68M135,277v4M169,269h68M203,265v7M236,259h68M270,252v14M304,258h136M372,248v20M439,236h170M524,211v49" style="stroke: rgb(255, 0, 0); stroke-width: 1;"></path><path d="M0,293h34v1h-34zM34,288h68v2h-68zM101,277h68v4h-68zM169,265h68v7h-68zM236,252h68v14h-68zM304,248h136v20h-136zM439,211h170v49h-170z" style="fill: none; pointer-events: visiblefill;"></path><path d="M15,289l2,2l2,-2l2,2l-2,2l2,2l-2,2l-2,-2l-2,2l-2,-2l2,-2l-2,-2zM66,285l2,2l2,-2l2,2l-2,2l2,2l-2,2l-2,-2l-2,2l-2,-2l2,-2l-2,-2zM133,275l2,2l2,-2l2,2l-2,2l2,2l-2,2l-2,-2l-2,2l-2,-2l2,-2l-2,-2zM201,265l2,2l2,-2l2,2l-2,2l2,2l-2,2l-2,-2l-2,2l-2,-2l2,-2l-2,-2zM268,255l2,2l2,-2l2,2l-2,2l2,2l-2,2l-2,-2l-2,2l-2,-2l2,-2l-2,-2zM370,254l2,2l2,-2l2,2l-2,2l2,2l-2,2l-2,-2l-2,2l-2,-2l2,-2l-2,-2zM522,232l2,2l2,-2l2,2l-2,2l2,2l-2,2l-2,-2l-2,2l-2,-2l2,-2l-2,-2z" style="stroke: rgb(255, 0, 0); fill: rgb(255, 0, 0);"></path></g></svg><g><g transform="translate(0,426)"><path d="M0,0h608M0,-426h608M0,-15V0M17,-8V0M34,-8V0M51,-8V0M68,-15V0M84,-8V0M101,-8V0M118,-8V0M135,-15V0M152,-8V0M169,-8V0M186,-8V0M203,-15V0M220,-8V0M236,-8V0M253,-8V0M270,-15V0M287,-8V0M304,-8V0M321,-8V0M338,-15V0M355,-8V0M372,-8V0M388,-8V0M405,-15V0M422,-8V0M439,-8V0M456,-8V0M473,-15V0M490,-8V0M507,-8V0M524,-8V0M540,-15V0M557,-8V0M574,-8V0M591,-8V0M608,-15V0M0,-411V-426M17,-418V-426M34,-418V-426M51,-418V-426M68,-411V-426M84,-418V-426M101,-418V-426M118,-418V-426M135,-411V-426M152,-418V-426M169,-418V-426M186,-418V-426M203,-411V-426M220,-418V-426M236,-418V-426M253,-418V-426M270,-411V-426M287,-418V-426M304,-418V-426M321,-418V-426M338,-411V-426M355,-418V-426M372,-418V-426M388,-418V-426M405,-411V-426M422,-418V-426M439,-418V-426M456,-418V-426M473,-411V-426M490,-418V-426M507,-418V-426M524,-418V-426M540,-411V-426M557,-418V-426M574,-418V-426M591,-418V-426M608,-411V-426" style="stroke: rgb(0, 0, 0); stroke-width: 1;"></path><g font-family="Arial" font-size="18" xml:space="preserve" fill="#000000" text-anchor="middle"><text dy=".8em" transform="translate(0,3)">2</text><text dy=".8em" transform="translate(68,3)">4</text><text dy=".8em" transform="translate(135,3)">6</text><text dy=".8em" transform="translate(203,3)">8</text><text dy=".8em" transform="translate(270,3)">10</text><text dy=".8em" transform="translate(338,3)">12</text><text dy=".8em" transform="translate(405,3)">14</text><text dy=".8em" transform="translate(473,3)">16</text><text dy=".8em" transform="translate(540,3)">18</text><text dy=".8em" transform="translate(608,3)">20</text></g><rect x="0" y="0" width="608" height="21" style="opacity: 0; cursor: crosshair;"></rect><g font-family="Arial" font-size="18" xml:space="preserve" transform="translate(608,29)" style="cursor: move;"><g transform="translate(-79,5)"><text fill="#000000" font-size="18">p</text><text fill="#000000" font-size="11" transform="translate(11,4)">T</text><text fill="#000000" font-size="18" x="17">(GeV/c)</text></g></g></g><g><path d="M0,0v426M608,0v426M24,426H0M12,415H0M12,405H0M12,394H0M12,383H0M24,373H0M12,362H0M12,351H0M12,341H0M12,330H0M24,320H0M12,309H0M12,298H0M12,288H0M12,277H0M24,266H0M12,256H0M12,245H0M12,234H0M12,224H0M24,213H0M12,202H0M12,192H0M12,181H0M12,170H0M24,160H0M12,149H0M12,138H0M12,128H0M12,117H0M24,106H0M12,96H0M12,85H0M12,75H0M12,64H0M24,53H0M12,43H0M12,32H0M12,21H0M12,11H0M24,0H0M584,426H608M596,415H608M596,405H608M596,394H608M596,383H608M584,373H608M596,362H608M596,351H608M596,341H608M596,330H608M584,320H608M596,309H608M596,298H608M596,288H608M596,277H608M584,266H608M596,256H608M596,245H608M596,234H608M596,224H608M584,213H608M596,202H608M596,192H608M596,181H608M596,170H608M584,160H608M596,149H608M596,138H608M596,128H608M596,117H608M584,106H608M596,96H608M596,85H608M596,75H608M596,64H608M584,53H608M596,43H608M596,32H608M596,21H608M596,11H608M584,0H608" style="stroke: rgb(0, 0, 0); stroke-width: 1;"></path><g font-family="Arial" font-size="18" xml:space="preserve" fill="#000000" text-anchor="end"><text dominant-baseline="middle" transform="translate(-4,426)">0.7</text><text dominant-baseline="middle" transform="translate(-4,373)">0.8</text><text dominant-baseline="middle" transform="translate(-4,320)">0.9</text><text dominant-baseline="middle" transform="translate(-4,266)">1</text><text dominant-baseline="middle" transform="translate(-4,213)">1.1</text><text dominant-baseline="middle" transform="translate(-4,160)">1.2</text><text dominant-baseline="middle" transform="translate(-4,106)">1.3</text><text dominant-baseline="middle" transform="translate(-4,53)">1.4</text><text dominant-baseline="middle" transform="translate(-4)">1.5</text></g><rect x="-28" y="0" width="28" height="426" style="opacity: 0; cursor: crosshair;"></rect><g font-family="Arial" font-size="18" xml:space="preserve" transform="translate(-45)" style="cursor: move;"><g transform="rotate(270) translate(-183,7)"><text fill="#000000" font-size="18">(Y</text><g transform="translate(19,-8)"><text fill="#000000" font-size="11">π</text><text fill="#000000" font-size="6" transform="translate(7,-6)">0</text></g><text fill="#000000" font-size="18" x="29">/Y</text><g transform="translate(47,-8)"><text fill="#000000" font-size="11">γ</text><text fill="#000000" font-size="6" transform="translate(5,-6)">dir</text></g><text fill="#000000" font-size="18" x="58">)</text><text fill="#000000" font-size="11" transform="translate(65,4)">cent</text><text fill="#000000" font-size="18" x="92">/ (Y</text><g transform="translate(121,-8)"><text fill="#000000" font-size="11">π</text><text fill="#000000" font-size="6" transform="translate(7,-6)">0</text></g><text fill="#000000" font-size="18" x="131">/Y</text><g transform="translate(149,-8)"><text fill="#000000" font-size="11">γ</text><text fill="#000000" font-size="6" transform="translate(5,-6)">dir</text></g><text fill="#000000" font-size="18" x="160">)</text><text fill="#000000" font-size="11" transform="translate(167,4)">MB</text></g></g></g></g><path d="M2,2h15v-5h-20v20h5Z" style="opacity: 0; cursor: nw-resize;"></path><path d="M606,2h-15v-5h20v20h-5 Z" style="opacity: 0; cursor: ne-resize;"></path><path d="M2,424h15v5h-20v-20h5Z" style="opacity: 0; cursor: sw-resize;"></path><path d="M606,424h-15v5h20v-20h-5Z" style="opacity: 0; cursor: se-resize;"></path><path d="M-3,18h5v390h-5Z" style="opacity: 0; cursor: w-resize;"></path><path d="M611,18h-5v390h5Z" style="opacity: 0; cursor: e-resize;"></path><path d="M18,-3v5h572v-5Z" style="opacity: 0; cursor: n-resize;"></path><path d="M18,429v-5h572v5Z" style="opacity: 0; cursor: s-resize;"></path></g><g transform="translate(112,51)" font-family="Arial" font-size="20" xml:space="preserve" style="cursor: move;"><path d="M0,0H352V169H0Z" style="fill: none; pointer-events: visiblefill;"></path><text fill="#000000" text-anchor="start" dominant-baseline="middle" transform="translate(11,16)">PYTHIA8, pAu200GeV with option3</text><g transform="translate(11,48)"><text fill="#000000" font-size="20">γ</text><text fill="#000000" font-size="12" transform="translate(11,-12)">dir</text><text fill="#000000" font-size="20" x="24">, π</text><text fill="#000000" font-size="12" transform="translate(49,-12)">0</text><text fill="#000000" font-size="20" x="63">in |η|&lt;1</text></g><path d="M45,63h3v-3h-3v-3h-3v3h-3v3h3v3h3z" style="stroke: rgb(204, 0, 255); fill: rgb(204, 0, 255);"></path><text fill="#000000" text-anchor="start" dominant-baseline="middle" transform="translate(88,61)">centrality: 0~10%</text><path d="M43,81h3v3h-3zm3,3h3v3h-3zm-3,3h3v3h-3zm-3,-3h3v3h-3z" style="stroke: rgb(0, 0, 255); fill: rgb(0, 0, 255);"></path><text fill="#000000" text-anchor="start" dominant-baseline="middle" transform="translate(88,84)">centrality: 10~20%</text><path d="M45,108h3v-3h-3v-3h-3v3h-3v3h3v3h3z" style="stroke: rgb(0, 204, 0); fill: none;"></path><text fill="#000000" text-anchor="start" dominant-baseline="middle" transform="translate(88,107)">centrality: 20~40%</text><path d="M42,126l2,2l-2,2l-2,-2zm4,0l2,2l-2,2l-2,-2zm0,4l2,2l-2,2l-2,-2zm-4,0l2,2l-2,2l-2,-2z" style="stroke: rgb(255, 204, 0); fill: rgb(255, 204, 0);"></path><text fill="#000000" text-anchor="start" dominant-baseline="middle" transform="translate(88,130)">centrality: 40~60%</text><path d="M42,149l2,2l2,-2l2,2l-2,2l2,2l-2,2l-2,-2l-2,2l-2,-2l2,-2l-2,-2z" style="stroke: rgb(255, 0, 0); fill: rgb(255, 0, 0);"></path><text fill="#000000" text-anchor="start" dominant-baseline="middle" transform="translate(88,152)">centrality: 60~80%</text><path d="M2,2h15v-5h-20v20h5Z" style="opacity: 0; cursor: nw-resize;"></path><path d="M350,2h-15v-5h20v20h-5 Z" style="opacity: 0; cursor: ne-resize;"></path><path d="M2,167h15v5h-20v-20h5Z" style="opacity: 0; cursor: sw-resize;"></path><path d="M350,167h-15v5h20v-20h-5Z" style="opacity: 0; cursor: se-resize;"></path><path d="M-3,18h5v133h-5Z" style="opacity: 0; cursor: w-resize;"></path><path d="M355,18h-5v133h5Z" style="opacity: 0; cursor: e-resize;"></path><path d="M18,-3v5h316v-5Z" style="opacity: 0; cursor: n-resize;"></path><path d="M18,172v-5h316v5Z" style="opacity: 0; cursor: s-resize;"></path></g></g></svg>