<svg width="800" height="513" xmlns="http://www.w3.org/2000/svg"><path d="M0,0H800V513H0Z" style="pointer-events: visiblefill; fill: rgb(255, 255, 255);"></path><g><g transform="translate(96,26)"><title></title><path d="M0,0H608V426H0Z" style="fill: rgb(255, 255, 255); stroke: rgb(0, 0, 0); stroke-width: 1; pointer-events: visiblefill; cursor: default;"></path><svg x="0" y="0" overflow="hidden" width="608" height="426" viewBox="0 0 608 426" style="pointer-events: visiblefill; cursor: default;"><g><path d="M-122,277h82M-81,277v0M-41,288h122M20,288v0M81,306h122M142,306v0M203,318h202M304,317v1M405,324h204M507,322v5" style="stroke: rgb(255, 204, 0); stroke-width: 1;"></path><path d="M-122,277h82v0h-82zM-41,288h122v0h-122zM81,306h122v0h-122zM203,317h202v1h-202zM405,322h204v5h-204z" style="fill: none; pointer-events: visiblefill;"></path><path d="M-80,278h3v-3h-3v-3h-3v3h-3v3h3v3h3zM21,289h3v-3h-3v-3h-3v3h-3v3h3v3h3zM143,307h3v-3h-3v-3h-3v3h-3v3h3v3h3zM305,319h3v-3h-3v-3h-3v3h-3v3h3v3h3zM508,325h3v-3h-3v-3h-3v3h-3v3h3v3h3z" style="stroke: rgb(255, 204, 0); fill: rgb(255, 204, 0);"></path></g><g><path d="M-122,267h82M-81,267v0M-41,274h122M20,274v0M81,286h122M142,285v1M203,294h202M304,293v2M405,302h204M507,299v6" style="stroke: rgb(255, 0, 0); stroke-width: 1;"></path><path d="M-122,267h82v0h-82zM-41,274h122v0h-122zM81,285h122v1h-122zM203,293h202v2h-202zM405,299h204v6h-204z" style="fill: none; pointer-events: visiblefill;"></path><path d="M-80,268h3v-3h-3v-3h-3v3h-3v3h3v3h3zM21,275h3v-3h-3v-3h-3v3h-3v3h3v3h3zM143,287h3v-3h-3v-3h-3v3h-3v3h3v3h3zM305,295h3v-3h-3v-3h-3v3h-3v3h3v3h3zM508,303h3v-3h-3v-3h-3v3h-3v3h3v3h3z" style="stroke: rgb(255, 0, 0); fill: rgb(255, 0, 0);"></path></g><g><path d="M-122,258h82M-81,258v0M-41,261h122M20,261v0M81,267h122M142,267v0M203,270h202M304,269v2M405,273h204M507,271v5" style="stroke: rgb(255, 0, 51); stroke-width: 1;"></path><path d="M-122,258h82v0h-82zM-41,261h122v0h-122zM81,267h122v0h-122zM203,269h202v2h-202zM405,271h204v5h-204z" style="fill: none; pointer-events: visiblefill;"></path><path d="M-80,259h3v-3h-3v-3h-3v3h-3v3h3v3h3zM21,262h3v-3h-3v-3h-3v3h-3v3h3v3h3zM143,268h3v-3h-3v-3h-3v3h-3v3h3v3h3zM305,271h3v-3h-3v-3h-3v3h-3v3h3v3h3zM508,274h3v-3h-3v-3h-3v3h-3v3h3v3h3z" style="stroke: rgb(255, 0, 51); fill: none;"></path></g><g><path d="M-122,247h82M-81,247v0M-41,245h122M20,245v0M81,241h122M142,241v1M203,239h202M304,238v2M405,238h204M507,235v7" style="stroke: rgb(255, 0, 255); stroke-width: 1;"></path><path d="M-122,247h82v0h-82zM-41,245h122v0h-122zM81,241h122v1h-122zM203,238h202v2h-202zM405,235h204v7h-204z" style="fill: none; pointer-events: visiblefill;"></path><path d="M-83,243l2,2l2,-2l2,2l-2,2l2,2l-2,2l-2,-2l-2,2l-2,-2l2,-2l-2,-2zM18,241l2,2l2,-2l2,2l-2,2l2,2l-2,2l-2,-2l-2,2l-2,-2l2,-2l-2,-2zM140,237l2,2l2,-2l2,2l-2,2l2,2l-2,2l-2,-2l-2,2l-2,-2l2,-2l-2,-2zM302,235l2,2l2,-2l2,2l-2,2l2,2l-2,2l-2,-2l-2,2l-2,-2l2,-2l-2,-2zM505,234l2,2l2,-2l2,2l-2,2l2,2l-2,2l-2,-2l-2,2l-2,-2l2,-2l-2,-2z" style="stroke: rgb(255, 0, 255); fill: rgb(255, 0, 255);"></path></g><g><path d="M-122,237h82M-81,237v0M-41,227h122M20,227v0M81,211h122M142,211v0M203,202h202M304,200v3M405,188h204M507,183v9" style="stroke: rgb(204, 0, 255); stroke-width: 1;"></path><path d="M-122,237h82v0h-82zM-41,227h122v0h-122zM81,211h122v0h-122zM203,200h202v3h-202zM405,183h204v9h-204z" style="fill: none; pointer-events: visiblefill;"></path><path d="M-80,238h3v-3h-3v-3h-3v3h-3v3h3v3h3zM21,228h3v-3h-3v-3h-3v3h-3v3h3v3h3zM143,212h3v-3h-3v-3h-3v3h-3v3h3v3h3zM305,203h3v-3h-3v-3h-3v3h-3v3h3v3h3zM508,189h3v-3h-3v-3h-3v3h-3v3h3v3h3z" style="stroke: rgb(204, 0, 255); fill: none;"></path></g></svg><g><g transform="translate(0,426)"><path d="M0,0h608M0,-426h608M0,-8V0M20,-8V0M41,-15V0M61,-8V0M81,-8V0M101,-8V0M122,-15V0M142,-8V0M162,-8V0M182,-8V0M203,-15V0M223,-8V0M243,-8V0M263,-8V0M284,-15V0M304,-8V0M324,-8V0M345,-8V0M365,-15V0M385,-8V0M405,-8V0M426,-8V0M446,-15V0M466,-8V0M486,-8V0M507,-8V0M527,-15V0M547,-8V0M567,-8V0M588,-8V0M608,-15V0M0,-418V-426M20,-418V-426M41,-411V-426M61,-418V-426M81,-418V-426M101,-418V-426M122,-411V-426M142,-418V-426M162,-418V-426M182,-418V-426M203,-411V-426M223,-418V-426M243,-418V-426M263,-418V-426M284,-411V-426M304,-418V-426M324,-418V-426M345,-418V-426M365,-411V-426M385,-418V-426M405,-418V-426M426,-418V-426M446,-411V-426M466,-418V-426M486,-418V-426M507,-418V-426M527,-411V-426M547,-418V-426M567,-418V-426M588,-418V-426M608,-411V-426" style="stroke: rgb(0, 0, 0); stroke-width: 1;"></path><g font-family="Arial" font-size="18" xml:space="preserve" fill="#000000" text-anchor="middle"><text dy=".8em" transform="translate(41,3)">6</text><text dy=".8em" transform="translate(122,3)">8</text><text dy=".8em" transform="translate(203,3)">10</text><text dy=".8em" transform="translate(284,3)">12</text><text dy=".8em" transform="translate(365,3)">14</text><text dy=".8em" transform="translate(446,3)">16</text><text dy=".8em" transform="translate(527,3)">18</text><text dy=".8em" transform="translate(608,3)">20</text></g><rect x="0" y="0" width="608" height="21" style="opacity: 0; cursor: crosshair;"></rect><g font-family="Arial" font-size="18" xml:space="preserve" transform="translate(608,29)" style="cursor: move;"><g transform="translate(-79,5)"><text fill="#000000" font-size="18">p</text><text fill="#000000" font-size="11" transform="translate(11,4)">T</text><text fill="#000000" font-size="18" x="17">(GeV/c)</text></g></g></g><g><path d="M0,0v426M608,0v426M24,426H0M12,409H0M12,392H0M12,375H0M12,358H0M24,341H0M12,324H0M12,307H0M12,290H0M12,273H0M24,256H0M12,239H0M12,222H0M12,204H0M12,187H0M24,170H0M12,153H0M12,136H0M12,119H0M12,102H0M24,85H0M12,68H0M12,51H0M12,34H0M12,17H0M24,0H0M584,426H608M596,409H608M596,392H608M596,375H608M596,358H608M584,341H608M596,324H608M596,307H608M596,290H608M596,273H608M584,256H608M596,239H608M596,222H608M596,204H608M596,187H608M584,170H608M596,153H608M596,136H608M596,119H608M596,102H608M584,85H608M596,68H608M596,51H608M596,34H608M596,17H608M584,0H608" style="stroke: rgb(0, 0, 0); stroke-width: 1;"></path><g font-family="Arial" font-size="18" xml:space="preserve" fill="#000000" text-anchor="end"><text dominant-baseline="middle" transform="translate(-4,426)">0</text><text dominant-baseline="middle" transform="translate(-4,341)">0.5</text><text dominant-baseline="middle" transform="translate(-4,256)">1</text><text dominant-baseline="middle" transform="translate(-4,170)">1.5</text><text dominant-baseline="middle" transform="translate(-4,85)">2</text><text dominant-baseline="middle" transform="translate(-4)">2.5</text></g><rect x="-28" y="0" width="28" height="426" style="opacity: 0; cursor: crosshair;"></rect><g font-family="Arial" font-size="18" xml:space="preserve" transform="translate(-45)" style="cursor: move;"><g transform="rotate(270) translate(-386,7)"><text fill="#000000" font-size="18">(</text><g transform="translate(6)"><text fill="#000000" font-size="18" transform="translate(26,-10)">1</text><path d="M0,-6h60" style="stroke: rgb(0, 0, 0); stroke-width: 1; fill: none;"></path><g transform="translate(0,10)"><text fill="#000000" font-size="18">&lt; N</text><text fill="#000000" font-size="11" transform="translate(29,4)">coll</text><text fill="#000000" font-size="18" x="52">&gt;</text></g></g><g transform="translate(75)"><text fill="#000000" font-size="18" transform="translate(15,-10)">1</text><path d="M0,-6h38" style="stroke: rgb(0, 0, 0); stroke-width: 1; fill: none;"></path><g transform="translate(0,10)"><text fill="#000000" font-size="18">N</text><text fill="#000000" font-size="11" transform="translate(14,4)">event</text></g></g><g transform="translate(122)"><g transform="translate(0,-10)"><text fill="#000000" font-size="18">dN</text><g transform="translate(24,-8)"><text fill="#000000" font-size="11">π</text><text fill="#000000" font-size="6" transform="translate(7,-6)">0</text></g></g><path d="M0,-6h32" style="stroke: rgb(0, 0, 0); stroke-width: 1; fill: none;"></path><g transform="translate(4,10)"><text fill="#000000" font-size="18">dp</text><text fill="#000000" font-size="11" transform="translate(21,4)">T</text></g></g><text fill="#000000" font-size="18" x="156">)</text><text fill="#000000" font-size="11" transform="translate(163,4)">cent</text><text fill="#000000" font-size="18" x="190">/ (</text><g transform="translate(206)"><text fill="#000000" font-size="18" transform="translate(26,-10)">1</text><path d="M0,-6h60" style="stroke: rgb(0, 0, 0); stroke-width: 1; fill: none;"></path><g transform="translate(0,10)"><text fill="#000000" font-size="18">&lt; N</text><text fill="#000000" font-size="11" transform="translate(29,4)">coll</text><text fill="#000000" font-size="18" x="52">&gt;</text></g></g><g transform="translate(275)"><text fill="#000000" font-size="18" transform="translate(15,-10)">1</text><path d="M0,-6h38" style="stroke: rgb(0, 0, 0); stroke-width: 1; fill: none;"></path><g transform="translate(0,10)"><text fill="#000000" font-size="18">N</text><text fill="#000000" font-size="11" transform="translate(14,4)">event</text></g></g><g transform="translate(322)"><g transform="translate(0,-10)"><text fill="#000000" font-size="18">dN</text><g transform="translate(24,-8)"><text fill="#000000" font-size="11">π</text><text fill="#000000" font-size="6" transform="translate(7,-6)">0</text></g></g><path d="M0,-6h32" style="stroke: rgb(0, 0, 0); stroke-width: 1; fill: none;"></path><g transform="translate(4,10)"><text fill="#000000" font-size="18">dp</text><text fill="#000000" font-size="11" transform="translate(21,4)">T</text></g></g><text fill="#000000" font-size="18" x="356">)</text><text fill="#000000" font-size="11" transform="translate(363,4)">MB</text></g></g></g></g><path d="M2,2h15v-5h-20v20h5Z" style="opacity: 0; cursor: nw-resize;"></path><path d="M606,2h-15v-5h20v20h-5 Z" style="opacity: 0; cursor: ne-resize;"></path><path d="M2,424h15v5h-20v-20h5Z" style="opacity: 0; cursor: sw-resize;"></path><path d="M606,424h-15v5h20v-20h-5Z" style="opacity: 0; cursor: se-resize;"></path><path d="M-3,18h5v390h-5Z" style="opacity: 0; cursor: w-resize;"></path><path d="M611,18h-5v390h5Z" style="opacity: 0; cursor: e-resize;"></path><path d="M18,-3v5h572v-5Z" style="opacity: 0; cursor: n-resize;"></path><path d="M18,429v-5h572v5Z" style="opacity: 0; cursor: s-resize;"></path></g><g transform="translate(112,51)" font-family="Arial" font-size="19" xml:space="preserve" style="cursor: move;"><path d="M0,0H336V154H0Z" style="fill: none; pointer-events: visiblefill;"></path><text fill="#000000" text-anchor="start" dominant-baseline="middle" transform="translate(10,15)">PYTHIA8, pAu200GeV with option3</text><g transform="translate(10,44)"><text fill="#000000" font-size="19">π</text><text fill="#000000" font-size="11" transform="translate(14,-11)">0</text><text fill="#000000" font-size="19" x="28">in |η|&lt;1</text></g><path d="M43,57h3v-3h-3v-3h-3v3h-3v3h3v3h3z" style="stroke: rgb(255, 204, 0); fill: rgb(255, 204, 0);"></path><text fill="#000000" text-anchor="start" dominant-baseline="middle" transform="translate(84,56)">centrality: 0~10%</text><path d="M43,78h3v-3h-3v-3h-3v3h-3v3h3v3h3z" style="stroke: rgb(255, 0, 0); fill: rgb(255, 0, 0);"></path><text fill="#000000" text-anchor="start" dominant-baseline="middle" transform="translate(84,77)">centrality: 10~20%</text><path d="M43,99h3v-3h-3v-3h-3v3h-3v3h3v3h3z" style="stroke: rgb(255, 0, 51); fill: none;"></path><text fill="#000000" text-anchor="start" dominant-baseline="middle" transform="translate(84,97)">centrality: 20~40%</text><path d="M40,114l2,2l2,-2l2,2l-2,2l2,2l-2,2l-2,-2l-2,2l-2,-2l2,-2l-2,-2z" style="stroke: rgb(255, 0, 255); fill: rgb(255, 0, 255);"></path><text fill="#000000" text-anchor="start" dominant-baseline="middle" transform="translate(84,118)">centrality: 40~60%</text><path d="M43,140h3v-3h-3v-3h-3v3h-3v3h3v3h3z" style="stroke: rgb(204, 0, 255); fill: none;"></path><text fill="#000000" text-anchor="start" dominant-baseline="middle" transform="translate(84,138)">centrality: 60~80%</text><path d="M2,2h15v-5h-20v20h5Z" style="opacity: 0; cursor: nw-resize;"></path><path d="M334,2h-15v-5h20v20h-5 Z" style="opacity: 0; cursor: ne-resize;"></path><path d="M2,152h15v5h-20v-20h5Z" style="opacity: 0; cursor: sw-resize;"></path><path d="M334,152h-15v5h20v-20h-5Z" style="opacity: 0; cursor: se-resize;"></path><path d="M-3,18h5v118h-5Z" style="opacity: 0; cursor: w-resize;"></path><path d="M339,18h-5v118h5Z" style="opacity: 0; cursor: e-resize;"></path><path d="M18,-3v5h300v-5Z" style="opacity: 0; cursor: n-resize;"></path><path d="M18,157v-5h300v5Z" style="opacity: 0; cursor: s-resize;"></path></g></g></svg>