<svg width="800" height="513" xmlns="http://www.w3.org/2000/svg"><path d="M0,0H800V513H0Z" style="pointer-events: visiblefill; fill: rgb(255, 255, 255);"></path><g><g transform="translate(96,26)"><title></title><path d="M0,0H608V426H0Z" style="fill: rgb(255, 255, 255); stroke: rgb(0, 0, 0); stroke-width: 1; pointer-events: visiblefill; cursor: default;"></path><svg x="0" y="0" overflow="hidden" width="608" height="426" viewBox="0 0 608 426" style="pointer-events: visiblefill; cursor: default;"><g><path d="M0,258h68M34,258v0M68,274h102M119,273v2M169,303h102M220,299v9M270,320h170M355,310v20M439,273h170M524,236v73" style="stroke: rgb(204, 0, 255); stroke-width: 1;"></path><path d="M0,258h68v0h-68zM68,273h102v2h-102zM169,299h102v9h-102zM270,310h170v20h-170zM439,236h170v73h-170z" style="fill: none; pointer-events: visiblefill;"></path><path d="M35,259h3v-3h-3v-3h-3v3h-3v3h3v3h3zM120,275h3v-3h-3v-3h-3v3h-3v3h3v3h3zM221,304h3v-3h-3v-3h-3v3h-3v3h3v3h3zM356,321h3v-3h-3v-3h-3v3h-3v3h3v3h3zM525,274h3v-3h-3v-3h-3v3h-3v3h3v3h3z" style="stroke: rgb(204, 0, 255); fill: rgb(204, 0, 255);"></path></g><g><path d="M0,273h68M34,273v0M68,282h102M119,281v2M169,303h102M220,298v9M270,308h170M355,298v20M439,322h170M524,289v65" style="stroke: rgb(0, 0, 255); stroke-width: 1;"></path><path d="M0,273h68v0h-68zM68,281h102v2h-102zM169,298h102v9h-102zM270,298h170v20h-170zM439,289h170v65h-170z" style="fill: none; pointer-events: visiblefill;"></path><path d="M33,269h3v3h-3zm3,3h3v3h-3zm-3,3h3v3h-3zm-3,-3h3v3h-3zM118,278h3v3h-3zm3,3h3v3h-3zm-3,3h3v3h-3zm-3,-3h3v3h-3zM219,299h3v3h-3zm3,3h3v3h-3zm-3,3h3v3h-3zm-3,-3h3v3h-3zM354,304h3v3h-3zm3,3h3v3h-3zm-3,3h3v3h-3zm-3,-3h3v3h-3zM523,318h3v3h-3zm3,3h3v3h-3zm-3,3h3v3h-3zm-3,-3h3v3h-3z" style="stroke: rgb(0, 0, 255); fill: rgb(0, 0, 255);"></path></g><g><path d="M0,287h68M34,286v1M68,290h102M119,289v2M169,300h102M220,297v7M270,313h170M355,306v14M439,308h170M524,283v49" style="stroke: rgb(0, 204, 0); stroke-width: 1;"></path><path d="M0,286h68v1h-68zM68,289h102v2h-102zM169,297h102v7h-102zM270,306h170v14h-170zM439,283h170v49h-170z" style="fill: none; pointer-events: visiblefill;"></path><path d="M35,288h3v-3h-3v-3h-3v3h-3v3h3v3h3zM120,291h3v-3h-3v-3h-3v3h-3v3h3v3h3zM221,301h3v-3h-3v-3h-3v3h-3v3h3v3h3zM356,314h3v-3h-3v-3h-3v3h-3v3h3v3h3zM525,309h3v-3h-3v-3h-3v3h-3v3h3v3h3z" style="stroke: rgb(0, 204, 0); fill: none;"></path></g><g><path d="M0,306h68M34,306v0M68,304h102M119,303v2M169,301h102M220,298v6M270,304h170M355,296v15M439,336h170M524,312v47" style="stroke: rgb(255, 204, 0); stroke-width: 1;"></path><path d="M0,306h68v0h-68zM68,303h102v2h-102zM169,298h102v6h-102zM270,296h170v15h-170zM439,312h170v47h-170z" style="fill: none; pointer-events: visiblefill;"></path><path d="M32,302l2,2l-2,2l-2,-2zm4,0l2,2l-2,2l-2,-2zm0,4l2,2l-2,2l-2,-2zm-4,0l2,2l-2,2l-2,-2zM117,300l2,2l-2,2l-2,-2zm4,0l2,2l-2,2l-2,-2zm0,4l2,2l-2,2l-2,-2zm-4,0l2,2l-2,2l-2,-2zM218,297l2,2l-2,2l-2,-2zm4,0l2,2l-2,2l-2,-2zm0,4l2,2l-2,2l-2,-2zm-4,0l2,2l-2,2l-2,-2zM353,300l2,2l-2,2l-2,-2zm4,0l2,2l-2,2l-2,-2zm0,4l2,2l-2,2l-2,-2zm-4,0l2,2l-2,2l-2,-2zM522,332l2,2l-2,2l-2,-2zm4,0l2,2l-2,2l-2,-2zm0,4l2,2l-2,2l-2,-2zm-4,0l2,2l-2,2l-2,-2z" style="stroke: rgb(255, 204, 0); fill: rgb(255, 204, 0);"></path></g><g><path d="M0,336h68M34,335v1M68,324h102M119,323v2M169,307h102M220,303v8M270,290h170M355,282v17M439,269h170M524,241v57" style="stroke: rgb(255, 0, 0); stroke-width: 1;"></path><path d="M0,335h68v1h-68zM68,323h102v2h-102zM169,303h102v8h-102zM270,282h170v17h-170zM439,241h170v57h-170z" style="fill: none; pointer-events: visiblefill;"></path><path d="M32,332l2,2l2,-2l2,2l-2,2l2,2l-2,2l-2,-2l-2,2l-2,-2l2,-2l-2,-2zM117,320l2,2l2,-2l2,2l-2,2l2,2l-2,2l-2,-2l-2,2l-2,-2l2,-2l-2,-2zM218,303l2,2l2,-2l2,2l-2,2l2,2l-2,2l-2,-2l-2,2l-2,-2l2,-2l-2,-2zM353,286l2,2l2,-2l2,2l-2,2l2,2l-2,2l-2,-2l-2,2l-2,-2l2,-2l-2,-2zM522,265l2,2l2,-2l2,2l-2,2l2,2l-2,2l-2,-2l-2,2l-2,-2l2,-2l-2,-2z" style="stroke: rgb(255, 0, 0); fill: rgb(255, 0, 0);"></path></g></svg><g><g transform="translate(0,426)"><path d="M0,0h608M0,-426h608M0,-15V0M17,-8V0M34,-8V0M51,-8V0M68,-15V0M84,-8V0M101,-8V0M118,-8V0M135,-15V0M152,-8V0M169,-8V0M186,-8V0M203,-15V0M220,-8V0M236,-8V0M253,-8V0M270,-15V0M287,-8V0M304,-8V0M321,-8V0M338,-15V0M355,-8V0M372,-8V0M388,-8V0M405,-15V0M422,-8V0M439,-8V0M456,-8V0M473,-15V0M490,-8V0M507,-8V0M524,-8V0M540,-15V0M557,-8V0M574,-8V0M591,-8V0M608,-15V0M0,-411V-426M17,-418V-426M34,-418V-426M51,-418V-426M68,-411V-426M84,-418V-426M101,-418V-426M118,-418V-426M135,-411V-426M152,-418V-426M169,-418V-426M186,-418V-426M203,-411V-426M220,-418V-426M236,-418V-426M253,-418V-426M270,-411V-426M287,-418V-426M304,-418V-426M321,-418V-426M338,-411V-426M355,-418V-426M372,-418V-426M388,-418V-426M405,-411V-426M422,-418V-426M439,-418V-426M456,-418V-426M473,-411V-426M490,-418V-426M507,-418V-426M524,-418V-426M540,-411V-426M557,-418V-426M574,-418V-426M591,-418V-426M608,-411V-426" style="stroke: rgb(0, 0, 0); stroke-width: 1;"></path><g font-family="Arial" font-size="18" xml:space="preserve" fill="#000000" text-anchor="middle"><text dy=".8em" transform="translate(0,3)">2</text><text dy=".8em" transform="translate(68,3)">4</text><text dy=".8em" transform="translate(135,3)">6</text><text dy=".8em" transform="translate(203,3)">8</text><text dy=".8em" transform="translate(270,3)">10</text><text dy=".8em" transform="translate(338,3)">12</text><text dy=".8em" transform="translate(405,3)">14</text><text dy=".8em" transform="translate(473,3)">16</text><text dy=".8em" transform="translate(540,3)">18</text><text dy=".8em" transform="translate(608,3)">20</text></g><rect x="0" y="0" width="608" height="21" style="opacity: 0; cursor: crosshair;"></rect><g font-family="Arial" font-size="18" xml:space="preserve" transform="translate(608,29)" style="cursor: move;"><g transform="translate(-79,5)"><text fill="#000000" font-size="18">p</text><text fill="#000000" font-size="11" transform="translate(11,4)">T</text><text fill="#000000" font-size="18" x="17">(GeV/c)</text></g></g></g><g><path d="M0,0v426M608,0v426M24,426H0M12,414H0M12,402H0M12,389H0M12,377H0M24,365H0M12,353H0M12,341H0M12,329H0M12,316H0M24,304H0M12,292H0M12,280H0M12,268H0M12,256H0M24,243H0M12,231H0M12,219H0M12,207H0M12,195H0M24,183H0M12,170H0M12,158H0M12,146H0M12,134H0M24,122H0M12,110H0M12,97H0M12,85H0M12,73H0M24,61H0M12,49H0M12,37H0M12,24H0M12,12H0M24,0H0M584,426H608M596,414H608M596,402H608M596,389H608M596,377H608M584,365H608M596,353H608M596,341H608M596,329H608M596,316H608M584,304H608M596,292H608M596,280H608M596,268H608M596,256H608M584,243H608M596,231H608M596,219H608M596,207H608M596,195H608M584,183H608M596,170H608M596,158H608M596,146H608M596,134H608M584,122H608M596,110H608M596,97H608M596,85H608M596,73H608M584,61H608M596,49H608M596,37H608M596,24H608M596,12H608M584,0H608" style="stroke: rgb(0, 0, 0); stroke-width: 1;"></path><g font-family="Arial" font-size="18" xml:space="preserve" fill="#000000" text-anchor="end"><text dominant-baseline="middle" transform="translate(-4,426)">0.8</text><text dominant-baseline="middle" transform="translate(-4,365)">0.9</text><text dominant-baseline="middle" transform="translate(-4,304)">1</text><text dominant-baseline="middle" transform="translate(-4,243)">1.1</text><text dominant-baseline="middle" transform="translate(-4,183)">1.2</text><text dominant-baseline="middle" transform="translate(-4,122)">1.3</text><text dominant-baseline="middle" transform="translate(-4,61)">1.4</text><text dominant-baseline="middle" transform="translate(-4)">1.5</text></g><rect x="-28" y="0" width="28" height="426" style="opacity: 0; cursor: crosshair;"></rect><g font-family="Arial" font-size="18" xml:space="preserve" transform="translate(-45)" style="cursor: move;"><g transform="rotate(270) translate(-131,8)"><text fill="#000000" font-size="18">π</text><text fill="#000000" font-size="11" transform="translate(13,-10)">0</text><text fill="#000000" font-size="18" x="26">bias/ γ</text><text fill="#000000" font-size="11" transform="translate(79,-10)">dir</text><text fill="#000000" font-size="18" x="98">bias</text></g></g></g></g><path d="M2,2h15v-5h-20v20h5Z" style="opacity: 0; cursor: nw-resize;"></path><path d="M606,2h-15v-5h20v20h-5 Z" style="opacity: 0; cursor: ne-resize;"></path><path d="M2,424h15v5h-20v-20h5Z" style="opacity: 0; cursor: sw-resize;"></path><path d="M606,424h-15v5h20v-20h-5Z" style="opacity: 0; cursor: se-resize;"></path><path d="M-3,18h5v390h-5Z" style="opacity: 0; cursor: w-resize;"></path><path d="M611,18h-5v390h5Z" style="opacity: 0; cursor: e-resize;"></path><path d="M18,-3v5h572v-5Z" style="opacity: 0; cursor: n-resize;"></path><path d="M18,429v-5h572v5Z" style="opacity: 0; cursor: s-resize;"></path></g><g transform="translate(112,51)" font-family="Arial" font-size="21" xml:space="preserve" style="cursor: move;"><path d="M0,0H352V215H0Z" style="fill: none; pointer-events: visiblefill;"></path><text fill="#000000" text-anchor="start" dominant-baseline="middle" transform="translate(11,21)">PYTHIA8, p+Au 200GeV with option3</text><g transform="translate(11,59)"><text fill="#000000" font-size="21">γ</text><text fill="#000000" font-size="13" transform="translate(11,-11)">dir</text><text fill="#000000" font-size="21" x="25">, π</text><text fill="#000000" font-size="13" transform="translate(52,-11)">0</text><text fill="#000000" font-size="21" x="67">in |η|&lt;1</text></g><path d="M45,80h3v-3h-3v-3h-3v3h-3v3h3v3h3z" style="stroke: rgb(204, 0, 255); fill: rgb(204, 0, 255);"></path><text fill="#000000" text-anchor="start" dominant-baseline="middle" transform="translate(88,79)">centrality: 0~10%</text><path d="M43,104h3v3h-3zm3,3h3v3h-3zm-3,3h3v3h-3zm-3,-3h3v3h-3z" style="stroke: rgb(0, 0, 255); fill: rgb(0, 0, 255);"></path><text fill="#000000" text-anchor="start" dominant-baseline="middle" transform="translate(88,108)">centrality: 10~20%</text><path d="M45,138h3v-3h-3v-3h-3v3h-3v3h3v3h3z" style="stroke: rgb(0, 204, 0); fill: none;"></path><text fill="#000000" text-anchor="start" dominant-baseline="middle" transform="translate(88,137)">centrality: 20~40%</text><path d="M42,162l2,2l-2,2l-2,-2zm4,0l2,2l-2,2l-2,-2zm0,4l2,2l-2,2l-2,-2zm-4,0l2,2l-2,2l-2,-2z" style="stroke: rgb(255, 204, 0); fill: rgb(255, 204, 0);"></path><text fill="#000000" text-anchor="start" dominant-baseline="middle" transform="translate(88,166)">centrality: 40~60%</text><path d="M42,191l2,2l2,-2l2,2l-2,2l2,2l-2,2l-2,-2l-2,2l-2,-2l2,-2l-2,-2z" style="stroke: rgb(255, 0, 0); fill: rgb(255, 0, 0);"></path><text fill="#000000" text-anchor="start" dominant-baseline="middle" transform="translate(88,195)">centrality: 60~80%</text><path d="M2,2h15v-5h-20v20h5Z" style="opacity: 0; cursor: nw-resize;"></path><path d="M350,2h-15v-5h20v20h-5 Z" style="opacity: 0; cursor: ne-resize;"></path><path d="M2,213h15v5h-20v-20h5Z" style="opacity: 0; cursor: sw-resize;"></path><path d="M350,213h-15v5h20v-20h-5Z" style="opacity: 0; cursor: se-resize;"></path><path d="M-3,18h5v179h-5Z" style="opacity: 0; cursor: w-resize;"></path><path d="M355,18h-5v179h5Z" style="opacity: 0; cursor: e-resize;"></path><path d="M18,-3v5h316v-5Z" style="opacity: 0; cursor: n-resize;"></path><path d="M18,218v-5h316v5Z" style="opacity: 0; cursor: s-resize;"></path></g></g></svg>