<?xml version="1.0" standalone="no"?>
<svg width="567.429" height="409.002" viewBox="0 0 567.429 409.002" xmlns="http://www.w3.org/2000/svg" shape-rendering="crispEdges">
<title>
/Users/jinhyunpark/npl/gitHub/Centrality_dependent_BiasCorrection/plots/plots_scaled-dNdpT/ratio_scaledYield_highpT_directPhoton_cent2mb.svg
</title>
<desc>
Creator: ROOT Version 6.28/06
CreationDate: Fri Nov 10 20:51:07 2023</desc>
<defs>
</defs>
<rect x="0.5" y="0" width="566.929" height="408.502" fill="white"/>
<rect x="68.5315" y="20.4251" width="430.866" height="339.056" fill="white"/>
<rect x="68.5315" y="20.4251" width="430.866" height="339.056" fill="none" stroke="black"/>
<rect x="68.5315" y="20.4251" width="430.866" height="339.056" fill="white"/>
<rect x="68.5315" y="20.4251" width="430.866" height="339.056" fill="none" stroke="black"/>
<path d="M68.5315,359.481h 430.866" fill="none" stroke="black"/>
<path d="M68.5315,350.168v 9.31384" fill="none" stroke="black"/>
<path d="M80.5,354.824v 4.65692" fill="none" stroke="black"/>
<path d="M92.4685,354.824v 4.65692" fill="none" stroke="black"/>
<path d="M104.437,354.824v 4.65692" fill="none" stroke="black"/>
<path d="M116.406,350.168v 9.31384" fill="none" stroke="black"/>
<path d="M128.374,354.824v 4.65692" fill="none" stroke="black"/>
<path d="M140.343,354.824v 4.65692" fill="none" stroke="black"/>
<path d="M152.311,354.824v 4.65692" fill="none" stroke="black"/>
<path d="M164.28,350.168v 9.31384" fill="none" stroke="black"/>
<path d="M176.248,354.824v 4.65692" fill="none" stroke="black"/>
<path d="M188.217,354.824v 4.65692" fill="none" stroke="black"/>
<path d="M200.185,354.824v 4.65692" fill="none" stroke="black"/>
<path d="M212.154,350.168v 9.31384" fill="none" stroke="black"/>
<path d="M224.122,354.824v 4.65692" fill="none" stroke="black"/>
<path d="M236.091,354.824v 4.65692" fill="none" stroke="black"/>
<path d="M248.059,354.824v 4.65692" fill="none" stroke="black"/>
<path d="M260.028,350.168v 9.31384" fill="none" stroke="black"/>
<path d="M271.996,354.824v 4.65692" fill="none" stroke="black"/>
<path d="M283.965,354.824v 4.65692" fill="none" stroke="black"/>
<path d="M295.933,354.824v 4.65692" fill="none" stroke="black"/>
<path d="M307.902,350.168v 9.31384" fill="none" stroke="black"/>
<path d="M319.87,354.824v 4.65692" fill="none" stroke="black"/>
<path d="M331.839,354.824v 4.65692" fill="none" stroke="black"/>
<path d="M343.807,354.824v 4.65692" fill="none" stroke="black"/>
<path d="M355.776,350.168v 9.31384" fill="none" stroke="black"/>
<path d="M367.744,354.824v 4.65692" fill="none" stroke="black"/>
<path d="M379.713,354.824v 4.65692" fill="none" stroke="black"/>
<path d="M391.681,354.824v 4.65692" fill="none" stroke="black"/>
<path d="M403.65,350.168v 9.31384" fill="none" stroke="black"/>
<path d="M415.618,354.824v 4.65692" fill="none" stroke="black"/>
<path d="M427.587,354.824v 4.65692" fill="none" stroke="black"/>
<path d="M439.555,354.824v 4.65692" fill="none" stroke="black"/>
<path d="M451.524,350.168v 9.31384" fill="none" stroke="black"/>
<path d="M463.492,354.824v 4.65692" fill="none" stroke="black"/>
<path d="M475.461,354.824v 4.65692" fill="none" stroke="black"/>
<path d="M487.429,354.824v 4.65692" fill="none" stroke="black"/>
<path d="M499.398,350.168v 9.31384" fill="none" stroke="black"/>
<text xml:space="preserve" x="64.4394" y="372.269" fill="black" font-size="13.617" font-family="Helvetica">2</text>
<text xml:space="preserve" x="112.749" y="372.269" fill="black" font-size="13.617" font-family="Helvetica">4</text>
<text xml:space="preserve" x="160.348" y="372.269" fill="black" font-size="13.617" font-family="Helvetica">6</text>
<text xml:space="preserve" x="207.948" y="372.269" fill="black" font-size="13.617" font-family="Helvetica">8</text>
<text xml:space="preserve" x="251.995" y="372.269" fill="black" font-size="13.617" font-family="Helvetica">10</text>
<text xml:space="preserve" x="299.594" y="372.269" fill="black" font-size="13.617" font-family="Helvetica">12</text>
<text xml:space="preserve" x="347.904" y="372.269" fill="black" font-size="13.617" font-family="Helvetica">14</text>
<text xml:space="preserve" x="395.503" y="372.269" fill="black" font-size="13.617" font-family="Helvetica">16</text>
<text xml:space="preserve" x="443.103" y="372.269" fill="black" font-size="13.617" font-family="Helvetica">18</text>
<text xml:space="preserve" x="491.412" y="372.269" fill="black" font-size="13.617" font-family="Helvetica">20</text>
<text xml:space="preserve" x="453.759" y="384.347" fill="black" font-size="13.617" font-family="Helvetica">(GeV/c)</text>
<text xml:space="preserve" x="448.076" y="392.162" fill="black" font-size="9.24468" font-family="Helvetica">T</text>
<text xml:space="preserve" x="440.261" y="384.347" fill="black" font-size="13.617" font-family="Helvetica">p</text>
<path d="M68.5315,20.4251h 430.866" fill="none" stroke="black"/>
<path d="M68.5315,29.7389v -9.31384" fill="none" stroke="black"/>
<path d="M80.5,25.082v -4.65692" fill="none" stroke="black"/>
<path d="M92.4685,25.082v -4.65692" fill="none" stroke="black"/>
<path d="M104.437,25.082v -4.65692" fill="none" stroke="black"/>
<path d="M116.406,29.7389v -9.31384" fill="none" stroke="black"/>
<path d="M128.374,25.082v -4.65692" fill="none" stroke="black"/>
<path d="M140.343,25.082v -4.65692" fill="none" stroke="black"/>
<path d="M152.311,25.082v -4.65692" fill="none" stroke="black"/>
<path d="M164.28,29.7389v -9.31384" fill="none" stroke="black"/>
<path d="M176.248,25.082v -4.65692" fill="none" stroke="black"/>
<path d="M188.217,25.082v -4.65692" fill="none" stroke="black"/>
<path d="M200.185,25.082v -4.65692" fill="none" stroke="black"/>
<path d="M212.154,29.7389v -9.31384" fill="none" stroke="black"/>
<path d="M224.122,25.082v -4.65692" fill="none" stroke="black"/>
<path d="M236.091,25.082v -4.65692" fill="none" stroke="black"/>
<path d="M248.059,25.082v -4.65692" fill="none" stroke="black"/>
<path d="M260.028,29.7389v -9.31384" fill="none" stroke="black"/>
<path d="M271.996,25.082v -4.65692" fill="none" stroke="black"/>
<path d="M283.965,25.082v -4.65692" fill="none" stroke="black"/>
<path d="M295.933,25.082v -4.65692" fill="none" stroke="black"/>
<path d="M307.902,29.7389v -9.31384" fill="none" stroke="black"/>
<path d="M319.87,25.082v -4.65692" fill="none" stroke="black"/>
<path d="M331.839,25.082v -4.65692" fill="none" stroke="black"/>
<path d="M343.807,25.082v -4.65692" fill="none" stroke="black"/>
<path d="M355.776,29.7389v -9.31384" fill="none" stroke="black"/>
<path d="M367.744,25.082v -4.65692" fill="none" stroke="black"/>
<path d="M379.713,25.082v -4.65692" fill="none" stroke="black"/>
<path d="M391.681,25.082v -4.65692" fill="none" stroke="black"/>
<path d="M403.65,29.7389v -9.31384" fill="none" stroke="black"/>
<path d="M415.618,25.082v -4.65692" fill="none" stroke="black"/>
<path d="M427.587,25.082v -4.65692" fill="none" stroke="black"/>
<path d="M439.555,25.082v -4.65692" fill="none" stroke="black"/>
<path d="M451.524,29.7389v -9.31384" fill="none" stroke="black"/>
<path d="M463.492,25.082v -4.65692" fill="none" stroke="black"/>
<path d="M475.461,25.082v -4.65692" fill="none" stroke="black"/>
<path d="M487.429,25.082v -4.65692" fill="none" stroke="black"/>
<path d="M499.398,29.7389v -9.31384" fill="none" stroke="black"/>
<path d="M68.5315,359.481v -339.056" fill="none" stroke="black"/>
<path d="M82.648,359.481h -14.1165" fill="none" stroke="black"/>
<path d="M75.5898,345.919h -7.05827" fill="none" stroke="black"/>
<path d="M75.5898,332.357h -7.05827" fill="none" stroke="black"/>
<path d="M75.5898,318.795h -7.05827" fill="none" stroke="black"/>
<path d="M75.5898,305.232h -7.05827" fill="none" stroke="black"/>
<path d="M82.648,291.67h -14.1165" fill="none" stroke="black"/>
<path d="M75.5898,278.108h -7.05827" fill="none" stroke="black"/>
<path d="M75.5898,264.546h -7.05827" fill="none" stroke="black"/>
<path d="M75.5898,250.983h -7.05827" fill="none" stroke="black"/>
<path d="M75.5898,237.421h -7.05827" fill="none" stroke="black"/>
<path d="M82.648,223.859h -14.1165" fill="none" stroke="black"/>
<path d="M75.5898,210.297h -7.05827" fill="none" stroke="black"/>
<path d="M75.5898,196.734h -7.05827" fill="none" stroke="black"/>
<path d="M75.5898,183.172h -7.05827" fill="none" stroke="black"/>
<path d="M75.5898,169.61h -7.05827" fill="none" stroke="black"/>
<path d="M82.648,156.048h -14.1165" fill="none" stroke="black"/>
<path d="M75.5898,142.485h -7.05827" fill="none" stroke="black"/>
<path d="M75.5898,128.923h -7.05827" fill="none" stroke="black"/>
<path d="M75.5898,115.361h -7.05827" fill="none" stroke="black"/>
<path d="M75.5898,101.799h -7.05827" fill="none" stroke="black"/>
<path d="M82.648,88.2363h -14.1165" fill="none" stroke="black"/>
<path d="M75.5898,74.6741h -7.05827" fill="none" stroke="black"/>
<path d="M75.5898,61.1118h -7.05827" fill="none" stroke="black"/>
<path d="M75.5898,47.5496h -7.05827" fill="none" stroke="black"/>
<path d="M75.5898,33.9873h -7.05827" fill="none" stroke="black"/>
<path d="M82.648,20.4251h -14.1165" fill="none" stroke="black"/>
<text xml:space="preserve" x="58.0454" y="364.454" fill="black" font-size="13.617" font-family="Helvetica">0</text>
<text xml:space="preserve" x="46.6784" y="296.252" fill="black" font-size="13.617" font-family="Helvetica">0.5</text>
<text xml:space="preserve" x="60.1768" y="229.471" fill="black" font-size="13.617" font-family="Helvetica">1</text>
<text xml:space="preserve" x="46.6784" y="160.559" fill="black" font-size="13.617" font-family="Helvetica">1.5</text>
<text xml:space="preserve" x="58.0454" y="93.7778" fill="black" font-size="13.617" font-family="Helvetica">2</text>
<text xml:space="preserve" x="46.6784" y="24.8653" fill="black" font-size="13.617" font-family="Helvetica">2.5</text>
<g transform="rotate(-90,32.4697,24.1549)">
<text xml:space="preserve" x="32.4697" y="24.1549" fill="black" font-size="13.617" font-family="Helvetica"> </text>
</g>
<g transform="rotate(-90,40.2845,37.6532)">
<text xml:space="preserve" x="40.2845" y="37.6532" fill="black" font-size="9.24468" font-family="Helvetica">MB</text>
</g>
<g transform="rotate(-90,32.4697,41.2054)">
<text xml:space="preserve" x="32.4697" y="41.2054" fill="black" font-size="13.617" font-family="Helvetica">)</text>
</g>
<g transform="rotate(-90,48.0993,50.4411)">
<text xml:space="preserve" x="48.0993" y="50.4411" fill="black" font-size="9.24468" font-family="Helvetica">T</text>
</g>
<g transform="rotate(-90,40.2845,65.3603)">
<text xml:space="preserve" x="40.2845" y="65.3603" fill="black" font-size="13.617" font-family="Helvetica">dp</text>
</g>
<g transform="rotate(-90,14.7087,47.5993)">
<text xml:space="preserve" x="14.7087" y="47.5993" fill="black" font-size="6.32979" font-family="Helvetica">dir</text>
</g>
<g transform="rotate(-90,18.2609,52.5724)">
<text xml:space="preserve" x="18.2609" y="52.5724" fill="black" font-size="9.24468" font-family="Times">&#0947;</text>
</g>
<g transform="rotate(-90,26.0758,68.9124)">
<text xml:space="preserve" x="26.0758" y="68.9124" fill="black" font-size="13.617" font-family="Helvetica">dN</text>
</g>
<path d="M28.9175,68.9124v -27.7071" fill="none" stroke="black" stroke-width="2"/>
<g transform="rotate(-90,32.4697,73.1751)">
<text xml:space="preserve" x="32.4697" y="73.1751" fill="black" font-size="13.617" font-family="Helvetica"> </text>
</g>
<g transform="rotate(-90,44.5471,95.9091)">
<text xml:space="preserve" x="44.5471" y="95.9091" fill="black" font-size="9.24468" font-family="Helvetica">event</text>
</g>
<g transform="rotate(-90,40.2845,105.145)">
<text xml:space="preserve" x="40.2845" y="105.145" fill="black" font-size="13.617" font-family="Helvetica">N</text>
</g>
<g transform="rotate(-90,26.7862,91.6464)">
<text xml:space="preserve" x="26.7862" y="91.6464" fill="black" font-size="13.617" font-family="Helvetica">1</text>
</g>
<path d="M28.9175,105.145v -31.9697" fill="none" stroke="black" stroke-width="2"/>
<g transform="rotate(-90,32.4697,109.407)">
<text xml:space="preserve" x="32.4697" y="109.407" fill="black" font-size="13.617" font-family="Helvetica"> </text>
</g>
<g transform="rotate(-90,40.9949,113.67)">
<text xml:space="preserve" x="40.9949" y="113.67" fill="black" font-size="13.617" font-family="Times">&#0062;</text>
</g>
<g transform="rotate(-90,40.9949,117.933)">
<text xml:space="preserve" x="40.9949" y="117.933" fill="black" font-size="13.617" font-family="Helvetica"> </text>
</g>
<g transform="rotate(-90,47.3889,131.431)">
<text xml:space="preserve" x="47.3889" y="131.431" fill="black" font-size="9.24468" font-family="Helvetica">coll</text>
</g>
<g transform="rotate(-90,40.9949,144.219)">
<text xml:space="preserve" x="40.9949" y="144.219" fill="black" font-size="13.617" font-family="Helvetica"> N</text>
</g>
<g transform="rotate(-90,40.9949,148.481)">
<text xml:space="preserve" x="40.9949" y="148.481" fill="black" font-size="13.617" font-family="Times">&#0060;</text>
</g>
<g transform="rotate(-90,26.7862,131.431)">
<text xml:space="preserve" x="26.7862" y="131.431" fill="black" font-size="13.617" font-family="Helvetica">1</text>
</g>
<path d="M28.9175,148.481v -39.0741" fill="none" stroke="black" stroke-width="2"/>
<g transform="rotate(-90,32.4697,164.111)">
<text xml:space="preserve" x="32.4697" y="164.111" fill="black" font-size="13.617" font-family="Helvetica"> / (</text>
</g>
<g transform="rotate(-90,39.5741,181.872)">
<text xml:space="preserve" x="39.5741" y="181.872" fill="black" font-size="9.24468" font-family="Helvetica">cent</text>
</g>
<g transform="rotate(-90,32.4697,185.424)">
<text xml:space="preserve" x="32.4697" y="185.424" fill="black" font-size="13.617" font-family="Helvetica">)</text>
</g>
<g transform="rotate(-90,48.0993,194.66)">
<text xml:space="preserve" x="48.0993" y="194.66" fill="black" font-size="9.24468" font-family="Helvetica">T</text>
</g>
<g transform="rotate(-90,40.2845,209.579)">
<text xml:space="preserve" x="40.2845" y="209.579" fill="black" font-size="13.617" font-family="Helvetica">dp</text>
</g>
<g transform="rotate(-90,14.7087,191.818)">
<text xml:space="preserve" x="14.7087" y="191.818" fill="black" font-size="6.32979" font-family="Helvetica">dir</text>
</g>
<g transform="rotate(-90,18.2609,196.791)">
<text xml:space="preserve" x="18.2609" y="196.791" fill="black" font-size="9.24468" font-family="Times">&#0947;</text>
</g>
<g transform="rotate(-90,26.0758,213.131)">
<text xml:space="preserve" x="26.0758" y="213.131" fill="black" font-size="13.617" font-family="Helvetica">dN</text>
</g>
<path d="M28.9175,213.131v -27.7071" fill="none" stroke="black" stroke-width="2"/>
<g transform="rotate(-90,32.4697,217.394)">
<text xml:space="preserve" x="32.4697" y="217.394" fill="black" font-size="13.617" font-family="Helvetica"> </text>
</g>
<g transform="rotate(-90,44.5471,240.128)">
<text xml:space="preserve" x="44.5471" y="240.128" fill="black" font-size="9.24468" font-family="Helvetica">event</text>
</g>
<g transform="rotate(-90,40.2845,249.364)">
<text xml:space="preserve" x="40.2845" y="249.364" fill="black" font-size="13.617" font-family="Helvetica">N</text>
</g>
<g transform="rotate(-90,26.7862,235.865)">
<text xml:space="preserve" x="26.7862" y="235.865" fill="black" font-size="13.617" font-family="Helvetica">1</text>
</g>
<path d="M28.9175,249.364v -31.9697" fill="none" stroke="black" stroke-width="2"/>
<g transform="rotate(-90,32.4697,253.626)">
<text xml:space="preserve" x="32.4697" y="253.626" fill="black" font-size="13.617" font-family="Helvetica"> </text>
</g>
<g transform="rotate(-90,40.9949,257.889)">
<text xml:space="preserve" x="40.9949" y="257.889" fill="black" font-size="13.617" font-family="Times">&#0062;</text>
</g>
<g transform="rotate(-90,40.9949,262.151)">
<text xml:space="preserve" x="40.9949" y="262.151" fill="black" font-size="13.617" font-family="Helvetica"> </text>
</g>
<g transform="rotate(-90,47.3889,275.65)">
<text xml:space="preserve" x="47.3889" y="275.65" fill="black" font-size="9.24468" font-family="Helvetica">coll</text>
</g>
<g transform="rotate(-90,40.9949,288.438)">
<text xml:space="preserve" x="40.9949" y="288.438" fill="black" font-size="13.617" font-family="Helvetica"> N</text>
</g>
<g transform="rotate(-90,40.9949,292.7)">
<text xml:space="preserve" x="40.9949" y="292.7" fill="black" font-size="13.617" font-family="Times">&#0060;</text>
</g>
<g transform="rotate(-90,26.7862,275.65)">
<text xml:space="preserve" x="26.7862" y="275.65" fill="black" font-size="13.617" font-family="Helvetica">1</text>
</g>
<path d="M28.9175,292.7v -39.0741" fill="none" stroke="black" stroke-width="2"/>
<g transform="rotate(-90,32.4697,296.963)">
<text xml:space="preserve" x="32.4697" y="296.963" fill="black" font-size="13.617" font-family="Helvetica">(</text>
</g>
<path d="M499.398,359.481v -339.056" fill="none" stroke="black"/>
<path d="M485.281,359.481h 14.1165" fill="none" stroke="black"/>
<path d="M492.339,345.919h 7.05827" fill="none" stroke="black"/>
<path d="M492.339,332.357h 7.05827" fill="none" stroke="black"/>
<path d="M492.339,318.795h 7.05827" fill="none" stroke="black"/>
<path d="M492.339,305.232h 7.05827" fill="none" stroke="black"/>
<path d="M485.281,291.67h 14.1165" fill="none" stroke="black"/>
<path d="M492.339,278.108h 7.05827" fill="none" stroke="black"/>
<path d="M492.339,264.546h 7.05827" fill="none" stroke="black"/>
<path d="M492.339,250.983h 7.05827" fill="none" stroke="black"/>
<path d="M492.339,237.421h 7.05827" fill="none" stroke="black"/>
<path d="M485.281,223.859h 14.1165" fill="none" stroke="black"/>
<path d="M492.339,210.297h 7.05827" fill="none" stroke="black"/>
<path d="M492.339,196.734h 7.05827" fill="none" stroke="black"/>
<path d="M492.339,183.172h 7.05827" fill="none" stroke="black"/>
<path d="M492.339,169.61h 7.05827" fill="none" stroke="black"/>
<path d="M485.281,156.048h 14.1165" fill="none" stroke="black"/>
<path d="M492.339,142.485h 7.05827" fill="none" stroke="black"/>
<path d="M492.339,128.923h 7.05827" fill="none" stroke="black"/>
<path d="M492.339,115.361h 7.05827" fill="none" stroke="black"/>
<path d="M492.339,101.799h 7.05827" fill="none" stroke="black"/>
<path d="M485.281,88.2363h 14.1165" fill="none" stroke="black"/>
<path d="M492.339,74.6741h 7.05827" fill="none" stroke="black"/>
<path d="M492.339,61.1118h 7.05827" fill="none" stroke="black"/>
<path d="M492.339,47.5496h 7.05827" fill="none" stroke="black"/>
<path d="M492.339,33.9873h 7.05827" fill="none" stroke="black"/>
<path d="M485.281,20.4251h 14.1165" fill="none" stroke="black"/>
<path d="M68.5315,248.425h 9.12675" fill="none" stroke="#00cc00"/>
<path d="M83.3418,248.425h 9.12675" fill="none" stroke="#00cc00"/>
<g fill="#00cc00">
<polygon points=" 79.5527, 247.477 79.5527, 245.583 81.4473, 245.583 81.4473, 247.477 83.3418, 247.477 83.3418, 249.372 81.4473, 249.372 81.4473, 251.266 79.5527, 251.266 79.5527, 249.372 77.6582, 249.372 77.6582, 247.477"/>
</g>
<path d="M92.4685,251.374h 21.0953" fill="none" stroke="#00cc00"/>
<path d="M119.247,251.374h 21.0953" fill="none" stroke="#00cc00"/>
<g fill="#00cc00">
<polygon points=" 115.458, 250.426 115.458, 248.532 117.353, 248.532 117.353, 250.426 119.247, 250.426 119.247, 252.321 117.353, 252.321 117.353, 254.215 115.458, 254.215 115.458, 252.321 113.564, 252.321 113.564, 250.426"/>
</g>
<path d="M140.343,258.228h 21.0953" fill="none" stroke="#00cc00"/>
<path d="M167.121,258.228h 21.0953" fill="none" stroke="#00cc00"/>
<g fill="#00cc00">
<polygon points=" 163.332, 257.281 163.332, 255.386 165.227, 255.386 165.227, 257.281 167.121, 257.281 167.121, 259.175 165.227, 259.175 165.227, 261.07 163.332, 261.07 163.332, 259.175 161.438, 259.175 161.438, 257.281"/>
</g>
<path d="M188.217,261.776h 21.0953" fill="none" stroke="#00cc00"/>
<path d="M214.995,261.776h 21.0953" fill="none" stroke="#00cc00"/>
<g fill="#00cc00">
<polygon points=" 211.206, 260.829 211.206, 258.934 213.101, 258.934 213.101, 260.829 214.995, 260.829 214.995, 262.723 213.101, 262.723 213.101, 264.618 211.206, 264.618 211.206, 262.723 209.312, 262.723 209.312, 260.829"/>
</g>
<path d="M260.028,272.814v -0.27915" fill="none" stroke="#00cc00"/>
<path d="M260.028,266.851v -0.27915" fill="none" stroke="#00cc00"/>
<path d="M236.091,269.693h 21.0953" fill="none" stroke="#00cc00"/>
<path d="M262.869,269.693h 21.0953" fill="none" stroke="#00cc00"/>
<g fill="#00cc00">
<polygon points=" 259.08, 268.746 259.08, 266.851 260.975, 266.851 260.975, 268.746 262.869, 268.746 262.869, 270.64 260.975, 270.64 260.975, 272.535 259.08, 272.535 259.08, 270.64 257.186, 270.64 257.186, 268.746"/>
</g>
<path d="M331.839,279.178v -1.51197" fill="none" stroke="#00cc00"/>
<path d="M331.839,271.983v -1.51197" fill="none" stroke="#00cc00"/>
<path d="M283.965,274.824h 45.0323" fill="none" stroke="#00cc00"/>
<path d="M334.68,274.824h 45.0323" fill="none" stroke="#00cc00"/>
<g fill="#00cc00">
<polygon points=" 330.891, 273.877 330.891, 271.983 332.786, 271.983 332.786, 273.877 334.68, 273.877 334.68, 275.772 332.786, 275.772 332.786, 277.666 330.891, 277.666 330.891, 275.772 328.997, 275.772 328.997, 273.877"/>
</g>
<path d="M439.555,296.272v -6.75868" fill="none" stroke="#00cc00"/>
<path d="M439.555,283.829v -6.75868" fill="none" stroke="#00cc00"/>
<path d="M379.713,286.671h 57.0008" fill="none" stroke="#00cc00"/>
<path d="M442.397,286.671h 57.0008" fill="none" stroke="#00cc00"/>
<g fill="#00cc00">
<polygon points=" 438.608, 285.724 438.608, 283.829 440.502, 283.829 440.502, 285.724 442.397, 285.724 442.397, 287.618 440.502, 287.618 440.502, 289.513 438.608, 289.513 438.608, 287.618 436.713, 287.618 436.713, 285.724"/>
</g>
<path d="M68.5315,239.255h 9.12675" fill="none" stroke="#33ff99"/>
<path d="M83.3418,239.255h 9.12675" fill="none" stroke="#33ff99"/>
<g fill="#33ff99">
<polygon points=" 79.5527, 238.307 79.5527, 236.413 81.4473, 236.413 81.4473, 238.307 83.3418, 238.307 83.3418, 240.202 81.4473, 240.202 81.4473, 242.096 79.5527, 242.096 79.5527, 240.202 77.6582, 240.202 77.6582, 238.307"/>
</g>
<path d="M92.4685,241.421h 21.0953" fill="none" stroke="#33ff99"/>
<path d="M119.247,241.421h 21.0953" fill="none" stroke="#33ff99"/>
<g fill="#33ff99">
<polygon points=" 115.458, 240.474 115.458, 238.579 117.353, 238.579 117.353, 240.474 119.247, 240.474 119.247, 242.368 117.353, 242.368 117.353, 244.263 115.458, 244.263 115.458, 242.368 113.564, 242.368 113.564, 240.474"/>
</g>
<path d="M140.343,244.11h 21.0953" fill="none" stroke="#33ff99"/>
<path d="M167.121,244.11h 21.0953" fill="none" stroke="#33ff99"/>
<g fill="#33ff99">
<polygon points=" 163.332, 243.163 163.332, 241.268 165.227, 241.268 165.227, 243.163 167.121, 243.163 167.121, 245.057 165.227, 245.057 165.227, 246.952 163.332, 246.952 163.332, 245.057 161.438, 245.057 161.438, 243.163"/>
</g>
<path d="M188.217,247.57h 21.0953" fill="none" stroke="#33ff99"/>
<path d="M214.995,247.57h 21.0953" fill="none" stroke="#33ff99"/>
<g fill="#33ff99">
<polygon points=" 211.206, 246.622 211.206, 244.728 213.101, 244.728 213.101, 246.622 214.995, 246.622 214.995, 248.517 213.101, 248.517 213.101, 250.411 211.206, 250.411 211.206, 248.517 209.312, 248.517 209.312, 246.622"/>
</g>
<path d="M260.028,255.689v -0.862633" fill="none" stroke="#33ff99"/>
<path d="M260.028,249.142v -0.862633" fill="none" stroke="#33ff99"/>
<path d="M236.091,251.984h 21.0953" fill="none" stroke="#33ff99"/>
<path d="M262.869,251.984h 21.0953" fill="none" stroke="#33ff99"/>
<g fill="#33ff99">
<polygon points=" 259.08, 251.037 259.08, 249.142 260.975, 249.142 260.975, 251.037 262.869, 251.037 262.869, 252.931 260.975, 252.931 260.975, 254.826 259.08, 254.826 259.08, 252.931 257.186, 252.931 257.186, 251.037"/>
</g>
<path d="M331.839,252.516v -2.63103" fill="none" stroke="#33ff99"/>
<path d="M331.839,244.201v -2.63103" fill="none" stroke="#33ff99"/>
<path d="M283.965,247.043h 45.0323" fill="none" stroke="#33ff99"/>
<path d="M334.68,247.043h 45.0323" fill="none" stroke="#33ff99"/>
<g fill="#33ff99">
<polygon points=" 330.891, 246.096 330.891, 244.201 332.786, 244.201 332.786, 246.096 334.68, 246.096 334.68, 247.99 332.786, 247.99 332.786, 249.885 330.891, 249.885 330.891, 247.99 328.997, 247.99 328.997, 246.096"/>
</g>
<path d="M439.555,271.357v -9.46994" fill="none" stroke="#33ff99"/>
<path d="M439.555,256.203v -9.46994" fill="none" stroke="#33ff99"/>
<path d="M379.713,259.045h 57.0008" fill="none" stroke="#33ff99"/>
<path d="M442.397,259.045h 57.0008" fill="none" stroke="#33ff99"/>
<g fill="#33ff99">
<polygon points=" 438.608, 258.098 438.608, 256.203 440.502, 256.203 440.502, 258.098 442.397, 258.098 442.397, 259.992 440.502, 259.992 440.502, 261.887 438.608, 261.887 438.608, 259.992 436.713, 259.992 436.713, 258.098"/>
</g>
<path d="M68.5315,229.772h 9.12675" fill="none" stroke="#00cccc"/>
<path d="M83.3418,229.772h 9.12675" fill="none" stroke="#00cccc"/>
<g stroke="#00cccc" stroke-width="1" fill="none">
<polygon points=" 79.5527, 228.824 79.5527, 226.93 81.4473, 226.93 81.4473, 228.824 83.3418, 228.824 83.3418, 230.719 81.4473, 230.719 81.4473, 232.613 79.5527, 232.613 79.5527, 230.719 77.6582, 230.719 77.6582, 228.824"/>
</g>
<path d="M92.4685,230.183h 21.0953" fill="none" stroke="#00cccc"/>
<path d="M119.247,230.183h 21.0953" fill="none" stroke="#00cccc"/>
<g stroke="#00cccc" stroke-width="1" fill="none">
<polygon points=" 115.458, 229.236 115.458, 227.341 117.353, 227.341 117.353, 229.236 119.247, 229.236 119.247, 231.13 117.353, 231.13 117.353, 233.025 115.458, 233.025 115.458, 231.13 113.564, 231.13 113.564, 229.236"/>
</g>
<path d="M140.343,231.29h 21.0953" fill="none" stroke="#00cccc"/>
<path d="M167.121,231.29h 21.0953" fill="none" stroke="#00cccc"/>
<g stroke="#00cccc" stroke-width="1" fill="none">
<polygon points=" 163.332, 230.342 163.332, 228.448 165.227, 228.448 165.227, 230.342 167.121, 230.342 167.121, 232.237 165.227, 232.237 165.227, 234.131 163.332, 234.131 163.332, 232.237 161.438, 232.237 161.438, 230.342"/>
</g>
<path d="M188.217,235.156h 21.0953" fill="none" stroke="#00cccc"/>
<path d="M214.995,235.156h 21.0953" fill="none" stroke="#00cccc"/>
<g stroke="#00cccc" stroke-width="1" fill="none">
<polygon points=" 211.206, 234.209 211.206, 232.314 213.101, 232.314 213.101, 234.209 214.995, 234.209 214.995, 236.103 213.101, 236.103 213.101, 237.998 211.206, 237.998 211.206, 236.103 209.312, 236.103 209.312, 234.209"/>
</g>
<path d="M260.028,237.224v -0.387908" fill="none" stroke="#00cccc"/>
<path d="M260.028,231.153v -0.387908" fill="none" stroke="#00cccc"/>
<path d="M236.091,233.995h 21.0953" fill="none" stroke="#00cccc"/>
<path d="M262.869,233.995h 21.0953" fill="none" stroke="#00cccc"/>
<g stroke="#00cccc" stroke-width="1" fill="none">
<polygon points=" 259.08, 233.048 259.08, 231.153 260.975, 231.153 260.975, 233.048 262.869, 233.048 262.869, 234.942 260.975, 234.942 260.975, 236.837 259.08, 236.837 259.08, 234.942 257.186, 234.942 257.186, 233.048"/>
</g>
<path d="M331.839,245.548v -1.65504" fill="none" stroke="#00cccc"/>
<path d="M331.839,238.209v -1.65504" fill="none" stroke="#00cccc"/>
<path d="M283.965,241.051h 45.0323" fill="none" stroke="#00cccc"/>
<path d="M334.68,241.051h 45.0323" fill="none" stroke="#00cccc"/>
<g stroke="#00cccc" stroke-width="1" fill="none">
<polygon points=" 330.891, 240.104 330.891, 238.209 332.786, 238.209 332.786, 240.104 334.68, 240.104 334.68, 241.998 332.786, 241.998 332.786, 243.893 330.891, 243.893 330.891, 241.998 328.997, 241.998 328.997, 240.104"/>
</g>
<path d="M439.555,234.446v -8.89243" fill="none" stroke="#00cccc"/>
<path d="M439.555,219.87v -8.89243" fill="none" stroke="#00cccc"/>
<path d="M379.713,222.712h 57.0008" fill="none" stroke="#00cccc"/>
<path d="M442.397,222.712h 57.0008" fill="none" stroke="#00cccc"/>
<g stroke="#00cccc" stroke-width="1" fill="none">
<polygon points=" 438.608, 221.764 438.608, 219.87 440.502, 219.87 440.502, 221.764 442.397, 221.764 442.397, 223.659 440.502, 223.659 440.502, 225.553 438.608, 225.553 438.608, 223.659 436.713, 223.659 436.713, 221.764"/>
</g>
<path d="M68.5315,216.692h 10.5476" fill="none" stroke="#0033ff"/>
<path d="M81.9209,216.692h 10.5476" fill="none" stroke="#0033ff"/>
<g fill="#0033ff">
<polygon points=" 80.5, 218.112 79.0791, 219.533 77.6582, 218.112 79.0791, 216.692 77.6582, 215.271 79.0791, 213.85 80.5, 215.271 81.9209, 213.85 83.3418, 215.271 81.9209, 216.692 83.3418, 218.112 81.9209, 219.533 80.5, 218.112"/>
</g>
<path d="M92.4685,216.366h 22.5161" fill="none" stroke="#0033ff"/>
<path d="M117.826,216.366h 22.5161" fill="none" stroke="#0033ff"/>
<g fill="#0033ff">
<polygon points=" 116.406, 217.787 114.985, 219.208 113.564, 217.787 114.985, 216.366 113.564, 214.945 114.985, 213.524 116.406, 214.945 117.826, 213.524 119.247, 214.945 117.826, 216.366 119.247, 217.787 117.826, 219.208 116.406, 217.787"/>
</g>
<path d="M140.343,215.129h 22.5161" fill="none" stroke="#0033ff"/>
<path d="M165.7,215.129h 22.5161" fill="none" stroke="#0033ff"/>
<g fill="#0033ff">
<polygon points=" 164.28, 216.55 162.859, 217.971 161.438, 216.55 162.859, 215.129 161.438, 213.708 162.859, 212.287 164.28, 213.708 165.7, 212.287 167.121, 213.708 165.7, 215.129 167.121, 216.55 165.7, 217.971 164.28, 216.55"/>
</g>
<path d="M212.154,216.965v -0.639691" fill="none" stroke="#0033ff"/>
<path d="M212.154,213.484v -0.639691" fill="none" stroke="#0033ff"/>
<path d="M188.217,214.905h 22.5161" fill="none" stroke="#0033ff"/>
<path d="M213.574,214.905h 22.5161" fill="none" stroke="#0033ff"/>
<g fill="#0033ff">
<polygon points=" 212.154, 216.326 210.733, 217.746 209.312, 216.326 210.733, 214.905 209.312, 213.484 210.733, 212.063 212.154, 213.484 213.574, 212.063 214.995, 213.484 213.574, 214.905 214.995, 216.326 213.574, 217.746 212.154, 216.326"/>
</g>
<path d="M260.028,214.642v -2.54654" fill="none" stroke="#0033ff"/>
<path d="M260.028,209.254v -2.54654" fill="none" stroke="#0033ff"/>
<path d="M236.091,210.674h 22.5161" fill="none" stroke="#0033ff"/>
<path d="M261.448,210.674h 22.5161" fill="none" stroke="#0033ff"/>
<g fill="#0033ff">
<polygon points=" 260.028, 212.095 258.607, 213.516 257.186, 212.095 258.607, 210.674 257.186, 209.254 258.607, 207.833 260.028, 209.254 261.448, 207.833 262.869, 209.254 261.448, 210.674 262.869, 212.095 261.448, 213.516 260.028, 212.095"/>
</g>
<path d="M331.839,209.151v -4.46278" fill="none" stroke="#0033ff"/>
<path d="M331.839,201.847v -4.46278" fill="none" stroke="#0033ff"/>
<path d="M283.965,203.268h 46.4531" fill="none" stroke="#0033ff"/>
<path d="M333.259,203.268h 46.4531" fill="none" stroke="#0033ff"/>
<g fill="#0033ff">
<polygon points=" 331.839, 204.689 330.418, 206.109 328.997, 204.689 330.418, 203.268 328.997, 201.847 330.418, 200.426 331.839, 201.847 333.259, 200.426 334.68, 201.847 333.259, 203.268 334.68, 204.689 333.259, 206.109 331.839, 204.689"/>
</g>
<path d="M439.555,233.041v -11.7666" fill="none" stroke="#0033ff"/>
<path d="M439.555,218.432v -11.7666" fill="none" stroke="#0033ff"/>
<path d="M379.713,219.853h 58.4216" fill="none" stroke="#0033ff"/>
<path d="M440.976,219.853h 58.4216" fill="none" stroke="#0033ff"/>
<g fill="#0033ff">
<polygon points=" 439.555, 221.274 438.134, 222.695 436.713, 221.274 438.134, 219.853 436.713, 218.432 438.134, 217.012 439.555, 218.432 440.976, 217.012 442.397, 218.432 440.976, 219.853 442.397, 221.274 440.976, 222.695 439.555, 221.274"/>
</g>
<path d="M68.5315,201.194h 9.12675" fill="none" stroke="#0000ff"/>
<path d="M83.3418,201.194h 9.12675" fill="none" stroke="#0000ff"/>
<g stroke="#0000ff" stroke-width="1" fill="none">
<polygon points=" 79.5527, 200.247 79.5527, 198.352 81.4473, 198.352 81.4473, 200.247 83.3418, 200.247 83.3418, 202.141 81.4473, 202.141 81.4473, 204.036 79.5527, 204.036 79.5527, 202.141 77.6582, 202.141 77.6582, 200.247"/>
</g>
<path d="M92.4685,198.359h 21.0953" fill="none" stroke="#0000ff"/>
<path d="M119.247,198.359h 21.0953" fill="none" stroke="#0000ff"/>
<g stroke="#0000ff" stroke-width="1" fill="none">
<polygon points=" 115.458, 197.412 115.458, 195.518 117.353, 195.518 117.353, 197.412 119.247, 197.412 119.247, 199.307 117.353, 199.307 117.353, 201.201 115.458, 201.201 115.458, 199.307 113.564, 199.307 113.564, 197.412"/>
</g>
<path d="M140.343,194.004h 21.0953" fill="none" stroke="#0000ff"/>
<path d="M167.121,194.004h 21.0953" fill="none" stroke="#0000ff"/>
<g stroke="#0000ff" stroke-width="1" fill="none">
<polygon points=" 163.332, 193.057 163.332, 191.162 165.227, 191.162 165.227, 193.057 167.121, 193.057 167.121, 194.951 165.227, 194.951 165.227, 196.846 163.332, 196.846 163.332, 194.951 161.438, 194.951 161.438, 193.057"/>
</g>
<path d="M188.217,186.714h 21.0953" fill="none" stroke="#0000ff"/>
<path d="M214.995,186.714h 21.0953" fill="none" stroke="#0000ff"/>
<g stroke="#0000ff" stroke-width="1" fill="none">
<polygon points=" 211.206, 185.766 211.206, 183.872 213.101, 183.872 213.101, 185.766 214.995, 185.766 214.995, 187.661 213.101, 187.661 213.101, 189.555 211.206, 189.555 211.206, 187.661 209.312, 187.661 209.312, 185.766"/>
</g>
<path d="M260.028,193.891v -2.19092" fill="none" stroke="#0000ff"/>
<path d="M260.028,186.017v -2.19092" fill="none" stroke="#0000ff"/>
<path d="M236.091,188.859h 21.0953" fill="none" stroke="#0000ff"/>
<path d="M262.869,188.859h 21.0953" fill="none" stroke="#0000ff"/>
<g stroke="#0000ff" stroke-width="1" fill="none">
<polygon points=" 259.08, 187.911 259.08, 186.017 260.975, 186.017 260.975, 187.911 262.869, 187.911 262.869, 189.806 260.975, 189.806 260.975, 191.7 259.08, 191.7 259.08, 189.806 257.186, 189.806 257.186, 187.911"/>
</g>
<path d="M331.839,195.392v -4.42832" fill="none" stroke="#0000ff"/>
<path d="M331.839,185.28v -4.42832" fill="none" stroke="#0000ff"/>
<path d="M283.965,188.122h 45.0323" fill="none" stroke="#0000ff"/>
<path d="M334.68,188.122h 45.0323" fill="none" stroke="#0000ff"/>
<g stroke="#0000ff" stroke-width="1" fill="none">
<polygon points=" 330.891, 187.174 330.891, 185.28 332.786, 185.28 332.786, 187.174 334.68, 187.174 334.68, 189.069 332.786, 189.069 332.786, 190.964 330.891, 190.964 330.891, 189.069 328.997, 189.069 328.997, 187.174"/>
</g>
<path d="M439.555,199.186v -14.9564" fill="none" stroke="#0000ff"/>
<path d="M439.555,178.546v -14.9564" fill="none" stroke="#0000ff"/>
<path d="M379.713,181.388h 57.0008" fill="none" stroke="#0000ff"/>
<path d="M442.397,181.388h 57.0008" fill="none" stroke="#0000ff"/>
<g stroke="#0000ff" stroke-width="1" fill="none">
<polygon points=" 438.608, 180.441 438.608, 178.546 440.502, 178.546 440.502, 180.441 442.397, 180.441 442.397, 182.335 440.502, 182.335 440.502, 184.23 438.608, 184.23 438.608, 182.335 436.713, 182.335 436.713, 180.441"/>
</g>
<text xml:space="preserve" x="85.7525" y="53.2828" fill="black" font-size="19.2386" font-family="Helvetica">PYTHIA8, pAu200GeV with option3</text>
<text xml:space="preserve" x="149.692" y="71.0438" fill="black" font-size="19.2386" font-family="Helvetica">|&lt;1</text>
<text xml:space="preserve" x="139.035" y="71.0438" fill="black" font-size="19.2386" font-family="Times">&#0951;</text>
<text xml:space="preserve" x="109.907" y="71.0438" fill="black" font-size="19.2386" font-family="Helvetica"> in |</text>
<text xml:space="preserve" x="95.6986" y="63.9394" fill="black" font-size="12.9924" font-family="Helvetica">dir</text>
<text xml:space="preserve" x="85.7525" y="71.0438" fill="black" font-size="19.2386" font-family="Times">&#0947;</text>
<text xml:space="preserve" x="139.035" y="88.0943" fill="black" font-size="19.2386" font-family="Helvetica">centrality: 0~10%</text>
<g fill="#00cc00">
<polygon points=" 108.687, 83.6709 108.687, 81.7764 110.581, 81.7764 110.581, 83.6709 112.476, 83.6709 112.476, 85.5654 110.581, 85.5654 110.581, 87.4599 108.687, 87.4599 108.687, 85.5654 106.792, 85.5654 106.792, 83.6709"/>
</g>
<text xml:space="preserve" x="139.035" y="105.855" fill="black" font-size="19.2386" font-family="Helvetica">centrality: 10~20%</text>
<g fill="#33ff99">
<polygon points=" 108.687, 101.178 108.687, 99.2836 110.581, 99.2836 110.581, 101.178 112.476, 101.178 112.476, 103.073 110.581, 103.073 110.581, 104.967 108.687, 104.967 108.687, 103.073 106.792, 103.073 106.792, 101.178"/>
</g>
<text xml:space="preserve" x="139.035" y="122.906" fill="black" font-size="19.2386" font-family="Helvetica">centrality: 20~40%</text>
<g stroke="#00cccc" stroke-width="1" fill="none">
<polygon points=" 108.687, 118.685 108.687, 116.791 110.581, 116.791 110.581, 118.685 112.476, 118.685 112.476, 120.58 110.581, 120.58 110.581, 122.474 108.687, 122.474 108.687, 120.58 106.792, 120.58 106.792, 118.685"/>
</g>
<text xml:space="preserve" x="139.035" y="140.667" fill="black" font-size="19.2386" font-family="Helvetica">centrality: 40~60%</text>
<g fill="#0033ff">
<polygon points=" 109.634, 138.561 108.213, 139.982 106.792, 138.561 108.213, 137.14 106.792, 135.719 108.213, 134.298 109.634, 135.719 111.055, 134.298 112.476, 135.719 111.055, 137.14 112.476, 138.561 111.055, 139.982 109.634, 138.561"/>
</g>
<text xml:space="preserve" x="139.035" y="158.428" fill="black" font-size="19.2386" font-family="Helvetica">centrality: 60~80%</text>
<g stroke="#0000ff" stroke-width="1" fill="none">
<polygon points=" 108.687, 153.7 108.687, 151.805 110.581, 151.805 110.581, 153.7 112.476, 153.7 112.476, 155.594 110.581, 155.594 110.581, 157.489 108.687, 157.489 108.687, 155.594 106.792, 155.594 106.792, 153.7"/>
</g></svg>
