<?xml version="1.0" standalone="no"?>
<svg width="567.429" height="409.002" viewBox="0 0 567.429 409.002" xmlns="http://www.w3.org/2000/svg" shape-rendering="crispEdges">
<title>
/Users/jinhyunpark/npl/gitHub/Centrality_dependent_BiasCorrection/plots/plots_scaled-dNdpT/scaledYield_highpT_pion0_byCentrality.svg
</title>
<desc>
Creator: ROOT Version 6.28/04
CreationDate: Tue Oct 24 12:23:18 2023</desc>
<defs>
</defs>
<rect x="0.5" y="0" width="566.929" height="408.502" fill="white"/>
<rect x="68.5315" y="20.4251" width="430.866" height="339.056" fill="white"/>
<rect x="68.5315" y="20.4251" width="430.866" height="339.056" fill="none" stroke="black"/>
<rect x="68.5315" y="20.4251" width="430.866" height="339.056" fill="white"/>
<rect x="68.5315" y="20.4251" width="430.866" height="339.056" fill="none" stroke="black"/>
<path d="M68.5315,359.481h 430.866" fill="none" stroke="black"/>
<path d="M68.5315,350.168v 9.31384" fill="none" stroke="black"/>
<path d="M80.5,354.824v 4.65692" fill="none" stroke="black"/>
<path d="M92.4685,354.824v 4.65692" fill="none" stroke="black"/>
<path d="M104.437,354.824v 4.65692" fill="none" stroke="black"/>
<path d="M116.406,350.168v 9.31384" fill="none" stroke="black"/>
<path d="M128.374,354.824v 4.65692" fill="none" stroke="black"/>
<path d="M140.343,354.824v 4.65692" fill="none" stroke="black"/>
<path d="M152.311,354.824v 4.65692" fill="none" stroke="black"/>
<path d="M164.28,350.168v 9.31384" fill="none" stroke="black"/>
<path d="M176.248,354.824v 4.65692" fill="none" stroke="black"/>
<path d="M188.217,354.824v 4.65692" fill="none" stroke="black"/>
<path d="M200.185,354.824v 4.65692" fill="none" stroke="black"/>
<path d="M212.154,350.168v 9.31384" fill="none" stroke="black"/>
<path d="M224.122,354.824v 4.65692" fill="none" stroke="black"/>
<path d="M236.091,354.824v 4.65692" fill="none" stroke="black"/>
<path d="M248.059,354.824v 4.65692" fill="none" stroke="black"/>
<path d="M260.028,350.168v 9.31384" fill="none" stroke="black"/>
<path d="M271.996,354.824v 4.65692" fill="none" stroke="black"/>
<path d="M283.965,354.824v 4.65692" fill="none" stroke="black"/>
<path d="M295.933,354.824v 4.65692" fill="none" stroke="black"/>
<path d="M307.902,350.168v 9.31384" fill="none" stroke="black"/>
<path d="M319.87,354.824v 4.65692" fill="none" stroke="black"/>
<path d="M331.839,354.824v 4.65692" fill="none" stroke="black"/>
<path d="M343.807,354.824v 4.65692" fill="none" stroke="black"/>
<path d="M355.776,350.168v 9.31384" fill="none" stroke="black"/>
<path d="M367.744,354.824v 4.65692" fill="none" stroke="black"/>
<path d="M379.713,354.824v 4.65692" fill="none" stroke="black"/>
<path d="M391.681,354.824v 4.65692" fill="none" stroke="black"/>
<path d="M403.65,350.168v 9.31384" fill="none" stroke="black"/>
<path d="M415.618,354.824v 4.65692" fill="none" stroke="black"/>
<path d="M427.587,354.824v 4.65692" fill="none" stroke="black"/>
<path d="M439.555,354.824v 4.65692" fill="none" stroke="black"/>
<path d="M451.524,350.168v 9.31384" fill="none" stroke="black"/>
<path d="M463.492,354.824v 4.65692" fill="none" stroke="black"/>
<path d="M475.461,354.824v 4.65692" fill="none" stroke="black"/>
<path d="M487.429,354.824v 4.65692" fill="none" stroke="black"/>
<path d="M499.398,350.168v 9.31384" fill="none" stroke="black"/>
<text xml:space="preserve" x="64.4394" y="372.269" fill="black" font-size="13.617" font-family="Helvetica">2</text>
<text xml:space="preserve" x="112.749" y="372.269" fill="black" font-size="13.617" font-family="Helvetica">4</text>
<text xml:space="preserve" x="160.348" y="372.269" fill="black" font-size="13.617" font-family="Helvetica">6</text>
<text xml:space="preserve" x="207.948" y="372.269" fill="black" font-size="13.617" font-family="Helvetica">8</text>
<text xml:space="preserve" x="251.995" y="372.269" fill="black" font-size="13.617" font-family="Helvetica">10</text>
<text xml:space="preserve" x="299.594" y="372.269" fill="black" font-size="13.617" font-family="Helvetica">12</text>
<text xml:space="preserve" x="347.904" y="372.269" fill="black" font-size="13.617" font-family="Helvetica">14</text>
<text xml:space="preserve" x="395.503" y="372.269" fill="black" font-size="13.617" font-family="Helvetica">16</text>
<text xml:space="preserve" x="443.103" y="372.269" fill="black" font-size="13.617" font-family="Helvetica">18</text>
<text xml:space="preserve" x="491.412" y="372.269" fill="black" font-size="13.617" font-family="Helvetica">20</text>
<text xml:space="preserve" x="453.759" y="384.347" fill="black" font-size="13.617" font-family="Helvetica">(GeV/c)</text>
<text xml:space="preserve" x="448.076" y="392.162" fill="black" font-size="9.24468" font-family="Helvetica">T</text>
<text xml:space="preserve" x="440.261" y="384.347" fill="black" font-size="13.617" font-family="Helvetica">p</text>
<path d="M68.5315,20.4251h 430.866" fill="none" stroke="black"/>
<path d="M68.5315,29.7389v -9.31384" fill="none" stroke="black"/>
<path d="M80.5,25.082v -4.65692" fill="none" stroke="black"/>
<path d="M92.4685,25.082v -4.65692" fill="none" stroke="black"/>
<path d="M104.437,25.082v -4.65692" fill="none" stroke="black"/>
<path d="M116.406,29.7389v -9.31384" fill="none" stroke="black"/>
<path d="M128.374,25.082v -4.65692" fill="none" stroke="black"/>
<path d="M140.343,25.082v -4.65692" fill="none" stroke="black"/>
<path d="M152.311,25.082v -4.65692" fill="none" stroke="black"/>
<path d="M164.28,29.7389v -9.31384" fill="none" stroke="black"/>
<path d="M176.248,25.082v -4.65692" fill="none" stroke="black"/>
<path d="M188.217,25.082v -4.65692" fill="none" stroke="black"/>
<path d="M200.185,25.082v -4.65692" fill="none" stroke="black"/>
<path d="M212.154,29.7389v -9.31384" fill="none" stroke="black"/>
<path d="M224.122,25.082v -4.65692" fill="none" stroke="black"/>
<path d="M236.091,25.082v -4.65692" fill="none" stroke="black"/>
<path d="M248.059,25.082v -4.65692" fill="none" stroke="black"/>
<path d="M260.028,29.7389v -9.31384" fill="none" stroke="black"/>
<path d="M271.996,25.082v -4.65692" fill="none" stroke="black"/>
<path d="M283.965,25.082v -4.65692" fill="none" stroke="black"/>
<path d="M295.933,25.082v -4.65692" fill="none" stroke="black"/>
<path d="M307.902,29.7389v -9.31384" fill="none" stroke="black"/>
<path d="M319.87,25.082v -4.65692" fill="none" stroke="black"/>
<path d="M331.839,25.082v -4.65692" fill="none" stroke="black"/>
<path d="M343.807,25.082v -4.65692" fill="none" stroke="black"/>
<path d="M355.776,29.7389v -9.31384" fill="none" stroke="black"/>
<path d="M367.744,25.082v -4.65692" fill="none" stroke="black"/>
<path d="M379.713,25.082v -4.65692" fill="none" stroke="black"/>
<path d="M391.681,25.082v -4.65692" fill="none" stroke="black"/>
<path d="M403.65,29.7389v -9.31384" fill="none" stroke="black"/>
<path d="M415.618,25.082v -4.65692" fill="none" stroke="black"/>
<path d="M427.587,25.082v -4.65692" fill="none" stroke="black"/>
<path d="M439.555,25.082v -4.65692" fill="none" stroke="black"/>
<path d="M451.524,29.7389v -9.31384" fill="none" stroke="black"/>
<path d="M463.492,25.082v -4.65692" fill="none" stroke="black"/>
<path d="M475.461,25.082v -4.65692" fill="none" stroke="black"/>
<path d="M487.429,25.082v -4.65692" fill="none" stroke="black"/>
<path d="M499.398,29.7389v -9.31384" fill="none" stroke="black"/>
<path d="M68.5315,359.481v -339.056" fill="none" stroke="black"/>
<path d="M82.648,359.481h -14.1165" fill="none" stroke="black"/>
<text xml:space="preserve" x="53.7828" y="358.771" fill="black" font-size="9.24468" font-family="Helvetica">10</text>
<text xml:space="preserve" x="48.8097" y="358.771" fill="black" font-size="9.24468" font-family="Times">&#8722;</text>
<text xml:space="preserve" x="33.8906" y="365.165" fill="black" font-size="13.617" font-family="Helvetica">10</text>
<path d="M75.5898,346.723h -7.05827" fill="none" stroke="black"/>
<path d="M75.5898,339.26h -7.05827" fill="none" stroke="black"/>
<path d="M75.5898,333.965h -7.05827" fill="none" stroke="black"/>
<path d="M75.5898,329.858h -7.05827" fill="none" stroke="black"/>
<path d="M75.5898,326.502h -7.05827" fill="none" stroke="black"/>
<path d="M75.5898,323.664h -7.05827" fill="none" stroke="black"/>
<path d="M75.5898,321.207h -7.05827" fill="none" stroke="black"/>
<path d="M75.5898,319.039h -7.05827" fill="none" stroke="black"/>
<path d="M82.648,317.099h -14.1165" fill="none" stroke="black"/>
<text xml:space="preserve" x="58.7559" y="316.855" fill="black" font-size="9.24468" font-family="Helvetica">9</text>
<text xml:space="preserve" x="53.7828" y="316.855" fill="black" font-size="9.24468" font-family="Times">&#8722;</text>
<text xml:space="preserve" x="38.8636" y="323.249" fill="black" font-size="13.617" font-family="Helvetica">10</text>
<path d="M75.5898,304.341h -7.05827" fill="none" stroke="black"/>
<path d="M75.5898,296.878h -7.05827" fill="none" stroke="black"/>
<path d="M75.5898,291.583h -7.05827" fill="none" stroke="black"/>
<path d="M75.5898,287.476h -7.05827" fill="none" stroke="black"/>
<path d="M75.5898,284.12h -7.05827" fill="none" stroke="black"/>
<path d="M75.5898,281.282h -7.05827" fill="none" stroke="black"/>
<path d="M75.5898,278.825h -7.05827" fill="none" stroke="black"/>
<path d="M75.5898,276.657h -7.05827" fill="none" stroke="black"/>
<path d="M82.648,274.717h -14.1165" fill="none" stroke="black"/>
<text xml:space="preserve" x="58.7559" y="274.229" fill="black" font-size="9.24468" font-family="Helvetica">8</text>
<text xml:space="preserve" x="53.7828" y="274.229" fill="black" font-size="9.24468" font-family="Times">&#8722;</text>
<text xml:space="preserve" x="38.8636" y="280.623" fill="black" font-size="13.617" font-family="Helvetica">10</text>
<path d="M75.5898,261.959h -7.05827" fill="none" stroke="black"/>
<path d="M75.5898,254.496h -7.05827" fill="none" stroke="black"/>
<path d="M75.5898,249.201h -7.05827" fill="none" stroke="black"/>
<path d="M75.5898,245.094h -7.05827" fill="none" stroke="black"/>
<path d="M75.5898,241.738h -7.05827" fill="none" stroke="black"/>
<path d="M75.5898,238.9h -7.05827" fill="none" stroke="black"/>
<path d="M75.5898,236.442h -7.05827" fill="none" stroke="black"/>
<path d="M75.5898,234.275h -7.05827" fill="none" stroke="black"/>
<path d="M82.648,232.335h -14.1165" fill="none" stroke="black"/>
<text xml:space="preserve" x="58.7559" y="233.024" fill="black" font-size="9.24468" font-family="Helvetica">7</text>
<text xml:space="preserve" x="53.7828" y="233.024" fill="black" font-size="9.24468" font-family="Times">&#8722;</text>
<text xml:space="preserve" x="38.8636" y="238.707" fill="black" font-size="13.617" font-family="Helvetica">10</text>
<path d="M75.5898,219.577h -7.05827" fill="none" stroke="black"/>
<path d="M75.5898,212.114h -7.05827" fill="none" stroke="black"/>
<path d="M75.5898,206.819h -7.05827" fill="none" stroke="black"/>
<path d="M75.5898,202.711h -7.05827" fill="none" stroke="black"/>
<path d="M75.5898,199.356h -7.05827" fill="none" stroke="black"/>
<path d="M75.5898,196.518h -7.05827" fill="none" stroke="black"/>
<path d="M75.5898,194.06h -7.05827" fill="none" stroke="black"/>
<path d="M75.5898,191.893h -7.05827" fill="none" stroke="black"/>
<path d="M82.648,189.953h -14.1165" fill="none" stroke="black"/>
<text xml:space="preserve" x="58.7559" y="189.687" fill="black" font-size="9.24468" font-family="Helvetica">6</text>
<text xml:space="preserve" x="53.7828" y="189.687" fill="black" font-size="9.24468" font-family="Times">&#8722;</text>
<text xml:space="preserve" x="38.8636" y="196.081" fill="black" font-size="13.617" font-family="Helvetica">10</text>
<path d="M75.5898,177.195h -7.05827" fill="none" stroke="black"/>
<path d="M75.5898,169.732h -7.05827" fill="none" stroke="black"/>
<path d="M75.5898,164.437h -7.05827" fill="none" stroke="black"/>
<path d="M75.5898,160.329h -7.05827" fill="none" stroke="black"/>
<path d="M75.5898,156.974h -7.05827" fill="none" stroke="black"/>
<path d="M75.5898,154.136h -7.05827" fill="none" stroke="black"/>
<path d="M75.5898,151.678h -7.05827" fill="none" stroke="black"/>
<path d="M75.5898,149.51h -7.05827" fill="none" stroke="black"/>
<path d="M82.648,147.571h -14.1165" fill="none" stroke="black"/>
<text xml:space="preserve" x="58.7559" y="147.061" fill="black" font-size="9.24468" font-family="Helvetica">5</text>
<text xml:space="preserve" x="53.7828" y="147.061" fill="black" font-size="9.24468" font-family="Times">&#8722;</text>
<text xml:space="preserve" x="38.8636" y="153.455" fill="black" font-size="13.617" font-family="Helvetica">10</text>
<path d="M75.5898,134.813h -7.05827" fill="none" stroke="black"/>
<path d="M75.5898,127.35h -7.05827" fill="none" stroke="black"/>
<path d="M75.5898,122.055h -7.05827" fill="none" stroke="black"/>
<path d="M75.5898,117.947h -7.05827" fill="none" stroke="black"/>
<path d="M75.5898,114.592h -7.05827" fill="none" stroke="black"/>
<path d="M75.5898,111.754h -7.05827" fill="none" stroke="black"/>
<path d="M75.5898,109.296h -7.05827" fill="none" stroke="black"/>
<path d="M75.5898,107.128h -7.05827" fill="none" stroke="black"/>
<path d="M82.648,105.189h -14.1165" fill="none" stroke="black"/>
<text xml:space="preserve" x="58.7559" y="105.855" fill="black" font-size="9.24468" font-family="Helvetica">4</text>
<text xml:space="preserve" x="53.7828" y="105.855" fill="black" font-size="9.24468" font-family="Times">&#8722;</text>
<text xml:space="preserve" x="38.8636" y="111.539" fill="black" font-size="13.617" font-family="Helvetica">10</text>
<path d="M75.5898,92.4309h -7.05827" fill="none" stroke="black"/>
<path d="M75.5898,84.9678h -7.05827" fill="none" stroke="black"/>
<path d="M75.5898,79.6726h -7.05827" fill="none" stroke="black"/>
<path d="M75.5898,75.5654h -7.05827" fill="none" stroke="black"/>
<path d="M75.5898,72.2095h -7.05827" fill="none" stroke="black"/>
<path d="M75.5898,69.3722h -7.05827" fill="none" stroke="black"/>
<path d="M75.5898,66.9144h -7.05827" fill="none" stroke="black"/>
<path d="M75.5898,64.7464h -7.05827" fill="none" stroke="black"/>
<path d="M82.648,62.8071h -14.1165" fill="none" stroke="black"/>
<text xml:space="preserve" x="58.7559" y="62.5185" fill="black" font-size="9.24468" font-family="Helvetica">3</text>
<text xml:space="preserve" x="53.7828" y="62.5185" fill="black" font-size="9.24468" font-family="Times">&#8722;</text>
<text xml:space="preserve" x="38.8636" y="68.9124" fill="black" font-size="13.617" font-family="Helvetica">10</text>
<path d="M75.5898,50.0489h -7.05827" fill="none" stroke="black"/>
<path d="M75.5898,42.5857h -7.05827" fill="none" stroke="black"/>
<path d="M75.5898,37.2906h -7.05827" fill="none" stroke="black"/>
<path d="M75.5898,33.1833h -7.05827" fill="none" stroke="black"/>
<path d="M75.5898,29.8275h -7.05827" fill="none" stroke="black"/>
<path d="M75.5898,26.9901h -7.05827" fill="none" stroke="black"/>
<path d="M75.5898,24.5323h -7.05827" fill="none" stroke="black"/>
<path d="M75.5898,22.3644h -7.05827" fill="none" stroke="black"/>
<path d="M82.648,20.4251h -14.1165" fill="none" stroke="black"/>
<text xml:space="preserve" x="58.7559" y="20.6027" fill="black" font-size="9.24468" font-family="Helvetica">2</text>
<text xml:space="preserve" x="53.7828" y="20.6027" fill="black" font-size="9.24468" font-family="Times">&#8722;</text>
<text xml:space="preserve" x="38.8636" y="26.2862" fill="black" font-size="13.617" font-family="Helvetica">10</text>
<g transform="rotate(-90,22.5236,24.1549)">
<text xml:space="preserve" x="22.5236" y="24.1549" fill="black" font-size="13.617" font-family="Helvetica"> </text>
</g>
<g transform="rotate(-90,38.1532,31.9697)">
<text xml:space="preserve" x="38.1532" y="31.9697" fill="black" font-size="9.24468" font-family="Helvetica">T</text>
</g>
<g transform="rotate(-90,30.3384,46.8889)">
<text xml:space="preserve" x="30.3384" y="46.8889" fill="black" font-size="13.617" font-family="Helvetica">dp</text>
</g>
<g transform="rotate(-90,6.1835,27.7071)">
<text xml:space="preserve" x="6.1835" y="27.7071" fill="black" font-size="6.32979" font-family="Helvetica">0</text>
</g>
<g transform="rotate(-90,9.73569,32.6801)">
<text xml:space="preserve" x="9.73569" y="32.6801" fill="black" font-size="9.24468" font-family="Times">&#0960;</text>
</g>
<g transform="rotate(-90,16.1296,49.0202)">
<text xml:space="preserve" x="16.1296" y="49.0202" fill="black" font-size="13.617" font-family="Helvetica">dN</text>
</g>
<path d="M18.9714,49.0202v -24.8653" fill="none" stroke="black" stroke-width="2"/>
<g transform="rotate(-90,22.5236,53.2828)">
<text xml:space="preserve" x="22.5236" y="53.2828" fill="black" font-size="13.617" font-family="Helvetica"> </text>
</g>
<g transform="rotate(-90,34.601,76.0168)">
<text xml:space="preserve" x="34.601" y="76.0168" fill="black" font-size="9.24468" font-family="Helvetica">event</text>
</g>
<g transform="rotate(-90,30.3384,85.2525)">
<text xml:space="preserve" x="30.3384" y="85.2525" fill="black" font-size="13.617" font-family="Helvetica">N</text>
</g>
<g transform="rotate(-90,16.8401,71.7542)">
<text xml:space="preserve" x="16.8401" y="71.7542" fill="black" font-size="13.617" font-family="Helvetica">1</text>
</g>
<path d="M18.9714,85.2525v -31.9697" fill="none" stroke="black" stroke-width="2"/>
<g transform="rotate(-90,22.5236,89.5151)">
<text xml:space="preserve" x="22.5236" y="89.5151" fill="black" font-size="13.617" font-family="Helvetica"> </text>
</g>
<g transform="rotate(-90,37.4427,107.276)">
<text xml:space="preserve" x="37.4427" y="107.276" fill="black" font-size="9.24468" font-family="Helvetica">cent</text>
</g>
<g transform="rotate(-90,31.0488,111.539)">
<text xml:space="preserve" x="31.0488" y="111.539" fill="black" font-size="13.617" font-family="Times">&#0062;</text>
</g>
<g transform="rotate(-90,31.0488,115.801)">
<text xml:space="preserve" x="31.0488" y="115.801" fill="black" font-size="13.617" font-family="Helvetica"> </text>
</g>
<g transform="rotate(-90,37.4427,129.3)">
<text xml:space="preserve" x="37.4427" y="129.3" fill="black" font-size="9.24468" font-family="Helvetica">coll</text>
</g>
<g transform="rotate(-90,31.0488,142.088)">
<text xml:space="preserve" x="31.0488" y="142.088" fill="black" font-size="13.617" font-family="Helvetica"> N</text>
</g>
<g transform="rotate(-90,31.0488,146.35)">
<text xml:space="preserve" x="31.0488" y="146.35" fill="black" font-size="13.617" font-family="Times">&#0060;</text>
</g>
<g transform="rotate(-90,16.8401,120.064)">
<text xml:space="preserve" x="16.8401" y="120.064" fill="black" font-size="13.617" font-family="Helvetica">1</text>
</g>
<path d="M18.9714,146.35v -56.835" fill="none" stroke="black" stroke-width="2"/>
<path d="M499.398,359.481v -339.056" fill="none" stroke="black"/>
<path d="M485.281,359.481h 14.1165" fill="none" stroke="black"/>
<path d="M492.339,346.723h 7.05827" fill="none" stroke="black"/>
<path d="M492.339,339.26h 7.05827" fill="none" stroke="black"/>
<path d="M492.339,333.965h 7.05827" fill="none" stroke="black"/>
<path d="M492.339,329.858h 7.05827" fill="none" stroke="black"/>
<path d="M492.339,326.502h 7.05827" fill="none" stroke="black"/>
<path d="M492.339,323.664h 7.05827" fill="none" stroke="black"/>
<path d="M492.339,321.207h 7.05827" fill="none" stroke="black"/>
<path d="M492.339,319.039h 7.05827" fill="none" stroke="black"/>
<path d="M485.281,317.099h 14.1165" fill="none" stroke="black"/>
<path d="M492.339,304.341h 7.05827" fill="none" stroke="black"/>
<path d="M492.339,296.878h 7.05827" fill="none" stroke="black"/>
<path d="M492.339,291.583h 7.05827" fill="none" stroke="black"/>
<path d="M492.339,287.476h 7.05827" fill="none" stroke="black"/>
<path d="M492.339,284.12h 7.05827" fill="none" stroke="black"/>
<path d="M492.339,281.282h 7.05827" fill="none" stroke="black"/>
<path d="M492.339,278.825h 7.05827" fill="none" stroke="black"/>
<path d="M492.339,276.657h 7.05827" fill="none" stroke="black"/>
<path d="M485.281,274.717h 14.1165" fill="none" stroke="black"/>
<path d="M492.339,261.959h 7.05827" fill="none" stroke="black"/>
<path d="M492.339,254.496h 7.05827" fill="none" stroke="black"/>
<path d="M492.339,249.201h 7.05827" fill="none" stroke="black"/>
<path d="M492.339,245.094h 7.05827" fill="none" stroke="black"/>
<path d="M492.339,241.738h 7.05827" fill="none" stroke="black"/>
<path d="M492.339,238.9h 7.05827" fill="none" stroke="black"/>
<path d="M492.339,236.442h 7.05827" fill="none" stroke="black"/>
<path d="M492.339,234.275h 7.05827" fill="none" stroke="black"/>
<path d="M485.281,232.335h 14.1165" fill="none" stroke="black"/>
<path d="M492.339,219.577h 7.05827" fill="none" stroke="black"/>
<path d="M492.339,212.114h 7.05827" fill="none" stroke="black"/>
<path d="M492.339,206.819h 7.05827" fill="none" stroke="black"/>
<path d="M492.339,202.711h 7.05827" fill="none" stroke="black"/>
<path d="M492.339,199.356h 7.05827" fill="none" stroke="black"/>
<path d="M492.339,196.518h 7.05827" fill="none" stroke="black"/>
<path d="M492.339,194.06h 7.05827" fill="none" stroke="black"/>
<path d="M492.339,191.893h 7.05827" fill="none" stroke="black"/>
<path d="M485.281,189.953h 14.1165" fill="none" stroke="black"/>
<path d="M492.339,177.195h 7.05827" fill="none" stroke="black"/>
<path d="M492.339,169.732h 7.05827" fill="none" stroke="black"/>
<path d="M492.339,164.437h 7.05827" fill="none" stroke="black"/>
<path d="M492.339,160.329h 7.05827" fill="none" stroke="black"/>
<path d="M492.339,156.974h 7.05827" fill="none" stroke="black"/>
<path d="M492.339,154.136h 7.05827" fill="none" stroke="black"/>
<path d="M492.339,151.678h 7.05827" fill="none" stroke="black"/>
<path d="M492.339,149.51h 7.05827" fill="none" stroke="black"/>
<path d="M485.281,147.571h 14.1165" fill="none" stroke="black"/>
<path d="M492.339,134.813h 7.05827" fill="none" stroke="black"/>
<path d="M492.339,127.35h 7.05827" fill="none" stroke="black"/>
<path d="M492.339,122.055h 7.05827" fill="none" stroke="black"/>
<path d="M492.339,117.947h 7.05827" fill="none" stroke="black"/>
<path d="M492.339,114.592h 7.05827" fill="none" stroke="black"/>
<path d="M492.339,111.754h 7.05827" fill="none" stroke="black"/>
<path d="M492.339,109.296h 7.05827" fill="none" stroke="black"/>
<path d="M492.339,107.128h 7.05827" fill="none" stroke="black"/>
<path d="M485.281,105.189h 14.1165" fill="none" stroke="black"/>
<path d="M492.339,92.4309h 7.05827" fill="none" stroke="black"/>
<path d="M492.339,84.9678h 7.05827" fill="none" stroke="black"/>
<path d="M492.339,79.6726h 7.05827" fill="none" stroke="black"/>
<path d="M492.339,75.5654h 7.05827" fill="none" stroke="black"/>
<path d="M492.339,72.2095h 7.05827" fill="none" stroke="black"/>
<path d="M492.339,69.3722h 7.05827" fill="none" stroke="black"/>
<path d="M492.339,66.9144h 7.05827" fill="none" stroke="black"/>
<path d="M492.339,64.7464h 7.05827" fill="none" stroke="black"/>
<path d="M485.281,62.8071h 14.1165" fill="none" stroke="black"/>
<path d="M492.339,50.0489h 7.05827" fill="none" stroke="black"/>
<path d="M492.339,42.5857h 7.05827" fill="none" stroke="black"/>
<path d="M492.339,37.2906h 7.05827" fill="none" stroke="black"/>
<path d="M492.339,33.1833h 7.05827" fill="none" stroke="black"/>
<path d="M492.339,29.8275h 7.05827" fill="none" stroke="black"/>
<path d="M492.339,26.9901h 7.05827" fill="none" stroke="black"/>
<path d="M492.339,24.5323h 7.05827" fill="none" stroke="black"/>
<path d="M492.339,22.3644h 7.05827" fill="none" stroke="black"/>
<path d="M485.281,20.4251h 14.1165" fill="none" stroke="black"/>
<path d="M68.5315,44.8186h 9.12675" fill="none" stroke="black"/>
<path d="M83.3418,44.8186h 9.12675" fill="none" stroke="black"/>
<g fill="black">
<polygon points=" 79.5527, 43.8714 79.5527, 41.9769 81.4473, 41.9769 81.4473, 43.8714 83.3418, 43.8714 83.3418, 45.7659 81.4473, 45.7659 81.4473, 47.6604 79.5527, 47.6604 79.5527, 45.7659 77.6582, 45.7659 77.6582, 43.8714"/>
</g>
<path d="M92.4685,95.2346h 21.0953" fill="none" stroke="black"/>
<path d="M119.247,95.2346h 21.0953" fill="none" stroke="black"/>
<g fill="black">
<polygon points=" 115.458, 94.2874 115.458, 92.3929 117.353, 92.3929 117.353, 94.2874 119.247, 94.2874 119.247, 96.1819 117.353, 96.1819 117.353, 98.0764 115.458, 98.0764 115.458, 96.1819 113.564, 96.1819 113.564, 94.2874"/>
</g>
<path d="M140.343,152.47h 21.0953" fill="none" stroke="black"/>
<path d="M167.121,152.47h 21.0953" fill="none" stroke="black"/>
<g fill="black">
<polygon points=" 163.332, 151.522 163.332, 149.628 165.227, 149.628 165.227, 151.522 167.121, 151.522 167.121, 153.417 165.227, 153.417 165.227, 155.311 163.332, 155.311 163.332, 153.417 161.438, 153.417 161.438, 151.522"/>
</g>
<path d="M188.217,192.313h 21.0953" fill="none" stroke="black"/>
<path d="M214.995,192.313h 21.0953" fill="none" stroke="black"/>
<g fill="black">
<polygon points=" 211.206, 191.366 211.206, 189.471 213.101, 189.471 213.101, 191.366 214.995, 191.366 214.995, 193.26 213.101, 193.26 213.101, 195.155 211.206, 195.155 211.206, 193.26 209.312, 193.26 209.312, 191.366"/>
</g>
<path d="M236.091,222.237h 21.0953" fill="none" stroke="black"/>
<path d="M262.869,222.237h 21.0953" fill="none" stroke="black"/>
<g fill="black">
<polygon points=" 259.08, 221.29 259.08, 219.395 260.975, 219.395 260.975, 221.29 262.869, 221.29 262.869, 223.184 260.975, 223.184 260.975, 225.079 259.08, 225.079 259.08, 223.184 257.186, 223.184 257.186, 221.29"/>
</g>
<path d="M283.965,254.436h 45.0323" fill="none" stroke="black"/>
<path d="M334.68,254.436h 45.0323" fill="none" stroke="black"/>
<g fill="black">
<polygon points=" 330.891, 253.488 330.891, 251.594 332.786, 251.594 332.786, 253.488 334.68, 253.488 334.68, 255.383 332.786, 255.383 332.786, 257.277 330.891, 257.277 330.891, 255.383 328.997, 255.383 328.997, 253.488"/>
</g>
<path d="M379.713,296.691h 57.0008" fill="none" stroke="black"/>
<path d="M442.397,296.691h 57.0008" fill="none" stroke="black"/>
<g fill="black">
<polygon points=" 438.608, 295.744 438.608, 293.849 440.502, 293.849 440.502, 295.744 442.397, 295.744 442.397, 297.638 440.502, 297.638 440.502, 299.533 438.608, 299.533 438.608, 297.638 436.713, 297.638 436.713, 295.744"/>
</g>
<path d="M68.5315,47.1751h 9.12675" fill="none" stroke="#ffcc00"/>
<path d="M83.3418,47.1751h 9.12675" fill="none" stroke="#ffcc00"/>
<g fill="#ffcc00">
<polygon points=" 79.5527, 46.2279 79.5527, 44.3334 81.4473, 44.3334 81.4473, 46.2279 83.3418, 46.2279 83.3418, 48.1224 81.4473, 48.1224 81.4473, 50.0169 79.5527, 50.0169 79.5527, 48.1224 77.6582, 48.1224 77.6582, 46.2279"/>
</g>
<path d="M92.4685,98.312h 21.0953" fill="none" stroke="#ffcc00"/>
<path d="M119.247,98.312h 21.0953" fill="none" stroke="#ffcc00"/>
<g fill="#ffcc00">
<polygon points=" 115.458, 97.3647 115.458, 95.4702 117.353, 95.4702 117.353, 97.3647 119.247, 97.3647 119.247, 99.2592 117.353, 99.2592 117.353, 101.154 115.458, 101.154 115.458, 99.2592 113.564, 99.2592 113.564, 97.3647"/>
</g>
<path d="M140.343,157.172h 21.0953" fill="none" stroke="#ffcc00"/>
<path d="M167.121,157.172h 21.0953" fill="none" stroke="#ffcc00"/>
<g fill="#ffcc00">
<polygon points=" 163.332, 156.225 163.332, 154.33 165.227, 154.33 165.227, 156.225 167.121, 156.225 167.121, 158.119 165.227, 158.119 165.227, 160.014 163.332, 160.014 163.332, 158.119 161.438, 158.119 161.438, 156.225"/>
</g>
<path d="M188.217,198.654h 21.0953" fill="none" stroke="#ffcc00"/>
<path d="M214.995,198.654h 21.0953" fill="none" stroke="#ffcc00"/>
<g fill="#ffcc00">
<polygon points=" 211.206, 197.707 211.206, 195.812 213.101, 195.812 213.101, 197.707 214.995, 197.707 214.995, 199.601 213.101, 199.601 213.101, 201.496 211.206, 201.496 211.206, 199.601 209.312, 199.601 209.312, 197.707"/>
</g>
<path d="M236.091,229.84h 21.0953" fill="none" stroke="#ffcc00"/>
<path d="M262.869,229.84h 21.0953" fill="none" stroke="#ffcc00"/>
<g fill="#ffcc00">
<polygon points=" 259.08, 228.892 259.08, 226.998 260.975, 226.998 260.975, 228.892 262.869, 228.892 262.869, 230.787 260.975, 230.787 260.975, 232.681 259.08, 232.681 259.08, 230.787 257.186, 230.787 257.186, 228.892"/>
</g>
<path d="M283.965,262.549h 45.0323" fill="none" stroke="#ffcc00"/>
<path d="M334.68,262.549h 45.0323" fill="none" stroke="#ffcc00"/>
<g fill="#ffcc00">
<polygon points=" 330.891, 261.602 330.891, 259.708 332.786, 259.708 332.786, 261.602 334.68, 261.602 334.68, 263.497 332.786, 263.497 332.786, 265.391 330.891, 265.391 330.891, 263.497 328.997, 263.497 328.997, 261.602"/>
</g>
<path d="M379.713,307.138h 57.0008" fill="none" stroke="#ffcc00"/>
<path d="M442.397,307.138h 57.0008" fill="none" stroke="#ffcc00"/>
<g fill="#ffcc00">
<polygon points=" 438.608, 306.19 438.608, 304.296 440.502, 304.296 440.502, 306.19 442.397, 306.19 442.397, 308.085 440.502, 308.085 440.502, 309.979 438.608, 309.979 438.608, 308.085 436.713, 308.085 436.713, 306.19"/>
</g>
<path d="M68.5315,46.0733h 9.12675" fill="none" stroke="#ff0000"/>
<path d="M83.3418,46.0733h 9.12675" fill="none" stroke="#ff0000"/>
<g fill="#ff0000">
<polygon points=" 79.5527, 45.126 79.5527, 43.2315 81.4473, 43.2315 81.4473, 45.126 83.3418, 45.126 83.3418, 47.0205 81.4473, 47.0205 81.4473, 48.915 79.5527, 48.915 79.5527, 47.0205 77.6582, 47.0205 77.6582, 45.126"/>
</g>
<path d="M92.4685,96.872h 21.0953" fill="none" stroke="#ff0000"/>
<path d="M119.247,96.872h 21.0953" fill="none" stroke="#ff0000"/>
<g fill="#ff0000">
<polygon points=" 115.458, 95.9247 115.458, 94.0302 117.353, 94.0302 117.353, 95.9247 119.247, 95.9247 119.247, 97.8192 117.353, 97.8192 117.353, 99.7137 115.458, 99.7137 115.458, 97.8192 113.564, 97.8192 113.564, 95.9247"/>
</g>
<path d="M140.343,155.074h 21.0953" fill="none" stroke="#ff0000"/>
<path d="M167.121,155.074h 21.0953" fill="none" stroke="#ff0000"/>
<g fill="#ff0000">
<polygon points=" 163.332, 154.127 163.332, 152.232 165.227, 152.232 165.227, 154.127 167.121, 154.127 167.121, 156.021 165.227, 156.021 165.227, 157.916 163.332, 157.916 163.332, 156.021 161.438, 156.021 161.438, 154.127"/>
</g>
<path d="M188.217,195.802h 21.0953" fill="none" stroke="#ff0000"/>
<path d="M214.995,195.802h 21.0953" fill="none" stroke="#ff0000"/>
<g fill="#ff0000">
<polygon points=" 211.206, 194.854 211.206, 192.96 213.101, 192.96 213.101, 194.854 214.995, 194.854 214.995, 196.749 213.101, 196.749 213.101, 198.643 211.206, 198.643 211.206, 196.749 209.312, 196.749 209.312, 194.854"/>
</g>
<path d="M236.091,226.424h 21.0953" fill="none" stroke="#ff0000"/>
<path d="M262.869,226.424h 21.0953" fill="none" stroke="#ff0000"/>
<g fill="#ff0000">
<polygon points=" 259.08, 225.476 259.08, 223.582 260.975, 223.582 260.975, 225.476 262.869, 225.476 262.869, 227.371 260.975, 227.371 260.975, 229.265 259.08, 229.265 259.08, 227.371 257.186, 227.371 257.186, 225.476"/>
</g>
<path d="M283.965,259.184h 45.0323" fill="none" stroke="#ff0000"/>
<path d="M334.68,259.184h 45.0323" fill="none" stroke="#ff0000"/>
<g fill="#ff0000">
<polygon points=" 330.891, 258.237 330.891, 256.343 332.786, 256.343 332.786, 258.237 334.68, 258.237 334.68, 260.132 332.786, 260.132 332.786, 262.026 330.891, 262.026 330.891, 260.132 328.997, 260.132 328.997, 258.237"/>
</g>
<path d="M379.713,302.618h 57.0008" fill="none" stroke="#ff0000"/>
<path d="M442.397,302.618h 57.0008" fill="none" stroke="#ff0000"/>
<g fill="#ff0000">
<polygon points=" 438.608, 301.671 438.608, 299.776 440.502, 299.776 440.502, 301.671 442.397, 301.671 442.397, 303.565 440.502, 303.565 440.502, 305.46 438.608, 305.46 438.608, 303.565 436.713, 303.565 436.713, 301.671"/>
</g>
<path d="M68.5315,45.1126h 9.12675" fill="none" stroke="#ff0033"/>
<path d="M83.3418,45.1126h 9.12675" fill="none" stroke="#ff0033"/>
<g stroke="#ff0033" stroke-width="1" fill="none">
<polygon points=" 79.5527, 44.1653 79.5527, 42.2708 81.4473, 42.2708 81.4473, 44.1653 83.3418, 44.1653 83.3418, 46.0598 81.4473, 46.0598 81.4473, 47.9543 79.5527, 47.9543 79.5527, 46.0598 77.6582, 46.0598 77.6582, 44.1653"/>
</g>
<path d="M92.4685,95.6679h 21.0953" fill="none" stroke="#ff0033"/>
<path d="M119.247,95.6679h 21.0953" fill="none" stroke="#ff0033"/>
<g stroke="#ff0033" stroke-width="1" fill="none">
<polygon points=" 115.458, 94.7207 115.458, 92.8262 117.353, 92.8262 117.353, 94.7207 119.247, 94.7207 119.247, 96.6152 117.353, 96.6152 117.353, 98.5097 115.458, 98.5097 115.458, 96.6152 113.564, 96.6152 113.564, 94.7207"/>
</g>
<path d="M140.343,153.33h 21.0953" fill="none" stroke="#ff0033"/>
<path d="M167.121,153.33h 21.0953" fill="none" stroke="#ff0033"/>
<g stroke="#ff0033" stroke-width="1" fill="none">
<polygon points=" 163.332, 152.383 163.332, 150.489 165.227, 150.489 165.227, 152.383 167.121, 152.383 167.121, 154.278 165.227, 154.278 165.227, 156.172 163.332, 156.172 163.332, 154.278 161.438, 154.278 161.438, 152.383"/>
</g>
<path d="M188.217,193.475h 21.0953" fill="none" stroke="#ff0033"/>
<path d="M214.995,193.475h 21.0953" fill="none" stroke="#ff0033"/>
<g stroke="#ff0033" stroke-width="1" fill="none">
<polygon points=" 211.206, 192.528 211.206, 190.634 213.101, 190.634 213.101, 192.528 214.995, 192.528 214.995, 194.423 213.101, 194.423 213.101, 196.317 211.206, 196.317 211.206, 194.423 209.312, 194.423 209.312, 192.528"/>
</g>
<path d="M236.091,223.63h 21.0953" fill="none" stroke="#ff0033"/>
<path d="M262.869,223.63h 21.0953" fill="none" stroke="#ff0033"/>
<g stroke="#ff0033" stroke-width="1" fill="none">
<polygon points=" 259.08, 222.683 259.08, 220.788 260.975, 220.788 260.975, 222.683 262.869, 222.683 262.869, 224.577 260.975, 224.577 260.975, 226.472 259.08, 226.472 259.08, 224.577 257.186, 224.577 257.186, 222.683"/>
</g>
<path d="M283.965,256.321h 45.0323" fill="none" stroke="#ff0033"/>
<path d="M334.68,256.321h 45.0323" fill="none" stroke="#ff0033"/>
<g stroke="#ff0033" stroke-width="1" fill="none">
<polygon points=" 330.891, 255.374 330.891, 253.479 332.786, 253.479 332.786, 255.374 334.68, 255.374 334.68, 257.268 332.786, 257.268 332.786, 259.163 330.891, 259.163 330.891, 257.268 328.997, 257.268 328.997, 255.374"/>
</g>
<path d="M379.713,298.536h 57.0008" fill="none" stroke="#ff0033"/>
<path d="M442.397,298.536h 57.0008" fill="none" stroke="#ff0033"/>
<g stroke="#ff0033" stroke-width="1" fill="none">
<polygon points=" 438.608, 297.589 438.608, 295.695 440.502, 295.695 440.502, 297.589 442.397, 297.589 442.397, 299.484 440.502, 299.484 440.502, 301.378 438.608, 301.378 438.608, 299.484 436.713, 299.484 436.713, 297.589"/>
</g>
<path d="M68.5315,43.9603h 10.5476" fill="none" stroke="#ff00ff"/>
<path d="M81.9209,43.9603h 10.5476" fill="none" stroke="#ff00ff"/>
<g stroke="#ff00ff" stroke-width="1" fill="none">
<polygon points=" 80.5, 45.3812 79.0791, 46.8021 77.6582, 45.3812 79.0791, 43.9603 77.6582, 42.5395 79.0791, 41.1186 80.5, 42.5395 81.9209, 41.1186 83.3418, 42.5395 81.9209, 43.9603 83.3418, 45.3812 81.9209, 46.8021 80.5, 45.3812"/>
</g>
<path d="M92.4685,94.2175h 22.5161" fill="none" stroke="#ff00ff"/>
<path d="M117.826,94.2175h 22.5161" fill="none" stroke="#ff00ff"/>
<g stroke="#ff00ff" stroke-width="1" fill="none">
<polygon points=" 116.406, 95.6384 114.985, 97.0593 113.564, 95.6384 114.985, 94.2175 113.564, 92.7966 114.985, 91.3758 116.406, 92.7966 117.826, 91.3758 119.247, 92.7966 117.826, 94.2175 119.247, 95.6384 117.826, 97.0593 116.406, 95.6384"/>
</g>
<path d="M140.343,151.188h 22.5161" fill="none" stroke="#ff00ff"/>
<path d="M165.7,151.188h 22.5161" fill="none" stroke="#ff00ff"/>
<g stroke="#ff00ff" stroke-width="1" fill="none">
<polygon points=" 164.28, 152.609 162.859, 154.03 161.438, 152.609 162.859, 151.188 161.438, 149.767 162.859, 148.346 164.28, 149.767 165.7, 148.346 167.121, 149.767 165.7, 151.188 167.121, 152.609 165.7, 154.03 164.28, 152.609"/>
</g>
<path d="M188.217,190.888h 22.5161" fill="none" stroke="#ff00ff"/>
<path d="M213.574,190.888h 22.5161" fill="none" stroke="#ff00ff"/>
<g stroke="#ff00ff" stroke-width="1" fill="none">
<polygon points=" 212.154, 192.309 210.733, 193.73 209.312, 192.309 210.733, 190.888 209.312, 189.467 210.733, 188.046 212.154, 189.467 213.574, 188.046 214.995, 189.467 213.574, 190.888 214.995, 192.309 213.574, 193.73 212.154, 192.309"/>
</g>
<path d="M236.091,220.582h 22.5161" fill="none" stroke="#ff00ff"/>
<path d="M261.448,220.582h 22.5161" fill="none" stroke="#ff00ff"/>
<g stroke="#ff00ff" stroke-width="1" fill="none">
<polygon points=" 260.028, 222.003 258.607, 223.424 257.186, 222.003 258.607, 220.582 257.186, 219.161 258.607, 217.74 260.028, 219.161 261.448, 217.74 262.869, 219.161 261.448, 220.582 262.869, 222.003 261.448, 223.424 260.028, 222.003"/>
</g>
<path d="M283.965,252.965h 46.4531" fill="none" stroke="#ff00ff"/>
<path d="M333.259,252.965h 46.4531" fill="none" stroke="#ff00ff"/>
<g stroke="#ff00ff" stroke-width="1" fill="none">
<polygon points=" 331.839, 254.386 330.418, 255.807 328.997, 254.386 330.418, 252.965 328.997, 251.544 330.418, 250.124 331.839, 251.544 333.259, 250.124 334.68, 251.544 333.259, 252.965 334.68, 254.386 333.259, 255.807 331.839, 254.386"/>
</g>
<path d="M379.713,294.682h 58.4216" fill="none" stroke="#ff00ff"/>
<path d="M440.976,294.682h 58.4216" fill="none" stroke="#ff00ff"/>
<g stroke="#ff00ff" stroke-width="1" fill="none">
<polygon points=" 439.555, 296.103 438.134, 297.523 436.713, 296.103 438.134, 294.682 436.713, 293.261 438.134, 291.84 439.555, 293.261 440.976, 291.84 442.397, 293.261 440.976, 294.682 442.397, 296.103 440.976, 297.523 439.555, 296.103"/>
</g>
<path d="M68.5315,42.9522h 9.12675" fill="none" stroke="#cc00ff"/>
<path d="M83.3418,42.9522h 9.12675" fill="none" stroke="#cc00ff"/>
<g stroke="#cc00ff" stroke-width="1" fill="none">
<polygon points=" 79.5527, 42.0049 79.5527, 40.1104 81.4473, 40.1104 81.4473, 42.0049 83.3418, 42.0049 83.3418, 43.8994 81.4473, 43.8994 81.4473, 45.7939 79.5527, 45.7939 79.5527, 43.8994 77.6582, 43.8994 77.6582, 42.0049"/>
</g>
<path d="M92.4685,92.886h 21.0953" fill="none" stroke="#cc00ff"/>
<path d="M119.247,92.886h 21.0953" fill="none" stroke="#cc00ff"/>
<g stroke="#cc00ff" stroke-width="1" fill="none">
<polygon points=" 115.458, 91.9388 115.458, 90.0443 117.353, 90.0443 117.353, 91.9388 119.247, 91.9388 119.247, 93.8333 117.353, 93.8333 117.353, 95.7278 115.458, 95.7278 115.458, 93.8333 113.564, 93.8333 113.564, 91.9388"/>
</g>
<path d="M140.343,149.099h 21.0953" fill="none" stroke="#cc00ff"/>
<path d="M167.121,149.099h 21.0953" fill="none" stroke="#cc00ff"/>
<g stroke="#cc00ff" stroke-width="1" fill="none">
<polygon points=" 163.332, 148.151 163.332, 146.257 165.227, 146.257 165.227, 148.151 167.121, 148.151 167.121, 150.046 165.227, 150.046 165.227, 151.94 163.332, 151.94 163.332, 150.046 161.438, 150.046 161.438, 148.151"/>
</g>
<path d="M188.217,188.074h 21.0953" fill="none" stroke="#cc00ff"/>
<path d="M214.995,188.074h 21.0953" fill="none" stroke="#cc00ff"/>
<g stroke="#cc00ff" stroke-width="1" fill="none">
<polygon points=" 211.206, 187.127 211.206, 185.233 213.101, 185.233 213.101, 187.127 214.995, 187.127 214.995, 189.022 213.101, 189.022 213.101, 190.916 211.206, 190.916 211.206, 189.022 209.312, 189.022 209.312, 187.127"/>
</g>
<path d="M236.091,217.458h 21.0953" fill="none" stroke="#cc00ff"/>
<path d="M262.869,217.458h 21.0953" fill="none" stroke="#cc00ff"/>
<g stroke="#cc00ff" stroke-width="1" fill="none">
<polygon points=" 259.08, 216.511 259.08, 214.616 260.975, 214.616 260.975, 216.511 262.869, 216.511 262.869, 218.405 260.975, 218.405 260.975, 220.3 259.08, 220.3 259.08, 218.405 257.186, 218.405 257.186, 216.511"/>
</g>
<path d="M283.965,249.19h 45.0323" fill="none" stroke="#cc00ff"/>
<path d="M334.68,249.19h 45.0323" fill="none" stroke="#cc00ff"/>
<g stroke="#cc00ff" stroke-width="1" fill="none">
<polygon points=" 330.891, 248.242 330.891, 246.348 332.786, 246.348 332.786, 248.242 334.68, 248.242 334.68, 250.137 332.786, 250.137 332.786, 252.031 330.891, 252.031 330.891, 250.137 328.997, 250.137 328.997, 248.242"/>
</g>
<path d="M379.713,290.455h 57.0008" fill="none" stroke="#cc00ff"/>
<path d="M442.397,290.455h 57.0008" fill="none" stroke="#cc00ff"/>
<g stroke="#cc00ff" stroke-width="1" fill="none">
<polygon points=" 438.608, 289.508 438.608, 287.613 440.502, 287.613 440.502, 289.508 442.397, 289.508 442.397, 291.402 440.502, 291.402 440.502, 293.297 438.608, 293.297 438.608, 291.402 436.713, 291.402 436.713, 289.508"/>
</g>
<text xml:space="preserve" x="181.662" y="51.8619" fill="black" font-size="19.2386" font-family="Helvetica">PYTHIA8, pAu200GeV with option3</text>
<text xml:space="preserve" x="239.207" y="66.7811" fill="black" font-size="19.2386" font-family="Helvetica">|&lt;1</text>
<text xml:space="preserve" x="228.55" y="66.7811" fill="black" font-size="19.2386" font-family="Times">&#0951;</text>
<text xml:space="preserve" x="199.423" y="66.7811" fill="black" font-size="19.2386" font-family="Helvetica"> in |</text>
<text xml:space="preserve" x="192.318" y="59.6768" fill="black" font-size="12.9924" font-family="Helvetica">0</text>
<text xml:space="preserve" x="181.662" y="66.7811" fill="black" font-size="19.2386" font-family="Times">&#0960;</text>
<text xml:space="preserve" x="232.813" y="82.4108" fill="black" font-size="19.2386" font-family="Helvetica">inelastic events(MB)</text>
<g fill="black">
<polygon points=" 203.647, 78.1999 203.647, 76.3054 205.542, 76.3054 205.542, 78.1999 207.436, 78.1999 207.436, 80.0944 205.542, 80.0944 205.542, 81.9889 203.647, 81.9889 203.647, 80.0944 201.753, 80.0944 201.753, 78.1999"/>
</g>
<text xml:space="preserve" x="232.813" y="97.3299" fill="black" font-size="19.2386" font-family="Helvetica">centrality: 0~10%</text>
<g fill="#ffcc00">
<polygon points=" 203.647, 93.5187 203.647, 91.6242 205.542, 91.6242 205.542, 93.5187 207.436, 93.5187 207.436, 95.4132 205.542, 95.4132 205.542, 97.3077 203.647, 97.3077 203.647, 95.4132 201.753, 95.4132 201.753, 93.5187"/>
</g>
<text xml:space="preserve" x="232.813" y="112.96" fill="black" font-size="19.2386" font-family="Helvetica">centrality: 10~20%</text>
<g fill="#ff0000">
<polygon points=" 203.647, 108.838 203.647, 106.943 205.542, 106.943 205.542, 108.838 207.436, 108.838 207.436, 110.732 205.542, 110.732 205.542, 112.627 203.647, 112.627 203.647, 110.732 201.753, 110.732 201.753, 108.838"/>
</g>
<text xml:space="preserve" x="232.813" y="127.879" fill="black" font-size="19.2386" font-family="Helvetica">centrality: 20~40%</text>
<g stroke="#ff0033" stroke-width="1" fill="none">
<polygon points=" 203.647, 124.156 203.647, 122.262 205.542, 122.262 205.542, 124.156 207.436, 124.156 207.436, 126.051 205.542, 126.051 205.542, 127.945 203.647, 127.945 203.647, 126.051 201.753, 126.051 201.753, 124.156"/>
</g>
<text xml:space="preserve" x="232.813" y="143.508" fill="black" font-size="19.2386" font-family="Helvetica">centrality: 40~60%</text>
<g stroke="#ff00ff" stroke-width="1" fill="none">
<polygon points=" 204.594, 141.843 203.174, 143.264 201.753, 141.843 203.174, 140.422 201.753, 139.002 203.174, 137.581 204.594, 139.002 206.015, 137.581 207.436, 139.002 206.015, 140.422 207.436, 141.843 206.015, 143.264 204.594, 141.843"/>
</g>
<text xml:space="preserve" x="232.813" y="159.138" fill="black" font-size="19.2386" font-family="Helvetica">centrality: 60~80%</text>
<g stroke="#cc00ff" stroke-width="1" fill="none">
<polygon points=" 203.647, 154.794 203.647, 152.899 205.542, 152.899 205.542, 154.794 207.436, 154.794 207.436, 156.688 205.542, 156.688 205.542, 158.583 203.647, 158.583 203.647, 156.688 201.753, 156.688 201.753, 154.794"/>
</g></svg>
