<?xml version="1.0" standalone="no"?>
<svg width="567.429" height="409.002" viewBox="0 0 567.429 409.002" xmlns="http://www.w3.org/2000/svg" shape-rendering="crispEdges">
<title>
/Users/jinhyunpark/npl/gitHub/xloadFromServer/Git_Bias_correction_RxA/plots_dirAdded/YavgNcollCent_pion0_lowpT.svg
</title>
<desc>
Creator: ROOT Version 6.28/04
CreationDate: Wed Aug 23 23:20:49 2023</desc>
<defs>
</defs>
<rect x="0.5" y="0" width="566.929" height="408.502" fill="white"/>
<rect x="85.5394" y="20.4251" width="396.85" height="339.056" fill="white"/>
<rect x="85.5394" y="20.4251" width="396.85" height="339.056" fill="none" stroke="black"/>
<rect x="85.5394" y="20.4251" width="396.85" height="339.056" fill="white"/>
<rect x="85.5394" y="20.4251" width="396.85" height="339.056" fill="none" stroke="black"/>
<path d="M85.5394,359.481h 396.85" fill="none" stroke="black"/>
<path d="M85.5394,350.903v 8.57853" fill="none" stroke="black"/>
<path d="M95.4606,355.192v 4.28927" fill="none" stroke="black"/>
<path d="M105.382,355.192v 4.28927" fill="none" stroke="black"/>
<path d="M115.303,355.192v 4.28927" fill="none" stroke="black"/>
<path d="M125.224,355.192v 4.28927" fill="none" stroke="black"/>
<path d="M135.146,350.903v 8.57853" fill="none" stroke="black"/>
<path d="M145.067,355.192v 4.28927" fill="none" stroke="black"/>
<path d="M154.988,355.192v 4.28927" fill="none" stroke="black"/>
<path d="M164.909,355.192v 4.28927" fill="none" stroke="black"/>
<path d="M174.831,355.192v 4.28927" fill="none" stroke="black"/>
<path d="M184.752,350.903v 8.57853" fill="none" stroke="black"/>
<path d="M194.673,355.192v 4.28927" fill="none" stroke="black"/>
<path d="M204.594,355.192v 4.28927" fill="none" stroke="black"/>
<path d="M214.516,355.192v 4.28927" fill="none" stroke="black"/>
<path d="M224.437,355.192v 4.28927" fill="none" stroke="black"/>
<path d="M234.358,350.903v 8.57853" fill="none" stroke="black"/>
<path d="M244.28,355.192v 4.28927" fill="none" stroke="black"/>
<path d="M254.201,355.192v 4.28927" fill="none" stroke="black"/>
<path d="M264.122,355.192v 4.28927" fill="none" stroke="black"/>
<path d="M274.043,355.192v 4.28927" fill="none" stroke="black"/>
<path d="M283.965,350.903v 8.57853" fill="none" stroke="black"/>
<path d="M293.886,355.192v 4.28927" fill="none" stroke="black"/>
<path d="M303.807,355.192v 4.28927" fill="none" stroke="black"/>
<path d="M313.728,355.192v 4.28927" fill="none" stroke="black"/>
<path d="M323.65,355.192v 4.28927" fill="none" stroke="black"/>
<path d="M333.571,350.903v 8.57853" fill="none" stroke="black"/>
<path d="M343.492,355.192v 4.28927" fill="none" stroke="black"/>
<path d="M353.413,355.192v 4.28927" fill="none" stroke="black"/>
<path d="M363.335,355.192v 4.28927" fill="none" stroke="black"/>
<path d="M373.256,355.192v 4.28927" fill="none" stroke="black"/>
<path d="M383.177,350.903v 8.57853" fill="none" stroke="black"/>
<path d="M393.098,355.192v 4.28927" fill="none" stroke="black"/>
<path d="M403.02,355.192v 4.28927" fill="none" stroke="black"/>
<path d="M412.941,355.192v 4.28927" fill="none" stroke="black"/>
<path d="M422.862,355.192v 4.28927" fill="none" stroke="black"/>
<path d="M432.783,350.903v 8.57853" fill="none" stroke="black"/>
<path d="M442.705,355.192v 4.28927" fill="none" stroke="black"/>
<path d="M452.626,355.192v 4.28927" fill="none" stroke="black"/>
<path d="M462.547,355.192v 4.28927" fill="none" stroke="black"/>
<path d="M472.469,355.192v 4.28927" fill="none" stroke="black"/>
<path d="M482.39,350.903v 8.57853" fill="none" stroke="black"/>
<text xml:space="preserve" x="81.4899" y="372.269" fill="black" font-size="13.617" font-family="Helvetica">0</text>
<text xml:space="preserve" x="126.958" y="372.269" fill="black" font-size="13.617" font-family="Helvetica">10</text>
<text xml:space="preserve" x="176.689" y="372.269" fill="black" font-size="13.617" font-family="Helvetica">20</text>
<text xml:space="preserve" x="226.419" y="372.269" fill="black" font-size="13.617" font-family="Helvetica">30</text>
<text xml:space="preserve" x="276.15" y="372.269" fill="black" font-size="13.617" font-family="Helvetica">40</text>
<text xml:space="preserve" x="325.17" y="372.269" fill="black" font-size="13.617" font-family="Helvetica">50</text>
<text xml:space="preserve" x="374.901" y="372.269" fill="black" font-size="13.617" font-family="Helvetica">60</text>
<text xml:space="preserve" x="424.631" y="372.269" fill="black" font-size="13.617" font-family="Helvetica">70</text>
<text xml:space="preserve" x="474.362" y="372.269" fill="black" font-size="13.617" font-family="Helvetica">80</text>
<text xml:space="preserve" x="407.581" y="385.768" fill="black" font-size="13.617" font-family="Helvetica">centrality(%)</text>
<path d="M85.5394,20.4251h 396.85" fill="none" stroke="black"/>
<path d="M85.5394,29.0036v -8.57853" fill="none" stroke="black"/>
<path d="M95.4606,24.7143v -4.28927" fill="none" stroke="black"/>
<path d="M105.382,24.7143v -4.28927" fill="none" stroke="black"/>
<path d="M115.303,24.7143v -4.28927" fill="none" stroke="black"/>
<path d="M125.224,24.7143v -4.28927" fill="none" stroke="black"/>
<path d="M135.146,29.0036v -8.57853" fill="none" stroke="black"/>
<path d="M145.067,24.7143v -4.28927" fill="none" stroke="black"/>
<path d="M154.988,24.7143v -4.28927" fill="none" stroke="black"/>
<path d="M164.909,24.7143v -4.28927" fill="none" stroke="black"/>
<path d="M174.831,24.7143v -4.28927" fill="none" stroke="black"/>
<path d="M184.752,29.0036v -8.57853" fill="none" stroke="black"/>
<path d="M194.673,24.7143v -4.28927" fill="none" stroke="black"/>
<path d="M204.594,24.7143v -4.28927" fill="none" stroke="black"/>
<path d="M214.516,24.7143v -4.28927" fill="none" stroke="black"/>
<path d="M224.437,24.7143v -4.28927" fill="none" stroke="black"/>
<path d="M234.358,29.0036v -8.57853" fill="none" stroke="black"/>
<path d="M244.28,24.7143v -4.28927" fill="none" stroke="black"/>
<path d="M254.201,24.7143v -4.28927" fill="none" stroke="black"/>
<path d="M264.122,24.7143v -4.28927" fill="none" stroke="black"/>
<path d="M274.043,24.7143v -4.28927" fill="none" stroke="black"/>
<path d="M283.965,29.0036v -8.57853" fill="none" stroke="black"/>
<path d="M293.886,24.7143v -4.28927" fill="none" stroke="black"/>
<path d="M303.807,24.7143v -4.28927" fill="none" stroke="black"/>
<path d="M313.728,24.7143v -4.28927" fill="none" stroke="black"/>
<path d="M323.65,24.7143v -4.28927" fill="none" stroke="black"/>
<path d="M333.571,29.0036v -8.57853" fill="none" stroke="black"/>
<path d="M343.492,24.7143v -4.28927" fill="none" stroke="black"/>
<path d="M353.413,24.7143v -4.28927" fill="none" stroke="black"/>
<path d="M363.335,24.7143v -4.28927" fill="none" stroke="black"/>
<path d="M373.256,24.7143v -4.28927" fill="none" stroke="black"/>
<path d="M383.177,29.0036v -8.57853" fill="none" stroke="black"/>
<path d="M393.098,24.7143v -4.28927" fill="none" stroke="black"/>
<path d="M403.02,24.7143v -4.28927" fill="none" stroke="black"/>
<path d="M412.941,24.7143v -4.28927" fill="none" stroke="black"/>
<path d="M422.862,24.7143v -4.28927" fill="none" stroke="black"/>
<path d="M432.783,29.0036v -8.57853" fill="none" stroke="black"/>
<path d="M442.705,24.7143v -4.28927" fill="none" stroke="black"/>
<path d="M452.626,24.7143v -4.28927" fill="none" stroke="black"/>
<path d="M462.547,24.7143v -4.28927" fill="none" stroke="black"/>
<path d="M472.469,24.7143v -4.28927" fill="none" stroke="black"/>
<path d="M482.39,29.0036v -8.57853" fill="none" stroke="black"/>
<path d="M85.5394,359.481v -339.056" fill="none" stroke="black"/>
<path d="M99.6559,359.481h -14.1165" fill="none" stroke="black"/>
<path d="M92.5976,352.7h -7.05827" fill="none" stroke="black"/>
<path d="M92.5976,345.919h -7.05827" fill="none" stroke="black"/>
<path d="M92.5976,339.138h -7.05827" fill="none" stroke="black"/>
<path d="M92.5976,332.357h -7.05827" fill="none" stroke="black"/>
<path d="M99.6559,325.576h -14.1165" fill="none" stroke="black"/>
<path d="M92.5976,318.795h -7.05827" fill="none" stroke="black"/>
<path d="M92.5976,312.014h -7.05827" fill="none" stroke="black"/>
<path d="M92.5976,305.232h -7.05827" fill="none" stroke="black"/>
<path d="M92.5976,298.451h -7.05827" fill="none" stroke="black"/>
<path d="M99.6559,291.67h -14.1165" fill="none" stroke="black"/>
<path d="M92.5976,284.889h -7.05827" fill="none" stroke="black"/>
<path d="M92.5976,278.108h -7.05827" fill="none" stroke="black"/>
<path d="M92.5976,271.327h -7.05827" fill="none" stroke="black"/>
<path d="M92.5976,264.546h -7.05827" fill="none" stroke="black"/>
<path d="M99.6559,257.764h -14.1165" fill="none" stroke="black"/>
<path d="M92.5976,250.983h -7.05827" fill="none" stroke="black"/>
<path d="M92.5976,244.202h -7.05827" fill="none" stroke="black"/>
<path d="M92.5976,237.421h -7.05827" fill="none" stroke="black"/>
<path d="M92.5976,230.64h -7.05827" fill="none" stroke="black"/>
<path d="M99.6559,223.859h -14.1165" fill="none" stroke="black"/>
<path d="M92.5976,217.078h -7.05827" fill="none" stroke="black"/>
<path d="M92.5976,210.297h -7.05827" fill="none" stroke="black"/>
<path d="M92.5976,203.515h -7.05827" fill="none" stroke="black"/>
<path d="M92.5976,196.734h -7.05827" fill="none" stroke="black"/>
<path d="M99.6559,189.953h -14.1165" fill="none" stroke="black"/>
<path d="M92.5976,183.172h -7.05827" fill="none" stroke="black"/>
<path d="M92.5976,176.391h -7.05827" fill="none" stroke="black"/>
<path d="M92.5976,169.61h -7.05827" fill="none" stroke="black"/>
<path d="M92.5976,162.829h -7.05827" fill="none" stroke="black"/>
<path d="M99.6559,156.048h -14.1165" fill="none" stroke="black"/>
<path d="M92.5976,149.266h -7.05827" fill="none" stroke="black"/>
<path d="M92.5976,142.485h -7.05827" fill="none" stroke="black"/>
<path d="M92.5976,135.704h -7.05827" fill="none" stroke="black"/>
<path d="M92.5976,128.923h -7.05827" fill="none" stroke="black"/>
<path d="M99.6559,122.142h -14.1165" fill="none" stroke="black"/>
<path d="M92.5976,115.361h -7.05827" fill="none" stroke="black"/>
<path d="M92.5976,108.58h -7.05827" fill="none" stroke="black"/>
<path d="M92.5976,101.799h -7.05827" fill="none" stroke="black"/>
<path d="M92.5976,95.0175h -7.05827" fill="none" stroke="black"/>
<path d="M99.6559,88.2363h -14.1165" fill="none" stroke="black"/>
<path d="M92.5976,81.4552h -7.05827" fill="none" stroke="black"/>
<path d="M92.5976,74.6741h -7.05827" fill="none" stroke="black"/>
<path d="M92.5976,67.893h -7.05827" fill="none" stroke="black"/>
<path d="M92.5976,61.1118h -7.05827" fill="none" stroke="black"/>
<path d="M99.6559,54.3307h -14.1165" fill="none" stroke="black"/>
<path d="M92.5976,47.5496h -7.05827" fill="none" stroke="black"/>
<path d="M92.5976,40.7685h -7.05827" fill="none" stroke="black"/>
<path d="M92.5976,33.9873h -7.05827" fill="none" stroke="black"/>
<path d="M92.5976,27.2062h -7.05827" fill="none" stroke="black"/>
<path d="M99.6559,20.4251h -14.1165" fill="none" stroke="black"/>
<text xml:space="preserve" x="75.0959" y="364.454" fill="black" font-size="13.617" font-family="Helvetica">0</text>
<text xml:space="preserve" x="63.7289" y="330.353" fill="black" font-size="13.617" font-family="Helvetica">0.5</text>
<text xml:space="preserve" x="77.2272" y="296.963" fill="black" font-size="13.617" font-family="Helvetica">1</text>
<text xml:space="preserve" x="63.7289" y="262.151" fill="black" font-size="13.617" font-family="Helvetica">1.5</text>
<text xml:space="preserve" x="75.0959" y="229.471" fill="black" font-size="13.617" font-family="Helvetica">2</text>
<text xml:space="preserve" x="63.7289" y="194.66" fill="black" font-size="13.617" font-family="Helvetica">2.5</text>
<text xml:space="preserve" x="75.0959" y="160.559" fill="black" font-size="13.617" font-family="Helvetica">3</text>
<text xml:space="preserve" x="63.7289" y="126.458" fill="black" font-size="13.617" font-family="Helvetica">3.5</text>
<text xml:space="preserve" x="75.0959" y="93.7778" fill="black" font-size="13.617" font-family="Helvetica">4</text>
<text xml:space="preserve" x="63.7289" y="58.9663" fill="black" font-size="13.617" font-family="Helvetica">4.5</text>
<text xml:space="preserve" x="75.0959" y="24.8653" fill="black" font-size="13.617" font-family="Helvetica">5</text>
<g transform="rotate(-90,50.9411,24.1549)">
<text xml:space="preserve" x="50.9411" y="24.1549" fill="black" font-size="13.617" font-family="Times">&#0062;</text>
</g>
<g transform="rotate(-90,57.335,37.6532)">
<text xml:space="preserve" x="57.335" y="37.6532" fill="black" font-size="9.24468" font-family="Helvetica">coll</text>
</g>
<g transform="rotate(-90,50.9411,46.8889)">
<text xml:space="preserve" x="50.9411" y="46.8889" fill="black" font-size="13.617" font-family="Helvetica">N</text>
</g>
<g transform="rotate(-90,50.9411,51.1515)">
<text xml:space="preserve" x="50.9411" y="51.1515" fill="black" font-size="13.617" font-family="Times">&#0060;</text>
</g>
<g transform="rotate(-90,50.9411,56.1246)">
<text xml:space="preserve" x="50.9411" y="56.1246" fill="black" font-size="13.617" font-family="Helvetica">/</text>
</g>
<g transform="rotate(-90,40.2845,59.6768)">
<text xml:space="preserve" x="40.2845" y="59.6768" fill="black" font-size="6.32979" font-family="Helvetica">0</text>
</g>
<g transform="rotate(-90,43.8367,64.6498)">
<text xml:space="preserve" x="43.8367" y="64.6498" fill="black" font-size="9.24468" font-family="Times">&#0960;</text>
</g>
<g transform="rotate(-90,50.9411,73.8855)">
<text xml:space="preserve" x="50.9411" y="73.8855" fill="black" font-size="13.617" font-family="Helvetica">Y</text>
</g>
<path d="M482.39,359.481v -339.056" fill="none" stroke="black"/>
<path d="M468.273,359.481h 14.1165" fill="none" stroke="black"/>
<path d="M475.332,352.7h 7.05827" fill="none" stroke="black"/>
<path d="M475.332,345.919h 7.05827" fill="none" stroke="black"/>
<path d="M475.332,339.138h 7.05827" fill="none" stroke="black"/>
<path d="M475.332,332.357h 7.05827" fill="none" stroke="black"/>
<path d="M468.273,325.576h 14.1165" fill="none" stroke="black"/>
<path d="M475.332,318.795h 7.05827" fill="none" stroke="black"/>
<path d="M475.332,312.014h 7.05827" fill="none" stroke="black"/>
<path d="M475.332,305.232h 7.05827" fill="none" stroke="black"/>
<path d="M475.332,298.451h 7.05827" fill="none" stroke="black"/>
<path d="M468.273,291.67h 14.1165" fill="none" stroke="black"/>
<path d="M475.332,284.889h 7.05827" fill="none" stroke="black"/>
<path d="M475.332,278.108h 7.05827" fill="none" stroke="black"/>
<path d="M475.332,271.327h 7.05827" fill="none" stroke="black"/>
<path d="M475.332,264.546h 7.05827" fill="none" stroke="black"/>
<path d="M468.273,257.764h 14.1165" fill="none" stroke="black"/>
<path d="M475.332,250.983h 7.05827" fill="none" stroke="black"/>
<path d="M475.332,244.202h 7.05827" fill="none" stroke="black"/>
<path d="M475.332,237.421h 7.05827" fill="none" stroke="black"/>
<path d="M475.332,230.64h 7.05827" fill="none" stroke="black"/>
<path d="M468.273,223.859h 14.1165" fill="none" stroke="black"/>
<path d="M475.332,217.078h 7.05827" fill="none" stroke="black"/>
<path d="M475.332,210.297h 7.05827" fill="none" stroke="black"/>
<path d="M475.332,203.515h 7.05827" fill="none" stroke="black"/>
<path d="M475.332,196.734h 7.05827" fill="none" stroke="black"/>
<path d="M468.273,189.953h 14.1165" fill="none" stroke="black"/>
<path d="M475.332,183.172h 7.05827" fill="none" stroke="black"/>
<path d="M475.332,176.391h 7.05827" fill="none" stroke="black"/>
<path d="M475.332,169.61h 7.05827" fill="none" stroke="black"/>
<path d="M475.332,162.829h 7.05827" fill="none" stroke="black"/>
<path d="M468.273,156.048h 14.1165" fill="none" stroke="black"/>
<path d="M475.332,149.266h 7.05827" fill="none" stroke="black"/>
<path d="M475.332,142.485h 7.05827" fill="none" stroke="black"/>
<path d="M475.332,135.704h 7.05827" fill="none" stroke="black"/>
<path d="M475.332,128.923h 7.05827" fill="none" stroke="black"/>
<path d="M468.273,122.142h 14.1165" fill="none" stroke="black"/>
<path d="M475.332,115.361h 7.05827" fill="none" stroke="black"/>
<path d="M475.332,108.58h 7.05827" fill="none" stroke="black"/>
<path d="M475.332,101.799h 7.05827" fill="none" stroke="black"/>
<path d="M475.332,95.0175h 7.05827" fill="none" stroke="black"/>
<path d="M468.273,88.2363h 14.1165" fill="none" stroke="black"/>
<path d="M475.332,81.4552h 7.05827" fill="none" stroke="black"/>
<path d="M475.332,74.6741h 7.05827" fill="none" stroke="black"/>
<path d="M475.332,67.893h 7.05827" fill="none" stroke="black"/>
<path d="M475.332,61.1118h 7.05827" fill="none" stroke="black"/>
<path d="M468.273,54.3307h 14.1165" fill="none" stroke="black"/>
<path d="M475.332,47.5496h 7.05827" fill="none" stroke="black"/>
<path d="M475.332,40.7685h 7.05827" fill="none" stroke="black"/>
<path d="M475.332,33.9873h 7.05827" fill="none" stroke="black"/>
<path d="M475.332,27.2062h 7.05827" fill="none" stroke="black"/>
<path d="M468.273,20.4251h 14.1165" fill="none" stroke="black"/>
<path d="M85.5394,280.706h 23.3823" fill="none" stroke="#ff0000"/>
<path d="M111.763,280.706h 23.3823" fill="none" stroke="#ff0000"/>
<g fill="#ff0000">
<polygon points=" 110.343, 282.141 108.922, 283.548 107.501, 282.127 108.922, 280.706 107.501, 279.285 108.922, 277.865 110.343, 279.285 111.763, 277.865 113.184, 279.285 111.763, 280.706 113.184, 282.127 111.763, 283.548 110.343, 282.113 111.749,
 280.706 110.343, 279.3 108.936, 280.706 110.343, 282.113"/>
</g>
<path d="M135.146,279.692h 23.3823" fill="none" stroke="#ff0000"/>
<path d="M161.37,279.692h 23.3823" fill="none" stroke="#ff0000"/>
<g fill="#ff0000">
<polygon points=" 159.949, 281.127 158.528, 282.533 157.107, 281.113 158.528, 279.692 157.107, 278.271 158.528, 276.85 159.949, 278.271 161.37, 276.85 162.791, 278.271 161.37, 279.692 162.791, 281.113 161.37, 282.533 159.949, 281.098 161.355, 279.692
 159.949, 278.285 158.542, 279.692 159.949, 281.098"/>
</g>
<path d="M184.752,278.106h 48.1854" fill="none" stroke="#ff0000"/>
<path d="M235.779,278.106h 48.1854" fill="none" stroke="#ff0000"/>
<g fill="#ff0000">
<polygon points=" 234.358, 279.541 232.937, 280.948 231.517, 279.527 232.937, 278.106 231.517, 276.685 232.937, 275.264 234.358, 276.685 235.779, 275.264 237.2, 276.685 235.779, 278.106 237.2, 279.527 235.779, 280.948 234.358, 279.513 235.765,
 278.106 234.358, 276.699 232.952, 278.106 234.358, 279.513"/>
</g>
<path d="M283.965,274.716h 48.1854" fill="none" stroke="#ff0000"/>
<path d="M334.992,274.716h 48.1854" fill="none" stroke="#ff0000"/>
<g fill="#ff0000">
<polygon points=" 333.571, 276.151 332.15, 277.558 330.729, 276.137 332.15, 274.716 330.729, 273.296 332.15, 271.875 333.571, 273.296 334.992, 271.875 336.413, 273.296 334.992, 274.716 336.413, 276.137 334.992, 277.558 333.571, 276.123 334.978,
 274.716 333.571, 273.31 332.164, 274.716 333.571, 276.123"/>
</g>
<path d="M383.177,268.261h 48.1854" fill="none" stroke="#ff0000"/>
<path d="M434.204,268.261h 48.1854" fill="none" stroke="#ff0000"/>
<g fill="#ff0000">
<polygon points=" 432.783, 269.696 431.363, 271.103 429.942, 269.682 431.363, 268.261 429.942, 266.84 431.363, 265.42 432.783, 266.84 434.204, 265.42 435.625, 266.84 434.204, 268.261 435.625, 269.682 434.204, 271.103 432.783, 269.668 434.19, 268.261
 432.783, 266.855 431.377, 268.261 432.783, 269.668"/>
</g>
<text xml:space="preserve" x="287.517" y="53.2828" fill="black" font-size="15.4909" font-family="Helvetica">PYTHIA8, option3</text>
<text xml:space="preserve" x="287.517" y="93.7778" fill="black" font-size="15.4909" font-family="Helvetica">p+Au, 200 GeV</text>
<text xml:space="preserve" x="386.268" y="132.852" fill="black" font-size="15.4909" font-family="Helvetica">1</text>
<text xml:space="preserve" x="381.294" y="132.852" fill="black" font-size="15.4909" font-family="Times">&#0060;</text>
<text xml:space="preserve" x="378.453" y="132.852" fill="black" font-size="15.4909" font-family="Helvetica">|</text>
<text xml:space="preserve" x="369.928" y="132.852" fill="black" font-size="15.4909" font-family="Times">&#0951;</text>
<text xml:space="preserve" x="312.382" y="132.852" fill="black" font-size="15.4909" font-family="Helvetica"> 2 GeV, |</text>
<text xml:space="preserve" x="307.409" y="132.852" fill="black" font-size="15.4909" font-family="Times">&#0060;</text>
<text xml:space="preserve" x="302.436" y="132.852" fill="black" font-size="15.4909" font-family="Helvetica"> </text>
<text xml:space="preserve" x="296.042" y="140.667" fill="black" font-size="10.4939" font-family="Helvetica">T</text>
<text xml:space="preserve" x="287.517" y="132.852" fill="black" font-size="15.4909" font-family="Helvetica">p</text></svg>
