<?xml version="1.0" standalone="no"?>
<svg width="567.429" height="409.002" viewBox="0 0 567.429 409.002" xmlns="http://www.w3.org/2000/svg" shape-rendering="crispEdges">
<title>
/Users/jinhyunpark/npl/gitHub/xloadFromServer/Git_Bias_correction_RxA/plots_dirAdded/yieldBypT_pion0_0to2GeV.svg
</title>
<desc>
Creator: ROOT Version 6.28/04
CreationDate: Tue Aug 29 16:20:44 2023</desc>
<defs>
</defs>
<rect x="0.5" y="0" width="566.929" height="408.502" fill="white"/>
<rect x="85.5394" y="20.4251" width="396.85" height="339.056" fill="white"/>
<rect x="85.5394" y="20.4251" width="396.85" height="339.056" fill="none" stroke="black"/>
<rect x="85.5394" y="20.4251" width="396.85" height="339.056" fill="white"/>
<rect x="85.5394" y="20.4251" width="396.85" height="339.056" fill="none" stroke="black"/>
<path d="M85.5394,359.481h 396.85" fill="none" stroke="black"/>
<path d="M85.5394,350.903v 8.57853" fill="none" stroke="black"/>
<path d="M95.4606,355.192v 4.28927" fill="none" stroke="black"/>
<path d="M105.382,355.192v 4.28927" fill="none" stroke="black"/>
<path d="M115.303,355.192v 4.28927" fill="none" stroke="black"/>
<path d="M125.224,350.903v 8.57853" fill="none" stroke="black"/>
<path d="M135.146,355.192v 4.28927" fill="none" stroke="black"/>
<path d="M145.067,355.192v 4.28927" fill="none" stroke="black"/>
<path d="M154.988,355.192v 4.28927" fill="none" stroke="black"/>
<path d="M164.909,350.903v 8.57853" fill="none" stroke="black"/>
<path d="M174.831,355.192v 4.28927" fill="none" stroke="black"/>
<path d="M184.752,355.192v 4.28927" fill="none" stroke="black"/>
<path d="M194.673,355.192v 4.28927" fill="none" stroke="black"/>
<path d="M204.594,350.903v 8.57853" fill="none" stroke="black"/>
<path d="M214.516,355.192v 4.28927" fill="none" stroke="black"/>
<path d="M224.437,355.192v 4.28927" fill="none" stroke="black"/>
<path d="M234.358,355.192v 4.28927" fill="none" stroke="black"/>
<path d="M244.28,350.903v 8.57853" fill="none" stroke="black"/>
<path d="M254.201,355.192v 4.28927" fill="none" stroke="black"/>
<path d="M264.122,355.192v 4.28927" fill="none" stroke="black"/>
<path d="M274.043,355.192v 4.28927" fill="none" stroke="black"/>
<path d="M283.965,350.903v 8.57853" fill="none" stroke="black"/>
<path d="M293.886,355.192v 4.28927" fill="none" stroke="black"/>
<path d="M303.807,355.192v 4.28927" fill="none" stroke="black"/>
<path d="M313.728,355.192v 4.28927" fill="none" stroke="black"/>
<path d="M323.65,350.903v 8.57853" fill="none" stroke="black"/>
<path d="M333.571,355.192v 4.28927" fill="none" stroke="black"/>
<path d="M343.492,355.192v 4.28927" fill="none" stroke="black"/>
<path d="M353.413,355.192v 4.28927" fill="none" stroke="black"/>
<path d="M363.335,350.903v 8.57853" fill="none" stroke="black"/>
<path d="M373.256,355.192v 4.28927" fill="none" stroke="black"/>
<path d="M383.177,355.192v 4.28927" fill="none" stroke="black"/>
<path d="M393.098,355.192v 4.28927" fill="none" stroke="black"/>
<path d="M403.02,350.903v 8.57853" fill="none" stroke="black"/>
<path d="M412.941,355.192v 4.28927" fill="none" stroke="black"/>
<path d="M422.862,355.192v 4.28927" fill="none" stroke="black"/>
<path d="M432.783,355.192v 4.28927" fill="none" stroke="black"/>
<path d="M442.705,350.903v 8.57853" fill="none" stroke="black"/>
<path d="M452.626,355.192v 4.28927" fill="none" stroke="black"/>
<path d="M462.547,355.192v 4.28927" fill="none" stroke="black"/>
<path d="M472.469,355.192v 4.28927" fill="none" stroke="black"/>
<path d="M482.39,350.903v 8.57853" fill="none" stroke="black"/>
<text xml:space="preserve" x="81.4899" y="372.269" fill="black" font-size="13.617" font-family="Helvetica">0</text>
<text xml:space="preserve" x="115.591" y="372.269" fill="black" font-size="13.617" font-family="Helvetica">0.2</text>
<text xml:space="preserve" x="155.375" y="372.269" fill="black" font-size="13.617" font-family="Helvetica">0.4</text>
<text xml:space="preserve" x="195.16" y="372.269" fill="black" font-size="13.617" font-family="Helvetica">0.6</text>
<text xml:space="preserve" x="234.944" y="372.269" fill="black" font-size="13.617" font-family="Helvetica">0.8</text>
<text xml:space="preserve" x="281.123" y="372.269" fill="black" font-size="13.617" font-family="Helvetica">1</text>
<text xml:space="preserve" x="313.803" y="372.269" fill="black" font-size="13.617" font-family="Helvetica">1.2</text>
<text xml:space="preserve" x="353.587" y="372.269" fill="black" font-size="13.617" font-family="Helvetica">1.4</text>
<text xml:space="preserve" x="393.372" y="372.269" fill="black" font-size="13.617" font-family="Helvetica">1.6</text>
<text xml:space="preserve" x="433.156" y="372.269" fill="black" font-size="13.617" font-family="Helvetica">1.8</text>
<text xml:space="preserve" x="478.624" y="372.269" fill="black" font-size="13.617" font-family="Helvetica">2</text>
<text xml:space="preserve" x="476.493" y="390.741" fill="black" font-size="9.24468" font-family="Helvetica">T</text>
<text xml:space="preserve" x="468.678" y="382.926" fill="black" font-size="13.617" font-family="Helvetica">p</text>
<path d="M85.5394,20.4251h 396.85" fill="none" stroke="black"/>
<path d="M85.5394,29.0036v -8.57853" fill="none" stroke="black"/>
<path d="M95.4606,24.7143v -4.28927" fill="none" stroke="black"/>
<path d="M105.382,24.7143v -4.28927" fill="none" stroke="black"/>
<path d="M115.303,24.7143v -4.28927" fill="none" stroke="black"/>
<path d="M125.224,29.0036v -8.57853" fill="none" stroke="black"/>
<path d="M135.146,24.7143v -4.28927" fill="none" stroke="black"/>
<path d="M145.067,24.7143v -4.28927" fill="none" stroke="black"/>
<path d="M154.988,24.7143v -4.28927" fill="none" stroke="black"/>
<path d="M164.909,29.0036v -8.57853" fill="none" stroke="black"/>
<path d="M174.831,24.7143v -4.28927" fill="none" stroke="black"/>
<path d="M184.752,24.7143v -4.28927" fill="none" stroke="black"/>
<path d="M194.673,24.7143v -4.28927" fill="none" stroke="black"/>
<path d="M204.594,29.0036v -8.57853" fill="none" stroke="black"/>
<path d="M214.516,24.7143v -4.28927" fill="none" stroke="black"/>
<path d="M224.437,24.7143v -4.28927" fill="none" stroke="black"/>
<path d="M234.358,24.7143v -4.28927" fill="none" stroke="black"/>
<path d="M244.28,29.0036v -8.57853" fill="none" stroke="black"/>
<path d="M254.201,24.7143v -4.28927" fill="none" stroke="black"/>
<path d="M264.122,24.7143v -4.28927" fill="none" stroke="black"/>
<path d="M274.043,24.7143v -4.28927" fill="none" stroke="black"/>
<path d="M283.965,29.0036v -8.57853" fill="none" stroke="black"/>
<path d="M293.886,24.7143v -4.28927" fill="none" stroke="black"/>
<path d="M303.807,24.7143v -4.28927" fill="none" stroke="black"/>
<path d="M313.728,24.7143v -4.28927" fill="none" stroke="black"/>
<path d="M323.65,29.0036v -8.57853" fill="none" stroke="black"/>
<path d="M333.571,24.7143v -4.28927" fill="none" stroke="black"/>
<path d="M343.492,24.7143v -4.28927" fill="none" stroke="black"/>
<path d="M353.413,24.7143v -4.28927" fill="none" stroke="black"/>
<path d="M363.335,29.0036v -8.57853" fill="none" stroke="black"/>
<path d="M373.256,24.7143v -4.28927" fill="none" stroke="black"/>
<path d="M383.177,24.7143v -4.28927" fill="none" stroke="black"/>
<path d="M393.098,24.7143v -4.28927" fill="none" stroke="black"/>
<path d="M403.02,29.0036v -8.57853" fill="none" stroke="black"/>
<path d="M412.941,24.7143v -4.28927" fill="none" stroke="black"/>
<path d="M422.862,24.7143v -4.28927" fill="none" stroke="black"/>
<path d="M432.783,24.7143v -4.28927" fill="none" stroke="black"/>
<path d="M442.705,29.0036v -8.57853" fill="none" stroke="black"/>
<path d="M452.626,24.7143v -4.28927" fill="none" stroke="black"/>
<path d="M462.547,24.7143v -4.28927" fill="none" stroke="black"/>
<path d="M472.469,24.7143v -4.28927" fill="none" stroke="black"/>
<path d="M482.39,29.0036v -8.57853" fill="none" stroke="black"/>
<path d="M85.5394,359.481v -339.056" fill="none" stroke="black"/>
<path d="M99.6559,359.481h -14.1165" fill="none" stroke="black"/>
<path d="M92.5976,345.919h -7.05827" fill="none" stroke="black"/>
<path d="M92.5976,332.357h -7.05827" fill="none" stroke="black"/>
<path d="M92.5976,318.795h -7.05827" fill="none" stroke="black"/>
<path d="M92.5976,305.232h -7.05827" fill="none" stroke="black"/>
<path d="M99.6559,291.67h -14.1165" fill="none" stroke="black"/>
<path d="M92.5976,278.108h -7.05827" fill="none" stroke="black"/>
<path d="M92.5976,264.546h -7.05827" fill="none" stroke="black"/>
<path d="M92.5976,250.983h -7.05827" fill="none" stroke="black"/>
<path d="M92.5976,237.421h -7.05827" fill="none" stroke="black"/>
<path d="M99.6559,223.859h -14.1165" fill="none" stroke="black"/>
<path d="M92.5976,210.297h -7.05827" fill="none" stroke="black"/>
<path d="M92.5976,196.734h -7.05827" fill="none" stroke="black"/>
<path d="M92.5976,183.172h -7.05827" fill="none" stroke="black"/>
<path d="M92.5976,169.61h -7.05827" fill="none" stroke="black"/>
<path d="M99.6559,156.048h -14.1165" fill="none" stroke="black"/>
<path d="M92.5976,142.485h -7.05827" fill="none" stroke="black"/>
<path d="M92.5976,128.923h -7.05827" fill="none" stroke="black"/>
<path d="M92.5976,115.361h -7.05827" fill="none" stroke="black"/>
<path d="M92.5976,101.799h -7.05827" fill="none" stroke="black"/>
<path d="M99.6559,88.2363h -14.1165" fill="none" stroke="black"/>
<path d="M92.5976,74.6741h -7.05827" fill="none" stroke="black"/>
<path d="M92.5976,61.1118h -7.05827" fill="none" stroke="black"/>
<path d="M92.5976,47.5496h -7.05827" fill="none" stroke="black"/>
<path d="M92.5976,33.9873h -7.05827" fill="none" stroke="black"/>
<path d="M99.6559,20.4251h -14.1165" fill="none" stroke="black"/>
<text xml:space="preserve" x="75.0959" y="364.454" fill="black" font-size="13.617" font-family="Helvetica">0</text>
<text xml:space="preserve" x="75.0959" y="296.252" fill="black" font-size="13.617" font-family="Helvetica">5</text>
<text xml:space="preserve" x="67.2811" y="228.761" fill="black" font-size="13.617" font-family="Helvetica">10</text>
<text xml:space="preserve" x="67.2811" y="160.559" fill="black" font-size="13.617" font-family="Helvetica">15</text>
<text xml:space="preserve" x="67.2811" y="93.0673" fill="black" font-size="13.617" font-family="Helvetica">20</text>
<text xml:space="preserve" x="67.2811" y="24.8653" fill="black" font-size="13.617" font-family="Helvetica">25</text>
<g transform="rotate(-90,61.5976,25.5758)">
<text xml:space="preserve" x="61.5976" y="25.5758" fill="black" font-size="9.24468" font-family="Helvetica">T</text>
</g>
<g transform="rotate(-90,53.7828,44.7576)">
<text xml:space="preserve" x="53.7828" y="44.7576" fill="black" font-size="13.617" font-family="Helvetica">/dp</text>
</g>
<g transform="rotate(-90,43.8367,48.3098)">
<text xml:space="preserve" x="43.8367" y="48.3098" fill="black" font-size="6.32979" font-family="Helvetica">0</text>
</g>
<g transform="rotate(-90,47.3889,53.2828)">
<text xml:space="preserve" x="47.3889" y="53.2828" fill="black" font-size="9.24468" font-family="Times">&#0960;</text>
</g>
<g transform="rotate(-90,53.7828,73.8855)">
<text xml:space="preserve" x="53.7828" y="73.8855" fill="black" font-size="13.617" font-family="Helvetica"> dN</text>
</g>
<g transform="rotate(-90,58.7559,96.6195)">
<text xml:space="preserve" x="58.7559" y="96.6195" fill="black" font-size="9.24468" font-family="Helvetica">event</text>
</g>
<g transform="rotate(-90,53.7828,117.222)">
<text xml:space="preserve" x="53.7828" y="117.222" fill="black" font-size="13.617" font-family="Helvetica">1/N</text>
</g>
<path d="M482.39,359.481v -339.056" fill="none" stroke="black"/>
<path d="M468.273,359.481h 14.1165" fill="none" stroke="black"/>
<path d="M475.332,345.919h 7.05827" fill="none" stroke="black"/>
<path d="M475.332,332.357h 7.05827" fill="none" stroke="black"/>
<path d="M475.332,318.795h 7.05827" fill="none" stroke="black"/>
<path d="M475.332,305.232h 7.05827" fill="none" stroke="black"/>
<path d="M468.273,291.67h 14.1165" fill="none" stroke="black"/>
<path d="M475.332,278.108h 7.05827" fill="none" stroke="black"/>
<path d="M475.332,264.546h 7.05827" fill="none" stroke="black"/>
<path d="M475.332,250.983h 7.05827" fill="none" stroke="black"/>
<path d="M475.332,237.421h 7.05827" fill="none" stroke="black"/>
<path d="M468.273,223.859h 14.1165" fill="none" stroke="black"/>
<path d="M475.332,210.297h 7.05827" fill="none" stroke="black"/>
<path d="M475.332,196.734h 7.05827" fill="none" stroke="black"/>
<path d="M475.332,183.172h 7.05827" fill="none" stroke="black"/>
<path d="M475.332,169.61h 7.05827" fill="none" stroke="black"/>
<path d="M468.273,156.048h 14.1165" fill="none" stroke="black"/>
<path d="M475.332,142.485h 7.05827" fill="none" stroke="black"/>
<path d="M475.332,128.923h 7.05827" fill="none" stroke="black"/>
<path d="M475.332,115.361h 7.05827" fill="none" stroke="black"/>
<path d="M475.332,101.799h 7.05827" fill="none" stroke="black"/>
<path d="M468.273,88.2363h 14.1165" fill="none" stroke="black"/>
<path d="M475.332,74.6741h 7.05827" fill="none" stroke="black"/>
<path d="M475.332,61.1118h 7.05827" fill="none" stroke="black"/>
<path d="M475.332,47.5496h 7.05827" fill="none" stroke="black"/>
<path d="M475.332,33.9873h 7.05827" fill="none" stroke="black"/>
<path d="M468.273,20.4251h 14.1165" fill="none" stroke="black"/>
<path d="M85.5394,156.058h 46.7645" fill="none" stroke="black"/>
<path d="M137.987,156.058h 46.7645" fill="none" stroke="black"/>
<g fill="black">
<circle cx="135.146" cy="156.058" r="2.84175"/>
</g>
<path d="M184.752,290.036h 46.7645" fill="none" stroke="black"/>
<path d="M237.2,290.036h 46.7645" fill="none" stroke="black"/>
<g fill="black">
<circle cx="234.358" cy="290.036" r="2.84175"/>
</g>
<path d="M283.965,349.957h 46.7645" fill="none" stroke="black"/>
<path d="M336.413,349.957h 46.7645" fill="none" stroke="black"/>
<g fill="black">
<circle cx="333.571" cy="349.957" r="2.84175"/>
</g>
<path d="M383.177,357.702h 46.7645" fill="none" stroke="black"/>
<path d="M435.625,357.702h 46.7645" fill="none" stroke="black"/>
<g fill="black">
<circle cx="432.783" cy="357.702" r="2.84175"/>
</g>
<path d="M85.5394,184.229h 46.7645" fill="none" stroke="#ff0000"/>
<path d="M137.987,184.229h 46.7645" fill="none" stroke="#ff0000"/>
<g fill="#ff0000">
<rect x="132.304" y="181.387" width="5.6835" height="5.6835"/>
</g>
<path d="M184.752,299.23h 46.7645" fill="none" stroke="#ff0000"/>
<path d="M237.2,299.23h 46.7645" fill="none" stroke="#ff0000"/>
<g fill="#ff0000">
<rect x="231.517" y="296.389" width="5.6835" height="5.6835"/>
</g>
<path d="M283.965,351.08h 46.7645" fill="none" stroke="#ff0000"/>
<path d="M336.413,351.08h 46.7645" fill="none" stroke="#ff0000"/>
<g fill="#ff0000">
<rect x="330.729" y="348.238" width="5.6835" height="5.6835"/>
</g>
<path d="M383.177,357.89h 46.7645" fill="none" stroke="#ff0000"/>
<path d="M435.625,357.89h 46.7645" fill="none" stroke="#ff0000"/>
<g fill="#ff0000">
<rect x="429.942" y="355.048" width="5.6835" height="5.6835"/>
</g>
<path d="M85.5394,208.11h 48.1854" fill="none" stroke="#59d354"/>
<path d="M136.567,208.11h 48.1854" fill="none" stroke="#59d354"/>
<g fill="#59d354">
<polygon points=" 135.146, 205.268 137.987, 210.952 132.304, 210.952"/>
</g>
<path d="M184.752,307.272h 48.1854" fill="none" stroke="#59d354"/>
<path d="M235.779,307.272h 48.1854" fill="none" stroke="#59d354"/>
<g fill="#59d354">
<polygon points=" 234.358, 304.43 237.2, 310.114 231.517, 310.114"/>
</g>
<path d="M283.965,352.136h 48.1854" fill="none" stroke="#59d354"/>
<path d="M334.992,352.136h 48.1854" fill="none" stroke="#59d354"/>
<g fill="#59d354">
<polygon points=" 333.571, 349.294 336.413, 354.977 330.729, 354.977"/>
</g>
<path d="M383.177,358.063h 48.1854" fill="none" stroke="#59d354"/>
<path d="M434.204,358.063h 48.1854" fill="none" stroke="#59d354"/>
<g fill="#59d354">
<polygon points=" 432.783, 355.221 435.625, 360.905 429.942, 360.905"/>
</g>
<path d="M85.5394,237.718h 48.1854" fill="none" stroke="#0000ff"/>
<path d="M136.567,237.718h 48.1854" fill="none" stroke="#0000ff"/>
<g fill="#0000ff">
<polygon points=" 132.304, 234.876 137.987, 234.876 135.146, 240.559"/>
</g>
<path d="M184.752,317.332h 48.1854" fill="none" stroke="#0000ff"/>
<path d="M235.779,317.332h 48.1854" fill="none" stroke="#0000ff"/>
<g fill="#0000ff">
<polygon points=" 231.517, 314.49 237.2, 314.49 234.358, 320.174"/>
</g>
<path d="M283.965,353.539h 48.1854" fill="none" stroke="#0000ff"/>
<path d="M334.992,353.539h 48.1854" fill="none" stroke="#0000ff"/>
<g fill="#0000ff">
<polygon points=" 330.729, 350.697 336.413, 350.697 333.571, 356.38"/>
</g>
<path d="M383.177,358.323h 48.1854" fill="none" stroke="#0000ff"/>
<path d="M434.204,358.323h 48.1854" fill="none" stroke="#0000ff"/>
<g fill="#0000ff">
<polygon points=" 429.942, 355.482 435.625, 355.482 432.783, 361.165"/>
</g>
<path d="M85.5394,269.549h 46.7645" fill="none" stroke="#ff00ff"/>
<path d="M137.987,269.549h 46.7645" fill="none" stroke="#ff00ff"/>
<g fill="#ff00ff">
<polygon points=" 134.198, 268.602 134.198, 266.707 136.093, 266.707 136.093, 268.602 137.987, 268.602 137.987, 270.496 136.093, 270.496 136.093, 272.391 134.198, 272.391 134.198, 270.496 132.304, 270.496 132.304, 268.602"/>
</g>
<path d="M184.752,328.486h 46.7645" fill="none" stroke="#ff00ff"/>
<path d="M237.2,328.486h 46.7645" fill="none" stroke="#ff00ff"/>
<g fill="#ff00ff">
<polygon points=" 233.411, 327.538 233.411, 325.644 235.306, 325.644 235.306, 327.538 237.2, 327.538 237.2, 329.433 235.306, 329.433 235.306, 331.327 233.411, 331.327 233.411, 329.433 231.517, 329.433 231.517, 327.538"/>
</g>
<path d="M283.965,355.169h 46.7645" fill="none" stroke="#ff00ff"/>
<path d="M336.413,355.169h 46.7645" fill="none" stroke="#ff00ff"/>
<g fill="#ff00ff">
<polygon points=" 332.624, 354.222 332.624, 352.327 334.518, 352.327 334.518, 354.222 336.413, 354.222 336.413, 356.116 334.518, 356.116 334.518, 358.011 332.624, 358.011 332.624, 356.116 330.729, 356.116 330.729, 354.222"/>
</g>
<path d="M383.177,358.65h 46.7645" fill="none" stroke="#ff00ff"/>
<path d="M435.625,358.65h 46.7645" fill="none" stroke="#ff00ff"/>
<g fill="#ff00ff">
<polygon points=" 431.836, 357.703 431.836, 355.809 433.731, 355.809 433.731, 357.703 435.625, 357.703 435.625, 359.598 433.731, 359.598 433.731, 361.492 431.836, 361.492 431.836, 359.598 429.942, 359.598 429.942, 357.703"/>
</g>
<text xml:space="preserve" x="287.517" y="45.468" fill="black" font-size="15.4909" font-family="Helvetica">PYTHIA8, option3</text>
<text xml:space="preserve" x="409.712" y="68.202" fill="black" font-size="15.4909" font-family="Helvetica">|&lt;1</text>
<text xml:space="preserve" x="401.187" y="68.202" fill="black" font-size="15.4909" font-family="Times">&#0951;</text>
<text xml:space="preserve" x="287.517" y="68.202" fill="black" font-size="15.4909" font-family="Helvetica">p+Au, 200 GeV, |</text>
<text xml:space="preserve" x="325.88" y="91.6464" fill="black" font-size="15.4909" font-family="Helvetica">cent: 0~10%</text>
<g fill="black">
<circle cx="305.224" cy="86.9525" r="2.84175"/>
</g>
<text xml:space="preserve" x="325.88" y="115.091" fill="black" font-size="15.4909" font-family="Helvetica">cent: 10~20%</text>
<g fill="#ff0000">
<rect x="302.383" y="107.454" width="5.6835" height="5.6835"/>
</g>
<text xml:space="preserve" x="325.88" y="138.535" fill="black" font-size="15.4909" font-family="Helvetica">cent: 20~40%</text>
<g fill="#59d354">
<polygon points=" 305.224, 130.797 308.066, 136.48 302.383, 136.48"/>
</g>
<text xml:space="preserve" x="325.88" y="161.98" fill="black" font-size="15.4909" font-family="Helvetica">cent: 40~60%</text>
<g fill="#0000ff">
<polygon points=" 302.383, 154.14 308.066, 154.14 305.224, 159.823"/>
</g>
<text xml:space="preserve" x="325.88" y="185.424" fill="black" font-size="15.4909" font-family="Helvetica">cent: 60~80%</text>
<g fill="#ff00ff">
<polygon points=" 304.277, 179.377 304.277, 177.483 306.172, 177.483 306.172, 179.377 308.066, 179.377 308.066, 181.272 306.172, 181.272 306.172, 183.166 304.277, 183.166 304.277, 181.272 302.383, 181.272 302.383, 179.377"/>
</g></svg>
