<?xml version="1.0" standalone="no"?>
<svg width="567.429" height="409.002" viewBox="0 0 567.429 409.002" xmlns="http://www.w3.org/2000/svg" shape-rendering="crispEdges">
<title>
/Users/jinhyunpark/npl/gitHub/xloadFromServer/Git_Bias_correction_RxA/plots/pTpionReference_opt3.svg
</title>
<desc>
Creator: ROOT Version 6.26/06
CreationDate: Fri Apr  7 15:34:39 2023</desc>
<defs>
</defs>
<rect x="0.5" y="0" width="566.929" height="408.502" fill="white"/>
<rect x="85.5394" y="20.4251" width="396.85" height="339.056" fill="white"/>
<rect x="85.5394" y="20.4251" width="396.85" height="339.056" fill="none" stroke="black"/>
<rect x="85.5394" y="20.4251" width="396.85" height="339.056" fill="white"/>
<rect x="85.5394" y="20.4251" width="396.85" height="339.056" fill="none" stroke="black"/>
<path d="M85.5394,359.481h 396.85" fill="none" stroke="black"/>
<path d="M85.5394,350.903v 8.57853" fill="none" stroke="black"/>
<path d="M96.878,355.192v 4.28927" fill="none" stroke="black"/>
<path d="M108.217,355.192v 4.28927" fill="none" stroke="black"/>
<path d="M119.555,355.192v 4.28927" fill="none" stroke="black"/>
<path d="M130.894,355.192v 4.28927" fill="none" stroke="black"/>
<path d="M142.232,350.903v 8.57853" fill="none" stroke="black"/>
<path d="M153.571,355.192v 4.28927" fill="none" stroke="black"/>
<path d="M164.909,355.192v 4.28927" fill="none" stroke="black"/>
<path d="M176.248,355.192v 4.28927" fill="none" stroke="black"/>
<path d="M187.587,355.192v 4.28927" fill="none" stroke="black"/>
<path d="M198.925,350.903v 8.57853" fill="none" stroke="black"/>
<path d="M210.264,355.192v 4.28927" fill="none" stroke="black"/>
<path d="M221.602,355.192v 4.28927" fill="none" stroke="black"/>
<path d="M232.941,355.192v 4.28927" fill="none" stroke="black"/>
<path d="M244.28,355.192v 4.28927" fill="none" stroke="black"/>
<path d="M255.618,350.903v 8.57853" fill="none" stroke="black"/>
<path d="M266.957,355.192v 4.28927" fill="none" stroke="black"/>
<path d="M278.295,355.192v 4.28927" fill="none" stroke="black"/>
<path d="M289.634,355.192v 4.28927" fill="none" stroke="black"/>
<path d="M300.972,355.192v 4.28927" fill="none" stroke="black"/>
<path d="M312.311,350.903v 8.57853" fill="none" stroke="black"/>
<path d="M323.65,355.192v 4.28927" fill="none" stroke="black"/>
<path d="M334.988,355.192v 4.28927" fill="none" stroke="black"/>
<path d="M346.327,355.192v 4.28927" fill="none" stroke="black"/>
<path d="M357.665,355.192v 4.28927" fill="none" stroke="black"/>
<path d="M369.004,350.903v 8.57853" fill="none" stroke="black"/>
<path d="M380.343,355.192v 4.28927" fill="none" stroke="black"/>
<path d="M391.681,355.192v 4.28927" fill="none" stroke="black"/>
<path d="M403.02,355.192v 4.28927" fill="none" stroke="black"/>
<path d="M414.358,355.192v 4.28927" fill="none" stroke="black"/>
<path d="M425.697,350.903v 8.57853" fill="none" stroke="black"/>
<path d="M437.035,355.192v 4.28927" fill="none" stroke="black"/>
<path d="M448.374,355.192v 4.28927" fill="none" stroke="black"/>
<path d="M459.713,355.192v 4.28927" fill="none" stroke="black"/>
<path d="M471.051,355.192v 4.28927" fill="none" stroke="black"/>
<path d="M482.39,350.903v 8.57853" fill="none" stroke="black"/>
<text xml:space="preserve" x="80.7794" y="374.401" fill="black" font-size="15.4909" font-family="Helvetica">0</text>
<text xml:space="preserve" x="139.035" y="374.401" fill="black" font-size="15.4909" font-family="Helvetica">1</text>
<text xml:space="preserve" x="194.449" y="374.401" fill="black" font-size="15.4909" font-family="Helvetica">2</text>
<text xml:space="preserve" x="251.284" y="374.401" fill="black" font-size="15.4909" font-family="Helvetica">3</text>
<text xml:space="preserve" x="307.409" y="374.401" fill="black" font-size="15.4909" font-family="Helvetica">4</text>
<text xml:space="preserve" x="364.244" y="374.401" fill="black" font-size="15.4909" font-family="Helvetica">5</text>
<text xml:space="preserve" x="421.079" y="374.401" fill="black" font-size="15.4909" font-family="Helvetica">6</text>
<text xml:space="preserve" x="477.914" y="374.401" fill="black" font-size="15.4909" font-family="Helvetica">7</text>
<text xml:space="preserve" x="432.446" y="397.845" fill="black" font-size="19.2386" font-family="Helvetica">(GeV)</text>
<text xml:space="preserve" x="424.631" y="407.791" fill="black" font-size="12.9924" font-family="Helvetica">T</text>
<text xml:space="preserve" x="413.975" y="397.845" fill="black" font-size="19.2386" font-family="Helvetica">p</text>
<path d="M85.5394,20.4251h 396.85" fill="none" stroke="black"/>
<path d="M85.5394,29.0036v -8.57853" fill="none" stroke="black"/>
<path d="M96.878,24.7143v -4.28927" fill="none" stroke="black"/>
<path d="M108.217,24.7143v -4.28927" fill="none" stroke="black"/>
<path d="M119.555,24.7143v -4.28927" fill="none" stroke="black"/>
<path d="M130.894,24.7143v -4.28927" fill="none" stroke="black"/>
<path d="M142.232,29.0036v -8.57853" fill="none" stroke="black"/>
<path d="M153.571,24.7143v -4.28927" fill="none" stroke="black"/>
<path d="M164.909,24.7143v -4.28927" fill="none" stroke="black"/>
<path d="M176.248,24.7143v -4.28927" fill="none" stroke="black"/>
<path d="M187.587,24.7143v -4.28927" fill="none" stroke="black"/>
<path d="M198.925,29.0036v -8.57853" fill="none" stroke="black"/>
<path d="M210.264,24.7143v -4.28927" fill="none" stroke="black"/>
<path d="M221.602,24.7143v -4.28927" fill="none" stroke="black"/>
<path d="M232.941,24.7143v -4.28927" fill="none" stroke="black"/>
<path d="M244.28,24.7143v -4.28927" fill="none" stroke="black"/>
<path d="M255.618,29.0036v -8.57853" fill="none" stroke="black"/>
<path d="M266.957,24.7143v -4.28927" fill="none" stroke="black"/>
<path d="M278.295,24.7143v -4.28927" fill="none" stroke="black"/>
<path d="M289.634,24.7143v -4.28927" fill="none" stroke="black"/>
<path d="M300.972,24.7143v -4.28927" fill="none" stroke="black"/>
<path d="M312.311,29.0036v -8.57853" fill="none" stroke="black"/>
<path d="M323.65,24.7143v -4.28927" fill="none" stroke="black"/>
<path d="M334.988,24.7143v -4.28927" fill="none" stroke="black"/>
<path d="M346.327,24.7143v -4.28927" fill="none" stroke="black"/>
<path d="M357.665,24.7143v -4.28927" fill="none" stroke="black"/>
<path d="M369.004,29.0036v -8.57853" fill="none" stroke="black"/>
<path d="M380.343,24.7143v -4.28927" fill="none" stroke="black"/>
<path d="M391.681,24.7143v -4.28927" fill="none" stroke="black"/>
<path d="M403.02,24.7143v -4.28927" fill="none" stroke="black"/>
<path d="M414.358,24.7143v -4.28927" fill="none" stroke="black"/>
<path d="M425.697,29.0036v -8.57853" fill="none" stroke="black"/>
<path d="M437.035,24.7143v -4.28927" fill="none" stroke="black"/>
<path d="M448.374,24.7143v -4.28927" fill="none" stroke="black"/>
<path d="M459.713,24.7143v -4.28927" fill="none" stroke="black"/>
<path d="M471.051,24.7143v -4.28927" fill="none" stroke="black"/>
<path d="M482.39,29.0036v -8.57853" fill="none" stroke="black"/>
<path d="M85.5394,359.481v -339.056" fill="none" stroke="black"/>
<path d="M99.6559,359.481h -14.1165" fill="none" stroke="black"/>
<path d="M92.5976,351.005h -7.05827" fill="none" stroke="black"/>
<path d="M92.5976,342.529h -7.05827" fill="none" stroke="black"/>
<path d="M92.5976,334.052h -7.05827" fill="none" stroke="black"/>
<path d="M92.5976,325.576h -7.05827" fill="none" stroke="black"/>
<path d="M99.6559,317.099h -14.1165" fill="none" stroke="black"/>
<path d="M92.5976,308.623h -7.05827" fill="none" stroke="black"/>
<path d="M92.5976,300.147h -7.05827" fill="none" stroke="black"/>
<path d="M92.5976,291.67h -7.05827" fill="none" stroke="black"/>
<path d="M92.5976,283.194h -7.05827" fill="none" stroke="black"/>
<path d="M99.6559,274.717h -14.1165" fill="none" stroke="black"/>
<path d="M92.5976,266.241h -7.05827" fill="none" stroke="black"/>
<path d="M92.5976,257.764h -7.05827" fill="none" stroke="black"/>
<path d="M92.5976,249.288h -7.05827" fill="none" stroke="black"/>
<path d="M92.5976,240.812h -7.05827" fill="none" stroke="black"/>
<path d="M99.6559,232.335h -14.1165" fill="none" stroke="black"/>
<path d="M92.5976,223.859h -7.05827" fill="none" stroke="black"/>
<path d="M92.5976,215.382h -7.05827" fill="none" stroke="black"/>
<path d="M92.5976,206.906h -7.05827" fill="none" stroke="black"/>
<path d="M92.5976,198.43h -7.05827" fill="none" stroke="black"/>
<path d="M99.6559,189.953h -14.1165" fill="none" stroke="black"/>
<path d="M92.5976,181.477h -7.05827" fill="none" stroke="black"/>
<path d="M92.5976,173h -7.05827" fill="none" stroke="black"/>
<path d="M92.5976,164.524h -7.05827" fill="none" stroke="black"/>
<path d="M92.5976,156.048h -7.05827" fill="none" stroke="black"/>
<path d="M99.6559,147.571h -14.1165" fill="none" stroke="black"/>
<path d="M92.5976,139.095h -7.05827" fill="none" stroke="black"/>
<path d="M92.5976,130.618h -7.05827" fill="none" stroke="black"/>
<path d="M92.5976,122.142h -7.05827" fill="none" stroke="black"/>
<path d="M92.5976,113.666h -7.05827" fill="none" stroke="black"/>
<path d="M99.6559,105.189h -14.1165" fill="none" stroke="black"/>
<path d="M92.5976,96.7127h -7.05827" fill="none" stroke="black"/>
<path d="M92.5976,88.2363h -7.05827" fill="none" stroke="black"/>
<path d="M92.5976,79.7599h -7.05827" fill="none" stroke="black"/>
<path d="M92.5976,71.2835h -7.05827" fill="none" stroke="black"/>
<path d="M99.6559,62.8071h -14.1165" fill="none" stroke="black"/>
<path d="M92.5976,54.3307h -7.05827" fill="none" stroke="black"/>
<path d="M92.5976,45.8543h -7.05827" fill="none" stroke="black"/>
<path d="M92.5976,37.3779h -7.05827" fill="none" stroke="black"/>
<path d="M92.5976,28.9015h -7.05827" fill="none" stroke="black"/>
<path d="M99.6559,20.4251h -14.1165" fill="none" stroke="black"/>
<text xml:space="preserve" x="74.3855" y="365.165" fill="black" font-size="15.4909" font-family="Helvetica">0</text>
<text xml:space="preserve" x="76.5168" y="322.539" fill="black" font-size="15.4909" font-family="Helvetica">1</text>
<text xml:space="preserve" x="74.3855" y="279.912" fill="black" font-size="15.4909" font-family="Helvetica">2</text>
<text xml:space="preserve" x="74.3855" y="237.997" fill="black" font-size="15.4909" font-family="Helvetica">3</text>
<text xml:space="preserve" x="74.3855" y="195.37" fill="black" font-size="15.4909" font-family="Helvetica">4</text>
<text xml:space="preserve" x="74.3855" y="152.744" fill="black" font-size="15.4909" font-family="Helvetica">5</text>
<text xml:space="preserve" x="74.3855" y="110.828" fill="black" font-size="15.4909" font-family="Helvetica">6</text>
<text xml:space="preserve" x="74.3855" y="68.202" fill="black" font-size="15.4909" font-family="Helvetica">7</text>
<text xml:space="preserve" x="74.3855" y="25.5758" fill="black" font-size="15.4909" font-family="Helvetica">8</text>
<g transform="rotate(-90,71.5438,27.7071)">
<text xml:space="preserve" x="71.5438" y="27.7071" fill="black" font-size="12.9924" font-family="Helvetica">T</text>
</g>
<g transform="rotate(-90,60.8872,49.0202)">
<text xml:space="preserve" x="60.8872" y="49.0202" fill="black" font-size="19.2386" font-family="Helvetica">dp</text>
</g>
<g transform="rotate(-90,40.9949,46.1784)">
<text xml:space="preserve" x="40.9949" y="46.1784" fill="black" font-size="19.2386" font-family="Helvetica">dN</text>
</g>
<path d="M44.5471,49.0202v -29.1279" fill="none" stroke="black" stroke-width="2"/>
<g transform="rotate(-90,49.5202,55.4141)">
<text xml:space="preserve" x="49.5202" y="55.4141" fill="black" font-size="19.2386" font-family="Helvetica"> </text>
</g>
<g transform="rotate(-90,66.5707,72.4646)">
<text xml:space="preserve" x="66.5707" y="72.4646" fill="black" font-size="12.9924" font-family="Helvetica">evt</text>
</g>
<g transform="rotate(-90,60.8872,85.2525)">
<text xml:space="preserve" x="60.8872" y="85.2525" fill="black" font-size="19.2386" font-family="Helvetica">N</text>
</g>
<g transform="rotate(-90,41.7054,73.8855)">
<text xml:space="preserve" x="41.7054" y="73.8855" fill="black" font-size="19.2386" font-family="Helvetica">1</text>
</g>
<path d="M44.5471,85.2525v -29.8384" fill="none" stroke="black" stroke-width="2"/>
<path d="M482.39,359.481v -339.056" fill="none" stroke="black"/>
<path d="M468.273,359.481h 14.1165" fill="none" stroke="black"/>
<path d="M475.332,351.005h 7.05827" fill="none" stroke="black"/>
<path d="M475.332,342.529h 7.05827" fill="none" stroke="black"/>
<path d="M475.332,334.052h 7.05827" fill="none" stroke="black"/>
<path d="M475.332,325.576h 7.05827" fill="none" stroke="black"/>
<path d="M468.273,317.099h 14.1165" fill="none" stroke="black"/>
<path d="M475.332,308.623h 7.05827" fill="none" stroke="black"/>
<path d="M475.332,300.147h 7.05827" fill="none" stroke="black"/>
<path d="M475.332,291.67h 7.05827" fill="none" stroke="black"/>
<path d="M475.332,283.194h 7.05827" fill="none" stroke="black"/>
<path d="M468.273,274.717h 14.1165" fill="none" stroke="black"/>
<path d="M475.332,266.241h 7.05827" fill="none" stroke="black"/>
<path d="M475.332,257.764h 7.05827" fill="none" stroke="black"/>
<path d="M475.332,249.288h 7.05827" fill="none" stroke="black"/>
<path d="M475.332,240.812h 7.05827" fill="none" stroke="black"/>
<path d="M468.273,232.335h 14.1165" fill="none" stroke="black"/>
<path d="M475.332,223.859h 7.05827" fill="none" stroke="black"/>
<path d="M475.332,215.382h 7.05827" fill="none" stroke="black"/>
<path d="M475.332,206.906h 7.05827" fill="none" stroke="black"/>
<path d="M475.332,198.43h 7.05827" fill="none" stroke="black"/>
<path d="M468.273,189.953h 14.1165" fill="none" stroke="black"/>
<path d="M475.332,181.477h 7.05827" fill="none" stroke="black"/>
<path d="M475.332,173h 7.05827" fill="none" stroke="black"/>
<path d="M475.332,164.524h 7.05827" fill="none" stroke="black"/>
<path d="M475.332,156.048h 7.05827" fill="none" stroke="black"/>
<path d="M468.273,147.571h 14.1165" fill="none" stroke="black"/>
<path d="M475.332,139.095h 7.05827" fill="none" stroke="black"/>
<path d="M475.332,130.618h 7.05827" fill="none" stroke="black"/>
<path d="M475.332,122.142h 7.05827" fill="none" stroke="black"/>
<path d="M475.332,113.666h 7.05827" fill="none" stroke="black"/>
<path d="M468.273,105.189h 14.1165" fill="none" stroke="black"/>
<path d="M475.332,96.7127h 7.05827" fill="none" stroke="black"/>
<path d="M475.332,88.2363h 7.05827" fill="none" stroke="black"/>
<path d="M475.332,79.7599h 7.05827" fill="none" stroke="black"/>
<path d="M475.332,71.2835h 7.05827" fill="none" stroke="black"/>
<path d="M468.273,62.8071h 14.1165" fill="none" stroke="black"/>
<path d="M475.332,54.3307h 7.05827" fill="none" stroke="black"/>
<path d="M475.332,45.8543h 7.05827" fill="none" stroke="black"/>
<path d="M475.332,37.3779h 7.05827" fill="none" stroke="black"/>
<path d="M475.332,28.9015h 7.05827" fill="none" stroke="black"/>
<path d="M468.273,20.4251h 14.1165" fill="none" stroke="black"/>
<g fill="black">
<circle cx="85.8228" cy="359.202" r="2.84175"/>
</g>
<g fill="black">
<circle cx="86.3898" cy="355.015" r="2.84175"/>
</g>
<g fill="black">
<circle cx="86.9567" cy="344.406" r="2.84175"/>
</g>
<g fill="black">
<circle cx="87.5236" cy="331.284" r="2.84175"/>
</g>
<path d="M88.0906,324.234v -0.437851" fill="none" stroke="black"/>
<path d="M88.0906,318.113v -0.437851" fill="none" stroke="black"/>
<g fill="black">
<circle cx="88.0906" cy="320.955" r="2.84175"/>
</g>
<path d="M88.6575,308.402v -1.0767" fill="none" stroke="black"/>
<path d="M88.6575,301.642v -1.0767" fill="none" stroke="black"/>
<g fill="black">
<circle cx="88.6575" cy="304.483" r="2.84175"/>
</g>
<path d="M89.2244,290.044v -1.70294" fill="none" stroke="black"/>
<path d="M89.2244,282.657v -1.70294" fill="none" stroke="black"/>
<g fill="black">
<circle cx="89.2244" cy="285.499" r="2.84175"/>
</g>
<path d="M89.7913,287.337v -1.7879" fill="none" stroke="black"/>
<path d="M89.7913,279.866v -1.7879" fill="none" stroke="black"/>
<g fill="black">
<circle cx="89.7913" cy="282.707" r="2.84175"/>
</g>
<path d="M90.3583,266.177v -2.40353" fill="none" stroke="black"/>
<path d="M90.3583,258.09v -2.40353" fill="none" stroke="black"/>
<g fill="black">
<circle cx="90.3583" cy="260.931" r="2.84175"/>
</g>
<path d="M90.9252,249.854v -2.83182" fill="none" stroke="black"/>
<path d="M90.9252,241.339v -2.83182" fill="none" stroke="black"/>
<g fill="black">
<circle cx="90.9252" cy="244.181" r="2.84175"/>
</g>
<path d="M91.4921,235.956v -3.17193" fill="none" stroke="black"/>
<path d="M91.4921,227.101v -3.17193" fill="none" stroke="black"/>
<g fill="black">
<circle cx="91.4921" cy="229.943" r="2.84175"/>
</g>
<path d="M92.0591,226.954v -3.38211" fill="none" stroke="black"/>
<path d="M92.0591,217.888v -3.38211" fill="none" stroke="black"/>
<g fill="black">
<circle cx="92.0591" cy="220.73" r="2.84175"/>
</g>
<path d="M92.626,210.021v -3.75891" fill="none" stroke="black"/>
<path d="M92.626,200.579v -3.75891" fill="none" stroke="black"/>
<g fill="black">
<circle cx="92.626" cy="203.421" r="2.84175"/>
</g>
<path d="M93.1929,202.641v -3.91644" fill="none" stroke="black"/>
<path d="M93.1929,193.041v -3.91644" fill="none" stroke="black"/>
<g fill="black">
<circle cx="93.1929" cy="195.883" r="2.84175"/>
</g>
<path d="M93.7598,196.078v -4.05344" fill="none" stroke="black"/>
<path d="M93.7598,186.341v -4.05344" fill="none" stroke="black"/>
<g fill="black">
<circle cx="93.7598" cy="189.183" r="2.84175"/>
</g>
<path d="M94.3268,195.804v -4.05909" fill="none" stroke="black"/>
<path d="M94.3268,186.062v -4.05909" fill="none" stroke="black"/>
<g fill="black">
<circle cx="94.3268" cy="188.904" r="2.84175"/>
</g>
<path d="M94.8937,179.932v -4.3792" fill="none" stroke="black"/>
<path d="M94.8937,169.869v -4.3792" fill="none" stroke="black"/>
<g fill="black">
<circle cx="94.8937" cy="172.711" r="2.84175"/>
</g>
<path d="M95.4606,179.111v -4.39538" fill="none" stroke="black"/>
<path d="M95.4606,169.032v -4.39538" fill="none" stroke="black"/>
<g fill="black">
<circle cx="95.4606" cy="171.874" r="2.84175"/>
</g>
<path d="M96.0276,180.753v -4.36299" fill="none" stroke="black"/>
<path d="M96.0276,170.707v -4.36299" fill="none" stroke="black"/>
<g fill="black">
<circle cx="96.0276" cy="173.549" r="2.84175"/>
</g>
<path d="M96.5945,176.373v -4.44902" fill="none" stroke="black"/>
<path d="M96.5945,166.24v -4.44902" fill="none" stroke="black"/>
<g fill="black">
<circle cx="96.5945" cy="169.082" r="2.84175"/>
</g>
<path d="M97.1614,161.854v -4.72702" fill="none" stroke="black"/>
<path d="M97.1614,151.444v -4.72702" fill="none" stroke="black"/>
<g fill="black">
<circle cx="97.1614" cy="154.285" r="2.84175"/>
</g>
<path d="M97.7283,184.86v -4.2814" fill="none" stroke="black"/>
<path d="M97.7283,174.895v -4.2814" fill="none" stroke="black"/>
<g fill="black">
<circle cx="97.7283" cy="177.736" r="2.84175"/>
</g>
<path d="M98.2953,156.647v -4.82422" fill="none" stroke="black"/>
<path d="M98.2953,146.139v -4.82422" fill="none" stroke="black"/>
<g fill="black">
<circle cx="98.2953" cy="148.981" r="2.84175"/>
</g>
<path d="M98.8622,165.416v -4.65978" fill="none" stroke="black"/>
<path d="M98.8622,155.073v -4.65978" fill="none" stroke="black"/>
<g fill="black">
<circle cx="98.8622" cy="157.915" r="2.84175"/>
</g>
<path d="M99.4291,175.551v -4.46504" fill="none" stroke="black"/>
<path d="M99.4291,165.403v -4.46504" fill="none" stroke="black"/>
<g fill="black">
<circle cx="99.4291" cy="168.244" r="2.84175"/>
</g>
<path d="M99.9961,163.224v -4.70123" fill="none" stroke="black"/>
<path d="M99.9961,152.84v -4.70123" fill="none" stroke="black"/>
<g fill="black">
<circle cx="99.9961" cy="155.681" r="2.84175"/>
</g>
<path d="M100.563,160.484v -4.75272" fill="none" stroke="black"/>
<path d="M100.563,150.048v -4.75272" fill="none" stroke="black"/>
<g fill="black">
<circle cx="100.563" cy="152.89" r="2.84175"/>
</g>
<path d="M101.13,170.621v -4.56042" fill="none" stroke="black"/>
<path d="M101.13,160.377v -4.56042" fill="none" stroke="black"/>
<g fill="black">
<circle cx="101.13" cy="163.219" r="2.84175"/>
</g>
<path d="M101.697,186.502v -4.2485" fill="none" stroke="black"/>
<path d="M101.697,176.57v -4.2485" fill="none" stroke="black"/>
<g fill="black">
<circle cx="101.697" cy="179.411" r="2.84175"/>
</g>
<path d="M102.264,190.88v -4.16" fill="none" stroke="black"/>
<path d="M102.264,181.037v -4.16" fill="none" stroke="black"/>
<g fill="black">
<circle cx="102.264" cy="183.878" r="2.84175"/>
</g>
<path d="M102.831,174.182v -4.49166" fill="none" stroke="black"/>
<path d="M102.831,164.007v -4.49166" fill="none" stroke="black"/>
<g fill="black">
<circle cx="102.831" cy="166.848" r="2.84175"/>
</g>
<path d="M103.398,194.71v -4.08164" fill="none" stroke="black"/>
<path d="M103.398,184.945v -4.08164" fill="none" stroke="black"/>
<g fill="black">
<circle cx="103.398" cy="187.787" r="2.84175"/>
</g>
<path d="M103.965,193.616v -4.10412" fill="none" stroke="black"/>
<path d="M103.965,183.828v -4.10412" fill="none" stroke="black"/>
<g fill="black">
<circle cx="103.965" cy="186.67" r="2.84175"/>
</g>
<path d="M104.531,189.238v -4.19332" fill="none" stroke="black"/>
<path d="M104.531,179.361v -4.19332" fill="none" stroke="black"/>
<g fill="black">
<circle cx="104.531" cy="182.203" r="2.84175"/>
</g>
<path d="M105.098,199.086v -3.99099" fill="none" stroke="black"/>
<path d="M105.098,189.412v -3.99099" fill="none" stroke="black"/>
<g fill="black">
<circle cx="105.098" cy="192.254" r="2.84175"/>
</g>
<path d="M105.665,203.188v -3.9049" fill="none" stroke="black"/>
<path d="M105.665,193.6v -3.9049" fill="none" stroke="black"/>
<g fill="black">
<circle cx="105.665" cy="196.441" r="2.84175"/>
</g>
<path d="M106.232,208.655v -3.78836" fill="none" stroke="black"/>
<path d="M106.232,199.183v -3.78836" fill="none" stroke="black"/>
<g fill="black">
<circle cx="106.232" cy="202.025" r="2.84175"/>
</g>
<path d="M106.799,206.742v -3.82938" fill="none" stroke="black"/>
<path d="M106.799,197.229v -3.82938" fill="none" stroke="black"/>
<g fill="black">
<circle cx="106.799" cy="200.071" r="2.84175"/>
</g>
<path d="M107.366,221.221v -3.51224" fill="none" stroke="black"/>
<path d="M107.366,212.025v -3.51224" fill="none" stroke="black"/>
<g fill="black">
<circle cx="107.366" cy="214.867" r="2.84175"/>
</g>
<path d="M107.933,226.681v -3.38837" fill="none" stroke="black"/>
<path d="M107.933,217.609v -3.38837" fill="none" stroke="black"/>
<g fill="black">
<circle cx="107.933" cy="220.451" r="2.84175"/>
</g>
<path d="M108.5,214.12v -3.66975" fill="none" stroke="black"/>
<path d="M108.5,204.767v -3.66975" fill="none" stroke="black"/>
<g fill="black">
<circle cx="108.5" cy="207.608" r="2.84175"/>
</g>
<path d="M109.067,220.948v -3.51837" fill="none" stroke="black"/>
<path d="M109.067,211.746v -3.51837" fill="none" stroke="black"/>
<g fill="black">
<circle cx="109.067" cy="214.588" r="2.84175"/>
</g>
<path d="M109.634,227.227v -3.37584" fill="none" stroke="black"/>
<path d="M109.634,218.167v -3.37584" fill="none" stroke="black"/>
<g fill="black">
<circle cx="109.634" cy="221.009" r="2.84175"/>
</g>
<path d="M110.201,231.865v -3.26836" fill="none" stroke="black"/>
<path d="M110.201,222.913v -3.26836" fill="none" stroke="black"/>
<g fill="black">
<circle cx="110.201" cy="225.755" r="2.84175"/>
</g>
<path d="M110.768,233.502v -3.22997" fill="none" stroke="black"/>
<path d="M110.768,224.588v -3.22997" fill="none" stroke="black"/>
<g fill="black">
<circle cx="110.768" cy="227.43" r="2.84175"/>
</g>
<path d="M111.335,245.224v -2.94741" fill="none" stroke="black"/>
<path d="M111.335,236.593v -2.94741" fill="none" stroke="black"/>
<g fill="black">
<circle cx="111.335" cy="239.435" r="2.84175"/>
</g>
<path d="M111.902,249.854v -2.83182" fill="none" stroke="black"/>
<path d="M111.902,241.339v -2.83182" fill="none" stroke="black"/>
<g fill="black">
<circle cx="111.902" cy="244.181" r="2.84175"/>
</g>
<path d="M112.469,251.488v -2.79046" fill="none" stroke="black"/>
<path d="M112.469,243.014v -2.79046" fill="none" stroke="black"/>
<g fill="black">
<circle cx="112.469" cy="245.856" r="2.84175"/>
</g>
<path d="M113.035,249.854v -2.83182" fill="none" stroke="black"/>
<path d="M113.035,241.339v -2.83182" fill="none" stroke="black"/>
<g fill="black">
<circle cx="113.035" cy="244.181" r="2.84175"/>
</g>
<path d="M113.602,262.099v -2.51382" fill="none" stroke="black"/>
<path d="M113.602,253.902v -2.51382" fill="none" stroke="black"/>
<g fill="black">
<circle cx="113.602" cy="256.744" r="2.84175"/>
</g>
<path d="M114.169,258.02v -2.62187" fill="none" stroke="black"/>
<path d="M114.169,249.714v -2.62187" fill="none" stroke="black"/>
<g fill="black">
<circle cx="114.169" cy="252.556" r="2.84175"/>
</g>
<path d="M114.736,257.476v -2.63612" fill="none" stroke="black"/>
<path d="M114.736,249.156v -2.63612" fill="none" stroke="black"/>
<g fill="black">
<circle cx="114.736" cy="251.998" r="2.84175"/>
</g>
<path d="M115.303,263.187v -2.48463" fill="none" stroke="black"/>
<path d="M115.303,255.019v -2.48463" fill="none" stroke="black"/>
<g fill="black">
<circle cx="115.303" cy="257.861" r="2.84175"/>
</g>
<path d="M115.87,270.523v -2.28328" fill="none" stroke="black"/>
<path d="M115.87,262.557v -2.28328" fill="none" stroke="black"/>
<g fill="black">
<circle cx="115.87" cy="265.398" r="2.84175"/>
</g>
<path d="M116.437,272.967v -2.21438" fill="none" stroke="black"/>
<path d="M116.437,265.069v -2.21438" fill="none" stroke="black"/>
<g fill="black">
<circle cx="116.437" cy="267.911" r="2.84175"/>
</g>
<path d="M117.004,272.153v -2.23745" fill="none" stroke="black"/>
<path d="M117.004,264.232v -2.23745" fill="none" stroke="black"/>
<g fill="black">
<circle cx="117.004" cy="267.073" r="2.84175"/>
</g>
<path d="M117.571,282.732v -1.92885" fill="none" stroke="black"/>
<path d="M117.571,275.12v -1.92885" fill="none" stroke="black"/>
<g fill="black">
<circle cx="117.571" cy="277.961" r="2.84175"/>
</g>
<path d="M118.138,283.816v -1.89606" fill="none" stroke="black"/>
<path d="M118.138,276.236v -1.89606" fill="none" stroke="black"/>
<g fill="black">
<circle cx="118.138" cy="279.078" r="2.84175"/>
</g>
<path d="M118.705,289.503v -1.72006" fill="none" stroke="black"/>
<path d="M118.705,282.099v -1.72006" fill="none" stroke="black"/>
<g fill="black">
<circle cx="118.705" cy="284.941" r="2.84175"/>
</g>
<path d="M119.272,290.856v -1.67714" fill="none" stroke="black"/>
<path d="M119.272,283.495v -1.67714" fill="none" stroke="black"/>
<g fill="black">
<circle cx="119.272" cy="286.337" r="2.84175"/>
</g>
<path d="M119.839,285.441v -1.84645" fill="none" stroke="black"/>
<path d="M119.839,277.911v -1.84645" fill="none" stroke="black"/>
<g fill="black">
<circle cx="119.839" cy="280.753" r="2.84175"/>
</g>
<path d="M120.406,284.087v -1.88783" fill="none" stroke="black"/>
<path d="M120.406,276.516v -1.88783" fill="none" stroke="black"/>
<g fill="black">
<circle cx="120.406" cy="279.357" r="2.84175"/>
</g>
<path d="M120.972,295.993v -1.51021" fill="none" stroke="black"/>
<path d="M120.972,288.799v -1.51021" fill="none" stroke="black"/>
<g fill="black">
<circle cx="120.972" cy="291.641" r="2.84175"/>
</g>
<path d="M121.539,306.786v -1.13593" fill="none" stroke="black"/>
<path d="M121.539,299.966v -1.13593" fill="none" stroke="black"/>
<g fill="black">
<circle cx="121.539" cy="302.808" r="2.84175"/>
</g>
<path d="M122.106,294.912v -1.54588" fill="none" stroke="black"/>
<path d="M122.106,287.683v -1.54588" fill="none" stroke="black"/>
<g fill="black">
<circle cx="122.106" cy="290.524" r="2.84175"/>
</g>
<path d="M122.673,300.584v -1.35522" fill="none" stroke="black"/>
<path d="M122.673,293.545v -1.35522" fill="none" stroke="black"/>
<g fill="black">
<circle cx="122.673" cy="296.387" r="2.84175"/>
</g>
<path d="M123.24,302.203v -1.29913" fill="none" stroke="black"/>
<path d="M123.24,295.22v -1.29913" fill="none" stroke="black"/>
<g fill="black">
<circle cx="123.24" cy="298.062" r="2.84175"/>
</g>
<path d="M123.807,308.671v -1.06674" fill="none" stroke="black"/>
<path d="M123.807,301.921v -1.06674" fill="none" stroke="black"/>
<g fill="black">
<circle cx="123.807" cy="304.762" r="2.84175"/>
</g>
<path d="M124.374,310.555v -0.996315" fill="none" stroke="black"/>
<path d="M124.374,303.875v -0.996315" fill="none" stroke="black"/>
<g fill="black">
<circle cx="124.374" cy="306.717" r="2.84175"/>
</g>
<path d="M124.941,315.661v -0.798288" fill="none" stroke="black"/>
<path d="M124.941,309.179v -0.798288" fill="none" stroke="black"/>
<g fill="black">
<circle cx="124.941" cy="312.021" r="2.84175"/>
</g>
<path d="M125.508,310.824v -0.986148" fill="none" stroke="black"/>
<path d="M125.508,304.154v -0.986148" fill="none" stroke="black"/>
<g fill="black">
<circle cx="125.508" cy="306.996" r="2.84175"/>
</g>
<path d="M126.075,315.124v -0.819637" fill="none" stroke="black"/>
<path d="M126.075,308.621v -0.819637" fill="none" stroke="black"/>
<g fill="black">
<circle cx="126.075" cy="311.463" r="2.84175"/>
</g>
<path d="M126.642,316.198v -0.776813" fill="none" stroke="black"/>
<path d="M126.642,309.738v -0.776813" fill="none" stroke="black"/>
<g fill="black">
<circle cx="126.642" cy="312.579" r="2.84175"/>
</g>
<path d="M127.209,314.05v -0.861967" fill="none" stroke="black"/>
<path d="M127.209,307.504v -0.861967" fill="none" stroke="black"/>
<g fill="black">
<circle cx="127.209" cy="310.346" r="2.84175"/>
</g>
<path d="M127.776,325.57v -0.37789" fill="none" stroke="black"/>
<path d="M127.776,319.509v -0.37789" fill="none" stroke="black"/>
<g fill="black">
<circle cx="127.776" cy="322.351" r="2.84175"/>
</g>
<path d="M128.343,319.417v -0.645184" fill="none" stroke="black"/>
<path d="M128.343,313.088v -0.645184" fill="none" stroke="black"/>
<g fill="black">
<circle cx="128.343" cy="315.93" r="2.84175"/>
</g>
<path d="M128.909,326.638v -0.329104" fill="none" stroke="black"/>
<path d="M128.909,320.626v -0.329104" fill="none" stroke="black"/>
<g fill="black">
<circle cx="128.909" cy="323.467" r="2.84175"/>
</g>
<path d="M129.476,328.505v -0.241874" fill="none" stroke="black"/>
<path d="M129.476,322.58v -0.241874" fill="none" stroke="black"/>
<g fill="black">
<circle cx="129.476" cy="325.422" r="2.84175"/>
</g>
<path d="M130.043,321.024v -0.57747" fill="none" stroke="black"/>
<path d="M130.043,314.763v -0.57747" fill="none" stroke="black"/>
<g fill="black">
<circle cx="130.043" cy="317.605" r="2.84175"/>
</g>
<path d="M130.61,331.7v -0.0862953" fill="none" stroke="black"/>
<path d="M130.61,325.93v -0.0862953" fill="none" stroke="black"/>
<g fill="black">
<circle cx="130.61" cy="328.772" r="2.84175"/>
</g>
<g fill="black">
<circle cx="131.177" cy="331.564" r="2.84175"/>
</g>
<path d="M131.744,330.636v -0.139057" fill="none" stroke="black"/>
<path d="M131.744,324.813v -0.139057" fill="none" stroke="black"/>
<g fill="black">
<circle cx="131.744" cy="327.655" r="2.84175"/>
</g>
<path d="M132.311,328.772v -0.22921" fill="none" stroke="black"/>
<path d="M132.311,322.859v -0.22921" fill="none" stroke="black"/>
<g fill="black">
<circle cx="132.311" cy="325.701" r="2.84175"/>
</g>
<path d="M132.878,329.305v -0.203724" fill="none" stroke="black"/>
<path d="M132.878,323.417v -0.203724" fill="none" stroke="black"/>
<g fill="black">
<circle cx="132.878" cy="326.259" r="2.84175"/>
</g>
<g fill="black">
<circle cx="133.445" cy="334.914" r="2.84175"/>
</g>
<g fill="black">
<circle cx="134.012" cy="332.959" r="2.84175"/>
</g>
<g fill="black">
<circle cx="134.579" cy="337.985" r="2.84175"/>
</g>
<path d="M135.146,332.763v -0.0325651" fill="none" stroke="black"/>
<path d="M135.146,327.047v -0.0325651" fill="none" stroke="black"/>
<g fill="black">
<circle cx="135.146" cy="329.888" r="2.84175"/>
</g>
<g fill="black">
<circle cx="135.713" cy="337.426" r="2.84175"/>
</g>
<g fill="black">
<circle cx="136.28" cy="336.589" r="2.84175"/>
</g>
<g fill="black">
<circle cx="136.846" cy="339.939" r="2.84175"/>
</g>
<g fill="black">
<circle cx="137.413" cy="337.426" r="2.84175"/>
</g>
<g fill="black">
<circle cx="137.98" cy="343.568" r="2.84175"/>
</g>
<g fill="black">
<circle cx="138.547" cy="341.893" r="2.84175"/>
</g>
<g fill="black">
<circle cx="139.114" cy="341.056" r="2.84175"/>
</g>
<g fill="black">
<circle cx="139.681" cy="343.01" r="2.84175"/>
</g>
<g fill="black">
<circle cx="140.248" cy="343.847" r="2.84175"/>
</g>
<g fill="black">
<circle cx="140.815" cy="344.964" r="2.84175"/>
</g>
<g fill="black">
<circle cx="141.382" cy="347.198" r="2.84175"/>
</g>
<g fill="black">
<circle cx="141.949" cy="347.198" r="2.84175"/>
</g>
<g fill="black">
<circle cx="142.516" cy="346.36" r="2.84175"/>
</g>
<g fill="black">
<circle cx="143.083" cy="344.964" r="2.84175"/>
</g>
<g fill="black">
<circle cx="143.65" cy="350.548" r="2.84175"/>
</g>
<g fill="black">
<circle cx="144.217" cy="344.127" r="2.84175"/>
</g>
<g fill="black">
<circle cx="144.783" cy="348.314" r="2.84175"/>
</g>
<g fill="black">
<circle cx="145.35" cy="350.548" r="2.84175"/>
</g>
<g fill="black">
<circle cx="145.917" cy="349.71" r="2.84175"/>
</g>
<g fill="black">
<circle cx="146.484" cy="349.152" r="2.84175"/>
</g>
<g fill="black">
<circle cx="147.051" cy="350.269" r="2.84175"/>
</g>
<g fill="black">
<circle cx="147.618" cy="349.152" r="2.84175"/>
</g>
<g fill="black">
<circle cx="148.185" cy="353.06" r="2.84175"/>
</g>
<g fill="black">
<circle cx="148.752" cy="352.781" r="2.84175"/>
</g>
<g fill="black">
<circle cx="149.319" cy="352.502" r="2.84175"/>
</g>
<g fill="black">
<circle cx="149.886" cy="349.989" r="2.84175"/>
</g>
<g fill="black">
<circle cx="150.453" cy="351.944" r="2.84175"/>
</g>
<g fill="black">
<circle cx="151.02" cy="352.781" r="2.84175"/>
</g>
<g fill="black">
<circle cx="151.587" cy="350.827" r="2.84175"/>
</g>
<g fill="black">
<circle cx="152.154" cy="349.71" r="2.84175"/>
</g>
<g fill="black">
<circle cx="152.72" cy="352.781" r="2.84175"/>
</g>
<g fill="black">
<circle cx="153.287" cy="355.294" r="2.84175"/>
</g>
<g fill="black">
<circle cx="153.854" cy="351.664" r="2.84175"/>
</g>
<g fill="black">
<circle cx="154.421" cy="353.339" r="2.84175"/>
</g>
<g fill="black">
<circle cx="154.988" cy="353.339" r="2.84175"/>
</g>
<g fill="black">
<circle cx="155.555" cy="354.456" r="2.84175"/>
</g>
<g fill="black">
<circle cx="156.122" cy="353.619" r="2.84175"/>
</g>
<g fill="black">
<circle cx="156.689" cy="355.015" r="2.84175"/>
</g>
<g fill="black">
<circle cx="157.256" cy="353.339" r="2.84175"/>
</g>
<g fill="black">
<circle cx="157.823" cy="355.294" r="2.84175"/>
</g>
<g fill="black">
<circle cx="158.39" cy="354.177" r="2.84175"/>
</g>
<g fill="black">
<circle cx="158.957" cy="355.294" r="2.84175"/>
</g>
<g fill="black">
<circle cx="159.524" cy="354.456" r="2.84175"/>
</g>
<g fill="black">
<circle cx="160.091" cy="355.573" r="2.84175"/>
</g>
<g fill="black">
<circle cx="160.657" cy="356.69" r="2.84175"/>
</g>
<g fill="black">
<circle cx="161.224" cy="356.69" r="2.84175"/>
</g>
<g fill="black">
<circle cx="161.791" cy="354.735" r="2.84175"/>
</g>
<g fill="black">
<circle cx="162.358" cy="356.69" r="2.84175"/>
</g>
<g fill="black">
<circle cx="162.925" cy="358.086" r="2.84175"/>
</g>
<g fill="black">
<circle cx="163.492" cy="358.644" r="2.84175"/>
</g>
<g fill="black">
<circle cx="164.059" cy="356.969" r="2.84175"/>
</g>
<g fill="black">
<circle cx="164.626" cy="355.015" r="2.84175"/>
</g>
<g fill="black">
<circle cx="165.193" cy="356.131" r="2.84175"/>
</g>
<g fill="black">
<circle cx="165.76" cy="356.969" r="2.84175"/>
</g>
<g fill="black">
<circle cx="166.327" cy="356.131" r="2.84175"/>
</g>
<g fill="black">
<circle cx="166.894" cy="356.41" r="2.84175"/>
</g>
<g fill="black">
<circle cx="167.461" cy="358.365" r="2.84175"/>
</g>
<g fill="black">
<circle cx="168.028" cy="356.41" r="2.84175"/>
</g>
<g fill="black">
<circle cx="168.594" cy="356.69" r="2.84175"/>
</g>
<g fill="black">
<circle cx="169.161" cy="357.527" r="2.84175"/>
</g>
<g fill="black">
<circle cx="169.728" cy="358.086" r="2.84175"/>
</g>
<g fill="black">
<circle cx="170.295" cy="356.969" r="2.84175"/>
</g>
<g fill="black">
<circle cx="170.862" cy="356.69" r="2.84175"/>
</g>
<g fill="black">
<circle cx="171.429" cy="356.131" r="2.84175"/>
</g>
<g fill="black">
<circle cx="171.996" cy="358.086" r="2.84175"/>
</g>
<g fill="black">
<circle cx="172.563" cy="357.527" r="2.84175"/>
</g>
<g fill="black">
<circle cx="173.13" cy="358.365" r="2.84175"/>
</g>
<g fill="black">
<circle cx="173.697" cy="358.365" r="2.84175"/>
</g>
<g fill="black">
<circle cx="174.264" cy="358.086" r="2.84175"/>
</g>
<g fill="black">
<circle cx="174.831" cy="357.527" r="2.84175"/>
</g>
<g fill="black">
<circle cx="175.398" cy="357.806" r="2.84175"/>
</g>
<g fill="black">
<circle cx="175.965" cy="358.365" r="2.84175"/>
</g>
<g fill="black">
<circle cx="176.531" cy="357.248" r="2.84175"/>
</g>
<g fill="black">
<circle cx="177.098" cy="358.086" r="2.84175"/>
</g>
<g fill="black">
<circle cx="177.665" cy="357.248" r="2.84175"/>
</g>
<g fill="black">
<circle cx="178.232" cy="358.086" r="2.84175"/>
</g>
<g fill="black">
<circle cx="178.799" cy="357.806" r="2.84175"/>
</g>
<g fill="black">
<circle cx="179.366" cy="357.806" r="2.84175"/>
</g>
<g fill="black">
<circle cx="179.933" cy="358.365" r="2.84175"/>
</g>
<g fill="black">
<circle cx="180.5" cy="358.365" r="2.84175"/>
</g>
<g fill="black">
<circle cx="181.067" cy="358.086" r="2.84175"/>
</g>
<g fill="black">
<circle cx="181.634" cy="358.923" r="2.84175"/>
</g>
<g fill="black">
<circle cx="182.201" cy="358.086" r="2.84175"/>
</g>
<g fill="black">
<circle cx="182.768" cy="358.086" r="2.84175"/>
</g>
<g fill="black">
<circle cx="183.335" cy="359.202" r="2.84175"/>
</g>
<g fill="black">
<circle cx="183.902" cy="358.644" r="2.84175"/>
</g>
<g fill="black">
<circle cx="184.469" cy="357.527" r="2.84175"/>
</g>
<g fill="black">
<circle cx="185.035" cy="358.644" r="2.84175"/>
</g>
<g fill="black">
<circle cx="185.602" cy="357.806" r="2.84175"/>
</g>
<g fill="black">
<circle cx="186.169" cy="358.086" r="2.84175"/>
</g>
<g fill="black">
<circle cx="187.303" cy="358.923" r="2.84175"/>
</g>
<g fill="black">
<circle cx="187.87" cy="358.365" r="2.84175"/>
</g>
<g fill="black">
<circle cx="188.437" cy="358.923" r="2.84175"/>
</g>
<g fill="black">
<circle cx="189.004" cy="358.086" r="2.84175"/>
</g>
<g fill="black">
<circle cx="189.571" cy="358.644" r="2.84175"/>
</g>
<g fill="black">
<circle cx="190.138" cy="358.923" r="2.84175"/>
</g>
<g fill="black">
<circle cx="190.705" cy="357.806" r="2.84175"/>
</g>
<g fill="black">
<circle cx="191.272" cy="358.923" r="2.84175"/>
</g>
<g fill="black">
<circle cx="192.406" cy="358.923" r="2.84175"/>
</g>
<g fill="black">
<circle cx="192.972" cy="358.365" r="2.84175"/>
</g>
<g fill="black">
<circle cx="193.539" cy="359.202" r="2.84175"/>
</g>
<g fill="black">
<circle cx="194.106" cy="358.365" r="2.84175"/>
</g>
<g fill="black">
<circle cx="194.673" cy="358.644" r="2.84175"/>
</g>
<g fill="black">
<circle cx="195.807" cy="359.202" r="2.84175"/>
</g>
<g fill="black">
<circle cx="196.374" cy="358.644" r="2.84175"/>
</g>
<g fill="black">
<circle cx="196.941" cy="358.923" r="2.84175"/>
</g>
<g fill="black">
<circle cx="197.508" cy="359.202" r="2.84175"/>
</g>
<g fill="black">
<circle cx="198.075" cy="358.644" r="2.84175"/>
</g>
<g fill="black">
<circle cx="198.642" cy="358.923" r="2.84175"/>
</g>
<g fill="black">
<circle cx="199.209" cy="358.923" r="2.84175"/>
</g>
<g fill="black">
<circle cx="200.909" cy="359.202" r="2.84175"/>
</g>
<g fill="black">
<circle cx="201.476" cy="359.202" r="2.84175"/>
</g>
<g fill="black">
<circle cx="202.043" cy="358.644" r="2.84175"/>
</g>
<g fill="black">
<circle cx="204.311" cy="358.923" r="2.84175"/>
</g>
<g fill="black">
<circle cx="204.878" cy="359.202" r="2.84175"/>
</g>
<g fill="black">
<circle cx="206.012" cy="358.644" r="2.84175"/>
</g>
<g fill="black">
<circle cx="206.579" cy="358.923" r="2.84175"/>
</g>
<g fill="black">
<circle cx="207.146" cy="359.202" r="2.84175"/>
</g>
<g fill="black">
<circle cx="209.413" cy="358.923" r="2.84175"/>
</g>
<g fill="black">
<circle cx="209.98" cy="359.202" r="2.84175"/>
</g>
<g fill="black">
<circle cx="210.547" cy="359.202" r="2.84175"/>
</g>
<g fill="black">
<circle cx="211.114" cy="358.644" r="2.84175"/>
</g>
<g fill="black">
<circle cx="211.681" cy="358.923" r="2.84175"/>
</g>
<g fill="black">
<circle cx="212.248" cy="358.923" r="2.84175"/>
</g>
<g fill="black">
<circle cx="212.815" cy="359.202" r="2.84175"/>
</g>
<g fill="black">
<circle cx="213.382" cy="358.923" r="2.84175"/>
</g>
<g fill="black">
<circle cx="213.949" cy="359.202" r="2.84175"/>
</g>
<g fill="black">
<circle cx="214.516" cy="359.202" r="2.84175"/>
</g>
<g fill="black">
<circle cx="215.083" cy="359.202" r="2.84175"/>
</g>
<g fill="black">
<circle cx="216.217" cy="359.202" r="2.84175"/>
</g>
<g fill="black">
<circle cx="217.35" cy="359.202" r="2.84175"/>
</g>
<g fill="black">
<circle cx="219.051" cy="359.202" r="2.84175"/>
</g>
<g fill="black">
<circle cx="219.618" cy="359.202" r="2.84175"/>
</g>
<g fill="black">
<circle cx="220.185" cy="359.202" r="2.84175"/>
</g>
<g fill="black">
<circle cx="221.319" cy="359.202" r="2.84175"/>
</g>
<g fill="black">
<circle cx="223.02" cy="358.923" r="2.84175"/>
</g>
<g fill="black">
<circle cx="224.72" cy="358.365" r="2.84175"/>
</g>
<g fill="black">
<circle cx="229.256" cy="359.202" r="2.84175"/>
</g>
<g fill="black">
<circle cx="229.823" cy="359.202" r="2.84175"/>
</g>
<g fill="black">
<circle cx="233.791" cy="359.202" r="2.84175"/>
</g>
<g fill="black">
<circle cx="234.358" cy="359.202" r="2.84175"/>
</g>
<g fill="black">
<circle cx="235.492" cy="359.202" r="2.84175"/>
</g>
<g fill="black">
<circle cx="237.193" cy="359.202" r="2.84175"/>
</g>
<g fill="black">
<circle cx="238.327" cy="359.202" r="2.84175"/>
</g>
<g fill="black">
<circle cx="238.894" cy="359.202" r="2.84175"/>
</g>
<g fill="black">
<circle cx="239.461" cy="359.202" r="2.84175"/>
</g>
<g fill="black">
<circle cx="241.728" cy="359.202" r="2.84175"/>
</g>
<g fill="black">
<circle cx="242.295" cy="359.202" r="2.84175"/>
</g>
<g fill="black">
<circle cx="242.862" cy="359.202" r="2.84175"/>
</g>
<g fill="black">
<circle cx="243.429" cy="358.923" r="2.84175"/>
</g>
<g fill="black">
<circle cx="249.098" cy="359.202" r="2.84175"/>
</g>
<g fill="black">
<circle cx="250.799" cy="359.202" r="2.84175"/>
</g>
<g fill="black">
<circle cx="253.634" cy="359.202" r="2.84175"/>
</g>
<g fill="black">
<circle cx="259.87" cy="359.202" r="2.84175"/>
</g>
<g fill="black">
<circle cx="261.571" cy="359.202" r="2.84175"/>
</g>
<g fill="black">
<circle cx="264.972" cy="359.202" r="2.84175"/>
</g>
<g fill="black">
<circle cx="266.106" cy="359.202" r="2.84175"/>
</g>
<g fill="black">
<circle cx="271.209" cy="359.202" r="2.84175"/>
</g>
<g fill="black">
<circle cx="272.909" cy="359.202" r="2.84175"/>
</g>
<g fill="black">
<circle cx="273.476" cy="359.202" r="2.84175"/>
</g>
<g fill="black">
<circle cx="277.445" cy="358.923" r="2.84175"/>
</g>
<g fill="black">
<circle cx="279.713" cy="359.202" r="2.84175"/>
</g>
<g fill="black">
<circle cx="281.413" cy="359.202" r="2.84175"/>
</g>
<g fill="black">
<circle cx="291.051" cy="359.202" r="2.84175"/>
</g>
<g fill="black">
<circle cx="291.618" cy="359.202" r="2.84175"/>
</g>
<g fill="black">
<circle cx="298.988" cy="358.923" r="2.84175"/>
</g>
<g fill="black">
<circle cx="300.689" cy="359.202" r="2.84175"/>
</g>
<g fill="black">
<circle cx="320.531" cy="359.202" r="2.84175"/>
</g>
<g fill="black">
<circle cx="323.933" cy="359.202" r="2.84175"/>
</g>
<g fill="black">
<circle cx="361.35" cy="359.202" r="2.84175"/>
</g>
<text xml:space="preserve" x="304.567" y="43.3367" fill="black" font-size="15.4909" font-family="Helvetica">PYTHIA8</text>
<text xml:space="preserve" x="304.567" y="63.2289" fill="black" font-size="15.4909" font-family="Helvetica">p+Au 200 GeV</text>
<text xml:space="preserve" x="304.567" y="83.8316" fill="black" font-size="15.4909" font-family="Helvetica">option = 3(No diffraction)</text>
<text xml:space="preserve" x="328.722" y="104.434" fill="black" font-size="15.4909" font-family="Helvetica">=1 event</text>
<text xml:space="preserve" x="314.513" y="108.697" fill="black" font-size="10.4939" font-family="Helvetica">coll</text>
<text xml:space="preserve" x="304.567" y="104.434" fill="black" font-size="15.4909" font-family="Helvetica">N</text>
<text xml:space="preserve" x="315.934" y="125.037" fill="black" font-size="15.4909" font-family="Helvetica">|&lt;1</text>
<text xml:space="preserve" x="307.409" y="125.037" fill="black" font-size="15.4909" font-family="Times">&#0951;</text>
<text xml:space="preserve" x="304.567" y="125.037" fill="black" font-size="15.4909" font-family="Helvetica">|</text>
<text xml:space="preserve" x="351.456" y="139.246" fill="black" font-size="10.4939" font-family="Helvetica">0</text>
<text xml:space="preserve" x="342.931" y="144.929" fill="black" font-size="15.4909" font-family="Times">&#0960;</text>
<g fill="black">
<circle cx="322.232" cy="140.933" r="2.84175"/>
</g></svg>
