<?xml version="1.0" standalone="no"?>
<svg width="567.429" height="409.002" viewBox="0 0 567.429 409.002" xmlns="http://www.w3.org/2000/svg" shape-rendering="crispEdges">
<title>
/Users/jinhyunpark/npl/gitHub/xloadFromServer/Git_Bias_correction_RxA/plots_dirIncluded/dirInExCompare_dNchdeta.svg
</title>
<desc>
Creator: ROOT Version 6.28/04
CreationDate: Fri Jul 21 18:53:07 2023</desc>
<defs>
</defs>
<rect x="0.5" y="0" width="566.929" height="408.502" fill="white"/>
<rect x="85.5394" y="20.4251" width="396.85" height="339.056" fill="white"/>
<rect x="85.5394" y="20.4251" width="396.85" height="339.056" fill="none" stroke="black"/>
<rect x="85.5394" y="20.4251" width="396.85" height="339.056" fill="white"/>
<rect x="85.5394" y="20.4251" width="396.85" height="339.056" fill="none" stroke="black"/>
<path d="M85.5394,359.481h 396.85" fill="none" stroke="black"/>
<path d="M85.5394,350.903v 8.57853" fill="none" stroke="black"/>
<path d="M102.075,355.192v 4.28927" fill="none" stroke="black"/>
<path d="M118.61,355.192v 4.28927" fill="none" stroke="black"/>
<path d="M135.146,355.192v 4.28927" fill="none" stroke="black"/>
<path d="M151.681,350.903v 8.57853" fill="none" stroke="black"/>
<path d="M168.217,355.192v 4.28927" fill="none" stroke="black"/>
<path d="M184.752,355.192v 4.28927" fill="none" stroke="black"/>
<path d="M201.287,355.192v 4.28927" fill="none" stroke="black"/>
<path d="M217.823,350.903v 8.57853" fill="none" stroke="black"/>
<path d="M234.358,355.192v 4.28927" fill="none" stroke="black"/>
<path d="M250.894,355.192v 4.28927" fill="none" stroke="black"/>
<path d="M267.429,355.192v 4.28927" fill="none" stroke="black"/>
<path d="M283.965,350.903v 8.57853" fill="none" stroke="black"/>
<path d="M300.5,355.192v 4.28927" fill="none" stroke="black"/>
<path d="M317.035,355.192v 4.28927" fill="none" stroke="black"/>
<path d="M333.571,355.192v 4.28927" fill="none" stroke="black"/>
<path d="M350.106,350.903v 8.57853" fill="none" stroke="black"/>
<path d="M366.642,355.192v 4.28927" fill="none" stroke="black"/>
<path d="M383.177,355.192v 4.28927" fill="none" stroke="black"/>
<path d="M399.713,355.192v 4.28927" fill="none" stroke="black"/>
<path d="M416.248,350.903v 8.57853" fill="none" stroke="black"/>
<path d="M432.783,355.192v 4.28927" fill="none" stroke="black"/>
<path d="M449.319,355.192v 4.28927" fill="none" stroke="black"/>
<path d="M465.854,355.192v 4.28927" fill="none" stroke="black"/>
<path d="M482.39,350.903v 8.57853" fill="none" stroke="black"/>
<text xml:space="preserve" x="85.0421" y="372.269" fill="black" font-size="13.617" font-family="Helvetica">6</text>
<text xml:space="preserve" x="77.2272" y="372.269" fill="black" font-size="13.617" font-family="Times">&#8722;</text>
<text xml:space="preserve" x="151.113" y="372.269" fill="black" font-size="13.617" font-family="Helvetica">4</text>
<text xml:space="preserve" x="143.298" y="372.269" fill="black" font-size="13.617" font-family="Times">&#8722;</text>
<text xml:space="preserve" x="217.183" y="372.269" fill="black" font-size="13.617" font-family="Helvetica">2</text>
<text xml:space="preserve" x="209.369" y="372.269" fill="black" font-size="13.617" font-family="Times">&#8722;</text>
<text xml:space="preserve" x="280.412" y="372.269" fill="black" font-size="13.617" font-family="Helvetica">0</text>
<text xml:space="preserve" x="346.483" y="372.269" fill="black" font-size="13.617" font-family="Helvetica">2</text>
<text xml:space="preserve" x="412.554" y="372.269" fill="black" font-size="13.617" font-family="Helvetica">4</text>
<text xml:space="preserve" x="478.624" y="372.269" fill="black" font-size="13.617" font-family="Helvetica">6</text>
<text xml:space="preserve" x="474.362" y="384.347" fill="black" font-size="13.617" font-family="Times">&#0951;</text>
<path d="M85.5394,20.4251h 396.85" fill="none" stroke="black"/>
<path d="M85.5394,29.0036v -8.57853" fill="none" stroke="black"/>
<path d="M102.075,24.7143v -4.28927" fill="none" stroke="black"/>
<path d="M118.61,24.7143v -4.28927" fill="none" stroke="black"/>
<path d="M135.146,24.7143v -4.28927" fill="none" stroke="black"/>
<path d="M151.681,29.0036v -8.57853" fill="none" stroke="black"/>
<path d="M168.217,24.7143v -4.28927" fill="none" stroke="black"/>
<path d="M184.752,24.7143v -4.28927" fill="none" stroke="black"/>
<path d="M201.287,24.7143v -4.28927" fill="none" stroke="black"/>
<path d="M217.823,29.0036v -8.57853" fill="none" stroke="black"/>
<path d="M234.358,24.7143v -4.28927" fill="none" stroke="black"/>
<path d="M250.894,24.7143v -4.28927" fill="none" stroke="black"/>
<path d="M267.429,24.7143v -4.28927" fill="none" stroke="black"/>
<path d="M283.965,29.0036v -8.57853" fill="none" stroke="black"/>
<path d="M300.5,24.7143v -4.28927" fill="none" stroke="black"/>
<path d="M317.035,24.7143v -4.28927" fill="none" stroke="black"/>
<path d="M333.571,24.7143v -4.28927" fill="none" stroke="black"/>
<path d="M350.106,29.0036v -8.57853" fill="none" stroke="black"/>
<path d="M366.642,24.7143v -4.28927" fill="none" stroke="black"/>
<path d="M383.177,24.7143v -4.28927" fill="none" stroke="black"/>
<path d="M399.713,24.7143v -4.28927" fill="none" stroke="black"/>
<path d="M416.248,29.0036v -8.57853" fill="none" stroke="black"/>
<path d="M432.783,24.7143v -4.28927" fill="none" stroke="black"/>
<path d="M449.319,24.7143v -4.28927" fill="none" stroke="black"/>
<path d="M465.854,24.7143v -4.28927" fill="none" stroke="black"/>
<path d="M482.39,29.0036v -8.57853" fill="none" stroke="black"/>
<path d="M85.5394,359.481v -339.056" fill="none" stroke="black"/>
<path d="M99.6559,359.481h -14.1165" fill="none" stroke="black"/>
<path d="M92.5976,352.7h -7.05827" fill="none" stroke="black"/>
<path d="M92.5976,345.919h -7.05827" fill="none" stroke="black"/>
<path d="M92.5976,339.138h -7.05827" fill="none" stroke="black"/>
<path d="M92.5976,332.357h -7.05827" fill="none" stroke="black"/>
<path d="M99.6559,325.576h -14.1165" fill="none" stroke="black"/>
<path d="M92.5976,318.795h -7.05827" fill="none" stroke="black"/>
<path d="M92.5976,312.014h -7.05827" fill="none" stroke="black"/>
<path d="M92.5976,305.232h -7.05827" fill="none" stroke="black"/>
<path d="M92.5976,298.451h -7.05827" fill="none" stroke="black"/>
<path d="M99.6559,291.67h -14.1165" fill="none" stroke="black"/>
<path d="M92.5976,284.889h -7.05827" fill="none" stroke="black"/>
<path d="M92.5976,278.108h -7.05827" fill="none" stroke="black"/>
<path d="M92.5976,271.327h -7.05827" fill="none" stroke="black"/>
<path d="M92.5976,264.546h -7.05827" fill="none" stroke="black"/>
<path d="M99.6559,257.764h -14.1165" fill="none" stroke="black"/>
<path d="M92.5976,250.983h -7.05827" fill="none" stroke="black"/>
<path d="M92.5976,244.202h -7.05827" fill="none" stroke="black"/>
<path d="M92.5976,237.421h -7.05827" fill="none" stroke="black"/>
<path d="M92.5976,230.64h -7.05827" fill="none" stroke="black"/>
<path d="M99.6559,223.859h -14.1165" fill="none" stroke="black"/>
<path d="M92.5976,217.078h -7.05827" fill="none" stroke="black"/>
<path d="M92.5976,210.297h -7.05827" fill="none" stroke="black"/>
<path d="M92.5976,203.515h -7.05827" fill="none" stroke="black"/>
<path d="M92.5976,196.734h -7.05827" fill="none" stroke="black"/>
<path d="M99.6559,189.953h -14.1165" fill="none" stroke="black"/>
<path d="M92.5976,183.172h -7.05827" fill="none" stroke="black"/>
<path d="M92.5976,176.391h -7.05827" fill="none" stroke="black"/>
<path d="M92.5976,169.61h -7.05827" fill="none" stroke="black"/>
<path d="M92.5976,162.829h -7.05827" fill="none" stroke="black"/>
<path d="M99.6559,156.048h -14.1165" fill="none" stroke="black"/>
<path d="M92.5976,149.266h -7.05827" fill="none" stroke="black"/>
<path d="M92.5976,142.485h -7.05827" fill="none" stroke="black"/>
<path d="M92.5976,135.704h -7.05827" fill="none" stroke="black"/>
<path d="M92.5976,128.923h -7.05827" fill="none" stroke="black"/>
<path d="M99.6559,122.142h -14.1165" fill="none" stroke="black"/>
<path d="M92.5976,115.361h -7.05827" fill="none" stroke="black"/>
<path d="M92.5976,108.58h -7.05827" fill="none" stroke="black"/>
<path d="M92.5976,101.799h -7.05827" fill="none" stroke="black"/>
<path d="M92.5976,95.0175h -7.05827" fill="none" stroke="black"/>
<path d="M99.6559,88.2363h -14.1165" fill="none" stroke="black"/>
<path d="M92.5976,81.4552h -7.05827" fill="none" stroke="black"/>
<path d="M92.5976,74.6741h -7.05827" fill="none" stroke="black"/>
<path d="M92.5976,67.893h -7.05827" fill="none" stroke="black"/>
<path d="M92.5976,61.1118h -7.05827" fill="none" stroke="black"/>
<path d="M99.6559,54.3307h -14.1165" fill="none" stroke="black"/>
<path d="M92.5976,47.5496h -7.05827" fill="none" stroke="black"/>
<path d="M92.5976,40.7685h -7.05827" fill="none" stroke="black"/>
<path d="M92.5976,33.9873h -7.05827" fill="none" stroke="black"/>
<path d="M92.5976,27.2062h -7.05827" fill="none" stroke="black"/>
<path d="M99.6559,20.4251h -14.1165" fill="none" stroke="black"/>
<text xml:space="preserve" x="75.0959" y="364.454" fill="black" font-size="13.617" font-family="Helvetica">0</text>
<text xml:space="preserve" x="77.2272" y="331.064" fill="black" font-size="13.617" font-family="Helvetica">1</text>
<text xml:space="preserve" x="75.0959" y="296.963" fill="black" font-size="13.617" font-family="Helvetica">2</text>
<text xml:space="preserve" x="75.0959" y="262.151" fill="black" font-size="13.617" font-family="Helvetica">3</text>
<text xml:space="preserve" x="75.0959" y="229.471" fill="black" font-size="13.617" font-family="Helvetica">4</text>
<text xml:space="preserve" x="75.0959" y="194.66" fill="black" font-size="13.617" font-family="Helvetica">5</text>
<text xml:space="preserve" x="75.0959" y="160.559" fill="black" font-size="13.617" font-family="Helvetica">6</text>
<text xml:space="preserve" x="75.0959" y="127.168" fill="black" font-size="13.617" font-family="Helvetica">7</text>
<text xml:space="preserve" x="75.0959" y="93.0673" fill="black" font-size="13.617" font-family="Helvetica">8</text>
<text xml:space="preserve" x="75.0959" y="58.9663" fill="black" font-size="13.617" font-family="Helvetica">9</text>
<text xml:space="preserve" x="67.2811" y="24.8653" fill="black" font-size="13.617" font-family="Helvetica">10</text>
<g transform="rotate(-90,54.4933,102.303)">
<text xml:space="preserve" x="54.4933" y="102.303" fill="black" font-size="13.617" font-family="Helvetica">invariant yield</text>
</g>
<path d="M482.39,359.481v -339.056" fill="none" stroke="black"/>
<path d="M468.273,359.481h 14.1165" fill="none" stroke="black"/>
<path d="M475.332,352.7h 7.05827" fill="none" stroke="black"/>
<path d="M475.332,345.919h 7.05827" fill="none" stroke="black"/>
<path d="M475.332,339.138h 7.05827" fill="none" stroke="black"/>
<path d="M475.332,332.357h 7.05827" fill="none" stroke="black"/>
<path d="M468.273,325.576h 14.1165" fill="none" stroke="black"/>
<path d="M475.332,318.795h 7.05827" fill="none" stroke="black"/>
<path d="M475.332,312.014h 7.05827" fill="none" stroke="black"/>
<path d="M475.332,305.232h 7.05827" fill="none" stroke="black"/>
<path d="M475.332,298.451h 7.05827" fill="none" stroke="black"/>
<path d="M468.273,291.67h 14.1165" fill="none" stroke="black"/>
<path d="M475.332,284.889h 7.05827" fill="none" stroke="black"/>
<path d="M475.332,278.108h 7.05827" fill="none" stroke="black"/>
<path d="M475.332,271.327h 7.05827" fill="none" stroke="black"/>
<path d="M475.332,264.546h 7.05827" fill="none" stroke="black"/>
<path d="M468.273,257.764h 14.1165" fill="none" stroke="black"/>
<path d="M475.332,250.983h 7.05827" fill="none" stroke="black"/>
<path d="M475.332,244.202h 7.05827" fill="none" stroke="black"/>
<path d="M475.332,237.421h 7.05827" fill="none" stroke="black"/>
<path d="M475.332,230.64h 7.05827" fill="none" stroke="black"/>
<path d="M468.273,223.859h 14.1165" fill="none" stroke="black"/>
<path d="M475.332,217.078h 7.05827" fill="none" stroke="black"/>
<path d="M475.332,210.297h 7.05827" fill="none" stroke="black"/>
<path d="M475.332,203.515h 7.05827" fill="none" stroke="black"/>
<path d="M475.332,196.734h 7.05827" fill="none" stroke="black"/>
<path d="M468.273,189.953h 14.1165" fill="none" stroke="black"/>
<path d="M475.332,183.172h 7.05827" fill="none" stroke="black"/>
<path d="M475.332,176.391h 7.05827" fill="none" stroke="black"/>
<path d="M475.332,169.61h 7.05827" fill="none" stroke="black"/>
<path d="M475.332,162.829h 7.05827" fill="none" stroke="black"/>
<path d="M468.273,156.048h 14.1165" fill="none" stroke="black"/>
<path d="M475.332,149.266h 7.05827" fill="none" stroke="black"/>
<path d="M475.332,142.485h 7.05827" fill="none" stroke="black"/>
<path d="M475.332,135.704h 7.05827" fill="none" stroke="black"/>
<path d="M475.332,128.923h 7.05827" fill="none" stroke="black"/>
<path d="M468.273,122.142h 14.1165" fill="none" stroke="black"/>
<path d="M475.332,115.361h 7.05827" fill="none" stroke="black"/>
<path d="M475.332,108.58h 7.05827" fill="none" stroke="black"/>
<path d="M475.332,101.799h 7.05827" fill="none" stroke="black"/>
<path d="M475.332,95.0175h 7.05827" fill="none" stroke="black"/>
<path d="M468.273,88.2363h 14.1165" fill="none" stroke="black"/>
<path d="M475.332,81.4552h 7.05827" fill="none" stroke="black"/>
<path d="M475.332,74.6741h 7.05827" fill="none" stroke="black"/>
<path d="M475.332,67.893h 7.05827" fill="none" stroke="black"/>
<path d="M475.332,61.1118h 7.05827" fill="none" stroke="black"/>
<path d="M468.273,54.3307h 14.1165" fill="none" stroke="black"/>
<path d="M475.332,47.5496h 7.05827" fill="none" stroke="black"/>
<path d="M475.332,40.7685h 7.05827" fill="none" stroke="black"/>
<path d="M475.332,33.9873h 7.05827" fill="none" stroke="black"/>
<path d="M475.332,27.2062h 7.05827" fill="none" stroke="black"/>
<path d="M468.273,20.4251h 14.1165" fill="none" stroke="black"/>
<path d="M118.61,262.214h 5.42597" fill="none" stroke="#ff0000"/>
<path d="M129.72,262.214h 5.42597" fill="none" stroke="#ff0000"/>
<g stroke="#ff0000" stroke-width="1" fill="none">
<polygon points=" 125.931, 261.266 125.931, 259.372 127.825, 259.372 127.825, 261.266 129.72, 261.266 129.72, 263.161 127.825, 263.161 127.825, 265.055 125.931, 265.055 125.931, 263.161 124.036, 263.161 124.036, 261.266"/>
</g>
<path d="M135.146,244.793h 5.42597" fill="none" stroke="#ff0000"/>
<path d="M146.255,244.793h 5.42597" fill="none" stroke="#ff0000"/>
<g stroke="#ff0000" stroke-width="1" fill="none">
<polygon points=" 142.466, 243.846 142.466, 241.951 144.361, 241.951 144.361, 243.846 146.255, 243.846 146.255, 245.74 144.361, 245.74 144.361, 247.635 142.466, 247.635 142.466, 245.74 140.572, 245.74 140.572, 243.846"/>
</g>
<path d="M151.681,235.32h 5.42597" fill="none" stroke="#ff0000"/>
<path d="M162.791,235.32h 5.42597" fill="none" stroke="#ff0000"/>
<g stroke="#ff0000" stroke-width="1" fill="none">
<polygon points=" 159.002, 234.373 159.002, 232.479 160.896, 232.479 160.896, 234.373 162.791, 234.373 162.791, 236.268 160.896, 236.268 160.896, 238.162 159.002, 238.162 159.002, 236.268 157.107, 236.268 157.107, 234.373"/>
</g>
<path d="M168.217,229.581h 5.42597" fill="none" stroke="#ff0000"/>
<path d="M179.326,229.581h 5.42597" fill="none" stroke="#ff0000"/>
<g stroke="#ff0000" stroke-width="1" fill="none">
<polygon points=" 175.537, 228.634 175.537, 226.739 177.432, 226.739 177.432, 228.634 179.326, 228.634 179.326, 230.528 177.432, 230.528 177.432, 232.423 175.537, 232.423 175.537, 230.528 173.643, 230.528 173.643, 228.634"/>
</g>
<path d="M184.752,226.073h 5.42597" fill="none" stroke="#ff0000"/>
<path d="M195.861,226.073h 5.42597" fill="none" stroke="#ff0000"/>
<g stroke="#ff0000" stroke-width="1" fill="none">
<polygon points=" 192.072, 225.126 192.072, 223.231 193.967, 223.231 193.967, 225.126 195.861, 225.126 195.861, 227.02 193.967, 227.02 193.967, 228.915 192.072, 228.915 192.072, 227.02 190.178, 227.02 190.178, 225.126"/>
</g>
<path d="M201.287,224.656h 5.42597" fill="none" stroke="#ff0000"/>
<path d="M212.397,224.656h 5.42597" fill="none" stroke="#ff0000"/>
<g stroke="#ff0000" stroke-width="1" fill="none">
<polygon points=" 208.608, 223.708 208.608, 221.814 210.502, 221.814 210.502, 223.708 212.397, 223.708 212.397, 225.603 210.502, 225.603 210.502, 227.497 208.608, 227.497 208.608, 225.603 206.713, 225.603 206.713, 223.708"/>
</g>
<path d="M217.823,227.013h 5.42597" fill="none" stroke="#ff0000"/>
<path d="M228.932,227.013h 5.42597" fill="none" stroke="#ff0000"/>
<g stroke="#ff0000" stroke-width="1" fill="none">
<polygon points=" 225.143, 226.066 225.143, 224.172 227.038, 224.172 227.038, 226.066 228.932, 226.066 228.932, 227.961 227.038, 227.961 227.038, 229.855 225.143, 229.855 225.143, 227.961 223.249, 227.961 223.249, 226.066"/>
</g>
<path d="M234.358,234.468h 5.42597" fill="none" stroke="#ff0000"/>
<path d="M245.468,234.468h 5.42597" fill="none" stroke="#ff0000"/>
<g stroke="#ff0000" stroke-width="1" fill="none">
<polygon points=" 241.679, 233.521 241.679, 231.626 243.573, 231.626 243.573, 233.521 245.468, 233.521 245.468, 235.415 243.573, 235.415 243.573, 237.31 241.679, 237.31 241.679, 235.415 239.784, 235.415 239.784, 233.521"/>
</g>
<path d="M250.894,244.487h 5.42597" fill="none" stroke="#ff0000"/>
<path d="M262.003,244.487h 5.42597" fill="none" stroke="#ff0000"/>
<g stroke="#ff0000" stroke-width="1" fill="none">
<polygon points=" 258.214, 243.54 258.214, 241.645 260.109, 241.645 260.109, 243.54 262.003, 243.54 262.003, 245.434 260.109, 245.434 260.109, 247.329 258.214, 247.329 258.214, 245.434 256.32, 245.434 256.32, 243.54"/>
</g>
<path d="M267.429,254.246h 5.42597" fill="none" stroke="#ff0000"/>
<path d="M278.539,254.246h 5.42597" fill="none" stroke="#ff0000"/>
<g stroke="#ff0000" stroke-width="1" fill="none">
<polygon points=" 274.75, 253.299 274.75, 251.404 276.644, 251.404 276.644, 253.299 278.539, 253.299 278.539, 255.193 276.644, 255.193 276.644, 257.088 274.75, 257.088 274.75, 255.193 272.855, 255.193 272.855, 253.299"/>
</g>
<path d="M283.965,259.918h 5.42597" fill="none" stroke="#ff0000"/>
<path d="M295.074,259.918h 5.42597" fill="none" stroke="#ff0000"/>
<g stroke="#ff0000" stroke-width="1" fill="none">
<polygon points=" 291.285, 258.97 291.285, 257.076 293.18, 257.076 293.18, 258.97 295.074, 258.97 295.074, 260.865 293.18, 260.865 293.18, 262.759 291.285, 262.759 291.285, 260.865 289.391, 260.865 289.391, 258.97"/>
</g>
<path d="M300.5,262.281h 5.42597" fill="none" stroke="#ff0000"/>
<path d="M311.609,262.281h 5.42597" fill="none" stroke="#ff0000"/>
<g stroke="#ff0000" stroke-width="1" fill="none">
<polygon points=" 307.82, 261.334 307.82, 259.44 309.715, 259.44 309.715, 261.334 311.609, 261.334 311.609, 263.229 309.715, 263.229 309.715, 265.123 307.82, 265.123 307.82, 263.229 305.926, 263.229 305.926, 261.334"/>
</g>
<path d="M317.035,266.006h 5.42597" fill="none" stroke="#ff0000"/>
<path d="M328.145,266.006h 5.42597" fill="none" stroke="#ff0000"/>
<g stroke="#ff0000" stroke-width="1" fill="none">
<polygon points=" 324.356, 265.059 324.356, 263.165 326.25, 263.165 326.25, 265.059 328.145, 265.059 328.145, 266.954 326.25, 266.954 326.25, 268.848 324.356, 268.848 324.356, 266.954 322.461, 266.954 322.461, 265.059"/>
</g>
<path d="M333.571,272.659h 5.42597" fill="none" stroke="#ff0000"/>
<path d="M344.68,272.659h 5.42597" fill="none" stroke="#ff0000"/>
<g stroke="#ff0000" stroke-width="1" fill="none">
<polygon points=" 340.891, 271.711 340.891, 269.817 342.786, 269.817 342.786, 271.711 344.68, 271.711 344.68, 273.606 342.786, 273.606 342.786, 275.5 340.891, 275.5 340.891, 273.606 338.997, 273.606 338.997, 271.711"/>
</g>
<path d="M350.106,283.193h 5.42597" fill="none" stroke="#ff0000"/>
<path d="M361.216,283.193h 5.42597" fill="none" stroke="#ff0000"/>
<g stroke="#ff0000" stroke-width="1" fill="none">
<polygon points=" 357.427, 282.246 357.427, 280.351 359.321, 280.351 359.321, 282.246 361.216, 282.246 361.216, 284.14 359.321, 284.14 359.321, 286.035 357.427, 286.035 357.427, 284.14 355.532, 284.14 355.532, 282.246"/>
</g>
<path d="M366.642,295.167h 5.42597" fill="none" stroke="#ff0000"/>
<path d="M377.751,295.167h 5.42597" fill="none" stroke="#ff0000"/>
<g stroke="#ff0000" stroke-width="1" fill="none">
<polygon points=" 373.962, 294.22 373.962, 292.325 375.857, 292.325 375.857, 294.22 377.751, 294.22 377.751, 296.114 375.857, 296.114 375.857, 298.009 373.962, 298.009 373.962, 296.114 372.068, 296.114 372.068, 294.22"/>
</g>
<path d="M383.177,308.908h 5.42597" fill="none" stroke="#ff0000"/>
<path d="M394.287,308.908h 5.42597" fill="none" stroke="#ff0000"/>
<g stroke="#ff0000" stroke-width="1" fill="none">
<polygon points=" 390.498, 307.961 390.498, 306.067 392.392, 306.067 392.392, 307.961 394.287, 307.961 394.287, 309.856 392.392, 309.856 392.392, 311.75 390.498, 311.75 390.498, 309.856 388.603, 309.856 388.603, 307.961"/>
</g>
<path d="M399.713,321.285h 5.42597" fill="none" stroke="#ff0000"/>
<path d="M410.822,321.285h 5.42597" fill="none" stroke="#ff0000"/>
<g stroke="#ff0000" stroke-width="1" fill="none">
<polygon points=" 407.033, 320.338 407.033, 318.444 408.928, 318.444 408.928, 320.338 410.822, 320.338 410.822, 322.233 408.928, 322.233 408.928, 324.127 407.033, 324.127 407.033, 322.233 405.139, 322.233 405.139, 320.338"/>
</g>
<path d="M416.248,332.952h 5.42597" fill="none" stroke="#ff0000"/>
<path d="M427.358,332.952h 5.42597" fill="none" stroke="#ff0000"/>
<g stroke="#ff0000" stroke-width="1" fill="none">
<polygon points=" 423.569, 332.005 423.569, 330.111 425.463, 330.111 425.463, 332.005 427.358, 332.005 427.358, 333.9 425.463, 333.9 425.463, 335.794 423.569, 335.794 423.569, 333.9 421.674, 333.9 421.674, 332.005"/>
</g>
<path d="M432.783,343.072h 5.42597" fill="none" stroke="#ff0000"/>
<path d="M443.893,343.072h 5.42597" fill="none" stroke="#ff0000"/>
<g stroke="#ff0000" stroke-width="1" fill="none">
<polygon points=" 440.104, 342.125 440.104, 340.231 441.998, 340.231 441.998, 342.125 443.893, 342.125 443.893, 344.02 441.998, 344.02 441.998, 345.914 440.104, 345.914 440.104, 344.02 438.209, 344.02 438.209, 342.125"/>
</g>
<path d="M118.61,216h 5.42597" fill="none" stroke="#0000ff"/>
<path d="M129.72,216h 5.42597" fill="none" stroke="#0000ff"/>
<g stroke="#0000ff" stroke-width="1" fill="none">
<polygon points=" 125.931, 215.052 125.931, 213.158 127.825, 213.158 127.825, 215.052 129.72, 215.052 129.72, 216.947 127.825, 216.947 127.825, 218.841 125.931, 218.841 125.931, 216.947 124.036, 216.947 124.036, 215.052"/>
</g>
<path d="M135.146,174.333h 5.42597" fill="none" stroke="#0000ff"/>
<path d="M146.255,174.333h 5.42597" fill="none" stroke="#0000ff"/>
<g stroke="#0000ff" stroke-width="1" fill="none">
<polygon points=" 142.466, 173.386 142.466, 171.491 144.361, 171.491 144.361, 173.386 146.255, 173.386 146.255, 175.28 144.361, 175.28 144.361, 177.175 142.466, 177.175 142.466, 175.28 140.572, 175.28 140.572, 173.386"/>
</g>
<path d="M151.681,143.941h 5.42597" fill="none" stroke="#0000ff"/>
<path d="M162.791,143.941h 5.42597" fill="none" stroke="#0000ff"/>
<g stroke="#0000ff" stroke-width="1" fill="none">
<polygon points=" 159.002, 142.994 159.002, 141.1 160.896, 141.1 160.896, 142.994 162.791, 142.994 162.791, 144.889 160.896, 144.889 160.896, 146.783 159.002, 146.783 159.002, 144.889 157.107, 144.889 157.107, 142.994"/>
</g>
<path d="M168.217,122.244h 5.42597" fill="none" stroke="#0000ff"/>
<path d="M179.326,122.244h 5.42597" fill="none" stroke="#0000ff"/>
<g stroke="#0000ff" stroke-width="1" fill="none">
<polygon points=" 175.537, 121.297 175.537, 119.403 177.432, 119.403 177.432, 121.297 179.326, 121.297 179.326, 123.192 177.432, 123.192 177.432, 125.086 175.537, 125.086 175.537, 123.192 173.643, 123.192 173.643, 121.297"/>
</g>
<path d="M184.752,105.953h 5.42597" fill="none" stroke="#0000ff"/>
<path d="M195.861,105.953h 5.42597" fill="none" stroke="#0000ff"/>
<g stroke="#0000ff" stroke-width="1" fill="none">
<polygon points=" 192.072, 105.005 192.072, 103.111 193.967, 103.111 193.967, 105.005 195.861, 105.005 195.861, 106.9 193.967, 106.9 193.967, 108.794 192.072, 108.794 192.072, 106.9 190.178, 106.9 190.178, 105.005"/>
</g>
<path d="M201.287,99.2808h 5.42597" fill="none" stroke="#0000ff"/>
<path d="M212.397,99.2808h 5.42597" fill="none" stroke="#0000ff"/>
<g stroke="#0000ff" stroke-width="1" fill="none">
<polygon points=" 208.608, 98.3335 208.608, 96.439 210.502, 96.439 210.502, 98.3335 212.397, 98.3335 212.397, 100.228 210.502, 100.228 210.502, 102.123 208.608, 102.123 208.608, 100.228 206.713, 100.228 206.713, 98.3335"/>
</g>
<path d="M217.823,103.332h 5.42597" fill="none" stroke="#0000ff"/>
<path d="M228.932,103.332h 5.42597" fill="none" stroke="#0000ff"/>
<g stroke="#0000ff" stroke-width="1" fill="none">
<polygon points=" 225.143, 102.385 225.143, 100.49 227.038, 100.49 227.038, 102.385 228.932, 102.385 228.932, 104.279 227.038, 104.279 227.038, 106.174 225.143, 106.174 225.143, 104.279 223.249, 104.279 223.249, 102.385"/>
</g>
<path d="M234.358,114.738h 5.42597" fill="none" stroke="#0000ff"/>
<path d="M245.468,114.738h 5.42597" fill="none" stroke="#0000ff"/>
<g stroke="#0000ff" stroke-width="1" fill="none">
<polygon points=" 241.679, 113.79 241.679, 111.896 243.573, 111.896 243.573, 113.79 245.468, 113.79 245.468, 115.685 243.573, 115.685 243.573, 117.579 241.679, 117.579 241.679, 115.685 239.784, 115.685 239.784, 113.79"/>
</g>
<path d="M250.894,134.701h 5.42597" fill="none" stroke="#0000ff"/>
<path d="M262.003,134.701h 5.42597" fill="none" stroke="#0000ff"/>
<g stroke="#0000ff" stroke-width="1" fill="none">
<polygon points=" 258.214, 133.753 258.214, 131.859 260.109, 131.859 260.109, 133.753 262.003, 133.753 262.003, 135.648 260.109, 135.648 260.109, 137.542 258.214, 137.542 258.214, 135.648 256.32, 135.648 256.32, 133.753"/>
</g>
<path d="M267.429,152.833h 5.42597" fill="none" stroke="#0000ff"/>
<path d="M278.539,152.833h 5.42597" fill="none" stroke="#0000ff"/>
<g stroke="#0000ff" stroke-width="1" fill="none">
<polygon points=" 274.75, 151.885 274.75, 149.991 276.644, 149.991 276.644, 151.885 278.539, 151.885 278.539, 153.78 276.644, 153.78 276.644, 155.674 274.75, 155.674 274.75, 153.78 272.855, 153.78 272.855, 151.885"/>
</g>
<path d="M283.965,165.383h 5.42597" fill="none" stroke="#0000ff"/>
<path d="M295.074,165.383h 5.42597" fill="none" stroke="#0000ff"/>
<g stroke="#0000ff" stroke-width="1" fill="none">
<polygon points=" 291.285, 164.436 291.285, 162.541 293.18, 162.541 293.18, 164.436 295.074, 164.436 295.074, 166.33 293.18, 166.33 293.18, 168.225 291.285, 168.225 291.285, 166.33 289.391, 166.33 289.391, 164.436"/>
</g>
<path d="M300.5,171.485h 5.42597" fill="none" stroke="#0000ff"/>
<path d="M311.609,171.485h 5.42597" fill="none" stroke="#0000ff"/>
<g stroke="#0000ff" stroke-width="1" fill="none">
<polygon points=" 307.82, 170.538 307.82, 168.643 309.715, 168.643 309.715, 170.538 311.609, 170.538 311.609, 172.432 309.715, 172.432 309.715, 174.327 307.82, 174.327 307.82, 172.432 305.926, 172.432 305.926, 170.538"/>
</g>
<path d="M317.035,179.772h 5.42597" fill="none" stroke="#0000ff"/>
<path d="M328.145,179.772h 5.42597" fill="none" stroke="#0000ff"/>
<g stroke="#0000ff" stroke-width="1" fill="none">
<polygon points=" 324.356, 178.825 324.356, 176.93 326.25, 176.93 326.25, 178.825 328.145, 178.825 328.145, 180.719 326.25, 180.719 326.25, 182.614 324.356, 182.614 324.356, 180.719 322.461, 180.719 322.461, 178.825"/>
</g>
<path d="M333.571,194.199h 5.42597" fill="none" stroke="#0000ff"/>
<path d="M344.68,194.199h 5.42597" fill="none" stroke="#0000ff"/>
<g stroke="#0000ff" stroke-width="1" fill="none">
<polygon points=" 340.891, 193.252 340.891, 191.357 342.786, 191.357 342.786, 193.252 344.68, 193.252 344.68, 195.146 342.786, 195.146 342.786, 197.041 340.891, 197.041 340.891, 195.146 338.997, 195.146 338.997, 193.252"/>
</g>
<path d="M350.106,216.028h 5.42597" fill="none" stroke="#0000ff"/>
<path d="M361.216,216.028h 5.42597" fill="none" stroke="#0000ff"/>
<g stroke="#0000ff" stroke-width="1" fill="none">
<polygon points=" 357.427, 215.081 357.427, 213.186 359.321, 213.186 359.321, 215.081 361.216, 215.081 361.216, 216.975 359.321, 216.975 359.321, 218.87 357.427, 218.87 357.427, 216.975 355.532, 216.975 355.532, 215.081"/>
</g>
<path d="M366.642,242.31h 5.42597" fill="none" stroke="#0000ff"/>
<path d="M377.751,242.31h 5.42597" fill="none" stroke="#0000ff"/>
<g stroke="#0000ff" stroke-width="1" fill="none">
<polygon points=" 373.962, 241.363 373.962, 239.469 375.857, 239.469 375.857, 241.363 377.751, 241.363 377.751, 243.258 375.857, 243.258 375.857, 245.152 373.962, 245.152 373.962, 243.258 372.068, 243.258 372.068, 241.363"/>
</g>
<path d="M383.177,269.737h 5.42597" fill="none" stroke="#0000ff"/>
<path d="M394.287,269.737h 5.42597" fill="none" stroke="#0000ff"/>
<g stroke="#0000ff" stroke-width="1" fill="none">
<polygon points=" 390.498, 268.79 390.498, 266.896 392.392, 266.896 392.392, 268.79 394.287, 268.79 394.287, 270.685 392.392, 270.685 392.392, 272.579 390.498, 272.579 390.498, 270.685 388.603, 270.685 388.603, 268.79"/>
</g>
<path d="M399.713,295.628h 5.42597" fill="none" stroke="#0000ff"/>
<path d="M410.822,295.628h 5.42597" fill="none" stroke="#0000ff"/>
<g stroke="#0000ff" stroke-width="1" fill="none">
<polygon points=" 407.033, 294.68 407.033, 292.786 408.928, 292.786 408.928, 294.68 410.822, 294.68 410.822, 296.575 408.928, 296.575 408.928, 298.469 407.033, 298.469 407.033, 296.575 405.139, 296.575 405.139, 294.68"/>
</g>
<path d="M416.248,318.053h 5.42597" fill="none" stroke="#0000ff"/>
<path d="M427.358,318.053h 5.42597" fill="none" stroke="#0000ff"/>
<g stroke="#0000ff" stroke-width="1" fill="none">
<polygon points=" 423.569, 317.106 423.569, 315.212 425.463, 315.212 425.463, 317.106 427.358, 317.106 427.358, 319.001 425.463, 319.001 425.463, 320.895 423.569, 320.895 423.569, 319.001 421.674, 319.001 421.674, 317.106"/>
</g>
<path d="M432.783,335.545h 5.42597" fill="none" stroke="#0000ff"/>
<path d="M443.893,335.545h 5.42597" fill="none" stroke="#0000ff"/>
<g stroke="#0000ff" stroke-width="1" fill="none">
<polygon points=" 440.104, 334.598 440.104, 332.704 441.998, 332.704 441.998, 334.598 443.893, 334.598 443.893, 336.493 441.998, 336.493 441.998, 338.387 440.104, 338.387 440.104, 336.493 438.209, 336.493 438.209, 334.598"/>
</g>
<text xml:space="preserve" x="304.567" y="46.1784" fill="black" font-size="15.4909" font-family="Helvetica">PYTHIA8, option3</text>
<text xml:space="preserve" x="352.167" y="63.2289" fill="black" font-size="10.4939" font-family="Times">&#0177;</text>
<text xml:space="preserve" x="339.379" y="70.3333" fill="black" font-size="15.4909" font-family="Helvetica">/p</text>
<text xml:space="preserve" x="333.695" y="63.2289" fill="black" font-size="10.4939" font-family="Times">&#0177;</text>
<text xml:space="preserve" x="318.776" y="70.3333" fill="black" font-size="15.4909" font-family="Helvetica">/K</text>
<text xml:space="preserve" x="313.092" y="65.3603" fill="black" font-size="10.4939" font-family="Times">&#0177;</text>
<text xml:space="preserve" x="304.567" y="70.3333" fill="black" font-size="15.4909" font-family="Times">&#0960;</text>
<text xml:space="preserve" x="304.567" y="95.1986" fill="black" font-size="15.4909" font-family="Helvetica">100,000 events</text>
<text xml:space="preserve" x="350.746" y="119.354" fill="black" font-size="15.4909" font-family="Helvetica"> included file</text>
<text xml:space="preserve" x="342.931" y="119.354" fill="black" font-size="15.4909" font-family="Times">&#0947;</text>
<g stroke="#ff0000" stroke-width="1" fill="none">
<polygon points=" 321.285, 113.433 321.285, 111.539 323.18, 111.539 323.18, 113.433 325.074, 113.433 325.074, 115.328 323.18, 115.328 323.18, 117.222 321.285, 117.222 321.285, 115.328 319.391, 115.328 319.391, 113.433"/>
</g>
<text xml:space="preserve" x="350.746" y="144.219" fill="black" font-size="15.4909" font-family="Helvetica"> excluded file</text>
<text xml:space="preserve" x="342.931" y="144.219" fill="black" font-size="15.4909" font-family="Times">&#0947;</text>
<g stroke="#0000ff" stroke-width="1" fill="none">
<polygon points=" 321.285, 137.943 321.285, 136.049 323.18, 136.049 323.18, 137.943 325.074, 137.943 325.074, 139.838 323.18, 139.838 323.18, 141.732 321.285, 141.732 321.285, 139.838 319.391, 139.838 319.391, 137.943"/>
</g></svg>
