<?xml version="1.0" standalone="no"?>
<svg width="567.429" height="386.304" viewBox="0 0 567.429 386.304" xmlns="http://www.w3.org/2000/svg" shape-rendering="crispEdges">
<title>
/Users/jinhyunpark/npl/gitHub/xloadFromServer/Git_Bias_correction_RxA/plots_dirIncluded/NcollCentDir.svg
</title>
<desc>
Creator: ROOT Version 6.28/04
CreationDate: Fri Aug  4 21:12:00 2023</desc>
<defs>
</defs>
<rect x="0.5" y="0" width="566.929" height="385.804" fill="white"/>
<rect x="57.1929" y="38.5804" width="453.543" height="308.643" fill="white"/>
<rect x="57.1929" y="38.5804" width="453.543" height="308.643" fill="none" stroke="black"/>
<rect x="57.1929" y="38.5804" width="453.543" height="308.643" fill="white"/>
<rect x="57.1929" y="38.5804" width="453.543" height="308.643" fill="none" stroke="black"/>
<path d="M77.8085,97.4731v -22.0977" fill="none" stroke="#000099"/>
<path d="M77.8085,75.3754v -22.0977" fill="none" stroke="#000099"/>
<path d="M57.1929,75.3754h 20.6156" fill="none" stroke="#000099"/>
<path d="M77.8085,75.3754h 20.6156" fill="none" stroke="#000099"/>
<g stroke="black" stroke-width="1" fill="none">
<line x1="76.8085" y1="75.3754" x2="77.8085" y2="75.3754"/>
</g>
<path d="M119.04,136.472v -20.4038" fill="none" stroke="#000099"/>
<path d="M119.04,116.068v -20.4038" fill="none" stroke="#000099"/>
<path d="M98.4241,116.068h 20.6156" fill="none" stroke="#000099"/>
<path d="M119.04,116.068h 20.6156" fill="none" stroke="#000099"/>
<g stroke="black" stroke-width="1" fill="none">
<line x1="118.04" y1="116.068" x2="119.04" y2="116.068"/>
</g>
<path d="M160.271,155.071v -19.5418" fill="none" stroke="#000099"/>
<path d="M160.271,135.529v -19.5418" fill="none" stroke="#000099"/>
<path d="M139.655,135.529h 20.6156" fill="none" stroke="#000099"/>
<path d="M160.271,135.529h 20.6156" fill="none" stroke="#000099"/>
<g stroke="black" stroke-width="1" fill="none">
<line x1="159.271" y1="135.529" x2="160.271" y2="135.529"/>
</g>
<path d="M201.502,151.692v -19.7013" fill="none" stroke="#000099"/>
<path d="M201.502,131.991v -19.7013" fill="none" stroke="#000099"/>
<path d="M180.887,131.991h 20.6156" fill="none" stroke="#000099"/>
<path d="M201.502,131.991h 20.6156" fill="none" stroke="#000099"/>
<g stroke="black" stroke-width="1" fill="none">
<line x1="200.502" y1="131.991" x2="201.502" y2="131.991"/>
</g>
<path d="M242.733,175.316v -18.5559" fill="none" stroke="#000099"/>
<path d="M242.733,156.76v -18.5559" fill="none" stroke="#000099"/>
<path d="M222.118,156.76h 20.6156" fill="none" stroke="#000099"/>
<path d="M242.733,156.76h 20.6156" fill="none" stroke="#000099"/>
<g stroke="black" stroke-width="1" fill="none">
<line x1="241.733" y1="156.76" x2="242.733" y2="156.76"/>
</g>
<path d="M283.965,178.685v -18.3864" fill="none" stroke="#000099"/>
<path d="M283.965,160.299v -18.3864" fill="none" stroke="#000099"/>
<path d="M263.349,160.299h 20.6156" fill="none" stroke="#000099"/>
<path d="M283.965,160.299h 20.6156" fill="none" stroke="#000099"/>
<g stroke="black" stroke-width="1" fill="none">
<line x1="282.965" y1="160.299" x2="283.965" y2="160.299"/>
</g>
<path d="M325.196,185.418v -18.0427" fill="none" stroke="#000099"/>
<path d="M325.196,167.376v -18.0427" fill="none" stroke="#000099"/>
<path d="M304.58,167.376h 20.6156" fill="none" stroke="#000099"/>
<path d="M325.196,167.376h 20.6156" fill="none" stroke="#000099"/>
<g stroke="black" stroke-width="1" fill="none">
<line x1="324.196" y1="167.376" x2="325.196" y2="167.376"/>
</g>
<path d="M366.427,227.332v -15.7253" fill="none" stroke="#000099"/>
<path d="M366.427,211.606v -15.7253" fill="none" stroke="#000099"/>
<path d="M345.811,211.606h 20.6156" fill="none" stroke="#000099"/>
<path d="M366.427,211.606h 20.6156" fill="none" stroke="#000099"/>
<g stroke="black" stroke-width="1" fill="none">
<line x1="365.427" y1="211.606" x2="366.427" y2="211.606"/>
</g>
<path d="M407.658,245.657v -14.5895" fill="none" stroke="#000099"/>
<path d="M407.658,231.068v -14.5895" fill="none" stroke="#000099"/>
<path d="M387.043,231.068h 20.6156" fill="none" stroke="#000099"/>
<path d="M407.658,231.068h 20.6156" fill="none" stroke="#000099"/>
<g stroke="black" stroke-width="1" fill="none">
<line x1="406.658" y1="231.068" x2="407.658" y2="231.068"/>
</g>
<path d="M448.889,299.92v -10.4669" fill="none" stroke="#000099"/>
<path d="M448.889,289.453v -10.4669" fill="none" stroke="#000099"/>
<path d="M428.274,289.453h 20.6156" fill="none" stroke="#000099"/>
<path d="M448.889,289.453h 20.6156" fill="none" stroke="#000099"/>
<g stroke="black" stroke-width="1" fill="none">
<line x1="447.889" y1="289.453" x2="448.889" y2="289.453"/>
</g>
<path d="M490.121,333.226v -6.61986" fill="none" stroke="#000099"/>
<path d="M490.121,326.607v -6.61986" fill="none" stroke="#000099"/>
<path d="M469.505,326.607h 20.6156" fill="none" stroke="#000099"/>
<path d="M490.121,326.607h 20.6156" fill="none" stroke="#000099"/>
<g stroke="black" stroke-width="1" fill="none">
<line x1="489.121" y1="326.607" x2="490.121" y2="326.607"/>
</g>
<rect x="442.705" y="25.0773" width="113.386" height="61.7287" fill="white"/>
<path d="M442.705,86.8059h 113.386" fill="none" stroke="black"/>
<path d="M556.091,86.8059v -61.7287" fill="none" stroke="black"/>
<path d="M556.091,25.0773h -113.386" fill="none" stroke="black"/>
<path d="M442.705,25.0773v 61.7287" fill="none" stroke="black"/>
<text xml:space="preserve" x="452.906" y="36.5499" fill="black" font-size="13.5253" font-family="Helvetica">ncollCentDir_px</text>
<path d="M442.705,40.5094h 113.386" fill="none" stroke="black"/>
<text xml:space="preserve" x="448.033" y="52.7943" fill="black" font-size="13.5109" font-family="Helvetica">Entries </text>
<text xml:space="preserve" x="517.884" y="52.7943" fill="black" font-size="13.5109" font-family="Helvetica"> 1053</text>
<text xml:space="preserve" x="448.033" y="68.2264" fill="black" font-size="13.5109" font-family="Helvetica">Mean  </text>
<text xml:space="preserve" x="510.574" y="68.2264" fill="black" font-size="13.5109" font-family="Helvetica">  41.84</text>
<text xml:space="preserve" x="448.033" y="83.6586" fill="black" font-size="13.5109" font-family="Helvetica">Std Dev   </text>
<text xml:space="preserve" x="510.574" y="83.6586" fill="black" font-size="13.5109" font-family="Helvetica">  27.28</text>
<path d="M57.1929,347.224h 453.543" fill="none" stroke="black"/>
<path d="M57.1929,337.964v 9.2593" fill="none" stroke="black"/>
<path d="M77.8085,342.594v 4.62965" fill="none" stroke="black"/>
<path d="M98.4241,342.594v 4.62965" fill="none" stroke="black"/>
<path d="M119.04,342.594v 4.62965" fill="none" stroke="black"/>
<path d="M139.655,337.964v 9.2593" fill="none" stroke="black"/>
<path d="M160.271,342.594v 4.62965" fill="none" stroke="black"/>
<path d="M180.887,342.594v 4.62965" fill="none" stroke="black"/>
<path d="M201.502,342.594v 4.62965" fill="none" stroke="black"/>
<path d="M222.118,337.964v 9.2593" fill="none" stroke="black"/>
<path d="M242.733,342.594v 4.62965" fill="none" stroke="black"/>
<path d="M263.349,342.594v 4.62965" fill="none" stroke="black"/>
<path d="M283.965,342.594v 4.62965" fill="none" stroke="black"/>
<path d="M304.58,337.964v 9.2593" fill="none" stroke="black"/>
<path d="M325.196,342.594v 4.62965" fill="none" stroke="black"/>
<path d="M345.811,342.594v 4.62965" fill="none" stroke="black"/>
<path d="M366.427,342.594v 4.62965" fill="none" stroke="black"/>
<path d="M387.043,337.964v 9.2593" fill="none" stroke="black"/>
<path d="M407.658,342.594v 4.62965" fill="none" stroke="black"/>
<path d="M428.274,342.594v 4.62965" fill="none" stroke="black"/>
<path d="M448.889,342.594v 4.62965" fill="none" stroke="black"/>
<path d="M469.505,337.964v 9.2593" fill="none" stroke="black"/>
<path d="M469.505,337.964v 9.2593" fill="none" stroke="black"/>
<path d="M490.121,342.594v 4.62965" fill="none" stroke="black"/>
<text xml:space="preserve" x="52.482" y="359.813" fill="black" font-size="12.8882" font-family="Helvetica">0</text>
<text xml:space="preserve" x="132.08" y="359.813" fill="black" font-size="12.8882" font-family="Helvetica">20</text>
<text xml:space="preserve" x="214.114" y="359.813" fill="black" font-size="12.8882" font-family="Helvetica">40</text>
<text xml:space="preserve" x="296.96" y="359.813" fill="black" font-size="12.8882" font-family="Helvetica">60</text>
<text xml:space="preserve" x="378.994" y="359.813" fill="black" font-size="12.8882" font-family="Helvetica">80</text>
<text xml:space="preserve" x="458.592" y="359.813" fill="black" font-size="12.8882" font-family="Helvetica">100</text>
<path d="M57.1929,347.224v -308.643" fill="none" stroke="black"/>
<path d="M70.7992,315.991h -13.6063" fill="none" stroke="black"/>
<path d="M63.9961,307.145h -6.80315" fill="none" stroke="black"/>
<path d="M63.9961,298.299h -6.80315" fill="none" stroke="black"/>
<path d="M63.9961,289.453h -6.80315" fill="none" stroke="black"/>
<path d="M70.7992,280.606h -13.6063" fill="none" stroke="black"/>
<path d="M63.9961,271.76h -6.80315" fill="none" stroke="black"/>
<path d="M63.9961,262.914h -6.80315" fill="none" stroke="black"/>
<path d="M63.9961,254.068h -6.80315" fill="none" stroke="black"/>
<path d="M70.7992,245.222h -13.6063" fill="none" stroke="black"/>
<path d="M63.9961,236.376h -6.80315" fill="none" stroke="black"/>
<path d="M63.9961,227.529h -6.80315" fill="none" stroke="black"/>
<path d="M63.9961,218.683h -6.80315" fill="none" stroke="black"/>
<path d="M70.7992,209.837h -13.6063" fill="none" stroke="black"/>
<path d="M63.9961,200.991h -6.80315" fill="none" stroke="black"/>
<path d="M63.9961,192.145h -6.80315" fill="none" stroke="black"/>
<path d="M63.9961,183.299h -6.80315" fill="none" stroke="black"/>
<path d="M70.7992,174.452h -13.6063" fill="none" stroke="black"/>
<path d="M63.9961,165.606h -6.80315" fill="none" stroke="black"/>
<path d="M63.9961,156.76h -6.80315" fill="none" stroke="black"/>
<path d="M63.9961,147.914h -6.80315" fill="none" stroke="black"/>
<path d="M70.7992,139.068h -13.6063" fill="none" stroke="black"/>
<path d="M63.9961,130.222h -6.80315" fill="none" stroke="black"/>
<path d="M63.9961,121.375h -6.80315" fill="none" stroke="black"/>
<path d="M63.9961,112.529h -6.80315" fill="none" stroke="black"/>
<path d="M70.7992,103.683h -13.6063" fill="none" stroke="black"/>
<path d="M63.9961,94.837h -6.80315" fill="none" stroke="black"/>
<path d="M63.9961,85.9908h -6.80315" fill="none" stroke="black"/>
<path d="M63.9961,77.1447h -6.80315" fill="none" stroke="black"/>
<path d="M70.7992,68.2985h -13.6063" fill="none" stroke="black"/>
<path d="M70.7992,315.991h -13.6063" fill="none" stroke="black"/>
<path d="M63.9961,324.837h -6.80315" fill="none" stroke="black"/>
<path d="M63.9961,333.683h -6.80315" fill="none" stroke="black"/>
<path d="M63.9961,342.53h -6.80315" fill="none" stroke="black"/>
<path d="M70.7992,68.2985h -13.6063" fill="none" stroke="black"/>
<path d="M63.9961,59.4523h -6.80315" fill="none" stroke="black"/>
<path d="M63.9961,50.6062h -6.80315" fill="none" stroke="black"/>
<path d="M63.9961,41.76h -6.80315" fill="none" stroke="black"/>
<text xml:space="preserve" x="39.4865" y="320.827" fill="black" font-size="12.8882" font-family="Helvetica">20</text>
<text xml:space="preserve" x="39.4865" y="285.089" fill="black" font-size="12.8882" font-family="Helvetica">40</text>
<text xml:space="preserve" x="39.4865" y="249.351" fill="black" font-size="12.8882" font-family="Helvetica">60</text>
<text xml:space="preserve" x="39.4865" y="214.426" fill="black" font-size="12.8882" font-family="Helvetica">80</text>
<text xml:space="preserve" x="32.9888" y="178.688" fill="black" font-size="12.8882" font-family="Helvetica">100</text>
<text xml:space="preserve" x="32.9888" y="143.763" fill="black" font-size="12.8882" font-family="Helvetica">120</text>
<text xml:space="preserve" x="32.9888" y="108.025" fill="black" font-size="12.8882" font-family="Helvetica">140</text>
<text xml:space="preserve" x="32.9888" y="73.0997" fill="black" font-size="12.8882" font-family="Helvetica">160</text>
<rect x="442.705" y="25.0773" width="113.386" height="61.7287" fill="white"/>
<path d="M442.705,86.8059h 113.386" fill="none" stroke="black"/>
<path d="M556.091,86.8059v -61.7287" fill="none" stroke="black"/>
<path d="M556.091,25.0773h -113.386" fill="none" stroke="black"/>
<path d="M442.705,25.0773v 61.7287" fill="none" stroke="black"/>
<text xml:space="preserve" x="452.906" y="36.5499" fill="black" font-size="13.5253" font-family="Helvetica">ncollCentDir_px</text>
<path d="M442.705,40.5094h 113.386" fill="none" stroke="black"/>
<text xml:space="preserve" x="448.033" y="52.7943" fill="black" font-size="13.5109" font-family="Helvetica">Entries </text>
<text xml:space="preserve" x="517.884" y="52.7943" fill="black" font-size="13.5109" font-family="Helvetica"> 1053</text>
<text xml:space="preserve" x="448.033" y="68.2264" fill="black" font-size="13.5109" font-family="Helvetica">Mean  </text>
<text xml:space="preserve" x="510.574" y="68.2264" fill="black" font-size="13.5109" font-family="Helvetica">  41.84</text>
<text xml:space="preserve" x="448.033" y="83.6586" fill="black" font-size="13.5109" font-family="Helvetica">Std Dev   </text>
<text xml:space="preserve" x="510.574" y="83.6586" fill="black" font-size="13.5109" font-family="Helvetica">  27.28</text>
<text xml:space="preserve" x="92.2808" y="18.681" fill="black" font-size="17.9237" font-family="Helvetica">x: centrality y: Ncoll of event  including dirPhoton</text></svg>
