<?xml version="1.0" standalone="no"?>
<svg width="567.429" height="409.002" viewBox="0 0 567.429 409.002" xmlns="http://www.w3.org/2000/svg" shape-rendering="crispEdges">
<title>
/Users/jinhyunpark/npl/gitHub/xloadFromServer/Git_Bias_correction_RxA/plots_dirAdded/YavgNcollBypT_pion0_0to2GeV.svg
</title>
<desc>
Creator: ROOT Version 6.28/04
CreationDate: Sat Aug 26 16:23:36 2023</desc>
<defs>
</defs>
<rect x="0.5" y="0" width="566.929" height="408.502" fill="white"/>
<rect x="85.5394" y="20.4251" width="396.85" height="339.056" fill="white"/>
<rect x="85.5394" y="20.4251" width="396.85" height="339.056" fill="none" stroke="black"/>
<rect x="85.5394" y="20.4251" width="396.85" height="339.056" fill="white"/>
<rect x="85.5394" y="20.4251" width="396.85" height="339.056" fill="none" stroke="black"/>
<path d="M85.5394,359.481h 396.85" fill="none" stroke="black"/>
<path d="M85.5394,350.903v 8.57853" fill="none" stroke="black"/>
<path d="M95.4606,355.192v 4.28927" fill="none" stroke="black"/>
<path d="M105.382,355.192v 4.28927" fill="none" stroke="black"/>
<path d="M115.303,355.192v 4.28927" fill="none" stroke="black"/>
<path d="M125.224,350.903v 8.57853" fill="none" stroke="black"/>
<path d="M135.146,355.192v 4.28927" fill="none" stroke="black"/>
<path d="M145.067,355.192v 4.28927" fill="none" stroke="black"/>
<path d="M154.988,355.192v 4.28927" fill="none" stroke="black"/>
<path d="M164.909,350.903v 8.57853" fill="none" stroke="black"/>
<path d="M174.831,355.192v 4.28927" fill="none" stroke="black"/>
<path d="M184.752,355.192v 4.28927" fill="none" stroke="black"/>
<path d="M194.673,355.192v 4.28927" fill="none" stroke="black"/>
<path d="M204.594,350.903v 8.57853" fill="none" stroke="black"/>
<path d="M214.516,355.192v 4.28927" fill="none" stroke="black"/>
<path d="M224.437,355.192v 4.28927" fill="none" stroke="black"/>
<path d="M234.358,355.192v 4.28927" fill="none" stroke="black"/>
<path d="M244.28,350.903v 8.57853" fill="none" stroke="black"/>
<path d="M254.201,355.192v 4.28927" fill="none" stroke="black"/>
<path d="M264.122,355.192v 4.28927" fill="none" stroke="black"/>
<path d="M274.043,355.192v 4.28927" fill="none" stroke="black"/>
<path d="M283.965,350.903v 8.57853" fill="none" stroke="black"/>
<path d="M293.886,355.192v 4.28927" fill="none" stroke="black"/>
<path d="M303.807,355.192v 4.28927" fill="none" stroke="black"/>
<path d="M313.728,355.192v 4.28927" fill="none" stroke="black"/>
<path d="M323.65,350.903v 8.57853" fill="none" stroke="black"/>
<path d="M333.571,355.192v 4.28927" fill="none" stroke="black"/>
<path d="M343.492,355.192v 4.28927" fill="none" stroke="black"/>
<path d="M353.413,355.192v 4.28927" fill="none" stroke="black"/>
<path d="M363.335,350.903v 8.57853" fill="none" stroke="black"/>
<path d="M373.256,355.192v 4.28927" fill="none" stroke="black"/>
<path d="M383.177,355.192v 4.28927" fill="none" stroke="black"/>
<path d="M393.098,355.192v 4.28927" fill="none" stroke="black"/>
<path d="M403.02,350.903v 8.57853" fill="none" stroke="black"/>
<path d="M412.941,355.192v 4.28927" fill="none" stroke="black"/>
<path d="M422.862,355.192v 4.28927" fill="none" stroke="black"/>
<path d="M432.783,355.192v 4.28927" fill="none" stroke="black"/>
<path d="M442.705,350.903v 8.57853" fill="none" stroke="black"/>
<path d="M452.626,355.192v 4.28927" fill="none" stroke="black"/>
<path d="M462.547,355.192v 4.28927" fill="none" stroke="black"/>
<path d="M472.469,355.192v 4.28927" fill="none" stroke="black"/>
<path d="M482.39,350.903v 8.57853" fill="none" stroke="black"/>
<text xml:space="preserve" x="81.4899" y="372.269" fill="black" font-size="13.617" font-family="Helvetica">0</text>
<text xml:space="preserve" x="115.591" y="372.269" fill="black" font-size="13.617" font-family="Helvetica">0.2</text>
<text xml:space="preserve" x="155.375" y="372.269" fill="black" font-size="13.617" font-family="Helvetica">0.4</text>
<text xml:space="preserve" x="195.16" y="372.269" fill="black" font-size="13.617" font-family="Helvetica">0.6</text>
<text xml:space="preserve" x="234.944" y="372.269" fill="black" font-size="13.617" font-family="Helvetica">0.8</text>
<text xml:space="preserve" x="281.123" y="372.269" fill="black" font-size="13.617" font-family="Helvetica">1</text>
<text xml:space="preserve" x="313.803" y="372.269" fill="black" font-size="13.617" font-family="Helvetica">1.2</text>
<text xml:space="preserve" x="353.587" y="372.269" fill="black" font-size="13.617" font-family="Helvetica">1.4</text>
<text xml:space="preserve" x="393.372" y="372.269" fill="black" font-size="13.617" font-family="Helvetica">1.6</text>
<text xml:space="preserve" x="433.156" y="372.269" fill="black" font-size="13.617" font-family="Helvetica">1.8</text>
<text xml:space="preserve" x="478.624" y="372.269" fill="black" font-size="13.617" font-family="Helvetica">2</text>
<text xml:space="preserve" x="476.493" y="390.741" fill="black" font-size="9.24468" font-family="Helvetica">T</text>
<text xml:space="preserve" x="468.678" y="382.926" fill="black" font-size="13.617" font-family="Helvetica">p</text>
<path d="M85.5394,20.4251h 396.85" fill="none" stroke="black"/>
<path d="M85.5394,29.0036v -8.57853" fill="none" stroke="black"/>
<path d="M95.4606,24.7143v -4.28927" fill="none" stroke="black"/>
<path d="M105.382,24.7143v -4.28927" fill="none" stroke="black"/>
<path d="M115.303,24.7143v -4.28927" fill="none" stroke="black"/>
<path d="M125.224,29.0036v -8.57853" fill="none" stroke="black"/>
<path d="M135.146,24.7143v -4.28927" fill="none" stroke="black"/>
<path d="M145.067,24.7143v -4.28927" fill="none" stroke="black"/>
<path d="M154.988,24.7143v -4.28927" fill="none" stroke="black"/>
<path d="M164.909,29.0036v -8.57853" fill="none" stroke="black"/>
<path d="M174.831,24.7143v -4.28927" fill="none" stroke="black"/>
<path d="M184.752,24.7143v -4.28927" fill="none" stroke="black"/>
<path d="M194.673,24.7143v -4.28927" fill="none" stroke="black"/>
<path d="M204.594,29.0036v -8.57853" fill="none" stroke="black"/>
<path d="M214.516,24.7143v -4.28927" fill="none" stroke="black"/>
<path d="M224.437,24.7143v -4.28927" fill="none" stroke="black"/>
<path d="M234.358,24.7143v -4.28927" fill="none" stroke="black"/>
<path d="M244.28,29.0036v -8.57853" fill="none" stroke="black"/>
<path d="M254.201,24.7143v -4.28927" fill="none" stroke="black"/>
<path d="M264.122,24.7143v -4.28927" fill="none" stroke="black"/>
<path d="M274.043,24.7143v -4.28927" fill="none" stroke="black"/>
<path d="M283.965,29.0036v -8.57853" fill="none" stroke="black"/>
<path d="M293.886,24.7143v -4.28927" fill="none" stroke="black"/>
<path d="M303.807,24.7143v -4.28927" fill="none" stroke="black"/>
<path d="M313.728,24.7143v -4.28927" fill="none" stroke="black"/>
<path d="M323.65,29.0036v -8.57853" fill="none" stroke="black"/>
<path d="M333.571,24.7143v -4.28927" fill="none" stroke="black"/>
<path d="M343.492,24.7143v -4.28927" fill="none" stroke="black"/>
<path d="M353.413,24.7143v -4.28927" fill="none" stroke="black"/>
<path d="M363.335,29.0036v -8.57853" fill="none" stroke="black"/>
<path d="M373.256,24.7143v -4.28927" fill="none" stroke="black"/>
<path d="M383.177,24.7143v -4.28927" fill="none" stroke="black"/>
<path d="M393.098,24.7143v -4.28927" fill="none" stroke="black"/>
<path d="M403.02,29.0036v -8.57853" fill="none" stroke="black"/>
<path d="M412.941,24.7143v -4.28927" fill="none" stroke="black"/>
<path d="M422.862,24.7143v -4.28927" fill="none" stroke="black"/>
<path d="M432.783,24.7143v -4.28927" fill="none" stroke="black"/>
<path d="M442.705,29.0036v -8.57853" fill="none" stroke="black"/>
<path d="M452.626,24.7143v -4.28927" fill="none" stroke="black"/>
<path d="M462.547,24.7143v -4.28927" fill="none" stroke="black"/>
<path d="M472.469,24.7143v -4.28927" fill="none" stroke="black"/>
<path d="M482.39,29.0036v -8.57853" fill="none" stroke="black"/>
<path d="M85.5394,359.481v -339.056" fill="none" stroke="black"/>
<path d="M99.6559,359.481h -14.1165" fill="none" stroke="black"/>
<path d="M92.5976,348.18h -7.05827" fill="none" stroke="black"/>
<path d="M92.5976,336.878h -7.05827" fill="none" stroke="black"/>
<path d="M92.5976,325.576h -7.05827" fill="none" stroke="black"/>
<path d="M92.5976,314.274h -7.05827" fill="none" stroke="black"/>
<path d="M99.6559,302.972h -14.1165" fill="none" stroke="black"/>
<path d="M92.5976,291.67h -7.05827" fill="none" stroke="black"/>
<path d="M92.5976,280.368h -7.05827" fill="none" stroke="black"/>
<path d="M92.5976,269.066h -7.05827" fill="none" stroke="black"/>
<path d="M92.5976,257.764h -7.05827" fill="none" stroke="black"/>
<path d="M99.6559,246.463h -14.1165" fill="none" stroke="black"/>
<path d="M92.5976,235.161h -7.05827" fill="none" stroke="black"/>
<path d="M92.5976,223.859h -7.05827" fill="none" stroke="black"/>
<path d="M92.5976,212.557h -7.05827" fill="none" stroke="black"/>
<path d="M92.5976,201.255h -7.05827" fill="none" stroke="black"/>
<path d="M99.6559,189.953h -14.1165" fill="none" stroke="black"/>
<path d="M92.5976,178.651h -7.05827" fill="none" stroke="black"/>
<path d="M92.5976,167.349h -7.05827" fill="none" stroke="black"/>
<path d="M92.5976,156.048h -7.05827" fill="none" stroke="black"/>
<path d="M92.5976,144.746h -7.05827" fill="none" stroke="black"/>
<path d="M99.6559,133.444h -14.1165" fill="none" stroke="black"/>
<path d="M92.5976,122.142h -7.05827" fill="none" stroke="black"/>
<path d="M92.5976,110.84h -7.05827" fill="none" stroke="black"/>
<path d="M92.5976,99.5382h -7.05827" fill="none" stroke="black"/>
<path d="M92.5976,88.2363h -7.05827" fill="none" stroke="black"/>
<path d="M99.6559,76.9345h -14.1165" fill="none" stroke="black"/>
<path d="M92.5976,65.6326h -7.05827" fill="none" stroke="black"/>
<path d="M92.5976,54.3307h -7.05827" fill="none" stroke="black"/>
<path d="M92.5976,43.0288h -7.05827" fill="none" stroke="black"/>
<path d="M92.5976,31.727h -7.05827" fill="none" stroke="black"/>
<path d="M99.6559,20.4251h -14.1165" fill="none" stroke="black"/>
<text xml:space="preserve" x="75.0959" y="364.454" fill="black" font-size="13.617" font-family="Helvetica">0</text>
<text xml:space="preserve" x="63.7289" y="307.619" fill="black" font-size="13.617" font-family="Helvetica">0.5</text>
<text xml:space="preserve" x="77.2272" y="251.495" fill="black" font-size="13.617" font-family="Helvetica">1</text>
<text xml:space="preserve" x="63.7289" y="194.66" fill="black" font-size="13.617" font-family="Helvetica">1.5</text>
<text xml:space="preserve" x="75.0959" y="138.535" fill="black" font-size="13.617" font-family="Helvetica">2</text>
<text xml:space="preserve" x="63.7289" y="81.7003" fill="black" font-size="13.617" font-family="Helvetica">2.5</text>
<text xml:space="preserve" x="75.0959" y="24.8653" fill="black" font-size="13.617" font-family="Helvetica">3</text>
<g transform="rotate(-90,50.9411,24.1549)">
<text xml:space="preserve" x="50.9411" y="24.1549" fill="black" font-size="13.617" font-family="Times">&#0062;</text>
</g>
<g transform="rotate(-90,57.335,37.6532)">
<text xml:space="preserve" x="57.335" y="37.6532" fill="black" font-size="9.24468" font-family="Helvetica">coll</text>
</g>
<g transform="rotate(-90,50.9411,46.8889)">
<text xml:space="preserve" x="50.9411" y="46.8889" fill="black" font-size="13.617" font-family="Helvetica">N</text>
</g>
<g transform="rotate(-90,50.9411,51.1515)">
<text xml:space="preserve" x="50.9411" y="51.1515" fill="black" font-size="13.617" font-family="Times">&#0060;</text>
</g>
<g transform="rotate(-90,50.9411,56.1246)">
<text xml:space="preserve" x="50.9411" y="56.1246" fill="black" font-size="13.617" font-family="Helvetica">/</text>
</g>
<g transform="rotate(-90,40.2845,59.6768)">
<text xml:space="preserve" x="40.2845" y="59.6768" fill="black" font-size="6.32979" font-family="Helvetica">0</text>
</g>
<g transform="rotate(-90,43.8367,64.6498)">
<text xml:space="preserve" x="43.8367" y="64.6498" fill="black" font-size="9.24468" font-family="Times">&#0960;</text>
</g>
<g transform="rotate(-90,50.9411,73.8855)">
<text xml:space="preserve" x="50.9411" y="73.8855" fill="black" font-size="13.617" font-family="Helvetica">Y</text>
</g>
<path d="M482.39,359.481v -339.056" fill="none" stroke="black"/>
<path d="M468.273,359.481h 14.1165" fill="none" stroke="black"/>
<path d="M475.332,348.18h 7.05827" fill="none" stroke="black"/>
<path d="M475.332,336.878h 7.05827" fill="none" stroke="black"/>
<path d="M475.332,325.576h 7.05827" fill="none" stroke="black"/>
<path d="M475.332,314.274h 7.05827" fill="none" stroke="black"/>
<path d="M468.273,302.972h 14.1165" fill="none" stroke="black"/>
<path d="M475.332,291.67h 7.05827" fill="none" stroke="black"/>
<path d="M475.332,280.368h 7.05827" fill="none" stroke="black"/>
<path d="M475.332,269.066h 7.05827" fill="none" stroke="black"/>
<path d="M475.332,257.764h 7.05827" fill="none" stroke="black"/>
<path d="M468.273,246.463h 14.1165" fill="none" stroke="black"/>
<path d="M475.332,235.161h 7.05827" fill="none" stroke="black"/>
<path d="M475.332,223.859h 7.05827" fill="none" stroke="black"/>
<path d="M475.332,212.557h 7.05827" fill="none" stroke="black"/>
<path d="M475.332,201.255h 7.05827" fill="none" stroke="black"/>
<path d="M468.273,189.953h 14.1165" fill="none" stroke="black"/>
<path d="M475.332,178.651h 7.05827" fill="none" stroke="black"/>
<path d="M475.332,167.349h 7.05827" fill="none" stroke="black"/>
<path d="M475.332,156.048h 7.05827" fill="none" stroke="black"/>
<path d="M475.332,144.746h 7.05827" fill="none" stroke="black"/>
<path d="M468.273,133.444h 14.1165" fill="none" stroke="black"/>
<path d="M475.332,122.142h 7.05827" fill="none" stroke="black"/>
<path d="M475.332,110.84h 7.05827" fill="none" stroke="black"/>
<path d="M475.332,99.5382h 7.05827" fill="none" stroke="black"/>
<path d="M475.332,88.2363h 7.05827" fill="none" stroke="black"/>
<path d="M468.273,76.9345h 14.1165" fill="none" stroke="black"/>
<path d="M475.332,65.6326h 7.05827" fill="none" stroke="black"/>
<path d="M475.332,54.3307h 7.05827" fill="none" stroke="black"/>
<path d="M475.332,43.0288h 7.05827" fill="none" stroke="black"/>
<path d="M475.332,31.727h 7.05827" fill="none" stroke="black"/>
<path d="M468.273,20.4251h 14.1165" fill="none" stroke="black"/>
<path d="M85.5394,171.512h 46.7645" fill="none" stroke="black"/>
<path d="M137.987,171.512h 46.7645" fill="none" stroke="black"/>
<g fill="black">
<circle cx="135.146" cy="171.512" r="2.84175"/>
</g>
<path d="M184.752,295.312h 46.7645" fill="none" stroke="black"/>
<path d="M237.2,295.312h 46.7645" fill="none" stroke="black"/>
<g fill="black">
<circle cx="234.358" cy="295.312" r="2.84175"/>
</g>
<path d="M283.965,350.681h 46.7645" fill="none" stroke="black"/>
<path d="M336.413,350.681h 46.7645" fill="none" stroke="black"/>
<g fill="black">
<circle cx="333.571" cy="350.681" r="2.84175"/>
</g>
<path d="M383.177,357.837h 46.7645" fill="none" stroke="black"/>
<path d="M435.625,357.837h 46.7645" fill="none" stroke="black"/>
<g fill="black">
<circle cx="432.783" cy="357.837" r="2.84175"/>
</g>
<path d="M85.5394,169.617h 46.7645" fill="none" stroke="#ff0000"/>
<path d="M137.987,169.617h 46.7645" fill="none" stroke="#ff0000"/>
<g fill="#ff0000">
<rect x="132.304" y="166.775" width="5.6835" height="5.6835"/>
</g>
<path d="M184.752,294.207h 46.7645" fill="none" stroke="#ff0000"/>
<path d="M237.2,294.207h 46.7645" fill="none" stroke="#ff0000"/>
<g fill="#ff0000">
<rect x="231.517" y="291.365" width="5.6835" height="5.6835"/>
</g>
<path d="M283.965,350.379h 46.7645" fill="none" stroke="#ff0000"/>
<path d="M336.413,350.379h 46.7645" fill="none" stroke="#ff0000"/>
<g fill="#ff0000">
<rect x="330.729" y="347.537" width="5.6835" height="5.6835"/>
</g>
<path d="M383.177,357.758h 46.7645" fill="none" stroke="#ff0000"/>
<path d="M435.625,357.758h 46.7645" fill="none" stroke="#ff0000"/>
<g fill="#ff0000">
<rect x="429.942" y="354.916" width="5.6835" height="5.6835"/>
</g>
<path d="M85.5394,166.118h 48.1854" fill="none" stroke="#59d354"/>
<path d="M136.567,166.118h 48.1854" fill="none" stroke="#59d354"/>
<g fill="#59d354">
<polygon points=" 135.146, 163.277 137.987, 168.96 132.304, 168.96"/>
</g>
<path d="M184.752,292.789h 48.1854" fill="none" stroke="#59d354"/>
<path d="M235.779,292.789h 48.1854" fill="none" stroke="#59d354"/>
<g fill="#59d354">
<polygon points=" 234.358, 289.947 237.2, 295.63 231.517, 295.63"/>
</g>
<path d="M283.965,350.098h 48.1854" fill="none" stroke="#59d354"/>
<path d="M334.992,350.098h 48.1854" fill="none" stroke="#59d354"/>
<g fill="#59d354">
<polygon points=" 333.571, 347.256 336.413, 352.94 330.729, 352.94"/>
</g>
<path d="M383.177,357.669h 48.1854" fill="none" stroke="#59d354"/>
<path d="M434.204,357.669h 48.1854" fill="none" stroke="#59d354"/>
<g fill="#59d354">
<polygon points=" 432.783, 354.828 435.625, 360.511 429.942, 360.511"/>
</g>
<path d="M85.5394,158.303h 48.1854" fill="none" stroke="#0000ff"/>
<path d="M136.567,158.303h 48.1854" fill="none" stroke="#0000ff"/>
<g fill="#0000ff">
<polygon points=" 132.304, 155.462 137.987, 155.462 135.146, 161.145"/>
</g>
<path d="M184.752,289.842h 48.1854" fill="none" stroke="#0000ff"/>
<path d="M235.779,289.842h 48.1854" fill="none" stroke="#0000ff"/>
<g fill="#0000ff">
<polygon points=" 231.517, 287 237.2, 287 234.358, 292.684"/>
</g>
<path d="M283.965,349.663h 48.1854" fill="none" stroke="#0000ff"/>
<path d="M334.992,349.663h 48.1854" fill="none" stroke="#0000ff"/>
<g fill="#0000ff">
<polygon points=" 330.729, 346.821 336.413, 346.821 333.571, 352.504"/>
</g>
<path d="M383.177,357.568h 48.1854" fill="none" stroke="#0000ff"/>
<path d="M434.204,357.568h 48.1854" fill="none" stroke="#0000ff"/>
<g fill="#0000ff">
<polygon points=" 429.942, 354.726 435.625, 354.726 432.783, 360.41"/>
</g>
<path d="M85.5394,142.579h 46.7645" fill="none" stroke="#ff00ff"/>
<path d="M137.987,142.579h 46.7645" fill="none" stroke="#ff00ff"/>
<g fill="#ff00ff">
<polygon points=" 134.198, 141.631 134.198, 139.737 136.093, 139.737 136.093, 141.631 137.987, 141.631 137.987, 143.526 136.093, 143.526 136.093, 145.42 134.198, 145.42 134.198, 143.526 132.304, 143.526 132.304, 141.631"/>
</g>
<path d="M184.752,284.724h 46.7645" fill="none" stroke="#ff00ff"/>
<path d="M237.2,284.724h 46.7645" fill="none" stroke="#ff00ff"/>
<g fill="#ff00ff">
<polygon points=" 233.411, 283.777 233.411, 281.882 235.306, 281.882 235.306, 283.777 237.2, 283.777 237.2, 285.671 235.306, 285.671 235.306, 287.566 233.411, 287.566 233.411, 285.671 231.517, 285.671 231.517, 283.777"/>
</g>
<path d="M283.965,349.08h 46.7645" fill="none" stroke="#ff00ff"/>
<path d="M336.413,349.08h 46.7645" fill="none" stroke="#ff00ff"/>
<g fill="#ff00ff">
<polygon points=" 332.624, 348.133 332.624, 346.238 334.518, 346.238 334.518, 348.133 336.413, 348.133 336.413, 350.027 334.518, 350.027 334.518, 351.922 332.624, 351.922 332.624, 350.027 330.729, 350.027 330.729, 348.133"/>
</g>
<path d="M383.177,357.477h 46.7645" fill="none" stroke="#ff00ff"/>
<path d="M435.625,357.477h 46.7645" fill="none" stroke="#ff00ff"/>
<g fill="#ff00ff">
<polygon points=" 431.836, 356.53 431.836, 354.635 433.731, 354.635 433.731, 356.53 435.625, 356.53 435.625, 358.424 433.731, 358.424 433.731, 360.319 431.836, 360.319 431.836, 358.424 429.942, 358.424 429.942, 356.53"/>
</g>
<text xml:space="preserve" x="287.517" y="45.468" fill="black" font-size="15.4909" font-family="Helvetica">PYTHIA8, option3</text>
<text xml:space="preserve" x="409.712" y="68.202" fill="black" font-size="15.4909" font-family="Helvetica">|&lt;1</text>
<text xml:space="preserve" x="401.187" y="68.202" fill="black" font-size="15.4909" font-family="Times">&#0951;</text>
<text xml:space="preserve" x="287.517" y="68.202" fill="black" font-size="15.4909" font-family="Helvetica">p+Au, 200 GeV, |</text>
<text xml:space="preserve" x="325.88" y="91.6464" fill="black" font-size="15.4909" font-family="Helvetica">cent: 0~10%</text>
<g fill="black">
<circle cx="305.224" cy="86.9525" r="2.84175"/>
</g>
<text xml:space="preserve" x="325.88" y="115.091" fill="black" font-size="15.4909" font-family="Helvetica">cent: 10~20%</text>
<g fill="#ff0000">
<rect x="302.383" y="107.454" width="5.6835" height="5.6835"/>
</g>
<text xml:space="preserve" x="325.88" y="138.535" fill="black" font-size="15.4909" font-family="Helvetica">cent: 20~40%</text>
<g fill="#59d354">
<polygon points=" 305.224, 130.797 308.066, 136.48 302.383, 136.48"/>
</g>
<text xml:space="preserve" x="325.88" y="161.98" fill="black" font-size="15.4909" font-family="Helvetica">cent: 40~60%</text>
<g fill="#0000ff">
<polygon points=" 302.383, 154.14 308.066, 154.14 305.224, 159.823"/>
</g>
<text xml:space="preserve" x="325.88" y="185.424" fill="black" font-size="15.4909" font-family="Helvetica">cent: 60~80%</text>
<g fill="#ff00ff">
<polygon points=" 304.277, 179.377 304.277, 177.483 306.172, 177.483 306.172, 179.377 308.066, 179.377 308.066, 181.272 306.172, 181.272 306.172, 183.166 304.277, 183.166 304.277, 181.272 302.383, 181.272 302.383, 179.377"/>
</g></svg>
