<?xml version="1.0" standalone="no"?>
<svg width="567.429" height="409.002" viewBox="0 0 567.429 409.002" xmlns="http://www.w3.org/2000/svg" shape-rendering="crispEdges">
<title>
/Users/jinhyunpark/npl/gitHub/xloadFromServer/Git_Bias_correction_RxA/plots_dirAdded/yieldBypT_dirPhoton_MBincluded_logscale.svg
</title>
<desc>
Creator: ROOT Version 6.28/04
CreationDate: Thu Aug 31 17:26:50 2023</desc>
<defs>
</defs>
<rect x="0.5" y="0" width="566.929" height="408.502" fill="white"/>
<rect x="85.5394" y="20.4251" width="396.85" height="339.056" fill="white"/>
<rect x="85.5394" y="20.4251" width="396.85" height="339.056" fill="none" stroke="black"/>
<rect x="85.5394" y="20.4251" width="396.85" height="339.056" fill="white"/>
<rect x="85.5394" y="20.4251" width="396.85" height="339.056" fill="none" stroke="black"/>
<path d="M85.5394,359.481h 396.85" fill="none" stroke="black"/>
<path d="M85.5394,350.903v 8.57853" fill="none" stroke="black"/>
<path d="M93.4764,355.192v 4.28927" fill="none" stroke="black"/>
<path d="M101.413,355.192v 4.28927" fill="none" stroke="black"/>
<path d="M109.35,355.192v 4.28927" fill="none" stroke="black"/>
<path d="M117.287,355.192v 4.28927" fill="none" stroke="black"/>
<path d="M125.224,350.903v 8.57853" fill="none" stroke="black"/>
<path d="M133.161,355.192v 4.28927" fill="none" stroke="black"/>
<path d="M141.098,355.192v 4.28927" fill="none" stroke="black"/>
<path d="M149.035,355.192v 4.28927" fill="none" stroke="black"/>
<path d="M156.972,355.192v 4.28927" fill="none" stroke="black"/>
<path d="M164.909,350.903v 8.57853" fill="none" stroke="black"/>
<path d="M172.846,355.192v 4.28927" fill="none" stroke="black"/>
<path d="M180.783,355.192v 4.28927" fill="none" stroke="black"/>
<path d="M188.72,355.192v 4.28927" fill="none" stroke="black"/>
<path d="M196.657,355.192v 4.28927" fill="none" stroke="black"/>
<path d="M204.594,350.903v 8.57853" fill="none" stroke="black"/>
<path d="M212.531,355.192v 4.28927" fill="none" stroke="black"/>
<path d="M220.469,355.192v 4.28927" fill="none" stroke="black"/>
<path d="M228.406,355.192v 4.28927" fill="none" stroke="black"/>
<path d="M236.343,355.192v 4.28927" fill="none" stroke="black"/>
<path d="M244.28,350.903v 8.57853" fill="none" stroke="black"/>
<path d="M252.217,355.192v 4.28927" fill="none" stroke="black"/>
<path d="M260.154,355.192v 4.28927" fill="none" stroke="black"/>
<path d="M268.091,355.192v 4.28927" fill="none" stroke="black"/>
<path d="M276.028,355.192v 4.28927" fill="none" stroke="black"/>
<path d="M283.965,350.903v 8.57853" fill="none" stroke="black"/>
<path d="M291.902,355.192v 4.28927" fill="none" stroke="black"/>
<path d="M299.839,355.192v 4.28927" fill="none" stroke="black"/>
<path d="M307.776,355.192v 4.28927" fill="none" stroke="black"/>
<path d="M315.713,355.192v 4.28927" fill="none" stroke="black"/>
<path d="M323.65,350.903v 8.57853" fill="none" stroke="black"/>
<path d="M331.587,355.192v 4.28927" fill="none" stroke="black"/>
<path d="M339.524,355.192v 4.28927" fill="none" stroke="black"/>
<path d="M347.461,355.192v 4.28927" fill="none" stroke="black"/>
<path d="M355.398,355.192v 4.28927" fill="none" stroke="black"/>
<path d="M363.335,350.903v 8.57853" fill="none" stroke="black"/>
<path d="M371.272,355.192v 4.28927" fill="none" stroke="black"/>
<path d="M379.209,355.192v 4.28927" fill="none" stroke="black"/>
<path d="M387.146,355.192v 4.28927" fill="none" stroke="black"/>
<path d="M395.083,355.192v 4.28927" fill="none" stroke="black"/>
<path d="M403.02,350.903v 8.57853" fill="none" stroke="black"/>
<path d="M410.957,355.192v 4.28927" fill="none" stroke="black"/>
<path d="M418.894,355.192v 4.28927" fill="none" stroke="black"/>
<path d="M426.831,355.192v 4.28927" fill="none" stroke="black"/>
<path d="M434.768,355.192v 4.28927" fill="none" stroke="black"/>
<path d="M442.705,350.903v 8.57853" fill="none" stroke="black"/>
<path d="M450.642,355.192v 4.28927" fill="none" stroke="black"/>
<path d="M458.579,355.192v 4.28927" fill="none" stroke="black"/>
<path d="M466.516,355.192v 4.28927" fill="none" stroke="black"/>
<path d="M474.453,355.192v 4.28927" fill="none" stroke="black"/>
<path d="M482.39,350.903v 8.57853" fill="none" stroke="black"/>
<text xml:space="preserve" x="81.4899" y="372.269" fill="black" font-size="13.617" font-family="Helvetica">0</text>
<text xml:space="preserve" x="121.985" y="372.269" fill="black" font-size="13.617" font-family="Helvetica">1</text>
<text xml:space="preserve" x="161.059" y="372.269" fill="black" font-size="13.617" font-family="Helvetica">2</text>
<text xml:space="preserve" x="200.843" y="372.269" fill="black" font-size="13.617" font-family="Helvetica">3</text>
<text xml:space="preserve" x="240.628" y="372.269" fill="black" font-size="13.617" font-family="Helvetica">4</text>
<text xml:space="preserve" x="280.412" y="372.269" fill="black" font-size="13.617" font-family="Helvetica">5</text>
<text xml:space="preserve" x="319.486" y="372.269" fill="black" font-size="13.617" font-family="Helvetica">6</text>
<text xml:space="preserve" x="359.271" y="372.269" fill="black" font-size="13.617" font-family="Helvetica">7</text>
<text xml:space="preserve" x="399.055" y="372.269" fill="black" font-size="13.617" font-family="Helvetica">8</text>
<text xml:space="preserve" x="438.84" y="372.269" fill="black" font-size="13.617" font-family="Helvetica">9</text>
<text xml:space="preserve" x="474.362" y="372.269" fill="black" font-size="13.617" font-family="Helvetica">10</text>
<text xml:space="preserve" x="476.493" y="390.741" fill="black" font-size="9.24468" font-family="Helvetica">T</text>
<text xml:space="preserve" x="468.678" y="382.926" fill="black" font-size="13.617" font-family="Helvetica">p</text>
<path d="M85.5394,20.4251h 396.85" fill="none" stroke="black"/>
<path d="M85.5394,29.0036v -8.57853" fill="none" stroke="black"/>
<path d="M93.4764,24.7143v -4.28927" fill="none" stroke="black"/>
<path d="M101.413,24.7143v -4.28927" fill="none" stroke="black"/>
<path d="M109.35,24.7143v -4.28927" fill="none" stroke="black"/>
<path d="M117.287,24.7143v -4.28927" fill="none" stroke="black"/>
<path d="M125.224,29.0036v -8.57853" fill="none" stroke="black"/>
<path d="M133.161,24.7143v -4.28927" fill="none" stroke="black"/>
<path d="M141.098,24.7143v -4.28927" fill="none" stroke="black"/>
<path d="M149.035,24.7143v -4.28927" fill="none" stroke="black"/>
<path d="M156.972,24.7143v -4.28927" fill="none" stroke="black"/>
<path d="M164.909,29.0036v -8.57853" fill="none" stroke="black"/>
<path d="M172.846,24.7143v -4.28927" fill="none" stroke="black"/>
<path d="M180.783,24.7143v -4.28927" fill="none" stroke="black"/>
<path d="M188.72,24.7143v -4.28927" fill="none" stroke="black"/>
<path d="M196.657,24.7143v -4.28927" fill="none" stroke="black"/>
<path d="M204.594,29.0036v -8.57853" fill="none" stroke="black"/>
<path d="M212.531,24.7143v -4.28927" fill="none" stroke="black"/>
<path d="M220.469,24.7143v -4.28927" fill="none" stroke="black"/>
<path d="M228.406,24.7143v -4.28927" fill="none" stroke="black"/>
<path d="M236.343,24.7143v -4.28927" fill="none" stroke="black"/>
<path d="M244.28,29.0036v -8.57853" fill="none" stroke="black"/>
<path d="M252.217,24.7143v -4.28927" fill="none" stroke="black"/>
<path d="M260.154,24.7143v -4.28927" fill="none" stroke="black"/>
<path d="M268.091,24.7143v -4.28927" fill="none" stroke="black"/>
<path d="M276.028,24.7143v -4.28927" fill="none" stroke="black"/>
<path d="M283.965,29.0036v -8.57853" fill="none" stroke="black"/>
<path d="M291.902,24.7143v -4.28927" fill="none" stroke="black"/>
<path d="M299.839,24.7143v -4.28927" fill="none" stroke="black"/>
<path d="M307.776,24.7143v -4.28927" fill="none" stroke="black"/>
<path d="M315.713,24.7143v -4.28927" fill="none" stroke="black"/>
<path d="M323.65,29.0036v -8.57853" fill="none" stroke="black"/>
<path d="M331.587,24.7143v -4.28927" fill="none" stroke="black"/>
<path d="M339.524,24.7143v -4.28927" fill="none" stroke="black"/>
<path d="M347.461,24.7143v -4.28927" fill="none" stroke="black"/>
<path d="M355.398,24.7143v -4.28927" fill="none" stroke="black"/>
<path d="M363.335,29.0036v -8.57853" fill="none" stroke="black"/>
<path d="M371.272,24.7143v -4.28927" fill="none" stroke="black"/>
<path d="M379.209,24.7143v -4.28927" fill="none" stroke="black"/>
<path d="M387.146,24.7143v -4.28927" fill="none" stroke="black"/>
<path d="M395.083,24.7143v -4.28927" fill="none" stroke="black"/>
<path d="M403.02,29.0036v -8.57853" fill="none" stroke="black"/>
<path d="M410.957,24.7143v -4.28927" fill="none" stroke="black"/>
<path d="M418.894,24.7143v -4.28927" fill="none" stroke="black"/>
<path d="M426.831,24.7143v -4.28927" fill="none" stroke="black"/>
<path d="M434.768,24.7143v -4.28927" fill="none" stroke="black"/>
<path d="M442.705,29.0036v -8.57853" fill="none" stroke="black"/>
<path d="M450.642,24.7143v -4.28927" fill="none" stroke="black"/>
<path d="M458.579,24.7143v -4.28927" fill="none" stroke="black"/>
<path d="M466.516,24.7143v -4.28927" fill="none" stroke="black"/>
<path d="M474.453,24.7143v -4.28927" fill="none" stroke="black"/>
<path d="M482.39,29.0036v -8.57853" fill="none" stroke="black"/>
<path d="M85.5394,359.481v -339.056" fill="none" stroke="black"/>
<path d="M99.6559,359.481h -14.1165" fill="none" stroke="black"/>
<text xml:space="preserve" x="75.8064" y="359.481" fill="black" font-size="9.24468" font-family="Helvetica">7</text>
<text xml:space="preserve" x="70.8333" y="359.481" fill="black" font-size="9.24468" font-family="Times">&#8722;</text>
<text xml:space="preserve" x="55.9141" y="365.165" fill="black" font-size="13.617" font-family="Helvetica">10</text>
<path d="M92.5976,339.068h -7.05827" fill="none" stroke="black"/>
<path d="M92.5976,327.127h -7.05827" fill="none" stroke="black"/>
<path d="M92.5976,318.655h -7.05827" fill="none" stroke="black"/>
<path d="M92.5976,312.083h -7.05827" fill="none" stroke="black"/>
<path d="M92.5976,306.714h -7.05827" fill="none" stroke="black"/>
<path d="M92.5976,302.174h -7.05827" fill="none" stroke="black"/>
<path d="M92.5976,298.242h -7.05827" fill="none" stroke="black"/>
<path d="M92.5976,294.773h -7.05827" fill="none" stroke="black"/>
<path d="M99.6559,291.67h -14.1165" fill="none" stroke="black"/>
<text xml:space="preserve" x="75.8064" y="291.279" fill="black" font-size="9.24468" font-family="Helvetica">6</text>
<text xml:space="preserve" x="70.8333" y="291.279" fill="black" font-size="9.24468" font-family="Times">&#8722;</text>
<text xml:space="preserve" x="55.9141" y="297.673" fill="black" font-size="13.617" font-family="Helvetica">10</text>
<path d="M92.5976,271.257h -7.05827" fill="none" stroke="black"/>
<path d="M92.5976,259.316h -7.05827" fill="none" stroke="black"/>
<path d="M92.5976,250.844h -7.05827" fill="none" stroke="black"/>
<path d="M92.5976,244.272h -7.05827" fill="none" stroke="black"/>
<path d="M92.5976,238.903h -7.05827" fill="none" stroke="black"/>
<path d="M92.5976,234.363h -7.05827" fill="none" stroke="black"/>
<path d="M92.5976,230.43h -7.05827" fill="none" stroke="black"/>
<path d="M92.5976,226.962h -7.05827" fill="none" stroke="black"/>
<path d="M99.6559,223.859h -14.1165" fill="none" stroke="black"/>
<text xml:space="preserve" x="75.8064" y="223.788" fill="black" font-size="9.24468" font-family="Helvetica">5</text>
<text xml:space="preserve" x="70.8333" y="223.788" fill="black" font-size="9.24468" font-family="Times">&#8722;</text>
<text xml:space="preserve" x="55.9141" y="230.182" fill="black" font-size="13.617" font-family="Helvetica">10</text>
<path d="M92.5976,203.446h -7.05827" fill="none" stroke="black"/>
<path d="M92.5976,191.505h -7.05827" fill="none" stroke="black"/>
<path d="M92.5976,183.032h -7.05827" fill="none" stroke="black"/>
<path d="M92.5976,176.461h -7.05827" fill="none" stroke="black"/>
<path d="M92.5976,171.091h -7.05827" fill="none" stroke="black"/>
<path d="M92.5976,166.552h -7.05827" fill="none" stroke="black"/>
<path d="M92.5976,162.619h -7.05827" fill="none" stroke="black"/>
<path d="M92.5976,159.15h -7.05827" fill="none" stroke="black"/>
<path d="M99.6559,156.048h -14.1165" fill="none" stroke="black"/>
<text xml:space="preserve" x="75.8064" y="156.296" fill="black" font-size="9.24468" font-family="Helvetica">4</text>
<text xml:space="preserve" x="70.8333" y="156.296" fill="black" font-size="9.24468" font-family="Times">&#8722;</text>
<text xml:space="preserve" x="55.9141" y="161.98" fill="black" font-size="13.617" font-family="Helvetica">10</text>
<path d="M92.5976,135.634h -7.05827" fill="none" stroke="black"/>
<path d="M92.5976,123.693h -7.05827" fill="none" stroke="black"/>
<path d="M92.5976,115.221h -7.05827" fill="none" stroke="black"/>
<path d="M92.5976,108.65h -7.05827" fill="none" stroke="black"/>
<path d="M92.5976,103.28h -7.05827" fill="none" stroke="black"/>
<path d="M92.5976,98.7404h -7.05827" fill="none" stroke="black"/>
<path d="M92.5976,94.8079h -7.05827" fill="none" stroke="black"/>
<path d="M92.5976,91.3392h -7.05827" fill="none" stroke="black"/>
<path d="M99.6559,88.2363h -14.1165" fill="none" stroke="black"/>
<text xml:space="preserve" x="75.8064" y="88.0943" fill="black" font-size="9.24468" font-family="Helvetica">3</text>
<text xml:space="preserve" x="70.8333" y="88.0943" fill="black" font-size="9.24468" font-family="Times">&#8722;</text>
<text xml:space="preserve" x="55.9141" y="94.4882" fill="black" font-size="13.617" font-family="Helvetica">10</text>
<path d="M92.5976,67.8231h -7.05827" fill="none" stroke="black"/>
<path d="M92.5976,55.8821h -7.05827" fill="none" stroke="black"/>
<path d="M92.5976,47.4099h -7.05827" fill="none" stroke="black"/>
<path d="M92.5976,40.8383h -7.05827" fill="none" stroke="black"/>
<path d="M92.5976,35.4689h -7.05827" fill="none" stroke="black"/>
<path d="M92.5976,30.9292h -7.05827" fill="none" stroke="black"/>
<path d="M92.5976,26.9967h -7.05827" fill="none" stroke="black"/>
<path d="M92.5976,23.528h -7.05827" fill="none" stroke="black"/>
<path d="M99.6559,20.4251h -14.1165" fill="none" stroke="black"/>
<text xml:space="preserve" x="75.8064" y="20.6027" fill="black" font-size="9.24468" font-family="Helvetica">2</text>
<text xml:space="preserve" x="70.8333" y="20.6027" fill="black" font-size="9.24468" font-family="Times">&#8722;</text>
<text xml:space="preserve" x="55.9141" y="26.2862" fill="black" font-size="13.617" font-family="Helvetica">10</text>
<g transform="rotate(-90,53.0724,25.5758)">
<text xml:space="preserve" x="53.0724" y="25.5758" fill="black" font-size="9.24468" font-family="Helvetica">T</text>
</g>
<g transform="rotate(-90,45.2576,44.7576)">
<text xml:space="preserve" x="45.2576" y="44.7576" fill="black" font-size="13.617" font-family="Helvetica">/dp</text>
</g>
<g transform="rotate(-90,33.8906,51.1515)">
<text xml:space="preserve" x="33.8906" y="51.1515" fill="black" font-size="6.32979" font-family="Helvetica">dir</text>
</g>
<g transform="rotate(-90,37.4427,56.1246)">
<text xml:space="preserve" x="37.4427" y="56.1246" fill="black" font-size="9.24468" font-family="Times">&#0947;</text>
</g>
<g transform="rotate(-90,45.2576,76.7273)">
<text xml:space="preserve" x="45.2576" y="76.7273" fill="black" font-size="13.617" font-family="Helvetica"> dN</text>
</g>
<g transform="rotate(-90,50.2306,99.4613)">
<text xml:space="preserve" x="50.2306" y="99.4613" fill="black" font-size="9.24468" font-family="Helvetica">event</text>
</g>
<g transform="rotate(-90,45.2576,120.064)">
<text xml:space="preserve" x="45.2576" y="120.064" fill="black" font-size="13.617" font-family="Helvetica">1/N</text>
</g>
<path d="M482.39,359.481v -339.056" fill="none" stroke="black"/>
<path d="M468.273,359.481h 14.1165" fill="none" stroke="black"/>
<path d="M475.332,339.068h 7.05827" fill="none" stroke="black"/>
<path d="M475.332,327.127h 7.05827" fill="none" stroke="black"/>
<path d="M475.332,318.655h 7.05827" fill="none" stroke="black"/>
<path d="M475.332,312.083h 7.05827" fill="none" stroke="black"/>
<path d="M475.332,306.714h 7.05827" fill="none" stroke="black"/>
<path d="M475.332,302.174h 7.05827" fill="none" stroke="black"/>
<path d="M475.332,298.242h 7.05827" fill="none" stroke="black"/>
<path d="M475.332,294.773h 7.05827" fill="none" stroke="black"/>
<path d="M468.273,291.67h 14.1165" fill="none" stroke="black"/>
<path d="M475.332,271.257h 7.05827" fill="none" stroke="black"/>
<path d="M475.332,259.316h 7.05827" fill="none" stroke="black"/>
<path d="M475.332,250.844h 7.05827" fill="none" stroke="black"/>
<path d="M475.332,244.272h 7.05827" fill="none" stroke="black"/>
<path d="M475.332,238.903h 7.05827" fill="none" stroke="black"/>
<path d="M475.332,234.363h 7.05827" fill="none" stroke="black"/>
<path d="M475.332,230.43h 7.05827" fill="none" stroke="black"/>
<path d="M475.332,226.962h 7.05827" fill="none" stroke="black"/>
<path d="M468.273,223.859h 14.1165" fill="none" stroke="black"/>
<path d="M475.332,203.446h 7.05827" fill="none" stroke="black"/>
<path d="M475.332,191.505h 7.05827" fill="none" stroke="black"/>
<path d="M475.332,183.032h 7.05827" fill="none" stroke="black"/>
<path d="M475.332,176.461h 7.05827" fill="none" stroke="black"/>
<path d="M475.332,171.091h 7.05827" fill="none" stroke="black"/>
<path d="M475.332,166.552h 7.05827" fill="none" stroke="black"/>
<path d="M475.332,162.619h 7.05827" fill="none" stroke="black"/>
<path d="M475.332,159.15h 7.05827" fill="none" stroke="black"/>
<path d="M468.273,156.048h 14.1165" fill="none" stroke="black"/>
<path d="M475.332,135.634h 7.05827" fill="none" stroke="black"/>
<path d="M475.332,123.693h 7.05827" fill="none" stroke="black"/>
<path d="M475.332,115.221h 7.05827" fill="none" stroke="black"/>
<path d="M475.332,108.65h 7.05827" fill="none" stroke="black"/>
<path d="M475.332,103.28h 7.05827" fill="none" stroke="black"/>
<path d="M475.332,98.7404h 7.05827" fill="none" stroke="black"/>
<path d="M475.332,94.8079h 7.05827" fill="none" stroke="black"/>
<path d="M475.332,91.3392h 7.05827" fill="none" stroke="black"/>
<path d="M468.273,88.2363h 14.1165" fill="none" stroke="black"/>
<path d="M475.332,67.8231h 7.05827" fill="none" stroke="black"/>
<path d="M475.332,55.8821h 7.05827" fill="none" stroke="black"/>
<path d="M475.332,47.4099h 7.05827" fill="none" stroke="black"/>
<path d="M475.332,40.8383h 7.05827" fill="none" stroke="black"/>
<path d="M475.332,35.4689h 7.05827" fill="none" stroke="black"/>
<path d="M475.332,30.9292h 7.05827" fill="none" stroke="black"/>
<path d="M475.332,26.9967h 7.05827" fill="none" stroke="black"/>
<path d="M475.332,23.528h 7.05827" fill="none" stroke="black"/>
<path d="M468.273,20.4251h 14.1165" fill="none" stroke="black"/>
<path d="M85.5394,99.6549h 7.07951" fill="none" stroke="black"/>
<path d="M98.3024,99.6549h 7.07951" fill="none" stroke="black"/>
<g fill="black">
<circle cx="95.4606" cy="99.6549" r="2.84175"/>
</g>
<path d="M105.382,94.3859h 7.07951" fill="none" stroke="black"/>
<path d="M118.145,94.3859h 7.07951" fill="none" stroke="black"/>
<g fill="black">
<circle cx="115.303" cy="94.3859" r="2.84175"/>
</g>
<path d="M125.224,133.838h 7.07951" fill="none" stroke="black"/>
<path d="M137.987,133.838h 7.07951" fill="none" stroke="black"/>
<g fill="black">
<circle cx="135.146" cy="133.838" r="2.84175"/>
</g>
<path d="M154.988,171.899v -0.36412" fill="none" stroke="black"/>
<path d="M154.988,165.852v -0.0491436" fill="none" stroke="black"/>
<path d="M145.067,168.693h 7.07951" fill="none" stroke="black"/>
<path d="M157.83,168.693h 7.07951" fill="none" stroke="black"/>
<g fill="black">
<circle cx="154.988" cy="168.693" r="2.84175"/>
</g>
<path d="M184.752,215.555v -1.91228" fill="none" stroke="black"/>
<path d="M184.752,207.959v -1.25045" fill="none" stroke="black"/>
<path d="M164.909,210.801h 17.0008" fill="none" stroke="black"/>
<path d="M187.594,210.801h 17.0008" fill="none" stroke="black"/>
<g fill="black">
<circle cx="184.752" cy="210.801" r="2.84175"/>
</g>
<path d="M224.437,254.345v -6.31622" fill="none" stroke="black"/>
<path d="M224.437,242.345v -4.13373" fill="none" stroke="black"/>
<path d="M204.594,245.187h 17.0008" fill="none" stroke="black"/>
<path d="M227.279,245.187h 17.0008" fill="none" stroke="black"/>
<g fill="black">
<circle cx="224.437" cy="245.187" r="2.84175"/>
</g>
<path d="M264.122,302.494v -17.5715" fill="none" stroke="black"/>
<path d="M264.122,279.239v -9.09922" fill="none" stroke="black"/>
<path d="M244.28,282.081h 17.0008" fill="none" stroke="black"/>
<path d="M266.964,282.081h 17.0008" fill="none" stroke="black"/>
<g fill="black">
<circle cx="264.122" cy="282.081" r="2.84175"/>
</g>
<path d="M323.65,336.329v -22.521" fill="none" stroke="black"/>
<path d="M323.65,308.124v -10.58" fill="none" stroke="black"/>
<path d="M283.965,310.966h 36.8433" fill="none" stroke="black"/>
<path d="M326.491,310.966h 36.8433" fill="none" stroke="black"/>
<g fill="black">
<circle cx="323.65" cy="310.966" r="2.84175"/>
</g>
<path d="M422.862,359.481v -1.37846" fill="none" stroke="black"/>
<path d="M422.862,352.419v -17.5715" fill="none" stroke="black"/>
<path d="M363.335,355.261h 56.6858" fill="none" stroke="black"/>
<path d="M425.704,355.261h 56.6858" fill="none" stroke="black"/>
<g fill="black">
<circle cx="422.862" cy="355.261" r="2.84175"/>
</g>
<path d="M85.5394,103.173h 7.07951" fill="none" stroke="#ff0000"/>
<path d="M98.3024,103.173h 7.07951" fill="none" stroke="#ff0000"/>
<g stroke="#ff0000" stroke-width="1" fill="none">
<rect x="92.6189" y="100.331" width="5.6835" height="5.6835"/>
</g>
<path d="M105.382,96.6826h 7.07951" fill="none" stroke="#ff0000"/>
<path d="M118.145,96.6826h 7.07951" fill="none" stroke="#ff0000"/>
<g stroke="#ff0000" stroke-width="1" fill="none">
<rect x="112.461" y="93.8409" width="5.6835" height="5.6835"/>
</g>
<path d="M125.224,134.559h 7.07951" fill="none" stroke="#ff0000"/>
<path d="M137.987,134.559h 7.07951" fill="none" stroke="#ff0000"/>
<g stroke="#ff0000" stroke-width="1" fill="none">
<rect x="132.304" y="131.717" width="5.6835" height="5.6835"/>
</g>
<path d="M154.988,165.582v -0.0410874" fill="none" stroke="#ff0000"/>
<path d="M145.067,162.699h 7.07951" fill="none" stroke="#ff0000"/>
<path d="M157.83,162.699h 7.07951" fill="none" stroke="#ff0000"/>
<g stroke="#ff0000" stroke-width="1" fill="none">
<rect x="152.146" y="159.857" width="5.6835" height="5.6835"/>
</g>
<path d="M184.752,216.218v -1.97064" fill="none" stroke="#ff0000"/>
<path d="M184.752,208.564v -1.29359" fill="none" stroke="#ff0000"/>
<path d="M164.909,211.406h 17.0008" fill="none" stroke="#ff0000"/>
<path d="M187.594,211.406h 17.0008" fill="none" stroke="#ff0000"/>
<g stroke="#ff0000" stroke-width="1" fill="none">
<rect x="181.91" y="208.564" width="5.6835" height="5.6835"/>
</g>
<path d="M224.437,256.879v -6.72452" fill="none" stroke="#ff0000"/>
<path d="M224.437,244.471v -4.36726" fill="none" stroke="#ff0000"/>
<path d="M204.594,247.313h 17.0008" fill="none" stroke="#ff0000"/>
<path d="M227.279,247.313h 17.0008" fill="none" stroke="#ff0000"/>
<g stroke="#ff0000" stroke-width="1" fill="none">
<rect x="221.595" y="244.471" width="5.6835" height="5.6835"/>
</g>
<path d="M264.122,315.859v -22.521" fill="none" stroke="#ff0000"/>
<path d="M264.122,287.655v -10.58" fill="none" stroke="#ff0000"/>
<path d="M244.28,290.496h 17.0008" fill="none" stroke="#ff0000"/>
<path d="M266.964,290.496h 17.0008" fill="none" stroke="#ff0000"/>
<g stroke="#ff0000" stroke-width="1" fill="none">
<rect x="261.28" y="287.655" width="5.6835" height="5.6835"/>
</g>
<path d="M323.65,359.481v -13.3758" fill="none" stroke="#ff0000"/>
<path d="M323.65,340.422v -17.5715" fill="none" stroke="#ff0000"/>
<path d="M283.965,343.264h 36.8433" fill="none" stroke="#ff0000"/>
<path d="M326.491,343.264h 36.8433" fill="none" stroke="#ff0000"/>
<g stroke="#ff0000" stroke-width="1" fill="none">
<rect x="320.808" y="340.422" width="5.6835" height="5.6835"/>
</g>
<path d="M85.5394,106.046h 8.50039" fill="none" stroke="#59d354"/>
<path d="M96.8815,106.046h 8.50039" fill="none" stroke="#59d354"/>
<g stroke="#59d354" stroke-width="1" fill="none">
<polygon points=" 95.4606, 103.204 98.3024, 108.888 92.6189, 108.888"/>
</g>
<path d="M105.382,99.6204h 8.50039" fill="none" stroke="#59d354"/>
<path d="M116.724,99.6204h 8.50039" fill="none" stroke="#59d354"/>
<g stroke="#59d354" stroke-width="1" fill="none">
<polygon points=" 115.303, 96.7786 118.145, 102.462 112.461, 102.462"/>
</g>
<path d="M125.224,138.232h 8.50039" fill="none" stroke="#59d354"/>
<path d="M136.567,138.232h 8.50039" fill="none" stroke="#59d354"/>
<g stroke="#59d354" stroke-width="1" fill="none">
<polygon points=" 135.146, 135.39 137.987, 141.074 132.304, 141.074"/>
</g>
<path d="M145.067,165.667h 8.50039" fill="none" stroke="#59d354"/>
<path d="M156.409,165.667h 8.50039" fill="none" stroke="#59d354"/>
<g stroke="#59d354" stroke-width="1" fill="none">
<polygon points=" 154.988, 162.825 157.83, 168.508 152.146, 168.508"/>
</g>
<path d="M184.752,208.941v -0.167313" fill="none" stroke="#59d354"/>
<path d="M164.909,205.932h 18.4216" fill="none" stroke="#59d354"/>
<path d="M186.173,205.932h 18.4216" fill="none" stroke="#59d354"/>
<g stroke="#59d354" stroke-width="1" fill="none">
<polygon points=" 184.752, 203.09 187.594, 208.774 181.91, 208.774"/>
</g>
<path d="M224.437,266.065v -5.07436" fill="none" stroke="#59d354"/>
<path d="M224.437,255.307v -3.39104" fill="none" stroke="#59d354"/>
<path d="M204.594,258.149h 18.4216" fill="none" stroke="#59d354"/>
<path d="M225.858,258.149h 18.4216" fill="none" stroke="#59d354"/>
<g stroke="#59d354" stroke-width="1" fill="none">
<polygon points=" 224.437, 255.307 227.279, 260.991 221.595, 260.991"/>
</g>
<path d="M264.122,305.955v -12.6098" fill="none" stroke="#59d354"/>
<path d="M264.122,287.661v -7.24038" fill="none" stroke="#59d354"/>
<path d="M244.28,290.503h 18.4216" fill="none" stroke="#59d354"/>
<path d="M265.543,290.503h 18.4216" fill="none" stroke="#59d354"/>
<g stroke="#59d354" stroke-width="1" fill="none">
<polygon points=" 264.122, 287.661 266.964, 293.345 261.28, 293.345"/>
</g>
<path d="M323.65,326.368v -12.6098" fill="none" stroke="#59d354"/>
<path d="M323.65,308.075v -7.24038" fill="none" stroke="#59d354"/>
<path d="M283.965,310.916h 38.2642" fill="none" stroke="#59d354"/>
<path d="M325.07,310.916h 38.2642" fill="none" stroke="#59d354"/>
<g stroke="#59d354" stroke-width="1" fill="none">
<polygon points=" 323.65, 308.075 326.491, 313.758 320.808, 313.758"/>
</g>
<path d="M85.5394,111.372h 8.50039" fill="none" stroke="#0000ff"/>
<path d="M96.8815,111.372h 8.50039" fill="none" stroke="#0000ff"/>
<g stroke="#0000ff" stroke-width="1" fill="none">
<polygon points=" 95.4606, 108.53 97.3551, 111.372 95.4606, 114.214 93.5661, 111.372"/>
</g>
<path d="M105.382,105.07h 8.50039" fill="none" stroke="#0000ff"/>
<path d="M116.724,105.07h 8.50039" fill="none" stroke="#0000ff"/>
<g stroke="#0000ff" stroke-width="1" fill="none">
<polygon points=" 115.303, 102.228 117.198, 105.07 115.303, 107.912 113.409, 105.07"/>
</g>
<path d="M125.224,141.259h 8.50039" fill="none" stroke="#0000ff"/>
<path d="M136.567,141.259h 8.50039" fill="none" stroke="#0000ff"/>
<g stroke="#0000ff" stroke-width="1" fill="none">
<polygon points=" 135.146, 138.417 137.04, 141.259 135.146, 144.101 133.251, 141.259"/>
</g>
<path d="M145.067,173.063h 8.50039" fill="none" stroke="#0000ff"/>
<path d="M156.409,173.063h 8.50039" fill="none" stroke="#0000ff"/>
<g stroke="#0000ff" stroke-width="1" fill="none">
<polygon points=" 154.988, 170.221 156.883, 173.063 154.988, 175.904 153.094, 173.063"/>
</g>
<path d="M184.752,219.354v -0.746374" fill="none" stroke="#0000ff"/>
<path d="M184.752,212.924v -0.356301" fill="none" stroke="#0000ff"/>
<path d="M164.909,215.765h 18.4216" fill="none" stroke="#0000ff"/>
<path d="M186.173,215.765h 18.4216" fill="none" stroke="#0000ff"/>
<g stroke="#0000ff" stroke-width="1" fill="none">
<polygon points=" 184.752, 212.924 186.646, 215.765 184.752, 218.607 182.857, 215.765"/>
</g>
<path d="M224.437,256.436v -3.88205" fill="none" stroke="#0000ff"/>
<path d="M224.437,246.87v -2.62867" fill="none" stroke="#0000ff"/>
<path d="M204.594,249.712h 18.4216" fill="none" stroke="#0000ff"/>
<path d="M225.858,249.712h 18.4216" fill="none" stroke="#0000ff"/>
<g stroke="#0000ff" stroke-width="1" fill="none">
<polygon points=" 224.437, 246.87 226.332, 249.712 224.437, 252.554 222.543, 249.712"/>
</g>
<path d="M264.122,313.365v -14.6158" fill="none" stroke="#0000ff"/>
<path d="M264.122,293.066v -8.04417" fill="none" stroke="#0000ff"/>
<path d="M244.28,295.908h 18.4216" fill="none" stroke="#0000ff"/>
<path d="M265.543,295.908h 18.4216" fill="none" stroke="#0000ff"/>
<g stroke="#0000ff" stroke-width="1" fill="none">
<polygon points=" 264.122, 293.066 266.017, 295.908 264.122, 298.749 262.228, 295.908"/>
</g>
<path d="M323.65,359.481v -13.3339" fill="none" stroke="#0000ff"/>
<path d="M323.65,340.464v -12.9081" fill="none" stroke="#0000ff"/>
<path d="M283.965,343.306h 38.2642" fill="none" stroke="#0000ff"/>
<path d="M325.07,343.306h 38.2642" fill="none" stroke="#0000ff"/>
<g stroke="#0000ff" stroke-width="1" fill="none">
<polygon points=" 323.65, 340.464 325.544, 343.306 323.65, 346.148 321.755, 343.306"/>
</g>
<path d="M85.5394,120.083h 7.07951" fill="none" stroke="#ff00ff"/>
<path d="M98.3024,120.083h 7.07951" fill="none" stroke="#ff00ff"/>
<g fill="#ff00ff">
<polygon points=" 94.5134, 119.136 94.5134, 117.242 96.4079, 117.242 96.4079, 119.136 98.3024, 119.136 98.3024, 121.031 96.4079, 121.031 96.4079, 122.925 94.5134, 122.925 94.5134, 121.031 92.6189, 121.031 92.6189, 119.136"/>
</g>
<path d="M105.382,112.769h 7.07951" fill="none" stroke="#ff00ff"/>
<path d="M118.145,112.769h 7.07951" fill="none" stroke="#ff00ff"/>
<g fill="#ff00ff">
<polygon points=" 114.356, 111.822 114.356, 109.927 116.25, 109.927 116.25, 111.822 118.145, 111.822 118.145, 113.716 116.25, 113.716 116.25, 115.611 114.356, 115.611 114.356, 113.716 112.461, 113.716 112.461, 111.822"/>
</g>
<path d="M125.224,149.383h 7.07951" fill="none" stroke="#ff00ff"/>
<path d="M137.987,149.383h 7.07951" fill="none" stroke="#ff00ff"/>
<g fill="#ff00ff">
<polygon points=" 134.198, 148.436 134.198, 146.541 136.093, 146.541 136.093, 148.436 137.987, 148.436 137.987, 150.33 136.093, 150.33 136.093, 152.225 134.198, 152.225 134.198, 150.33 132.304, 150.33 132.304, 148.436"/>
</g>
<path d="M154.988,187.133v -0.0952246" fill="none" stroke="#ff00ff"/>
<path d="M145.067,184.196h 7.07951" fill="none" stroke="#ff00ff"/>
<path d="M157.83,184.196h 7.07951" fill="none" stroke="#ff00ff"/>
<g fill="#ff00ff">
<polygon points=" 154.041, 183.249 154.041, 181.354 155.935, 181.354 155.935, 183.249 157.83, 183.249 157.83, 185.143 155.935, 185.143 155.935, 187.038 154.041, 187.038 154.041, 185.143 152.146, 185.143 152.146, 183.249"/>
</g>
<path d="M184.752,233.889v -1.74891" fill="none" stroke="#ff00ff"/>
<path d="M184.752,226.457v -1.12888" fill="none" stroke="#ff00ff"/>
<path d="M164.909,229.298h 17.0008" fill="none" stroke="#ff00ff"/>
<path d="M187.594,229.298h 17.0008" fill="none" stroke="#ff00ff"/>
<g fill="#ff00ff">
<polygon points=" 183.805, 228.351 183.805, 226.457 185.699, 226.457 185.699, 228.351 187.594, 228.351 187.594, 230.246 185.699, 230.246 185.699, 232.14 183.805, 232.14 183.805, 230.246 181.91, 230.246 181.91, 228.351"/>
</g>
<path d="M224.437,272.349v -5.95422" fill="none" stroke="#ff00ff"/>
<path d="M224.437,260.711v -3.92238" fill="none" stroke="#ff00ff"/>
<path d="M204.594,263.553h 17.0008" fill="none" stroke="#ff00ff"/>
<path d="M227.279,263.553h 17.0008" fill="none" stroke="#ff00ff"/>
<g fill="#ff00ff">
<polygon points=" 223.49, 262.606 223.49, 260.711 225.384, 260.711 225.384, 262.606 227.279, 262.606 227.279, 264.5 225.384, 264.5 225.384, 266.395 223.49, 266.395 223.49, 264.5 221.595, 264.5 221.595, 262.606"/>
</g>
<path d="M264.122,336.314v -22.521" fill="none" stroke="#ff00ff"/>
<path d="M264.122,308.109v -10.58" fill="none" stroke="#ff00ff"/>
<path d="M244.28,310.951h 17.0008" fill="none" stroke="#ff00ff"/>
<path d="M266.964,310.951h 17.0008" fill="none" stroke="#ff00ff"/>
<g fill="#ff00ff">
<polygon points=" 263.175, 310.004 263.175, 308.109 265.069, 308.109 265.069, 310.004 266.964, 310.004 266.964, 311.898 265.069, 311.898 265.069, 313.793 263.175, 313.793 263.175, 311.898 261.28, 311.898 261.28, 310.004"/>
</g>
<path d="M323.65,356.727v -22.521" fill="none" stroke="#ff00ff"/>
<path d="M323.65,328.523v -10.58" fill="none" stroke="#ff00ff"/>
<path d="M283.965,331.364h 36.8433" fill="none" stroke="#ff00ff"/>
<path d="M326.491,331.364h 36.8433" fill="none" stroke="#ff00ff"/>
<g fill="#ff00ff">
<polygon points=" 322.702, 330.417 322.702, 328.523 324.597, 328.523 324.597, 330.417 326.491, 330.417 326.491, 332.312 324.597, 332.312 324.597, 334.206 322.702, 334.206 322.702, 332.312 320.808, 332.312 320.808, 330.417"/>
</g>
<path d="M422.862,359.481v -13.3343" fill="none" stroke="#ff00ff"/>
<path d="M422.862,340.464v -10.58" fill="none" stroke="#ff00ff"/>
<path d="M363.335,343.305h 56.6858" fill="none" stroke="#ff00ff"/>
<path d="M425.704,343.305h 56.6858" fill="none" stroke="#ff00ff"/>
<g fill="#ff00ff">
<polygon points=" 421.915, 342.358 421.915, 340.464 423.809, 340.464 423.809, 342.358 425.704, 342.358 425.704, 344.253 423.809, 344.253 423.809, 346.147 421.915, 346.147 421.915, 344.253 420.02, 344.253 420.02, 342.358"/>
</g>
<path d="M85.5394,81.9111h 7.07951" fill="none" stroke="#5954d8"/>
<path d="M98.3024,81.9111h 7.07951" fill="none" stroke="#5954d8"/>
<g fill="#5954d8">
<circle cx="95.4606" cy="81.9111" r="2.84175"/>
</g>
<path d="M105.382,67.9667h 7.07951" fill="none" stroke="#5954d8"/>
<path d="M118.145,67.9667h 7.07951" fill="none" stroke="#5954d8"/>
<g fill="#5954d8">
<circle cx="115.303" cy="67.9667" r="2.84175"/>
</g>
<path d="M125.224,102.145h 7.07951" fill="none" stroke="#5954d8"/>
<path d="M137.987,102.145h 7.07951" fill="none" stroke="#5954d8"/>
<g fill="#5954d8">
<circle cx="135.146" cy="102.145" r="2.84175"/>
</g>
<path d="M145.067,133.156h 7.07951" fill="none" stroke="#5954d8"/>
<path d="M157.83,133.156h 7.07951" fill="none" stroke="#5954d8"/>
<g fill="#5954d8">
<circle cx="154.988" cy="133.156" r="2.84175"/>
</g>
<path d="M164.909,172.887h 17.0008" fill="none" stroke="#5954d8"/>
<path d="M187.594,172.887h 17.0008" fill="none" stroke="#5954d8"/>
<g fill="#5954d8">
<circle cx="184.752" cy="172.887" r="2.84175"/>
</g>
<path d="M204.594,217.019h 17.0008" fill="none" stroke="#5954d8"/>
<path d="M227.279,217.019h 17.0008" fill="none" stroke="#5954d8"/>
<g fill="#5954d8">
<circle cx="224.437" cy="217.019" r="2.84175"/>
</g>
<path d="M264.122,264.359v -0.60446" fill="none" stroke="#5954d8"/>
<path d="M264.122,258.071v -0.243105" fill="none" stroke="#5954d8"/>
<path d="M244.28,260.913h 17.0008" fill="none" stroke="#5954d8"/>
<path d="M266.964,260.913h 17.0008" fill="none" stroke="#5954d8"/>
<g fill="#5954d8">
<circle cx="264.122" cy="260.913" r="2.84175"/>
</g>
<path d="M323.65,304.472v -1.97064" fill="none" stroke="#5954d8"/>
<path d="M323.65,296.818v -1.29359" fill="none" stroke="#5954d8"/>
<path d="M283.965,299.66h 36.8433" fill="none" stroke="#5954d8"/>
<path d="M326.491,299.66h 36.8433" fill="none" stroke="#5954d8"/>
<g fill="#5954d8">
<circle cx="323.65" cy="299.66" r="2.84175"/>
</g>
<text xml:space="preserve" x="287.517" y="43.3367" fill="black" font-size="15.4909" font-family="Helvetica">PYTHIA8, option3</text>
<text xml:space="preserve" x="409.712" y="63.2289" fill="black" font-size="15.4909" font-family="Helvetica">|&lt;1</text>
<text xml:space="preserve" x="401.187" y="63.2289" fill="black" font-size="15.4909" font-family="Times">&#0951;</text>
<text xml:space="preserve" x="287.517" y="63.2289" fill="black" font-size="15.4909" font-family="Helvetica">p+Au, 200 GeV, |</text>
<text xml:space="preserve" x="325.88" y="83.8316" fill="black" font-size="15.4909" font-family="Helvetica">cent: 0~10%</text>
<g fill="black">
<circle cx="305.224" cy="79.6578" r="2.84175"/>
</g>
<text xml:space="preserve" x="325.88" y="104.434" fill="black" font-size="15.4909" font-family="Helvetica">cent: 10~20%</text>
<g stroke="#ff0000" stroke-width="1" fill="none">
<rect x="302.383" y="97.2411" width="5.6835" height="5.6835"/>
</g>
<text xml:space="preserve" x="325.88" y="125.037" fill="black" font-size="15.4909" font-family="Helvetica">cent: 20~40%</text>
<g stroke="#59d354" stroke-width="1" fill="none">
<polygon points=" 305.224, 117.666 308.066, 123.35 302.383, 123.35"/>
</g>
<text xml:space="preserve" x="325.88" y="144.929" fill="black" font-size="15.4909" font-family="Helvetica">cent: 40~60%</text>
<g stroke="#0000ff" stroke-width="1" fill="none">
<polygon points=" 305.224, 138.091 307.119, 140.933 305.224, 143.775 303.33, 140.933"/>
</g>
<text xml:space="preserve" x="325.88" y="165.532" fill="black" font-size="15.4909" font-family="Helvetica">cent: 60~80%</text>
<g fill="#ff00ff">
<polygon points=" 304.277, 160.411 304.277, 158.516 306.172, 158.516 306.172, 160.411 308.066, 160.411 308.066, 162.305 306.172, 162.305 306.172, 164.2 304.277, 164.2 304.277, 162.305 302.383, 162.305 302.383, 160.411"/>
</g>
<text xml:space="preserve" x="325.88" y="186.135" fill="black" font-size="15.4909" font-family="Helvetica">MB events</text>
<g fill="#5954d8">
<circle cx="305.224" cy="181.783" r="2.84175"/>
</g></svg>
