<?xml version="1.0" standalone="no"?>
<svg width="567.429" height="409.002" viewBox="0 0 567.429 409.002" xmlns="http://www.w3.org/2000/svg" shape-rendering="crispEdges">
<title>
/Users/jinhyunpark/npl/gitHub/xloadFromServer/Git_Bias_correction_RxA/plots_dirAdded/yieldBypT_pion0_MBincluded_logscale.svg
</title>
<desc>
Creator: ROOT Version 6.28/04
CreationDate: Thu Aug 31 17:26:15 2023</desc>
<defs>
</defs>
<rect x="0.5" y="0" width="566.929" height="408.502" fill="white"/>
<rect x="85.5394" y="20.4251" width="396.85" height="339.056" fill="white"/>
<rect x="85.5394" y="20.4251" width="396.85" height="339.056" fill="none" stroke="black"/>
<rect x="85.5394" y="20.4251" width="396.85" height="339.056" fill="white"/>
<rect x="85.5394" y="20.4251" width="396.85" height="339.056" fill="none" stroke="black"/>
<path d="M85.5394,359.481h 396.85" fill="none" stroke="black"/>
<path d="M85.5394,350.903v 8.57853" fill="none" stroke="black"/>
<path d="M99.7126,355.192v 4.28927" fill="none" stroke="black"/>
<path d="M113.886,355.192v 4.28927" fill="none" stroke="black"/>
<path d="M128.059,355.192v 4.28927" fill="none" stroke="black"/>
<path d="M142.232,350.903v 8.57853" fill="none" stroke="black"/>
<path d="M156.406,355.192v 4.28927" fill="none" stroke="black"/>
<path d="M170.579,355.192v 4.28927" fill="none" stroke="black"/>
<path d="M184.752,355.192v 4.28927" fill="none" stroke="black"/>
<path d="M198.925,350.903v 8.57853" fill="none" stroke="black"/>
<path d="M213.098,355.192v 4.28927" fill="none" stroke="black"/>
<path d="M227.272,355.192v 4.28927" fill="none" stroke="black"/>
<path d="M241.445,355.192v 4.28927" fill="none" stroke="black"/>
<path d="M255.618,350.903v 8.57853" fill="none" stroke="black"/>
<path d="M269.791,355.192v 4.28927" fill="none" stroke="black"/>
<path d="M283.965,355.192v 4.28927" fill="none" stroke="black"/>
<path d="M298.138,355.192v 4.28927" fill="none" stroke="black"/>
<path d="M312.311,350.903v 8.57853" fill="none" stroke="black"/>
<path d="M326.484,355.192v 4.28927" fill="none" stroke="black"/>
<path d="M340.657,355.192v 4.28927" fill="none" stroke="black"/>
<path d="M354.831,355.192v 4.28927" fill="none" stroke="black"/>
<path d="M369.004,350.903v 8.57853" fill="none" stroke="black"/>
<path d="M383.177,355.192v 4.28927" fill="none" stroke="black"/>
<path d="M397.35,355.192v 4.28927" fill="none" stroke="black"/>
<path d="M411.524,355.192v 4.28927" fill="none" stroke="black"/>
<path d="M425.697,350.903v 8.57853" fill="none" stroke="black"/>
<path d="M439.87,355.192v 4.28927" fill="none" stroke="black"/>
<path d="M454.043,355.192v 4.28927" fill="none" stroke="black"/>
<path d="M468.217,355.192v 4.28927" fill="none" stroke="black"/>
<path d="M482.39,350.903v 8.57853" fill="none" stroke="black"/>
<text xml:space="preserve" x="81.4899" y="372.269" fill="black" font-size="13.617" font-family="Helvetica">0</text>
<text xml:space="preserve" x="138.325" y="372.269" fill="black" font-size="13.617" font-family="Helvetica">2</text>
<text xml:space="preserve" x="195.16" y="372.269" fill="black" font-size="13.617" font-family="Helvetica">4</text>
<text xml:space="preserve" x="251.995" y="372.269" fill="black" font-size="13.617" font-family="Helvetica">6</text>
<text xml:space="preserve" x="308.119" y="372.269" fill="black" font-size="13.617" font-family="Helvetica">8</text>
<text xml:space="preserve" x="360.692" y="372.269" fill="black" font-size="13.617" font-family="Helvetica">10</text>
<text xml:space="preserve" x="417.527" y="372.269" fill="black" font-size="13.617" font-family="Helvetica">12</text>
<text xml:space="preserve" x="474.362" y="372.269" fill="black" font-size="13.617" font-family="Helvetica">14</text>
<text xml:space="preserve" x="476.493" y="390.741" fill="black" font-size="9.24468" font-family="Helvetica">T</text>
<text xml:space="preserve" x="468.678" y="382.926" fill="black" font-size="13.617" font-family="Helvetica">p</text>
<path d="M85.5394,20.4251h 396.85" fill="none" stroke="black"/>
<path d="M85.5394,29.0036v -8.57853" fill="none" stroke="black"/>
<path d="M99.7126,24.7143v -4.28927" fill="none" stroke="black"/>
<path d="M113.886,24.7143v -4.28927" fill="none" stroke="black"/>
<path d="M128.059,24.7143v -4.28927" fill="none" stroke="black"/>
<path d="M142.232,29.0036v -8.57853" fill="none" stroke="black"/>
<path d="M156.406,24.7143v -4.28927" fill="none" stroke="black"/>
<path d="M170.579,24.7143v -4.28927" fill="none" stroke="black"/>
<path d="M184.752,24.7143v -4.28927" fill="none" stroke="black"/>
<path d="M198.925,29.0036v -8.57853" fill="none" stroke="black"/>
<path d="M213.098,24.7143v -4.28927" fill="none" stroke="black"/>
<path d="M227.272,24.7143v -4.28927" fill="none" stroke="black"/>
<path d="M241.445,24.7143v -4.28927" fill="none" stroke="black"/>
<path d="M255.618,29.0036v -8.57853" fill="none" stroke="black"/>
<path d="M269.791,24.7143v -4.28927" fill="none" stroke="black"/>
<path d="M283.965,24.7143v -4.28927" fill="none" stroke="black"/>
<path d="M298.138,24.7143v -4.28927" fill="none" stroke="black"/>
<path d="M312.311,29.0036v -8.57853" fill="none" stroke="black"/>
<path d="M326.484,24.7143v -4.28927" fill="none" stroke="black"/>
<path d="M340.657,24.7143v -4.28927" fill="none" stroke="black"/>
<path d="M354.831,24.7143v -4.28927" fill="none" stroke="black"/>
<path d="M369.004,29.0036v -8.57853" fill="none" stroke="black"/>
<path d="M383.177,24.7143v -4.28927" fill="none" stroke="black"/>
<path d="M397.35,24.7143v -4.28927" fill="none" stroke="black"/>
<path d="M411.524,24.7143v -4.28927" fill="none" stroke="black"/>
<path d="M425.697,29.0036v -8.57853" fill="none" stroke="black"/>
<path d="M439.87,24.7143v -4.28927" fill="none" stroke="black"/>
<path d="M454.043,24.7143v -4.28927" fill="none" stroke="black"/>
<path d="M468.217,24.7143v -4.28927" fill="none" stroke="black"/>
<path d="M482.39,29.0036v -8.57853" fill="none" stroke="black"/>
<path d="M85.5394,359.481v -339.056" fill="none" stroke="black"/>
<path d="M99.6559,359.481h -14.1165" fill="none" stroke="black"/>
<text xml:space="preserve" x="75.8064" y="359.481" fill="black" font-size="9.24468" font-family="Helvetica">9</text>
<text xml:space="preserve" x="70.8333" y="359.481" fill="black" font-size="9.24468" font-family="Times">&#8722;</text>
<text xml:space="preserve" x="55.9141" y="365.875" fill="black" font-size="13.617" font-family="Helvetica">10</text>
<path d="M92.5976,350.203h -7.05827" fill="none" stroke="black"/>
<path d="M92.5976,344.775h -7.05827" fill="none" stroke="black"/>
<path d="M92.5976,340.924h -7.05827" fill="none" stroke="black"/>
<path d="M92.5976,337.937h -7.05827" fill="none" stroke="black"/>
<path d="M92.5976,335.496h -7.05827" fill="none" stroke="black"/>
<path d="M92.5976,333.433h -7.05827" fill="none" stroke="black"/>
<path d="M92.5976,331.645h -7.05827" fill="none" stroke="black"/>
<path d="M92.5976,330.068h -7.05827" fill="none" stroke="black"/>
<path d="M99.6559,328.658h -14.1165" fill="none" stroke="black"/>
<text xml:space="preserve" x="75.8064" y="328.222" fill="black" font-size="9.24468" font-family="Helvetica">8</text>
<text xml:space="preserve" x="70.8333" y="328.222" fill="black" font-size="9.24468" font-family="Times">&#8722;</text>
<text xml:space="preserve" x="55.9141" y="334.616" fill="black" font-size="13.617" font-family="Helvetica">10</text>
<path d="M92.5976,319.379h -7.05827" fill="none" stroke="black"/>
<path d="M92.5976,313.952h -7.05827" fill="none" stroke="black"/>
<path d="M92.5976,310.101h -7.05827" fill="none" stroke="black"/>
<path d="M92.5976,307.113h -7.05827" fill="none" stroke="black"/>
<path d="M92.5976,304.673h -7.05827" fill="none" stroke="black"/>
<path d="M92.5976,302.609h -7.05827" fill="none" stroke="black"/>
<path d="M92.5976,300.822h -7.05827" fill="none" stroke="black"/>
<path d="M92.5976,299.245h -7.05827" fill="none" stroke="black"/>
<path d="M99.6559,297.835h -14.1165" fill="none" stroke="black"/>
<text xml:space="preserve" x="75.8064" y="298.384" fill="black" font-size="9.24468" font-family="Helvetica">7</text>
<text xml:space="preserve" x="70.8333" y="298.384" fill="black" font-size="9.24468" font-family="Times">&#8722;</text>
<text xml:space="preserve" x="55.9141" y="304.067" fill="black" font-size="13.617" font-family="Helvetica">10</text>
<path d="M92.5976,288.556h -7.05827" fill="none" stroke="black"/>
<path d="M92.5976,283.128h -7.05827" fill="none" stroke="black"/>
<path d="M92.5976,279.277h -7.05827" fill="none" stroke="black"/>
<path d="M92.5976,276.29h -7.05827" fill="none" stroke="black"/>
<path d="M92.5976,273.85h -7.05827" fill="none" stroke="black"/>
<path d="M92.5976,271.786h -7.05827" fill="none" stroke="black"/>
<path d="M92.5976,269.999h -7.05827" fill="none" stroke="black"/>
<path d="M92.5976,268.422h -7.05827" fill="none" stroke="black"/>
<path d="M99.6559,267.011h -14.1165" fill="none" stroke="black"/>
<text xml:space="preserve" x="75.8064" y="266.414" fill="black" font-size="9.24468" font-family="Helvetica">6</text>
<text xml:space="preserve" x="70.8333" y="266.414" fill="black" font-size="9.24468" font-family="Times">&#8722;</text>
<text xml:space="preserve" x="55.9141" y="272.808" fill="black" font-size="13.617" font-family="Helvetica">10</text>
<path d="M92.5976,257.733h -7.05827" fill="none" stroke="black"/>
<path d="M92.5976,252.305h -7.05827" fill="none" stroke="black"/>
<path d="M92.5976,248.454h -7.05827" fill="none" stroke="black"/>
<path d="M92.5976,245.467h -7.05827" fill="none" stroke="black"/>
<path d="M92.5976,243.026h -7.05827" fill="none" stroke="black"/>
<path d="M92.5976,240.963h -7.05827" fill="none" stroke="black"/>
<path d="M92.5976,239.175h -7.05827" fill="none" stroke="black"/>
<path d="M92.5976,237.599h -7.05827" fill="none" stroke="black"/>
<path d="M99.6559,236.188h -14.1165" fill="none" stroke="black"/>
<text xml:space="preserve" x="75.8064" y="235.865" fill="black" font-size="9.24468" font-family="Helvetica">5</text>
<text xml:space="preserve" x="70.8333" y="235.865" fill="black" font-size="9.24468" font-family="Times">&#8722;</text>
<text xml:space="preserve" x="55.9141" y="242.259" fill="black" font-size="13.617" font-family="Helvetica">10</text>
<path d="M92.5976,226.909h -7.05827" fill="none" stroke="black"/>
<path d="M92.5976,221.482h -7.05827" fill="none" stroke="black"/>
<path d="M92.5976,217.631h -7.05827" fill="none" stroke="black"/>
<path d="M92.5976,214.644h -7.05827" fill="none" stroke="black"/>
<path d="M92.5976,212.203h -7.05827" fill="none" stroke="black"/>
<path d="M92.5976,210.139h -7.05827" fill="none" stroke="black"/>
<path d="M92.5976,208.352h -7.05827" fill="none" stroke="black"/>
<path d="M92.5976,206.775h -7.05827" fill="none" stroke="black"/>
<path d="M99.6559,205.365h -14.1165" fill="none" stroke="black"/>
<text xml:space="preserve" x="75.8064" y="206.027" fill="black" font-size="9.24468" font-family="Helvetica">4</text>
<text xml:space="preserve" x="70.8333" y="206.027" fill="black" font-size="9.24468" font-family="Times">&#8722;</text>
<text xml:space="preserve" x="55.9141" y="211.71" fill="black" font-size="13.617" font-family="Helvetica">10</text>
<path d="M92.5976,196.086h -7.05827" fill="none" stroke="black"/>
<path d="M92.5976,190.658h -7.05827" fill="none" stroke="black"/>
<path d="M92.5976,186.807h -7.05827" fill="none" stroke="black"/>
<path d="M92.5976,183.82h -7.05827" fill="none" stroke="black"/>
<path d="M92.5976,181.38h -7.05827" fill="none" stroke="black"/>
<path d="M92.5976,179.316h -7.05827" fill="none" stroke="black"/>
<path d="M92.5976,177.529h -7.05827" fill="none" stroke="black"/>
<path d="M92.5976,175.952h -7.05827" fill="none" stroke="black"/>
<path d="M99.6559,174.542h -14.1165" fill="none" stroke="black"/>
<text xml:space="preserve" x="75.8064" y="174.057" fill="black" font-size="9.24468" font-family="Helvetica">3</text>
<text xml:space="preserve" x="70.8333" y="174.057" fill="black" font-size="9.24468" font-family="Times">&#8722;</text>
<text xml:space="preserve" x="55.9141" y="180.451" fill="black" font-size="13.617" font-family="Helvetica">10</text>
<path d="M92.5976,165.263h -7.05827" fill="none" stroke="black"/>
<path d="M92.5976,159.835h -7.05827" fill="none" stroke="black"/>
<path d="M92.5976,155.984h -7.05827" fill="none" stroke="black"/>
<path d="M92.5976,152.997h -7.05827" fill="none" stroke="black"/>
<path d="M92.5976,150.556h -7.05827" fill="none" stroke="black"/>
<path d="M92.5976,148.493h -7.05827" fill="none" stroke="black"/>
<path d="M92.5976,146.705h -7.05827" fill="none" stroke="black"/>
<path d="M92.5976,145.129h -7.05827" fill="none" stroke="black"/>
<path d="M99.6559,143.718h -14.1165" fill="none" stroke="black"/>
<text xml:space="preserve" x="75.8064" y="144.219" fill="black" font-size="9.24468" font-family="Helvetica">2</text>
<text xml:space="preserve" x="70.8333" y="144.219" fill="black" font-size="9.24468" font-family="Times">&#8722;</text>
<text xml:space="preserve" x="55.9141" y="149.902" fill="black" font-size="13.617" font-family="Helvetica">10</text>
<path d="M92.5976,134.44h -7.05827" fill="none" stroke="black"/>
<path d="M92.5976,129.012h -7.05827" fill="none" stroke="black"/>
<path d="M92.5976,125.161h -7.05827" fill="none" stroke="black"/>
<path d="M92.5976,122.174h -7.05827" fill="none" stroke="black"/>
<path d="M92.5976,119.733h -7.05827" fill="none" stroke="black"/>
<path d="M92.5976,117.67h -7.05827" fill="none" stroke="black"/>
<path d="M92.5976,115.882h -7.05827" fill="none" stroke="black"/>
<path d="M92.5976,114.305h -7.05827" fill="none" stroke="black"/>
<path d="M99.6559,112.895h -14.1165" fill="none" stroke="black"/>
<text xml:space="preserve" x="77.2272" y="112.96" fill="black" font-size="9.24468" font-family="Helvetica">1</text>
<text xml:space="preserve" x="72.2542" y="112.96" fill="black" font-size="9.24468" font-family="Times">&#8722;</text>
<text xml:space="preserve" x="57.335" y="118.643" fill="black" font-size="13.617" font-family="Helvetica">10</text>
<path d="M92.5976,103.616h -7.05827" fill="none" stroke="black"/>
<path d="M92.5976,98.1885h -7.05827" fill="none" stroke="black"/>
<path d="M92.5976,94.3375h -7.05827" fill="none" stroke="black"/>
<path d="M92.5976,91.3504h -7.05827" fill="none" stroke="black"/>
<path d="M92.5976,88.9098h -7.05827" fill="none" stroke="black"/>
<path d="M92.5976,86.8463h -7.05827" fill="none" stroke="black"/>
<path d="M92.5976,85.0588h -7.05827" fill="none" stroke="black"/>
<path d="M92.5976,83.4821h -7.05827" fill="none" stroke="black"/>
<path d="M99.6559,82.0717h -14.1165" fill="none" stroke="black"/>
<text xml:space="preserve" x="75.8064" y="87.3838" fill="black" font-size="13.617" font-family="Helvetica">1</text>
<path d="M92.5976,72.7929h -7.05827" fill="none" stroke="black"/>
<path d="M92.5976,67.3652h -7.05827" fill="none" stroke="black"/>
<path d="M92.5976,63.5142h -7.05827" fill="none" stroke="black"/>
<path d="M92.5976,60.5271h -7.05827" fill="none" stroke="black"/>
<path d="M92.5976,58.0865h -7.05827" fill="none" stroke="black"/>
<path d="M92.5976,56.023h -7.05827" fill="none" stroke="black"/>
<path d="M92.5976,54.2355h -7.05827" fill="none" stroke="black"/>
<path d="M92.5976,52.6588h -7.05827" fill="none" stroke="black"/>
<path d="M99.6559,51.2484h -14.1165" fill="none" stroke="black"/>
<text xml:space="preserve" x="65.8603" y="56.1246" fill="black" font-size="13.617" font-family="Helvetica">10</text>
<path d="M92.5976,41.9696h -7.05827" fill="none" stroke="black"/>
<path d="M92.5976,36.5419h -7.05827" fill="none" stroke="black"/>
<path d="M92.5976,32.6909h -7.05827" fill="none" stroke="black"/>
<path d="M92.5976,29.7038h -7.05827" fill="none" stroke="black"/>
<path d="M92.5976,27.2632h -7.05827" fill="none" stroke="black"/>
<path d="M92.5976,25.1997h -7.05827" fill="none" stroke="black"/>
<path d="M92.5976,23.4122h -7.05827" fill="none" stroke="black"/>
<path d="M92.5976,21.8355h -7.05827" fill="none" stroke="black"/>
<path d="M99.6559,20.4251h -14.1165" fill="none" stroke="black"/>
<text xml:space="preserve" x="75.8064" y="20.6027" fill="black" font-size="9.24468" font-family="Helvetica">2</text>
<text xml:space="preserve" x="60.8872" y="26.2862" fill="black" font-size="13.617" font-family="Helvetica">10</text>
<g transform="rotate(-90,53.0724,25.5758)">
<text xml:space="preserve" x="53.0724" y="25.5758" fill="black" font-size="9.24468" font-family="Helvetica">T</text>
</g>
<g transform="rotate(-90,45.2576,44.7576)">
<text xml:space="preserve" x="45.2576" y="44.7576" fill="black" font-size="13.617" font-family="Helvetica">/dp</text>
</g>
<g transform="rotate(-90,35.3114,48.3098)">
<text xml:space="preserve" x="35.3114" y="48.3098" fill="black" font-size="6.32979" font-family="Helvetica">0</text>
</g>
<g transform="rotate(-90,38.8636,53.2828)">
<text xml:space="preserve" x="38.8636" y="53.2828" fill="black" font-size="9.24468" font-family="Times">&#0960;</text>
</g>
<g transform="rotate(-90,45.2576,73.8855)">
<text xml:space="preserve" x="45.2576" y="73.8855" fill="black" font-size="13.617" font-family="Helvetica"> dN</text>
</g>
<g transform="rotate(-90,50.2306,96.6195)">
<text xml:space="preserve" x="50.2306" y="96.6195" fill="black" font-size="9.24468" font-family="Helvetica">event</text>
</g>
<g transform="rotate(-90,45.2576,117.222)">
<text xml:space="preserve" x="45.2576" y="117.222" fill="black" font-size="13.617" font-family="Helvetica">1/N</text>
</g>
<path d="M482.39,359.481v -339.056" fill="none" stroke="black"/>
<path d="M468.273,359.481h 14.1165" fill="none" stroke="black"/>
<path d="M475.332,350.203h 7.05827" fill="none" stroke="black"/>
<path d="M475.332,344.775h 7.05827" fill="none" stroke="black"/>
<path d="M475.332,340.924h 7.05827" fill="none" stroke="black"/>
<path d="M475.332,337.937h 7.05827" fill="none" stroke="black"/>
<path d="M475.332,335.496h 7.05827" fill="none" stroke="black"/>
<path d="M475.332,333.433h 7.05827" fill="none" stroke="black"/>
<path d="M475.332,331.645h 7.05827" fill="none" stroke="black"/>
<path d="M475.332,330.068h 7.05827" fill="none" stroke="black"/>
<path d="M468.273,328.658h 14.1165" fill="none" stroke="black"/>
<path d="M475.332,319.379h 7.05827" fill="none" stroke="black"/>
<path d="M475.332,313.952h 7.05827" fill="none" stroke="black"/>
<path d="M475.332,310.101h 7.05827" fill="none" stroke="black"/>
<path d="M475.332,307.113h 7.05827" fill="none" stroke="black"/>
<path d="M475.332,304.673h 7.05827" fill="none" stroke="black"/>
<path d="M475.332,302.609h 7.05827" fill="none" stroke="black"/>
<path d="M475.332,300.822h 7.05827" fill="none" stroke="black"/>
<path d="M475.332,299.245h 7.05827" fill="none" stroke="black"/>
<path d="M468.273,297.835h 14.1165" fill="none" stroke="black"/>
<path d="M475.332,288.556h 7.05827" fill="none" stroke="black"/>
<path d="M475.332,283.128h 7.05827" fill="none" stroke="black"/>
<path d="M475.332,279.277h 7.05827" fill="none" stroke="black"/>
<path d="M475.332,276.29h 7.05827" fill="none" stroke="black"/>
<path d="M475.332,273.85h 7.05827" fill="none" stroke="black"/>
<path d="M475.332,271.786h 7.05827" fill="none" stroke="black"/>
<path d="M475.332,269.999h 7.05827" fill="none" stroke="black"/>
<path d="M475.332,268.422h 7.05827" fill="none" stroke="black"/>
<path d="M468.273,267.011h 14.1165" fill="none" stroke="black"/>
<path d="M475.332,257.733h 7.05827" fill="none" stroke="black"/>
<path d="M475.332,252.305h 7.05827" fill="none" stroke="black"/>
<path d="M475.332,248.454h 7.05827" fill="none" stroke="black"/>
<path d="M475.332,245.467h 7.05827" fill="none" stroke="black"/>
<path d="M475.332,243.026h 7.05827" fill="none" stroke="black"/>
<path d="M475.332,240.963h 7.05827" fill="none" stroke="black"/>
<path d="M475.332,239.175h 7.05827" fill="none" stroke="black"/>
<path d="M475.332,237.599h 7.05827" fill="none" stroke="black"/>
<path d="M468.273,236.188h 14.1165" fill="none" stroke="black"/>
<path d="M475.332,226.909h 7.05827" fill="none" stroke="black"/>
<path d="M475.332,221.482h 7.05827" fill="none" stroke="black"/>
<path d="M475.332,217.631h 7.05827" fill="none" stroke="black"/>
<path d="M475.332,214.644h 7.05827" fill="none" stroke="black"/>
<path d="M475.332,212.203h 7.05827" fill="none" stroke="black"/>
<path d="M475.332,210.139h 7.05827" fill="none" stroke="black"/>
<path d="M475.332,208.352h 7.05827" fill="none" stroke="black"/>
<path d="M475.332,206.775h 7.05827" fill="none" stroke="black"/>
<path d="M468.273,205.365h 14.1165" fill="none" stroke="black"/>
<path d="M475.332,196.086h 7.05827" fill="none" stroke="black"/>
<path d="M475.332,190.658h 7.05827" fill="none" stroke="black"/>
<path d="M475.332,186.807h 7.05827" fill="none" stroke="black"/>
<path d="M475.332,183.82h 7.05827" fill="none" stroke="black"/>
<path d="M475.332,181.38h 7.05827" fill="none" stroke="black"/>
<path d="M475.332,179.316h 7.05827" fill="none" stroke="black"/>
<path d="M475.332,177.529h 7.05827" fill="none" stroke="black"/>
<path d="M475.332,175.952h 7.05827" fill="none" stroke="black"/>
<path d="M468.273,174.542h 14.1165" fill="none" stroke="black"/>
<path d="M475.332,165.263h 7.05827" fill="none" stroke="black"/>
<path d="M475.332,159.835h 7.05827" fill="none" stroke="black"/>
<path d="M475.332,155.984h 7.05827" fill="none" stroke="black"/>
<path d="M475.332,152.997h 7.05827" fill="none" stroke="black"/>
<path d="M475.332,150.556h 7.05827" fill="none" stroke="black"/>
<path d="M475.332,148.493h 7.05827" fill="none" stroke="black"/>
<path d="M475.332,146.705h 7.05827" fill="none" stroke="black"/>
<path d="M475.332,145.129h 7.05827" fill="none" stroke="black"/>
<path d="M468.273,143.718h 14.1165" fill="none" stroke="black"/>
<path d="M475.332,134.44h 7.05827" fill="none" stroke="black"/>
<path d="M475.332,129.012h 7.05827" fill="none" stroke="black"/>
<path d="M475.332,125.161h 7.05827" fill="none" stroke="black"/>
<path d="M475.332,122.174h 7.05827" fill="none" stroke="black"/>
<path d="M475.332,119.733h 7.05827" fill="none" stroke="black"/>
<path d="M475.332,117.67h 7.05827" fill="none" stroke="black"/>
<path d="M475.332,115.882h 7.05827" fill="none" stroke="black"/>
<path d="M475.332,114.305h 7.05827" fill="none" stroke="black"/>
<path d="M468.273,112.895h 14.1165" fill="none" stroke="black"/>
<path d="M475.332,103.616h 7.05827" fill="none" stroke="black"/>
<path d="M475.332,98.1885h 7.05827" fill="none" stroke="black"/>
<path d="M475.332,94.3375h 7.05827" fill="none" stroke="black"/>
<path d="M475.332,91.3504h 7.05827" fill="none" stroke="black"/>
<path d="M475.332,88.9098h 7.05827" fill="none" stroke="black"/>
<path d="M475.332,86.8463h 7.05827" fill="none" stroke="black"/>
<path d="M475.332,85.0588h 7.05827" fill="none" stroke="black"/>
<path d="M475.332,83.4821h 7.05827" fill="none" stroke="black"/>
<path d="M468.273,82.0717h 14.1165" fill="none" stroke="black"/>
<path d="M475.332,72.7929h 7.05827" fill="none" stroke="black"/>
<path d="M475.332,67.3652h 7.05827" fill="none" stroke="black"/>
<path d="M475.332,63.5142h 7.05827" fill="none" stroke="black"/>
<path d="M475.332,60.5271h 7.05827" fill="none" stroke="black"/>
<path d="M475.332,58.0865h 7.05827" fill="none" stroke="black"/>
<path d="M475.332,56.023h 7.05827" fill="none" stroke="black"/>
<path d="M475.332,54.2355h 7.05827" fill="none" stroke="black"/>
<path d="M475.332,52.6588h 7.05827" fill="none" stroke="black"/>
<path d="M468.273,51.2484h 14.1165" fill="none" stroke="black"/>
<path d="M475.332,41.9696h 7.05827" fill="none" stroke="black"/>
<path d="M475.332,36.5419h 7.05827" fill="none" stroke="black"/>
<path d="M475.332,32.6909h 7.05827" fill="none" stroke="black"/>
<path d="M475.332,29.7038h 7.05827" fill="none" stroke="black"/>
<path d="M475.332,27.2632h 7.05827" fill="none" stroke="black"/>
<path d="M475.332,25.1997h 7.05827" fill="none" stroke="black"/>
<path d="M475.332,23.4122h 7.05827" fill="none" stroke="black"/>
<path d="M475.332,21.8355h 7.05827" fill="none" stroke="black"/>
<path d="M468.273,20.4251h 14.1165" fill="none" stroke="black"/>
<path d="M85.5394,45.8213h 4.24486" fill="none" stroke="black"/>
<path d="M95.4677,45.8213h 4.24486" fill="none" stroke="black"/>
<g fill="black">
<circle cx="92.626" cy="45.8213" r="2.84175"/>
</g>
<path d="M99.7126,60.2084h 4.24486" fill="none" stroke="black"/>
<path d="M109.641,60.2084h 4.24486" fill="none" stroke="black"/>
<g fill="black">
<circle cx="106.799" cy="60.2084" r="2.84175"/>
</g>
<path d="M113.886,86.8034h 4.24486" fill="none" stroke="black"/>
<path d="M123.814,86.8034h 4.24486" fill="none" stroke="black"/>
<g fill="black">
<circle cx="120.972" cy="86.8034" r="2.84175"/>
</g>
<path d="M128.059,109.256h 4.24486" fill="none" stroke="black"/>
<path d="M137.987,109.256h 4.24486" fill="none" stroke="black"/>
<g fill="black">
<circle cx="135.146" cy="109.256" r="2.84175"/>
</g>
<path d="M142.232,133.738h 11.3315" fill="none" stroke="black"/>
<path d="M159.247,133.738h 11.3315" fill="none" stroke="black"/>
<g fill="black">
<circle cx="156.406" cy="133.738" r="2.84175"/>
</g>
<path d="M170.579,163.52h 11.3315" fill="none" stroke="black"/>
<path d="M187.594,163.52h 11.3315" fill="none" stroke="black"/>
<g fill="black">
<circle cx="184.752" cy="163.52" r="2.84175"/>
</g>
<path d="M198.925,187.948h 11.3315" fill="none" stroke="black"/>
<path d="M215.94,187.948h 11.3315" fill="none" stroke="black"/>
<g fill="black">
<circle cx="213.098" cy="187.948" r="2.84175"/>
</g>
<path d="M227.272,214.682h 25.5047" fill="none" stroke="black"/>
<path d="M258.46,214.682h 25.5047" fill="none" stroke="black"/>
<g fill="black">
<circle cx="255.618" cy="214.682" r="2.84175"/>
</g>
<path d="M283.965,248.711h 39.6779" fill="none" stroke="black"/>
<path d="M329.326,248.711h 39.6779" fill="none" stroke="black"/>
<g fill="black">
<circle cx="326.484" cy="248.711" r="2.84175"/>
</g>
<path d="M439.87,359.481v -53.885" fill="none" stroke="black"/>
<path d="M439.87,299.913v -6.43699" fill="none" stroke="black"/>
<path d="M369.004,302.755h 68.0244" fill="none" stroke="black"/>
<path d="M442.712,302.755h 39.6779" fill="none" stroke="black"/>
<g fill="black">
<circle cx="439.87" cy="302.755" r="2.84175"/>
</g>
<path d="M85.5394,47.8167h 4.24486" fill="none" stroke="#ff0000"/>
<path d="M95.4677,47.8167h 4.24486" fill="none" stroke="#ff0000"/>
<g stroke="#ff0000" stroke-width="1" fill="none">
<rect x="89.7842" y="44.975" width="5.6835" height="5.6835"/>
</g>
<path d="M99.7126,62.1095h 4.24486" fill="none" stroke="#ff0000"/>
<path d="M109.641,62.1095h 4.24486" fill="none" stroke="#ff0000"/>
<g stroke="#ff0000" stroke-width="1" fill="none">
<rect x="103.957" y="59.2678" width="5.6835" height="5.6835"/>
</g>
<path d="M113.886,88.4816h 4.24486" fill="none" stroke="#ff0000"/>
<path d="M123.814,88.4816h 4.24486" fill="none" stroke="#ff0000"/>
<g stroke="#ff0000" stroke-width="1" fill="none">
<rect x="118.131" y="85.6398" width="5.6835" height="5.6835"/>
</g>
<path d="M128.059,110.756h 4.24486" fill="none" stroke="#ff0000"/>
<path d="M137.987,110.756h 4.24486" fill="none" stroke="#ff0000"/>
<g stroke="#ff0000" stroke-width="1" fill="none">
<rect x="132.304" y="107.914" width="5.6835" height="5.6835"/>
</g>
<path d="M142.232,135.098h 11.3315" fill="none" stroke="#ff0000"/>
<path d="M159.247,135.098h 11.3315" fill="none" stroke="#ff0000"/>
<g stroke="#ff0000" stroke-width="1" fill="none">
<rect x="153.564" y="132.257" width="5.6835" height="5.6835"/>
</g>
<path d="M170.579,165.064h 11.3315" fill="none" stroke="#ff0000"/>
<path d="M187.594,165.064h 11.3315" fill="none" stroke="#ff0000"/>
<g stroke="#ff0000" stroke-width="1" fill="none">
<rect x="181.91" y="162.222" width="5.6835" height="5.6835"/>
</g>
<path d="M198.925,188.436h 11.3315" fill="none" stroke="#ff0000"/>
<path d="M215.94,188.436h 11.3315" fill="none" stroke="#ff0000"/>
<g stroke="#ff0000" stroke-width="1" fill="none">
<rect x="210.257" y="185.595" width="5.6835" height="5.6835"/>
</g>
<path d="M227.272,215.373h 25.5047" fill="none" stroke="#ff0000"/>
<path d="M258.46,215.373h 25.5047" fill="none" stroke="#ff0000"/>
<g stroke="#ff0000" stroke-width="1" fill="none">
<rect x="252.776" y="212.531" width="5.6835" height="5.6835"/>
</g>
<path d="M283.965,249.497h 39.6779" fill="none" stroke="#ff0000"/>
<path d="M329.326,249.497h 39.6779" fill="none" stroke="#ff0000"/>
<g stroke="#ff0000" stroke-width="1" fill="none">
<rect x="323.643" y="246.655" width="5.6835" height="5.6835"/>
</g>
<path d="M439.87,289.12v -5.09348" fill="none" stroke="#ff0000"/>
<path d="M439.87,278.343v -2.1064" fill="none" stroke="#ff0000"/>
<path d="M369.004,281.184h 68.0244" fill="none" stroke="#ff0000"/>
<path d="M442.712,281.184h 39.6779" fill="none" stroke="#ff0000"/>
<g stroke="#ff0000" stroke-width="1" fill="none">
<rect x="437.028" y="278.343" width="5.6835" height="5.6835"/>
</g>
<path d="M85.5394,49.7777h 5.66574" fill="none" stroke="#59d354"/>
<path d="M94.0469,49.7777h 5.66574" fill="none" stroke="#59d354"/>
<g stroke="#59d354" stroke-width="1" fill="none">
<polygon points=" 92.626, 46.936 95.4677, 52.6195 89.7842, 52.6195"/>
</g>
<path d="M99.7126,64.0272h 5.66574" fill="none" stroke="#59d354"/>
<path d="M108.22,64.0272h 5.66574" fill="none" stroke="#59d354"/>
<g stroke="#59d354" stroke-width="1" fill="none">
<polygon points=" 106.799, 61.1854 109.641, 66.8689 103.957, 66.8689"/>
</g>
<path d="M113.886,90.2797h 5.66574" fill="none" stroke="#59d354"/>
<path d="M122.393,90.2797h 5.66574" fill="none" stroke="#59d354"/>
<g stroke="#59d354" stroke-width="1" fill="none">
<polygon points=" 120.972, 87.438 123.814, 93.1215 118.131, 93.1215"/>
</g>
<path d="M128.059,112.295h 5.66574" fill="none" stroke="#59d354"/>
<path d="M136.567,112.295h 5.66574" fill="none" stroke="#59d354"/>
<g stroke="#59d354" stroke-width="1" fill="none">
<polygon points=" 135.146, 109.453 137.987, 115.136 132.304, 115.136"/>
</g>
<path d="M142.232,136.613h 12.7524" fill="none" stroke="#59d354"/>
<path d="M157.826,136.613h 12.7524" fill="none" stroke="#59d354"/>
<g stroke="#59d354" stroke-width="1" fill="none">
<polygon points=" 156.406, 133.771 159.247, 139.454 153.564, 139.454"/>
</g>
<path d="M170.579,165.922h 12.7524" fill="none" stroke="#59d354"/>
<path d="M186.173,165.922h 12.7524" fill="none" stroke="#59d354"/>
<g stroke="#59d354" stroke-width="1" fill="none">
<polygon points=" 184.752, 163.08 187.594, 168.763 181.91, 168.763"/>
</g>
<path d="M198.925,189.899h 12.7524" fill="none" stroke="#59d354"/>
<path d="M214.519,189.899h 12.7524" fill="none" stroke="#59d354"/>
<g stroke="#59d354" stroke-width="1" fill="none">
<polygon points=" 213.098, 187.058 215.94, 192.741 210.257, 192.741"/>
</g>
<path d="M227.272,215.327h 26.9256" fill="none" stroke="#59d354"/>
<path d="M257.039,215.327h 26.9256" fill="none" stroke="#59d354"/>
<g stroke="#59d354" stroke-width="1" fill="none">
<polygon points=" 255.618, 212.485 258.46, 218.168 252.776, 218.168"/>
</g>
<path d="M283.965,251.051h 41.0988" fill="none" stroke="#59d354"/>
<path d="M327.905,251.051h 41.0988" fill="none" stroke="#59d354"/>
<g stroke="#59d354" stroke-width="1" fill="none">
<polygon points=" 326.484, 248.209 329.326, 253.893 323.643, 253.893"/>
</g>
<path d="M439.87,295.049v -4.18166" fill="none" stroke="#59d354"/>
<path d="M439.87,285.184v -1.74103" fill="none" stroke="#59d354"/>
<path d="M369.004,288.026h 69.4453" fill="none" stroke="#59d354"/>
<path d="M441.291,288.026h 41.0988" fill="none" stroke="#59d354"/>
<g stroke="#59d354" stroke-width="1" fill="none">
<polygon points=" 439.87, 285.184 442.712, 290.867 437.028, 290.867"/>
</g>
<path d="M85.5394,52.6913h 5.66574" fill="none" stroke="#0000ff"/>
<path d="M94.0469,52.6913h 5.66574" fill="none" stroke="#0000ff"/>
<g stroke="#0000ff" stroke-width="1" fill="none">
<polygon points=" 89.7842, 49.8496 95.4677, 49.8496 92.626, 55.5331"/>
</g>
<path d="M99.7126,66.8924h 5.66574" fill="none" stroke="#0000ff"/>
<path d="M108.22,66.8924h 5.66574" fill="none" stroke="#0000ff"/>
<g stroke="#0000ff" stroke-width="1" fill="none">
<polygon points=" 103.957, 64.0506 109.641, 64.0506 106.799, 69.7341"/>
</g>
<path d="M113.886,93.1167h 5.66574" fill="none" stroke="#0000ff"/>
<path d="M122.393,93.1167h 5.66574" fill="none" stroke="#0000ff"/>
<g stroke="#0000ff" stroke-width="1" fill="none">
<polygon points=" 118.131, 90.275 123.814, 90.275 120.972, 95.9585"/>
</g>
<path d="M128.059,115.01h 5.66574" fill="none" stroke="#0000ff"/>
<path d="M136.567,115.01h 5.66574" fill="none" stroke="#0000ff"/>
<g stroke="#0000ff" stroke-width="1" fill="none">
<polygon points=" 132.304, 112.169 137.987, 112.169 135.146, 117.852"/>
</g>
<path d="M142.232,139.166h 12.7524" fill="none" stroke="#0000ff"/>
<path d="M157.826,139.166h 12.7524" fill="none" stroke="#0000ff"/>
<g stroke="#0000ff" stroke-width="1" fill="none">
<polygon points=" 153.564, 136.324 159.247, 136.324 156.406, 142.008"/>
</g>
<path d="M170.579,168.644h 12.7524" fill="none" stroke="#0000ff"/>
<path d="M186.173,168.644h 12.7524" fill="none" stroke="#0000ff"/>
<g stroke="#0000ff" stroke-width="1" fill="none">
<polygon points=" 181.91, 165.802 187.594, 165.802 184.752, 171.486"/>
</g>
<path d="M198.925,191.374h 12.7524" fill="none" stroke="#0000ff"/>
<path d="M214.519,191.374h 12.7524" fill="none" stroke="#0000ff"/>
<g stroke="#0000ff" stroke-width="1" fill="none">
<polygon points=" 210.257, 188.532 215.94, 188.532 213.098, 194.216"/>
</g>
<path d="M227.272,217.088h 26.9256" fill="none" stroke="#0000ff"/>
<path d="M257.039,217.088h 26.9256" fill="none" stroke="#0000ff"/>
<g stroke="#0000ff" stroke-width="1" fill="none">
<polygon points=" 252.776, 214.247 258.46, 214.247 255.618, 219.93"/>
</g>
<path d="M283.965,247.393h 41.0988" fill="none" stroke="#0000ff"/>
<path d="M327.905,247.393h 41.0988" fill="none" stroke="#0000ff"/>
<g stroke="#0000ff" stroke-width="1" fill="none">
<polygon points=" 323.643, 244.551 329.326, 244.551 326.484, 250.235"/>
</g>
<path d="M439.87,290.031v -2.99826" fill="none" stroke="#0000ff"/>
<path d="M439.87,281.349v -1.21076" fill="none" stroke="#0000ff"/>
<path d="M369.004,284.191h 69.4453" fill="none" stroke="#0000ff"/>
<path d="M441.291,284.191h 41.0988" fill="none" stroke="#0000ff"/>
<g stroke="#0000ff" stroke-width="1" fill="none">
<polygon points=" 437.028, 281.349 442.712, 281.349 439.87, 287.032"/>
</g>
<path d="M85.5394,56.7478h 4.24486" fill="none" stroke="#ff00ff"/>
<path d="M95.4677,56.7478h 4.24486" fill="none" stroke="#ff00ff"/>
<g fill="#ff00ff">
<polygon points=" 91.6787, 55.8005 91.6787, 53.906 93.5732, 53.906 93.5732, 55.8005 95.4677, 55.8005 95.4677, 57.695 93.5732, 57.695 93.5732, 59.5895 91.6787, 59.5895 91.6787, 57.695 89.7842, 57.695 89.7842, 55.8005"/>
</g>
<path d="M99.7126,71.007h 4.24486" fill="none" stroke="#ff00ff"/>
<path d="M109.641,71.007h 4.24486" fill="none" stroke="#ff00ff"/>
<g fill="#ff00ff">
<polygon points=" 105.852, 70.0597 105.852, 68.1652 107.746, 68.1652 107.746, 70.0597 109.641, 70.0597 109.641, 71.9542 107.746, 71.9542 107.746, 73.8487 105.852, 73.8487 105.852, 71.9542 103.957, 71.9542 103.957, 70.0597"/>
</g>
<path d="M113.886,97.4091h 4.24486" fill="none" stroke="#ff00ff"/>
<path d="M123.814,97.4091h 4.24486" fill="none" stroke="#ff00ff"/>
<g fill="#ff00ff">
<polygon points=" 120.025, 96.4619 120.025, 94.5674 121.92, 94.5674 121.92, 96.4619 123.814, 96.4619 123.814, 98.3564 121.92, 98.3564 121.92, 100.251 120.025, 100.251 120.025, 98.3564 118.131, 98.3564 118.131, 96.4619"/>
</g>
<path d="M128.059,119.451h 4.24486" fill="none" stroke="#ff00ff"/>
<path d="M137.987,119.451h 4.24486" fill="none" stroke="#ff00ff"/>
<g fill="#ff00ff">
<polygon points=" 134.198, 118.504 134.198, 116.609 136.093, 116.609 136.093, 118.504 137.987, 118.504 137.987, 120.398 136.093, 120.398 136.093, 122.293 134.198, 122.293 134.198, 120.398 132.304, 120.398 132.304, 118.504"/>
</g>
<path d="M142.232,143.433h 11.3315" fill="none" stroke="#ff00ff"/>
<path d="M159.247,143.433h 11.3315" fill="none" stroke="#ff00ff"/>
<g fill="#ff00ff">
<polygon points=" 155.458, 142.486 155.458, 140.592 157.353, 140.592 157.353, 142.486 159.247, 142.486 159.247, 144.381 157.353, 144.381 157.353, 146.275 155.458, 146.275 155.458, 144.381 153.564, 144.381 153.564, 142.486"/>
</g>
<path d="M170.579,172.921h 11.3315" fill="none" stroke="#ff00ff"/>
<path d="M187.594,172.921h 11.3315" fill="none" stroke="#ff00ff"/>
<g fill="#ff00ff">
<polygon points=" 183.805, 171.973 183.805, 170.079 185.699, 170.079 185.699, 171.973 187.594, 171.973 187.594, 173.868 185.699, 173.868 185.699, 175.762 183.805, 175.762 183.805, 173.868 181.91, 173.868 181.91, 171.973"/>
</g>
<path d="M198.925,195.143h 11.3315" fill="none" stroke="#ff00ff"/>
<path d="M215.94,195.143h 11.3315" fill="none" stroke="#ff00ff"/>
<g fill="#ff00ff">
<polygon points=" 212.151, 194.196 212.151, 192.302 214.046, 192.302 214.046, 194.196 215.94, 194.196 215.94, 196.091 214.046, 196.091 214.046, 197.985 212.151, 197.985 212.151, 196.091 210.257, 196.091 210.257, 194.196"/>
</g>
<path d="M227.272,220.243h 25.5047" fill="none" stroke="#ff00ff"/>
<path d="M258.46,220.243h 25.5047" fill="none" stroke="#ff00ff"/>
<g fill="#ff00ff">
<polygon points=" 254.671, 219.296 254.671, 217.402 256.565, 217.402 256.565, 219.296 258.46, 219.296 258.46, 221.191 256.565, 221.191 256.565, 223.085 254.671, 223.085 254.671, 221.191 252.776, 221.191 252.776, 219.296"/>
</g>
<path d="M283.965,250.605h 39.6779" fill="none" stroke="#ff00ff"/>
<path d="M329.326,250.605h 39.6779" fill="none" stroke="#ff00ff"/>
<g fill="#ff00ff">
<polygon points=" 325.537, 249.658 325.537, 247.763 327.431, 247.763 327.431, 249.658 329.326, 249.658 329.326, 251.552 327.431, 251.552 327.431, 253.447 325.537, 253.447 325.537, 251.552 323.643, 251.552 323.643, 249.658"/>
</g>
<path d="M439.87,302.748v -6.43699" fill="none" stroke="#ff00ff"/>
<path d="M439.87,290.627v -2.58596" fill="none" stroke="#ff00ff"/>
<path d="M369.004,293.469h 68.0244" fill="none" stroke="#ff00ff"/>
<path d="M442.712,293.469h 39.6779" fill="none" stroke="#ff00ff"/>
<g fill="#ff00ff">
<polygon points=" 438.923, 292.522 438.923, 290.627 440.817, 290.627 440.817, 292.522 442.712, 292.522 442.712, 294.416 440.817, 294.416 440.817, 296.311 438.923, 296.311 438.923, 294.416 437.028, 294.416 437.028, 292.522"/>
</g>
<path d="M85.5394,32.9685h 4.24486" fill="none" stroke="#5954d8"/>
<path d="M95.4677,32.9685h 4.24486" fill="none" stroke="#5954d8"/>
<g fill="#5954d8">
<circle cx="92.626" cy="32.9685" r="2.84175"/>
</g>
<path d="M99.7126,50.3189h 4.24486" fill="none" stroke="#5954d8"/>
<path d="M109.641,50.3189h 4.24486" fill="none" stroke="#5954d8"/>
<g fill="#5954d8">
<circle cx="106.799" cy="50.3189" r="2.84175"/>
</g>
<path d="M113.886,78.8619h 4.24486" fill="none" stroke="#5954d8"/>
<path d="M123.814,78.8619h 4.24486" fill="none" stroke="#5954d8"/>
<g fill="#5954d8">
<circle cx="120.972" cy="78.8619" r="2.84175"/>
</g>
<path d="M128.059,102.471h 4.24486" fill="none" stroke="#5954d8"/>
<path d="M137.987,102.471h 4.24486" fill="none" stroke="#5954d8"/>
<g fill="#5954d8">
<circle cx="135.146" cy="102.471" r="2.84175"/>
</g>
<path d="M142.232,127.371h 11.3315" fill="none" stroke="#5954d8"/>
<path d="M159.247,127.371h 11.3315" fill="none" stroke="#5954d8"/>
<g fill="#5954d8">
<circle cx="156.406" cy="127.371" r="2.84175"/>
</g>
<path d="M170.579,157.555h 11.3315" fill="none" stroke="#5954d8"/>
<path d="M187.594,157.555h 11.3315" fill="none" stroke="#5954d8"/>
<g fill="#5954d8">
<circle cx="184.752" cy="157.555" r="2.84175"/>
</g>
<path d="M198.925,181.834h 11.3315" fill="none" stroke="#5954d8"/>
<path d="M215.94,181.834h 11.3315" fill="none" stroke="#5954d8"/>
<g fill="#5954d8">
<circle cx="213.098" cy="181.834" r="2.84175"/>
</g>
<path d="M227.272,208.818h 25.5047" fill="none" stroke="#5954d8"/>
<path d="M258.46,208.818h 25.5047" fill="none" stroke="#5954d8"/>
<g fill="#5954d8">
<circle cx="255.618" cy="208.818" r="2.84175"/>
</g>
<path d="M283.965,243.403h 39.6779" fill="none" stroke="#5954d8"/>
<path d="M329.326,243.403h 39.6779" fill="none" stroke="#5954d8"/>
<g fill="#5954d8">
<circle cx="326.484" cy="243.403" r="2.84175"/>
</g>
<path d="M369.004,283.217h 68.0244" fill="none" stroke="#5954d8"/>
<path d="M442.712,283.217h 39.6779" fill="none" stroke="#5954d8"/>
<g fill="#5954d8">
<circle cx="439.87" cy="283.217" r="2.84175"/>
</g>
<text xml:space="preserve" x="287.517" y="43.3367" fill="black" font-size="15.4909" font-family="Helvetica">PYTHIA8, option3</text>
<text xml:space="preserve" x="409.712" y="63.2289" fill="black" font-size="15.4909" font-family="Helvetica">|&lt;1</text>
<text xml:space="preserve" x="401.187" y="63.2289" fill="black" font-size="15.4909" font-family="Times">&#0951;</text>
<text xml:space="preserve" x="287.517" y="63.2289" fill="black" font-size="15.4909" font-family="Helvetica">p+Au, 200 GeV, |</text>
<text xml:space="preserve" x="325.88" y="83.8316" fill="black" font-size="15.4909" font-family="Helvetica">cent: 0~10%</text>
<g fill="black">
<circle cx="305.224" cy="79.6578" r="2.84175"/>
</g>
<text xml:space="preserve" x="325.88" y="104.434" fill="black" font-size="15.4909" font-family="Helvetica">cent: 10~20%</text>
<g stroke="#ff0000" stroke-width="1" fill="none">
<rect x="302.383" y="97.2411" width="5.6835" height="5.6835"/>
</g>
<text xml:space="preserve" x="325.88" y="125.037" fill="black" font-size="15.4909" font-family="Helvetica">cent: 20~40%</text>
<g stroke="#59d354" stroke-width="1" fill="none">
<polygon points=" 305.224, 117.666 308.066, 123.35 302.383, 123.35"/>
</g>
<text xml:space="preserve" x="325.88" y="144.929" fill="black" font-size="15.4909" font-family="Helvetica">cent: 40~60%</text>
<g stroke="#0000ff" stroke-width="1" fill="none">
<polygon points=" 302.383, 138.091 308.066, 138.091 305.224, 143.775"/>
</g>
<text xml:space="preserve" x="325.88" y="165.532" fill="black" font-size="15.4909" font-family="Helvetica">cent: 60~80%</text>
<g fill="#ff00ff">
<polygon points=" 304.277, 160.411 304.277, 158.516 306.172, 158.516 306.172, 160.411 308.066, 160.411 308.066, 162.305 306.172, 162.305 306.172, 164.2 304.277, 164.2 304.277, 162.305 302.383, 162.305 302.383, 160.411"/>
</g>
<text xml:space="preserve" x="325.88" y="186.135" fill="black" font-size="15.4909" font-family="Helvetica">MB events</text>
<g fill="#5954d8">
<circle cx="305.224" cy="181.783" r="2.84175"/>
</g></svg>
