<?xml version="1.0" standalone="no"?>
<svg width="567.429" height="386.304" viewBox="0 0 567.429 386.304" xmlns="http://www.w3.org/2000/svg" shape-rendering="crispEdges">
<title>
/Users/jinhyunpark/npl/gitHub/xloadFromServer/Git_Bias_correction_RxA/plots_dirIncluded/YieldCentDir.svg
</title>
<desc>
Creator: ROOT Version 6.28/04
CreationDate: Fri Aug  4 21:17:31 2023</desc>
<defs>
</defs>
<rect x="0.5" y="0" width="566.929" height="385.804" fill="white"/>
<rect x="57.1929" y="38.5804" width="453.543" height="308.643" fill="white"/>
<rect x="57.1929" y="38.5804" width="453.543" height="308.643" fill="none" stroke="black"/>
<rect x="57.1929" y="38.5804" width="453.543" height="308.643" fill="white"/>
<rect x="57.1929" y="38.5804" width="453.543" height="308.643" fill="none" stroke="black"/>
<path d="M77.8085,97.3251v -22.0237" fill="none" stroke="#000099"/>
<path d="M77.8085,75.3014v -22.0237" fill="none" stroke="#000099"/>
<path d="M57.1929,75.3014h 20.6156" fill="none" stroke="#000099"/>
<path d="M77.8085,75.3014h 20.6156" fill="none" stroke="#000099"/>
<g stroke="black" stroke-width="1" fill="none">
<line x1="76.8085" y1="75.3014" x2="77.8085" y2="75.3014"/>
</g>
<path d="M119.04,136.075v -20.3466" fill="none" stroke="#000099"/>
<path d="M119.04,115.728v -20.3466" fill="none" stroke="#000099"/>
<path d="M98.4241,115.728h 20.6156" fill="none" stroke="#000099"/>
<path d="M119.04,115.728h 20.6156" fill="none" stroke="#000099"/>
<g stroke="black" stroke-width="1" fill="none">
<line x1="118.04" y1="115.728" x2="119.04" y2="115.728"/>
</g>
<path d="M160.271,156.234v -19.4142" fill="none" stroke="#000099"/>
<path d="M160.271,136.82v -19.4142" fill="none" stroke="#000099"/>
<path d="M139.655,136.82h 20.6156" fill="none" stroke="#000099"/>
<path d="M160.271,136.82h 20.6156" fill="none" stroke="#000099"/>
<g stroke="black" stroke-width="1" fill="none">
<line x1="159.271" y1="136.82" x2="160.271" y2="136.82"/>
</g>
<path d="M201.502,152.878v -19.5727" fill="none" stroke="#000099"/>
<path d="M201.502,133.305v -19.5727" fill="none" stroke="#000099"/>
<path d="M180.887,133.305h 20.6156" fill="none" stroke="#000099"/>
<path d="M201.502,133.305h 20.6156" fill="none" stroke="#000099"/>
<g stroke="black" stroke-width="1" fill="none">
<line x1="200.502" y1="133.305" x2="201.502" y2="133.305"/>
</g>
<path d="M242.733,176.347v -18.4347" fill="none" stroke="#000099"/>
<path d="M242.733,157.912v -18.4347" fill="none" stroke="#000099"/>
<path d="M222.118,157.912h 20.6156" fill="none" stroke="#000099"/>
<path d="M242.733,157.912h 20.6156" fill="none" stroke="#000099"/>
<g stroke="black" stroke-width="1" fill="none">
<line x1="241.733" y1="157.912" x2="242.733" y2="157.912"/>
</g>
<path d="M283.965,179.694v -18.2664" fill="none" stroke="#000099"/>
<path d="M283.965,161.428v -18.2664" fill="none" stroke="#000099"/>
<path d="M263.349,161.428h 20.6156" fill="none" stroke="#000099"/>
<path d="M283.965,161.428h 20.6156" fill="none" stroke="#000099"/>
<g stroke="black" stroke-width="1" fill="none">
<line x1="282.965" y1="161.428" x2="283.965" y2="161.428"/>
</g>
<path d="M325.196,184.712v -18.0109" fill="none" stroke="#000099"/>
<path d="M325.196,166.701v -18.0109" fill="none" stroke="#000099"/>
<path d="M304.58,166.701h 20.6156" fill="none" stroke="#000099"/>
<path d="M325.196,166.701h 20.6156" fill="none" stroke="#000099"/>
<g stroke="black" stroke-width="1" fill="none">
<line x1="324.196" y1="166.701" x2="325.196" y2="166.701"/>
</g>
<path d="M366.427,228.023v -15.6226" fill="none" stroke="#000099"/>
<path d="M366.427,212.4v -15.6226" fill="none" stroke="#000099"/>
<path d="M345.811,212.4h 20.6156" fill="none" stroke="#000099"/>
<path d="M366.427,212.4h 20.6156" fill="none" stroke="#000099"/>
<g stroke="black" stroke-width="1" fill="none">
<line x1="365.427" y1="212.4" x2="366.427" y2="212.4"/>
</g>
<path d="M407.658,246.229v -14.4942" fill="none" stroke="#000099"/>
<path d="M407.658,231.735v -14.4942" fill="none" stroke="#000099"/>
<path d="M387.043,231.735h 20.6156" fill="none" stroke="#000099"/>
<path d="M407.658,231.735h 20.6156" fill="none" stroke="#000099"/>
<g stroke="black" stroke-width="1" fill="none">
<line x1="406.658" y1="231.735" x2="407.658" y2="231.735"/>
</g>
<path d="M448.889,300.137v -10.3986" fill="none" stroke="#000099"/>
<path d="M448.889,289.738v -10.3986" fill="none" stroke="#000099"/>
<path d="M428.274,289.738h 20.6156" fill="none" stroke="#000099"/>
<path d="M448.889,289.738h 20.6156" fill="none" stroke="#000099"/>
<g stroke="black" stroke-width="1" fill="none">
<line x1="447.889" y1="289.738" x2="448.889" y2="289.738"/>
</g>
<path d="M490.121,333.226v -6.57664" fill="none" stroke="#000099"/>
<path d="M490.121,326.65v -6.57664" fill="none" stroke="#000099"/>
<path d="M469.505,326.65h 20.6156" fill="none" stroke="#000099"/>
<path d="M490.121,326.65h 20.6156" fill="none" stroke="#000099"/>
<g stroke="black" stroke-width="1" fill="none">
<line x1="489.121" y1="326.65" x2="490.121" y2="326.65"/>
</g>
<rect x="442.705" y="25.0773" width="113.386" height="61.7287" fill="white"/>
<path d="M442.705,86.8059h 113.386" fill="none" stroke="black"/>
<path d="M556.091,86.8059v -61.7287" fill="none" stroke="black"/>
<path d="M556.091,25.0773h -113.386" fill="none" stroke="black"/>
<path d="M442.705,25.0773v 61.7287" fill="none" stroke="black"/>
<text xml:space="preserve" x="467.526" y="36.5499" fill="black" font-size="13.5253" font-family="Helvetica">centDir_px</text>
<path d="M442.705,40.5094h 113.386" fill="none" stroke="black"/>
<text xml:space="preserve" x="448.033" y="52.7943" fill="black" font-size="13.5109" font-family="Helvetica">Entries </text>
<text xml:space="preserve" x="517.884" y="52.7943" fill="black" font-size="13.5109" font-family="Helvetica"> 1056</text>
<text xml:space="preserve" x="448.033" y="68.2264" fill="black" font-size="13.5109" font-family="Helvetica">Mean  </text>
<text xml:space="preserve" x="514.635" y="68.2264" fill="black" font-size="13.5109" font-family="Helvetica">   41.8</text>
<text xml:space="preserve" x="448.033" y="83.6586" fill="black" font-size="13.5109" font-family="Helvetica">Std Dev   </text>
<text xml:space="preserve" x="510.574" y="83.6586" fill="black" font-size="13.5109" font-family="Helvetica">  27.28</text>
<path d="M57.1929,347.224h 453.543" fill="none" stroke="black"/>
<path d="M57.1929,337.964v 9.2593" fill="none" stroke="black"/>
<path d="M77.8085,342.594v 4.62965" fill="none" stroke="black"/>
<path d="M98.4241,342.594v 4.62965" fill="none" stroke="black"/>
<path d="M119.04,342.594v 4.62965" fill="none" stroke="black"/>
<path d="M139.655,337.964v 9.2593" fill="none" stroke="black"/>
<path d="M160.271,342.594v 4.62965" fill="none" stroke="black"/>
<path d="M180.887,342.594v 4.62965" fill="none" stroke="black"/>
<path d="M201.502,342.594v 4.62965" fill="none" stroke="black"/>
<path d="M222.118,337.964v 9.2593" fill="none" stroke="black"/>
<path d="M242.733,342.594v 4.62965" fill="none" stroke="black"/>
<path d="M263.349,342.594v 4.62965" fill="none" stroke="black"/>
<path d="M283.965,342.594v 4.62965" fill="none" stroke="black"/>
<path d="M304.58,337.964v 9.2593" fill="none" stroke="black"/>
<path d="M325.196,342.594v 4.62965" fill="none" stroke="black"/>
<path d="M345.811,342.594v 4.62965" fill="none" stroke="black"/>
<path d="M366.427,342.594v 4.62965" fill="none" stroke="black"/>
<path d="M387.043,337.964v 9.2593" fill="none" stroke="black"/>
<path d="M407.658,342.594v 4.62965" fill="none" stroke="black"/>
<path d="M428.274,342.594v 4.62965" fill="none" stroke="black"/>
<path d="M448.889,342.594v 4.62965" fill="none" stroke="black"/>
<path d="M469.505,337.964v 9.2593" fill="none" stroke="black"/>
<path d="M469.505,337.964v 9.2593" fill="none" stroke="black"/>
<path d="M490.121,342.594v 4.62965" fill="none" stroke="black"/>
<text xml:space="preserve" x="52.482" y="359.813" fill="black" font-size="12.8882" font-family="Helvetica">0</text>
<text xml:space="preserve" x="132.08" y="359.813" fill="black" font-size="12.8882" font-family="Helvetica">20</text>
<text xml:space="preserve" x="214.114" y="359.813" fill="black" font-size="12.8882" font-family="Helvetica">40</text>
<text xml:space="preserve" x="296.96" y="359.813" fill="black" font-size="12.8882" font-family="Helvetica">60</text>
<text xml:space="preserve" x="378.994" y="359.813" fill="black" font-size="12.8882" font-family="Helvetica">80</text>
<text xml:space="preserve" x="458.592" y="359.813" fill="black" font-size="12.8882" font-family="Helvetica">100</text>
<path d="M57.1929,347.224v -308.643" fill="none" stroke="black"/>
<path d="M70.7992,316.104h -13.6063" fill="none" stroke="black"/>
<path d="M63.9961,307.315h -6.80315" fill="none" stroke="black"/>
<path d="M63.9961,298.527h -6.80315" fill="none" stroke="black"/>
<path d="M63.9961,289.738h -6.80315" fill="none" stroke="black"/>
<path d="M70.7992,280.95h -13.6063" fill="none" stroke="black"/>
<path d="M63.9961,272.162h -6.80315" fill="none" stroke="black"/>
<path d="M63.9961,263.373h -6.80315" fill="none" stroke="black"/>
<path d="M63.9961,254.585h -6.80315" fill="none" stroke="black"/>
<path d="M70.7992,245.796h -13.6063" fill="none" stroke="black"/>
<path d="M63.9961,237.008h -6.80315" fill="none" stroke="black"/>
<path d="M63.9961,228.22h -6.80315" fill="none" stroke="black"/>
<path d="M63.9961,219.431h -6.80315" fill="none" stroke="black"/>
<path d="M70.7992,210.643h -13.6063" fill="none" stroke="black"/>
<path d="M63.9961,201.854h -6.80315" fill="none" stroke="black"/>
<path d="M63.9961,193.066h -6.80315" fill="none" stroke="black"/>
<path d="M63.9961,184.278h -6.80315" fill="none" stroke="black"/>
<path d="M70.7992,175.489h -13.6063" fill="none" stroke="black"/>
<path d="M63.9961,166.701h -6.80315" fill="none" stroke="black"/>
<path d="M63.9961,157.912h -6.80315" fill="none" stroke="black"/>
<path d="M63.9961,149.124h -6.80315" fill="none" stroke="black"/>
<path d="M70.7992,140.336h -13.6063" fill="none" stroke="black"/>
<path d="M63.9961,131.547h -6.80315" fill="none" stroke="black"/>
<path d="M63.9961,122.759h -6.80315" fill="none" stroke="black"/>
<path d="M63.9961,113.97h -6.80315" fill="none" stroke="black"/>
<path d="M70.7992,105.182h -13.6063" fill="none" stroke="black"/>
<path d="M63.9961,96.3936h -6.80315" fill="none" stroke="black"/>
<path d="M63.9961,87.6052h -6.80315" fill="none" stroke="black"/>
<path d="M63.9961,78.8168h -6.80315" fill="none" stroke="black"/>
<path d="M70.7992,70.0284h -13.6063" fill="none" stroke="black"/>
<path d="M70.7992,316.104h -13.6063" fill="none" stroke="black"/>
<path d="M63.9961,324.892h -6.80315" fill="none" stroke="black"/>
<path d="M63.9961,333.68h -6.80315" fill="none" stroke="black"/>
<path d="M63.9961,342.469h -6.80315" fill="none" stroke="black"/>
<path d="M70.7992,70.0284h -13.6063" fill="none" stroke="black"/>
<path d="M63.9961,61.24h -6.80315" fill="none" stroke="black"/>
<path d="M63.9961,52.4516h -6.80315" fill="none" stroke="black"/>
<path d="M63.9961,43.6632h -6.80315" fill="none" stroke="black"/>
<text xml:space="preserve" x="39.4865" y="320.827" fill="black" font-size="12.8882" font-family="Helvetica">20</text>
<text xml:space="preserve" x="39.4865" y="285.089" fill="black" font-size="12.8882" font-family="Helvetica">40</text>
<text xml:space="preserve" x="39.4865" y="250.164" fill="black" font-size="12.8882" font-family="Helvetica">60</text>
<text xml:space="preserve" x="39.4865" y="215.238" fill="black" font-size="12.8882" font-family="Helvetica">80</text>
<text xml:space="preserve" x="32.9888" y="180.313" fill="black" font-size="12.8882" font-family="Helvetica">100</text>
<text xml:space="preserve" x="32.9888" y="144.575" fill="black" font-size="12.8882" font-family="Helvetica">120</text>
<text xml:space="preserve" x="32.9888" y="109.65" fill="black" font-size="12.8882" font-family="Helvetica">140</text>
<text xml:space="preserve" x="32.9888" y="74.7242" fill="black" font-size="12.8882" font-family="Helvetica">160</text>
<rect x="442.705" y="25.0773" width="113.386" height="61.7287" fill="white"/>
<path d="M442.705,86.8059h 113.386" fill="none" stroke="black"/>
<path d="M556.091,86.8059v -61.7287" fill="none" stroke="black"/>
<path d="M556.091,25.0773h -113.386" fill="none" stroke="black"/>
<path d="M442.705,25.0773v 61.7287" fill="none" stroke="black"/>
<text xml:space="preserve" x="467.526" y="36.5499" fill="black" font-size="13.5253" font-family="Helvetica">centDir_px</text>
<path d="M442.705,40.5094h 113.386" fill="none" stroke="black"/>
<text xml:space="preserve" x="448.033" y="52.7943" fill="black" font-size="13.5109" font-family="Helvetica">Entries </text>
<text xml:space="preserve" x="517.884" y="52.7943" fill="black" font-size="13.5109" font-family="Helvetica"> 1056</text>
<text xml:space="preserve" x="448.033" y="68.2264" fill="black" font-size="13.5109" font-family="Helvetica">Mean  </text>
<text xml:space="preserve" x="514.635" y="68.2264" fill="black" font-size="13.5109" font-family="Helvetica">   41.8</text>
<text xml:space="preserve" x="448.033" y="83.6586" fill="black" font-size="13.5109" font-family="Helvetica">Std Dev   </text>
<text xml:space="preserve" x="510.574" y="83.6586" fill="black" font-size="13.5109" font-family="Helvetica">  27.28</text>
<text xml:space="preserve" x="169.442" y="18.681" fill="black" font-size="17.9813" font-family="Helvetica">x: centrality y: dirPhoton's pT</text></svg>
