<?xml version="1.0" standalone="no"?>
<svg width="567.429" height="409.002" viewBox="0 0 567.429 409.002" xmlns="http://www.w3.org/2000/svg" shape-rendering="crispEdges">
<title>
/Users/jinhyunpark/npl/gitHub/xloadFromServer/Git_Bias_correction_RxA/plots_dirAdded/yieldBypT_pion0_2to5GeV.svg
</title>
<desc>
Creator: ROOT Version 6.28/04
CreationDate: Sat Aug 26 16:12:10 2023</desc>
<defs>
</defs>
<rect x="0.5" y="0" width="566.929" height="408.502" fill="white"/>
<rect x="85.5394" y="20.4251" width="396.85" height="339.056" fill="white"/>
<rect x="85.5394" y="20.4251" width="396.85" height="339.056" fill="none" stroke="black"/>
<rect x="85.5394" y="20.4251" width="396.85" height="339.056" fill="white"/>
<rect x="85.5394" y="20.4251" width="396.85" height="339.056" fill="none" stroke="black"/>
<path d="M85.5394,359.481h 396.85" fill="none" stroke="black"/>
<path d="M85.5394,350.903v 8.57853" fill="none" stroke="black"/>
<path d="M98.7677,355.192v 4.28927" fill="none" stroke="black"/>
<path d="M111.996,355.192v 4.28927" fill="none" stroke="black"/>
<path d="M125.224,355.192v 4.28927" fill="none" stroke="black"/>
<path d="M138.453,355.192v 4.28927" fill="none" stroke="black"/>
<path d="M151.681,350.903v 8.57853" fill="none" stroke="black"/>
<path d="M164.909,355.192v 4.28927" fill="none" stroke="black"/>
<path d="M178.138,355.192v 4.28927" fill="none" stroke="black"/>
<path d="M191.366,355.192v 4.28927" fill="none" stroke="black"/>
<path d="M204.594,355.192v 4.28927" fill="none" stroke="black"/>
<path d="M217.823,350.903v 8.57853" fill="none" stroke="black"/>
<path d="M231.051,355.192v 4.28927" fill="none" stroke="black"/>
<path d="M244.28,355.192v 4.28927" fill="none" stroke="black"/>
<path d="M257.508,355.192v 4.28927" fill="none" stroke="black"/>
<path d="M270.736,355.192v 4.28927" fill="none" stroke="black"/>
<path d="M283.965,350.903v 8.57853" fill="none" stroke="black"/>
<path d="M297.193,355.192v 4.28927" fill="none" stroke="black"/>
<path d="M310.421,355.192v 4.28927" fill="none" stroke="black"/>
<path d="M323.65,355.192v 4.28927" fill="none" stroke="black"/>
<path d="M336.878,355.192v 4.28927" fill="none" stroke="black"/>
<path d="M350.106,350.903v 8.57853" fill="none" stroke="black"/>
<path d="M363.335,355.192v 4.28927" fill="none" stroke="black"/>
<path d="M376.563,355.192v 4.28927" fill="none" stroke="black"/>
<path d="M389.791,355.192v 4.28927" fill="none" stroke="black"/>
<path d="M403.02,355.192v 4.28927" fill="none" stroke="black"/>
<path d="M416.248,350.903v 8.57853" fill="none" stroke="black"/>
<path d="M429.476,355.192v 4.28927" fill="none" stroke="black"/>
<path d="M442.705,355.192v 4.28927" fill="none" stroke="black"/>
<path d="M455.933,355.192v 4.28927" fill="none" stroke="black"/>
<path d="M469.161,355.192v 4.28927" fill="none" stroke="black"/>
<path d="M482.39,350.903v 8.57853" fill="none" stroke="black"/>
<text xml:space="preserve" x="81.4899" y="372.269" fill="black" font-size="13.617" font-family="Helvetica">2</text>
<text xml:space="preserve" x="141.877" y="372.269" fill="black" font-size="13.617" font-family="Helvetica">2.5</text>
<text xml:space="preserve" x="213.631" y="372.269" fill="black" font-size="13.617" font-family="Helvetica">3</text>
<text xml:space="preserve" x="274.729" y="372.269" fill="black" font-size="13.617" font-family="Helvetica">3.5</text>
<text xml:space="preserve" x="346.483" y="372.269" fill="black" font-size="13.617" font-family="Helvetica">4</text>
<text xml:space="preserve" x="406.87" y="372.269" fill="black" font-size="13.617" font-family="Helvetica">4.5</text>
<text xml:space="preserve" x="478.624" y="372.269" fill="black" font-size="13.617" font-family="Helvetica">5</text>
<text xml:space="preserve" x="476.493" y="390.741" fill="black" font-size="9.24468" font-family="Helvetica">T</text>
<text xml:space="preserve" x="468.678" y="382.926" fill="black" font-size="13.617" font-family="Helvetica">p</text>
<path d="M85.5394,20.4251h 396.85" fill="none" stroke="black"/>
<path d="M85.5394,29.0036v -8.57853" fill="none" stroke="black"/>
<path d="M98.7677,24.7143v -4.28927" fill="none" stroke="black"/>
<path d="M111.996,24.7143v -4.28927" fill="none" stroke="black"/>
<path d="M125.224,24.7143v -4.28927" fill="none" stroke="black"/>
<path d="M138.453,24.7143v -4.28927" fill="none" stroke="black"/>
<path d="M151.681,29.0036v -8.57853" fill="none" stroke="black"/>
<path d="M164.909,24.7143v -4.28927" fill="none" stroke="black"/>
<path d="M178.138,24.7143v -4.28927" fill="none" stroke="black"/>
<path d="M191.366,24.7143v -4.28927" fill="none" stroke="black"/>
<path d="M204.594,24.7143v -4.28927" fill="none" stroke="black"/>
<path d="M217.823,29.0036v -8.57853" fill="none" stroke="black"/>
<path d="M231.051,24.7143v -4.28927" fill="none" stroke="black"/>
<path d="M244.28,24.7143v -4.28927" fill="none" stroke="black"/>
<path d="M257.508,24.7143v -4.28927" fill="none" stroke="black"/>
<path d="M270.736,24.7143v -4.28927" fill="none" stroke="black"/>
<path d="M283.965,29.0036v -8.57853" fill="none" stroke="black"/>
<path d="M297.193,24.7143v -4.28927" fill="none" stroke="black"/>
<path d="M310.421,24.7143v -4.28927" fill="none" stroke="black"/>
<path d="M323.65,24.7143v -4.28927" fill="none" stroke="black"/>
<path d="M336.878,24.7143v -4.28927" fill="none" stroke="black"/>
<path d="M350.106,29.0036v -8.57853" fill="none" stroke="black"/>
<path d="M363.335,24.7143v -4.28927" fill="none" stroke="black"/>
<path d="M376.563,24.7143v -4.28927" fill="none" stroke="black"/>
<path d="M389.791,24.7143v -4.28927" fill="none" stroke="black"/>
<path d="M403.02,24.7143v -4.28927" fill="none" stroke="black"/>
<path d="M416.248,29.0036v -8.57853" fill="none" stroke="black"/>
<path d="M429.476,24.7143v -4.28927" fill="none" stroke="black"/>
<path d="M442.705,24.7143v -4.28927" fill="none" stroke="black"/>
<path d="M455.933,24.7143v -4.28927" fill="none" stroke="black"/>
<path d="M469.161,24.7143v -4.28927" fill="none" stroke="black"/>
<path d="M482.39,29.0036v -8.57853" fill="none" stroke="black"/>
<path d="M85.5394,359.481v -339.056" fill="none" stroke="black"/>
<path d="M99.6559,359.481h -14.1165" fill="none" stroke="black"/>
<path d="M92.5976,348.18h -7.05827" fill="none" stroke="black"/>
<path d="M92.5976,336.878h -7.05827" fill="none" stroke="black"/>
<path d="M92.5976,325.576h -7.05827" fill="none" stroke="black"/>
<path d="M92.5976,314.274h -7.05827" fill="none" stroke="black"/>
<path d="M99.6559,302.972h -14.1165" fill="none" stroke="black"/>
<path d="M92.5976,291.67h -7.05827" fill="none" stroke="black"/>
<path d="M92.5976,280.368h -7.05827" fill="none" stroke="black"/>
<path d="M92.5976,269.066h -7.05827" fill="none" stroke="black"/>
<path d="M92.5976,257.764h -7.05827" fill="none" stroke="black"/>
<path d="M99.6559,246.463h -14.1165" fill="none" stroke="black"/>
<path d="M92.5976,235.161h -7.05827" fill="none" stroke="black"/>
<path d="M92.5976,223.859h -7.05827" fill="none" stroke="black"/>
<path d="M92.5976,212.557h -7.05827" fill="none" stroke="black"/>
<path d="M92.5976,201.255h -7.05827" fill="none" stroke="black"/>
<path d="M99.6559,189.953h -14.1165" fill="none" stroke="black"/>
<path d="M92.5976,178.651h -7.05827" fill="none" stroke="black"/>
<path d="M92.5976,167.349h -7.05827" fill="none" stroke="black"/>
<path d="M92.5976,156.048h -7.05827" fill="none" stroke="black"/>
<path d="M92.5976,144.746h -7.05827" fill="none" stroke="black"/>
<path d="M99.6559,133.444h -14.1165" fill="none" stroke="black"/>
<path d="M92.5976,122.142h -7.05827" fill="none" stroke="black"/>
<path d="M92.5976,110.84h -7.05827" fill="none" stroke="black"/>
<path d="M92.5976,99.5382h -7.05827" fill="none" stroke="black"/>
<path d="M92.5976,88.2363h -7.05827" fill="none" stroke="black"/>
<path d="M99.6559,76.9345h -14.1165" fill="none" stroke="black"/>
<path d="M92.5976,65.6326h -7.05827" fill="none" stroke="black"/>
<path d="M92.5976,54.3307h -7.05827" fill="none" stroke="black"/>
<path d="M92.5976,43.0288h -7.05827" fill="none" stroke="black"/>
<path d="M92.5976,31.727h -7.05827" fill="none" stroke="black"/>
<path d="M99.6559,20.4251h -14.1165" fill="none" stroke="black"/>
<text xml:space="preserve" x="75.0959" y="364.454" fill="black" font-size="13.617" font-family="Helvetica">0</text>
<text xml:space="preserve" x="48.8097" y="307.619" fill="black" font-size="13.617" font-family="Helvetica">0.005</text>
<text xml:space="preserve" x="58.7559" y="250.784" fill="black" font-size="13.617" font-family="Helvetica">0.01</text>
<text xml:space="preserve" x="48.8097" y="194.66" fill="black" font-size="13.617" font-family="Helvetica">0.015</text>
<text xml:space="preserve" x="55.9141" y="137.825" fill="black" font-size="13.617" font-family="Helvetica">0.02</text>
<text xml:space="preserve" x="48.8097" y="81.7003" fill="black" font-size="13.617" font-family="Helvetica">0.025</text>
<text xml:space="preserve" x="55.9141" y="24.8653" fill="black" font-size="13.617" font-family="Helvetica">0.03</text>
<g transform="rotate(-90,43.8367,25.5758)">
<text xml:space="preserve" x="43.8367" y="25.5758" fill="black" font-size="9.24468" font-family="Helvetica">T</text>
</g>
<g transform="rotate(-90,36.0219,44.7576)">
<text xml:space="preserve" x="36.0219" y="44.7576" fill="black" font-size="13.617" font-family="Helvetica">/dp</text>
</g>
<g transform="rotate(-90,26.0758,48.3098)">
<text xml:space="preserve" x="26.0758" y="48.3098" fill="black" font-size="6.32979" font-family="Helvetica">0</text>
</g>
<g transform="rotate(-90,29.6279,53.2828)">
<text xml:space="preserve" x="29.6279" y="53.2828" fill="black" font-size="9.24468" font-family="Times">&#0960;</text>
</g>
<g transform="rotate(-90,36.0219,73.8855)">
<text xml:space="preserve" x="36.0219" y="73.8855" fill="black" font-size="13.617" font-family="Helvetica"> dN</text>
</g>
<g transform="rotate(-90,40.9949,96.6195)">
<text xml:space="preserve" x="40.9949" y="96.6195" fill="black" font-size="9.24468" font-family="Helvetica">event</text>
</g>
<g transform="rotate(-90,36.0219,117.222)">
<text xml:space="preserve" x="36.0219" y="117.222" fill="black" font-size="13.617" font-family="Helvetica">1/N</text>
</g>
<path d="M482.39,359.481v -339.056" fill="none" stroke="black"/>
<path d="M468.273,359.481h 14.1165" fill="none" stroke="black"/>
<path d="M475.332,348.18h 7.05827" fill="none" stroke="black"/>
<path d="M475.332,336.878h 7.05827" fill="none" stroke="black"/>
<path d="M475.332,325.576h 7.05827" fill="none" stroke="black"/>
<path d="M475.332,314.274h 7.05827" fill="none" stroke="black"/>
<path d="M468.273,302.972h 14.1165" fill="none" stroke="black"/>
<path d="M475.332,291.67h 7.05827" fill="none" stroke="black"/>
<path d="M475.332,280.368h 7.05827" fill="none" stroke="black"/>
<path d="M475.332,269.066h 7.05827" fill="none" stroke="black"/>
<path d="M475.332,257.764h 7.05827" fill="none" stroke="black"/>
<path d="M468.273,246.463h 14.1165" fill="none" stroke="black"/>
<path d="M475.332,235.161h 7.05827" fill="none" stroke="black"/>
<path d="M475.332,223.859h 7.05827" fill="none" stroke="black"/>
<path d="M475.332,212.557h 7.05827" fill="none" stroke="black"/>
<path d="M475.332,201.255h 7.05827" fill="none" stroke="black"/>
<path d="M468.273,189.953h 14.1165" fill="none" stroke="black"/>
<path d="M475.332,178.651h 7.05827" fill="none" stroke="black"/>
<path d="M475.332,167.349h 7.05827" fill="none" stroke="black"/>
<path d="M475.332,156.048h 7.05827" fill="none" stroke="black"/>
<path d="M475.332,144.746h 7.05827" fill="none" stroke="black"/>
<path d="M468.273,133.444h 14.1165" fill="none" stroke="black"/>
<path d="M475.332,122.142h 7.05827" fill="none" stroke="black"/>
<path d="M475.332,110.84h 7.05827" fill="none" stroke="black"/>
<path d="M475.332,99.5382h 7.05827" fill="none" stroke="black"/>
<path d="M475.332,88.2363h 7.05827" fill="none" stroke="black"/>
<path d="M468.273,76.9345h 14.1165" fill="none" stroke="black"/>
<path d="M475.332,65.6326h 7.05827" fill="none" stroke="black"/>
<path d="M475.332,54.3307h 7.05827" fill="none" stroke="black"/>
<path d="M475.332,43.0288h 7.05827" fill="none" stroke="black"/>
<path d="M475.332,31.727h 7.05827" fill="none" stroke="black"/>
<path d="M468.273,20.4251h 14.1165" fill="none" stroke="black"/>
<path d="M85.5394,121.287h 63.3" fill="none" stroke="black"/>
<path d="M154.523,121.287h 63.3" fill="none" stroke="black"/>
<g fill="black">
<circle cx="151.681" cy="121.287" r="2.84175"/>
</g>
<path d="M217.823,333.734h 63.3" fill="none" stroke="black"/>
<path d="M286.806,333.734h 63.3" fill="none" stroke="black"/>
<g fill="black">
<circle cx="283.965" cy="333.734" r="2.84175"/>
</g>
<path d="M350.106,355.33h 63.3" fill="none" stroke="black"/>
<path d="M419.09,355.33h 63.3" fill="none" stroke="black"/>
<g fill="black">
<circle cx="416.248" cy="355.33" r="2.84175"/>
</g>
<path d="M85.5394,144.299h 63.3" fill="none" stroke="#ff0000"/>
<path d="M154.523,144.299h 63.3" fill="none" stroke="#ff0000"/>
<g fill="#ff0000">
<rect x="148.839" y="141.457" width="5.6835" height="5.6835"/>
</g>
<path d="M217.823,336.539h 63.3" fill="none" stroke="#ff0000"/>
<path d="M286.806,336.539h 63.3" fill="none" stroke="#ff0000"/>
<g fill="#ff0000">
<rect x="281.123" y="333.697" width="5.6835" height="5.6835"/>
</g>
<path d="M350.106,355.479h 63.3" fill="none" stroke="#ff0000"/>
<path d="M419.09,355.479h 63.3" fill="none" stroke="#ff0000"/>
<g fill="#ff0000">
<rect x="413.406" y="352.637" width="5.6835" height="5.6835"/>
</g>
<path d="M85.5394,167.313h 64.7209" fill="none" stroke="#59d354"/>
<path d="M153.102,167.313h 64.7209" fill="none" stroke="#59d354"/>
<g fill="#59d354">
<polygon points=" 151.681, 164.471 154.523, 170.155 148.839, 170.155"/>
</g>
<path d="M217.823,337.963h 64.7209" fill="none" stroke="#59d354"/>
<path d="M285.385,337.963h 64.7209" fill="none" stroke="#59d354"/>
<g fill="#59d354">
<polygon points=" 283.965, 335.121 286.806, 340.805 281.123, 340.805"/>
</g>
<path d="M350.106,355.893h 64.7209" fill="none" stroke="#59d354"/>
<path d="M417.669,355.893h 64.7209" fill="none" stroke="#59d354"/>
<g fill="#59d354">
<polygon points=" 416.248, 353.051 419.09, 358.735 413.406, 358.735"/>
</g>
<path d="M85.5394,200.684h 64.7209" fill="none" stroke="#0000ff"/>
<path d="M153.102,200.684h 64.7209" fill="none" stroke="#0000ff"/>
<g fill="#0000ff">
<polygon points=" 148.839, 197.842 154.523, 197.842 151.681, 203.525"/>
</g>
<path d="M217.823,341.923h 64.7209" fill="none" stroke="#0000ff"/>
<path d="M285.385,341.923h 64.7209" fill="none" stroke="#0000ff"/>
<g fill="#0000ff">
<polygon points=" 281.123, 339.081 286.806, 339.081 283.965, 344.765"/>
</g>
<path d="M350.106,356.267h 64.7209" fill="none" stroke="#0000ff"/>
<path d="M417.669,356.267h 64.7209" fill="none" stroke="#0000ff"/>
<g fill="#0000ff">
<polygon points=" 413.406, 353.426 419.09, 353.426 416.248, 359.109"/>
</g>
<path d="M85.5394,244.032h 63.3" fill="none" stroke="#ff00ff"/>
<path d="M154.523,244.032h 63.3" fill="none" stroke="#ff00ff"/>
<g fill="#ff00ff">
<polygon points=" 150.734, 243.084 150.734, 241.19 152.628, 241.19 152.628, 243.084 154.523, 243.084 154.523, 244.979 152.628, 244.979 152.628, 246.873 150.734, 246.873 150.734, 244.979 148.839, 244.979 148.839, 243.084"/>
</g>
<path d="M217.823,346.725h 63.3" fill="none" stroke="#ff00ff"/>
<path d="M286.806,346.725h 63.3" fill="none" stroke="#ff00ff"/>
<g fill="#ff00ff">
<polygon points=" 283.017, 345.777 283.017, 343.883 284.912, 343.883 284.912, 345.777 286.806, 345.777 286.806, 347.672 284.912, 347.672 284.912, 349.566 283.017, 349.566 283.017, 347.672 281.123, 347.672 281.123, 345.777"/>
</g>
<path d="M350.106,357.056h 63.3" fill="none" stroke="#ff00ff"/>
<path d="M419.09,357.056h 63.3" fill="none" stroke="#ff00ff"/>
<g fill="#ff00ff">
<polygon points=" 415.301, 356.109 415.301, 354.214 417.195, 354.214 417.195, 356.109 419.09, 356.109 419.09, 358.003 417.195, 358.003 417.195, 359.898 415.301, 359.898 415.301, 358.003 413.406, 358.003 413.406, 356.109"/>
</g>
<text xml:space="preserve" x="287.517" y="45.468" fill="black" font-size="15.4909" font-family="Helvetica">PYTHIA8, option3</text>
<text xml:space="preserve" x="409.712" y="68.202" fill="black" font-size="15.4909" font-family="Helvetica">|&lt;1</text>
<text xml:space="preserve" x="401.187" y="68.202" fill="black" font-size="15.4909" font-family="Times">&#0951;</text>
<text xml:space="preserve" x="287.517" y="68.202" fill="black" font-size="15.4909" font-family="Helvetica">p+Au, 200 GeV, |</text>
<text xml:space="preserve" x="325.88" y="91.6464" fill="black" font-size="15.4909" font-family="Helvetica">cent: 0~10%</text>
<g fill="black">
<circle cx="305.224" cy="86.9525" r="2.84175"/>
</g>
<text xml:space="preserve" x="325.88" y="115.091" fill="black" font-size="15.4909" font-family="Helvetica">cent: 10~20%</text>
<g fill="#ff0000">
<rect x="302.383" y="107.454" width="5.6835" height="5.6835"/>
</g>
<text xml:space="preserve" x="325.88" y="138.535" fill="black" font-size="15.4909" font-family="Helvetica">cent: 20~40%</text>
<g fill="#59d354">
<polygon points=" 305.224, 130.797 308.066, 136.48 302.383, 136.48"/>
</g>
<text xml:space="preserve" x="325.88" y="161.98" fill="black" font-size="15.4909" font-family="Helvetica">cent: 40~60%</text>
<g fill="#0000ff">
<polygon points=" 302.383, 154.14 308.066, 154.14 305.224, 159.823"/>
</g>
<text xml:space="preserve" x="325.88" y="185.424" fill="black" font-size="15.4909" font-family="Helvetica">cent: 60~80%</text>
<g fill="#ff00ff">
<polygon points=" 304.277, 179.377 304.277, 177.483 306.172, 177.483 306.172, 179.377 308.066, 179.377 308.066, 181.272 306.172, 181.272 306.172, 183.166 304.277, 183.166 304.277, 181.272 302.383, 181.272 302.383, 179.377"/>
</g></svg>
