<?xml version="1.0" standalone="no"?>
<svg width="567.429" height="409.002" viewBox="0 0 567.429 409.002" xmlns="http://www.w3.org/2000/svg" shape-rendering="crispEdges">
<title>
/Users/jinhyunpark/npl/gitHub/xloadFromServer/Git_Bias_correction_RxA/plots_dirAdded/yieldBypT_pion0_over5GeV.svg
</title>
<desc>
Creator: ROOT Version 6.28/04
CreationDate: Thu Aug 24 19:25:44 2023</desc>
<defs>
</defs>
<rect x="0.5" y="0" width="566.929" height="408.502" fill="white"/>
<rect x="85.5394" y="20.4251" width="396.85" height="339.056" fill="white"/>
<rect x="85.5394" y="20.4251" width="396.85" height="339.056" fill="none" stroke="black"/>
<rect x="85.5394" y="20.4251" width="396.85" height="339.056" fill="white"/>
<rect x="85.5394" y="20.4251" width="396.85" height="339.056" fill="none" stroke="black"/>
<path d="M85.5394,359.481h 396.85" fill="none" stroke="black"/>
<path d="M85.5394,350.903v 8.57853" fill="none" stroke="black"/>
<path d="M93.4764,355.192v 4.28927" fill="none" stroke="black"/>
<path d="M101.413,355.192v 4.28927" fill="none" stroke="black"/>
<path d="M109.35,355.192v 4.28927" fill="none" stroke="black"/>
<path d="M117.287,355.192v 4.28927" fill="none" stroke="black"/>
<path d="M125.224,350.903v 8.57853" fill="none" stroke="black"/>
<path d="M133.161,355.192v 4.28927" fill="none" stroke="black"/>
<path d="M141.098,355.192v 4.28927" fill="none" stroke="black"/>
<path d="M149.035,355.192v 4.28927" fill="none" stroke="black"/>
<path d="M156.972,355.192v 4.28927" fill="none" stroke="black"/>
<path d="M164.909,350.903v 8.57853" fill="none" stroke="black"/>
<path d="M172.846,355.192v 4.28927" fill="none" stroke="black"/>
<path d="M180.783,355.192v 4.28927" fill="none" stroke="black"/>
<path d="M188.72,355.192v 4.28927" fill="none" stroke="black"/>
<path d="M196.657,355.192v 4.28927" fill="none" stroke="black"/>
<path d="M204.594,350.903v 8.57853" fill="none" stroke="black"/>
<path d="M212.531,355.192v 4.28927" fill="none" stroke="black"/>
<path d="M220.469,355.192v 4.28927" fill="none" stroke="black"/>
<path d="M228.406,355.192v 4.28927" fill="none" stroke="black"/>
<path d="M236.343,355.192v 4.28927" fill="none" stroke="black"/>
<path d="M244.28,350.903v 8.57853" fill="none" stroke="black"/>
<path d="M252.217,355.192v 4.28927" fill="none" stroke="black"/>
<path d="M260.154,355.192v 4.28927" fill="none" stroke="black"/>
<path d="M268.091,355.192v 4.28927" fill="none" stroke="black"/>
<path d="M276.028,355.192v 4.28927" fill="none" stroke="black"/>
<path d="M283.965,350.903v 8.57853" fill="none" stroke="black"/>
<path d="M291.902,355.192v 4.28927" fill="none" stroke="black"/>
<path d="M299.839,355.192v 4.28927" fill="none" stroke="black"/>
<path d="M307.776,355.192v 4.28927" fill="none" stroke="black"/>
<path d="M315.713,355.192v 4.28927" fill="none" stroke="black"/>
<path d="M323.65,350.903v 8.57853" fill="none" stroke="black"/>
<path d="M331.587,355.192v 4.28927" fill="none" stroke="black"/>
<path d="M339.524,355.192v 4.28927" fill="none" stroke="black"/>
<path d="M347.461,355.192v 4.28927" fill="none" stroke="black"/>
<path d="M355.398,355.192v 4.28927" fill="none" stroke="black"/>
<path d="M363.335,350.903v 8.57853" fill="none" stroke="black"/>
<path d="M371.272,355.192v 4.28927" fill="none" stroke="black"/>
<path d="M379.209,355.192v 4.28927" fill="none" stroke="black"/>
<path d="M387.146,355.192v 4.28927" fill="none" stroke="black"/>
<path d="M395.083,355.192v 4.28927" fill="none" stroke="black"/>
<path d="M403.02,350.903v 8.57853" fill="none" stroke="black"/>
<path d="M410.957,355.192v 4.28927" fill="none" stroke="black"/>
<path d="M418.894,355.192v 4.28927" fill="none" stroke="black"/>
<path d="M426.831,355.192v 4.28927" fill="none" stroke="black"/>
<path d="M434.768,355.192v 4.28927" fill="none" stroke="black"/>
<path d="M442.705,350.903v 8.57853" fill="none" stroke="black"/>
<path d="M450.642,355.192v 4.28927" fill="none" stroke="black"/>
<path d="M458.579,355.192v 4.28927" fill="none" stroke="black"/>
<path d="M466.516,355.192v 4.28927" fill="none" stroke="black"/>
<path d="M474.453,355.192v 4.28927" fill="none" stroke="black"/>
<path d="M482.39,350.903v 8.57853" fill="none" stroke="black"/>
<text xml:space="preserve" x="81.4899" y="372.269" fill="black" font-size="13.617" font-family="Helvetica">5</text>
<text xml:space="preserve" x="121.274" y="372.269" fill="black" font-size="13.617" font-family="Helvetica">6</text>
<text xml:space="preserve" x="161.059" y="372.269" fill="black" font-size="13.617" font-family="Helvetica">7</text>
<text xml:space="preserve" x="200.843" y="372.269" fill="black" font-size="13.617" font-family="Helvetica">8</text>
<text xml:space="preserve" x="240.628" y="372.269" fill="black" font-size="13.617" font-family="Helvetica">9</text>
<text xml:space="preserve" x="276.15" y="372.269" fill="black" font-size="13.617" font-family="Helvetica">10</text>
<text xml:space="preserve" x="316.645" y="372.269" fill="black" font-size="13.617" font-family="Helvetica">11</text>
<text xml:space="preserve" x="355.008" y="372.269" fill="black" font-size="13.617" font-family="Helvetica">12</text>
<text xml:space="preserve" x="394.793" y="372.269" fill="black" font-size="13.617" font-family="Helvetica">13</text>
<text xml:space="preserve" x="434.577" y="372.269" fill="black" font-size="13.617" font-family="Helvetica">14</text>
<text xml:space="preserve" x="474.362" y="372.269" fill="black" font-size="13.617" font-family="Helvetica">15</text>
<text xml:space="preserve" x="476.493" y="390.741" fill="black" font-size="9.24468" font-family="Helvetica">T</text>
<text xml:space="preserve" x="468.678" y="382.926" fill="black" font-size="13.617" font-family="Helvetica">p</text>
<path d="M85.5394,20.4251h 396.85" fill="none" stroke="black"/>
<path d="M85.5394,29.0036v -8.57853" fill="none" stroke="black"/>
<path d="M93.4764,24.7143v -4.28927" fill="none" stroke="black"/>
<path d="M101.413,24.7143v -4.28927" fill="none" stroke="black"/>
<path d="M109.35,24.7143v -4.28927" fill="none" stroke="black"/>
<path d="M117.287,24.7143v -4.28927" fill="none" stroke="black"/>
<path d="M125.224,29.0036v -8.57853" fill="none" stroke="black"/>
<path d="M133.161,24.7143v -4.28927" fill="none" stroke="black"/>
<path d="M141.098,24.7143v -4.28927" fill="none" stroke="black"/>
<path d="M149.035,24.7143v -4.28927" fill="none" stroke="black"/>
<path d="M156.972,24.7143v -4.28927" fill="none" stroke="black"/>
<path d="M164.909,29.0036v -8.57853" fill="none" stroke="black"/>
<path d="M172.846,24.7143v -4.28927" fill="none" stroke="black"/>
<path d="M180.783,24.7143v -4.28927" fill="none" stroke="black"/>
<path d="M188.72,24.7143v -4.28927" fill="none" stroke="black"/>
<path d="M196.657,24.7143v -4.28927" fill="none" stroke="black"/>
<path d="M204.594,29.0036v -8.57853" fill="none" stroke="black"/>
<path d="M212.531,24.7143v -4.28927" fill="none" stroke="black"/>
<path d="M220.469,24.7143v -4.28927" fill="none" stroke="black"/>
<path d="M228.406,24.7143v -4.28927" fill="none" stroke="black"/>
<path d="M236.343,24.7143v -4.28927" fill="none" stroke="black"/>
<path d="M244.28,29.0036v -8.57853" fill="none" stroke="black"/>
<path d="M252.217,24.7143v -4.28927" fill="none" stroke="black"/>
<path d="M260.154,24.7143v -4.28927" fill="none" stroke="black"/>
<path d="M268.091,24.7143v -4.28927" fill="none" stroke="black"/>
<path d="M276.028,24.7143v -4.28927" fill="none" stroke="black"/>
<path d="M283.965,29.0036v -8.57853" fill="none" stroke="black"/>
<path d="M291.902,24.7143v -4.28927" fill="none" stroke="black"/>
<path d="M299.839,24.7143v -4.28927" fill="none" stroke="black"/>
<path d="M307.776,24.7143v -4.28927" fill="none" stroke="black"/>
<path d="M315.713,24.7143v -4.28927" fill="none" stroke="black"/>
<path d="M323.65,29.0036v -8.57853" fill="none" stroke="black"/>
<path d="M331.587,24.7143v -4.28927" fill="none" stroke="black"/>
<path d="M339.524,24.7143v -4.28927" fill="none" stroke="black"/>
<path d="M347.461,24.7143v -4.28927" fill="none" stroke="black"/>
<path d="M355.398,24.7143v -4.28927" fill="none" stroke="black"/>
<path d="M363.335,29.0036v -8.57853" fill="none" stroke="black"/>
<path d="M371.272,24.7143v -4.28927" fill="none" stroke="black"/>
<path d="M379.209,24.7143v -4.28927" fill="none" stroke="black"/>
<path d="M387.146,24.7143v -4.28927" fill="none" stroke="black"/>
<path d="M395.083,24.7143v -4.28927" fill="none" stroke="black"/>
<path d="M403.02,29.0036v -8.57853" fill="none" stroke="black"/>
<path d="M410.957,24.7143v -4.28927" fill="none" stroke="black"/>
<path d="M418.894,24.7143v -4.28927" fill="none" stroke="black"/>
<path d="M426.831,24.7143v -4.28927" fill="none" stroke="black"/>
<path d="M434.768,24.7143v -4.28927" fill="none" stroke="black"/>
<path d="M442.705,29.0036v -8.57853" fill="none" stroke="black"/>
<path d="M450.642,24.7143v -4.28927" fill="none" stroke="black"/>
<path d="M458.579,24.7143v -4.28927" fill="none" stroke="black"/>
<path d="M466.516,24.7143v -4.28927" fill="none" stroke="black"/>
<path d="M474.453,24.7143v -4.28927" fill="none" stroke="black"/>
<path d="M482.39,29.0036v -8.57853" fill="none" stroke="black"/>
<path d="M85.5394,359.481v -339.056" fill="none" stroke="black"/>
<path d="M99.6559,359.481h -14.1165" fill="none" stroke="black"/>
<path d="M92.5976,348.18h -7.05827" fill="none" stroke="black"/>
<path d="M92.5976,336.878h -7.05827" fill="none" stroke="black"/>
<path d="M92.5976,325.576h -7.05827" fill="none" stroke="black"/>
<path d="M92.5976,314.274h -7.05827" fill="none" stroke="black"/>
<path d="M99.6559,302.972h -14.1165" fill="none" stroke="black"/>
<path d="M92.5976,291.67h -7.05827" fill="none" stroke="black"/>
<path d="M92.5976,280.368h -7.05827" fill="none" stroke="black"/>
<path d="M92.5976,269.066h -7.05827" fill="none" stroke="black"/>
<path d="M92.5976,257.764h -7.05827" fill="none" stroke="black"/>
<path d="M99.6559,246.463h -14.1165" fill="none" stroke="black"/>
<path d="M92.5976,235.161h -7.05827" fill="none" stroke="black"/>
<path d="M92.5976,223.859h -7.05827" fill="none" stroke="black"/>
<path d="M92.5976,212.557h -7.05827" fill="none" stroke="black"/>
<path d="M92.5976,201.255h -7.05827" fill="none" stroke="black"/>
<path d="M99.6559,189.953h -14.1165" fill="none" stroke="black"/>
<path d="M92.5976,178.651h -7.05827" fill="none" stroke="black"/>
<path d="M92.5976,167.349h -7.05827" fill="none" stroke="black"/>
<path d="M92.5976,156.048h -7.05827" fill="none" stroke="black"/>
<path d="M92.5976,144.746h -7.05827" fill="none" stroke="black"/>
<path d="M99.6559,133.444h -14.1165" fill="none" stroke="black"/>
<path d="M92.5976,122.142h -7.05827" fill="none" stroke="black"/>
<path d="M92.5976,110.84h -7.05827" fill="none" stroke="black"/>
<path d="M92.5976,99.5382h -7.05827" fill="none" stroke="black"/>
<path d="M92.5976,88.2363h -7.05827" fill="none" stroke="black"/>
<path d="M99.6559,76.9345h -14.1165" fill="none" stroke="black"/>
<path d="M92.5976,65.6326h -7.05827" fill="none" stroke="black"/>
<path d="M92.5976,54.3307h -7.05827" fill="none" stroke="black"/>
<path d="M92.5976,43.0288h -7.05827" fill="none" stroke="black"/>
<path d="M92.5976,31.727h -7.05827" fill="none" stroke="black"/>
<path d="M99.6559,20.4251h -14.1165" fill="none" stroke="black"/>
<path d="M99.6559,20.4251h -14.1165" fill="none" stroke="black"/>
<text xml:space="preserve" x="75.0959" y="364.454" fill="black" font-size="13.617" font-family="Helvetica">0</text>
<text xml:space="preserve" x="58.7559" y="307.619" fill="black" font-size="13.617" font-family="Helvetica">0.01</text>
<text xml:space="preserve" x="55.9141" y="250.784" fill="black" font-size="13.617" font-family="Helvetica">0.02</text>
<text xml:space="preserve" x="55.9141" y="194.66" fill="black" font-size="13.617" font-family="Helvetica">0.03</text>
<text xml:space="preserve" x="55.9141" y="137.825" fill="black" font-size="13.617" font-family="Helvetica">0.04</text>
<text xml:space="preserve" x="55.9141" y="81.7003" fill="black" font-size="13.617" font-family="Helvetica">0.05</text>
<text xml:space="preserve" x="55.9141" y="24.8653" fill="black" font-size="13.617" font-family="Helvetica">0.06</text>
<text xml:space="preserve" x="112.039" y="11.367" fill="black" font-size="9.24468" font-family="Helvetica">3</text>
<text xml:space="preserve" x="107.776" y="11.367" fill="black" font-size="9.24468" font-family="Times">&#8722;</text>
<text xml:space="preserve" x="92.8569" y="18.4714" fill="black" font-size="13.617" font-family="Helvetica">10</text>
<text xml:space="preserve" x="85.0421" y="18.4714" fill="black" font-size="13.617" font-family="Times">&#0215;</text>
<g transform="rotate(-90,50.9411,25.5758)">
<text xml:space="preserve" x="50.9411" y="25.5758" fill="black" font-size="9.24468" font-family="Helvetica">T</text>
</g>
<g transform="rotate(-90,43.1263,44.7576)">
<text xml:space="preserve" x="43.1263" y="44.7576" fill="black" font-size="13.617" font-family="Helvetica">/dp</text>
</g>
<g transform="rotate(-90,33.1801,48.3098)">
<text xml:space="preserve" x="33.1801" y="48.3098" fill="black" font-size="6.32979" font-family="Helvetica">0</text>
</g>
<g transform="rotate(-90,36.7323,53.2828)">
<text xml:space="preserve" x="36.7323" y="53.2828" fill="black" font-size="9.24468" font-family="Times">&#0960;</text>
</g>
<g transform="rotate(-90,43.1263,73.8855)">
<text xml:space="preserve" x="43.1263" y="73.8855" fill="black" font-size="13.617" font-family="Helvetica"> dN</text>
</g>
<g transform="rotate(-90,48.0993,96.6195)">
<text xml:space="preserve" x="48.0993" y="96.6195" fill="black" font-size="9.24468" font-family="Helvetica">event</text>
</g>
<g transform="rotate(-90,43.1263,117.222)">
<text xml:space="preserve" x="43.1263" y="117.222" fill="black" font-size="13.617" font-family="Helvetica">1/N</text>
</g>
<path d="M482.39,359.481v -339.056" fill="none" stroke="black"/>
<path d="M468.273,359.481h 14.1165" fill="none" stroke="black"/>
<path d="M475.332,348.18h 7.05827" fill="none" stroke="black"/>
<path d="M475.332,336.878h 7.05827" fill="none" stroke="black"/>
<path d="M475.332,325.576h 7.05827" fill="none" stroke="black"/>
<path d="M475.332,314.274h 7.05827" fill="none" stroke="black"/>
<path d="M468.273,302.972h 14.1165" fill="none" stroke="black"/>
<path d="M475.332,291.67h 7.05827" fill="none" stroke="black"/>
<path d="M475.332,280.368h 7.05827" fill="none" stroke="black"/>
<path d="M475.332,269.066h 7.05827" fill="none" stroke="black"/>
<path d="M475.332,257.764h 7.05827" fill="none" stroke="black"/>
<path d="M468.273,246.463h 14.1165" fill="none" stroke="black"/>
<path d="M475.332,235.161h 7.05827" fill="none" stroke="black"/>
<path d="M475.332,223.859h 7.05827" fill="none" stroke="black"/>
<path d="M475.332,212.557h 7.05827" fill="none" stroke="black"/>
<path d="M475.332,201.255h 7.05827" fill="none" stroke="black"/>
<path d="M468.273,189.953h 14.1165" fill="none" stroke="black"/>
<path d="M475.332,178.651h 7.05827" fill="none" stroke="black"/>
<path d="M475.332,167.349h 7.05827" fill="none" stroke="black"/>
<path d="M475.332,156.048h 7.05827" fill="none" stroke="black"/>
<path d="M475.332,144.746h 7.05827" fill="none" stroke="black"/>
<path d="M468.273,133.444h 14.1165" fill="none" stroke="black"/>
<path d="M475.332,122.142h 7.05827" fill="none" stroke="black"/>
<path d="M475.332,110.84h 7.05827" fill="none" stroke="black"/>
<path d="M475.332,99.5382h 7.05827" fill="none" stroke="black"/>
<path d="M475.332,88.2363h 7.05827" fill="none" stroke="black"/>
<path d="M468.273,76.9345h 14.1165" fill="none" stroke="black"/>
<path d="M475.332,65.6326h 7.05827" fill="none" stroke="black"/>
<path d="M475.332,54.3307h 7.05827" fill="none" stroke="black"/>
<path d="M475.332,43.0288h 7.05827" fill="none" stroke="black"/>
<path d="M475.332,31.727h 7.05827" fill="none" stroke="black"/>
<path d="M468.273,20.4251h 14.1165" fill="none" stroke="black"/>
<path d="M468.273,20.4251h 14.1165" fill="none" stroke="black"/>
<path d="M125.224,110.949v -30.361" fill="none" stroke="black"/>
<path d="M125.224,74.9048v -30.361" fill="none" stroke="black"/>
<path d="M85.5394,77.7465h 36.8433" fill="none" stroke="black"/>
<path d="M128.066,77.7465h 36.8433" fill="none" stroke="black"/>
<g fill="black">
<circle cx="125.224" cy="77.7465" r="2.84175"/>
</g>
<path d="M224.437,348.716v -8.56646" fill="none" stroke="black"/>
<path d="M224.437,334.466v -8.56646" fill="none" stroke="black"/>
<path d="M164.909,337.308h 56.6858" fill="none" stroke="black"/>
<path d="M227.279,337.308h 56.6858" fill="none" stroke="black"/>
<g fill="black">
<circle cx="224.437" cy="337.308" r="2.84175"/>
</g>
<path d="M283.965,359.09h 96.3708" fill="none" stroke="black"/>
<path d="M386.019,359.09h 96.3708" fill="none" stroke="black"/>
<g fill="black">
<circle cx="383.177" cy="359.09" r="2.84175"/>
</g>
<path d="M125.224,124.298v -29.5466" fill="none" stroke="#ff0000"/>
<path d="M125.224,89.0678v -29.5466" fill="none" stroke="#ff0000"/>
<path d="M85.5394,91.9096h 36.8433" fill="none" stroke="#ff0000"/>
<path d="M128.066,91.9096h 36.8433" fill="none" stroke="#ff0000"/>
<g fill="#ff0000">
<rect x="122.383" y="89.0678" width="5.6835" height="5.6835"/>
</g>
<path d="M224.437,349.661v -8.247" fill="none" stroke="#ff0000"/>
<path d="M224.437,335.73v -8.247" fill="none" stroke="#ff0000"/>
<path d="M164.909,338.572h 56.6858" fill="none" stroke="#ff0000"/>
<path d="M227.279,338.572h 56.6858" fill="none" stroke="#ff0000"/>
<g fill="#ff0000">
<rect x="221.595" y="335.73" width="5.6835" height="5.6835"/>
</g>
<path d="M383.177,354.679v -1.54146" fill="none" stroke="#ff0000"/>
<path d="M283.965,357.521h 96.3708" fill="none" stroke="#ff0000"/>
<path d="M386.019,357.521h 96.3708" fill="none" stroke="#ff0000"/>
<g fill="#ff0000">
<rect x="380.335" y="354.679" width="5.6835" height="5.6835"/>
</g>
<path d="M125.224,118.686v -29.9122" fill="none" stroke="#59d354"/>
<path d="M125.224,83.09v -29.9122" fill="none" stroke="#59d354"/>
<path d="M85.5394,85.9318h 38.2642" fill="none" stroke="#59d354"/>
<path d="M126.645,85.9318h 38.2642" fill="none" stroke="#59d354"/>
<g fill="#59d354">
<polygon points=" 125.224, 83.09 128.066, 88.7735 122.383, 88.7735"/>
</g>
<path d="M224.437,346.731v -9.24623" fill="none" stroke="#59d354"/>
<path d="M224.437,331.801v -9.24623" fill="none" stroke="#59d354"/>
<path d="M164.909,334.643h 58.1067" fill="none" stroke="#59d354"/>
<path d="M225.858,334.643h 58.1067" fill="none" stroke="#59d354"/>
<g fill="#59d354">
<polygon points=" 224.437, 331.801 227.279, 337.485 221.595, 337.485"/>
</g>
<path d="M283.965,359.089h 97.7917" fill="none" stroke="#59d354"/>
<path d="M384.598,359.089h 97.7917" fill="none" stroke="#59d354"/>
<g fill="#59d354">
<polygon points=" 383.177, 356.247 386.019, 361.931 380.335, 361.931"/>
</g>
<path d="M125.224,128.169v -29.2823" fill="none" stroke="#0000ff"/>
<path d="M125.224,93.2029v -29.2823" fill="none" stroke="#0000ff"/>
<path d="M85.5394,96.0446h 38.2642" fill="none" stroke="#0000ff"/>
<path d="M126.645,96.0446h 38.2642" fill="none" stroke="#0000ff"/>
<g fill="#0000ff">
<polygon points=" 122.383, 93.2029 128.066, 93.2029 125.224, 98.8864"/>
</g>
<path d="M224.437,355.614v -5.69575" fill="none" stroke="#0000ff"/>
<path d="M224.437,344.235v -5.69575" fill="none" stroke="#0000ff"/>
<path d="M164.909,347.077h 58.1067" fill="none" stroke="#0000ff"/>
<path d="M225.858,347.077h 58.1067" fill="none" stroke="#0000ff"/>
<g fill="#0000ff">
<polygon points=" 221.595, 344.235 227.279, 344.235 224.437, 349.918"/>
</g>
<path d="M383.177,354.681v -1.5379" fill="none" stroke="#0000ff"/>
<path d="M283.965,357.523h 97.7917" fill="none" stroke="#0000ff"/>
<path d="M384.598,357.523h 97.7917" fill="none" stroke="#0000ff"/>
<g fill="#0000ff">
<polygon points=" 380.335, 354.681 386.019, 354.681 383.177, 360.365"/>
</g>
<path d="M125.224,144.569v -28.2083" fill="none" stroke="#ff00ff"/>
<path d="M125.224,110.677v -28.2083" fill="none" stroke="#ff00ff"/>
<path d="M85.5394,113.519h 36.8433" fill="none" stroke="#ff00ff"/>
<path d="M128.066,113.519h 36.8433" fill="none" stroke="#ff00ff"/>
<g fill="#ff00ff">
<polygon points=" 124.277, 112.572 124.277, 110.677 126.172, 110.677 126.172, 112.572 128.066, 112.572 128.066, 114.466 126.172, 114.466 126.172, 116.361 124.277, 116.361 124.277, 114.466 122.383, 114.466 122.383, 112.572"/>
</g>
<path d="M224.437,346.738v -9.23964" fill="none" stroke="#ff00ff"/>
<path d="M224.437,331.815v -9.23964" fill="none" stroke="#ff00ff"/>
<path d="M164.909,334.656h 56.6858" fill="none" stroke="#ff00ff"/>
<path d="M227.279,334.656h 56.6858" fill="none" stroke="#ff00ff"/>
<g fill="#ff00ff">
<polygon points=" 223.49, 333.709 223.49, 331.815 225.384, 331.815 225.384, 333.709 227.279, 333.709 227.279, 335.604 225.384, 335.604 225.384, 337.498 223.49, 337.498 223.49, 335.604 221.595, 335.604 221.595, 333.709"/>
</g>
<path d="M383.177,355.464v -0.552827" fill="none" stroke="#ff00ff"/>
<path d="M283.965,358.305h 96.3708" fill="none" stroke="#ff00ff"/>
<path d="M386.019,358.305h 96.3708" fill="none" stroke="#ff00ff"/>
<g fill="#ff00ff">
<polygon points=" 382.23, 357.358 382.23, 355.464 384.124, 355.464 384.124, 357.358 386.019, 357.358 386.019, 359.253 384.124, 359.253 384.124, 361.147 382.23, 361.147 382.23, 359.253 380.335, 359.253 380.335, 357.358"/>
</g>
<path d="M125.224,164.302v -26.8079" fill="none" stroke="#84c1a3"/>
<path d="M125.224,131.81v -26.8079" fill="none" stroke="#84c1a3"/>
<path d="M85.5394,134.652h 38.2642" fill="none" stroke="#84c1a3"/>
<path d="M126.645,134.652h 38.2642" fill="none" stroke="#84c1a3"/>
<g fill="#84c1a3">
<polygon points=" 125.224, 131.81 127.119, 134.652 125.224, 137.494 123.33, 134.652"/>
</g>
<path d="M224.437,347.261v -9.05028" fill="none" stroke="#84c1a3"/>
<path d="M224.437,332.528v -9.05028" fill="none" stroke="#84c1a3"/>
<path d="M164.909,335.369h 58.1067" fill="none" stroke="#84c1a3"/>
<path d="M225.858,335.369h 58.1067" fill="none" stroke="#84c1a3"/>
<g fill="#84c1a3">
<polygon points=" 224.437, 332.528 226.332, 335.369 224.437, 338.211 222.543, 335.369"/>
</g>
<path d="M383.177,354.685v -1.52985" fill="none" stroke="#84c1a3"/>
<path d="M283.965,357.526h 97.7917" fill="none" stroke="#84c1a3"/>
<path d="M384.598,357.526h 97.7917" fill="none" stroke="#84c1a3"/>
<g fill="#84c1a3">
<polygon points=" 383.177, 354.685 385.072, 357.526 383.177, 360.368 381.283, 357.526"/>
</g>
<path d="M125.224,186.844v -26.6096" fill="none" stroke="#aaa5bf"/>
<path d="M125.224,157.393v -26.6096" fill="none" stroke="#aaa5bf"/>
<path d="M85.5394,158.814h 38.2642" fill="none" stroke="#aaa5bf"/>
<path d="M126.645,158.814h 38.2642" fill="none" stroke="#aaa5bf"/>
<g fill="#aaa5bf">
<polygon points=" 125.224, 160.234 123.804, 161.655 122.383, 160.234 123.804, 158.814 122.383, 157.393 123.804, 155.972 125.224, 157.393 126.645, 155.972 128.066, 157.393 126.645, 158.814 128.066, 160.234 126.645, 161.655 125.224, 160.234"/>
</g>
<path d="M224.437,349.193v -9.82546" fill="none" stroke="#aaa5bf"/>
<path d="M224.437,336.525v -9.82546" fill="none" stroke="#aaa5bf"/>
<path d="M164.909,337.946h 58.1067" fill="none" stroke="#aaa5bf"/>
<path d="M225.858,337.946h 58.1067" fill="none" stroke="#aaa5bf"/>
<g fill="#aaa5bf">
<polygon points=" 224.437, 339.367 223.016, 340.788 221.595, 339.367 223.016, 337.946 221.595, 336.525 223.016, 335.105 224.437, 336.525 225.858, 335.105 227.279, 336.525 225.858, 337.946 227.279, 339.367 225.858, 340.788 224.437, 339.367"/>
</g>
<path d="M383.177,357.669v -0.53686" fill="none" stroke="#aaa5bf"/>
<path d="M283.965,359.09h 97.7917" fill="none" stroke="#aaa5bf"/>
<path d="M384.598,359.09h 97.7917" fill="none" stroke="#aaa5bf"/>
<g fill="#aaa5bf">
<polygon points=" 383.177, 360.511 381.756, 361.932 380.335, 360.511 381.756, 359.09 380.335, 357.669 381.756, 356.248 383.177, 357.669 384.598, 356.248 386.019, 357.669 384.598, 359.09 386.019, 360.511 384.598, 361.932 383.177, 360.511"/>
</g>
<path d="M125.224,214.118v -23.0496" fill="none" stroke="#5954d8"/>
<path d="M125.224,185.385v -23.0496" fill="none" stroke="#5954d8"/>
<path d="M85.5394,188.226h 36.8433" fill="none" stroke="#5954d8"/>
<path d="M128.066,188.226h 36.8433" fill="none" stroke="#5954d8"/>
<g fill="#5954d8">
<polygon points=" 124.277, 187.27 124.277, 185.385 126.172, 185.385 126.172, 187.279 128.066, 187.279 128.066, 189.174 126.172, 189.174 126.172, 191.068 124.277, 191.068 124.277, 189.174 122.383, 189.174 122.383, 187.279 124.277, 187.289 124.277,
 189.174 126.172, 189.174 126.172, 187.279"/>
</g>
<path d="M224.437,352.499v -7.13805" fill="none" stroke="#5954d8"/>
<path d="M224.437,339.677v -7.13805" fill="none" stroke="#5954d8"/>
<path d="M164.909,342.519h 56.6858" fill="none" stroke="#5954d8"/>
<path d="M227.279,342.519h 56.6858" fill="none" stroke="#5954d8"/>
<g fill="#5954d8">
<polygon points=" 223.49, 341.562 223.49, 339.677 225.384, 339.677 225.384, 341.572 227.279, 341.572 227.279, 343.466 225.384, 343.466 225.384, 345.361 223.49, 345.361 223.49, 343.466 221.595, 343.466 221.595, 341.572 223.49, 341.581 223.49, 343.466
 225.384, 343.466 225.384, 341.572"/>
</g>
<path d="M383.177,355.465v -0.54822" fill="none" stroke="#5954d8"/>
<path d="M283.965,358.307h 96.3708" fill="none" stroke="#5954d8"/>
<path d="M386.019,358.307h 96.3708" fill="none" stroke="#5954d8"/>
<g fill="#5954d8">
<polygon points=" 382.23, 357.35 382.23, 355.465 384.124, 355.465 384.124, 357.36 386.019, 357.36 386.019, 359.254 384.124, 359.254 384.124, 361.149 382.23, 361.149 382.23, 359.254 380.335, 359.254 380.335, 357.36 382.23, 357.369 382.23, 359.254
 384.124, 359.254 384.124, 357.36"/>
</g>
<text xml:space="preserve" x="287.517" y="39.7845" fill="black" font-size="15.4909" font-family="Helvetica">PYTHIA8, option3</text>
<text xml:space="preserve" x="409.712" y="56.1246" fill="black" font-size="15.4909" font-family="Helvetica">|&lt;1</text>
<text xml:space="preserve" x="401.187" y="56.1246" fill="black" font-size="15.4909" font-family="Times">&#0951;</text>
<text xml:space="preserve" x="287.517" y="56.1246" fill="black" font-size="15.4909" font-family="Helvetica">p+Au, 200 GeV, |</text>
<text xml:space="preserve" x="325.88" y="72.4646" fill="black" font-size="15.4909" font-family="Helvetica">cent: 0~10%</text>
<g fill="black">
<circle cx="305.224" cy="69.4453" r="2.84175"/>
</g>
<text xml:space="preserve" x="325.88" y="88.8047" fill="black" font-size="15.4909" font-family="Helvetica">cent: 10~20%</text>
<g fill="#ff0000">
<rect x="302.383" y="82.9436" width="5.6835" height="5.6835"/>
</g>
<text xml:space="preserve" x="325.88" y="105.145" fill="black" font-size="15.4909" font-family="Helvetica">cent: 20~30%</text>
<g fill="#59d354">
<polygon points=" 305.224, 99.2836 308.066, 104.967 302.383, 104.967"/>
</g>
<text xml:space="preserve" x="325.88" y="121.485" fill="black" font-size="15.4909" font-family="Helvetica">cent: 30~40%</text>
<g fill="#0000ff">
<polygon points=" 302.383, 115.624 308.066, 115.624 305.224, 121.307"/>
</g>
<text xml:space="preserve" x="325.88" y="137.825" fill="black" font-size="15.4909" font-family="Helvetica">cent: 40~50%</text>
<g fill="#ff00ff">
<polygon points=" 304.277, 133.858 304.277, 131.964 306.172, 131.964 306.172, 133.858 308.066, 133.858 308.066, 135.753 306.172, 135.753 306.172, 137.647 304.277, 137.647 304.277, 135.753 302.383, 135.753 302.383, 133.858"/>
</g>
<text xml:space="preserve" x="325.88" y="154.165" fill="black" font-size="15.4909" font-family="Helvetica">cent: 50~60%</text>
<g fill="#84c1a3">
<polygon points=" 305.224, 148.304 307.119, 151.146 305.224, 153.987 303.33, 151.146"/>
</g>
<text xml:space="preserve" x="325.88" y="170.505" fill="black" font-size="15.4909" font-family="Helvetica">cent: 60~70%</text>
<g fill="#aaa5bf">
<polygon points=" 305.224, 168.907 303.804, 170.327 302.383, 168.907 303.804, 167.486 302.383, 166.065 303.804, 164.644 305.224, 166.065 306.645, 164.644 308.066, 166.065 306.645, 167.486 308.066, 168.907 306.645, 170.327 305.224, 168.907"/>
</g>
<text xml:space="preserve" x="325.88" y="186.845" fill="black" font-size="15.4909" font-family="Helvetica">cent: 70~80%</text>
<g fill="#5954d8">
<polygon points=" 304.277, 182.869 304.277, 180.984 306.172, 180.984 306.172, 182.878 308.066, 182.878 308.066, 184.773 306.172, 184.773 306.172, 186.667 304.277, 186.667 304.277, 184.773 302.383, 184.773 302.383, 182.878 304.277, 182.888 304.277,
 184.773 306.172, 184.773 306.172, 182.878"/>
</g></svg>
