<?xml version="1.0" standalone="no"?>
<svg width="567.429" height="409.002" viewBox="0 0 567.429 409.002" xmlns="http://www.w3.org/2000/svg" shape-rendering="crispEdges">
<title>
/Users/jinhyunpark/npl/gitHub/xloadFromServer/Git_Bias_correction_RxA/plots_dirAdded/yieldOfPion0Dir_centrality_highpT.svg
</title>
<desc>
Creator: ROOT Version 6.28/04
CreationDate: Fri Aug 18 10:56:57 2023</desc>
<defs>
</defs>
<rect x="0.5" y="0" width="566.929" height="408.502" fill="white"/>
<rect x="85.5394" y="20.4251" width="396.85" height="339.056" fill="white"/>
<rect x="85.5394" y="20.4251" width="396.85" height="339.056" fill="none" stroke="black"/>
<rect x="85.5394" y="20.4251" width="396.85" height="339.056" fill="white"/>
<rect x="85.5394" y="20.4251" width="396.85" height="339.056" fill="none" stroke="black"/>
<path d="M85.5394,359.481h 396.85" fill="none" stroke="black"/>
<path d="M85.5394,350.903v 8.57853" fill="none" stroke="black"/>
<path d="M95.4606,355.192v 4.28927" fill="none" stroke="black"/>
<path d="M105.382,355.192v 4.28927" fill="none" stroke="black"/>
<path d="M115.303,355.192v 4.28927" fill="none" stroke="black"/>
<path d="M125.224,355.192v 4.28927" fill="none" stroke="black"/>
<path d="M135.146,350.903v 8.57853" fill="none" stroke="black"/>
<path d="M145.067,355.192v 4.28927" fill="none" stroke="black"/>
<path d="M154.988,355.192v 4.28927" fill="none" stroke="black"/>
<path d="M164.909,355.192v 4.28927" fill="none" stroke="black"/>
<path d="M174.831,355.192v 4.28927" fill="none" stroke="black"/>
<path d="M184.752,350.903v 8.57853" fill="none" stroke="black"/>
<path d="M194.673,355.192v 4.28927" fill="none" stroke="black"/>
<path d="M204.594,355.192v 4.28927" fill="none" stroke="black"/>
<path d="M214.516,355.192v 4.28927" fill="none" stroke="black"/>
<path d="M224.437,355.192v 4.28927" fill="none" stroke="black"/>
<path d="M234.358,350.903v 8.57853" fill="none" stroke="black"/>
<path d="M244.28,355.192v 4.28927" fill="none" stroke="black"/>
<path d="M254.201,355.192v 4.28927" fill="none" stroke="black"/>
<path d="M264.122,355.192v 4.28927" fill="none" stroke="black"/>
<path d="M274.043,355.192v 4.28927" fill="none" stroke="black"/>
<path d="M283.965,350.903v 8.57853" fill="none" stroke="black"/>
<path d="M293.886,355.192v 4.28927" fill="none" stroke="black"/>
<path d="M303.807,355.192v 4.28927" fill="none" stroke="black"/>
<path d="M313.728,355.192v 4.28927" fill="none" stroke="black"/>
<path d="M323.65,355.192v 4.28927" fill="none" stroke="black"/>
<path d="M333.571,350.903v 8.57853" fill="none" stroke="black"/>
<path d="M343.492,355.192v 4.28927" fill="none" stroke="black"/>
<path d="M353.413,355.192v 4.28927" fill="none" stroke="black"/>
<path d="M363.335,355.192v 4.28927" fill="none" stroke="black"/>
<path d="M373.256,355.192v 4.28927" fill="none" stroke="black"/>
<path d="M383.177,350.903v 8.57853" fill="none" stroke="black"/>
<path d="M393.098,355.192v 4.28927" fill="none" stroke="black"/>
<path d="M403.02,355.192v 4.28927" fill="none" stroke="black"/>
<path d="M412.941,355.192v 4.28927" fill="none" stroke="black"/>
<path d="M422.862,355.192v 4.28927" fill="none" stroke="black"/>
<path d="M432.783,350.903v 8.57853" fill="none" stroke="black"/>
<path d="M442.705,355.192v 4.28927" fill="none" stroke="black"/>
<path d="M452.626,355.192v 4.28927" fill="none" stroke="black"/>
<path d="M462.547,355.192v 4.28927" fill="none" stroke="black"/>
<path d="M472.469,355.192v 4.28927" fill="none" stroke="black"/>
<path d="M482.39,350.903v 8.57853" fill="none" stroke="black"/>
<text xml:space="preserve" x="81.4899" y="372.269" fill="black" font-size="13.617" font-family="Helvetica">0</text>
<text xml:space="preserve" x="126.958" y="372.269" fill="black" font-size="13.617" font-family="Helvetica">10</text>
<text xml:space="preserve" x="176.689" y="372.269" fill="black" font-size="13.617" font-family="Helvetica">20</text>
<text xml:space="preserve" x="226.419" y="372.269" fill="black" font-size="13.617" font-family="Helvetica">30</text>
<text xml:space="preserve" x="276.15" y="372.269" fill="black" font-size="13.617" font-family="Helvetica">40</text>
<text xml:space="preserve" x="325.17" y="372.269" fill="black" font-size="13.617" font-family="Helvetica">50</text>
<text xml:space="preserve" x="374.901" y="372.269" fill="black" font-size="13.617" font-family="Helvetica">60</text>
<text xml:space="preserve" x="424.631" y="372.269" fill="black" font-size="13.617" font-family="Helvetica">70</text>
<text xml:space="preserve" x="474.362" y="372.269" fill="black" font-size="13.617" font-family="Helvetica">80</text>
<text xml:space="preserve" x="407.581" y="385.768" fill="black" font-size="13.617" font-family="Helvetica">centrality(%)</text>
<path d="M85.5394,20.4251h 396.85" fill="none" stroke="black"/>
<path d="M85.5394,29.0036v -8.57853" fill="none" stroke="black"/>
<path d="M95.4606,24.7143v -4.28927" fill="none" stroke="black"/>
<path d="M105.382,24.7143v -4.28927" fill="none" stroke="black"/>
<path d="M115.303,24.7143v -4.28927" fill="none" stroke="black"/>
<path d="M125.224,24.7143v -4.28927" fill="none" stroke="black"/>
<path d="M135.146,29.0036v -8.57853" fill="none" stroke="black"/>
<path d="M145.067,24.7143v -4.28927" fill="none" stroke="black"/>
<path d="M154.988,24.7143v -4.28927" fill="none" stroke="black"/>
<path d="M164.909,24.7143v -4.28927" fill="none" stroke="black"/>
<path d="M174.831,24.7143v -4.28927" fill="none" stroke="black"/>
<path d="M184.752,29.0036v -8.57853" fill="none" stroke="black"/>
<path d="M194.673,24.7143v -4.28927" fill="none" stroke="black"/>
<path d="M204.594,24.7143v -4.28927" fill="none" stroke="black"/>
<path d="M214.516,24.7143v -4.28927" fill="none" stroke="black"/>
<path d="M224.437,24.7143v -4.28927" fill="none" stroke="black"/>
<path d="M234.358,29.0036v -8.57853" fill="none" stroke="black"/>
<path d="M244.28,24.7143v -4.28927" fill="none" stroke="black"/>
<path d="M254.201,24.7143v -4.28927" fill="none" stroke="black"/>
<path d="M264.122,24.7143v -4.28927" fill="none" stroke="black"/>
<path d="M274.043,24.7143v -4.28927" fill="none" stroke="black"/>
<path d="M283.965,29.0036v -8.57853" fill="none" stroke="black"/>
<path d="M293.886,24.7143v -4.28927" fill="none" stroke="black"/>
<path d="M303.807,24.7143v -4.28927" fill="none" stroke="black"/>
<path d="M313.728,24.7143v -4.28927" fill="none" stroke="black"/>
<path d="M323.65,24.7143v -4.28927" fill="none" stroke="black"/>
<path d="M333.571,29.0036v -8.57853" fill="none" stroke="black"/>
<path d="M343.492,24.7143v -4.28927" fill="none" stroke="black"/>
<path d="M353.413,24.7143v -4.28927" fill="none" stroke="black"/>
<path d="M363.335,24.7143v -4.28927" fill="none" stroke="black"/>
<path d="M373.256,24.7143v -4.28927" fill="none" stroke="black"/>
<path d="M383.177,29.0036v -8.57853" fill="none" stroke="black"/>
<path d="M393.098,24.7143v -4.28927" fill="none" stroke="black"/>
<path d="M403.02,24.7143v -4.28927" fill="none" stroke="black"/>
<path d="M412.941,24.7143v -4.28927" fill="none" stroke="black"/>
<path d="M422.862,24.7143v -4.28927" fill="none" stroke="black"/>
<path d="M432.783,29.0036v -8.57853" fill="none" stroke="black"/>
<path d="M442.705,24.7143v -4.28927" fill="none" stroke="black"/>
<path d="M452.626,24.7143v -4.28927" fill="none" stroke="black"/>
<path d="M462.547,24.7143v -4.28927" fill="none" stroke="black"/>
<path d="M472.469,24.7143v -4.28927" fill="none" stroke="black"/>
<path d="M482.39,29.0036v -8.57853" fill="none" stroke="black"/>
<path d="M85.5394,359.481v -339.056" fill="none" stroke="black"/>
<path d="M99.6559,359.481h -14.1165" fill="none" stroke="black"/>
<path d="M92.5976,347.372h -7.05827" fill="none" stroke="black"/>
<path d="M92.5976,335.263h -7.05827" fill="none" stroke="black"/>
<path d="M92.5976,323.154h -7.05827" fill="none" stroke="black"/>
<path d="M99.6559,311.045h -14.1165" fill="none" stroke="black"/>
<path d="M92.5976,298.936h -7.05827" fill="none" stroke="black"/>
<path d="M92.5976,286.826h -7.05827" fill="none" stroke="black"/>
<path d="M92.5976,274.717h -7.05827" fill="none" stroke="black"/>
<path d="M99.6559,262.608h -14.1165" fill="none" stroke="black"/>
<path d="M92.5976,250.499h -7.05827" fill="none" stroke="black"/>
<path d="M92.5976,238.39h -7.05827" fill="none" stroke="black"/>
<path d="M92.5976,226.281h -7.05827" fill="none" stroke="black"/>
<path d="M99.6559,214.172h -14.1165" fill="none" stroke="black"/>
<path d="M92.5976,202.062h -7.05827" fill="none" stroke="black"/>
<path d="M92.5976,189.953h -7.05827" fill="none" stroke="black"/>
<path d="M92.5976,177.844h -7.05827" fill="none" stroke="black"/>
<path d="M99.6559,165.735h -14.1165" fill="none" stroke="black"/>
<path d="M92.5976,153.626h -7.05827" fill="none" stroke="black"/>
<path d="M92.5976,141.517h -7.05827" fill="none" stroke="black"/>
<path d="M92.5976,129.407h -7.05827" fill="none" stroke="black"/>
<path d="M99.6559,117.298h -14.1165" fill="none" stroke="black"/>
<path d="M92.5976,105.189h -7.05827" fill="none" stroke="black"/>
<path d="M92.5976,93.08h -7.05827" fill="none" stroke="black"/>
<path d="M92.5976,80.9708h -7.05827" fill="none" stroke="black"/>
<path d="M99.6559,68.8617h -14.1165" fill="none" stroke="black"/>
<path d="M92.5976,56.7525h -7.05827" fill="none" stroke="black"/>
<path d="M92.5976,44.6434h -7.05827" fill="none" stroke="black"/>
<path d="M92.5976,32.5342h -7.05827" fill="none" stroke="black"/>
<path d="M99.6559,20.4251h -14.1165" fill="none" stroke="black"/>
<path d="M99.6559,359.481h -14.1165" fill="none" stroke="black"/>
<text xml:space="preserve" x="63.7289" y="364.454" fill="black" font-size="13.617" font-family="Helvetica">0.6</text>
<text xml:space="preserve" x="63.7289" y="315.434" fill="black" font-size="13.617" font-family="Helvetica">0.8</text>
<text xml:space="preserve" x="77.2272" y="267.835" fill="black" font-size="13.617" font-family="Helvetica">1</text>
<text xml:space="preserve" x="63.7289" y="219.525" fill="black" font-size="13.617" font-family="Helvetica">1.2</text>
<text xml:space="preserve" x="63.7289" y="171.215" fill="black" font-size="13.617" font-family="Helvetica">1.4</text>
<text xml:space="preserve" x="63.7289" y="122.195" fill="black" font-size="13.617" font-family="Helvetica">1.6</text>
<text xml:space="preserve" x="63.7289" y="73.1751" fill="black" font-size="13.617" font-family="Helvetica">1.8</text>
<text xml:space="preserve" x="75.0959" y="25.5758" fill="black" font-size="13.617" font-family="Helvetica">2</text>
<g transform="rotate(-90,51.6515,80.2794)">
<text xml:space="preserve" x="51.6515" y="80.2794" fill="black" font-size="13.617" font-family="Helvetica"> per event</text>
</g>
<g transform="rotate(-90,46.6784,90.936)">
<text xml:space="preserve" x="46.6784" y="90.936" fill="black" font-size="9.24468" font-family="Helvetica">dir</text>
</g>
<g transform="rotate(-90,51.6515,98.0404)">
<text xml:space="preserve" x="51.6515" y="98.0404" fill="black" font-size="13.617" font-family="Times">&#0947;</text>
</g>
<g transform="rotate(-90,51.6515,105.145)">
<text xml:space="preserve" x="51.6515" y="105.145" fill="black" font-size="13.617" font-family="Helvetica">, </text>
</g>
<g transform="rotate(-90,46.6784,110.118)">
<text xml:space="preserve" x="46.6784" y="110.118" fill="black" font-size="9.24468" font-family="Helvetica">0</text>
</g>
<g transform="rotate(-90,51.6515,117.933)">
<text xml:space="preserve" x="51.6515" y="117.933" fill="black" font-size="13.617" font-family="Times">&#0960;</text>
</g>
<g transform="rotate(-90,51.6515,144.929)">
<text xml:space="preserve" x="51.6515" y="144.929" fill="black" font-size="13.617" font-family="Helvetica"># of </text>
</g>
<path d="M482.39,359.481v -339.056" fill="none" stroke="black"/>
<path d="M468.273,359.481h 14.1165" fill="none" stroke="black"/>
<path d="M475.332,347.372h 7.05827" fill="none" stroke="black"/>
<path d="M475.332,335.263h 7.05827" fill="none" stroke="black"/>
<path d="M475.332,323.154h 7.05827" fill="none" stroke="black"/>
<path d="M468.273,311.045h 14.1165" fill="none" stroke="black"/>
<path d="M475.332,298.936h 7.05827" fill="none" stroke="black"/>
<path d="M475.332,286.826h 7.05827" fill="none" stroke="black"/>
<path d="M475.332,274.717h 7.05827" fill="none" stroke="black"/>
<path d="M468.273,262.608h 14.1165" fill="none" stroke="black"/>
<path d="M475.332,250.499h 7.05827" fill="none" stroke="black"/>
<path d="M475.332,238.39h 7.05827" fill="none" stroke="black"/>
<path d="M475.332,226.281h 7.05827" fill="none" stroke="black"/>
<path d="M468.273,214.172h 14.1165" fill="none" stroke="black"/>
<path d="M475.332,202.062h 7.05827" fill="none" stroke="black"/>
<path d="M475.332,189.953h 7.05827" fill="none" stroke="black"/>
<path d="M475.332,177.844h 7.05827" fill="none" stroke="black"/>
<path d="M468.273,165.735h 14.1165" fill="none" stroke="black"/>
<path d="M475.332,153.626h 7.05827" fill="none" stroke="black"/>
<path d="M475.332,141.517h 7.05827" fill="none" stroke="black"/>
<path d="M475.332,129.407h 7.05827" fill="none" stroke="black"/>
<path d="M468.273,117.298h 14.1165" fill="none" stroke="black"/>
<path d="M475.332,105.189h 7.05827" fill="none" stroke="black"/>
<path d="M475.332,93.08h 7.05827" fill="none" stroke="black"/>
<path d="M475.332,80.9708h 7.05827" fill="none" stroke="black"/>
<path d="M468.273,68.8617h 14.1165" fill="none" stroke="black"/>
<path d="M475.332,56.7525h 7.05827" fill="none" stroke="black"/>
<path d="M475.332,44.6434h 7.05827" fill="none" stroke="black"/>
<path d="M475.332,32.5342h 7.05827" fill="none" stroke="black"/>
<path d="M468.273,20.4251h 14.1165" fill="none" stroke="black"/>
<path d="M468.273,359.481h 14.1165" fill="none" stroke="black"/>
<path d="M85.5394,249.42h 23.3823" fill="none" stroke="#ff0000"/>
<path d="M111.763,249.42h 23.3823" fill="none" stroke="#ff0000"/>
<g fill="#ff0000">
<polygon points=" 110.343, 250.855 108.922, 252.262 107.501, 250.841 108.922, 249.42 107.501, 247.999 108.922, 246.578 110.343, 247.999 111.763, 246.578 113.184, 247.999 111.763, 249.42 113.184, 250.841 111.763, 252.262 110.343, 250.827 111.749,
 249.42 110.343, 248.013 108.936, 249.42 110.343, 250.827"/>
</g>
<path d="M159.949,250.586v -0.0317685" fill="none" stroke="#ff0000"/>
<path d="M159.949,247.712v -0.0317685" fill="none" stroke="#ff0000"/>
<path d="M135.146,249.133h 23.3823" fill="none" stroke="#ff0000"/>
<path d="M161.37,249.133h 23.3823" fill="none" stroke="#ff0000"/>
<g fill="#ff0000">
<polygon points=" 159.949, 250.568 158.528, 251.975 157.107, 250.554 158.528, 249.133 157.107, 247.712 158.528, 246.291 159.949, 247.712 161.37, 246.291 162.791, 247.712 161.37, 249.133 162.791, 250.554 161.37, 251.975 159.949, 250.54 161.355,
 249.133 159.949, 247.726 158.542, 249.133 159.949, 250.54"/>
</g>
<path d="M184.752,249.201h 48.1854" fill="none" stroke="#ff0000"/>
<path d="M235.779,249.201h 48.1854" fill="none" stroke="#ff0000"/>
<g fill="#ff0000">
<polygon points=" 234.358, 250.636 232.937, 252.043 231.517, 250.622 232.937, 249.201 231.517, 247.781 232.937, 246.36 234.358, 247.781 235.779, 246.36 237.2, 247.781 235.779, 249.201 237.2, 250.622 235.779, 252.043 234.358, 250.608 235.765, 249.201
 234.358, 247.795 232.952, 249.201 234.358, 250.608"/>
</g>
<path d="M283.965,249.817h 48.1854" fill="none" stroke="#ff0000"/>
<path d="M334.992,249.817h 48.1854" fill="none" stroke="#ff0000"/>
<g fill="#ff0000">
<polygon points=" 333.571, 251.252 332.15, 252.659 330.729, 251.238 332.15, 249.817 330.729, 248.396 332.15, 246.975 333.571, 248.396 334.992, 246.975 336.413, 248.396 334.992, 249.817 336.413, 251.238 334.992, 252.659 333.571, 251.224 334.978,
 249.817 333.571, 248.41 332.164, 249.817 333.571, 251.224"/>
</g>
<path d="M383.177,249.597h 48.1854" fill="none" stroke="#ff0000"/>
<path d="M434.204,249.597h 48.1854" fill="none" stroke="#ff0000"/>
<g fill="#ff0000">
<polygon points=" 432.783, 251.032 431.363, 252.439 429.942, 251.018 431.363, 249.597 429.942, 248.176 431.363, 246.756 432.783, 248.176 434.204, 246.756 435.625, 248.176 434.204, 249.597 435.625, 251.018 434.204, 252.439 432.783, 251.004 434.19,
 249.597 432.783, 248.191 431.377, 249.597 432.783, 251.004"/>
</g>
<path d="M110.343,295.01v -40.4037" fill="none" stroke="#0000ff"/>
<path d="M110.343,248.922v -40.4037" fill="none" stroke="#0000ff"/>
<path d="M85.5394,251.764h 21.9614" fill="none" stroke="#0000ff"/>
<path d="M113.184,251.764h 21.9614" fill="none" stroke="#0000ff"/>
<g fill="#0000ff">
<polygon points=" 109.395, 250.807 109.395, 248.922 111.29, 248.922 111.29, 250.817 113.184, 250.817 113.184, 252.711 111.29, 252.711 111.29, 254.606 109.395, 254.606 109.395, 252.711 107.501, 252.711 107.501, 250.817 109.395, 250.826 109.395,
 252.711 111.29, 252.711 111.29, 250.817"/>
</g>
<path d="M159.949,296.164v -42.625" fill="none" stroke="#0000ff"/>
<path d="M159.949,247.856v -42.625" fill="none" stroke="#0000ff"/>
<path d="M135.146,250.698h 21.9614" fill="none" stroke="#0000ff"/>
<path d="M162.791,250.698h 21.9614" fill="none" stroke="#0000ff"/>
<g fill="#0000ff">
<polygon points=" 159.002, 249.741 159.002, 247.856 160.896, 247.856 160.896, 249.75 162.791, 249.75 162.791, 251.645 160.896, 251.645 160.896, 253.539 159.002, 253.539 159.002, 251.645 157.107, 251.645 157.107, 249.75 159.002, 249.76 159.002,
 251.645 160.896, 251.645 160.896, 249.75"/>
</g>
<path d="M234.358,288.739v -26.851" fill="none" stroke="#0000ff"/>
<path d="M234.358,256.205v -26.851" fill="none" stroke="#0000ff"/>
<path d="M184.752,259.047h 46.7645" fill="none" stroke="#0000ff"/>
<path d="M237.2,259.047h 46.7645" fill="none" stroke="#0000ff"/>
<g fill="#0000ff">
<polygon points=" 233.411, 258.09 233.411, 256.205 235.306, 256.205 235.306, 258.099 237.2, 258.099 237.2, 259.994 235.306, 259.994 235.306, 261.888 233.411, 261.888 233.411, 259.994 231.517, 259.994 231.517, 258.099 233.411, 258.109 233.411, 259.994
 235.306, 259.994 235.306, 258.099"/>
</g>
<path d="M333.571,289.624v -30.9643" fill="none" stroke="#0000ff"/>
<path d="M333.571,252.976v -30.9643" fill="none" stroke="#0000ff"/>
<path d="M283.965,255.818h 46.7645" fill="none" stroke="#0000ff"/>
<path d="M336.413,255.818h 46.7645" fill="none" stroke="#0000ff"/>
<g fill="#0000ff">
<polygon points=" 332.624, 254.861 332.624, 252.976 334.518, 252.976 334.518, 254.871 336.413, 254.871 336.413, 256.765 334.518, 256.765 334.518, 258.66 332.624, 258.66 332.624, 256.765 330.729, 256.765 330.729, 254.871 332.624, 254.88 332.624,
 256.765 334.518, 256.765 334.518, 254.871"/>
</g>
<path d="M432.783,302.972v -37.5221" fill="none" stroke="#0000ff"/>
<path d="M432.783,259.766v -37.5221" fill="none" stroke="#0000ff"/>
<path d="M383.177,262.608h 46.7645" fill="none" stroke="#0000ff"/>
<path d="M435.625,262.608h 46.7645" fill="none" stroke="#0000ff"/>
<g fill="#0000ff">
<polygon points=" 431.836, 261.651 431.836, 259.766 433.731, 259.766 433.731, 261.661 435.625, 261.661 435.625, 263.555 433.731, 263.555 433.731, 265.45 431.836, 265.45 431.836, 263.555 429.942, 263.555 429.942, 261.661 431.836, 261.67 431.836,
 263.555 433.731, 263.555 433.731, 261.661"/>
</g>
<text xml:space="preserve" x="287.517" y="44.0471" fill="black" font-size="11.7432" font-family="Helvetica">PYTHIA8, option3</text>
<text xml:space="preserve" x="287.517" y="68.9124" fill="black" font-size="11.7432" font-family="Helvetica">p+Au, 200 GeV</text>
<text xml:space="preserve" x="364.954" y="90.936" fill="black" font-size="11.7432" font-family="Helvetica">1</text>
<text xml:space="preserve" x="361.402" y="90.936" fill="black" font-size="11.7432" font-family="Times">&#0060;</text>
<text xml:space="preserve" x="359.271" y="90.936" fill="black" font-size="11.7432" font-family="Helvetica">|</text>
<text xml:space="preserve" x="352.877" y="90.936" fill="black" font-size="11.7432" font-family="Times">&#0951;</text>
<text xml:space="preserve" x="308.83" y="90.936" fill="black" font-size="11.7432" font-family="Helvetica"> 2 GeV, |</text>
<text xml:space="preserve" x="302.436" y="90.936" fill="black" font-size="11.7432" font-family="Times">&#8805;</text>
<text xml:space="preserve" x="298.884" y="90.936" fill="black" font-size="11.7432" font-family="Helvetica"> </text>
<text xml:space="preserve" x="293.911" y="98.0404" fill="black" font-size="7.99544" font-family="Helvetica">T</text>
<text xml:space="preserve" x="287.517" y="90.936" fill="black" font-size="11.7432" font-family="Helvetica">p</text>
<text xml:space="preserve" x="332.274" y="115.091" fill="black" font-size="7.99544" font-family="Helvetica">0</text>
<text xml:space="preserve" x="325.88" y="118.643" fill="black" font-size="11.7432" font-family="Times">&#0960;</text>
<g fill="#ff0000">
<polygon points=" 305.224, 115.816 303.804, 117.222 302.383, 115.801 303.804, 114.38 302.383, 112.96 303.804, 111.539 305.224, 112.96 306.645, 111.539 308.066, 112.96 306.645, 114.38 308.066, 115.801 306.645, 117.222 305.224, 115.787 306.631, 114.38
 305.224, 112.974 303.818, 114.38 305.224, 115.787"/>
</g>
<text xml:space="preserve" x="331.564" y="137.825" fill="black" font-size="7.99544" font-family="Helvetica">dir</text>
<text xml:space="preserve" x="325.88" y="142.798" fill="black" font-size="11.7432" font-family="Times">&#0947;</text>
<g fill="#0000ff">
<polygon points=" 304.277, 137.934 304.277, 136.049 306.172, 136.049 306.172, 137.943 308.066, 137.943 308.066, 139.838 306.172, 139.838 306.172, 141.732 304.277, 141.732 304.277, 139.838 302.383, 139.838 302.383, 137.943 304.277, 137.953 304.277,
 139.838 306.172, 139.838 306.172, 137.943"/>
</g></svg>
