<svg width="800" height="513" xmlns="http://www.w3.org/2000/svg"><path d="M0,0H800V513H0Z" style="pointer-events: visiblefill; fill: rgb(255, 255, 255);"></path><g><g transform="translate(96,51)"><title></title><path d="M0,0H608V400H0Z" style="fill: rgb(255, 255, 255); stroke: rgb(0, 0, 0); stroke-width: 1; pointer-events: visiblefill; cursor: default;"></path><svg x="0" y="0" overflow="hidden" width="608" height="400" viewBox="0 0 608 400" style="pointer-events: visiblefill; cursor: default;"><g><path d="M0,291h62M31,291v0M61,291h62M92,291v0M122,291h60M152,291v0M182,291h62M213,291v0M243,291h62M274,291v0M304,291h62M335,291v0M365,291h62M396,291v0M426,291h60M456,291v0M486,291h62M517,291v0M547,291h62M578,291v0M608,363h62M639,363v0" style="stroke: rgb(255, 0, 0); stroke-width: 1;"></path><path d="M0,291h62v0h-62zM61,291h62v0h-62zM122,291h60v0h-60zM182,291h62v0h-62zM243,291h62v0h-62zM304,291h62v0h-62zM365,291h62v0h-62zM426,291h60v0h-60zM486,291h62v0h-62zM547,291h62v0h-62zM608,363h62v0h-62z" style="fill: none; pointer-events: visiblefill;"></path><path d="M27,287v8h8v-8zM88,287v8h8v-8zM148,287v8h8v-8zM209,287v8h8v-8zM270,287v8h8v-8zM331,287v8h8v-8zM392,287v8h8v-8zM452,287v8h8v-8zM513,287v8h8v-8zM574,287v8h8v-8zM635,359v8h8v-8z" style="stroke: rgb(255, 0, 0); fill: none;"></path></g></svg><g><g transform="translate(0,400)"><path d="M0,0h608M0,-400h608M0,-15V0M12,-8V0M24,-8V0M36,-8V0M49,-8V0M61,-15V0M73,-8V0M85,-8V0M97,-8V0M109,-8V0M122,-15V0M134,-8V0M146,-8V0M158,-8V0M170,-8V0M182,-15V0M195,-8V0M207,-8V0M219,-8V0M231,-8V0M243,-15V0M255,-8V0M268,-8V0M280,-8V0M292,-8V0M304,-15V0M316,-8V0M328,-8V0M340,-8V0M353,-8V0M365,-15V0M377,-8V0M389,-8V0M401,-8V0M413,-8V0M426,-15V0M438,-8V0M450,-8V0M462,-8V0M474,-8V0M486,-15V0M499,-8V0M511,-8V0M523,-8V0M535,-8V0M547,-15V0M559,-8V0M572,-8V0M584,-8V0M596,-8V0M608,-15V0M0,-385V-400M12,-392V-400M24,-392V-400M36,-392V-400M49,-392V-400M61,-385V-400M73,-392V-400M85,-392V-400M97,-392V-400M109,-392V-400M122,-385V-400M134,-392V-400M146,-392V-400M158,-392V-400M170,-392V-400M182,-385V-400M195,-392V-400M207,-392V-400M219,-392V-400M231,-392V-400M243,-385V-400M255,-392V-400M268,-392V-400M280,-392V-400M292,-392V-400M304,-385V-400M316,-392V-400M328,-392V-400M340,-392V-400M353,-392V-400M365,-385V-400M377,-392V-400M389,-392V-400M401,-392V-400M413,-392V-400M426,-385V-400M438,-392V-400M450,-392V-400M462,-392V-400M474,-392V-400M486,-385V-400M499,-392V-400M511,-392V-400M523,-392V-400M535,-392V-400M547,-385V-400M559,-392V-400M572,-392V-400M584,-392V-400M596,-392V-400M608,-385V-400" style="stroke: rgb(0, 0, 0); stroke-width: 1;"></path><g font-family="Arial" font-size="21" xml:space="preserve" fill="#000000" text-anchor="middle"><text dy=".8em" transform="translate(0,3)">0</text><text dy=".8em" transform="translate(61,3)">10</text><text dy=".8em" transform="translate(122,3)">20</text><text dy=".8em" transform="translate(182,3)">30</text><text dy=".8em" transform="translate(243,3)">40</text><text dy=".8em" transform="translate(304,3)">50</text><text dy=".8em" transform="translate(365,3)">60</text><text dy=".8em" transform="translate(426,3)">70</text><text dy=".8em" transform="translate(486,3)">80</text><text dy=".8em" transform="translate(547,3)">90</text><text dy=".8em" transform="translate(608,3)">100</text></g><rect x="0" y="0" width="608" height="24" style="opacity: 0; cursor: crosshair;"></rect><g font-family="Arial" font-size="26" xml:space="preserve" transform="translate(608,46)" style="cursor: move;"><text fill="#000000" text-anchor="end" dominant-baseline="middle">centrality(%)</text></g></g><g><path d="M0,0v400M608,0v400M12,400H0M12,386H0M24,371H0M12,357H0M12,343H0M12,329H0M24,314H0M12,300H0M12,286H0M12,271H0M24,257H0M12,243H0M12,229H0M12,214H0M24,200H0M12,186H0M12,171H0M12,157H0M24,143H0M12,129H0M12,114H0M12,100H0M24,86H0M12,71H0M12,57H0M12,43H0M24,29H0M12,14H0M12,0H0M596,400H608M596,386H608M584,371H608M596,357H608M596,343H608M596,329H608M584,314H608M596,300H608M596,286H608M596,271H608M584,257H608M596,243H608M596,229H608M596,214H608M584,200H608M596,186H608M596,171H608M596,157H608M584,143H608M596,129H608M596,114H608M596,100H608M584,86H608M596,71H608M596,57H608M596,43H608M584,29H608M596,14H608M596,0H608" style="stroke: rgb(0, 0, 0); stroke-width: 1;"></path><g font-family="Arial" font-size="21" xml:space="preserve"><text fill="#000000" text-anchor="end" dominant-baseline="middle" transform="translate(-4,371)">20</text><text fill="#000000" text-anchor="end" dominant-baseline="middle" transform="translate(-4,314)">40</text><text fill="#000000" text-anchor="end" dominant-baseline="middle" transform="translate(-4,257)">60</text><text fill="#000000" text-anchor="end" dominant-baseline="middle" transform="translate(-4,200)">80</text><text fill="#000000" text-anchor="end" dominant-baseline="middle" transform="translate(-4,143)">100</text><text fill="#000000" text-anchor="end" dominant-baseline="middle" transform="translate(-4,86)">120</text><text fill="#000000" text-anchor="end" dominant-baseline="middle" transform="translate(-4,29)">140</text><g transform="translate(5,-8)"><text fill="#000000" font-size="21">×10</text><text fill="#000000" font-size="13" transform="translate(36,-11)">6</text></g></g><rect x="-38" y="0" width="38" height="400" style="opacity: 0; cursor: crosshair;"></rect><g font-family="Arial" font-size="26" xml:space="preserve" transform="translate(-63)" style="cursor: move;"><g transform="rotate(270) translate(-127,9)"><text fill="#000000" font-size="26"># of events</text></g></g></g></g><path d="M2,2h15v-5h-20v20h5Z" style="opacity: 0; cursor: nw-resize;"></path><path d="M606,2h-15v-5h20v20h-5 Z" style="opacity: 0; cursor: ne-resize;"></path><path d="M2,398h15v5h-20v-20h5Z" style="opacity: 0; cursor: sw-resize;"></path><path d="M606,398h-15v5h20v-20h-5Z" style="opacity: 0; cursor: se-resize;"></path><path d="M-3,18h5v364h-5Z" style="opacity: 0; cursor: w-resize;"></path><path d="M611,18h-5v364h5Z" style="opacity: 0; cursor: e-resize;"></path><path d="M18,-3v5h572v-5Z" style="opacity: 0; cursor: n-resize;"></path><path d="M18,403v-5h572v5Z" style="opacity: 0; cursor: s-resize;"></path></g><g transform="translate(152,51)" font-family="Arial" font-size="21" xml:space="preserve" style="cursor: move;"><path d="M0,0H208V154H0Z" style="fill: none; pointer-events: visiblefill;"></path><text fill="#000000" text-anchor="start" dominant-baseline="middle" transform="translate(6,29)">PYTHIA8, p+Au 200 GeV, option3</text><text fill="#000000" text-anchor="start" dominant-baseline="middle" transform="translate(6,77)">centrality categorization check</text><g transform="translate(6,129)"><text fill="#000000" font-size="21">Events classified by using</text><g transform="translate(248)"><path d="M21,-27h-21l8,11l-8,25h21" style="stroke: rgb(0, 0, 0); stroke-width: 1; fill: none;"></path></g><text fill="#000000" font-size="21" x="269">p</text><text fill="#000000" font-size="13" transform="translate(281,-11)">ch</text><text fill="#000000" font-size="13" transform="translate(281,4)">T</text><text fill="#000000" font-size="21" x="302">in -3.9 &lt; η &lt; -3.0</text></g><path d="M2,2h15v-5h-20v20h5Z" style="opacity: 0; cursor: nw-resize;"></path><path d="M206,2h-15v-5h20v20h-5 Z" style="opacity: 0; cursor: ne-resize;"></path><path d="M2,152h15v5h-20v-20h5Z" style="opacity: 0; cursor: sw-resize;"></path><path d="M206,152h-15v5h20v-20h-5Z" style="opacity: 0; cursor: se-resize;"></path><path d="M-3,18h5v118h-5Z" style="opacity: 0; cursor: w-resize;"></path><path d="M211,18h-5v118h5Z" style="opacity: 0; cursor: e-resize;"></path><path d="M18,-3v5h172v-5Z" style="opacity: 0; cursor: n-resize;"></path><path d="M18,157v-5h172v5Z" style="opacity: 0; cursor: s-resize;"></path></g></g></svg>