<?xml version="1.0" standalone="no"?>
<svg width="567.429" height="409.002" viewBox="0 0 567.429 409.002" xmlns="http://www.w3.org/2000/svg" shape-rendering="crispEdges">
<title>
/Users/jinhyunpark/npl/gitHub/Centrality_dependent_BiasCorrection/plots/centrality_check_histigram.svg
</title>
<desc>
Creator: ROOT Version 6.28/04
CreationDate: Tue Oct 10 00:36:09 2023</desc>
<defs>
</defs>
<rect x="0.5" y="0" width="566.929" height="408.502" fill="white"/>
<rect x="85.5394" y="20.4251" width="396.85" height="339.056" fill="white"/>
<rect x="85.5394" y="20.4251" width="396.85" height="339.056" fill="none" stroke="black"/>
<rect x="85.5394" y="20.4251" width="396.85" height="339.056" fill="white"/>
<rect x="85.5394" y="20.4251" width="396.85" height="339.056" fill="none" stroke="black"/>
<path d="M85.5394,359.481h 396.85" fill="none" stroke="black"/>
<path d="M85.5394,350.903v 8.57853" fill="none" stroke="black"/>
<path d="M93.4764,355.192v 4.28927" fill="none" stroke="black"/>
<path d="M101.413,355.192v 4.28927" fill="none" stroke="black"/>
<path d="M109.35,355.192v 4.28927" fill="none" stroke="black"/>
<path d="M117.287,355.192v 4.28927" fill="none" stroke="black"/>
<path d="M125.224,350.903v 8.57853" fill="none" stroke="black"/>
<path d="M133.161,355.192v 4.28927" fill="none" stroke="black"/>
<path d="M141.098,355.192v 4.28927" fill="none" stroke="black"/>
<path d="M149.035,355.192v 4.28927" fill="none" stroke="black"/>
<path d="M156.972,355.192v 4.28927" fill="none" stroke="black"/>
<path d="M164.909,350.903v 8.57853" fill="none" stroke="black"/>
<path d="M172.846,355.192v 4.28927" fill="none" stroke="black"/>
<path d="M180.783,355.192v 4.28927" fill="none" stroke="black"/>
<path d="M188.72,355.192v 4.28927" fill="none" stroke="black"/>
<path d="M196.657,355.192v 4.28927" fill="none" stroke="black"/>
<path d="M204.594,350.903v 8.57853" fill="none" stroke="black"/>
<path d="M212.531,355.192v 4.28927" fill="none" stroke="black"/>
<path d="M220.469,355.192v 4.28927" fill="none" stroke="black"/>
<path d="M228.406,355.192v 4.28927" fill="none" stroke="black"/>
<path d="M236.343,355.192v 4.28927" fill="none" stroke="black"/>
<path d="M244.28,350.903v 8.57853" fill="none" stroke="black"/>
<path d="M252.217,355.192v 4.28927" fill="none" stroke="black"/>
<path d="M260.154,355.192v 4.28927" fill="none" stroke="black"/>
<path d="M268.091,355.192v 4.28927" fill="none" stroke="black"/>
<path d="M276.028,355.192v 4.28927" fill="none" stroke="black"/>
<path d="M283.965,350.903v 8.57853" fill="none" stroke="black"/>
<path d="M291.902,355.192v 4.28927" fill="none" stroke="black"/>
<path d="M299.839,355.192v 4.28927" fill="none" stroke="black"/>
<path d="M307.776,355.192v 4.28927" fill="none" stroke="black"/>
<path d="M315.713,355.192v 4.28927" fill="none" stroke="black"/>
<path d="M323.65,350.903v 8.57853" fill="none" stroke="black"/>
<path d="M331.587,355.192v 4.28927" fill="none" stroke="black"/>
<path d="M339.524,355.192v 4.28927" fill="none" stroke="black"/>
<path d="M347.461,355.192v 4.28927" fill="none" stroke="black"/>
<path d="M355.398,355.192v 4.28927" fill="none" stroke="black"/>
<path d="M363.335,350.903v 8.57853" fill="none" stroke="black"/>
<path d="M371.272,355.192v 4.28927" fill="none" stroke="black"/>
<path d="M379.209,355.192v 4.28927" fill="none" stroke="black"/>
<path d="M387.146,355.192v 4.28927" fill="none" stroke="black"/>
<path d="M395.083,355.192v 4.28927" fill="none" stroke="black"/>
<path d="M403.02,350.903v 8.57853" fill="none" stroke="black"/>
<path d="M410.957,355.192v 4.28927" fill="none" stroke="black"/>
<path d="M418.894,355.192v 4.28927" fill="none" stroke="black"/>
<path d="M426.831,355.192v 4.28927" fill="none" stroke="black"/>
<path d="M434.768,355.192v 4.28927" fill="none" stroke="black"/>
<path d="M442.705,350.903v 8.57853" fill="none" stroke="black"/>
<path d="M450.642,355.192v 4.28927" fill="none" stroke="black"/>
<path d="M458.579,355.192v 4.28927" fill="none" stroke="black"/>
<path d="M466.516,355.192v 4.28927" fill="none" stroke="black"/>
<path d="M474.453,355.192v 4.28927" fill="none" stroke="black"/>
<path d="M482.39,350.903v 8.57853" fill="none" stroke="black"/>
<text xml:space="preserve" x="80.7794" y="374.401" fill="black" font-size="15.4909" font-family="Helvetica">0</text>
<text xml:space="preserve" x="116.301" y="374.401" fill="black" font-size="15.4909" font-family="Helvetica">10</text>
<text xml:space="preserve" x="156.086" y="374.401" fill="black" font-size="15.4909" font-family="Helvetica">20</text>
<text xml:space="preserve" x="195.87" y="374.401" fill="black" font-size="15.4909" font-family="Helvetica">30</text>
<text xml:space="preserve" x="235.655" y="374.401" fill="black" font-size="15.4909" font-family="Helvetica">40</text>
<text xml:space="preserve" x="275.439" y="374.401" fill="black" font-size="15.4909" font-family="Helvetica">50</text>
<text xml:space="preserve" x="314.513" y="374.401" fill="black" font-size="15.4909" font-family="Helvetica">60</text>
<text xml:space="preserve" x="354.298" y="374.401" fill="black" font-size="15.4909" font-family="Helvetica">70</text>
<text xml:space="preserve" x="394.082" y="374.401" fill="black" font-size="15.4909" font-family="Helvetica">80</text>
<text xml:space="preserve" x="433.867" y="374.401" fill="black" font-size="15.4909" font-family="Helvetica">90</text>
<text xml:space="preserve" x="470.099" y="374.401" fill="black" font-size="15.4909" font-family="Helvetica">100</text>
<text xml:space="preserve" x="405.449" y="400.687" fill="black" font-size="19.2386" font-family="Helvetica">centrality</text>
<path d="M85.5394,20.4251h 396.85" fill="none" stroke="black"/>
<path d="M85.5394,29.0036v -8.57853" fill="none" stroke="black"/>
<path d="M93.4764,24.7143v -4.28927" fill="none" stroke="black"/>
<path d="M101.413,24.7143v -4.28927" fill="none" stroke="black"/>
<path d="M109.35,24.7143v -4.28927" fill="none" stroke="black"/>
<path d="M117.287,24.7143v -4.28927" fill="none" stroke="black"/>
<path d="M125.224,29.0036v -8.57853" fill="none" stroke="black"/>
<path d="M133.161,24.7143v -4.28927" fill="none" stroke="black"/>
<path d="M141.098,24.7143v -4.28927" fill="none" stroke="black"/>
<path d="M149.035,24.7143v -4.28927" fill="none" stroke="black"/>
<path d="M156.972,24.7143v -4.28927" fill="none" stroke="black"/>
<path d="M164.909,29.0036v -8.57853" fill="none" stroke="black"/>
<path d="M172.846,24.7143v -4.28927" fill="none" stroke="black"/>
<path d="M180.783,24.7143v -4.28927" fill="none" stroke="black"/>
<path d="M188.72,24.7143v -4.28927" fill="none" stroke="black"/>
<path d="M196.657,24.7143v -4.28927" fill="none" stroke="black"/>
<path d="M204.594,29.0036v -8.57853" fill="none" stroke="black"/>
<path d="M212.531,24.7143v -4.28927" fill="none" stroke="black"/>
<path d="M220.469,24.7143v -4.28927" fill="none" stroke="black"/>
<path d="M228.406,24.7143v -4.28927" fill="none" stroke="black"/>
<path d="M236.343,24.7143v -4.28927" fill="none" stroke="black"/>
<path d="M244.28,29.0036v -8.57853" fill="none" stroke="black"/>
<path d="M252.217,24.7143v -4.28927" fill="none" stroke="black"/>
<path d="M260.154,24.7143v -4.28927" fill="none" stroke="black"/>
<path d="M268.091,24.7143v -4.28927" fill="none" stroke="black"/>
<path d="M276.028,24.7143v -4.28927" fill="none" stroke="black"/>
<path d="M283.965,29.0036v -8.57853" fill="none" stroke="black"/>
<path d="M291.902,24.7143v -4.28927" fill="none" stroke="black"/>
<path d="M299.839,24.7143v -4.28927" fill="none" stroke="black"/>
<path d="M307.776,24.7143v -4.28927" fill="none" stroke="black"/>
<path d="M315.713,24.7143v -4.28927" fill="none" stroke="black"/>
<path d="M323.65,29.0036v -8.57853" fill="none" stroke="black"/>
<path d="M331.587,24.7143v -4.28927" fill="none" stroke="black"/>
<path d="M339.524,24.7143v -4.28927" fill="none" stroke="black"/>
<path d="M347.461,24.7143v -4.28927" fill="none" stroke="black"/>
<path d="M355.398,24.7143v -4.28927" fill="none" stroke="black"/>
<path d="M363.335,29.0036v -8.57853" fill="none" stroke="black"/>
<path d="M371.272,24.7143v -4.28927" fill="none" stroke="black"/>
<path d="M379.209,24.7143v -4.28927" fill="none" stroke="black"/>
<path d="M387.146,24.7143v -4.28927" fill="none" stroke="black"/>
<path d="M395.083,24.7143v -4.28927" fill="none" stroke="black"/>
<path d="M403.02,29.0036v -8.57853" fill="none" stroke="black"/>
<path d="M410.957,24.7143v -4.28927" fill="none" stroke="black"/>
<path d="M418.894,24.7143v -4.28927" fill="none" stroke="black"/>
<path d="M426.831,24.7143v -4.28927" fill="none" stroke="black"/>
<path d="M434.768,24.7143v -4.28927" fill="none" stroke="black"/>
<path d="M442.705,29.0036v -8.57853" fill="none" stroke="black"/>
<path d="M450.642,24.7143v -4.28927" fill="none" stroke="black"/>
<path d="M458.579,24.7143v -4.28927" fill="none" stroke="black"/>
<path d="M466.516,24.7143v -4.28927" fill="none" stroke="black"/>
<path d="M474.453,24.7143v -4.28927" fill="none" stroke="black"/>
<path d="M482.39,29.0036v -8.57853" fill="none" stroke="black"/>
<path d="M85.5394,359.481v -339.056" fill="none" stroke="black"/>
<path d="M99.6559,335.263h -14.1165" fill="none" stroke="black"/>
<path d="M92.5976,323.154h -7.05827" fill="none" stroke="black"/>
<path d="M92.5976,311.045h -7.05827" fill="none" stroke="black"/>
<path d="M92.5976,298.936h -7.05827" fill="none" stroke="black"/>
<path d="M99.6559,286.826h -14.1165" fill="none" stroke="black"/>
<path d="M92.5976,274.717h -7.05827" fill="none" stroke="black"/>
<path d="M92.5976,262.608h -7.05827" fill="none" stroke="black"/>
<path d="M92.5976,250.499h -7.05827" fill="none" stroke="black"/>
<path d="M99.6559,238.39h -14.1165" fill="none" stroke="black"/>
<path d="M92.5976,226.281h -7.05827" fill="none" stroke="black"/>
<path d="M92.5976,214.172h -7.05827" fill="none" stroke="black"/>
<path d="M92.5976,202.062h -7.05827" fill="none" stroke="black"/>
<path d="M99.6559,189.953h -14.1165" fill="none" stroke="black"/>
<path d="M92.5976,177.844h -7.05827" fill="none" stroke="black"/>
<path d="M92.5976,165.735h -7.05827" fill="none" stroke="black"/>
<path d="M92.5976,153.626h -7.05827" fill="none" stroke="black"/>
<path d="M99.6559,141.517h -14.1165" fill="none" stroke="black"/>
<path d="M92.5976,129.407h -7.05827" fill="none" stroke="black"/>
<path d="M92.5976,117.298h -7.05827" fill="none" stroke="black"/>
<path d="M92.5976,105.189h -7.05827" fill="none" stroke="black"/>
<path d="M99.6559,93.08h -14.1165" fill="none" stroke="black"/>
<path d="M92.5976,80.9708h -7.05827" fill="none" stroke="black"/>
<path d="M92.5976,68.8617h -7.05827" fill="none" stroke="black"/>
<path d="M92.5976,56.7525h -7.05827" fill="none" stroke="black"/>
<path d="M99.6559,44.6434h -14.1165" fill="none" stroke="black"/>
<path d="M99.6559,335.263h -14.1165" fill="none" stroke="black"/>
<path d="M92.5976,347.372h -7.05827" fill="none" stroke="black"/>
<path d="M99.6559,44.6434h -14.1165" fill="none" stroke="black"/>
<path d="M92.5976,32.5342h -7.05827" fill="none" stroke="black"/>
<path d="M92.5976,20.4251h -7.05827" fill="none" stroke="black"/>
<text xml:space="preserve" x="65.8603" y="340.3" fill="black" font-size="15.4909" font-family="Helvetica">20</text>
<text xml:space="preserve" x="65.8603" y="291.99" fill="black" font-size="15.4909" font-family="Helvetica">40</text>
<text xml:space="preserve" x="65.8603" y="243.68" fill="black" font-size="15.4909" font-family="Helvetica">60</text>
<text xml:space="preserve" x="65.8603" y="195.37" fill="black" font-size="15.4909" font-family="Helvetica">80</text>
<text xml:space="preserve" x="58.0454" y="147.061" fill="black" font-size="15.4909" font-family="Helvetica">100</text>
<text xml:space="preserve" x="58.0454" y="98.7508" fill="black" font-size="15.4909" font-family="Helvetica">120</text>
<text xml:space="preserve" x="58.0454" y="49.7306" fill="black" font-size="15.4909" font-family="Helvetica">140</text>
<text xml:space="preserve" x="109.907" y="11.367" fill="black" font-size="10.4939" font-family="Helvetica">6</text>
<text xml:space="preserve" x="93.5673" y="18.4714" fill="black" font-size="15.4909" font-family="Helvetica">10</text>
<text xml:space="preserve" x="85.0421" y="18.4714" fill="black" font-size="15.4909" font-family="Times">&#0215;</text>
<g transform="rotate(-90,38.8636,113.67)">
<text xml:space="preserve" x="38.8636" y="113.67" fill="black" font-size="19.2386" font-family="Helvetica"># of events</text>
</g>
<path d="M482.39,359.481v -339.056" fill="none" stroke="black"/>
<path d="M468.273,335.263h 14.1165" fill="none" stroke="black"/>
<path d="M475.332,323.154h 7.05827" fill="none" stroke="black"/>
<path d="M475.332,311.045h 7.05827" fill="none" stroke="black"/>
<path d="M475.332,298.936h 7.05827" fill="none" stroke="black"/>
<path d="M468.273,286.826h 14.1165" fill="none" stroke="black"/>
<path d="M475.332,274.717h 7.05827" fill="none" stroke="black"/>
<path d="M475.332,262.608h 7.05827" fill="none" stroke="black"/>
<path d="M475.332,250.499h 7.05827" fill="none" stroke="black"/>
<path d="M468.273,238.39h 14.1165" fill="none" stroke="black"/>
<path d="M475.332,226.281h 7.05827" fill="none" stroke="black"/>
<path d="M475.332,214.172h 7.05827" fill="none" stroke="black"/>
<path d="M475.332,202.062h 7.05827" fill="none" stroke="black"/>
<path d="M468.273,189.953h 14.1165" fill="none" stroke="black"/>
<path d="M475.332,177.844h 7.05827" fill="none" stroke="black"/>
<path d="M475.332,165.735h 7.05827" fill="none" stroke="black"/>
<path d="M475.332,153.626h 7.05827" fill="none" stroke="black"/>
<path d="M468.273,141.517h 14.1165" fill="none" stroke="black"/>
<path d="M475.332,129.407h 7.05827" fill="none" stroke="black"/>
<path d="M475.332,117.298h 7.05827" fill="none" stroke="black"/>
<path d="M475.332,105.189h 7.05827" fill="none" stroke="black"/>
<path d="M468.273,93.08h 14.1165" fill="none" stroke="black"/>
<path d="M475.332,80.9708h 7.05827" fill="none" stroke="black"/>
<path d="M475.332,68.8617h 7.05827" fill="none" stroke="black"/>
<path d="M475.332,56.7525h 7.05827" fill="none" stroke="black"/>
<path d="M468.273,44.6434h 14.1165" fill="none" stroke="black"/>
<path d="M468.273,335.263h 14.1165" fill="none" stroke="black"/>
<path d="M475.332,347.372h 7.05827" fill="none" stroke="black"/>
<path d="M468.273,44.6434h 14.1165" fill="none" stroke="black"/>
<path d="M475.332,32.5342h 7.05827" fill="none" stroke="black"/>
<path d="M475.332,20.4251h 7.05827" fill="none" stroke="black"/>
<path d="M85.5394,267.099h 17.0008" fill="none" stroke="#ff0000"/>
<path d="M108.224,267.099h 17.0008" fill="none" stroke="#ff0000"/>
<g stroke="#ff0000" stroke-width="1" fill="none">
<rect x="102.54" y="264.257" width="5.6835" height="5.6835"/>
</g>
<path d="M125.224,267.301h 17.0008" fill="none" stroke="#ff0000"/>
<path d="M147.909,267.301h 17.0008" fill="none" stroke="#ff0000"/>
<g stroke="#ff0000" stroke-width="1" fill="none">
<rect x="142.225" y="264.459" width="5.6835" height="5.6835"/>
</g>
<path d="M164.909,267.358h 17.0008" fill="none" stroke="#ff0000"/>
<path d="M187.594,267.358h 17.0008" fill="none" stroke="#ff0000"/>
<g stroke="#ff0000" stroke-width="1" fill="none">
<rect x="181.91" y="264.516" width="5.6835" height="5.6835"/>
</g>
<path d="M204.594,267.151h 17.0008" fill="none" stroke="#ff0000"/>
<path d="M227.279,267.151h 17.0008" fill="none" stroke="#ff0000"/>
<g stroke="#ff0000" stroke-width="1" fill="none">
<rect x="221.595" y="264.309" width="5.6835" height="5.6835"/>
</g>
<path d="M244.28,267.316h 17.0008" fill="none" stroke="#ff0000"/>
<path d="M266.964,267.316h 17.0008" fill="none" stroke="#ff0000"/>
<g stroke="#ff0000" stroke-width="1" fill="none">
<rect x="261.28" y="264.474" width="5.6835" height="5.6835"/>
</g>
<path d="M283.965,267.109h 17.0008" fill="none" stroke="#ff0000"/>
<path d="M306.649,267.109h 17.0008" fill="none" stroke="#ff0000"/>
<g stroke="#ff0000" stroke-width="1" fill="none">
<rect x="300.965" y="264.267" width="5.6835" height="5.6835"/>
</g>
<path d="M323.65,267.207h 17.0008" fill="none" stroke="#ff0000"/>
<path d="M346.334,267.207h 17.0008" fill="none" stroke="#ff0000"/>
<g stroke="#ff0000" stroke-width="1" fill="none">
<rect x="340.65" y="264.365" width="5.6835" height="5.6835"/>
</g>
<path d="M363.335,267.207h 17.0008" fill="none" stroke="#ff0000"/>
<path d="M386.019,267.207h 17.0008" fill="none" stroke="#ff0000"/>
<g stroke="#ff0000" stroke-width="1" fill="none">
<rect x="380.335" y="264.366" width="5.6835" height="5.6835"/>
</g>
<path d="M403.02,267.254h 17.0008" fill="none" stroke="#ff0000"/>
<path d="M425.704,267.254h 17.0008" fill="none" stroke="#ff0000"/>
<g stroke="#ff0000" stroke-width="1" fill="none">
<rect x="420.02" y="264.412" width="5.6835" height="5.6835"/>
</g>
<path d="M442.705,267.237h 17.0008" fill="none" stroke="#ff0000"/>
<path d="M465.389,267.237h 17.0008" fill="none" stroke="#ff0000"/>
<g stroke="#ff0000" stroke-width="1" fill="none">
<rect x="459.706" y="264.395" width="5.6835" height="5.6835"/>
</g>
<text xml:space="preserve" x="111.328" y="65.3603" fill="black" font-size="15.4909" font-family="Helvetica">PYTHIA8, p+Au 200 GeV, option3</text>
<text xml:space="preserve" x="111.328" y="105.855" fill="black" font-size="15.4909" font-family="Helvetica">centrality categorization check</text>
<text xml:space="preserve" x="391.241" y="141.377" fill="black" font-size="15.4909" font-family="Helvetica"> &lt; -3.0</text>
<text xml:space="preserve" x="382.715" y="141.377" fill="black" font-size="15.4909" font-family="Times">&#0951;</text>
<text xml:space="preserve" x="185.214" y="141.377" fill="black" font-size="15.4909" font-family="Helvetica"> of charged particles in -3.9 &lt; </text>
<text xml:space="preserve" x="178.82" y="156.296" fill="black" font-size="10.4939" font-family="Helvetica">T</text>
<text xml:space="preserve" x="170.295" y="141.377" fill="black" font-size="15.4909" font-family="Helvetica">p</text>
<text xml:space="preserve" x="150.402" y="146.35" fill="black" font-size="27.4836" font-family="Times">&#8721;</text>
<text xml:space="preserve" x="111.328" y="141.377" fill="black" font-size="15.4909" font-family="Helvetica">Used </text></svg>
