<?xml version="1.0" standalone="no"?>
<svg width="567.429" height="409.002" viewBox="0 0 567.429 409.002" xmlns="http://www.w3.org/2000/svg" shape-rendering="crispEdges">
<title>
/Users/jinhyunpark/npl/gitHub/Centrality_dependent_BiasCorrection/plots/dNdeta_charge_all2byCent_cent1.svg
</title>
<desc>
Creator: ROOT Version 6.28/04
CreationDate: Tue Oct 10 11:38:05 2023</desc>
<defs>
</defs>
<rect x="0.5" y="0" width="566.929" height="408.502" fill="white"/>
<rect x="57.1929" y="20.4251" width="453.543" height="339.056" fill="white"/>
<rect x="57.1929" y="20.4251" width="453.543" height="339.056" fill="none" stroke="black"/>
<rect x="57.1929" y="20.4251" width="453.543" height="339.056" fill="white"/>
<rect x="57.1929" y="20.4251" width="453.543" height="339.056" fill="none" stroke="black"/>
<path d="M57.1929,359.481h 453.543" fill="none" stroke="black"/>
<path d="M57.1929,349.677v 9.80404" fill="none" stroke="black"/>
<path d="M66.2638,354.579v 4.90202" fill="none" stroke="black"/>
<path d="M75.3346,354.579v 4.90202" fill="none" stroke="black"/>
<path d="M84.4055,354.579v 4.90202" fill="none" stroke="black"/>
<path d="M93.4764,354.579v 4.90202" fill="none" stroke="black"/>
<path d="M102.547,349.677v 9.80404" fill="none" stroke="black"/>
<path d="M111.618,354.579v 4.90202" fill="none" stroke="black"/>
<path d="M120.689,354.579v 4.90202" fill="none" stroke="black"/>
<path d="M129.76,354.579v 4.90202" fill="none" stroke="black"/>
<path d="M138.831,354.579v 4.90202" fill="none" stroke="black"/>
<path d="M147.902,349.677v 9.80404" fill="none" stroke="black"/>
<path d="M156.972,354.579v 4.90202" fill="none" stroke="black"/>
<path d="M166.043,354.579v 4.90202" fill="none" stroke="black"/>
<path d="M175.114,354.579v 4.90202" fill="none" stroke="black"/>
<path d="M184.185,354.579v 4.90202" fill="none" stroke="black"/>
<path d="M193.256,349.677v 9.80404" fill="none" stroke="black"/>
<path d="M202.327,354.579v 4.90202" fill="none" stroke="black"/>
<path d="M211.398,354.579v 4.90202" fill="none" stroke="black"/>
<path d="M220.469,354.579v 4.90202" fill="none" stroke="black"/>
<path d="M229.539,354.579v 4.90202" fill="none" stroke="black"/>
<path d="M238.61,349.677v 9.80404" fill="none" stroke="black"/>
<path d="M247.681,354.579v 4.90202" fill="none" stroke="black"/>
<path d="M256.752,354.579v 4.90202" fill="none" stroke="black"/>
<path d="M265.823,354.579v 4.90202" fill="none" stroke="black"/>
<path d="M274.894,354.579v 4.90202" fill="none" stroke="black"/>
<path d="M283.965,349.677v 9.80404" fill="none" stroke="black"/>
<path d="M293.035,354.579v 4.90202" fill="none" stroke="black"/>
<path d="M302.106,354.579v 4.90202" fill="none" stroke="black"/>
<path d="M311.177,354.579v 4.90202" fill="none" stroke="black"/>
<path d="M320.248,354.579v 4.90202" fill="none" stroke="black"/>
<path d="M329.319,349.677v 9.80404" fill="none" stroke="black"/>
<path d="M338.39,354.579v 4.90202" fill="none" stroke="black"/>
<path d="M347.461,354.579v 4.90202" fill="none" stroke="black"/>
<path d="M356.531,354.579v 4.90202" fill="none" stroke="black"/>
<path d="M365.602,354.579v 4.90202" fill="none" stroke="black"/>
<path d="M374.673,349.677v 9.80404" fill="none" stroke="black"/>
<path d="M383.744,354.579v 4.90202" fill="none" stroke="black"/>
<path d="M392.815,354.579v 4.90202" fill="none" stroke="black"/>
<path d="M401.886,354.579v 4.90202" fill="none" stroke="black"/>
<path d="M410.957,354.579v 4.90202" fill="none" stroke="black"/>
<path d="M420.028,349.677v 9.80404" fill="none" stroke="black"/>
<path d="M429.098,354.579v 4.90202" fill="none" stroke="black"/>
<path d="M438.169,354.579v 4.90202" fill="none" stroke="black"/>
<path d="M447.24,354.579v 4.90202" fill="none" stroke="black"/>
<path d="M456.311,354.579v 4.90202" fill="none" stroke="black"/>
<path d="M465.382,349.677v 9.80404" fill="none" stroke="black"/>
<path d="M474.453,354.579v 4.90202" fill="none" stroke="black"/>
<path d="M483.524,354.579v 4.90202" fill="none" stroke="black"/>
<path d="M492.594,354.579v 4.90202" fill="none" stroke="black"/>
<path d="M501.665,354.579v 4.90202" fill="none" stroke="black"/>
<path d="M510.736,349.677v 9.80404" fill="none" stroke="black"/>
<text xml:space="preserve" x="56.6246" y="372.269" fill="black" font-size="13.617" font-family="Helvetica">5</text>
<text xml:space="preserve" x="48.8097" y="372.269" fill="black" font-size="13.617" font-family="Times">&#8722;</text>
<text xml:space="preserve" x="102.093" y="372.269" fill="black" font-size="13.617" font-family="Helvetica">4</text>
<text xml:space="preserve" x="94.2777" y="372.269" fill="black" font-size="13.617" font-family="Times">&#8722;</text>
<text xml:space="preserve" x="147.561" y="372.269" fill="black" font-size="13.617" font-family="Helvetica">3</text>
<text xml:space="preserve" x="139.746" y="372.269" fill="black" font-size="13.617" font-family="Times">&#8722;</text>
<text xml:space="preserve" x="193.029" y="372.269" fill="black" font-size="13.617" font-family="Helvetica">2</text>
<text xml:space="preserve" x="185.214" y="372.269" fill="black" font-size="13.617" font-family="Times">&#8722;</text>
<text xml:space="preserve" x="239.207" y="372.269" fill="black" font-size="13.617" font-family="Helvetica">1</text>
<text xml:space="preserve" x="232.103" y="372.269" fill="black" font-size="13.617" font-family="Times">&#8722;</text>
<text xml:space="preserve" x="280.412" y="372.269" fill="black" font-size="13.617" font-family="Helvetica">0</text>
<text xml:space="preserve" x="325.88" y="372.269" fill="black" font-size="13.617" font-family="Helvetica">1</text>
<text xml:space="preserve" x="370.638" y="372.269" fill="black" font-size="13.617" font-family="Helvetica">2</text>
<text xml:space="preserve" x="416.106" y="372.269" fill="black" font-size="13.617" font-family="Helvetica">3</text>
<text xml:space="preserve" x="461.574" y="372.269" fill="black" font-size="13.617" font-family="Helvetica">4</text>
<text xml:space="preserve" x="507.042" y="372.269" fill="black" font-size="13.617" font-family="Helvetica">5</text>
<text xml:space="preserve" x="502.779" y="384.347" fill="black" font-size="13.617" font-family="Times">&#0951;</text>
<path d="M57.1929,20.4251h 453.543" fill="none" stroke="black"/>
<path d="M57.1929,30.2291v -9.80404" fill="none" stroke="black"/>
<path d="M66.2638,25.3271v -4.90202" fill="none" stroke="black"/>
<path d="M75.3346,25.3271v -4.90202" fill="none" stroke="black"/>
<path d="M84.4055,25.3271v -4.90202" fill="none" stroke="black"/>
<path d="M93.4764,25.3271v -4.90202" fill="none" stroke="black"/>
<path d="M102.547,30.2291v -9.80404" fill="none" stroke="black"/>
<path d="M111.618,25.3271v -4.90202" fill="none" stroke="black"/>
<path d="M120.689,25.3271v -4.90202" fill="none" stroke="black"/>
<path d="M129.76,25.3271v -4.90202" fill="none" stroke="black"/>
<path d="M138.831,25.3271v -4.90202" fill="none" stroke="black"/>
<path d="M147.902,30.2291v -9.80404" fill="none" stroke="black"/>
<path d="M156.972,25.3271v -4.90202" fill="none" stroke="black"/>
<path d="M166.043,25.3271v -4.90202" fill="none" stroke="black"/>
<path d="M175.114,25.3271v -4.90202" fill="none" stroke="black"/>
<path d="M184.185,25.3271v -4.90202" fill="none" stroke="black"/>
<path d="M193.256,30.2291v -9.80404" fill="none" stroke="black"/>
<path d="M202.327,25.3271v -4.90202" fill="none" stroke="black"/>
<path d="M211.398,25.3271v -4.90202" fill="none" stroke="black"/>
<path d="M220.469,25.3271v -4.90202" fill="none" stroke="black"/>
<path d="M229.539,25.3271v -4.90202" fill="none" stroke="black"/>
<path d="M238.61,30.2291v -9.80404" fill="none" stroke="black"/>
<path d="M247.681,25.3271v -4.90202" fill="none" stroke="black"/>
<path d="M256.752,25.3271v -4.90202" fill="none" stroke="black"/>
<path d="M265.823,25.3271v -4.90202" fill="none" stroke="black"/>
<path d="M274.894,25.3271v -4.90202" fill="none" stroke="black"/>
<path d="M283.965,30.2291v -9.80404" fill="none" stroke="black"/>
<path d="M293.035,25.3271v -4.90202" fill="none" stroke="black"/>
<path d="M302.106,25.3271v -4.90202" fill="none" stroke="black"/>
<path d="M311.177,25.3271v -4.90202" fill="none" stroke="black"/>
<path d="M320.248,25.3271v -4.90202" fill="none" stroke="black"/>
<path d="M329.319,30.2291v -9.80404" fill="none" stroke="black"/>
<path d="M338.39,25.3271v -4.90202" fill="none" stroke="black"/>
<path d="M347.461,25.3271v -4.90202" fill="none" stroke="black"/>
<path d="M356.531,25.3271v -4.90202" fill="none" stroke="black"/>
<path d="M365.602,25.3271v -4.90202" fill="none" stroke="black"/>
<path d="M374.673,30.2291v -9.80404" fill="none" stroke="black"/>
<path d="M383.744,25.3271v -4.90202" fill="none" stroke="black"/>
<path d="M392.815,25.3271v -4.90202" fill="none" stroke="black"/>
<path d="M401.886,25.3271v -4.90202" fill="none" stroke="black"/>
<path d="M410.957,25.3271v -4.90202" fill="none" stroke="black"/>
<path d="M420.028,30.2291v -9.80404" fill="none" stroke="black"/>
<path d="M429.098,25.3271v -4.90202" fill="none" stroke="black"/>
<path d="M438.169,25.3271v -4.90202" fill="none" stroke="black"/>
<path d="M447.24,25.3271v -4.90202" fill="none" stroke="black"/>
<path d="M456.311,25.3271v -4.90202" fill="none" stroke="black"/>
<path d="M465.382,30.2291v -9.80404" fill="none" stroke="black"/>
<path d="M474.453,25.3271v -4.90202" fill="none" stroke="black"/>
<path d="M483.524,25.3271v -4.90202" fill="none" stroke="black"/>
<path d="M492.594,25.3271v -4.90202" fill="none" stroke="black"/>
<path d="M501.665,25.3271v -4.90202" fill="none" stroke="black"/>
<path d="M510.736,30.2291v -9.80404" fill="none" stroke="black"/>
<path d="M57.1929,359.481v -339.056" fill="none" stroke="black"/>
<path d="M71.3094,359.481h -14.1165" fill="none" stroke="black"/>
<path d="M64.2512,345.919h -7.05827" fill="none" stroke="black"/>
<path d="M64.2512,332.357h -7.05827" fill="none" stroke="black"/>
<path d="M64.2512,318.795h -7.05827" fill="none" stroke="black"/>
<path d="M64.2512,305.232h -7.05827" fill="none" stroke="black"/>
<path d="M71.3094,291.67h -14.1165" fill="none" stroke="black"/>
<path d="M64.2512,278.108h -7.05827" fill="none" stroke="black"/>
<path d="M64.2512,264.546h -7.05827" fill="none" stroke="black"/>
<path d="M64.2512,250.983h -7.05827" fill="none" stroke="black"/>
<path d="M64.2512,237.421h -7.05827" fill="none" stroke="black"/>
<path d="M71.3094,223.859h -14.1165" fill="none" stroke="black"/>
<path d="M64.2512,210.297h -7.05827" fill="none" stroke="black"/>
<path d="M64.2512,196.734h -7.05827" fill="none" stroke="black"/>
<path d="M64.2512,183.172h -7.05827" fill="none" stroke="black"/>
<path d="M64.2512,169.61h -7.05827" fill="none" stroke="black"/>
<path d="M71.3094,156.048h -14.1165" fill="none" stroke="black"/>
<path d="M64.2512,142.485h -7.05827" fill="none" stroke="black"/>
<path d="M64.2512,128.923h -7.05827" fill="none" stroke="black"/>
<path d="M64.2512,115.361h -7.05827" fill="none" stroke="black"/>
<path d="M64.2512,101.799h -7.05827" fill="none" stroke="black"/>
<path d="M71.3094,88.2363h -14.1165" fill="none" stroke="black"/>
<path d="M64.2512,74.6741h -7.05827" fill="none" stroke="black"/>
<path d="M64.2512,61.1118h -7.05827" fill="none" stroke="black"/>
<path d="M64.2512,47.5496h -7.05827" fill="none" stroke="black"/>
<path d="M64.2512,33.9873h -7.05827" fill="none" stroke="black"/>
<path d="M71.3094,20.4251h -14.1165" fill="none" stroke="black"/>
<text xml:space="preserve" x="46.6784" y="364.454" fill="black" font-size="13.617" font-family="Helvetica">0</text>
<text xml:space="preserve" x="35.3114" y="296.252" fill="black" font-size="13.617" font-family="Helvetica">0.5</text>
<text xml:space="preserve" x="48.8097" y="229.471" fill="black" font-size="13.617" font-family="Helvetica">1</text>
<text xml:space="preserve" x="35.3114" y="160.559" fill="black" font-size="13.617" font-family="Helvetica">1.5</text>
<text xml:space="preserve" x="46.6784" y="93.7778" fill="black" font-size="13.617" font-family="Helvetica">2</text>
<text xml:space="preserve" x="35.3114" y="24.8653" fill="black" font-size="13.617" font-family="Helvetica">2.5</text>
<g transform="rotate(-90,28.9175,32.6801)">
<text xml:space="preserve" x="28.9175" y="32.6801" fill="black" font-size="13.617" font-family="Times">&#0951;</text>
</g>
<g transform="rotate(-90,28.9175,39.7845)">
<text xml:space="preserve" x="28.9175" y="39.7845" fill="black" font-size="13.617" font-family="Helvetica">d</text>
</g>
<g transform="rotate(-90,8.31481,29.1279)">
<text xml:space="preserve" x="8.31481" y="29.1279" fill="black" font-size="9.24468" font-family="Helvetica">ch</text>
</g>
<g transform="rotate(-90,14.7087,45.468)">
<text xml:space="preserve" x="14.7087" y="45.468" fill="black" font-size="13.617" font-family="Helvetica">dN</text>
</g>
<path d="M17.5505,45.468v -25.5758" fill="none" stroke="black" stroke-width="2"/>
<g transform="rotate(-90,21.1027,49.7306)">
<text xml:space="preserve" x="21.1027" y="49.7306" fill="black" font-size="13.617" font-family="Helvetica"> </text>
</g>
<g transform="rotate(-90,33.1801,72.4646)">
<text xml:space="preserve" x="33.1801" y="72.4646" fill="black" font-size="9.24468" font-family="Helvetica">event</text>
</g>
<g transform="rotate(-90,28.9175,81.7003)">
<text xml:space="preserve" x="28.9175" y="81.7003" fill="black" font-size="13.617" font-family="Helvetica">N</text>
</g>
<g transform="rotate(-90,15.4192,68.202)">
<text xml:space="preserve" x="15.4192" y="68.202" fill="black" font-size="13.617" font-family="Helvetica">1</text>
</g>
<path d="M17.5505,81.7003v -31.9697" fill="none" stroke="black" stroke-width="2"/>
<g transform="rotate(-90,21.1027,85.9629)">
<text xml:space="preserve" x="21.1027" y="85.9629" fill="black" font-size="13.617" font-family="Helvetica"> </text>
</g>
<g transform="rotate(-90,29.6279,90.2256)">
<text xml:space="preserve" x="29.6279" y="90.2256" fill="black" font-size="13.617" font-family="Times">&#0062;</text>
</g>
<g transform="rotate(-90,36.0219,103.724)">
<text xml:space="preserve" x="36.0219" y="103.724" fill="black" font-size="9.24468" font-family="Helvetica">coll</text>
</g>
<g transform="rotate(-90,29.6279,112.96)">
<text xml:space="preserve" x="29.6279" y="112.96" fill="black" font-size="13.617" font-family="Helvetica">N</text>
</g>
<g transform="rotate(-90,29.6279,117.222)">
<text xml:space="preserve" x="29.6279" y="117.222" fill="black" font-size="13.617" font-family="Times">&#0060;</text>
</g>
<g transform="rotate(-90,15.4192,103.724)">
<text xml:space="preserve" x="15.4192" y="103.724" fill="black" font-size="13.617" font-family="Helvetica">1</text>
</g>
<path d="M17.5505,117.222v -31.2593" fill="none" stroke="black" stroke-width="2"/>
<path d="M510.736,359.481v -339.056" fill="none" stroke="black"/>
<path d="M496.62,359.481h 14.1165" fill="none" stroke="black"/>
<path d="M503.678,345.919h 7.05827" fill="none" stroke="black"/>
<path d="M503.678,332.357h 7.05827" fill="none" stroke="black"/>
<path d="M503.678,318.795h 7.05827" fill="none" stroke="black"/>
<path d="M503.678,305.232h 7.05827" fill="none" stroke="black"/>
<path d="M496.62,291.67h 14.1165" fill="none" stroke="black"/>
<path d="M503.678,278.108h 7.05827" fill="none" stroke="black"/>
<path d="M503.678,264.546h 7.05827" fill="none" stroke="black"/>
<path d="M503.678,250.983h 7.05827" fill="none" stroke="black"/>
<path d="M503.678,237.421h 7.05827" fill="none" stroke="black"/>
<path d="M496.62,223.859h 14.1165" fill="none" stroke="black"/>
<path d="M503.678,210.297h 7.05827" fill="none" stroke="black"/>
<path d="M503.678,196.734h 7.05827" fill="none" stroke="black"/>
<path d="M503.678,183.172h 7.05827" fill="none" stroke="black"/>
<path d="M503.678,169.61h 7.05827" fill="none" stroke="black"/>
<path d="M496.62,156.048h 14.1165" fill="none" stroke="black"/>
<path d="M503.678,142.485h 7.05827" fill="none" stroke="black"/>
<path d="M503.678,128.923h 7.05827" fill="none" stroke="black"/>
<path d="M503.678,115.361h 7.05827" fill="none" stroke="black"/>
<path d="M503.678,101.799h 7.05827" fill="none" stroke="black"/>
<path d="M496.62,88.2363h 14.1165" fill="none" stroke="black"/>
<path d="M503.678,74.6741h 7.05827" fill="none" stroke="black"/>
<path d="M503.678,61.1118h 7.05827" fill="none" stroke="black"/>
<path d="M503.678,47.5496h 7.05827" fill="none" stroke="black"/>
<path d="M503.678,33.9873h 7.05827" fill="none" stroke="black"/>
<path d="M496.62,20.4251h 14.1165" fill="none" stroke="black"/>
<g stroke="black" stroke-width="1" fill="none">
<polygon points=" 58.5134, 257.308 58.5134, 255.413 60.4079, 255.413 60.4079, 257.308 62.3024, 257.308 62.3024, 259.202 60.4079, 259.202 60.4079, 261.097 58.5134, 261.097 58.5134, 259.202 56.6189, 259.202 56.6189, 257.308"/>
</g>
<g stroke="black" stroke-width="1" fill="none">
<polygon points=" 63.0488, 248.77 63.0488, 246.875 64.9433, 246.875 64.9433, 248.77 66.8378, 248.77 66.8378, 250.664 64.9433, 250.664 64.9433, 252.559 63.0488, 252.559 63.0488, 250.664 61.1543, 250.664 61.1543, 248.77"/>
</g>
<g stroke="black" stroke-width="1" fill="none">
<polygon points=" 67.5843, 240.487 67.5843, 238.593 69.4788, 238.593 69.4788, 240.487 71.3733, 240.487 71.3733, 242.382 69.4788, 242.382 69.4788, 244.276 67.5843, 244.276 67.5843, 242.382 65.6898, 242.382 65.6898, 240.487"/>
</g>
<g stroke="black" stroke-width="1" fill="none">
<polygon points=" 72.1197, 232.571 72.1197, 230.677 74.0142, 230.677 74.0142, 232.571 75.9087, 232.571 75.9087, 234.466 74.0142, 234.466 74.0142, 236.36 72.1197, 236.36 72.1197, 234.466 70.2252, 234.466 70.2252, 232.571"/>
</g>
<g stroke="black" stroke-width="1" fill="none">
<polygon points=" 76.6551, 225.275 76.6551, 223.381 78.5496, 223.381 78.5496, 225.275 80.4441, 225.275 80.4441, 227.17 78.5496, 227.17 78.5496, 229.064 76.6551, 229.064 76.6551, 227.17 74.7606, 227.17 74.7606, 225.275"/>
</g>
<g stroke="black" stroke-width="1" fill="none">
<polygon points=" 81.1906, 218.524 81.1906, 216.63 83.085, 216.63 83.085, 218.524 84.9795, 218.524 84.9795, 220.419 83.085, 220.419 83.085, 222.313 81.1906, 222.313 81.1906, 220.419 79.2961, 220.419 79.2961, 218.524"/>
</g>
<g stroke="black" stroke-width="1" fill="none">
<polygon points=" 85.726, 212.308 85.726, 210.414 87.6205, 210.414 87.6205, 212.308 89.515, 212.308 89.515, 214.203 87.6205, 214.203 87.6205, 216.097 85.726, 216.097 85.726, 214.203 83.8315, 214.203 83.8315, 212.308"/>
</g>
<g stroke="black" stroke-width="1" fill="none">
<polygon points=" 90.2614, 206.531 90.2614, 204.637 92.1559, 204.637 92.1559, 206.531 94.0504, 206.531 94.0504, 208.426 92.1559, 208.426 92.1559, 210.32 90.2614, 210.32 90.2614, 208.426 88.3669, 208.426 88.3669, 206.531"/>
</g>
<g stroke="black" stroke-width="1" fill="none">
<polygon points=" 94.7968, 201.075 94.7968, 199.18 96.6913, 199.18 96.6913, 201.075 98.5858, 201.075 98.5858, 202.969 96.6913, 202.969 96.6913, 204.864 94.7968, 204.864 94.7968, 202.969 92.9023, 202.969 92.9023, 201.075"/>
</g>
<g stroke="black" stroke-width="1" fill="none">
<polygon points=" 99.3323, 195.958 99.3323, 194.063 101.227, 194.063 101.227, 195.958 103.121, 195.958 103.121, 197.852 101.227, 197.852 101.227, 199.747 99.3323, 199.747 99.3323, 197.852 97.4378, 197.852 97.4378, 195.958"/>
</g>
<g stroke="black" stroke-width="1" fill="none">
<polygon points=" 103.868, 191.077 103.868, 189.183 105.762, 189.183 105.762, 191.077 107.657, 191.077 107.657, 192.972 105.762, 192.972 105.762, 194.866 103.868, 194.866 103.868, 192.972 101.973, 192.972 101.973, 191.077"/>
</g>
<g stroke="black" stroke-width="1" fill="none">
<polygon points=" 108.403, 186.467 108.403, 184.573 110.298, 184.573 110.298, 186.467 112.192, 186.467 112.192, 188.362 110.298, 188.362 110.298, 190.256 108.403, 190.256 108.403, 188.362 106.509, 188.362 106.509, 186.467"/>
</g>
<g stroke="black" stroke-width="1" fill="none">
<polygon points=" 112.939, 182.185 112.939, 180.29 114.833, 180.29 114.833, 182.185 116.728, 182.185 116.728, 184.079 114.833, 184.079 114.833, 185.974 112.939, 185.974 112.939, 184.079 111.044, 184.079 111.044, 182.185"/>
</g>
<g stroke="black" stroke-width="1" fill="none">
<polygon points=" 117.474, 178.055 117.474, 176.161 119.369, 176.161 119.369, 178.055 121.263, 178.055 121.263, 179.95 119.369, 179.95 119.369, 181.844 117.474, 181.844 117.474, 179.95 115.58, 179.95 115.58, 178.055"/>
</g>
<g stroke="black" stroke-width="1" fill="none">
<polygon points=" 122.009, 174.165 122.009, 172.271 123.904, 172.271 123.904, 174.165 125.798, 174.165 125.798, 176.06 123.904, 176.06 123.904, 177.954 122.009, 177.954 122.009, 176.06 120.115, 176.06 120.115, 174.165"/>
</g>
<g stroke="black" stroke-width="1" fill="none">
<polygon points=" 126.545, 170.576 126.545, 168.681 128.439, 168.681 128.439, 170.576 130.334, 170.576 130.334, 172.47 128.439, 172.47 128.439, 174.365 126.545, 174.365 126.545, 172.47 124.65, 172.47 124.65, 170.576"/>
</g>
<g stroke="black" stroke-width="1" fill="none">
<polygon points=" 131.08, 167.018 131.08, 165.124 132.975, 165.124 132.975, 167.018 134.869, 167.018 134.869, 168.913 132.975, 168.913 132.975, 170.807 131.08, 170.807 131.08, 168.913 129.186, 168.913 129.186, 167.018"/>
</g>
<g stroke="black" stroke-width="1" fill="none">
<polygon points=" 135.616, 163.782 135.616, 161.887 137.51, 161.887 137.51, 163.782 139.405, 163.782 139.405, 165.676 137.51, 165.676 137.51, 167.571 135.616, 167.571 135.616, 165.676 133.721, 165.676 133.721, 163.782"/>
</g>
<g stroke="black" stroke-width="1" fill="none">
<polygon points=" 140.151, 160.723 140.151, 158.829 142.046, 158.829 142.046, 160.723 143.94, 160.723 143.94, 162.618 142.046, 162.618 142.046, 164.512 140.151, 164.512 140.151, 162.618 138.257, 162.618 138.257, 160.723"/>
</g>
<g stroke="black" stroke-width="1" fill="none">
<polygon points=" 144.687, 157.825 144.687, 155.93 146.581, 155.93 146.581, 157.825 148.476, 157.825 148.476, 159.719 146.581, 159.719 146.581, 161.614 144.687, 161.614 144.687, 159.719 142.792, 159.719 142.792, 157.825"/>
</g>
<g stroke="black" stroke-width="1" fill="none">
<polygon points=" 149.222, 155.313 149.222, 153.418 151.117, 153.418 151.117, 155.313 153.011, 155.313 153.011, 157.207 151.117, 157.207 151.117, 159.102 149.222, 159.102 149.222, 157.207 147.328, 157.207 147.328, 155.313"/>
</g>
<g stroke="black" stroke-width="1" fill="none">
<polygon points=" 153.757, 153.06 153.757, 151.165 155.652, 151.165 155.652, 153.06 157.546, 153.06 157.546, 154.954 155.652, 154.954 155.652, 156.849 153.757, 156.849 153.757, 154.954 151.863, 154.954 151.863, 153.06"/>
</g>
<g stroke="black" stroke-width="1" fill="none">
<polygon points=" 158.293, 151 158.293, 149.105 160.187, 149.105 160.187, 151 162.082, 151 162.082, 152.894 160.187, 152.894 160.187, 154.789 158.293, 154.789 158.293, 152.894 156.398, 152.894 156.398, 151"/>
</g>
<g stroke="black" stroke-width="1" fill="none">
<polygon points=" 162.828, 149.327 162.828, 147.433 164.723, 147.433 164.723, 149.327 166.617, 149.327 166.617, 151.222 164.723, 151.222 164.723, 153.116 162.828, 153.116 162.828, 151.222 160.934, 151.222 160.934, 149.327"/>
</g>
<g stroke="black" stroke-width="1" fill="none">
<polygon points=" 167.364, 147.899 167.364, 146.004 169.258, 146.004 169.258, 147.899 171.153, 147.899 171.153, 149.793 169.258, 149.793 169.258, 151.688 167.364, 151.688 167.364, 149.793 165.469, 149.793 165.469, 147.899"/>
</g>
<g stroke="black" stroke-width="1" fill="none">
<polygon points=" 171.899, 146.799 171.899, 144.905 173.794, 144.905 173.794, 146.799 175.688, 146.799 175.688, 148.694 173.794, 148.694 173.794, 150.588 171.899, 150.588 171.899, 148.694 170.005, 148.694 170.005, 146.799"/>
</g>
<g stroke="black" stroke-width="1" fill="none">
<polygon points=" 176.435, 146.057 176.435, 144.163 178.329, 144.163 178.329, 146.057 180.224, 146.057 180.224, 147.952 178.329, 147.952 178.329, 149.846 176.435, 149.846 176.435, 147.952 174.54, 147.952 174.54, 146.057"/>
</g>
<g stroke="black" stroke-width="1" fill="none">
<polygon points=" 180.97, 145.573 180.97, 143.679 182.865, 143.679 182.865, 145.573 184.759, 145.573 184.759, 147.468 182.865, 147.468 182.865, 149.362 180.97, 149.362 180.97, 147.468 179.076, 147.468 179.076, 145.573"/>
</g>
<g stroke="black" stroke-width="1" fill="none">
<polygon points=" 185.506, 145.511 185.506, 143.617 187.4, 143.617 187.4, 145.511 189.295, 145.511 189.295, 147.406 187.4, 147.406 187.4, 149.3 185.506, 149.3 185.506, 147.406 183.611, 147.406 183.611, 145.511"/>
</g>
<g stroke="black" stroke-width="1" fill="none">
<polygon points=" 190.041, 145.625 190.041, 143.731 191.935, 143.731 191.935, 145.625 193.83, 145.625 193.83, 147.52 191.935, 147.52 191.935, 149.414 190.041, 149.414 190.041, 147.52 188.146, 147.52 188.146, 145.625"/>
</g>
<g stroke="black" stroke-width="1" fill="none">
<polygon points=" 194.576, 146.18 194.576, 144.285 196.471, 144.285 196.471, 146.18 198.365, 146.18 198.365, 148.074 196.471, 148.074 196.471, 149.969 194.576, 149.969 194.576, 148.074 192.682, 148.074 192.682, 146.18"/>
</g>
<g stroke="black" stroke-width="1" fill="none">
<polygon points=" 199.112, 147.011 199.112, 145.116 201.006, 145.116 201.006, 147.011 202.901, 147.011 202.901, 148.905 201.006, 148.905 201.006, 150.8 199.112, 150.8 199.112, 148.905 197.217, 148.905 197.217, 147.011"/>
</g>
<g stroke="black" stroke-width="1" fill="none">
<polygon points=" 203.647, 148.168 203.647, 146.274 205.542, 146.274 205.542, 148.168 207.436, 148.168 207.436, 150.063 205.542, 150.063 205.542, 151.957 203.647, 151.957 203.647, 150.063 201.753, 150.063 201.753, 148.168"/>
</g>
<g stroke="black" stroke-width="1" fill="none">
<polygon points=" 208.183, 149.641 208.183, 147.747 210.077, 147.747 210.077, 149.641 211.972, 149.641 211.972, 151.536 210.077, 151.536 210.077, 153.43 208.183, 153.43 208.183, 151.536 206.288, 151.536 206.288, 149.641"/>
</g>
<g stroke="black" stroke-width="1" fill="none">
<polygon points=" 212.718, 151.437 212.718, 149.543 214.613, 149.543 214.613, 151.437 216.507, 151.437 216.507, 153.332 214.613, 153.332 214.613, 155.226 212.718, 155.226 212.718, 153.332 210.824, 153.332 210.824, 151.437"/>
</g>
<g stroke="black" stroke-width="1" fill="none">
<polygon points=" 217.254, 153.476 217.254, 151.581 219.148, 151.581 219.148, 153.476 221.043, 153.476 221.043, 155.37 219.148, 155.37 219.148, 157.265 217.254, 157.265 217.254, 155.37 215.359, 155.37 215.359, 153.476"/>
</g>
<g stroke="black" stroke-width="1" fill="none">
<polygon points=" 221.789, 155.806 221.789, 153.912 223.683, 153.912 223.683, 155.806 225.578, 155.806 225.578, 157.701 223.683, 157.701 223.683, 159.595 221.789, 159.595 221.789, 157.701 219.894, 157.701 219.894, 155.806"/>
</g>
<g stroke="black" stroke-width="1" fill="none">
<polygon points=" 226.324, 158.479 226.324, 156.585 228.219, 156.585 228.219, 158.479 230.113, 158.479 230.113, 160.374 228.219, 160.374 228.219, 162.268 226.324, 162.268 226.324, 160.374 224.43, 160.374 224.43, 158.479"/>
</g>
<g stroke="black" stroke-width="1" fill="none">
<polygon points=" 230.86, 161.283 230.86, 159.388 232.754, 159.388 232.754, 161.283 234.649, 161.283 234.649, 163.177 232.754, 163.177 232.754, 165.072 230.86, 165.072 230.86, 163.177 228.965, 163.177 228.965, 161.283"/>
</g>
<g stroke="black" stroke-width="1" fill="none">
<polygon points=" 235.395, 164.275 235.395, 162.38 237.29, 162.38 237.29, 164.275 239.184, 164.275 239.184, 166.169 237.29, 166.169 237.29, 168.064 235.395, 168.064 235.395, 166.169 233.501, 166.169 233.501, 164.275"/>
</g>
<g stroke="black" stroke-width="1" fill="none">
<polygon points=" 239.931, 167.437 239.931, 165.543 241.825, 165.543 241.825, 167.437 243.72, 167.437 243.72, 169.332 241.825, 169.332 241.825, 171.226 239.931, 171.226 239.931, 169.332 238.036, 169.332 238.036, 167.437"/>
</g>
<g stroke="black" stroke-width="1" fill="none">
<polygon points=" 244.466, 170.699 244.466, 168.804 246.361, 168.804 246.361, 170.699 248.255, 170.699 248.255, 172.593 246.361, 172.593 246.361, 174.488 244.466, 174.488 244.466, 172.593 242.572, 172.593 242.572, 170.699"/>
</g>
<g stroke="black" stroke-width="1" fill="none">
<polygon points=" 249.002, 174.039 249.002, 172.144 250.896, 172.144 250.896, 174.039 252.791, 174.039 252.791, 175.933 250.896, 175.933 250.896, 177.828 249.002, 177.828 249.002, 175.933 247.107, 175.933 247.107, 174.039"/>
</g>
<g stroke="black" stroke-width="1" fill="none">
<polygon points=" 253.537, 177.362 253.537, 175.467 255.432, 175.467 255.432, 177.362 257.326, 177.362 257.326, 179.256 255.432, 179.256 255.432, 181.151 253.537, 181.151 253.537, 179.256 251.643, 179.256 251.643, 177.362"/>
</g>
<g stroke="black" stroke-width="1" fill="none">
<polygon points=" 258.072, 180.624 258.072, 178.729 259.967, 178.729 259.967, 180.624 261.861, 180.624 261.861, 182.518 259.967, 182.518 259.967, 184.413 258.072, 184.413 258.072, 182.518 256.178, 182.518 256.178, 180.624"/>
</g>
<g stroke="black" stroke-width="1" fill="none">
<polygon points=" 262.608, 183.732 262.608, 181.838 264.502, 181.838 264.502, 183.732 266.397, 183.732 266.397, 185.627 264.502, 185.627 264.502, 187.521 262.608, 187.521 262.608, 185.627 260.713, 185.627 260.713, 183.732"/>
</g>
<g stroke="black" stroke-width="1" fill="none">
<polygon points=" 267.143, 186.692 267.143, 184.797 269.038, 184.797 269.038, 186.692 270.932, 186.692 270.932, 188.586 269.038, 188.586 269.038, 190.481 267.143, 190.481 267.143, 188.586 265.249, 188.586 265.249, 186.692"/>
</g>
<g stroke="black" stroke-width="1" fill="none">
<polygon points=" 271.679, 189.45 271.679, 187.555 273.573, 187.555 273.573, 189.45 275.468, 189.45 275.468, 191.344 273.573, 191.344 273.573, 193.239 271.679, 193.239 271.679, 191.344 269.784, 191.344 269.784, 189.45"/>
</g>
<g stroke="black" stroke-width="1" fill="none">
<polygon points=" 276.214, 191.913 276.214, 190.019 278.109, 190.019 278.109, 191.913 280.003, 191.913 280.003, 193.808 278.109, 193.808 278.109, 195.702 276.214, 195.702 276.214, 193.808 274.32, 193.808 274.32, 191.913"/>
</g>
<g stroke="black" stroke-width="1" fill="none">
<polygon points=" 280.75, 194.112 280.75, 192.217 282.644, 192.217 282.644, 194.112 284.539, 194.112 284.539, 196.006 282.644, 196.006 282.644, 197.901 280.75, 197.901 280.75, 196.006 278.855, 196.006 278.855, 194.112"/>
</g>
<g stroke="black" stroke-width="1" fill="none">
<polygon points=" 285.285, 196.059 285.285, 194.165 287.18, 194.165 287.18, 196.059 289.074, 196.059 289.074, 197.954 287.18, 197.954 287.18, 199.848 285.285, 199.848 285.285, 197.954 283.391, 197.954 283.391, 196.059"/>
</g>
<g stroke="black" stroke-width="1" fill="none">
<polygon points=" 289.82, 197.686 289.82, 195.792 291.715, 195.792 291.715, 197.686 293.609, 197.686 293.609, 199.581 291.715, 199.581 291.715, 201.475 289.82, 201.475 289.82, 199.581 287.926, 199.581 287.926, 197.686"/>
</g>
<g stroke="black" stroke-width="1" fill="none">
<polygon points=" 294.356, 199.103 294.356, 197.208 296.25, 197.208 296.25, 199.103 298.145, 199.103 298.145, 200.997 296.25, 200.997 296.25, 202.892 294.356, 202.892 294.356, 200.997 292.461, 200.997 292.461, 199.103"/>
</g>
<g stroke="black" stroke-width="1" fill="none">
<polygon points=" 298.891, 200.313 298.891, 198.418 300.786, 198.418 300.786, 200.313 302.68, 200.313 302.68, 202.207 300.786, 202.207 300.786, 204.102 298.891, 204.102 298.891, 202.207 296.997, 202.207 296.997, 200.313"/>
</g>
<g stroke="black" stroke-width="1" fill="none">
<polygon points=" 303.427, 201.341 303.427, 199.447 305.321, 199.447 305.321, 201.341 307.216, 201.341 307.216, 203.236 305.321, 203.236 305.321, 205.13 303.427, 205.13 303.427, 203.236 301.532, 203.236 301.532, 201.341"/>
</g>
<g stroke="black" stroke-width="1" fill="none">
<polygon points=" 307.962, 202.341 307.962, 200.446 309.857, 200.446 309.857, 202.341 311.751, 202.341 311.751, 204.235 309.857, 204.235 309.857, 206.13 307.962, 206.13 307.962, 204.235 306.068, 204.235 306.068, 202.341"/>
</g>
<g stroke="black" stroke-width="1" fill="none">
<polygon points=" 312.498, 203.336 312.498, 201.441 314.392, 201.441 314.392, 203.336 316.287, 203.336 316.287, 205.23 314.392, 205.23 314.392, 207.125 312.498, 207.125 312.498, 205.23 310.603, 205.23 310.603, 203.336"/>
</g>
<g stroke="black" stroke-width="1" fill="none">
<polygon points=" 317.033, 204.279 317.033, 202.385 318.928, 202.385 318.928, 204.279 320.822, 204.279 320.822, 206.174 318.928, 206.174 318.928, 208.068 317.033, 208.068 317.033, 206.174 315.139, 206.174 315.139, 204.279"/>
</g>
<g stroke="black" stroke-width="1" fill="none">
<polygon points=" 321.569, 205.351 321.569, 203.457 323.463, 203.457 323.463, 205.351 325.357, 205.351 325.357, 207.246 323.463, 207.246 323.463, 209.14 321.569, 209.14 321.569, 207.246 319.674, 207.246 319.674, 205.351"/>
</g>
<g stroke="black" stroke-width="1" fill="none">
<polygon points=" 326.104, 206.566 326.104, 204.672 327.998, 204.672 327.998, 206.566 329.893, 206.566 329.893, 208.461 327.998, 208.461 327.998, 210.355 326.104, 210.355 326.104, 208.461 324.209, 208.461 324.209, 206.566"/>
</g>
<g stroke="black" stroke-width="1" fill="none">
<polygon points=" 330.639, 207.877 330.639, 205.983 332.534, 205.983 332.534, 207.877 334.428, 207.877 334.428, 209.772 332.534, 209.772 332.534, 211.666 330.639, 211.666 330.639, 209.772 328.745, 209.772 328.745, 207.877"/>
</g>
<g stroke="black" stroke-width="1" fill="none">
<polygon points=" 335.175, 209.444 335.175, 207.549 337.069, 207.549 337.069, 209.444 338.964, 209.444 338.964, 211.338 337.069, 211.338 337.069, 213.233 335.175, 213.233 335.175, 211.338 333.28, 211.338 333.28, 209.444"/>
</g>
<g stroke="black" stroke-width="1" fill="none">
<polygon points=" 339.71, 211.162 339.71, 209.268 341.605, 209.268 341.605, 211.162 343.499, 211.162 343.499, 213.057 341.605, 213.057 341.605, 214.951 339.71, 214.951 339.71, 213.057 337.816, 213.057 337.816, 211.162"/>
</g>
<g stroke="black" stroke-width="1" fill="none">
<polygon points=" 344.246, 213.173 344.246, 211.279 346.14, 211.279 346.14, 213.173 348.035, 213.173 348.035, 215.068 346.14, 215.068 346.14, 216.962 344.246, 216.962 344.246, 215.068 342.351, 215.068 342.351, 213.173"/>
</g>
<g stroke="black" stroke-width="1" fill="none">
<polygon points=" 348.781, 215.323 348.781, 213.428 350.676, 213.428 350.676, 215.323 352.57, 215.323 352.57, 217.217 350.676, 217.217 350.676, 219.112 348.781, 219.112 348.781, 217.217 346.887, 217.217 346.887, 215.323"/>
</g>
<g stroke="black" stroke-width="1" fill="none">
<polygon points=" 353.317, 217.763 353.317, 215.869 355.211, 215.869 355.211, 217.763 357.106, 217.763 357.106, 219.658 355.211, 219.658 355.211, 221.552 353.317, 221.552 353.317, 219.658 351.422, 219.658 351.422, 217.763"/>
</g>
<g stroke="black" stroke-width="1" fill="none">
<polygon points=" 357.852, 220.472 357.852, 218.578 359.746, 218.578 359.746, 220.472 361.641, 220.472 361.641, 222.367 359.746, 222.367 359.746, 224.261 357.852, 224.261 357.852, 222.367 355.957, 222.367 355.957, 220.472"/>
</g>
<g stroke="black" stroke-width="1" fill="none">
<polygon points=" 362.387, 223.365 362.387, 221.471 364.282, 221.471 364.282, 223.365 366.176, 223.365 366.176, 225.26 364.282, 225.26 364.282, 227.154 362.387, 227.154 362.387, 225.26 360.493, 225.26 360.493, 223.365"/>
</g>
<g stroke="black" stroke-width="1" fill="none">
<polygon points=" 366.923, 226.532 366.923, 224.638 368.817, 224.638 368.817, 226.532 370.712, 226.532 370.712, 228.427 368.817, 228.427 368.817, 230.321 366.923, 230.321 366.923, 228.427 365.028, 228.427 365.028, 226.532"/>
</g>
<g stroke="black" stroke-width="1" fill="none">
<polygon points=" 371.458, 229.911 371.458, 228.016 373.353, 228.016 373.353, 229.911 375.247, 229.911 375.247, 231.805 373.353, 231.805 373.353, 233.7 371.458, 233.7 371.458, 231.805 369.564, 231.805 369.564, 229.911"/>
</g>
<g stroke="black" stroke-width="1" fill="none">
<polygon points=" 375.994, 233.386 375.994, 231.491 377.888, 231.491 377.888, 233.386 379.783, 233.386 379.783, 235.28 377.888, 235.28 377.888, 237.175 375.994, 237.175 375.994, 235.28 374.099, 235.28 374.099, 233.386"/>
</g>
<g stroke="black" stroke-width="1" fill="none">
<polygon points=" 380.529, 237.135 380.529, 235.24 382.424, 235.24 382.424, 237.135 384.318, 237.135 384.318, 239.029 382.424, 239.029 382.424, 240.924 380.529, 240.924 380.529, 239.029 378.635, 239.029 378.635, 237.135"/>
</g>
<g stroke="black" stroke-width="1" fill="none">
<polygon points=" 385.065, 241.064 385.065, 239.169 386.959, 239.169 386.959, 241.064 388.854, 241.064 388.854, 242.958 386.959, 242.958 386.959, 244.853 385.065, 244.853 385.065, 242.958 383.17, 242.958 383.17, 241.064"/>
</g>
<g stroke="black" stroke-width="1" fill="none">
<polygon points=" 389.6, 245.159 389.6, 243.264 391.495, 243.264 391.495, 245.159 393.389, 245.159 393.389, 247.053 391.495, 247.053 391.495, 248.948 389.6, 248.948 389.6, 247.053 387.706, 247.053 387.706, 245.159"/>
</g>
<g stroke="black" stroke-width="1" fill="none">
<polygon points=" 394.135, 249.311 394.135, 247.417 396.03, 247.417 396.03, 249.311 397.924, 249.311 397.924, 251.206 396.03, 251.206 396.03, 253.1 394.135, 253.1 394.135, 251.206 392.241, 251.206 392.241, 249.311"/>
</g>
<g stroke="black" stroke-width="1" fill="none">
<polygon points=" 398.671, 253.654 398.671, 251.76 400.565, 251.76 400.565, 253.654 402.46, 253.654 402.46, 255.549 400.565, 255.549 400.565, 257.443 398.671, 257.443 398.671, 255.549 396.776, 255.549 396.776, 253.654"/>
</g>
<g stroke="black" stroke-width="1" fill="none">
<polygon points=" 403.206, 258.091 403.206, 256.197 405.101, 256.197 405.101, 258.091 406.995, 258.091 406.995, 259.986 405.101, 259.986 405.101, 261.88 403.206, 261.88 403.206, 259.986 401.312, 259.986 401.312, 258.091"/>
</g>
<g stroke="black" stroke-width="1" fill="none">
<polygon points=" 407.742, 262.582 407.742, 260.688 409.636, 260.688 409.636, 262.582 411.531, 262.582 411.531, 264.477 409.636, 264.477 409.636, 266.371 407.742, 266.371 407.742, 264.477 405.847, 264.477 405.847, 262.582"/>
</g>
<g stroke="black" stroke-width="1" fill="none">
<polygon points=" 412.277, 267.151 412.277, 265.256 414.172, 265.256 414.172, 267.151 416.066, 267.151 416.066, 269.045 414.172, 269.045 414.172, 270.94 412.277, 270.94 412.277, 269.045 410.383, 269.045 410.383, 267.151"/>
</g>
<g stroke="black" stroke-width="1" fill="none">
<polygon points=" 416.813, 271.748 416.813, 269.853 418.707, 269.853 418.707, 271.748 420.602, 271.748 420.602, 273.642 418.707, 273.642 418.707, 275.537 416.813, 275.537 416.813, 273.642 414.918, 273.642 414.918, 271.748"/>
</g>
<g stroke="black" stroke-width="1" fill="none">
<polygon points=" 421.348, 276.333 421.348, 274.439 423.243, 274.439 423.243, 276.333 425.137, 276.333 425.137, 278.228 423.243, 278.228 423.243, 280.122 421.348, 280.122 421.348, 278.228 419.454, 278.228 419.454, 276.333"/>
</g>
<g stroke="black" stroke-width="1" fill="none">
<polygon points=" 425.883, 280.909 425.883, 279.015 427.778, 279.015 427.778, 280.909 429.672, 280.909 429.672, 282.804 427.778, 282.804 427.778, 284.698 425.883, 284.698 425.883, 282.804 423.989, 282.804 423.989, 280.909"/>
</g>
<g stroke="black" stroke-width="1" fill="none">
<polygon points=" 430.419, 285.407 430.419, 283.513 432.313, 283.513 432.313, 285.407 434.208, 285.407 434.208, 287.302 432.313, 287.302 432.313, 289.196 430.419, 289.196 430.419, 287.302 428.524, 287.302 428.524, 285.407"/>
</g>
<g stroke="black" stroke-width="1" fill="none">
<polygon points=" 434.954, 289.822 434.954, 287.927 436.849, 287.927 436.849, 289.822 438.743, 289.822 438.743, 291.716 436.849, 291.716 436.849, 293.611 434.954, 293.611 434.954, 291.716 433.06, 291.716 433.06, 289.822"/>
</g>
<g stroke="black" stroke-width="1" fill="none">
<polygon points=" 439.49, 294.165 439.49, 292.27 441.384, 292.27 441.384, 294.165 443.279, 294.165 443.279, 296.059 441.384, 296.059 441.384, 297.954 439.49, 297.954 439.49, 296.059 437.595, 296.059 437.595, 294.165"/>
</g>
<g stroke="black" stroke-width="1" fill="none">
<polygon points=" 444.025, 298.418 444.025, 296.524 445.92, 296.524 445.92, 298.418 447.814, 298.418 447.814, 300.313 445.92, 300.313 445.92, 302.207 444.025, 302.207 444.025, 300.313 442.131, 300.313 442.131, 298.418"/>
</g>
<g stroke="black" stroke-width="1" fill="none">
<polygon points=" 448.561, 302.531 448.561, 300.637 450.455, 300.637 450.455, 302.531 452.35, 302.531 452.35, 304.426 450.455, 304.426 450.455, 306.32 448.561, 306.32 448.561, 304.426 446.666, 304.426 446.666, 302.531"/>
</g>
<g stroke="black" stroke-width="1" fill="none">
<polygon points=" 453.096, 306.526 453.096, 304.632 454.991, 304.632 454.991, 306.526 456.885, 306.526 456.885, 308.421 454.991, 308.421 454.991, 310.315 453.096, 310.315 453.096, 308.421 451.202, 308.421 451.202, 306.526"/>
</g>
<g stroke="black" stroke-width="1" fill="none">
<polygon points=" 457.632, 310.404 457.632, 308.51 459.526, 308.51 459.526, 310.404 461.421, 310.404 461.421, 312.299 459.526, 312.299 459.526, 314.193 457.632, 314.193 457.632, 312.299 455.737, 312.299 455.737, 310.404"/>
</g>
<g stroke="black" stroke-width="1" fill="none">
<polygon points=" 462.167, 314.116 462.167, 312.222 464.061, 312.222 464.061, 314.116 465.956, 314.116 465.956, 316.011 464.061, 316.011 464.061, 317.905 462.167, 317.905 462.167, 316.011 460.272, 316.011 460.272, 314.116"/>
</g>
<g stroke="black" stroke-width="1" fill="none">
<polygon points=" 466.702, 317.732 466.702, 315.837 468.597, 315.837 468.597, 317.732 470.491, 317.732 470.491, 319.626 468.597, 319.626 468.597, 321.521 466.702, 321.521 466.702, 319.626 464.808, 319.626 464.808, 317.732"/>
</g>
<g stroke="black" stroke-width="1" fill="none">
<polygon points=" 471.238, 321.234 471.238, 319.339 473.132, 319.339 473.132, 321.234 475.027, 321.234 475.027, 323.128 473.132, 323.128 473.132, 325.023 471.238, 325.023 471.238, 323.128 469.343, 323.128 469.343, 321.234"/>
</g>
<g stroke="black" stroke-width="1" fill="none">
<polygon points=" 475.773, 324.603 475.773, 322.708 477.668, 322.708 477.668, 324.603 479.562, 324.603 479.562, 326.497 477.668, 326.497 477.668, 328.392 475.773, 328.392 475.773, 326.497 473.879, 326.497 473.879, 324.603"/>
</g>
<g stroke="black" stroke-width="1" fill="none">
<polygon points=" 480.309, 327.826 480.309, 325.932 482.203, 325.932 482.203, 327.826 484.098, 327.826 484.098, 329.721 482.203, 329.721 482.203, 331.615 480.309, 331.615 480.309, 329.721 478.414, 329.721 478.414, 327.826"/>
</g>
<g stroke="black" stroke-width="1" fill="none">
<polygon points=" 484.844, 330.922 484.844, 329.028 486.739, 329.028 486.739, 330.922 488.633, 330.922 488.633, 332.817 486.739, 332.817 486.739, 334.711 484.844, 334.711 484.844, 332.817 482.95, 332.817 482.95, 330.922"/>
</g>
<g stroke="black" stroke-width="1" fill="none">
<polygon points=" 489.38, 333.833 489.38, 331.939 491.274, 331.939 491.274, 333.833 493.169, 333.833 493.169, 335.728 491.274, 335.728 491.274, 337.622 489.38, 337.622 489.38, 335.728 487.485, 335.728 487.485, 333.833"/>
</g>
<g stroke="black" stroke-width="1" fill="none">
<polygon points=" 493.915, 336.602 493.915, 334.708 495.809, 334.708 495.809, 336.602 497.704, 336.602 497.704, 338.497 495.809, 338.497 495.809, 340.391 493.915, 340.391 493.915, 338.497 492.02, 338.497 492.02, 336.602"/>
</g>
<g stroke="black" stroke-width="1" fill="none">
<polygon points=" 498.45, 339.163 498.45, 337.268 500.345, 337.268 500.345, 339.163 502.239, 339.163 502.239, 341.057 500.345, 341.057 500.345, 342.952 498.45, 342.952 498.45, 341.057 496.556, 341.057 496.556, 339.163"/>
</g>
<g stroke="black" stroke-width="1" fill="none">
<polygon points=" 502.986, 341.545 502.986, 339.65 504.88, 339.65 504.88, 341.545 506.775, 341.545 506.775, 343.439 504.88, 343.439 504.88, 345.334 502.986, 345.334 502.986, 343.439 501.091, 343.439 501.091, 341.545"/>
</g>
<g stroke="black" stroke-width="1" fill="none">
<polygon points=" 507.521, 343.741 507.521, 341.847 509.416, 341.847 509.416, 343.741 511.31, 343.741 511.31, 345.636 509.416, 345.636 509.416, 347.53 507.521, 347.53 507.521, 345.636 505.627, 345.636 505.627, 343.741"/>
</g>
<g fill="#5954d8">
<polygon points=" 58.5134, 258.465 58.5134, 256.57 60.4079, 256.57 60.4079, 258.465 62.3024, 258.465 62.3024, 260.359 60.4079, 260.359 60.4079, 262.254 58.5134, 262.254 58.5134, 260.359 56.6189, 260.359 56.6189, 258.465"/>
</g>
<g fill="#5954d8">
<polygon points=" 63.0488, 249.516 63.0488, 247.622 64.9433, 247.622 64.9433, 249.516 66.8378, 249.516 66.8378, 251.411 64.9433, 251.411 64.9433, 253.305 63.0488, 253.305 63.0488, 251.411 61.1543, 251.411 61.1543, 249.516"/>
</g>
<g fill="#5954d8">
<polygon points=" 67.5843, 240.716 67.5843, 238.821 69.4788, 238.821 69.4788, 240.716 71.3733, 240.716 71.3733, 242.61 69.4788, 242.61 69.4788, 244.505 67.5843, 244.505 67.5843, 242.61 65.6898, 242.61 65.6898, 240.716"/>
</g>
<g fill="#5954d8">
<polygon points=" 72.1197, 232.252 72.1197, 230.357 74.0142, 230.357 74.0142, 232.252 75.9087, 232.252 75.9087, 234.146 74.0142, 234.146 74.0142, 236.041 72.1197, 236.041 72.1197, 234.146 70.2252, 234.146 70.2252, 232.252"/>
</g>
<g fill="#5954d8">
<polygon points=" 76.6551, 224.241 76.6551, 222.347 78.5496, 222.347 78.5496, 224.241 80.4441, 224.241 80.4441, 226.136 78.5496, 226.136 78.5496, 228.03 76.6551, 228.03 76.6551, 226.136 74.7606, 226.136 74.7606, 224.241"/>
</g>
<g fill="#5954d8">
<polygon points=" 81.1906, 216.726 81.1906, 214.832 83.085, 214.832 83.085, 216.726 84.9795, 216.726 84.9795, 218.621 83.085, 218.621 83.085, 220.515 81.1906, 220.515 81.1906, 218.621 79.2961, 218.621 79.2961, 216.726"/>
</g>
<g fill="#5954d8">
<polygon points=" 85.726, 209.593 85.726, 207.699 87.6205, 207.699 87.6205, 209.593 89.515, 209.593 89.515, 211.488 87.6205, 211.488 87.6205, 213.382 85.726, 213.382 85.726, 211.488 83.8315, 211.488 83.8315, 209.593"/>
</g>
<g fill="#5954d8">
<polygon points=" 90.2614, 202.953 90.2614, 201.058 92.1559, 201.058 92.1559, 202.953 94.0504, 202.953 94.0504, 204.847 92.1559, 204.847 92.1559, 206.742 90.2614, 206.742 90.2614, 204.847 88.3669, 204.847 88.3669, 202.953"/>
</g>
<g fill="#5954d8">
<polygon points=" 94.7968, 196.81 94.7968, 194.916 96.6913, 194.916 96.6913, 196.81 98.5858, 196.81 98.5858, 198.705 96.6913, 198.705 96.6913, 200.599 94.7968, 200.599 94.7968, 198.705 92.9023, 198.705 92.9023, 196.81"/>
</g>
<g fill="#5954d8">
<polygon points=" 99.3323, 190.888 99.3323, 188.994 101.227, 188.994 101.227, 190.888 103.121, 190.888 103.121, 192.783 101.227, 192.783 101.227, 194.677 99.3323, 194.677 99.3323, 192.783 97.4378, 192.783 97.4378, 190.888"/>
</g>
<g fill="#5954d8">
<polygon points=" 103.868, 185.278 103.868, 183.383 105.762, 183.383 105.762, 185.278 107.657, 185.278 107.657, 187.172 105.762, 187.172 105.762, 189.067 103.868, 189.067 103.868, 187.172 101.973, 187.172 101.973, 185.278"/>
</g>
<g fill="#5954d8">
<polygon points=" 108.403, 133.517 108.403, 131.622 110.298, 131.622 110.298, 133.517 112.192, 133.517 112.192, 135.411 110.298, 135.411 110.298, 137.306 108.403, 137.306 108.403, 135.411 106.509, 135.411 106.509, 133.517"/>
</g>
<g fill="#5954d8">
<polygon points=" 112.939, 127.378 112.939, 125.484 114.833, 125.484 114.833, 127.378 116.728, 127.378 116.728, 129.273 114.833, 129.273 114.833, 131.167 112.939, 131.167 112.939, 129.273 111.044, 129.273 111.044, 127.378"/>
</g>
<g fill="#5954d8">
<polygon points=" 117.474, 121.308 117.474, 119.414 119.369, 119.414 119.369, 121.308 121.263, 121.308 121.263, 123.203 119.369, 123.203 119.369, 125.097 117.474, 125.097 117.474, 123.203 115.58, 123.203 115.58, 121.308"/>
</g>
<g fill="#5954d8">
<polygon points=" 122.009, 115.609 122.009, 113.714 123.904, 113.714 123.904, 115.609 125.798, 115.609 125.798, 117.503 123.904, 117.503 123.904, 119.398 122.009, 119.398 122.009, 117.503 120.115, 117.503 120.115, 115.609"/>
</g>
<g fill="#5954d8">
<polygon points=" 126.545, 110.441 126.545, 108.547 128.439, 108.547 128.439, 110.441 130.334, 110.441 130.334, 112.336 128.439, 112.336 128.439, 114.23 126.545, 114.23 126.545, 112.336 124.65, 112.336 124.65, 110.441"/>
</g>
<g fill="#5954d8">
<polygon points=" 131.08, 105.326 131.08, 103.432 132.975, 103.432 132.975, 105.326 134.869, 105.326 134.869, 107.221 132.975, 107.221 132.975, 109.115 131.08, 109.115 131.08, 107.221 129.186, 107.221 129.186, 105.326"/>
</g>
<g fill="#5954d8">
<polygon points=" 135.616, 100.688 135.616, 98.7938 137.51, 98.7938 137.51, 100.688 139.405, 100.688 139.405, 102.583 137.51, 102.583 137.51, 104.477 135.616, 104.477 135.616, 102.583 133.721, 102.583 133.721, 100.688"/>
</g>
<g fill="#5954d8">
<polygon points=" 140.151, 96.5246 140.151, 94.6301 142.046, 94.6301 142.046, 96.5246 143.94, 96.5246 143.94, 98.4191 142.046, 98.4191 142.046, 100.314 140.151, 100.314 140.151, 98.4191 138.257, 98.4191 138.257, 96.5246"/>
</g>
<g fill="#5954d8">
<polygon points=" 144.687, 92.4999 144.687, 90.6054 146.581, 90.6054 146.581, 92.4999 148.476, 92.4999 148.476, 94.3944 146.581, 94.3944 146.581, 96.2889 144.687, 96.2889 144.687, 94.3944 142.792, 94.3944 142.792, 92.4999"/>
</g>
<g fill="#5954d8">
<polygon points=" 149.222, 147.878 149.222, 145.984 151.117, 145.984 151.117, 147.878 153.011, 147.878 153.011, 149.773 151.117, 149.773 151.117, 151.667 149.222, 151.667 149.222, 149.773 147.328, 149.773 147.328, 147.878"/>
</g>
<g fill="#5954d8">
<polygon points=" 153.757, 146.092 153.757, 144.198 155.652, 144.198 155.652, 146.092 157.546, 146.092 157.546, 147.987 155.652, 147.987 155.652, 149.881 153.757, 149.881 153.757, 147.987 151.863, 147.987 151.863, 146.092"/>
</g>
<g fill="#5954d8">
<polygon points=" 158.293, 144.507 158.293, 142.613 160.187, 142.613 160.187, 144.507 162.082, 144.507 162.082, 146.402 160.187, 146.402 160.187, 148.296 158.293, 148.296 158.293, 146.402 156.398, 146.402 156.398, 144.507"/>
</g>
<g fill="#5954d8">
<polygon points=" 162.828, 143.515 162.828, 141.62 164.723, 141.62 164.723, 143.515 166.617, 143.515 166.617, 145.409 164.723, 145.409 164.723, 147.304 162.828, 147.304 162.828, 145.409 160.934, 145.409 160.934, 143.515"/>
</g>
<g fill="#5954d8">
<polygon points=" 167.364, 142.802 167.364, 140.907 169.258, 140.907 169.258, 142.802 171.153, 142.802 171.153, 144.696 169.258, 144.696 169.258, 146.591 167.364, 146.591 167.364, 144.696 165.469, 144.696 165.469, 142.802"/>
</g>
<g fill="#5954d8">
<polygon points=" 171.899, 142.349 171.899, 140.454 173.794, 140.454 173.794, 142.349 175.688, 142.349 175.688, 144.243 173.794, 144.243 173.794, 146.138 171.899, 146.138 171.899, 144.243 170.005, 144.243 170.005, 142.349"/>
</g>
<g fill="#5954d8">
<polygon points=" 176.435, 142.413 176.435, 140.519 178.329, 140.519 178.329, 142.413 180.224, 142.413 180.224, 144.308 178.329, 144.308 178.329, 146.202 176.435, 146.202 176.435, 144.308 174.54, 144.308 174.54, 142.413"/>
</g>
<g fill="#5954d8">
<polygon points=" 180.97, 142.806 180.97, 140.912 182.865, 140.912 182.865, 142.806 184.759, 142.806 184.759, 144.701 182.865, 144.701 182.865, 146.595 180.97, 146.595 180.97, 144.701 179.076, 144.701 179.076, 142.806"/>
</g>
<g fill="#5954d8">
<polygon points=" 185.506, 143.54 185.506, 141.646 187.4, 141.646 187.4, 143.54 189.295, 143.54 189.295, 145.435 187.4, 145.435 187.4, 147.329 185.506, 147.329 185.506, 145.435 183.611, 145.435 183.611, 143.54"/>
</g>
<g fill="#5954d8">
<polygon points=" 190.041, 144.446 190.041, 142.551 191.935, 142.551 191.935, 144.446 193.83, 144.446 193.83, 146.34 191.935, 146.34 191.935, 148.235 190.041, 148.235 190.041, 146.34 188.146, 146.34 188.146, 144.446"/>
</g>
<g fill="#5954d8">
<polygon points=" 194.576, 145.753 194.576, 143.859 196.471, 143.859 196.471, 145.753 198.365, 145.753 198.365, 147.648 196.471, 147.648 196.471, 149.542 194.576, 149.542 194.576, 147.648 192.682, 147.648 192.682, 145.753"/>
</g>
<g fill="#5954d8">
<polygon points=" 199.112, 147.543 199.112, 145.649 201.006, 145.649 201.006, 147.543 202.901, 147.543 202.901, 149.438 201.006, 149.438 201.006, 151.332 199.112, 151.332 199.112, 149.438 197.217, 149.438 197.217, 147.543"/>
</g>
<g fill="#5954d8">
<polygon points=" 203.647, 149.342 203.647, 147.447 205.542, 147.447 205.542, 149.342 207.436, 149.342 207.436, 151.236 205.542, 151.236 205.542, 153.131 203.647, 153.131 203.647, 151.236 201.753, 151.236 201.753, 149.342"/>
</g>
<g fill="#5954d8">
<polygon points=" 208.183, 151.53 208.183, 149.636 210.077, 149.636 210.077, 151.53 211.972, 151.53 211.972, 153.425 210.077, 153.425 210.077, 155.319 208.183, 155.319 208.183, 153.425 206.288, 153.425 206.288, 151.53"/>
</g>
<g fill="#5954d8">
<polygon points=" 212.718, 154.097 212.718, 152.202 214.613, 152.202 214.613, 154.097 216.507, 154.097 216.507, 155.991 214.613, 155.991 214.613, 157.886 212.718, 157.886 212.718, 155.991 210.824, 155.991 210.824, 154.097"/>
</g>
<g fill="#5954d8">
<polygon points=" 217.254, 156.738 217.254, 154.844 219.148, 154.844 219.148, 156.738 221.043, 156.738 221.043, 158.633 219.148, 158.633 219.148, 160.527 217.254, 160.527 217.254, 158.633 215.359, 158.633 215.359, 156.738"/>
</g>
<g fill="#5954d8">
<polygon points=" 221.789, 159.788 221.789, 157.894 223.683, 157.894 223.683, 159.788 225.578, 159.788 225.578, 161.683 223.683, 161.683 223.683, 163.577 221.789, 163.577 221.789, 161.683 219.894, 161.683 219.894, 159.788"/>
</g>
<g fill="#5954d8">
<polygon points=" 226.324, 163.077 226.324, 161.183 228.219, 161.183 228.219, 163.077 230.113, 163.077 230.113, 164.972 228.219, 164.972 228.219, 166.866 226.324, 166.866 226.324, 164.972 224.43, 164.972 224.43, 163.077"/>
</g>
<g fill="#5954d8">
<polygon points=" 230.86, 166.501 230.86, 164.606 232.754, 164.606 232.754, 166.501 234.649, 166.501 234.649, 168.395 232.754, 168.395 232.754, 170.29 230.86, 170.29 230.86, 168.395 228.965, 168.395 228.965, 166.501"/>
</g>
<g fill="#5954d8">
<polygon points=" 235.395, 170.083 235.395, 168.189 237.29, 168.189 237.29, 170.083 239.184, 170.083 239.184, 171.978 237.29, 171.978 237.29, 173.872 235.395, 173.872 235.395, 171.978 233.501, 171.978 233.501, 170.083"/>
</g>
<g fill="#5954d8">
<polygon points=" 239.931, 173.651 239.931, 171.756 241.825, 171.756 241.825, 173.651 243.72, 173.651 243.72, 175.545 241.825, 175.545 241.825, 177.44 239.931, 177.44 239.931, 175.545 238.036, 175.545 238.036, 173.651"/>
</g>
<g fill="#5954d8">
<polygon points=" 244.466, 177.509 244.466, 175.614 246.361, 175.614 246.361, 177.509 248.255, 177.509 248.255, 179.403 246.361, 179.403 246.361, 181.298 244.466, 181.298 244.466, 179.403 242.572, 179.403 242.572, 177.509"/>
</g>
<g fill="#5954d8">
<polygon points=" 249.002, 181.28 249.002, 179.386 250.896, 179.386 250.896, 181.28 252.791, 181.28 252.791, 183.175 250.896, 183.175 250.896, 185.069 249.002, 185.069 249.002, 183.175 247.107, 183.175 247.107, 181.28"/>
</g>
<g fill="#5954d8">
<polygon points=" 253.537, 185.205 253.537, 183.31 255.432, 183.31 255.432, 185.205 257.326, 185.205 257.326, 187.099 255.432, 187.099 255.432, 188.994 253.537, 188.994 253.537, 187.099 251.643, 187.099 251.643, 185.205"/>
</g>
<g fill="#5954d8">
<polygon points=" 258.072, 188.964 258.072, 187.069 259.967, 187.069 259.967, 188.964 261.861, 188.964 261.861, 190.858 259.967, 190.858 259.967, 192.753 258.072, 192.753 258.072, 190.858 256.178, 190.858 256.178, 188.964"/>
</g>
<g fill="#5954d8">
<polygon points=" 262.608, 192.578 262.608, 190.684 264.502, 190.684 264.502, 192.578 266.397, 192.578 266.397, 194.473 264.502, 194.473 264.502, 196.367 262.608, 196.367 262.608, 194.473 260.713, 194.473 260.713, 192.578"/>
</g>
<g fill="#5954d8">
<polygon points=" 267.143, 196.035 267.143, 194.141 269.038, 194.141 269.038, 196.035 270.932, 196.035 270.932, 197.93 269.038, 197.93 269.038, 199.824 267.143, 199.824 267.143, 197.93 265.249, 197.93 265.249, 196.035"/>
</g>
<g fill="#5954d8">
<polygon points=" 271.679, 199.305 271.679, 197.411 273.573, 197.411 273.573, 199.305 275.468, 199.305 275.468, 201.2 273.573, 201.2 273.573, 203.094 271.679, 203.094 271.679, 201.2 269.784, 201.2 269.784, 199.305"/>
</g>
<g fill="#5954d8">
<polygon points=" 276.214, 202.242 276.214, 200.347 278.109, 200.347 278.109, 202.242 280.003, 202.242 280.003, 204.136 278.109, 204.136 278.109, 206.031 276.214, 206.031 276.214, 204.136 274.32, 204.136 274.32, 202.242"/>
</g>
<g fill="#5954d8">
<polygon points=" 280.75, 205.047 280.75, 203.152 282.644, 203.152 282.644, 205.047 284.539, 205.047 284.539, 206.941 282.644, 206.941 282.644, 208.836 280.75, 208.836 280.75, 206.941 278.855, 206.941 278.855, 205.047"/>
</g>
<g fill="#5954d8">
<polygon points=" 285.285, 207.658 285.285, 205.763 287.18, 205.763 287.18, 207.658 289.074, 207.658 289.074, 209.552 287.18, 209.552 287.18, 211.447 285.285, 211.447 285.285, 209.552 283.391, 209.552 283.391, 207.658"/>
</g>
<g fill="#5954d8">
<polygon points=" 289.82, 209.823 289.82, 207.928 291.715, 207.928 291.715, 209.823 293.609, 209.823 293.609, 211.717 291.715, 211.717 291.715, 213.612 289.82, 213.612 289.82, 211.717 287.926, 211.717 287.926, 209.823"/>
</g>
<g fill="#5954d8">
<polygon points=" 294.356, 211.915 294.356, 210.02 296.25, 210.02 296.25, 211.915 298.145, 211.915 298.145, 213.809 296.25, 213.809 296.25, 215.704 294.356, 215.704 294.356, 213.809 292.461, 213.809 292.461, 211.915"/>
</g>
<g fill="#5954d8">
<polygon points=" 298.891, 213.734 298.891, 211.84 300.786, 211.84 300.786, 213.734 302.68, 213.734 302.68, 215.629 300.786, 215.629 300.786, 217.523 298.891, 217.523 298.891, 215.629 296.997, 215.629 296.997, 213.734"/>
</g>
<g fill="#5954d8">
<polygon points=" 303.427, 215.439 303.427, 213.545 305.321, 213.545 305.321, 215.439 307.216, 215.439 307.216, 217.334 305.321, 217.334 305.321, 219.228 303.427, 219.228 303.427, 217.334 301.532, 217.334 301.532, 215.439"/>
</g>
<g fill="#5954d8">
<polygon points=" 307.962, 217.149 307.962, 215.255 309.857, 215.255 309.857, 217.149 311.751, 217.149 311.751, 219.044 309.857, 219.044 309.857, 220.938 307.962, 220.938 307.962, 219.044 306.068, 219.044 306.068, 217.149"/>
</g>
<g fill="#5954d8">
<polygon points=" 312.498, 218.877 312.498, 216.982 314.392, 216.982 314.392, 218.877 316.287, 218.877 316.287, 220.771 314.392, 220.771 314.392, 222.666 312.498, 222.666 312.498, 220.771 310.603, 220.771 310.603, 218.877"/>
</g>
<g fill="#5954d8">
<polygon points=" 317.033, 220.671 317.033, 218.776 318.928, 218.776 318.928, 220.671 320.822, 220.671 320.822, 222.565 318.928, 222.565 318.928, 224.46 317.033, 224.46 317.033, 222.565 315.139, 222.565 315.139, 220.671"/>
</g>
<g fill="#5954d8">
<polygon points=" 321.569, 222.467 321.569, 220.572 323.463, 220.572 323.463, 222.467 325.357, 222.467 325.357, 224.361 323.463, 224.361 323.463, 226.256 321.569, 226.256 321.569, 224.361 319.674, 224.361 319.674, 222.467"/>
</g>
<g fill="#5954d8">
<polygon points=" 326.104, 224.48 326.104, 222.585 327.998, 222.585 327.998, 224.48 329.893, 224.48 329.893, 226.374 327.998, 226.374 327.998, 228.269 326.104, 228.269 326.104, 226.374 324.209, 226.374 324.209, 224.48"/>
</g>
<g fill="#5954d8">
<polygon points=" 330.639, 226.586 330.639, 224.691 332.534, 224.691 332.534, 226.586 334.428, 226.586 334.428, 228.48 332.534, 228.48 332.534, 230.375 330.639, 230.375 330.639, 228.48 328.745, 228.48 328.745, 226.586"/>
</g>
<g fill="#5954d8">
<polygon points=" 335.175, 228.949 335.175, 227.054 337.069, 227.054 337.069, 228.949 338.964, 228.949 338.964, 230.843 337.069, 230.843 337.069, 232.738 335.175, 232.738 335.175, 230.843 333.28, 230.843 333.28, 228.949"/>
</g>
<g fill="#5954d8">
<polygon points=" 339.71, 231.356 339.71, 229.461 341.605, 229.461 341.605, 231.356 343.499, 231.356 343.499, 233.25 341.605, 233.25 341.605, 235.145 339.71, 235.145 339.71, 233.25 337.816, 233.25 337.816, 231.356"/>
</g>
<g fill="#5954d8">
<polygon points=" 344.246, 234.097 344.246, 232.202 346.14, 232.202 346.14, 234.097 348.035, 234.097 348.035, 235.991 346.14, 235.991 346.14, 237.886 344.246, 237.886 344.246, 235.991 342.351, 235.991 342.351, 234.097"/>
</g>
<g fill="#5954d8">
<polygon points=" 348.781, 236.972 348.781, 235.077 350.676, 235.077 350.676, 236.972 352.57, 236.972 352.57, 238.866 350.676, 238.866 350.676, 240.761 348.781, 240.761 348.781, 238.866 346.887, 238.866 346.887, 236.972"/>
</g>
<g fill="#5954d8">
<polygon points=" 353.317, 240.064 353.317, 238.17 355.211, 238.17 355.211, 240.064 357.106, 240.064 357.106, 241.959 355.211, 241.959 355.211, 243.853 353.317, 243.853 353.317, 241.959 351.422, 241.959 351.422, 240.064"/>
</g>
<g fill="#5954d8">
<polygon points=" 357.852, 243.41 357.852, 241.515 359.746, 241.515 359.746, 243.41 361.641, 243.41 361.641, 245.304 359.746, 245.304 359.746, 247.199 357.852, 247.199 357.852, 245.304 355.957, 245.304 355.957, 243.41"/>
</g>
<g fill="#5954d8">
<polygon points=" 362.387, 246.831 362.387, 244.936 364.282, 244.936 364.282, 246.831 366.176, 246.831 366.176, 248.725 364.282, 248.725 364.282, 250.62 362.387, 250.62 362.387, 248.725 360.493, 248.725 360.493, 246.831"/>
</g>
<g fill="#5954d8">
<polygon points=" 366.923, 250.548 366.923, 248.654 368.817, 248.654 368.817, 250.548 370.712, 250.548 370.712, 252.443 368.817, 252.443 368.817, 254.337 366.923, 254.337 366.923, 252.443 365.028, 252.443 365.028, 250.548"/>
</g>
<g fill="#5954d8">
<polygon points=" 371.458, 254.394 371.458, 252.5 373.353, 252.5 373.353, 254.394 375.247, 254.394 375.247, 256.289 373.353, 256.289 373.353, 258.183 371.458, 258.183 371.458, 256.289 369.564, 256.289 369.564, 254.394"/>
</g>
<g fill="#5954d8">
<polygon points=" 375.994, 258.276 375.994, 256.382 377.888, 256.382 377.888, 258.276 379.783, 258.276 379.783, 260.171 377.888, 260.171 377.888, 262.065 375.994, 262.065 375.994, 260.171 374.099, 260.171 374.099, 258.276"/>
</g>
<g fill="#5954d8">
<polygon points=" 380.529, 262.446 380.529, 260.552 382.424, 260.552 382.424, 262.446 384.318, 262.446 384.318, 264.341 382.424, 264.341 382.424, 266.235 380.529, 266.235 380.529, 264.341 378.635, 264.341 378.635, 262.446"/>
</g>
<g fill="#5954d8">
<polygon points=" 385.065, 266.716 385.065, 264.821 386.959, 264.821 386.959, 266.716 388.854, 266.716 388.854, 268.61 386.959, 268.61 386.959, 270.505 385.065, 270.505 385.065, 268.61 383.17, 268.61 383.17, 266.716"/>
</g>
<g fill="#5954d8">
<polygon points=" 389.6, 270.937 389.6, 269.043 391.495, 269.043 391.495, 270.937 393.389, 270.937 393.389, 272.832 391.495, 272.832 391.495, 274.726 389.6, 274.726 389.6, 272.832 387.706, 272.832 387.706, 270.937"/>
</g>
<g fill="#5954d8">
<polygon points=" 394.135, 275.249 394.135, 273.355 396.03, 273.355 396.03, 275.249 397.924, 275.249 397.924, 277.144 396.03, 277.144 396.03, 279.038 394.135, 279.038 394.135, 277.144 392.241, 277.144 392.241, 275.249"/>
</g>
<g fill="#5954d8">
<polygon points=" 398.671, 279.656 398.671, 277.762 400.565, 277.762 400.565, 279.656 402.46, 279.656 402.46, 281.551 400.565, 281.551 400.565, 283.445 398.671, 283.445 398.671, 281.551 396.776, 281.551 396.776, 279.656"/>
</g>
<g fill="#5954d8">
<polygon points=" 403.206, 284.115 403.206, 282.22 405.101, 282.22 405.101, 284.115 406.995, 284.115 406.995, 286.009 405.101, 286.009 405.101, 287.904 403.206, 287.904 403.206, 286.009 401.312, 286.009 401.312, 284.115"/>
</g>
<g fill="#5954d8">
<polygon points=" 407.742, 288.539 407.742, 286.644 409.636, 286.644 409.636, 288.539 411.531, 288.539 411.531, 290.433 409.636, 290.433 409.636, 292.328 407.742, 292.328 407.742, 290.433 405.847, 290.433 405.847, 288.539"/>
</g>
<g fill="#5954d8">
<polygon points=" 412.277, 292.939 412.277, 291.044 414.172, 291.044 414.172, 292.939 416.066, 292.939 416.066, 294.833 414.172, 294.833 414.172, 296.728 412.277, 296.728 412.277, 294.833 410.383, 294.833 410.383, 292.939"/>
</g>
<g fill="#5954d8">
<polygon points=" 416.813, 297.356 416.813, 295.462 418.707, 295.462 418.707, 297.356 420.602, 297.356 420.602, 299.251 418.707, 299.251 418.707, 301.145 416.813, 301.145 416.813, 299.251 414.918, 299.251 414.918, 297.356"/>
</g>
<g fill="#5954d8">
<polygon points=" 421.348, 301.643 421.348, 299.749 423.243, 299.749 423.243, 301.643 425.137, 301.643 425.137, 303.538 423.243, 303.538 423.243, 305.432 421.348, 305.432 421.348, 303.538 419.454, 303.538 419.454, 301.643"/>
</g>
<g fill="#5954d8">
<polygon points=" 425.883, 305.863 425.883, 303.968 427.778, 303.968 427.778, 305.863 429.672, 305.863 429.672, 307.757 427.778, 307.757 427.778, 309.652 425.883, 309.652 425.883, 307.757 423.989, 307.757 423.989, 305.863"/>
</g>
<g fill="#5954d8">
<polygon points=" 430.419, 309.982 430.419, 308.088 432.313, 308.088 432.313, 309.982 434.208, 309.982 434.208, 311.877 432.313, 311.877 432.313, 313.771 430.419, 313.771 430.419, 311.877 428.524, 311.877 428.524, 309.982"/>
</g>
<g fill="#5954d8">
<polygon points=" 434.954, 313.988 434.954, 312.094 436.849, 312.094 436.849, 313.988 438.743, 313.988 438.743, 315.883 436.849, 315.883 436.849, 317.777 434.954, 317.777 434.954, 315.883 433.06, 315.883 433.06, 313.988"/>
</g>
<g fill="#5954d8">
<polygon points=" 439.49, 317.812 439.49, 315.917 441.384, 315.917 441.384, 317.812 443.279, 317.812 443.279, 319.706 441.384, 319.706 441.384, 321.601 439.49, 321.601 439.49, 319.706 437.595, 319.706 437.595, 317.812"/>
</g>
<g fill="#5954d8">
<polygon points=" 444.025, 321.538 444.025, 319.644 445.92, 319.644 445.92, 321.538 447.814, 321.538 447.814, 323.433 445.92, 323.433 445.92, 325.327 444.025, 325.327 444.025, 323.433 442.131, 323.433 442.131, 321.538"/>
</g>
<g fill="#5954d8">
<polygon points=" 448.561, 325.018 448.561, 323.124 450.455, 323.124 450.455, 325.018 452.35, 325.018 452.35, 326.913 450.455, 326.913 450.455, 328.807 448.561, 328.807 448.561, 326.913 446.666, 326.913 446.666, 325.018"/>
</g>
<g fill="#5954d8">
<polygon points=" 453.096, 328.334 453.096, 326.439 454.991, 326.439 454.991, 328.334 456.885, 328.334 456.885, 330.228 454.991, 330.228 454.991, 332.123 453.096, 332.123 453.096, 330.228 451.202, 330.228 451.202, 328.334"/>
</g>
<g fill="#5954d8">
<polygon points=" 457.632, 331.526 457.632, 329.631 459.526, 329.631 459.526, 331.526 461.421, 331.526 461.421, 333.42 459.526, 333.42 459.526, 335.315 457.632, 335.315 457.632, 333.42 455.737, 333.42 455.737, 331.526"/>
</g>
<g fill="#5954d8">
<polygon points=" 462.167, 334.475 462.167, 332.58 464.061, 332.58 464.061, 334.475 465.956, 334.475 465.956, 336.369 464.061, 336.369 464.061, 338.264 462.167, 338.264 462.167, 336.369 460.272, 336.369 460.272, 334.475"/>
</g>
<g fill="#5954d8">
<polygon points=" 466.702, 337.222 466.702, 335.328 468.597, 335.328 468.597, 337.222 470.491, 337.222 470.491, 339.117 468.597, 339.117 468.597, 341.011 466.702, 341.011 466.702, 339.117 464.808, 339.117 464.808, 337.222"/>
</g>
<g fill="#5954d8">
<polygon points=" 471.238, 339.778 471.238, 337.884 473.132, 337.884 473.132, 339.778 475.027, 339.778 475.027, 341.673 473.132, 341.673 473.132, 343.567 471.238, 343.567 471.238, 341.673 469.343, 341.673 469.343, 339.778"/>
</g>
<g fill="#5954d8">
<polygon points=" 475.773, 342.151 475.773, 340.257 477.668, 340.257 477.668, 342.151 479.562, 342.151 479.562, 344.046 477.668, 344.046 477.668, 345.94 475.773, 345.94 475.773, 344.046 473.879, 344.046 473.879, 342.151"/>
</g>
<g fill="#5954d8">
<polygon points=" 480.309, 344.274 480.309, 342.379 482.203, 342.379 482.203, 344.274 484.098, 344.274 484.098, 346.168 482.203, 346.168 482.203, 348.063 480.309, 348.063 480.309, 346.168 478.414, 346.168 478.414, 344.274"/>
</g>
<g fill="#5954d8">
<polygon points=" 484.844, 346.252 484.844, 344.357 486.739, 344.357 486.739, 346.252 488.633, 346.252 488.633, 348.146 486.739, 348.146 486.739, 350.041 484.844, 350.041 484.844, 348.146 482.95, 348.146 482.95, 346.252"/>
</g>
<g fill="#5954d8">
<polygon points=" 489.38, 347.96 489.38, 346.065 491.274, 346.065 491.274, 347.96 493.169, 347.96 493.169, 349.854 491.274, 349.854 491.274, 351.749 489.38, 351.749 489.38, 349.854 487.485, 349.854 487.485, 347.96"/>
</g>
<g fill="#5954d8">
<polygon points=" 493.915, 349.517 493.915, 347.622 495.809, 347.622 495.809, 349.517 497.704, 349.517 497.704, 351.411 495.809, 351.411 495.809, 353.306 493.915, 353.306 493.915, 351.411 492.02, 351.411 492.02, 349.517"/>
</g>
<g fill="#5954d8">
<polygon points=" 498.45, 350.866 498.45, 348.972 500.345, 348.972 500.345, 350.866 502.239, 350.866 502.239, 352.761 500.345, 352.761 500.345, 354.655 498.45, 354.655 498.45, 352.761 496.556, 352.761 496.556, 350.866"/>
</g>
<g fill="#5954d8">
<polygon points=" 502.986, 352.06 502.986, 350.165 504.88, 350.165 504.88, 352.06 506.775, 352.06 506.775, 353.954 504.88, 353.954 504.88, 355.849 502.986, 355.849 502.986, 353.954 501.091, 353.954 501.091, 352.06"/>
</g>
<g fill="#5954d8">
<polygon points=" 507.521, 353.097 507.521, 351.203 509.416, 351.203 509.416, 353.097 511.31, 353.097 511.31, 354.992 509.416, 354.992 509.416, 356.886 507.521, 356.886 507.521, 354.992 505.627, 354.992 505.627, 353.097"/>
</g>
<path d="M107.083,359.481v -271.245" fill="none" stroke="#ff0000" stroke-dasharray=" 20, 5"/>
<path d="M147.902,359.481v -271.245" fill="none" stroke="#ff0000" stroke-dasharray=" 20, 5"/>
<path d="M238.61,359.481v -230.558" fill="none" stroke="#ff0000" stroke-dasharray=" 20, 5"/>
<path d="M329.319,359.481v -230.558" fill="none" stroke="#ff0000" stroke-dasharray=" 20, 5"/>
<text xml:space="preserve" x="317.355" y="55.4141" fill="black" font-size="11.7432" font-family="Helvetica">PYTHIA8, Angantyr option3</text>
<text xml:space="preserve" x="317.355" y="76.0168" fill="black" font-size="11.7432" font-family="Helvetica">p+Au 200 GeV</text>
<text xml:space="preserve" x="357.14" y="91.6464" fill="black" font-size="7.99544" font-family="Times">&#0177;</text>
<text xml:space="preserve" x="344.352" y="95.9091" fill="black" font-size="11.7432" font-family="Helvetica">, p</text>
<text xml:space="preserve" x="340.089" y="90.2256" fill="black" font-size="7.99544" font-family="Times">&#0177;</text>
<text xml:space="preserve" x="328.012" y="95.9091" fill="black" font-size="11.7432" font-family="Helvetica">, k</text>
<text xml:space="preserve" x="323.749" y="92.3569" fill="black" font-size="7.99544" font-family="Times">&#0177;</text>
<text xml:space="preserve" x="317.355" y="95.9091" fill="black" font-size="11.7432" font-family="Times">&#0960;</text>
<text xml:space="preserve" x="377.742" y="122.906" fill="black" font-size="7.99544" font-family="Helvetica">T</text>
<text xml:space="preserve" x="317.355" y="116.512" fill="black" font-size="11.7432" font-family="Helvetica">integrated p</text>
<text xml:space="preserve" x="368.507" y="137.114" fill="black" font-size="11.7432" font-family="Helvetica">cent: 0~10%</text>
<g fill="#5954d8">
<polygon points=" 339.71, 131.816 339.71, 129.921 341.605, 129.921 341.605, 131.816 343.499, 131.816 343.499, 133.71 341.605, 133.71 341.605, 135.605 339.71, 135.605 339.71, 133.71 337.816, 133.71 337.816, 131.816"/>
</g>
<text xml:space="preserve" x="368.507" y="157.717" fill="black" font-size="11.7432" font-family="Helvetica">MB events(all inelastic)</text>
<g stroke="black" stroke-width="1" fill="none">
<polygon points=" 339.71, 152.241 339.71, 150.346 341.605, 150.346 341.605, 152.241 343.499, 152.241 343.499, 154.135 341.605, 154.135 341.605, 156.03 339.71, 156.03 339.71, 154.135 337.816, 154.135 337.816, 152.241"/>
</g></svg>
