<?xml version="1.0" standalone="no"?>
<svg width="567.429" height="409.002" viewBox="0 0 567.429 409.002" xmlns="http://www.w3.org/2000/svg" shape-rendering="crispEdges">
<title>
/Users/jinhyunpark/npl/gitHub/Centrality_dependent_BiasCorrection/plots/dNdeta_charge_MBevents.svg
</title>
<desc>
Creator: ROOT Version 6.28/04
CreationDate: Tue Oct 10 00:07:46 2023</desc>
<defs>
</defs>
<rect x="0.5" y="0" width="566.929" height="408.502" fill="white"/>
<rect x="57.1929" y="20.4251" width="453.543" height="339.056" fill="white"/>
<rect x="57.1929" y="20.4251" width="453.543" height="339.056" fill="none" stroke="black"/>
<rect x="57.1929" y="20.4251" width="453.543" height="339.056" fill="white"/>
<rect x="57.1929" y="20.4251" width="453.543" height="339.056" fill="none" stroke="black"/>
<path d="M57.1929,359.481h 453.543" fill="none" stroke="black"/>
<path d="M57.1929,349.677v 9.80404" fill="none" stroke="black"/>
<path d="M67.2717,354.579v 4.90202" fill="none" stroke="black"/>
<path d="M77.3504,354.579v 4.90202" fill="none" stroke="black"/>
<path d="M87.4291,354.579v 4.90202" fill="none" stroke="black"/>
<path d="M97.5079,354.579v 4.90202" fill="none" stroke="black"/>
<path d="M107.587,349.677v 9.80404" fill="none" stroke="black"/>
<path d="M117.665,354.579v 4.90202" fill="none" stroke="black"/>
<path d="M127.744,354.579v 4.90202" fill="none" stroke="black"/>
<path d="M137.823,354.579v 4.90202" fill="none" stroke="black"/>
<path d="M147.902,354.579v 4.90202" fill="none" stroke="black"/>
<path d="M157.98,349.677v 9.80404" fill="none" stroke="black"/>
<path d="M168.059,354.579v 4.90202" fill="none" stroke="black"/>
<path d="M178.138,354.579v 4.90202" fill="none" stroke="black"/>
<path d="M188.217,354.579v 4.90202" fill="none" stroke="black"/>
<path d="M198.295,354.579v 4.90202" fill="none" stroke="black"/>
<path d="M208.374,349.677v 9.80404" fill="none" stroke="black"/>
<path d="M218.453,354.579v 4.90202" fill="none" stroke="black"/>
<path d="M228.531,354.579v 4.90202" fill="none" stroke="black"/>
<path d="M238.61,354.579v 4.90202" fill="none" stroke="black"/>
<path d="M248.689,354.579v 4.90202" fill="none" stroke="black"/>
<path d="M258.768,349.677v 9.80404" fill="none" stroke="black"/>
<path d="M268.846,354.579v 4.90202" fill="none" stroke="black"/>
<path d="M278.925,354.579v 4.90202" fill="none" stroke="black"/>
<path d="M289.004,354.579v 4.90202" fill="none" stroke="black"/>
<path d="M299.083,354.579v 4.90202" fill="none" stroke="black"/>
<path d="M309.161,349.677v 9.80404" fill="none" stroke="black"/>
<path d="M319.24,354.579v 4.90202" fill="none" stroke="black"/>
<path d="M329.319,354.579v 4.90202" fill="none" stroke="black"/>
<path d="M339.398,354.579v 4.90202" fill="none" stroke="black"/>
<path d="M349.476,354.579v 4.90202" fill="none" stroke="black"/>
<path d="M359.555,349.677v 9.80404" fill="none" stroke="black"/>
<path d="M369.634,354.579v 4.90202" fill="none" stroke="black"/>
<path d="M379.713,354.579v 4.90202" fill="none" stroke="black"/>
<path d="M389.791,354.579v 4.90202" fill="none" stroke="black"/>
<path d="M399.87,354.579v 4.90202" fill="none" stroke="black"/>
<path d="M409.949,349.677v 9.80404" fill="none" stroke="black"/>
<path d="M420.028,354.579v 4.90202" fill="none" stroke="black"/>
<path d="M430.106,354.579v 4.90202" fill="none" stroke="black"/>
<path d="M440.185,354.579v 4.90202" fill="none" stroke="black"/>
<path d="M450.264,354.579v 4.90202" fill="none" stroke="black"/>
<path d="M460.343,349.677v 9.80404" fill="none" stroke="black"/>
<path d="M470.421,354.579v 4.90202" fill="none" stroke="black"/>
<path d="M480.5,354.579v 4.90202" fill="none" stroke="black"/>
<path d="M490.579,354.579v 4.90202" fill="none" stroke="black"/>
<path d="M500.657,354.579v 4.90202" fill="none" stroke="black"/>
<path d="M510.736,349.677v 9.80404" fill="none" stroke="black"/>
<path d="M510.736,349.677v 9.80404" fill="none" stroke="black"/>
<text xml:space="preserve" x="50.9411" y="372.269" fill="black" font-size="13.617" font-family="Helvetica">3.9</text>
<text xml:space="preserve" x="43.1263" y="372.269" fill="black" font-size="13.617" font-family="Times">&#8722;</text>
<text xml:space="preserve" x="101.382" y="372.269" fill="black" font-size="13.617" font-family="Helvetica">3.8</text>
<text xml:space="preserve" x="93.5673" y="372.269" fill="black" font-size="13.617" font-family="Times">&#8722;</text>
<text xml:space="preserve" x="151.823" y="372.269" fill="black" font-size="13.617" font-family="Helvetica">3.7</text>
<text xml:space="preserve" x="144.008" y="372.269" fill="black" font-size="13.617" font-family="Times">&#8722;</text>
<text xml:space="preserve" x="202.264" y="372.269" fill="black" font-size="13.617" font-family="Helvetica">3.6</text>
<text xml:space="preserve" x="194.449" y="372.269" fill="black" font-size="13.617" font-family="Times">&#8722;</text>
<text xml:space="preserve" x="252.705" y="372.269" fill="black" font-size="13.617" font-family="Helvetica">3.5</text>
<text xml:space="preserve" x="244.891" y="372.269" fill="black" font-size="13.617" font-family="Times">&#8722;</text>
<text xml:space="preserve" x="303.146" y="372.269" fill="black" font-size="13.617" font-family="Helvetica">3.4</text>
<text xml:space="preserve" x="295.332" y="372.269" fill="black" font-size="13.617" font-family="Times">&#8722;</text>
<text xml:space="preserve" x="353.587" y="372.269" fill="black" font-size="13.617" font-family="Helvetica">3.3</text>
<text xml:space="preserve" x="345.773" y="372.269" fill="black" font-size="13.617" font-family="Times">&#8722;</text>
<text xml:space="preserve" x="404.029" y="372.269" fill="black" font-size="13.617" font-family="Helvetica">3.2</text>
<text xml:space="preserve" x="396.214" y="372.269" fill="black" font-size="13.617" font-family="Times">&#8722;</text>
<text xml:space="preserve" x="455.18" y="372.269" fill="black" font-size="13.617" font-family="Helvetica">3.1</text>
<text xml:space="preserve" x="448.076" y="372.269" fill="black" font-size="13.617" font-family="Times">&#8722;</text>
<text xml:space="preserve" x="510.594" y="372.269" fill="black" font-size="13.617" font-family="Helvetica">3</text>
<text xml:space="preserve" x="502.779" y="372.269" fill="black" font-size="13.617" font-family="Times">&#8722;</text>
<text xml:space="preserve" x="502.779" y="384.347" fill="black" font-size="13.617" font-family="Times">&#0951;</text>
<path d="M57.1929,20.4251h 453.543" fill="none" stroke="black"/>
<path d="M57.1929,30.2291v -9.80404" fill="none" stroke="black"/>
<path d="M67.2717,25.3271v -4.90202" fill="none" stroke="black"/>
<path d="M77.3504,25.3271v -4.90202" fill="none" stroke="black"/>
<path d="M87.4291,25.3271v -4.90202" fill="none" stroke="black"/>
<path d="M97.5079,25.3271v -4.90202" fill="none" stroke="black"/>
<path d="M107.587,30.2291v -9.80404" fill="none" stroke="black"/>
<path d="M117.665,25.3271v -4.90202" fill="none" stroke="black"/>
<path d="M127.744,25.3271v -4.90202" fill="none" stroke="black"/>
<path d="M137.823,25.3271v -4.90202" fill="none" stroke="black"/>
<path d="M147.902,25.3271v -4.90202" fill="none" stroke="black"/>
<path d="M157.98,30.2291v -9.80404" fill="none" stroke="black"/>
<path d="M168.059,25.3271v -4.90202" fill="none" stroke="black"/>
<path d="M178.138,25.3271v -4.90202" fill="none" stroke="black"/>
<path d="M188.217,25.3271v -4.90202" fill="none" stroke="black"/>
<path d="M198.295,25.3271v -4.90202" fill="none" stroke="black"/>
<path d="M208.374,30.2291v -9.80404" fill="none" stroke="black"/>
<path d="M218.453,25.3271v -4.90202" fill="none" stroke="black"/>
<path d="M228.531,25.3271v -4.90202" fill="none" stroke="black"/>
<path d="M238.61,25.3271v -4.90202" fill="none" stroke="black"/>
<path d="M248.689,25.3271v -4.90202" fill="none" stroke="black"/>
<path d="M258.768,30.2291v -9.80404" fill="none" stroke="black"/>
<path d="M268.846,25.3271v -4.90202" fill="none" stroke="black"/>
<path d="M278.925,25.3271v -4.90202" fill="none" stroke="black"/>
<path d="M289.004,25.3271v -4.90202" fill="none" stroke="black"/>
<path d="M299.083,25.3271v -4.90202" fill="none" stroke="black"/>
<path d="M309.161,30.2291v -9.80404" fill="none" stroke="black"/>
<path d="M319.24,25.3271v -4.90202" fill="none" stroke="black"/>
<path d="M329.319,25.3271v -4.90202" fill="none" stroke="black"/>
<path d="M339.398,25.3271v -4.90202" fill="none" stroke="black"/>
<path d="M349.476,25.3271v -4.90202" fill="none" stroke="black"/>
<path d="M359.555,30.2291v -9.80404" fill="none" stroke="black"/>
<path d="M369.634,25.3271v -4.90202" fill="none" stroke="black"/>
<path d="M379.713,25.3271v -4.90202" fill="none" stroke="black"/>
<path d="M389.791,25.3271v -4.90202" fill="none" stroke="black"/>
<path d="M399.87,25.3271v -4.90202" fill="none" stroke="black"/>
<path d="M409.949,30.2291v -9.80404" fill="none" stroke="black"/>
<path d="M420.028,25.3271v -4.90202" fill="none" stroke="black"/>
<path d="M430.106,25.3271v -4.90202" fill="none" stroke="black"/>
<path d="M440.185,25.3271v -4.90202" fill="none" stroke="black"/>
<path d="M450.264,25.3271v -4.90202" fill="none" stroke="black"/>
<path d="M460.343,30.2291v -9.80404" fill="none" stroke="black"/>
<path d="M470.421,25.3271v -4.90202" fill="none" stroke="black"/>
<path d="M480.5,25.3271v -4.90202" fill="none" stroke="black"/>
<path d="M490.579,25.3271v -4.90202" fill="none" stroke="black"/>
<path d="M500.657,25.3271v -4.90202" fill="none" stroke="black"/>
<path d="M510.736,30.2291v -9.80404" fill="none" stroke="black"/>
<path d="M510.736,30.2291v -9.80404" fill="none" stroke="black"/>
<path d="M57.1929,359.481v -339.056" fill="none" stroke="black"/>
<path d="M71.3094,359.481h -14.1165" fill="none" stroke="black"/>
<path d="M64.2512,352.7h -7.05827" fill="none" stroke="black"/>
<path d="M64.2512,345.919h -7.05827" fill="none" stroke="black"/>
<path d="M64.2512,339.138h -7.05827" fill="none" stroke="black"/>
<path d="M64.2512,332.357h -7.05827" fill="none" stroke="black"/>
<path d="M71.3094,325.576h -14.1165" fill="none" stroke="black"/>
<path d="M64.2512,318.795h -7.05827" fill="none" stroke="black"/>
<path d="M64.2512,312.014h -7.05827" fill="none" stroke="black"/>
<path d="M64.2512,305.232h -7.05827" fill="none" stroke="black"/>
<path d="M64.2512,298.451h -7.05827" fill="none" stroke="black"/>
<path d="M71.3094,291.67h -14.1165" fill="none" stroke="black"/>
<path d="M64.2512,284.889h -7.05827" fill="none" stroke="black"/>
<path d="M64.2512,278.108h -7.05827" fill="none" stroke="black"/>
<path d="M64.2512,271.327h -7.05827" fill="none" stroke="black"/>
<path d="M64.2512,264.546h -7.05827" fill="none" stroke="black"/>
<path d="M71.3094,257.764h -14.1165" fill="none" stroke="black"/>
<path d="M64.2512,250.983h -7.05827" fill="none" stroke="black"/>
<path d="M64.2512,244.202h -7.05827" fill="none" stroke="black"/>
<path d="M64.2512,237.421h -7.05827" fill="none" stroke="black"/>
<path d="M64.2512,230.64h -7.05827" fill="none" stroke="black"/>
<path d="M71.3094,223.859h -14.1165" fill="none" stroke="black"/>
<path d="M64.2512,217.078h -7.05827" fill="none" stroke="black"/>
<path d="M64.2512,210.297h -7.05827" fill="none" stroke="black"/>
<path d="M64.2512,203.515h -7.05827" fill="none" stroke="black"/>
<path d="M64.2512,196.734h -7.05827" fill="none" stroke="black"/>
<path d="M71.3094,189.953h -14.1165" fill="none" stroke="black"/>
<path d="M64.2512,183.172h -7.05827" fill="none" stroke="black"/>
<path d="M64.2512,176.391h -7.05827" fill="none" stroke="black"/>
<path d="M64.2512,169.61h -7.05827" fill="none" stroke="black"/>
<path d="M64.2512,162.829h -7.05827" fill="none" stroke="black"/>
<path d="M71.3094,156.048h -14.1165" fill="none" stroke="black"/>
<path d="M64.2512,149.266h -7.05827" fill="none" stroke="black"/>
<path d="M64.2512,142.485h -7.05827" fill="none" stroke="black"/>
<path d="M64.2512,135.704h -7.05827" fill="none" stroke="black"/>
<path d="M64.2512,128.923h -7.05827" fill="none" stroke="black"/>
<path d="M71.3094,122.142h -14.1165" fill="none" stroke="black"/>
<path d="M64.2512,115.361h -7.05827" fill="none" stroke="black"/>
<path d="M64.2512,108.58h -7.05827" fill="none" stroke="black"/>
<path d="M64.2512,101.799h -7.05827" fill="none" stroke="black"/>
<path d="M64.2512,95.0175h -7.05827" fill="none" stroke="black"/>
<path d="M71.3094,88.2363h -14.1165" fill="none" stroke="black"/>
<path d="M64.2512,81.4552h -7.05827" fill="none" stroke="black"/>
<path d="M64.2512,74.6741h -7.05827" fill="none" stroke="black"/>
<path d="M64.2512,67.893h -7.05827" fill="none" stroke="black"/>
<path d="M64.2512,61.1118h -7.05827" fill="none" stroke="black"/>
<path d="M71.3094,54.3307h -14.1165" fill="none" stroke="black"/>
<path d="M64.2512,47.5496h -7.05827" fill="none" stroke="black"/>
<path d="M64.2512,40.7685h -7.05827" fill="none" stroke="black"/>
<path d="M64.2512,33.9873h -7.05827" fill="none" stroke="black"/>
<path d="M64.2512,27.2062h -7.05827" fill="none" stroke="black"/>
<path d="M71.3094,20.4251h -14.1165" fill="none" stroke="black"/>
<text xml:space="preserve" x="46.6784" y="364.454" fill="black" font-size="13.617" font-family="Helvetica">5</text>
<text xml:space="preserve" x="35.3114" y="330.353" fill="black" font-size="13.617" font-family="Helvetica">5.5</text>
<text xml:space="preserve" x="46.6784" y="296.252" fill="black" font-size="13.617" font-family="Helvetica">6</text>
<text xml:space="preserve" x="35.3114" y="262.151" fill="black" font-size="13.617" font-family="Helvetica">6.5</text>
<text xml:space="preserve" x="46.6784" y="229.471" fill="black" font-size="13.617" font-family="Helvetica">7</text>
<text xml:space="preserve" x="35.3114" y="194.66" fill="black" font-size="13.617" font-family="Helvetica">7.5</text>
<text xml:space="preserve" x="46.6784" y="160.559" fill="black" font-size="13.617" font-family="Helvetica">8</text>
<text xml:space="preserve" x="35.3114" y="126.458" fill="black" font-size="13.617" font-family="Helvetica">8.5</text>
<text xml:space="preserve" x="46.6784" y="93.0673" fill="black" font-size="13.617" font-family="Helvetica">9</text>
<text xml:space="preserve" x="35.3114" y="58.9663" fill="black" font-size="13.617" font-family="Helvetica">9.5</text>
<text xml:space="preserve" x="38.8636" y="24.8653" fill="black" font-size="13.617" font-family="Helvetica">10</text>
<g transform="rotate(-90,22.5236,27.7071)">
<text xml:space="preserve" x="22.5236" y="27.7071" fill="black" font-size="13.617" font-family="Times">&#0951;</text>
</g>
<g transform="rotate(-90,22.5236,56.1246)">
<text xml:space="preserve" x="22.5236" y="56.1246" fill="black" font-size="13.617" font-family="Helvetica">dN/d</text>
</g>
<path d="M510.736,359.481v -339.056" fill="none" stroke="black"/>
<path d="M496.62,359.481h 14.1165" fill="none" stroke="black"/>
<path d="M503.678,352.7h 7.05827" fill="none" stroke="black"/>
<path d="M503.678,345.919h 7.05827" fill="none" stroke="black"/>
<path d="M503.678,339.138h 7.05827" fill="none" stroke="black"/>
<path d="M503.678,332.357h 7.05827" fill="none" stroke="black"/>
<path d="M496.62,325.576h 14.1165" fill="none" stroke="black"/>
<path d="M503.678,318.795h 7.05827" fill="none" stroke="black"/>
<path d="M503.678,312.014h 7.05827" fill="none" stroke="black"/>
<path d="M503.678,305.232h 7.05827" fill="none" stroke="black"/>
<path d="M503.678,298.451h 7.05827" fill="none" stroke="black"/>
<path d="M496.62,291.67h 14.1165" fill="none" stroke="black"/>
<path d="M503.678,284.889h 7.05827" fill="none" stroke="black"/>
<path d="M503.678,278.108h 7.05827" fill="none" stroke="black"/>
<path d="M503.678,271.327h 7.05827" fill="none" stroke="black"/>
<path d="M503.678,264.546h 7.05827" fill="none" stroke="black"/>
<path d="M496.62,257.764h 14.1165" fill="none" stroke="black"/>
<path d="M503.678,250.983h 7.05827" fill="none" stroke="black"/>
<path d="M503.678,244.202h 7.05827" fill="none" stroke="black"/>
<path d="M503.678,237.421h 7.05827" fill="none" stroke="black"/>
<path d="M503.678,230.64h 7.05827" fill="none" stroke="black"/>
<path d="M496.62,223.859h 14.1165" fill="none" stroke="black"/>
<path d="M503.678,217.078h 7.05827" fill="none" stroke="black"/>
<path d="M503.678,210.297h 7.05827" fill="none" stroke="black"/>
<path d="M503.678,203.515h 7.05827" fill="none" stroke="black"/>
<path d="M503.678,196.734h 7.05827" fill="none" stroke="black"/>
<path d="M496.62,189.953h 14.1165" fill="none" stroke="black"/>
<path d="M503.678,183.172h 7.05827" fill="none" stroke="black"/>
<path d="M503.678,176.391h 7.05827" fill="none" stroke="black"/>
<path d="M503.678,169.61h 7.05827" fill="none" stroke="black"/>
<path d="M503.678,162.829h 7.05827" fill="none" stroke="black"/>
<path d="M496.62,156.048h 14.1165" fill="none" stroke="black"/>
<path d="M503.678,149.266h 7.05827" fill="none" stroke="black"/>
<path d="M503.678,142.485h 7.05827" fill="none" stroke="black"/>
<path d="M503.678,135.704h 7.05827" fill="none" stroke="black"/>
<path d="M503.678,128.923h 7.05827" fill="none" stroke="black"/>
<path d="M496.62,122.142h 14.1165" fill="none" stroke="black"/>
<path d="M503.678,115.361h 7.05827" fill="none" stroke="black"/>
<path d="M503.678,108.58h 7.05827" fill="none" stroke="black"/>
<path d="M503.678,101.799h 7.05827" fill="none" stroke="black"/>
<path d="M503.678,95.0175h 7.05827" fill="none" stroke="black"/>
<path d="M496.62,88.2363h 14.1165" fill="none" stroke="black"/>
<path d="M503.678,81.4552h 7.05827" fill="none" stroke="black"/>
<path d="M503.678,74.6741h 7.05827" fill="none" stroke="black"/>
<path d="M503.678,67.893h 7.05827" fill="none" stroke="black"/>
<path d="M503.678,61.1118h 7.05827" fill="none" stroke="black"/>
<path d="M496.62,54.3307h 14.1165" fill="none" stroke="black"/>
<path d="M503.678,47.5496h 7.05827" fill="none" stroke="black"/>
<path d="M503.678,40.7685h 7.05827" fill="none" stroke="black"/>
<path d="M503.678,33.9873h 7.05827" fill="none" stroke="black"/>
<path d="M503.678,27.2062h 7.05827" fill="none" stroke="black"/>
<path d="M496.62,20.4251h 14.1165" fill="none" stroke="black"/>
<path d="M57.1929,261.033h 22.3551" fill="none" stroke="black"/>
<path d="M85.2315,261.033h 22.3551" fill="none" stroke="black"/>
<g fill="black">
<polygon points=" 81.4425, 260.086 81.4425, 258.192 83.337, 258.192 83.337, 260.086 85.2315, 260.086 85.2315, 261.981 83.337, 261.981 83.337, 263.875 81.4425, 263.875 81.4425, 261.981 79.548, 261.981 79.548, 260.086"/>
</g>
<path d="M107.587,250.145h 22.3551" fill="none" stroke="black"/>
<path d="M135.625,250.145h 22.3551" fill="none" stroke="black"/>
<g fill="black">
<polygon points=" 131.836, 249.198 131.836, 247.303 133.731, 247.303 133.731, 249.198 135.625, 249.198 135.625, 251.092 133.731, 251.092 133.731, 252.987 131.836, 252.987 131.836, 251.092 129.942, 251.092 129.942, 249.198"/>
</g>
<path d="M157.98,239.645h 22.3551" fill="none" stroke="black"/>
<path d="M186.019,239.645h 22.3551" fill="none" stroke="black"/>
<g fill="black">
<polygon points=" 182.23, 238.697 182.23, 236.803 184.124, 236.803 184.124, 238.697 186.019, 238.697 186.019, 240.592 184.124, 240.592 184.124, 242.486 182.23, 242.486 182.23, 240.592 180.335, 240.592 180.335, 238.697"/>
</g>
<path d="M208.374,229.754h 22.3551" fill="none" stroke="black"/>
<path d="M236.413,229.754h 22.3551" fill="none" stroke="black"/>
<g fill="black">
<polygon points=" 232.624, 228.807 232.624, 226.912 234.518, 226.912 234.518, 228.807 236.413, 228.807 236.413, 230.701 234.518, 230.701 234.518, 232.596 232.624, 232.596 232.624, 230.701 230.729, 230.701 230.729, 228.807"/>
</g>
<path d="M258.768,220.627h 22.3551" fill="none" stroke="black"/>
<path d="M286.806,220.627h 22.3551" fill="none" stroke="black"/>
<g fill="black">
<polygon points=" 283.017, 219.68 283.017, 217.785 284.912, 217.785 284.912, 219.68 286.806, 219.68 286.806, 221.574 284.912, 221.574 284.912, 223.469 283.017, 223.469 283.017, 221.574 281.123, 221.574 281.123, 219.68"/>
</g>
<path d="M309.161,211.582h 22.3551" fill="none" stroke="black"/>
<path d="M337.2,211.582h 22.3551" fill="none" stroke="black"/>
<g fill="black">
<polygon points=" 333.411, 210.635 333.411, 208.74 335.306, 208.74 335.306, 210.635 337.2, 210.635 337.2, 212.529 335.306, 212.529 335.306, 214.424 333.411, 214.424 333.411, 212.529 331.517, 212.529 331.517, 210.635"/>
</g>
<path d="M359.555,203.353h 22.3551" fill="none" stroke="black"/>
<path d="M387.594,203.353h 22.3551" fill="none" stroke="black"/>
<g fill="black">
<polygon points=" 383.805, 202.405 383.805, 200.511 385.699, 200.511 385.699, 202.405 387.594, 202.405 387.594, 204.3 385.699, 204.3 385.699, 206.194 383.805, 206.194 383.805, 204.3 381.91, 204.3 381.91, 202.405"/>
</g>
<path d="M409.949,195.575h 22.3551" fill="none" stroke="black"/>
<path d="M437.987,195.575h 22.3551" fill="none" stroke="black"/>
<g fill="black">
<polygon points=" 434.198, 194.628 434.198, 192.734 436.093, 192.734 436.093, 194.628 437.987, 194.628 437.987, 196.523 436.093, 196.523 436.093, 198.417 434.198, 198.417 434.198, 196.523 432.304, 196.523 432.304, 194.628"/>
</g>
<path d="M460.343,188.206h 22.3551" fill="none" stroke="black"/>
<path d="M488.381,188.206h 22.3551" fill="none" stroke="black"/>
<g fill="black">
<polygon points=" 484.592, 187.259 484.592, 185.364 486.487, 185.364 486.487, 187.259 488.381, 187.259 488.381, 189.153 486.487, 189.153 486.487, 191.048 484.592, 191.048 484.592, 189.153 482.698, 189.153 482.698, 187.259"/>
</g>
<text xml:space="preserve" x="204.396" y="56.835" fill="black" font-size="11.7432" font-family="Helvetica">PYTHIA8, Angantyr option3</text>
<text xml:space="preserve" x="204.396" y="82.4108" fill="black" font-size="11.7432" font-family="Helvetica">p+Au 200 GeV</text>
<text xml:space="preserve" x="286.806" y="105.145" fill="black" font-size="7.99544" font-family="Times">&#0177;</text>
<text xml:space="preserve" x="274.018" y="108.697" fill="black" font-size="11.7432" font-family="Helvetica">, p</text>
<text xml:space="preserve" x="269.756" y="103.724" fill="black" font-size="7.99544" font-family="Times">&#0177;</text>
<text xml:space="preserve" x="257.678" y="108.697" fill="black" font-size="11.7432" font-family="Helvetica">, k</text>
<text xml:space="preserve" x="253.416" y="105.145" fill="black" font-size="7.99544" font-family="Times">&#0177;</text>
<text xml:space="preserve" x="247.022" y="108.697" fill="black" font-size="11.7432" font-family="Times">&#0960;</text>
<text xml:space="preserve" x="204.396" y="108.697" fill="black" font-size="11.7432" font-family="Helvetica">particle: </text>
<text xml:space="preserve" x="451.628" y="133.562" fill="black" font-size="11.7432" font-family="Helvetica"> 0.002</text>
<text xml:space="preserve" x="445.234" y="133.562" fill="black" font-size="11.7432" font-family="Times">&#0177;</text>
<text xml:space="preserve" x="367.796" y="133.562" fill="black" font-size="11.7432" font-family="Helvetica"> &lt; -3.0: 63.218 </text>
<text xml:space="preserve" x="361.402" y="133.562" fill="black" font-size="11.7432" font-family="Times">&#0951;</text>
<text xml:space="preserve" x="204.396" y="133.562" fill="black" font-size="11.7432" font-family="Helvetica"># of charged particles in -3.9 &lt; </text></svg>
