<?xml version="1.0" standalone="no"?>
<svg width="567.429" height="409.002" viewBox="0 0 567.429 409.002" xmlns="http://www.w3.org/2000/svg" shape-rendering="crispEdges">
<title>
/Users/jinhyunpark/npl/gitHub/Centrality_dependent_BiasCorrection/plots/dNdeta_charge_all2byCent_cent1.svg
</title>
<desc>
Creator: ROOT Version 6.28/04
CreationDate: Tue Oct 24 13:57:27 2023</desc>
<defs>
</defs>
<rect x="0.5" y="0" width="566.929" height="408.502" fill="white"/>
<rect x="68.5315" y="20.4251" width="430.866" height="339.056" fill="white"/>
<rect x="68.5315" y="20.4251" width="430.866" height="339.056" fill="none" stroke="black"/>
<rect x="68.5315" y="20.4251" width="430.866" height="339.056" fill="white"/>
<rect x="68.5315" y="20.4251" width="430.866" height="339.056" fill="none" stroke="black"/>
<path d="M68.5315,359.481h 430.866" fill="none" stroke="black"/>
<path d="M68.5315,350.168v 9.31384" fill="none" stroke="black"/>
<path d="M77.1488,354.824v 4.65692" fill="none" stroke="black"/>
<path d="M85.7661,354.824v 4.65692" fill="none" stroke="black"/>
<path d="M94.3835,354.824v 4.65692" fill="none" stroke="black"/>
<path d="M103.001,354.824v 4.65692" fill="none" stroke="black"/>
<path d="M111.618,350.168v 9.31384" fill="none" stroke="black"/>
<path d="M120.235,354.824v 4.65692" fill="none" stroke="black"/>
<path d="M128.853,354.824v 4.65692" fill="none" stroke="black"/>
<path d="M137.47,354.824v 4.65692" fill="none" stroke="black"/>
<path d="M146.087,354.824v 4.65692" fill="none" stroke="black"/>
<path d="M154.705,350.168v 9.31384" fill="none" stroke="black"/>
<path d="M163.322,354.824v 4.65692" fill="none" stroke="black"/>
<path d="M171.939,354.824v 4.65692" fill="none" stroke="black"/>
<path d="M180.557,354.824v 4.65692" fill="none" stroke="black"/>
<path d="M189.174,354.824v 4.65692" fill="none" stroke="black"/>
<path d="M197.791,350.168v 9.31384" fill="none" stroke="black"/>
<path d="M206.409,354.824v 4.65692" fill="none" stroke="black"/>
<path d="M215.026,354.824v 4.65692" fill="none" stroke="black"/>
<path d="M223.643,354.824v 4.65692" fill="none" stroke="black"/>
<path d="M232.261,354.824v 4.65692" fill="none" stroke="black"/>
<path d="M240.878,350.168v 9.31384" fill="none" stroke="black"/>
<path d="M249.495,354.824v 4.65692" fill="none" stroke="black"/>
<path d="M258.113,354.824v 4.65692" fill="none" stroke="black"/>
<path d="M266.73,354.824v 4.65692" fill="none" stroke="black"/>
<path d="M275.347,354.824v 4.65692" fill="none" stroke="black"/>
<path d="M283.965,350.168v 9.31384" fill="none" stroke="black"/>
<path d="M292.582,354.824v 4.65692" fill="none" stroke="black"/>
<path d="M301.199,354.824v 4.65692" fill="none" stroke="black"/>
<path d="M309.817,354.824v 4.65692" fill="none" stroke="black"/>
<path d="M318.434,354.824v 4.65692" fill="none" stroke="black"/>
<path d="M327.051,350.168v 9.31384" fill="none" stroke="black"/>
<path d="M335.669,354.824v 4.65692" fill="none" stroke="black"/>
<path d="M344.286,354.824v 4.65692" fill="none" stroke="black"/>
<path d="M352.903,354.824v 4.65692" fill="none" stroke="black"/>
<path d="M361.52,354.824v 4.65692" fill="none" stroke="black"/>
<path d="M370.138,350.168v 9.31384" fill="none" stroke="black"/>
<path d="M378.755,354.824v 4.65692" fill="none" stroke="black"/>
<path d="M387.372,354.824v 4.65692" fill="none" stroke="black"/>
<path d="M395.99,354.824v 4.65692" fill="none" stroke="black"/>
<path d="M404.607,354.824v 4.65692" fill="none" stroke="black"/>
<path d="M413.224,350.168v 9.31384" fill="none" stroke="black"/>
<path d="M421.842,354.824v 4.65692" fill="none" stroke="black"/>
<path d="M430.459,354.824v 4.65692" fill="none" stroke="black"/>
<path d="M439.076,354.824v 4.65692" fill="none" stroke="black"/>
<path d="M447.694,354.824v 4.65692" fill="none" stroke="black"/>
<path d="M456.311,350.168v 9.31384" fill="none" stroke="black"/>
<path d="M464.928,354.824v 4.65692" fill="none" stroke="black"/>
<path d="M473.546,354.824v 4.65692" fill="none" stroke="black"/>
<path d="M482.163,354.824v 4.65692" fill="none" stroke="black"/>
<path d="M490.78,354.824v 4.65692" fill="none" stroke="black"/>
<path d="M499.398,350.168v 9.31384" fill="none" stroke="black"/>
<text xml:space="preserve" x="67.9916" y="372.269" fill="black" font-size="13.617" font-family="Helvetica">5</text>
<text xml:space="preserve" x="60.1768" y="372.269" fill="black" font-size="13.617" font-family="Times">&#8722;</text>
<text xml:space="preserve" x="111.328" y="372.269" fill="black" font-size="13.617" font-family="Helvetica">4</text>
<text xml:space="preserve" x="103.513" y="372.269" fill="black" font-size="13.617" font-family="Times">&#8722;</text>
<text xml:space="preserve" x="154.665" y="372.269" fill="black" font-size="13.617" font-family="Helvetica">3</text>
<text xml:space="preserve" x="146.85" y="372.269" fill="black" font-size="13.617" font-family="Times">&#8722;</text>
<text xml:space="preserve" x="197.291" y="372.269" fill="black" font-size="13.617" font-family="Helvetica">2</text>
<text xml:space="preserve" x="189.476" y="372.269" fill="black" font-size="13.617" font-family="Times">&#8722;</text>
<text xml:space="preserve" x="241.338" y="372.269" fill="black" font-size="13.617" font-family="Helvetica">1</text>
<text xml:space="preserve" x="234.234" y="372.269" fill="black" font-size="13.617" font-family="Times">&#8722;</text>
<text xml:space="preserve" x="280.412" y="372.269" fill="black" font-size="13.617" font-family="Helvetica">0</text>
<text xml:space="preserve" x="323.749" y="372.269" fill="black" font-size="13.617" font-family="Helvetica">1</text>
<text xml:space="preserve" x="366.375" y="372.269" fill="black" font-size="13.617" font-family="Helvetica">2</text>
<text xml:space="preserve" x="409.002" y="372.269" fill="black" font-size="13.617" font-family="Helvetica">3</text>
<text xml:space="preserve" x="452.338" y="372.269" fill="black" font-size="13.617" font-family="Helvetica">4</text>
<text xml:space="preserve" x="495.675" y="372.269" fill="black" font-size="13.617" font-family="Helvetica">5</text>
<text xml:space="preserve" x="491.412" y="384.347" fill="black" font-size="13.617" font-family="Times">&#0951;</text>
<path d="M68.5315,20.4251h 430.866" fill="none" stroke="black"/>
<path d="M68.5315,29.7389v -9.31384" fill="none" stroke="black"/>
<path d="M77.1488,25.082v -4.65692" fill="none" stroke="black"/>
<path d="M85.7661,25.082v -4.65692" fill="none" stroke="black"/>
<path d="M94.3835,25.082v -4.65692" fill="none" stroke="black"/>
<path d="M103.001,25.082v -4.65692" fill="none" stroke="black"/>
<path d="M111.618,29.7389v -9.31384" fill="none" stroke="black"/>
<path d="M120.235,25.082v -4.65692" fill="none" stroke="black"/>
<path d="M128.853,25.082v -4.65692" fill="none" stroke="black"/>
<path d="M137.47,25.082v -4.65692" fill="none" stroke="black"/>
<path d="M146.087,25.082v -4.65692" fill="none" stroke="black"/>
<path d="M154.705,29.7389v -9.31384" fill="none" stroke="black"/>
<path d="M163.322,25.082v -4.65692" fill="none" stroke="black"/>
<path d="M171.939,25.082v -4.65692" fill="none" stroke="black"/>
<path d="M180.557,25.082v -4.65692" fill="none" stroke="black"/>
<path d="M189.174,25.082v -4.65692" fill="none" stroke="black"/>
<path d="M197.791,29.7389v -9.31384" fill="none" stroke="black"/>
<path d="M206.409,25.082v -4.65692" fill="none" stroke="black"/>
<path d="M215.026,25.082v -4.65692" fill="none" stroke="black"/>
<path d="M223.643,25.082v -4.65692" fill="none" stroke="black"/>
<path d="M232.261,25.082v -4.65692" fill="none" stroke="black"/>
<path d="M240.878,29.7389v -9.31384" fill="none" stroke="black"/>
<path d="M249.495,25.082v -4.65692" fill="none" stroke="black"/>
<path d="M258.113,25.082v -4.65692" fill="none" stroke="black"/>
<path d="M266.73,25.082v -4.65692" fill="none" stroke="black"/>
<path d="M275.347,25.082v -4.65692" fill="none" stroke="black"/>
<path d="M283.965,29.7389v -9.31384" fill="none" stroke="black"/>
<path d="M292.582,25.082v -4.65692" fill="none" stroke="black"/>
<path d="M301.199,25.082v -4.65692" fill="none" stroke="black"/>
<path d="M309.817,25.082v -4.65692" fill="none" stroke="black"/>
<path d="M318.434,25.082v -4.65692" fill="none" stroke="black"/>
<path d="M327.051,29.7389v -9.31384" fill="none" stroke="black"/>
<path d="M335.669,25.082v -4.65692" fill="none" stroke="black"/>
<path d="M344.286,25.082v -4.65692" fill="none" stroke="black"/>
<path d="M352.903,25.082v -4.65692" fill="none" stroke="black"/>
<path d="M361.52,25.082v -4.65692" fill="none" stroke="black"/>
<path d="M370.138,29.7389v -9.31384" fill="none" stroke="black"/>
<path d="M378.755,25.082v -4.65692" fill="none" stroke="black"/>
<path d="M387.372,25.082v -4.65692" fill="none" stroke="black"/>
<path d="M395.99,25.082v -4.65692" fill="none" stroke="black"/>
<path d="M404.607,25.082v -4.65692" fill="none" stroke="black"/>
<path d="M413.224,29.7389v -9.31384" fill="none" stroke="black"/>
<path d="M421.842,25.082v -4.65692" fill="none" stroke="black"/>
<path d="M430.459,25.082v -4.65692" fill="none" stroke="black"/>
<path d="M439.076,25.082v -4.65692" fill="none" stroke="black"/>
<path d="M447.694,25.082v -4.65692" fill="none" stroke="black"/>
<path d="M456.311,29.7389v -9.31384" fill="none" stroke="black"/>
<path d="M464.928,25.082v -4.65692" fill="none" stroke="black"/>
<path d="M473.546,25.082v -4.65692" fill="none" stroke="black"/>
<path d="M482.163,25.082v -4.65692" fill="none" stroke="black"/>
<path d="M490.78,25.082v -4.65692" fill="none" stroke="black"/>
<path d="M499.398,29.7389v -9.31384" fill="none" stroke="black"/>
<path d="M68.5315,359.481v -339.056" fill="none" stroke="black"/>
<path d="M82.648,359.481h -14.1165" fill="none" stroke="black"/>
<path d="M75.5898,351.005h -7.05827" fill="none" stroke="black"/>
<path d="M75.5898,342.529h -7.05827" fill="none" stroke="black"/>
<path d="M75.5898,334.052h -7.05827" fill="none" stroke="black"/>
<path d="M75.5898,325.576h -7.05827" fill="none" stroke="black"/>
<path d="M82.648,317.099h -14.1165" fill="none" stroke="black"/>
<path d="M75.5898,308.623h -7.05827" fill="none" stroke="black"/>
<path d="M75.5898,300.147h -7.05827" fill="none" stroke="black"/>
<path d="M75.5898,291.67h -7.05827" fill="none" stroke="black"/>
<path d="M75.5898,283.194h -7.05827" fill="none" stroke="black"/>
<path d="M82.648,274.717h -14.1165" fill="none" stroke="black"/>
<path d="M75.5898,266.241h -7.05827" fill="none" stroke="black"/>
<path d="M75.5898,257.764h -7.05827" fill="none" stroke="black"/>
<path d="M75.5898,249.288h -7.05827" fill="none" stroke="black"/>
<path d="M75.5898,240.812h -7.05827" fill="none" stroke="black"/>
<path d="M82.648,232.335h -14.1165" fill="none" stroke="black"/>
<path d="M75.5898,223.859h -7.05827" fill="none" stroke="black"/>
<path d="M75.5898,215.382h -7.05827" fill="none" stroke="black"/>
<path d="M75.5898,206.906h -7.05827" fill="none" stroke="black"/>
<path d="M75.5898,198.43h -7.05827" fill="none" stroke="black"/>
<path d="M82.648,189.953h -14.1165" fill="none" stroke="black"/>
<path d="M75.5898,181.477h -7.05827" fill="none" stroke="black"/>
<path d="M75.5898,173h -7.05827" fill="none" stroke="black"/>
<path d="M75.5898,164.524h -7.05827" fill="none" stroke="black"/>
<path d="M75.5898,156.048h -7.05827" fill="none" stroke="black"/>
<path d="M82.648,147.571h -14.1165" fill="none" stroke="black"/>
<path d="M75.5898,139.095h -7.05827" fill="none" stroke="black"/>
<path d="M75.5898,130.618h -7.05827" fill="none" stroke="black"/>
<path d="M75.5898,122.142h -7.05827" fill="none" stroke="black"/>
<path d="M75.5898,113.666h -7.05827" fill="none" stroke="black"/>
<path d="M82.648,105.189h -14.1165" fill="none" stroke="black"/>
<path d="M75.5898,96.7127h -7.05827" fill="none" stroke="black"/>
<path d="M75.5898,88.2363h -7.05827" fill="none" stroke="black"/>
<path d="M75.5898,79.7599h -7.05827" fill="none" stroke="black"/>
<path d="M75.5898,71.2835h -7.05827" fill="none" stroke="black"/>
<path d="M82.648,62.8071h -14.1165" fill="none" stroke="black"/>
<path d="M75.5898,54.3307h -7.05827" fill="none" stroke="black"/>
<path d="M75.5898,45.8543h -7.05827" fill="none" stroke="black"/>
<path d="M75.5898,37.3779h -7.05827" fill="none" stroke="black"/>
<path d="M75.5898,28.9015h -7.05827" fill="none" stroke="black"/>
<path d="M82.648,20.4251h -14.1165" fill="none" stroke="black"/>
<text xml:space="preserve" x="58.0454" y="364.454" fill="black" font-size="13.617" font-family="Helvetica">0</text>
<text xml:space="preserve" x="46.6784" y="321.828" fill="black" font-size="13.617" font-family="Helvetica">0.5</text>
<text xml:space="preserve" x="60.1768" y="279.912" fill="black" font-size="13.617" font-family="Helvetica">1</text>
<text xml:space="preserve" x="46.6784" y="237.286" fill="black" font-size="13.617" font-family="Helvetica">1.5</text>
<text xml:space="preserve" x="58.0454" y="195.37" fill="black" font-size="13.617" font-family="Helvetica">2</text>
<text xml:space="preserve" x="46.6784" y="152.034" fill="black" font-size="13.617" font-family="Helvetica">2.5</text>
<text xml:space="preserve" x="58.0454" y="110.118" fill="black" font-size="13.617" font-family="Helvetica">3</text>
<text xml:space="preserve" x="46.6784" y="67.4916" fill="black" font-size="13.617" font-family="Helvetica">3.5</text>
<text xml:space="preserve" x="58.0454" y="25.5758" fill="black" font-size="13.617" font-family="Helvetica">4</text>
<g transform="rotate(-90,40.2845,32.6801)">
<text xml:space="preserve" x="40.2845" y="32.6801" fill="black" font-size="13.617" font-family="Times">&#0951;</text>
</g>
<g transform="rotate(-90,40.2845,39.7845)">
<text xml:space="preserve" x="40.2845" y="39.7845" fill="black" font-size="13.617" font-family="Helvetica">d</text>
</g>
<g transform="rotate(-90,19.6818,29.1279)">
<text xml:space="preserve" x="19.6818" y="29.1279" fill="black" font-size="9.24468" font-family="Helvetica">ch</text>
</g>
<g transform="rotate(-90,26.0758,45.468)">
<text xml:space="preserve" x="26.0758" y="45.468" fill="black" font-size="13.617" font-family="Helvetica">dN</text>
</g>
<path d="M28.9175,45.468v -25.5758" fill="none" stroke="black" stroke-width="2"/>
<g transform="rotate(-90,32.4697,49.7306)">
<text xml:space="preserve" x="32.4697" y="49.7306" fill="black" font-size="13.617" font-family="Helvetica"> </text>
</g>
<g transform="rotate(-90,44.5471,72.4646)">
<text xml:space="preserve" x="44.5471" y="72.4646" fill="black" font-size="9.24468" font-family="Helvetica">event</text>
</g>
<g transform="rotate(-90,40.2845,81.7003)">
<text xml:space="preserve" x="40.2845" y="81.7003" fill="black" font-size="13.617" font-family="Helvetica">N</text>
</g>
<g transform="rotate(-90,26.7862,68.202)">
<text xml:space="preserve" x="26.7862" y="68.202" fill="black" font-size="13.617" font-family="Helvetica">1</text>
</g>
<path d="M28.9175,81.7003v -31.9697" fill="none" stroke="black" stroke-width="2"/>
<g transform="rotate(-90,32.4697,85.9629)">
<text xml:space="preserve" x="32.4697" y="85.9629" fill="black" font-size="13.617" font-family="Helvetica"> </text>
</g>
<g transform="rotate(-90,40.9949,90.2256)">
<text xml:space="preserve" x="40.9949" y="90.2256" fill="black" font-size="13.617" font-family="Times">&#0062;</text>
</g>
<g transform="rotate(-90,40.9949,94.4882)">
<text xml:space="preserve" x="40.9949" y="94.4882" fill="black" font-size="13.617" font-family="Helvetica"> </text>
</g>
<g transform="rotate(-90,47.3889,107.987)">
<text xml:space="preserve" x="47.3889" y="107.987" fill="black" font-size="9.24468" font-family="Helvetica">coll</text>
</g>
<g transform="rotate(-90,40.9949,120.774)">
<text xml:space="preserve" x="40.9949" y="120.774" fill="black" font-size="13.617" font-family="Helvetica"> N</text>
</g>
<g transform="rotate(-90,40.9949,125.037)">
<text xml:space="preserve" x="40.9949" y="125.037" fill="black" font-size="13.617" font-family="Times">&#0060;</text>
</g>
<g transform="rotate(-90,26.7862,107.987)">
<text xml:space="preserve" x="26.7862" y="107.987" fill="black" font-size="13.617" font-family="Helvetica">1</text>
</g>
<path d="M28.9175,125.037v -39.0741" fill="none" stroke="black" stroke-width="2"/>
<path d="M499.398,359.481v -339.056" fill="none" stroke="black"/>
<path d="M485.281,359.481h 14.1165" fill="none" stroke="black"/>
<path d="M492.339,351.005h 7.05827" fill="none" stroke="black"/>
<path d="M492.339,342.529h 7.05827" fill="none" stroke="black"/>
<path d="M492.339,334.052h 7.05827" fill="none" stroke="black"/>
<path d="M492.339,325.576h 7.05827" fill="none" stroke="black"/>
<path d="M485.281,317.099h 14.1165" fill="none" stroke="black"/>
<path d="M492.339,308.623h 7.05827" fill="none" stroke="black"/>
<path d="M492.339,300.147h 7.05827" fill="none" stroke="black"/>
<path d="M492.339,291.67h 7.05827" fill="none" stroke="black"/>
<path d="M492.339,283.194h 7.05827" fill="none" stroke="black"/>
<path d="M485.281,274.717h 14.1165" fill="none" stroke="black"/>
<path d="M492.339,266.241h 7.05827" fill="none" stroke="black"/>
<path d="M492.339,257.764h 7.05827" fill="none" stroke="black"/>
<path d="M492.339,249.288h 7.05827" fill="none" stroke="black"/>
<path d="M492.339,240.812h 7.05827" fill="none" stroke="black"/>
<path d="M485.281,232.335h 14.1165" fill="none" stroke="black"/>
<path d="M492.339,223.859h 7.05827" fill="none" stroke="black"/>
<path d="M492.339,215.382h 7.05827" fill="none" stroke="black"/>
<path d="M492.339,206.906h 7.05827" fill="none" stroke="black"/>
<path d="M492.339,198.43h 7.05827" fill="none" stroke="black"/>
<path d="M485.281,189.953h 14.1165" fill="none" stroke="black"/>
<path d="M492.339,181.477h 7.05827" fill="none" stroke="black"/>
<path d="M492.339,173h 7.05827" fill="none" stroke="black"/>
<path d="M492.339,164.524h 7.05827" fill="none" stroke="black"/>
<path d="M492.339,156.048h 7.05827" fill="none" stroke="black"/>
<path d="M485.281,147.571h 14.1165" fill="none" stroke="black"/>
<path d="M492.339,139.095h 7.05827" fill="none" stroke="black"/>
<path d="M492.339,130.618h 7.05827" fill="none" stroke="black"/>
<path d="M492.339,122.142h 7.05827" fill="none" stroke="black"/>
<path d="M492.339,113.666h 7.05827" fill="none" stroke="black"/>
<path d="M485.281,105.189h 14.1165" fill="none" stroke="black"/>
<path d="M492.339,96.7127h 7.05827" fill="none" stroke="black"/>
<path d="M492.339,88.2363h 7.05827" fill="none" stroke="black"/>
<path d="M492.339,79.7599h 7.05827" fill="none" stroke="black"/>
<path d="M492.339,71.2835h 7.05827" fill="none" stroke="black"/>
<path d="M485.281,62.8071h 14.1165" fill="none" stroke="black"/>
<path d="M492.339,54.3307h 7.05827" fill="none" stroke="black"/>
<path d="M492.339,45.8543h 7.05827" fill="none" stroke="black"/>
<path d="M492.339,37.3779h 7.05827" fill="none" stroke="black"/>
<path d="M492.339,28.9015h 7.05827" fill="none" stroke="black"/>
<path d="M485.281,20.4251h 14.1165" fill="none" stroke="black"/>
<g stroke="black" stroke-width="1" fill="none">
<polygon points=" 69.7386, 295.268 69.7386, 293.373 71.6331, 293.373 71.6331, 295.268 73.5276, 295.268 73.5276, 297.162 71.6331, 297.162 71.6331, 299.057 69.7386, 299.057 69.7386, 297.162 67.8441, 297.162 67.8441, 295.268"/>
</g>
<g stroke="black" stroke-width="1" fill="none">
<polygon points=" 74.0472, 289.931 74.0472, 288.037 75.9417, 288.037 75.9417, 289.931 77.8362, 289.931 77.8362, 291.826 75.9417, 291.826 75.9417, 293.72 74.0472, 293.72 74.0472, 291.826 72.1527, 291.826 72.1527, 289.931"/>
</g>
<g stroke="black" stroke-width="1" fill="none">
<polygon points=" 78.3559, 284.755 78.3559, 282.86 80.2504, 282.86 80.2504, 284.755 82.1449, 284.755 82.1449, 286.649 80.2504, 286.649 80.2504, 288.544 78.3559, 288.544 78.3559, 286.649 76.4614, 286.649 76.4614, 284.755"/>
</g>
<g stroke="black" stroke-width="1" fill="none">
<polygon points=" 82.6646, 279.807 82.6646, 277.913 84.5591, 277.913 84.5591, 279.807 86.4536, 279.807 86.4536, 281.702 84.5591, 281.702 84.5591, 283.596 82.6646, 283.596 82.6646, 281.702 80.7701, 281.702 80.7701, 279.807"/>
</g>
<g stroke="black" stroke-width="1" fill="none">
<polygon points=" 86.9732, 275.247 86.9732, 273.353 88.8677, 273.353 88.8677, 275.247 90.7622, 275.247 90.7622, 277.142 88.8677, 277.142 88.8677, 279.036 86.9732, 279.036 86.9732, 277.142 85.0787, 277.142 85.0787, 275.247"/>
</g>
<g stroke="black" stroke-width="1" fill="none">
<polygon points=" 91.2819, 271.028 91.2819, 269.134 93.1764, 269.134 93.1764, 271.028 95.0709, 271.028 95.0709, 272.923 93.1764, 272.923 93.1764, 274.817 91.2819, 274.817 91.2819, 272.923 89.3874, 272.923 89.3874, 271.028"/>
</g>
<g stroke="black" stroke-width="1" fill="none">
<polygon points=" 95.5905, 267.143 95.5905, 265.248 97.485, 265.248 97.485, 267.143 99.3795, 267.143 99.3795, 269.037 97.485, 269.037 97.485, 270.932 95.5905, 270.932 95.5905, 269.037 93.696, 269.037 93.696, 267.143"/>
</g>
<g stroke="black" stroke-width="1" fill="none">
<polygon points=" 99.8992, 263.532 99.8992, 261.638 101.794, 261.638 101.794, 263.532 103.688, 263.532 103.688, 265.427 101.794, 265.427 101.794, 267.321 99.8992, 267.321 99.8992, 265.427 98.0047, 265.427 98.0047, 263.532"/>
</g>
<g stroke="black" stroke-width="1" fill="none">
<polygon points=" 104.208, 260.122 104.208, 258.228 106.102, 258.228 106.102, 260.122 107.997, 260.122 107.997, 262.017 106.102, 262.017 106.102, 263.911 104.208, 263.911 104.208, 262.017 102.313, 262.017 102.313, 260.122"/>
</g>
<g stroke="black" stroke-width="1" fill="none">
<polygon points=" 108.517, 256.924 108.517, 255.03 110.411, 255.03 110.411, 256.924 112.306, 256.924 112.306, 258.819 110.411, 258.819 110.411, 260.713 108.517, 260.713 108.517, 258.819 106.622, 258.819 106.622, 256.924"/>
</g>
<g stroke="black" stroke-width="1" fill="none">
<polygon points=" 112.825, 253.873 112.825, 251.979 114.72, 251.979 114.72, 253.873 116.614, 253.873 116.614, 255.768 114.72, 255.768 114.72, 257.662 112.825, 257.662 112.825, 255.768 110.931, 255.768 110.931, 253.873"/>
</g>
<g stroke="black" stroke-width="1" fill="none">
<polygon points=" 117.134, 250.992 117.134, 249.098 119.028, 249.098 119.028, 250.992 120.923, 250.992 120.923, 252.887 119.028, 252.887 119.028, 254.781 117.134, 254.781 117.134, 252.887 115.239, 252.887 115.239, 250.992"/>
</g>
<g stroke="black" stroke-width="1" fill="none">
<polygon points=" 121.443, 248.316 121.443, 246.421 123.337, 246.421 123.337, 248.316 125.232, 248.316 125.232, 250.21 123.337, 250.21 123.337, 252.105 121.443, 252.105 121.443, 250.21 119.548, 250.21 119.548, 248.316"/>
</g>
<g stroke="black" stroke-width="1" fill="none">
<polygon points=" 125.751, 245.735 125.751, 243.84 127.646, 243.84 127.646, 245.735 129.54, 245.735 129.54, 247.629 127.646, 247.629 127.646, 249.524 125.751, 249.524 125.751, 247.629 123.857, 247.629 123.857, 245.735"/>
</g>
<g stroke="black" stroke-width="1" fill="none">
<polygon points=" 130.06, 243.304 130.06, 241.409 131.954, 241.409 131.954, 243.304 133.849, 243.304 133.849, 245.198 131.954, 245.198 131.954, 247.093 130.06, 247.093 130.06, 245.198 128.165, 245.198 128.165, 243.304"/>
</g>
<g stroke="black" stroke-width="1" fill="none">
<polygon points=" 134.368, 241.06 134.368, 239.166 136.263, 239.166 136.263, 241.06 138.158, 241.06 138.158, 242.955 136.263, 242.955 136.263, 244.849 134.368, 244.849 134.368, 242.955 132.474, 242.955 132.474, 241.06"/>
</g>
<g stroke="black" stroke-width="1" fill="none">
<polygon points=" 138.677, 238.837 138.677, 236.942 140.572, 236.942 140.572, 238.837 142.466, 238.837 142.466, 240.731 140.572, 240.731 140.572, 242.626 138.677, 242.626 138.677, 240.731 136.783, 240.731 136.783, 238.837"/>
</g>
<g stroke="black" stroke-width="1" fill="none">
<polygon points=" 142.986, 236.814 142.986, 234.919 144.88, 234.919 144.88, 236.814 146.775, 236.814 146.775, 238.708 144.88, 238.708 144.88, 240.603 142.986, 240.603 142.986, 238.708 141.091, 238.708 141.091, 236.814"/>
</g>
<g stroke="black" stroke-width="1" fill="none">
<polygon points=" 147.294, 234.902 147.294, 233.008 149.189, 233.008 149.189, 234.902 151.083, 234.902 151.083, 236.797 149.189, 236.797 149.189, 238.691 147.294, 238.691 147.294, 236.797 145.4, 236.797 145.4, 234.902"/>
</g>
<g stroke="black" stroke-width="1" fill="none">
<polygon points=" 151.603, 233.091 151.603, 231.196 153.498, 231.196 153.498, 233.091 155.392, 233.091 155.392, 234.985 153.498, 234.985 153.498, 236.88 151.603, 236.88 151.603, 234.985 149.709, 234.985 149.709, 233.091"/>
</g>
<g stroke="black" stroke-width="1" fill="none">
<polygon points=" 155.912, 231.521 155.912, 229.626 157.806, 229.626 157.806, 231.521 159.701, 231.521 159.701, 233.415 157.806, 233.415 157.806, 235.31 155.912, 235.31 155.912, 233.415 154.017, 233.415 154.017, 231.521"/>
</g>
<g stroke="black" stroke-width="1" fill="none">
<polygon points=" 160.22, 230.113 160.22, 228.218 162.115, 228.218 162.115, 230.113 164.009, 230.113 164.009, 232.007 162.115, 232.007 162.115, 233.902 160.22, 233.902 160.22, 232.007 158.326, 232.007 158.326, 230.113"/>
</g>
<g stroke="black" stroke-width="1" fill="none">
<polygon points=" 164.529, 228.825 164.529, 226.931 166.424, 226.931 166.424, 228.825 168.318, 228.825 168.318, 230.72 166.424, 230.72 166.424, 232.614 164.529, 232.614 164.529, 230.72 162.635, 230.72 162.635, 228.825"/>
</g>
<g stroke="black" stroke-width="1" fill="none">
<polygon points=" 168.838, 227.78 168.838, 225.885 170.732, 225.885 170.732, 227.78 172.627, 227.78 172.627, 229.674 170.732, 229.674 170.732, 231.569 168.838, 231.569 168.838, 229.674 166.943, 229.674 166.943, 227.78"/>
</g>
<g stroke="black" stroke-width="1" fill="none">
<polygon points=" 173.146, 226.887 173.146, 224.992 175.041, 224.992 175.041, 226.887 176.935, 226.887 176.935, 228.781 175.041, 228.781 175.041, 230.676 173.146, 230.676 173.146, 228.781 171.252, 228.781 171.252, 226.887"/>
</g>
<g stroke="black" stroke-width="1" fill="none">
<polygon points=" 177.455, 226.2 177.455, 224.305 179.35, 224.305 179.35, 226.2 181.244, 226.2 181.244, 228.094 179.35, 228.094 179.35, 229.989 177.455, 229.989 177.455, 228.094 175.561, 228.094 175.561, 226.2"/>
</g>
<g stroke="black" stroke-width="1" fill="none">
<polygon points=" 181.764, 225.736 181.764, 223.842 183.658, 223.842 183.658, 225.736 185.553, 225.736 185.553, 227.631 183.658, 227.631 183.658, 229.525 181.764, 229.525 181.764, 227.631 179.869, 227.631 179.869, 225.736"/>
</g>
<g stroke="black" stroke-width="1" fill="none">
<polygon points=" 186.072, 225.434 186.072, 223.539 187.967, 223.539 187.967, 225.434 189.861, 225.434 189.861, 227.328 187.967, 227.328 187.967, 229.223 186.072, 229.223 186.072, 227.328 184.178, 227.328 184.178, 225.434"/>
</g>
<g stroke="black" stroke-width="1" fill="none">
<polygon points=" 190.381, 225.395 190.381, 223.5 192.276, 223.5 192.276, 225.395 194.17, 225.395 194.17, 227.289 192.276, 227.289 192.276, 229.184 190.381, 229.184 190.381, 227.289 188.487, 227.289 188.487, 225.395"/>
</g>
<g stroke="black" stroke-width="1" fill="none">
<polygon points=" 194.69, 225.466 194.69, 223.572 196.584, 223.572 196.584, 225.466 198.479, 225.466 198.479, 227.361 196.584, 227.361 196.584, 229.255 194.69, 229.255 194.69, 227.361 192.795, 227.361 192.795, 225.466"/>
</g>
<g stroke="black" stroke-width="1" fill="none">
<polygon points=" 198.998, 225.813 198.998, 223.918 200.893, 223.918 200.893, 225.813 202.787, 225.813 202.787, 227.707 200.893, 227.707 200.893, 229.602 198.998, 229.602 198.998, 227.707 197.104, 227.707 197.104, 225.813"/>
</g>
<g stroke="black" stroke-width="1" fill="none">
<polygon points=" 203.307, 226.332 203.307, 224.437 205.202, 224.437 205.202, 226.332 207.096, 226.332 207.096, 228.226 205.202, 228.226 205.202, 230.121 203.307, 230.121 203.307, 228.226 201.413, 228.226 201.413, 226.332"/>
</g>
<g stroke="black" stroke-width="1" fill="none">
<polygon points=" 207.616, 227.056 207.616, 225.161 209.51, 225.161 209.51, 227.056 211.405, 227.056 211.405, 228.95 209.51, 228.95 209.51, 230.845 207.616, 230.845 207.616, 228.95 205.721, 228.95 205.721, 227.056"/>
</g>
<g stroke="black" stroke-width="1" fill="none">
<polygon points=" 211.924, 227.976 211.924, 226.081 213.819, 226.081 213.819, 227.976 215.713, 227.976 215.713, 229.87 213.819, 229.87 213.819, 231.765 211.924, 231.765 211.924, 229.87 210.03, 229.87 210.03, 227.976"/>
</g>
<g stroke="black" stroke-width="1" fill="none">
<polygon points=" 216.233, 229.098 216.233, 227.204 218.128, 227.204 218.128, 229.098 220.022, 229.098 220.022, 230.993 218.128, 230.993 218.128, 232.887 216.233, 232.887 216.233, 230.993 214.339, 230.993 214.339, 229.098"/>
</g>
<g stroke="black" stroke-width="1" fill="none">
<polygon points=" 220.542, 230.373 220.542, 228.478 222.436, 228.478 222.436, 230.373 224.331, 230.373 224.331, 232.267 222.436, 232.267 222.436, 234.162 220.542, 234.162 220.542, 232.267 218.647, 232.267 218.647, 230.373"/>
</g>
<g stroke="black" stroke-width="1" fill="none">
<polygon points=" 224.85, 231.829 224.85, 229.935 226.745, 229.935 226.745, 231.829 228.639, 231.829 228.639, 233.724 226.745, 233.724 226.745, 235.618 224.85, 235.618 224.85, 233.724 222.956, 233.724 222.956, 231.829"/>
</g>
<g stroke="black" stroke-width="1" fill="none">
<polygon points=" 229.159, 233.5 229.159, 231.605 231.054, 231.605 231.054, 233.5 232.948, 233.5 232.948, 235.394 231.054, 235.394 231.054, 237.289 229.159, 237.289 229.159, 235.394 227.265, 235.394 227.265, 233.5"/>
</g>
<g stroke="black" stroke-width="1" fill="none">
<polygon points=" 233.468, 235.252 233.468, 233.358 235.362, 233.358 235.362, 235.252 237.257, 235.252 237.257, 237.147 235.362, 237.147 235.362, 239.041 233.468, 239.041 233.468, 237.147 231.573, 237.147 231.573, 235.252"/>
</g>
<g stroke="black" stroke-width="1" fill="none">
<polygon points=" 237.776, 237.122 237.776, 235.227 239.671, 235.227 239.671, 237.122 241.565, 237.122 241.565, 239.016 239.671, 239.016 239.671, 240.911 237.776, 240.911 237.776, 239.016 235.882, 239.016 235.882, 237.122"/>
</g>
<g stroke="black" stroke-width="1" fill="none">
<polygon points=" 242.085, 239.099 242.085, 237.204 243.98, 237.204 243.98, 239.099 245.874, 239.099 245.874, 240.993 243.98, 240.993 243.98, 242.888 242.085, 242.888 242.085, 240.993 240.191, 240.993 240.191, 239.099"/>
</g>
<g stroke="black" stroke-width="1" fill="none">
<polygon points=" 246.394, 241.137 246.394, 239.243 248.288, 239.243 248.288, 241.137 250.183, 241.137 250.183, 243.032 248.288, 243.032 248.288, 244.926 246.394, 244.926 246.394, 243.032 244.499, 243.032 244.499, 241.137"/>
</g>
<g stroke="black" stroke-width="1" fill="none">
<polygon points=" 250.702, 243.225 250.702, 241.33 252.597, 241.33 252.597, 243.225 254.491, 243.225 254.491, 245.119 252.597, 245.119 252.597, 247.014 250.702, 247.014 250.702, 245.119 248.808, 245.119 248.808, 243.225"/>
</g>
<g stroke="black" stroke-width="1" fill="none">
<polygon points=" 255.011, 245.302 255.011, 243.407 256.906, 243.407 256.906, 245.302 258.8, 245.302 258.8, 247.196 256.906, 247.196 256.906, 249.091 255.011, 249.091 255.011, 247.196 253.117, 247.196 253.117, 245.302"/>
</g>
<g stroke="black" stroke-width="1" fill="none">
<polygon points=" 259.32, 247.34 259.32, 245.446 261.214, 245.446 261.214, 247.34 263.109, 247.34 263.109, 249.235 261.214, 249.235 261.214, 251.129 259.32, 251.129 259.32, 249.235 257.425, 249.235 257.425, 247.34"/>
</g>
<g stroke="black" stroke-width="1" fill="none">
<polygon points=" 263.628, 249.283 263.628, 247.389 265.523, 247.389 265.523, 249.283 267.417, 249.283 267.417, 251.178 265.523, 251.178 265.523, 253.072 263.628, 253.072 263.628, 251.178 261.734, 251.178 261.734, 249.283"/>
</g>
<g stroke="black" stroke-width="1" fill="none">
<polygon points=" 267.937, 251.133 267.937, 249.238 269.832, 249.238 269.832, 251.133 271.726, 251.133 271.726, 253.027 269.832, 253.027 269.832, 254.922 267.937, 254.922 267.937, 253.027 266.043, 253.027 266.043, 251.133"/>
</g>
<g stroke="black" stroke-width="1" fill="none">
<polygon points=" 272.246, 252.857 272.246, 250.962 274.14, 250.962 274.14, 252.857 276.035, 252.857 276.035, 254.751 274.14, 254.751 274.14, 256.646 272.246, 256.646 272.246, 254.751 270.351, 254.751 270.351, 252.857"/>
</g>
<g stroke="black" stroke-width="1" fill="none">
<polygon points=" 276.554, 254.396 276.554, 252.502 278.449, 252.502 278.449, 254.396 280.343, 254.396 280.343, 256.291 278.449, 256.291 278.449, 258.185 276.554, 258.185 276.554, 256.291 274.66, 256.291 274.66, 254.396"/>
</g>
<g stroke="black" stroke-width="1" fill="none">
<polygon points=" 280.863, 255.77 280.863, 253.876 282.757, 253.876 282.757, 255.77 284.652, 255.77 284.652, 257.665 282.757, 257.665 282.757, 259.559 280.863, 259.559 280.863, 257.665 278.968, 257.665 278.968, 255.77"/>
</g>
<g stroke="black" stroke-width="1" fill="none">
<polygon points=" 285.172, 256.987 285.172, 255.093 287.066, 255.093 287.066, 256.987 288.961, 256.987 288.961, 258.882 287.066, 258.882 287.066, 260.776 285.172, 260.776 285.172, 258.882 283.277, 258.882 283.277, 256.987"/>
</g>
<g stroke="black" stroke-width="1" fill="none">
<polygon points=" 289.48, 258.004 289.48, 256.11 291.375, 256.11 291.375, 258.004 293.269, 258.004 293.269, 259.899 291.375, 259.899 291.375, 261.793 289.48, 261.793 289.48, 259.899 287.586, 259.899 287.586, 258.004"/>
</g>
<g stroke="black" stroke-width="1" fill="none">
<polygon points=" 293.789, 258.89 293.789, 256.995 295.683, 256.995 295.683, 258.89 297.578, 258.89 297.578, 260.784 295.683, 260.784 295.683, 262.679 293.789, 262.679 293.789, 260.784 291.894, 260.784 291.894, 258.89"/>
</g>
<g stroke="black" stroke-width="1" fill="none">
<polygon points=" 298.098, 259.646 298.098, 257.751 299.992, 257.751 299.992, 259.646 301.887, 259.646 301.887, 261.54 299.992, 261.54 299.992, 263.435 298.098, 263.435 298.098, 261.54 296.203, 261.54 296.203, 259.646"/>
</g>
<g stroke="black" stroke-width="1" fill="none">
<polygon points=" 302.406, 260.289 302.406, 258.394 304.301, 258.394 304.301, 260.289 306.195, 260.289 306.195, 262.183 304.301, 262.183 304.301, 264.078 302.406, 264.078 302.406, 262.183 300.512, 262.183 300.512, 260.289"/>
</g>
<g stroke="black" stroke-width="1" fill="none">
<polygon points=" 306.715, 260.913 306.715, 259.019 308.609, 259.019 308.609, 260.913 310.504, 260.913 310.504, 262.808 308.609, 262.808 308.609, 264.702 306.715, 264.702 306.715, 262.808 304.82, 262.808 304.82, 260.913"/>
</g>
<g stroke="black" stroke-width="1" fill="none">
<polygon points=" 311.024, 261.535 311.024, 259.641 312.918, 259.641 312.918, 261.535 314.813, 261.535 314.813, 263.43 312.918, 263.43 312.918, 265.324 311.024, 265.324 311.024, 263.43 309.129, 263.43 309.129, 261.535"/>
</g>
<g stroke="black" stroke-width="1" fill="none">
<polygon points=" 315.332, 262.125 315.332, 260.23 317.227, 260.23 317.227, 262.125 319.121, 262.125 319.121, 264.019 317.227, 264.019 317.227, 265.914 315.332, 265.914 315.332, 264.019 313.438, 264.019 313.438, 262.125"/>
</g>
<g stroke="black" stroke-width="1" fill="none">
<polygon points=" 319.641, 262.795 319.641, 260.9 321.535, 260.9 321.535, 262.795 323.43, 262.795 323.43, 264.689 321.535, 264.689 321.535, 266.584 319.641, 266.584 319.641, 264.689 317.746, 264.689 317.746, 262.795"/>
</g>
<g stroke="black" stroke-width="1" fill="none">
<polygon points=" 323.95, 263.554 323.95, 261.66 325.844, 261.66 325.844, 263.554 327.739, 263.554 327.739, 265.449 325.844, 265.449 325.844, 267.343 323.95, 267.343 323.95, 265.449 322.055, 265.449 322.055, 263.554"/>
</g>
<g stroke="black" stroke-width="1" fill="none">
<polygon points=" 328.258, 264.374 328.258, 262.479 330.153, 262.479 330.153, 264.374 332.047, 264.374 332.047, 266.268 330.153, 266.268 330.153, 268.163 328.258, 268.163 328.258, 266.268 326.364, 266.268 326.364, 264.374"/>
</g>
<g stroke="black" stroke-width="1" fill="none">
<polygon points=" 332.567, 265.353 332.567, 263.458 334.461, 263.458 334.461, 265.353 336.356, 265.353 336.356, 267.247 334.461, 267.247 334.461, 269.142 332.567, 269.142 332.567, 267.247 330.672, 267.247 330.672, 265.353"/>
</g>
<g stroke="black" stroke-width="1" fill="none">
<polygon points=" 336.876, 266.427 336.876, 264.532 338.77, 264.532 338.77, 266.427 340.665, 266.427 340.665, 268.321 338.77, 268.321 338.77, 270.216 336.876, 270.216 336.876, 268.321 334.981, 268.321 334.981, 266.427"/>
</g>
<g stroke="black" stroke-width="1" fill="none">
<polygon points=" 341.184, 267.684 341.184, 265.789 343.079, 265.789 343.079, 267.684 344.973, 267.684 344.973, 269.578 343.079, 269.578 343.079, 271.473 341.184, 271.473 341.184, 269.578 339.29, 269.578 339.29, 267.684"/>
</g>
<g stroke="black" stroke-width="1" fill="none">
<polygon points=" 345.493, 269.027 345.493, 267.132 347.387, 267.132 347.387, 269.027 349.282, 269.027 349.282, 270.921 347.387, 270.921 347.387, 272.816 345.493, 272.816 345.493, 270.921 343.598, 270.921 343.598, 269.027"/>
</g>
<g stroke="black" stroke-width="1" fill="none">
<polygon points=" 349.802, 270.552 349.802, 268.658 351.696, 268.658 351.696, 270.552 353.591, 270.552 353.591, 272.447 351.696, 272.447 351.696, 274.341 349.802, 274.341 349.802, 272.447 347.907, 272.447 347.907, 270.552"/>
</g>
<g stroke="black" stroke-width="1" fill="none">
<polygon points=" 354.11, 272.245 354.11, 270.351 356.005, 270.351 356.005, 272.245 357.899, 272.245 357.899, 274.14 356.005, 274.14 356.005, 276.034 354.11, 276.034 354.11, 274.14 352.216, 274.14 352.216, 272.245"/>
</g>
<g stroke="black" stroke-width="1" fill="none">
<polygon points=" 358.419, 274.053 358.419, 272.159 360.313, 272.159 360.313, 274.053 362.208, 274.053 362.208, 275.948 360.313, 275.948 360.313, 277.842 358.419, 277.842 358.419, 275.948 356.524, 275.948 356.524, 274.053"/>
</g>
<g stroke="black" stroke-width="1" fill="none">
<polygon points=" 362.728, 276.033 362.728, 274.138 364.622, 274.138 364.622, 276.033 366.517, 276.033 366.517, 277.927 364.622, 277.927 364.622, 279.822 362.728, 279.822 362.728, 277.927 360.833, 277.927 360.833, 276.033"/>
</g>
<g stroke="black" stroke-width="1" fill="none">
<polygon points=" 367.036, 278.145 367.036, 276.25 368.931, 276.25 368.931, 278.145 370.825, 278.145 370.825, 280.039 368.931, 280.039 368.931, 281.934 367.036, 281.934 367.036, 280.039 365.142, 280.039 365.142, 278.145"/>
</g>
<g stroke="black" stroke-width="1" fill="none">
<polygon points=" 371.345, 280.316 371.345, 278.422 373.239, 278.422 373.239, 280.316 375.134, 280.316 375.134, 282.211 373.239, 282.211 373.239, 284.105 371.345, 284.105 371.345, 282.211 369.45, 282.211 369.45, 280.316"/>
</g>
<g stroke="black" stroke-width="1" fill="none">
<polygon points=" 375.654, 282.659 375.654, 280.765 377.548, 280.765 377.548, 282.659 379.443, 282.659 379.443, 284.554 377.548, 284.554 377.548, 286.448 375.654, 286.448 375.654, 284.554 373.759, 284.554 373.759, 282.659"/>
</g>
<g stroke="black" stroke-width="1" fill="none">
<polygon points=" 379.962, 285.115 379.962, 283.221 381.857, 283.221 381.857, 285.115 383.751, 285.115 383.751, 287.01 381.857, 287.01 381.857, 288.904 379.962, 288.904 379.962, 287.01 378.068, 287.01 378.068, 285.115"/>
</g>
<g stroke="black" stroke-width="1" fill="none">
<polygon points=" 384.271, 287.674 384.271, 285.78 386.165, 285.78 386.165, 287.674 388.06, 287.674 388.06, 289.569 386.165, 289.569 386.165, 291.463 384.271, 291.463 384.271, 289.569 382.376, 289.569 382.376, 287.674"/>
</g>
<g stroke="black" stroke-width="1" fill="none">
<polygon points=" 388.58, 290.27 388.58, 288.375 390.474, 288.375 390.474, 290.27 392.369, 290.27 392.369, 292.164 390.474, 292.164 390.474, 294.059 388.58, 294.059 388.58, 292.164 386.685, 292.164 386.685, 290.27"/>
</g>
<g stroke="black" stroke-width="1" fill="none">
<polygon points=" 392.888, 292.984 392.888, 291.09 394.783, 291.09 394.783, 292.984 396.677, 292.984 396.677, 294.879 394.783, 294.879 394.783, 296.773 392.888, 296.773 392.888, 294.879 390.994, 294.879 390.994, 292.984"/>
</g>
<g stroke="black" stroke-width="1" fill="none">
<polygon points=" 397.197, 295.757 397.197, 293.863 399.091, 293.863 399.091, 295.757 400.986, 295.757 400.986, 297.652 399.091, 297.652 399.091, 299.546 397.197, 299.546 397.197, 297.652 395.302, 297.652 395.302, 295.757"/>
</g>
<g stroke="black" stroke-width="1" fill="none">
<polygon points=" 401.505, 298.564 401.505, 296.67 403.4, 296.67 403.4, 298.564 405.294, 298.564 405.294, 300.459 403.4, 300.459 403.4, 302.353 401.505, 302.353 401.505, 300.459 399.611, 300.459 399.611, 298.564"/>
</g>
<g stroke="black" stroke-width="1" fill="none">
<polygon points=" 405.814, 301.42 405.814, 299.525 407.709, 299.525 407.709, 301.42 409.603, 301.42 409.603, 303.314 407.709, 303.314 407.709, 305.209 405.814, 305.209 405.814, 303.314 403.92, 303.314 403.92, 301.42"/>
</g>
<g stroke="black" stroke-width="1" fill="none">
<polygon points=" 410.123, 304.293 410.123, 302.398 412.017, 302.398 412.017, 304.293 413.912, 304.293 413.912, 306.187 412.017, 306.187 412.017, 308.082 410.123, 308.082 410.123, 306.187 408.228, 306.187 408.228, 304.293"/>
</g>
<g stroke="black" stroke-width="1" fill="none">
<polygon points=" 414.431, 307.158 414.431, 305.264 416.326, 305.264 416.326, 307.158 418.22, 307.158 418.22, 309.053 416.326, 309.053 416.326, 310.947 414.431, 310.947 414.431, 309.053 412.537, 309.053 412.537, 307.158"/>
</g>
<g stroke="black" stroke-width="1" fill="none">
<polygon points=" 418.74, 310.019 418.74, 308.124 420.635, 308.124 420.635, 310.019 422.529, 310.019 422.529, 311.913 420.635, 311.913 420.635, 313.808 418.74, 313.808 418.74, 311.913 416.846, 311.913 416.846, 310.019"/>
</g>
<g stroke="black" stroke-width="1" fill="none">
<polygon points=" 423.049, 312.83 423.049, 310.935 424.943, 310.935 424.943, 312.83 426.838, 312.83 426.838, 314.724 424.943, 314.724 424.943, 316.619 423.049, 316.619 423.049, 314.724 421.154, 314.724 421.154, 312.83"/>
</g>
<g stroke="black" stroke-width="1" fill="none">
<polygon points=" 427.357, 315.589 427.357, 313.694 429.252, 313.694 429.252, 315.589 431.146, 315.589 431.146, 317.483 429.252, 317.483 429.252, 319.378 427.357, 319.378 427.357, 317.483 425.463, 317.483 425.463, 315.589"/>
</g>
<g stroke="black" stroke-width="1" fill="none">
<polygon points=" 431.666, 318.303 431.666, 316.409 433.561, 316.409 433.561, 318.303 435.455, 318.303 435.455, 320.198 433.561, 320.198 433.561, 322.092 431.666, 322.092 431.666, 320.198 429.772, 320.198 429.772, 318.303"/>
</g>
<g stroke="black" stroke-width="1" fill="none">
<polygon points=" 435.975, 320.962 435.975, 319.067 437.869, 319.067 437.869, 320.962 439.764, 320.962 439.764, 322.856 437.869, 322.856 437.869, 324.751 435.975, 324.751 435.975, 322.856 434.08, 322.856 434.08, 320.962"/>
</g>
<g stroke="black" stroke-width="1" fill="none">
<polygon points=" 440.283, 323.532 440.283, 321.638 442.178, 321.638 442.178, 323.532 444.072, 323.532 444.072, 325.427 442.178, 325.427 442.178, 327.321 440.283, 327.321 440.283, 325.427 438.389, 325.427 438.389, 323.532"/>
</g>
<g stroke="black" stroke-width="1" fill="none">
<polygon points=" 444.592, 326.029 444.592, 324.135 446.487, 324.135 446.487, 326.029 448.381, 326.029 448.381, 327.924 446.487, 327.924 446.487, 329.818 444.592, 329.818 444.592, 327.924 442.698, 327.924 442.698, 326.029"/>
</g>
<g stroke="black" stroke-width="1" fill="none">
<polygon points=" 448.901, 328.453 448.901, 326.558 450.795, 326.558 450.795, 328.453 452.69, 328.453 452.69, 330.347 450.795, 330.347 450.795, 332.242 448.901, 332.242 448.901, 330.347 447.006, 330.347 447.006, 328.453"/>
</g>
<g stroke="black" stroke-width="1" fill="none">
<polygon points=" 453.209, 330.773 453.209, 328.879 455.104, 328.879 455.104, 330.773 456.998, 330.773 456.998, 332.668 455.104, 332.668 455.104, 334.562 453.209, 334.562 453.209, 332.668 451.315, 332.668 451.315, 330.773"/>
</g>
<g stroke="black" stroke-width="1" fill="none">
<polygon points=" 457.518, 333.033 457.518, 331.138 459.413, 331.138 459.413, 333.033 461.307, 333.033 461.307, 334.927 459.413, 334.927 459.413, 336.822 457.518, 336.822 457.518, 334.927 455.624, 334.927 455.624, 333.033"/>
</g>
<g stroke="black" stroke-width="1" fill="none">
<polygon points=" 461.827, 335.221 461.827, 333.327 463.721, 333.327 463.721, 335.221 465.616, 335.221 465.616, 337.116 463.721, 337.116 463.721, 339.01 461.827, 339.01 461.827, 337.116 459.932, 337.116 459.932, 335.221"/>
</g>
<g stroke="black" stroke-width="1" fill="none">
<polygon points=" 466.135, 337.327 466.135, 335.433 468.03, 335.433 468.03, 337.327 469.924, 337.327 469.924, 339.222 468.03, 339.222 468.03, 341.116 466.135, 341.116 466.135, 339.222 464.241, 339.222 464.241, 337.327"/>
</g>
<g stroke="black" stroke-width="1" fill="none">
<polygon points=" 470.444, 339.342 470.444, 337.447 472.339, 337.447 472.339, 339.342 474.233, 339.342 474.233, 341.236 472.339, 341.236 472.339, 343.131 470.444, 343.131 470.444, 341.236 468.55, 341.236 468.55, 339.342"/>
</g>
<g stroke="black" stroke-width="1" fill="none">
<polygon points=" 474.753, 341.277 474.753, 339.382 476.647, 339.382 476.647, 341.277 478.542, 341.277 478.542, 343.171 476.647, 343.171 476.647, 345.066 474.753, 345.066 474.753, 343.171 472.858, 343.171 472.858, 341.277"/>
</g>
<g stroke="black" stroke-width="1" fill="none">
<polygon points=" 479.061, 343.096 479.061, 341.201 480.956, 341.201 480.956, 343.096 482.85, 343.096 482.85, 344.99 480.956, 344.99 480.956, 346.885 479.061, 346.885 479.061, 344.99 477.167, 344.99 477.167, 343.096"/>
</g>
<g stroke="black" stroke-width="1" fill="none">
<polygon points=" 483.37, 344.827 483.37, 342.932 485.265, 342.932 485.265, 344.827 487.159, 344.827 487.159, 346.721 485.265, 346.721 485.265, 348.616 483.37, 348.616 483.37, 346.721 481.476, 346.721 481.476, 344.827"/>
</g>
<g stroke="black" stroke-width="1" fill="none">
<polygon points=" 487.679, 346.427 487.679, 344.532 489.573, 344.532 489.573, 346.427 491.468, 346.427 491.468, 348.321 489.573, 348.321 489.573, 350.216 487.679, 350.216 487.679, 348.321 485.784, 348.321 485.784, 346.427"/>
</g>
<g stroke="black" stroke-width="1" fill="none">
<polygon points=" 491.987, 347.916 491.987, 346.021 493.882, 346.021 493.882, 347.916 495.776, 347.916 495.776, 349.81 493.882, 349.81 493.882, 351.705 491.987, 351.705 491.987, 349.81 490.093, 349.81 490.093, 347.916"/>
</g>
<g stroke="black" stroke-width="1" fill="none">
<polygon points=" 496.296, 349.289 496.296, 347.394 498.191, 347.394 498.191, 349.289 500.085, 349.289 500.085, 351.183 498.191, 351.183 498.191, 353.078 496.296, 353.078 496.296, 351.183 494.402, 351.183 494.402, 349.289"/>
</g>
<g fill="#00cc00">
<polygon points=" 69.7386, 295.991 69.7386, 294.096 71.6331, 294.096 71.6331, 295.991 73.5276, 295.991 73.5276, 297.885 71.6331, 297.885 71.6331, 299.78 69.7386, 299.78 69.7386, 297.885 67.8441, 297.885 67.8441, 295.991"/>
</g>
<g fill="#00cc00">
<polygon points=" 74.0472, 290.398 74.0472, 288.503 75.9417, 288.503 75.9417, 290.398 77.8362, 290.398 77.8362, 292.292 75.9417, 292.292 75.9417, 294.187 74.0472, 294.187 74.0472, 292.292 72.1527, 292.292 72.1527, 290.398"/>
</g>
<g fill="#00cc00">
<polygon points=" 78.3559, 284.898 78.3559, 283.003 80.2504, 283.003 80.2504, 284.898 82.1449, 284.898 82.1449, 286.792 80.2504, 286.792 80.2504, 288.687 78.3559, 288.687 78.3559, 286.792 76.4614, 286.792 76.4614, 284.898"/>
</g>
<g fill="#00cc00">
<polygon points=" 82.6646, 279.608 82.6646, 277.713 84.5591, 277.713 84.5591, 279.608 86.4536, 279.608 86.4536, 281.502 84.5591, 281.502 84.5591, 283.397 82.6646, 283.397 82.6646, 281.502 80.7701, 281.502 80.7701, 279.608"/>
</g>
<g fill="#00cc00">
<polygon points=" 86.9732, 274.601 86.9732, 272.706 88.8677, 272.706 88.8677, 274.601 90.7622, 274.601 90.7622, 276.495 88.8677, 276.495 88.8677, 278.39 86.9732, 278.39 86.9732, 276.495 85.0787, 276.495 85.0787, 274.601"/>
</g>
<g fill="#00cc00">
<polygon points=" 91.2819, 269.904 91.2819, 268.01 93.1764, 268.01 93.1764, 269.904 95.0709, 269.904 95.0709, 271.799 93.1764, 271.799 93.1764, 273.693 91.2819, 273.693 91.2819, 271.799 89.3874, 271.799 89.3874, 269.904"/>
</g>
<g fill="#00cc00">
<polygon points=" 95.5905, 265.446 95.5905, 263.552 97.485, 263.552 97.485, 265.446 99.3795, 265.446 99.3795, 267.341 97.485, 267.341 97.485, 269.235 95.5905, 269.235 95.5905, 267.341 93.696, 267.341 93.696, 265.446"/>
</g>
<g fill="#00cc00">
<polygon points=" 99.8992, 261.296 99.8992, 259.401 101.794, 259.401 101.794, 261.296 103.688, 261.296 103.688, 263.19 101.794, 263.19 101.794, 265.085 99.8992, 265.085 99.8992, 263.19 98.0047, 263.19 98.0047, 261.296"/>
</g>
<g fill="#00cc00">
<polygon points=" 104.208, 257.457 104.208, 255.562 106.102, 255.562 106.102, 257.457 107.997, 257.457 107.997, 259.351 106.102, 259.351 106.102, 261.246 104.208, 261.246 104.208, 259.351 102.313, 259.351 102.313, 257.457"/>
</g>
<g fill="#00cc00">
<polygon points=" 108.517, 253.755 108.517, 251.861 110.411, 251.861 110.411, 253.755 112.306, 253.755 112.306, 255.65 110.411, 255.65 110.411, 257.544 108.517, 257.544 108.517, 255.65 106.622, 255.65 106.622, 253.755"/>
</g>
<g fill="#00cc00">
<polygon points=" 112.825, 250.249 112.825, 248.354 114.72, 248.354 114.72, 250.249 116.614, 250.249 116.614, 252.143 114.72, 252.143 114.72, 254.038 112.825, 254.038 112.825, 252.143 110.931, 252.143 110.931, 250.249"/>
</g>
<g fill="#00cc00">
<polygon points=" 117.134, 217.898 117.134, 216.004 119.028, 216.004 119.028, 217.898 120.923, 217.898 120.923, 219.793 119.028, 219.793 119.028, 221.687 117.134, 221.687 117.134, 219.793 115.239, 219.793 115.239, 217.898"/>
</g>
<g fill="#00cc00">
<polygon points=" 121.443, 214.062 121.443, 212.167 123.337, 212.167 123.337, 214.062 125.232, 214.062 125.232, 215.956 123.337, 215.956 123.337, 217.851 121.443, 217.851 121.443, 215.956 119.548, 215.956 119.548, 214.062"/>
</g>
<g fill="#00cc00">
<polygon points=" 125.751, 210.268 125.751, 208.374 127.646, 208.374 127.646, 210.268 129.54, 210.268 129.54, 212.163 127.646, 212.163 127.646, 214.057 125.751, 214.057 125.751, 212.163 123.857, 212.163 123.857, 210.268"/>
</g>
<g fill="#00cc00">
<polygon points=" 130.06, 206.706 130.06, 204.811 131.954, 204.811 131.954, 206.706 133.849, 206.706 133.849, 208.6 131.954, 208.6 131.954, 210.495 130.06, 210.495 130.06, 208.6 128.165, 208.6 128.165, 206.706"/>
</g>
<g fill="#00cc00">
<polygon points=" 134.368, 203.476 134.368, 201.582 136.263, 201.582 136.263, 203.476 138.158, 203.476 138.158, 205.371 136.263, 205.371 136.263, 207.265 134.368, 207.265 134.368, 205.371 132.474, 205.371 132.474, 203.476"/>
</g>
<g fill="#00cc00">
<polygon points=" 138.677, 200.279 138.677, 198.385 140.572, 198.385 140.572, 200.279 142.466, 200.279 142.466, 202.174 140.572, 202.174 140.572, 204.068 138.677, 204.068 138.677, 202.174 136.783, 202.174 136.783, 200.279"/>
</g>
<g fill="#00cc00">
<polygon points=" 142.986, 197.38 142.986, 195.486 144.88, 195.486 144.88, 197.38 146.775, 197.38 146.775, 199.275 144.88, 199.275 144.88, 201.169 142.986, 201.169 142.986, 199.275 141.091, 199.275 141.091, 197.38"/>
</g>
<g fill="#00cc00">
<polygon points=" 147.294, 194.778 147.294, 192.884 149.189, 192.884 149.189, 194.778 151.083, 194.778 151.083, 196.673 149.189, 196.673 149.189, 198.567 147.294, 198.567 147.294, 196.673 145.4, 196.673 145.4, 194.778"/>
</g>
<g fill="#00cc00">
<polygon points=" 151.603, 192.263 151.603, 190.368 153.498, 190.368 153.498, 192.263 155.392, 192.263 155.392, 194.157 153.498, 194.157 153.498, 196.052 151.603, 196.052 151.603, 194.157 149.709, 194.157 149.709, 192.263"/>
</g>
<g fill="#00cc00">
<polygon points=" 155.912, 226.874 155.912, 224.98 157.806, 224.98 157.806, 226.874 159.701, 226.874 159.701, 228.769 157.806, 228.769 157.806, 230.663 155.912, 230.663 155.912, 228.769 154.017, 228.769 154.017, 226.874"/>
</g>
<g fill="#00cc00">
<polygon points=" 160.22, 225.758 160.22, 223.864 162.115, 223.864 162.115, 225.758 164.009, 225.758 164.009, 227.653 162.115, 227.653 162.115, 229.547 160.22, 229.547 160.22, 227.653 158.326, 227.653 158.326, 225.758"/>
</g>
<g fill="#00cc00">
<polygon points=" 164.529, 224.767 164.529, 222.873 166.424, 222.873 166.424, 224.767 168.318, 224.767 168.318, 226.662 166.424, 226.662 166.424, 228.556 164.529, 228.556 164.529, 226.662 162.635, 226.662 162.635, 224.767"/>
</g>
<g fill="#00cc00">
<polygon points=" 168.838, 224.147 168.838, 222.253 170.732, 222.253 170.732, 224.147 172.627, 224.147 172.627, 226.042 170.732, 226.042 170.732, 227.936 168.838, 227.936 168.838, 226.042 166.943, 226.042 166.943, 224.147"/>
</g>
<g fill="#00cc00">
<polygon points=" 173.146, 223.701 173.146, 221.807 175.041, 221.807 175.041, 223.701 176.935, 223.701 176.935, 225.596 175.041, 225.596 175.041, 227.49 173.146, 227.49 173.146, 225.596 171.252, 225.596 171.252, 223.701"/>
</g>
<g fill="#00cc00">
<polygon points=" 177.455, 223.418 177.455, 221.524 179.35, 221.524 179.35, 223.418 181.244, 223.418 181.244, 225.313 179.35, 225.313 179.35, 227.207 177.455, 227.207 177.455, 225.313 175.561, 225.313 175.561, 223.418"/>
</g>
<g fill="#00cc00">
<polygon points=" 181.764, 223.458 181.764, 221.564 183.658, 221.564 183.658, 223.458 185.553, 223.458 185.553, 225.353 183.658, 225.353 183.658, 227.247 181.764, 227.247 181.764, 225.353 179.869, 225.353 179.869, 223.458"/>
</g>
<g fill="#00cc00">
<polygon points=" 186.072, 223.704 186.072, 221.81 187.967, 221.81 187.967, 223.704 189.861, 223.704 189.861, 225.599 187.967, 225.599 187.967, 227.493 186.072, 227.493 186.072, 225.599 184.178, 225.599 184.178, 223.704"/>
</g>
<g fill="#00cc00">
<polygon points=" 190.381, 224.163 190.381, 222.268 192.276, 222.268 192.276, 224.163 194.17, 224.163 194.17, 226.057 192.276, 226.057 192.276, 227.952 190.381, 227.952 190.381, 226.057 188.487, 226.057 188.487, 224.163"/>
</g>
<g fill="#00cc00">
<polygon points=" 194.69, 224.729 194.69, 222.834 196.584, 222.834 196.584, 224.729 198.479, 224.729 198.479, 226.623 196.584, 226.623 196.584, 228.518 194.69, 228.518 194.69, 226.623 192.795, 226.623 192.795, 224.729"/>
</g>
<g fill="#00cc00">
<polygon points=" 198.998, 225.546 198.998, 223.651 200.893, 223.651 200.893, 225.546 202.787, 225.546 202.787, 227.44 200.893, 227.44 200.893, 229.335 198.998, 229.335 198.998, 227.44 197.104, 227.44 197.104, 225.546"/>
</g>
<g fill="#00cc00">
<polygon points=" 203.307, 226.665 203.307, 224.77 205.202, 224.77 205.202, 226.665 207.096, 226.665 207.096, 228.559 205.202, 228.559 205.202, 230.454 203.307, 230.454 203.307, 228.559 201.413, 228.559 201.413, 226.665"/>
</g>
<g fill="#00cc00">
<polygon points=" 207.616, 227.789 207.616, 225.894 209.51, 225.894 209.51, 227.789 211.405, 227.789 211.405, 229.683 209.51, 229.683 209.51, 231.578 207.616, 231.578 207.616, 229.683 205.721, 229.683 205.721, 227.789"/>
</g>
<g fill="#00cc00">
<polygon points=" 211.924, 229.157 211.924, 227.262 213.819, 227.262 213.819, 229.157 215.713, 229.157 215.713, 231.051 213.819, 231.051 213.819, 232.946 211.924, 232.946 211.924, 231.051 210.03, 231.051 210.03, 229.157"/>
</g>
<g fill="#00cc00">
<polygon points=" 216.233, 230.761 216.233, 228.866 218.128, 228.866 218.128, 230.761 220.022, 230.761 220.022, 232.655 218.128, 232.655 218.128, 234.55 216.233, 234.55 216.233, 232.655 214.339, 232.655 214.339, 230.761"/>
</g>
<g fill="#00cc00">
<polygon points=" 220.542, 232.412 220.542, 230.517 222.436, 230.517 222.436, 232.412 224.331, 232.412 224.331, 234.306 222.436, 234.306 222.436, 236.201 220.542, 236.201 220.542, 234.306 218.647, 234.306 218.647, 232.412"/>
</g>
<g fill="#00cc00">
<polygon points=" 224.85, 234.318 224.85, 232.423 226.745, 232.423 226.745, 234.318 228.639, 234.318 228.639, 236.212 226.745, 236.212 226.745, 238.107 224.85, 238.107 224.85, 236.212 222.956, 236.212 222.956, 234.318"/>
</g>
<g fill="#00cc00">
<polygon points=" 229.159, 236.374 229.159, 234.479 231.054, 234.479 231.054, 236.374 232.948, 236.374 232.948, 238.268 231.054, 238.268 231.054, 240.163 229.159, 240.163 229.159, 238.268 227.265, 238.268 227.265, 236.374"/>
</g>
<g fill="#00cc00">
<polygon points=" 233.468, 238.513 233.468, 236.619 235.362, 236.619 235.362, 238.513 237.257, 238.513 237.257, 240.408 235.362, 240.408 235.362, 242.302 233.468, 242.302 233.468, 240.408 231.573, 240.408 231.573, 238.513"/>
</g>
<g fill="#00cc00">
<polygon points=" 237.776, 240.752 237.776, 238.858 239.671, 238.858 239.671, 240.752 241.565, 240.752 241.565, 242.647 239.671, 242.647 239.671, 244.541 237.776, 244.541 237.776, 242.647 235.882, 242.647 235.882, 240.752"/>
</g>
<g fill="#00cc00">
<polygon points=" 242.085, 242.982 242.085, 241.088 243.98, 241.088 243.98, 242.982 245.874, 242.982 245.874, 244.877 243.98, 244.877 243.98, 246.771 242.085, 246.771 242.085, 244.877 240.191, 244.877 240.191, 242.982"/>
</g>
<g fill="#00cc00">
<polygon points=" 246.394, 245.393 246.394, 243.499 248.288, 243.499 248.288, 245.393 250.183, 245.393 250.183, 247.288 248.288, 247.288 248.288, 249.182 246.394, 249.182 246.394, 247.288 244.499, 247.288 244.499, 245.393"/>
</g>
<g fill="#00cc00">
<polygon points=" 250.702, 247.75 250.702, 245.856 252.597, 245.856 252.597, 247.75 254.491, 247.75 254.491, 249.645 252.597, 249.645 252.597, 251.539 250.702, 251.539 250.702, 249.645 248.808, 249.645 248.808, 247.75"/>
</g>
<g fill="#00cc00">
<polygon points=" 255.011, 250.203 255.011, 248.309 256.906, 248.309 256.906, 250.203 258.8, 250.203 258.8, 252.098 256.906, 252.098 256.906, 253.992 255.011, 253.992 255.011, 252.098 253.117, 252.098 253.117, 250.203"/>
</g>
<g fill="#00cc00">
<polygon points=" 259.32, 252.553 259.32, 250.658 261.214, 250.658 261.214, 252.553 263.109, 252.553 263.109, 254.447 261.214, 254.447 261.214, 256.341 259.32, 256.341 259.32, 254.447 257.425, 254.447 257.425, 252.553"/>
</g>
<g fill="#00cc00">
<polygon points=" 263.628, 254.812 263.628, 252.917 265.523, 252.917 265.523, 254.812 267.417, 254.812 267.417, 256.706 265.523, 256.706 265.523, 258.601 263.628, 258.601 263.628, 256.706 261.734, 256.706 261.734, 254.812"/>
</g>
<g fill="#00cc00">
<polygon points=" 267.937, 256.972 267.937, 255.078 269.832, 255.078 269.832, 256.972 271.726, 256.972 271.726, 258.867 269.832, 258.867 269.832, 260.761 267.937, 260.761 267.937, 258.867 266.043, 258.867 266.043, 256.972"/>
</g>
<g fill="#00cc00">
<polygon points=" 272.246, 259.016 272.246, 257.122 274.14, 257.122 274.14, 259.016 276.035, 259.016 276.035, 260.911 274.14, 260.911 274.14, 262.805 272.246, 262.805 272.246, 260.911 270.351, 260.911 270.351, 259.016"/>
</g>
<g fill="#00cc00">
<polygon points=" 276.554, 260.851 276.554, 258.957 278.449, 258.957 278.449, 260.851 280.343, 260.851 280.343, 262.746 278.449, 262.746 278.449, 264.64 276.554, 264.64 276.554, 262.746 274.66, 262.746 274.66, 260.851"/>
</g>
<g fill="#00cc00">
<polygon points=" 280.863, 262.605 280.863, 260.71 282.757, 260.71 282.757, 262.605 284.652, 262.605 284.652, 264.499 282.757, 264.499 282.757, 266.394 280.863, 266.394 280.863, 264.499 278.968, 264.499 278.968, 262.605"/>
</g>
<g fill="#00cc00">
<polygon points=" 285.172, 264.236 285.172, 262.342 287.066, 262.342 287.066, 264.236 288.961, 264.236 288.961, 266.131 287.066, 266.131 287.066, 268.025 285.172, 268.025 285.172, 266.131 283.277, 266.131 283.277, 264.236"/>
</g>
<g fill="#00cc00">
<polygon points=" 289.48, 265.589 289.48, 263.695 291.375, 263.695 291.375, 265.589 293.269, 265.589 293.269, 267.484 291.375, 267.484 291.375, 269.378 289.48, 269.378 289.48, 267.484 287.586, 267.484 287.586, 265.589"/>
</g>
<g fill="#00cc00">
<polygon points=" 293.789, 266.897 293.789, 265.002 295.683, 265.002 295.683, 266.897 297.578, 266.897 297.578, 268.791 295.683, 268.791 295.683, 270.686 293.789, 270.686 293.789, 268.791 291.894, 268.791 291.894, 266.897"/>
</g>
<g fill="#00cc00">
<polygon points=" 298.098, 268.034 298.098, 266.14 299.992, 266.14 299.992, 268.034 301.887, 268.034 301.887, 269.929 299.992, 269.929 299.992, 271.823 298.098, 271.823 298.098, 269.929 296.203, 269.929 296.203, 268.034"/>
</g>
<g fill="#00cc00">
<polygon points=" 302.406, 269.1 302.406, 267.205 304.301, 267.205 304.301, 269.1 306.195, 269.1 306.195, 270.994 304.301, 270.994 304.301, 272.889 302.406, 272.889 302.406, 270.994 300.512, 270.994 300.512, 269.1"/>
</g>
<g fill="#00cc00">
<polygon points=" 306.715, 270.169 306.715, 268.274 308.609, 268.274 308.609, 270.169 310.504, 270.169 310.504, 272.063 308.609, 272.063 308.609, 273.958 306.715, 273.958 306.715, 272.063 304.82, 272.063 304.82, 270.169"/>
</g>
<g fill="#00cc00">
<polygon points=" 311.024, 271.248 311.024, 269.354 312.918, 269.354 312.918, 271.248 314.813, 271.248 314.813, 273.143 312.918, 273.143 312.918, 275.037 311.024, 275.037 311.024, 273.143 309.129, 273.143 309.129, 271.248"/>
</g>
<g fill="#00cc00">
<polygon points=" 315.332, 272.37 315.332, 270.475 317.227, 270.475 317.227, 272.37 319.121, 272.37 319.121, 274.264 317.227, 274.264 317.227, 276.159 315.332, 276.159 315.332, 274.264 313.438, 274.264 313.438, 272.37"/>
</g>
<g fill="#00cc00">
<polygon points=" 319.641, 273.492 319.641, 271.597 321.535, 271.597 321.535, 273.492 323.43, 273.492 323.43, 275.386 321.535, 275.386 321.535, 277.281 319.641, 277.281 319.641, 275.386 317.746, 275.386 317.746, 273.492"/>
</g>
<g fill="#00cc00">
<polygon points=" 323.95, 274.75 323.95, 272.856 325.844, 272.856 325.844, 274.75 327.739, 274.75 327.739, 276.645 325.844, 276.645 325.844, 278.539 323.95, 278.539 323.95, 276.645 322.055, 276.645 322.055, 274.75"/>
</g>
<g fill="#00cc00">
<polygon points=" 328.258, 276.066 328.258, 274.172 330.153, 274.172 330.153, 276.066 332.047, 276.066 332.047, 277.961 330.153, 277.961 330.153, 279.855 328.258, 279.855 328.258, 277.961 326.364, 277.961 326.364, 276.066"/>
</g>
<g fill="#00cc00">
<polygon points=" 332.567, 277.543 332.567, 275.649 334.461, 275.649 334.461, 277.543 336.356, 277.543 336.356, 279.438 334.461, 279.438 334.461, 281.332 332.567, 281.332 332.567, 279.438 330.672, 279.438 330.672, 277.543"/>
</g>
<g fill="#00cc00">
<polygon points=" 336.876, 279.048 336.876, 277.153 338.77, 277.153 338.77, 279.048 340.665, 279.048 340.665, 280.942 338.77, 280.942 338.77, 282.837 336.876, 282.837 336.876, 280.942 334.981, 280.942 334.981, 279.048"/>
</g>
<g fill="#00cc00">
<polygon points=" 341.184, 280.761 341.184, 278.866 343.079, 278.866 343.079, 280.761 344.973, 280.761 344.973, 282.655 343.079, 282.655 343.079, 284.55 341.184, 284.55 341.184, 282.655 339.29, 282.655 339.29, 280.761"/>
</g>
<g fill="#00cc00">
<polygon points=" 345.493, 282.558 345.493, 280.663 347.387, 280.663 347.387, 282.558 349.282, 282.558 349.282, 284.452 347.387, 284.452 347.387, 286.347 345.493, 286.347 345.493, 284.452 343.598, 284.452 343.598, 282.558"/>
</g>
<g fill="#00cc00">
<polygon points=" 349.802, 284.491 349.802, 282.596 351.696, 282.596 351.696, 284.491 353.591, 284.491 353.591, 286.385 351.696, 286.385 351.696, 288.28 349.802, 288.28 349.802, 286.385 347.907, 286.385 347.907, 284.491"/>
</g>
<g fill="#00cc00">
<polygon points=" 354.11, 286.581 354.11, 284.687 356.005, 284.687 356.005, 286.581 357.899, 286.581 357.899, 288.476 356.005, 288.476 356.005, 290.37 354.11, 290.37 354.11, 288.476 352.216, 288.476 352.216, 286.581"/>
</g>
<g fill="#00cc00">
<polygon points=" 358.419, 288.719 358.419, 286.825 360.313, 286.825 360.313, 288.719 362.208, 288.719 362.208, 290.614 360.313, 290.614 360.313, 292.508 358.419, 292.508 358.419, 290.614 356.524, 290.614 356.524, 288.719"/>
</g>
<g fill="#00cc00">
<polygon points=" 362.728, 291.043 362.728, 289.149 364.622, 289.149 364.622, 291.043 366.517, 291.043 366.517, 292.938 364.622, 292.938 364.622, 294.832 362.728, 294.832 362.728, 292.938 360.833, 292.938 360.833, 291.043"/>
</g>
<g fill="#00cc00">
<polygon points=" 367.036, 293.447 367.036, 291.552 368.931, 291.552 368.931, 293.447 370.825, 293.447 370.825, 295.341 368.931, 295.341 368.931, 297.236 367.036, 297.236 367.036, 295.341 365.142, 295.341 365.142, 293.447"/>
</g>
<g fill="#00cc00">
<polygon points=" 371.345, 295.873 371.345, 293.979 373.239, 293.979 373.239, 295.873 375.134, 295.873 375.134, 297.768 373.239, 297.768 373.239, 299.662 371.345, 299.662 371.345, 297.768 369.45, 297.768 369.45, 295.873"/>
</g>
<g fill="#00cc00">
<polygon points=" 375.654, 298.479 375.654, 296.585 377.548, 296.585 377.548, 298.479 379.443, 298.479 379.443, 300.374 377.548, 300.374 377.548, 302.268 375.654, 302.268 375.654, 300.374 373.759, 300.374 373.759, 298.479"/>
</g>
<g fill="#00cc00">
<polygon points=" 379.962, 301.148 379.962, 299.253 381.857, 299.253 381.857, 301.148 383.751, 301.148 383.751, 303.042 381.857, 303.042 381.857, 304.937 379.962, 304.937 379.962, 303.042 378.068, 303.042 378.068, 301.148"/>
</g>
<g fill="#00cc00">
<polygon points=" 384.271, 303.786 384.271, 301.891 386.165, 301.891 386.165, 303.786 388.06, 303.786 388.06, 305.68 386.165, 305.68 386.165, 307.575 384.271, 307.575 384.271, 305.68 382.376, 305.68 382.376, 303.786"/>
</g>
<g fill="#00cc00">
<polygon points=" 388.58, 306.481 388.58, 304.587 390.474, 304.587 390.474, 306.481 392.369, 306.481 392.369, 308.376 390.474, 308.376 390.474, 310.27 388.58, 310.27 388.58, 308.376 386.685, 308.376 386.685, 306.481"/>
</g>
<g fill="#00cc00">
<polygon points=" 392.888, 309.235 392.888, 307.341 394.783, 307.341 394.783, 309.235 396.677, 309.235 396.677, 311.13 394.783, 311.13 394.783, 313.024 392.888, 313.024 392.888, 311.13 390.994, 311.13 390.994, 309.235"/>
</g>
<g fill="#00cc00">
<polygon points=" 397.197, 312.022 397.197, 310.127 399.091, 310.127 399.091, 312.022 400.986, 312.022 400.986, 313.916 399.091, 313.916 399.091, 315.811 397.197, 315.811 397.197, 313.916 395.302, 313.916 395.302, 312.022"/>
</g>
<g fill="#00cc00">
<polygon points=" 401.505, 314.787 401.505, 312.893 403.4, 312.893 403.4, 314.787 405.294, 314.787 405.294, 316.682 403.4, 316.682 403.4, 318.576 401.505, 318.576 401.505, 316.682 399.611, 316.682 399.611, 314.787"/>
</g>
<g fill="#00cc00">
<polygon points=" 405.814, 317.537 405.814, 315.642 407.709, 315.642 407.709, 317.537 409.603, 317.537 409.603, 319.431 407.709, 319.431 407.709, 321.326 405.814, 321.326 405.814, 319.431 403.92, 319.431 403.92, 317.537"/>
</g>
<g fill="#00cc00">
<polygon points=" 410.123, 320.298 410.123, 318.403 412.017, 318.403 412.017, 320.298 413.912, 320.298 413.912, 322.192 412.017, 322.192 412.017, 324.087 410.123, 324.087 410.123, 322.192 408.228, 322.192 408.228, 320.298"/>
</g>
<g fill="#00cc00">
<polygon points=" 414.431, 322.977 414.431, 321.083 416.326, 321.083 416.326, 322.977 418.22, 322.977 418.22, 324.872 416.326, 324.872 416.326, 326.766 414.431, 326.766 414.431, 324.872 412.537, 324.872 412.537, 322.977"/>
</g>
<g fill="#00cc00">
<polygon points=" 418.74, 325.615 418.74, 323.72 420.635, 323.72 420.635, 325.615 422.529, 325.615 422.529, 327.509 420.635, 327.509 420.635, 329.404 418.74, 329.404 418.74, 327.509 416.846, 327.509 416.846, 325.615"/>
</g>
<g fill="#00cc00">
<polygon points=" 423.049, 328.189 423.049, 326.295 424.943, 326.295 424.943, 328.189 426.838, 328.189 426.838, 330.084 424.943, 330.084 424.943, 331.978 423.049, 331.978 423.049, 330.084 421.154, 330.084 421.154, 328.189"/>
</g>
<g fill="#00cc00">
<polygon points=" 427.357, 330.693 427.357, 328.799 429.252, 328.799 429.252, 330.693 431.146, 330.693 431.146, 332.588 429.252, 332.588 429.252, 334.482 427.357, 334.482 427.357, 332.588 425.463, 332.588 425.463, 330.693"/>
</g>
<g fill="#00cc00">
<polygon points=" 431.666, 333.083 431.666, 331.188 433.561, 331.188 433.561, 333.083 435.455, 333.083 435.455, 334.977 433.561, 334.977 433.561, 336.872 431.666, 336.872 431.666, 334.977 429.772, 334.977 429.772, 333.083"/>
</g>
<g fill="#00cc00">
<polygon points=" 435.975, 335.412 435.975, 333.517 437.869, 333.517 437.869, 335.412 439.764, 335.412 439.764, 337.306 437.869, 337.306 437.869, 339.201 435.975, 339.201 435.975, 337.306 434.08, 337.306 434.08, 335.412"/>
</g>
<g fill="#00cc00">
<polygon points=" 440.283, 337.587 440.283, 335.692 442.178, 335.692 442.178, 337.587 444.072, 337.587 444.072, 339.481 442.178, 339.481 442.178, 341.376 440.283, 341.376 440.283, 339.481 438.389, 339.481 438.389, 337.587"/>
</g>
<g fill="#00cc00">
<polygon points=" 444.592, 339.659 444.592, 337.764 446.487, 337.764 446.487, 339.659 448.381, 339.659 448.381, 341.553 446.487, 341.553 446.487, 343.448 444.592, 343.448 444.592, 341.553 442.698, 341.553 442.698, 339.659"/>
</g>
<g fill="#00cc00">
<polygon points=" 448.901, 341.654 448.901, 339.759 450.795, 339.759 450.795, 341.654 452.69, 341.654 452.69, 343.548 450.795, 343.548 450.795, 345.443 448.901, 345.443 448.901, 343.548 447.006, 343.548 447.006, 341.654"/>
</g>
<g fill="#00cc00">
<polygon points=" 453.209, 343.497 453.209, 341.602 455.104, 341.602 455.104, 343.497 456.998, 343.497 456.998, 345.391 455.104, 345.391 455.104, 347.286 453.209, 347.286 453.209, 345.391 451.315, 345.391 451.315, 343.497"/>
</g>
<g fill="#00cc00">
<polygon points=" 457.518, 345.214 457.518, 343.32 459.413, 343.32 459.413, 345.214 461.307, 345.214 461.307, 347.109 459.413, 347.109 459.413, 349.003 457.518, 349.003 457.518, 347.109 455.624, 347.109 455.624, 345.214"/>
</g>
<g fill="#00cc00">
<polygon points=" 461.827, 346.812 461.827, 344.917 463.721, 344.917 463.721, 346.812 465.616, 346.812 465.616, 348.706 463.721, 348.706 463.721, 350.601 461.827, 350.601 461.827, 348.706 459.932, 348.706 459.932, 346.812"/>
</g>
<g fill="#00cc00">
<polygon points=" 466.135, 348.295 466.135, 346.4 468.03, 346.4 468.03, 348.295 469.924, 348.295 469.924, 350.189 468.03, 350.189 468.03, 352.084 466.135, 352.084 466.135, 350.189 464.241, 350.189 464.241, 348.295"/>
</g>
<g fill="#00cc00">
<polygon points=" 470.444, 349.621 470.444, 347.727 472.339, 347.727 472.339, 349.621 474.233, 349.621 474.233, 351.516 472.339, 351.516 472.339, 353.41 470.444, 353.41 470.444, 351.516 468.55, 351.516 468.55, 349.621"/>
</g>
<g fill="#00cc00">
<polygon points=" 474.753, 350.858 474.753, 348.963 476.647, 348.963 476.647, 350.858 478.542, 350.858 478.542, 352.752 476.647, 352.752 476.647, 354.647 474.753, 354.647 474.753, 352.752 472.858, 352.752 472.858, 350.858"/>
</g>
<g fill="#00cc00">
<polygon points=" 479.061, 351.925 479.061, 350.031 480.956, 350.031 480.956, 351.925 482.85, 351.925 482.85, 353.82 480.956, 353.82 480.956, 355.714 479.061, 355.714 479.061, 353.82 477.167, 353.82 477.167, 351.925"/>
</g>
<g fill="#00cc00">
<polygon points=" 483.37, 352.898 483.37, 351.004 485.265, 351.004 485.265, 352.898 487.159, 352.898 487.159, 354.793 485.265, 354.793 485.265, 356.687 483.37, 356.687 483.37, 354.793 481.476, 354.793 481.476, 352.898"/>
</g>
<g fill="#00cc00">
<polygon points=" 487.679, 353.742 487.679, 351.847 489.573, 351.847 489.573, 353.742 491.468, 353.742 491.468, 355.636 489.573, 355.636 489.573, 357.531 487.679, 357.531 487.679, 355.636 485.784, 355.636 485.784, 353.742"/>
</g>
<g fill="#00cc00">
<polygon points=" 491.987, 354.488 491.987, 352.593 493.882, 352.593 493.882, 354.488 495.776, 354.488 495.776, 356.382 493.882, 356.382 493.882, 358.277 491.987, 358.277 491.987, 356.382 490.093, 356.382 490.093, 354.488"/>
</g>
<g fill="#00cc00">
<polygon points=" 496.296, 355.136 496.296, 353.241 498.191, 353.241 498.191, 355.136 500.085, 355.136 500.085, 357.03 498.191, 357.03 498.191, 358.925 496.296, 358.925 496.296, 357.03 494.402, 357.03 494.402, 355.136"/>
</g>
<text xml:space="preserve" x="90.7256" y="62.5185" fill="black" font-size="19.2386" font-family="Helvetica">PYTHIA8, p+Au 200 GeV with option3</text>
<text xml:space="preserve" x="276.15" y="103.013" fill="black" font-size="12.9924" font-family="Helvetica">T</text>
<text xml:space="preserve" x="164.611" y="93.0673" fill="black" font-size="19.2386" font-family="Helvetica">, integrated p</text>
<text xml:space="preserve" x="157.507" y="86.6734" fill="black" font-size="12.9924" font-family="Times">&#0177;</text>
<text xml:space="preserve" x="136.194" y="93.0673" fill="black" font-size="19.2386" font-family="Helvetica">, p</text>
<text xml:space="preserve" x="129.089" y="84.5421" fill="black" font-size="12.9924" font-family="Times">&#0177;</text>
<text xml:space="preserve" x="108.487" y="93.0673" fill="black" font-size="19.2386" font-family="Helvetica">, k</text>
<text xml:space="preserve" x="101.382" y="86.6734" fill="black" font-size="12.9924" font-family="Times">&#0177;</text>
<text xml:space="preserve" x="90.7256" y="93.0673" fill="black" font-size="19.2386" font-family="Times">&#0960;</text>
<text xml:space="preserve" x="141.877" y="124.327" fill="black" font-size="19.2386" font-family="Helvetica">cent: 0~10%</text>
<g fill="#00cc00">
<polygon points=" 112.939, 116.497 112.939, 114.602 114.833, 114.602 114.833, 116.497 116.728, 116.497 116.728, 118.391 114.833, 118.391 114.833, 120.286 112.939, 120.286 112.939, 118.391 111.044, 118.391 111.044, 116.497"/>
</g>
<text xml:space="preserve" x="141.877" y="154.875" fill="black" font-size="19.2386" font-family="Helvetica">MB events(all inelastic)</text>
<g stroke="black" stroke-width="1" fill="none">
<polygon points=" 112.939, 147.135 112.939, 145.24 114.833, 145.24 114.833, 147.135 116.728, 147.135 116.728, 149.029 114.833, 149.029 114.833, 150.924 112.939, 150.924 112.939, 149.029 111.044, 149.029 111.044, 147.135"/>
</g></svg>
