<?xml version="1.0" standalone="no"?>
<svg width="567.429" height="409.002" viewBox="0 0 567.429 409.002" xmlns="http://www.w3.org/2000/svg" shape-rendering="crispEdges">
<title>
/Users/jinhyunpark/npl/gitHub/Centrality_dependent_BiasCorrection/plots/dNdeta_charge_all2byCent_cent4.svg
</title>
<desc>
Creator: ROOT Version 6.28/04
CreationDate: Tue Oct 10 11:39:45 2023</desc>
<defs>
</defs>
<rect x="0.5" y="0" width="566.929" height="408.502" fill="white"/>
<rect x="57.1929" y="20.4251" width="453.543" height="339.056" fill="white"/>
<rect x="57.1929" y="20.4251" width="453.543" height="339.056" fill="none" stroke="black"/>
<rect x="57.1929" y="20.4251" width="453.543" height="339.056" fill="white"/>
<rect x="57.1929" y="20.4251" width="453.543" height="339.056" fill="none" stroke="black"/>
<path d="M57.1929,359.481h 453.543" fill="none" stroke="black"/>
<path d="M57.1929,349.677v 9.80404" fill="none" stroke="black"/>
<path d="M66.2638,354.579v 4.90202" fill="none" stroke="black"/>
<path d="M75.3346,354.579v 4.90202" fill="none" stroke="black"/>
<path d="M84.4055,354.579v 4.90202" fill="none" stroke="black"/>
<path d="M93.4764,354.579v 4.90202" fill="none" stroke="black"/>
<path d="M102.547,349.677v 9.80404" fill="none" stroke="black"/>
<path d="M111.618,354.579v 4.90202" fill="none" stroke="black"/>
<path d="M120.689,354.579v 4.90202" fill="none" stroke="black"/>
<path d="M129.76,354.579v 4.90202" fill="none" stroke="black"/>
<path d="M138.831,354.579v 4.90202" fill="none" stroke="black"/>
<path d="M147.902,349.677v 9.80404" fill="none" stroke="black"/>
<path d="M156.972,354.579v 4.90202" fill="none" stroke="black"/>
<path d="M166.043,354.579v 4.90202" fill="none" stroke="black"/>
<path d="M175.114,354.579v 4.90202" fill="none" stroke="black"/>
<path d="M184.185,354.579v 4.90202" fill="none" stroke="black"/>
<path d="M193.256,349.677v 9.80404" fill="none" stroke="black"/>
<path d="M202.327,354.579v 4.90202" fill="none" stroke="black"/>
<path d="M211.398,354.579v 4.90202" fill="none" stroke="black"/>
<path d="M220.469,354.579v 4.90202" fill="none" stroke="black"/>
<path d="M229.539,354.579v 4.90202" fill="none" stroke="black"/>
<path d="M238.61,349.677v 9.80404" fill="none" stroke="black"/>
<path d="M247.681,354.579v 4.90202" fill="none" stroke="black"/>
<path d="M256.752,354.579v 4.90202" fill="none" stroke="black"/>
<path d="M265.823,354.579v 4.90202" fill="none" stroke="black"/>
<path d="M274.894,354.579v 4.90202" fill="none" stroke="black"/>
<path d="M283.965,349.677v 9.80404" fill="none" stroke="black"/>
<path d="M293.035,354.579v 4.90202" fill="none" stroke="black"/>
<path d="M302.106,354.579v 4.90202" fill="none" stroke="black"/>
<path d="M311.177,354.579v 4.90202" fill="none" stroke="black"/>
<path d="M320.248,354.579v 4.90202" fill="none" stroke="black"/>
<path d="M329.319,349.677v 9.80404" fill="none" stroke="black"/>
<path d="M338.39,354.579v 4.90202" fill="none" stroke="black"/>
<path d="M347.461,354.579v 4.90202" fill="none" stroke="black"/>
<path d="M356.531,354.579v 4.90202" fill="none" stroke="black"/>
<path d="M365.602,354.579v 4.90202" fill="none" stroke="black"/>
<path d="M374.673,349.677v 9.80404" fill="none" stroke="black"/>
<path d="M383.744,354.579v 4.90202" fill="none" stroke="black"/>
<path d="M392.815,354.579v 4.90202" fill="none" stroke="black"/>
<path d="M401.886,354.579v 4.90202" fill="none" stroke="black"/>
<path d="M410.957,354.579v 4.90202" fill="none" stroke="black"/>
<path d="M420.028,349.677v 9.80404" fill="none" stroke="black"/>
<path d="M429.098,354.579v 4.90202" fill="none" stroke="black"/>
<path d="M438.169,354.579v 4.90202" fill="none" stroke="black"/>
<path d="M447.24,354.579v 4.90202" fill="none" stroke="black"/>
<path d="M456.311,354.579v 4.90202" fill="none" stroke="black"/>
<path d="M465.382,349.677v 9.80404" fill="none" stroke="black"/>
<path d="M474.453,354.579v 4.90202" fill="none" stroke="black"/>
<path d="M483.524,354.579v 4.90202" fill="none" stroke="black"/>
<path d="M492.594,354.579v 4.90202" fill="none" stroke="black"/>
<path d="M501.665,354.579v 4.90202" fill="none" stroke="black"/>
<path d="M510.736,349.677v 9.80404" fill="none" stroke="black"/>
<text xml:space="preserve" x="56.6246" y="372.269" fill="black" font-size="13.617" font-family="Helvetica">5</text>
<text xml:space="preserve" x="48.8097" y="372.269" fill="black" font-size="13.617" font-family="Times">&#8722;</text>
<text xml:space="preserve" x="102.093" y="372.269" fill="black" font-size="13.617" font-family="Helvetica">4</text>
<text xml:space="preserve" x="94.2777" y="372.269" fill="black" font-size="13.617" font-family="Times">&#8722;</text>
<text xml:space="preserve" x="147.561" y="372.269" fill="black" font-size="13.617" font-family="Helvetica">3</text>
<text xml:space="preserve" x="139.746" y="372.269" fill="black" font-size="13.617" font-family="Times">&#8722;</text>
<text xml:space="preserve" x="193.029" y="372.269" fill="black" font-size="13.617" font-family="Helvetica">2</text>
<text xml:space="preserve" x="185.214" y="372.269" fill="black" font-size="13.617" font-family="Times">&#8722;</text>
<text xml:space="preserve" x="239.207" y="372.269" fill="black" font-size="13.617" font-family="Helvetica">1</text>
<text xml:space="preserve" x="232.103" y="372.269" fill="black" font-size="13.617" font-family="Times">&#8722;</text>
<text xml:space="preserve" x="280.412" y="372.269" fill="black" font-size="13.617" font-family="Helvetica">0</text>
<text xml:space="preserve" x="325.88" y="372.269" fill="black" font-size="13.617" font-family="Helvetica">1</text>
<text xml:space="preserve" x="370.638" y="372.269" fill="black" font-size="13.617" font-family="Helvetica">2</text>
<text xml:space="preserve" x="416.106" y="372.269" fill="black" font-size="13.617" font-family="Helvetica">3</text>
<text xml:space="preserve" x="461.574" y="372.269" fill="black" font-size="13.617" font-family="Helvetica">4</text>
<text xml:space="preserve" x="507.042" y="372.269" fill="black" font-size="13.617" font-family="Helvetica">5</text>
<text xml:space="preserve" x="502.779" y="384.347" fill="black" font-size="13.617" font-family="Times">&#0951;</text>
<path d="M57.1929,20.4251h 453.543" fill="none" stroke="black"/>
<path d="M57.1929,30.2291v -9.80404" fill="none" stroke="black"/>
<path d="M66.2638,25.3271v -4.90202" fill="none" stroke="black"/>
<path d="M75.3346,25.3271v -4.90202" fill="none" stroke="black"/>
<path d="M84.4055,25.3271v -4.90202" fill="none" stroke="black"/>
<path d="M93.4764,25.3271v -4.90202" fill="none" stroke="black"/>
<path d="M102.547,30.2291v -9.80404" fill="none" stroke="black"/>
<path d="M111.618,25.3271v -4.90202" fill="none" stroke="black"/>
<path d="M120.689,25.3271v -4.90202" fill="none" stroke="black"/>
<path d="M129.76,25.3271v -4.90202" fill="none" stroke="black"/>
<path d="M138.831,25.3271v -4.90202" fill="none" stroke="black"/>
<path d="M147.902,30.2291v -9.80404" fill="none" stroke="black"/>
<path d="M156.972,25.3271v -4.90202" fill="none" stroke="black"/>
<path d="M166.043,25.3271v -4.90202" fill="none" stroke="black"/>
<path d="M175.114,25.3271v -4.90202" fill="none" stroke="black"/>
<path d="M184.185,25.3271v -4.90202" fill="none" stroke="black"/>
<path d="M193.256,30.2291v -9.80404" fill="none" stroke="black"/>
<path d="M202.327,25.3271v -4.90202" fill="none" stroke="black"/>
<path d="M211.398,25.3271v -4.90202" fill="none" stroke="black"/>
<path d="M220.469,25.3271v -4.90202" fill="none" stroke="black"/>
<path d="M229.539,25.3271v -4.90202" fill="none" stroke="black"/>
<path d="M238.61,30.2291v -9.80404" fill="none" stroke="black"/>
<path d="M247.681,25.3271v -4.90202" fill="none" stroke="black"/>
<path d="M256.752,25.3271v -4.90202" fill="none" stroke="black"/>
<path d="M265.823,25.3271v -4.90202" fill="none" stroke="black"/>
<path d="M274.894,25.3271v -4.90202" fill="none" stroke="black"/>
<path d="M283.965,30.2291v -9.80404" fill="none" stroke="black"/>
<path d="M293.035,25.3271v -4.90202" fill="none" stroke="black"/>
<path d="M302.106,25.3271v -4.90202" fill="none" stroke="black"/>
<path d="M311.177,25.3271v -4.90202" fill="none" stroke="black"/>
<path d="M320.248,25.3271v -4.90202" fill="none" stroke="black"/>
<path d="M329.319,30.2291v -9.80404" fill="none" stroke="black"/>
<path d="M338.39,25.3271v -4.90202" fill="none" stroke="black"/>
<path d="M347.461,25.3271v -4.90202" fill="none" stroke="black"/>
<path d="M356.531,25.3271v -4.90202" fill="none" stroke="black"/>
<path d="M365.602,25.3271v -4.90202" fill="none" stroke="black"/>
<path d="M374.673,30.2291v -9.80404" fill="none" stroke="black"/>
<path d="M383.744,25.3271v -4.90202" fill="none" stroke="black"/>
<path d="M392.815,25.3271v -4.90202" fill="none" stroke="black"/>
<path d="M401.886,25.3271v -4.90202" fill="none" stroke="black"/>
<path d="M410.957,25.3271v -4.90202" fill="none" stroke="black"/>
<path d="M420.028,30.2291v -9.80404" fill="none" stroke="black"/>
<path d="M429.098,25.3271v -4.90202" fill="none" stroke="black"/>
<path d="M438.169,25.3271v -4.90202" fill="none" stroke="black"/>
<path d="M447.24,25.3271v -4.90202" fill="none" stroke="black"/>
<path d="M456.311,25.3271v -4.90202" fill="none" stroke="black"/>
<path d="M465.382,30.2291v -9.80404" fill="none" stroke="black"/>
<path d="M474.453,25.3271v -4.90202" fill="none" stroke="black"/>
<path d="M483.524,25.3271v -4.90202" fill="none" stroke="black"/>
<path d="M492.594,25.3271v -4.90202" fill="none" stroke="black"/>
<path d="M501.665,25.3271v -4.90202" fill="none" stroke="black"/>
<path d="M510.736,30.2291v -9.80404" fill="none" stroke="black"/>
<path d="M57.1929,359.481v -339.056" fill="none" stroke="black"/>
<path d="M71.3094,359.481h -14.1165" fill="none" stroke="black"/>
<path d="M64.2512,345.919h -7.05827" fill="none" stroke="black"/>
<path d="M64.2512,332.357h -7.05827" fill="none" stroke="black"/>
<path d="M64.2512,318.795h -7.05827" fill="none" stroke="black"/>
<path d="M64.2512,305.232h -7.05827" fill="none" stroke="black"/>
<path d="M71.3094,291.67h -14.1165" fill="none" stroke="black"/>
<path d="M64.2512,278.108h -7.05827" fill="none" stroke="black"/>
<path d="M64.2512,264.546h -7.05827" fill="none" stroke="black"/>
<path d="M64.2512,250.983h -7.05827" fill="none" stroke="black"/>
<path d="M64.2512,237.421h -7.05827" fill="none" stroke="black"/>
<path d="M71.3094,223.859h -14.1165" fill="none" stroke="black"/>
<path d="M64.2512,210.297h -7.05827" fill="none" stroke="black"/>
<path d="M64.2512,196.734h -7.05827" fill="none" stroke="black"/>
<path d="M64.2512,183.172h -7.05827" fill="none" stroke="black"/>
<path d="M64.2512,169.61h -7.05827" fill="none" stroke="black"/>
<path d="M71.3094,156.048h -14.1165" fill="none" stroke="black"/>
<path d="M64.2512,142.485h -7.05827" fill="none" stroke="black"/>
<path d="M64.2512,128.923h -7.05827" fill="none" stroke="black"/>
<path d="M64.2512,115.361h -7.05827" fill="none" stroke="black"/>
<path d="M64.2512,101.799h -7.05827" fill="none" stroke="black"/>
<path d="M71.3094,88.2363h -14.1165" fill="none" stroke="black"/>
<path d="M64.2512,74.6741h -7.05827" fill="none" stroke="black"/>
<path d="M64.2512,61.1118h -7.05827" fill="none" stroke="black"/>
<path d="M64.2512,47.5496h -7.05827" fill="none" stroke="black"/>
<path d="M64.2512,33.9873h -7.05827" fill="none" stroke="black"/>
<path d="M71.3094,20.4251h -14.1165" fill="none" stroke="black"/>
<text xml:space="preserve" x="46.6784" y="364.454" fill="black" font-size="13.617" font-family="Helvetica">0</text>
<text xml:space="preserve" x="35.3114" y="296.252" fill="black" font-size="13.617" font-family="Helvetica">0.5</text>
<text xml:space="preserve" x="48.8097" y="229.471" fill="black" font-size="13.617" font-family="Helvetica">1</text>
<text xml:space="preserve" x="35.3114" y="160.559" fill="black" font-size="13.617" font-family="Helvetica">1.5</text>
<text xml:space="preserve" x="46.6784" y="93.7778" fill="black" font-size="13.617" font-family="Helvetica">2</text>
<text xml:space="preserve" x="35.3114" y="24.8653" fill="black" font-size="13.617" font-family="Helvetica">2.5</text>
<g transform="rotate(-90,28.9175,32.6801)">
<text xml:space="preserve" x="28.9175" y="32.6801" fill="black" font-size="13.617" font-family="Times">&#0951;</text>
</g>
<g transform="rotate(-90,28.9175,39.7845)">
<text xml:space="preserve" x="28.9175" y="39.7845" fill="black" font-size="13.617" font-family="Helvetica">d</text>
</g>
<g transform="rotate(-90,8.31481,29.1279)">
<text xml:space="preserve" x="8.31481" y="29.1279" fill="black" font-size="9.24468" font-family="Helvetica">ch</text>
</g>
<g transform="rotate(-90,14.7087,45.468)">
<text xml:space="preserve" x="14.7087" y="45.468" fill="black" font-size="13.617" font-family="Helvetica">dN</text>
</g>
<path d="M17.5505,45.468v -25.5758" fill="none" stroke="black" stroke-width="2"/>
<g transform="rotate(-90,21.1027,49.7306)">
<text xml:space="preserve" x="21.1027" y="49.7306" fill="black" font-size="13.617" font-family="Helvetica"> </text>
</g>
<g transform="rotate(-90,33.1801,72.4646)">
<text xml:space="preserve" x="33.1801" y="72.4646" fill="black" font-size="9.24468" font-family="Helvetica">event</text>
</g>
<g transform="rotate(-90,28.9175,81.7003)">
<text xml:space="preserve" x="28.9175" y="81.7003" fill="black" font-size="13.617" font-family="Helvetica">N</text>
</g>
<g transform="rotate(-90,15.4192,68.202)">
<text xml:space="preserve" x="15.4192" y="68.202" fill="black" font-size="13.617" font-family="Helvetica">1</text>
</g>
<path d="M17.5505,81.7003v -31.9697" fill="none" stroke="black" stroke-width="2"/>
<g transform="rotate(-90,21.1027,85.9629)">
<text xml:space="preserve" x="21.1027" y="85.9629" fill="black" font-size="13.617" font-family="Helvetica"> </text>
</g>
<g transform="rotate(-90,29.6279,90.2256)">
<text xml:space="preserve" x="29.6279" y="90.2256" fill="black" font-size="13.617" font-family="Times">&#0062;</text>
</g>
<g transform="rotate(-90,36.0219,103.724)">
<text xml:space="preserve" x="36.0219" y="103.724" fill="black" font-size="9.24468" font-family="Helvetica">coll</text>
</g>
<g transform="rotate(-90,29.6279,112.96)">
<text xml:space="preserve" x="29.6279" y="112.96" fill="black" font-size="13.617" font-family="Helvetica">N</text>
</g>
<g transform="rotate(-90,29.6279,117.222)">
<text xml:space="preserve" x="29.6279" y="117.222" fill="black" font-size="13.617" font-family="Times">&#0060;</text>
</g>
<g transform="rotate(-90,15.4192,103.724)">
<text xml:space="preserve" x="15.4192" y="103.724" fill="black" font-size="13.617" font-family="Helvetica">1</text>
</g>
<path d="M17.5505,117.222v -31.2593" fill="none" stroke="black" stroke-width="2"/>
<path d="M510.736,359.481v -339.056" fill="none" stroke="black"/>
<path d="M496.62,359.481h 14.1165" fill="none" stroke="black"/>
<path d="M503.678,345.919h 7.05827" fill="none" stroke="black"/>
<path d="M503.678,332.357h 7.05827" fill="none" stroke="black"/>
<path d="M503.678,318.795h 7.05827" fill="none" stroke="black"/>
<path d="M503.678,305.232h 7.05827" fill="none" stroke="black"/>
<path d="M496.62,291.67h 14.1165" fill="none" stroke="black"/>
<path d="M503.678,278.108h 7.05827" fill="none" stroke="black"/>
<path d="M503.678,264.546h 7.05827" fill="none" stroke="black"/>
<path d="M503.678,250.983h 7.05827" fill="none" stroke="black"/>
<path d="M503.678,237.421h 7.05827" fill="none" stroke="black"/>
<path d="M496.62,223.859h 14.1165" fill="none" stroke="black"/>
<path d="M503.678,210.297h 7.05827" fill="none" stroke="black"/>
<path d="M503.678,196.734h 7.05827" fill="none" stroke="black"/>
<path d="M503.678,183.172h 7.05827" fill="none" stroke="black"/>
<path d="M503.678,169.61h 7.05827" fill="none" stroke="black"/>
<path d="M496.62,156.048h 14.1165" fill="none" stroke="black"/>
<path d="M503.678,142.485h 7.05827" fill="none" stroke="black"/>
<path d="M503.678,128.923h 7.05827" fill="none" stroke="black"/>
<path d="M503.678,115.361h 7.05827" fill="none" stroke="black"/>
<path d="M503.678,101.799h 7.05827" fill="none" stroke="black"/>
<path d="M496.62,88.2363h 14.1165" fill="none" stroke="black"/>
<path d="M503.678,74.6741h 7.05827" fill="none" stroke="black"/>
<path d="M503.678,61.1118h 7.05827" fill="none" stroke="black"/>
<path d="M503.678,47.5496h 7.05827" fill="none" stroke="black"/>
<path d="M503.678,33.9873h 7.05827" fill="none" stroke="black"/>
<path d="M496.62,20.4251h 14.1165" fill="none" stroke="black"/>
<g stroke="black" stroke-width="1" fill="none">
<polygon points=" 58.5134, 257.308 58.5134, 255.413 60.4079, 255.413 60.4079, 257.308 62.3024, 257.308 62.3024, 259.202 60.4079, 259.202 60.4079, 261.097 58.5134, 261.097 58.5134, 259.202 56.6189, 259.202 56.6189, 257.308"/>
</g>
<g stroke="black" stroke-width="1" fill="none">
<polygon points=" 63.0488, 248.77 63.0488, 246.875 64.9433, 246.875 64.9433, 248.77 66.8378, 248.77 66.8378, 250.664 64.9433, 250.664 64.9433, 252.559 63.0488, 252.559 63.0488, 250.664 61.1543, 250.664 61.1543, 248.77"/>
</g>
<g stroke="black" stroke-width="1" fill="none">
<polygon points=" 67.5843, 240.487 67.5843, 238.593 69.4788, 238.593 69.4788, 240.487 71.3733, 240.487 71.3733, 242.382 69.4788, 242.382 69.4788, 244.276 67.5843, 244.276 67.5843, 242.382 65.6898, 242.382 65.6898, 240.487"/>
</g>
<g stroke="black" stroke-width="1" fill="none">
<polygon points=" 72.1197, 232.571 72.1197, 230.677 74.0142, 230.677 74.0142, 232.571 75.9087, 232.571 75.9087, 234.466 74.0142, 234.466 74.0142, 236.36 72.1197, 236.36 72.1197, 234.466 70.2252, 234.466 70.2252, 232.571"/>
</g>
<g stroke="black" stroke-width="1" fill="none">
<polygon points=" 76.6551, 225.275 76.6551, 223.381 78.5496, 223.381 78.5496, 225.275 80.4441, 225.275 80.4441, 227.17 78.5496, 227.17 78.5496, 229.064 76.6551, 229.064 76.6551, 227.17 74.7606, 227.17 74.7606, 225.275"/>
</g>
<g stroke="black" stroke-width="1" fill="none">
<polygon points=" 81.1906, 218.524 81.1906, 216.63 83.085, 216.63 83.085, 218.524 84.9795, 218.524 84.9795, 220.419 83.085, 220.419 83.085, 222.313 81.1906, 222.313 81.1906, 220.419 79.2961, 220.419 79.2961, 218.524"/>
</g>
<g stroke="black" stroke-width="1" fill="none">
<polygon points=" 85.726, 212.308 85.726, 210.414 87.6205, 210.414 87.6205, 212.308 89.515, 212.308 89.515, 214.203 87.6205, 214.203 87.6205, 216.097 85.726, 216.097 85.726, 214.203 83.8315, 214.203 83.8315, 212.308"/>
</g>
<g stroke="black" stroke-width="1" fill="none">
<polygon points=" 90.2614, 206.531 90.2614, 204.637 92.1559, 204.637 92.1559, 206.531 94.0504, 206.531 94.0504, 208.426 92.1559, 208.426 92.1559, 210.32 90.2614, 210.32 90.2614, 208.426 88.3669, 208.426 88.3669, 206.531"/>
</g>
<g stroke="black" stroke-width="1" fill="none">
<polygon points=" 94.7968, 201.075 94.7968, 199.18 96.6913, 199.18 96.6913, 201.075 98.5858, 201.075 98.5858, 202.969 96.6913, 202.969 96.6913, 204.864 94.7968, 204.864 94.7968, 202.969 92.9023, 202.969 92.9023, 201.075"/>
</g>
<g stroke="black" stroke-width="1" fill="none">
<polygon points=" 99.3323, 195.958 99.3323, 194.063 101.227, 194.063 101.227, 195.958 103.121, 195.958 103.121, 197.852 101.227, 197.852 101.227, 199.747 99.3323, 199.747 99.3323, 197.852 97.4378, 197.852 97.4378, 195.958"/>
</g>
<g stroke="black" stroke-width="1" fill="none">
<polygon points=" 103.868, 191.077 103.868, 189.183 105.762, 189.183 105.762, 191.077 107.657, 191.077 107.657, 192.972 105.762, 192.972 105.762, 194.866 103.868, 194.866 103.868, 192.972 101.973, 192.972 101.973, 191.077"/>
</g>
<g stroke="black" stroke-width="1" fill="none">
<polygon points=" 108.403, 186.467 108.403, 184.573 110.298, 184.573 110.298, 186.467 112.192, 186.467 112.192, 188.362 110.298, 188.362 110.298, 190.256 108.403, 190.256 108.403, 188.362 106.509, 188.362 106.509, 186.467"/>
</g>
<g stroke="black" stroke-width="1" fill="none">
<polygon points=" 112.939, 182.185 112.939, 180.29 114.833, 180.29 114.833, 182.185 116.728, 182.185 116.728, 184.079 114.833, 184.079 114.833, 185.974 112.939, 185.974 112.939, 184.079 111.044, 184.079 111.044, 182.185"/>
</g>
<g stroke="black" stroke-width="1" fill="none">
<polygon points=" 117.474, 178.055 117.474, 176.161 119.369, 176.161 119.369, 178.055 121.263, 178.055 121.263, 179.95 119.369, 179.95 119.369, 181.844 117.474, 181.844 117.474, 179.95 115.58, 179.95 115.58, 178.055"/>
</g>
<g stroke="black" stroke-width="1" fill="none">
<polygon points=" 122.009, 174.165 122.009, 172.271 123.904, 172.271 123.904, 174.165 125.798, 174.165 125.798, 176.06 123.904, 176.06 123.904, 177.954 122.009, 177.954 122.009, 176.06 120.115, 176.06 120.115, 174.165"/>
</g>
<g stroke="black" stroke-width="1" fill="none">
<polygon points=" 126.545, 170.576 126.545, 168.681 128.439, 168.681 128.439, 170.576 130.334, 170.576 130.334, 172.47 128.439, 172.47 128.439, 174.365 126.545, 174.365 126.545, 172.47 124.65, 172.47 124.65, 170.576"/>
</g>
<g stroke="black" stroke-width="1" fill="none">
<polygon points=" 131.08, 167.018 131.08, 165.124 132.975, 165.124 132.975, 167.018 134.869, 167.018 134.869, 168.913 132.975, 168.913 132.975, 170.807 131.08, 170.807 131.08, 168.913 129.186, 168.913 129.186, 167.018"/>
</g>
<g stroke="black" stroke-width="1" fill="none">
<polygon points=" 135.616, 163.782 135.616, 161.887 137.51, 161.887 137.51, 163.782 139.405, 163.782 139.405, 165.676 137.51, 165.676 137.51, 167.571 135.616, 167.571 135.616, 165.676 133.721, 165.676 133.721, 163.782"/>
</g>
<g stroke="black" stroke-width="1" fill="none">
<polygon points=" 140.151, 160.723 140.151, 158.829 142.046, 158.829 142.046, 160.723 143.94, 160.723 143.94, 162.618 142.046, 162.618 142.046, 164.512 140.151, 164.512 140.151, 162.618 138.257, 162.618 138.257, 160.723"/>
</g>
<g stroke="black" stroke-width="1" fill="none">
<polygon points=" 144.687, 157.825 144.687, 155.93 146.581, 155.93 146.581, 157.825 148.476, 157.825 148.476, 159.719 146.581, 159.719 146.581, 161.614 144.687, 161.614 144.687, 159.719 142.792, 159.719 142.792, 157.825"/>
</g>
<g stroke="black" stroke-width="1" fill="none">
<polygon points=" 149.222, 155.313 149.222, 153.418 151.117, 153.418 151.117, 155.313 153.011, 155.313 153.011, 157.207 151.117, 157.207 151.117, 159.102 149.222, 159.102 149.222, 157.207 147.328, 157.207 147.328, 155.313"/>
</g>
<g stroke="black" stroke-width="1" fill="none">
<polygon points=" 153.757, 153.06 153.757, 151.165 155.652, 151.165 155.652, 153.06 157.546, 153.06 157.546, 154.954 155.652, 154.954 155.652, 156.849 153.757, 156.849 153.757, 154.954 151.863, 154.954 151.863, 153.06"/>
</g>
<g stroke="black" stroke-width="1" fill="none">
<polygon points=" 158.293, 151 158.293, 149.105 160.187, 149.105 160.187, 151 162.082, 151 162.082, 152.894 160.187, 152.894 160.187, 154.789 158.293, 154.789 158.293, 152.894 156.398, 152.894 156.398, 151"/>
</g>
<g stroke="black" stroke-width="1" fill="none">
<polygon points=" 162.828, 149.327 162.828, 147.433 164.723, 147.433 164.723, 149.327 166.617, 149.327 166.617, 151.222 164.723, 151.222 164.723, 153.116 162.828, 153.116 162.828, 151.222 160.934, 151.222 160.934, 149.327"/>
</g>
<g stroke="black" stroke-width="1" fill="none">
<polygon points=" 167.364, 147.899 167.364, 146.004 169.258, 146.004 169.258, 147.899 171.153, 147.899 171.153, 149.793 169.258, 149.793 169.258, 151.688 167.364, 151.688 167.364, 149.793 165.469, 149.793 165.469, 147.899"/>
</g>
<g stroke="black" stroke-width="1" fill="none">
<polygon points=" 171.899, 146.799 171.899, 144.905 173.794, 144.905 173.794, 146.799 175.688, 146.799 175.688, 148.694 173.794, 148.694 173.794, 150.588 171.899, 150.588 171.899, 148.694 170.005, 148.694 170.005, 146.799"/>
</g>
<g stroke="black" stroke-width="1" fill="none">
<polygon points=" 176.435, 146.057 176.435, 144.163 178.329, 144.163 178.329, 146.057 180.224, 146.057 180.224, 147.952 178.329, 147.952 178.329, 149.846 176.435, 149.846 176.435, 147.952 174.54, 147.952 174.54, 146.057"/>
</g>
<g stroke="black" stroke-width="1" fill="none">
<polygon points=" 180.97, 145.573 180.97, 143.679 182.865, 143.679 182.865, 145.573 184.759, 145.573 184.759, 147.468 182.865, 147.468 182.865, 149.362 180.97, 149.362 180.97, 147.468 179.076, 147.468 179.076, 145.573"/>
</g>
<g stroke="black" stroke-width="1" fill="none">
<polygon points=" 185.506, 145.511 185.506, 143.617 187.4, 143.617 187.4, 145.511 189.295, 145.511 189.295, 147.406 187.4, 147.406 187.4, 149.3 185.506, 149.3 185.506, 147.406 183.611, 147.406 183.611, 145.511"/>
</g>
<g stroke="black" stroke-width="1" fill="none">
<polygon points=" 190.041, 145.625 190.041, 143.731 191.935, 143.731 191.935, 145.625 193.83, 145.625 193.83, 147.52 191.935, 147.52 191.935, 149.414 190.041, 149.414 190.041, 147.52 188.146, 147.52 188.146, 145.625"/>
</g>
<g stroke="black" stroke-width="1" fill="none">
<polygon points=" 194.576, 146.18 194.576, 144.285 196.471, 144.285 196.471, 146.18 198.365, 146.18 198.365, 148.074 196.471, 148.074 196.471, 149.969 194.576, 149.969 194.576, 148.074 192.682, 148.074 192.682, 146.18"/>
</g>
<g stroke="black" stroke-width="1" fill="none">
<polygon points=" 199.112, 147.011 199.112, 145.116 201.006, 145.116 201.006, 147.011 202.901, 147.011 202.901, 148.905 201.006, 148.905 201.006, 150.8 199.112, 150.8 199.112, 148.905 197.217, 148.905 197.217, 147.011"/>
</g>
<g stroke="black" stroke-width="1" fill="none">
<polygon points=" 203.647, 148.168 203.647, 146.274 205.542, 146.274 205.542, 148.168 207.436, 148.168 207.436, 150.063 205.542, 150.063 205.542, 151.957 203.647, 151.957 203.647, 150.063 201.753, 150.063 201.753, 148.168"/>
</g>
<g stroke="black" stroke-width="1" fill="none">
<polygon points=" 208.183, 149.641 208.183, 147.747 210.077, 147.747 210.077, 149.641 211.972, 149.641 211.972, 151.536 210.077, 151.536 210.077, 153.43 208.183, 153.43 208.183, 151.536 206.288, 151.536 206.288, 149.641"/>
</g>
<g stroke="black" stroke-width="1" fill="none">
<polygon points=" 212.718, 151.437 212.718, 149.543 214.613, 149.543 214.613, 151.437 216.507, 151.437 216.507, 153.332 214.613, 153.332 214.613, 155.226 212.718, 155.226 212.718, 153.332 210.824, 153.332 210.824, 151.437"/>
</g>
<g stroke="black" stroke-width="1" fill="none">
<polygon points=" 217.254, 153.476 217.254, 151.581 219.148, 151.581 219.148, 153.476 221.043, 153.476 221.043, 155.37 219.148, 155.37 219.148, 157.265 217.254, 157.265 217.254, 155.37 215.359, 155.37 215.359, 153.476"/>
</g>
<g stroke="black" stroke-width="1" fill="none">
<polygon points=" 221.789, 155.806 221.789, 153.912 223.683, 153.912 223.683, 155.806 225.578, 155.806 225.578, 157.701 223.683, 157.701 223.683, 159.595 221.789, 159.595 221.789, 157.701 219.894, 157.701 219.894, 155.806"/>
</g>
<g stroke="black" stroke-width="1" fill="none">
<polygon points=" 226.324, 158.479 226.324, 156.585 228.219, 156.585 228.219, 158.479 230.113, 158.479 230.113, 160.374 228.219, 160.374 228.219, 162.268 226.324, 162.268 226.324, 160.374 224.43, 160.374 224.43, 158.479"/>
</g>
<g stroke="black" stroke-width="1" fill="none">
<polygon points=" 230.86, 161.283 230.86, 159.388 232.754, 159.388 232.754, 161.283 234.649, 161.283 234.649, 163.177 232.754, 163.177 232.754, 165.072 230.86, 165.072 230.86, 163.177 228.965, 163.177 228.965, 161.283"/>
</g>
<g stroke="black" stroke-width="1" fill="none">
<polygon points=" 235.395, 164.275 235.395, 162.38 237.29, 162.38 237.29, 164.275 239.184, 164.275 239.184, 166.169 237.29, 166.169 237.29, 168.064 235.395, 168.064 235.395, 166.169 233.501, 166.169 233.501, 164.275"/>
</g>
<g stroke="black" stroke-width="1" fill="none">
<polygon points=" 239.931, 167.437 239.931, 165.543 241.825, 165.543 241.825, 167.437 243.72, 167.437 243.72, 169.332 241.825, 169.332 241.825, 171.226 239.931, 171.226 239.931, 169.332 238.036, 169.332 238.036, 167.437"/>
</g>
<g stroke="black" stroke-width="1" fill="none">
<polygon points=" 244.466, 170.699 244.466, 168.804 246.361, 168.804 246.361, 170.699 248.255, 170.699 248.255, 172.593 246.361, 172.593 246.361, 174.488 244.466, 174.488 244.466, 172.593 242.572, 172.593 242.572, 170.699"/>
</g>
<g stroke="black" stroke-width="1" fill="none">
<polygon points=" 249.002, 174.039 249.002, 172.144 250.896, 172.144 250.896, 174.039 252.791, 174.039 252.791, 175.933 250.896, 175.933 250.896, 177.828 249.002, 177.828 249.002, 175.933 247.107, 175.933 247.107, 174.039"/>
</g>
<g stroke="black" stroke-width="1" fill="none">
<polygon points=" 253.537, 177.362 253.537, 175.467 255.432, 175.467 255.432, 177.362 257.326, 177.362 257.326, 179.256 255.432, 179.256 255.432, 181.151 253.537, 181.151 253.537, 179.256 251.643, 179.256 251.643, 177.362"/>
</g>
<g stroke="black" stroke-width="1" fill="none">
<polygon points=" 258.072, 180.624 258.072, 178.729 259.967, 178.729 259.967, 180.624 261.861, 180.624 261.861, 182.518 259.967, 182.518 259.967, 184.413 258.072, 184.413 258.072, 182.518 256.178, 182.518 256.178, 180.624"/>
</g>
<g stroke="black" stroke-width="1" fill="none">
<polygon points=" 262.608, 183.732 262.608, 181.838 264.502, 181.838 264.502, 183.732 266.397, 183.732 266.397, 185.627 264.502, 185.627 264.502, 187.521 262.608, 187.521 262.608, 185.627 260.713, 185.627 260.713, 183.732"/>
</g>
<g stroke="black" stroke-width="1" fill="none">
<polygon points=" 267.143, 186.692 267.143, 184.797 269.038, 184.797 269.038, 186.692 270.932, 186.692 270.932, 188.586 269.038, 188.586 269.038, 190.481 267.143, 190.481 267.143, 188.586 265.249, 188.586 265.249, 186.692"/>
</g>
<g stroke="black" stroke-width="1" fill="none">
<polygon points=" 271.679, 189.45 271.679, 187.555 273.573, 187.555 273.573, 189.45 275.468, 189.45 275.468, 191.344 273.573, 191.344 273.573, 193.239 271.679, 193.239 271.679, 191.344 269.784, 191.344 269.784, 189.45"/>
</g>
<g stroke="black" stroke-width="1" fill="none">
<polygon points=" 276.214, 191.913 276.214, 190.019 278.109, 190.019 278.109, 191.913 280.003, 191.913 280.003, 193.808 278.109, 193.808 278.109, 195.702 276.214, 195.702 276.214, 193.808 274.32, 193.808 274.32, 191.913"/>
</g>
<g stroke="black" stroke-width="1" fill="none">
<polygon points=" 280.75, 194.112 280.75, 192.217 282.644, 192.217 282.644, 194.112 284.539, 194.112 284.539, 196.006 282.644, 196.006 282.644, 197.901 280.75, 197.901 280.75, 196.006 278.855, 196.006 278.855, 194.112"/>
</g>
<g stroke="black" stroke-width="1" fill="none">
<polygon points=" 285.285, 196.059 285.285, 194.165 287.18, 194.165 287.18, 196.059 289.074, 196.059 289.074, 197.954 287.18, 197.954 287.18, 199.848 285.285, 199.848 285.285, 197.954 283.391, 197.954 283.391, 196.059"/>
</g>
<g stroke="black" stroke-width="1" fill="none">
<polygon points=" 289.82, 197.686 289.82, 195.792 291.715, 195.792 291.715, 197.686 293.609, 197.686 293.609, 199.581 291.715, 199.581 291.715, 201.475 289.82, 201.475 289.82, 199.581 287.926, 199.581 287.926, 197.686"/>
</g>
<g stroke="black" stroke-width="1" fill="none">
<polygon points=" 294.356, 199.103 294.356, 197.208 296.25, 197.208 296.25, 199.103 298.145, 199.103 298.145, 200.997 296.25, 200.997 296.25, 202.892 294.356, 202.892 294.356, 200.997 292.461, 200.997 292.461, 199.103"/>
</g>
<g stroke="black" stroke-width="1" fill="none">
<polygon points=" 298.891, 200.313 298.891, 198.418 300.786, 198.418 300.786, 200.313 302.68, 200.313 302.68, 202.207 300.786, 202.207 300.786, 204.102 298.891, 204.102 298.891, 202.207 296.997, 202.207 296.997, 200.313"/>
</g>
<g stroke="black" stroke-width="1" fill="none">
<polygon points=" 303.427, 201.341 303.427, 199.447 305.321, 199.447 305.321, 201.341 307.216, 201.341 307.216, 203.236 305.321, 203.236 305.321, 205.13 303.427, 205.13 303.427, 203.236 301.532, 203.236 301.532, 201.341"/>
</g>
<g stroke="black" stroke-width="1" fill="none">
<polygon points=" 307.962, 202.341 307.962, 200.446 309.857, 200.446 309.857, 202.341 311.751, 202.341 311.751, 204.235 309.857, 204.235 309.857, 206.13 307.962, 206.13 307.962, 204.235 306.068, 204.235 306.068, 202.341"/>
</g>
<g stroke="black" stroke-width="1" fill="none">
<polygon points=" 312.498, 203.336 312.498, 201.441 314.392, 201.441 314.392, 203.336 316.287, 203.336 316.287, 205.23 314.392, 205.23 314.392, 207.125 312.498, 207.125 312.498, 205.23 310.603, 205.23 310.603, 203.336"/>
</g>
<g stroke="black" stroke-width="1" fill="none">
<polygon points=" 317.033, 204.279 317.033, 202.385 318.928, 202.385 318.928, 204.279 320.822, 204.279 320.822, 206.174 318.928, 206.174 318.928, 208.068 317.033, 208.068 317.033, 206.174 315.139, 206.174 315.139, 204.279"/>
</g>
<g stroke="black" stroke-width="1" fill="none">
<polygon points=" 321.569, 205.351 321.569, 203.457 323.463, 203.457 323.463, 205.351 325.357, 205.351 325.357, 207.246 323.463, 207.246 323.463, 209.14 321.569, 209.14 321.569, 207.246 319.674, 207.246 319.674, 205.351"/>
</g>
<g stroke="black" stroke-width="1" fill="none">
<polygon points=" 326.104, 206.566 326.104, 204.672 327.998, 204.672 327.998, 206.566 329.893, 206.566 329.893, 208.461 327.998, 208.461 327.998, 210.355 326.104, 210.355 326.104, 208.461 324.209, 208.461 324.209, 206.566"/>
</g>
<g stroke="black" stroke-width="1" fill="none">
<polygon points=" 330.639, 207.877 330.639, 205.983 332.534, 205.983 332.534, 207.877 334.428, 207.877 334.428, 209.772 332.534, 209.772 332.534, 211.666 330.639, 211.666 330.639, 209.772 328.745, 209.772 328.745, 207.877"/>
</g>
<g stroke="black" stroke-width="1" fill="none">
<polygon points=" 335.175, 209.444 335.175, 207.549 337.069, 207.549 337.069, 209.444 338.964, 209.444 338.964, 211.338 337.069, 211.338 337.069, 213.233 335.175, 213.233 335.175, 211.338 333.28, 211.338 333.28, 209.444"/>
</g>
<g stroke="black" stroke-width="1" fill="none">
<polygon points=" 339.71, 211.162 339.71, 209.268 341.605, 209.268 341.605, 211.162 343.499, 211.162 343.499, 213.057 341.605, 213.057 341.605, 214.951 339.71, 214.951 339.71, 213.057 337.816, 213.057 337.816, 211.162"/>
</g>
<g stroke="black" stroke-width="1" fill="none">
<polygon points=" 344.246, 213.173 344.246, 211.279 346.14, 211.279 346.14, 213.173 348.035, 213.173 348.035, 215.068 346.14, 215.068 346.14, 216.962 344.246, 216.962 344.246, 215.068 342.351, 215.068 342.351, 213.173"/>
</g>
<g stroke="black" stroke-width="1" fill="none">
<polygon points=" 348.781, 215.323 348.781, 213.428 350.676, 213.428 350.676, 215.323 352.57, 215.323 352.57, 217.217 350.676, 217.217 350.676, 219.112 348.781, 219.112 348.781, 217.217 346.887, 217.217 346.887, 215.323"/>
</g>
<g stroke="black" stroke-width="1" fill="none">
<polygon points=" 353.317, 217.763 353.317, 215.869 355.211, 215.869 355.211, 217.763 357.106, 217.763 357.106, 219.658 355.211, 219.658 355.211, 221.552 353.317, 221.552 353.317, 219.658 351.422, 219.658 351.422, 217.763"/>
</g>
<g stroke="black" stroke-width="1" fill="none">
<polygon points=" 357.852, 220.472 357.852, 218.578 359.746, 218.578 359.746, 220.472 361.641, 220.472 361.641, 222.367 359.746, 222.367 359.746, 224.261 357.852, 224.261 357.852, 222.367 355.957, 222.367 355.957, 220.472"/>
</g>
<g stroke="black" stroke-width="1" fill="none">
<polygon points=" 362.387, 223.365 362.387, 221.471 364.282, 221.471 364.282, 223.365 366.176, 223.365 366.176, 225.26 364.282, 225.26 364.282, 227.154 362.387, 227.154 362.387, 225.26 360.493, 225.26 360.493, 223.365"/>
</g>
<g stroke="black" stroke-width="1" fill="none">
<polygon points=" 366.923, 226.532 366.923, 224.638 368.817, 224.638 368.817, 226.532 370.712, 226.532 370.712, 228.427 368.817, 228.427 368.817, 230.321 366.923, 230.321 366.923, 228.427 365.028, 228.427 365.028, 226.532"/>
</g>
<g stroke="black" stroke-width="1" fill="none">
<polygon points=" 371.458, 229.911 371.458, 228.016 373.353, 228.016 373.353, 229.911 375.247, 229.911 375.247, 231.805 373.353, 231.805 373.353, 233.7 371.458, 233.7 371.458, 231.805 369.564, 231.805 369.564, 229.911"/>
</g>
<g stroke="black" stroke-width="1" fill="none">
<polygon points=" 375.994, 233.386 375.994, 231.491 377.888, 231.491 377.888, 233.386 379.783, 233.386 379.783, 235.28 377.888, 235.28 377.888, 237.175 375.994, 237.175 375.994, 235.28 374.099, 235.28 374.099, 233.386"/>
</g>
<g stroke="black" stroke-width="1" fill="none">
<polygon points=" 380.529, 237.135 380.529, 235.24 382.424, 235.24 382.424, 237.135 384.318, 237.135 384.318, 239.029 382.424, 239.029 382.424, 240.924 380.529, 240.924 380.529, 239.029 378.635, 239.029 378.635, 237.135"/>
</g>
<g stroke="black" stroke-width="1" fill="none">
<polygon points=" 385.065, 241.064 385.065, 239.169 386.959, 239.169 386.959, 241.064 388.854, 241.064 388.854, 242.958 386.959, 242.958 386.959, 244.853 385.065, 244.853 385.065, 242.958 383.17, 242.958 383.17, 241.064"/>
</g>
<g stroke="black" stroke-width="1" fill="none">
<polygon points=" 389.6, 245.159 389.6, 243.264 391.495, 243.264 391.495, 245.159 393.389, 245.159 393.389, 247.053 391.495, 247.053 391.495, 248.948 389.6, 248.948 389.6, 247.053 387.706, 247.053 387.706, 245.159"/>
</g>
<g stroke="black" stroke-width="1" fill="none">
<polygon points=" 394.135, 249.311 394.135, 247.417 396.03, 247.417 396.03, 249.311 397.924, 249.311 397.924, 251.206 396.03, 251.206 396.03, 253.1 394.135, 253.1 394.135, 251.206 392.241, 251.206 392.241, 249.311"/>
</g>
<g stroke="black" stroke-width="1" fill="none">
<polygon points=" 398.671, 253.654 398.671, 251.76 400.565, 251.76 400.565, 253.654 402.46, 253.654 402.46, 255.549 400.565, 255.549 400.565, 257.443 398.671, 257.443 398.671, 255.549 396.776, 255.549 396.776, 253.654"/>
</g>
<g stroke="black" stroke-width="1" fill="none">
<polygon points=" 403.206, 258.091 403.206, 256.197 405.101, 256.197 405.101, 258.091 406.995, 258.091 406.995, 259.986 405.101, 259.986 405.101, 261.88 403.206, 261.88 403.206, 259.986 401.312, 259.986 401.312, 258.091"/>
</g>
<g stroke="black" stroke-width="1" fill="none">
<polygon points=" 407.742, 262.582 407.742, 260.688 409.636, 260.688 409.636, 262.582 411.531, 262.582 411.531, 264.477 409.636, 264.477 409.636, 266.371 407.742, 266.371 407.742, 264.477 405.847, 264.477 405.847, 262.582"/>
</g>
<g stroke="black" stroke-width="1" fill="none">
<polygon points=" 412.277, 267.151 412.277, 265.256 414.172, 265.256 414.172, 267.151 416.066, 267.151 416.066, 269.045 414.172, 269.045 414.172, 270.94 412.277, 270.94 412.277, 269.045 410.383, 269.045 410.383, 267.151"/>
</g>
<g stroke="black" stroke-width="1" fill="none">
<polygon points=" 416.813, 271.748 416.813, 269.853 418.707, 269.853 418.707, 271.748 420.602, 271.748 420.602, 273.642 418.707, 273.642 418.707, 275.537 416.813, 275.537 416.813, 273.642 414.918, 273.642 414.918, 271.748"/>
</g>
<g stroke="black" stroke-width="1" fill="none">
<polygon points=" 421.348, 276.333 421.348, 274.439 423.243, 274.439 423.243, 276.333 425.137, 276.333 425.137, 278.228 423.243, 278.228 423.243, 280.122 421.348, 280.122 421.348, 278.228 419.454, 278.228 419.454, 276.333"/>
</g>
<g stroke="black" stroke-width="1" fill="none">
<polygon points=" 425.883, 280.909 425.883, 279.015 427.778, 279.015 427.778, 280.909 429.672, 280.909 429.672, 282.804 427.778, 282.804 427.778, 284.698 425.883, 284.698 425.883, 282.804 423.989, 282.804 423.989, 280.909"/>
</g>
<g stroke="black" stroke-width="1" fill="none">
<polygon points=" 430.419, 285.407 430.419, 283.513 432.313, 283.513 432.313, 285.407 434.208, 285.407 434.208, 287.302 432.313, 287.302 432.313, 289.196 430.419, 289.196 430.419, 287.302 428.524, 287.302 428.524, 285.407"/>
</g>
<g stroke="black" stroke-width="1" fill="none">
<polygon points=" 434.954, 289.822 434.954, 287.927 436.849, 287.927 436.849, 289.822 438.743, 289.822 438.743, 291.716 436.849, 291.716 436.849, 293.611 434.954, 293.611 434.954, 291.716 433.06, 291.716 433.06, 289.822"/>
</g>
<g stroke="black" stroke-width="1" fill="none">
<polygon points=" 439.49, 294.165 439.49, 292.27 441.384, 292.27 441.384, 294.165 443.279, 294.165 443.279, 296.059 441.384, 296.059 441.384, 297.954 439.49, 297.954 439.49, 296.059 437.595, 296.059 437.595, 294.165"/>
</g>
<g stroke="black" stroke-width="1" fill="none">
<polygon points=" 444.025, 298.418 444.025, 296.524 445.92, 296.524 445.92, 298.418 447.814, 298.418 447.814, 300.313 445.92, 300.313 445.92, 302.207 444.025, 302.207 444.025, 300.313 442.131, 300.313 442.131, 298.418"/>
</g>
<g stroke="black" stroke-width="1" fill="none">
<polygon points=" 448.561, 302.531 448.561, 300.637 450.455, 300.637 450.455, 302.531 452.35, 302.531 452.35, 304.426 450.455, 304.426 450.455, 306.32 448.561, 306.32 448.561, 304.426 446.666, 304.426 446.666, 302.531"/>
</g>
<g stroke="black" stroke-width="1" fill="none">
<polygon points=" 453.096, 306.526 453.096, 304.632 454.991, 304.632 454.991, 306.526 456.885, 306.526 456.885, 308.421 454.991, 308.421 454.991, 310.315 453.096, 310.315 453.096, 308.421 451.202, 308.421 451.202, 306.526"/>
</g>
<g stroke="black" stroke-width="1" fill="none">
<polygon points=" 457.632, 310.404 457.632, 308.51 459.526, 308.51 459.526, 310.404 461.421, 310.404 461.421, 312.299 459.526, 312.299 459.526, 314.193 457.632, 314.193 457.632, 312.299 455.737, 312.299 455.737, 310.404"/>
</g>
<g stroke="black" stroke-width="1" fill="none">
<polygon points=" 462.167, 314.116 462.167, 312.222 464.061, 312.222 464.061, 314.116 465.956, 314.116 465.956, 316.011 464.061, 316.011 464.061, 317.905 462.167, 317.905 462.167, 316.011 460.272, 316.011 460.272, 314.116"/>
</g>
<g stroke="black" stroke-width="1" fill="none">
<polygon points=" 466.702, 317.732 466.702, 315.837 468.597, 315.837 468.597, 317.732 470.491, 317.732 470.491, 319.626 468.597, 319.626 468.597, 321.521 466.702, 321.521 466.702, 319.626 464.808, 319.626 464.808, 317.732"/>
</g>
<g stroke="black" stroke-width="1" fill="none">
<polygon points=" 471.238, 321.234 471.238, 319.339 473.132, 319.339 473.132, 321.234 475.027, 321.234 475.027, 323.128 473.132, 323.128 473.132, 325.023 471.238, 325.023 471.238, 323.128 469.343, 323.128 469.343, 321.234"/>
</g>
<g stroke="black" stroke-width="1" fill="none">
<polygon points=" 475.773, 324.603 475.773, 322.708 477.668, 322.708 477.668, 324.603 479.562, 324.603 479.562, 326.497 477.668, 326.497 477.668, 328.392 475.773, 328.392 475.773, 326.497 473.879, 326.497 473.879, 324.603"/>
</g>
<g stroke="black" stroke-width="1" fill="none">
<polygon points=" 480.309, 327.826 480.309, 325.932 482.203, 325.932 482.203, 327.826 484.098, 327.826 484.098, 329.721 482.203, 329.721 482.203, 331.615 480.309, 331.615 480.309, 329.721 478.414, 329.721 478.414, 327.826"/>
</g>
<g stroke="black" stroke-width="1" fill="none">
<polygon points=" 484.844, 330.922 484.844, 329.028 486.739, 329.028 486.739, 330.922 488.633, 330.922 488.633, 332.817 486.739, 332.817 486.739, 334.711 484.844, 334.711 484.844, 332.817 482.95, 332.817 482.95, 330.922"/>
</g>
<g stroke="black" stroke-width="1" fill="none">
<polygon points=" 489.38, 333.833 489.38, 331.939 491.274, 331.939 491.274, 333.833 493.169, 333.833 493.169, 335.728 491.274, 335.728 491.274, 337.622 489.38, 337.622 489.38, 335.728 487.485, 335.728 487.485, 333.833"/>
</g>
<g stroke="black" stroke-width="1" fill="none">
<polygon points=" 493.915, 336.602 493.915, 334.708 495.809, 334.708 495.809, 336.602 497.704, 336.602 497.704, 338.497 495.809, 338.497 495.809, 340.391 493.915, 340.391 493.915, 338.497 492.02, 338.497 492.02, 336.602"/>
</g>
<g stroke="black" stroke-width="1" fill="none">
<polygon points=" 498.45, 339.163 498.45, 337.268 500.345, 337.268 500.345, 339.163 502.239, 339.163 502.239, 341.057 500.345, 341.057 500.345, 342.952 498.45, 342.952 498.45, 341.057 496.556, 341.057 496.556, 339.163"/>
</g>
<g stroke="black" stroke-width="1" fill="none">
<polygon points=" 502.986, 341.545 502.986, 339.65 504.88, 339.65 504.88, 341.545 506.775, 341.545 506.775, 343.439 504.88, 343.439 504.88, 345.334 502.986, 345.334 502.986, 343.439 501.091, 343.439 501.091, 341.545"/>
</g>
<g stroke="black" stroke-width="1" fill="none">
<polygon points=" 507.521, 343.741 507.521, 341.847 509.416, 341.847 509.416, 343.741 511.31, 343.741 511.31, 345.636 509.416, 345.636 509.416, 347.53 507.521, 347.53 507.521, 345.636 505.627, 345.636 505.627, 343.741"/>
</g>
<g fill="#5954d8">
<polygon points=" 58.5134, 257.546 58.5134, 255.652 60.4079, 255.652 60.4079, 257.546 62.3024, 257.546 62.3024, 259.441 60.4079, 259.441 60.4079, 261.335 58.5134, 261.335 58.5134, 259.441 56.6189, 259.441 56.6189, 257.546"/>
</g>
<g fill="#5954d8">
<polygon points=" 63.0488, 249.276 63.0488, 247.382 64.9433, 247.382 64.9433, 249.276 66.8378, 249.276 66.8378, 251.171 64.9433, 251.171 64.9433, 253.065 63.0488, 253.065 63.0488, 251.171 61.1543, 251.171 61.1543, 249.276"/>
</g>
<g fill="#5954d8">
<polygon points=" 67.5843, 241.204 67.5843, 239.309 69.4788, 239.309 69.4788, 241.204 71.3733, 241.204 71.3733, 243.098 69.4788, 243.098 69.4788, 244.993 67.5843, 244.993 67.5843, 243.098 65.6898, 243.098 65.6898, 241.204"/>
</g>
<g fill="#5954d8">
<polygon points=" 72.1197, 233.583 72.1197, 231.688 74.0142, 231.688 74.0142, 233.583 75.9087, 233.583 75.9087, 235.477 74.0142, 235.477 74.0142, 237.372 72.1197, 237.372 72.1197, 235.477 70.2252, 235.477 70.2252, 233.583"/>
</g>
<g fill="#5954d8">
<polygon points=" 76.6551, 226.561 76.6551, 224.666 78.5496, 224.666 78.5496, 226.561 80.4441, 226.561 80.4441, 228.455 78.5496, 228.455 78.5496, 230.35 76.6551, 230.35 76.6551, 228.455 74.7606, 228.455 74.7606, 226.561"/>
</g>
<g fill="#5954d8">
<polygon points=" 81.1906, 220.127 81.1906, 218.233 83.085, 218.233 83.085, 220.127 84.9795, 220.127 84.9795, 222.022 83.085, 222.022 83.085, 223.916 81.1906, 223.916 81.1906, 222.022 79.2961, 222.022 79.2961, 220.127"/>
</g>
<g fill="#5954d8">
<polygon points=" 85.726, 214.332 85.726, 212.438 87.6205, 212.438 87.6205, 214.332 89.515, 214.332 89.515, 216.227 87.6205, 216.227 87.6205, 218.121 85.726, 218.121 85.726, 216.227 83.8315, 216.227 83.8315, 214.332"/>
</g>
<g fill="#5954d8">
<polygon points=" 90.2614, 208.918 90.2614, 207.024 92.1559, 207.024 92.1559, 208.918 94.0504, 208.918 94.0504, 210.813 92.1559, 210.813 92.1559, 212.707 90.2614, 212.707 90.2614, 210.813 88.3669, 210.813 88.3669, 208.918"/>
</g>
<g fill="#5954d8">
<polygon points=" 94.7968, 203.772 94.7968, 201.878 96.6913, 201.878 96.6913, 203.772 98.5858, 203.772 98.5858, 205.667 96.6913, 205.667 96.6913, 207.561 94.7968, 207.561 94.7968, 205.667 92.9023, 205.667 92.9023, 203.772"/>
</g>
<g fill="#5954d8">
<polygon points=" 99.3323, 198.889 99.3323, 196.995 101.227, 196.995 101.227, 198.889 103.121, 198.889 103.121, 200.784 101.227, 200.784 101.227, 202.678 99.3323, 202.678 99.3323, 200.784 97.4378, 200.784 97.4378, 198.889"/>
</g>
<g fill="#5954d8">
<polygon points=" 103.868, 194.34 103.868, 192.445 105.762, 192.445 105.762, 194.34 107.657, 194.34 107.657, 196.234 105.762, 196.234 105.762, 198.129 103.868, 198.129 103.868, 196.234 101.973, 196.234 101.973, 194.34"/>
</g>
<g fill="#5954d8">
<polygon points=" 108.403, 201.822 108.403, 199.927 110.298, 199.927 110.298, 201.822 112.192, 201.822 112.192, 203.716 110.298, 203.716 110.298, 205.611 108.403, 205.611 108.403, 203.716 106.509, 203.716 106.509, 201.822"/>
</g>
<g fill="#5954d8">
<polygon points=" 112.939, 198.182 112.939, 196.287 114.833, 196.287 114.833, 198.182 116.728, 198.182 116.728, 200.076 114.833, 200.076 114.833, 201.971 112.939, 201.971 112.939, 200.076 111.044, 200.076 111.044, 198.182"/>
</g>
<g fill="#5954d8">
<polygon points=" 117.474, 194.524 117.474, 192.629 119.369, 192.629 119.369, 194.524 121.263, 194.524 121.263, 196.418 119.369, 196.418 119.369, 198.313 117.474, 198.313 117.474, 196.418 115.58, 196.418 115.58, 194.524"/>
</g>
<g fill="#5954d8">
<polygon points=" 122.009, 191.112 122.009, 189.218 123.904, 189.218 123.904, 191.112 125.798, 191.112 125.798, 193.007 123.904, 193.007 123.904, 194.901 122.009, 194.901 122.009, 193.007 120.115, 193.007 120.115, 191.112"/>
</g>
<g fill="#5954d8">
<polygon points=" 126.545, 188.056 126.545, 186.162 128.439, 186.162 128.439, 188.056 130.334, 188.056 130.334, 189.951 128.439, 189.951 128.439, 191.845 126.545, 191.845 126.545, 189.951 124.65, 189.951 124.65, 188.056"/>
</g>
<g fill="#5954d8">
<polygon points=" 131.08, 184.957 131.08, 183.063 132.975, 183.063 132.975, 184.957 134.869, 184.957 134.869, 186.852 132.975, 186.852 132.975, 188.746 131.08, 188.746 131.08, 186.852 129.186, 186.852 129.186, 184.957"/>
</g>
<g fill="#5954d8">
<polygon points=" 135.616, 182.014 135.616, 180.12 137.51, 180.12 137.51, 182.014 139.405, 182.014 139.405, 183.909 137.51, 183.909 137.51, 185.803 135.616, 185.803 135.616, 183.909 133.721, 183.909 133.721, 182.014"/>
</g>
<g fill="#5954d8">
<polygon points=" 140.151, 179.182 140.151, 177.287 142.046, 177.287 142.046, 179.182 143.94, 179.182 143.94, 181.076 142.046, 181.076 142.046, 182.971 140.151, 182.971 140.151, 181.076 138.257, 181.076 138.257, 179.182"/>
</g>
<g fill="#5954d8">
<polygon points=" 144.687, 176.621 144.687, 174.727 146.581, 174.727 146.581, 176.621 148.476, 176.621 148.476, 178.516 146.581, 178.516 146.581, 180.41 144.687, 180.41 144.687, 178.516 142.792, 178.516 142.792, 176.621"/>
</g>
<g fill="#5954d8">
<polygon points=" 149.222, 159.325 149.222, 157.43 151.117, 157.43 151.117, 159.325 153.011, 159.325 153.011, 161.219 151.117, 161.219 151.117, 163.114 149.222, 163.114 149.222, 161.219 147.328, 161.219 147.328, 159.325"/>
</g>
<g fill="#5954d8">
<polygon points=" 153.757, 157.063 153.757, 155.168 155.652, 155.168 155.652, 157.063 157.546, 157.063 157.546, 158.957 155.652, 158.957 155.652, 160.852 153.757, 160.852 153.757, 158.957 151.863, 158.957 151.863, 157.063"/>
</g>
<g fill="#5954d8">
<polygon points=" 158.293, 154.843 158.293, 152.948 160.187, 152.948 160.187, 154.843 162.082, 154.843 162.082, 156.737 160.187, 156.737 160.187, 158.632 158.293, 158.632 158.293, 156.737 156.398, 156.737 156.398, 154.843"/>
</g>
<g fill="#5954d8">
<polygon points=" 162.828, 152.984 162.828, 151.09 164.723, 151.09 164.723, 152.984 166.617, 152.984 166.617, 154.879 164.723, 154.879 164.723, 156.773 162.828, 156.773 162.828, 154.879 160.934, 154.879 160.934, 152.984"/>
</g>
<g fill="#5954d8">
<polygon points=" 167.364, 151.43 167.364, 149.536 169.258, 149.536 169.258, 151.43 171.153, 151.43 171.153, 153.325 169.258, 153.325 169.258, 155.219 167.364, 155.219 167.364, 153.325 165.469, 153.325 165.469, 151.43"/>
</g>
<g fill="#5954d8">
<polygon points=" 171.899, 150.171 171.899, 148.277 173.794, 148.277 173.794, 150.171 175.688, 150.171 175.688, 152.066 173.794, 152.066 173.794, 153.96 171.899, 153.96 171.899, 152.066 170.005, 152.066 170.005, 150.171"/>
</g>
<g fill="#5954d8">
<polygon points=" 176.435, 149.077 176.435, 147.182 178.329, 147.182 178.329, 149.077 180.224, 149.077 180.224, 150.971 178.329, 150.971 178.329, 152.866 176.435, 152.866 176.435, 150.971 174.54, 150.971 174.54, 149.077"/>
</g>
<g fill="#5954d8">
<polygon points=" 180.97, 148.486 180.97, 146.592 182.865, 146.592 182.865, 148.486 184.759, 148.486 184.759, 150.381 182.865, 150.381 182.865, 152.275 180.97, 152.275 180.97, 150.381 179.076, 150.381 179.076, 148.486"/>
</g>
<g fill="#5954d8">
<polygon points=" 185.506, 148.321 185.506, 146.426 187.4, 146.426 187.4, 148.321 189.295, 148.321 189.295, 150.215 187.4, 150.215 187.4, 152.11 185.506, 152.11 185.506, 150.215 183.611, 150.215 183.611, 148.321"/>
</g>
<g fill="#5954d8">
<polygon points=" 190.041, 148.174 190.041, 146.279 191.935, 146.279 191.935, 148.174 193.83, 148.174 193.83, 150.068 191.935, 150.068 191.935, 151.963 190.041, 151.963 190.041, 150.068 188.146, 150.068 188.146, 148.174"/>
</g>
<g fill="#5954d8">
<polygon points=" 194.576, 148.531 194.576, 146.636 196.471, 146.636 196.471, 148.531 198.365, 148.531 198.365, 150.425 196.471, 150.425 196.471, 152.32 194.576, 152.32 194.576, 150.425 192.682, 150.425 192.682, 148.531"/>
</g>
<g fill="#5954d8">
<polygon points=" 199.112, 149.084 199.112, 147.19 201.006, 147.19 201.006, 149.084 202.901, 149.084 202.901, 150.979 201.006, 150.979 201.006, 152.873 199.112, 152.873 199.112, 150.979 197.217, 150.979 197.217, 149.084"/>
</g>
<g fill="#5954d8">
<polygon points=" 203.647, 150.152 203.647, 148.258 205.542, 148.258 205.542, 150.152 207.436, 150.152 207.436, 152.047 205.542, 152.047 205.542, 153.941 203.647, 153.941 203.647, 152.047 201.753, 152.047 201.753, 150.152"/>
</g>
<g fill="#5954d8">
<polygon points=" 208.183, 151.419 208.183, 149.524 210.077, 149.524 210.077, 151.419 211.972, 151.419 211.972, 153.313 210.077, 153.313 210.077, 155.208 208.183, 155.208 208.183, 153.313 206.288, 153.313 206.288, 151.419"/>
</g>
<g fill="#5954d8">
<polygon points=" 212.718, 153.058 212.718, 151.163 214.613, 151.163 214.613, 153.058 216.507, 153.058 216.507, 154.952 214.613, 154.952 214.613, 156.847 212.718, 156.847 212.718, 154.952 210.824, 154.952 210.824, 153.058"/>
</g>
<g fill="#5954d8">
<polygon points=" 217.254, 154.892 217.254, 152.997 219.148, 152.997 219.148, 154.892 221.043, 154.892 221.043, 156.786 219.148, 156.786 219.148, 158.681 217.254, 158.681 217.254, 156.786 215.359, 156.786 215.359, 154.892"/>
</g>
<g fill="#5954d8">
<polygon points=" 221.789, 156.974 221.789, 155.079 223.683, 155.079 223.683, 156.974 225.578, 156.974 225.578, 158.868 223.683, 158.868 223.683, 160.763 221.789, 160.763 221.789, 158.868 219.894, 158.868 219.894, 156.974"/>
</g>
<g fill="#5954d8">
<polygon points=" 226.324, 159.531 226.324, 157.637 228.219, 157.637 228.219, 159.531 230.113, 159.531 230.113, 161.426 228.219, 161.426 228.219, 163.32 226.324, 163.32 226.324, 161.426 224.43, 161.426 224.43, 159.531"/>
</g>
<g fill="#5954d8">
<polygon points=" 230.86, 162.183 230.86, 160.288 232.754, 160.288 232.754, 162.183 234.649, 162.183 234.649, 164.077 232.754, 164.077 232.754, 165.972 230.86, 165.972 230.86, 164.077 228.965, 164.077 228.965, 162.183"/>
</g>
<g fill="#5954d8">
<polygon points=" 235.395, 165.049 235.395, 163.154 237.29, 163.154 237.29, 165.049 239.184, 165.049 239.184, 166.943 237.29, 166.943 237.29, 168.838 235.395, 168.838 235.395, 166.943 233.501, 166.943 233.501, 165.049"/>
</g>
<g fill="#5954d8">
<polygon points=" 239.931, 168.031 239.931, 166.137 241.825, 166.137 241.825, 168.031 243.72, 168.031 243.72, 169.926 241.825, 169.926 241.825, 171.82 239.931, 171.82 239.931, 169.926 238.036, 169.926 238.036, 168.031"/>
</g>
<g fill="#5954d8">
<polygon points=" 244.466, 171.168 244.466, 169.273 246.361, 169.273 246.361, 171.168 248.255, 171.168 248.255, 173.062 246.361, 173.062 246.361, 174.957 244.466, 174.957 244.466, 173.062 242.572, 173.062 242.572, 171.168"/>
</g>
<g fill="#5954d8">
<polygon points=" 249.002, 174.353 249.002, 172.459 250.896, 172.459 250.896, 174.353 252.791, 174.353 252.791, 176.248 250.896, 176.248 250.896, 178.142 249.002, 178.142 249.002, 176.248 247.107, 176.248 247.107, 174.353"/>
</g>
<g fill="#5954d8">
<polygon points=" 253.537, 177.493 253.537, 175.599 255.432, 175.599 255.432, 177.493 257.326, 177.493 257.326, 179.388 255.432, 179.388 255.432, 181.282 253.537, 181.282 253.537, 179.388 251.643, 179.388 251.643, 177.493"/>
</g>
<g fill="#5954d8">
<polygon points=" 258.072, 180.586 258.072, 178.692 259.967, 178.692 259.967, 180.586 261.861, 180.586 261.861, 182.481 259.967, 182.481 259.967, 184.375 258.072, 184.375 258.072, 182.481 256.178, 182.481 256.178, 180.586"/>
</g>
<g fill="#5954d8">
<polygon points=" 262.608, 183.559 262.608, 181.665 264.502, 181.665 264.502, 183.559 266.397, 183.559 266.397, 185.454 264.502, 185.454 264.502, 187.348 262.608, 187.348 262.608, 185.454 260.713, 185.454 260.713, 183.559"/>
</g>
<g fill="#5954d8">
<polygon points=" 267.143, 186.414 267.143, 184.52 269.038, 184.52 269.038, 186.414 270.932, 186.414 270.932, 188.309 269.038, 188.309 269.038, 190.203 267.143, 190.203 267.143, 188.309 265.249, 188.309 265.249, 186.414"/>
</g>
<g fill="#5954d8">
<polygon points=" 271.679, 189.031 271.679, 187.137 273.573, 187.137 273.573, 189.031 275.468, 189.031 275.468, 190.926 273.573, 190.926 273.573, 192.82 271.679, 192.82 271.679, 190.926 269.784, 190.926 269.784, 189.031"/>
</g>
<g fill="#5954d8">
<polygon points=" 276.214, 191.327 276.214, 189.432 278.109, 189.432 278.109, 191.327 280.003, 191.327 280.003, 193.221 278.109, 193.221 278.109, 195.116 276.214, 195.116 276.214, 193.221 274.32, 193.221 274.32, 191.327"/>
</g>
<g fill="#5954d8">
<polygon points=" 280.75, 193.443 280.75, 191.549 282.644, 191.549 282.644, 193.443 284.539, 193.443 284.539, 195.338 282.644, 195.338 282.644, 197.232 280.75, 197.232 280.75, 195.338 278.855, 195.338 278.855, 193.443"/>
</g>
<g fill="#5954d8">
<polygon points=" 285.285, 195.144 285.285, 193.249 287.18, 193.249 287.18, 195.144 289.074, 195.144 289.074, 197.038 287.18, 197.038 287.18, 198.933 285.285, 198.933 285.285, 197.038 283.391, 197.038 283.391, 195.144"/>
</g>
<g fill="#5954d8">
<polygon points=" 289.82, 196.736 289.82, 194.842 291.715, 194.842 291.715, 196.736 293.609, 196.736 293.609, 198.631 291.715, 198.631 291.715, 200.525 289.82, 200.525 289.82, 198.631 287.926, 198.631 287.926, 196.736"/>
</g>
<g fill="#5954d8">
<polygon points=" 294.356, 197.968 294.356, 196.074 296.25, 196.074 296.25, 197.968 298.145, 197.968 298.145, 199.863 296.25, 199.863 296.25, 201.757 294.356, 201.757 294.356, 199.863 292.461, 199.863 292.461, 197.968"/>
</g>
<g fill="#5954d8">
<polygon points=" 298.891, 199.075 298.891, 197.181 300.786, 197.181 300.786, 199.075 302.68, 199.075 302.68, 200.97 300.786, 200.97 300.786, 202.864 298.891, 202.864 298.891, 200.97 296.997, 200.97 296.997, 199.075"/>
</g>
<g fill="#5954d8">
<polygon points=" 303.427, 199.959 303.427, 198.065 305.321, 198.065 305.321, 199.959 307.216, 199.959 307.216, 201.854 305.321, 201.854 305.321, 203.748 303.427, 203.748 303.427, 201.854 301.532, 201.854 301.532, 199.959"/>
</g>
<g fill="#5954d8">
<polygon points=" 307.962, 200.859 307.962, 198.964 309.857, 198.964 309.857, 200.859 311.751, 200.859 311.751, 202.753 309.857, 202.753 309.857, 204.648 307.962, 204.648 307.962, 202.753 306.068, 202.753 306.068, 200.859"/>
</g>
<g fill="#5954d8">
<polygon points=" 312.498, 201.646 312.498, 199.751 314.392, 199.751 314.392, 201.646 316.287, 201.646 316.287, 203.54 314.392, 203.54 314.392, 205.435 312.498, 205.435 312.498, 203.54 310.603, 203.54 310.603, 201.646"/>
</g>
<g fill="#5954d8">
<polygon points=" 317.033, 202.515 317.033, 200.62 318.928, 200.62 318.928, 202.515 320.822, 202.515 320.822, 204.409 318.928, 204.409 318.928, 206.304 317.033, 206.304 317.033, 204.409 315.139, 204.409 315.139, 202.515"/>
</g>
<g fill="#5954d8">
<polygon points=" 321.569, 203.475 321.569, 201.58 323.463, 201.58 323.463, 203.475 325.357, 203.475 325.357, 205.369 323.463, 205.369 323.463, 207.264 321.569, 207.264 321.569, 205.369 319.674, 205.369 319.674, 203.475"/>
</g>
<g fill="#5954d8">
<polygon points=" 326.104, 204.472 326.104, 202.578 327.998, 202.578 327.998, 204.472 329.893, 204.472 329.893, 206.367 327.998, 206.367 327.998, 208.261 326.104, 208.261 326.104, 206.367 324.209, 206.367 324.209, 204.472"/>
</g>
<g fill="#5954d8">
<polygon points=" 330.639, 205.569 330.639, 203.674 332.534, 203.674 332.534, 205.569 334.428, 205.569 334.428, 207.463 332.534, 207.463 332.534, 209.358 330.639, 209.358 330.639, 207.463 328.745, 207.463 328.745, 205.569"/>
</g>
<g fill="#5954d8">
<polygon points=" 335.175, 207.113 335.175, 205.219 337.069, 205.219 337.069, 207.113 338.964, 207.113 338.964, 209.008 337.069, 209.008 337.069, 210.902 335.175, 210.902 335.175, 209.008 333.28, 209.008 333.28, 207.113"/>
</g>
<g fill="#5954d8">
<polygon points=" 339.71, 208.706 339.71, 206.811 341.605, 206.811 341.605, 208.706 343.499, 208.706 343.499, 210.6 341.605, 210.6 341.605, 212.495 339.71, 212.495 339.71, 210.6 337.816, 210.6 337.816, 208.706"/>
</g>
<g fill="#5954d8">
<polygon points=" 344.246, 210.48 344.246, 208.586 346.14, 208.586 346.14, 210.48 348.035, 210.48 348.035, 212.375 346.14, 212.375 346.14, 214.269 344.246, 214.269 344.246, 212.375 342.351, 212.375 342.351, 210.48"/>
</g>
<g fill="#5954d8">
<polygon points=" 348.781, 212.636 348.781, 210.741 350.676, 210.741 350.676, 212.636 352.57, 212.636 352.57, 214.53 350.676, 214.53 350.676, 216.425 348.781, 216.425 348.781, 214.53 346.887, 214.53 346.887, 212.636"/>
</g>
<g fill="#5954d8">
<polygon points=" 353.317, 214.857 353.317, 212.962 355.211, 212.962 355.211, 214.857 357.106, 214.857 357.106, 216.751 355.211, 216.751 355.211, 218.646 353.317, 218.646 353.317, 216.751 351.422, 216.751 351.422, 214.857"/>
</g>
<g fill="#5954d8">
<polygon points=" 357.852, 217.516 357.852, 215.621 359.746, 215.621 359.746, 217.516 361.641, 217.516 361.641, 219.41 359.746, 219.41 359.746, 221.305 357.852, 221.305 357.852, 219.41 355.957, 219.41 355.957, 217.516"/>
</g>
<g fill="#5954d8">
<polygon points=" 362.387, 220.361 362.387, 218.467 364.282, 218.467 364.282, 220.361 366.176, 220.361 366.176, 222.256 364.282, 222.256 364.282, 224.15 362.387, 224.15 362.387, 222.256 360.493, 222.256 360.493, 220.361"/>
</g>
<g fill="#5954d8">
<polygon points=" 366.923, 223.472 366.923, 221.578 368.817, 221.578 368.817, 223.472 370.712, 223.472 370.712, 225.367 368.817, 225.367 368.817, 227.261 366.923, 227.261 366.923, 225.367 365.028, 225.367 365.028, 223.472"/>
</g>
<g fill="#5954d8">
<polygon points=" 371.458, 226.778 371.458, 224.883 373.353, 224.883 373.353, 226.778 375.247, 226.778 375.247, 228.672 373.353, 228.672 373.353, 230.567 371.458, 230.567 371.458, 228.672 369.564, 228.672 369.564, 226.778"/>
</g>
<g fill="#5954d8">
<polygon points=" 375.994, 230.226 375.994, 228.332 377.888, 228.332 377.888, 230.226 379.783, 230.226 379.783, 232.121 377.888, 232.121 377.888, 234.015 375.994, 234.015 375.994, 232.121 374.099, 232.121 374.099, 230.226"/>
</g>
<g fill="#5954d8">
<polygon points=" 380.529, 233.905 380.529, 232.011 382.424, 232.011 382.424, 233.905 384.318, 233.905 384.318, 235.8 382.424, 235.8 382.424, 237.694 380.529, 237.694 380.529, 235.8 378.635, 235.8 378.635, 233.905"/>
</g>
<g fill="#5954d8">
<polygon points=" 385.065, 237.822 385.065, 235.927 386.959, 235.927 386.959, 237.822 388.854, 237.822 388.854, 239.716 386.959, 239.716 386.959, 241.611 385.065, 241.611 385.065, 239.716 383.17, 239.716 383.17, 237.822"/>
</g>
<g fill="#5954d8">
<polygon points=" 389.6, 242.015 389.6, 240.12 391.495, 240.12 391.495, 242.015 393.389, 242.015 393.389, 243.909 391.495, 243.909 391.495, 245.804 389.6, 245.804 389.6, 243.909 387.706, 243.909 387.706, 242.015"/>
</g>
<g fill="#5954d8">
<polygon points=" 394.135, 246.218 394.135, 244.323 396.03, 244.323 396.03, 246.218 397.924, 246.218 397.924, 248.112 396.03, 248.112 396.03, 250.007 394.135, 250.007 394.135, 248.112 392.241, 248.112 392.241, 246.218"/>
</g>
<g fill="#5954d8">
<polygon points=" 398.671, 250.572 398.671, 248.677 400.565, 248.677 400.565, 250.572 402.46, 250.572 402.46, 252.466 400.565, 252.466 400.565, 254.361 398.671, 254.361 398.671, 252.466 396.776, 252.466 396.776, 250.572"/>
</g>
<g fill="#5954d8">
<polygon points=" 403.206, 255.038 403.206, 253.143 405.101, 253.143 405.101, 255.038 406.995, 255.038 406.995, 256.932 405.101, 256.932 405.101, 258.827 403.206, 258.827 403.206, 256.932 401.312, 256.932 401.312, 255.038"/>
</g>
<g fill="#5954d8">
<polygon points=" 407.742, 259.582 407.742, 257.687 409.636, 257.687 409.636, 259.582 411.531, 259.582 411.531, 261.476 409.636, 261.476 409.636, 263.371 407.742, 263.371 407.742, 261.476 405.847, 261.476 405.847, 259.582"/>
</g>
<g fill="#5954d8">
<polygon points=" 412.277, 264.307 412.277, 262.412 414.172, 262.412 414.172, 264.307 416.066, 264.307 416.066, 266.201 414.172, 266.201 414.172, 268.096 412.277, 268.096 412.277, 266.201 410.383, 266.201 410.383, 264.307"/>
</g>
<g fill="#5954d8">
<polygon points=" 416.813, 268.952 416.813, 267.058 418.707, 267.058 418.707, 268.952 420.602, 268.952 420.602, 270.847 418.707, 270.847 418.707, 272.741 416.813, 272.741 416.813, 270.847 414.918, 270.847 414.918, 268.952"/>
</g>
<g fill="#5954d8">
<polygon points=" 421.348, 273.738 421.348, 271.843 423.243, 271.843 423.243, 273.738 425.137, 273.738 425.137, 275.632 423.243, 275.632 423.243, 277.527 421.348, 277.527 421.348, 275.632 419.454, 275.632 419.454, 273.738"/>
</g>
<g fill="#5954d8">
<polygon points=" 425.883, 278.45 425.883, 276.556 427.778, 276.556 427.778, 278.45 429.672, 278.45 429.672, 280.345 427.778, 280.345 427.778, 282.239 425.883, 282.239 425.883, 280.345 423.989, 280.345 423.989, 278.45"/>
</g>
<g fill="#5954d8">
<polygon points=" 430.419, 283.085 430.419, 281.191 432.313, 281.191 432.313, 283.085 434.208, 283.085 434.208, 284.98 432.313, 284.98 432.313, 286.874 430.419, 286.874 430.419, 284.98 428.524, 284.98 428.524, 283.085"/>
</g>
<g fill="#5954d8">
<polygon points=" 434.954, 287.585 434.954, 285.691 436.849, 285.691 436.849, 287.585 438.743, 287.585 438.743, 289.48 436.849, 289.48 436.849, 291.374 434.954, 291.374 434.954, 289.48 433.06, 289.48 433.06, 287.585"/>
</g>
<g fill="#5954d8">
<polygon points=" 439.49, 292.073 439.49, 290.179 441.384, 290.179 441.384, 292.073 443.279, 292.073 443.279, 293.968 441.384, 293.968 441.384, 295.862 439.49, 295.862 439.49, 293.968 437.595, 293.968 437.595, 292.073"/>
</g>
<g fill="#5954d8">
<polygon points=" 444.025, 296.511 444.025, 294.616 445.92, 294.616 445.92, 296.511 447.814, 296.511 447.814, 298.405 445.92, 298.405 445.92, 300.3 444.025, 300.3 444.025, 298.405 442.131, 298.405 442.131, 296.511"/>
</g>
<g fill="#5954d8">
<polygon points=" 448.561, 300.814 448.561, 298.919 450.455, 298.919 450.455, 300.814 452.35, 300.814 452.35, 302.708 450.455, 302.708 450.455, 304.603 448.561, 304.603 448.561, 302.708 446.666, 302.708 446.666, 300.814"/>
</g>
<g fill="#5954d8">
<polygon points=" 453.096, 304.961 453.096, 303.067 454.991, 303.067 454.991, 304.961 456.885, 304.961 456.885, 306.856 454.991, 306.856 454.991, 308.75 453.096, 308.75 453.096, 306.856 451.202, 306.856 451.202, 304.961"/>
</g>
<g fill="#5954d8">
<polygon points=" 457.632, 308.976 457.632, 307.081 459.526, 307.081 459.526, 308.976 461.421, 308.976 461.421, 310.87 459.526, 310.87 459.526, 312.765 457.632, 312.765 457.632, 310.87 455.737, 310.87 455.737, 308.976"/>
</g>
<g fill="#5954d8">
<polygon points=" 462.167, 312.877 462.167, 310.982 464.061, 310.982 464.061, 312.877 465.956, 312.877 465.956, 314.771 464.061, 314.771 464.061, 316.666 462.167, 316.666 462.167, 314.771 460.272, 314.771 460.272, 312.877"/>
</g>
<g fill="#5954d8">
<polygon points=" 466.702, 316.64 466.702, 314.746 468.597, 314.746 468.597, 316.64 470.491, 316.64 470.491, 318.535 468.597, 318.535 468.597, 320.429 466.702, 320.429 466.702, 318.535 464.808, 318.535 464.808, 316.64"/>
</g>
<g fill="#5954d8">
<polygon points=" 471.238, 320.344 471.238, 318.45 473.132, 318.45 473.132, 320.344 475.027, 320.344 475.027, 322.239 473.132, 322.239 473.132, 324.133 471.238, 324.133 471.238, 322.239 469.343, 322.239 469.343, 320.344"/>
</g>
<g fill="#5954d8">
<polygon points=" 475.773, 323.888 475.773, 321.993 477.668, 321.993 477.668, 323.888 479.562, 323.888 479.562, 325.782 477.668, 325.782 477.668, 327.677 475.773, 327.677 475.773, 325.782 473.879, 325.782 473.879, 323.888"/>
</g>
<g fill="#5954d8">
<polygon points=" 480.309, 327.326 480.309, 325.432 482.203, 325.432 482.203, 327.326 484.098, 327.326 484.098, 329.221 482.203, 329.221 482.203, 331.115 480.309, 331.115 480.309, 329.221 478.414, 329.221 478.414, 327.326"/>
</g>
<g fill="#5954d8">
<polygon points=" 484.844, 330.584 484.844, 328.69 486.739, 328.69 486.739, 330.584 488.633, 330.584 488.633, 332.479 486.739, 332.479 486.739, 334.373 484.844, 334.373 484.844, 332.479 482.95, 332.479 482.95, 330.584"/>
</g>
<g fill="#5954d8">
<polygon points=" 489.38, 333.684 489.38, 331.789 491.274, 331.789 491.274, 333.684 493.169, 333.684 493.169, 335.578 491.274, 335.578 491.274, 337.473 489.38, 337.473 489.38, 335.578 487.485, 335.578 487.485, 333.684"/>
</g>
<g fill="#5954d8">
<polygon points=" 493.915, 336.618 493.915, 334.723 495.809, 334.723 495.809, 336.618 497.704, 336.618 497.704, 338.512 495.809, 338.512 495.809, 340.407 493.915, 340.407 493.915, 338.512 492.02, 338.512 492.02, 336.618"/>
</g>
<g fill="#5954d8">
<polygon points=" 498.45, 339.307 498.45, 337.413 500.345, 337.413 500.345, 339.307 502.239, 339.307 502.239, 341.202 500.345, 341.202 500.345, 343.096 498.45, 343.096 498.45, 341.202 496.556, 341.202 496.556, 339.307"/>
</g>
<g fill="#5954d8">
<polygon points=" 502.986, 341.821 502.986, 339.927 504.88, 339.927 504.88, 341.821 506.775, 341.821 506.775, 343.716 504.88, 343.716 504.88, 345.61 502.986, 345.61 502.986, 343.716 501.091, 343.716 501.091, 341.821"/>
</g>
<g fill="#5954d8">
<polygon points=" 507.521, 344.105 507.521, 342.211 509.416, 342.211 509.416, 344.105 511.31, 344.105 511.31, 346 509.416, 346 509.416, 347.894 507.521, 347.894 507.521, 346 505.627, 346 505.627, 344.105"/>
</g>
<path d="M107.083,359.481v -271.245" fill="none" stroke="#ff0000" stroke-dasharray=" 20, 5"/>
<path d="M147.902,359.481v -271.245" fill="none" stroke="#ff0000" stroke-dasharray=" 20, 5"/>
<path d="M238.61,359.481v -230.558" fill="none" stroke="#ff0000" stroke-dasharray=" 20, 5"/>
<path d="M329.319,359.481v -230.558" fill="none" stroke="#ff0000" stroke-dasharray=" 20, 5"/>
<text xml:space="preserve" x="317.355" y="55.4141" fill="black" font-size="11.7432" font-family="Helvetica">PYTHIA8, Angantyr option3</text>
<text xml:space="preserve" x="317.355" y="76.0168" fill="black" font-size="11.7432" font-family="Helvetica">p+Au 200 GeV</text>
<text xml:space="preserve" x="357.14" y="91.6464" fill="black" font-size="7.99544" font-family="Times">&#0177;</text>
<text xml:space="preserve" x="344.352" y="95.9091" fill="black" font-size="11.7432" font-family="Helvetica">, p</text>
<text xml:space="preserve" x="340.089" y="90.2256" fill="black" font-size="7.99544" font-family="Times">&#0177;</text>
<text xml:space="preserve" x="328.012" y="95.9091" fill="black" font-size="11.7432" font-family="Helvetica">, k</text>
<text xml:space="preserve" x="323.749" y="92.3569" fill="black" font-size="7.99544" font-family="Times">&#0177;</text>
<text xml:space="preserve" x="317.355" y="95.9091" fill="black" font-size="11.7432" font-family="Times">&#0960;</text>
<text xml:space="preserve" x="377.742" y="122.906" fill="black" font-size="7.99544" font-family="Helvetica">T</text>
<text xml:space="preserve" x="317.355" y="116.512" fill="black" font-size="11.7432" font-family="Helvetica">integrated p</text>
<text xml:space="preserve" x="368.507" y="137.114" fill="black" font-size="11.7432" font-family="Helvetica">cent: 40~60%</text>
<g fill="#5954d8">
<polygon points=" 339.71, 131.816 339.71, 129.921 341.605, 129.921 341.605, 131.816 343.499, 131.816 343.499, 133.71 341.605, 133.71 341.605, 135.605 339.71, 135.605 339.71, 133.71 337.816, 133.71 337.816, 131.816"/>
</g>
<text xml:space="preserve" x="368.507" y="157.717" fill="black" font-size="11.7432" font-family="Helvetica">MB events(all inelastic)</text>
<g stroke="black" stroke-width="1" fill="none">
<polygon points=" 339.71, 152.241 339.71, 150.346 341.605, 150.346 341.605, 152.241 343.499, 152.241 343.499, 154.135 341.605, 154.135 341.605, 156.03 339.71, 156.03 339.71, 154.135 337.816, 154.135 337.816, 152.241"/>
</g></svg>
