<?xml version="1.0" standalone="no"?>
<svg width="567.429" height="312.341" viewBox="0 0 567.429 312.341" xmlns="http://www.w3.org/2000/svg" shape-rendering="crispEdges">
<title>
/Users/jinhyunpark/npl/gitHub/git_share/Centrality_dependent_BiasCorrection/plots/dNdeta_charge_all2midJetEvent_cent2.svg
</title>
<desc>
Creator: ROOT Version 6.28/04
CreationDate: Sun Oct  1 00:35:36 2023</desc>
<defs>
</defs>
<rect x="0.5" y="0" width="566.929" height="311.841" fill="white"/>
<rect x="85.5394" y="31.1841" width="396.85" height="243.236" fill="white"/>
<rect x="85.5394" y="31.1841" width="396.85" height="243.236" fill="none" stroke="black"/>
<rect x="85.5394" y="31.1841" width="396.85" height="243.236" fill="white"/>
<rect x="85.5394" y="31.1841" width="396.85" height="243.236" fill="none" stroke="black"/>
<path d="M85.5394,274.42h 396.85" fill="none" stroke="black"/>
<path d="M85.5394,267.871v 6.54865" fill="none" stroke="black"/>
<path d="M102.075,271.145v 3.27433" fill="none" stroke="black"/>
<path d="M118.61,271.145v 3.27433" fill="none" stroke="black"/>
<path d="M135.146,271.145v 3.27433" fill="none" stroke="black"/>
<path d="M151.681,267.871v 6.54865" fill="none" stroke="black"/>
<path d="M168.217,271.145v 3.27433" fill="none" stroke="black"/>
<path d="M184.752,271.145v 3.27433" fill="none" stroke="black"/>
<path d="M201.287,271.145v 3.27433" fill="none" stroke="black"/>
<path d="M217.823,267.871v 6.54865" fill="none" stroke="black"/>
<path d="M234.358,271.145v 3.27433" fill="none" stroke="black"/>
<path d="M250.894,271.145v 3.27433" fill="none" stroke="black"/>
<path d="M267.429,271.145v 3.27433" fill="none" stroke="black"/>
<path d="M283.965,267.871v 6.54865" fill="none" stroke="black"/>
<path d="M300.5,271.145v 3.27433" fill="none" stroke="black"/>
<path d="M317.035,271.145v 3.27433" fill="none" stroke="black"/>
<path d="M333.571,271.145v 3.27433" fill="none" stroke="black"/>
<path d="M350.106,267.871v 6.54865" fill="none" stroke="black"/>
<path d="M366.642,271.145v 3.27433" fill="none" stroke="black"/>
<path d="M383.177,271.145v 3.27433" fill="none" stroke="black"/>
<path d="M399.713,271.145v 3.27433" fill="none" stroke="black"/>
<path d="M416.248,267.871v 6.54865" fill="none" stroke="black"/>
<path d="M432.783,271.145v 3.27433" fill="none" stroke="black"/>
<path d="M449.319,271.145v 3.27433" fill="none" stroke="black"/>
<path d="M465.854,271.145v 3.27433" fill="none" stroke="black"/>
<path d="M482.39,267.871v 6.54865" fill="none" stroke="black"/>
<text xml:space="preserve" x="85.3325" y="284.647" fill="black" font-size="10.5132" font-family="Helvetica">6</text>
<text xml:space="preserve" x="79.7164" y="284.647" fill="black" font-size="10.5132" font-family="Times">&#8722;</text>
<text xml:space="preserve" x="151.543" y="284.647" fill="black" font-size="10.5132" font-family="Helvetica">4</text>
<text xml:space="preserve" x="145.927" y="284.647" fill="black" font-size="10.5132" font-family="Times">&#8722;</text>
<text xml:space="preserve" x="217.754" y="284.647" fill="black" font-size="10.5132" font-family="Helvetica">2</text>
<text xml:space="preserve" x="212.138" y="284.647" fill="black" font-size="10.5132" font-family="Times">&#8722;</text>
<text xml:space="preserve" x="281.304" y="284.647" fill="black" font-size="10.5132" font-family="Helvetica">0</text>
<text xml:space="preserve" x="347.219" y="284.647" fill="black" font-size="10.5132" font-family="Helvetica">2</text>
<text xml:space="preserve" x="413.43" y="284.647" fill="black" font-size="10.5132" font-family="Helvetica">4</text>
<text xml:space="preserve" x="479.641" y="284.647" fill="black" font-size="10.5132" font-family="Helvetica">6</text>
<text xml:space="preserve" x="476.981" y="293.514" fill="black" font-size="10.5132" font-family="Times">&#0951;</text>
<path d="M85.5394,31.1841h 396.85" fill="none" stroke="black"/>
<path d="M85.5394,37.7327v -6.54865" fill="none" stroke="black"/>
<path d="M102.075,34.4584v -3.27433" fill="none" stroke="black"/>
<path d="M118.61,34.4584v -3.27433" fill="none" stroke="black"/>
<path d="M135.146,34.4584v -3.27433" fill="none" stroke="black"/>
<path d="M151.681,37.7327v -6.54865" fill="none" stroke="black"/>
<path d="M168.217,34.4584v -3.27433" fill="none" stroke="black"/>
<path d="M184.752,34.4584v -3.27433" fill="none" stroke="black"/>
<path d="M201.287,34.4584v -3.27433" fill="none" stroke="black"/>
<path d="M217.823,37.7327v -6.54865" fill="none" stroke="black"/>
<path d="M234.358,34.4584v -3.27433" fill="none" stroke="black"/>
<path d="M250.894,34.4584v -3.27433" fill="none" stroke="black"/>
<path d="M267.429,34.4584v -3.27433" fill="none" stroke="black"/>
<path d="M283.965,37.7327v -6.54865" fill="none" stroke="black"/>
<path d="M300.5,34.4584v -3.27433" fill="none" stroke="black"/>
<path d="M317.035,34.4584v -3.27433" fill="none" stroke="black"/>
<path d="M333.571,34.4584v -3.27433" fill="none" stroke="black"/>
<path d="M350.106,37.7327v -6.54865" fill="none" stroke="black"/>
<path d="M366.642,34.4584v -3.27433" fill="none" stroke="black"/>
<path d="M383.177,34.4584v -3.27433" fill="none" stroke="black"/>
<path d="M399.713,34.4584v -3.27433" fill="none" stroke="black"/>
<path d="M416.248,37.7327v -6.54865" fill="none" stroke="black"/>
<path d="M432.783,34.4584v -3.27433" fill="none" stroke="black"/>
<path d="M449.319,34.4584v -3.27433" fill="none" stroke="black"/>
<path d="M465.854,34.4584v -3.27433" fill="none" stroke="black"/>
<path d="M482.39,37.7327v -6.54865" fill="none" stroke="black"/>
<path d="M85.5394,274.42v -243.236" fill="none" stroke="black"/>
<path d="M98.8055,274.42h -13.2661" fill="none" stroke="black"/>
<path d="M92.1724,264.69h -6.63307" fill="none" stroke="black"/>
<path d="M92.1724,254.961h -6.63307" fill="none" stroke="black"/>
<path d="M92.1724,245.231h -6.63307" fill="none" stroke="black"/>
<path d="M92.1724,235.502h -6.63307" fill="none" stroke="black"/>
<path d="M98.8055,225.773h -13.2661" fill="none" stroke="black"/>
<path d="M92.1724,216.043h -6.63307" fill="none" stroke="black"/>
<path d="M92.1724,206.314h -6.63307" fill="none" stroke="black"/>
<path d="M92.1724,196.584h -6.63307" fill="none" stroke="black"/>
<path d="M92.1724,186.855h -6.63307" fill="none" stroke="black"/>
<path d="M98.8055,177.125h -13.2661" fill="none" stroke="black"/>
<path d="M92.1724,167.396h -6.63307" fill="none" stroke="black"/>
<path d="M92.1724,157.667h -6.63307" fill="none" stroke="black"/>
<path d="M92.1724,147.937h -6.63307" fill="none" stroke="black"/>
<path d="M92.1724,138.208h -6.63307" fill="none" stroke="black"/>
<path d="M98.8055,128.478h -13.2661" fill="none" stroke="black"/>
<path d="M92.1724,118.749h -6.63307" fill="none" stroke="black"/>
<path d="M92.1724,109.019h -6.63307" fill="none" stroke="black"/>
<path d="M92.1724,99.29h -6.63307" fill="none" stroke="black"/>
<path d="M92.1724,89.5606h -6.63307" fill="none" stroke="black"/>
<path d="M98.8055,79.8312h -13.2661" fill="none" stroke="black"/>
<path d="M92.1724,70.1018h -6.63307" fill="none" stroke="black"/>
<path d="M92.1724,60.3723h -6.63307" fill="none" stroke="black"/>
<path d="M92.1724,50.6429h -6.63307" fill="none" stroke="black"/>
<path d="M92.1724,40.9135h -6.63307" fill="none" stroke="black"/>
<path d="M98.8055,31.1841h -13.2661" fill="none" stroke="black"/>
<text xml:space="preserve" x="77.3517" y="278.144" fill="black" font-size="10.5132" font-family="Helvetica">0</text>
<text xml:space="preserve" x="77.3517" y="229.373" fill="black" font-size="10.5132" font-family="Helvetica">5</text>
<text xml:space="preserve" x="71.7356" y="180.897" fill="black" font-size="10.5132" font-family="Helvetica">10</text>
<text xml:space="preserve" x="71.7356" y="132.126" fill="black" font-size="10.5132" font-family="Helvetica">15</text>
<text xml:space="preserve" x="71.7356" y="83.6501" fill="black" font-size="10.5132" font-family="Helvetica">20</text>
<text xml:space="preserve" x="71.7356" y="34.8788" fill="black" font-size="10.5132" font-family="Helvetica">25</text>
<g transform="rotate(-90,58.4344,36.3568)">
<text xml:space="preserve" x="58.4344" y="36.3568" fill="black" font-size="10.5132" font-family="Times">&#0951;</text>
</g>
<g transform="rotate(-90,58.4344,44.6331)">
<text xml:space="preserve" x="58.4344" y="44.6331" fill="black" font-size="10.5132" font-family="Helvetica">/d</text>
</g>
<g transform="rotate(-90,53.705,51.4315)">
<text xml:space="preserve" x="53.705" y="51.4315" fill="black" font-size="7.17549" font-family="Helvetica">ch</text>
</g>
<g transform="rotate(-90,58.4344,63.5504)">
<text xml:space="preserve" x="58.4344" y="63.5504" fill="black" font-size="10.5132" font-family="Helvetica">dN</text>
</g>
<path d="M482.39,274.42v -243.236" fill="none" stroke="black"/>
<path d="M469.124,274.42h 13.2661" fill="none" stroke="black"/>
<path d="M475.757,264.69h 6.63307" fill="none" stroke="black"/>
<path d="M475.757,254.961h 6.63307" fill="none" stroke="black"/>
<path d="M475.757,245.231h 6.63307" fill="none" stroke="black"/>
<path d="M475.757,235.502h 6.63307" fill="none" stroke="black"/>
<path d="M469.124,225.773h 13.2661" fill="none" stroke="black"/>
<path d="M475.757,216.043h 6.63307" fill="none" stroke="black"/>
<path d="M475.757,206.314h 6.63307" fill="none" stroke="black"/>
<path d="M475.757,196.584h 6.63307" fill="none" stroke="black"/>
<path d="M475.757,186.855h 6.63307" fill="none" stroke="black"/>
<path d="M469.124,177.125h 13.2661" fill="none" stroke="black"/>
<path d="M475.757,167.396h 6.63307" fill="none" stroke="black"/>
<path d="M475.757,157.667h 6.63307" fill="none" stroke="black"/>
<path d="M475.757,147.937h 6.63307" fill="none" stroke="black"/>
<path d="M475.757,138.208h 6.63307" fill="none" stroke="black"/>
<path d="M469.124,128.478h 13.2661" fill="none" stroke="black"/>
<path d="M475.757,118.749h 6.63307" fill="none" stroke="black"/>
<path d="M475.757,109.019h 6.63307" fill="none" stroke="black"/>
<path d="M475.757,99.29h 6.63307" fill="none" stroke="black"/>
<path d="M475.757,89.5606h 6.63307" fill="none" stroke="black"/>
<path d="M469.124,79.8312h 13.2661" fill="none" stroke="black"/>
<path d="M475.757,70.1018h 6.63307" fill="none" stroke="black"/>
<path d="M475.757,60.3723h 6.63307" fill="none" stroke="black"/>
<path d="M475.757,50.6429h 6.63307" fill="none" stroke="black"/>
<path d="M475.757,40.9135h 6.63307" fill="none" stroke="black"/>
<path d="M469.124,31.1841h 13.2661" fill="none" stroke="black"/>
<text xml:space="preserve" x="283.965" y="42.2684" fill="black" font-size="11.9437" font-family="Helvetica">MB events</text>
<g stroke="black" stroke-width="1" fill="none">
<rect x="254.436" y="37.7977" width="2.36467" height="2.36467"/>
</g>
<text xml:space="preserve" x="283.965" y="57.9344" fill="black" font-size="11.9437" font-family="Helvetica">allEvents: centClass2</text>
<g fill="black">
<circle cx="255.618" cy="54.5721" r="1.18233"/>
</g>
<text xml:space="preserve" x="401.607" y="73.6003" fill="black" font-size="11.9437" font-family="Helvetica">|&lt;1: centClass2</text>
<text xml:space="preserve" x="395.4" y="73.6003" fill="black" font-size="11.9437" font-family="Times">&#0951;</text>
<text xml:space="preserve" x="355.2" y="73.6003" fill="black" font-size="11.9437" font-family="Helvetica"> &gt; 3, in |</text>
<text xml:space="preserve" x="351.062" y="69.7577" fill="black" font-size="8.12913" font-family="Helvetica">0</text>
<text xml:space="preserve" x="344.855" y="73.6003" fill="black" font-size="11.9437" font-family="Times">&#0960;</text>
<text xml:space="preserve" x="283.965" y="73.6003" fill="black" font-size="11.9437" font-family="Helvetica">events with </text>
<g fill="#ff0000">
<polygon points=" 255.224, 69.77 255.224, 68.9818 256.012, 68.9818 256.012, 69.77 256.8, 69.77 256.8, 70.5582 256.012, 70.5582 256.012, 71.3465 255.224, 71.3465 255.224, 70.5582 254.436, 70.5582 254.436, 69.77"/>
</g>
<text xml:space="preserve" x="401.607" y="88.9706" fill="black" font-size="11.9437" font-family="Helvetica">|&lt;1: centClass2</text>
<text xml:space="preserve" x="395.4" y="88.9706" fill="black" font-size="11.9437" font-family="Times">&#0951;</text>
<text xml:space="preserve" x="355.2" y="88.9706" fill="black" font-size="11.9437" font-family="Helvetica"> &gt; 5, in |</text>
<text xml:space="preserve" x="351.062" y="85.128" fill="black" font-size="8.12913" font-family="Helvetica">0</text>
<text xml:space="preserve" x="344.855" y="88.9706" fill="black" font-size="11.9437" font-family="Times">&#0960;</text>
<text xml:space="preserve" x="283.965" y="88.9706" fill="black" font-size="11.9437" font-family="Helvetica">events with </text>
<g fill="#0000ff">
<polygon points=" 255.224, 85.362 255.224, 84.5738 256.012, 84.5738 256.012, 85.362 256.8, 85.362 256.8, 86.1503 256.012, 86.1503 256.012, 86.9385 255.224, 86.9385 255.224, 86.1503 254.436, 86.1503 254.436, 85.362"/>
</g>
<path d="M118.61,231.499h 7.08538" fill="none" stroke="black"/>
<path d="M128.06,231.499h 7.08538" fill="none" stroke="black"/>
<g stroke="black" stroke-width="1" fill="none">
<rect x="125.696" y="230.316" width="2.36467" height="2.36467"/>
</g>
<path d="M135.146,219.094h 7.08538" fill="none" stroke="black"/>
<path d="M144.596,219.094h 7.08538" fill="none" stroke="black"/>
<g stroke="black" stroke-width="1" fill="none">
<rect x="142.231" y="217.912" width="2.36467" height="2.36467"/>
</g>
<path d="M151.681,210.16h 7.08538" fill="none" stroke="black"/>
<path d="M161.131,210.16h 7.08538" fill="none" stroke="black"/>
<g stroke="black" stroke-width="1" fill="none">
<rect x="158.766" y="208.978" width="2.36467" height="2.36467"/>
</g>
<path d="M168.217,203.446h 7.08538" fill="none" stroke="black"/>
<path d="M177.667,203.446h 7.08538" fill="none" stroke="black"/>
<g stroke="black" stroke-width="1" fill="none">
<rect x="175.302" y="202.263" width="2.36467" height="2.36467"/>
</g>
<path d="M184.752,198.825h 7.08538" fill="none" stroke="black"/>
<path d="M194.202,198.825h 7.08538" fill="none" stroke="black"/>
<g stroke="black" stroke-width="1" fill="none">
<rect x="191.837" y="197.643" width="2.36467" height="2.36467"/>
</g>
<path d="M201.287,196.853h 7.08538" fill="none" stroke="black"/>
<path d="M210.737,196.853h 7.08538" fill="none" stroke="black"/>
<g stroke="black" stroke-width="1" fill="none">
<rect x="208.373" y="195.671" width="2.36467" height="2.36467"/>
</g>
<path d="M217.823,197.792h 7.08538" fill="none" stroke="black"/>
<path d="M227.273,197.792h 7.08538" fill="none" stroke="black"/>
<g stroke="black" stroke-width="1" fill="none">
<rect x="224.908" y="196.61" width="2.36467" height="2.36467"/>
</g>
<path d="M234.358,201.504h 7.08538" fill="none" stroke="black"/>
<path d="M243.808,201.504h 7.08538" fill="none" stroke="black"/>
<g stroke="black" stroke-width="1" fill="none">
<rect x="241.444" y="200.322" width="2.36467" height="2.36467"/>
</g>
<path d="M250.894,207.111h 7.08538" fill="none" stroke="black"/>
<path d="M260.344,207.111h 7.08538" fill="none" stroke="black"/>
<g stroke="black" stroke-width="1" fill="none">
<rect x="257.979" y="205.929" width="2.36467" height="2.36467"/>
</g>
<path d="M267.429,212.637h 7.08538" fill="none" stroke="black"/>
<path d="M276.879,212.637h 7.08538" fill="none" stroke="black"/>
<g stroke="black" stroke-width="1" fill="none">
<rect x="274.515" y="211.455" width="2.36467" height="2.36467"/>
</g>
<path d="M283.965,216.183h 7.08538" fill="none" stroke="black"/>
<path d="M293.415,216.183h 7.08538" fill="none" stroke="black"/>
<g stroke="black" stroke-width="1" fill="none">
<rect x="291.05" y="215.001" width="2.36467" height="2.36467"/>
</g>
<path d="M300.5,218.18h 7.08538" fill="none" stroke="black"/>
<path d="M309.95,218.18h 7.08538" fill="none" stroke="black"/>
<g stroke="black" stroke-width="1" fill="none">
<rect x="307.585" y="216.998" width="2.36467" height="2.36467"/>
</g>
<path d="M317.035,220.742h 7.08538" fill="none" stroke="black"/>
<path d="M326.485,220.742h 7.08538" fill="none" stroke="black"/>
<g stroke="black" stroke-width="1" fill="none">
<rect x="324.121" y="219.559" width="2.36467" height="2.36467"/>
</g>
<path d="M333.571,225.197h 7.08538" fill="none" stroke="black"/>
<path d="M343.021,225.197h 7.08538" fill="none" stroke="black"/>
<g stroke="black" stroke-width="1" fill="none">
<rect x="340.656" y="224.015" width="2.36467" height="2.36467"/>
</g>
<path d="M350.106,231.619h 7.08538" fill="none" stroke="black"/>
<path d="M359.556,231.619h 7.08538" fill="none" stroke="black"/>
<g stroke="black" stroke-width="1" fill="none">
<rect x="357.192" y="230.436" width="2.36467" height="2.36467"/>
</g>
<path d="M366.642,239.438h 7.08538" fill="none" stroke="black"/>
<path d="M376.092,239.438h 7.08538" fill="none" stroke="black"/>
<g stroke="black" stroke-width="1" fill="none">
<rect x="373.727" y="238.256" width="2.36467" height="2.36467"/>
</g>
<path d="M383.177,247.713h 7.08538" fill="none" stroke="black"/>
<path d="M392.627,247.713h 7.08538" fill="none" stroke="black"/>
<g stroke="black" stroke-width="1" fill="none">
<rect x="390.263" y="246.531" width="2.36467" height="2.36467"/>
</g>
<path d="M399.713,255.4h 7.08538" fill="none" stroke="black"/>
<path d="M409.163,255.4h 7.08538" fill="none" stroke="black"/>
<g stroke="black" stroke-width="1" fill="none">
<rect x="406.798" y="254.218" width="2.36467" height="2.36467"/>
</g>
<path d="M416.248,261.99h 7.08538" fill="none" stroke="black"/>
<path d="M425.698,261.99h 7.08538" fill="none" stroke="black"/>
<g stroke="black" stroke-width="1" fill="none">
<rect x="423.333" y="260.808" width="2.36467" height="2.36467"/>
</g>
<path d="M432.783,267.285h 7.08538" fill="none" stroke="black"/>
<path d="M442.234,267.285h 7.08538" fill="none" stroke="black"/>
<g stroke="black" stroke-width="1" fill="none">
<rect x="439.869" y="266.103" width="2.36467" height="2.36467"/>
</g>
<path d="M449.319,274.42h 7.08538" fill="none" stroke="black"/>
<path d="M458.769,274.42h 7.08538" fill="none" stroke="black"/>
<g stroke="black" stroke-width="1" fill="none">
<rect x="456.404" y="273.237" width="2.36467" height="2.36467"/>
</g>
<path d="M118.61,209.627h 7.08538" fill="none" stroke="black"/>
<path d="M128.06,209.627h 7.08538" fill="none" stroke="black"/>
<g fill="black">
<circle cx="126.878" cy="209.627" r="1.18233"/>
</g>
<path d="M135.146,190.128h 7.08538" fill="none" stroke="black"/>
<path d="M144.596,190.128h 7.08538" fill="none" stroke="black"/>
<g fill="black">
<circle cx="143.413" cy="190.128" r="1.18233"/>
</g>
<path d="M151.681,165.522h 7.08538" fill="none" stroke="black"/>
<path d="M161.131,165.522h 7.08538" fill="none" stroke="black"/>
<g fill="black">
<circle cx="159.949" cy="165.522" r="1.18233"/>
</g>
<path d="M168.217,151.286h 7.08538" fill="none" stroke="black"/>
<path d="M177.667,151.286h 7.08538" fill="none" stroke="black"/>
<g fill="black">
<circle cx="176.484" cy="151.286" r="1.18233"/>
</g>
<path d="M184.752,159.495h 7.08538" fill="none" stroke="black"/>
<path d="M194.202,159.495h 7.08538" fill="none" stroke="black"/>
<g fill="black">
<circle cx="193.02" cy="159.495" r="1.18233"/>
</g>
<path d="M201.287,157.736h 7.08538" fill="none" stroke="black"/>
<path d="M210.737,157.736h 7.08538" fill="none" stroke="black"/>
<g fill="black">
<circle cx="209.555" cy="157.736" r="1.18233"/>
</g>
<path d="M217.823,160.491h 7.08538" fill="none" stroke="black"/>
<path d="M227.273,160.491h 7.08538" fill="none" stroke="black"/>
<g fill="black">
<circle cx="226.091" cy="160.491" r="1.18233"/>
</g>
<path d="M234.358,167.169h 7.08538" fill="none" stroke="black"/>
<path d="M243.808,167.169h 7.08538" fill="none" stroke="black"/>
<g fill="black">
<circle cx="242.626" cy="167.169" r="1.18233"/>
</g>
<path d="M250.894,176.503h 7.08538" fill="none" stroke="black"/>
<path d="M260.344,176.503h 7.08538" fill="none" stroke="black"/>
<g fill="black">
<circle cx="259.161" cy="176.503" r="1.18233"/>
</g>
<path d="M267.429,185.588h 7.08538" fill="none" stroke="black"/>
<path d="M276.879,185.588h 7.08538" fill="none" stroke="black"/>
<g fill="black">
<circle cx="275.697" cy="185.588" r="1.18233"/>
</g>
<path d="M283.965,191.897h 7.08538" fill="none" stroke="black"/>
<path d="M293.415,191.897h 7.08538" fill="none" stroke="black"/>
<g fill="black">
<circle cx="292.232" cy="191.897" r="1.18233"/>
</g>
<path d="M300.5,196.116h 7.08538" fill="none" stroke="black"/>
<path d="M309.95,196.116h 7.08538" fill="none" stroke="black"/>
<g fill="black">
<circle cx="308.768" cy="196.116" r="1.18233"/>
</g>
<path d="M317.035,201.294h 7.08538" fill="none" stroke="black"/>
<path d="M326.485,201.294h 7.08538" fill="none" stroke="black"/>
<g fill="black">
<circle cx="325.303" cy="201.294" r="1.18233"/>
</g>
<path d="M333.571,209.185h 7.08538" fill="none" stroke="black"/>
<path d="M343.021,209.185h 7.08538" fill="none" stroke="black"/>
<g fill="black">
<circle cx="341.839" cy="209.185" r="1.18233"/>
</g>
<path d="M350.106,219.634h 7.08538" fill="none" stroke="black"/>
<path d="M359.556,219.634h 7.08538" fill="none" stroke="black"/>
<g fill="black">
<circle cx="358.374" cy="219.634" r="1.18233"/>
</g>
<path d="M366.642,231.672h 7.08538" fill="none" stroke="black"/>
<path d="M376.092,231.672h 7.08538" fill="none" stroke="black"/>
<g fill="black">
<circle cx="374.909" cy="231.672" r="1.18233"/>
</g>
<path d="M383.177,243.839h 7.08538" fill="none" stroke="black"/>
<path d="M392.627,243.839h 7.08538" fill="none" stroke="black"/>
<g fill="black">
<circle cx="391.445" cy="243.839" r="1.18233"/>
</g>
<path d="M399.713,254.58h 7.08538" fill="none" stroke="black"/>
<path d="M409.163,254.58h 7.08538" fill="none" stroke="black"/>
<g fill="black">
<circle cx="407.98" cy="254.58" r="1.18233"/>
</g>
<path d="M416.248,263.032h 7.08538" fill="none" stroke="black"/>
<path d="M425.698,263.032h 7.08538" fill="none" stroke="black"/>
<g fill="black">
<circle cx="424.516" cy="263.032" r="1.18233"/>
</g>
<path d="M432.783,268.799h 7.08538" fill="none" stroke="black"/>
<path d="M442.234,268.799h 7.08538" fill="none" stroke="black"/>
<g fill="black">
<circle cx="441.051" cy="268.799" r="1.18233"/>
</g>
<path d="M118.61,208.954h 7.08538" fill="none" stroke="#ff0000"/>
<path d="M128.06,208.954h 7.08538" fill="none" stroke="#ff0000"/>
<g fill="#ff0000">
<polygon points=" 126.484, 208.56 126.484, 207.772 127.272, 207.772 127.272, 208.56 128.06, 208.56 128.06, 209.348 127.272, 209.348 127.272, 210.137 126.484, 210.137 126.484, 209.348 125.696, 209.348 125.696, 208.56"/>
</g>
<path d="M135.146,189.621h 7.08538" fill="none" stroke="#ff0000"/>
<path d="M144.596,189.621h 7.08538" fill="none" stroke="#ff0000"/>
<g fill="#ff0000">
<polygon points=" 143.019, 189.227 143.019, 188.439 143.807, 188.439 143.807, 189.227 144.596, 189.227 144.596, 190.015 143.807, 190.015 143.807, 190.803 143.019, 190.803 143.019, 190.015 142.231, 190.015 142.231, 189.227"/>
</g>
<path d="M151.681,165.557h 7.08538" fill="none" stroke="#ff0000"/>
<path d="M161.131,165.557h 7.08538" fill="none" stroke="#ff0000"/>
<g fill="#ff0000">
<polygon points=" 159.555, 165.163 159.555, 164.374 160.343, 164.374 160.343, 165.163 161.131, 165.163 161.131, 165.951 160.343, 165.951 160.343, 166.739 159.555, 166.739 159.555, 165.951 158.766, 165.951 158.766, 165.163"/>
</g>
<path d="M168.217,149.653h 7.08538" fill="none" stroke="#ff0000"/>
<path d="M177.667,149.653h 7.08538" fill="none" stroke="#ff0000"/>
<g fill="#ff0000">
<polygon points=" 176.09, 149.259 176.09, 148.47 176.878, 148.47 176.878, 149.259 177.667, 149.259 177.667, 150.047 176.878, 150.047 176.878, 150.835 176.09, 150.835 176.09, 150.047 175.302, 150.047 175.302, 149.259"/>
</g>
<path d="M184.752,152.415h 7.08538" fill="none" stroke="#ff0000"/>
<path d="M194.202,152.415h 7.08538" fill="none" stroke="#ff0000"/>
<g fill="#ff0000">
<polygon points=" 192.626, 152.021 192.626, 151.233 193.414, 151.233 193.414, 152.021 194.202, 152.021 194.202, 152.81 193.414, 152.81 193.414, 153.598 192.626, 153.598 192.626, 152.81 191.837, 152.81 191.837, 152.021"/>
</g>
<path d="M201.287,147.195h 7.08538" fill="none" stroke="#ff0000"/>
<path d="M210.737,147.195h 7.08538" fill="none" stroke="#ff0000"/>
<g fill="#ff0000">
<polygon points=" 209.161, 146.801 209.161, 146.013 209.949, 146.013 209.949, 146.801 210.737, 146.801 210.737, 147.589 209.949, 147.589 209.949, 148.377 209.161, 148.377 209.161, 147.589 208.373, 147.589 208.373, 146.801"/>
</g>
<path d="M217.823,145.644h 7.08538" fill="none" stroke="#ff0000"/>
<path d="M227.273,145.644h 7.08538" fill="none" stroke="#ff0000"/>
<g fill="#ff0000">
<polygon points=" 225.696, 145.25 225.696, 144.461 226.485, 144.461 226.485, 145.25 227.273, 145.25 227.273, 146.038 226.485, 146.038 226.485, 146.826 225.696, 146.826 225.696, 146.038 224.908, 146.038 224.908, 145.25"/>
</g>
<path d="M234.358,149.383h 7.08538" fill="none" stroke="#ff0000"/>
<path d="M243.808,149.383h 7.08538" fill="none" stroke="#ff0000"/>
<g fill="#ff0000">
<polygon points=" 242.232, 148.989 242.232, 148.201 243.02, 148.201 243.02, 148.989 243.808, 148.989 243.808, 149.777 243.02, 149.777 243.02, 150.566 242.232, 150.566 242.232, 149.777 241.444, 149.777 241.444, 148.989"/>
</g>
<path d="M250.894,155.996h 7.08538" fill="none" stroke="#ff0000"/>
<path d="M260.344,155.996h 7.08538" fill="none" stroke="#ff0000"/>
<g fill="#ff0000">
<polygon points=" 258.767, 155.601 258.767, 154.813 259.556, 154.813 259.556, 155.601 260.344, 155.601 260.344, 156.39 259.556, 156.39 259.556, 157.178 258.767, 157.178 258.767, 156.39 257.979, 156.39 257.979, 155.601"/>
</g>
<path d="M267.429,164.289h 7.08538" fill="none" stroke="#ff0000"/>
<path d="M276.879,164.289h 7.08538" fill="none" stroke="#ff0000"/>
<g fill="#ff0000">
<polygon points=" 275.303, 163.894 275.303, 163.106 276.091, 163.106 276.091, 163.894 276.879, 163.894 276.879, 164.683 276.091, 164.683 276.091, 165.471 275.303, 165.471 275.303, 164.683 274.515, 164.683 274.515, 163.894"/>
</g>
<path d="M283.965,171.316h 7.08538" fill="none" stroke="#ff0000"/>
<path d="M293.415,171.316h 7.08538" fill="none" stroke="#ff0000"/>
<g fill="#ff0000">
<polygon points=" 291.838, 170.922 291.838, 170.134 292.626, 170.134 292.626, 170.922 293.415, 170.922 293.415, 171.71 292.626, 171.71 292.626, 172.498 291.838, 172.498 291.838, 171.71 291.05, 171.71 291.05, 170.922"/>
</g>
<path d="M300.5,177.988h 7.08538" fill="none" stroke="#ff0000"/>
<path d="M309.95,177.988h 7.08538" fill="none" stroke="#ff0000"/>
<g fill="#ff0000">
<polygon points=" 308.374, 177.594 308.374, 176.806 309.162, 176.806 309.162, 177.594 309.95, 177.594 309.95, 178.382 309.162, 178.382 309.162, 179.17 308.374, 179.17 308.374, 178.382 307.585, 178.382 307.585, 177.594"/>
</g>
<path d="M317.035,186.523h 7.08538" fill="none" stroke="#ff0000"/>
<path d="M326.485,186.523h 7.08538" fill="none" stroke="#ff0000"/>
<g fill="#ff0000">
<polygon points=" 324.909, 186.129 324.909, 185.341 325.697, 185.341 325.697, 186.129 326.485, 186.129 326.485, 186.917 325.697, 186.917 325.697, 187.705 324.909, 187.705 324.909, 186.917 324.121, 186.917 324.121, 186.129"/>
</g>
<path d="M333.571,198.83h 7.08538" fill="none" stroke="#ff0000"/>
<path d="M343.021,198.83h 7.08538" fill="none" stroke="#ff0000"/>
<g fill="#ff0000">
<polygon points=" 341.444, 198.436 341.444, 197.648 342.233, 197.648 342.233, 198.436 343.021, 198.436 343.021, 199.224 342.233, 199.224 342.233, 200.012 341.444, 200.012 341.444, 199.224 340.656, 199.224 340.656, 198.436"/>
</g>
<path d="M350.106,212.786h 7.08538" fill="none" stroke="#ff0000"/>
<path d="M359.556,212.786h 7.08538" fill="none" stroke="#ff0000"/>
<g fill="#ff0000">
<polygon points=" 357.98, 212.392 357.98, 211.604 358.768, 211.604 358.768, 212.392 359.556, 212.392 359.556, 213.18 358.768, 213.18 358.768, 213.968 357.98, 213.968 357.98, 213.18 357.192, 213.18 357.192, 212.392"/>
</g>
<path d="M366.642,228.823h 7.08538" fill="none" stroke="#ff0000"/>
<path d="M376.092,228.823h 7.08538" fill="none" stroke="#ff0000"/>
<g fill="#ff0000">
<polygon points=" 374.515, 228.429 374.515, 227.641 375.304, 227.641 375.304, 228.429 376.092, 228.429 376.092, 229.217 375.304, 229.217 375.304, 230.006 374.515, 230.006 374.515, 229.217 373.727, 229.217 373.727, 228.429"/>
</g>
<path d="M383.177,244.241h 7.08538" fill="none" stroke="#ff0000"/>
<path d="M392.627,244.241h 7.08538" fill="none" stroke="#ff0000"/>
<g fill="#ff0000">
<polygon points=" 391.051, 243.847 391.051, 243.059 391.839, 243.059 391.839, 243.847 392.627, 243.847 392.627, 244.635 391.839, 244.635 391.839, 245.423 391.051, 245.423 391.051, 244.635 390.263, 244.635 390.263, 243.847"/>
</g>
<path d="M399.713,256.382h 7.08538" fill="none" stroke="#ff0000"/>
<path d="M409.163,256.382h 7.08538" fill="none" stroke="#ff0000"/>
<g fill="#ff0000">
<polygon points=" 407.586, 255.988 407.586, 255.2 408.374, 255.2 408.374, 255.988 409.163, 255.988 409.163, 256.776 408.374, 256.776 408.374, 257.564 407.586, 257.564 407.586, 256.776 406.798, 256.776 406.798, 255.988"/>
</g>
<path d="M416.248,265.033h 7.08538" fill="none" stroke="#ff0000"/>
<path d="M425.698,265.033h 7.08538" fill="none" stroke="#ff0000"/>
<g fill="#ff0000">
<polygon points=" 424.122, 264.639 424.122, 263.851 424.91, 263.851 424.91, 264.639 425.698, 264.639 425.698, 265.427 424.91, 265.427 424.91, 266.216 424.122, 266.216 424.122, 265.427 423.333, 265.427 423.333, 264.639"/>
</g>
<path d="M432.783,270.268h 7.08538" fill="none" stroke="#ff0000"/>
<path d="M442.234,270.268h 7.08538" fill="none" stroke="#ff0000"/>
<g fill="#ff0000">
<polygon points=" 440.657, 269.873 440.657, 269.085 441.445, 269.085 441.445, 269.873 442.234, 269.873 442.234, 270.662 441.445, 270.662 441.445, 271.45 440.657, 271.45 440.657, 270.662 439.869, 270.662 439.869, 269.873"/>
</g>
<path d="M118.61,208.722h 7.08538" fill="none" stroke="#0000ff"/>
<path d="M128.06,208.722h 7.08538" fill="none" stroke="#0000ff"/>
<g fill="#0000ff">
<polygon points=" 126.484, 208.328 126.484, 207.539 127.272, 207.539 127.272, 208.328 128.06, 208.328 128.06, 209.116 127.272, 209.116 127.272, 209.904 126.484, 209.904 126.484, 209.116 125.696, 209.116 125.696, 208.328"/>
</g>
<path d="M143.413,189.823v -0.0526936" fill="none" stroke="#0000ff"/>
<path d="M143.413,187.405v -0.0526936" fill="none" stroke="#0000ff"/>
<path d="M135.146,188.588h 7.08538" fill="none" stroke="#0000ff"/>
<path d="M144.596,188.588h 7.08538" fill="none" stroke="#0000ff"/>
<g fill="#0000ff">
<polygon points=" 143.019, 188.193 143.019, 187.405 143.807, 187.405 143.807, 188.193 144.596, 188.193 144.596, 188.982 143.807, 188.982 143.807, 189.77 143.019, 189.77 143.019, 188.982 142.231, 188.982 142.231, 188.193"/>
</g>
<path d="M159.949,166.524v -0.211274" fill="none" stroke="#0000ff"/>
<path d="M159.949,163.948v -0.211274" fill="none" stroke="#0000ff"/>
<path d="M151.681,165.13h 7.08538" fill="none" stroke="#0000ff"/>
<path d="M161.131,165.13h 7.08538" fill="none" stroke="#0000ff"/>
<g fill="#0000ff">
<polygon points=" 159.555, 164.736 159.555, 163.948 160.343, 163.948 160.343, 164.736 161.131, 164.736 161.131, 165.524 160.343, 165.524 160.343, 166.313 159.555, 166.313 159.555, 165.524 158.766, 165.524 158.766, 164.736"/>
</g>
<path d="M176.484,152.077v -0.301062" fill="none" stroke="#0000ff"/>
<path d="M176.484,149.412v -0.301062" fill="none" stroke="#0000ff"/>
<path d="M168.217,150.594h 7.08538" fill="none" stroke="#0000ff"/>
<path d="M177.667,150.594h 7.08538" fill="none" stroke="#0000ff"/>
<g fill="#0000ff">
<polygon points=" 176.09, 150.2 176.09, 149.412 176.878, 149.412 176.878, 150.2 177.667, 150.2 177.667, 150.988 176.878, 150.988 176.878, 151.776 176.09, 151.776 176.09, 150.988 175.302, 150.988 175.302, 150.2"/>
</g>
<path d="M193.02,154.603v -0.285762" fill="none" stroke="#0000ff"/>
<path d="M193.02,151.953v -0.285762" fill="none" stroke="#0000ff"/>
<path d="M184.752,153.135h 7.08538" fill="none" stroke="#0000ff"/>
<path d="M194.202,153.135h 7.08538" fill="none" stroke="#0000ff"/>
<g fill="#0000ff">
<polygon points=" 192.626, 152.741 192.626, 151.953 193.414, 151.953 193.414, 152.741 194.202, 152.741 194.202, 153.529 193.414, 153.529 193.414, 154.317 192.626, 154.317 192.626, 153.529 191.837, 153.529 191.837, 152.741"/>
</g>
<path d="M209.555,147.732v -0.32702" fill="none" stroke="#0000ff"/>
<path d="M209.555,145.04v -0.32702" fill="none" stroke="#0000ff"/>
<path d="M201.287,146.222h 7.08538" fill="none" stroke="#0000ff"/>
<path d="M210.737,146.222h 7.08538" fill="none" stroke="#0000ff"/>
<g fill="#0000ff">
<polygon points=" 209.161, 145.828 209.161, 145.04 209.949, 145.04 209.949, 145.828 210.737, 145.828 210.737, 146.616 209.949, 146.616 209.949, 147.405 209.161, 147.405 209.161, 146.616 208.373, 146.616 208.373, 145.828"/>
</g>
<path d="M226.091,143.704v -0.350686" fill="none" stroke="#0000ff"/>
<path d="M226.091,140.988v -0.350686" fill="none" stroke="#0000ff"/>
<path d="M217.823,142.171h 7.08538" fill="none" stroke="#0000ff"/>
<path d="M227.273,142.171h 7.08538" fill="none" stroke="#0000ff"/>
<g fill="#0000ff">
<polygon points=" 225.696, 141.776 225.696, 140.988 226.485, 140.988 226.485, 141.776 227.273, 141.776 227.273, 142.565 226.485, 142.565 226.485, 143.353 225.696, 143.353 225.696, 142.565 224.908, 142.565 224.908, 141.776"/>
</g>
<path d="M242.626,146.212v -0.33599" fill="none" stroke="#0000ff"/>
<path d="M242.626,143.512v -0.33599" fill="none" stroke="#0000ff"/>
<path d="M234.358,144.694h 7.08538" fill="none" stroke="#0000ff"/>
<path d="M243.808,144.694h 7.08538" fill="none" stroke="#0000ff"/>
<g fill="#0000ff">
<polygon points=" 242.232, 144.3 242.232, 143.512 243.02, 143.512 243.02, 144.3 243.808, 144.3 243.808, 145.088 243.02, 145.088 243.02, 145.876 242.232, 145.876 242.232, 145.088 241.444, 145.088 241.444, 144.3"/>
</g>
<path d="M259.161,153.755v -0.290915" fill="none" stroke="#0000ff"/>
<path d="M259.161,151.1v -0.290915" fill="none" stroke="#0000ff"/>
<path d="M250.894,152.282h 7.08538" fill="none" stroke="#0000ff"/>
<path d="M260.344,152.282h 7.08538" fill="none" stroke="#0000ff"/>
<g fill="#0000ff">
<polygon points=" 258.767, 151.888 258.767, 151.1 259.556, 151.1 259.556, 151.888 260.344, 151.888 260.344, 152.676 259.556, 152.676 259.556, 153.464 258.767, 153.464 258.767, 152.676 257.979, 152.676 257.979, 151.888"/>
</g>
<path d="M275.697,156.988v -0.27117" fill="none" stroke="#0000ff"/>
<path d="M275.697,154.352v -0.27117" fill="none" stroke="#0000ff"/>
<path d="M267.429,155.534h 7.08538" fill="none" stroke="#0000ff"/>
<path d="M276.879,155.534h 7.08538" fill="none" stroke="#0000ff"/>
<g fill="#0000ff">
<polygon points=" 275.303, 155.14 275.303, 154.352 276.091, 154.352 276.091, 155.14 276.879, 155.14 276.879, 155.928 276.091, 155.928 276.091, 156.716 275.303, 156.716 275.303, 155.928 274.515, 155.928 274.515, 155.14"/>
</g>
<path d="M292.232,166.082v -0.214104" fill="none" stroke="#0000ff"/>
<path d="M292.232,163.504v -0.214104" fill="none" stroke="#0000ff"/>
<path d="M283.965,164.686h 7.08538" fill="none" stroke="#0000ff"/>
<path d="M293.415,164.686h 7.08538" fill="none" stroke="#0000ff"/>
<g fill="#0000ff">
<polygon points=" 291.838, 164.292 291.838, 163.504 292.626, 163.504 292.626, 164.292 293.415, 164.292 293.415, 165.08 292.626, 165.08 292.626, 165.868 291.838, 165.868 291.838, 165.08 291.05, 165.08 291.05, 164.292"/>
</g>
<path d="M308.768,171.132v -0.181382" fill="none" stroke="#0000ff"/>
<path d="M308.768,168.586v -0.181382" fill="none" stroke="#0000ff"/>
<path d="M300.5,169.768h 7.08538" fill="none" stroke="#0000ff"/>
<path d="M309.95,169.768h 7.08538" fill="none" stroke="#0000ff"/>
<g fill="#0000ff">
<polygon points=" 308.374, 169.374 308.374, 168.586 309.162, 168.586 309.162, 169.374 309.95, 169.374 309.95, 170.163 309.162, 170.163 309.162, 170.951 308.374, 170.951 308.374, 170.163 307.585, 170.163 307.585, 169.374"/>
</g>
<path d="M325.303,184.388v -0.0914628" fill="none" stroke="#0000ff"/>
<path d="M325.303,181.932v -0.0914628" fill="none" stroke="#0000ff"/>
<path d="M317.035,183.114h 7.08538" fill="none" stroke="#0000ff"/>
<path d="M326.485,183.114h 7.08538" fill="none" stroke="#0000ff"/>
<g fill="#0000ff">
<polygon points=" 324.909, 182.72 324.909, 181.932 325.697, 181.932 325.697, 182.72 326.485, 182.72 326.485, 183.508 325.697, 183.508 325.697, 184.296 324.909, 184.296 324.909, 183.508 324.121, 183.508 324.121, 182.72"/>
</g>
<path d="M333.571,198.219h 7.08538" fill="none" stroke="#0000ff"/>
<path d="M343.021,198.219h 7.08538" fill="none" stroke="#0000ff"/>
<g fill="#0000ff">
<polygon points=" 341.444, 197.825 341.444, 197.037 342.233, 197.037 342.233, 197.825 343.021, 197.825 343.021, 198.613 342.233, 198.613 342.233, 199.402 341.444, 199.402 341.444, 198.613 340.656, 198.613 340.656, 197.825"/>
</g>
<path d="M350.106,213.306h 7.08538" fill="none" stroke="#0000ff"/>
<path d="M359.556,213.306h 7.08538" fill="none" stroke="#0000ff"/>
<g fill="#0000ff">
<polygon points=" 357.98, 212.912 357.98, 212.124 358.768, 212.124 358.768, 212.912 359.556, 212.912 359.556, 213.701 358.768, 213.701 358.768, 214.489 357.98, 214.489 357.98, 213.701 357.192, 213.701 357.192, 212.912"/>
</g>
<path d="M366.642,228.998h 7.08538" fill="none" stroke="#0000ff"/>
<path d="M376.092,228.998h 7.08538" fill="none" stroke="#0000ff"/>
<g fill="#0000ff">
<polygon points=" 374.515, 228.604 374.515, 227.816 375.304, 227.816 375.304, 228.604 376.092, 228.604 376.092, 229.392 375.304, 229.392 375.304, 230.18 374.515, 230.18 374.515, 229.392 373.727, 229.392 373.727, 228.604"/>
</g>
<path d="M383.177,245.916h 7.08538" fill="none" stroke="#0000ff"/>
<path d="M392.627,245.916h 7.08538" fill="none" stroke="#0000ff"/>
<g fill="#0000ff">
<polygon points=" 391.051, 245.521 391.051, 244.733 391.839, 244.733 391.839, 245.521 392.627, 245.521 392.627, 246.31 391.839, 246.31 391.839, 247.098 391.051, 247.098 391.051, 246.31 390.263, 246.31 390.263, 245.521"/>
</g>
<path d="M399.713,257.911h 7.08538" fill="none" stroke="#0000ff"/>
<path d="M409.163,257.911h 7.08538" fill="none" stroke="#0000ff"/>
<g fill="#0000ff">
<polygon points=" 407.586, 257.517 407.586, 256.728 408.374, 256.728 408.374, 257.517 409.163, 257.517 409.163, 258.305 408.374, 258.305 408.374, 259.093 407.586, 259.093 407.586, 258.305 406.798, 258.305 406.798, 257.517"/>
</g>
<path d="M416.248,266.441h 7.08538" fill="none" stroke="#0000ff"/>
<path d="M425.698,266.441h 7.08538" fill="none" stroke="#0000ff"/>
<g fill="#0000ff">
<polygon points=" 424.122, 266.047 424.122, 265.258 424.91, 265.258 424.91, 266.047 425.698, 266.047 425.698, 266.835 424.91, 266.835 424.91, 267.623 424.122, 267.623 424.122, 266.835 423.333, 266.835 423.333, 266.047"/>
</g>
<path d="M432.783,270.155h 7.08538" fill="none" stroke="#0000ff"/>
<path d="M442.234,270.155h 7.08538" fill="none" stroke="#0000ff"/>
<g fill="#0000ff">
<polygon points=" 440.657, 269.761 440.657, 268.972 441.445, 268.972 441.445, 269.761 442.234, 269.761 442.234, 270.549 441.445, 270.549 441.445, 271.337 440.657, 271.337 440.657, 270.549 439.869, 270.549 439.869, 269.761"/>
</g>
<path d="M154.988,274.42v -243.236" fill="none" stroke="black"/>
<path d="M184.752,274.42v -243.236" fill="none" stroke="black"/></svg>
