<?xml version="1.0" standalone="no"?>
<svg width="567.429" height="409.002" viewBox="0 0 567.429 409.002" xmlns="http://www.w3.org/2000/svg" shape-rendering="crispEdges">
<title>
/Users/jinhyunpark/npl/gitHub/Centrality_dependent_BiasCorrection/plots/dNdeta_charge_all2byCent_cent5.svg
</title>
<desc>
Creator: ROOT Version 6.28/04
CreationDate: Tue Oct 24 13:59:27 2023</desc>
<defs>
</defs>
<rect x="0.5" y="0" width="566.929" height="408.502" fill="white"/>
<rect x="68.5315" y="20.4251" width="430.866" height="339.056" fill="white"/>
<rect x="68.5315" y="20.4251" width="430.866" height="339.056" fill="none" stroke="black"/>
<rect x="68.5315" y="20.4251" width="430.866" height="339.056" fill="white"/>
<rect x="68.5315" y="20.4251" width="430.866" height="339.056" fill="none" stroke="black"/>
<path d="M68.5315,359.481h 430.866" fill="none" stroke="black"/>
<path d="M68.5315,350.168v 9.31384" fill="none" stroke="black"/>
<path d="M77.1488,354.824v 4.65692" fill="none" stroke="black"/>
<path d="M85.7661,354.824v 4.65692" fill="none" stroke="black"/>
<path d="M94.3835,354.824v 4.65692" fill="none" stroke="black"/>
<path d="M103.001,354.824v 4.65692" fill="none" stroke="black"/>
<path d="M111.618,350.168v 9.31384" fill="none" stroke="black"/>
<path d="M120.235,354.824v 4.65692" fill="none" stroke="black"/>
<path d="M128.853,354.824v 4.65692" fill="none" stroke="black"/>
<path d="M137.47,354.824v 4.65692" fill="none" stroke="black"/>
<path d="M146.087,354.824v 4.65692" fill="none" stroke="black"/>
<path d="M154.705,350.168v 9.31384" fill="none" stroke="black"/>
<path d="M163.322,354.824v 4.65692" fill="none" stroke="black"/>
<path d="M171.939,354.824v 4.65692" fill="none" stroke="black"/>
<path d="M180.557,354.824v 4.65692" fill="none" stroke="black"/>
<path d="M189.174,354.824v 4.65692" fill="none" stroke="black"/>
<path d="M197.791,350.168v 9.31384" fill="none" stroke="black"/>
<path d="M206.409,354.824v 4.65692" fill="none" stroke="black"/>
<path d="M215.026,354.824v 4.65692" fill="none" stroke="black"/>
<path d="M223.643,354.824v 4.65692" fill="none" stroke="black"/>
<path d="M232.261,354.824v 4.65692" fill="none" stroke="black"/>
<path d="M240.878,350.168v 9.31384" fill="none" stroke="black"/>
<path d="M249.495,354.824v 4.65692" fill="none" stroke="black"/>
<path d="M258.113,354.824v 4.65692" fill="none" stroke="black"/>
<path d="M266.73,354.824v 4.65692" fill="none" stroke="black"/>
<path d="M275.347,354.824v 4.65692" fill="none" stroke="black"/>
<path d="M283.965,350.168v 9.31384" fill="none" stroke="black"/>
<path d="M292.582,354.824v 4.65692" fill="none" stroke="black"/>
<path d="M301.199,354.824v 4.65692" fill="none" stroke="black"/>
<path d="M309.817,354.824v 4.65692" fill="none" stroke="black"/>
<path d="M318.434,354.824v 4.65692" fill="none" stroke="black"/>
<path d="M327.051,350.168v 9.31384" fill="none" stroke="black"/>
<path d="M335.669,354.824v 4.65692" fill="none" stroke="black"/>
<path d="M344.286,354.824v 4.65692" fill="none" stroke="black"/>
<path d="M352.903,354.824v 4.65692" fill="none" stroke="black"/>
<path d="M361.52,354.824v 4.65692" fill="none" stroke="black"/>
<path d="M370.138,350.168v 9.31384" fill="none" stroke="black"/>
<path d="M378.755,354.824v 4.65692" fill="none" stroke="black"/>
<path d="M387.372,354.824v 4.65692" fill="none" stroke="black"/>
<path d="M395.99,354.824v 4.65692" fill="none" stroke="black"/>
<path d="M404.607,354.824v 4.65692" fill="none" stroke="black"/>
<path d="M413.224,350.168v 9.31384" fill="none" stroke="black"/>
<path d="M421.842,354.824v 4.65692" fill="none" stroke="black"/>
<path d="M430.459,354.824v 4.65692" fill="none" stroke="black"/>
<path d="M439.076,354.824v 4.65692" fill="none" stroke="black"/>
<path d="M447.694,354.824v 4.65692" fill="none" stroke="black"/>
<path d="M456.311,350.168v 9.31384" fill="none" stroke="black"/>
<path d="M464.928,354.824v 4.65692" fill="none" stroke="black"/>
<path d="M473.546,354.824v 4.65692" fill="none" stroke="black"/>
<path d="M482.163,354.824v 4.65692" fill="none" stroke="black"/>
<path d="M490.78,354.824v 4.65692" fill="none" stroke="black"/>
<path d="M499.398,350.168v 9.31384" fill="none" stroke="black"/>
<text xml:space="preserve" x="67.9916" y="372.269" fill="black" font-size="13.617" font-family="Helvetica">5</text>
<text xml:space="preserve" x="60.1768" y="372.269" fill="black" font-size="13.617" font-family="Times">&#8722;</text>
<text xml:space="preserve" x="111.328" y="372.269" fill="black" font-size="13.617" font-family="Helvetica">4</text>
<text xml:space="preserve" x="103.513" y="372.269" fill="black" font-size="13.617" font-family="Times">&#8722;</text>
<text xml:space="preserve" x="154.665" y="372.269" fill="black" font-size="13.617" font-family="Helvetica">3</text>
<text xml:space="preserve" x="146.85" y="372.269" fill="black" font-size="13.617" font-family="Times">&#8722;</text>
<text xml:space="preserve" x="197.291" y="372.269" fill="black" font-size="13.617" font-family="Helvetica">2</text>
<text xml:space="preserve" x="189.476" y="372.269" fill="black" font-size="13.617" font-family="Times">&#8722;</text>
<text xml:space="preserve" x="241.338" y="372.269" fill="black" font-size="13.617" font-family="Helvetica">1</text>
<text xml:space="preserve" x="234.234" y="372.269" fill="black" font-size="13.617" font-family="Times">&#8722;</text>
<text xml:space="preserve" x="280.412" y="372.269" fill="black" font-size="13.617" font-family="Helvetica">0</text>
<text xml:space="preserve" x="323.749" y="372.269" fill="black" font-size="13.617" font-family="Helvetica">1</text>
<text xml:space="preserve" x="366.375" y="372.269" fill="black" font-size="13.617" font-family="Helvetica">2</text>
<text xml:space="preserve" x="409.002" y="372.269" fill="black" font-size="13.617" font-family="Helvetica">3</text>
<text xml:space="preserve" x="452.338" y="372.269" fill="black" font-size="13.617" font-family="Helvetica">4</text>
<text xml:space="preserve" x="495.675" y="372.269" fill="black" font-size="13.617" font-family="Helvetica">5</text>
<text xml:space="preserve" x="491.412" y="384.347" fill="black" font-size="13.617" font-family="Times">&#0951;</text>
<path d="M68.5315,20.4251h 430.866" fill="none" stroke="black"/>
<path d="M68.5315,29.7389v -9.31384" fill="none" stroke="black"/>
<path d="M77.1488,25.082v -4.65692" fill="none" stroke="black"/>
<path d="M85.7661,25.082v -4.65692" fill="none" stroke="black"/>
<path d="M94.3835,25.082v -4.65692" fill="none" stroke="black"/>
<path d="M103.001,25.082v -4.65692" fill="none" stroke="black"/>
<path d="M111.618,29.7389v -9.31384" fill="none" stroke="black"/>
<path d="M120.235,25.082v -4.65692" fill="none" stroke="black"/>
<path d="M128.853,25.082v -4.65692" fill="none" stroke="black"/>
<path d="M137.47,25.082v -4.65692" fill="none" stroke="black"/>
<path d="M146.087,25.082v -4.65692" fill="none" stroke="black"/>
<path d="M154.705,29.7389v -9.31384" fill="none" stroke="black"/>
<path d="M163.322,25.082v -4.65692" fill="none" stroke="black"/>
<path d="M171.939,25.082v -4.65692" fill="none" stroke="black"/>
<path d="M180.557,25.082v -4.65692" fill="none" stroke="black"/>
<path d="M189.174,25.082v -4.65692" fill="none" stroke="black"/>
<path d="M197.791,29.7389v -9.31384" fill="none" stroke="black"/>
<path d="M206.409,25.082v -4.65692" fill="none" stroke="black"/>
<path d="M215.026,25.082v -4.65692" fill="none" stroke="black"/>
<path d="M223.643,25.082v -4.65692" fill="none" stroke="black"/>
<path d="M232.261,25.082v -4.65692" fill="none" stroke="black"/>
<path d="M240.878,29.7389v -9.31384" fill="none" stroke="black"/>
<path d="M249.495,25.082v -4.65692" fill="none" stroke="black"/>
<path d="M258.113,25.082v -4.65692" fill="none" stroke="black"/>
<path d="M266.73,25.082v -4.65692" fill="none" stroke="black"/>
<path d="M275.347,25.082v -4.65692" fill="none" stroke="black"/>
<path d="M283.965,29.7389v -9.31384" fill="none" stroke="black"/>
<path d="M292.582,25.082v -4.65692" fill="none" stroke="black"/>
<path d="M301.199,25.082v -4.65692" fill="none" stroke="black"/>
<path d="M309.817,25.082v -4.65692" fill="none" stroke="black"/>
<path d="M318.434,25.082v -4.65692" fill="none" stroke="black"/>
<path d="M327.051,29.7389v -9.31384" fill="none" stroke="black"/>
<path d="M335.669,25.082v -4.65692" fill="none" stroke="black"/>
<path d="M344.286,25.082v -4.65692" fill="none" stroke="black"/>
<path d="M352.903,25.082v -4.65692" fill="none" stroke="black"/>
<path d="M361.52,25.082v -4.65692" fill="none" stroke="black"/>
<path d="M370.138,29.7389v -9.31384" fill="none" stroke="black"/>
<path d="M378.755,25.082v -4.65692" fill="none" stroke="black"/>
<path d="M387.372,25.082v -4.65692" fill="none" stroke="black"/>
<path d="M395.99,25.082v -4.65692" fill="none" stroke="black"/>
<path d="M404.607,25.082v -4.65692" fill="none" stroke="black"/>
<path d="M413.224,29.7389v -9.31384" fill="none" stroke="black"/>
<path d="M421.842,25.082v -4.65692" fill="none" stroke="black"/>
<path d="M430.459,25.082v -4.65692" fill="none" stroke="black"/>
<path d="M439.076,25.082v -4.65692" fill="none" stroke="black"/>
<path d="M447.694,25.082v -4.65692" fill="none" stroke="black"/>
<path d="M456.311,29.7389v -9.31384" fill="none" stroke="black"/>
<path d="M464.928,25.082v -4.65692" fill="none" stroke="black"/>
<path d="M473.546,25.082v -4.65692" fill="none" stroke="black"/>
<path d="M482.163,25.082v -4.65692" fill="none" stroke="black"/>
<path d="M490.78,25.082v -4.65692" fill="none" stroke="black"/>
<path d="M499.398,29.7389v -9.31384" fill="none" stroke="black"/>
<path d="M68.5315,359.481v -339.056" fill="none" stroke="black"/>
<path d="M82.648,359.481h -14.1165" fill="none" stroke="black"/>
<path d="M75.5898,351.005h -7.05827" fill="none" stroke="black"/>
<path d="M75.5898,342.529h -7.05827" fill="none" stroke="black"/>
<path d="M75.5898,334.052h -7.05827" fill="none" stroke="black"/>
<path d="M75.5898,325.576h -7.05827" fill="none" stroke="black"/>
<path d="M82.648,317.099h -14.1165" fill="none" stroke="black"/>
<path d="M75.5898,308.623h -7.05827" fill="none" stroke="black"/>
<path d="M75.5898,300.147h -7.05827" fill="none" stroke="black"/>
<path d="M75.5898,291.67h -7.05827" fill="none" stroke="black"/>
<path d="M75.5898,283.194h -7.05827" fill="none" stroke="black"/>
<path d="M82.648,274.717h -14.1165" fill="none" stroke="black"/>
<path d="M75.5898,266.241h -7.05827" fill="none" stroke="black"/>
<path d="M75.5898,257.764h -7.05827" fill="none" stroke="black"/>
<path d="M75.5898,249.288h -7.05827" fill="none" stroke="black"/>
<path d="M75.5898,240.812h -7.05827" fill="none" stroke="black"/>
<path d="M82.648,232.335h -14.1165" fill="none" stroke="black"/>
<path d="M75.5898,223.859h -7.05827" fill="none" stroke="black"/>
<path d="M75.5898,215.382h -7.05827" fill="none" stroke="black"/>
<path d="M75.5898,206.906h -7.05827" fill="none" stroke="black"/>
<path d="M75.5898,198.43h -7.05827" fill="none" stroke="black"/>
<path d="M82.648,189.953h -14.1165" fill="none" stroke="black"/>
<path d="M75.5898,181.477h -7.05827" fill="none" stroke="black"/>
<path d="M75.5898,173h -7.05827" fill="none" stroke="black"/>
<path d="M75.5898,164.524h -7.05827" fill="none" stroke="black"/>
<path d="M75.5898,156.048h -7.05827" fill="none" stroke="black"/>
<path d="M82.648,147.571h -14.1165" fill="none" stroke="black"/>
<path d="M75.5898,139.095h -7.05827" fill="none" stroke="black"/>
<path d="M75.5898,130.618h -7.05827" fill="none" stroke="black"/>
<path d="M75.5898,122.142h -7.05827" fill="none" stroke="black"/>
<path d="M75.5898,113.666h -7.05827" fill="none" stroke="black"/>
<path d="M82.648,105.189h -14.1165" fill="none" stroke="black"/>
<path d="M75.5898,96.7127h -7.05827" fill="none" stroke="black"/>
<path d="M75.5898,88.2363h -7.05827" fill="none" stroke="black"/>
<path d="M75.5898,79.7599h -7.05827" fill="none" stroke="black"/>
<path d="M75.5898,71.2835h -7.05827" fill="none" stroke="black"/>
<path d="M82.648,62.8071h -14.1165" fill="none" stroke="black"/>
<path d="M75.5898,54.3307h -7.05827" fill="none" stroke="black"/>
<path d="M75.5898,45.8543h -7.05827" fill="none" stroke="black"/>
<path d="M75.5898,37.3779h -7.05827" fill="none" stroke="black"/>
<path d="M75.5898,28.9015h -7.05827" fill="none" stroke="black"/>
<path d="M82.648,20.4251h -14.1165" fill="none" stroke="black"/>
<text xml:space="preserve" x="58.0454" y="364.454" fill="black" font-size="13.617" font-family="Helvetica">0</text>
<text xml:space="preserve" x="46.6784" y="321.828" fill="black" font-size="13.617" font-family="Helvetica">0.5</text>
<text xml:space="preserve" x="60.1768" y="279.912" fill="black" font-size="13.617" font-family="Helvetica">1</text>
<text xml:space="preserve" x="46.6784" y="237.286" fill="black" font-size="13.617" font-family="Helvetica">1.5</text>
<text xml:space="preserve" x="58.0454" y="195.37" fill="black" font-size="13.617" font-family="Helvetica">2</text>
<text xml:space="preserve" x="46.6784" y="152.034" fill="black" font-size="13.617" font-family="Helvetica">2.5</text>
<text xml:space="preserve" x="58.0454" y="110.118" fill="black" font-size="13.617" font-family="Helvetica">3</text>
<text xml:space="preserve" x="46.6784" y="67.4916" fill="black" font-size="13.617" font-family="Helvetica">3.5</text>
<text xml:space="preserve" x="58.0454" y="25.5758" fill="black" font-size="13.617" font-family="Helvetica">4</text>
<g transform="rotate(-90,40.2845,32.6801)">
<text xml:space="preserve" x="40.2845" y="32.6801" fill="black" font-size="13.617" font-family="Times">&#0951;</text>
</g>
<g transform="rotate(-90,40.2845,39.7845)">
<text xml:space="preserve" x="40.2845" y="39.7845" fill="black" font-size="13.617" font-family="Helvetica">d</text>
</g>
<g transform="rotate(-90,19.6818,29.1279)">
<text xml:space="preserve" x="19.6818" y="29.1279" fill="black" font-size="9.24468" font-family="Helvetica">ch</text>
</g>
<g transform="rotate(-90,26.0758,45.468)">
<text xml:space="preserve" x="26.0758" y="45.468" fill="black" font-size="13.617" font-family="Helvetica">dN</text>
</g>
<path d="M28.9175,45.468v -25.5758" fill="none" stroke="black" stroke-width="2"/>
<g transform="rotate(-90,32.4697,49.7306)">
<text xml:space="preserve" x="32.4697" y="49.7306" fill="black" font-size="13.617" font-family="Helvetica"> </text>
</g>
<g transform="rotate(-90,44.5471,72.4646)">
<text xml:space="preserve" x="44.5471" y="72.4646" fill="black" font-size="9.24468" font-family="Helvetica">event</text>
</g>
<g transform="rotate(-90,40.2845,81.7003)">
<text xml:space="preserve" x="40.2845" y="81.7003" fill="black" font-size="13.617" font-family="Helvetica">N</text>
</g>
<g transform="rotate(-90,26.7862,68.202)">
<text xml:space="preserve" x="26.7862" y="68.202" fill="black" font-size="13.617" font-family="Helvetica">1</text>
</g>
<path d="M28.9175,81.7003v -31.9697" fill="none" stroke="black" stroke-width="2"/>
<g transform="rotate(-90,32.4697,85.9629)">
<text xml:space="preserve" x="32.4697" y="85.9629" fill="black" font-size="13.617" font-family="Helvetica"> </text>
</g>
<g transform="rotate(-90,40.9949,90.2256)">
<text xml:space="preserve" x="40.9949" y="90.2256" fill="black" font-size="13.617" font-family="Times">&#0062;</text>
</g>
<g transform="rotate(-90,40.9949,94.4882)">
<text xml:space="preserve" x="40.9949" y="94.4882" fill="black" font-size="13.617" font-family="Helvetica"> </text>
</g>
<g transform="rotate(-90,47.3889,107.987)">
<text xml:space="preserve" x="47.3889" y="107.987" fill="black" font-size="9.24468" font-family="Helvetica">coll</text>
</g>
<g transform="rotate(-90,40.9949,120.774)">
<text xml:space="preserve" x="40.9949" y="120.774" fill="black" font-size="13.617" font-family="Helvetica"> N</text>
</g>
<g transform="rotate(-90,40.9949,125.037)">
<text xml:space="preserve" x="40.9949" y="125.037" fill="black" font-size="13.617" font-family="Times">&#0060;</text>
</g>
<g transform="rotate(-90,26.7862,107.987)">
<text xml:space="preserve" x="26.7862" y="107.987" fill="black" font-size="13.617" font-family="Helvetica">1</text>
</g>
<path d="M28.9175,125.037v -39.0741" fill="none" stroke="black" stroke-width="2"/>
<path d="M499.398,359.481v -339.056" fill="none" stroke="black"/>
<path d="M485.281,359.481h 14.1165" fill="none" stroke="black"/>
<path d="M492.339,351.005h 7.05827" fill="none" stroke="black"/>
<path d="M492.339,342.529h 7.05827" fill="none" stroke="black"/>
<path d="M492.339,334.052h 7.05827" fill="none" stroke="black"/>
<path d="M492.339,325.576h 7.05827" fill="none" stroke="black"/>
<path d="M485.281,317.099h 14.1165" fill="none" stroke="black"/>
<path d="M492.339,308.623h 7.05827" fill="none" stroke="black"/>
<path d="M492.339,300.147h 7.05827" fill="none" stroke="black"/>
<path d="M492.339,291.67h 7.05827" fill="none" stroke="black"/>
<path d="M492.339,283.194h 7.05827" fill="none" stroke="black"/>
<path d="M485.281,274.717h 14.1165" fill="none" stroke="black"/>
<path d="M492.339,266.241h 7.05827" fill="none" stroke="black"/>
<path d="M492.339,257.764h 7.05827" fill="none" stroke="black"/>
<path d="M492.339,249.288h 7.05827" fill="none" stroke="black"/>
<path d="M492.339,240.812h 7.05827" fill="none" stroke="black"/>
<path d="M485.281,232.335h 14.1165" fill="none" stroke="black"/>
<path d="M492.339,223.859h 7.05827" fill="none" stroke="black"/>
<path d="M492.339,215.382h 7.05827" fill="none" stroke="black"/>
<path d="M492.339,206.906h 7.05827" fill="none" stroke="black"/>
<path d="M492.339,198.43h 7.05827" fill="none" stroke="black"/>
<path d="M485.281,189.953h 14.1165" fill="none" stroke="black"/>
<path d="M492.339,181.477h 7.05827" fill="none" stroke="black"/>
<path d="M492.339,173h 7.05827" fill="none" stroke="black"/>
<path d="M492.339,164.524h 7.05827" fill="none" stroke="black"/>
<path d="M492.339,156.048h 7.05827" fill="none" stroke="black"/>
<path d="M485.281,147.571h 14.1165" fill="none" stroke="black"/>
<path d="M492.339,139.095h 7.05827" fill="none" stroke="black"/>
<path d="M492.339,130.618h 7.05827" fill="none" stroke="black"/>
<path d="M492.339,122.142h 7.05827" fill="none" stroke="black"/>
<path d="M492.339,113.666h 7.05827" fill="none" stroke="black"/>
<path d="M485.281,105.189h 14.1165" fill="none" stroke="black"/>
<path d="M492.339,96.7127h 7.05827" fill="none" stroke="black"/>
<path d="M492.339,88.2363h 7.05827" fill="none" stroke="black"/>
<path d="M492.339,79.7599h 7.05827" fill="none" stroke="black"/>
<path d="M492.339,71.2835h 7.05827" fill="none" stroke="black"/>
<path d="M485.281,62.8071h 14.1165" fill="none" stroke="black"/>
<path d="M492.339,54.3307h 7.05827" fill="none" stroke="black"/>
<path d="M492.339,45.8543h 7.05827" fill="none" stroke="black"/>
<path d="M492.339,37.3779h 7.05827" fill="none" stroke="black"/>
<path d="M492.339,28.9015h 7.05827" fill="none" stroke="black"/>
<path d="M485.281,20.4251h 14.1165" fill="none" stroke="black"/>
<g stroke="black" stroke-width="1" fill="none">
<polygon points=" 69.7386, 295.268 69.7386, 293.373 71.6331, 293.373 71.6331, 295.268 73.5276, 295.268 73.5276, 297.162 71.6331, 297.162 71.6331, 299.057 69.7386, 299.057 69.7386, 297.162 67.8441, 297.162 67.8441, 295.268"/>
</g>
<g stroke="black" stroke-width="1" fill="none">
<polygon points=" 74.0472, 289.931 74.0472, 288.037 75.9417, 288.037 75.9417, 289.931 77.8362, 289.931 77.8362, 291.826 75.9417, 291.826 75.9417, 293.72 74.0472, 293.72 74.0472, 291.826 72.1527, 291.826 72.1527, 289.931"/>
</g>
<g stroke="black" stroke-width="1" fill="none">
<polygon points=" 78.3559, 284.755 78.3559, 282.86 80.2504, 282.86 80.2504, 284.755 82.1449, 284.755 82.1449, 286.649 80.2504, 286.649 80.2504, 288.544 78.3559, 288.544 78.3559, 286.649 76.4614, 286.649 76.4614, 284.755"/>
</g>
<g stroke="black" stroke-width="1" fill="none">
<polygon points=" 82.6646, 279.807 82.6646, 277.913 84.5591, 277.913 84.5591, 279.807 86.4536, 279.807 86.4536, 281.702 84.5591, 281.702 84.5591, 283.596 82.6646, 283.596 82.6646, 281.702 80.7701, 281.702 80.7701, 279.807"/>
</g>
<g stroke="black" stroke-width="1" fill="none">
<polygon points=" 86.9732, 275.247 86.9732, 273.353 88.8677, 273.353 88.8677, 275.247 90.7622, 275.247 90.7622, 277.142 88.8677, 277.142 88.8677, 279.036 86.9732, 279.036 86.9732, 277.142 85.0787, 277.142 85.0787, 275.247"/>
</g>
<g stroke="black" stroke-width="1" fill="none">
<polygon points=" 91.2819, 271.028 91.2819, 269.134 93.1764, 269.134 93.1764, 271.028 95.0709, 271.028 95.0709, 272.923 93.1764, 272.923 93.1764, 274.817 91.2819, 274.817 91.2819, 272.923 89.3874, 272.923 89.3874, 271.028"/>
</g>
<g stroke="black" stroke-width="1" fill="none">
<polygon points=" 95.5905, 267.143 95.5905, 265.248 97.485, 265.248 97.485, 267.143 99.3795, 267.143 99.3795, 269.037 97.485, 269.037 97.485, 270.932 95.5905, 270.932 95.5905, 269.037 93.696, 269.037 93.696, 267.143"/>
</g>
<g stroke="black" stroke-width="1" fill="none">
<polygon points=" 99.8992, 263.532 99.8992, 261.638 101.794, 261.638 101.794, 263.532 103.688, 263.532 103.688, 265.427 101.794, 265.427 101.794, 267.321 99.8992, 267.321 99.8992, 265.427 98.0047, 265.427 98.0047, 263.532"/>
</g>
<g stroke="black" stroke-width="1" fill="none">
<polygon points=" 104.208, 260.122 104.208, 258.228 106.102, 258.228 106.102, 260.122 107.997, 260.122 107.997, 262.017 106.102, 262.017 106.102, 263.911 104.208, 263.911 104.208, 262.017 102.313, 262.017 102.313, 260.122"/>
</g>
<g stroke="black" stroke-width="1" fill="none">
<polygon points=" 108.517, 256.924 108.517, 255.03 110.411, 255.03 110.411, 256.924 112.306, 256.924 112.306, 258.819 110.411, 258.819 110.411, 260.713 108.517, 260.713 108.517, 258.819 106.622, 258.819 106.622, 256.924"/>
</g>
<g stroke="black" stroke-width="1" fill="none">
<polygon points=" 112.825, 253.873 112.825, 251.979 114.72, 251.979 114.72, 253.873 116.614, 253.873 116.614, 255.768 114.72, 255.768 114.72, 257.662 112.825, 257.662 112.825, 255.768 110.931, 255.768 110.931, 253.873"/>
</g>
<g stroke="black" stroke-width="1" fill="none">
<polygon points=" 117.134, 250.992 117.134, 249.098 119.028, 249.098 119.028, 250.992 120.923, 250.992 120.923, 252.887 119.028, 252.887 119.028, 254.781 117.134, 254.781 117.134, 252.887 115.239, 252.887 115.239, 250.992"/>
</g>
<g stroke="black" stroke-width="1" fill="none">
<polygon points=" 121.443, 248.316 121.443, 246.421 123.337, 246.421 123.337, 248.316 125.232, 248.316 125.232, 250.21 123.337, 250.21 123.337, 252.105 121.443, 252.105 121.443, 250.21 119.548, 250.21 119.548, 248.316"/>
</g>
<g stroke="black" stroke-width="1" fill="none">
<polygon points=" 125.751, 245.735 125.751, 243.84 127.646, 243.84 127.646, 245.735 129.54, 245.735 129.54, 247.629 127.646, 247.629 127.646, 249.524 125.751, 249.524 125.751, 247.629 123.857, 247.629 123.857, 245.735"/>
</g>
<g stroke="black" stroke-width="1" fill="none">
<polygon points=" 130.06, 243.304 130.06, 241.409 131.954, 241.409 131.954, 243.304 133.849, 243.304 133.849, 245.198 131.954, 245.198 131.954, 247.093 130.06, 247.093 130.06, 245.198 128.165, 245.198 128.165, 243.304"/>
</g>
<g stroke="black" stroke-width="1" fill="none">
<polygon points=" 134.368, 241.06 134.368, 239.166 136.263, 239.166 136.263, 241.06 138.158, 241.06 138.158, 242.955 136.263, 242.955 136.263, 244.849 134.368, 244.849 134.368, 242.955 132.474, 242.955 132.474, 241.06"/>
</g>
<g stroke="black" stroke-width="1" fill="none">
<polygon points=" 138.677, 238.837 138.677, 236.942 140.572, 236.942 140.572, 238.837 142.466, 238.837 142.466, 240.731 140.572, 240.731 140.572, 242.626 138.677, 242.626 138.677, 240.731 136.783, 240.731 136.783, 238.837"/>
</g>
<g stroke="black" stroke-width="1" fill="none">
<polygon points=" 142.986, 236.814 142.986, 234.919 144.88, 234.919 144.88, 236.814 146.775, 236.814 146.775, 238.708 144.88, 238.708 144.88, 240.603 142.986, 240.603 142.986, 238.708 141.091, 238.708 141.091, 236.814"/>
</g>
<g stroke="black" stroke-width="1" fill="none">
<polygon points=" 147.294, 234.902 147.294, 233.008 149.189, 233.008 149.189, 234.902 151.083, 234.902 151.083, 236.797 149.189, 236.797 149.189, 238.691 147.294, 238.691 147.294, 236.797 145.4, 236.797 145.4, 234.902"/>
</g>
<g stroke="black" stroke-width="1" fill="none">
<polygon points=" 151.603, 233.091 151.603, 231.196 153.498, 231.196 153.498, 233.091 155.392, 233.091 155.392, 234.985 153.498, 234.985 153.498, 236.88 151.603, 236.88 151.603, 234.985 149.709, 234.985 149.709, 233.091"/>
</g>
<g stroke="black" stroke-width="1" fill="none">
<polygon points=" 155.912, 231.521 155.912, 229.626 157.806, 229.626 157.806, 231.521 159.701, 231.521 159.701, 233.415 157.806, 233.415 157.806, 235.31 155.912, 235.31 155.912, 233.415 154.017, 233.415 154.017, 231.521"/>
</g>
<g stroke="black" stroke-width="1" fill="none">
<polygon points=" 160.22, 230.113 160.22, 228.218 162.115, 228.218 162.115, 230.113 164.009, 230.113 164.009, 232.007 162.115, 232.007 162.115, 233.902 160.22, 233.902 160.22, 232.007 158.326, 232.007 158.326, 230.113"/>
</g>
<g stroke="black" stroke-width="1" fill="none">
<polygon points=" 164.529, 228.825 164.529, 226.931 166.424, 226.931 166.424, 228.825 168.318, 228.825 168.318, 230.72 166.424, 230.72 166.424, 232.614 164.529, 232.614 164.529, 230.72 162.635, 230.72 162.635, 228.825"/>
</g>
<g stroke="black" stroke-width="1" fill="none">
<polygon points=" 168.838, 227.78 168.838, 225.885 170.732, 225.885 170.732, 227.78 172.627, 227.78 172.627, 229.674 170.732, 229.674 170.732, 231.569 168.838, 231.569 168.838, 229.674 166.943, 229.674 166.943, 227.78"/>
</g>
<g stroke="black" stroke-width="1" fill="none">
<polygon points=" 173.146, 226.887 173.146, 224.992 175.041, 224.992 175.041, 226.887 176.935, 226.887 176.935, 228.781 175.041, 228.781 175.041, 230.676 173.146, 230.676 173.146, 228.781 171.252, 228.781 171.252, 226.887"/>
</g>
<g stroke="black" stroke-width="1" fill="none">
<polygon points=" 177.455, 226.2 177.455, 224.305 179.35, 224.305 179.35, 226.2 181.244, 226.2 181.244, 228.094 179.35, 228.094 179.35, 229.989 177.455, 229.989 177.455, 228.094 175.561, 228.094 175.561, 226.2"/>
</g>
<g stroke="black" stroke-width="1" fill="none">
<polygon points=" 181.764, 225.736 181.764, 223.842 183.658, 223.842 183.658, 225.736 185.553, 225.736 185.553, 227.631 183.658, 227.631 183.658, 229.525 181.764, 229.525 181.764, 227.631 179.869, 227.631 179.869, 225.736"/>
</g>
<g stroke="black" stroke-width="1" fill="none">
<polygon points=" 186.072, 225.434 186.072, 223.539 187.967, 223.539 187.967, 225.434 189.861, 225.434 189.861, 227.328 187.967, 227.328 187.967, 229.223 186.072, 229.223 186.072, 227.328 184.178, 227.328 184.178, 225.434"/>
</g>
<g stroke="black" stroke-width="1" fill="none">
<polygon points=" 190.381, 225.395 190.381, 223.5 192.276, 223.5 192.276, 225.395 194.17, 225.395 194.17, 227.289 192.276, 227.289 192.276, 229.184 190.381, 229.184 190.381, 227.289 188.487, 227.289 188.487, 225.395"/>
</g>
<g stroke="black" stroke-width="1" fill="none">
<polygon points=" 194.69, 225.466 194.69, 223.572 196.584, 223.572 196.584, 225.466 198.479, 225.466 198.479, 227.361 196.584, 227.361 196.584, 229.255 194.69, 229.255 194.69, 227.361 192.795, 227.361 192.795, 225.466"/>
</g>
<g stroke="black" stroke-width="1" fill="none">
<polygon points=" 198.998, 225.813 198.998, 223.918 200.893, 223.918 200.893, 225.813 202.787, 225.813 202.787, 227.707 200.893, 227.707 200.893, 229.602 198.998, 229.602 198.998, 227.707 197.104, 227.707 197.104, 225.813"/>
</g>
<g stroke="black" stroke-width="1" fill="none">
<polygon points=" 203.307, 226.332 203.307, 224.437 205.202, 224.437 205.202, 226.332 207.096, 226.332 207.096, 228.226 205.202, 228.226 205.202, 230.121 203.307, 230.121 203.307, 228.226 201.413, 228.226 201.413, 226.332"/>
</g>
<g stroke="black" stroke-width="1" fill="none">
<polygon points=" 207.616, 227.056 207.616, 225.161 209.51, 225.161 209.51, 227.056 211.405, 227.056 211.405, 228.95 209.51, 228.95 209.51, 230.845 207.616, 230.845 207.616, 228.95 205.721, 228.95 205.721, 227.056"/>
</g>
<g stroke="black" stroke-width="1" fill="none">
<polygon points=" 211.924, 227.976 211.924, 226.081 213.819, 226.081 213.819, 227.976 215.713, 227.976 215.713, 229.87 213.819, 229.87 213.819, 231.765 211.924, 231.765 211.924, 229.87 210.03, 229.87 210.03, 227.976"/>
</g>
<g stroke="black" stroke-width="1" fill="none">
<polygon points=" 216.233, 229.098 216.233, 227.204 218.128, 227.204 218.128, 229.098 220.022, 229.098 220.022, 230.993 218.128, 230.993 218.128, 232.887 216.233, 232.887 216.233, 230.993 214.339, 230.993 214.339, 229.098"/>
</g>
<g stroke="black" stroke-width="1" fill="none">
<polygon points=" 220.542, 230.373 220.542, 228.478 222.436, 228.478 222.436, 230.373 224.331, 230.373 224.331, 232.267 222.436, 232.267 222.436, 234.162 220.542, 234.162 220.542, 232.267 218.647, 232.267 218.647, 230.373"/>
</g>
<g stroke="black" stroke-width="1" fill="none">
<polygon points=" 224.85, 231.829 224.85, 229.935 226.745, 229.935 226.745, 231.829 228.639, 231.829 228.639, 233.724 226.745, 233.724 226.745, 235.618 224.85, 235.618 224.85, 233.724 222.956, 233.724 222.956, 231.829"/>
</g>
<g stroke="black" stroke-width="1" fill="none">
<polygon points=" 229.159, 233.5 229.159, 231.605 231.054, 231.605 231.054, 233.5 232.948, 233.5 232.948, 235.394 231.054, 235.394 231.054, 237.289 229.159, 237.289 229.159, 235.394 227.265, 235.394 227.265, 233.5"/>
</g>
<g stroke="black" stroke-width="1" fill="none">
<polygon points=" 233.468, 235.252 233.468, 233.358 235.362, 233.358 235.362, 235.252 237.257, 235.252 237.257, 237.147 235.362, 237.147 235.362, 239.041 233.468, 239.041 233.468, 237.147 231.573, 237.147 231.573, 235.252"/>
</g>
<g stroke="black" stroke-width="1" fill="none">
<polygon points=" 237.776, 237.122 237.776, 235.227 239.671, 235.227 239.671, 237.122 241.565, 237.122 241.565, 239.016 239.671, 239.016 239.671, 240.911 237.776, 240.911 237.776, 239.016 235.882, 239.016 235.882, 237.122"/>
</g>
<g stroke="black" stroke-width="1" fill="none">
<polygon points=" 242.085, 239.099 242.085, 237.204 243.98, 237.204 243.98, 239.099 245.874, 239.099 245.874, 240.993 243.98, 240.993 243.98, 242.888 242.085, 242.888 242.085, 240.993 240.191, 240.993 240.191, 239.099"/>
</g>
<g stroke="black" stroke-width="1" fill="none">
<polygon points=" 246.394, 241.137 246.394, 239.243 248.288, 239.243 248.288, 241.137 250.183, 241.137 250.183, 243.032 248.288, 243.032 248.288, 244.926 246.394, 244.926 246.394, 243.032 244.499, 243.032 244.499, 241.137"/>
</g>
<g stroke="black" stroke-width="1" fill="none">
<polygon points=" 250.702, 243.225 250.702, 241.33 252.597, 241.33 252.597, 243.225 254.491, 243.225 254.491, 245.119 252.597, 245.119 252.597, 247.014 250.702, 247.014 250.702, 245.119 248.808, 245.119 248.808, 243.225"/>
</g>
<g stroke="black" stroke-width="1" fill="none">
<polygon points=" 255.011, 245.302 255.011, 243.407 256.906, 243.407 256.906, 245.302 258.8, 245.302 258.8, 247.196 256.906, 247.196 256.906, 249.091 255.011, 249.091 255.011, 247.196 253.117, 247.196 253.117, 245.302"/>
</g>
<g stroke="black" stroke-width="1" fill="none">
<polygon points=" 259.32, 247.34 259.32, 245.446 261.214, 245.446 261.214, 247.34 263.109, 247.34 263.109, 249.235 261.214, 249.235 261.214, 251.129 259.32, 251.129 259.32, 249.235 257.425, 249.235 257.425, 247.34"/>
</g>
<g stroke="black" stroke-width="1" fill="none">
<polygon points=" 263.628, 249.283 263.628, 247.389 265.523, 247.389 265.523, 249.283 267.417, 249.283 267.417, 251.178 265.523, 251.178 265.523, 253.072 263.628, 253.072 263.628, 251.178 261.734, 251.178 261.734, 249.283"/>
</g>
<g stroke="black" stroke-width="1" fill="none">
<polygon points=" 267.937, 251.133 267.937, 249.238 269.832, 249.238 269.832, 251.133 271.726, 251.133 271.726, 253.027 269.832, 253.027 269.832, 254.922 267.937, 254.922 267.937, 253.027 266.043, 253.027 266.043, 251.133"/>
</g>
<g stroke="black" stroke-width="1" fill="none">
<polygon points=" 272.246, 252.857 272.246, 250.962 274.14, 250.962 274.14, 252.857 276.035, 252.857 276.035, 254.751 274.14, 254.751 274.14, 256.646 272.246, 256.646 272.246, 254.751 270.351, 254.751 270.351, 252.857"/>
</g>
<g stroke="black" stroke-width="1" fill="none">
<polygon points=" 276.554, 254.396 276.554, 252.502 278.449, 252.502 278.449, 254.396 280.343, 254.396 280.343, 256.291 278.449, 256.291 278.449, 258.185 276.554, 258.185 276.554, 256.291 274.66, 256.291 274.66, 254.396"/>
</g>
<g stroke="black" stroke-width="1" fill="none">
<polygon points=" 280.863, 255.77 280.863, 253.876 282.757, 253.876 282.757, 255.77 284.652, 255.77 284.652, 257.665 282.757, 257.665 282.757, 259.559 280.863, 259.559 280.863, 257.665 278.968, 257.665 278.968, 255.77"/>
</g>
<g stroke="black" stroke-width="1" fill="none">
<polygon points=" 285.172, 256.987 285.172, 255.093 287.066, 255.093 287.066, 256.987 288.961, 256.987 288.961, 258.882 287.066, 258.882 287.066, 260.776 285.172, 260.776 285.172, 258.882 283.277, 258.882 283.277, 256.987"/>
</g>
<g stroke="black" stroke-width="1" fill="none">
<polygon points=" 289.48, 258.004 289.48, 256.11 291.375, 256.11 291.375, 258.004 293.269, 258.004 293.269, 259.899 291.375, 259.899 291.375, 261.793 289.48, 261.793 289.48, 259.899 287.586, 259.899 287.586, 258.004"/>
</g>
<g stroke="black" stroke-width="1" fill="none">
<polygon points=" 293.789, 258.89 293.789, 256.995 295.683, 256.995 295.683, 258.89 297.578, 258.89 297.578, 260.784 295.683, 260.784 295.683, 262.679 293.789, 262.679 293.789, 260.784 291.894, 260.784 291.894, 258.89"/>
</g>
<g stroke="black" stroke-width="1" fill="none">
<polygon points=" 298.098, 259.646 298.098, 257.751 299.992, 257.751 299.992, 259.646 301.887, 259.646 301.887, 261.54 299.992, 261.54 299.992, 263.435 298.098, 263.435 298.098, 261.54 296.203, 261.54 296.203, 259.646"/>
</g>
<g stroke="black" stroke-width="1" fill="none">
<polygon points=" 302.406, 260.289 302.406, 258.394 304.301, 258.394 304.301, 260.289 306.195, 260.289 306.195, 262.183 304.301, 262.183 304.301, 264.078 302.406, 264.078 302.406, 262.183 300.512, 262.183 300.512, 260.289"/>
</g>
<g stroke="black" stroke-width="1" fill="none">
<polygon points=" 306.715, 260.913 306.715, 259.019 308.609, 259.019 308.609, 260.913 310.504, 260.913 310.504, 262.808 308.609, 262.808 308.609, 264.702 306.715, 264.702 306.715, 262.808 304.82, 262.808 304.82, 260.913"/>
</g>
<g stroke="black" stroke-width="1" fill="none">
<polygon points=" 311.024, 261.535 311.024, 259.641 312.918, 259.641 312.918, 261.535 314.813, 261.535 314.813, 263.43 312.918, 263.43 312.918, 265.324 311.024, 265.324 311.024, 263.43 309.129, 263.43 309.129, 261.535"/>
</g>
<g stroke="black" stroke-width="1" fill="none">
<polygon points=" 315.332, 262.125 315.332, 260.23 317.227, 260.23 317.227, 262.125 319.121, 262.125 319.121, 264.019 317.227, 264.019 317.227, 265.914 315.332, 265.914 315.332, 264.019 313.438, 264.019 313.438, 262.125"/>
</g>
<g stroke="black" stroke-width="1" fill="none">
<polygon points=" 319.641, 262.795 319.641, 260.9 321.535, 260.9 321.535, 262.795 323.43, 262.795 323.43, 264.689 321.535, 264.689 321.535, 266.584 319.641, 266.584 319.641, 264.689 317.746, 264.689 317.746, 262.795"/>
</g>
<g stroke="black" stroke-width="1" fill="none">
<polygon points=" 323.95, 263.554 323.95, 261.66 325.844, 261.66 325.844, 263.554 327.739, 263.554 327.739, 265.449 325.844, 265.449 325.844, 267.343 323.95, 267.343 323.95, 265.449 322.055, 265.449 322.055, 263.554"/>
</g>
<g stroke="black" stroke-width="1" fill="none">
<polygon points=" 328.258, 264.374 328.258, 262.479 330.153, 262.479 330.153, 264.374 332.047, 264.374 332.047, 266.268 330.153, 266.268 330.153, 268.163 328.258, 268.163 328.258, 266.268 326.364, 266.268 326.364, 264.374"/>
</g>
<g stroke="black" stroke-width="1" fill="none">
<polygon points=" 332.567, 265.353 332.567, 263.458 334.461, 263.458 334.461, 265.353 336.356, 265.353 336.356, 267.247 334.461, 267.247 334.461, 269.142 332.567, 269.142 332.567, 267.247 330.672, 267.247 330.672, 265.353"/>
</g>
<g stroke="black" stroke-width="1" fill="none">
<polygon points=" 336.876, 266.427 336.876, 264.532 338.77, 264.532 338.77, 266.427 340.665, 266.427 340.665, 268.321 338.77, 268.321 338.77, 270.216 336.876, 270.216 336.876, 268.321 334.981, 268.321 334.981, 266.427"/>
</g>
<g stroke="black" stroke-width="1" fill="none">
<polygon points=" 341.184, 267.684 341.184, 265.789 343.079, 265.789 343.079, 267.684 344.973, 267.684 344.973, 269.578 343.079, 269.578 343.079, 271.473 341.184, 271.473 341.184, 269.578 339.29, 269.578 339.29, 267.684"/>
</g>
<g stroke="black" stroke-width="1" fill="none">
<polygon points=" 345.493, 269.027 345.493, 267.132 347.387, 267.132 347.387, 269.027 349.282, 269.027 349.282, 270.921 347.387, 270.921 347.387, 272.816 345.493, 272.816 345.493, 270.921 343.598, 270.921 343.598, 269.027"/>
</g>
<g stroke="black" stroke-width="1" fill="none">
<polygon points=" 349.802, 270.552 349.802, 268.658 351.696, 268.658 351.696, 270.552 353.591, 270.552 353.591, 272.447 351.696, 272.447 351.696, 274.341 349.802, 274.341 349.802, 272.447 347.907, 272.447 347.907, 270.552"/>
</g>
<g stroke="black" stroke-width="1" fill="none">
<polygon points=" 354.11, 272.245 354.11, 270.351 356.005, 270.351 356.005, 272.245 357.899, 272.245 357.899, 274.14 356.005, 274.14 356.005, 276.034 354.11, 276.034 354.11, 274.14 352.216, 274.14 352.216, 272.245"/>
</g>
<g stroke="black" stroke-width="1" fill="none">
<polygon points=" 358.419, 274.053 358.419, 272.159 360.313, 272.159 360.313, 274.053 362.208, 274.053 362.208, 275.948 360.313, 275.948 360.313, 277.842 358.419, 277.842 358.419, 275.948 356.524, 275.948 356.524, 274.053"/>
</g>
<g stroke="black" stroke-width="1" fill="none">
<polygon points=" 362.728, 276.033 362.728, 274.138 364.622, 274.138 364.622, 276.033 366.517, 276.033 366.517, 277.927 364.622, 277.927 364.622, 279.822 362.728, 279.822 362.728, 277.927 360.833, 277.927 360.833, 276.033"/>
</g>
<g stroke="black" stroke-width="1" fill="none">
<polygon points=" 367.036, 278.145 367.036, 276.25 368.931, 276.25 368.931, 278.145 370.825, 278.145 370.825, 280.039 368.931, 280.039 368.931, 281.934 367.036, 281.934 367.036, 280.039 365.142, 280.039 365.142, 278.145"/>
</g>
<g stroke="black" stroke-width="1" fill="none">
<polygon points=" 371.345, 280.316 371.345, 278.422 373.239, 278.422 373.239, 280.316 375.134, 280.316 375.134, 282.211 373.239, 282.211 373.239, 284.105 371.345, 284.105 371.345, 282.211 369.45, 282.211 369.45, 280.316"/>
</g>
<g stroke="black" stroke-width="1" fill="none">
<polygon points=" 375.654, 282.659 375.654, 280.765 377.548, 280.765 377.548, 282.659 379.443, 282.659 379.443, 284.554 377.548, 284.554 377.548, 286.448 375.654, 286.448 375.654, 284.554 373.759, 284.554 373.759, 282.659"/>
</g>
<g stroke="black" stroke-width="1" fill="none">
<polygon points=" 379.962, 285.115 379.962, 283.221 381.857, 283.221 381.857, 285.115 383.751, 285.115 383.751, 287.01 381.857, 287.01 381.857, 288.904 379.962, 288.904 379.962, 287.01 378.068, 287.01 378.068, 285.115"/>
</g>
<g stroke="black" stroke-width="1" fill="none">
<polygon points=" 384.271, 287.674 384.271, 285.78 386.165, 285.78 386.165, 287.674 388.06, 287.674 388.06, 289.569 386.165, 289.569 386.165, 291.463 384.271, 291.463 384.271, 289.569 382.376, 289.569 382.376, 287.674"/>
</g>
<g stroke="black" stroke-width="1" fill="none">
<polygon points=" 388.58, 290.27 388.58, 288.375 390.474, 288.375 390.474, 290.27 392.369, 290.27 392.369, 292.164 390.474, 292.164 390.474, 294.059 388.58, 294.059 388.58, 292.164 386.685, 292.164 386.685, 290.27"/>
</g>
<g stroke="black" stroke-width="1" fill="none">
<polygon points=" 392.888, 292.984 392.888, 291.09 394.783, 291.09 394.783, 292.984 396.677, 292.984 396.677, 294.879 394.783, 294.879 394.783, 296.773 392.888, 296.773 392.888, 294.879 390.994, 294.879 390.994, 292.984"/>
</g>
<g stroke="black" stroke-width="1" fill="none">
<polygon points=" 397.197, 295.757 397.197, 293.863 399.091, 293.863 399.091, 295.757 400.986, 295.757 400.986, 297.652 399.091, 297.652 399.091, 299.546 397.197, 299.546 397.197, 297.652 395.302, 297.652 395.302, 295.757"/>
</g>
<g stroke="black" stroke-width="1" fill="none">
<polygon points=" 401.505, 298.564 401.505, 296.67 403.4, 296.67 403.4, 298.564 405.294, 298.564 405.294, 300.459 403.4, 300.459 403.4, 302.353 401.505, 302.353 401.505, 300.459 399.611, 300.459 399.611, 298.564"/>
</g>
<g stroke="black" stroke-width="1" fill="none">
<polygon points=" 405.814, 301.42 405.814, 299.525 407.709, 299.525 407.709, 301.42 409.603, 301.42 409.603, 303.314 407.709, 303.314 407.709, 305.209 405.814, 305.209 405.814, 303.314 403.92, 303.314 403.92, 301.42"/>
</g>
<g stroke="black" stroke-width="1" fill="none">
<polygon points=" 410.123, 304.293 410.123, 302.398 412.017, 302.398 412.017, 304.293 413.912, 304.293 413.912, 306.187 412.017, 306.187 412.017, 308.082 410.123, 308.082 410.123, 306.187 408.228, 306.187 408.228, 304.293"/>
</g>
<g stroke="black" stroke-width="1" fill="none">
<polygon points=" 414.431, 307.158 414.431, 305.264 416.326, 305.264 416.326, 307.158 418.22, 307.158 418.22, 309.053 416.326, 309.053 416.326, 310.947 414.431, 310.947 414.431, 309.053 412.537, 309.053 412.537, 307.158"/>
</g>
<g stroke="black" stroke-width="1" fill="none">
<polygon points=" 418.74, 310.019 418.74, 308.124 420.635, 308.124 420.635, 310.019 422.529, 310.019 422.529, 311.913 420.635, 311.913 420.635, 313.808 418.74, 313.808 418.74, 311.913 416.846, 311.913 416.846, 310.019"/>
</g>
<g stroke="black" stroke-width="1" fill="none">
<polygon points=" 423.049, 312.83 423.049, 310.935 424.943, 310.935 424.943, 312.83 426.838, 312.83 426.838, 314.724 424.943, 314.724 424.943, 316.619 423.049, 316.619 423.049, 314.724 421.154, 314.724 421.154, 312.83"/>
</g>
<g stroke="black" stroke-width="1" fill="none">
<polygon points=" 427.357, 315.589 427.357, 313.694 429.252, 313.694 429.252, 315.589 431.146, 315.589 431.146, 317.483 429.252, 317.483 429.252, 319.378 427.357, 319.378 427.357, 317.483 425.463, 317.483 425.463, 315.589"/>
</g>
<g stroke="black" stroke-width="1" fill="none">
<polygon points=" 431.666, 318.303 431.666, 316.409 433.561, 316.409 433.561, 318.303 435.455, 318.303 435.455, 320.198 433.561, 320.198 433.561, 322.092 431.666, 322.092 431.666, 320.198 429.772, 320.198 429.772, 318.303"/>
</g>
<g stroke="black" stroke-width="1" fill="none">
<polygon points=" 435.975, 320.962 435.975, 319.067 437.869, 319.067 437.869, 320.962 439.764, 320.962 439.764, 322.856 437.869, 322.856 437.869, 324.751 435.975, 324.751 435.975, 322.856 434.08, 322.856 434.08, 320.962"/>
</g>
<g stroke="black" stroke-width="1" fill="none">
<polygon points=" 440.283, 323.532 440.283, 321.638 442.178, 321.638 442.178, 323.532 444.072, 323.532 444.072, 325.427 442.178, 325.427 442.178, 327.321 440.283, 327.321 440.283, 325.427 438.389, 325.427 438.389, 323.532"/>
</g>
<g stroke="black" stroke-width="1" fill="none">
<polygon points=" 444.592, 326.029 444.592, 324.135 446.487, 324.135 446.487, 326.029 448.381, 326.029 448.381, 327.924 446.487, 327.924 446.487, 329.818 444.592, 329.818 444.592, 327.924 442.698, 327.924 442.698, 326.029"/>
</g>
<g stroke="black" stroke-width="1" fill="none">
<polygon points=" 448.901, 328.453 448.901, 326.558 450.795, 326.558 450.795, 328.453 452.69, 328.453 452.69, 330.347 450.795, 330.347 450.795, 332.242 448.901, 332.242 448.901, 330.347 447.006, 330.347 447.006, 328.453"/>
</g>
<g stroke="black" stroke-width="1" fill="none">
<polygon points=" 453.209, 330.773 453.209, 328.879 455.104, 328.879 455.104, 330.773 456.998, 330.773 456.998, 332.668 455.104, 332.668 455.104, 334.562 453.209, 334.562 453.209, 332.668 451.315, 332.668 451.315, 330.773"/>
</g>
<g stroke="black" stroke-width="1" fill="none">
<polygon points=" 457.518, 333.033 457.518, 331.138 459.413, 331.138 459.413, 333.033 461.307, 333.033 461.307, 334.927 459.413, 334.927 459.413, 336.822 457.518, 336.822 457.518, 334.927 455.624, 334.927 455.624, 333.033"/>
</g>
<g stroke="black" stroke-width="1" fill="none">
<polygon points=" 461.827, 335.221 461.827, 333.327 463.721, 333.327 463.721, 335.221 465.616, 335.221 465.616, 337.116 463.721, 337.116 463.721, 339.01 461.827, 339.01 461.827, 337.116 459.932, 337.116 459.932, 335.221"/>
</g>
<g stroke="black" stroke-width="1" fill="none">
<polygon points=" 466.135, 337.327 466.135, 335.433 468.03, 335.433 468.03, 337.327 469.924, 337.327 469.924, 339.222 468.03, 339.222 468.03, 341.116 466.135, 341.116 466.135, 339.222 464.241, 339.222 464.241, 337.327"/>
</g>
<g stroke="black" stroke-width="1" fill="none">
<polygon points=" 470.444, 339.342 470.444, 337.447 472.339, 337.447 472.339, 339.342 474.233, 339.342 474.233, 341.236 472.339, 341.236 472.339, 343.131 470.444, 343.131 470.444, 341.236 468.55, 341.236 468.55, 339.342"/>
</g>
<g stroke="black" stroke-width="1" fill="none">
<polygon points=" 474.753, 341.277 474.753, 339.382 476.647, 339.382 476.647, 341.277 478.542, 341.277 478.542, 343.171 476.647, 343.171 476.647, 345.066 474.753, 345.066 474.753, 343.171 472.858, 343.171 472.858, 341.277"/>
</g>
<g stroke="black" stroke-width="1" fill="none">
<polygon points=" 479.061, 343.096 479.061, 341.201 480.956, 341.201 480.956, 343.096 482.85, 343.096 482.85, 344.99 480.956, 344.99 480.956, 346.885 479.061, 346.885 479.061, 344.99 477.167, 344.99 477.167, 343.096"/>
</g>
<g stroke="black" stroke-width="1" fill="none">
<polygon points=" 483.37, 344.827 483.37, 342.932 485.265, 342.932 485.265, 344.827 487.159, 344.827 487.159, 346.721 485.265, 346.721 485.265, 348.616 483.37, 348.616 483.37, 346.721 481.476, 346.721 481.476, 344.827"/>
</g>
<g stroke="black" stroke-width="1" fill="none">
<polygon points=" 487.679, 346.427 487.679, 344.532 489.573, 344.532 489.573, 346.427 491.468, 346.427 491.468, 348.321 489.573, 348.321 489.573, 350.216 487.679, 350.216 487.679, 348.321 485.784, 348.321 485.784, 346.427"/>
</g>
<g stroke="black" stroke-width="1" fill="none">
<polygon points=" 491.987, 347.916 491.987, 346.021 493.882, 346.021 493.882, 347.916 495.776, 347.916 495.776, 349.81 493.882, 349.81 493.882, 351.705 491.987, 351.705 491.987, 349.81 490.093, 349.81 490.093, 347.916"/>
</g>
<g stroke="black" stroke-width="1" fill="none">
<polygon points=" 496.296, 349.289 496.296, 347.394 498.191, 347.394 498.191, 349.289 500.085, 349.289 500.085, 351.183 498.191, 351.183 498.191, 353.078 496.296, 353.078 496.296, 351.183 494.402, 351.183 494.402, 349.289"/>
</g>
<g fill="#00cc00">
<polygon points=" 69.7386, 294.91 69.7386, 293.016 71.6331, 293.016 71.6331, 294.91 73.5276, 294.91 73.5276, 296.805 71.6331, 296.805 71.6331, 298.699 69.7386, 298.699 69.7386, 296.805 67.8441, 296.805 67.8441, 294.91"/>
</g>
<g fill="#00cc00">
<polygon points=" 74.0472, 289.689 74.0472, 287.794 75.9417, 287.794 75.9417, 289.689 77.8362, 289.689 77.8362, 291.583 75.9417, 291.583 75.9417, 293.478 74.0472, 293.478 74.0472, 291.583 72.1527, 291.583 72.1527, 289.689"/>
</g>
<g fill="#00cc00">
<polygon points=" 78.3559, 284.702 78.3559, 282.808 80.2504, 282.808 80.2504, 284.702 82.1449, 284.702 82.1449, 286.597 80.2504, 286.597 80.2504, 288.491 78.3559, 288.491 78.3559, 286.597 76.4614, 286.597 76.4614, 284.702"/>
</g>
<g fill="#00cc00">
<polygon points=" 82.6646, 279.973 82.6646, 278.079 84.5591, 278.079 84.5591, 279.973 86.4536, 279.973 86.4536, 281.868 84.5591, 281.868 84.5591, 283.762 82.6646, 283.762 82.6646, 281.868 80.7701, 281.868 80.7701, 279.973"/>
</g>
<g fill="#00cc00">
<polygon points=" 86.9732, 275.603 86.9732, 273.708 88.8677, 273.708 88.8677, 275.603 90.7622, 275.603 90.7622, 277.497 88.8677, 277.497 88.8677, 279.392 86.9732, 279.392 86.9732, 277.497 85.0787, 277.497 85.0787, 275.603"/>
</g>
<g fill="#00cc00">
<polygon points=" 91.2819, 271.668 91.2819, 269.773 93.1764, 269.773 93.1764, 271.668 95.0709, 271.668 95.0709, 273.562 93.1764, 273.562 93.1764, 275.457 91.2819, 275.457 91.2819, 273.562 89.3874, 273.562 89.3874, 271.668"/>
</g>
<g fill="#00cc00">
<polygon points=" 95.5905, 268.1 95.5905, 266.205 97.485, 266.205 97.485, 268.1 99.3795, 268.1 99.3795, 269.994 97.485, 269.994 97.485, 271.889 95.5905, 271.889 95.5905, 269.994 93.696, 269.994 93.696, 268.1"/>
</g>
<g fill="#00cc00">
<polygon points=" 99.8992, 264.698 99.8992, 262.804 101.794, 262.804 101.794, 264.698 103.688, 264.698 103.688, 266.593 101.794, 266.593 101.794, 268.487 99.8992, 268.487 99.8992, 266.593 98.0047, 266.593 98.0047, 264.698"/>
</g>
<g fill="#00cc00">
<polygon points=" 104.208, 261.536 104.208, 259.642 106.102, 259.642 106.102, 261.536 107.997, 261.536 107.997, 263.431 106.102, 263.431 106.102, 265.325 104.208, 265.325 104.208, 263.431 102.313, 263.431 102.313, 261.536"/>
</g>
<g fill="#00cc00">
<polygon points=" 108.517, 258.487 108.517, 256.592 110.411, 256.592 110.411, 258.487 112.306, 258.487 112.306, 260.381 110.411, 260.381 110.411, 262.276 108.517, 262.276 108.517, 260.381 106.622, 260.381 106.622, 258.487"/>
</g>
<g fill="#00cc00">
<polygon points=" 112.825, 255.794 112.825, 253.9 114.72, 253.9 114.72, 255.794 116.614, 255.794 116.614, 257.689 114.72, 257.689 114.72, 259.583 112.825, 259.583 112.825, 257.689 110.931, 257.689 110.931, 255.794"/>
</g>
<g fill="#00cc00">
<polygon points=" 117.134, 271.531 117.134, 269.637 119.028, 269.637 119.028, 271.531 120.923, 271.531 120.923, 273.426 119.028, 273.426 119.028, 275.32 117.134, 275.32 117.134, 273.426 115.239, 273.426 115.239, 271.531"/>
</g>
<g fill="#00cc00">
<polygon points=" 121.443, 269.503 121.443, 267.609 123.337, 267.609 123.337, 269.503 125.232, 269.503 125.232, 271.398 123.337, 271.398 123.337, 273.292 121.443, 273.292 121.443, 271.398 119.548, 271.398 119.548, 269.503"/>
</g>
<g fill="#00cc00">
<polygon points=" 125.751, 267.544 125.751, 265.65 127.646, 265.65 127.646, 267.544 129.54, 267.544 129.54, 269.439 127.646, 269.439 127.646, 271.333 125.751, 271.333 125.751, 269.439 123.857, 269.439 123.857, 267.544"/>
</g>
<g fill="#00cc00">
<polygon points=" 130.06, 265.751 130.06, 263.856 131.954, 263.856 131.954, 265.751 133.849, 265.751 133.849, 267.645 131.954, 267.645 131.954, 269.54 130.06, 269.54 130.06, 267.645 128.165, 267.645 128.165, 265.751"/>
</g>
<g fill="#00cc00">
<polygon points=" 134.368, 263.962 134.368, 262.068 136.263, 262.068 136.263, 263.962 138.158, 263.962 138.158, 265.857 136.263, 265.857 136.263, 267.751 134.368, 267.751 134.368, 265.857 132.474, 265.857 132.474, 263.962"/>
</g>
<g fill="#00cc00">
<polygon points=" 138.677, 262.302 138.677, 260.407 140.572, 260.407 140.572, 262.302 142.466, 262.302 142.466, 264.196 140.572, 264.196 140.572, 266.091 138.677, 266.091 138.677, 264.196 136.783, 264.196 136.783, 262.302"/>
</g>
<g fill="#00cc00">
<polygon points=" 142.986, 260.707 142.986, 258.812 144.88, 258.812 144.88, 260.707 146.775, 260.707 146.775, 262.601 144.88, 262.601 144.88, 264.496 142.986, 264.496 142.986, 262.601 141.091, 262.601 141.091, 260.707"/>
</g>
<g fill="#00cc00">
<polygon points=" 147.294, 259.262 147.294, 257.367 149.189, 257.367 149.189, 259.262 151.083, 259.262 151.083, 261.156 149.189, 261.156 149.189, 263.051 147.294, 263.051 147.294, 261.156 145.4, 261.156 145.4, 259.262"/>
</g>
<g fill="#00cc00">
<polygon points=" 151.603, 257.848 151.603, 255.953 153.498, 255.953 153.498, 257.848 155.392, 257.848 155.392, 259.742 153.498, 259.742 153.498, 261.637 151.603, 261.637 151.603, 259.742 149.709, 259.742 149.709, 257.848"/>
</g>
<g fill="#00cc00">
<polygon points=" 155.912, 233.042 155.912, 231.147 157.806, 231.147 157.806, 233.042 159.701, 233.042 159.701, 234.936 157.806, 234.936 157.806, 236.831 155.912, 236.831 155.912, 234.936 154.017, 234.936 154.017, 233.042"/>
</g>
<g fill="#00cc00">
<polygon points=" 160.22, 231.307 160.22, 229.412 162.115, 229.412 162.115, 231.307 164.009, 231.307 164.009, 233.201 162.115, 233.201 162.115, 235.096 160.22, 235.096 160.22, 233.201 158.326, 233.201 158.326, 231.307"/>
</g>
<g fill="#00cc00">
<polygon points=" 164.529, 229.736 164.529, 227.841 166.424, 227.841 166.424, 229.736 168.318, 229.736 168.318, 231.63 166.424, 231.63 166.424, 233.525 164.529, 233.525 164.529, 231.63 162.635, 231.63 162.635, 229.736"/>
</g>
<g fill="#00cc00">
<polygon points=" 168.838, 228.255 168.838, 226.361 170.732, 226.361 170.732, 228.255 172.627, 228.255 172.627, 230.15 170.732, 230.15 170.732, 232.044 168.838, 232.044 168.838, 230.15 166.943, 230.15 166.943, 228.255"/>
</g>
<g fill="#00cc00">
<polygon points=" 173.146, 226.916 173.146, 225.022 175.041, 225.022 175.041, 226.916 176.935, 226.916 176.935, 228.811 175.041, 228.811 175.041, 230.705 173.146, 230.705 173.146, 228.811 171.252, 228.811 171.252, 226.916"/>
</g>
<g fill="#00cc00">
<polygon points=" 177.455, 225.934 177.455, 224.039 179.35, 224.039 179.35, 225.934 181.244, 225.934 181.244, 227.828 179.35, 227.828 179.35, 229.723 177.455, 229.723 177.455, 227.828 175.561, 227.828 175.561, 225.934"/>
</g>
<g fill="#00cc00">
<polygon points=" 181.764, 225.125 181.764, 223.23 183.658, 223.23 183.658, 225.125 185.553, 225.125 185.553, 227.019 183.658, 227.019 183.658, 228.914 181.764, 228.914 181.764, 227.019 179.869, 227.019 179.869, 225.125"/>
</g>
<g fill="#00cc00">
<polygon points=" 186.072, 224.229 186.072, 222.334 187.967, 222.334 187.967, 224.229 189.861, 224.229 189.861, 226.123 187.967, 226.123 187.967, 228.018 186.072, 228.018 186.072, 226.123 184.178, 226.123 184.178, 224.229"/>
</g>
<g fill="#00cc00">
<polygon points=" 190.381, 223.801 190.381, 221.906 192.276, 221.906 192.276, 223.801 194.17, 223.801 194.17, 225.695 192.276, 225.695 192.276, 227.59 190.381, 227.59 190.381, 225.695 188.487, 225.695 188.487, 223.801"/>
</g>
<g fill="#00cc00">
<polygon points=" 194.69, 223.389 194.69, 221.494 196.584, 221.494 196.584, 223.389 198.479, 223.389 198.479, 225.283 196.584, 225.283 196.584, 227.178 194.69, 227.178 194.69, 225.283 192.795, 225.283 192.795, 223.389"/>
</g>
<g fill="#00cc00">
<polygon points=" 198.998, 223.291 198.998, 221.396 200.893, 221.396 200.893, 223.291 202.787, 223.291 202.787, 225.185 200.893, 225.185 200.893, 227.08 198.998, 227.08 198.998, 225.185 197.104, 225.185 197.104, 223.291"/>
</g>
<g fill="#00cc00">
<polygon points=" 203.307, 223.482 203.307, 221.587 205.202, 221.587 205.202, 223.482 207.096, 223.482 207.096, 225.376 205.202, 225.376 205.202, 227.271 203.307, 227.271 203.307, 225.376 201.413, 225.376 201.413, 223.482"/>
</g>
<g fill="#00cc00">
<polygon points=" 207.616, 223.794 207.616, 221.899 209.51, 221.899 209.51, 223.794 211.405, 223.794 211.405, 225.688 209.51, 225.688 209.51, 227.583 207.616, 227.583 207.616, 225.688 205.721, 225.688 205.721, 223.794"/>
</g>
<g fill="#00cc00">
<polygon points=" 211.924, 224.344 211.924, 222.45 213.819, 222.45 213.819, 224.344 215.713, 224.344 215.713, 226.239 213.819, 226.239 213.819, 228.133 211.924, 228.133 211.924, 226.239 210.03, 226.239 210.03, 224.344"/>
</g>
<g fill="#00cc00">
<polygon points=" 216.233, 225.067 216.233, 223.173 218.128, 223.173 218.128, 225.067 220.022, 225.067 220.022, 226.962 218.128, 226.962 218.128, 228.856 216.233, 228.856 216.233, 226.962 214.339, 226.962 214.339, 225.067"/>
</g>
<g fill="#00cc00">
<polygon points=" 220.542, 225.962 220.542, 224.067 222.436, 224.067 222.436, 225.962 224.331, 225.962 224.331, 227.856 222.436, 227.856 222.436, 229.751 220.542, 229.751 220.542, 227.856 218.647, 227.856 218.647, 225.962"/>
</g>
<g fill="#00cc00">
<polygon points=" 224.85, 227.152 224.85, 225.257 226.745, 225.257 226.745, 227.152 228.639, 227.152 228.639, 229.046 226.745, 229.046 226.745, 230.941 224.85, 230.941 224.85, 229.046 222.956, 229.046 222.956, 227.152"/>
</g>
<g fill="#00cc00">
<polygon points=" 229.159, 228.499 229.159, 226.604 231.054, 226.604 231.054, 228.499 232.948, 228.499 232.948, 230.393 231.054, 230.393 231.054, 232.288 229.159, 232.288 229.159, 230.393 227.265, 230.393 227.265, 228.499"/>
</g>
<g fill="#00cc00">
<polygon points=" 233.468, 229.968 233.468, 228.074 235.362, 228.074 235.362, 229.968 237.257, 229.968 237.257, 231.863 235.362, 231.863 235.362, 233.757 233.468, 233.757 233.468, 231.863 231.573, 231.863 231.573, 229.968"/>
</g>
<g fill="#00cc00">
<polygon points=" 237.776, 231.576 237.776, 229.681 239.671, 229.681 239.671, 231.576 241.565, 231.576 241.565, 233.47 239.671, 233.47 239.671, 235.365 237.776, 235.365 237.776, 233.47 235.882, 233.47 235.882, 231.576"/>
</g>
<g fill="#00cc00">
<polygon points=" 242.085, 233.304 242.085, 231.409 243.98, 231.409 243.98, 233.304 245.874, 233.304 245.874, 235.198 243.98, 235.198 243.98, 237.093 242.085, 237.093 242.085, 235.198 240.191, 235.198 240.191, 233.304"/>
</g>
<g fill="#00cc00">
<polygon points=" 246.394, 235.025 246.394, 233.13 248.288, 233.13 248.288, 235.025 250.183, 235.025 250.183, 236.919 248.288, 236.919 248.288, 238.814 246.394, 238.814 246.394, 236.919 244.499, 236.919 244.499, 235.025"/>
</g>
<g fill="#00cc00">
<polygon points=" 250.702, 236.878 250.702, 234.983 252.597, 234.983 252.597, 236.878 254.491, 236.878 254.491, 238.772 252.597, 238.772 252.597, 240.667 250.702, 240.667 250.702, 238.772 248.808, 238.772 248.808, 236.878"/>
</g>
<g fill="#00cc00">
<polygon points=" 255.011, 238.708 255.011, 236.813 256.906, 236.813 256.906, 238.708 258.8, 238.708 258.8, 240.602 256.906, 240.602 256.906, 242.497 255.011, 242.497 255.011, 240.602 253.117, 240.602 253.117, 238.708"/>
</g>
<g fill="#00cc00">
<polygon points=" 259.32, 240.484 259.32, 238.59 261.214, 238.59 261.214, 240.484 263.109, 240.484 263.109, 242.379 261.214, 242.379 261.214, 244.273 259.32, 244.273 259.32, 242.379 257.425, 242.379 257.425, 240.484"/>
</g>
<g fill="#00cc00">
<polygon points=" 263.628, 242.174 263.628, 240.279 265.523, 240.279 265.523, 242.174 267.417, 242.174 267.417, 244.068 265.523, 244.068 265.523, 245.963 263.628, 245.963 263.628, 244.068 261.734, 244.068 261.734, 242.174"/>
</g>
<g fill="#00cc00">
<polygon points=" 267.937, 243.798 267.937, 241.903 269.832, 241.903 269.832, 243.798 271.726, 243.798 271.726, 245.692 269.832, 245.692 269.832, 247.587 267.937, 247.587 267.937, 245.692 266.043, 245.692 266.043, 243.798"/>
</g>
<g fill="#00cc00">
<polygon points=" 272.246, 245.246 272.246, 243.352 274.14, 243.352 274.14, 245.246 276.035, 245.246 276.035, 247.141 274.14, 247.141 274.14, 249.035 272.246, 249.035 272.246, 247.141 270.351, 247.141 270.351, 245.246"/>
</g>
<g fill="#00cc00">
<polygon points=" 276.554, 246.542 276.554, 244.647 278.449, 244.647 278.449, 246.542 280.343, 246.542 280.343, 248.436 278.449, 248.436 278.449, 250.331 276.554, 250.331 276.554, 248.436 274.66, 248.436 274.66, 246.542"/>
</g>
<g fill="#00cc00">
<polygon points=" 280.863, 247.632 280.863, 245.738 282.757, 245.738 282.757, 247.632 284.652, 247.632 284.652, 249.527 282.757, 249.527 282.757, 251.421 280.863, 251.421 280.863, 249.527 278.968, 249.527 278.968, 247.632"/>
</g>
<g fill="#00cc00">
<polygon points=" 285.172, 248.482 285.172, 246.588 287.066, 246.588 287.066, 248.482 288.961, 248.482 288.961, 250.377 287.066, 250.377 287.066, 252.271 285.172, 252.271 285.172, 250.377 283.277, 250.377 283.277, 248.482"/>
</g>
<g fill="#00cc00">
<polygon points=" 289.48, 249.165 289.48, 247.271 291.375, 247.271 291.375, 249.165 293.269, 249.165 293.269, 251.06 291.375, 251.06 291.375, 252.954 289.48, 252.954 289.48, 251.06 287.586, 251.06 287.586, 249.165"/>
</g>
<g fill="#00cc00">
<polygon points=" 293.789, 249.73 293.789, 247.835 295.683, 247.835 295.683, 249.73 297.578, 249.73 297.578, 251.624 295.683, 251.624 295.683, 253.519 293.789, 253.519 293.789, 251.624 291.894, 251.624 291.894, 249.73"/>
</g>
<g fill="#00cc00">
<polygon points=" 298.098, 250.095 298.098, 248.201 299.992, 248.201 299.992, 250.095 301.887, 250.095 301.887, 251.99 299.992, 251.99 299.992, 253.884 298.098, 253.884 298.098, 251.99 296.203, 251.99 296.203, 250.095"/>
</g>
<g fill="#00cc00">
<polygon points=" 302.406, 250.289 302.406, 248.394 304.301, 248.394 304.301, 250.289 306.195, 250.289 306.195, 252.183 304.301, 252.183 304.301, 254.078 302.406, 254.078 302.406, 252.183 300.512, 252.183 300.512, 250.289"/>
</g>
<g fill="#00cc00">
<polygon points=" 306.715, 250.551 306.715, 248.657 308.609, 248.657 308.609, 250.551 310.504, 250.551 310.504, 252.446 308.609, 252.446 308.609, 254.34 306.715, 254.34 306.715, 252.446 304.82, 252.446 304.82, 250.551"/>
</g>
<g fill="#00cc00">
<polygon points=" 311.024, 250.727 311.024, 248.833 312.918, 248.833 312.918, 250.727 314.813, 250.727 314.813, 252.622 312.918, 252.622 312.918, 254.516 311.024, 254.516 311.024, 252.622 309.129, 252.622 309.129, 250.727"/>
</g>
<g fill="#00cc00">
<polygon points=" 315.332, 250.907 315.332, 249.013 317.227, 249.013 317.227, 250.907 319.121, 250.907 319.121, 252.802 317.227, 252.802 317.227, 254.696 315.332, 254.696 315.332, 252.802 313.438, 252.802 313.438, 250.907"/>
</g>
<g fill="#00cc00">
<polygon points=" 319.641, 251.087 319.641, 249.193 321.535, 249.193 321.535, 251.087 323.43, 251.087 323.43, 252.982 321.535, 252.982 321.535, 254.876 319.641, 254.876 319.641, 252.982 317.746, 252.982 317.746, 251.087"/>
</g>
<g fill="#00cc00">
<polygon points=" 323.95, 251.308 323.95, 249.414 325.844, 249.414 325.844, 251.308 327.739, 251.308 327.739, 253.203 325.844, 253.203 325.844, 255.097 323.95, 255.097 323.95, 253.203 322.055, 253.203 322.055, 251.308"/>
</g>
<g fill="#00cc00">
<polygon points=" 328.258, 251.792 328.258, 249.898 330.153, 249.898 330.153, 251.792 332.047, 251.792 332.047, 253.687 330.153, 253.687 330.153, 255.581 328.258, 255.581 328.258, 253.687 326.364, 253.687 326.364, 251.792"/>
</g>
<g fill="#00cc00">
<polygon points=" 332.567, 252.324 332.567, 250.43 334.461, 250.43 334.461, 252.324 336.356, 252.324 336.356, 254.219 334.461, 254.219 334.461, 256.113 332.567, 256.113 332.567, 254.219 330.672, 254.219 330.672, 252.324"/>
</g>
<g fill="#00cc00">
<polygon points=" 336.876, 252.932 336.876, 251.038 338.77, 251.038 338.77, 252.932 340.665, 252.932 340.665, 254.827 338.77, 254.827 338.77, 256.721 336.876, 256.721 336.876, 254.827 334.981, 254.827 334.981, 252.932"/>
</g>
<g fill="#00cc00">
<polygon points=" 341.184, 253.818 341.184, 251.924 343.079, 251.924 343.079, 253.818 344.973, 253.818 344.973, 255.713 343.079, 255.713 343.079, 257.607 341.184, 257.607 341.184, 255.713 339.29, 255.713 339.29, 253.818"/>
</g>
<g fill="#00cc00">
<polygon points=" 345.493, 254.714 345.493, 252.819 347.387, 252.819 347.387, 254.714 349.282, 254.714 349.282, 256.608 347.387, 256.608 347.387, 258.503 345.493, 258.503 345.493, 256.608 343.598, 256.608 343.598, 254.714"/>
</g>
<g fill="#00cc00">
<polygon points=" 349.802, 255.898 349.802, 254.004 351.696, 254.004 351.696, 255.898 353.591, 255.898 353.591, 257.793 351.696, 257.793 351.696, 259.688 349.802, 259.688 349.802, 257.793 347.907, 257.793 347.907, 255.898"/>
</g>
<g fill="#00cc00">
<polygon points=" 354.11, 257.193 354.11, 255.299 356.005, 255.299 356.005, 257.193 357.899, 257.193 357.899, 259.088 356.005, 259.088 356.005, 260.982 354.11, 260.982 354.11, 259.088 352.216, 259.088 352.216, 257.193"/>
</g>
<g fill="#00cc00">
<polygon points=" 358.419, 258.66 358.419, 256.765 360.313, 256.765 360.313, 258.66 362.208, 258.66 362.208, 260.554 360.313, 260.554 360.313, 262.449 358.419, 262.449 358.419, 260.554 356.524, 260.554 356.524, 258.66"/>
</g>
<g fill="#00cc00">
<polygon points=" 362.728, 260.412 362.728, 258.518 364.622, 258.518 364.622, 260.412 366.517, 260.412 366.517, 262.307 364.622, 262.307 364.622, 264.201 362.728, 264.201 362.728, 262.307 360.833, 262.307 360.833, 260.412"/>
</g>
<g fill="#00cc00">
<polygon points=" 367.036, 262.208 367.036, 260.314 368.931, 260.314 368.931, 262.208 370.825, 262.208 370.825, 264.103 368.931, 264.103 368.931, 265.997 367.036, 265.997 367.036, 264.103 365.142, 264.103 365.142, 262.208"/>
</g>
<g fill="#00cc00">
<polygon points=" 371.345, 264.109 371.345, 262.215 373.239, 262.215 373.239, 264.109 375.134, 264.109 375.134, 266.004 373.239, 266.004 373.239, 267.898 371.345, 267.898 371.345, 266.004 369.45, 266.004 369.45, 264.109"/>
</g>
<g fill="#00cc00">
<polygon points=" 375.654, 266.323 375.654, 264.429 377.548, 264.429 377.548, 266.323 379.443, 266.323 379.443, 268.218 377.548, 268.218 377.548, 270.112 375.654, 270.112 375.654, 268.218 373.759, 268.218 373.759, 266.323"/>
</g>
<g fill="#00cc00">
<polygon points=" 379.962, 268.558 379.962, 266.664 381.857, 266.664 381.857, 268.558 383.751, 268.558 383.751, 270.453 381.857, 270.453 381.857, 272.347 379.962, 272.347 379.962, 270.453 378.068, 270.453 378.068, 268.558"/>
</g>
<g fill="#00cc00">
<polygon points=" 384.271, 270.999 384.271, 269.104 386.165, 269.104 386.165, 270.999 388.06, 270.999 388.06, 272.893 386.165, 272.893 386.165, 274.788 384.271, 274.788 384.271, 272.893 382.376, 272.893 382.376, 270.999"/>
</g>
<g fill="#00cc00">
<polygon points=" 388.58, 273.475 388.58, 271.58 390.474, 271.58 390.474, 273.475 392.369, 273.475 392.369, 275.369 390.474, 275.369 390.474, 277.264 388.58, 277.264 388.58, 275.369 386.685, 275.369 386.685, 273.475"/>
</g>
<g fill="#00cc00">
<polygon points=" 392.888, 276.183 392.888, 274.288 394.783, 274.288 394.783, 276.183 396.677, 276.183 396.677, 278.077 394.783, 278.077 394.783, 279.972 392.888, 279.972 392.888, 278.077 390.994, 278.077 390.994, 276.183"/>
</g>
<g fill="#00cc00">
<polygon points=" 397.197, 278.973 397.197, 277.078 399.091, 277.078 399.091, 278.973 400.986, 278.973 400.986, 280.867 399.091, 280.867 399.091, 282.762 397.197, 282.762 397.197, 280.867 395.302, 280.867 395.302, 278.973"/>
</g>
<g fill="#00cc00">
<polygon points=" 401.505, 281.777 401.505, 279.883 403.4, 279.883 403.4, 281.777 405.294, 281.777 405.294, 283.672 403.4, 283.672 403.4, 285.566 401.505, 285.566 401.505, 283.672 399.611, 283.672 399.611, 281.777"/>
</g>
<g fill="#00cc00">
<polygon points=" 405.814, 284.726 405.814, 282.832 407.709, 282.832 407.709, 284.726 409.603, 284.726 409.603, 286.621 407.709, 286.621 407.709, 288.515 405.814, 288.515 405.814, 286.621 403.92, 286.621 403.92, 284.726"/>
</g>
<g fill="#00cc00">
<polygon points=" 410.123, 287.686 410.123, 285.791 412.017, 285.791 412.017, 287.686 413.912, 287.686 413.912, 289.58 412.017, 289.58 412.017, 291.475 410.123, 291.475 410.123, 289.58 408.228, 289.58 408.228, 287.686"/>
</g>
<g fill="#00cc00">
<polygon points=" 414.431, 290.72 414.431, 288.825 416.326, 288.825 416.326, 290.72 418.22, 290.72 418.22, 292.614 416.326, 292.614 416.326, 294.509 414.431, 294.509 414.431, 292.614 412.537, 292.614 412.537, 290.72"/>
</g>
<g fill="#00cc00">
<polygon points=" 418.74, 293.735 418.74, 291.84 420.635, 291.84 420.635, 293.735 422.529, 293.735 422.529, 295.629 420.635, 295.629 420.635, 297.524 418.74, 297.524 418.74, 295.629 416.846, 295.629 416.846, 293.735"/>
</g>
<g fill="#00cc00">
<polygon points=" 423.049, 296.771 423.049, 294.877 424.943, 294.877 424.943, 296.771 426.838, 296.771 426.838, 298.666 424.943, 298.666 424.943, 300.56 423.049, 300.56 423.049, 298.666 421.154, 298.666 421.154, 296.771"/>
</g>
<g fill="#00cc00">
<polygon points=" 427.357, 299.821 427.357, 297.926 429.252, 297.926 429.252, 299.821 431.146, 299.821 431.146, 301.715 429.252, 301.715 429.252, 303.61 427.357, 303.61 427.357, 301.715 425.463, 301.715 425.463, 299.821"/>
</g>
<g fill="#00cc00">
<polygon points=" 431.666, 302.864 431.666, 300.97 433.561, 300.97 433.561, 302.864 435.455, 302.864 435.455, 304.759 433.561, 304.759 433.561, 306.653 431.666, 306.653 431.666, 304.759 429.772, 304.759 429.772, 302.864"/>
</g>
<g fill="#00cc00">
<polygon points=" 435.975, 305.79 435.975, 303.895 437.869, 303.895 437.869, 305.79 439.764, 305.79 439.764, 307.684 437.869, 307.684 437.869, 309.579 435.975, 309.579 435.975, 307.684 434.08, 307.684 434.08, 305.79"/>
</g>
<g fill="#00cc00">
<polygon points=" 440.283, 308.708 440.283, 306.813 442.178, 306.813 442.178, 308.708 444.072, 308.708 444.072, 310.602 442.178, 310.602 442.178, 312.497 440.283, 312.497 440.283, 310.602 438.389, 310.602 438.389, 308.708"/>
</g>
<g fill="#00cc00">
<polygon points=" 444.592, 311.606 444.592, 309.712 446.487, 309.712 446.487, 311.606 448.381, 311.606 448.381, 313.501 446.487, 313.501 446.487, 315.395 444.592, 315.395 444.592, 313.501 442.698, 313.501 442.698, 311.606"/>
</g>
<g fill="#00cc00">
<polygon points=" 448.901, 314.461 448.901, 312.566 450.795, 312.566 450.795, 314.461 452.69, 314.461 452.69, 316.355 450.795, 316.355 450.795, 318.25 448.901, 318.25 448.901, 316.355 447.006, 316.355 447.006, 314.461"/>
</g>
<g fill="#00cc00">
<polygon points=" 453.209, 317.185 453.209, 315.291 455.104, 315.291 455.104, 317.185 456.998, 317.185 456.998, 319.08 455.104, 319.08 455.104, 320.974 453.209, 320.974 453.209, 319.08 451.315, 319.08 451.315, 317.185"/>
</g>
<g fill="#00cc00">
<polygon points=" 457.518, 319.997 457.518, 318.103 459.413, 318.103 459.413, 319.997 461.307, 319.997 461.307, 321.892 459.413, 321.892 459.413, 323.786 457.518, 323.786 457.518, 321.892 455.624, 321.892 455.624, 319.997"/>
</g>
<g fill="#00cc00">
<polygon points=" 461.827, 322.722 461.827, 320.828 463.721, 320.828 463.721, 322.722 465.616, 322.722 465.616, 324.617 463.721, 324.617 463.721, 326.511 461.827, 326.511 461.827, 324.617 459.932, 324.617 459.932, 322.722"/>
</g>
<g fill="#00cc00">
<polygon points=" 466.135, 325.468 466.135, 323.573 468.03, 323.573 468.03, 325.468 469.924, 325.468 469.924, 327.362 468.03, 327.362 468.03, 329.257 466.135, 329.257 466.135, 327.362 464.241, 327.362 464.241, 325.468"/>
</g>
<g fill="#00cc00">
<polygon points=" 470.444, 328.156 470.444, 326.262 472.339, 326.262 472.339, 328.156 474.233, 328.156 474.233, 330.051 472.339, 330.051 472.339, 331.945 470.444, 331.945 470.444, 330.051 468.55, 330.051 468.55, 328.156"/>
</g>
<g fill="#00cc00">
<polygon points=" 474.753, 330.85 474.753, 328.955 476.647, 328.955 476.647, 330.85 478.542, 330.85 478.542, 332.744 476.647, 332.744 476.647, 334.639 474.753, 334.639 474.753, 332.744 472.858, 332.744 472.858, 330.85"/>
</g>
<g fill="#00cc00">
<polygon points=" 479.061, 333.422 479.061, 331.527 480.956, 331.527 480.956, 333.422 482.85, 333.422 482.85, 335.316 480.956, 335.316 480.956, 337.211 479.061, 337.211 479.061, 335.316 477.167, 335.316 477.167, 333.422"/>
</g>
<g fill="#00cc00">
<polygon points=" 483.37, 335.942 483.37, 334.048 485.265, 334.048 485.265, 335.942 487.159, 335.942 487.159, 337.837 485.265, 337.837 485.265, 339.731 483.37, 339.731 483.37, 337.837 481.476, 337.837 481.476, 335.942"/>
</g>
<g fill="#00cc00">
<polygon points=" 487.679, 338.373 487.679, 336.479 489.573, 336.479 489.573, 338.373 491.468, 338.373 491.468, 340.268 489.573, 340.268 489.573, 342.162 487.679, 342.162 487.679, 340.268 485.784, 340.268 485.784, 338.373"/>
</g>
<g fill="#00cc00">
<polygon points=" 491.987, 340.658 491.987, 338.763 493.882, 338.763 493.882, 340.658 495.776, 340.658 495.776, 342.552 493.882, 342.552 493.882, 344.447 491.987, 344.447 491.987, 342.552 490.093, 342.552 490.093, 340.658"/>
</g>
<g fill="#00cc00">
<polygon points=" 496.296, 342.808 496.296, 340.913 498.191, 340.913 498.191, 342.808 500.085, 342.808 500.085, 344.702 498.191, 344.702 498.191, 346.597 496.296, 346.597 496.296, 344.702 494.402, 344.702 494.402, 342.808"/>
</g>
<text xml:space="preserve" x="90.7256" y="62.5185" fill="black" font-size="19.2386" font-family="Helvetica">PYTHIA8, p+Au 200 GeV with option3</text>
<text xml:space="preserve" x="276.15" y="103.013" fill="black" font-size="12.9924" font-family="Helvetica">T</text>
<text xml:space="preserve" x="164.611" y="93.0673" fill="black" font-size="19.2386" font-family="Helvetica">, integrated p</text>
<text xml:space="preserve" x="157.507" y="86.6734" fill="black" font-size="12.9924" font-family="Times">&#0177;</text>
<text xml:space="preserve" x="136.194" y="93.0673" fill="black" font-size="19.2386" font-family="Helvetica">, p</text>
<text xml:space="preserve" x="129.089" y="84.5421" fill="black" font-size="12.9924" font-family="Times">&#0177;</text>
<text xml:space="preserve" x="108.487" y="93.0673" fill="black" font-size="19.2386" font-family="Helvetica">, k</text>
<text xml:space="preserve" x="101.382" y="86.6734" fill="black" font-size="12.9924" font-family="Times">&#0177;</text>
<text xml:space="preserve" x="90.7256" y="93.0673" fill="black" font-size="19.2386" font-family="Times">&#0960;</text>
<text xml:space="preserve" x="141.877" y="124.327" fill="black" font-size="19.2386" font-family="Helvetica">cent: 60~80%</text>
<g fill="#00cc00">
<polygon points=" 112.939, 116.497 112.939, 114.602 114.833, 114.602 114.833, 116.497 116.728, 116.497 116.728, 118.391 114.833, 118.391 114.833, 120.286 112.939, 120.286 112.939, 118.391 111.044, 118.391 111.044, 116.497"/>
</g>
<text xml:space="preserve" x="141.877" y="154.875" fill="black" font-size="19.2386" font-family="Helvetica">MB events(all inelastic)</text>
<g stroke="black" stroke-width="1" fill="none">
<polygon points=" 112.939, 147.135 112.939, 145.24 114.833, 145.24 114.833, 147.135 116.728, 147.135 116.728, 149.029 114.833, 149.029 114.833, 150.924 112.939, 150.924 112.939, 149.029 111.044, 149.029 111.044, 147.135"/>
</g></svg>
