<?xml version="1.0" standalone="no"?>
<svg width="567.429" height="409.002" viewBox="0 0 567.429 409.002" xmlns="http://www.w3.org/2000/svg" shape-rendering="crispEdges">
<title>
/Users/jinhyunpark/npl/gitHub/Centrality_dependent_BiasCorrection/plots/dNdeta_charge_all2byCent_cent2.svg
</title>
<desc>
Creator: ROOT Version 6.28/04
CreationDate: Tue Oct 10 11:38:35 2023</desc>
<defs>
</defs>
<rect x="0.5" y="0" width="566.929" height="408.502" fill="white"/>
<rect x="57.1929" y="20.4251" width="453.543" height="339.056" fill="white"/>
<rect x="57.1929" y="20.4251" width="453.543" height="339.056" fill="none" stroke="black"/>
<rect x="57.1929" y="20.4251" width="453.543" height="339.056" fill="white"/>
<rect x="57.1929" y="20.4251" width="453.543" height="339.056" fill="none" stroke="black"/>
<path d="M57.1929,359.481h 453.543" fill="none" stroke="black"/>
<path d="M57.1929,349.677v 9.80404" fill="none" stroke="black"/>
<path d="M66.2638,354.579v 4.90202" fill="none" stroke="black"/>
<path d="M75.3346,354.579v 4.90202" fill="none" stroke="black"/>
<path d="M84.4055,354.579v 4.90202" fill="none" stroke="black"/>
<path d="M93.4764,354.579v 4.90202" fill="none" stroke="black"/>
<path d="M102.547,349.677v 9.80404" fill="none" stroke="black"/>
<path d="M111.618,354.579v 4.90202" fill="none" stroke="black"/>
<path d="M120.689,354.579v 4.90202" fill="none" stroke="black"/>
<path d="M129.76,354.579v 4.90202" fill="none" stroke="black"/>
<path d="M138.831,354.579v 4.90202" fill="none" stroke="black"/>
<path d="M147.902,349.677v 9.80404" fill="none" stroke="black"/>
<path d="M156.972,354.579v 4.90202" fill="none" stroke="black"/>
<path d="M166.043,354.579v 4.90202" fill="none" stroke="black"/>
<path d="M175.114,354.579v 4.90202" fill="none" stroke="black"/>
<path d="M184.185,354.579v 4.90202" fill="none" stroke="black"/>
<path d="M193.256,349.677v 9.80404" fill="none" stroke="black"/>
<path d="M202.327,354.579v 4.90202" fill="none" stroke="black"/>
<path d="M211.398,354.579v 4.90202" fill="none" stroke="black"/>
<path d="M220.469,354.579v 4.90202" fill="none" stroke="black"/>
<path d="M229.539,354.579v 4.90202" fill="none" stroke="black"/>
<path d="M238.61,349.677v 9.80404" fill="none" stroke="black"/>
<path d="M247.681,354.579v 4.90202" fill="none" stroke="black"/>
<path d="M256.752,354.579v 4.90202" fill="none" stroke="black"/>
<path d="M265.823,354.579v 4.90202" fill="none" stroke="black"/>
<path d="M274.894,354.579v 4.90202" fill="none" stroke="black"/>
<path d="M283.965,349.677v 9.80404" fill="none" stroke="black"/>
<path d="M293.035,354.579v 4.90202" fill="none" stroke="black"/>
<path d="M302.106,354.579v 4.90202" fill="none" stroke="black"/>
<path d="M311.177,354.579v 4.90202" fill="none" stroke="black"/>
<path d="M320.248,354.579v 4.90202" fill="none" stroke="black"/>
<path d="M329.319,349.677v 9.80404" fill="none" stroke="black"/>
<path d="M338.39,354.579v 4.90202" fill="none" stroke="black"/>
<path d="M347.461,354.579v 4.90202" fill="none" stroke="black"/>
<path d="M356.531,354.579v 4.90202" fill="none" stroke="black"/>
<path d="M365.602,354.579v 4.90202" fill="none" stroke="black"/>
<path d="M374.673,349.677v 9.80404" fill="none" stroke="black"/>
<path d="M383.744,354.579v 4.90202" fill="none" stroke="black"/>
<path d="M392.815,354.579v 4.90202" fill="none" stroke="black"/>
<path d="M401.886,354.579v 4.90202" fill="none" stroke="black"/>
<path d="M410.957,354.579v 4.90202" fill="none" stroke="black"/>
<path d="M420.028,349.677v 9.80404" fill="none" stroke="black"/>
<path d="M429.098,354.579v 4.90202" fill="none" stroke="black"/>
<path d="M438.169,354.579v 4.90202" fill="none" stroke="black"/>
<path d="M447.24,354.579v 4.90202" fill="none" stroke="black"/>
<path d="M456.311,354.579v 4.90202" fill="none" stroke="black"/>
<path d="M465.382,349.677v 9.80404" fill="none" stroke="black"/>
<path d="M474.453,354.579v 4.90202" fill="none" stroke="black"/>
<path d="M483.524,354.579v 4.90202" fill="none" stroke="black"/>
<path d="M492.594,354.579v 4.90202" fill="none" stroke="black"/>
<path d="M501.665,354.579v 4.90202" fill="none" stroke="black"/>
<path d="M510.736,349.677v 9.80404" fill="none" stroke="black"/>
<text xml:space="preserve" x="56.6246" y="372.269" fill="black" font-size="13.617" font-family="Helvetica">5</text>
<text xml:space="preserve" x="48.8097" y="372.269" fill="black" font-size="13.617" font-family="Times">&#8722;</text>
<text xml:space="preserve" x="102.093" y="372.269" fill="black" font-size="13.617" font-family="Helvetica">4</text>
<text xml:space="preserve" x="94.2777" y="372.269" fill="black" font-size="13.617" font-family="Times">&#8722;</text>
<text xml:space="preserve" x="147.561" y="372.269" fill="black" font-size="13.617" font-family="Helvetica">3</text>
<text xml:space="preserve" x="139.746" y="372.269" fill="black" font-size="13.617" font-family="Times">&#8722;</text>
<text xml:space="preserve" x="193.029" y="372.269" fill="black" font-size="13.617" font-family="Helvetica">2</text>
<text xml:space="preserve" x="185.214" y="372.269" fill="black" font-size="13.617" font-family="Times">&#8722;</text>
<text xml:space="preserve" x="239.207" y="372.269" fill="black" font-size="13.617" font-family="Helvetica">1</text>
<text xml:space="preserve" x="232.103" y="372.269" fill="black" font-size="13.617" font-family="Times">&#8722;</text>
<text xml:space="preserve" x="280.412" y="372.269" fill="black" font-size="13.617" font-family="Helvetica">0</text>
<text xml:space="preserve" x="325.88" y="372.269" fill="black" font-size="13.617" font-family="Helvetica">1</text>
<text xml:space="preserve" x="370.638" y="372.269" fill="black" font-size="13.617" font-family="Helvetica">2</text>
<text xml:space="preserve" x="416.106" y="372.269" fill="black" font-size="13.617" font-family="Helvetica">3</text>
<text xml:space="preserve" x="461.574" y="372.269" fill="black" font-size="13.617" font-family="Helvetica">4</text>
<text xml:space="preserve" x="507.042" y="372.269" fill="black" font-size="13.617" font-family="Helvetica">5</text>
<text xml:space="preserve" x="502.779" y="384.347" fill="black" font-size="13.617" font-family="Times">&#0951;</text>
<path d="M57.1929,20.4251h 453.543" fill="none" stroke="black"/>
<path d="M57.1929,30.2291v -9.80404" fill="none" stroke="black"/>
<path d="M66.2638,25.3271v -4.90202" fill="none" stroke="black"/>
<path d="M75.3346,25.3271v -4.90202" fill="none" stroke="black"/>
<path d="M84.4055,25.3271v -4.90202" fill="none" stroke="black"/>
<path d="M93.4764,25.3271v -4.90202" fill="none" stroke="black"/>
<path d="M102.547,30.2291v -9.80404" fill="none" stroke="black"/>
<path d="M111.618,25.3271v -4.90202" fill="none" stroke="black"/>
<path d="M120.689,25.3271v -4.90202" fill="none" stroke="black"/>
<path d="M129.76,25.3271v -4.90202" fill="none" stroke="black"/>
<path d="M138.831,25.3271v -4.90202" fill="none" stroke="black"/>
<path d="M147.902,30.2291v -9.80404" fill="none" stroke="black"/>
<path d="M156.972,25.3271v -4.90202" fill="none" stroke="black"/>
<path d="M166.043,25.3271v -4.90202" fill="none" stroke="black"/>
<path d="M175.114,25.3271v -4.90202" fill="none" stroke="black"/>
<path d="M184.185,25.3271v -4.90202" fill="none" stroke="black"/>
<path d="M193.256,30.2291v -9.80404" fill="none" stroke="black"/>
<path d="M202.327,25.3271v -4.90202" fill="none" stroke="black"/>
<path d="M211.398,25.3271v -4.90202" fill="none" stroke="black"/>
<path d="M220.469,25.3271v -4.90202" fill="none" stroke="black"/>
<path d="M229.539,25.3271v -4.90202" fill="none" stroke="black"/>
<path d="M238.61,30.2291v -9.80404" fill="none" stroke="black"/>
<path d="M247.681,25.3271v -4.90202" fill="none" stroke="black"/>
<path d="M256.752,25.3271v -4.90202" fill="none" stroke="black"/>
<path d="M265.823,25.3271v -4.90202" fill="none" stroke="black"/>
<path d="M274.894,25.3271v -4.90202" fill="none" stroke="black"/>
<path d="M283.965,30.2291v -9.80404" fill="none" stroke="black"/>
<path d="M293.035,25.3271v -4.90202" fill="none" stroke="black"/>
<path d="M302.106,25.3271v -4.90202" fill="none" stroke="black"/>
<path d="M311.177,25.3271v -4.90202" fill="none" stroke="black"/>
<path d="M320.248,25.3271v -4.90202" fill="none" stroke="black"/>
<path d="M329.319,30.2291v -9.80404" fill="none" stroke="black"/>
<path d="M338.39,25.3271v -4.90202" fill="none" stroke="black"/>
<path d="M347.461,25.3271v -4.90202" fill="none" stroke="black"/>
<path d="M356.531,25.3271v -4.90202" fill="none" stroke="black"/>
<path d="M365.602,25.3271v -4.90202" fill="none" stroke="black"/>
<path d="M374.673,30.2291v -9.80404" fill="none" stroke="black"/>
<path d="M383.744,25.3271v -4.90202" fill="none" stroke="black"/>
<path d="M392.815,25.3271v -4.90202" fill="none" stroke="black"/>
<path d="M401.886,25.3271v -4.90202" fill="none" stroke="black"/>
<path d="M410.957,25.3271v -4.90202" fill="none" stroke="black"/>
<path d="M420.028,30.2291v -9.80404" fill="none" stroke="black"/>
<path d="M429.098,25.3271v -4.90202" fill="none" stroke="black"/>
<path d="M438.169,25.3271v -4.90202" fill="none" stroke="black"/>
<path d="M447.24,25.3271v -4.90202" fill="none" stroke="black"/>
<path d="M456.311,25.3271v -4.90202" fill="none" stroke="black"/>
<path d="M465.382,30.2291v -9.80404" fill="none" stroke="black"/>
<path d="M474.453,25.3271v -4.90202" fill="none" stroke="black"/>
<path d="M483.524,25.3271v -4.90202" fill="none" stroke="black"/>
<path d="M492.594,25.3271v -4.90202" fill="none" stroke="black"/>
<path d="M501.665,25.3271v -4.90202" fill="none" stroke="black"/>
<path d="M510.736,30.2291v -9.80404" fill="none" stroke="black"/>
<path d="M57.1929,359.481v -339.056" fill="none" stroke="black"/>
<path d="M71.3094,359.481h -14.1165" fill="none" stroke="black"/>
<path d="M64.2512,345.919h -7.05827" fill="none" stroke="black"/>
<path d="M64.2512,332.357h -7.05827" fill="none" stroke="black"/>
<path d="M64.2512,318.795h -7.05827" fill="none" stroke="black"/>
<path d="M64.2512,305.232h -7.05827" fill="none" stroke="black"/>
<path d="M71.3094,291.67h -14.1165" fill="none" stroke="black"/>
<path d="M64.2512,278.108h -7.05827" fill="none" stroke="black"/>
<path d="M64.2512,264.546h -7.05827" fill="none" stroke="black"/>
<path d="M64.2512,250.983h -7.05827" fill="none" stroke="black"/>
<path d="M64.2512,237.421h -7.05827" fill="none" stroke="black"/>
<path d="M71.3094,223.859h -14.1165" fill="none" stroke="black"/>
<path d="M64.2512,210.297h -7.05827" fill="none" stroke="black"/>
<path d="M64.2512,196.734h -7.05827" fill="none" stroke="black"/>
<path d="M64.2512,183.172h -7.05827" fill="none" stroke="black"/>
<path d="M64.2512,169.61h -7.05827" fill="none" stroke="black"/>
<path d="M71.3094,156.048h -14.1165" fill="none" stroke="black"/>
<path d="M64.2512,142.485h -7.05827" fill="none" stroke="black"/>
<path d="M64.2512,128.923h -7.05827" fill="none" stroke="black"/>
<path d="M64.2512,115.361h -7.05827" fill="none" stroke="black"/>
<path d="M64.2512,101.799h -7.05827" fill="none" stroke="black"/>
<path d="M71.3094,88.2363h -14.1165" fill="none" stroke="black"/>
<path d="M64.2512,74.6741h -7.05827" fill="none" stroke="black"/>
<path d="M64.2512,61.1118h -7.05827" fill="none" stroke="black"/>
<path d="M64.2512,47.5496h -7.05827" fill="none" stroke="black"/>
<path d="M64.2512,33.9873h -7.05827" fill="none" stroke="black"/>
<path d="M71.3094,20.4251h -14.1165" fill="none" stroke="black"/>
<text xml:space="preserve" x="46.6784" y="364.454" fill="black" font-size="13.617" font-family="Helvetica">0</text>
<text xml:space="preserve" x="35.3114" y="296.252" fill="black" font-size="13.617" font-family="Helvetica">0.5</text>
<text xml:space="preserve" x="48.8097" y="229.471" fill="black" font-size="13.617" font-family="Helvetica">1</text>
<text xml:space="preserve" x="35.3114" y="160.559" fill="black" font-size="13.617" font-family="Helvetica">1.5</text>
<text xml:space="preserve" x="46.6784" y="93.7778" fill="black" font-size="13.617" font-family="Helvetica">2</text>
<text xml:space="preserve" x="35.3114" y="24.8653" fill="black" font-size="13.617" font-family="Helvetica">2.5</text>
<g transform="rotate(-90,28.9175,32.6801)">
<text xml:space="preserve" x="28.9175" y="32.6801" fill="black" font-size="13.617" font-family="Times">&#0951;</text>
</g>
<g transform="rotate(-90,28.9175,39.7845)">
<text xml:space="preserve" x="28.9175" y="39.7845" fill="black" font-size="13.617" font-family="Helvetica">d</text>
</g>
<g transform="rotate(-90,8.31481,29.1279)">
<text xml:space="preserve" x="8.31481" y="29.1279" fill="black" font-size="9.24468" font-family="Helvetica">ch</text>
</g>
<g transform="rotate(-90,14.7087,45.468)">
<text xml:space="preserve" x="14.7087" y="45.468" fill="black" font-size="13.617" font-family="Helvetica">dN</text>
</g>
<path d="M17.5505,45.468v -25.5758" fill="none" stroke="black" stroke-width="2"/>
<g transform="rotate(-90,21.1027,49.7306)">
<text xml:space="preserve" x="21.1027" y="49.7306" fill="black" font-size="13.617" font-family="Helvetica"> </text>
</g>
<g transform="rotate(-90,33.1801,72.4646)">
<text xml:space="preserve" x="33.1801" y="72.4646" fill="black" font-size="9.24468" font-family="Helvetica">event</text>
</g>
<g transform="rotate(-90,28.9175,81.7003)">
<text xml:space="preserve" x="28.9175" y="81.7003" fill="black" font-size="13.617" font-family="Helvetica">N</text>
</g>
<g transform="rotate(-90,15.4192,68.202)">
<text xml:space="preserve" x="15.4192" y="68.202" fill="black" font-size="13.617" font-family="Helvetica">1</text>
</g>
<path d="M17.5505,81.7003v -31.9697" fill="none" stroke="black" stroke-width="2"/>
<g transform="rotate(-90,21.1027,85.9629)">
<text xml:space="preserve" x="21.1027" y="85.9629" fill="black" font-size="13.617" font-family="Helvetica"> </text>
</g>
<g transform="rotate(-90,29.6279,90.2256)">
<text xml:space="preserve" x="29.6279" y="90.2256" fill="black" font-size="13.617" font-family="Times">&#0062;</text>
</g>
<g transform="rotate(-90,36.0219,103.724)">
<text xml:space="preserve" x="36.0219" y="103.724" fill="black" font-size="9.24468" font-family="Helvetica">coll</text>
</g>
<g transform="rotate(-90,29.6279,112.96)">
<text xml:space="preserve" x="29.6279" y="112.96" fill="black" font-size="13.617" font-family="Helvetica">N</text>
</g>
<g transform="rotate(-90,29.6279,117.222)">
<text xml:space="preserve" x="29.6279" y="117.222" fill="black" font-size="13.617" font-family="Times">&#0060;</text>
</g>
<g transform="rotate(-90,15.4192,103.724)">
<text xml:space="preserve" x="15.4192" y="103.724" fill="black" font-size="13.617" font-family="Helvetica">1</text>
</g>
<path d="M17.5505,117.222v -31.2593" fill="none" stroke="black" stroke-width="2"/>
<path d="M510.736,359.481v -339.056" fill="none" stroke="black"/>
<path d="M496.62,359.481h 14.1165" fill="none" stroke="black"/>
<path d="M503.678,345.919h 7.05827" fill="none" stroke="black"/>
<path d="M503.678,332.357h 7.05827" fill="none" stroke="black"/>
<path d="M503.678,318.795h 7.05827" fill="none" stroke="black"/>
<path d="M503.678,305.232h 7.05827" fill="none" stroke="black"/>
<path d="M496.62,291.67h 14.1165" fill="none" stroke="black"/>
<path d="M503.678,278.108h 7.05827" fill="none" stroke="black"/>
<path d="M503.678,264.546h 7.05827" fill="none" stroke="black"/>
<path d="M503.678,250.983h 7.05827" fill="none" stroke="black"/>
<path d="M503.678,237.421h 7.05827" fill="none" stroke="black"/>
<path d="M496.62,223.859h 14.1165" fill="none" stroke="black"/>
<path d="M503.678,210.297h 7.05827" fill="none" stroke="black"/>
<path d="M503.678,196.734h 7.05827" fill="none" stroke="black"/>
<path d="M503.678,183.172h 7.05827" fill="none" stroke="black"/>
<path d="M503.678,169.61h 7.05827" fill="none" stroke="black"/>
<path d="M496.62,156.048h 14.1165" fill="none" stroke="black"/>
<path d="M503.678,142.485h 7.05827" fill="none" stroke="black"/>
<path d="M503.678,128.923h 7.05827" fill="none" stroke="black"/>
<path d="M503.678,115.361h 7.05827" fill="none" stroke="black"/>
<path d="M503.678,101.799h 7.05827" fill="none" stroke="black"/>
<path d="M496.62,88.2363h 14.1165" fill="none" stroke="black"/>
<path d="M503.678,74.6741h 7.05827" fill="none" stroke="black"/>
<path d="M503.678,61.1118h 7.05827" fill="none" stroke="black"/>
<path d="M503.678,47.5496h 7.05827" fill="none" stroke="black"/>
<path d="M503.678,33.9873h 7.05827" fill="none" stroke="black"/>
<path d="M496.62,20.4251h 14.1165" fill="none" stroke="black"/>
<g stroke="black" stroke-width="1" fill="none">
<polygon points=" 58.5134, 257.308 58.5134, 255.413 60.4079, 255.413 60.4079, 257.308 62.3024, 257.308 62.3024, 259.202 60.4079, 259.202 60.4079, 261.097 58.5134, 261.097 58.5134, 259.202 56.6189, 259.202 56.6189, 257.308"/>
</g>
<g stroke="black" stroke-width="1" fill="none">
<polygon points=" 63.0488, 248.77 63.0488, 246.875 64.9433, 246.875 64.9433, 248.77 66.8378, 248.77 66.8378, 250.664 64.9433, 250.664 64.9433, 252.559 63.0488, 252.559 63.0488, 250.664 61.1543, 250.664 61.1543, 248.77"/>
</g>
<g stroke="black" stroke-width="1" fill="none">
<polygon points=" 67.5843, 240.487 67.5843, 238.593 69.4788, 238.593 69.4788, 240.487 71.3733, 240.487 71.3733, 242.382 69.4788, 242.382 69.4788, 244.276 67.5843, 244.276 67.5843, 242.382 65.6898, 242.382 65.6898, 240.487"/>
</g>
<g stroke="black" stroke-width="1" fill="none">
<polygon points=" 72.1197, 232.571 72.1197, 230.677 74.0142, 230.677 74.0142, 232.571 75.9087, 232.571 75.9087, 234.466 74.0142, 234.466 74.0142, 236.36 72.1197, 236.36 72.1197, 234.466 70.2252, 234.466 70.2252, 232.571"/>
</g>
<g stroke="black" stroke-width="1" fill="none">
<polygon points=" 76.6551, 225.275 76.6551, 223.381 78.5496, 223.381 78.5496, 225.275 80.4441, 225.275 80.4441, 227.17 78.5496, 227.17 78.5496, 229.064 76.6551, 229.064 76.6551, 227.17 74.7606, 227.17 74.7606, 225.275"/>
</g>
<g stroke="black" stroke-width="1" fill="none">
<polygon points=" 81.1906, 218.524 81.1906, 216.63 83.085, 216.63 83.085, 218.524 84.9795, 218.524 84.9795, 220.419 83.085, 220.419 83.085, 222.313 81.1906, 222.313 81.1906, 220.419 79.2961, 220.419 79.2961, 218.524"/>
</g>
<g stroke="black" stroke-width="1" fill="none">
<polygon points=" 85.726, 212.308 85.726, 210.414 87.6205, 210.414 87.6205, 212.308 89.515, 212.308 89.515, 214.203 87.6205, 214.203 87.6205, 216.097 85.726, 216.097 85.726, 214.203 83.8315, 214.203 83.8315, 212.308"/>
</g>
<g stroke="black" stroke-width="1" fill="none">
<polygon points=" 90.2614, 206.531 90.2614, 204.637 92.1559, 204.637 92.1559, 206.531 94.0504, 206.531 94.0504, 208.426 92.1559, 208.426 92.1559, 210.32 90.2614, 210.32 90.2614, 208.426 88.3669, 208.426 88.3669, 206.531"/>
</g>
<g stroke="black" stroke-width="1" fill="none">
<polygon points=" 94.7968, 201.075 94.7968, 199.18 96.6913, 199.18 96.6913, 201.075 98.5858, 201.075 98.5858, 202.969 96.6913, 202.969 96.6913, 204.864 94.7968, 204.864 94.7968, 202.969 92.9023, 202.969 92.9023, 201.075"/>
</g>
<g stroke="black" stroke-width="1" fill="none">
<polygon points=" 99.3323, 195.958 99.3323, 194.063 101.227, 194.063 101.227, 195.958 103.121, 195.958 103.121, 197.852 101.227, 197.852 101.227, 199.747 99.3323, 199.747 99.3323, 197.852 97.4378, 197.852 97.4378, 195.958"/>
</g>
<g stroke="black" stroke-width="1" fill="none">
<polygon points=" 103.868, 191.077 103.868, 189.183 105.762, 189.183 105.762, 191.077 107.657, 191.077 107.657, 192.972 105.762, 192.972 105.762, 194.866 103.868, 194.866 103.868, 192.972 101.973, 192.972 101.973, 191.077"/>
</g>
<g stroke="black" stroke-width="1" fill="none">
<polygon points=" 108.403, 186.467 108.403, 184.573 110.298, 184.573 110.298, 186.467 112.192, 186.467 112.192, 188.362 110.298, 188.362 110.298, 190.256 108.403, 190.256 108.403, 188.362 106.509, 188.362 106.509, 186.467"/>
</g>
<g stroke="black" stroke-width="1" fill="none">
<polygon points=" 112.939, 182.185 112.939, 180.29 114.833, 180.29 114.833, 182.185 116.728, 182.185 116.728, 184.079 114.833, 184.079 114.833, 185.974 112.939, 185.974 112.939, 184.079 111.044, 184.079 111.044, 182.185"/>
</g>
<g stroke="black" stroke-width="1" fill="none">
<polygon points=" 117.474, 178.055 117.474, 176.161 119.369, 176.161 119.369, 178.055 121.263, 178.055 121.263, 179.95 119.369, 179.95 119.369, 181.844 117.474, 181.844 117.474, 179.95 115.58, 179.95 115.58, 178.055"/>
</g>
<g stroke="black" stroke-width="1" fill="none">
<polygon points=" 122.009, 174.165 122.009, 172.271 123.904, 172.271 123.904, 174.165 125.798, 174.165 125.798, 176.06 123.904, 176.06 123.904, 177.954 122.009, 177.954 122.009, 176.06 120.115, 176.06 120.115, 174.165"/>
</g>
<g stroke="black" stroke-width="1" fill="none">
<polygon points=" 126.545, 170.576 126.545, 168.681 128.439, 168.681 128.439, 170.576 130.334, 170.576 130.334, 172.47 128.439, 172.47 128.439, 174.365 126.545, 174.365 126.545, 172.47 124.65, 172.47 124.65, 170.576"/>
</g>
<g stroke="black" stroke-width="1" fill="none">
<polygon points=" 131.08, 167.018 131.08, 165.124 132.975, 165.124 132.975, 167.018 134.869, 167.018 134.869, 168.913 132.975, 168.913 132.975, 170.807 131.08, 170.807 131.08, 168.913 129.186, 168.913 129.186, 167.018"/>
</g>
<g stroke="black" stroke-width="1" fill="none">
<polygon points=" 135.616, 163.782 135.616, 161.887 137.51, 161.887 137.51, 163.782 139.405, 163.782 139.405, 165.676 137.51, 165.676 137.51, 167.571 135.616, 167.571 135.616, 165.676 133.721, 165.676 133.721, 163.782"/>
</g>
<g stroke="black" stroke-width="1" fill="none">
<polygon points=" 140.151, 160.723 140.151, 158.829 142.046, 158.829 142.046, 160.723 143.94, 160.723 143.94, 162.618 142.046, 162.618 142.046, 164.512 140.151, 164.512 140.151, 162.618 138.257, 162.618 138.257, 160.723"/>
</g>
<g stroke="black" stroke-width="1" fill="none">
<polygon points=" 144.687, 157.825 144.687, 155.93 146.581, 155.93 146.581, 157.825 148.476, 157.825 148.476, 159.719 146.581, 159.719 146.581, 161.614 144.687, 161.614 144.687, 159.719 142.792, 159.719 142.792, 157.825"/>
</g>
<g stroke="black" stroke-width="1" fill="none">
<polygon points=" 149.222, 155.313 149.222, 153.418 151.117, 153.418 151.117, 155.313 153.011, 155.313 153.011, 157.207 151.117, 157.207 151.117, 159.102 149.222, 159.102 149.222, 157.207 147.328, 157.207 147.328, 155.313"/>
</g>
<g stroke="black" stroke-width="1" fill="none">
<polygon points=" 153.757, 153.06 153.757, 151.165 155.652, 151.165 155.652, 153.06 157.546, 153.06 157.546, 154.954 155.652, 154.954 155.652, 156.849 153.757, 156.849 153.757, 154.954 151.863, 154.954 151.863, 153.06"/>
</g>
<g stroke="black" stroke-width="1" fill="none">
<polygon points=" 158.293, 151 158.293, 149.105 160.187, 149.105 160.187, 151 162.082, 151 162.082, 152.894 160.187, 152.894 160.187, 154.789 158.293, 154.789 158.293, 152.894 156.398, 152.894 156.398, 151"/>
</g>
<g stroke="black" stroke-width="1" fill="none">
<polygon points=" 162.828, 149.327 162.828, 147.433 164.723, 147.433 164.723, 149.327 166.617, 149.327 166.617, 151.222 164.723, 151.222 164.723, 153.116 162.828, 153.116 162.828, 151.222 160.934, 151.222 160.934, 149.327"/>
</g>
<g stroke="black" stroke-width="1" fill="none">
<polygon points=" 167.364, 147.899 167.364, 146.004 169.258, 146.004 169.258, 147.899 171.153, 147.899 171.153, 149.793 169.258, 149.793 169.258, 151.688 167.364, 151.688 167.364, 149.793 165.469, 149.793 165.469, 147.899"/>
</g>
<g stroke="black" stroke-width="1" fill="none">
<polygon points=" 171.899, 146.799 171.899, 144.905 173.794, 144.905 173.794, 146.799 175.688, 146.799 175.688, 148.694 173.794, 148.694 173.794, 150.588 171.899, 150.588 171.899, 148.694 170.005, 148.694 170.005, 146.799"/>
</g>
<g stroke="black" stroke-width="1" fill="none">
<polygon points=" 176.435, 146.057 176.435, 144.163 178.329, 144.163 178.329, 146.057 180.224, 146.057 180.224, 147.952 178.329, 147.952 178.329, 149.846 176.435, 149.846 176.435, 147.952 174.54, 147.952 174.54, 146.057"/>
</g>
<g stroke="black" stroke-width="1" fill="none">
<polygon points=" 180.97, 145.573 180.97, 143.679 182.865, 143.679 182.865, 145.573 184.759, 145.573 184.759, 147.468 182.865, 147.468 182.865, 149.362 180.97, 149.362 180.97, 147.468 179.076, 147.468 179.076, 145.573"/>
</g>
<g stroke="black" stroke-width="1" fill="none">
<polygon points=" 185.506, 145.511 185.506, 143.617 187.4, 143.617 187.4, 145.511 189.295, 145.511 189.295, 147.406 187.4, 147.406 187.4, 149.3 185.506, 149.3 185.506, 147.406 183.611, 147.406 183.611, 145.511"/>
</g>
<g stroke="black" stroke-width="1" fill="none">
<polygon points=" 190.041, 145.625 190.041, 143.731 191.935, 143.731 191.935, 145.625 193.83, 145.625 193.83, 147.52 191.935, 147.52 191.935, 149.414 190.041, 149.414 190.041, 147.52 188.146, 147.52 188.146, 145.625"/>
</g>
<g stroke="black" stroke-width="1" fill="none">
<polygon points=" 194.576, 146.18 194.576, 144.285 196.471, 144.285 196.471, 146.18 198.365, 146.18 198.365, 148.074 196.471, 148.074 196.471, 149.969 194.576, 149.969 194.576, 148.074 192.682, 148.074 192.682, 146.18"/>
</g>
<g stroke="black" stroke-width="1" fill="none">
<polygon points=" 199.112, 147.011 199.112, 145.116 201.006, 145.116 201.006, 147.011 202.901, 147.011 202.901, 148.905 201.006, 148.905 201.006, 150.8 199.112, 150.8 199.112, 148.905 197.217, 148.905 197.217, 147.011"/>
</g>
<g stroke="black" stroke-width="1" fill="none">
<polygon points=" 203.647, 148.168 203.647, 146.274 205.542, 146.274 205.542, 148.168 207.436, 148.168 207.436, 150.063 205.542, 150.063 205.542, 151.957 203.647, 151.957 203.647, 150.063 201.753, 150.063 201.753, 148.168"/>
</g>
<g stroke="black" stroke-width="1" fill="none">
<polygon points=" 208.183, 149.641 208.183, 147.747 210.077, 147.747 210.077, 149.641 211.972, 149.641 211.972, 151.536 210.077, 151.536 210.077, 153.43 208.183, 153.43 208.183, 151.536 206.288, 151.536 206.288, 149.641"/>
</g>
<g stroke="black" stroke-width="1" fill="none">
<polygon points=" 212.718, 151.437 212.718, 149.543 214.613, 149.543 214.613, 151.437 216.507, 151.437 216.507, 153.332 214.613, 153.332 214.613, 155.226 212.718, 155.226 212.718, 153.332 210.824, 153.332 210.824, 151.437"/>
</g>
<g stroke="black" stroke-width="1" fill="none">
<polygon points=" 217.254, 153.476 217.254, 151.581 219.148, 151.581 219.148, 153.476 221.043, 153.476 221.043, 155.37 219.148, 155.37 219.148, 157.265 217.254, 157.265 217.254, 155.37 215.359, 155.37 215.359, 153.476"/>
</g>
<g stroke="black" stroke-width="1" fill="none">
<polygon points=" 221.789, 155.806 221.789, 153.912 223.683, 153.912 223.683, 155.806 225.578, 155.806 225.578, 157.701 223.683, 157.701 223.683, 159.595 221.789, 159.595 221.789, 157.701 219.894, 157.701 219.894, 155.806"/>
</g>
<g stroke="black" stroke-width="1" fill="none">
<polygon points=" 226.324, 158.479 226.324, 156.585 228.219, 156.585 228.219, 158.479 230.113, 158.479 230.113, 160.374 228.219, 160.374 228.219, 162.268 226.324, 162.268 226.324, 160.374 224.43, 160.374 224.43, 158.479"/>
</g>
<g stroke="black" stroke-width="1" fill="none">
<polygon points=" 230.86, 161.283 230.86, 159.388 232.754, 159.388 232.754, 161.283 234.649, 161.283 234.649, 163.177 232.754, 163.177 232.754, 165.072 230.86, 165.072 230.86, 163.177 228.965, 163.177 228.965, 161.283"/>
</g>
<g stroke="black" stroke-width="1" fill="none">
<polygon points=" 235.395, 164.275 235.395, 162.38 237.29, 162.38 237.29, 164.275 239.184, 164.275 239.184, 166.169 237.29, 166.169 237.29, 168.064 235.395, 168.064 235.395, 166.169 233.501, 166.169 233.501, 164.275"/>
</g>
<g stroke="black" stroke-width="1" fill="none">
<polygon points=" 239.931, 167.437 239.931, 165.543 241.825, 165.543 241.825, 167.437 243.72, 167.437 243.72, 169.332 241.825, 169.332 241.825, 171.226 239.931, 171.226 239.931, 169.332 238.036, 169.332 238.036, 167.437"/>
</g>
<g stroke="black" stroke-width="1" fill="none">
<polygon points=" 244.466, 170.699 244.466, 168.804 246.361, 168.804 246.361, 170.699 248.255, 170.699 248.255, 172.593 246.361, 172.593 246.361, 174.488 244.466, 174.488 244.466, 172.593 242.572, 172.593 242.572, 170.699"/>
</g>
<g stroke="black" stroke-width="1" fill="none">
<polygon points=" 249.002, 174.039 249.002, 172.144 250.896, 172.144 250.896, 174.039 252.791, 174.039 252.791, 175.933 250.896, 175.933 250.896, 177.828 249.002, 177.828 249.002, 175.933 247.107, 175.933 247.107, 174.039"/>
</g>
<g stroke="black" stroke-width="1" fill="none">
<polygon points=" 253.537, 177.362 253.537, 175.467 255.432, 175.467 255.432, 177.362 257.326, 177.362 257.326, 179.256 255.432, 179.256 255.432, 181.151 253.537, 181.151 253.537, 179.256 251.643, 179.256 251.643, 177.362"/>
</g>
<g stroke="black" stroke-width="1" fill="none">
<polygon points=" 258.072, 180.624 258.072, 178.729 259.967, 178.729 259.967, 180.624 261.861, 180.624 261.861, 182.518 259.967, 182.518 259.967, 184.413 258.072, 184.413 258.072, 182.518 256.178, 182.518 256.178, 180.624"/>
</g>
<g stroke="black" stroke-width="1" fill="none">
<polygon points=" 262.608, 183.732 262.608, 181.838 264.502, 181.838 264.502, 183.732 266.397, 183.732 266.397, 185.627 264.502, 185.627 264.502, 187.521 262.608, 187.521 262.608, 185.627 260.713, 185.627 260.713, 183.732"/>
</g>
<g stroke="black" stroke-width="1" fill="none">
<polygon points=" 267.143, 186.692 267.143, 184.797 269.038, 184.797 269.038, 186.692 270.932, 186.692 270.932, 188.586 269.038, 188.586 269.038, 190.481 267.143, 190.481 267.143, 188.586 265.249, 188.586 265.249, 186.692"/>
</g>
<g stroke="black" stroke-width="1" fill="none">
<polygon points=" 271.679, 189.45 271.679, 187.555 273.573, 187.555 273.573, 189.45 275.468, 189.45 275.468, 191.344 273.573, 191.344 273.573, 193.239 271.679, 193.239 271.679, 191.344 269.784, 191.344 269.784, 189.45"/>
</g>
<g stroke="black" stroke-width="1" fill="none">
<polygon points=" 276.214, 191.913 276.214, 190.019 278.109, 190.019 278.109, 191.913 280.003, 191.913 280.003, 193.808 278.109, 193.808 278.109, 195.702 276.214, 195.702 276.214, 193.808 274.32, 193.808 274.32, 191.913"/>
</g>
<g stroke="black" stroke-width="1" fill="none">
<polygon points=" 280.75, 194.112 280.75, 192.217 282.644, 192.217 282.644, 194.112 284.539, 194.112 284.539, 196.006 282.644, 196.006 282.644, 197.901 280.75, 197.901 280.75, 196.006 278.855, 196.006 278.855, 194.112"/>
</g>
<g stroke="black" stroke-width="1" fill="none">
<polygon points=" 285.285, 196.059 285.285, 194.165 287.18, 194.165 287.18, 196.059 289.074, 196.059 289.074, 197.954 287.18, 197.954 287.18, 199.848 285.285, 199.848 285.285, 197.954 283.391, 197.954 283.391, 196.059"/>
</g>
<g stroke="black" stroke-width="1" fill="none">
<polygon points=" 289.82, 197.686 289.82, 195.792 291.715, 195.792 291.715, 197.686 293.609, 197.686 293.609, 199.581 291.715, 199.581 291.715, 201.475 289.82, 201.475 289.82, 199.581 287.926, 199.581 287.926, 197.686"/>
</g>
<g stroke="black" stroke-width="1" fill="none">
<polygon points=" 294.356, 199.103 294.356, 197.208 296.25, 197.208 296.25, 199.103 298.145, 199.103 298.145, 200.997 296.25, 200.997 296.25, 202.892 294.356, 202.892 294.356, 200.997 292.461, 200.997 292.461, 199.103"/>
</g>
<g stroke="black" stroke-width="1" fill="none">
<polygon points=" 298.891, 200.313 298.891, 198.418 300.786, 198.418 300.786, 200.313 302.68, 200.313 302.68, 202.207 300.786, 202.207 300.786, 204.102 298.891, 204.102 298.891, 202.207 296.997, 202.207 296.997, 200.313"/>
</g>
<g stroke="black" stroke-width="1" fill="none">
<polygon points=" 303.427, 201.341 303.427, 199.447 305.321, 199.447 305.321, 201.341 307.216, 201.341 307.216, 203.236 305.321, 203.236 305.321, 205.13 303.427, 205.13 303.427, 203.236 301.532, 203.236 301.532, 201.341"/>
</g>
<g stroke="black" stroke-width="1" fill="none">
<polygon points=" 307.962, 202.341 307.962, 200.446 309.857, 200.446 309.857, 202.341 311.751, 202.341 311.751, 204.235 309.857, 204.235 309.857, 206.13 307.962, 206.13 307.962, 204.235 306.068, 204.235 306.068, 202.341"/>
</g>
<g stroke="black" stroke-width="1" fill="none">
<polygon points=" 312.498, 203.336 312.498, 201.441 314.392, 201.441 314.392, 203.336 316.287, 203.336 316.287, 205.23 314.392, 205.23 314.392, 207.125 312.498, 207.125 312.498, 205.23 310.603, 205.23 310.603, 203.336"/>
</g>
<g stroke="black" stroke-width="1" fill="none">
<polygon points=" 317.033, 204.279 317.033, 202.385 318.928, 202.385 318.928, 204.279 320.822, 204.279 320.822, 206.174 318.928, 206.174 318.928, 208.068 317.033, 208.068 317.033, 206.174 315.139, 206.174 315.139, 204.279"/>
</g>
<g stroke="black" stroke-width="1" fill="none">
<polygon points=" 321.569, 205.351 321.569, 203.457 323.463, 203.457 323.463, 205.351 325.357, 205.351 325.357, 207.246 323.463, 207.246 323.463, 209.14 321.569, 209.14 321.569, 207.246 319.674, 207.246 319.674, 205.351"/>
</g>
<g stroke="black" stroke-width="1" fill="none">
<polygon points=" 326.104, 206.566 326.104, 204.672 327.998, 204.672 327.998, 206.566 329.893, 206.566 329.893, 208.461 327.998, 208.461 327.998, 210.355 326.104, 210.355 326.104, 208.461 324.209, 208.461 324.209, 206.566"/>
</g>
<g stroke="black" stroke-width="1" fill="none">
<polygon points=" 330.639, 207.877 330.639, 205.983 332.534, 205.983 332.534, 207.877 334.428, 207.877 334.428, 209.772 332.534, 209.772 332.534, 211.666 330.639, 211.666 330.639, 209.772 328.745, 209.772 328.745, 207.877"/>
</g>
<g stroke="black" stroke-width="1" fill="none">
<polygon points=" 335.175, 209.444 335.175, 207.549 337.069, 207.549 337.069, 209.444 338.964, 209.444 338.964, 211.338 337.069, 211.338 337.069, 213.233 335.175, 213.233 335.175, 211.338 333.28, 211.338 333.28, 209.444"/>
</g>
<g stroke="black" stroke-width="1" fill="none">
<polygon points=" 339.71, 211.162 339.71, 209.268 341.605, 209.268 341.605, 211.162 343.499, 211.162 343.499, 213.057 341.605, 213.057 341.605, 214.951 339.71, 214.951 339.71, 213.057 337.816, 213.057 337.816, 211.162"/>
</g>
<g stroke="black" stroke-width="1" fill="none">
<polygon points=" 344.246, 213.173 344.246, 211.279 346.14, 211.279 346.14, 213.173 348.035, 213.173 348.035, 215.068 346.14, 215.068 346.14, 216.962 344.246, 216.962 344.246, 215.068 342.351, 215.068 342.351, 213.173"/>
</g>
<g stroke="black" stroke-width="1" fill="none">
<polygon points=" 348.781, 215.323 348.781, 213.428 350.676, 213.428 350.676, 215.323 352.57, 215.323 352.57, 217.217 350.676, 217.217 350.676, 219.112 348.781, 219.112 348.781, 217.217 346.887, 217.217 346.887, 215.323"/>
</g>
<g stroke="black" stroke-width="1" fill="none">
<polygon points=" 353.317, 217.763 353.317, 215.869 355.211, 215.869 355.211, 217.763 357.106, 217.763 357.106, 219.658 355.211, 219.658 355.211, 221.552 353.317, 221.552 353.317, 219.658 351.422, 219.658 351.422, 217.763"/>
</g>
<g stroke="black" stroke-width="1" fill="none">
<polygon points=" 357.852, 220.472 357.852, 218.578 359.746, 218.578 359.746, 220.472 361.641, 220.472 361.641, 222.367 359.746, 222.367 359.746, 224.261 357.852, 224.261 357.852, 222.367 355.957, 222.367 355.957, 220.472"/>
</g>
<g stroke="black" stroke-width="1" fill="none">
<polygon points=" 362.387, 223.365 362.387, 221.471 364.282, 221.471 364.282, 223.365 366.176, 223.365 366.176, 225.26 364.282, 225.26 364.282, 227.154 362.387, 227.154 362.387, 225.26 360.493, 225.26 360.493, 223.365"/>
</g>
<g stroke="black" stroke-width="1" fill="none">
<polygon points=" 366.923, 226.532 366.923, 224.638 368.817, 224.638 368.817, 226.532 370.712, 226.532 370.712, 228.427 368.817, 228.427 368.817, 230.321 366.923, 230.321 366.923, 228.427 365.028, 228.427 365.028, 226.532"/>
</g>
<g stroke="black" stroke-width="1" fill="none">
<polygon points=" 371.458, 229.911 371.458, 228.016 373.353, 228.016 373.353, 229.911 375.247, 229.911 375.247, 231.805 373.353, 231.805 373.353, 233.7 371.458, 233.7 371.458, 231.805 369.564, 231.805 369.564, 229.911"/>
</g>
<g stroke="black" stroke-width="1" fill="none">
<polygon points=" 375.994, 233.386 375.994, 231.491 377.888, 231.491 377.888, 233.386 379.783, 233.386 379.783, 235.28 377.888, 235.28 377.888, 237.175 375.994, 237.175 375.994, 235.28 374.099, 235.28 374.099, 233.386"/>
</g>
<g stroke="black" stroke-width="1" fill="none">
<polygon points=" 380.529, 237.135 380.529, 235.24 382.424, 235.24 382.424, 237.135 384.318, 237.135 384.318, 239.029 382.424, 239.029 382.424, 240.924 380.529, 240.924 380.529, 239.029 378.635, 239.029 378.635, 237.135"/>
</g>
<g stroke="black" stroke-width="1" fill="none">
<polygon points=" 385.065, 241.064 385.065, 239.169 386.959, 239.169 386.959, 241.064 388.854, 241.064 388.854, 242.958 386.959, 242.958 386.959, 244.853 385.065, 244.853 385.065, 242.958 383.17, 242.958 383.17, 241.064"/>
</g>
<g stroke="black" stroke-width="1" fill="none">
<polygon points=" 389.6, 245.159 389.6, 243.264 391.495, 243.264 391.495, 245.159 393.389, 245.159 393.389, 247.053 391.495, 247.053 391.495, 248.948 389.6, 248.948 389.6, 247.053 387.706, 247.053 387.706, 245.159"/>
</g>
<g stroke="black" stroke-width="1" fill="none">
<polygon points=" 394.135, 249.311 394.135, 247.417 396.03, 247.417 396.03, 249.311 397.924, 249.311 397.924, 251.206 396.03, 251.206 396.03, 253.1 394.135, 253.1 394.135, 251.206 392.241, 251.206 392.241, 249.311"/>
</g>
<g stroke="black" stroke-width="1" fill="none">
<polygon points=" 398.671, 253.654 398.671, 251.76 400.565, 251.76 400.565, 253.654 402.46, 253.654 402.46, 255.549 400.565, 255.549 400.565, 257.443 398.671, 257.443 398.671, 255.549 396.776, 255.549 396.776, 253.654"/>
</g>
<g stroke="black" stroke-width="1" fill="none">
<polygon points=" 403.206, 258.091 403.206, 256.197 405.101, 256.197 405.101, 258.091 406.995, 258.091 406.995, 259.986 405.101, 259.986 405.101, 261.88 403.206, 261.88 403.206, 259.986 401.312, 259.986 401.312, 258.091"/>
</g>
<g stroke="black" stroke-width="1" fill="none">
<polygon points=" 407.742, 262.582 407.742, 260.688 409.636, 260.688 409.636, 262.582 411.531, 262.582 411.531, 264.477 409.636, 264.477 409.636, 266.371 407.742, 266.371 407.742, 264.477 405.847, 264.477 405.847, 262.582"/>
</g>
<g stroke="black" stroke-width="1" fill="none">
<polygon points=" 412.277, 267.151 412.277, 265.256 414.172, 265.256 414.172, 267.151 416.066, 267.151 416.066, 269.045 414.172, 269.045 414.172, 270.94 412.277, 270.94 412.277, 269.045 410.383, 269.045 410.383, 267.151"/>
</g>
<g stroke="black" stroke-width="1" fill="none">
<polygon points=" 416.813, 271.748 416.813, 269.853 418.707, 269.853 418.707, 271.748 420.602, 271.748 420.602, 273.642 418.707, 273.642 418.707, 275.537 416.813, 275.537 416.813, 273.642 414.918, 273.642 414.918, 271.748"/>
</g>
<g stroke="black" stroke-width="1" fill="none">
<polygon points=" 421.348, 276.333 421.348, 274.439 423.243, 274.439 423.243, 276.333 425.137, 276.333 425.137, 278.228 423.243, 278.228 423.243, 280.122 421.348, 280.122 421.348, 278.228 419.454, 278.228 419.454, 276.333"/>
</g>
<g stroke="black" stroke-width="1" fill="none">
<polygon points=" 425.883, 280.909 425.883, 279.015 427.778, 279.015 427.778, 280.909 429.672, 280.909 429.672, 282.804 427.778, 282.804 427.778, 284.698 425.883, 284.698 425.883, 282.804 423.989, 282.804 423.989, 280.909"/>
</g>
<g stroke="black" stroke-width="1" fill="none">
<polygon points=" 430.419, 285.407 430.419, 283.513 432.313, 283.513 432.313, 285.407 434.208, 285.407 434.208, 287.302 432.313, 287.302 432.313, 289.196 430.419, 289.196 430.419, 287.302 428.524, 287.302 428.524, 285.407"/>
</g>
<g stroke="black" stroke-width="1" fill="none">
<polygon points=" 434.954, 289.822 434.954, 287.927 436.849, 287.927 436.849, 289.822 438.743, 289.822 438.743, 291.716 436.849, 291.716 436.849, 293.611 434.954, 293.611 434.954, 291.716 433.06, 291.716 433.06, 289.822"/>
</g>
<g stroke="black" stroke-width="1" fill="none">
<polygon points=" 439.49, 294.165 439.49, 292.27 441.384, 292.27 441.384, 294.165 443.279, 294.165 443.279, 296.059 441.384, 296.059 441.384, 297.954 439.49, 297.954 439.49, 296.059 437.595, 296.059 437.595, 294.165"/>
</g>
<g stroke="black" stroke-width="1" fill="none">
<polygon points=" 444.025, 298.418 444.025, 296.524 445.92, 296.524 445.92, 298.418 447.814, 298.418 447.814, 300.313 445.92, 300.313 445.92, 302.207 444.025, 302.207 444.025, 300.313 442.131, 300.313 442.131, 298.418"/>
</g>
<g stroke="black" stroke-width="1" fill="none">
<polygon points=" 448.561, 302.531 448.561, 300.637 450.455, 300.637 450.455, 302.531 452.35, 302.531 452.35, 304.426 450.455, 304.426 450.455, 306.32 448.561, 306.32 448.561, 304.426 446.666, 304.426 446.666, 302.531"/>
</g>
<g stroke="black" stroke-width="1" fill="none">
<polygon points=" 453.096, 306.526 453.096, 304.632 454.991, 304.632 454.991, 306.526 456.885, 306.526 456.885, 308.421 454.991, 308.421 454.991, 310.315 453.096, 310.315 453.096, 308.421 451.202, 308.421 451.202, 306.526"/>
</g>
<g stroke="black" stroke-width="1" fill="none">
<polygon points=" 457.632, 310.404 457.632, 308.51 459.526, 308.51 459.526, 310.404 461.421, 310.404 461.421, 312.299 459.526, 312.299 459.526, 314.193 457.632, 314.193 457.632, 312.299 455.737, 312.299 455.737, 310.404"/>
</g>
<g stroke="black" stroke-width="1" fill="none">
<polygon points=" 462.167, 314.116 462.167, 312.222 464.061, 312.222 464.061, 314.116 465.956, 314.116 465.956, 316.011 464.061, 316.011 464.061, 317.905 462.167, 317.905 462.167, 316.011 460.272, 316.011 460.272, 314.116"/>
</g>
<g stroke="black" stroke-width="1" fill="none">
<polygon points=" 466.702, 317.732 466.702, 315.837 468.597, 315.837 468.597, 317.732 470.491, 317.732 470.491, 319.626 468.597, 319.626 468.597, 321.521 466.702, 321.521 466.702, 319.626 464.808, 319.626 464.808, 317.732"/>
</g>
<g stroke="black" stroke-width="1" fill="none">
<polygon points=" 471.238, 321.234 471.238, 319.339 473.132, 319.339 473.132, 321.234 475.027, 321.234 475.027, 323.128 473.132, 323.128 473.132, 325.023 471.238, 325.023 471.238, 323.128 469.343, 323.128 469.343, 321.234"/>
</g>
<g stroke="black" stroke-width="1" fill="none">
<polygon points=" 475.773, 324.603 475.773, 322.708 477.668, 322.708 477.668, 324.603 479.562, 324.603 479.562, 326.497 477.668, 326.497 477.668, 328.392 475.773, 328.392 475.773, 326.497 473.879, 326.497 473.879, 324.603"/>
</g>
<g stroke="black" stroke-width="1" fill="none">
<polygon points=" 480.309, 327.826 480.309, 325.932 482.203, 325.932 482.203, 327.826 484.098, 327.826 484.098, 329.721 482.203, 329.721 482.203, 331.615 480.309, 331.615 480.309, 329.721 478.414, 329.721 478.414, 327.826"/>
</g>
<g stroke="black" stroke-width="1" fill="none">
<polygon points=" 484.844, 330.922 484.844, 329.028 486.739, 329.028 486.739, 330.922 488.633, 330.922 488.633, 332.817 486.739, 332.817 486.739, 334.711 484.844, 334.711 484.844, 332.817 482.95, 332.817 482.95, 330.922"/>
</g>
<g stroke="black" stroke-width="1" fill="none">
<polygon points=" 489.38, 333.833 489.38, 331.939 491.274, 331.939 491.274, 333.833 493.169, 333.833 493.169, 335.728 491.274, 335.728 491.274, 337.622 489.38, 337.622 489.38, 335.728 487.485, 335.728 487.485, 333.833"/>
</g>
<g stroke="black" stroke-width="1" fill="none">
<polygon points=" 493.915, 336.602 493.915, 334.708 495.809, 334.708 495.809, 336.602 497.704, 336.602 497.704, 338.497 495.809, 338.497 495.809, 340.391 493.915, 340.391 493.915, 338.497 492.02, 338.497 492.02, 336.602"/>
</g>
<g stroke="black" stroke-width="1" fill="none">
<polygon points=" 498.45, 339.163 498.45, 337.268 500.345, 337.268 500.345, 339.163 502.239, 339.163 502.239, 341.057 500.345, 341.057 500.345, 342.952 498.45, 342.952 498.45, 341.057 496.556, 341.057 496.556, 339.163"/>
</g>
<g stroke="black" stroke-width="1" fill="none">
<polygon points=" 502.986, 341.545 502.986, 339.65 504.88, 339.65 504.88, 341.545 506.775, 341.545 506.775, 343.439 504.88, 343.439 504.88, 345.334 502.986, 345.334 502.986, 343.439 501.091, 343.439 501.091, 341.545"/>
</g>
<g stroke="black" stroke-width="1" fill="none">
<polygon points=" 507.521, 343.741 507.521, 341.847 509.416, 341.847 509.416, 343.741 511.31, 343.741 511.31, 345.636 509.416, 345.636 509.416, 347.53 507.521, 347.53 507.521, 345.636 505.627, 345.636 505.627, 343.741"/>
</g>
<g fill="#5954d8">
<polygon points=" 58.5134, 257.952 58.5134, 256.057 60.4079, 256.057 60.4079, 257.952 62.3024, 257.952 62.3024, 259.846 60.4079, 259.846 60.4079, 261.741 58.5134, 261.741 58.5134, 259.846 56.6189, 259.846 56.6189, 257.952"/>
</g>
<g fill="#5954d8">
<polygon points=" 63.0488, 249.186 63.0488, 247.291 64.9433, 247.291 64.9433, 249.186 66.8378, 249.186 66.8378, 251.08 64.9433, 251.08 64.9433, 252.975 63.0488, 252.975 63.0488, 251.08 61.1543, 251.08 61.1543, 249.186"/>
</g>
<g fill="#5954d8">
<polygon points=" 67.5843, 240.85 67.5843, 238.956 69.4788, 238.956 69.4788, 240.85 71.3733, 240.85 71.3733, 242.745 69.4788, 242.745 69.4788, 244.639 67.5843, 244.639 67.5843, 242.745 65.6898, 242.745 65.6898, 240.85"/>
</g>
<g fill="#5954d8">
<polygon points=" 72.1197, 232.593 72.1197, 230.698 74.0142, 230.698 74.0142, 232.593 75.9087, 232.593 75.9087, 234.487 74.0142, 234.487 74.0142, 236.382 72.1197, 236.382 72.1197, 234.487 70.2252, 234.487 70.2252, 232.593"/>
</g>
<g fill="#5954d8">
<polygon points=" 76.6551, 225.079 76.6551, 223.185 78.5496, 223.185 78.5496, 225.079 80.4441, 225.079 80.4441, 226.974 78.5496, 226.974 78.5496, 228.868 76.6551, 228.868 76.6551, 226.974 74.7606, 226.974 74.7606, 225.079"/>
</g>
<g fill="#5954d8">
<polygon points=" 81.1906, 218.089 81.1906, 216.195 83.085, 216.195 83.085, 218.089 84.9795, 218.089 84.9795, 219.984 83.085, 219.984 83.085, 221.878 81.1906, 221.878 81.1906, 219.984 79.2961, 219.984 79.2961, 218.089"/>
</g>
<g fill="#5954d8">
<polygon points=" 85.726, 211.498 85.726, 209.604 87.6205, 209.604 87.6205, 211.498 89.515, 211.498 89.515, 213.393 87.6205, 213.393 87.6205, 215.287 85.726, 215.287 85.726, 213.393 83.8315, 213.393 83.8315, 211.498"/>
</g>
<g fill="#5954d8">
<polygon points=" 90.2614, 205.439 90.2614, 203.544 92.1559, 203.544 92.1559, 205.439 94.0504, 205.439 94.0504, 207.333 92.1559, 207.333 92.1559, 209.228 90.2614, 209.228 90.2614, 207.333 88.3669, 207.333 88.3669, 205.439"/>
</g>
<g fill="#5954d8">
<polygon points=" 94.7968, 199.607 94.7968, 197.713 96.6913, 197.713 96.6913, 199.607 98.5858, 199.607 98.5858, 201.502 96.6913, 201.502 96.6913, 203.396 94.7968, 203.396 94.7968, 201.502 92.9023, 201.502 92.9023, 199.607"/>
</g>
<g fill="#5954d8">
<polygon points=" 99.3323, 194.373 99.3323, 192.478 101.227, 192.478 101.227, 194.373 103.121, 194.373 103.121, 196.267 101.227, 196.267 101.227, 198.162 99.3323, 198.162 99.3323, 196.267 97.4378, 196.267 97.4378, 194.373"/>
</g>
<g fill="#5954d8">
<polygon points=" 103.868, 189.134 103.868, 187.239 105.762, 187.239 105.762, 189.134 107.657, 189.134 107.657, 191.028 105.762, 191.028 105.762, 192.923 103.868, 192.923 103.868, 191.028 101.973, 191.028 101.973, 189.134"/>
</g>
<g fill="#5954d8">
<polygon points=" 108.403, 161.648 108.403, 159.754 110.298, 159.754 110.298, 161.648 112.192, 161.648 112.192, 163.543 110.298, 163.543 110.298, 165.437 108.403, 165.437 108.403, 163.543 106.509, 163.543 106.509, 161.648"/>
</g>
<g fill="#5954d8">
<polygon points=" 112.939, 156.508 112.939, 154.614 114.833, 154.614 114.833, 156.508 116.728, 156.508 116.728, 158.403 114.833, 158.403 114.833, 160.297 112.939, 160.297 112.939, 158.403 111.044, 158.403 111.044, 156.508"/>
</g>
<g fill="#5954d8">
<polygon points=" 117.474, 151.615 117.474, 149.72 119.369, 149.72 119.369, 151.615 121.263, 151.615 121.263, 153.509 119.369, 153.509 119.369, 155.404 117.474, 155.404 117.474, 153.509 115.58, 153.509 115.58, 151.615"/>
</g>
<g fill="#5954d8">
<polygon points=" 122.009, 147.171 122.009, 145.277 123.904, 145.277 123.904, 147.171 125.798, 147.171 125.798, 149.066 123.904, 149.066 123.904, 150.96 122.009, 150.96 122.009, 149.066 120.115, 149.066 120.115, 147.171"/>
</g>
<g fill="#5954d8">
<polygon points=" 126.545, 143.062 126.545, 141.167 128.439, 141.167 128.439, 143.062 130.334, 143.062 130.334, 144.956 128.439, 144.956 128.439, 146.851 126.545, 146.851 126.545, 144.956 124.65, 144.956 124.65, 143.062"/>
</g>
<g fill="#5954d8">
<polygon points=" 131.08, 138.902 131.08, 137.008 132.975, 137.008 132.975, 138.902 134.869, 138.902 134.869, 140.797 132.975, 140.797 132.975, 142.691 131.08, 142.691 131.08, 140.797 129.186, 140.797 129.186, 138.902"/>
</g>
<g fill="#5954d8">
<polygon points=" 135.616, 135.154 135.616, 133.259 137.51, 133.259 137.51, 135.154 139.405, 135.154 139.405, 137.048 137.51, 137.048 137.51, 138.943 135.616, 138.943 135.616, 137.048 133.721, 137.048 133.721, 135.154"/>
</g>
<g fill="#5954d8">
<polygon points=" 140.151, 131.684 140.151, 129.789 142.046, 129.789 142.046, 131.684 143.94, 131.684 143.94, 133.578 142.046, 133.578 142.046, 135.473 140.151, 135.473 140.151, 133.578 138.257, 133.578 138.257, 131.684"/>
</g>
<g fill="#5954d8">
<polygon points=" 144.687, 128.296 144.687, 126.402 146.581, 126.402 146.581, 128.296 148.476, 128.296 148.476, 130.191 146.581, 130.191 146.581, 132.085 144.687, 132.085 144.687, 130.191 142.792, 130.191 142.792, 128.296"/>
</g>
<g fill="#5954d8">
<polygon points=" 149.222, 153.596 149.222, 151.701 151.117, 151.701 151.117, 153.596 153.011, 153.596 153.011, 155.49 151.117, 155.49 151.117, 157.385 149.222, 157.385 149.222, 155.49 147.328, 155.49 147.328, 153.596"/>
</g>
<g fill="#5954d8">
<polygon points=" 153.757, 151.568 153.757, 149.674 155.652, 149.674 155.652, 151.568 157.546, 151.568 157.546, 153.463 155.652, 153.463 155.652, 155.357 153.757, 155.357 153.757, 153.463 151.863, 153.463 151.863, 151.568"/>
</g>
<g fill="#5954d8">
<polygon points=" 158.293, 149.909 158.293, 148.014 160.187, 148.014 160.187, 149.909 162.082, 149.909 162.082, 151.803 160.187, 151.803 160.187, 153.698 158.293, 153.698 158.293, 151.803 156.398, 151.803 156.398, 149.909"/>
</g>
<g fill="#5954d8">
<polygon points=" 162.828, 148.726 162.828, 146.832 164.723, 146.832 164.723, 148.726 166.617, 148.726 166.617, 150.621 164.723, 150.621 164.723, 152.515 162.828, 152.515 162.828, 150.621 160.934, 150.621 160.934, 148.726"/>
</g>
<g fill="#5954d8">
<polygon points=" 167.364, 147.678 167.364, 145.784 169.258, 145.784 169.258, 147.678 171.153, 147.678 171.153, 149.573 169.258, 149.573 169.258, 151.467 167.364, 151.467 167.364, 149.573 165.469, 149.573 165.469, 147.678"/>
</g>
<g fill="#5954d8">
<polygon points=" 171.899, 146.924 171.899, 145.03 173.794, 145.03 173.794, 146.924 175.688, 146.924 175.688, 148.819 173.794, 148.819 173.794, 150.713 171.899, 150.713 171.899, 148.819 170.005, 148.819 170.005, 146.924"/>
</g>
<g fill="#5954d8">
<polygon points=" 176.435, 146.728 176.435, 144.833 178.329, 144.833 178.329, 146.728 180.224, 146.728 180.224, 148.622 178.329, 148.622 178.329, 150.517 176.435, 150.517 176.435, 148.622 174.54, 148.622 174.54, 146.728"/>
</g>
<g fill="#5954d8">
<polygon points=" 180.97, 146.793 180.97, 144.899 182.865, 144.899 182.865, 146.793 184.759, 146.793 184.759, 148.688 182.865, 148.688 182.865, 150.582 180.97, 150.582 180.97, 148.688 179.076, 148.688 179.076, 146.793"/>
</g>
<g fill="#5954d8">
<polygon points=" 185.506, 147.216 185.506, 145.321 187.4, 145.321 187.4, 147.216 189.295, 147.216 189.295, 149.11 187.4, 149.11 187.4, 151.005 185.506, 151.005 185.506, 149.11 183.611, 149.11 183.611, 147.216"/>
</g>
<g fill="#5954d8">
<polygon points=" 190.041, 147.873 190.041, 145.978 191.935, 145.978 191.935, 147.873 193.83, 147.873 193.83, 149.767 191.935, 149.767 191.935, 151.662 190.041, 151.662 190.041, 149.767 188.146, 149.767 188.146, 147.873"/>
</g>
<g fill="#5954d8">
<polygon points=" 194.576, 149.027 194.576, 147.132 196.471, 147.132 196.471, 149.027 198.365, 149.027 198.365, 150.921 196.471, 150.921 196.471, 152.816 194.576, 152.816 194.576, 150.921 192.682, 150.921 192.682, 149.027"/>
</g>
<g fill="#5954d8">
<polygon points=" 199.112, 150.116 199.112, 148.221 201.006, 148.221 201.006, 150.116 202.901, 150.116 202.901, 152.01 201.006, 152.01 201.006, 153.905 199.112, 153.905 199.112, 152.01 197.217, 152.01 197.217, 150.116"/>
</g>
<g fill="#5954d8">
<polygon points=" 203.647, 151.809 203.647, 149.914 205.542, 149.914 205.542, 151.809 207.436, 151.809 207.436, 153.703 205.542, 153.703 205.542, 155.598 203.647, 155.598 203.647, 153.703 201.753, 153.703 201.753, 151.809"/>
</g>
<g fill="#5954d8">
<polygon points=" 208.183, 153.762 208.183, 151.867 210.077, 151.867 210.077, 153.762 211.972, 153.762 211.972, 155.656 210.077, 155.656 210.077, 157.551 208.183, 157.551 208.183, 155.656 206.288, 155.656 206.288, 153.762"/>
</g>
<g fill="#5954d8">
<polygon points=" 212.718, 155.787 212.718, 153.893 214.613, 153.893 214.613, 155.787 216.507, 155.787 216.507, 157.682 214.613, 157.682 214.613, 159.576 212.718, 159.576 212.718, 157.682 210.824, 157.682 210.824, 155.787"/>
</g>
<g fill="#5954d8">
<polygon points=" 217.254, 158.329 217.254, 156.435 219.148, 156.435 219.148, 158.329 221.043, 158.329 221.043, 160.224 219.148, 160.224 219.148, 162.118 217.254, 162.118 217.254, 160.224 215.359, 160.224 215.359, 158.329"/>
</g>
<g fill="#5954d8">
<polygon points=" 221.789, 160.99 221.789, 159.096 223.683, 159.096 223.683, 160.99 225.578, 160.99 225.578, 162.885 223.683, 162.885 223.683, 164.779 221.789, 164.779 221.789, 162.885 219.894, 162.885 219.894, 160.99"/>
</g>
<g fill="#5954d8">
<polygon points=" 226.324, 164.058 226.324, 162.164 228.219, 162.164 228.219, 164.058 230.113, 164.058 230.113, 165.953 228.219, 165.953 228.219, 167.847 226.324, 167.847 226.324, 165.953 224.43, 165.953 224.43, 164.058"/>
</g>
<g fill="#5954d8">
<polygon points=" 230.86, 167.167 230.86, 165.273 232.754, 165.273 232.754, 167.167 234.649, 167.167 234.649, 169.062 232.754, 169.062 232.754, 170.956 230.86, 170.956 230.86, 169.062 228.965, 169.062 228.965, 167.167"/>
</g>
<g fill="#5954d8">
<polygon points=" 235.395, 170.456 235.395, 168.561 237.29, 168.561 237.29, 170.456 239.184, 170.456 239.184, 172.35 237.29, 172.35 237.29, 174.245 235.395, 174.245 235.395, 172.35 233.501, 172.35 233.501, 170.456"/>
</g>
<g fill="#5954d8">
<polygon points=" 239.931, 173.97 239.931, 172.075 241.825, 172.075 241.825, 173.97 243.72, 173.97 243.72, 175.864 241.825, 175.864 241.825, 177.759 239.931, 177.759 239.931, 175.864 238.036, 175.864 238.036, 173.97"/>
</g>
<g fill="#5954d8">
<polygon points=" 244.466, 177.482 244.466, 175.587 246.361, 175.587 246.361, 177.482 248.255, 177.482 248.255, 179.376 246.361, 179.376 246.361, 181.271 244.466, 181.271 244.466, 179.376 242.572, 179.376 242.572, 177.482"/>
</g>
<g fill="#5954d8">
<polygon points=" 249.002, 181.143 249.002, 179.249 250.896, 179.249 250.896, 181.143 252.791, 181.143 252.791, 183.038 250.896, 183.038 250.896, 184.932 249.002, 184.932 249.002, 183.038 247.107, 183.038 247.107, 181.143"/>
</g>
<g fill="#5954d8">
<polygon points=" 253.537, 184.686 253.537, 182.791 255.432, 182.791 255.432, 184.686 257.326, 184.686 257.326, 186.58 255.432, 186.58 255.432, 188.475 253.537, 188.475 253.537, 186.58 251.643, 186.58 251.643, 184.686"/>
</g>
<g fill="#5954d8">
<polygon points=" 258.072, 188.282 258.072, 186.387 259.967, 186.387 259.967, 188.282 261.861, 188.282 261.861, 190.176 259.967, 190.176 259.967, 192.071 258.072, 192.071 258.072, 190.176 256.178, 190.176 256.178, 188.282"/>
</g>
<g fill="#5954d8">
<polygon points=" 262.608, 191.579 262.608, 189.685 264.502, 189.685 264.502, 191.579 266.397, 191.579 266.397, 193.474 264.502, 193.474 264.502, 195.368 262.608, 195.368 262.608, 193.474 260.713, 193.474 260.713, 191.579"/>
</g>
<g fill="#5954d8">
<polygon points=" 267.143, 194.791 267.143, 192.896 269.038, 192.896 269.038, 194.791 270.932, 194.791 270.932, 196.685 269.038, 196.685 269.038, 198.58 267.143, 198.58 267.143, 196.685 265.249, 196.685 265.249, 194.791"/>
</g>
<g fill="#5954d8">
<polygon points=" 271.679, 197.851 271.679, 195.956 273.573, 195.956 273.573, 197.851 275.468, 197.851 275.468, 199.745 273.573, 199.745 273.573, 201.64 271.679, 201.64 271.679, 199.745 269.784, 199.745 269.784, 197.851"/>
</g>
<g fill="#5954d8">
<polygon points=" 276.214, 200.614 276.214, 198.719 278.109, 198.719 278.109, 200.614 280.003, 200.614 280.003, 202.508 278.109, 202.508 278.109, 204.403 276.214, 204.403 276.214, 202.508 274.32, 202.508 274.32, 200.614"/>
</g>
<g fill="#5954d8">
<polygon points=" 280.75, 203.032 280.75, 201.138 282.644, 201.138 282.644, 203.032 284.539, 203.032 284.539, 204.927 282.644, 204.927 282.644, 206.821 280.75, 206.821 280.75, 204.927 278.855, 204.927 278.855, 203.032"/>
</g>
<g fill="#5954d8">
<polygon points=" 285.285, 205.45 285.285, 203.556 287.18, 203.556 287.18, 205.45 289.074, 205.45 289.074, 207.345 287.18, 207.345 287.18, 209.239 285.285, 209.239 285.285, 207.345 283.391, 207.345 283.391, 205.45"/>
</g>
<g fill="#5954d8">
<polygon points=" 289.82, 207.387 289.82, 205.492 291.715, 205.492 291.715, 207.387 293.609, 207.387 293.609, 209.281 291.715, 209.281 291.715, 211.176 289.82, 211.176 289.82, 209.281 287.926, 209.281 287.926, 207.387"/>
</g>
<g fill="#5954d8">
<polygon points=" 294.356, 209.119 294.356, 207.224 296.25, 207.224 296.25, 209.119 298.145, 209.119 298.145, 211.013 296.25, 211.013 296.25, 212.908 294.356, 212.908 294.356, 211.013 292.461, 211.013 292.461, 209.119"/>
</g>
<g fill="#5954d8">
<polygon points=" 298.891, 210.816 298.891, 208.922 300.786, 208.922 300.786, 210.816 302.68, 210.816 302.68, 212.711 300.786, 212.711 300.786, 214.605 298.891, 214.605 298.891, 212.711 296.997, 212.711 296.997, 210.816"/>
</g>
<g fill="#5954d8">
<polygon points=" 303.427, 212.26 303.427, 210.366 305.321, 210.366 305.321, 212.26 307.216, 212.26 307.216, 214.155 305.321, 214.155 305.321, 216.049 303.427, 216.049 303.427, 214.155 301.532, 214.155 301.532, 212.26"/>
</g>
<g fill="#5954d8">
<polygon points=" 307.962, 213.651 307.962, 211.757 309.857, 211.757 309.857, 213.651 311.751, 213.651 311.751, 215.546 309.857, 215.546 309.857, 217.44 307.962, 217.44 307.962, 215.546 306.068, 215.546 306.068, 213.651"/>
</g>
<g fill="#5954d8">
<polygon points=" 312.498, 215.17 312.498, 213.276 314.392, 213.276 314.392, 215.17 316.287, 215.17 316.287, 217.065 314.392, 217.065 314.392, 218.959 312.498, 218.959 312.498, 217.065 310.603, 217.065 310.603, 215.17"/>
</g>
<g fill="#5954d8">
<polygon points=" 317.033, 216.542 317.033, 214.648 318.928, 214.648 318.928, 216.542 320.822, 216.542 320.822, 218.437 318.928, 218.437 318.928, 220.331 317.033, 220.331 317.033, 218.437 315.139, 218.437 315.139, 216.542"/>
</g>
<g fill="#5954d8">
<polygon points=" 321.569, 218.052 321.569, 216.157 323.463, 216.157 323.463, 218.052 325.357, 218.052 325.357, 219.946 323.463, 219.946 323.463, 221.841 321.569, 221.841 321.569, 219.946 319.674, 219.946 319.674, 218.052"/>
</g>
<g fill="#5954d8">
<polygon points=" 326.104, 219.841 326.104, 217.946 327.998, 217.946 327.998, 219.841 329.893, 219.841 329.893, 221.735 327.998, 221.735 327.998, 223.63 326.104, 223.63 326.104, 221.735 324.209, 221.735 324.209, 219.841"/>
</g>
<g fill="#5954d8">
<polygon points=" 330.639, 221.583 330.639, 219.688 332.534, 219.688 332.534, 221.583 334.428, 221.583 334.428, 223.477 332.534, 223.477 332.534, 225.372 330.639, 225.372 330.639, 223.477 328.745, 223.477 328.745, 221.583"/>
</g>
<g fill="#5954d8">
<polygon points=" 335.175, 223.52 335.175, 221.625 337.069, 221.625 337.069, 223.52 338.964, 223.52 338.964, 225.414 337.069, 225.414 337.069, 227.309 335.175, 227.309 335.175, 225.414 333.28, 225.414 333.28, 223.52"/>
</g>
<g fill="#5954d8">
<polygon points=" 339.71, 225.803 339.71, 223.909 341.605, 223.909 341.605, 225.803 343.499, 225.803 343.499, 227.698 341.605, 227.698 341.605, 229.592 339.71, 229.592 339.71, 227.698 337.816, 227.698 337.816, 225.803"/>
</g>
<g fill="#5954d8">
<polygon points=" 344.246, 228.415 344.246, 226.52 346.14, 226.52 346.14, 228.415 348.035, 228.415 348.035, 230.309 346.14, 230.309 346.14, 232.204 344.246, 232.204 344.246, 230.309 342.351, 230.309 342.351, 228.415"/>
</g>
<g fill="#5954d8">
<polygon points=" 348.781, 230.845 348.781, 228.951 350.676, 228.951 350.676, 230.845 352.57, 230.845 352.57, 232.74 350.676, 232.74 350.676, 234.634 348.781, 234.634 348.781, 232.74 346.887, 232.74 346.887, 230.845"/>
</g>
<g fill="#5954d8">
<polygon points=" 353.317, 233.705 353.317, 231.811 355.211, 231.811 355.211, 233.705 357.106, 233.705 357.106, 235.6 355.211, 235.6 355.211, 237.494 353.317, 237.494 353.317, 235.6 351.422, 235.6 351.422, 233.705"/>
</g>
<g fill="#5954d8">
<polygon points=" 357.852, 236.896 357.852, 235.001 359.746, 235.001 359.746, 236.896 361.641, 236.896 361.641, 238.79 359.746, 238.79 359.746, 240.685 357.852, 240.685 357.852, 238.79 355.957, 238.79 355.957, 236.896"/>
</g>
<g fill="#5954d8">
<polygon points=" 362.387, 240.156 362.387, 238.262 364.282, 238.262 364.282, 240.156 366.176, 240.156 366.176, 242.051 364.282, 242.051 364.282, 243.945 362.387, 243.945 362.387, 242.051 360.493, 242.051 360.493, 240.156"/>
</g>
<g fill="#5954d8">
<polygon points=" 366.923, 243.618 366.923, 241.724 368.817, 241.724 368.817, 243.618 370.712, 243.618 370.712, 245.513 368.817, 245.513 368.817, 247.407 366.923, 247.407 366.923, 245.513 365.028, 245.513 365.028, 243.618"/>
</g>
<g fill="#5954d8">
<polygon points=" 371.458, 247.28 371.458, 245.386 373.353, 245.386 373.353, 247.28 375.247, 247.28 375.247, 249.175 373.353, 249.175 373.353, 251.069 371.458, 251.069 371.458, 249.175 369.564, 249.175 369.564, 247.28"/>
</g>
<g fill="#5954d8">
<polygon points=" 375.994, 251.04 375.994, 249.145 377.888, 249.145 377.888, 251.04 379.783, 251.04 379.783, 252.934 377.888, 252.934 377.888, 254.829 375.994, 254.829 375.994, 252.934 374.099, 252.934 374.099, 251.04"/>
</g>
<g fill="#5954d8">
<polygon points=" 380.529, 255.07 380.529, 253.176 382.424, 253.176 382.424, 255.07 384.318, 255.07 384.318, 256.965 382.424, 256.965 382.424, 258.859 380.529, 258.859 380.529, 256.965 378.635, 256.965 378.635, 255.07"/>
</g>
<g fill="#5954d8">
<polygon points=" 385.065, 259.195 385.065, 257.3 386.959, 257.3 386.959, 259.195 388.854, 259.195 388.854, 261.089 386.959, 261.089 386.959, 262.984 385.065, 262.984 385.065, 261.089 383.17, 261.089 383.17, 259.195"/>
</g>
<g fill="#5954d8">
<polygon points=" 389.6, 263.362 389.6, 261.468 391.495, 261.468 391.495, 263.362 393.389, 263.362 393.389, 265.257 391.495, 265.257 391.495, 267.151 389.6, 267.151 389.6, 265.257 387.706, 265.257 387.706, 263.362"/>
</g>
<g fill="#5954d8">
<polygon points=" 394.135, 267.658 394.135, 265.763 396.03, 265.763 396.03, 267.658 397.924, 267.658 397.924, 269.552 396.03, 269.552 396.03, 271.447 394.135, 271.447 394.135, 269.552 392.241, 269.552 392.241, 267.658"/>
</g>
<g fill="#5954d8">
<polygon points=" 398.671, 272.053 398.671, 270.158 400.565, 270.158 400.565, 272.053 402.46, 272.053 402.46, 273.947 400.565, 273.947 400.565, 275.842 398.671, 275.842 398.671, 273.947 396.776, 273.947 396.776, 272.053"/>
</g>
<g fill="#5954d8">
<polygon points=" 403.206, 276.543 403.206, 274.648 405.101, 274.648 405.101, 276.543 406.995, 276.543 406.995, 278.437 405.101, 278.437 405.101, 280.332 403.206, 280.332 403.206, 278.437 401.312, 278.437 401.312, 276.543"/>
</g>
<g fill="#5954d8">
<polygon points=" 407.742, 281.059 407.742, 279.165 409.636, 279.165 409.636, 281.059 411.531, 281.059 411.531, 282.954 409.636, 282.954 409.636, 284.848 407.742, 284.848 407.742, 282.954 405.847, 282.954 405.847, 281.059"/>
</g>
<g fill="#5954d8">
<polygon points=" 412.277, 285.612 412.277, 283.718 414.172, 283.718 414.172, 285.612 416.066, 285.612 416.066, 287.507 414.172, 287.507 414.172, 289.401 412.277, 289.401 412.277, 287.507 410.383, 287.507 410.383, 285.612"/>
</g>
<g fill="#5954d8">
<polygon points=" 416.813, 290.113 416.813, 288.218 418.707, 288.218 418.707, 290.113 420.602, 290.113 420.602, 292.007 418.707, 292.007 418.707, 293.902 416.813, 293.902 416.813, 292.007 414.918, 292.007 414.918, 290.113"/>
</g>
<g fill="#5954d8">
<polygon points=" 421.348, 294.553 421.348, 292.659 423.243, 292.659 423.243, 294.553 425.137, 294.553 425.137, 296.448 423.243, 296.448 423.243, 298.342 421.348, 298.342 421.348, 296.448 419.454, 296.448 419.454, 294.553"/>
</g>
<g fill="#5954d8">
<polygon points=" 425.883, 298.978 425.883, 297.084 427.778, 297.084 427.778, 298.978 429.672, 298.978 429.672, 300.873 427.778, 300.873 427.778, 302.767 425.883, 302.767 425.883, 300.873 423.989, 300.873 423.989, 298.978"/>
</g>
<g fill="#5954d8">
<polygon points=" 430.419, 303.274 430.419, 301.379 432.313, 301.379 432.313, 303.274 434.208, 303.274 434.208, 305.168 432.313, 305.168 432.313, 307.063 430.419, 307.063 430.419, 305.168 428.524, 305.168 428.524, 303.274"/>
</g>
<g fill="#5954d8">
<polygon points=" 434.954, 307.369 434.954, 305.474 436.849, 305.474 436.849, 307.369 438.743, 307.369 438.743, 309.263 436.849, 309.263 436.849, 311.158 434.954, 311.158 434.954, 309.263 433.06, 309.263 433.06, 307.369"/>
</g>
<g fill="#5954d8">
<polygon points=" 439.49, 311.442 439.49, 309.547 441.384, 309.547 441.384, 311.442 443.279, 311.442 443.279, 313.336 441.384, 313.336 441.384, 315.231 439.49, 315.231 439.49, 313.336 437.595, 313.336 437.595, 311.442"/>
</g>
<g fill="#5954d8">
<polygon points=" 444.025, 315.41 444.025, 313.515 445.92, 313.515 445.92, 315.41 447.814, 315.41 447.814, 317.304 445.92, 317.304 445.92, 319.199 444.025, 319.199 444.025, 317.304 442.131, 317.304 442.131, 315.41"/>
</g>
<g fill="#5954d8">
<polygon points=" 448.561, 319.138 448.561, 317.243 450.455, 317.243 450.455, 319.138 452.35, 319.138 452.35, 321.032 450.455, 321.032 450.455, 322.927 448.561, 322.927 448.561, 321.032 446.666, 321.032 446.666, 319.138"/>
</g>
<g fill="#5954d8">
<polygon points=" 453.096, 322.757 453.096, 320.863 454.991, 320.863 454.991, 322.757 456.885, 322.757 456.885, 324.652 454.991, 324.652 454.991, 326.546 453.096, 326.546 453.096, 324.652 451.202, 324.652 451.202, 322.757"/>
</g>
<g fill="#5954d8">
<polygon points=" 457.632, 326.185 457.632, 324.29 459.526, 324.29 459.526, 326.185 461.421, 326.185 461.421, 328.079 459.526, 328.079 459.526, 329.974 457.632, 329.974 457.632, 328.079 455.737, 328.079 455.737, 326.185"/>
</g>
<g fill="#5954d8">
<polygon points=" 462.167, 329.431 462.167, 327.536 464.061, 327.536 464.061, 329.431 465.956, 329.431 465.956, 331.325 464.061, 331.325 464.061, 333.22 462.167, 333.22 462.167, 331.325 460.272, 331.325 460.272, 329.431"/>
</g>
<g fill="#5954d8">
<polygon points=" 466.702, 332.483 466.702, 330.589 468.597, 330.589 468.597, 332.483 470.491, 332.483 470.491, 334.378 468.597, 334.378 468.597, 336.272 466.702, 336.272 466.702, 334.378 464.808, 334.378 464.808, 332.483"/>
</g>
<g fill="#5954d8">
<polygon points=" 471.238, 335.414 471.238, 333.52 473.132, 333.52 473.132, 335.414 475.027, 335.414 475.027, 337.309 473.132, 337.309 473.132, 339.203 471.238, 339.203 471.238, 337.309 469.343, 337.309 469.343, 335.414"/>
</g>
<g fill="#5954d8">
<polygon points=" 475.773, 338.112 475.773, 336.218 477.668, 336.218 477.668, 338.112 479.562, 338.112 479.562, 340.007 477.668, 340.007 477.668, 341.901 475.773, 341.901 475.773, 340.007 473.879, 340.007 473.879, 338.112"/>
</g>
<g fill="#5954d8">
<polygon points=" 480.309, 340.574 480.309, 338.679 482.203, 338.679 482.203, 340.574 484.098, 340.574 484.098, 342.468 482.203, 342.468 482.203, 344.363 480.309, 344.363 480.309, 342.468 478.414, 342.468 478.414, 340.574"/>
</g>
<g fill="#5954d8">
<polygon points=" 484.844, 342.913 484.844, 341.018 486.739, 341.018 486.739, 342.913 488.633, 342.913 488.633, 344.807 486.739, 344.807 486.739, 346.702 484.844, 346.702 484.844, 344.807 482.95, 344.807 482.95, 342.913"/>
</g>
<g fill="#5954d8">
<polygon points=" 489.38, 344.954 489.38, 343.06 491.274, 343.06 491.274, 344.954 493.169, 344.954 493.169, 346.849 491.274, 346.849 491.274, 348.743 489.38, 348.743 489.38, 346.849 487.485, 346.849 487.485, 344.954"/>
</g>
<g fill="#5954d8">
<polygon points=" 493.915, 346.882 493.915, 344.988 495.809, 344.988 495.809, 346.882 497.704, 346.882 497.704, 348.777 495.809, 348.777 495.809, 350.671 493.915, 350.671 493.915, 348.777 492.02, 348.777 492.02, 346.882"/>
</g>
<g fill="#5954d8">
<polygon points=" 498.45, 348.533 498.45, 346.639 500.345, 346.639 500.345, 348.533 502.239, 348.533 502.239, 350.428 500.345, 350.428 500.345, 352.322 498.45, 352.322 498.45, 350.428 496.556, 350.428 496.556, 348.533"/>
</g>
<g fill="#5954d8">
<polygon points=" 502.986, 350.031 502.986, 348.137 504.88, 348.137 504.88, 350.031 506.775, 350.031 506.775, 351.926 504.88, 351.926 504.88, 353.82 502.986, 353.82 502.986, 351.926 501.091, 351.926 501.091, 350.031"/>
</g>
<g fill="#5954d8">
<polygon points=" 507.521, 351.343 507.521, 349.448 509.416, 349.448 509.416, 351.343 511.31, 351.343 511.31, 353.237 509.416, 353.237 509.416, 355.132 507.521, 355.132 507.521, 353.237 505.627, 353.237 505.627, 351.343"/>
</g>
<path d="M107.083,359.481v -271.245" fill="none" stroke="#ff0000" stroke-dasharray=" 20, 5"/>
<path d="M147.902,359.481v -271.245" fill="none" stroke="#ff0000" stroke-dasharray=" 20, 5"/>
<path d="M238.61,359.481v -230.558" fill="none" stroke="#ff0000" stroke-dasharray=" 20, 5"/>
<path d="M329.319,359.481v -230.558" fill="none" stroke="#ff0000" stroke-dasharray=" 20, 5"/>
<text xml:space="preserve" x="317.355" y="55.4141" fill="black" font-size="11.7432" font-family="Helvetica">PYTHIA8, Angantyr option3</text>
<text xml:space="preserve" x="317.355" y="76.0168" fill="black" font-size="11.7432" font-family="Helvetica">p+Au 200 GeV</text>
<text xml:space="preserve" x="357.14" y="91.6464" fill="black" font-size="7.99544" font-family="Times">&#0177;</text>
<text xml:space="preserve" x="344.352" y="95.9091" fill="black" font-size="11.7432" font-family="Helvetica">, p</text>
<text xml:space="preserve" x="340.089" y="90.2256" fill="black" font-size="7.99544" font-family="Times">&#0177;</text>
<text xml:space="preserve" x="328.012" y="95.9091" fill="black" font-size="11.7432" font-family="Helvetica">, k</text>
<text xml:space="preserve" x="323.749" y="92.3569" fill="black" font-size="7.99544" font-family="Times">&#0177;</text>
<text xml:space="preserve" x="317.355" y="95.9091" fill="black" font-size="11.7432" font-family="Times">&#0960;</text>
<text xml:space="preserve" x="377.742" y="122.906" fill="black" font-size="7.99544" font-family="Helvetica">T</text>
<text xml:space="preserve" x="317.355" y="116.512" fill="black" font-size="11.7432" font-family="Helvetica">integrated p</text>
<text xml:space="preserve" x="368.507" y="137.114" fill="black" font-size="11.7432" font-family="Helvetica">cent: 10~20%</text>
<g fill="#5954d8">
<polygon points=" 339.71, 131.816 339.71, 129.921 341.605, 129.921 341.605, 131.816 343.499, 131.816 343.499, 133.71 341.605, 133.71 341.605, 135.605 339.71, 135.605 339.71, 133.71 337.816, 133.71 337.816, 131.816"/>
</g>
<text xml:space="preserve" x="368.507" y="157.717" fill="black" font-size="11.7432" font-family="Helvetica">MB events(all inelastic)</text>
<g stroke="black" stroke-width="1" fill="none">
<polygon points=" 339.71, 152.241 339.71, 150.346 341.605, 150.346 341.605, 152.241 343.499, 152.241 343.499, 154.135 341.605, 154.135 341.605, 156.03 339.71, 156.03 339.71, 154.135 337.816, 154.135 337.816, 152.241"/>
</g></svg>
