<?xml version="1.0" standalone="no"?>
<svg width="567.429" height="409.002" viewBox="0 0 567.429 409.002" xmlns="http://www.w3.org/2000/svg" shape-rendering="crispEdges">
<title>
/Users/jinhyunpark/npl/gitHub/Centrality_dependent_BiasCorrection/plots/dNdeta_charge_all2byCent_cent2.svg
</title>
<desc>
Creator: ROOT Version 6.28/04
CreationDate: Tue Oct 24 13:57:54 2023</desc>
<defs>
</defs>
<rect x="0.5" y="0" width="566.929" height="408.502" fill="white"/>
<rect x="68.5315" y="20.4251" width="430.866" height="339.056" fill="white"/>
<rect x="68.5315" y="20.4251" width="430.866" height="339.056" fill="none" stroke="black"/>
<rect x="68.5315" y="20.4251" width="430.866" height="339.056" fill="white"/>
<rect x="68.5315" y="20.4251" width="430.866" height="339.056" fill="none" stroke="black"/>
<path d="M68.5315,359.481h 430.866" fill="none" stroke="black"/>
<path d="M68.5315,350.168v 9.31384" fill="none" stroke="black"/>
<path d="M77.1488,354.824v 4.65692" fill="none" stroke="black"/>
<path d="M85.7661,354.824v 4.65692" fill="none" stroke="black"/>
<path d="M94.3835,354.824v 4.65692" fill="none" stroke="black"/>
<path d="M103.001,354.824v 4.65692" fill="none" stroke="black"/>
<path d="M111.618,350.168v 9.31384" fill="none" stroke="black"/>
<path d="M120.235,354.824v 4.65692" fill="none" stroke="black"/>
<path d="M128.853,354.824v 4.65692" fill="none" stroke="black"/>
<path d="M137.47,354.824v 4.65692" fill="none" stroke="black"/>
<path d="M146.087,354.824v 4.65692" fill="none" stroke="black"/>
<path d="M154.705,350.168v 9.31384" fill="none" stroke="black"/>
<path d="M163.322,354.824v 4.65692" fill="none" stroke="black"/>
<path d="M171.939,354.824v 4.65692" fill="none" stroke="black"/>
<path d="M180.557,354.824v 4.65692" fill="none" stroke="black"/>
<path d="M189.174,354.824v 4.65692" fill="none" stroke="black"/>
<path d="M197.791,350.168v 9.31384" fill="none" stroke="black"/>
<path d="M206.409,354.824v 4.65692" fill="none" stroke="black"/>
<path d="M215.026,354.824v 4.65692" fill="none" stroke="black"/>
<path d="M223.643,354.824v 4.65692" fill="none" stroke="black"/>
<path d="M232.261,354.824v 4.65692" fill="none" stroke="black"/>
<path d="M240.878,350.168v 9.31384" fill="none" stroke="black"/>
<path d="M249.495,354.824v 4.65692" fill="none" stroke="black"/>
<path d="M258.113,354.824v 4.65692" fill="none" stroke="black"/>
<path d="M266.73,354.824v 4.65692" fill="none" stroke="black"/>
<path d="M275.347,354.824v 4.65692" fill="none" stroke="black"/>
<path d="M283.965,350.168v 9.31384" fill="none" stroke="black"/>
<path d="M292.582,354.824v 4.65692" fill="none" stroke="black"/>
<path d="M301.199,354.824v 4.65692" fill="none" stroke="black"/>
<path d="M309.817,354.824v 4.65692" fill="none" stroke="black"/>
<path d="M318.434,354.824v 4.65692" fill="none" stroke="black"/>
<path d="M327.051,350.168v 9.31384" fill="none" stroke="black"/>
<path d="M335.669,354.824v 4.65692" fill="none" stroke="black"/>
<path d="M344.286,354.824v 4.65692" fill="none" stroke="black"/>
<path d="M352.903,354.824v 4.65692" fill="none" stroke="black"/>
<path d="M361.52,354.824v 4.65692" fill="none" stroke="black"/>
<path d="M370.138,350.168v 9.31384" fill="none" stroke="black"/>
<path d="M378.755,354.824v 4.65692" fill="none" stroke="black"/>
<path d="M387.372,354.824v 4.65692" fill="none" stroke="black"/>
<path d="M395.99,354.824v 4.65692" fill="none" stroke="black"/>
<path d="M404.607,354.824v 4.65692" fill="none" stroke="black"/>
<path d="M413.224,350.168v 9.31384" fill="none" stroke="black"/>
<path d="M421.842,354.824v 4.65692" fill="none" stroke="black"/>
<path d="M430.459,354.824v 4.65692" fill="none" stroke="black"/>
<path d="M439.076,354.824v 4.65692" fill="none" stroke="black"/>
<path d="M447.694,354.824v 4.65692" fill="none" stroke="black"/>
<path d="M456.311,350.168v 9.31384" fill="none" stroke="black"/>
<path d="M464.928,354.824v 4.65692" fill="none" stroke="black"/>
<path d="M473.546,354.824v 4.65692" fill="none" stroke="black"/>
<path d="M482.163,354.824v 4.65692" fill="none" stroke="black"/>
<path d="M490.78,354.824v 4.65692" fill="none" stroke="black"/>
<path d="M499.398,350.168v 9.31384" fill="none" stroke="black"/>
<text xml:space="preserve" x="67.9916" y="372.269" fill="black" font-size="13.617" font-family="Helvetica">5</text>
<text xml:space="preserve" x="60.1768" y="372.269" fill="black" font-size="13.617" font-family="Times">&#8722;</text>
<text xml:space="preserve" x="111.328" y="372.269" fill="black" font-size="13.617" font-family="Helvetica">4</text>
<text xml:space="preserve" x="103.513" y="372.269" fill="black" font-size="13.617" font-family="Times">&#8722;</text>
<text xml:space="preserve" x="154.665" y="372.269" fill="black" font-size="13.617" font-family="Helvetica">3</text>
<text xml:space="preserve" x="146.85" y="372.269" fill="black" font-size="13.617" font-family="Times">&#8722;</text>
<text xml:space="preserve" x="197.291" y="372.269" fill="black" font-size="13.617" font-family="Helvetica">2</text>
<text xml:space="preserve" x="189.476" y="372.269" fill="black" font-size="13.617" font-family="Times">&#8722;</text>
<text xml:space="preserve" x="241.338" y="372.269" fill="black" font-size="13.617" font-family="Helvetica">1</text>
<text xml:space="preserve" x="234.234" y="372.269" fill="black" font-size="13.617" font-family="Times">&#8722;</text>
<text xml:space="preserve" x="280.412" y="372.269" fill="black" font-size="13.617" font-family="Helvetica">0</text>
<text xml:space="preserve" x="323.749" y="372.269" fill="black" font-size="13.617" font-family="Helvetica">1</text>
<text xml:space="preserve" x="366.375" y="372.269" fill="black" font-size="13.617" font-family="Helvetica">2</text>
<text xml:space="preserve" x="409.002" y="372.269" fill="black" font-size="13.617" font-family="Helvetica">3</text>
<text xml:space="preserve" x="452.338" y="372.269" fill="black" font-size="13.617" font-family="Helvetica">4</text>
<text xml:space="preserve" x="495.675" y="372.269" fill="black" font-size="13.617" font-family="Helvetica">5</text>
<text xml:space="preserve" x="491.412" y="384.347" fill="black" font-size="13.617" font-family="Times">&#0951;</text>
<path d="M68.5315,20.4251h 430.866" fill="none" stroke="black"/>
<path d="M68.5315,29.7389v -9.31384" fill="none" stroke="black"/>
<path d="M77.1488,25.082v -4.65692" fill="none" stroke="black"/>
<path d="M85.7661,25.082v -4.65692" fill="none" stroke="black"/>
<path d="M94.3835,25.082v -4.65692" fill="none" stroke="black"/>
<path d="M103.001,25.082v -4.65692" fill="none" stroke="black"/>
<path d="M111.618,29.7389v -9.31384" fill="none" stroke="black"/>
<path d="M120.235,25.082v -4.65692" fill="none" stroke="black"/>
<path d="M128.853,25.082v -4.65692" fill="none" stroke="black"/>
<path d="M137.47,25.082v -4.65692" fill="none" stroke="black"/>
<path d="M146.087,25.082v -4.65692" fill="none" stroke="black"/>
<path d="M154.705,29.7389v -9.31384" fill="none" stroke="black"/>
<path d="M163.322,25.082v -4.65692" fill="none" stroke="black"/>
<path d="M171.939,25.082v -4.65692" fill="none" stroke="black"/>
<path d="M180.557,25.082v -4.65692" fill="none" stroke="black"/>
<path d="M189.174,25.082v -4.65692" fill="none" stroke="black"/>
<path d="M197.791,29.7389v -9.31384" fill="none" stroke="black"/>
<path d="M206.409,25.082v -4.65692" fill="none" stroke="black"/>
<path d="M215.026,25.082v -4.65692" fill="none" stroke="black"/>
<path d="M223.643,25.082v -4.65692" fill="none" stroke="black"/>
<path d="M232.261,25.082v -4.65692" fill="none" stroke="black"/>
<path d="M240.878,29.7389v -9.31384" fill="none" stroke="black"/>
<path d="M249.495,25.082v -4.65692" fill="none" stroke="black"/>
<path d="M258.113,25.082v -4.65692" fill="none" stroke="black"/>
<path d="M266.73,25.082v -4.65692" fill="none" stroke="black"/>
<path d="M275.347,25.082v -4.65692" fill="none" stroke="black"/>
<path d="M283.965,29.7389v -9.31384" fill="none" stroke="black"/>
<path d="M292.582,25.082v -4.65692" fill="none" stroke="black"/>
<path d="M301.199,25.082v -4.65692" fill="none" stroke="black"/>
<path d="M309.817,25.082v -4.65692" fill="none" stroke="black"/>
<path d="M318.434,25.082v -4.65692" fill="none" stroke="black"/>
<path d="M327.051,29.7389v -9.31384" fill="none" stroke="black"/>
<path d="M335.669,25.082v -4.65692" fill="none" stroke="black"/>
<path d="M344.286,25.082v -4.65692" fill="none" stroke="black"/>
<path d="M352.903,25.082v -4.65692" fill="none" stroke="black"/>
<path d="M361.52,25.082v -4.65692" fill="none" stroke="black"/>
<path d="M370.138,29.7389v -9.31384" fill="none" stroke="black"/>
<path d="M378.755,25.082v -4.65692" fill="none" stroke="black"/>
<path d="M387.372,25.082v -4.65692" fill="none" stroke="black"/>
<path d="M395.99,25.082v -4.65692" fill="none" stroke="black"/>
<path d="M404.607,25.082v -4.65692" fill="none" stroke="black"/>
<path d="M413.224,29.7389v -9.31384" fill="none" stroke="black"/>
<path d="M421.842,25.082v -4.65692" fill="none" stroke="black"/>
<path d="M430.459,25.082v -4.65692" fill="none" stroke="black"/>
<path d="M439.076,25.082v -4.65692" fill="none" stroke="black"/>
<path d="M447.694,25.082v -4.65692" fill="none" stroke="black"/>
<path d="M456.311,29.7389v -9.31384" fill="none" stroke="black"/>
<path d="M464.928,25.082v -4.65692" fill="none" stroke="black"/>
<path d="M473.546,25.082v -4.65692" fill="none" stroke="black"/>
<path d="M482.163,25.082v -4.65692" fill="none" stroke="black"/>
<path d="M490.78,25.082v -4.65692" fill="none" stroke="black"/>
<path d="M499.398,29.7389v -9.31384" fill="none" stroke="black"/>
<path d="M68.5315,359.481v -339.056" fill="none" stroke="black"/>
<path d="M82.648,359.481h -14.1165" fill="none" stroke="black"/>
<path d="M75.5898,351.005h -7.05827" fill="none" stroke="black"/>
<path d="M75.5898,342.529h -7.05827" fill="none" stroke="black"/>
<path d="M75.5898,334.052h -7.05827" fill="none" stroke="black"/>
<path d="M75.5898,325.576h -7.05827" fill="none" stroke="black"/>
<path d="M82.648,317.099h -14.1165" fill="none" stroke="black"/>
<path d="M75.5898,308.623h -7.05827" fill="none" stroke="black"/>
<path d="M75.5898,300.147h -7.05827" fill="none" stroke="black"/>
<path d="M75.5898,291.67h -7.05827" fill="none" stroke="black"/>
<path d="M75.5898,283.194h -7.05827" fill="none" stroke="black"/>
<path d="M82.648,274.717h -14.1165" fill="none" stroke="black"/>
<path d="M75.5898,266.241h -7.05827" fill="none" stroke="black"/>
<path d="M75.5898,257.764h -7.05827" fill="none" stroke="black"/>
<path d="M75.5898,249.288h -7.05827" fill="none" stroke="black"/>
<path d="M75.5898,240.812h -7.05827" fill="none" stroke="black"/>
<path d="M82.648,232.335h -14.1165" fill="none" stroke="black"/>
<path d="M75.5898,223.859h -7.05827" fill="none" stroke="black"/>
<path d="M75.5898,215.382h -7.05827" fill="none" stroke="black"/>
<path d="M75.5898,206.906h -7.05827" fill="none" stroke="black"/>
<path d="M75.5898,198.43h -7.05827" fill="none" stroke="black"/>
<path d="M82.648,189.953h -14.1165" fill="none" stroke="black"/>
<path d="M75.5898,181.477h -7.05827" fill="none" stroke="black"/>
<path d="M75.5898,173h -7.05827" fill="none" stroke="black"/>
<path d="M75.5898,164.524h -7.05827" fill="none" stroke="black"/>
<path d="M75.5898,156.048h -7.05827" fill="none" stroke="black"/>
<path d="M82.648,147.571h -14.1165" fill="none" stroke="black"/>
<path d="M75.5898,139.095h -7.05827" fill="none" stroke="black"/>
<path d="M75.5898,130.618h -7.05827" fill="none" stroke="black"/>
<path d="M75.5898,122.142h -7.05827" fill="none" stroke="black"/>
<path d="M75.5898,113.666h -7.05827" fill="none" stroke="black"/>
<path d="M82.648,105.189h -14.1165" fill="none" stroke="black"/>
<path d="M75.5898,96.7127h -7.05827" fill="none" stroke="black"/>
<path d="M75.5898,88.2363h -7.05827" fill="none" stroke="black"/>
<path d="M75.5898,79.7599h -7.05827" fill="none" stroke="black"/>
<path d="M75.5898,71.2835h -7.05827" fill="none" stroke="black"/>
<path d="M82.648,62.8071h -14.1165" fill="none" stroke="black"/>
<path d="M75.5898,54.3307h -7.05827" fill="none" stroke="black"/>
<path d="M75.5898,45.8543h -7.05827" fill="none" stroke="black"/>
<path d="M75.5898,37.3779h -7.05827" fill="none" stroke="black"/>
<path d="M75.5898,28.9015h -7.05827" fill="none" stroke="black"/>
<path d="M82.648,20.4251h -14.1165" fill="none" stroke="black"/>
<text xml:space="preserve" x="58.0454" y="364.454" fill="black" font-size="13.617" font-family="Helvetica">0</text>
<text xml:space="preserve" x="46.6784" y="321.828" fill="black" font-size="13.617" font-family="Helvetica">0.5</text>
<text xml:space="preserve" x="60.1768" y="279.912" fill="black" font-size="13.617" font-family="Helvetica">1</text>
<text xml:space="preserve" x="46.6784" y="237.286" fill="black" font-size="13.617" font-family="Helvetica">1.5</text>
<text xml:space="preserve" x="58.0454" y="195.37" fill="black" font-size="13.617" font-family="Helvetica">2</text>
<text xml:space="preserve" x="46.6784" y="152.034" fill="black" font-size="13.617" font-family="Helvetica">2.5</text>
<text xml:space="preserve" x="58.0454" y="110.118" fill="black" font-size="13.617" font-family="Helvetica">3</text>
<text xml:space="preserve" x="46.6784" y="67.4916" fill="black" font-size="13.617" font-family="Helvetica">3.5</text>
<text xml:space="preserve" x="58.0454" y="25.5758" fill="black" font-size="13.617" font-family="Helvetica">4</text>
<g transform="rotate(-90,40.2845,32.6801)">
<text xml:space="preserve" x="40.2845" y="32.6801" fill="black" font-size="13.617" font-family="Times">&#0951;</text>
</g>
<g transform="rotate(-90,40.2845,39.7845)">
<text xml:space="preserve" x="40.2845" y="39.7845" fill="black" font-size="13.617" font-family="Helvetica">d</text>
</g>
<g transform="rotate(-90,19.6818,29.1279)">
<text xml:space="preserve" x="19.6818" y="29.1279" fill="black" font-size="9.24468" font-family="Helvetica">ch</text>
</g>
<g transform="rotate(-90,26.0758,45.468)">
<text xml:space="preserve" x="26.0758" y="45.468" fill="black" font-size="13.617" font-family="Helvetica">dN</text>
</g>
<path d="M28.9175,45.468v -25.5758" fill="none" stroke="black" stroke-width="2"/>
<g transform="rotate(-90,32.4697,49.7306)">
<text xml:space="preserve" x="32.4697" y="49.7306" fill="black" font-size="13.617" font-family="Helvetica"> </text>
</g>
<g transform="rotate(-90,44.5471,72.4646)">
<text xml:space="preserve" x="44.5471" y="72.4646" fill="black" font-size="9.24468" font-family="Helvetica">event</text>
</g>
<g transform="rotate(-90,40.2845,81.7003)">
<text xml:space="preserve" x="40.2845" y="81.7003" fill="black" font-size="13.617" font-family="Helvetica">N</text>
</g>
<g transform="rotate(-90,26.7862,68.202)">
<text xml:space="preserve" x="26.7862" y="68.202" fill="black" font-size="13.617" font-family="Helvetica">1</text>
</g>
<path d="M28.9175,81.7003v -31.9697" fill="none" stroke="black" stroke-width="2"/>
<g transform="rotate(-90,32.4697,85.9629)">
<text xml:space="preserve" x="32.4697" y="85.9629" fill="black" font-size="13.617" font-family="Helvetica"> </text>
</g>
<g transform="rotate(-90,40.9949,90.2256)">
<text xml:space="preserve" x="40.9949" y="90.2256" fill="black" font-size="13.617" font-family="Times">&#0062;</text>
</g>
<g transform="rotate(-90,40.9949,94.4882)">
<text xml:space="preserve" x="40.9949" y="94.4882" fill="black" font-size="13.617" font-family="Helvetica"> </text>
</g>
<g transform="rotate(-90,47.3889,107.987)">
<text xml:space="preserve" x="47.3889" y="107.987" fill="black" font-size="9.24468" font-family="Helvetica">coll</text>
</g>
<g transform="rotate(-90,40.9949,120.774)">
<text xml:space="preserve" x="40.9949" y="120.774" fill="black" font-size="13.617" font-family="Helvetica"> N</text>
</g>
<g transform="rotate(-90,40.9949,125.037)">
<text xml:space="preserve" x="40.9949" y="125.037" fill="black" font-size="13.617" font-family="Times">&#0060;</text>
</g>
<g transform="rotate(-90,26.7862,107.987)">
<text xml:space="preserve" x="26.7862" y="107.987" fill="black" font-size="13.617" font-family="Helvetica">1</text>
</g>
<path d="M28.9175,125.037v -39.0741" fill="none" stroke="black" stroke-width="2"/>
<path d="M499.398,359.481v -339.056" fill="none" stroke="black"/>
<path d="M485.281,359.481h 14.1165" fill="none" stroke="black"/>
<path d="M492.339,351.005h 7.05827" fill="none" stroke="black"/>
<path d="M492.339,342.529h 7.05827" fill="none" stroke="black"/>
<path d="M492.339,334.052h 7.05827" fill="none" stroke="black"/>
<path d="M492.339,325.576h 7.05827" fill="none" stroke="black"/>
<path d="M485.281,317.099h 14.1165" fill="none" stroke="black"/>
<path d="M492.339,308.623h 7.05827" fill="none" stroke="black"/>
<path d="M492.339,300.147h 7.05827" fill="none" stroke="black"/>
<path d="M492.339,291.67h 7.05827" fill="none" stroke="black"/>
<path d="M492.339,283.194h 7.05827" fill="none" stroke="black"/>
<path d="M485.281,274.717h 14.1165" fill="none" stroke="black"/>
<path d="M492.339,266.241h 7.05827" fill="none" stroke="black"/>
<path d="M492.339,257.764h 7.05827" fill="none" stroke="black"/>
<path d="M492.339,249.288h 7.05827" fill="none" stroke="black"/>
<path d="M492.339,240.812h 7.05827" fill="none" stroke="black"/>
<path d="M485.281,232.335h 14.1165" fill="none" stroke="black"/>
<path d="M492.339,223.859h 7.05827" fill="none" stroke="black"/>
<path d="M492.339,215.382h 7.05827" fill="none" stroke="black"/>
<path d="M492.339,206.906h 7.05827" fill="none" stroke="black"/>
<path d="M492.339,198.43h 7.05827" fill="none" stroke="black"/>
<path d="M485.281,189.953h 14.1165" fill="none" stroke="black"/>
<path d="M492.339,181.477h 7.05827" fill="none" stroke="black"/>
<path d="M492.339,173h 7.05827" fill="none" stroke="black"/>
<path d="M492.339,164.524h 7.05827" fill="none" stroke="black"/>
<path d="M492.339,156.048h 7.05827" fill="none" stroke="black"/>
<path d="M485.281,147.571h 14.1165" fill="none" stroke="black"/>
<path d="M492.339,139.095h 7.05827" fill="none" stroke="black"/>
<path d="M492.339,130.618h 7.05827" fill="none" stroke="black"/>
<path d="M492.339,122.142h 7.05827" fill="none" stroke="black"/>
<path d="M492.339,113.666h 7.05827" fill="none" stroke="black"/>
<path d="M485.281,105.189h 14.1165" fill="none" stroke="black"/>
<path d="M492.339,96.7127h 7.05827" fill="none" stroke="black"/>
<path d="M492.339,88.2363h 7.05827" fill="none" stroke="black"/>
<path d="M492.339,79.7599h 7.05827" fill="none" stroke="black"/>
<path d="M492.339,71.2835h 7.05827" fill="none" stroke="black"/>
<path d="M485.281,62.8071h 14.1165" fill="none" stroke="black"/>
<path d="M492.339,54.3307h 7.05827" fill="none" stroke="black"/>
<path d="M492.339,45.8543h 7.05827" fill="none" stroke="black"/>
<path d="M492.339,37.3779h 7.05827" fill="none" stroke="black"/>
<path d="M492.339,28.9015h 7.05827" fill="none" stroke="black"/>
<path d="M485.281,20.4251h 14.1165" fill="none" stroke="black"/>
<g stroke="black" stroke-width="1" fill="none">
<polygon points=" 69.7386, 295.268 69.7386, 293.373 71.6331, 293.373 71.6331, 295.268 73.5276, 295.268 73.5276, 297.162 71.6331, 297.162 71.6331, 299.057 69.7386, 299.057 69.7386, 297.162 67.8441, 297.162 67.8441, 295.268"/>
</g>
<g stroke="black" stroke-width="1" fill="none">
<polygon points=" 74.0472, 289.931 74.0472, 288.037 75.9417, 288.037 75.9417, 289.931 77.8362, 289.931 77.8362, 291.826 75.9417, 291.826 75.9417, 293.72 74.0472, 293.72 74.0472, 291.826 72.1527, 291.826 72.1527, 289.931"/>
</g>
<g stroke="black" stroke-width="1" fill="none">
<polygon points=" 78.3559, 284.755 78.3559, 282.86 80.2504, 282.86 80.2504, 284.755 82.1449, 284.755 82.1449, 286.649 80.2504, 286.649 80.2504, 288.544 78.3559, 288.544 78.3559, 286.649 76.4614, 286.649 76.4614, 284.755"/>
</g>
<g stroke="black" stroke-width="1" fill="none">
<polygon points=" 82.6646, 279.807 82.6646, 277.913 84.5591, 277.913 84.5591, 279.807 86.4536, 279.807 86.4536, 281.702 84.5591, 281.702 84.5591, 283.596 82.6646, 283.596 82.6646, 281.702 80.7701, 281.702 80.7701, 279.807"/>
</g>
<g stroke="black" stroke-width="1" fill="none">
<polygon points=" 86.9732, 275.247 86.9732, 273.353 88.8677, 273.353 88.8677, 275.247 90.7622, 275.247 90.7622, 277.142 88.8677, 277.142 88.8677, 279.036 86.9732, 279.036 86.9732, 277.142 85.0787, 277.142 85.0787, 275.247"/>
</g>
<g stroke="black" stroke-width="1" fill="none">
<polygon points=" 91.2819, 271.028 91.2819, 269.134 93.1764, 269.134 93.1764, 271.028 95.0709, 271.028 95.0709, 272.923 93.1764, 272.923 93.1764, 274.817 91.2819, 274.817 91.2819, 272.923 89.3874, 272.923 89.3874, 271.028"/>
</g>
<g stroke="black" stroke-width="1" fill="none">
<polygon points=" 95.5905, 267.143 95.5905, 265.248 97.485, 265.248 97.485, 267.143 99.3795, 267.143 99.3795, 269.037 97.485, 269.037 97.485, 270.932 95.5905, 270.932 95.5905, 269.037 93.696, 269.037 93.696, 267.143"/>
</g>
<g stroke="black" stroke-width="1" fill="none">
<polygon points=" 99.8992, 263.532 99.8992, 261.638 101.794, 261.638 101.794, 263.532 103.688, 263.532 103.688, 265.427 101.794, 265.427 101.794, 267.321 99.8992, 267.321 99.8992, 265.427 98.0047, 265.427 98.0047, 263.532"/>
</g>
<g stroke="black" stroke-width="1" fill="none">
<polygon points=" 104.208, 260.122 104.208, 258.228 106.102, 258.228 106.102, 260.122 107.997, 260.122 107.997, 262.017 106.102, 262.017 106.102, 263.911 104.208, 263.911 104.208, 262.017 102.313, 262.017 102.313, 260.122"/>
</g>
<g stroke="black" stroke-width="1" fill="none">
<polygon points=" 108.517, 256.924 108.517, 255.03 110.411, 255.03 110.411, 256.924 112.306, 256.924 112.306, 258.819 110.411, 258.819 110.411, 260.713 108.517, 260.713 108.517, 258.819 106.622, 258.819 106.622, 256.924"/>
</g>
<g stroke="black" stroke-width="1" fill="none">
<polygon points=" 112.825, 253.873 112.825, 251.979 114.72, 251.979 114.72, 253.873 116.614, 253.873 116.614, 255.768 114.72, 255.768 114.72, 257.662 112.825, 257.662 112.825, 255.768 110.931, 255.768 110.931, 253.873"/>
</g>
<g stroke="black" stroke-width="1" fill="none">
<polygon points=" 117.134, 250.992 117.134, 249.098 119.028, 249.098 119.028, 250.992 120.923, 250.992 120.923, 252.887 119.028, 252.887 119.028, 254.781 117.134, 254.781 117.134, 252.887 115.239, 252.887 115.239, 250.992"/>
</g>
<g stroke="black" stroke-width="1" fill="none">
<polygon points=" 121.443, 248.316 121.443, 246.421 123.337, 246.421 123.337, 248.316 125.232, 248.316 125.232, 250.21 123.337, 250.21 123.337, 252.105 121.443, 252.105 121.443, 250.21 119.548, 250.21 119.548, 248.316"/>
</g>
<g stroke="black" stroke-width="1" fill="none">
<polygon points=" 125.751, 245.735 125.751, 243.84 127.646, 243.84 127.646, 245.735 129.54, 245.735 129.54, 247.629 127.646, 247.629 127.646, 249.524 125.751, 249.524 125.751, 247.629 123.857, 247.629 123.857, 245.735"/>
</g>
<g stroke="black" stroke-width="1" fill="none">
<polygon points=" 130.06, 243.304 130.06, 241.409 131.954, 241.409 131.954, 243.304 133.849, 243.304 133.849, 245.198 131.954, 245.198 131.954, 247.093 130.06, 247.093 130.06, 245.198 128.165, 245.198 128.165, 243.304"/>
</g>
<g stroke="black" stroke-width="1" fill="none">
<polygon points=" 134.368, 241.06 134.368, 239.166 136.263, 239.166 136.263, 241.06 138.158, 241.06 138.158, 242.955 136.263, 242.955 136.263, 244.849 134.368, 244.849 134.368, 242.955 132.474, 242.955 132.474, 241.06"/>
</g>
<g stroke="black" stroke-width="1" fill="none">
<polygon points=" 138.677, 238.837 138.677, 236.942 140.572, 236.942 140.572, 238.837 142.466, 238.837 142.466, 240.731 140.572, 240.731 140.572, 242.626 138.677, 242.626 138.677, 240.731 136.783, 240.731 136.783, 238.837"/>
</g>
<g stroke="black" stroke-width="1" fill="none">
<polygon points=" 142.986, 236.814 142.986, 234.919 144.88, 234.919 144.88, 236.814 146.775, 236.814 146.775, 238.708 144.88, 238.708 144.88, 240.603 142.986, 240.603 142.986, 238.708 141.091, 238.708 141.091, 236.814"/>
</g>
<g stroke="black" stroke-width="1" fill="none">
<polygon points=" 147.294, 234.902 147.294, 233.008 149.189, 233.008 149.189, 234.902 151.083, 234.902 151.083, 236.797 149.189, 236.797 149.189, 238.691 147.294, 238.691 147.294, 236.797 145.4, 236.797 145.4, 234.902"/>
</g>
<g stroke="black" stroke-width="1" fill="none">
<polygon points=" 151.603, 233.091 151.603, 231.196 153.498, 231.196 153.498, 233.091 155.392, 233.091 155.392, 234.985 153.498, 234.985 153.498, 236.88 151.603, 236.88 151.603, 234.985 149.709, 234.985 149.709, 233.091"/>
</g>
<g stroke="black" stroke-width="1" fill="none">
<polygon points=" 155.912, 231.521 155.912, 229.626 157.806, 229.626 157.806, 231.521 159.701, 231.521 159.701, 233.415 157.806, 233.415 157.806, 235.31 155.912, 235.31 155.912, 233.415 154.017, 233.415 154.017, 231.521"/>
</g>
<g stroke="black" stroke-width="1" fill="none">
<polygon points=" 160.22, 230.113 160.22, 228.218 162.115, 228.218 162.115, 230.113 164.009, 230.113 164.009, 232.007 162.115, 232.007 162.115, 233.902 160.22, 233.902 160.22, 232.007 158.326, 232.007 158.326, 230.113"/>
</g>
<g stroke="black" stroke-width="1" fill="none">
<polygon points=" 164.529, 228.825 164.529, 226.931 166.424, 226.931 166.424, 228.825 168.318, 228.825 168.318, 230.72 166.424, 230.72 166.424, 232.614 164.529, 232.614 164.529, 230.72 162.635, 230.72 162.635, 228.825"/>
</g>
<g stroke="black" stroke-width="1" fill="none">
<polygon points=" 168.838, 227.78 168.838, 225.885 170.732, 225.885 170.732, 227.78 172.627, 227.78 172.627, 229.674 170.732, 229.674 170.732, 231.569 168.838, 231.569 168.838, 229.674 166.943, 229.674 166.943, 227.78"/>
</g>
<g stroke="black" stroke-width="1" fill="none">
<polygon points=" 173.146, 226.887 173.146, 224.992 175.041, 224.992 175.041, 226.887 176.935, 226.887 176.935, 228.781 175.041, 228.781 175.041, 230.676 173.146, 230.676 173.146, 228.781 171.252, 228.781 171.252, 226.887"/>
</g>
<g stroke="black" stroke-width="1" fill="none">
<polygon points=" 177.455, 226.2 177.455, 224.305 179.35, 224.305 179.35, 226.2 181.244, 226.2 181.244, 228.094 179.35, 228.094 179.35, 229.989 177.455, 229.989 177.455, 228.094 175.561, 228.094 175.561, 226.2"/>
</g>
<g stroke="black" stroke-width="1" fill="none">
<polygon points=" 181.764, 225.736 181.764, 223.842 183.658, 223.842 183.658, 225.736 185.553, 225.736 185.553, 227.631 183.658, 227.631 183.658, 229.525 181.764, 229.525 181.764, 227.631 179.869, 227.631 179.869, 225.736"/>
</g>
<g stroke="black" stroke-width="1" fill="none">
<polygon points=" 186.072, 225.434 186.072, 223.539 187.967, 223.539 187.967, 225.434 189.861, 225.434 189.861, 227.328 187.967, 227.328 187.967, 229.223 186.072, 229.223 186.072, 227.328 184.178, 227.328 184.178, 225.434"/>
</g>
<g stroke="black" stroke-width="1" fill="none">
<polygon points=" 190.381, 225.395 190.381, 223.5 192.276, 223.5 192.276, 225.395 194.17, 225.395 194.17, 227.289 192.276, 227.289 192.276, 229.184 190.381, 229.184 190.381, 227.289 188.487, 227.289 188.487, 225.395"/>
</g>
<g stroke="black" stroke-width="1" fill="none">
<polygon points=" 194.69, 225.466 194.69, 223.572 196.584, 223.572 196.584, 225.466 198.479, 225.466 198.479, 227.361 196.584, 227.361 196.584, 229.255 194.69, 229.255 194.69, 227.361 192.795, 227.361 192.795, 225.466"/>
</g>
<g stroke="black" stroke-width="1" fill="none">
<polygon points=" 198.998, 225.813 198.998, 223.918 200.893, 223.918 200.893, 225.813 202.787, 225.813 202.787, 227.707 200.893, 227.707 200.893, 229.602 198.998, 229.602 198.998, 227.707 197.104, 227.707 197.104, 225.813"/>
</g>
<g stroke="black" stroke-width="1" fill="none">
<polygon points=" 203.307, 226.332 203.307, 224.437 205.202, 224.437 205.202, 226.332 207.096, 226.332 207.096, 228.226 205.202, 228.226 205.202, 230.121 203.307, 230.121 203.307, 228.226 201.413, 228.226 201.413, 226.332"/>
</g>
<g stroke="black" stroke-width="1" fill="none">
<polygon points=" 207.616, 227.056 207.616, 225.161 209.51, 225.161 209.51, 227.056 211.405, 227.056 211.405, 228.95 209.51, 228.95 209.51, 230.845 207.616, 230.845 207.616, 228.95 205.721, 228.95 205.721, 227.056"/>
</g>
<g stroke="black" stroke-width="1" fill="none">
<polygon points=" 211.924, 227.976 211.924, 226.081 213.819, 226.081 213.819, 227.976 215.713, 227.976 215.713, 229.87 213.819, 229.87 213.819, 231.765 211.924, 231.765 211.924, 229.87 210.03, 229.87 210.03, 227.976"/>
</g>
<g stroke="black" stroke-width="1" fill="none">
<polygon points=" 216.233, 229.098 216.233, 227.204 218.128, 227.204 218.128, 229.098 220.022, 229.098 220.022, 230.993 218.128, 230.993 218.128, 232.887 216.233, 232.887 216.233, 230.993 214.339, 230.993 214.339, 229.098"/>
</g>
<g stroke="black" stroke-width="1" fill="none">
<polygon points=" 220.542, 230.373 220.542, 228.478 222.436, 228.478 222.436, 230.373 224.331, 230.373 224.331, 232.267 222.436, 232.267 222.436, 234.162 220.542, 234.162 220.542, 232.267 218.647, 232.267 218.647, 230.373"/>
</g>
<g stroke="black" stroke-width="1" fill="none">
<polygon points=" 224.85, 231.829 224.85, 229.935 226.745, 229.935 226.745, 231.829 228.639, 231.829 228.639, 233.724 226.745, 233.724 226.745, 235.618 224.85, 235.618 224.85, 233.724 222.956, 233.724 222.956, 231.829"/>
</g>
<g stroke="black" stroke-width="1" fill="none">
<polygon points=" 229.159, 233.5 229.159, 231.605 231.054, 231.605 231.054, 233.5 232.948, 233.5 232.948, 235.394 231.054, 235.394 231.054, 237.289 229.159, 237.289 229.159, 235.394 227.265, 235.394 227.265, 233.5"/>
</g>
<g stroke="black" stroke-width="1" fill="none">
<polygon points=" 233.468, 235.252 233.468, 233.358 235.362, 233.358 235.362, 235.252 237.257, 235.252 237.257, 237.147 235.362, 237.147 235.362, 239.041 233.468, 239.041 233.468, 237.147 231.573, 237.147 231.573, 235.252"/>
</g>
<g stroke="black" stroke-width="1" fill="none">
<polygon points=" 237.776, 237.122 237.776, 235.227 239.671, 235.227 239.671, 237.122 241.565, 237.122 241.565, 239.016 239.671, 239.016 239.671, 240.911 237.776, 240.911 237.776, 239.016 235.882, 239.016 235.882, 237.122"/>
</g>
<g stroke="black" stroke-width="1" fill="none">
<polygon points=" 242.085, 239.099 242.085, 237.204 243.98, 237.204 243.98, 239.099 245.874, 239.099 245.874, 240.993 243.98, 240.993 243.98, 242.888 242.085, 242.888 242.085, 240.993 240.191, 240.993 240.191, 239.099"/>
</g>
<g stroke="black" stroke-width="1" fill="none">
<polygon points=" 246.394, 241.137 246.394, 239.243 248.288, 239.243 248.288, 241.137 250.183, 241.137 250.183, 243.032 248.288, 243.032 248.288, 244.926 246.394, 244.926 246.394, 243.032 244.499, 243.032 244.499, 241.137"/>
</g>
<g stroke="black" stroke-width="1" fill="none">
<polygon points=" 250.702, 243.225 250.702, 241.33 252.597, 241.33 252.597, 243.225 254.491, 243.225 254.491, 245.119 252.597, 245.119 252.597, 247.014 250.702, 247.014 250.702, 245.119 248.808, 245.119 248.808, 243.225"/>
</g>
<g stroke="black" stroke-width="1" fill="none">
<polygon points=" 255.011, 245.302 255.011, 243.407 256.906, 243.407 256.906, 245.302 258.8, 245.302 258.8, 247.196 256.906, 247.196 256.906, 249.091 255.011, 249.091 255.011, 247.196 253.117, 247.196 253.117, 245.302"/>
</g>
<g stroke="black" stroke-width="1" fill="none">
<polygon points=" 259.32, 247.34 259.32, 245.446 261.214, 245.446 261.214, 247.34 263.109, 247.34 263.109, 249.235 261.214, 249.235 261.214, 251.129 259.32, 251.129 259.32, 249.235 257.425, 249.235 257.425, 247.34"/>
</g>
<g stroke="black" stroke-width="1" fill="none">
<polygon points=" 263.628, 249.283 263.628, 247.389 265.523, 247.389 265.523, 249.283 267.417, 249.283 267.417, 251.178 265.523, 251.178 265.523, 253.072 263.628, 253.072 263.628, 251.178 261.734, 251.178 261.734, 249.283"/>
</g>
<g stroke="black" stroke-width="1" fill="none">
<polygon points=" 267.937, 251.133 267.937, 249.238 269.832, 249.238 269.832, 251.133 271.726, 251.133 271.726, 253.027 269.832, 253.027 269.832, 254.922 267.937, 254.922 267.937, 253.027 266.043, 253.027 266.043, 251.133"/>
</g>
<g stroke="black" stroke-width="1" fill="none">
<polygon points=" 272.246, 252.857 272.246, 250.962 274.14, 250.962 274.14, 252.857 276.035, 252.857 276.035, 254.751 274.14, 254.751 274.14, 256.646 272.246, 256.646 272.246, 254.751 270.351, 254.751 270.351, 252.857"/>
</g>
<g stroke="black" stroke-width="1" fill="none">
<polygon points=" 276.554, 254.396 276.554, 252.502 278.449, 252.502 278.449, 254.396 280.343, 254.396 280.343, 256.291 278.449, 256.291 278.449, 258.185 276.554, 258.185 276.554, 256.291 274.66, 256.291 274.66, 254.396"/>
</g>
<g stroke="black" stroke-width="1" fill="none">
<polygon points=" 280.863, 255.77 280.863, 253.876 282.757, 253.876 282.757, 255.77 284.652, 255.77 284.652, 257.665 282.757, 257.665 282.757, 259.559 280.863, 259.559 280.863, 257.665 278.968, 257.665 278.968, 255.77"/>
</g>
<g stroke="black" stroke-width="1" fill="none">
<polygon points=" 285.172, 256.987 285.172, 255.093 287.066, 255.093 287.066, 256.987 288.961, 256.987 288.961, 258.882 287.066, 258.882 287.066, 260.776 285.172, 260.776 285.172, 258.882 283.277, 258.882 283.277, 256.987"/>
</g>
<g stroke="black" stroke-width="1" fill="none">
<polygon points=" 289.48, 258.004 289.48, 256.11 291.375, 256.11 291.375, 258.004 293.269, 258.004 293.269, 259.899 291.375, 259.899 291.375, 261.793 289.48, 261.793 289.48, 259.899 287.586, 259.899 287.586, 258.004"/>
</g>
<g stroke="black" stroke-width="1" fill="none">
<polygon points=" 293.789, 258.89 293.789, 256.995 295.683, 256.995 295.683, 258.89 297.578, 258.89 297.578, 260.784 295.683, 260.784 295.683, 262.679 293.789, 262.679 293.789, 260.784 291.894, 260.784 291.894, 258.89"/>
</g>
<g stroke="black" stroke-width="1" fill="none">
<polygon points=" 298.098, 259.646 298.098, 257.751 299.992, 257.751 299.992, 259.646 301.887, 259.646 301.887, 261.54 299.992, 261.54 299.992, 263.435 298.098, 263.435 298.098, 261.54 296.203, 261.54 296.203, 259.646"/>
</g>
<g stroke="black" stroke-width="1" fill="none">
<polygon points=" 302.406, 260.289 302.406, 258.394 304.301, 258.394 304.301, 260.289 306.195, 260.289 306.195, 262.183 304.301, 262.183 304.301, 264.078 302.406, 264.078 302.406, 262.183 300.512, 262.183 300.512, 260.289"/>
</g>
<g stroke="black" stroke-width="1" fill="none">
<polygon points=" 306.715, 260.913 306.715, 259.019 308.609, 259.019 308.609, 260.913 310.504, 260.913 310.504, 262.808 308.609, 262.808 308.609, 264.702 306.715, 264.702 306.715, 262.808 304.82, 262.808 304.82, 260.913"/>
</g>
<g stroke="black" stroke-width="1" fill="none">
<polygon points=" 311.024, 261.535 311.024, 259.641 312.918, 259.641 312.918, 261.535 314.813, 261.535 314.813, 263.43 312.918, 263.43 312.918, 265.324 311.024, 265.324 311.024, 263.43 309.129, 263.43 309.129, 261.535"/>
</g>
<g stroke="black" stroke-width="1" fill="none">
<polygon points=" 315.332, 262.125 315.332, 260.23 317.227, 260.23 317.227, 262.125 319.121, 262.125 319.121, 264.019 317.227, 264.019 317.227, 265.914 315.332, 265.914 315.332, 264.019 313.438, 264.019 313.438, 262.125"/>
</g>
<g stroke="black" stroke-width="1" fill="none">
<polygon points=" 319.641, 262.795 319.641, 260.9 321.535, 260.9 321.535, 262.795 323.43, 262.795 323.43, 264.689 321.535, 264.689 321.535, 266.584 319.641, 266.584 319.641, 264.689 317.746, 264.689 317.746, 262.795"/>
</g>
<g stroke="black" stroke-width="1" fill="none">
<polygon points=" 323.95, 263.554 323.95, 261.66 325.844, 261.66 325.844, 263.554 327.739, 263.554 327.739, 265.449 325.844, 265.449 325.844, 267.343 323.95, 267.343 323.95, 265.449 322.055, 265.449 322.055, 263.554"/>
</g>
<g stroke="black" stroke-width="1" fill="none">
<polygon points=" 328.258, 264.374 328.258, 262.479 330.153, 262.479 330.153, 264.374 332.047, 264.374 332.047, 266.268 330.153, 266.268 330.153, 268.163 328.258, 268.163 328.258, 266.268 326.364, 266.268 326.364, 264.374"/>
</g>
<g stroke="black" stroke-width="1" fill="none">
<polygon points=" 332.567, 265.353 332.567, 263.458 334.461, 263.458 334.461, 265.353 336.356, 265.353 336.356, 267.247 334.461, 267.247 334.461, 269.142 332.567, 269.142 332.567, 267.247 330.672, 267.247 330.672, 265.353"/>
</g>
<g stroke="black" stroke-width="1" fill="none">
<polygon points=" 336.876, 266.427 336.876, 264.532 338.77, 264.532 338.77, 266.427 340.665, 266.427 340.665, 268.321 338.77, 268.321 338.77, 270.216 336.876, 270.216 336.876, 268.321 334.981, 268.321 334.981, 266.427"/>
</g>
<g stroke="black" stroke-width="1" fill="none">
<polygon points=" 341.184, 267.684 341.184, 265.789 343.079, 265.789 343.079, 267.684 344.973, 267.684 344.973, 269.578 343.079, 269.578 343.079, 271.473 341.184, 271.473 341.184, 269.578 339.29, 269.578 339.29, 267.684"/>
</g>
<g stroke="black" stroke-width="1" fill="none">
<polygon points=" 345.493, 269.027 345.493, 267.132 347.387, 267.132 347.387, 269.027 349.282, 269.027 349.282, 270.921 347.387, 270.921 347.387, 272.816 345.493, 272.816 345.493, 270.921 343.598, 270.921 343.598, 269.027"/>
</g>
<g stroke="black" stroke-width="1" fill="none">
<polygon points=" 349.802, 270.552 349.802, 268.658 351.696, 268.658 351.696, 270.552 353.591, 270.552 353.591, 272.447 351.696, 272.447 351.696, 274.341 349.802, 274.341 349.802, 272.447 347.907, 272.447 347.907, 270.552"/>
</g>
<g stroke="black" stroke-width="1" fill="none">
<polygon points=" 354.11, 272.245 354.11, 270.351 356.005, 270.351 356.005, 272.245 357.899, 272.245 357.899, 274.14 356.005, 274.14 356.005, 276.034 354.11, 276.034 354.11, 274.14 352.216, 274.14 352.216, 272.245"/>
</g>
<g stroke="black" stroke-width="1" fill="none">
<polygon points=" 358.419, 274.053 358.419, 272.159 360.313, 272.159 360.313, 274.053 362.208, 274.053 362.208, 275.948 360.313, 275.948 360.313, 277.842 358.419, 277.842 358.419, 275.948 356.524, 275.948 356.524, 274.053"/>
</g>
<g stroke="black" stroke-width="1" fill="none">
<polygon points=" 362.728, 276.033 362.728, 274.138 364.622, 274.138 364.622, 276.033 366.517, 276.033 366.517, 277.927 364.622, 277.927 364.622, 279.822 362.728, 279.822 362.728, 277.927 360.833, 277.927 360.833, 276.033"/>
</g>
<g stroke="black" stroke-width="1" fill="none">
<polygon points=" 367.036, 278.145 367.036, 276.25 368.931, 276.25 368.931, 278.145 370.825, 278.145 370.825, 280.039 368.931, 280.039 368.931, 281.934 367.036, 281.934 367.036, 280.039 365.142, 280.039 365.142, 278.145"/>
</g>
<g stroke="black" stroke-width="1" fill="none">
<polygon points=" 371.345, 280.316 371.345, 278.422 373.239, 278.422 373.239, 280.316 375.134, 280.316 375.134, 282.211 373.239, 282.211 373.239, 284.105 371.345, 284.105 371.345, 282.211 369.45, 282.211 369.45, 280.316"/>
</g>
<g stroke="black" stroke-width="1" fill="none">
<polygon points=" 375.654, 282.659 375.654, 280.765 377.548, 280.765 377.548, 282.659 379.443, 282.659 379.443, 284.554 377.548, 284.554 377.548, 286.448 375.654, 286.448 375.654, 284.554 373.759, 284.554 373.759, 282.659"/>
</g>
<g stroke="black" stroke-width="1" fill="none">
<polygon points=" 379.962, 285.115 379.962, 283.221 381.857, 283.221 381.857, 285.115 383.751, 285.115 383.751, 287.01 381.857, 287.01 381.857, 288.904 379.962, 288.904 379.962, 287.01 378.068, 287.01 378.068, 285.115"/>
</g>
<g stroke="black" stroke-width="1" fill="none">
<polygon points=" 384.271, 287.674 384.271, 285.78 386.165, 285.78 386.165, 287.674 388.06, 287.674 388.06, 289.569 386.165, 289.569 386.165, 291.463 384.271, 291.463 384.271, 289.569 382.376, 289.569 382.376, 287.674"/>
</g>
<g stroke="black" stroke-width="1" fill="none">
<polygon points=" 388.58, 290.27 388.58, 288.375 390.474, 288.375 390.474, 290.27 392.369, 290.27 392.369, 292.164 390.474, 292.164 390.474, 294.059 388.58, 294.059 388.58, 292.164 386.685, 292.164 386.685, 290.27"/>
</g>
<g stroke="black" stroke-width="1" fill="none">
<polygon points=" 392.888, 292.984 392.888, 291.09 394.783, 291.09 394.783, 292.984 396.677, 292.984 396.677, 294.879 394.783, 294.879 394.783, 296.773 392.888, 296.773 392.888, 294.879 390.994, 294.879 390.994, 292.984"/>
</g>
<g stroke="black" stroke-width="1" fill="none">
<polygon points=" 397.197, 295.757 397.197, 293.863 399.091, 293.863 399.091, 295.757 400.986, 295.757 400.986, 297.652 399.091, 297.652 399.091, 299.546 397.197, 299.546 397.197, 297.652 395.302, 297.652 395.302, 295.757"/>
</g>
<g stroke="black" stroke-width="1" fill="none">
<polygon points=" 401.505, 298.564 401.505, 296.67 403.4, 296.67 403.4, 298.564 405.294, 298.564 405.294, 300.459 403.4, 300.459 403.4, 302.353 401.505, 302.353 401.505, 300.459 399.611, 300.459 399.611, 298.564"/>
</g>
<g stroke="black" stroke-width="1" fill="none">
<polygon points=" 405.814, 301.42 405.814, 299.525 407.709, 299.525 407.709, 301.42 409.603, 301.42 409.603, 303.314 407.709, 303.314 407.709, 305.209 405.814, 305.209 405.814, 303.314 403.92, 303.314 403.92, 301.42"/>
</g>
<g stroke="black" stroke-width="1" fill="none">
<polygon points=" 410.123, 304.293 410.123, 302.398 412.017, 302.398 412.017, 304.293 413.912, 304.293 413.912, 306.187 412.017, 306.187 412.017, 308.082 410.123, 308.082 410.123, 306.187 408.228, 306.187 408.228, 304.293"/>
</g>
<g stroke="black" stroke-width="1" fill="none">
<polygon points=" 414.431, 307.158 414.431, 305.264 416.326, 305.264 416.326, 307.158 418.22, 307.158 418.22, 309.053 416.326, 309.053 416.326, 310.947 414.431, 310.947 414.431, 309.053 412.537, 309.053 412.537, 307.158"/>
</g>
<g stroke="black" stroke-width="1" fill="none">
<polygon points=" 418.74, 310.019 418.74, 308.124 420.635, 308.124 420.635, 310.019 422.529, 310.019 422.529, 311.913 420.635, 311.913 420.635, 313.808 418.74, 313.808 418.74, 311.913 416.846, 311.913 416.846, 310.019"/>
</g>
<g stroke="black" stroke-width="1" fill="none">
<polygon points=" 423.049, 312.83 423.049, 310.935 424.943, 310.935 424.943, 312.83 426.838, 312.83 426.838, 314.724 424.943, 314.724 424.943, 316.619 423.049, 316.619 423.049, 314.724 421.154, 314.724 421.154, 312.83"/>
</g>
<g stroke="black" stroke-width="1" fill="none">
<polygon points=" 427.357, 315.589 427.357, 313.694 429.252, 313.694 429.252, 315.589 431.146, 315.589 431.146, 317.483 429.252, 317.483 429.252, 319.378 427.357, 319.378 427.357, 317.483 425.463, 317.483 425.463, 315.589"/>
</g>
<g stroke="black" stroke-width="1" fill="none">
<polygon points=" 431.666, 318.303 431.666, 316.409 433.561, 316.409 433.561, 318.303 435.455, 318.303 435.455, 320.198 433.561, 320.198 433.561, 322.092 431.666, 322.092 431.666, 320.198 429.772, 320.198 429.772, 318.303"/>
</g>
<g stroke="black" stroke-width="1" fill="none">
<polygon points=" 435.975, 320.962 435.975, 319.067 437.869, 319.067 437.869, 320.962 439.764, 320.962 439.764, 322.856 437.869, 322.856 437.869, 324.751 435.975, 324.751 435.975, 322.856 434.08, 322.856 434.08, 320.962"/>
</g>
<g stroke="black" stroke-width="1" fill="none">
<polygon points=" 440.283, 323.532 440.283, 321.638 442.178, 321.638 442.178, 323.532 444.072, 323.532 444.072, 325.427 442.178, 325.427 442.178, 327.321 440.283, 327.321 440.283, 325.427 438.389, 325.427 438.389, 323.532"/>
</g>
<g stroke="black" stroke-width="1" fill="none">
<polygon points=" 444.592, 326.029 444.592, 324.135 446.487, 324.135 446.487, 326.029 448.381, 326.029 448.381, 327.924 446.487, 327.924 446.487, 329.818 444.592, 329.818 444.592, 327.924 442.698, 327.924 442.698, 326.029"/>
</g>
<g stroke="black" stroke-width="1" fill="none">
<polygon points=" 448.901, 328.453 448.901, 326.558 450.795, 326.558 450.795, 328.453 452.69, 328.453 452.69, 330.347 450.795, 330.347 450.795, 332.242 448.901, 332.242 448.901, 330.347 447.006, 330.347 447.006, 328.453"/>
</g>
<g stroke="black" stroke-width="1" fill="none">
<polygon points=" 453.209, 330.773 453.209, 328.879 455.104, 328.879 455.104, 330.773 456.998, 330.773 456.998, 332.668 455.104, 332.668 455.104, 334.562 453.209, 334.562 453.209, 332.668 451.315, 332.668 451.315, 330.773"/>
</g>
<g stroke="black" stroke-width="1" fill="none">
<polygon points=" 457.518, 333.033 457.518, 331.138 459.413, 331.138 459.413, 333.033 461.307, 333.033 461.307, 334.927 459.413, 334.927 459.413, 336.822 457.518, 336.822 457.518, 334.927 455.624, 334.927 455.624, 333.033"/>
</g>
<g stroke="black" stroke-width="1" fill="none">
<polygon points=" 461.827, 335.221 461.827, 333.327 463.721, 333.327 463.721, 335.221 465.616, 335.221 465.616, 337.116 463.721, 337.116 463.721, 339.01 461.827, 339.01 461.827, 337.116 459.932, 337.116 459.932, 335.221"/>
</g>
<g stroke="black" stroke-width="1" fill="none">
<polygon points=" 466.135, 337.327 466.135, 335.433 468.03, 335.433 468.03, 337.327 469.924, 337.327 469.924, 339.222 468.03, 339.222 468.03, 341.116 466.135, 341.116 466.135, 339.222 464.241, 339.222 464.241, 337.327"/>
</g>
<g stroke="black" stroke-width="1" fill="none">
<polygon points=" 470.444, 339.342 470.444, 337.447 472.339, 337.447 472.339, 339.342 474.233, 339.342 474.233, 341.236 472.339, 341.236 472.339, 343.131 470.444, 343.131 470.444, 341.236 468.55, 341.236 468.55, 339.342"/>
</g>
<g stroke="black" stroke-width="1" fill="none">
<polygon points=" 474.753, 341.277 474.753, 339.382 476.647, 339.382 476.647, 341.277 478.542, 341.277 478.542, 343.171 476.647, 343.171 476.647, 345.066 474.753, 345.066 474.753, 343.171 472.858, 343.171 472.858, 341.277"/>
</g>
<g stroke="black" stroke-width="1" fill="none">
<polygon points=" 479.061, 343.096 479.061, 341.201 480.956, 341.201 480.956, 343.096 482.85, 343.096 482.85, 344.99 480.956, 344.99 480.956, 346.885 479.061, 346.885 479.061, 344.99 477.167, 344.99 477.167, 343.096"/>
</g>
<g stroke="black" stroke-width="1" fill="none">
<polygon points=" 483.37, 344.827 483.37, 342.932 485.265, 342.932 485.265, 344.827 487.159, 344.827 487.159, 346.721 485.265, 346.721 485.265, 348.616 483.37, 348.616 483.37, 346.721 481.476, 346.721 481.476, 344.827"/>
</g>
<g stroke="black" stroke-width="1" fill="none">
<polygon points=" 487.679, 346.427 487.679, 344.532 489.573, 344.532 489.573, 346.427 491.468, 346.427 491.468, 348.321 489.573, 348.321 489.573, 350.216 487.679, 350.216 487.679, 348.321 485.784, 348.321 485.784, 346.427"/>
</g>
<g stroke="black" stroke-width="1" fill="none">
<polygon points=" 491.987, 347.916 491.987, 346.021 493.882, 346.021 493.882, 347.916 495.776, 347.916 495.776, 349.81 493.882, 349.81 493.882, 351.705 491.987, 351.705 491.987, 349.81 490.093, 349.81 490.093, 347.916"/>
</g>
<g stroke="black" stroke-width="1" fill="none">
<polygon points=" 496.296, 349.289 496.296, 347.394 498.191, 347.394 498.191, 349.289 500.085, 349.289 500.085, 351.183 498.191, 351.183 498.191, 353.078 496.296, 353.078 496.296, 351.183 494.402, 351.183 494.402, 349.289"/>
</g>
<g fill="#00cc00">
<polygon points=" 69.7386, 295.67 69.7386, 293.776 71.6331, 293.776 71.6331, 295.67 73.5276, 295.67 73.5276, 297.565 71.6331, 297.565 71.6331, 299.459 69.7386, 299.459 69.7386, 297.565 67.8441, 297.565 67.8441, 295.67"/>
</g>
<g fill="#00cc00">
<polygon points=" 74.0472, 290.191 74.0472, 288.297 75.9417, 288.297 75.9417, 290.191 77.8362, 290.191 77.8362, 292.086 75.9417, 292.086 75.9417, 293.98 74.0472, 293.98 74.0472, 292.086 72.1527, 292.086 72.1527, 290.191"/>
</g>
<g fill="#00cc00">
<polygon points=" 78.3559, 284.982 78.3559, 283.087 80.2504, 283.087 80.2504, 284.982 82.1449, 284.982 82.1449, 286.876 80.2504, 286.876 80.2504, 288.771 78.3559, 288.771 78.3559, 286.876 76.4614, 286.876 76.4614, 284.982"/>
</g>
<g fill="#00cc00">
<polygon points=" 82.6646, 279.821 82.6646, 277.926 84.5591, 277.926 84.5591, 279.821 86.4536, 279.821 86.4536, 281.715 84.5591, 281.715 84.5591, 283.61 82.6646, 283.61 82.6646, 281.715 80.7701, 281.715 80.7701, 279.821"/>
</g>
<g fill="#00cc00">
<polygon points=" 86.9732, 275.125 86.9732, 273.23 88.8677, 273.23 88.8677, 275.125 90.7622, 275.125 90.7622, 277.019 88.8677, 277.019 88.8677, 278.914 86.9732, 278.914 86.9732, 277.019 85.0787, 277.019 85.0787, 275.125"/>
</g>
<g fill="#00cc00">
<polygon points=" 91.2819, 270.756 91.2819, 268.862 93.1764, 268.862 93.1764, 270.756 95.0709, 270.756 95.0709, 272.651 93.1764, 272.651 93.1764, 274.545 91.2819, 274.545 91.2819, 272.651 89.3874, 272.651 89.3874, 270.756"/>
</g>
<g fill="#00cc00">
<polygon points=" 95.5905, 266.637 95.5905, 264.742 97.485, 264.742 97.485, 266.637 99.3795, 266.637 99.3795, 268.531 97.485, 268.531 97.485, 270.426 95.5905, 270.426 95.5905, 268.531 93.696, 268.531 93.696, 266.637"/>
</g>
<g fill="#00cc00">
<polygon points=" 99.8992, 262.85 99.8992, 260.955 101.794, 260.955 101.794, 262.85 103.688, 262.85 103.688, 264.744 101.794, 264.744 101.794, 266.639 99.8992, 266.639 99.8992, 264.744 98.0047, 264.744 98.0047, 262.85"/>
</g>
<g fill="#00cc00">
<polygon points=" 104.208, 259.205 104.208, 257.31 106.102, 257.31 106.102, 259.205 107.997, 259.205 107.997, 261.099 106.102, 261.099 106.102, 262.994 104.208, 262.994 104.208, 261.099 102.313, 261.099 102.313, 259.205"/>
</g>
<g fill="#00cc00">
<polygon points=" 108.517, 255.933 108.517, 254.039 110.411, 254.039 110.411, 255.933 112.306, 255.933 112.306, 257.828 110.411, 257.828 110.411, 259.722 108.517, 259.722 108.517, 257.828 106.622, 257.828 106.622, 255.933"/>
</g>
<g fill="#00cc00">
<polygon points=" 112.825, 252.659 112.825, 250.764 114.72, 250.764 114.72, 252.659 116.614, 252.659 116.614, 254.553 114.72, 254.553 114.72, 256.448 112.825, 256.448 112.825, 254.553 110.931, 254.553 110.931, 252.659"/>
</g>
<g fill="#00cc00">
<polygon points=" 117.134, 235.481 117.134, 233.586 119.028, 233.586 119.028, 235.481 120.923, 235.481 120.923, 237.375 119.028, 237.375 119.028, 239.27 117.134, 239.27 117.134, 237.375 115.239, 237.375 115.239, 235.481"/>
</g>
<g fill="#00cc00">
<polygon points=" 121.443, 232.268 121.443, 230.373 123.337, 230.373 123.337, 232.268 125.232, 232.268 125.232, 234.162 123.337, 234.162 123.337, 236.057 121.443, 236.057 121.443, 234.162 119.548, 234.162 119.548, 232.268"/>
</g>
<g fill="#00cc00">
<polygon points=" 125.751, 229.209 125.751, 227.315 127.646, 227.315 127.646, 229.209 129.54, 229.209 129.54, 231.104 127.646, 231.104 127.646, 232.998 125.751, 232.998 125.751, 231.104 123.857, 231.104 123.857, 229.209"/>
</g>
<g fill="#00cc00">
<polygon points=" 130.06, 226.432 130.06, 224.538 131.954, 224.538 131.954, 226.432 133.849, 226.432 133.849, 228.327 131.954, 228.327 131.954, 230.221 130.06, 230.221 130.06, 228.327 128.165, 228.327 128.165, 226.432"/>
</g>
<g fill="#00cc00">
<polygon points=" 134.368, 223.864 134.368, 221.969 136.263, 221.969 136.263, 223.864 138.158, 223.864 138.158, 225.758 136.263, 225.758 136.263, 227.653 134.368, 227.653 134.368, 225.758 132.474, 225.758 132.474, 223.864"/>
</g>
<g fill="#00cc00">
<polygon points=" 138.677, 221.264 138.677, 219.37 140.572, 219.37 140.572, 221.264 142.466, 221.264 142.466, 223.159 140.572, 223.159 140.572, 225.053 138.677, 225.053 138.677, 223.159 136.783, 223.159 136.783, 221.264"/>
</g>
<g fill="#00cc00">
<polygon points=" 142.986, 218.921 142.986, 217.027 144.88, 217.027 144.88, 218.921 146.775, 218.921 146.775, 220.816 144.88, 220.816 144.88, 222.71 142.986, 222.71 142.986, 220.816 141.091, 220.816 141.091, 218.921"/>
</g>
<g fill="#00cc00">
<polygon points=" 147.294, 216.753 147.294, 214.858 149.189, 214.858 149.189, 216.753 151.083, 216.753 151.083, 218.647 149.189, 218.647 149.189, 220.542 147.294, 220.542 147.294, 218.647 145.4, 218.647 145.4, 216.753"/>
</g>
<g fill="#00cc00">
<polygon points=" 151.603, 214.635 151.603, 212.741 153.498, 212.741 153.498, 214.635 155.392, 214.635 155.392, 216.53 153.498, 216.53 153.498, 218.424 151.603, 218.424 151.603, 216.53 149.709, 216.53 149.709, 214.635"/>
</g>
<g fill="#00cc00">
<polygon points=" 155.912, 230.448 155.912, 228.553 157.806, 228.553 157.806, 230.448 159.701, 230.448 159.701, 232.342 157.806, 232.342 157.806, 234.237 155.912, 234.237 155.912, 232.342 154.017, 232.342 154.017, 230.448"/>
</g>
<g fill="#00cc00">
<polygon points=" 160.22, 229.181 160.22, 227.286 162.115, 227.286 162.115, 229.181 164.009, 229.181 164.009, 231.075 162.115, 231.075 162.115, 232.97 160.22, 232.97 160.22, 231.075 158.326, 231.075 158.326, 229.181"/>
</g>
<g fill="#00cc00">
<polygon points=" 164.529, 228.143 164.529, 226.249 166.424, 226.249 166.424, 228.143 168.318, 228.143 168.318, 230.038 166.424, 230.038 166.424, 231.932 164.529, 231.932 164.529, 230.038 162.635, 230.038 162.635, 228.143"/>
</g>
<g fill="#00cc00">
<polygon points=" 168.838, 227.404 168.838, 225.51 170.732, 225.51 170.732, 227.404 172.627, 227.404 172.627, 229.299 170.732, 229.299 170.732, 231.193 168.838, 231.193 168.838, 229.299 166.943, 229.299 166.943, 227.404"/>
</g>
<g fill="#00cc00">
<polygon points=" 173.146, 226.749 173.146, 224.855 175.041, 224.855 175.041, 226.749 176.935, 226.749 176.935, 228.644 175.041, 228.644 175.041, 230.538 173.146, 230.538 173.146, 228.644 171.252, 228.644 171.252, 226.749"/>
</g>
<g fill="#00cc00">
<polygon points=" 177.455, 226.278 177.455, 224.383 179.35, 224.383 179.35, 226.278 181.244, 226.278 181.244, 228.172 179.35, 228.172 179.35, 230.067 177.455, 230.067 177.455, 228.172 175.561, 228.172 175.561, 226.278"/>
</g>
<g fill="#00cc00">
<polygon points=" 181.764, 226.155 181.764, 224.261 183.658, 224.261 183.658, 226.155 185.553, 226.155 185.553, 228.05 183.658, 228.05 183.658, 229.944 181.764, 229.944 181.764, 228.05 179.869, 228.05 179.869, 226.155"/>
</g>
<g fill="#00cc00">
<polygon points=" 186.072, 226.196 186.072, 224.302 187.967, 224.302 187.967, 226.196 189.861, 226.196 189.861, 228.091 187.967, 228.091 187.967, 229.985 186.072, 229.985 186.072, 228.091 184.178, 228.091 184.178, 226.196"/>
</g>
<g fill="#00cc00">
<polygon points=" 190.381, 226.46 190.381, 224.566 192.276, 224.566 192.276, 226.46 194.17, 226.46 194.17, 228.355 192.276, 228.355 192.276, 230.249 190.381, 230.249 190.381, 228.355 188.487, 228.355 188.487, 226.46"/>
</g>
<g fill="#00cc00">
<polygon points=" 194.69, 226.871 194.69, 224.976 196.584, 224.976 196.584, 226.871 198.479, 226.871 198.479, 228.765 196.584, 228.765 196.584, 230.66 194.69, 230.66 194.69, 228.765 192.795, 228.765 192.795, 226.871"/>
</g>
<g fill="#00cc00">
<polygon points=" 198.998, 227.592 198.998, 225.697 200.893, 225.697 200.893, 227.592 202.787, 227.592 202.787, 229.486 200.893, 229.486 200.893, 231.381 198.998, 231.381 198.998, 229.486 197.104, 229.486 197.104, 227.592"/>
</g>
<g fill="#00cc00">
<polygon points=" 203.307, 228.273 203.307, 226.378 205.202, 226.378 205.202, 228.273 207.096, 228.273 207.096, 230.167 205.202, 230.167 205.202, 232.062 203.307, 232.062 203.307, 230.167 201.413, 230.167 201.413, 228.273"/>
</g>
<g fill="#00cc00">
<polygon points=" 207.616, 229.331 207.616, 227.436 209.51, 227.436 209.51, 229.331 211.405, 229.331 211.405, 231.225 209.51, 231.225 209.51, 233.12 207.616, 233.12 207.616, 231.225 205.721, 231.225 205.721, 229.331"/>
</g>
<g fill="#00cc00">
<polygon points=" 211.924, 230.552 211.924, 228.657 213.819, 228.657 213.819, 230.552 215.713, 230.552 215.713, 232.446 213.819, 232.446 213.819, 234.341 211.924, 234.341 211.924, 232.446 210.03, 232.446 210.03, 230.552"/>
</g>
<g fill="#00cc00">
<polygon points=" 216.233, 231.817 216.233, 229.923 218.128, 229.923 218.128, 231.817 220.022, 231.817 220.022, 233.712 218.128, 233.712 218.128, 235.606 216.233, 235.606 216.233, 233.712 214.339, 233.712 214.339, 231.817"/>
</g>
<g fill="#00cc00">
<polygon points=" 220.542, 233.406 220.542, 231.512 222.436, 231.512 222.436, 233.406 224.331, 233.406 224.331, 235.301 222.436, 235.301 222.436, 237.195 220.542, 237.195 220.542, 235.301 218.647, 235.301 218.647, 233.406"/>
</g>
<g fill="#00cc00">
<polygon points=" 224.85, 235.069 224.85, 233.175 226.745, 233.175 226.745, 235.069 228.639, 235.069 228.639, 236.964 226.745, 236.964 226.745, 238.858 224.85, 238.858 224.85, 236.964 222.956, 236.964 222.956, 235.069"/>
</g>
<g fill="#00cc00">
<polygon points=" 229.159, 236.987 229.159, 235.092 231.054, 235.092 231.054, 236.987 232.948, 236.987 232.948, 238.881 231.054, 238.881 231.054, 240.776 229.159, 240.776 229.159, 238.881 227.265, 238.881 227.265, 236.987"/>
</g>
<g fill="#00cc00">
<polygon points=" 233.468, 238.93 233.468, 237.035 235.362, 237.035 235.362, 238.93 237.257, 238.93 237.257, 240.824 235.362, 240.824 235.362, 242.719 233.468, 242.719 233.468, 240.824 231.573, 240.824 231.573, 238.93"/>
</g>
<g fill="#00cc00">
<polygon points=" 237.776, 240.985 237.776, 239.091 239.671, 239.091 239.671, 240.985 241.565, 240.985 241.565, 242.88 239.671, 242.88 239.671, 244.774 237.776, 244.774 237.776, 242.88 235.882, 242.88 235.882, 240.985"/>
</g>
<g fill="#00cc00">
<polygon points=" 242.085, 243.181 242.085, 241.287 243.98, 241.287 243.98, 243.181 245.874, 243.181 245.874, 245.076 243.98, 245.076 243.98, 246.97 242.085, 246.97 242.085, 245.076 240.191, 245.076 240.191, 243.181"/>
</g>
<g fill="#00cc00">
<polygon points=" 246.394, 245.376 246.394, 243.482 248.288, 243.482 248.288, 245.376 250.183, 245.376 250.183, 247.271 248.288, 247.271 248.288, 249.165 246.394, 249.165 246.394, 247.271 244.499, 247.271 244.499, 245.376"/>
</g>
<g fill="#00cc00">
<polygon points=" 250.702, 247.665 250.702, 245.77 252.597, 245.77 252.597, 247.665 254.491, 247.665 254.491, 249.559 252.597, 249.559 252.597, 251.454 250.702, 251.454 250.702, 249.559 248.808, 249.559 248.808, 247.665"/>
</g>
<g fill="#00cc00">
<polygon points=" 255.011, 249.879 255.011, 247.984 256.906, 247.984 256.906, 249.879 258.8, 249.879 258.8, 251.773 256.906, 251.773 256.906, 253.668 255.011, 253.668 255.011, 251.773 253.117, 251.773 253.117, 249.879"/>
</g>
<g fill="#00cc00">
<polygon points=" 259.32, 252.126 259.32, 250.232 261.214, 250.232 261.214, 252.126 263.109, 252.126 263.109, 254.021 261.214, 254.021 261.214, 255.915 259.32, 255.915 259.32, 254.021 257.425, 254.021 257.425, 252.126"/>
</g>
<g fill="#00cc00">
<polygon points=" 263.628, 254.187 263.628, 252.293 265.523, 252.293 265.523, 254.187 267.417, 254.187 267.417, 256.082 265.523, 256.082 265.523, 257.976 263.628, 257.976 263.628, 256.082 261.734, 256.082 261.734, 254.187"/>
</g>
<g fill="#00cc00">
<polygon points=" 267.937, 256.194 267.937, 254.3 269.832, 254.3 269.832, 256.194 271.726, 256.194 271.726, 258.089 269.832, 258.089 269.832, 259.983 267.937, 259.983 267.937, 258.089 266.043, 258.089 266.043, 256.194"/>
</g>
<g fill="#00cc00">
<polygon points=" 272.246, 258.107 272.246, 256.212 274.14, 256.212 274.14, 258.107 276.035, 258.107 276.035, 260.001 274.14, 260.001 274.14, 261.896 272.246, 261.896 272.246, 260.001 270.351, 260.001 270.351, 258.107"/>
</g>
<g fill="#00cc00">
<polygon points=" 276.554, 259.834 276.554, 257.939 278.449, 257.939 278.449, 259.834 280.343, 259.834 280.343, 261.728 278.449, 261.728 278.449, 263.623 276.554, 263.623 276.554, 261.728 274.66, 261.728 274.66, 259.834"/>
</g>
<g fill="#00cc00">
<polygon points=" 280.863, 261.345 280.863, 259.451 282.757, 259.451 282.757, 261.345 284.652, 261.345 284.652, 263.24 282.757, 263.24 282.757, 265.134 280.863, 265.134 280.863, 263.24 278.968, 263.24 278.968, 261.345"/>
</g>
<g fill="#00cc00">
<polygon points=" 285.172, 262.857 285.172, 260.962 287.066, 260.962 287.066, 262.857 288.961, 262.857 288.961, 264.751 287.066, 264.751 287.066, 266.646 285.172, 266.646 285.172, 264.751 283.277, 264.751 283.277, 262.857"/>
</g>
<g fill="#00cc00">
<polygon points=" 289.48, 264.067 289.48, 262.172 291.375, 262.172 291.375, 264.067 293.269, 264.067 293.269, 265.961 291.375, 265.961 291.375, 267.856 289.48, 267.856 289.48, 265.961 287.586, 265.961 287.586, 264.067"/>
</g>
<g fill="#00cc00">
<polygon points=" 293.789, 265.15 293.789, 263.255 295.683, 263.255 295.683, 265.15 297.578, 265.15 297.578, 267.044 295.683, 267.044 295.683, 268.939 293.789, 268.939 293.789, 267.044 291.894, 267.044 291.894, 265.15"/>
</g>
<g fill="#00cc00">
<polygon points=" 298.098, 266.21 298.098, 264.316 299.992, 264.316 299.992, 266.21 301.887, 266.21 301.887, 268.105 299.992, 268.105 299.992, 269.999 298.098, 269.999 298.098, 268.105 296.203, 268.105 296.203, 266.21"/>
</g>
<g fill="#00cc00">
<polygon points=" 302.406, 267.113 302.406, 265.219 304.301, 265.219 304.301, 267.113 306.195, 267.113 306.195, 269.008 304.301, 269.008 304.301, 270.902 302.406, 270.902 302.406, 269.008 300.512, 269.008 300.512, 267.113"/>
</g>
<g fill="#00cc00">
<polygon points=" 306.715, 267.982 306.715, 266.088 308.609, 266.088 308.609, 267.982 310.504, 267.982 310.504, 269.877 308.609, 269.877 308.609, 271.771 306.715, 271.771 306.715, 269.877 304.82, 269.877 304.82, 267.982"/>
</g>
<g fill="#00cc00">
<polygon points=" 311.024, 268.932 311.024, 267.037 312.918, 267.037 312.918, 268.932 314.813, 268.932 314.813, 270.826 312.918, 270.826 312.918, 272.721 311.024, 272.721 311.024, 270.826 309.129, 270.826 309.129, 268.932"/>
</g>
<g fill="#00cc00">
<polygon points=" 315.332, 269.789 315.332, 267.895 317.227, 267.895 317.227, 269.789 319.121, 269.789 319.121, 271.684 317.227, 271.684 317.227, 273.578 315.332, 273.578 315.332, 271.684 313.438, 271.684 313.438, 269.789"/>
</g>
<g fill="#00cc00">
<polygon points=" 319.641, 270.733 319.641, 268.838 321.535, 268.838 321.535, 270.733 323.43, 270.733 323.43, 272.627 321.535, 272.627 321.535, 274.522 319.641, 274.522 319.641, 272.627 317.746, 272.627 317.746, 270.733"/>
</g>
<g fill="#00cc00">
<polygon points=" 323.95, 271.851 323.95, 269.956 325.844, 269.956 325.844, 271.851 327.739, 271.851 327.739, 273.745 325.844, 273.745 325.844, 275.64 323.95, 275.64 323.95, 273.745 322.055, 273.745 322.055, 271.851"/>
</g>
<g fill="#00cc00">
<polygon points=" 328.258, 272.94 328.258, 271.045 330.153, 271.045 330.153, 272.94 332.047, 272.94 332.047, 274.834 330.153, 274.834 330.153, 276.729 328.258, 276.729 328.258, 274.834 326.364, 274.834 326.364, 272.94"/>
</g>
<g fill="#00cc00">
<polygon points=" 332.567, 274.15 332.567, 272.256 334.461, 272.256 334.461, 274.15 336.356, 274.15 336.356, 276.045 334.461, 276.045 334.461, 277.939 332.567, 277.939 332.567, 276.045 330.672, 276.045 330.672, 274.15"/>
</g>
<g fill="#00cc00">
<polygon points=" 336.876, 275.577 336.876, 273.683 338.77, 273.683 338.77, 275.577 340.665, 275.577 340.665, 277.472 338.77, 277.472 338.77, 279.366 336.876, 279.366 336.876, 277.472 334.981, 277.472 334.981, 275.577"/>
</g>
<g fill="#00cc00">
<polygon points=" 341.184, 277.209 341.184, 275.315 343.079, 275.315 343.079, 277.209 344.973, 277.209 344.973, 279.104 343.079, 279.104 343.079, 280.998 341.184, 280.998 341.184, 279.104 339.29, 279.104 339.29, 277.209"/>
</g>
<g fill="#00cc00">
<polygon points=" 345.493, 278.729 345.493, 276.834 347.387, 276.834 347.387, 278.729 349.282, 278.729 349.282, 280.623 347.387, 280.623 347.387, 282.518 345.493, 282.518 345.493, 280.623 343.598, 280.623 343.598, 278.729"/>
</g>
<g fill="#00cc00">
<polygon points=" 349.802, 280.516 349.802, 278.622 351.696, 278.622 351.696, 280.516 353.591, 280.516 353.591, 282.411 351.696, 282.411 351.696, 284.305 349.802, 284.305 349.802, 282.411 347.907, 282.411 347.907, 280.516"/>
</g>
<g fill="#00cc00">
<polygon points=" 354.11, 282.51 354.11, 280.616 356.005, 280.616 356.005, 282.51 357.899, 282.51 357.899, 284.405 356.005, 284.405 356.005, 286.299 354.11, 286.299 354.11, 284.405 352.216, 284.405 352.216, 282.51"/>
</g>
<g fill="#00cc00">
<polygon points=" 358.419, 284.548 358.419, 282.653 360.313, 282.653 360.313, 284.548 362.208, 284.548 362.208, 286.442 360.313, 286.442 360.313, 288.337 358.419, 288.337 358.419, 286.442 356.524, 286.442 356.524, 284.548"/>
</g>
<g fill="#00cc00">
<polygon points=" 362.728, 286.712 362.728, 284.817 364.622, 284.817 364.622, 286.712 366.517, 286.712 366.517, 288.606 364.622, 288.606 364.622, 290.501 362.728, 290.501 362.728, 288.606 360.833, 288.606 360.833, 286.712"/>
</g>
<g fill="#00cc00">
<polygon points=" 367.036, 289.001 367.036, 287.106 368.931, 287.106 368.931, 289.001 370.825, 289.001 370.825, 290.895 368.931, 290.895 368.931, 292.79 367.036, 292.79 367.036, 290.895 365.142, 290.895 365.142, 289.001"/>
</g>
<g fill="#00cc00">
<polygon points=" 371.345, 291.35 371.345, 289.456 373.239, 289.456 373.239, 291.35 375.134, 291.35 375.134, 293.245 373.239, 293.245 373.239, 295.139 371.345, 295.139 371.345, 293.245 369.45, 293.245 369.45, 291.35"/>
</g>
<g fill="#00cc00">
<polygon points=" 375.654, 293.869 375.654, 291.975 377.548, 291.975 377.548, 293.869 379.443, 293.869 379.443, 295.764 377.548, 295.764 377.548, 297.658 375.654, 297.658 375.654, 295.764 373.759, 295.764 373.759, 293.869"/>
</g>
<g fill="#00cc00">
<polygon points=" 379.962, 296.447 379.962, 294.553 381.857, 294.553 381.857, 296.447 383.751, 296.447 383.751, 298.342 381.857, 298.342 381.857, 300.236 379.962, 300.236 379.962, 298.342 378.068, 298.342 378.068, 296.447"/>
</g>
<g fill="#00cc00">
<polygon points=" 384.271, 299.052 384.271, 297.157 386.165, 297.157 386.165, 299.052 388.06, 299.052 388.06, 300.946 386.165, 300.946 386.165, 302.841 384.271, 302.841 384.271, 300.946 382.376, 300.946 382.376, 299.052"/>
</g>
<g fill="#00cc00">
<polygon points=" 388.58, 301.736 388.58, 299.842 390.474, 299.842 390.474, 301.736 392.369, 301.736 392.369, 303.631 390.474, 303.631 390.474, 305.525 388.58, 305.525 388.58, 303.631 386.685, 303.631 386.685, 301.736"/>
</g>
<g fill="#00cc00">
<polygon points=" 392.888, 304.483 392.888, 302.589 394.783, 302.589 394.783, 304.483 396.677, 304.483 396.677, 306.378 394.783, 306.378 394.783, 308.272 392.888, 308.272 392.888, 306.378 390.994, 306.378 390.994, 304.483"/>
</g>
<g fill="#00cc00">
<polygon points=" 397.197, 307.29 397.197, 305.395 399.091, 305.395 399.091, 307.29 400.986, 307.29 400.986, 309.184 399.091, 309.184 399.091, 311.079 397.197, 311.079 397.197, 309.184 395.302, 309.184 395.302, 307.29"/>
</g>
<g fill="#00cc00">
<polygon points=" 401.505, 310.112 401.505, 308.218 403.4, 308.218 403.4, 310.112 405.294, 310.112 405.294, 312.007 403.4, 312.007 403.4, 313.901 401.505, 313.901 401.505, 312.007 399.611, 312.007 399.611, 310.112"/>
</g>
<g fill="#00cc00">
<polygon points=" 405.814, 312.958 405.814, 311.063 407.709, 311.063 407.709, 312.958 409.603, 312.958 409.603, 314.852 407.709, 314.852 407.709, 316.747 405.814, 316.747 405.814, 314.852 403.92, 314.852 403.92, 312.958"/>
</g>
<g fill="#00cc00">
<polygon points=" 410.123, 315.771 410.123, 313.876 412.017, 313.876 412.017, 315.771 413.912, 315.771 413.912, 317.665 412.017, 317.665 412.017, 319.56 410.123, 319.56 410.123, 317.665 408.228, 317.665 408.228, 315.771"/>
</g>
<g fill="#00cc00">
<polygon points=" 414.431, 318.546 414.431, 316.652 416.326, 316.652 416.326, 318.546 418.22, 318.546 418.22, 320.441 416.326, 320.441 416.326, 322.335 414.431, 322.335 414.431, 320.441 412.537, 320.441 412.537, 318.546"/>
</g>
<g fill="#00cc00">
<polygon points=" 418.74, 321.312 418.74, 319.417 420.635, 319.417 420.635, 321.312 422.529, 321.312 422.529, 323.206 420.635, 323.206 420.635, 325.101 418.74, 325.101 418.74, 323.206 416.846, 323.206 416.846, 321.312"/>
</g>
<g fill="#00cc00">
<polygon points=" 423.049, 323.996 423.049, 322.102 424.943, 322.102 424.943, 323.996 426.838, 323.996 426.838, 325.891 424.943, 325.891 424.943, 327.785 423.049, 327.785 423.049, 325.891 421.154, 325.891 421.154, 323.996"/>
</g>
<g fill="#00cc00">
<polygon points=" 427.357, 326.556 427.357, 324.661 429.252, 324.661 429.252, 326.556 431.146, 326.556 431.146, 328.45 429.252, 328.45 429.252, 330.345 427.357, 330.345 427.357, 328.45 425.463, 328.45 425.463, 326.556"/>
</g>
<g fill="#00cc00">
<polygon points=" 431.666, 329.101 431.666, 327.207 433.561, 327.207 433.561, 329.101 435.455, 329.101 435.455, 330.996 433.561, 330.996 433.561, 332.89 431.666, 332.89 431.666, 330.996 429.772, 330.996 429.772, 329.101"/>
</g>
<g fill="#00cc00">
<polygon points=" 435.975, 331.581 435.975, 329.687 437.869, 329.687 437.869, 331.581 439.764, 331.581 439.764, 333.476 437.869, 333.476 437.869, 335.37 435.975, 335.37 435.975, 333.476 434.08, 333.476 434.08, 331.581"/>
</g>
<g fill="#00cc00">
<polygon points=" 440.283, 333.911 440.283, 332.017 442.178, 332.017 442.178, 333.911 444.072, 333.911 444.072, 335.806 442.178, 335.806 442.178, 337.7 440.283, 337.7 440.283, 335.806 438.389, 335.806 438.389, 333.911"/>
</g>
<g fill="#00cc00">
<polygon points=" 444.592, 336.174 444.592, 334.279 446.487, 334.279 446.487, 336.174 448.381, 336.174 448.381, 338.068 446.487, 338.068 446.487, 339.963 444.592, 339.963 444.592, 338.068 442.698, 338.068 442.698, 336.174"/>
</g>
<g fill="#00cc00">
<polygon points=" 448.901, 338.316 448.901, 336.421 450.795, 336.421 450.795, 338.316 452.69, 338.316 452.69, 340.21 450.795, 340.21 450.795, 342.105 448.901, 342.105 448.901, 340.21 447.006, 340.21 447.006, 338.316"/>
</g>
<g fill="#00cc00">
<polygon points=" 453.209, 340.345 453.209, 338.45 455.104, 338.45 455.104, 340.345 456.998, 340.345 456.998, 342.239 455.104, 342.239 455.104, 344.134 453.209, 344.134 453.209, 342.239 451.315, 342.239 451.315, 340.345"/>
</g>
<g fill="#00cc00">
<polygon points=" 457.518, 342.252 457.518, 340.358 459.413, 340.358 459.413, 342.252 461.307, 342.252 461.307, 344.147 459.413, 344.147 459.413, 346.041 457.518, 346.041 457.518, 344.147 455.624, 344.147 455.624, 342.252"/>
</g>
<g fill="#00cc00">
<polygon points=" 461.827, 344.084 461.827, 342.19 463.721, 342.19 463.721, 344.084 465.616, 344.084 465.616, 345.979 463.721, 345.979 463.721, 347.873 461.827, 347.873 461.827, 345.979 459.932, 345.979 459.932, 344.084"/>
</g>
<g fill="#00cc00">
<polygon points=" 466.135, 345.77 466.135, 343.876 468.03, 343.876 468.03, 345.77 469.924, 345.77 469.924, 347.665 468.03, 347.665 468.03, 349.559 466.135, 349.559 466.135, 347.665 464.241, 347.665 464.241, 345.77"/>
</g>
<g fill="#00cc00">
<polygon points=" 470.444, 347.309 470.444, 345.414 472.339, 345.414 472.339, 347.309 474.233, 347.309 474.233, 349.203 472.339, 349.203 472.339, 351.098 470.444, 351.098 470.444, 349.203 468.55, 349.203 468.55, 347.309"/>
</g>
<g fill="#00cc00">
<polygon points=" 474.753, 348.771 474.753, 346.876 476.647, 346.876 476.647, 348.771 478.542, 348.771 478.542, 350.665 476.647, 350.665 476.647, 352.56 474.753, 352.56 474.753, 350.665 472.858, 350.665 472.858, 348.771"/>
</g>
<g fill="#00cc00">
<polygon points=" 479.061, 350.047 479.061, 348.152 480.956, 348.152 480.956, 350.047 482.85, 350.047 482.85, 351.941 480.956, 351.941 480.956, 353.836 479.061, 353.836 479.061, 351.941 477.167, 351.941 477.167, 350.047"/>
</g>
<g fill="#00cc00">
<polygon points=" 483.37, 351.252 483.37, 349.357 485.265, 349.357 485.265, 351.252 487.159, 351.252 487.159, 353.146 485.265, 353.146 485.265, 355.041 483.37, 355.041 483.37, 353.146 481.476, 353.146 481.476, 351.252"/>
</g>
<g fill="#00cc00">
<polygon points=" 487.679, 352.284 487.679, 350.389 489.573, 350.389 489.573, 352.284 491.468, 352.284 491.468, 354.178 489.573, 354.178 489.573, 356.073 487.679, 356.073 487.679, 354.178 485.784, 354.178 485.784, 352.284"/>
</g>
<g fill="#00cc00">
<polygon points=" 491.987, 353.22 491.987, 351.325 493.882, 351.325 493.882, 353.22 495.776, 353.22 495.776, 355.114 493.882, 355.114 493.882, 357.009 491.987, 357.009 491.987, 355.114 490.093, 355.114 490.093, 353.22"/>
</g>
<g fill="#00cc00">
<polygon points=" 496.296, 354.04 496.296, 352.145 498.191, 352.145 498.191, 354.04 500.085, 354.04 500.085, 355.934 498.191, 355.934 498.191, 357.829 496.296, 357.829 496.296, 355.934 494.402, 355.934 494.402, 354.04"/>
</g>
<text xml:space="preserve" x="90.7256" y="62.5185" fill="black" font-size="19.2386" font-family="Helvetica">PYTHIA8, p+Au 200 GeV with option3</text>
<text xml:space="preserve" x="276.15" y="103.013" fill="black" font-size="12.9924" font-family="Helvetica">T</text>
<text xml:space="preserve" x="164.611" y="93.0673" fill="black" font-size="19.2386" font-family="Helvetica">, integrated p</text>
<text xml:space="preserve" x="157.507" y="86.6734" fill="black" font-size="12.9924" font-family="Times">&#0177;</text>
<text xml:space="preserve" x="136.194" y="93.0673" fill="black" font-size="19.2386" font-family="Helvetica">, p</text>
<text xml:space="preserve" x="129.089" y="84.5421" fill="black" font-size="12.9924" font-family="Times">&#0177;</text>
<text xml:space="preserve" x="108.487" y="93.0673" fill="black" font-size="19.2386" font-family="Helvetica">, k</text>
<text xml:space="preserve" x="101.382" y="86.6734" fill="black" font-size="12.9924" font-family="Times">&#0177;</text>
<text xml:space="preserve" x="90.7256" y="93.0673" fill="black" font-size="19.2386" font-family="Times">&#0960;</text>
<text xml:space="preserve" x="141.877" y="124.327" fill="black" font-size="19.2386" font-family="Helvetica">cent: 10~20%</text>
<g fill="#00cc00">
<polygon points=" 112.939, 116.497 112.939, 114.602 114.833, 114.602 114.833, 116.497 116.728, 116.497 116.728, 118.391 114.833, 118.391 114.833, 120.286 112.939, 120.286 112.939, 118.391 111.044, 118.391 111.044, 116.497"/>
</g>
<text xml:space="preserve" x="141.877" y="154.875" fill="black" font-size="19.2386" font-family="Helvetica">MB events(all inelastic)</text>
<g stroke="black" stroke-width="1" fill="none">
<polygon points=" 112.939, 147.135 112.939, 145.24 114.833, 145.24 114.833, 147.135 116.728, 147.135 116.728, 149.029 114.833, 149.029 114.833, 150.924 112.939, 150.924 112.939, 149.029 111.044, 149.029 111.044, 147.135"/>
</g></svg>
