<?xml version="1.0" standalone="no"?>
<svg width="567.429" height="409.002" viewBox="0 0 567.429 409.002" xmlns="http://www.w3.org/2000/svg" shape-rendering="crispEdges">
<title>
/Users/jinhyunpark/npl/gitHub/Centrality_dependent_BiasCorrection/plots/Ncoll_midJetEvent_pion03GeV.svg
</title>
<desc>
Creator: ROOT Version 6.28/04
CreationDate: Mon Oct  2 01:31:33 2023</desc>
<defs>
</defs>
<rect x="0.5" y="0" width="566.929" height="408.502" fill="white"/>
<rect x="85.5394" y="20.4251" width="396.85" height="339.056" fill="white"/>
<rect x="85.5394" y="20.4251" width="396.85" height="339.056" fill="none" stroke="black"/>
<rect x="85.5394" y="20.4251" width="396.85" height="339.056" fill="white"/>
<rect x="85.5394" y="20.4251" width="396.85" height="339.056" fill="none" stroke="black"/>
<path d="M85.5394,359.481h 396.85" fill="none" stroke="black"/>
<path d="M151.681,350.903v 8.57853" fill="none" stroke="black"/>
<path d="M168.217,355.192v 4.28927" fill="none" stroke="black"/>
<path d="M184.752,355.192v 4.28927" fill="none" stroke="black"/>
<path d="M201.287,355.192v 4.28927" fill="none" stroke="black"/>
<path d="M217.823,355.192v 4.28927" fill="none" stroke="black"/>
<path d="M234.358,350.903v 8.57853" fill="none" stroke="black"/>
<path d="M250.894,355.192v 4.28927" fill="none" stroke="black"/>
<path d="M267.429,355.192v 4.28927" fill="none" stroke="black"/>
<path d="M283.965,355.192v 4.28927" fill="none" stroke="black"/>
<path d="M300.5,355.192v 4.28927" fill="none" stroke="black"/>
<path d="M317.035,350.903v 8.57853" fill="none" stroke="black"/>
<path d="M333.571,355.192v 4.28927" fill="none" stroke="black"/>
<path d="M350.106,355.192v 4.28927" fill="none" stroke="black"/>
<path d="M366.642,355.192v 4.28927" fill="none" stroke="black"/>
<path d="M383.177,355.192v 4.28927" fill="none" stroke="black"/>
<path d="M399.713,350.903v 8.57853" fill="none" stroke="black"/>
<path d="M416.248,355.192v 4.28927" fill="none" stroke="black"/>
<path d="M432.783,355.192v 4.28927" fill="none" stroke="black"/>
<path d="M449.319,355.192v 4.28927" fill="none" stroke="black"/>
<path d="M465.854,355.192v 4.28927" fill="none" stroke="black"/>
<path d="M482.39,350.903v 8.57853" fill="none" stroke="black"/>
<path d="M151.681,350.903v 8.57853" fill="none" stroke="black"/>
<path d="M135.146,355.192v 4.28927" fill="none" stroke="black"/>
<path d="M118.61,355.192v 4.28927" fill="none" stroke="black"/>
<path d="M102.075,355.192v 4.28927" fill="none" stroke="black"/>
<text xml:space="preserve" x="147.561" y="372.269" fill="black" font-size="13.617" font-family="Helvetica">5</text>
<text xml:space="preserve" x="226.419" y="372.269" fill="black" font-size="13.617" font-family="Helvetica">10</text>
<text xml:space="preserve" x="308.83" y="372.269" fill="black" font-size="13.617" font-family="Helvetica">15</text>
<text xml:space="preserve" x="391.241" y="372.269" fill="black" font-size="13.617" font-family="Helvetica">20</text>
<text xml:space="preserve" x="474.362" y="372.269" fill="black" font-size="13.617" font-family="Helvetica">25</text>
<text xml:space="preserve" x="453.049" y="387.188" fill="black" font-size="13.617" font-family="Helvetica">Ncoll</text>
<path d="M85.5394,20.4251h 396.85" fill="none" stroke="black"/>
<path d="M151.681,29.0036v -8.57853" fill="none" stroke="black"/>
<path d="M168.217,24.7143v -4.28927" fill="none" stroke="black"/>
<path d="M184.752,24.7143v -4.28927" fill="none" stroke="black"/>
<path d="M201.287,24.7143v -4.28927" fill="none" stroke="black"/>
<path d="M217.823,24.7143v -4.28927" fill="none" stroke="black"/>
<path d="M234.358,29.0036v -8.57853" fill="none" stroke="black"/>
<path d="M250.894,24.7143v -4.28927" fill="none" stroke="black"/>
<path d="M267.429,24.7143v -4.28927" fill="none" stroke="black"/>
<path d="M283.965,24.7143v -4.28927" fill="none" stroke="black"/>
<path d="M300.5,24.7143v -4.28927" fill="none" stroke="black"/>
<path d="M317.035,29.0036v -8.57853" fill="none" stroke="black"/>
<path d="M333.571,24.7143v -4.28927" fill="none" stroke="black"/>
<path d="M350.106,24.7143v -4.28927" fill="none" stroke="black"/>
<path d="M366.642,24.7143v -4.28927" fill="none" stroke="black"/>
<path d="M383.177,24.7143v -4.28927" fill="none" stroke="black"/>
<path d="M399.713,29.0036v -8.57853" fill="none" stroke="black"/>
<path d="M416.248,24.7143v -4.28927" fill="none" stroke="black"/>
<path d="M432.783,24.7143v -4.28927" fill="none" stroke="black"/>
<path d="M449.319,24.7143v -4.28927" fill="none" stroke="black"/>
<path d="M465.854,24.7143v -4.28927" fill="none" stroke="black"/>
<path d="M482.39,29.0036v -8.57853" fill="none" stroke="black"/>
<path d="M151.681,29.0036v -8.57853" fill="none" stroke="black"/>
<path d="M135.146,24.7143v -4.28927" fill="none" stroke="black"/>
<path d="M118.61,24.7143v -4.28927" fill="none" stroke="black"/>
<path d="M102.075,24.7143v -4.28927" fill="none" stroke="black"/>
<path d="M85.5394,359.481v -339.056" fill="none" stroke="black"/>
<path d="M99.6559,359.481h -14.1165" fill="none" stroke="black"/>
<path d="M92.5976,352.7h -7.05827" fill="none" stroke="black"/>
<path d="M92.5976,345.919h -7.05827" fill="none" stroke="black"/>
<path d="M92.5976,339.138h -7.05827" fill="none" stroke="black"/>
<path d="M92.5976,332.357h -7.05827" fill="none" stroke="black"/>
<path d="M99.6559,325.576h -14.1165" fill="none" stroke="black"/>
<path d="M92.5976,318.795h -7.05827" fill="none" stroke="black"/>
<path d="M92.5976,312.014h -7.05827" fill="none" stroke="black"/>
<path d="M92.5976,305.232h -7.05827" fill="none" stroke="black"/>
<path d="M92.5976,298.451h -7.05827" fill="none" stroke="black"/>
<path d="M99.6559,291.67h -14.1165" fill="none" stroke="black"/>
<path d="M92.5976,284.889h -7.05827" fill="none" stroke="black"/>
<path d="M92.5976,278.108h -7.05827" fill="none" stroke="black"/>
<path d="M92.5976,271.327h -7.05827" fill="none" stroke="black"/>
<path d="M92.5976,264.546h -7.05827" fill="none" stroke="black"/>
<path d="M99.6559,257.764h -14.1165" fill="none" stroke="black"/>
<path d="M92.5976,250.983h -7.05827" fill="none" stroke="black"/>
<path d="M92.5976,244.202h -7.05827" fill="none" stroke="black"/>
<path d="M92.5976,237.421h -7.05827" fill="none" stroke="black"/>
<path d="M92.5976,230.64h -7.05827" fill="none" stroke="black"/>
<path d="M99.6559,223.859h -14.1165" fill="none" stroke="black"/>
<path d="M92.5976,217.078h -7.05827" fill="none" stroke="black"/>
<path d="M92.5976,210.297h -7.05827" fill="none" stroke="black"/>
<path d="M92.5976,203.515h -7.05827" fill="none" stroke="black"/>
<path d="M92.5976,196.734h -7.05827" fill="none" stroke="black"/>
<path d="M99.6559,189.953h -14.1165" fill="none" stroke="black"/>
<path d="M92.5976,183.172h -7.05827" fill="none" stroke="black"/>
<path d="M92.5976,176.391h -7.05827" fill="none" stroke="black"/>
<path d="M92.5976,169.61h -7.05827" fill="none" stroke="black"/>
<path d="M92.5976,162.829h -7.05827" fill="none" stroke="black"/>
<path d="M99.6559,156.048h -14.1165" fill="none" stroke="black"/>
<path d="M92.5976,149.266h -7.05827" fill="none" stroke="black"/>
<path d="M92.5976,142.485h -7.05827" fill="none" stroke="black"/>
<path d="M92.5976,135.704h -7.05827" fill="none" stroke="black"/>
<path d="M92.5976,128.923h -7.05827" fill="none" stroke="black"/>
<path d="M99.6559,122.142h -14.1165" fill="none" stroke="black"/>
<path d="M92.5976,115.361h -7.05827" fill="none" stroke="black"/>
<path d="M92.5976,108.58h -7.05827" fill="none" stroke="black"/>
<path d="M92.5976,101.799h -7.05827" fill="none" stroke="black"/>
<path d="M92.5976,95.0175h -7.05827" fill="none" stroke="black"/>
<path d="M99.6559,88.2363h -14.1165" fill="none" stroke="black"/>
<path d="M92.5976,81.4552h -7.05827" fill="none" stroke="black"/>
<path d="M92.5976,74.6741h -7.05827" fill="none" stroke="black"/>
<path d="M92.5976,67.893h -7.05827" fill="none" stroke="black"/>
<path d="M92.5976,61.1118h -7.05827" fill="none" stroke="black"/>
<path d="M99.6559,54.3307h -14.1165" fill="none" stroke="black"/>
<path d="M92.5976,47.5496h -7.05827" fill="none" stroke="black"/>
<path d="M92.5976,40.7685h -7.05827" fill="none" stroke="black"/>
<path d="M92.5976,33.9873h -7.05827" fill="none" stroke="black"/>
<path d="M92.5976,27.2062h -7.05827" fill="none" stroke="black"/>
<path d="M99.6559,20.4251h -14.1165" fill="none" stroke="black"/>
<text xml:space="preserve" x="75.0959" y="364.454" fill="black" font-size="13.617" font-family="Helvetica">0</text>
<text xml:space="preserve" x="52.3619" y="330.353" fill="black" font-size="13.617" font-family="Helvetica">5000</text>
<text xml:space="preserve" x="45.2576" y="296.252" fill="black" font-size="13.617" font-family="Helvetica">10000</text>
<text xml:space="preserve" x="45.2576" y="262.151" fill="black" font-size="13.617" font-family="Helvetica">15000</text>
<text xml:space="preserve" x="45.2576" y="228.761" fill="black" font-size="13.617" font-family="Helvetica">20000</text>
<text xml:space="preserve" x="45.2576" y="194.66" fill="black" font-size="13.617" font-family="Helvetica">25000</text>
<text xml:space="preserve" x="45.2576" y="160.559" fill="black" font-size="13.617" font-family="Helvetica">30000</text>
<text xml:space="preserve" x="45.2576" y="126.458" fill="black" font-size="13.617" font-family="Helvetica">35000</text>
<text xml:space="preserve" x="45.2576" y="93.0673" fill="black" font-size="13.617" font-family="Helvetica">40000</text>
<text xml:space="preserve" x="45.2576" y="58.9663" fill="black" font-size="13.617" font-family="Helvetica">45000</text>
<text xml:space="preserve" x="45.2576" y="24.8653" fill="black" font-size="13.617" font-family="Helvetica">50000</text>
<g transform="rotate(-90,34.601,85.9629)">
<text xml:space="preserve" x="34.601" y="85.9629" fill="black" font-size="13.617" font-family="Helvetica"># of events</text>
</g>
<path d="M482.39,359.481v -339.056" fill="none" stroke="black"/>
<path d="M468.273,359.481h 14.1165" fill="none" stroke="black"/>
<path d="M475.332,352.7h 7.05827" fill="none" stroke="black"/>
<path d="M475.332,345.919h 7.05827" fill="none" stroke="black"/>
<path d="M475.332,339.138h 7.05827" fill="none" stroke="black"/>
<path d="M475.332,332.357h 7.05827" fill="none" stroke="black"/>
<path d="M468.273,325.576h 14.1165" fill="none" stroke="black"/>
<path d="M475.332,318.795h 7.05827" fill="none" stroke="black"/>
<path d="M475.332,312.014h 7.05827" fill="none" stroke="black"/>
<path d="M475.332,305.232h 7.05827" fill="none" stroke="black"/>
<path d="M475.332,298.451h 7.05827" fill="none" stroke="black"/>
<path d="M468.273,291.67h 14.1165" fill="none" stroke="black"/>
<path d="M475.332,284.889h 7.05827" fill="none" stroke="black"/>
<path d="M475.332,278.108h 7.05827" fill="none" stroke="black"/>
<path d="M475.332,271.327h 7.05827" fill="none" stroke="black"/>
<path d="M475.332,264.546h 7.05827" fill="none" stroke="black"/>
<path d="M468.273,257.764h 14.1165" fill="none" stroke="black"/>
<path d="M475.332,250.983h 7.05827" fill="none" stroke="black"/>
<path d="M475.332,244.202h 7.05827" fill="none" stroke="black"/>
<path d="M475.332,237.421h 7.05827" fill="none" stroke="black"/>
<path d="M475.332,230.64h 7.05827" fill="none" stroke="black"/>
<path d="M468.273,223.859h 14.1165" fill="none" stroke="black"/>
<path d="M475.332,217.078h 7.05827" fill="none" stroke="black"/>
<path d="M475.332,210.297h 7.05827" fill="none" stroke="black"/>
<path d="M475.332,203.515h 7.05827" fill="none" stroke="black"/>
<path d="M475.332,196.734h 7.05827" fill="none" stroke="black"/>
<path d="M468.273,189.953h 14.1165" fill="none" stroke="black"/>
<path d="M475.332,183.172h 7.05827" fill="none" stroke="black"/>
<path d="M475.332,176.391h 7.05827" fill="none" stroke="black"/>
<path d="M475.332,169.61h 7.05827" fill="none" stroke="black"/>
<path d="M475.332,162.829h 7.05827" fill="none" stroke="black"/>
<path d="M468.273,156.048h 14.1165" fill="none" stroke="black"/>
<path d="M475.332,149.266h 7.05827" fill="none" stroke="black"/>
<path d="M475.332,142.485h 7.05827" fill="none" stroke="black"/>
<path d="M475.332,135.704h 7.05827" fill="none" stroke="black"/>
<path d="M475.332,128.923h 7.05827" fill="none" stroke="black"/>
<path d="M468.273,122.142h 14.1165" fill="none" stroke="black"/>
<path d="M475.332,115.361h 7.05827" fill="none" stroke="black"/>
<path d="M475.332,108.58h 7.05827" fill="none" stroke="black"/>
<path d="M475.332,101.799h 7.05827" fill="none" stroke="black"/>
<path d="M475.332,95.0175h 7.05827" fill="none" stroke="black"/>
<path d="M468.273,88.2363h 14.1165" fill="none" stroke="black"/>
<path d="M475.332,81.4552h 7.05827" fill="none" stroke="black"/>
<path d="M475.332,74.6741h 7.05827" fill="none" stroke="black"/>
<path d="M475.332,67.893h 7.05827" fill="none" stroke="black"/>
<path d="M475.332,61.1118h 7.05827" fill="none" stroke="black"/>
<path d="M468.273,54.3307h 14.1165" fill="none" stroke="black"/>
<path d="M475.332,47.5496h 7.05827" fill="none" stroke="black"/>
<path d="M475.332,40.7685h 7.05827" fill="none" stroke="black"/>
<path d="M475.332,33.9873h 7.05827" fill="none" stroke="black"/>
<path d="M475.332,27.2062h 7.05827" fill="none" stroke="black"/>
<path d="M468.273,20.4251h 14.1165" fill="none" stroke="black"/>
<path d="M110.343,358.939l 16.5354, -1.8309l 16.5354, -7.46602l 16.5354, -19.3805l 16.5354, -30.7456l 16.5354, -43.0873l 16.5354, -35.3568l 16.5354, -17.8276l 16.5354, 12.6061l 16.5354, 33.709l 16.5354, 41.8124l 16.5354, 29.4843l 16.5354, 19.8145l
 16.5354, 10.6667l 16.5354, 5.39778l 16.5354, 1.8309l 16.5354, 0.712018l 16.5354, 0.135623" fill="none" stroke="#ffcc00"/>
<g fill="#ffcc00">
<polygon points=" 109.395, 357.992 109.395, 356.097 111.29, 356.097 111.29, 357.992 113.184, 357.992 113.184, 359.886 111.29, 359.886 111.29, 361.781 109.395, 361.781 109.395, 359.886 107.501, 359.886 107.501, 357.992"/>
<polygon points=" 125.931, 356.161 125.931, 354.266 127.825, 354.266 127.825, 356.161 129.72, 356.161 129.72, 358.055 127.825, 358.055 127.825, 359.95 125.931, 359.95 125.931, 358.055 124.036, 358.055 124.036, 356.161"/>
<polygon points=" 142.466, 348.695 142.466, 346.8 144.361, 346.8 144.361, 348.695 146.255, 348.695 146.255, 350.589 144.361, 350.589 144.361, 352.484 142.466, 352.484 142.466, 350.589 140.572, 350.589 140.572, 348.695"/>
<polygon points=" 159.002, 329.314 159.002, 327.42 160.896, 327.42 160.896, 329.314 162.791, 329.314 162.791, 331.209 160.896, 331.209 160.896, 333.103 159.002, 333.103 159.002, 331.209 157.107, 331.209 157.107, 329.314"/>
<polygon points=" 175.537, 298.569 175.537, 296.674 177.432, 296.674 177.432, 298.569 179.326, 298.569 179.326, 300.463 177.432, 300.463 177.432, 302.358 175.537, 302.358 175.537, 300.463 173.643, 300.463 173.643, 298.569"/>
<polygon points=" 192.072, 255.481 192.072, 253.587 193.967, 253.587 193.967, 255.481 195.861, 255.481 195.861, 257.376 193.967, 257.376 193.967, 259.27 192.072, 259.27 192.072, 257.376 190.178, 257.376 190.178, 255.481"/>
<polygon points=" 208.608, 220.125 208.608, 218.23 210.502, 218.23 210.502, 220.125 212.397, 220.125 212.397, 222.019 210.502, 222.019 210.502, 223.914 208.608, 223.914 208.608, 222.019 206.713, 222.019 206.713, 220.125"/>
<polygon points=" 225.143, 202.297 225.143, 200.402 227.038, 200.402 227.038, 202.297 228.932, 202.297 228.932, 204.191 227.038, 204.191 227.038, 206.086 225.143, 206.086 225.143, 204.191 223.249, 204.191 223.249, 202.297"/>
<polygon points=" 241.679, 214.903 241.679, 213.009 243.573, 213.009 243.573, 214.903 245.468, 214.903 245.468, 216.798 243.573, 216.798 243.573, 218.692 241.679, 218.692 241.679, 216.798 239.784, 216.798 239.784, 214.903"/>
<polygon points=" 258.214, 248.612 258.214, 246.718 260.109, 246.718 260.109, 248.612 262.003, 248.612 262.003, 250.507 260.109, 250.507 260.109, 252.401 258.214, 252.401 258.214, 250.507 256.32, 250.507 256.32, 248.612"/>
<polygon points=" 274.75, 290.424 274.75, 288.53 276.644, 288.53 276.644, 290.424 278.539, 290.424 278.539, 292.319 276.644, 292.319 276.644, 294.214 274.75, 294.214 274.75, 292.319 272.855, 292.319 272.855, 290.424"/>
<polygon points=" 291.285, 319.909 291.285, 318.014 293.18, 318.014 293.18, 319.909 295.074, 319.909 295.074, 321.803 293.18, 321.803 293.18, 323.698 291.285, 323.698 291.285, 321.803 289.391, 321.803 289.391, 319.909"/>
<polygon points=" 307.82, 339.723 307.82, 337.829 309.715, 337.829 309.715, 339.723 311.609, 339.723 311.609, 341.618 309.715, 341.618 309.715, 343.512 307.82, 343.512 307.82, 341.618 305.926, 341.618 305.926, 339.723"/>
<polygon points=" 324.356, 350.39 324.356, 348.496 326.25, 348.496 326.25, 350.39 328.145, 350.39 328.145, 352.285 326.25, 352.285 326.25, 354.179 324.356, 354.179 324.356, 352.285 322.461, 352.285 322.461, 350.39"/>
<polygon points=" 340.891, 355.788 340.891, 353.893 342.786, 353.893 342.786, 355.788 344.68, 355.788 344.68, 357.682 342.786, 357.682 342.786, 359.577 340.891, 359.577 340.891, 357.682 338.997, 357.682 338.997, 355.788"/>
<polygon points=" 357.427, 357.619 357.427, 355.724 359.321, 355.724 359.321, 357.619 361.216, 357.619 361.216, 359.513 359.321, 359.513 359.321, 361.408 357.427, 361.408 357.427, 359.513 355.532, 359.513 355.532, 357.619"/>
<polygon points=" 373.962, 358.331 373.962, 356.436 375.857, 356.436 375.857, 358.331 377.751, 358.331 377.751, 360.225 375.857, 360.225 375.857, 362.12 373.962, 362.12 373.962, 360.225 372.068, 360.225 372.068, 358.331"/>
<polygon points=" 390.498, 358.466 390.498, 356.572 392.392, 356.572 392.392, 358.466 394.287, 358.466 394.287, 360.361 392.392, 360.361 392.392, 362.255 390.498, 362.255 390.498, 360.361 388.603, 360.361 388.603, 358.466"/>
</g>
<path d="M93.8071,359.108l 16.5354, -2.14284l 16.5354, -7.73727l 16.5354, -21.9844l 16.5354, -32.1968l 16.5354, -41.8328l 16.5354, -31.2746l 16.5354, -7.60842l 16.5354, 21.0825l 16.5354, 37.7777l 16.5354, 29.4776l 16.5354, 26.9482l 16.5354, 17.4478l
 16.5354, 8.04242l 16.5354, 2.50902l 16.5354, 1.35623l 16.5354, 0.508584" fill="none" stroke="#ff0000"/>
<g fill="#ff0000">
<polygon points=" 92.8598, 358.161 92.8598, 356.267 94.7543, 356.267 94.7543, 358.161 96.6488, 358.161 96.6488, 360.056 94.7543, 360.056 94.7543, 361.95 92.8598, 361.95 92.8598, 360.056 90.9653, 360.056 90.9653, 358.161"/>
<polygon points=" 109.395, 356.018 109.395, 354.124 111.29, 354.124 111.29, 356.018 113.184, 356.018 113.184, 357.913 111.29, 357.913 111.29, 359.807 109.395, 359.807 109.395, 357.913 107.501, 357.913 107.501, 356.018"/>
<polygon points=" 125.931, 348.281 125.931, 346.387 127.825, 346.387 127.825, 348.281 129.72, 348.281 129.72, 350.176 127.825, 350.176 127.825, 352.07 125.931, 352.07 125.931, 350.176 124.036, 350.176 124.036, 348.281"/>
<polygon points=" 142.466, 326.297 142.466, 324.402 144.361, 324.402 144.361, 326.297 146.255, 326.297 146.255, 328.191 144.361, 328.191 144.361, 330.086 142.466, 330.086 142.466, 328.191 140.572, 328.191 140.572, 326.297"/>
<polygon points=" 159.002, 294.1 159.002, 292.205 160.896, 292.205 160.896, 294.1 162.791, 294.1 162.791, 295.994 160.896, 295.994 160.896, 297.889 159.002, 297.889 159.002, 295.994 157.107, 295.994 157.107, 294.1"/>
<polygon points=" 175.537, 252.267 175.537, 250.373 177.432, 250.373 177.432, 252.267 179.326, 252.267 179.326, 254.162 177.432, 254.162 177.432, 256.056 175.537, 256.056 175.537, 254.162 173.643, 254.162 173.643, 252.267"/>
<polygon points=" 192.072, 220.993 192.072, 219.098 193.967, 219.098 193.967, 220.993 195.861, 220.993 195.861, 222.887 193.967, 222.887 193.967, 224.782 192.072, 224.782 192.072, 222.887 190.178, 222.887 190.178, 220.993"/>
<polygon points=" 208.608, 213.384 208.608, 211.49 210.502, 211.49 210.502, 213.384 212.397, 213.384 212.397, 215.279 210.502, 215.279 210.502, 217.173 208.608, 217.173 208.608, 215.279 206.713, 215.279 206.713, 213.384"/>
<polygon points=" 225.143, 234.467 225.143, 232.572 227.038, 232.572 227.038, 234.467 228.932, 234.467 228.932, 236.361 227.038, 236.361 227.038, 238.256 225.143, 238.256 225.143, 236.361 223.249, 236.361 223.249, 234.467"/>
<polygon points=" 241.679, 272.244 241.679, 270.35 243.573, 270.35 243.573, 272.244 245.468, 272.244 245.468, 274.139 243.573, 274.139 243.573, 276.033 241.679, 276.033 241.679, 274.139 239.784, 274.139 239.784, 272.244"/>
<polygon points=" 258.214, 301.722 258.214, 299.827 260.109, 299.827 260.109, 301.722 262.003, 301.722 262.003, 303.616 260.109, 303.616 260.109, 305.511 258.214, 305.511 258.214, 303.616 256.32, 303.616 256.32, 301.722"/>
<polygon points=" 274.75, 328.67 274.75, 326.776 276.644, 326.776 276.644, 328.67 278.539, 328.67 278.539, 330.565 276.644, 330.565 276.644, 332.459 274.75, 332.459 274.75, 330.565 272.855, 330.565 272.855, 328.67"/>
<polygon points=" 291.285, 346.118 291.285, 344.223 293.18, 344.223 293.18, 346.118 295.074, 346.118 295.074, 348.012 293.18, 348.012 293.18, 349.907 291.285, 349.907 291.285, 348.012 289.391, 348.012 289.391, 346.118"/>
<polygon points=" 307.82, 354.16 307.82, 352.266 309.715, 352.266 309.715, 354.16 311.609, 354.16 311.609, 356.055 309.715, 356.055 309.715, 357.949 307.82, 357.949 307.82, 356.055 305.926, 356.055 305.926, 354.16"/>
<polygon points=" 324.356, 356.669 324.356, 354.775 326.25, 354.775 326.25, 356.669 328.145, 356.669 328.145, 358.564 326.25, 358.564 326.25, 360.458 324.356, 360.458 324.356, 358.564 322.461, 358.564 322.461, 356.669"/>
<polygon points=" 340.891, 358.026 340.891, 356.131 342.786, 356.131 342.786, 358.026 344.68, 358.026 344.68, 359.92 342.786, 359.92 342.786, 361.815 340.891, 361.815 340.891, 359.92 338.997, 359.92 338.997, 358.026"/>
<polygon points=" 357.427, 358.5 357.427, 356.606 359.321, 356.606 359.321, 358.5 361.216, 358.5 361.216, 360.395 359.321, 360.395 359.321, 362.289 357.427, 362.289 357.427, 360.395 355.532, 360.395 355.532, 358.5"/>
</g>
<path d="M93.8071,355.277l 16.5354, -19.6788l 16.5354, -39.4797l 16.5354, -61.6879l 16.5354, -68.781l 16.5354, -56.7241l 16.5354, -0.467898l 16.5354, 27.172l 16.5354, 60.3249l 16.5354, 65.2412l 16.5354, 47.2373l 16.5354, 30.1489l 16.5354, 11.8059l
 16.5354, 6.41495l 16.5354, 1.96653l 16.5354, 0.644207l 16.5354, 0.0678113" fill="none" stroke="#ff0033"/>
<g stroke="#ff0033" stroke-width="1" fill="none">
<polygon points=" 92.8598, 354.33 92.8598, 352.435 94.7543, 352.435 94.7543, 354.33 96.6488, 354.33 96.6488, 356.224 94.7543, 356.224 94.7543, 358.119 92.8598, 358.119 92.8598, 356.224 90.9653, 356.224 90.9653, 354.33"/>
<polygon points=" 109.395, 334.651 109.395, 332.757 111.29, 332.757 111.29, 334.651 113.184, 334.651 113.184, 336.546 111.29, 336.546 111.29, 338.44 109.395, 338.44 109.395, 336.546 107.501, 336.546 107.501, 334.651"/>
<polygon points=" 125.931, 295.171 125.931, 293.277 127.825, 293.277 127.825, 295.171 129.72, 295.171 129.72, 297.066 127.825, 297.066 127.825, 298.96 125.931, 298.96 125.931, 297.066 124.036, 297.066 124.036, 295.171"/>
<polygon points=" 142.466, 233.483 142.466, 231.589 144.361, 231.589 144.361, 233.483 146.255, 233.483 146.255, 235.378 144.361, 235.378 144.361, 237.272 142.466, 237.272 142.466, 235.378 140.572, 235.378 140.572, 233.483"/>
<polygon points=" 159.002, 164.702 159.002, 162.808 160.896, 162.808 160.896, 164.702 162.791, 164.702 162.791, 166.597 160.896, 166.597 160.896, 168.491 159.002, 168.491 159.002, 166.597 157.107, 166.597 157.107, 164.702"/>
<polygon points=" 175.537, 107.978 175.537, 106.084 177.432, 106.084 177.432, 107.978 179.326, 107.978 179.326, 109.873 177.432, 109.873 177.432, 111.767 175.537, 111.767 175.537, 109.873 173.643, 109.873 173.643, 107.978"/>
<polygon points=" 192.072, 107.51 192.072, 105.616 193.967, 105.616 193.967, 107.51 195.861, 107.51 195.861, 109.405 193.967, 109.405 193.967, 111.299 192.072, 111.299 192.072, 109.405 190.178, 109.405 190.178, 107.51"/>
<polygon points=" 208.608, 134.682 208.608, 132.788 210.502, 132.788 210.502, 134.682 212.397, 134.682 212.397, 136.577 210.502, 136.577 210.502, 138.471 208.608, 138.471 208.608, 136.577 206.713, 136.577 206.713, 134.682"/>
<polygon points=" 225.143, 195.007 225.143, 193.113 227.038, 193.113 227.038, 195.007 228.932, 195.007 228.932, 196.902 227.038, 196.902 227.038, 198.796 225.143, 198.796 225.143, 196.902 223.249, 196.902 223.249, 195.007"/>
<polygon points=" 241.679, 260.249 241.679, 258.354 243.573, 258.354 243.573, 260.249 245.468, 260.249 245.468, 262.143 243.573, 262.143 243.573, 264.038 241.679, 264.038 241.679, 262.143 239.784, 262.143 239.784, 260.249"/>
<polygon points=" 258.214, 307.486 258.214, 305.591 260.109, 305.591 260.109, 307.486 262.003, 307.486 262.003, 309.38 260.109, 309.38 260.109, 311.275 258.214, 311.275 258.214, 309.38 256.32, 309.38 256.32, 307.486"/>
<polygon points=" 274.75, 337.635 274.75, 335.74 276.644, 335.74 276.644, 337.635 278.539, 337.635 278.539, 339.529 276.644, 339.529 276.644, 341.424 274.75, 341.424 274.75, 339.529 272.855, 339.529 272.855, 337.635"/>
<polygon points=" 291.285, 349.441 291.285, 347.546 293.18, 347.546 293.18, 349.441 295.074, 349.441 295.074, 351.335 293.18, 351.335 293.18, 353.23 291.285, 353.23 291.285, 351.335 289.391, 351.335 289.391, 349.441"/>
<polygon points=" 307.82, 355.856 307.82, 353.961 309.715, 353.961 309.715, 355.856 311.609, 355.856 311.609, 357.75 309.715, 357.75 309.715, 359.645 307.82, 359.645 307.82, 357.75 305.926, 357.75 305.926, 355.856"/>
<polygon points=" 324.356, 357.822 324.356, 355.928 326.25, 355.928 326.25, 357.822 328.145, 357.822 328.145, 359.717 326.25, 359.717 326.25, 361.611 324.356, 361.611 324.356, 359.717 322.461, 359.717 322.461, 357.822"/>
<polygon points=" 340.891, 358.466 340.891, 356.572 342.786, 356.572 342.786, 358.466 344.68, 358.466 344.68, 360.361 342.786, 360.361 342.786, 362.255 340.891, 362.255 340.891, 360.361 338.997, 360.361 338.997, 358.466"/>
<polygon points=" 357.427, 358.5 357.427, 356.606 359.321, 356.606 359.321, 358.5 361.216, 358.5 361.216, 360.395 359.321, 360.395 359.321, 362.289 357.427, 362.289 357.427, 360.395 355.532, 360.395 355.532, 358.5"/>
</g>
<path d="M93.8071,332.099l 16.5354, -46.288l 16.5354, -53.3132l 16.5354, -51.5501l 16.5354, -28.318l 16.5354, 2.10893l 16.5354, 37.5403l 16.5354, 44.769l 16.5354, 49.943l 16.5354, 32.5969l 16.5354, 24.351l 16.5354, 10.0157l 16.5354, 4.01443l 16.5354,
 0.732362l 16.5354, 0.610301l 16.5354, 0.169528" fill="none" stroke="#ff00ff"/>
<g fill="#ff00ff">
<polygon points=" 93.8071, 333.52 92.3862, 334.941 90.9653, 333.52 92.3862, 332.099 90.9653, 330.678 92.3862, 329.257 93.8071, 330.678 95.228, 329.257 96.6488, 330.678 95.228, 332.099 96.6488, 333.52 95.228, 334.941 93.8071, 333.52"/>
<polygon points=" 110.343, 287.232 108.922, 288.653 107.501, 287.232 108.922, 285.811 107.501, 284.39 108.922, 282.969 110.343, 284.39 111.763, 282.969 113.184, 284.39 111.763, 285.811 113.184, 287.232 111.763, 288.653 110.343, 287.232"/>
<polygon points=" 126.878, 233.919 125.457, 235.34 124.036, 233.919 125.457, 232.498 124.036, 231.077 125.457, 229.656 126.878, 231.077 128.299, 229.656 129.72, 231.077 128.299, 232.498 129.72, 233.919 128.299, 235.34 126.878, 233.919"/>
<polygon points=" 143.413, 182.369 141.993, 183.79 140.572, 182.369 141.993, 180.948 140.572, 179.527 141.993, 178.106 143.413, 179.527 144.834, 178.106 146.255, 179.527 144.834, 180.948 146.255, 182.369 144.834, 183.79 143.413, 182.369"/>
<polygon points=" 159.949, 154.051 158.528, 155.472 157.107, 154.051 158.528, 152.63 157.107, 151.209 158.528, 149.788 159.949, 151.209 161.37, 149.788 162.791, 151.209 161.37, 152.63 162.791, 154.051 161.37, 155.472 159.949, 154.051"/>
<polygon points=" 176.484, 156.16 175.063, 157.581 173.643, 156.16 175.063, 154.739 173.643, 153.318 175.063, 151.897 176.484, 153.318 177.905, 151.897 179.326, 153.318 177.905, 154.739 179.326, 156.16 177.905, 157.581 176.484, 156.16"/>
<polygon points=" 193.02, 193.7 191.599, 195.121 190.178, 193.7 191.599, 192.279 190.178, 190.858 191.599, 189.437 193.02, 190.858 194.441, 189.437 195.861, 190.858 194.441, 192.279 195.861, 193.7 194.441, 195.121 193.02, 193.7"/>
<polygon points=" 209.555, 238.469 208.134, 239.89 206.713, 238.469 208.134, 237.048 206.713, 235.627 208.134, 234.206 209.555, 235.627 210.976, 234.206 212.397, 235.627 210.976, 237.048 212.397, 238.469 210.976, 239.89 209.555, 238.469"/>
<polygon points=" 226.091, 288.412 224.67, 289.833 223.249, 288.412 224.67, 286.991 223.249, 285.57 224.67, 284.149 226.091, 285.57 227.511, 284.149 228.932, 285.57 227.511, 286.991 228.932, 288.412 227.511, 289.833 226.091, 288.412"/>
<polygon points=" 242.626, 321.009 241.205, 322.43 239.784, 321.009 241.205, 319.588 239.784, 318.167 241.205, 316.746 242.626, 318.167 244.047, 316.746 245.468, 318.167 244.047, 319.588 245.468, 321.009 244.047, 322.43 242.626, 321.009"/>
<polygon points=" 259.161, 345.36 257.741, 346.781 256.32, 345.36 257.741, 343.939 256.32, 342.518 257.741, 341.097 259.161, 342.518 260.582, 341.097 262.003, 342.518 260.582, 343.939 262.003, 345.36 260.582, 346.781 259.161, 345.36"/>
<polygon points=" 275.697, 355.376 274.276, 356.797 272.855, 355.376 274.276, 353.955 272.855, 352.534 274.276, 351.113 275.697, 352.534 277.118, 351.113 278.539, 352.534 277.118, 353.955 278.539, 355.376 277.118, 356.797 275.697, 355.376"/>
<polygon points=" 292.232, 359.39 290.811, 360.811 289.391, 359.39 290.811, 357.969 289.391, 356.548 290.811, 355.127 292.232, 356.548 293.653, 355.127 295.074, 356.548 293.653, 357.969 295.074, 359.39 293.653, 360.811 292.232, 359.39"/>
<polygon points=" 308.768, 360.122 307.347, 361.543 305.926, 360.122 307.347, 358.702 305.926, 357.281 307.347, 355.86 308.768, 357.281 310.189, 355.86 311.609, 357.281 310.189, 358.702 311.609, 360.122 310.189, 361.543 308.768, 360.122"/>
<polygon points=" 325.303, 360.733 323.882, 362.154 322.461, 360.733 323.882, 359.312 322.461, 357.891 323.882, 356.47 325.303, 357.891 326.724, 356.47 328.145, 357.891 326.724, 359.312 328.145, 360.733 326.724, 362.154 325.303, 360.733"/>
<polygon points=" 341.839, 360.868 340.418, 362.289 338.997, 360.868 340.418, 359.447 338.997, 358.027 340.418, 356.606 341.839, 358.027 343.259, 356.606 344.68, 358.027 343.259, 359.447 344.68, 360.868 343.259, 362.289 341.839, 360.868"/>
</g>
<path d="M93.8071,274.392l 16.5354, -44.0027l 16.5354, -20.5129l 16.5354, 0.169528l 16.5354, 11.8873l 16.5354, 30.7253l 16.5354, 33.7564l 16.5354, 30.5286l 16.5354, 20.418l 16.5354, 12.3145l 16.5354, 5.96061l 16.5354, 2.48867l 16.5354, 0.949358l
 16.5354, 0.305151l 33.0709, 0.101717h 16.5354" fill="none" stroke="#cc00ff"/>
<g stroke="#cc00ff" stroke-width="1" fill="none">
<polygon points=" 92.8598, 273.445 92.8598, 271.55 94.7543, 271.55 94.7543, 273.445 96.6488, 273.445 96.6488, 275.339 94.7543, 275.339 94.7543, 277.234 92.8598, 277.234 92.8598, 275.339 90.9653, 275.339 90.9653, 273.445"/>
<polygon points=" 109.395, 229.442 109.395, 227.547 111.29, 227.547 111.29, 229.442 113.184, 229.442 113.184, 231.336 111.29, 231.336 111.29, 233.231 109.395, 233.231 109.395, 231.336 107.501, 231.336 107.501, 229.442"/>
<polygon points=" 125.931, 208.929 125.931, 207.034 127.825, 207.034 127.825, 208.929 129.72, 208.929 129.72, 210.823 127.825, 210.823 127.825, 212.718 125.931, 212.718 125.931, 210.823 124.036, 210.823 124.036, 208.929"/>
<polygon points=" 142.466, 209.098 142.466, 207.204 144.361, 207.204 144.361, 209.098 146.255, 209.098 146.255, 210.993 144.361, 210.993 144.361, 212.887 142.466, 212.887 142.466, 210.993 140.572, 210.993 140.572, 209.098"/>
<polygon points=" 159.002, 220.986 159.002, 219.091 160.896, 219.091 160.896, 220.986 162.791, 220.986 162.791, 222.88 160.896, 222.88 160.896, 224.775 159.002, 224.775 159.002, 222.88 157.107, 222.88 157.107, 220.986"/>
<polygon points=" 175.537, 251.711 175.537, 249.817 177.432, 249.817 177.432, 251.711 179.326, 251.711 179.326, 253.606 177.432, 253.606 177.432, 255.5 175.537, 255.5 175.537, 253.606 173.643, 253.606 173.643, 251.711"/>
<polygon points=" 192.072, 285.467 192.072, 283.573 193.967, 283.573 193.967, 285.467 195.861, 285.467 195.861, 287.362 193.967, 287.362 193.967, 289.257 192.072, 289.257 192.072, 287.362 190.178, 287.362 190.178, 285.467"/>
<polygon points=" 208.608, 315.996 208.608, 314.102 210.502, 314.102 210.502, 315.996 212.397, 315.996 212.397, 317.891 210.502, 317.891 210.502, 319.785 208.608, 319.785 208.608, 317.891 206.713, 317.891 206.713, 315.996"/>
<polygon points=" 225.143, 336.414 225.143, 334.52 227.038, 334.52 227.038, 336.414 228.932, 336.414 228.932, 338.309 227.038, 338.309 227.038, 340.203 225.143, 340.203 225.143, 338.309 223.249, 338.309 223.249, 336.414"/>
<polygon points=" 241.679, 348.729 241.679, 346.834 243.573, 346.834 243.573, 348.729 245.468, 348.729 245.468, 350.623 243.573, 350.623 243.573, 352.518 241.679, 352.518 241.679, 350.623 239.784, 350.623 239.784, 348.729"/>
<polygon points=" 258.214, 354.689 258.214, 352.795 260.109, 352.795 260.109, 354.689 262.003, 354.689 262.003, 356.584 260.109, 356.584 260.109, 358.478 258.214, 358.478 258.214, 356.584 256.32, 356.584 256.32, 354.689"/>
<polygon points=" 274.75, 357.178 274.75, 355.283 276.644, 355.283 276.644, 357.178 278.539, 357.178 278.539, 359.072 276.644, 359.072 276.644, 360.967 274.75, 360.967 274.75, 359.072 272.855, 359.072 272.855, 357.178"/>
<polygon points=" 291.285, 358.127 291.285, 356.233 293.18, 356.233 293.18, 358.127 295.074, 358.127 295.074, 360.022 293.18, 360.022 293.18, 361.916 291.285, 361.916 291.285, 360.022 289.391, 360.022 289.391, 358.127"/>
<polygon points=" 307.82, 358.432 307.82, 356.538 309.715, 356.538 309.715, 358.432 311.609, 358.432 311.609, 360.327 309.715, 360.327 309.715, 362.221 307.82, 362.221 307.82, 360.327 305.926, 360.327 305.926, 358.432"/>
<polygon points=" 340.891, 358.5 340.891, 356.606 342.786, 356.606 342.786, 358.5 344.68, 358.5 344.68, 360.395 342.786, 360.395 342.786, 362.289 340.891, 362.289 340.891, 360.395 338.997, 360.395 338.997, 358.5"/>
<polygon points=" 357.427, 358.5 357.427, 356.606 359.321, 356.606 359.321, 358.5 361.216, 358.5 361.216, 360.395 359.321, 360.395 359.321, 362.289 357.427, 362.289 357.427, 360.395 355.532, 360.395 355.532, 358.5"/>
</g>
<text xml:space="preserve" x="272.598" y="51.8619" fill="black" font-size="11.7432" font-family="Helvetica">PYTHIA8</text>
<text xml:space="preserve" x="272.598" y="66.7811" fill="black" font-size="11.7432" font-family="Helvetica">pAu200GeV, option3</text>
<text xml:space="preserve" x="413.264" y="82.4108" fill="black" font-size="11.7432" font-family="Helvetica">|&lt;1</text>
<text xml:space="preserve" x="406.87" y="82.4108" fill="black" font-size="11.7432" font-family="Times">&#0951;</text>
<text xml:space="preserve" x="344.352" y="82.4108" fill="black" font-size="11.7432" font-family="Helvetica"> &gt; 3 GeV in |</text>
<text xml:space="preserve" x="340.089" y="78.1481" fill="black" font-size="7.99544" font-family="Helvetica">0</text>
<text xml:space="preserve" x="333.695" y="82.4108" fill="black" font-size="11.7432" font-family="Times">&#0960;</text>
<text xml:space="preserve" x="272.598" y="82.4108" fill="black" font-size="11.7432" font-family="Helvetica">Events with </text>
<text xml:space="preserve" x="323.039" y="97.3299" fill="black" font-size="11.7432" font-family="Helvetica">centrality: 0~10%</text>
<g fill="#ffcc00">
<polygon points=" 294.356, 93.5187 294.356, 91.6242 296.25, 91.6242 296.25, 93.5187 298.145, 93.5187 298.145, 95.4132 296.25, 95.4132 296.25, 97.3077 294.356, 97.3077 294.356, 95.4132 292.461, 95.4132 292.461, 93.5187"/>
</g>
<text xml:space="preserve" x="323.039" y="112.96" fill="black" font-size="11.7432" font-family="Helvetica">centrality: 10~20%</text>
<g fill="#ff0000">
<polygon points=" 294.356, 108.838 294.356, 106.943 296.25, 106.943 296.25, 108.838 298.145, 108.838 298.145, 110.732 296.25, 110.732 296.25, 112.627 294.356, 112.627 294.356, 110.732 292.461, 110.732 292.461, 108.838"/>
</g>
<text xml:space="preserve" x="323.039" y="127.879" fill="black" font-size="11.7432" font-family="Helvetica">centrality: 20~40%</text>
<g stroke="#ff0033" stroke-width="1" fill="none">
<polygon points=" 294.356, 124.156 294.356, 122.262 296.25, 122.262 296.25, 124.156 298.145, 124.156 298.145, 126.051 296.25, 126.051 296.25, 127.945 294.356, 127.945 294.356, 126.051 292.461, 126.051 292.461, 124.156"/>
</g>
<text xml:space="preserve" x="323.039" y="143.508" fill="black" font-size="11.7432" font-family="Helvetica">centrality: 40~60%</text>
<g fill="#ff00ff">
<polygon points=" 295.303, 141.843 293.882, 143.264 292.461, 141.843 293.882, 140.422 292.461, 139.002 293.882, 137.581 295.303, 139.002 296.724, 137.581 298.145, 139.002 296.724, 140.422 298.145, 141.843 296.724, 143.264 295.303, 141.843"/>
</g>
<text xml:space="preserve" x="323.039" y="159.138" fill="black" font-size="11.7432" font-family="Helvetica">centrality: 60~80%</text>
<g stroke="#cc00ff" stroke-width="1" fill="none">
<polygon points=" 294.356, 154.794 294.356, 152.899 296.25, 152.899 296.25, 154.794 298.145, 154.794 298.145, 156.688 296.25, 156.688 296.25, 158.583 294.356, 158.583 294.356, 156.688 292.461, 156.688 292.461, 154.794"/>
</g></svg>
