<?xml version="1.0" standalone="no"?>
<svg width="567.429" height="409.002" viewBox="0 0 567.429 409.002" xmlns="http://www.w3.org/2000/svg" shape-rendering="crispEdges">
<title>
/Users/jinhyunpark/npl/gitHub/Centrality_dependent_BiasCorrection/plots/Ncoll_midJetEvent_pion07GeV.svg
</title>
<desc>
Creator: ROOT Version 6.28/04
CreationDate: Mon Oct  2 01:34:13 2023</desc>
<defs>
</defs>
<rect x="0.5" y="0" width="566.929" height="408.502" fill="white"/>
<rect x="85.5394" y="20.4251" width="396.85" height="339.056" fill="white"/>
<rect x="85.5394" y="20.4251" width="396.85" height="339.056" fill="none" stroke="black"/>
<rect x="85.5394" y="20.4251" width="396.85" height="339.056" fill="white"/>
<rect x="85.5394" y="20.4251" width="396.85" height="339.056" fill="none" stroke="black"/>
<path d="M85.5394,359.481h 396.85" fill="none" stroke="black"/>
<path d="M151.681,350.903v 8.57853" fill="none" stroke="black"/>
<path d="M168.217,355.192v 4.28927" fill="none" stroke="black"/>
<path d="M184.752,355.192v 4.28927" fill="none" stroke="black"/>
<path d="M201.287,355.192v 4.28927" fill="none" stroke="black"/>
<path d="M217.823,355.192v 4.28927" fill="none" stroke="black"/>
<path d="M234.358,350.903v 8.57853" fill="none" stroke="black"/>
<path d="M250.894,355.192v 4.28927" fill="none" stroke="black"/>
<path d="M267.429,355.192v 4.28927" fill="none" stroke="black"/>
<path d="M283.965,355.192v 4.28927" fill="none" stroke="black"/>
<path d="M300.5,355.192v 4.28927" fill="none" stroke="black"/>
<path d="M317.035,350.903v 8.57853" fill="none" stroke="black"/>
<path d="M333.571,355.192v 4.28927" fill="none" stroke="black"/>
<path d="M350.106,355.192v 4.28927" fill="none" stroke="black"/>
<path d="M366.642,355.192v 4.28927" fill="none" stroke="black"/>
<path d="M383.177,355.192v 4.28927" fill="none" stroke="black"/>
<path d="M399.713,350.903v 8.57853" fill="none" stroke="black"/>
<path d="M416.248,355.192v 4.28927" fill="none" stroke="black"/>
<path d="M432.783,355.192v 4.28927" fill="none" stroke="black"/>
<path d="M449.319,355.192v 4.28927" fill="none" stroke="black"/>
<path d="M465.854,355.192v 4.28927" fill="none" stroke="black"/>
<path d="M482.39,350.903v 8.57853" fill="none" stroke="black"/>
<path d="M151.681,350.903v 8.57853" fill="none" stroke="black"/>
<path d="M135.146,355.192v 4.28927" fill="none" stroke="black"/>
<path d="M118.61,355.192v 4.28927" fill="none" stroke="black"/>
<path d="M102.075,355.192v 4.28927" fill="none" stroke="black"/>
<text xml:space="preserve" x="147.561" y="372.269" fill="black" font-size="13.617" font-family="Helvetica">5</text>
<text xml:space="preserve" x="226.419" y="372.269" fill="black" font-size="13.617" font-family="Helvetica">10</text>
<text xml:space="preserve" x="308.83" y="372.269" fill="black" font-size="13.617" font-family="Helvetica">15</text>
<text xml:space="preserve" x="391.241" y="372.269" fill="black" font-size="13.617" font-family="Helvetica">20</text>
<text xml:space="preserve" x="474.362" y="372.269" fill="black" font-size="13.617" font-family="Helvetica">25</text>
<text xml:space="preserve" x="453.049" y="387.188" fill="black" font-size="13.617" font-family="Helvetica">Ncoll</text>
<path d="M85.5394,20.4251h 396.85" fill="none" stroke="black"/>
<path d="M151.681,29.0036v -8.57853" fill="none" stroke="black"/>
<path d="M168.217,24.7143v -4.28927" fill="none" stroke="black"/>
<path d="M184.752,24.7143v -4.28927" fill="none" stroke="black"/>
<path d="M201.287,24.7143v -4.28927" fill="none" stroke="black"/>
<path d="M217.823,24.7143v -4.28927" fill="none" stroke="black"/>
<path d="M234.358,29.0036v -8.57853" fill="none" stroke="black"/>
<path d="M250.894,24.7143v -4.28927" fill="none" stroke="black"/>
<path d="M267.429,24.7143v -4.28927" fill="none" stroke="black"/>
<path d="M283.965,24.7143v -4.28927" fill="none" stroke="black"/>
<path d="M300.5,24.7143v -4.28927" fill="none" stroke="black"/>
<path d="M317.035,29.0036v -8.57853" fill="none" stroke="black"/>
<path d="M333.571,24.7143v -4.28927" fill="none" stroke="black"/>
<path d="M350.106,24.7143v -4.28927" fill="none" stroke="black"/>
<path d="M366.642,24.7143v -4.28927" fill="none" stroke="black"/>
<path d="M383.177,24.7143v -4.28927" fill="none" stroke="black"/>
<path d="M399.713,29.0036v -8.57853" fill="none" stroke="black"/>
<path d="M416.248,24.7143v -4.28927" fill="none" stroke="black"/>
<path d="M432.783,24.7143v -4.28927" fill="none" stroke="black"/>
<path d="M449.319,24.7143v -4.28927" fill="none" stroke="black"/>
<path d="M465.854,24.7143v -4.28927" fill="none" stroke="black"/>
<path d="M482.39,29.0036v -8.57853" fill="none" stroke="black"/>
<path d="M151.681,29.0036v -8.57853" fill="none" stroke="black"/>
<path d="M135.146,24.7143v -4.28927" fill="none" stroke="black"/>
<path d="M118.61,24.7143v -4.28927" fill="none" stroke="black"/>
<path d="M102.075,24.7143v -4.28927" fill="none" stroke="black"/>
<path d="M85.5394,359.481v -339.056" fill="none" stroke="black"/>
<path d="M99.6559,359.481h -14.1165" fill="none" stroke="black"/>
<path d="M92.5976,348.18h -7.05827" fill="none" stroke="black"/>
<path d="M92.5976,336.878h -7.05827" fill="none" stroke="black"/>
<path d="M92.5976,325.576h -7.05827" fill="none" stroke="black"/>
<path d="M92.5976,314.274h -7.05827" fill="none" stroke="black"/>
<path d="M99.6559,302.972h -14.1165" fill="none" stroke="black"/>
<path d="M92.5976,291.67h -7.05827" fill="none" stroke="black"/>
<path d="M92.5976,280.368h -7.05827" fill="none" stroke="black"/>
<path d="M92.5976,269.066h -7.05827" fill="none" stroke="black"/>
<path d="M92.5976,257.764h -7.05827" fill="none" stroke="black"/>
<path d="M99.6559,246.463h -14.1165" fill="none" stroke="black"/>
<path d="M92.5976,235.161h -7.05827" fill="none" stroke="black"/>
<path d="M92.5976,223.859h -7.05827" fill="none" stroke="black"/>
<path d="M92.5976,212.557h -7.05827" fill="none" stroke="black"/>
<path d="M92.5976,201.255h -7.05827" fill="none" stroke="black"/>
<path d="M99.6559,189.953h -14.1165" fill="none" stroke="black"/>
<path d="M92.5976,178.651h -7.05827" fill="none" stroke="black"/>
<path d="M92.5976,167.349h -7.05827" fill="none" stroke="black"/>
<path d="M92.5976,156.048h -7.05827" fill="none" stroke="black"/>
<path d="M92.5976,144.746h -7.05827" fill="none" stroke="black"/>
<path d="M99.6559,133.444h -14.1165" fill="none" stroke="black"/>
<path d="M92.5976,122.142h -7.05827" fill="none" stroke="black"/>
<path d="M92.5976,110.84h -7.05827" fill="none" stroke="black"/>
<path d="M92.5976,99.5382h -7.05827" fill="none" stroke="black"/>
<path d="M92.5976,88.2363h -7.05827" fill="none" stroke="black"/>
<path d="M99.6559,76.9345h -14.1165" fill="none" stroke="black"/>
<path d="M92.5976,65.6326h -7.05827" fill="none" stroke="black"/>
<path d="M92.5976,54.3307h -7.05827" fill="none" stroke="black"/>
<path d="M92.5976,43.0288h -7.05827" fill="none" stroke="black"/>
<path d="M92.5976,31.727h -7.05827" fill="none" stroke="black"/>
<path d="M99.6559,20.4251h -14.1165" fill="none" stroke="black"/>
<text xml:space="preserve" x="75.0959" y="364.454" fill="black" font-size="13.617" font-family="Helvetica">0</text>
<text xml:space="preserve" x="67.2811" y="307.619" fill="black" font-size="13.617" font-family="Helvetica">50</text>
<text xml:space="preserve" x="60.1768" y="250.784" fill="black" font-size="13.617" font-family="Helvetica">100</text>
<text xml:space="preserve" x="60.1768" y="194.66" fill="black" font-size="13.617" font-family="Helvetica">150</text>
<text xml:space="preserve" x="60.1768" y="137.825" fill="black" font-size="13.617" font-family="Helvetica">200</text>
<text xml:space="preserve" x="60.1768" y="81.7003" fill="black" font-size="13.617" font-family="Helvetica">250</text>
<text xml:space="preserve" x="60.1768" y="24.8653" fill="black" font-size="13.617" font-family="Helvetica">300</text>
<g transform="rotate(-90,48.8097,85.9629)">
<text xml:space="preserve" x="48.8097" y="85.9629" fill="black" font-size="13.617" font-family="Helvetica"># of events</text>
</g>
<path d="M482.39,359.481v -339.056" fill="none" stroke="black"/>
<path d="M468.273,359.481h 14.1165" fill="none" stroke="black"/>
<path d="M475.332,348.18h 7.05827" fill="none" stroke="black"/>
<path d="M475.332,336.878h 7.05827" fill="none" stroke="black"/>
<path d="M475.332,325.576h 7.05827" fill="none" stroke="black"/>
<path d="M475.332,314.274h 7.05827" fill="none" stroke="black"/>
<path d="M468.273,302.972h 14.1165" fill="none" stroke="black"/>
<path d="M475.332,291.67h 7.05827" fill="none" stroke="black"/>
<path d="M475.332,280.368h 7.05827" fill="none" stroke="black"/>
<path d="M475.332,269.066h 7.05827" fill="none" stroke="black"/>
<path d="M475.332,257.764h 7.05827" fill="none" stroke="black"/>
<path d="M468.273,246.463h 14.1165" fill="none" stroke="black"/>
<path d="M475.332,235.161h 7.05827" fill="none" stroke="black"/>
<path d="M475.332,223.859h 7.05827" fill="none" stroke="black"/>
<path d="M475.332,212.557h 7.05827" fill="none" stroke="black"/>
<path d="M475.332,201.255h 7.05827" fill="none" stroke="black"/>
<path d="M468.273,189.953h 14.1165" fill="none" stroke="black"/>
<path d="M475.332,178.651h 7.05827" fill="none" stroke="black"/>
<path d="M475.332,167.349h 7.05827" fill="none" stroke="black"/>
<path d="M475.332,156.048h 7.05827" fill="none" stroke="black"/>
<path d="M475.332,144.746h 7.05827" fill="none" stroke="black"/>
<path d="M468.273,133.444h 14.1165" fill="none" stroke="black"/>
<path d="M475.332,122.142h 7.05827" fill="none" stroke="black"/>
<path d="M475.332,110.84h 7.05827" fill="none" stroke="black"/>
<path d="M475.332,99.5382h 7.05827" fill="none" stroke="black"/>
<path d="M475.332,88.2363h 7.05827" fill="none" stroke="black"/>
<path d="M468.273,76.9345h 14.1165" fill="none" stroke="black"/>
<path d="M475.332,65.6326h 7.05827" fill="none" stroke="black"/>
<path d="M475.332,54.3307h 7.05827" fill="none" stroke="black"/>
<path d="M475.332,43.0288h 7.05827" fill="none" stroke="black"/>
<path d="M475.332,31.727h 7.05827" fill="none" stroke="black"/>
<path d="M468.273,20.4251h 14.1165" fill="none" stroke="black"/>
<path d="M143.413,342.529l 16.5354, 5.65094l 16.5354, -50.8584l 16.5354, 11.3019l 16.5354, -46.3377l 16.5354, -21.4736l 16.5354, 33.9056l 16.5354, -5.65094l 16.5354, 39.5566l 16.5354, 28.2547l 33.0709, 5.65094l 16.5354, 11.3019" fill="none"
 stroke="#ffcc00"/>
<g fill="#ffcc00">
<polygon points=" 142.466, 341.581 142.466, 339.687 144.361, 339.687 144.361, 341.581 146.255, 341.581 146.255, 343.476 144.361, 343.476 144.361, 345.37 142.466, 345.37 142.466, 343.476 140.572, 343.476 140.572, 341.581"/>
<polygon points=" 159.002, 347.232 159.002, 345.338 160.896, 345.338 160.896, 347.232 162.791, 347.232 162.791, 349.127 160.896, 349.127 160.896, 351.021 159.002, 351.021 159.002, 349.127 157.107, 349.127 157.107, 347.232"/>
<polygon points=" 175.537, 296.374 175.537, 294.479 177.432, 294.479 177.432, 296.374 179.326, 296.374 179.326, 298.268 177.432, 298.268 177.432, 300.163 175.537, 300.163 175.537, 298.268 173.643, 298.268 173.643, 296.374"/>
<polygon points=" 192.072, 307.676 192.072, 305.781 193.967, 305.781 193.967, 307.676 195.861, 307.676 195.861, 309.57 193.967, 309.57 193.967, 311.465 192.072, 311.465 192.072, 309.57 190.178, 309.57 190.178, 307.676"/>
<polygon points=" 208.608, 261.338 208.608, 259.444 210.502, 259.444 210.502, 261.338 212.397, 261.338 212.397, 263.232 210.502, 263.232 210.502, 265.127 208.608, 265.127 208.608, 263.232 206.713, 263.232 206.713, 261.338"/>
<polygon points=" 225.143, 239.864 225.143, 237.97 227.038, 237.97 227.038, 239.864 228.932, 239.864 228.932, 241.759 227.038, 241.759 227.038, 243.653 225.143, 243.653 225.143, 241.759 223.249, 241.759 223.249, 239.864"/>
<polygon points=" 241.679, 273.77 241.679, 271.876 243.573, 271.876 243.573, 273.77 245.468, 273.77 245.468, 275.665 243.573, 275.665 243.573, 277.559 241.679, 277.559 241.679, 275.665 239.784, 275.665 239.784, 273.77"/>
<polygon points=" 258.214, 268.119 258.214, 266.225 260.109, 266.225 260.109, 268.119 262.003, 268.119 262.003, 270.014 260.109, 270.014 260.109, 271.908 258.214, 271.908 258.214, 270.014 256.32, 270.014 256.32, 268.119"/>
<polygon points=" 274.75, 307.676 274.75, 305.781 276.644, 305.781 276.644, 307.676 278.539, 307.676 278.539, 309.57 276.644, 309.57 276.644, 311.465 274.75, 311.465 274.75, 309.57 272.855, 309.57 272.855, 307.676"/>
<polygon points=" 291.285, 335.93 291.285, 334.036 293.18, 334.036 293.18, 335.93 295.074, 335.93 295.074, 337.825 293.18, 337.825 293.18, 339.719 291.285, 339.719 291.285, 337.825 289.391, 337.825 289.391, 335.93"/>
<polygon points=" 324.356, 341.581 324.356, 339.687 326.25, 339.687 326.25, 341.581 328.145, 341.581 328.145, 343.476 326.25, 343.476 326.25, 345.37 324.356, 345.37 324.356, 343.476 322.461, 343.476 322.461, 341.581"/>
<polygon points=" 340.891, 352.883 340.891, 350.989 342.786, 350.989 342.786, 352.883 344.68, 352.883 344.68, 354.778 342.786, 354.778 342.786, 356.672 340.891, 356.672 340.891, 354.778 338.997, 354.778 338.997, 352.883"/>
</g>
<path d="M110.343,353.83h 16.5354l 16.5354, -16.9528l 16.5354, -33.9056l 16.5354, -28.2547l 16.5354, -39.5566l 16.5354, -33.9056l 16.5354, 50.8584l 16.5354, -5.65094l 16.5354, 50.8584l 16.5354, 16.9528l 33.0709, 39.5566" fill="none"
 stroke="#ff0000"/>
<g fill="#ff0000">
<polygon points=" 109.395, 352.883 109.395, 350.989 111.29, 350.989 111.29, 352.883 113.184, 352.883 113.184, 354.778 111.29, 354.778 111.29, 356.672 109.395, 356.672 109.395, 354.778 107.501, 354.778 107.501, 352.883"/>
<polygon points=" 125.931, 352.883 125.931, 350.989 127.825, 350.989 127.825, 352.883 129.72, 352.883 129.72, 354.778 127.825, 354.778 127.825, 356.672 125.931, 356.672 125.931, 354.778 124.036, 354.778 124.036, 352.883"/>
<polygon points=" 142.466, 335.93 142.466, 334.036 144.361, 334.036 144.361, 335.93 146.255, 335.93 146.255, 337.825 144.361, 337.825 144.361, 339.719 142.466, 339.719 142.466, 337.825 140.572, 337.825 140.572, 335.93"/>
<polygon points=" 159.002, 302.025 159.002, 300.13 160.896, 300.13 160.896, 302.025 162.791, 302.025 162.791, 303.919 160.896, 303.919 160.896, 305.814 159.002, 305.814 159.002, 303.919 157.107, 303.919 157.107, 302.025"/>
<polygon points=" 175.537, 273.77 175.537, 271.876 177.432, 271.876 177.432, 273.77 179.326, 273.77 179.326, 275.665 177.432, 275.665 177.432, 277.559 175.537, 277.559 175.537, 275.665 173.643, 275.665 173.643, 273.77"/>
<polygon points=" 192.072, 234.213 192.072, 232.319 193.967, 232.319 193.967, 234.213 195.861, 234.213 195.861, 236.108 193.967, 236.108 193.967, 238.002 192.072, 238.002 192.072, 236.108 190.178, 236.108 190.178, 234.213"/>
<polygon points=" 208.608, 200.308 208.608, 198.413 210.502, 198.413 210.502, 200.308 212.397, 200.308 212.397, 202.202 210.502, 202.202 210.502, 204.097 208.608, 204.097 208.608, 202.202 206.713, 202.202 206.713, 200.308"/>
<polygon points=" 225.143, 251.166 225.143, 249.272 227.038, 249.272 227.038, 251.166 228.932, 251.166 228.932, 253.061 227.038, 253.061 227.038, 254.955 225.143, 254.955 225.143, 253.061 223.249, 253.061 223.249, 251.166"/>
<polygon points=" 241.679, 245.515 241.679, 243.621 243.573, 243.621 243.573, 245.515 245.468, 245.515 245.468, 247.41 243.573, 247.41 243.573, 249.304 241.679, 249.304 241.679, 247.41 239.784, 247.41 239.784, 245.515"/>
<polygon points=" 258.214, 296.374 258.214, 294.479 260.109, 294.479 260.109, 296.374 262.003, 296.374 262.003, 298.268 260.109, 298.268 260.109, 300.163 258.214, 300.163 258.214, 298.268 256.32, 298.268 256.32, 296.374"/>
<polygon points=" 274.75, 313.327 274.75, 311.432 276.644, 311.432 276.644, 313.327 278.539, 313.327 278.539, 315.221 276.644, 315.221 276.644, 317.116 274.75, 317.116 274.75, 315.221 272.855, 315.221 272.855, 313.327"/>
<polygon points=" 307.82, 352.883 307.82, 350.989 309.715, 350.989 309.715, 352.883 311.609, 352.883 311.609, 354.778 309.715, 354.778 309.715, 356.672 307.82, 356.672 307.82, 354.778 305.926, 354.778 305.926, 352.883"/>
</g>
<path d="M93.8071,353.83l 16.5354, -22.6038l 16.5354, -11.3019l 16.5354, -90.415l 16.5354, -23.7339l 16.5354, -49.7283l 16.5354, -22.6038l 16.5354, 11.3019l 16.5354, 50.8584l 16.5354, 96.066l 16.5354, -11.3019l 16.5354, 56.5094" fill="none"
 stroke="#ff0033"/>
<g stroke="#ff0033" stroke-width="1" fill="none">
<polygon points=" 92.8598, 352.883 92.8598, 350.989 94.7543, 350.989 94.7543, 352.883 96.6488, 352.883 96.6488, 354.778 94.7543, 354.778 94.7543, 356.672 92.8598, 356.672 92.8598, 354.778 90.9653, 354.778 90.9653, 352.883"/>
<polygon points=" 109.395, 330.279 109.395, 328.385 111.29, 328.385 111.29, 330.279 113.184, 330.279 113.184, 332.174 111.29, 332.174 111.29, 334.068 109.395, 334.068 109.395, 332.174 107.501, 332.174 107.501, 330.279"/>
<polygon points=" 125.931, 318.978 125.931, 317.083 127.825, 317.083 127.825, 318.978 129.72, 318.978 129.72, 320.872 127.825, 320.872 127.825, 322.767 125.931, 322.767 125.931, 320.872 124.036, 320.872 124.036, 318.978"/>
<polygon points=" 142.466, 228.563 142.466, 226.668 144.361, 226.668 144.361, 228.563 146.255, 228.563 146.255, 230.457 144.361, 230.457 144.361, 232.352 142.466, 232.352 142.466, 230.457 140.572, 230.457 140.572, 228.563"/>
<polygon points=" 159.002, 204.829 159.002, 202.934 160.896, 202.934 160.896, 204.829 162.791, 204.829 162.791, 206.723 160.896, 206.723 160.896, 208.618 159.002, 208.618 159.002, 206.723 157.107, 206.723 157.107, 204.829"/>
<polygon points=" 175.537, 155.1 175.537, 153.206 177.432, 153.206 177.432, 155.1 179.326, 155.1 179.326, 156.995 177.432, 156.995 177.432, 158.889 175.537, 158.889 175.537, 156.995 173.643, 156.995 173.643, 155.1"/>
<polygon points=" 192.072, 132.497 192.072, 130.602 193.967, 130.602 193.967, 132.497 195.861, 132.497 195.861, 134.391 193.967, 134.391 193.967, 136.286 192.072, 136.286 192.072, 134.391 190.178, 134.391 190.178, 132.497"/>
<polygon points=" 208.608, 143.798 208.608, 141.904 210.502, 141.904 210.502, 143.798 212.397, 143.798 212.397, 145.693 210.502, 145.693 210.502, 147.587 208.608, 147.587 208.608, 145.693 206.713, 145.693 206.713, 143.798"/>
<polygon points=" 225.143, 194.657 225.143, 192.762 227.038, 192.762 227.038, 194.657 228.932, 194.657 228.932, 196.551 227.038, 196.551 227.038, 198.446 225.143, 198.446 225.143, 196.551 223.249, 196.551 223.249, 194.657"/>
<polygon points=" 241.679, 290.723 241.679, 288.828 243.573, 288.828 243.573, 290.723 245.468, 290.723 245.468, 292.617 243.573, 292.617 243.573, 294.512 241.679, 294.512 241.679, 292.617 239.784, 292.617 239.784, 290.723"/>
<polygon points=" 258.214, 279.421 258.214, 277.526 260.109, 277.526 260.109, 279.421 262.003, 279.421 262.003, 281.315 260.109, 281.315 260.109, 283.21 258.214, 283.21 258.214, 281.315 256.32, 281.315 256.32, 279.421"/>
<polygon points=" 274.75, 335.93 274.75, 334.036 276.644, 334.036 276.644, 335.93 278.539, 335.93 278.539, 337.825 276.644, 337.825 276.644, 339.719 274.75, 339.719 274.75, 337.825 272.855, 337.825 272.855, 335.93"/>
</g>
<path d="M93.8071,342.529l 16.5354, -39.5566l 16.5354, -67.8113l 16.5354, -50.8584l 16.5354, -118.67l 16.5354, 11.3019l 16.5354, 135.623l 16.5354, -16.9528l 16.5354, 50.8584l 16.5354, 84.7641l 16.5354, 16.9528l 16.5354, 5.65094h 16.5354" fill="none"
 stroke="#ff00ff"/>
<g fill="#ff00ff">
<polygon points=" 93.8071, 343.949 92.3862, 345.37 90.9653, 343.949 92.3862, 342.529 90.9653, 341.108 92.3862, 339.687 93.8071, 341.108 95.228, 339.687 96.6488, 341.108 95.228, 342.529 96.6488, 343.949 95.228, 345.37 93.8071, 343.949"/>
<polygon points=" 110.343, 304.393 108.922, 305.814 107.501, 304.393 108.922, 302.972 107.501, 301.551 108.922, 300.13 110.343, 301.551 111.763, 300.13 113.184, 301.551 111.763, 302.972 113.184, 304.393 111.763, 305.814 110.343, 304.393"/>
<polygon points=" 126.878, 236.582 125.457, 238.002 124.036, 236.582 125.457, 235.161 124.036, 233.74 125.457, 232.319 126.878, 233.74 128.299, 232.319 129.72, 233.74 128.299, 235.161 129.72, 236.582 128.299, 238.002 126.878, 236.582"/>
<polygon points=" 143.413, 185.723 141.993, 187.144 140.572, 185.723 141.993, 184.302 140.572, 182.881 141.993, 181.461 143.413, 182.881 144.834, 181.461 146.255, 182.881 144.834, 184.302 146.255, 185.723 144.834, 187.144 143.413, 185.723"/>
<polygon points=" 159.949, 67.0535 158.528, 68.4743 157.107, 67.0535 158.528, 65.6326 157.107, 64.2117 158.528, 62.7908 159.949, 64.2117 161.37, 62.7908 162.791, 64.2117 161.37, 65.6326 162.791, 67.0535 161.37, 68.4743 159.949, 67.0535"/>
<polygon points=" 176.484, 78.3553 175.063, 79.7762 173.643, 78.3553 175.063, 76.9345 173.643, 75.5136 175.063, 74.0927 176.484, 75.5136 177.905, 74.0927 179.326, 75.5136 177.905, 76.9345 179.326, 78.3553 177.905, 79.7762 176.484, 78.3553"/>
<polygon points=" 193.02, 213.978 191.599, 215.399 190.178, 213.978 191.599, 212.557 190.178, 211.136 191.599, 209.715 193.02, 211.136 194.441, 209.715 195.861, 211.136 194.441, 212.557 195.861, 213.978 194.441, 215.399 193.02, 213.978"/>
<polygon points=" 209.555, 197.025 208.134, 198.446 206.713, 197.025 208.134, 195.604 206.713, 194.183 208.134, 192.762 209.555, 194.183 210.976, 192.762 212.397, 194.183 210.976, 195.604 212.397, 197.025 210.976, 198.446 209.555, 197.025"/>
<polygon points=" 226.091, 247.883 224.67, 249.304 223.249, 247.883 224.67, 246.463 223.249, 245.042 224.67, 243.621 226.091, 245.042 227.511, 243.621 228.932, 245.042 227.511, 246.463 228.932, 247.883 227.511, 249.304 226.091, 247.883"/>
<polygon points=" 242.626, 332.648 241.205, 334.068 239.784, 332.648 241.205, 331.227 239.784, 329.806 241.205, 328.385 242.626, 329.806 244.047, 328.385 245.468, 329.806 244.047, 331.227 245.468, 332.648 244.047, 334.068 242.626, 332.648"/>
<polygon points=" 259.161, 349.6 257.741, 351.021 256.32, 349.6 257.741, 348.18 256.32, 346.759 257.741, 345.338 259.161, 346.759 260.582, 345.338 262.003, 346.759 260.582, 348.18 262.003, 349.6 260.582, 351.021 259.161, 349.6"/>
<polygon points=" 275.697, 355.251 274.276, 356.672 272.855, 355.251 274.276, 353.83 272.855, 352.41 274.276, 350.989 275.697, 352.41 277.118, 350.989 278.539, 352.41 277.118, 353.83 278.539, 355.251 277.118, 356.672 275.697, 355.251"/>
<polygon points=" 292.232, 355.251 290.811, 356.672 289.391, 355.251 290.811, 353.83 289.391, 352.41 290.811, 350.989 292.232, 352.41 293.653, 350.989 295.074, 352.41 293.653, 353.83 295.074, 355.251 293.653, 356.672 292.232, 355.251"/>
</g>
<path d="M93.8071,291.67l 16.5354, -56.5094l 16.5354, -39.5566l 16.5354, 11.3019l 16.5354, -73.4622l 16.5354, 73.4622l 16.5354, 28.2547l 16.5354, 39.5566l 16.5354, 45.2075l 16.5354, 32.7754" fill="none" stroke="#cc00ff"/>
<g stroke="#cc00ff" stroke-width="1" fill="none">
<polygon points=" 92.8598, 290.723 92.8598, 288.828 94.7543, 288.828 94.7543, 290.723 96.6488, 290.723 96.6488, 292.617 94.7543, 292.617 94.7543, 294.512 92.8598, 294.512 92.8598, 292.617 90.9653, 292.617 90.9653, 290.723"/>
<polygon points=" 109.395, 234.213 109.395, 232.319 111.29, 232.319 111.29, 234.213 113.184, 234.213 113.184, 236.108 111.29, 236.108 111.29, 238.002 109.395, 238.002 109.395, 236.108 107.501, 236.108 107.501, 234.213"/>
<polygon points=" 125.931, 194.657 125.931, 192.762 127.825, 192.762 127.825, 194.657 129.72, 194.657 129.72, 196.551 127.825, 196.551 127.825, 198.446 125.931, 198.446 125.931, 196.551 124.036, 196.551 124.036, 194.657"/>
<polygon points=" 142.466, 205.959 142.466, 204.064 144.361, 204.064 144.361, 205.959 146.255, 205.959 146.255, 207.853 144.361, 207.853 144.361, 209.748 142.466, 209.748 142.466, 207.853 140.572, 207.853 140.572, 205.959"/>
<polygon points=" 159.002, 132.497 159.002, 130.602 160.896, 130.602 160.896, 132.497 162.791, 132.497 162.791, 134.391 160.896, 134.391 160.896, 136.286 159.002, 136.286 159.002, 134.391 157.107, 134.391 157.107, 132.497"/>
<polygon points=" 175.537, 205.959 175.537, 204.064 177.432, 204.064 177.432, 205.959 179.326, 205.959 179.326, 207.853 177.432, 207.853 177.432, 209.748 175.537, 209.748 175.537, 207.853 173.643, 207.853 173.643, 205.959"/>
<polygon points=" 192.072, 234.213 192.072, 232.319 193.967, 232.319 193.967, 234.213 195.861, 234.213 195.861, 236.108 193.967, 236.108 193.967, 238.002 192.072, 238.002 192.072, 236.108 190.178, 236.108 190.178, 234.213"/>
<polygon points=" 208.608, 273.77 208.608, 271.876 210.502, 271.876 210.502, 273.77 212.397, 273.77 212.397, 275.665 210.502, 275.665 210.502, 277.559 208.608, 277.559 208.608, 275.665 206.713, 275.665 206.713, 273.77"/>
<polygon points=" 225.143, 318.978 225.143, 317.083 227.038, 317.083 227.038, 318.978 228.932, 318.978 228.932, 320.872 227.038, 320.872 227.038, 322.767 225.143, 322.767 225.143, 320.872 223.249, 320.872 223.249, 318.978"/>
<polygon points=" 241.679, 351.753 241.679, 349.859 243.573, 349.859 243.573, 351.753 245.468, 351.753 245.468, 353.648 243.573, 353.648 243.573, 355.542 241.679, 355.542 241.679, 353.648 239.784, 353.648 239.784, 351.753"/>
</g>
<text xml:space="preserve" x="272.598" y="51.8619" fill="black" font-size="11.7432" font-family="Helvetica">PYTHIA8</text>
<text xml:space="preserve" x="272.598" y="66.7811" fill="black" font-size="11.7432" font-family="Helvetica">pAu200GeV, option3</text>
<text xml:space="preserve" x="413.264" y="82.4108" fill="black" font-size="11.7432" font-family="Helvetica">|&lt;1</text>
<text xml:space="preserve" x="406.87" y="82.4108" fill="black" font-size="11.7432" font-family="Times">&#0951;</text>
<text xml:space="preserve" x="344.352" y="82.4108" fill="black" font-size="11.7432" font-family="Helvetica"> &gt; 7 GeV in |</text>
<text xml:space="preserve" x="340.089" y="78.1481" fill="black" font-size="7.99544" font-family="Helvetica">0</text>
<text xml:space="preserve" x="333.695" y="82.4108" fill="black" font-size="11.7432" font-family="Times">&#0960;</text>
<text xml:space="preserve" x="272.598" y="82.4108" fill="black" font-size="11.7432" font-family="Helvetica">Events with </text>
<text xml:space="preserve" x="323.039" y="97.3299" fill="black" font-size="11.7432" font-family="Helvetica">centrality: 0~10%</text>
<g fill="#ffcc00">
<polygon points=" 294.356, 93.5187 294.356, 91.6242 296.25, 91.6242 296.25, 93.5187 298.145, 93.5187 298.145, 95.4132 296.25, 95.4132 296.25, 97.3077 294.356, 97.3077 294.356, 95.4132 292.461, 95.4132 292.461, 93.5187"/>
</g>
<text xml:space="preserve" x="323.039" y="112.96" fill="black" font-size="11.7432" font-family="Helvetica">centrality: 10~20%</text>
<g fill="#ff0000">
<polygon points=" 294.356, 108.838 294.356, 106.943 296.25, 106.943 296.25, 108.838 298.145, 108.838 298.145, 110.732 296.25, 110.732 296.25, 112.627 294.356, 112.627 294.356, 110.732 292.461, 110.732 292.461, 108.838"/>
</g>
<text xml:space="preserve" x="323.039" y="127.879" fill="black" font-size="11.7432" font-family="Helvetica">centrality: 20~40%</text>
<g stroke="#ff0033" stroke-width="1" fill="none">
<polygon points=" 294.356, 124.156 294.356, 122.262 296.25, 122.262 296.25, 124.156 298.145, 124.156 298.145, 126.051 296.25, 126.051 296.25, 127.945 294.356, 127.945 294.356, 126.051 292.461, 126.051 292.461, 124.156"/>
</g>
<text xml:space="preserve" x="323.039" y="143.508" fill="black" font-size="11.7432" font-family="Helvetica">centrality: 40~60%</text>
<g fill="#ff00ff">
<polygon points=" 295.303, 141.843 293.882, 143.264 292.461, 141.843 293.882, 140.422 292.461, 139.002 293.882, 137.581 295.303, 139.002 296.724, 137.581 298.145, 139.002 296.724, 140.422 298.145, 141.843 296.724, 143.264 295.303, 141.843"/>
</g>
<text xml:space="preserve" x="323.039" y="159.138" fill="black" font-size="11.7432" font-family="Helvetica">centrality: 60~80%</text>
<g stroke="#cc00ff" stroke-width="1" fill="none">
<polygon points=" 294.356, 154.794 294.356, 152.899 296.25, 152.899 296.25, 154.794 298.145, 154.794 298.145, 156.688 296.25, 156.688 296.25, 158.583 294.356, 158.583 294.356, 156.688 292.461, 156.688 292.461, 154.794"/>
</g></svg>
