<?xml version="1.0" standalone="no"?>
<svg width="567.429" height="312.341" viewBox="0 0 567.429 312.341" xmlns="http://www.w3.org/2000/svg" shape-rendering="crispEdges">
<title>
/Users/jinhyunpark/npl/gitHub/xloadFromServer/Git_Bias_correction_RxA/plots_dirAdded/yieldBypT_pion0_logscale.svg
</title>
<desc>
Creator: ROOT Version 6.28/04
CreationDate: Thu Aug 31 13:48:26 2023</desc>
<defs>
</defs>
<rect x="0.5" y="0" width="566.929" height="311.841" fill="white"/>
<rect x="85.5394" y="15.592" width="396.85" height="258.828" fill="white"/>
<rect x="85.5394" y="15.592" width="396.85" height="258.828" fill="none" stroke="black"/>
<rect x="85.5394" y="15.592" width="396.85" height="258.828" fill="white"/>
<rect x="85.5394" y="15.592" width="396.85" height="258.828" fill="none" stroke="black"/>
<path d="M85.5394,274.42h 396.85" fill="none" stroke="black"/>
<path d="M85.5394,267.871v 6.54865" fill="none" stroke="black"/>
<path d="M99.7126,271.145v 3.27433" fill="none" stroke="black"/>
<path d="M113.886,271.145v 3.27433" fill="none" stroke="black"/>
<path d="M128.059,271.145v 3.27433" fill="none" stroke="black"/>
<path d="M142.232,267.871v 6.54865" fill="none" stroke="black"/>
<path d="M156.406,271.145v 3.27433" fill="none" stroke="black"/>
<path d="M170.579,271.145v 3.27433" fill="none" stroke="black"/>
<path d="M184.752,271.145v 3.27433" fill="none" stroke="black"/>
<path d="M198.925,267.871v 6.54865" fill="none" stroke="black"/>
<path d="M213.098,271.145v 3.27433" fill="none" stroke="black"/>
<path d="M227.272,271.145v 3.27433" fill="none" stroke="black"/>
<path d="M241.445,271.145v 3.27433" fill="none" stroke="black"/>
<path d="M255.618,267.871v 6.54865" fill="none" stroke="black"/>
<path d="M269.791,271.145v 3.27433" fill="none" stroke="black"/>
<path d="M283.965,271.145v 3.27433" fill="none" stroke="black"/>
<path d="M298.138,271.145v 3.27433" fill="none" stroke="black"/>
<path d="M312.311,267.871v 6.54865" fill="none" stroke="black"/>
<path d="M326.484,271.145v 3.27433" fill="none" stroke="black"/>
<path d="M340.657,271.145v 3.27433" fill="none" stroke="black"/>
<path d="M354.831,271.145v 3.27433" fill="none" stroke="black"/>
<path d="M369.004,267.871v 6.54865" fill="none" stroke="black"/>
<path d="M383.177,271.145v 3.27433" fill="none" stroke="black"/>
<path d="M397.35,271.145v 3.27433" fill="none" stroke="black"/>
<path d="M411.524,271.145v 3.27433" fill="none" stroke="black"/>
<path d="M425.697,267.871v 6.54865" fill="none" stroke="black"/>
<path d="M439.87,271.145v 3.27433" fill="none" stroke="black"/>
<path d="M454.043,271.145v 3.27433" fill="none" stroke="black"/>
<path d="M468.217,271.145v 3.27433" fill="none" stroke="black"/>
<path d="M482.39,267.871v 6.54865" fill="none" stroke="black"/>
<text xml:space="preserve" x="82.6722" y="284.647" fill="black" font-size="10.5132" font-family="Helvetica">0</text>
<text xml:space="preserve" x="139.424" y="284.647" fill="black" font-size="10.5132" font-family="Helvetica">2</text>
<text xml:space="preserve" x="196.176" y="284.647" fill="black" font-size="10.5132" font-family="Helvetica">4</text>
<text xml:space="preserve" x="252.928" y="284.647" fill="black" font-size="10.5132" font-family="Helvetica">6</text>
<text xml:space="preserve" x="309.385" y="284.647" fill="black" font-size="10.5132" font-family="Helvetica">8</text>
<text xml:space="preserve" x="363.181" y="284.647" fill="black" font-size="10.5132" font-family="Helvetica">10</text>
<text xml:space="preserve" x="419.933" y="284.647" fill="black" font-size="10.5132" font-family="Helvetica">12</text>
<text xml:space="preserve" x="476.685" y="284.647" fill="black" font-size="10.5132" font-family="Helvetica">14</text>
<text xml:space="preserve" x="478.163" y="297.357" fill="black" font-size="7.17549" font-family="Helvetica">T</text>
<text xml:space="preserve" x="472.842" y="292.036" fill="black" font-size="10.5132" font-family="Helvetica">p</text>
<path d="M85.5394,15.592h 396.85" fill="none" stroke="black"/>
<path d="M85.5394,22.1407v -6.54865" fill="none" stroke="black"/>
<path d="M99.7126,18.8664v -3.27433" fill="none" stroke="black"/>
<path d="M113.886,18.8664v -3.27433" fill="none" stroke="black"/>
<path d="M128.059,18.8664v -3.27433" fill="none" stroke="black"/>
<path d="M142.232,22.1407v -6.54865" fill="none" stroke="black"/>
<path d="M156.406,18.8664v -3.27433" fill="none" stroke="black"/>
<path d="M170.579,18.8664v -3.27433" fill="none" stroke="black"/>
<path d="M184.752,18.8664v -3.27433" fill="none" stroke="black"/>
<path d="M198.925,22.1407v -6.54865" fill="none" stroke="black"/>
<path d="M213.098,18.8664v -3.27433" fill="none" stroke="black"/>
<path d="M227.272,18.8664v -3.27433" fill="none" stroke="black"/>
<path d="M241.445,18.8664v -3.27433" fill="none" stroke="black"/>
<path d="M255.618,22.1407v -6.54865" fill="none" stroke="black"/>
<path d="M269.791,18.8664v -3.27433" fill="none" stroke="black"/>
<path d="M283.965,18.8664v -3.27433" fill="none" stroke="black"/>
<path d="M298.138,18.8664v -3.27433" fill="none" stroke="black"/>
<path d="M312.311,22.1407v -6.54865" fill="none" stroke="black"/>
<path d="M326.484,18.8664v -3.27433" fill="none" stroke="black"/>
<path d="M340.657,18.8664v -3.27433" fill="none" stroke="black"/>
<path d="M354.831,18.8664v -3.27433" fill="none" stroke="black"/>
<path d="M369.004,22.1407v -6.54865" fill="none" stroke="black"/>
<path d="M383.177,18.8664v -3.27433" fill="none" stroke="black"/>
<path d="M397.35,18.8664v -3.27433" fill="none" stroke="black"/>
<path d="M411.524,18.8664v -3.27433" fill="none" stroke="black"/>
<path d="M425.697,22.1407v -6.54865" fill="none" stroke="black"/>
<path d="M439.87,18.8664v -3.27433" fill="none" stroke="black"/>
<path d="M454.043,18.8664v -3.27433" fill="none" stroke="black"/>
<path d="M468.217,18.8664v -3.27433" fill="none" stroke="black"/>
<path d="M482.39,22.1407v -6.54865" fill="none" stroke="black"/>
<path d="M85.5394,274.42v -258.828" fill="none" stroke="black"/>
<path d="M99.6559,274.42h -14.1165" fill="none" stroke="black"/>
<text xml:space="preserve" x="77.3517" y="274.301" fill="black" font-size="7.17549" font-family="Helvetica">9</text>
<text xml:space="preserve" x="73.5091" y="274.301" fill="black" font-size="7.17549" font-family="Times">&#8722;</text>
<text xml:space="preserve" x="62.5725" y="279.031" fill="black" font-size="10.5132" font-family="Helvetica">10</text>
<path d="M92.5976,267.337h -7.05827" fill="none" stroke="black"/>
<path d="M92.5976,263.193h -7.05827" fill="none" stroke="black"/>
<path d="M92.5976,260.253h -7.05827" fill="none" stroke="black"/>
<path d="M92.5976,257.973h -7.05827" fill="none" stroke="black"/>
<path d="M92.5976,256.11h -7.05827" fill="none" stroke="black"/>
<path d="M92.5976,254.535h -7.05827" fill="none" stroke="black"/>
<path d="M92.5976,253.17h -7.05827" fill="none" stroke="black"/>
<path d="M92.5976,251.967h -7.05827" fill="none" stroke="black"/>
<path d="M99.6559,250.89h -14.1165" fill="none" stroke="black"/>
<text xml:space="preserve" x="77.3517" y="250.655" fill="black" font-size="7.17549" font-family="Helvetica">8</text>
<text xml:space="preserve" x="73.5091" y="250.655" fill="black" font-size="7.17549" font-family="Times">&#8722;</text>
<text xml:space="preserve" x="62.5725" y="255.384" fill="black" font-size="10.5132" font-family="Helvetica">10</text>
<path d="M92.5976,243.807h -7.05827" fill="none" stroke="black"/>
<path d="M92.5976,239.663h -7.05827" fill="none" stroke="black"/>
<path d="M92.5976,236.724h -7.05827" fill="none" stroke="black"/>
<path d="M92.5976,234.443h -7.05827" fill="none" stroke="black"/>
<path d="M92.5976,232.58h -7.05827" fill="none" stroke="black"/>
<path d="M92.5976,231.005h -7.05827" fill="none" stroke="black"/>
<path d="M92.5976,229.64h -7.05827" fill="none" stroke="black"/>
<path d="M92.5976,228.437h -7.05827" fill="none" stroke="black"/>
<path d="M99.6559,227.36h -14.1165" fill="none" stroke="black"/>
<text xml:space="preserve" x="77.3517" y="227.599" fill="black" font-size="7.17549" font-family="Helvetica">7</text>
<text xml:space="preserve" x="73.5091" y="227.599" fill="black" font-size="7.17549" font-family="Times">&#8722;</text>
<text xml:space="preserve" x="62.5725" y="232.033" fill="black" font-size="10.5132" font-family="Helvetica">10</text>
<path d="M92.5976,220.277h -7.05827" fill="none" stroke="black"/>
<path d="M92.5976,216.134h -7.05827" fill="none" stroke="black"/>
<path d="M92.5976,213.194h -7.05827" fill="none" stroke="black"/>
<path d="M92.5976,210.913h -7.05827" fill="none" stroke="black"/>
<path d="M92.5976,209.05h -7.05827" fill="none" stroke="black"/>
<path d="M92.5976,207.475h -7.05827" fill="none" stroke="black"/>
<path d="M92.5976,206.111h -7.05827" fill="none" stroke="black"/>
<path d="M92.5976,204.907h -7.05827" fill="none" stroke="black"/>
<path d="M99.6559,203.83h -14.1165" fill="none" stroke="black"/>
<text xml:space="preserve" x="77.3517" y="203.657" fill="black" font-size="7.17549" font-family="Helvetica">6</text>
<text xml:space="preserve" x="73.5091" y="203.657" fill="black" font-size="7.17549" font-family="Times">&#8722;</text>
<text xml:space="preserve" x="62.5725" y="208.386" fill="black" font-size="10.5132" font-family="Helvetica">10</text>
<path d="M92.5976,196.747h -7.05827" fill="none" stroke="black"/>
<path d="M92.5976,192.604h -7.05827" fill="none" stroke="black"/>
<path d="M92.5976,189.664h -7.05827" fill="none" stroke="black"/>
<path d="M92.5976,187.384h -7.05827" fill="none" stroke="black"/>
<path d="M92.5976,185.521h -7.05827" fill="none" stroke="black"/>
<path d="M92.5976,183.945h -7.05827" fill="none" stroke="black"/>
<path d="M92.5976,182.581h -7.05827" fill="none" stroke="black"/>
<path d="M92.5976,181.377h -7.05827" fill="none" stroke="black"/>
<path d="M99.6559,180.301h -14.1165" fill="none" stroke="black"/>
<text xml:space="preserve" x="77.3517" y="180.01" fill="black" font-size="7.17549" font-family="Helvetica">5</text>
<text xml:space="preserve" x="73.5091" y="180.01" fill="black" font-size="7.17549" font-family="Times">&#8722;</text>
<text xml:space="preserve" x="62.5725" y="184.74" fill="black" font-size="10.5132" font-family="Helvetica">10</text>
<path d="M92.5976,173.217h -7.05827" fill="none" stroke="black"/>
<path d="M92.5976,169.074h -7.05827" fill="none" stroke="black"/>
<path d="M92.5976,166.134h -7.05827" fill="none" stroke="black"/>
<path d="M92.5976,163.854h -7.05827" fill="none" stroke="black"/>
<path d="M92.5976,161.991h -7.05827" fill="none" stroke="black"/>
<path d="M92.5976,160.416h -7.05827" fill="none" stroke="black"/>
<path d="M92.5976,159.051h -7.05827" fill="none" stroke="black"/>
<path d="M92.5976,157.847h -7.05827" fill="none" stroke="black"/>
<path d="M99.6559,156.771h -14.1165" fill="none" stroke="black"/>
<text xml:space="preserve" x="77.3517" y="156.955" fill="black" font-size="7.17549" font-family="Helvetica">4</text>
<text xml:space="preserve" x="73.5091" y="156.955" fill="black" font-size="7.17549" font-family="Times">&#8722;</text>
<text xml:space="preserve" x="62.5725" y="161.389" fill="black" font-size="10.5132" font-family="Helvetica">10</text>
<path d="M92.5976,149.688h -7.05827" fill="none" stroke="black"/>
<path d="M92.5976,145.544h -7.05827" fill="none" stroke="black"/>
<path d="M92.5976,142.604h -7.05827" fill="none" stroke="black"/>
<path d="M92.5976,140.324h -7.05827" fill="none" stroke="black"/>
<path d="M92.5976,138.461h -7.05827" fill="none" stroke="black"/>
<path d="M92.5976,136.886h -7.05827" fill="none" stroke="black"/>
<path d="M92.5976,135.521h -7.05827" fill="none" stroke="black"/>
<path d="M92.5976,134.318h -7.05827" fill="none" stroke="black"/>
<path d="M99.6559,133.241h -14.1165" fill="none" stroke="black"/>
<text xml:space="preserve" x="77.3517" y="133.013" fill="black" font-size="7.17549" font-family="Helvetica">3</text>
<text xml:space="preserve" x="73.5091" y="133.013" fill="black" font-size="7.17549" font-family="Times">&#8722;</text>
<text xml:space="preserve" x="62.5725" y="137.742" fill="black" font-size="10.5132" font-family="Helvetica">10</text>
<path d="M92.5976,126.158h -7.05827" fill="none" stroke="black"/>
<path d="M92.5976,122.014h -7.05827" fill="none" stroke="black"/>
<path d="M92.5976,119.075h -7.05827" fill="none" stroke="black"/>
<path d="M92.5976,116.794h -7.05827" fill="none" stroke="black"/>
<path d="M92.5976,114.931h -7.05827" fill="none" stroke="black"/>
<path d="M92.5976,113.356h -7.05827" fill="none" stroke="black"/>
<path d="M92.5976,111.991h -7.05827" fill="none" stroke="black"/>
<path d="M92.5976,110.788h -7.05827" fill="none" stroke="black"/>
<path d="M99.6559,109.711h -14.1165" fill="none" stroke="black"/>
<text xml:space="preserve" x="77.3517" y="109.957" fill="black" font-size="7.17549" font-family="Helvetica">2</text>
<text xml:space="preserve" x="73.5091" y="109.957" fill="black" font-size="7.17549" font-family="Times">&#8722;</text>
<text xml:space="preserve" x="62.5725" y="114.391" fill="black" font-size="10.5132" font-family="Helvetica">10</text>
<path d="M92.5976,102.628h -7.05827" fill="none" stroke="black"/>
<path d="M92.5976,98.4846h -7.05827" fill="none" stroke="black"/>
<path d="M92.5976,95.5448h -7.05827" fill="none" stroke="black"/>
<path d="M92.5976,93.2646h -7.05827" fill="none" stroke="black"/>
<path d="M92.5976,91.4014h -7.05827" fill="none" stroke="black"/>
<path d="M92.5976,89.8262h -7.05827" fill="none" stroke="black"/>
<path d="M92.5976,88.4617h -7.05827" fill="none" stroke="black"/>
<path d="M92.5976,87.258h -7.05827" fill="none" stroke="black"/>
<path d="M99.6559,86.1814h -14.1165" fill="none" stroke="black"/>
<text xml:space="preserve" x="78.534" y="86.3104" fill="black" font-size="7.17549" font-family="Helvetica">1</text>
<text xml:space="preserve" x="74.6915" y="86.3104" fill="black" font-size="7.17549" font-family="Times">&#8722;</text>
<text xml:space="preserve" x="63.7549" y="90.7441" fill="black" font-size="10.5132" font-family="Helvetica">10</text>
<path d="M92.5976,79.0982h -7.05827" fill="none" stroke="black"/>
<path d="M92.5976,74.9548h -7.05827" fill="none" stroke="black"/>
<path d="M92.5976,72.015h -7.05827" fill="none" stroke="black"/>
<path d="M92.5976,69.7348h -7.05827" fill="none" stroke="black"/>
<path d="M92.5976,67.8717h -7.05827" fill="none" stroke="black"/>
<path d="M92.5976,66.2964h -7.05827" fill="none" stroke="black"/>
<path d="M92.5976,64.9319h -7.05827" fill="none" stroke="black"/>
<path d="M92.5976,63.7283h -7.05827" fill="none" stroke="black"/>
<path d="M99.6559,62.6516h -14.1165" fill="none" stroke="black"/>
<text xml:space="preserve" x="77.3517" y="66.2107" fill="black" font-size="10.5132" font-family="Helvetica">1</text>
<path d="M92.5976,55.5684h -7.05827" fill="none" stroke="black"/>
<path d="M92.5976,51.425h -7.05827" fill="none" stroke="black"/>
<path d="M92.5976,48.4853h -7.05827" fill="none" stroke="black"/>
<path d="M92.5976,46.205h -7.05827" fill="none" stroke="black"/>
<path d="M92.5976,44.3419h -7.05827" fill="none" stroke="black"/>
<path d="M92.5976,42.7666h -7.05827" fill="none" stroke="black"/>
<path d="M92.5976,41.4021h -7.05827" fill="none" stroke="black"/>
<path d="M92.5976,40.1985h -7.05827" fill="none" stroke="black"/>
<path d="M99.6559,39.1218h -14.1165" fill="none" stroke="black"/>
<text xml:space="preserve" x="69.9621" y="42.8596" fill="black" font-size="10.5132" font-family="Helvetica">10</text>
<path d="M92.5976,32.0386h -7.05827" fill="none" stroke="black"/>
<path d="M92.5976,27.8953h -7.05827" fill="none" stroke="black"/>
<path d="M92.5976,24.9555h -7.05827" fill="none" stroke="black"/>
<path d="M92.5976,22.6752h -7.05827" fill="none" stroke="black"/>
<path d="M92.5976,20.8121h -7.05827" fill="none" stroke="black"/>
<path d="M92.5976,19.2368h -7.05827" fill="none" stroke="black"/>
<path d="M92.5976,17.8723h -7.05827" fill="none" stroke="black"/>
<path d="M92.5976,16.6687h -7.05827" fill="none" stroke="black"/>
<path d="M99.6559,15.592h -14.1165" fill="none" stroke="black"/>
<text xml:space="preserve" x="77.3517" y="15.6659" fill="black" font-size="7.17549" font-family="Helvetica">2</text>
<text xml:space="preserve" x="66.4151" y="20.0997" fill="black" font-size="10.5132" font-family="Helvetica">10</text>
<g transform="rotate(-90,55.1829,19.5085)">
<text xml:space="preserve" x="55.1829" y="19.5085" fill="black" font-size="7.17549" font-family="Helvetica">T</text>
</g>
<g transform="rotate(-90,49.8624,33.6965)">
<text xml:space="preserve" x="49.8624" y="33.6965" fill="black" font-size="10.5132" font-family="Helvetica">/dp</text>
</g>
<g transform="rotate(-90,42.7684,36.0612)">
<text xml:space="preserve" x="42.7684" y="36.0612" fill="black" font-size="4.95032" font-family="Helvetica">0</text>
</g>
<g transform="rotate(-90,45.1331,39.9038)">
<text xml:space="preserve" x="45.1331" y="39.9038" fill="black" font-size="7.17549" font-family="Times">&#0960;</text>
</g>
<g transform="rotate(-90,49.8624,54.9785)">
<text xml:space="preserve" x="49.8624" y="54.9785" fill="black" font-size="10.5132" font-family="Helvetica"> dN</text>
</g>
<g transform="rotate(-90,53.1139,71.5312)">
<text xml:space="preserve" x="53.1139" y="71.5312" fill="black" font-size="7.17549" font-family="Helvetica">event</text>
</g>
<g transform="rotate(-90,49.8624,86.606)">
<text xml:space="preserve" x="49.8624" y="86.606" fill="black" font-size="10.5132" font-family="Helvetica">1/N</text>
</g>
<path d="M482.39,274.42v -258.828" fill="none" stroke="black"/>
<path d="M468.273,274.42h 14.1165" fill="none" stroke="black"/>
<path d="M475.332,267.337h 7.05827" fill="none" stroke="black"/>
<path d="M475.332,263.193h 7.05827" fill="none" stroke="black"/>
<path d="M475.332,260.253h 7.05827" fill="none" stroke="black"/>
<path d="M475.332,257.973h 7.05827" fill="none" stroke="black"/>
<path d="M475.332,256.11h 7.05827" fill="none" stroke="black"/>
<path d="M475.332,254.535h 7.05827" fill="none" stroke="black"/>
<path d="M475.332,253.17h 7.05827" fill="none" stroke="black"/>
<path d="M475.332,251.967h 7.05827" fill="none" stroke="black"/>
<path d="M468.273,250.89h 14.1165" fill="none" stroke="black"/>
<path d="M475.332,243.807h 7.05827" fill="none" stroke="black"/>
<path d="M475.332,239.663h 7.05827" fill="none" stroke="black"/>
<path d="M475.332,236.724h 7.05827" fill="none" stroke="black"/>
<path d="M475.332,234.443h 7.05827" fill="none" stroke="black"/>
<path d="M475.332,232.58h 7.05827" fill="none" stroke="black"/>
<path d="M475.332,231.005h 7.05827" fill="none" stroke="black"/>
<path d="M475.332,229.64h 7.05827" fill="none" stroke="black"/>
<path d="M475.332,228.437h 7.05827" fill="none" stroke="black"/>
<path d="M468.273,227.36h 14.1165" fill="none" stroke="black"/>
<path d="M475.332,220.277h 7.05827" fill="none" stroke="black"/>
<path d="M475.332,216.134h 7.05827" fill="none" stroke="black"/>
<path d="M475.332,213.194h 7.05827" fill="none" stroke="black"/>
<path d="M475.332,210.913h 7.05827" fill="none" stroke="black"/>
<path d="M475.332,209.05h 7.05827" fill="none" stroke="black"/>
<path d="M475.332,207.475h 7.05827" fill="none" stroke="black"/>
<path d="M475.332,206.111h 7.05827" fill="none" stroke="black"/>
<path d="M475.332,204.907h 7.05827" fill="none" stroke="black"/>
<path d="M468.273,203.83h 14.1165" fill="none" stroke="black"/>
<path d="M475.332,196.747h 7.05827" fill="none" stroke="black"/>
<path d="M475.332,192.604h 7.05827" fill="none" stroke="black"/>
<path d="M475.332,189.664h 7.05827" fill="none" stroke="black"/>
<path d="M475.332,187.384h 7.05827" fill="none" stroke="black"/>
<path d="M475.332,185.521h 7.05827" fill="none" stroke="black"/>
<path d="M475.332,183.945h 7.05827" fill="none" stroke="black"/>
<path d="M475.332,182.581h 7.05827" fill="none" stroke="black"/>
<path d="M475.332,181.377h 7.05827" fill="none" stroke="black"/>
<path d="M468.273,180.301h 14.1165" fill="none" stroke="black"/>
<path d="M475.332,173.217h 7.05827" fill="none" stroke="black"/>
<path d="M475.332,169.074h 7.05827" fill="none" stroke="black"/>
<path d="M475.332,166.134h 7.05827" fill="none" stroke="black"/>
<path d="M475.332,163.854h 7.05827" fill="none" stroke="black"/>
<path d="M475.332,161.991h 7.05827" fill="none" stroke="black"/>
<path d="M475.332,160.416h 7.05827" fill="none" stroke="black"/>
<path d="M475.332,159.051h 7.05827" fill="none" stroke="black"/>
<path d="M475.332,157.847h 7.05827" fill="none" stroke="black"/>
<path d="M468.273,156.771h 14.1165" fill="none" stroke="black"/>
<path d="M475.332,149.688h 7.05827" fill="none" stroke="black"/>
<path d="M475.332,145.544h 7.05827" fill="none" stroke="black"/>
<path d="M475.332,142.604h 7.05827" fill="none" stroke="black"/>
<path d="M475.332,140.324h 7.05827" fill="none" stroke="black"/>
<path d="M475.332,138.461h 7.05827" fill="none" stroke="black"/>
<path d="M475.332,136.886h 7.05827" fill="none" stroke="black"/>
<path d="M475.332,135.521h 7.05827" fill="none" stroke="black"/>
<path d="M475.332,134.318h 7.05827" fill="none" stroke="black"/>
<path d="M468.273,133.241h 14.1165" fill="none" stroke="black"/>
<path d="M475.332,126.158h 7.05827" fill="none" stroke="black"/>
<path d="M475.332,122.014h 7.05827" fill="none" stroke="black"/>
<path d="M475.332,119.075h 7.05827" fill="none" stroke="black"/>
<path d="M475.332,116.794h 7.05827" fill="none" stroke="black"/>
<path d="M475.332,114.931h 7.05827" fill="none" stroke="black"/>
<path d="M475.332,113.356h 7.05827" fill="none" stroke="black"/>
<path d="M475.332,111.991h 7.05827" fill="none" stroke="black"/>
<path d="M475.332,110.788h 7.05827" fill="none" stroke="black"/>
<path d="M468.273,109.711h 14.1165" fill="none" stroke="black"/>
<path d="M475.332,102.628h 7.05827" fill="none" stroke="black"/>
<path d="M475.332,98.4846h 7.05827" fill="none" stroke="black"/>
<path d="M475.332,95.5448h 7.05827" fill="none" stroke="black"/>
<path d="M475.332,93.2646h 7.05827" fill="none" stroke="black"/>
<path d="M475.332,91.4014h 7.05827" fill="none" stroke="black"/>
<path d="M475.332,89.8262h 7.05827" fill="none" stroke="black"/>
<path d="M475.332,88.4617h 7.05827" fill="none" stroke="black"/>
<path d="M475.332,87.258h 7.05827" fill="none" stroke="black"/>
<path d="M468.273,86.1814h 14.1165" fill="none" stroke="black"/>
<path d="M475.332,79.0982h 7.05827" fill="none" stroke="black"/>
<path d="M475.332,74.9548h 7.05827" fill="none" stroke="black"/>
<path d="M475.332,72.015h 7.05827" fill="none" stroke="black"/>
<path d="M475.332,69.7348h 7.05827" fill="none" stroke="black"/>
<path d="M475.332,67.8717h 7.05827" fill="none" stroke="black"/>
<path d="M475.332,66.2964h 7.05827" fill="none" stroke="black"/>
<path d="M475.332,64.9319h 7.05827" fill="none" stroke="black"/>
<path d="M475.332,63.7283h 7.05827" fill="none" stroke="black"/>
<path d="M468.273,62.6516h 14.1165" fill="none" stroke="black"/>
<path d="M475.332,55.5684h 7.05827" fill="none" stroke="black"/>
<path d="M475.332,51.425h 7.05827" fill="none" stroke="black"/>
<path d="M475.332,48.4853h 7.05827" fill="none" stroke="black"/>
<path d="M475.332,46.205h 7.05827" fill="none" stroke="black"/>
<path d="M475.332,44.3419h 7.05827" fill="none" stroke="black"/>
<path d="M475.332,42.7666h 7.05827" fill="none" stroke="black"/>
<path d="M475.332,41.4021h 7.05827" fill="none" stroke="black"/>
<path d="M475.332,40.1985h 7.05827" fill="none" stroke="black"/>
<path d="M468.273,39.1218h 14.1165" fill="none" stroke="black"/>
<path d="M475.332,32.0386h 7.05827" fill="none" stroke="black"/>
<path d="M475.332,27.8953h 7.05827" fill="none" stroke="black"/>
<path d="M475.332,24.9555h 7.05827" fill="none" stroke="black"/>
<path d="M475.332,22.6752h 7.05827" fill="none" stroke="black"/>
<path d="M475.332,20.8121h 7.05827" fill="none" stroke="black"/>
<path d="M475.332,19.2368h 7.05827" fill="none" stroke="black"/>
<path d="M475.332,17.8723h 7.05827" fill="none" stroke="black"/>
<path d="M475.332,16.6687h 7.05827" fill="none" stroke="black"/>
<path d="M468.273,15.592h 14.1165" fill="none" stroke="black"/>
<path d="M85.5394,34.9789h 5.90428" fill="none" stroke="black"/>
<path d="M93.8083,34.9789h 5.90428" fill="none" stroke="black"/>
<g fill="black">
<circle cx="92.626" cy="34.9789" r="1.18233"/>
</g>
<path d="M99.7126,45.9617h 5.90428" fill="none" stroke="black"/>
<path d="M107.982,45.9617h 5.90428" fill="none" stroke="black"/>
<g fill="black">
<circle cx="106.799" cy="45.9617" r="1.18233"/>
</g>
<path d="M113.886,66.2637h 5.90428" fill="none" stroke="black"/>
<path d="M122.155,66.2637h 5.90428" fill="none" stroke="black"/>
<g fill="black">
<circle cx="120.972" cy="66.2637" r="1.18233"/>
</g>
<path d="M128.059,83.4036h 5.90428" fill="none" stroke="black"/>
<path d="M136.328,83.4036h 5.90428" fill="none" stroke="black"/>
<g fill="black">
<circle cx="135.146" cy="83.4036" r="1.18233"/>
</g>
<path d="M142.232,102.093h 12.9909" fill="none" stroke="black"/>
<path d="M157.588,102.093h 12.9909" fill="none" stroke="black"/>
<g fill="black">
<circle cx="156.406" cy="102.093" r="1.18233"/>
</g>
<path d="M170.579,124.827h 12.9909" fill="none" stroke="black"/>
<path d="M185.934,124.827h 12.9909" fill="none" stroke="black"/>
<g fill="black">
<circle cx="184.752" cy="124.827" r="1.18233"/>
</g>
<path d="M198.925,143.475h 12.9909" fill="none" stroke="black"/>
<path d="M214.281,143.475h 12.9909" fill="none" stroke="black"/>
<g fill="black">
<circle cx="213.098" cy="143.475" r="1.18233"/>
</g>
<path d="M227.272,163.883h 27.1641" fill="none" stroke="black"/>
<path d="M256.8,163.883h 27.1641" fill="none" stroke="black"/>
<g fill="black">
<circle cx="255.618" cy="163.883" r="1.18233"/>
</g>
<path d="M326.484,191.783v -0.740209" fill="none" stroke="black"/>
<path d="M326.484,188.678v -0.435145" fill="none" stroke="black"/>
<path d="M283.965,189.86h 41.3374" fill="none" stroke="black"/>
<path d="M327.667,189.86h 41.3374" fill="none" stroke="black"/>
<g fill="black">
<circle cx="326.484" cy="189.86" r="1.18233"/>
</g>
<path d="M439.87,274.42v -42.1216" fill="none" stroke="black"/>
<path d="M439.87,229.933v -5.90084" fill="none" stroke="black"/>
<path d="M369.004,231.116h 69.6838" fill="none" stroke="black"/>
<path d="M441.052,231.116h 41.3374" fill="none" stroke="black"/>
<g fill="black">
<circle cx="439.87" cy="231.116" r="1.18233"/>
</g>
<path d="M85.5394,36.5022h 5.90428" fill="none" stroke="#ff0000"/>
<path d="M93.8083,36.5022h 5.90428" fill="none" stroke="#ff0000"/>
<g fill="#ff0000">
<rect x="91.4436" y="35.3199" width="2.36467" height="2.36467"/>
</g>
<path d="M99.7126,47.4129h 5.90428" fill="none" stroke="#ff0000"/>
<path d="M107.982,47.4129h 5.90428" fill="none" stroke="#ff0000"/>
<g fill="#ff0000">
<rect x="105.617" y="46.2306" width="2.36467" height="2.36467"/>
</g>
<path d="M113.886,67.5448h 5.90428" fill="none" stroke="#ff0000"/>
<path d="M122.155,67.5448h 5.90428" fill="none" stroke="#ff0000"/>
<g fill="#ff0000">
<rect x="119.79" y="66.3624" width="2.36467" height="2.36467"/>
</g>
<path d="M128.059,84.5486h 5.90428" fill="none" stroke="#ff0000"/>
<path d="M136.328,84.5486h 5.90428" fill="none" stroke="#ff0000"/>
<g fill="#ff0000">
<rect x="133.963" y="83.3662" width="2.36467" height="2.36467"/>
</g>
<path d="M142.232,103.131h 12.9909" fill="none" stroke="#ff0000"/>
<path d="M157.588,103.131h 12.9909" fill="none" stroke="#ff0000"/>
<g fill="#ff0000">
<rect x="155.223" y="101.949" width="2.36467" height="2.36467"/>
</g>
<path d="M170.579,126.006h 12.9909" fill="none" stroke="#ff0000"/>
<path d="M185.934,126.006h 12.9909" fill="none" stroke="#ff0000"/>
<g fill="#ff0000">
<rect x="183.57" y="124.823" width="2.36467" height="2.36467"/>
</g>
<path d="M198.925,143.848h 12.9909" fill="none" stroke="#ff0000"/>
<path d="M214.281,143.848h 12.9909" fill="none" stroke="#ff0000"/>
<g fill="#ff0000">
<rect x="211.916" y="142.666" width="2.36467" height="2.36467"/>
</g>
<path d="M227.272,164.41h 27.1641" fill="none" stroke="#ff0000"/>
<path d="M256.8,164.41h 27.1641" fill="none" stroke="#ff0000"/>
<g fill="#ff0000">
<rect x="254.436" y="163.228" width="2.36467" height="2.36467"/>
</g>
<path d="M326.484,192.448v -0.805518" fill="none" stroke="#ff0000"/>
<path d="M326.484,189.278v -0.481082" fill="none" stroke="#ff0000"/>
<path d="M283.965,190.46h 41.3374" fill="none" stroke="#ff0000"/>
<path d="M327.667,190.46h 41.3374" fill="none" stroke="#ff0000"/>
<g fill="#ff0000">
<rect x="325.302" y="189.278" width="2.36467" height="2.36467"/>
</g>
<path d="M439.87,220.707v -4.87524" fill="none" stroke="#ff0000"/>
<path d="M439.87,213.467v -2.59496" fill="none" stroke="#ff0000"/>
<path d="M369.004,214.65h 69.6838" fill="none" stroke="#ff0000"/>
<path d="M441.052,214.65h 41.3374" fill="none" stroke="#ff0000"/>
<g fill="#ff0000">
<rect x="438.688" y="213.467" width="2.36467" height="2.36467"/>
</g>
<path d="M85.5394,37.9991h 6.49545" fill="none" stroke="#59d354"/>
<path d="M93.2171,37.9991h 6.49545" fill="none" stroke="#59d354"/>
<g fill="#59d354">
<polygon points=" 92.626, 36.8168 93.8083, 39.1815 91.4436, 39.1815"/>
</g>
<path d="M99.7126,48.8769h 6.49545" fill="none" stroke="#59d354"/>
<path d="M107.39,48.8769h 6.49545" fill="none" stroke="#59d354"/>
<g fill="#59d354">
<polygon points=" 106.799, 47.6945 107.982, 50.0592 105.617, 50.0592"/>
</g>
<path d="M113.886,68.9174h 6.49545" fill="none" stroke="#59d354"/>
<path d="M121.564,68.9174h 6.49545" fill="none" stroke="#59d354"/>
<g fill="#59d354">
<polygon points=" 120.972, 67.7351 122.155, 70.0998 119.79, 70.0998"/>
</g>
<path d="M128.059,85.7231h 6.49545" fill="none" stroke="#59d354"/>
<path d="M135.737,85.7231h 6.49545" fill="none" stroke="#59d354"/>
<g fill="#59d354">
<polygon points=" 135.146, 84.5408 136.328, 86.9055 133.963, 86.9055"/>
</g>
<path d="M142.232,104.287h 13.5821" fill="none" stroke="#59d354"/>
<path d="M156.997,104.287h 13.5821" fill="none" stroke="#59d354"/>
<g fill="#59d354">
<polygon points=" 156.406, 103.104 157.588, 105.469 155.223, 105.469"/>
</g>
<path d="M170.579,126.661h 13.5821" fill="none" stroke="#59d354"/>
<path d="M185.343,126.661h 13.5821" fill="none" stroke="#59d354"/>
<g fill="#59d354">
<polygon points=" 184.752, 125.478 185.934, 127.843 183.57, 127.843"/>
</g>
<path d="M198.925,144.965h 13.5821" fill="none" stroke="#59d354"/>
<path d="M213.69,144.965h 13.5821" fill="none" stroke="#59d354"/>
<g fill="#59d354">
<polygon points=" 213.098, 143.782 214.281, 146.147 211.916, 146.147"/>
</g>
<path d="M227.272,164.375h 27.7553" fill="none" stroke="#59d354"/>
<path d="M256.209,164.375h 27.7553" fill="none" stroke="#59d354"/>
<g fill="#59d354">
<polygon points=" 255.618, 163.193 256.8, 165.558 254.436, 165.558"/>
</g>
<path d="M326.484,193.098v -0.269621" fill="none" stroke="#59d354"/>
<path d="M326.484,190.464v -0.0887518" fill="none" stroke="#59d354"/>
<path d="M283.965,191.646h 41.9285" fill="none" stroke="#59d354"/>
<path d="M327.075,191.646h 41.9285" fill="none" stroke="#59d354"/>
<g fill="#59d354">
<polygon points=" 326.484, 190.464 327.667, 192.829 325.302, 192.829"/>
</g>
<path d="M439.87,225.234v -4.17917" fill="none" stroke="#59d354"/>
<path d="M439.87,218.69v -2.31606" fill="none" stroke="#59d354"/>
<path d="M369.004,219.872h 70.275" fill="none" stroke="#59d354"/>
<path d="M440.461,219.872h 41.9285" fill="none" stroke="#59d354"/>
<g fill="#59d354">
<polygon points=" 439.87, 218.69 441.052, 221.054 438.688, 221.054"/>
</g>
<path d="M85.5394,40.2233h 6.49545" fill="none" stroke="#0000ff"/>
<path d="M93.2171,40.2233h 6.49545" fill="none" stroke="#0000ff"/>
<g fill="#0000ff">
<polygon points=" 91.4436, 39.041 93.8083, 39.041 92.626, 41.4057"/>
</g>
<path d="M99.7126,51.0641h 6.49545" fill="none" stroke="#0000ff"/>
<path d="M107.39,51.0641h 6.49545" fill="none" stroke="#0000ff"/>
<g fill="#0000ff">
<polygon points=" 105.617, 49.8818 107.982, 49.8818 106.799, 52.2464"/>
</g>
<path d="M113.886,71.0831h 6.49545" fill="none" stroke="#0000ff"/>
<path d="M121.564,71.0831h 6.49545" fill="none" stroke="#0000ff"/>
<g fill="#0000ff">
<polygon points=" 119.79, 69.9008 122.155, 69.9008 120.972, 72.2655"/>
</g>
<path d="M128.059,87.7962h 6.49545" fill="none" stroke="#0000ff"/>
<path d="M135.737,87.7962h 6.49545" fill="none" stroke="#0000ff"/>
<g fill="#0000ff">
<polygon points=" 133.963, 86.6138 136.328, 86.6138 135.146, 88.9785"/>
</g>
<path d="M142.232,106.236h 13.5821" fill="none" stroke="#0000ff"/>
<path d="M156.997,106.236h 13.5821" fill="none" stroke="#0000ff"/>
<g fill="#0000ff">
<polygon points=" 155.223, 105.054 157.588, 105.054 156.406, 107.418"/>
</g>
<path d="M170.579,128.739h 13.5821" fill="none" stroke="#0000ff"/>
<path d="M185.343,128.739h 13.5821" fill="none" stroke="#0000ff"/>
<g fill="#0000ff">
<polygon points=" 183.57, 127.557 185.934, 127.557 184.752, 129.921"/>
</g>
<path d="M198.925,146.09h 13.5821" fill="none" stroke="#0000ff"/>
<path d="M213.69,146.09h 13.5821" fill="none" stroke="#0000ff"/>
<g fill="#0000ff">
<polygon points=" 211.916, 144.908 214.281, 144.908 213.098, 147.273"/>
</g>
<path d="M227.272,165.72h 27.7553" fill="none" stroke="#0000ff"/>
<path d="M256.209,165.72h 27.7553" fill="none" stroke="#0000ff"/>
<g fill="#0000ff">
<polygon points=" 254.436, 164.538 256.8, 164.538 255.618, 166.903"/>
</g>
<path d="M326.484,190.108v -0.0715087" fill="none" stroke="#0000ff"/>
<path d="M283.965,188.854h 41.9285" fill="none" stroke="#0000ff"/>
<path d="M327.075,188.854h 41.9285" fill="none" stroke="#0000ff"/>
<g fill="#0000ff">
<polygon points=" 325.302, 187.672 327.667, 187.672 326.484, 190.036"/>
</g>
<path d="M439.87,221.403v -3.27579" fill="none" stroke="#0000ff"/>
<path d="M439.87,215.762v -1.91125" fill="none" stroke="#0000ff"/>
<path d="M369.004,216.944h 70.275" fill="none" stroke="#0000ff"/>
<path d="M440.461,216.944h 41.9285" fill="none" stroke="#0000ff"/>
<g fill="#0000ff">
<polygon points=" 438.688, 215.762 441.052, 215.762 439.87, 218.127"/>
</g>
<path d="M85.5394,43.3199h 5.90428" fill="none" stroke="#ff00ff"/>
<path d="M93.8083,43.3199h 5.90428" fill="none" stroke="#ff00ff"/>
<g fill="#ff00ff">
<polygon points=" 92.2319, 42.9258 92.2319, 42.1376 93.0201, 42.1376 93.0201, 42.9258 93.8083, 42.9258 93.8083, 43.714 93.0201, 43.714 93.0201, 44.5023 92.2319, 44.5023 92.2319, 43.714 91.4436, 43.714 91.4436, 42.9258"/>
</g>
<path d="M99.7126,54.2051h 5.90428" fill="none" stroke="#ff00ff"/>
<path d="M107.982,54.2051h 5.90428" fill="none" stroke="#ff00ff"/>
<g fill="#ff00ff">
<polygon points=" 106.405, 53.811 106.405, 53.0227 107.193, 53.0227 107.193, 53.811 107.982, 53.811 107.982, 54.5992 107.193, 54.5992 107.193, 55.3874 106.405, 55.3874 106.405, 54.5992 105.617, 54.5992 105.617, 53.811"/>
</g>
<path d="M113.886,74.3598h 5.90428" fill="none" stroke="#ff00ff"/>
<path d="M122.155,74.3598h 5.90428" fill="none" stroke="#ff00ff"/>
<g fill="#ff00ff">
<polygon points=" 120.578, 73.9657 120.578, 73.1775 121.367, 73.1775 121.367, 73.9657 122.155, 73.9657 122.155, 74.754 121.367, 74.754 121.367, 75.5422 120.578, 75.5422 120.578, 74.754 119.79, 74.754 119.79, 73.9657"/>
</g>
<path d="M128.059,91.1863h 5.90428" fill="none" stroke="#ff00ff"/>
<path d="M136.328,91.1863h 5.90428" fill="none" stroke="#ff00ff"/>
<g fill="#ff00ff">
<polygon points=" 134.752, 90.7922 134.752, 90.004 135.54, 90.004 135.54, 90.7922 136.328, 90.7922 136.328, 91.5804 135.54, 91.5804 135.54, 92.3686 134.752, 92.3686 134.752, 91.5804 133.963, 91.5804 133.963, 90.7922"/>
</g>
<path d="M142.232,109.494h 12.9909" fill="none" stroke="#ff00ff"/>
<path d="M157.588,109.494h 12.9909" fill="none" stroke="#ff00ff"/>
<g fill="#ff00ff">
<polygon points=" 156.011, 109.1 156.011, 108.311 156.8, 108.311 156.8, 109.1 157.588, 109.1 157.588, 109.888 156.8, 109.888 156.8, 110.676 156.011, 110.676 156.011, 109.888 155.223, 109.888 155.223, 109.1"/>
</g>
<path d="M170.579,132.003h 12.9909" fill="none" stroke="#ff00ff"/>
<path d="M185.934,132.003h 12.9909" fill="none" stroke="#ff00ff"/>
<g fill="#ff00ff">
<polygon points=" 184.358, 131.609 184.358, 130.821 185.146, 130.821 185.146, 131.609 185.934, 131.609 185.934, 132.398 185.146, 132.398 185.146, 133.186 184.358, 133.186 184.358, 132.398 183.57, 132.398 183.57, 131.609"/>
</g>
<path d="M198.925,148.968h 12.9909" fill="none" stroke="#ff00ff"/>
<path d="M214.281,148.968h 12.9909" fill="none" stroke="#ff00ff"/>
<g fill="#ff00ff">
<polygon points=" 212.704, 148.574 212.704, 147.786 213.493, 147.786 213.493, 148.574 214.281, 148.574 214.281, 149.362 213.493, 149.362 213.493, 150.15 212.704, 150.15 212.704, 149.362 211.916, 149.362 211.916, 148.574"/>
</g>
<path d="M227.272,168.129h 27.1641" fill="none" stroke="#ff00ff"/>
<path d="M256.8,168.129h 27.1641" fill="none" stroke="#ff00ff"/>
<g fill="#ff00ff">
<polygon points=" 255.224, 167.735 255.224, 166.946 256.012, 166.946 256.012, 167.735 256.8, 167.735 256.8, 168.523 256.012, 168.523 256.012, 169.311 255.224, 169.311 255.224, 168.523 254.436, 168.523 254.436, 167.735"/>
</g>
<path d="M326.484,192.731v -0.242984" fill="none" stroke="#ff00ff"/>
<path d="M326.484,190.124v -0.0682989" fill="none" stroke="#ff00ff"/>
<path d="M283.965,191.306h 41.3374" fill="none" stroke="#ff00ff"/>
<path d="M327.667,191.306h 41.3374" fill="none" stroke="#ff00ff"/>
<g fill="#ff00ff">
<polygon points=" 326.09, 190.912 326.09, 190.124 326.878, 190.124 326.878, 190.912 327.667, 190.912 327.667, 191.7 326.878, 191.7 326.878, 192.488 326.09, 192.488 326.09, 191.7 325.302, 191.7 325.302, 190.912"/>
</g>
<path d="M439.87,231.111v -5.90084" fill="none" stroke="#ff00ff"/>
<path d="M439.87,222.845v -2.96106" fill="none" stroke="#ff00ff"/>
<path d="M369.004,224.027h 69.6838" fill="none" stroke="#ff00ff"/>
<path d="M441.052,224.027h 41.3374" fill="none" stroke="#ff00ff"/>
<g fill="#ff00ff">
<polygon points=" 439.476, 223.633 439.476, 222.845 440.264, 222.845 440.264, 223.633 441.052, 223.633 441.052, 224.422 440.264, 224.422 440.264, 225.21 439.476, 225.21 439.476, 224.422 438.688, 224.422 438.688, 223.633"/>
</g>
<text xml:space="preserve" x="288.103" y="34.5833" fill="black" font-size="11.9437" font-family="Helvetica">PYTHIA8, option3</text>
<text xml:space="preserve" x="381.803" y="52.3183" fill="black" font-size="11.9437" font-family="Helvetica">|&lt;1</text>
<text xml:space="preserve" x="375.595" y="52.3183" fill="black" font-size="11.9437" font-family="Times">&#0951;</text>
<text xml:space="preserve" x="288.103" y="52.3183" fill="black" font-size="11.9437" font-family="Helvetica">p+Au, 200 GeV, |</text>
<text xml:space="preserve" x="326.233" y="70.3489" fill="black" font-size="11.9437" font-family="Helvetica">cent: 0~10%</text>
<g fill="black">
<circle cx="305.224" cy="66.3775" r="1.18233"/>
</g>
<text xml:space="preserve" x="326.233" y="88.0839" fill="black" font-size="11.9437" font-family="Helvetica">cent: 10~20%</text>
<g fill="#ff0000">
<rect x="304.042" y="83.0146" width="2.36467" height="2.36467"/>
</g>
<text xml:space="preserve" x="326.233" y="105.819" fill="black" font-size="11.9437" font-family="Helvetica">cent: 20~40%</text>
<g fill="#59d354">
<polygon points=" 305.224, 100.834 306.407, 103.199 304.042, 103.199"/>
</g>
<text xml:space="preserve" x="326.233" y="123.554" fill="black" font-size="11.9437" font-family="Helvetica">cent: 40~60%</text>
<g fill="#0000ff">
<polygon points=" 304.042, 118.654 306.407, 118.654 305.224, 121.018"/>
</g>
<text xml:space="preserve" x="326.233" y="141.584" fill="black" font-size="11.9437" font-family="Helvetica">cent: 60~80%</text>
<g fill="#ff00ff">
<polygon points=" 304.83, 137.261 304.83, 136.473 305.619, 136.473 305.619, 137.261 306.407, 137.261 306.407, 138.049 305.619, 138.049 305.619, 138.838 304.83, 138.838 304.83, 138.049 304.042, 138.049 304.042, 137.261"/>
</g></svg>
