<?xml version="1.0" standalone="no"?>
<svg width="567.429" height="386.304" viewBox="0 0 567.429 386.304" xmlns="http://www.w3.org/2000/svg" shape-rendering="crispEdges">
<title>
/Users/jinhyunpark/npl/gitHub/xloadFromServer/Git_Bias_correction_RxA/plots/centralityNcollCorrelation.svg
</title>
<desc>
Creator: ROOT Version 6.26/06
CreationDate: Thu Feb 23 23:50:43 2023</desc>
<defs>
</defs>
<rect x="0.5" y="0" width="566.929" height="385.804" fill="white"/>
<rect x="57.1929" y="38.5804" width="453.543" height="308.643" fill="white"/>
<rect x="57.1929" y="38.5804" width="453.543" height="308.643" fill="none" stroke="black"/>
<rect x="57.1929" y="38.5804" width="453.543" height="308.643" fill="white"/>
<rect x="57.1929" y="38.5804" width="453.543" height="308.643" fill="none" stroke="black"/>
<rect x="98.4241" y="334.878" width="41.2312" height="6.17287" fill="#263da8"/>
<rect x="139.655" y="334.878" width="41.2312" height="6.17287" fill="#263da8"/>
<rect x="180.887" y="334.878" width="41.2312" height="6.17287" fill="#263da8"/>
<rect x="222.118" y="334.878" width="41.2312" height="6.17287" fill="#1652cc"/>
<rect x="263.349" y="334.878" width="41.2312" height="6.17287" fill="#1171d8"/>
<rect x="304.58" y="334.878" width="41.2312" height="6.17287" fill="#0da7c2"/>
<rect x="345.811" y="334.878" width="41.2312" height="6.17287" fill="#b2bc65"/>
<rect x="387.043" y="334.878" width="41.2312" height="6.17287" fill="#f9f90e"/>
<rect x="428.274" y="334.878" width="41.2312" height="6.17287" fill="#1171d8"/>
<rect x="469.505" y="334.878" width="41.2312" height="6.17287" fill="#b2bc65"/>
<rect x="57.1929" y="328.705" width="41.2312" height="6.17287" fill="#263da8"/>
<rect x="98.4241" y="328.705" width="41.2312" height="6.17287" fill="#263da8"/>
<rect x="139.655" y="328.705" width="41.2312" height="6.17287" fill="#263da8"/>
<rect x="180.887" y="328.705" width="41.2312" height="6.17287" fill="#1063db"/>
<rect x="222.118" y="328.705" width="41.2312" height="6.17287" fill="#1171d8"/>
<rect x="263.349" y="328.705" width="41.2312" height="6.17287" fill="#0e8ed0"/>
<rect x="304.58" y="328.705" width="41.2312" height="6.17287" fill="#0da7c2"/>
<rect x="345.811" y="328.705" width="41.2312" height="6.17287" fill="#2db7a3"/>
<rect x="387.043" y="328.705" width="41.2312" height="6.17287" fill="#2db7a3"/>
<rect x="428.274" y="328.705" width="41.2312" height="6.17287" fill="#1652cc"/>
<rect x="469.505" y="328.705" width="41.2312" height="6.17287" fill="#1171d8"/>
<rect x="57.1929" y="322.532" width="41.2312" height="6.17287" fill="#263da8"/>
<rect x="98.4241" y="322.532" width="41.2312" height="6.17287" fill="#263da8"/>
<rect x="139.655" y="322.532" width="41.2312" height="6.17287" fill="#1063db"/>
<rect x="180.887" y="322.532" width="41.2312" height="6.17287" fill="#1171d8"/>
<rect x="222.118" y="322.532" width="41.2312" height="6.17287" fill="#0e8ed0"/>
<rect x="263.349" y="322.532" width="41.2312" height="6.17287" fill="#089dcc"/>
<rect x="304.58" y="322.532" width="41.2312" height="6.17287" fill="#0da7c2"/>
<rect x="345.811" y="322.532" width="41.2312" height="6.17287" fill="#089dcc"/>
<rect x="387.043" y="322.532" width="41.2312" height="6.17287" fill="#0e8ed0"/>
<rect x="428.274" y="322.532" width="41.2312" height="6.17287" fill="#263da8"/>
<rect x="469.505" y="322.532" width="41.2312" height="6.17287" fill="#1652cc"/>
<rect x="57.1929" y="316.359" width="41.2312" height="6.17287" fill="#263da8"/>
<rect x="98.4241" y="316.359" width="41.2312" height="6.17287" fill="#1063db"/>
<rect x="139.655" y="316.359" width="41.2312" height="6.17287" fill="#1171d8"/>
<rect x="180.887" y="316.359" width="41.2312" height="6.17287" fill="#0e8ed0"/>
<rect x="222.118" y="316.359" width="41.2312" height="6.17287" fill="#089dcc"/>
<rect x="263.349" y="316.359" width="41.2312" height="6.17287" fill="#089dcc"/>
<rect x="304.58" y="316.359" width="41.2312" height="6.17287" fill="#089dcc"/>
<rect x="345.811" y="316.359" width="41.2312" height="6.17287" fill="#1380d5"/>
<rect x="387.043" y="316.359" width="41.2312" height="6.17287" fill="#1171d8"/>
<rect x="428.274" y="316.359" width="41.2312" height="6.17287" fill="#263da8"/>
<rect x="469.505" y="316.359" width="41.2312" height="6.17287" fill="#263da8"/>
<rect x="57.1929" y="310.187" width="41.2312" height="6.17287" fill="#1652cc"/>
<rect x="98.4241" y="310.187" width="41.2312" height="6.17287" fill="#1171d8"/>
<rect x="139.655" y="310.187" width="41.2312" height="6.17287" fill="#0e8ed0"/>
<rect x="180.887" y="310.187" width="41.2312" height="6.17287" fill="#089dcc"/>
<rect x="222.118" y="310.187" width="41.2312" height="6.17287" fill="#089dcc"/>
<rect x="263.349" y="310.187" width="41.2312" height="6.17287" fill="#089dcc"/>
<rect x="304.58" y="310.187" width="41.2312" height="6.17287" fill="#0e8ed0"/>
<rect x="345.811" y="310.187" width="41.2312" height="6.17287" fill="#1171d8"/>
<rect x="387.043" y="310.187" width="41.2312" height="6.17287" fill="#1652cc"/>
<rect x="428.274" y="310.187" width="41.2312" height="6.17287" fill="#263da8"/>
<rect x="469.505" y="310.187" width="41.2312" height="6.17287" fill="#263da8"/>
<rect x="57.1929" y="304.014" width="41.2312" height="6.17287" fill="#1171d8"/>
<rect x="98.4241" y="304.014" width="41.2312" height="6.17287" fill="#0e8ed0"/>
<rect x="139.655" y="304.014" width="41.2312" height="6.17287" fill="#089dcc"/>
<rect x="180.887" y="304.014" width="41.2312" height="6.17287" fill="#089dcc"/>
<rect x="222.118" y="304.014" width="41.2312" height="6.17287" fill="#089dcc"/>
<rect x="263.349" y="304.014" width="41.2312" height="6.17287" fill="#0e8ed0"/>
<rect x="304.58" y="304.014" width="41.2312" height="6.17287" fill="#1171d8"/>
<rect x="345.811" y="304.014" width="41.2312" height="6.17287" fill="#1063db"/>
<rect x="387.043" y="304.014" width="41.2312" height="6.17287" fill="#1652cc"/>
<rect x="428.274" y="304.014" width="41.2312" height="6.17287" fill="#263da8"/>
<rect x="469.505" y="304.014" width="41.2312" height="6.17287" fill="#263da8"/>
<rect x="57.1929" y="297.841" width="41.2312" height="6.17287" fill="#0e8ed0"/>
<rect x="98.4241" y="297.841" width="41.2312" height="6.17287" fill="#0da7c2"/>
<rect x="139.655" y="297.841" width="41.2312" height="6.17287" fill="#0da7c2"/>
<rect x="180.887" y="297.841" width="41.2312" height="6.17287" fill="#089dcc"/>
<rect x="222.118" y="297.841" width="41.2312" height="6.17287" fill="#0e8ed0"/>
<rect x="263.349" y="297.841" width="41.2312" height="6.17287" fill="#1171d8"/>
<rect x="304.58" y="297.841" width="41.2312" height="6.17287" fill="#1063db"/>
<rect x="345.811" y="297.841" width="41.2312" height="6.17287" fill="#1652cc"/>
<rect x="387.043" y="297.841" width="41.2312" height="6.17287" fill="#263da8"/>
<rect x="428.274" y="297.841" width="41.2312" height="6.17287" fill="#263da8"/>
<rect x="469.505" y="297.841" width="41.2312" height="6.17287" fill="#263da8"/>
<rect x="57.1929" y="291.668" width="41.2312" height="6.17287" fill="#089dcc"/>
<rect x="98.4241" y="291.668" width="41.2312" height="6.17287" fill="#0da7c2"/>
<rect x="139.655" y="291.668" width="41.2312" height="6.17287" fill="#089dcc"/>
<rect x="180.887" y="291.668" width="41.2312" height="6.17287" fill="#1380d5"/>
<rect x="222.118" y="291.668" width="41.2312" height="6.17287" fill="#1171d8"/>
<rect x="263.349" y="291.668" width="41.2312" height="6.17287" fill="#1063db"/>
<rect x="304.58" y="291.668" width="41.2312" height="6.17287" fill="#1652cc"/>
<rect x="345.811" y="291.668" width="41.2312" height="6.17287" fill="#263da8"/>
<rect x="387.043" y="291.668" width="41.2312" height="6.17287" fill="#263da8"/>
<rect x="428.274" y="291.668" width="41.2312" height="6.17287" fill="#263da8"/>
<rect x="469.505" y="291.668" width="41.2312" height="6.17287" fill="#263da8"/>
<rect x="57.1929" y="285.495" width="41.2312" height="6.17287" fill="#0da7c2"/>
<rect x="98.4241" y="285.495" width="41.2312" height="6.17287" fill="#089dcc"/>
<rect x="139.655" y="285.495" width="41.2312" height="6.17287" fill="#1380d5"/>
<rect x="180.887" y="285.495" width="41.2312" height="6.17287" fill="#1171d8"/>
<rect x="222.118" y="285.495" width="41.2312" height="6.17287" fill="#1063db"/>
<rect x="263.349" y="285.495" width="41.2312" height="6.17287" fill="#1652cc"/>
<rect x="304.58" y="285.495" width="41.2312" height="6.17287" fill="#263da8"/>
<rect x="345.811" y="285.495" width="41.2312" height="6.17287" fill="#263da8"/>
<rect x="387.043" y="285.495" width="41.2312" height="6.17287" fill="#263da8"/>
<rect x="428.274" y="285.495" width="41.2312" height="6.17287" fill="#263da8"/>
<rect x="57.1929" y="279.322" width="41.2312" height="6.17287" fill="#089dcc"/>
<rect x="98.4241" y="279.322" width="41.2312" height="6.17287" fill="#1380d5"/>
<rect x="139.655" y="279.322" width="41.2312" height="6.17287" fill="#1063db"/>
<rect x="180.887" y="279.322" width="41.2312" height="6.17287" fill="#1652cc"/>
<rect x="222.118" y="279.322" width="41.2312" height="6.17287" fill="#1652cc"/>
<rect x="263.349" y="279.322" width="41.2312" height="6.17287" fill="#263da8"/>
<rect x="304.58" y="279.322" width="41.2312" height="6.17287" fill="#263da8"/>
<rect x="345.811" y="279.322" width="41.2312" height="6.17287" fill="#263da8"/>
<rect x="387.043" y="279.322" width="41.2312" height="6.17287" fill="#263da8"/>
<rect x="57.1929" y="273.149" width="41.2312" height="6.17287" fill="#1380d5"/>
<rect x="98.4241" y="273.149" width="41.2312" height="6.17287" fill="#1063db"/>
<rect x="139.655" y="273.149" width="41.2312" height="6.17287" fill="#1652cc"/>
<rect x="180.887" y="273.149" width="41.2312" height="6.17287" fill="#263da8"/>
<rect x="222.118" y="273.149" width="41.2312" height="6.17287" fill="#263da8"/>
<rect x="263.349" y="273.149" width="41.2312" height="6.17287" fill="#263da8"/>
<rect x="304.58" y="273.149" width="41.2312" height="6.17287" fill="#263da8"/>
<rect x="345.811" y="273.149" width="41.2312" height="6.17287" fill="#263da8"/>
<rect x="387.043" y="273.149" width="41.2312" height="6.17287" fill="#263da8"/>
<rect x="57.1929" y="266.977" width="41.2312" height="6.17287" fill="#1171d8"/>
<rect x="98.4241" y="266.977" width="41.2312" height="6.17287" fill="#1652cc"/>
<rect x="139.655" y="266.977" width="41.2312" height="6.17287" fill="#263da8"/>
<rect x="180.887" y="266.977" width="41.2312" height="6.17287" fill="#263da8"/>
<rect x="222.118" y="266.977" width="41.2312" height="6.17287" fill="#263da8"/>
<rect x="263.349" y="266.977" width="41.2312" height="6.17287" fill="#263da8"/>
<rect x="304.58" y="266.977" width="41.2312" height="6.17287" fill="#263da8"/>
<rect x="345.811" y="266.977" width="41.2312" height="6.17287" fill="#263da8"/>
<rect x="57.1929" y="260.804" width="41.2312" height="6.17287" fill="#1652cc"/>
<rect x="98.4241" y="260.804" width="41.2312" height="6.17287" fill="#263da8"/>
<rect x="139.655" y="260.804" width="41.2312" height="6.17287" fill="#263da8"/>
<rect x="180.887" y="260.804" width="41.2312" height="6.17287" fill="#263da8"/>
<rect x="222.118" y="260.804" width="41.2312" height="6.17287" fill="#263da8"/>
<rect x="263.349" y="260.804" width="41.2312" height="6.17287" fill="#263da8"/>
<rect x="304.58" y="260.804" width="41.2312" height="6.17287" fill="#263da8"/>
<rect x="345.811" y="260.804" width="41.2312" height="6.17287" fill="#263da8"/>
<rect x="57.1929" y="254.631" width="41.2312" height="6.17287" fill="#263da8"/>
<rect x="98.4241" y="254.631" width="41.2312" height="6.17287" fill="#263da8"/>
<rect x="139.655" y="254.631" width="41.2312" height="6.17287" fill="#263da8"/>
<rect x="180.887" y="254.631" width="41.2312" height="6.17287" fill="#263da8"/>
<rect x="263.349" y="254.631" width="41.2312" height="6.17287" fill="#263da8"/>
<rect x="304.58" y="254.631" width="41.2312" height="6.17287" fill="#263da8"/>
<rect x="57.1929" y="248.458" width="41.2312" height="6.17287" fill="#263da8"/>
<rect x="98.4241" y="248.458" width="41.2312" height="6.17287" fill="#263da8"/>
<rect x="139.655" y="248.458" width="41.2312" height="6.17287" fill="#263da8"/>
<rect x="180.887" y="248.458" width="41.2312" height="6.17287" fill="#263da8"/>
<rect x="222.118" y="248.458" width="41.2312" height="6.17287" fill="#263da8"/>
<rect x="57.1929" y="242.285" width="41.2312" height="6.17287" fill="#263da8"/>
<rect x="98.4241" y="242.285" width="41.2312" height="6.17287" fill="#263da8"/>
<rect x="57.1929" y="236.112" width="41.2312" height="6.17287" fill="#263da8"/>
<rect x="139.655" y="236.112" width="41.2312" height="6.17287" fill="#263da8"/>
<rect x="57.1929" y="229.939" width="41.2312" height="6.17287" fill="#263da8"/>
<rect x="139.655" y="223.766" width="41.2312" height="6.17287" fill="#263da8"/>
<path d="M57.1929,347.224h 453.543" fill="none" stroke="black"/>
<path d="M57.1929,337.964v 9.2593" fill="none" stroke="black"/>
<path d="M77.8085,342.594v 4.62965" fill="none" stroke="black"/>
<path d="M98.4241,342.594v 4.62965" fill="none" stroke="black"/>
<path d="M119.04,342.594v 4.62965" fill="none" stroke="black"/>
<path d="M139.655,337.964v 9.2593" fill="none" stroke="black"/>
<path d="M160.271,342.594v 4.62965" fill="none" stroke="black"/>
<path d="M180.887,342.594v 4.62965" fill="none" stroke="black"/>
<path d="M201.502,342.594v 4.62965" fill="none" stroke="black"/>
<path d="M222.118,337.964v 9.2593" fill="none" stroke="black"/>
<path d="M242.733,342.594v 4.62965" fill="none" stroke="black"/>
<path d="M263.349,342.594v 4.62965" fill="none" stroke="black"/>
<path d="M283.965,342.594v 4.62965" fill="none" stroke="black"/>
<path d="M304.58,337.964v 9.2593" fill="none" stroke="black"/>
<path d="M325.196,342.594v 4.62965" fill="none" stroke="black"/>
<path d="M345.811,342.594v 4.62965" fill="none" stroke="black"/>
<path d="M366.427,342.594v 4.62965" fill="none" stroke="black"/>
<path d="M387.043,337.964v 9.2593" fill="none" stroke="black"/>
<path d="M407.658,342.594v 4.62965" fill="none" stroke="black"/>
<path d="M428.274,342.594v 4.62965" fill="none" stroke="black"/>
<path d="M448.889,342.594v 4.62965" fill="none" stroke="black"/>
<path d="M469.505,337.964v 9.2593" fill="none" stroke="black"/>
<path d="M469.505,337.964v 9.2593" fill="none" stroke="black"/>
<path d="M490.121,342.594v 4.62965" fill="none" stroke="black"/>
<text xml:space="preserve" x="52.482" y="359.813" fill="black" font-size="12.8882" font-family="Helvetica">0</text>
<text xml:space="preserve" x="132.08" y="359.813" fill="black" font-size="12.8882" font-family="Helvetica">20</text>
<text xml:space="preserve" x="214.114" y="359.813" fill="black" font-size="12.8882" font-family="Helvetica">40</text>
<text xml:space="preserve" x="296.96" y="359.813" fill="black" font-size="12.8882" font-family="Helvetica">60</text>
<text xml:space="preserve" x="378.994" y="359.813" fill="black" font-size="12.8882" font-family="Helvetica">80</text>
<text xml:space="preserve" x="458.592" y="359.813" fill="black" font-size="12.8882" font-family="Helvetica">100</text>
<path d="M57.1929,347.224v -308.643" fill="none" stroke="black"/>
<path d="M70.7992,347.224h -13.6063" fill="none" stroke="black"/>
<path d="M63.9961,341.051h -6.80315" fill="none" stroke="black"/>
<path d="M63.9961,334.878h -6.80315" fill="none" stroke="black"/>
<path d="M63.9961,328.705h -6.80315" fill="none" stroke="black"/>
<path d="M63.9961,322.532h -6.80315" fill="none" stroke="black"/>
<path d="M70.7992,316.359h -13.6063" fill="none" stroke="black"/>
<path d="M63.9961,310.187h -6.80315" fill="none" stroke="black"/>
<path d="M63.9961,304.014h -6.80315" fill="none" stroke="black"/>
<path d="M63.9961,297.841h -6.80315" fill="none" stroke="black"/>
<path d="M63.9961,291.668h -6.80315" fill="none" stroke="black"/>
<path d="M70.7992,285.495h -13.6063" fill="none" stroke="black"/>
<path d="M63.9961,279.322h -6.80315" fill="none" stroke="black"/>
<path d="M63.9961,273.149h -6.80315" fill="none" stroke="black"/>
<path d="M63.9961,266.977h -6.80315" fill="none" stroke="black"/>
<path d="M63.9961,260.804h -6.80315" fill="none" stroke="black"/>
<path d="M70.7992,254.631h -13.6063" fill="none" stroke="black"/>
<path d="M63.9961,248.458h -6.80315" fill="none" stroke="black"/>
<path d="M63.9961,242.285h -6.80315" fill="none" stroke="black"/>
<path d="M63.9961,236.112h -6.80315" fill="none" stroke="black"/>
<path d="M63.9961,229.939h -6.80315" fill="none" stroke="black"/>
<path d="M70.7992,223.766h -13.6063" fill="none" stroke="black"/>
<path d="M63.9961,217.594h -6.80315" fill="none" stroke="black"/>
<path d="M63.9961,211.421h -6.80315" fill="none" stroke="black"/>
<path d="M63.9961,205.248h -6.80315" fill="none" stroke="black"/>
<path d="M63.9961,199.075h -6.80315" fill="none" stroke="black"/>
<path d="M70.7992,192.902h -13.6063" fill="none" stroke="black"/>
<path d="M63.9961,186.729h -6.80315" fill="none" stroke="black"/>
<path d="M63.9961,180.556h -6.80315" fill="none" stroke="black"/>
<path d="M63.9961,174.383h -6.80315" fill="none" stroke="black"/>
<path d="M63.9961,168.211h -6.80315" fill="none" stroke="black"/>
<path d="M70.7992,162.038h -13.6063" fill="none" stroke="black"/>
<path d="M63.9961,155.865h -6.80315" fill="none" stroke="black"/>
<path d="M63.9961,149.692h -6.80315" fill="none" stroke="black"/>
<path d="M63.9961,143.519h -6.80315" fill="none" stroke="black"/>
<path d="M63.9961,137.346h -6.80315" fill="none" stroke="black"/>
<path d="M70.7992,131.173h -13.6063" fill="none" stroke="black"/>
<path d="M63.9961,125.001h -6.80315" fill="none" stroke="black"/>
<path d="M63.9961,118.828h -6.80315" fill="none" stroke="black"/>
<path d="M63.9961,112.655h -6.80315" fill="none" stroke="black"/>
<path d="M63.9961,106.482h -6.80315" fill="none" stroke="black"/>
<path d="M70.7992,100.309h -13.6063" fill="none" stroke="black"/>
<path d="M63.9961,94.1362h -6.80315" fill="none" stroke="black"/>
<path d="M63.9961,87.9634h -6.80315" fill="none" stroke="black"/>
<path d="M63.9961,81.7905h -6.80315" fill="none" stroke="black"/>
<path d="M63.9961,75.6176h -6.80315" fill="none" stroke="black"/>
<path d="M70.7992,69.4448h -13.6063" fill="none" stroke="black"/>
<path d="M63.9961,63.2719h -6.80315" fill="none" stroke="black"/>
<path d="M63.9961,57.099h -6.80315" fill="none" stroke="black"/>
<path d="M63.9961,50.9262h -6.80315" fill="none" stroke="black"/>
<path d="M63.9961,44.7533h -6.80315" fill="none" stroke="black"/>
<path d="M70.7992,38.5804h -13.6063" fill="none" stroke="black"/>
<text xml:space="preserve" x="46.7965" y="351.691" fill="black" font-size="12.8882" font-family="Helvetica">0</text>
<text xml:space="preserve" x="46.7965" y="320.827" fill="black" font-size="12.8882" font-family="Helvetica">5</text>
<text xml:space="preserve" x="39.4865" y="289.962" fill="black" font-size="12.8882" font-family="Helvetica">10</text>
<text xml:space="preserve" x="39.4865" y="259.098" fill="black" font-size="12.8882" font-family="Helvetica">15</text>
<text xml:space="preserve" x="39.4865" y="228.234" fill="black" font-size="12.8882" font-family="Helvetica">20</text>
<text xml:space="preserve" x="39.4865" y="197.369" fill="black" font-size="12.8882" font-family="Helvetica">25</text>
<text xml:space="preserve" x="39.4865" y="166.505" fill="black" font-size="12.8882" font-family="Helvetica">30</text>
<text xml:space="preserve" x="39.4865" y="135.641" fill="black" font-size="12.8882" font-family="Helvetica">35</text>
<text xml:space="preserve" x="39.4865" y="104.776" fill="black" font-size="12.8882" font-family="Helvetica">40</text>
<text xml:space="preserve" x="39.4865" y="73.912" fill="black" font-size="12.8882" font-family="Helvetica">45</text>
<text xml:space="preserve" x="39.4865" y="43.0476" fill="black" font-size="12.8882" font-family="Helvetica">50</text>
<rect x="442.705" y="25.0773" width="113.386" height="92.593" fill="white"/>
<path d="M442.705,117.67h 113.386" fill="none" stroke="black"/>
<path d="M556.091,117.67v -92.593" fill="none" stroke="black"/>
<path d="M556.091,25.0773h -113.386" fill="none" stroke="black"/>
<path d="M442.705,25.0773v 92.593" fill="none" stroke="black"/>
<text xml:space="preserve" x="469.963" y="36.5499" fill="black" font-size="13.5253" font-family="Helvetica">ncoll_cent</text>
<path d="M442.705,40.5094h 113.386" fill="none" stroke="black"/>
<text xml:space="preserve" x="448.033" y="52.7943" fill="black" font-size="12.4627" font-family="Helvetica">Entries </text>
<text xml:space="preserve" x="506.513" y="52.7943" fill="black" font-size="12.4627" font-family="Helvetica"> 100000</text>
<text xml:space="preserve" x="448.033" y="68.2264" fill="black" font-size="12.4627" font-family="Helvetica">Mean x </text>
<text xml:space="preserve" x="513.01" y="68.2264" fill="black" font-size="12.4627" font-family="Helvetica">  48.37</text>
<text xml:space="preserve" x="448.033" y="82.0342" fill="black" font-size="12.4627" font-family="Helvetica">Mean y </text>
<text xml:space="preserve" x="515.447" y="83.6586" fill="black" font-size="12.4627" font-family="Helvetica">  5.081</text>
<text xml:space="preserve" x="448.033" y="99.0908" fill="black" font-size="12.4627" font-family="Helvetica">Std Dev x </text>
<text xml:space="preserve" x="513.01" y="99.0908" fill="black" font-size="12.4627" font-family="Helvetica">  28.26</text>
<text xml:space="preserve" x="448.033" y="113.711" fill="black" font-size="12.4627" font-family="Helvetica">Std Dev y </text>
<text xml:space="preserve" x="513.01" y="114.523" fill="black" font-size="12.4627" font-family="Helvetica">  3.103</text>
<rect x="513.571" y="331.792" width="25.5118" height="15.4322" fill="#263da8"/>
<rect x="513.571" y="316.359" width="25.5118" height="15.4322" fill="#1652cc"/>
<rect x="513.571" y="300.927" width="25.5118" height="15.4322" fill="#1063db"/>
<rect x="513.571" y="285.495" width="25.5118" height="15.4322" fill="#1171d8"/>
<rect x="513.571" y="270.063" width="25.5118" height="15.4322" fill="#1380d5"/>
<rect x="513.571" y="254.631" width="25.5118" height="15.4322" fill="#0e8ed0"/>
<rect x="513.571" y="239.199" width="25.5118" height="15.4322" fill="#089dcc"/>
<rect x="513.571" y="223.766" width="25.5118" height="15.4322" fill="#0da7c2"/>
<rect x="513.571" y="208.334" width="25.5118" height="15.4322" fill="#1dafb3"/>
<rect x="513.571" y="192.902" width="25.5118" height="15.4322" fill="#2db7a3"/>
<rect x="513.571" y="177.47" width="25.5118" height="15.4322" fill="#52ba91"/>
<rect x="513.571" y="162.038" width="25.5118" height="15.4322" fill="#73bd80"/>
<rect x="513.571" y="146.606" width="25.5118" height="15.4322" fill="#94be71"/>
<rect x="513.571" y="131.173" width="25.5118" height="15.4322" fill="#b2bc65"/>
<rect x="513.571" y="115.741" width="25.5118" height="15.4322" fill="#d0ba59"/>
<rect x="513.571" y="100.309" width="25.5118" height="15.4322" fill="#e1bf4a"/>
<rect x="513.571" y="84.8769" width="25.5118" height="15.4322" fill="#f4c53a"/>
<rect x="513.571" y="69.4448" width="25.5118" height="15.4322" fill="#fcd12b"/>
<rect x="513.571" y="54.0126" width="25.5118" height="15.4322" fill="#fae61c"/>
<rect x="513.571" y="38.5804" width="25.5118" height="15.4322" fill="#f9f90e"/>
<path d="M539.083,347.224v -308.643" fill="none" stroke="black"/>
<path d="M525.476,347.224h 13.6063" fill="none" stroke="black"/>
<path d="M525.476,314.452h 13.6063" fill="none" stroke="black"/>
<path d="M525.476,281.681h 13.6063" fill="none" stroke="black"/>
<path d="M525.476,248.909h 13.6063" fill="none" stroke="black"/>
<path d="M525.476,216.137h 13.6063" fill="none" stroke="black"/>
<path d="M525.476,183.366h 13.6063" fill="none" stroke="black"/>
<path d="M525.476,150.594h 13.6063" fill="none" stroke="black"/>
<path d="M525.476,117.822h 13.6063" fill="none" stroke="black"/>
<path d="M525.476,85.0506h 13.6063" fill="none" stroke="black"/>
<path d="M525.476,52.279h 13.6063" fill="none" stroke="black"/>
<path d="M525.476,52.279h 13.6063" fill="none" stroke="black"/>
<text xml:space="preserve" x="541.438" y="351.691" fill="black" font-size="12.8882" font-family="Helvetica">0</text>
<text xml:space="preserve" x="541.438" y="319.202" fill="black" font-size="12.8882" font-family="Helvetica">500</text>
<text xml:space="preserve" x="541.438" y="285.901" fill="black" font-size="12.8882" font-family="Helvetica">1000</text>
<text xml:space="preserve" x="541.438" y="253.412" fill="black" font-size="12.8882" font-family="Helvetica">1500</text>
<text xml:space="preserve" x="541.438" y="220.924" fill="black" font-size="12.8882" font-family="Helvetica">2000</text>
<text xml:space="preserve" x="541.438" y="187.623" fill="black" font-size="12.8882" font-family="Helvetica">2500</text>
<text xml:space="preserve" x="541.438" y="155.134" fill="black" font-size="12.8882" font-family="Helvetica">3000</text>
<text xml:space="preserve" x="541.438" y="122.645" fill="black" font-size="12.8882" font-family="Helvetica">3500</text>
<text xml:space="preserve" x="541.438" y="89.3441" fill="black" font-size="12.8882" font-family="Helvetica">4000</text>
<text xml:space="preserve" x="541.438" y="56.8554" fill="black" font-size="12.8882" font-family="Helvetica">4500</text>
<rect x="442.705" y="25.0773" width="113.386" height="92.593" fill="white"/>
<path d="M442.705,117.67h 113.386" fill="none" stroke="black"/>
<path d="M556.091,117.67v -92.593" fill="none" stroke="black"/>
<path d="M556.091,25.0773h -113.386" fill="none" stroke="black"/>
<path d="M442.705,25.0773v 92.593" fill="none" stroke="black"/>
<text xml:space="preserve" x="469.963" y="36.5499" fill="black" font-size="13.5253" font-family="Helvetica">ncoll_cent</text>
<path d="M442.705,40.5094h 113.386" fill="none" stroke="black"/>
<text xml:space="preserve" x="448.033" y="52.7943" fill="black" font-size="12.4627" font-family="Helvetica">Entries </text>
<text xml:space="preserve" x="506.513" y="52.7943" fill="black" font-size="12.4627" font-family="Helvetica"> 100000</text>
<text xml:space="preserve" x="448.033" y="68.2264" fill="black" font-size="12.4627" font-family="Helvetica">Mean x </text>
<text xml:space="preserve" x="513.01" y="68.2264" fill="black" font-size="12.4627" font-family="Helvetica">  48.37</text>
<text xml:space="preserve" x="448.033" y="82.0342" fill="black" font-size="12.4627" font-family="Helvetica">Mean y </text>
<text xml:space="preserve" x="515.447" y="83.6586" fill="black" font-size="12.4627" font-family="Helvetica">  5.081</text>
<text xml:space="preserve" x="448.033" y="99.0908" fill="black" font-size="12.4627" font-family="Helvetica">Std Dev x </text>
<text xml:space="preserve" x="513.01" y="99.0908" fill="black" font-size="12.4627" font-family="Helvetica">  28.26</text>
<text xml:space="preserve" x="448.033" y="113.711" fill="black" font-size="12.4627" font-family="Helvetica">Std Dev y </text>
<text xml:space="preserve" x="513.01" y="114.523" fill="black" font-size="12.4627" font-family="Helvetica">  3.103</text>
<text xml:space="preserve" x="245.79" y="17.8688" fill="black" font-size="17.0471" font-family="Helvetica">cent_ncoll</text></svg>
