<?xml version="1.0" standalone="no"?>
<svg width="567.429" height="409.002" viewBox="0 0 567.429 409.002" xmlns="http://www.w3.org/2000/svg" shape-rendering="crispEdges">
<title>
/Users/jinhyunpark/npl/gitHub/xloadFromServer/Git_Bias_correction_RxA/plots/centCheckHis_INEL.svg
</title>
<desc>
Creator: ROOT Version 6.26/06
CreationDate: Mon Mar  6 17:54:49 2023</desc>
<defs>
</defs>
<rect x="0.5" y="0" width="566.929" height="408.502" fill="white"/>
<rect x="85.5394" y="20.4251" width="396.85" height="339.056" fill="white"/>
<rect x="85.5394" y="20.4251" width="396.85" height="339.056" fill="none" stroke="black"/>
<rect x="85.5394" y="20.4251" width="396.85" height="339.056" fill="white"/>
<rect x="85.5394" y="20.4251" width="396.85" height="339.056" fill="none" stroke="black"/>
<path d="M85.5394,359.481h 396.85" fill="none" stroke="black"/>
<path d="M85.5394,350.903v 8.57853" fill="none" stroke="black"/>
<path d="M93.4764,355.192v 4.28927" fill="none" stroke="black"/>
<path d="M101.413,355.192v 4.28927" fill="none" stroke="black"/>
<path d="M109.35,355.192v 4.28927" fill="none" stroke="black"/>
<path d="M117.287,355.192v 4.28927" fill="none" stroke="black"/>
<path d="M125.224,350.903v 8.57853" fill="none" stroke="black"/>
<path d="M133.161,355.192v 4.28927" fill="none" stroke="black"/>
<path d="M141.098,355.192v 4.28927" fill="none" stroke="black"/>
<path d="M149.035,355.192v 4.28927" fill="none" stroke="black"/>
<path d="M156.972,355.192v 4.28927" fill="none" stroke="black"/>
<path d="M164.909,350.903v 8.57853" fill="none" stroke="black"/>
<path d="M172.846,355.192v 4.28927" fill="none" stroke="black"/>
<path d="M180.783,355.192v 4.28927" fill="none" stroke="black"/>
<path d="M188.72,355.192v 4.28927" fill="none" stroke="black"/>
<path d="M196.657,355.192v 4.28927" fill="none" stroke="black"/>
<path d="M204.594,350.903v 8.57853" fill="none" stroke="black"/>
<path d="M212.531,355.192v 4.28927" fill="none" stroke="black"/>
<path d="M220.469,355.192v 4.28927" fill="none" stroke="black"/>
<path d="M228.406,355.192v 4.28927" fill="none" stroke="black"/>
<path d="M236.343,355.192v 4.28927" fill="none" stroke="black"/>
<path d="M244.28,350.903v 8.57853" fill="none" stroke="black"/>
<path d="M252.217,355.192v 4.28927" fill="none" stroke="black"/>
<path d="M260.154,355.192v 4.28927" fill="none" stroke="black"/>
<path d="M268.091,355.192v 4.28927" fill="none" stroke="black"/>
<path d="M276.028,355.192v 4.28927" fill="none" stroke="black"/>
<path d="M283.965,350.903v 8.57853" fill="none" stroke="black"/>
<path d="M291.902,355.192v 4.28927" fill="none" stroke="black"/>
<path d="M299.839,355.192v 4.28927" fill="none" stroke="black"/>
<path d="M307.776,355.192v 4.28927" fill="none" stroke="black"/>
<path d="M315.713,355.192v 4.28927" fill="none" stroke="black"/>
<path d="M323.65,350.903v 8.57853" fill="none" stroke="black"/>
<path d="M331.587,355.192v 4.28927" fill="none" stroke="black"/>
<path d="M339.524,355.192v 4.28927" fill="none" stroke="black"/>
<path d="M347.461,355.192v 4.28927" fill="none" stroke="black"/>
<path d="M355.398,355.192v 4.28927" fill="none" stroke="black"/>
<path d="M363.335,350.903v 8.57853" fill="none" stroke="black"/>
<path d="M371.272,355.192v 4.28927" fill="none" stroke="black"/>
<path d="M379.209,355.192v 4.28927" fill="none" stroke="black"/>
<path d="M387.146,355.192v 4.28927" fill="none" stroke="black"/>
<path d="M395.083,355.192v 4.28927" fill="none" stroke="black"/>
<path d="M403.02,350.903v 8.57853" fill="none" stroke="black"/>
<path d="M410.957,355.192v 4.28927" fill="none" stroke="black"/>
<path d="M418.894,355.192v 4.28927" fill="none" stroke="black"/>
<path d="M426.831,355.192v 4.28927" fill="none" stroke="black"/>
<path d="M434.768,355.192v 4.28927" fill="none" stroke="black"/>
<path d="M442.705,350.903v 8.57853" fill="none" stroke="black"/>
<path d="M450.642,355.192v 4.28927" fill="none" stroke="black"/>
<path d="M458.579,355.192v 4.28927" fill="none" stroke="black"/>
<path d="M466.516,355.192v 4.28927" fill="none" stroke="black"/>
<path d="M474.453,355.192v 4.28927" fill="none" stroke="black"/>
<path d="M482.39,350.903v 8.57853" fill="none" stroke="black"/>
<text xml:space="preserve" x="80.7794" y="374.401" fill="black" font-size="15.4909" font-family="Helvetica">0</text>
<text xml:space="preserve" x="116.301" y="374.401" fill="black" font-size="15.4909" font-family="Helvetica">10</text>
<text xml:space="preserve" x="156.086" y="374.401" fill="black" font-size="15.4909" font-family="Helvetica">20</text>
<text xml:space="preserve" x="195.87" y="374.401" fill="black" font-size="15.4909" font-family="Helvetica">30</text>
<text xml:space="preserve" x="235.655" y="374.401" fill="black" font-size="15.4909" font-family="Helvetica">40</text>
<text xml:space="preserve" x="275.439" y="374.401" fill="black" font-size="15.4909" font-family="Helvetica">50</text>
<text xml:space="preserve" x="314.513" y="374.401" fill="black" font-size="15.4909" font-family="Helvetica">60</text>
<text xml:space="preserve" x="354.298" y="374.401" fill="black" font-size="15.4909" font-family="Helvetica">70</text>
<text xml:space="preserve" x="394.082" y="374.401" fill="black" font-size="15.4909" font-family="Helvetica">80</text>
<text xml:space="preserve" x="433.867" y="374.401" fill="black" font-size="15.4909" font-family="Helvetica">90</text>
<text xml:space="preserve" x="470.099" y="374.401" fill="black" font-size="15.4909" font-family="Helvetica">100</text>
<text xml:space="preserve" x="405.449" y="400.687" fill="black" font-size="19.2386" font-family="Helvetica">centrality</text>
<path d="M85.5394,20.4251h 396.85" fill="none" stroke="black"/>
<path d="M85.5394,29.0036v -8.57853" fill="none" stroke="black"/>
<path d="M93.4764,24.7143v -4.28927" fill="none" stroke="black"/>
<path d="M101.413,24.7143v -4.28927" fill="none" stroke="black"/>
<path d="M109.35,24.7143v -4.28927" fill="none" stroke="black"/>
<path d="M117.287,24.7143v -4.28927" fill="none" stroke="black"/>
<path d="M125.224,29.0036v -8.57853" fill="none" stroke="black"/>
<path d="M133.161,24.7143v -4.28927" fill="none" stroke="black"/>
<path d="M141.098,24.7143v -4.28927" fill="none" stroke="black"/>
<path d="M149.035,24.7143v -4.28927" fill="none" stroke="black"/>
<path d="M156.972,24.7143v -4.28927" fill="none" stroke="black"/>
<path d="M164.909,29.0036v -8.57853" fill="none" stroke="black"/>
<path d="M172.846,24.7143v -4.28927" fill="none" stroke="black"/>
<path d="M180.783,24.7143v -4.28927" fill="none" stroke="black"/>
<path d="M188.72,24.7143v -4.28927" fill="none" stroke="black"/>
<path d="M196.657,24.7143v -4.28927" fill="none" stroke="black"/>
<path d="M204.594,29.0036v -8.57853" fill="none" stroke="black"/>
<path d="M212.531,24.7143v -4.28927" fill="none" stroke="black"/>
<path d="M220.469,24.7143v -4.28927" fill="none" stroke="black"/>
<path d="M228.406,24.7143v -4.28927" fill="none" stroke="black"/>
<path d="M236.343,24.7143v -4.28927" fill="none" stroke="black"/>
<path d="M244.28,29.0036v -8.57853" fill="none" stroke="black"/>
<path d="M252.217,24.7143v -4.28927" fill="none" stroke="black"/>
<path d="M260.154,24.7143v -4.28927" fill="none" stroke="black"/>
<path d="M268.091,24.7143v -4.28927" fill="none" stroke="black"/>
<path d="M276.028,24.7143v -4.28927" fill="none" stroke="black"/>
<path d="M283.965,29.0036v -8.57853" fill="none" stroke="black"/>
<path d="M291.902,24.7143v -4.28927" fill="none" stroke="black"/>
<path d="M299.839,24.7143v -4.28927" fill="none" stroke="black"/>
<path d="M307.776,24.7143v -4.28927" fill="none" stroke="black"/>
<path d="M315.713,24.7143v -4.28927" fill="none" stroke="black"/>
<path d="M323.65,29.0036v -8.57853" fill="none" stroke="black"/>
<path d="M331.587,24.7143v -4.28927" fill="none" stroke="black"/>
<path d="M339.524,24.7143v -4.28927" fill="none" stroke="black"/>
<path d="M347.461,24.7143v -4.28927" fill="none" stroke="black"/>
<path d="M355.398,24.7143v -4.28927" fill="none" stroke="black"/>
<path d="M363.335,29.0036v -8.57853" fill="none" stroke="black"/>
<path d="M371.272,24.7143v -4.28927" fill="none" stroke="black"/>
<path d="M379.209,24.7143v -4.28927" fill="none" stroke="black"/>
<path d="M387.146,24.7143v -4.28927" fill="none" stroke="black"/>
<path d="M395.083,24.7143v -4.28927" fill="none" stroke="black"/>
<path d="M403.02,29.0036v -8.57853" fill="none" stroke="black"/>
<path d="M410.957,24.7143v -4.28927" fill="none" stroke="black"/>
<path d="M418.894,24.7143v -4.28927" fill="none" stroke="black"/>
<path d="M426.831,24.7143v -4.28927" fill="none" stroke="black"/>
<path d="M434.768,24.7143v -4.28927" fill="none" stroke="black"/>
<path d="M442.705,29.0036v -8.57853" fill="none" stroke="black"/>
<path d="M450.642,24.7143v -4.28927" fill="none" stroke="black"/>
<path d="M458.579,24.7143v -4.28927" fill="none" stroke="black"/>
<path d="M466.516,24.7143v -4.28927" fill="none" stroke="black"/>
<path d="M474.453,24.7143v -4.28927" fill="none" stroke="black"/>
<path d="M482.39,29.0036v -8.57853" fill="none" stroke="black"/>
<path d="M85.5394,359.481v -339.056" fill="none" stroke="black"/>
<path d="M99.6559,359.481h -14.1165" fill="none" stroke="black"/>
<path d="M92.5976,351.005h -7.05827" fill="none" stroke="black"/>
<path d="M92.5976,342.529h -7.05827" fill="none" stroke="black"/>
<path d="M92.5976,334.052h -7.05827" fill="none" stroke="black"/>
<path d="M99.6559,325.576h -14.1165" fill="none" stroke="black"/>
<path d="M92.5976,317.099h -7.05827" fill="none" stroke="black"/>
<path d="M92.5976,308.623h -7.05827" fill="none" stroke="black"/>
<path d="M92.5976,300.147h -7.05827" fill="none" stroke="black"/>
<path d="M99.6559,291.67h -14.1165" fill="none" stroke="black"/>
<path d="M92.5976,283.194h -7.05827" fill="none" stroke="black"/>
<path d="M92.5976,274.717h -7.05827" fill="none" stroke="black"/>
<path d="M92.5976,266.241h -7.05827" fill="none" stroke="black"/>
<path d="M99.6559,257.764h -14.1165" fill="none" stroke="black"/>
<path d="M92.5976,249.288h -7.05827" fill="none" stroke="black"/>
<path d="M92.5976,240.812h -7.05827" fill="none" stroke="black"/>
<path d="M92.5976,232.335h -7.05827" fill="none" stroke="black"/>
<path d="M99.6559,223.859h -14.1165" fill="none" stroke="black"/>
<path d="M92.5976,215.382h -7.05827" fill="none" stroke="black"/>
<path d="M92.5976,206.906h -7.05827" fill="none" stroke="black"/>
<path d="M92.5976,198.43h -7.05827" fill="none" stroke="black"/>
<path d="M99.6559,189.953h -14.1165" fill="none" stroke="black"/>
<path d="M92.5976,181.477h -7.05827" fill="none" stroke="black"/>
<path d="M92.5976,173h -7.05827" fill="none" stroke="black"/>
<path d="M92.5976,164.524h -7.05827" fill="none" stroke="black"/>
<path d="M99.6559,156.048h -14.1165" fill="none" stroke="black"/>
<path d="M92.5976,147.571h -7.05827" fill="none" stroke="black"/>
<path d="M92.5976,139.095h -7.05827" fill="none" stroke="black"/>
<path d="M92.5976,130.618h -7.05827" fill="none" stroke="black"/>
<path d="M99.6559,122.142h -14.1165" fill="none" stroke="black"/>
<path d="M92.5976,113.666h -7.05827" fill="none" stroke="black"/>
<path d="M92.5976,105.189h -7.05827" fill="none" stroke="black"/>
<path d="M92.5976,96.7127h -7.05827" fill="none" stroke="black"/>
<path d="M99.6559,88.2363h -14.1165" fill="none" stroke="black"/>
<path d="M92.5976,79.7599h -7.05827" fill="none" stroke="black"/>
<path d="M92.5976,71.2835h -7.05827" fill="none" stroke="black"/>
<path d="M92.5976,62.8071h -7.05827" fill="none" stroke="black"/>
<path d="M99.6559,54.3307h -14.1165" fill="none" stroke="black"/>
<path d="M92.5976,45.8543h -7.05827" fill="none" stroke="black"/>
<path d="M92.5976,37.3779h -7.05827" fill="none" stroke="black"/>
<path d="M92.5976,28.9015h -7.05827" fill="none" stroke="black"/>
<path d="M99.6559,20.4251h -14.1165" fill="none" stroke="black"/>
<text xml:space="preserve" x="74.3855" y="365.165" fill="black" font-size="15.4909" font-family="Helvetica">0</text>
<text xml:space="preserve" x="49.5202" y="331.064" fill="black" font-size="15.4909" font-family="Helvetica">2000</text>
<text xml:space="preserve" x="49.5202" y="296.963" fill="black" font-size="15.4909" font-family="Helvetica">4000</text>
<text xml:space="preserve" x="49.5202" y="262.862" fill="black" font-size="15.4909" font-family="Helvetica">6000</text>
<text xml:space="preserve" x="49.5202" y="229.471" fill="black" font-size="15.4909" font-family="Helvetica">8000</text>
<text xml:space="preserve" x="40.9949" y="195.37" fill="black" font-size="15.4909" font-family="Helvetica">10000</text>
<text xml:space="preserve" x="40.9949" y="161.269" fill="black" font-size="15.4909" font-family="Helvetica">12000</text>
<text xml:space="preserve" x="40.9949" y="127.168" fill="black" font-size="15.4909" font-family="Helvetica">14000</text>
<text xml:space="preserve" x="40.9949" y="93.7778" fill="black" font-size="15.4909" font-family="Helvetica">16000</text>
<text xml:space="preserve" x="40.9949" y="59.6768" fill="black" font-size="15.4909" font-family="Helvetica">18000</text>
<text xml:space="preserve" x="40.9949" y="25.5758" fill="black" font-size="15.4909" font-family="Helvetica">20000</text>
<g transform="rotate(-90,22.5236,113.67)">
<text xml:space="preserve" x="22.5236" y="113.67" fill="black" font-size="19.2386" font-family="Helvetica"># of events</text>
</g>
<path d="M482.39,359.481v -339.056" fill="none" stroke="black"/>
<path d="M468.273,359.481h 14.1165" fill="none" stroke="black"/>
<path d="M475.332,351.005h 7.05827" fill="none" stroke="black"/>
<path d="M475.332,342.529h 7.05827" fill="none" stroke="black"/>
<path d="M475.332,334.052h 7.05827" fill="none" stroke="black"/>
<path d="M468.273,325.576h 14.1165" fill="none" stroke="black"/>
<path d="M475.332,317.099h 7.05827" fill="none" stroke="black"/>
<path d="M475.332,308.623h 7.05827" fill="none" stroke="black"/>
<path d="M475.332,300.147h 7.05827" fill="none" stroke="black"/>
<path d="M468.273,291.67h 14.1165" fill="none" stroke="black"/>
<path d="M475.332,283.194h 7.05827" fill="none" stroke="black"/>
<path d="M475.332,274.717h 7.05827" fill="none" stroke="black"/>
<path d="M475.332,266.241h 7.05827" fill="none" stroke="black"/>
<path d="M468.273,257.764h 14.1165" fill="none" stroke="black"/>
<path d="M475.332,249.288h 7.05827" fill="none" stroke="black"/>
<path d="M475.332,240.812h 7.05827" fill="none" stroke="black"/>
<path d="M475.332,232.335h 7.05827" fill="none" stroke="black"/>
<path d="M468.273,223.859h 14.1165" fill="none" stroke="black"/>
<path d="M475.332,215.382h 7.05827" fill="none" stroke="black"/>
<path d="M475.332,206.906h 7.05827" fill="none" stroke="black"/>
<path d="M475.332,198.43h 7.05827" fill="none" stroke="black"/>
<path d="M468.273,189.953h 14.1165" fill="none" stroke="black"/>
<path d="M475.332,181.477h 7.05827" fill="none" stroke="black"/>
<path d="M475.332,173h 7.05827" fill="none" stroke="black"/>
<path d="M475.332,164.524h 7.05827" fill="none" stroke="black"/>
<path d="M468.273,156.048h 14.1165" fill="none" stroke="black"/>
<path d="M475.332,147.571h 7.05827" fill="none" stroke="black"/>
<path d="M475.332,139.095h 7.05827" fill="none" stroke="black"/>
<path d="M475.332,130.618h 7.05827" fill="none" stroke="black"/>
<path d="M468.273,122.142h 14.1165" fill="none" stroke="black"/>
<path d="M475.332,113.666h 7.05827" fill="none" stroke="black"/>
<path d="M475.332,105.189h 7.05827" fill="none" stroke="black"/>
<path d="M475.332,96.7127h 7.05827" fill="none" stroke="black"/>
<path d="M468.273,88.2363h 14.1165" fill="none" stroke="black"/>
<path d="M475.332,79.7599h 7.05827" fill="none" stroke="black"/>
<path d="M475.332,71.2835h 7.05827" fill="none" stroke="black"/>
<path d="M475.332,62.8071h 7.05827" fill="none" stroke="black"/>
<path d="M468.273,54.3307h 14.1165" fill="none" stroke="black"/>
<path d="M475.332,45.8543h 7.05827" fill="none" stroke="black"/>
<path d="M475.332,37.3779h 7.05827" fill="none" stroke="black"/>
<path d="M475.332,28.9015h 7.05827" fill="none" stroke="black"/>
<path d="M468.273,20.4251h 14.1165" fill="none" stroke="black"/>
<path d="M85.5394,190.004h 17.0008" fill="none" stroke="black"/>
<path d="M108.224,190.004h 17.0008" fill="none" stroke="black"/>
<g fill="black">
<polygon points=" 104.435, 189.057 104.435, 187.162 106.329, 187.162 106.329, 189.057 108.224, 189.057 108.224, 190.951 106.329, 190.951 106.329, 192.846 104.435, 192.846 104.435, 190.951 102.54, 190.951 102.54, 189.057"/>
</g>
<path d="M125.224,190.106h 17.0008" fill="none" stroke="black"/>
<path d="M147.909,190.106h 17.0008" fill="none" stroke="black"/>
<g fill="black">
<polygon points=" 144.12, 189.159 144.12, 187.264 146.014, 187.264 146.014, 189.159 147.909, 189.159 147.909, 191.053 146.014, 191.053 146.014, 192.948 144.12, 192.948 144.12, 191.053 142.225, 191.053 142.225, 189.159"/>
</g>
<path d="M164.909,189.885h 17.0008" fill="none" stroke="black"/>
<path d="M187.594,189.885h 17.0008" fill="none" stroke="black"/>
<g fill="black">
<polygon points=" 183.805, 188.938 183.805, 187.044 185.699, 187.044 185.699, 188.938 187.594, 188.938 187.594, 190.833 185.699, 190.833 185.699, 192.727 183.805, 192.727 183.805, 190.833 181.91, 190.833 181.91, 188.938"/>
</g>
<path d="M204.594,189.936h 17.0008" fill="none" stroke="black"/>
<path d="M227.279,189.936h 17.0008" fill="none" stroke="black"/>
<g fill="black">
<polygon points=" 223.49, 188.989 223.49, 187.095 225.384, 187.095 225.384, 188.989 227.279, 188.989 227.279, 190.884 225.384, 190.884 225.384, 192.778 223.49, 192.778 223.49, 190.884 221.595, 190.884 221.595, 188.989"/>
</g>
<path d="M244.28,190.258h 17.0008" fill="none" stroke="black"/>
<path d="M266.964,190.258h 17.0008" fill="none" stroke="black"/>
<g fill="black">
<polygon points=" 263.175, 189.311 263.175, 187.417 265.069, 187.417 265.069, 189.311 266.964, 189.311 266.964, 191.206 265.069, 191.206 265.069, 193.1 263.175, 193.1 263.175, 191.206 261.28, 191.206 261.28, 189.311"/>
</g>
<path d="M283.965,190.021h 17.0008" fill="none" stroke="black"/>
<path d="M306.649,190.021h 17.0008" fill="none" stroke="black"/>
<g fill="black">
<polygon points=" 302.86, 189.074 302.86, 187.179 304.754, 187.179 304.754, 189.074 306.649, 189.074 306.649, 190.968 304.754, 190.968 304.754, 192.863 302.86, 192.863 302.86, 190.968 300.965, 190.968 300.965, 189.074"/>
</g>
<path d="M323.65,189.597h 17.0008" fill="none" stroke="black"/>
<path d="M346.334,189.597h 17.0008" fill="none" stroke="black"/>
<g fill="black">
<polygon points=" 342.545, 188.65 342.545, 186.755 344.439, 186.755 344.439, 188.65 346.334, 188.65 346.334, 190.544 344.439, 190.544 344.439, 192.439 342.545, 192.439 342.545, 190.544 340.65, 190.544 340.65, 188.65"/>
</g>
<path d="M363.335,190.174h 17.0008" fill="none" stroke="black"/>
<path d="M386.019,190.174h 17.0008" fill="none" stroke="black"/>
<g fill="black">
<polygon points=" 382.23, 189.226 382.23, 187.332 384.124, 187.332 384.124, 189.226 386.019, 189.226 386.019, 191.121 384.124, 191.121 384.124, 193.015 382.23, 193.015 382.23, 191.121 380.335, 191.121 380.335, 189.226"/>
</g>
<path d="M403.02,189.716h 17.0008" fill="none" stroke="black"/>
<path d="M425.704,189.716h 17.0008" fill="none" stroke="black"/>
<g fill="black">
<polygon points=" 421.915, 188.769 421.915, 186.874 423.809, 186.874 423.809, 188.769 425.704, 188.769 425.704, 190.663 423.809, 190.663 423.809, 192.558 421.915, 192.558 421.915, 190.663 420.02, 190.663 420.02, 188.769"/>
</g>
<path d="M442.705,255.459h 17.0008" fill="none" stroke="black"/>
<path d="M465.389,255.459h 17.0008" fill="none" stroke="black"/>
<g fill="black">
<polygon points=" 461.6, 254.512 461.6, 252.617 463.495, 252.617 463.495, 254.512 465.389, 254.512 465.389, 256.406 463.495, 256.406 463.495, 258.301 461.6, 258.301 461.6, 256.406 459.706, 256.406 459.706, 254.512"/>
</g>
<text xml:space="preserve" x="270.466" y="43.3367" fill="black" font-size="15.4909" font-family="Helvetica">PYTHIA8</text>
<text xml:space="preserve" x="270.466" y="63.2289" fill="black" font-size="15.4909" font-family="Helvetica">p+Au 200 GeV</text>
<text xml:space="preserve" x="270.466" y="83.8316" fill="black" font-size="15.4909" font-family="Helvetica">option = 3(No diffraction)</text>
<text xml:space="preserve" x="270.466" y="104.434" fill="black" font-size="15.4909" font-family="Helvetica">100,000 events</text>
<text xml:space="preserve" x="270.466" y="125.037" fill="black" font-size="15.4909" font-family="Helvetica">centrality categorization check</text>
<text xml:space="preserve" x="270.466" y="144.929" fill="black" font-size="15.4909" font-family="Helvetica">inelastic events</text></svg>
