<?xml version="1.0" standalone="no"?>
<svg width="567.429" height="409.002" viewBox="0 0 567.429 409.002" xmlns="http://www.w3.org/2000/svg" shape-rendering="crispEdges">
<title>
/Users/jinhyunpark/npl/gitHub/xloadFromServer/Git_Bias_correction_RxA/plots/centCheckHis_INEL_fixed.svg
</title>
<desc>
Creator: ROOT Version 6.26/06
CreationDate: Fri Mar 10 09:12:28 2023</desc>
<defs>
</defs>
<rect x="0.5" y="0" width="566.929" height="408.502" fill="white"/>
<rect x="85.5394" y="20.4251" width="396.85" height="339.056" fill="white"/>
<rect x="85.5394" y="20.4251" width="396.85" height="339.056" fill="none" stroke="black"/>
<rect x="85.5394" y="20.4251" width="396.85" height="339.056" fill="white"/>
<rect x="85.5394" y="20.4251" width="396.85" height="339.056" fill="none" stroke="black"/>
<path d="M85.5394,359.481h 396.85" fill="none" stroke="black"/>
<path d="M85.5394,350.903v 8.57853" fill="none" stroke="black"/>
<path d="M93.4764,355.192v 4.28927" fill="none" stroke="black"/>
<path d="M101.413,355.192v 4.28927" fill="none" stroke="black"/>
<path d="M109.35,355.192v 4.28927" fill="none" stroke="black"/>
<path d="M117.287,355.192v 4.28927" fill="none" stroke="black"/>
<path d="M125.224,350.903v 8.57853" fill="none" stroke="black"/>
<path d="M133.161,355.192v 4.28927" fill="none" stroke="black"/>
<path d="M141.098,355.192v 4.28927" fill="none" stroke="black"/>
<path d="M149.035,355.192v 4.28927" fill="none" stroke="black"/>
<path d="M156.972,355.192v 4.28927" fill="none" stroke="black"/>
<path d="M164.909,350.903v 8.57853" fill="none" stroke="black"/>
<path d="M172.846,355.192v 4.28927" fill="none" stroke="black"/>
<path d="M180.783,355.192v 4.28927" fill="none" stroke="black"/>
<path d="M188.72,355.192v 4.28927" fill="none" stroke="black"/>
<path d="M196.657,355.192v 4.28927" fill="none" stroke="black"/>
<path d="M204.594,350.903v 8.57853" fill="none" stroke="black"/>
<path d="M212.531,355.192v 4.28927" fill="none" stroke="black"/>
<path d="M220.469,355.192v 4.28927" fill="none" stroke="black"/>
<path d="M228.406,355.192v 4.28927" fill="none" stroke="black"/>
<path d="M236.343,355.192v 4.28927" fill="none" stroke="black"/>
<path d="M244.28,350.903v 8.57853" fill="none" stroke="black"/>
<path d="M252.217,355.192v 4.28927" fill="none" stroke="black"/>
<path d="M260.154,355.192v 4.28927" fill="none" stroke="black"/>
<path d="M268.091,355.192v 4.28927" fill="none" stroke="black"/>
<path d="M276.028,355.192v 4.28927" fill="none" stroke="black"/>
<path d="M283.965,350.903v 8.57853" fill="none" stroke="black"/>
<path d="M291.902,355.192v 4.28927" fill="none" stroke="black"/>
<path d="M299.839,355.192v 4.28927" fill="none" stroke="black"/>
<path d="M307.776,355.192v 4.28927" fill="none" stroke="black"/>
<path d="M315.713,355.192v 4.28927" fill="none" stroke="black"/>
<path d="M323.65,350.903v 8.57853" fill="none" stroke="black"/>
<path d="M331.587,355.192v 4.28927" fill="none" stroke="black"/>
<path d="M339.524,355.192v 4.28927" fill="none" stroke="black"/>
<path d="M347.461,355.192v 4.28927" fill="none" stroke="black"/>
<path d="M355.398,355.192v 4.28927" fill="none" stroke="black"/>
<path d="M363.335,350.903v 8.57853" fill="none" stroke="black"/>
<path d="M371.272,355.192v 4.28927" fill="none" stroke="black"/>
<path d="M379.209,355.192v 4.28927" fill="none" stroke="black"/>
<path d="M387.146,355.192v 4.28927" fill="none" stroke="black"/>
<path d="M395.083,355.192v 4.28927" fill="none" stroke="black"/>
<path d="M403.02,350.903v 8.57853" fill="none" stroke="black"/>
<path d="M410.957,355.192v 4.28927" fill="none" stroke="black"/>
<path d="M418.894,355.192v 4.28927" fill="none" stroke="black"/>
<path d="M426.831,355.192v 4.28927" fill="none" stroke="black"/>
<path d="M434.768,355.192v 4.28927" fill="none" stroke="black"/>
<path d="M442.705,350.903v 8.57853" fill="none" stroke="black"/>
<path d="M450.642,355.192v 4.28927" fill="none" stroke="black"/>
<path d="M458.579,355.192v 4.28927" fill="none" stroke="black"/>
<path d="M466.516,355.192v 4.28927" fill="none" stroke="black"/>
<path d="M474.453,355.192v 4.28927" fill="none" stroke="black"/>
<path d="M482.39,350.903v 8.57853" fill="none" stroke="black"/>
<text xml:space="preserve" x="80.7794" y="374.401" fill="black" font-size="15.4909" font-family="Helvetica">0</text>
<text xml:space="preserve" x="116.301" y="374.401" fill="black" font-size="15.4909" font-family="Helvetica">10</text>
<text xml:space="preserve" x="156.086" y="374.401" fill="black" font-size="15.4909" font-family="Helvetica">20</text>
<text xml:space="preserve" x="195.87" y="374.401" fill="black" font-size="15.4909" font-family="Helvetica">30</text>
<text xml:space="preserve" x="235.655" y="374.401" fill="black" font-size="15.4909" font-family="Helvetica">40</text>
<text xml:space="preserve" x="275.439" y="374.401" fill="black" font-size="15.4909" font-family="Helvetica">50</text>
<text xml:space="preserve" x="314.513" y="374.401" fill="black" font-size="15.4909" font-family="Helvetica">60</text>
<text xml:space="preserve" x="354.298" y="374.401" fill="black" font-size="15.4909" font-family="Helvetica">70</text>
<text xml:space="preserve" x="394.082" y="374.401" fill="black" font-size="15.4909" font-family="Helvetica">80</text>
<text xml:space="preserve" x="433.867" y="374.401" fill="black" font-size="15.4909" font-family="Helvetica">90</text>
<text xml:space="preserve" x="470.099" y="374.401" fill="black" font-size="15.4909" font-family="Helvetica">100</text>
<text xml:space="preserve" x="405.449" y="400.687" fill="black" font-size="19.2386" font-family="Helvetica">centrality</text>
<path d="M85.5394,20.4251h 396.85" fill="none" stroke="black"/>
<path d="M85.5394,29.0036v -8.57853" fill="none" stroke="black"/>
<path d="M93.4764,24.7143v -4.28927" fill="none" stroke="black"/>
<path d="M101.413,24.7143v -4.28927" fill="none" stroke="black"/>
<path d="M109.35,24.7143v -4.28927" fill="none" stroke="black"/>
<path d="M117.287,24.7143v -4.28927" fill="none" stroke="black"/>
<path d="M125.224,29.0036v -8.57853" fill="none" stroke="black"/>
<path d="M133.161,24.7143v -4.28927" fill="none" stroke="black"/>
<path d="M141.098,24.7143v -4.28927" fill="none" stroke="black"/>
<path d="M149.035,24.7143v -4.28927" fill="none" stroke="black"/>
<path d="M156.972,24.7143v -4.28927" fill="none" stroke="black"/>
<path d="M164.909,29.0036v -8.57853" fill="none" stroke="black"/>
<path d="M172.846,24.7143v -4.28927" fill="none" stroke="black"/>
<path d="M180.783,24.7143v -4.28927" fill="none" stroke="black"/>
<path d="M188.72,24.7143v -4.28927" fill="none" stroke="black"/>
<path d="M196.657,24.7143v -4.28927" fill="none" stroke="black"/>
<path d="M204.594,29.0036v -8.57853" fill="none" stroke="black"/>
<path d="M212.531,24.7143v -4.28927" fill="none" stroke="black"/>
<path d="M220.469,24.7143v -4.28927" fill="none" stroke="black"/>
<path d="M228.406,24.7143v -4.28927" fill="none" stroke="black"/>
<path d="M236.343,24.7143v -4.28927" fill="none" stroke="black"/>
<path d="M244.28,29.0036v -8.57853" fill="none" stroke="black"/>
<path d="M252.217,24.7143v -4.28927" fill="none" stroke="black"/>
<path d="M260.154,24.7143v -4.28927" fill="none" stroke="black"/>
<path d="M268.091,24.7143v -4.28927" fill="none" stroke="black"/>
<path d="M276.028,24.7143v -4.28927" fill="none" stroke="black"/>
<path d="M283.965,29.0036v -8.57853" fill="none" stroke="black"/>
<path d="M291.902,24.7143v -4.28927" fill="none" stroke="black"/>
<path d="M299.839,24.7143v -4.28927" fill="none" stroke="black"/>
<path d="M307.776,24.7143v -4.28927" fill="none" stroke="black"/>
<path d="M315.713,24.7143v -4.28927" fill="none" stroke="black"/>
<path d="M323.65,29.0036v -8.57853" fill="none" stroke="black"/>
<path d="M331.587,24.7143v -4.28927" fill="none" stroke="black"/>
<path d="M339.524,24.7143v -4.28927" fill="none" stroke="black"/>
<path d="M347.461,24.7143v -4.28927" fill="none" stroke="black"/>
<path d="M355.398,24.7143v -4.28927" fill="none" stroke="black"/>
<path d="M363.335,29.0036v -8.57853" fill="none" stroke="black"/>
<path d="M371.272,24.7143v -4.28927" fill="none" stroke="black"/>
<path d="M379.209,24.7143v -4.28927" fill="none" stroke="black"/>
<path d="M387.146,24.7143v -4.28927" fill="none" stroke="black"/>
<path d="M395.083,24.7143v -4.28927" fill="none" stroke="black"/>
<path d="M403.02,29.0036v -8.57853" fill="none" stroke="black"/>
<path d="M410.957,24.7143v -4.28927" fill="none" stroke="black"/>
<path d="M418.894,24.7143v -4.28927" fill="none" stroke="black"/>
<path d="M426.831,24.7143v -4.28927" fill="none" stroke="black"/>
<path d="M434.768,24.7143v -4.28927" fill="none" stroke="black"/>
<path d="M442.705,29.0036v -8.57853" fill="none" stroke="black"/>
<path d="M450.642,24.7143v -4.28927" fill="none" stroke="black"/>
<path d="M458.579,24.7143v -4.28927" fill="none" stroke="black"/>
<path d="M466.516,24.7143v -4.28927" fill="none" stroke="black"/>
<path d="M474.453,24.7143v -4.28927" fill="none" stroke="black"/>
<path d="M482.39,29.0036v -8.57853" fill="none" stroke="black"/>
<path d="M85.5394,359.481v -339.056" fill="none" stroke="black"/>
<path d="M99.6559,359.481h -14.1165" fill="none" stroke="black"/>
<path d="M92.5976,351.005h -7.05827" fill="none" stroke="black"/>
<path d="M92.5976,342.529h -7.05827" fill="none" stroke="black"/>
<path d="M92.5976,334.052h -7.05827" fill="none" stroke="black"/>
<path d="M99.6559,325.576h -14.1165" fill="none" stroke="black"/>
<path d="M92.5976,317.099h -7.05827" fill="none" stroke="black"/>
<path d="M92.5976,308.623h -7.05827" fill="none" stroke="black"/>
<path d="M92.5976,300.147h -7.05827" fill="none" stroke="black"/>
<path d="M99.6559,291.67h -14.1165" fill="none" stroke="black"/>
<path d="M92.5976,283.194h -7.05827" fill="none" stroke="black"/>
<path d="M92.5976,274.717h -7.05827" fill="none" stroke="black"/>
<path d="M92.5976,266.241h -7.05827" fill="none" stroke="black"/>
<path d="M99.6559,257.764h -14.1165" fill="none" stroke="black"/>
<path d="M92.5976,249.288h -7.05827" fill="none" stroke="black"/>
<path d="M92.5976,240.812h -7.05827" fill="none" stroke="black"/>
<path d="M92.5976,232.335h -7.05827" fill="none" stroke="black"/>
<path d="M99.6559,223.859h -14.1165" fill="none" stroke="black"/>
<path d="M92.5976,215.382h -7.05827" fill="none" stroke="black"/>
<path d="M92.5976,206.906h -7.05827" fill="none" stroke="black"/>
<path d="M92.5976,198.43h -7.05827" fill="none" stroke="black"/>
<path d="M99.6559,189.953h -14.1165" fill="none" stroke="black"/>
<path d="M92.5976,181.477h -7.05827" fill="none" stroke="black"/>
<path d="M92.5976,173h -7.05827" fill="none" stroke="black"/>
<path d="M92.5976,164.524h -7.05827" fill="none" stroke="black"/>
<path d="M99.6559,156.048h -14.1165" fill="none" stroke="black"/>
<path d="M92.5976,147.571h -7.05827" fill="none" stroke="black"/>
<path d="M92.5976,139.095h -7.05827" fill="none" stroke="black"/>
<path d="M92.5976,130.618h -7.05827" fill="none" stroke="black"/>
<path d="M99.6559,122.142h -14.1165" fill="none" stroke="black"/>
<path d="M92.5976,113.666h -7.05827" fill="none" stroke="black"/>
<path d="M92.5976,105.189h -7.05827" fill="none" stroke="black"/>
<path d="M92.5976,96.7127h -7.05827" fill="none" stroke="black"/>
<path d="M99.6559,88.2363h -14.1165" fill="none" stroke="black"/>
<path d="M92.5976,79.7599h -7.05827" fill="none" stroke="black"/>
<path d="M92.5976,71.2835h -7.05827" fill="none" stroke="black"/>
<path d="M92.5976,62.8071h -7.05827" fill="none" stroke="black"/>
<path d="M99.6559,54.3307h -14.1165" fill="none" stroke="black"/>
<path d="M92.5976,45.8543h -7.05827" fill="none" stroke="black"/>
<path d="M92.5976,37.3779h -7.05827" fill="none" stroke="black"/>
<path d="M92.5976,28.9015h -7.05827" fill="none" stroke="black"/>
<path d="M99.6559,20.4251h -14.1165" fill="none" stroke="black"/>
<text xml:space="preserve" x="74.3855" y="365.165" fill="black" font-size="15.4909" font-family="Helvetica">0</text>
<text xml:space="preserve" x="49.5202" y="331.064" fill="black" font-size="15.4909" font-family="Helvetica">2000</text>
<text xml:space="preserve" x="49.5202" y="296.963" fill="black" font-size="15.4909" font-family="Helvetica">4000</text>
<text xml:space="preserve" x="49.5202" y="262.862" fill="black" font-size="15.4909" font-family="Helvetica">6000</text>
<text xml:space="preserve" x="49.5202" y="229.471" fill="black" font-size="15.4909" font-family="Helvetica">8000</text>
<text xml:space="preserve" x="40.9949" y="195.37" fill="black" font-size="15.4909" font-family="Helvetica">10000</text>
<text xml:space="preserve" x="40.9949" y="161.269" fill="black" font-size="15.4909" font-family="Helvetica">12000</text>
<text xml:space="preserve" x="40.9949" y="127.168" fill="black" font-size="15.4909" font-family="Helvetica">14000</text>
<text xml:space="preserve" x="40.9949" y="93.7778" fill="black" font-size="15.4909" font-family="Helvetica">16000</text>
<text xml:space="preserve" x="40.9949" y="59.6768" fill="black" font-size="15.4909" font-family="Helvetica">18000</text>
<text xml:space="preserve" x="40.9949" y="25.5758" fill="black" font-size="15.4909" font-family="Helvetica">20000</text>
<g transform="rotate(-90,22.5236,113.67)">
<text xml:space="preserve" x="22.5236" y="113.67" fill="black" font-size="19.2386" font-family="Helvetica"># of events</text>
</g>
<path d="M482.39,359.481v -339.056" fill="none" stroke="black"/>
<path d="M468.273,359.481h 14.1165" fill="none" stroke="black"/>
<path d="M475.332,351.005h 7.05827" fill="none" stroke="black"/>
<path d="M475.332,342.529h 7.05827" fill="none" stroke="black"/>
<path d="M475.332,334.052h 7.05827" fill="none" stroke="black"/>
<path d="M468.273,325.576h 14.1165" fill="none" stroke="black"/>
<path d="M475.332,317.099h 7.05827" fill="none" stroke="black"/>
<path d="M475.332,308.623h 7.05827" fill="none" stroke="black"/>
<path d="M475.332,300.147h 7.05827" fill="none" stroke="black"/>
<path d="M468.273,291.67h 14.1165" fill="none" stroke="black"/>
<path d="M475.332,283.194h 7.05827" fill="none" stroke="black"/>
<path d="M475.332,274.717h 7.05827" fill="none" stroke="black"/>
<path d="M475.332,266.241h 7.05827" fill="none" stroke="black"/>
<path d="M468.273,257.764h 14.1165" fill="none" stroke="black"/>
<path d="M475.332,249.288h 7.05827" fill="none" stroke="black"/>
<path d="M475.332,240.812h 7.05827" fill="none" stroke="black"/>
<path d="M475.332,232.335h 7.05827" fill="none" stroke="black"/>
<path d="M468.273,223.859h 14.1165" fill="none" stroke="black"/>
<path d="M475.332,215.382h 7.05827" fill="none" stroke="black"/>
<path d="M475.332,206.906h 7.05827" fill="none" stroke="black"/>
<path d="M475.332,198.43h 7.05827" fill="none" stroke="black"/>
<path d="M468.273,189.953h 14.1165" fill="none" stroke="black"/>
<path d="M475.332,181.477h 7.05827" fill="none" stroke="black"/>
<path d="M475.332,173h 7.05827" fill="none" stroke="black"/>
<path d="M475.332,164.524h 7.05827" fill="none" stroke="black"/>
<path d="M468.273,156.048h 14.1165" fill="none" stroke="black"/>
<path d="M475.332,147.571h 7.05827" fill="none" stroke="black"/>
<path d="M475.332,139.095h 7.05827" fill="none" stroke="black"/>
<path d="M475.332,130.618h 7.05827" fill="none" stroke="black"/>
<path d="M468.273,122.142h 14.1165" fill="none" stroke="black"/>
<path d="M475.332,113.666h 7.05827" fill="none" stroke="black"/>
<path d="M475.332,105.189h 7.05827" fill="none" stroke="black"/>
<path d="M475.332,96.7127h 7.05827" fill="none" stroke="black"/>
<path d="M468.273,88.2363h 14.1165" fill="none" stroke="black"/>
<path d="M475.332,79.7599h 7.05827" fill="none" stroke="black"/>
<path d="M475.332,71.2835h 7.05827" fill="none" stroke="black"/>
<path d="M475.332,62.8071h 7.05827" fill="none" stroke="black"/>
<path d="M468.273,54.3307h 14.1165" fill="none" stroke="black"/>
<path d="M475.332,45.8543h 7.05827" fill="none" stroke="black"/>
<path d="M475.332,37.3779h 7.05827" fill="none" stroke="black"/>
<path d="M475.332,28.9015h 7.05827" fill="none" stroke="black"/>
<path d="M468.273,20.4251h 14.1165" fill="none" stroke="black"/>
<path d="M85.5394,196.565h 18.4216" fill="none" stroke="#59d354"/>
<path d="M106.803,196.565h 18.4216" fill="none" stroke="#59d354"/>
<g fill="#59d354">
<polygon points=" 105.382, 193.723 107.276, 196.565 105.382, 199.407 103.487, 196.565"/>
</g>
<path d="M125.224,196.667h 18.4216" fill="none" stroke="#59d354"/>
<path d="M146.488,196.667h 18.4216" fill="none" stroke="#59d354"/>
<g fill="#59d354">
<polygon points=" 145.067, 193.825 146.961, 196.667 145.067, 199.508 143.172, 196.667"/>
</g>
<path d="M164.909,196.361h 18.4216" fill="none" stroke="#59d354"/>
<path d="M186.173,196.361h 18.4216" fill="none" stroke="#59d354"/>
<g fill="#59d354">
<polygon points=" 184.752, 193.52 186.646, 196.361 184.752, 199.203 182.857, 196.361"/>
</g>
<path d="M204.594,196.633h 18.4216" fill="none" stroke="#59d354"/>
<path d="M225.858,196.633h 18.4216" fill="none" stroke="#59d354"/>
<g fill="#59d354">
<polygon points=" 224.437, 193.791 226.332, 196.633 224.437, 199.474 222.543, 196.633"/>
</g>
<path d="M244.28,196.565h 18.4216" fill="none" stroke="#59d354"/>
<path d="M265.543,196.565h 18.4216" fill="none" stroke="#59d354"/>
<g fill="#59d354">
<polygon points=" 264.122, 193.723 266.017, 196.565 264.122, 199.407 262.228, 196.565"/>
</g>
<path d="M283.965,196.582h 18.4216" fill="none" stroke="#59d354"/>
<path d="M305.228,196.582h 18.4216" fill="none" stroke="#59d354"/>
<g fill="#59d354">
<polygon points=" 303.807, 193.74 305.702, 196.582 303.807, 199.424 301.913, 196.582"/>
</g>
<path d="M323.65,196.48h 18.4216" fill="none" stroke="#59d354"/>
<path d="M344.913,196.48h 18.4216" fill="none" stroke="#59d354"/>
<g fill="#59d354">
<polygon points=" 343.492, 193.638 345.387, 196.48 343.492, 199.322 341.598, 196.48"/>
</g>
<path d="M363.335,196.768h 18.4216" fill="none" stroke="#59d354"/>
<path d="M384.598,196.768h 18.4216" fill="none" stroke="#59d354"/>
<g fill="#59d354">
<polygon points=" 383.177, 193.927 385.072, 196.768 383.177, 199.61 381.283, 196.768"/>
</g>
<path d="M403.02,196.412h 18.4216" fill="none" stroke="#59d354"/>
<path d="M424.283,196.412h 18.4216" fill="none" stroke="#59d354"/>
<g fill="#59d354">
<polygon points=" 422.862, 193.571 424.757, 196.412 422.862, 199.254 420.968, 196.412"/>
</g>
<path d="M442.705,196.124h 18.4216" fill="none" stroke="#59d354"/>
<path d="M463.968,196.124h 18.4216" fill="none" stroke="#59d354"/>
<g fill="#59d354">
<polygon points=" 462.547, 193.282 464.442, 196.124 462.547, 198.966 460.653, 196.124"/>
</g>
<text xml:space="preserve" x="270.466" y="43.3367" fill="black" font-size="15.4909" font-family="Helvetica">PYTHIA8</text>
<text xml:space="preserve" x="270.466" y="63.2289" fill="black" font-size="15.4909" font-family="Helvetica">p+Au 200 GeV</text>
<text xml:space="preserve" x="270.466" y="83.8316" fill="black" font-size="15.4909" font-family="Helvetica">option = 3(No diffraction)</text>
<text xml:space="preserve" x="270.466" y="104.434" fill="black" font-size="15.4909" font-family="Helvetica">Total 100,000 events</text>
<text xml:space="preserve" x="270.466" y="125.037" fill="black" font-size="15.4909" font-family="Helvetica">inelastic# : 96,129</text>
<text xml:space="preserve" x="270.466" y="144.929" fill="black" font-size="15.4909" font-family="Helvetica">centrality categorization check</text></svg>
