<?xml version="1.0" standalone="no"?>
<svg width="567.429" height="409.002" viewBox="0 0 567.429 409.002" xmlns="http://www.w3.org/2000/svg" shape-rendering="crispEdges">
<title>
/Users/jinhyunpark/npl/gitHub/xloadFromServer/Git_Bias_correction_RxA/plots/dNdeta_Ncoll1_opt3.svg
</title>
<desc>
Creator: ROOT Version 6.26/06
CreationDate: Mon Apr  3 18:15:52 2023</desc>
<defs>
</defs>
<rect x="0.5" y="0" width="566.929" height="408.502" fill="white"/>
<rect x="85.5394" y="20.4251" width="396.85" height="339.056" fill="white"/>
<rect x="85.5394" y="20.4251" width="396.85" height="339.056" fill="none" stroke="black"/>
<rect x="85.5394" y="20.4251" width="396.85" height="339.056" fill="white"/>
<rect x="85.5394" y="20.4251" width="396.85" height="339.056" fill="none" stroke="black"/>
<path d="M85.5394,359.481h 396.85" fill="none" stroke="black"/>
<path d="M85.5394,350.903v 8.57853" fill="none" stroke="black"/>
<path d="M102.075,355.192v 4.28927" fill="none" stroke="black"/>
<path d="M118.61,355.192v 4.28927" fill="none" stroke="black"/>
<path d="M135.146,355.192v 4.28927" fill="none" stroke="black"/>
<path d="M151.681,350.903v 8.57853" fill="none" stroke="black"/>
<path d="M168.217,355.192v 4.28927" fill="none" stroke="black"/>
<path d="M184.752,355.192v 4.28927" fill="none" stroke="black"/>
<path d="M201.287,355.192v 4.28927" fill="none" stroke="black"/>
<path d="M217.823,350.903v 8.57853" fill="none" stroke="black"/>
<path d="M234.358,355.192v 4.28927" fill="none" stroke="black"/>
<path d="M250.894,355.192v 4.28927" fill="none" stroke="black"/>
<path d="M267.429,355.192v 4.28927" fill="none" stroke="black"/>
<path d="M283.965,350.903v 8.57853" fill="none" stroke="black"/>
<path d="M300.5,355.192v 4.28927" fill="none" stroke="black"/>
<path d="M317.035,355.192v 4.28927" fill="none" stroke="black"/>
<path d="M333.571,355.192v 4.28927" fill="none" stroke="black"/>
<path d="M350.106,350.903v 8.57853" fill="none" stroke="black"/>
<path d="M366.642,355.192v 4.28927" fill="none" stroke="black"/>
<path d="M383.177,355.192v 4.28927" fill="none" stroke="black"/>
<path d="M399.713,355.192v 4.28927" fill="none" stroke="black"/>
<path d="M416.248,350.903v 8.57853" fill="none" stroke="black"/>
<path d="M432.783,355.192v 4.28927" fill="none" stroke="black"/>
<path d="M449.319,355.192v 4.28927" fill="none" stroke="black"/>
<path d="M465.854,355.192v 4.28927" fill="none" stroke="black"/>
<path d="M482.39,350.903v 8.57853" fill="none" stroke="black"/>
<text xml:space="preserve" x="85.0421" y="374.401" fill="black" font-size="15.4909" font-family="Helvetica">6</text>
<text xml:space="preserve" x="76.5168" y="374.401" fill="black" font-size="15.4909" font-family="Times">&#8722;</text>
<text xml:space="preserve" x="151.113" y="374.401" fill="black" font-size="15.4909" font-family="Helvetica">4</text>
<text xml:space="preserve" x="142.588" y="374.401" fill="black" font-size="15.4909" font-family="Times">&#8722;</text>
<text xml:space="preserve" x="217.183" y="374.401" fill="black" font-size="15.4909" font-family="Helvetica">2</text>
<text xml:space="preserve" x="208.658" y="374.401" fill="black" font-size="15.4909" font-family="Times">&#8722;</text>
<text xml:space="preserve" x="279.702" y="374.401" fill="black" font-size="15.4909" font-family="Helvetica">0</text>
<text xml:space="preserve" x="345.773" y="374.401" fill="black" font-size="15.4909" font-family="Helvetica">2</text>
<text xml:space="preserve" x="411.843" y="374.401" fill="black" font-size="15.4909" font-family="Helvetica">4</text>
<text xml:space="preserve" x="477.914" y="374.401" fill="black" font-size="15.4909" font-family="Helvetica">6</text>
<text xml:space="preserve" x="471.52" y="398.555" fill="black" font-size="19.2386" font-family="Times">&#0951;</text>
<path d="M85.5394,20.4251h 396.85" fill="none" stroke="black"/>
<path d="M85.5394,29.0036v -8.57853" fill="none" stroke="black"/>
<path d="M102.075,24.7143v -4.28927" fill="none" stroke="black"/>
<path d="M118.61,24.7143v -4.28927" fill="none" stroke="black"/>
<path d="M135.146,24.7143v -4.28927" fill="none" stroke="black"/>
<path d="M151.681,29.0036v -8.57853" fill="none" stroke="black"/>
<path d="M168.217,24.7143v -4.28927" fill="none" stroke="black"/>
<path d="M184.752,24.7143v -4.28927" fill="none" stroke="black"/>
<path d="M201.287,24.7143v -4.28927" fill="none" stroke="black"/>
<path d="M217.823,29.0036v -8.57853" fill="none" stroke="black"/>
<path d="M234.358,24.7143v -4.28927" fill="none" stroke="black"/>
<path d="M250.894,24.7143v -4.28927" fill="none" stroke="black"/>
<path d="M267.429,24.7143v -4.28927" fill="none" stroke="black"/>
<path d="M283.965,29.0036v -8.57853" fill="none" stroke="black"/>
<path d="M300.5,24.7143v -4.28927" fill="none" stroke="black"/>
<path d="M317.035,24.7143v -4.28927" fill="none" stroke="black"/>
<path d="M333.571,24.7143v -4.28927" fill="none" stroke="black"/>
<path d="M350.106,29.0036v -8.57853" fill="none" stroke="black"/>
<path d="M366.642,24.7143v -4.28927" fill="none" stroke="black"/>
<path d="M383.177,24.7143v -4.28927" fill="none" stroke="black"/>
<path d="M399.713,24.7143v -4.28927" fill="none" stroke="black"/>
<path d="M416.248,29.0036v -8.57853" fill="none" stroke="black"/>
<path d="M432.783,24.7143v -4.28927" fill="none" stroke="black"/>
<path d="M449.319,24.7143v -4.28927" fill="none" stroke="black"/>
<path d="M465.854,24.7143v -4.28927" fill="none" stroke="black"/>
<path d="M482.39,29.0036v -8.57853" fill="none" stroke="black"/>
<path d="M85.5394,359.481v -339.056" fill="none" stroke="black"/>
<path d="M99.6559,359.481h -14.1165" fill="none" stroke="black"/>
<path d="M92.5976,352.7h -7.05827" fill="none" stroke="black"/>
<path d="M92.5976,345.919h -7.05827" fill="none" stroke="black"/>
<path d="M92.5976,339.138h -7.05827" fill="none" stroke="black"/>
<path d="M92.5976,332.357h -7.05827" fill="none" stroke="black"/>
<path d="M99.6559,325.576h -14.1165" fill="none" stroke="black"/>
<path d="M92.5976,318.795h -7.05827" fill="none" stroke="black"/>
<path d="M92.5976,312.014h -7.05827" fill="none" stroke="black"/>
<path d="M92.5976,305.232h -7.05827" fill="none" stroke="black"/>
<path d="M92.5976,298.451h -7.05827" fill="none" stroke="black"/>
<path d="M99.6559,291.67h -14.1165" fill="none" stroke="black"/>
<path d="M92.5976,284.889h -7.05827" fill="none" stroke="black"/>
<path d="M92.5976,278.108h -7.05827" fill="none" stroke="black"/>
<path d="M92.5976,271.327h -7.05827" fill="none" stroke="black"/>
<path d="M92.5976,264.546h -7.05827" fill="none" stroke="black"/>
<path d="M99.6559,257.764h -14.1165" fill="none" stroke="black"/>
<path d="M92.5976,250.983h -7.05827" fill="none" stroke="black"/>
<path d="M92.5976,244.202h -7.05827" fill="none" stroke="black"/>
<path d="M92.5976,237.421h -7.05827" fill="none" stroke="black"/>
<path d="M92.5976,230.64h -7.05827" fill="none" stroke="black"/>
<path d="M99.6559,223.859h -14.1165" fill="none" stroke="black"/>
<path d="M92.5976,217.078h -7.05827" fill="none" stroke="black"/>
<path d="M92.5976,210.297h -7.05827" fill="none" stroke="black"/>
<path d="M92.5976,203.515h -7.05827" fill="none" stroke="black"/>
<path d="M92.5976,196.734h -7.05827" fill="none" stroke="black"/>
<path d="M99.6559,189.953h -14.1165" fill="none" stroke="black"/>
<path d="M92.5976,183.172h -7.05827" fill="none" stroke="black"/>
<path d="M92.5976,176.391h -7.05827" fill="none" stroke="black"/>
<path d="M92.5976,169.61h -7.05827" fill="none" stroke="black"/>
<path d="M92.5976,162.829h -7.05827" fill="none" stroke="black"/>
<path d="M99.6559,156.048h -14.1165" fill="none" stroke="black"/>
<path d="M92.5976,149.266h -7.05827" fill="none" stroke="black"/>
<path d="M92.5976,142.485h -7.05827" fill="none" stroke="black"/>
<path d="M92.5976,135.704h -7.05827" fill="none" stroke="black"/>
<path d="M92.5976,128.923h -7.05827" fill="none" stroke="black"/>
<path d="M99.6559,122.142h -14.1165" fill="none" stroke="black"/>
<path d="M92.5976,115.361h -7.05827" fill="none" stroke="black"/>
<path d="M92.5976,108.58h -7.05827" fill="none" stroke="black"/>
<path d="M92.5976,101.799h -7.05827" fill="none" stroke="black"/>
<path d="M92.5976,95.0175h -7.05827" fill="none" stroke="black"/>
<path d="M99.6559,88.2363h -14.1165" fill="none" stroke="black"/>
<path d="M92.5976,81.4552h -7.05827" fill="none" stroke="black"/>
<path d="M92.5976,74.6741h -7.05827" fill="none" stroke="black"/>
<path d="M92.5976,67.893h -7.05827" fill="none" stroke="black"/>
<path d="M92.5976,61.1118h -7.05827" fill="none" stroke="black"/>
<path d="M99.6559,54.3307h -14.1165" fill="none" stroke="black"/>
<path d="M92.5976,47.5496h -7.05827" fill="none" stroke="black"/>
<path d="M92.5976,40.7685h -7.05827" fill="none" stroke="black"/>
<path d="M92.5976,33.9873h -7.05827" fill="none" stroke="black"/>
<path d="M92.5976,27.2062h -7.05827" fill="none" stroke="black"/>
<path d="M99.6559,20.4251h -14.1165" fill="none" stroke="black"/>
<text xml:space="preserve" x="74.3855" y="365.165" fill="black" font-size="15.4909" font-family="Helvetica">0</text>
<text xml:space="preserve" x="61.5976" y="331.064" fill="black" font-size="15.4909" font-family="Helvetica">0.5</text>
<text xml:space="preserve" x="76.5168" y="296.963" fill="black" font-size="15.4909" font-family="Helvetica">1</text>
<text xml:space="preserve" x="61.5976" y="262.862" fill="black" font-size="15.4909" font-family="Helvetica">1.5</text>
<text xml:space="preserve" x="74.3855" y="229.471" fill="black" font-size="15.4909" font-family="Helvetica">2</text>
<text xml:space="preserve" x="61.5976" y="195.37" fill="black" font-size="15.4909" font-family="Helvetica">2.5</text>
<text xml:space="preserve" x="74.3855" y="161.269" fill="black" font-size="15.4909" font-family="Helvetica">3</text>
<text xml:space="preserve" x="61.5976" y="127.168" fill="black" font-size="15.4909" font-family="Helvetica">3.5</text>
<text xml:space="preserve" x="74.3855" y="93.7778" fill="black" font-size="15.4909" font-family="Helvetica">4</text>
<text xml:space="preserve" x="61.5976" y="59.6768" fill="black" font-size="15.4909" font-family="Helvetica">4.5</text>
<text xml:space="preserve" x="74.3855" y="25.5758" fill="black" font-size="15.4909" font-family="Helvetica">5</text>
<g transform="rotate(-90,41.7054,30.5488)">
<text xml:space="preserve" x="41.7054" y="30.5488" fill="black" font-size="19.2386" font-family="Times">&#0951;</text>
</g>
<g transform="rotate(-90,40.9949,70.3333)">
<text xml:space="preserve" x="40.9949" y="70.3333" fill="black" font-size="19.2386" font-family="Helvetica">dN/d</text>
</g>
<path d="M482.39,359.481v -339.056" fill="none" stroke="black"/>
<path d="M468.273,359.481h 14.1165" fill="none" stroke="black"/>
<path d="M475.332,352.7h 7.05827" fill="none" stroke="black"/>
<path d="M475.332,345.919h 7.05827" fill="none" stroke="black"/>
<path d="M475.332,339.138h 7.05827" fill="none" stroke="black"/>
<path d="M475.332,332.357h 7.05827" fill="none" stroke="black"/>
<path d="M468.273,325.576h 14.1165" fill="none" stroke="black"/>
<path d="M475.332,318.795h 7.05827" fill="none" stroke="black"/>
<path d="M475.332,312.014h 7.05827" fill="none" stroke="black"/>
<path d="M475.332,305.232h 7.05827" fill="none" stroke="black"/>
<path d="M475.332,298.451h 7.05827" fill="none" stroke="black"/>
<path d="M468.273,291.67h 14.1165" fill="none" stroke="black"/>
<path d="M475.332,284.889h 7.05827" fill="none" stroke="black"/>
<path d="M475.332,278.108h 7.05827" fill="none" stroke="black"/>
<path d="M475.332,271.327h 7.05827" fill="none" stroke="black"/>
<path d="M475.332,264.546h 7.05827" fill="none" stroke="black"/>
<path d="M468.273,257.764h 14.1165" fill="none" stroke="black"/>
<path d="M475.332,250.983h 7.05827" fill="none" stroke="black"/>
<path d="M475.332,244.202h 7.05827" fill="none" stroke="black"/>
<path d="M475.332,237.421h 7.05827" fill="none" stroke="black"/>
<path d="M475.332,230.64h 7.05827" fill="none" stroke="black"/>
<path d="M468.273,223.859h 14.1165" fill="none" stroke="black"/>
<path d="M475.332,217.078h 7.05827" fill="none" stroke="black"/>
<path d="M475.332,210.297h 7.05827" fill="none" stroke="black"/>
<path d="M475.332,203.515h 7.05827" fill="none" stroke="black"/>
<path d="M475.332,196.734h 7.05827" fill="none" stroke="black"/>
<path d="M468.273,189.953h 14.1165" fill="none" stroke="black"/>
<path d="M475.332,183.172h 7.05827" fill="none" stroke="black"/>
<path d="M475.332,176.391h 7.05827" fill="none" stroke="black"/>
<path d="M475.332,169.61h 7.05827" fill="none" stroke="black"/>
<path d="M475.332,162.829h 7.05827" fill="none" stroke="black"/>
<path d="M468.273,156.048h 14.1165" fill="none" stroke="black"/>
<path d="M475.332,149.266h 7.05827" fill="none" stroke="black"/>
<path d="M475.332,142.485h 7.05827" fill="none" stroke="black"/>
<path d="M475.332,135.704h 7.05827" fill="none" stroke="black"/>
<path d="M475.332,128.923h 7.05827" fill="none" stroke="black"/>
<path d="M468.273,122.142h 14.1165" fill="none" stroke="black"/>
<path d="M475.332,115.361h 7.05827" fill="none" stroke="black"/>
<path d="M475.332,108.58h 7.05827" fill="none" stroke="black"/>
<path d="M475.332,101.799h 7.05827" fill="none" stroke="black"/>
<path d="M475.332,95.0175h 7.05827" fill="none" stroke="black"/>
<path d="M468.273,88.2363h 14.1165" fill="none" stroke="black"/>
<path d="M475.332,81.4552h 7.05827" fill="none" stroke="black"/>
<path d="M475.332,74.6741h 7.05827" fill="none" stroke="black"/>
<path d="M475.332,67.893h 7.05827" fill="none" stroke="black"/>
<path d="M475.332,61.1118h 7.05827" fill="none" stroke="black"/>
<path d="M468.273,54.3307h 14.1165" fill="none" stroke="black"/>
<path d="M475.332,47.5496h 7.05827" fill="none" stroke="black"/>
<path d="M475.332,40.7685h 7.05827" fill="none" stroke="black"/>
<path d="M475.332,33.9873h 7.05827" fill="none" stroke="black"/>
<path d="M475.332,27.2062h 7.05827" fill="none" stroke="black"/>
<path d="M468.273,20.4251h 14.1165" fill="none" stroke="black"/>
<path d="M118.61,295.016h 5.42597" fill="none" stroke="black"/>
<path d="M129.72,295.016h 5.42597" fill="none" stroke="black"/>
<g fill="black">
<circle cx="126.878" cy="295.016" r="2.84175"/>
</g>
<path d="M135.146,268.885h 5.42597" fill="none" stroke="black"/>
<path d="M146.255,268.885h 5.42597" fill="none" stroke="black"/>
<g fill="black">
<circle cx="143.413" cy="268.885" r="2.84175"/>
</g>
<path d="M151.681,246.747h 5.42597" fill="none" stroke="black"/>
<path d="M162.791,246.747h 5.42597" fill="none" stroke="black"/>
<g fill="black">
<circle cx="159.949" cy="246.747" r="2.84175"/>
</g>
<path d="M168.217,226.843h 5.42597" fill="none" stroke="black"/>
<path d="M179.326,226.843h 5.42597" fill="none" stroke="black"/>
<g fill="black">
<circle cx="176.484" cy="226.843" r="2.84175"/>
</g>
<path d="M184.752,213.022h 5.42597" fill="none" stroke="black"/>
<path d="M195.861,213.022h 5.42597" fill="none" stroke="black"/>
<g fill="black">
<circle cx="193.02" cy="213.022" r="2.84175"/>
</g>
<path d="M201.287,201.283h 5.42597" fill="none" stroke="black"/>
<path d="M212.397,201.283h 5.42597" fill="none" stroke="black"/>
<g fill="black">
<circle cx="209.555" cy="201.283" r="2.84175"/>
</g>
<path d="M217.823,196.2h 5.42597" fill="none" stroke="black"/>
<path d="M228.932,196.2h 5.42597" fill="none" stroke="black"/>
<g fill="black">
<circle cx="226.091" cy="196.2" r="2.84175"/>
</g>
<path d="M234.358,195.762h 5.42597" fill="none" stroke="black"/>
<path d="M245.468,195.762h 5.42597" fill="none" stroke="black"/>
<g fill="black">
<circle cx="242.626" cy="195.762" r="2.84175"/>
</g>
<path d="M250.894,199.765h 5.42597" fill="none" stroke="black"/>
<path d="M262.003,199.765h 5.42597" fill="none" stroke="black"/>
<g fill="black">
<circle cx="259.161" cy="199.765" r="2.84175"/>
</g>
<path d="M267.429,206.492h 5.42597" fill="none" stroke="black"/>
<path d="M278.539,206.492h 5.42597" fill="none" stroke="black"/>
<g fill="black">
<circle cx="275.697" cy="206.492" r="2.84175"/>
</g>
<path d="M283.965,209.824h 5.42597" fill="none" stroke="black"/>
<path d="M295.074,209.824h 5.42597" fill="none" stroke="black"/>
<g fill="black">
<circle cx="292.232" cy="209.824" r="2.84175"/>
</g>
<path d="M300.5,202.087h 5.42597" fill="none" stroke="black"/>
<path d="M311.609,202.087h 5.42597" fill="none" stroke="black"/>
<g fill="black">
<circle cx="308.768" cy="202.087" r="2.84175"/>
</g>
<path d="M317.035,199.22h 5.42597" fill="none" stroke="black"/>
<path d="M328.145,199.22h 5.42597" fill="none" stroke="black"/>
<g fill="black">
<circle cx="325.303" cy="199.22" r="2.84175"/>
</g>
<path d="M333.571,194.592h 5.42597" fill="none" stroke="black"/>
<path d="M344.68,194.592h 5.42597" fill="none" stroke="black"/>
<g fill="black">
<circle cx="341.839" cy="194.592" r="2.84175"/>
</g>
<path d="M350.106,199.711h 5.42597" fill="none" stroke="black"/>
<path d="M361.216,199.711h 5.42597" fill="none" stroke="black"/>
<g fill="black">
<circle cx="358.374" cy="199.711" r="2.84175"/>
</g>
<path d="M366.642,210.387h 5.42597" fill="none" stroke="black"/>
<path d="M377.751,210.387h 5.42597" fill="none" stroke="black"/>
<g fill="black">
<circle cx="374.909" cy="210.387" r="2.84175"/>
</g>
<path d="M383.177,226.065h 5.42597" fill="none" stroke="black"/>
<path d="M394.287,226.065h 5.42597" fill="none" stroke="black"/>
<g fill="black">
<circle cx="391.445" cy="226.065" r="2.84175"/>
</g>
<path d="M399.713,244.88h 5.42597" fill="none" stroke="black"/>
<path d="M410.822,244.88h 5.42597" fill="none" stroke="black"/>
<g fill="black">
<circle cx="407.98" cy="244.88" r="2.84175"/>
</g>
<path d="M416.248,270.252h 5.42597" fill="none" stroke="black"/>
<path d="M427.358,270.252h 5.42597" fill="none" stroke="black"/>
<g fill="black">
<circle cx="424.516" cy="270.252" r="2.84175"/>
</g>
<path d="M432.783,292.952h 5.42597" fill="none" stroke="black"/>
<path d="M443.893,292.952h 5.42597" fill="none" stroke="black"/>
<g fill="black">
<circle cx="441.051" cy="292.952" r="2.84175"/>
</g>
<text xml:space="preserve" x="304.567" y="49.7306" fill="black" font-size="15.4909" font-family="Helvetica">PYTHIA8</text>
<text xml:space="preserve" x="304.567" y="78.8586" fill="black" font-size="15.4909" font-family="Helvetica">p+Au 200 GeV</text>
<text xml:space="preserve" x="304.567" y="108.697" fill="black" font-size="15.4909" font-family="Helvetica">option3(No diffraction)</text>
<text xml:space="preserve" x="342.931" y="137.825" fill="black" font-size="15.4909" font-family="Helvetica">, p</text>
<text xml:space="preserve" x="337.247" y="130.721" fill="black" font-size="10.4939" font-family="Times">&#0177;</text>
<text xml:space="preserve" x="318.776" y="137.825" fill="black" font-size="15.4909" font-family="Helvetica">, K</text>
<text xml:space="preserve" x="313.092" y="132.852" fill="black" font-size="10.4939" font-family="Times">&#0177;</text>
<text xml:space="preserve" x="304.567" y="137.825" fill="black" font-size="15.4909" font-family="Times">&#0960;</text>
<text xml:space="preserve" x="304.567" y="166.953" fill="black" font-size="15.4909" font-family="Helvetica">Ncoll = 1 event: 15,181</text></svg>
