<?xml version="1.0" standalone="no"?>
<svg width="567.429" height="409.002" viewBox="0 0 567.429 409.002" xmlns="http://www.w3.org/2000/svg" shape-rendering="crispEdges">
<title>
/Users/jinhyunpark/npl/GitHub/xloadFromServer/Git_Bias_correction_RxA/plots/pTpionClass4(cent 40~60%.svg
</title>
<desc>
Creator: ROOT Version 6.26/06
CreationDate: Thu Feb 23 16:15:20 2023</desc>
<defs>
</defs>
<rect x="0.5" y="0" width="566.929" height="408.502" fill="white"/>
<rect x="85.5394" y="20.4251" width="396.85" height="339.056" fill="white"/>
<rect x="85.5394" y="20.4251" width="396.85" height="339.056" fill="none" stroke="black"/>
<rect x="85.5394" y="20.4251" width="396.85" height="339.056" fill="white"/>
<rect x="85.5394" y="20.4251" width="396.85" height="339.056" fill="none" stroke="black"/>
<path d="M85.5394,359.481h 396.85" fill="none" stroke="black"/>
<path d="M85.5394,350.903v 8.57853" fill="none" stroke="black"/>
<path d="M96.878,355.192v 4.28927" fill="none" stroke="black"/>
<path d="M108.217,355.192v 4.28927" fill="none" stroke="black"/>
<path d="M119.555,355.192v 4.28927" fill="none" stroke="black"/>
<path d="M130.894,355.192v 4.28927" fill="none" stroke="black"/>
<path d="M142.232,350.903v 8.57853" fill="none" stroke="black"/>
<path d="M153.571,355.192v 4.28927" fill="none" stroke="black"/>
<path d="M164.909,355.192v 4.28927" fill="none" stroke="black"/>
<path d="M176.248,355.192v 4.28927" fill="none" stroke="black"/>
<path d="M187.587,355.192v 4.28927" fill="none" stroke="black"/>
<path d="M198.925,350.903v 8.57853" fill="none" stroke="black"/>
<path d="M210.264,355.192v 4.28927" fill="none" stroke="black"/>
<path d="M221.602,355.192v 4.28927" fill="none" stroke="black"/>
<path d="M232.941,355.192v 4.28927" fill="none" stroke="black"/>
<path d="M244.28,355.192v 4.28927" fill="none" stroke="black"/>
<path d="M255.618,350.903v 8.57853" fill="none" stroke="black"/>
<path d="M266.957,355.192v 4.28927" fill="none" stroke="black"/>
<path d="M278.295,355.192v 4.28927" fill="none" stroke="black"/>
<path d="M289.634,355.192v 4.28927" fill="none" stroke="black"/>
<path d="M300.972,355.192v 4.28927" fill="none" stroke="black"/>
<path d="M312.311,350.903v 8.57853" fill="none" stroke="black"/>
<path d="M323.65,355.192v 4.28927" fill="none" stroke="black"/>
<path d="M334.988,355.192v 4.28927" fill="none" stroke="black"/>
<path d="M346.327,355.192v 4.28927" fill="none" stroke="black"/>
<path d="M357.665,355.192v 4.28927" fill="none" stroke="black"/>
<path d="M369.004,350.903v 8.57853" fill="none" stroke="black"/>
<path d="M380.343,355.192v 4.28927" fill="none" stroke="black"/>
<path d="M391.681,355.192v 4.28927" fill="none" stroke="black"/>
<path d="M403.02,355.192v 4.28927" fill="none" stroke="black"/>
<path d="M414.358,355.192v 4.28927" fill="none" stroke="black"/>
<path d="M425.697,350.903v 8.57853" fill="none" stroke="black"/>
<path d="M437.035,355.192v 4.28927" fill="none" stroke="black"/>
<path d="M448.374,355.192v 4.28927" fill="none" stroke="black"/>
<path d="M459.713,355.192v 4.28927" fill="none" stroke="black"/>
<path d="M471.051,355.192v 4.28927" fill="none" stroke="black"/>
<path d="M482.39,350.903v 8.57853" fill="none" stroke="black"/>
<text xml:space="preserve" x="80.7794" y="374.401" fill="black" font-size="15.4909" font-family="Helvetica">0</text>
<text xml:space="preserve" x="139.035" y="374.401" fill="black" font-size="15.4909" font-family="Helvetica">1</text>
<text xml:space="preserve" x="194.449" y="374.401" fill="black" font-size="15.4909" font-family="Helvetica">2</text>
<text xml:space="preserve" x="251.284" y="374.401" fill="black" font-size="15.4909" font-family="Helvetica">3</text>
<text xml:space="preserve" x="307.409" y="374.401" fill="black" font-size="15.4909" font-family="Helvetica">4</text>
<text xml:space="preserve" x="364.244" y="374.401" fill="black" font-size="15.4909" font-family="Helvetica">5</text>
<text xml:space="preserve" x="421.079" y="374.401" fill="black" font-size="15.4909" font-family="Helvetica">6</text>
<text xml:space="preserve" x="477.914" y="374.401" fill="black" font-size="15.4909" font-family="Helvetica">7</text>
<text xml:space="preserve" x="432.446" y="397.845" fill="black" font-size="19.2386" font-family="Helvetica">(GeV)</text>
<text xml:space="preserve" x="424.631" y="407.791" fill="black" font-size="12.9924" font-family="Helvetica">T</text>
<text xml:space="preserve" x="413.975" y="397.845" fill="black" font-size="19.2386" font-family="Helvetica">p</text>
<path d="M85.5394,20.4251h 396.85" fill="none" stroke="black"/>
<path d="M85.5394,29.0036v -8.57853" fill="none" stroke="black"/>
<path d="M96.878,24.7143v -4.28927" fill="none" stroke="black"/>
<path d="M108.217,24.7143v -4.28927" fill="none" stroke="black"/>
<path d="M119.555,24.7143v -4.28927" fill="none" stroke="black"/>
<path d="M130.894,24.7143v -4.28927" fill="none" stroke="black"/>
<path d="M142.232,29.0036v -8.57853" fill="none" stroke="black"/>
<path d="M153.571,24.7143v -4.28927" fill="none" stroke="black"/>
<path d="M164.909,24.7143v -4.28927" fill="none" stroke="black"/>
<path d="M176.248,24.7143v -4.28927" fill="none" stroke="black"/>
<path d="M187.587,24.7143v -4.28927" fill="none" stroke="black"/>
<path d="M198.925,29.0036v -8.57853" fill="none" stroke="black"/>
<path d="M210.264,24.7143v -4.28927" fill="none" stroke="black"/>
<path d="M221.602,24.7143v -4.28927" fill="none" stroke="black"/>
<path d="M232.941,24.7143v -4.28927" fill="none" stroke="black"/>
<path d="M244.28,24.7143v -4.28927" fill="none" stroke="black"/>
<path d="M255.618,29.0036v -8.57853" fill="none" stroke="black"/>
<path d="M266.957,24.7143v -4.28927" fill="none" stroke="black"/>
<path d="M278.295,24.7143v -4.28927" fill="none" stroke="black"/>
<path d="M289.634,24.7143v -4.28927" fill="none" stroke="black"/>
<path d="M300.972,24.7143v -4.28927" fill="none" stroke="black"/>
<path d="M312.311,29.0036v -8.57853" fill="none" stroke="black"/>
<path d="M323.65,24.7143v -4.28927" fill="none" stroke="black"/>
<path d="M334.988,24.7143v -4.28927" fill="none" stroke="black"/>
<path d="M346.327,24.7143v -4.28927" fill="none" stroke="black"/>
<path d="M357.665,24.7143v -4.28927" fill="none" stroke="black"/>
<path d="M369.004,29.0036v -8.57853" fill="none" stroke="black"/>
<path d="M380.343,24.7143v -4.28927" fill="none" stroke="black"/>
<path d="M391.681,24.7143v -4.28927" fill="none" stroke="black"/>
<path d="M403.02,24.7143v -4.28927" fill="none" stroke="black"/>
<path d="M414.358,24.7143v -4.28927" fill="none" stroke="black"/>
<path d="M425.697,29.0036v -8.57853" fill="none" stroke="black"/>
<path d="M437.035,24.7143v -4.28927" fill="none" stroke="black"/>
<path d="M448.374,24.7143v -4.28927" fill="none" stroke="black"/>
<path d="M459.713,24.7143v -4.28927" fill="none" stroke="black"/>
<path d="M471.051,24.7143v -4.28927" fill="none" stroke="black"/>
<path d="M482.39,29.0036v -8.57853" fill="none" stroke="black"/>
<path d="M85.5394,359.481v -339.056" fill="none" stroke="black"/>
<path d="M99.6559,359.481h -14.1165" fill="none" stroke="black"/>
<path d="M92.5976,348.18h -7.05827" fill="none" stroke="black"/>
<path d="M92.5976,336.878h -7.05827" fill="none" stroke="black"/>
<path d="M92.5976,325.576h -7.05827" fill="none" stroke="black"/>
<path d="M99.6559,314.274h -14.1165" fill="none" stroke="black"/>
<path d="M92.5976,302.972h -7.05827" fill="none" stroke="black"/>
<path d="M92.5976,291.67h -7.05827" fill="none" stroke="black"/>
<path d="M92.5976,280.368h -7.05827" fill="none" stroke="black"/>
<path d="M99.6559,269.066h -14.1165" fill="none" stroke="black"/>
<path d="M92.5976,257.764h -7.05827" fill="none" stroke="black"/>
<path d="M92.5976,246.463h -7.05827" fill="none" stroke="black"/>
<path d="M92.5976,235.161h -7.05827" fill="none" stroke="black"/>
<path d="M99.6559,223.859h -14.1165" fill="none" stroke="black"/>
<path d="M92.5976,212.557h -7.05827" fill="none" stroke="black"/>
<path d="M92.5976,201.255h -7.05827" fill="none" stroke="black"/>
<path d="M92.5976,189.953h -7.05827" fill="none" stroke="black"/>
<path d="M99.6559,178.651h -14.1165" fill="none" stroke="black"/>
<path d="M92.5976,167.349h -7.05827" fill="none" stroke="black"/>
<path d="M92.5976,156.048h -7.05827" fill="none" stroke="black"/>
<path d="M92.5976,144.746h -7.05827" fill="none" stroke="black"/>
<path d="M99.6559,133.444h -14.1165" fill="none" stroke="black"/>
<path d="M92.5976,122.142h -7.05827" fill="none" stroke="black"/>
<path d="M92.5976,110.84h -7.05827" fill="none" stroke="black"/>
<path d="M92.5976,99.5382h -7.05827" fill="none" stroke="black"/>
<path d="M99.6559,88.2363h -14.1165" fill="none" stroke="black"/>
<path d="M92.5976,76.9345h -7.05827" fill="none" stroke="black"/>
<path d="M92.5976,65.6326h -7.05827" fill="none" stroke="black"/>
<path d="M92.5976,54.3307h -7.05827" fill="none" stroke="black"/>
<path d="M99.6559,43.0288h -14.1165" fill="none" stroke="black"/>
<path d="M99.6559,43.0288h -14.1165" fill="none" stroke="black"/>
<path d="M92.5976,31.727h -7.05827" fill="none" stroke="black"/>
<text xml:space="preserve" x="74.3855" y="365.165" fill="black" font-size="15.4909" font-family="Helvetica">0</text>
<text xml:space="preserve" x="65.8603" y="319.697" fill="black" font-size="15.4909" font-family="Helvetica">20</text>
<text xml:space="preserve" x="65.8603" y="274.229" fill="black" font-size="15.4909" font-family="Helvetica">40</text>
<text xml:space="preserve" x="65.8603" y="229.471" fill="black" font-size="15.4909" font-family="Helvetica">60</text>
<text xml:space="preserve" x="65.8603" y="184.003" fill="black" font-size="15.4909" font-family="Helvetica">80</text>
<text xml:space="preserve" x="58.0454" y="138.535" fill="black" font-size="15.4909" font-family="Helvetica">100</text>
<text xml:space="preserve" x="58.0454" y="93.7778" fill="black" font-size="15.4909" font-family="Helvetica">120</text>
<text xml:space="preserve" x="58.0454" y="48.3098" fill="black" font-size="15.4909" font-family="Helvetica">140</text>
<g transform="rotate(-90,54.4933,27.7071)">
<text xml:space="preserve" x="54.4933" y="27.7071" fill="black" font-size="12.9924" font-family="Helvetica">T</text>
</g>
<g transform="rotate(-90,43.8367,49.0202)">
<text xml:space="preserve" x="43.8367" y="49.0202" fill="black" font-size="19.2386" font-family="Helvetica">dp</text>
</g>
<g transform="rotate(-90,23.9444,46.1784)">
<text xml:space="preserve" x="23.9444" y="46.1784" fill="black" font-size="19.2386" font-family="Helvetica">dN</text>
</g>
<path d="M27.4966,49.0202v -29.1279" fill="none" stroke="black" stroke-width="2"/>
<g transform="rotate(-90,32.4697,55.4141)">
<text xml:space="preserve" x="32.4697" y="55.4141" fill="black" font-size="19.2386" font-family="Helvetica"> </text>
</g>
<g transform="rotate(-90,49.5202,72.4646)">
<text xml:space="preserve" x="49.5202" y="72.4646" fill="black" font-size="12.9924" font-family="Helvetica">evt</text>
</g>
<g transform="rotate(-90,43.8367,85.2525)">
<text xml:space="preserve" x="43.8367" y="85.2525" fill="black" font-size="19.2386" font-family="Helvetica">N</text>
</g>
<g transform="rotate(-90,24.6549,73.8855)">
<text xml:space="preserve" x="24.6549" y="73.8855" fill="black" font-size="19.2386" font-family="Helvetica">1</text>
</g>
<path d="M27.4966,85.2525v -29.8384" fill="none" stroke="black" stroke-width="2"/>
<path d="M482.39,359.481v -339.056" fill="none" stroke="black"/>
<path d="M468.273,359.481h 14.1165" fill="none" stroke="black"/>
<path d="M475.332,348.18h 7.05827" fill="none" stroke="black"/>
<path d="M475.332,336.878h 7.05827" fill="none" stroke="black"/>
<path d="M475.332,325.576h 7.05827" fill="none" stroke="black"/>
<path d="M468.273,314.274h 14.1165" fill="none" stroke="black"/>
<path d="M475.332,302.972h 7.05827" fill="none" stroke="black"/>
<path d="M475.332,291.67h 7.05827" fill="none" stroke="black"/>
<path d="M475.332,280.368h 7.05827" fill="none" stroke="black"/>
<path d="M468.273,269.066h 14.1165" fill="none" stroke="black"/>
<path d="M475.332,257.764h 7.05827" fill="none" stroke="black"/>
<path d="M475.332,246.463h 7.05827" fill="none" stroke="black"/>
<path d="M475.332,235.161h 7.05827" fill="none" stroke="black"/>
<path d="M468.273,223.859h 14.1165" fill="none" stroke="black"/>
<path d="M475.332,212.557h 7.05827" fill="none" stroke="black"/>
<path d="M475.332,201.255h 7.05827" fill="none" stroke="black"/>
<path d="M475.332,189.953h 7.05827" fill="none" stroke="black"/>
<path d="M468.273,178.651h 14.1165" fill="none" stroke="black"/>
<path d="M475.332,167.349h 7.05827" fill="none" stroke="black"/>
<path d="M475.332,156.048h 7.05827" fill="none" stroke="black"/>
<path d="M475.332,144.746h 7.05827" fill="none" stroke="black"/>
<path d="M468.273,133.444h 14.1165" fill="none" stroke="black"/>
<path d="M475.332,122.142h 7.05827" fill="none" stroke="black"/>
<path d="M475.332,110.84h 7.05827" fill="none" stroke="black"/>
<path d="M475.332,99.5382h 7.05827" fill="none" stroke="black"/>
<path d="M468.273,88.2363h 14.1165" fill="none" stroke="black"/>
<path d="M475.332,76.9345h 7.05827" fill="none" stroke="black"/>
<path d="M475.332,65.6326h 7.05827" fill="none" stroke="black"/>
<path d="M475.332,54.3307h 7.05827" fill="none" stroke="black"/>
<path d="M468.273,43.0288h 14.1165" fill="none" stroke="black"/>
<path d="M468.273,43.0288h 14.1165" fill="none" stroke="black"/>
<path d="M475.332,31.727h 7.05827" fill="none" stroke="black"/>
<path d="M85.5394,228.342h 1.12675" fill="none" stroke="#7c99d1"/>
<path d="M92.3496,228.342h 1.12675" fill="none" stroke="#7c99d1"/>
<g fill="#7c99d1">
<rect x="86.6661" y="225.5" width="5.6835" height="5.6835"/>
</g>
<path d="M93.4764,129.739h 1.12675" fill="none" stroke="#7c99d1"/>
<path d="M100.287,129.739h 1.12675" fill="none" stroke="#7c99d1"/>
<g fill="#7c99d1">
<rect x="94.6031" y="126.897" width="5.6835" height="5.6835"/>
</g>
<path d="M101.413,182.845h 1.12675" fill="none" stroke="#7c99d1"/>
<path d="M108.224,182.845h 1.12675" fill="none" stroke="#7c99d1"/>
<g fill="#7c99d1">
<rect x="102.54" y="180.003" width="5.6835" height="5.6835"/>
</g>
<path d="M109.35,245.59h 1.12675" fill="none" stroke="#7c99d1"/>
<path d="M116.161,245.59h 1.12675" fill="none" stroke="#7c99d1"/>
<g fill="#7c99d1">
<rect x="110.477" y="242.749" width="5.6835" height="5.6835"/>
</g>
<path d="M117.287,292.538h 1.12675" fill="none" stroke="#7c99d1"/>
<path d="M124.098,292.538h 1.12675" fill="none" stroke="#7c99d1"/>
<g fill="#7c99d1">
<rect x="118.414" y="289.696" width="5.6835" height="5.6835"/>
</g>
<path d="M125.224,322.14h 1.12675" fill="none" stroke="#7c99d1"/>
<path d="M132.035,322.14h 1.12675" fill="none" stroke="#7c99d1"/>
<g fill="#7c99d1">
<rect x="126.351" y="319.298" width="5.6835" height="5.6835"/>
</g>
<path d="M133.161,339.528h 1.12675" fill="none" stroke="#7c99d1"/>
<path d="M139.972,339.528h 1.12675" fill="none" stroke="#7c99d1"/>
<g fill="#7c99d1">
<rect x="134.288" y="336.686" width="5.6835" height="5.6835"/>
</g>
<path d="M141.098,348.696h 1.12675" fill="none" stroke="#7c99d1"/>
<path d="M147.909,348.696h 1.12675" fill="none" stroke="#7c99d1"/>
<g fill="#7c99d1">
<rect x="142.225" y="345.854" width="5.6835" height="5.6835"/>
</g>
<path d="M149.035,353.372h 1.12675" fill="none" stroke="#7c99d1"/>
<path d="M155.846,353.372h 1.12675" fill="none" stroke="#7c99d1"/>
<g fill="#7c99d1">
<rect x="150.162" y="350.53" width="5.6835" height="5.6835"/>
</g>
<path d="M156.972,355.864h 1.12675" fill="none" stroke="#7c99d1"/>
<path d="M163.783,355.864h 1.12675" fill="none" stroke="#7c99d1"/>
<g fill="#7c99d1">
<rect x="158.099" y="353.022" width="5.6835" height="5.6835"/>
</g>
<path d="M164.909,357.225h 1.12675" fill="none" stroke="#7c99d1"/>
<path d="M171.72,357.225h 1.12675" fill="none" stroke="#7c99d1"/>
<g fill="#7c99d1">
<rect x="166.036" y="354.383" width="5.6835" height="5.6835"/>
</g>
<path d="M172.846,358.06h 1.12675" fill="none" stroke="#7c99d1"/>
<path d="M179.657,358.06h 1.12675" fill="none" stroke="#7c99d1"/>
<g fill="#7c99d1">
<rect x="173.973" y="355.218" width="5.6835" height="5.6835"/>
</g>
<path d="M180.783,358.63h 1.12675" fill="none" stroke="#7c99d1"/>
<path d="M187.594,358.63h 1.12675" fill="none" stroke="#7c99d1"/>
<g fill="#7c99d1">
<rect x="181.91" y="355.789" width="5.6835" height="5.6835"/>
</g>
<path d="M188.72,358.932h 1.12675" fill="none" stroke="#7c99d1"/>
<path d="M195.531,358.932h 1.12675" fill="none" stroke="#7c99d1"/>
<g fill="#7c99d1">
<rect x="189.847" y="356.091" width="5.6835" height="5.6835"/>
</g>
<path d="M196.657,359.091h 1.12675" fill="none" stroke="#7c99d1"/>
<path d="M203.468,359.091h 1.12675" fill="none" stroke="#7c99d1"/>
<g fill="#7c99d1">
<rect x="197.784" y="356.249" width="5.6835" height="5.6835"/>
</g>
<path d="M204.594,359.213h 1.12675" fill="none" stroke="#7c99d1"/>
<path d="M211.405,359.213h 1.12675" fill="none" stroke="#7c99d1"/>
<g fill="#7c99d1">
<rect x="205.721" y="356.372" width="5.6835" height="5.6835"/>
</g>
<path d="M212.531,359.259h 1.12675" fill="none" stroke="#7c99d1"/>
<path d="M219.342,359.259h 1.12675" fill="none" stroke="#7c99d1"/>
<g fill="#7c99d1">
<rect x="213.658" y="356.417" width="5.6835" height="5.6835"/>
</g>
<path d="M220.469,359.36h 1.12675" fill="none" stroke="#7c99d1"/>
<path d="M227.279,359.36h 1.12675" fill="none" stroke="#7c99d1"/>
<g fill="#7c99d1">
<rect x="221.595" y="356.519" width="5.6835" height="5.6835"/>
</g>
<path d="M228.406,359.386h 1.12675" fill="none" stroke="#7c99d1"/>
<path d="M235.216,359.386h 1.12675" fill="none" stroke="#7c99d1"/>
<g fill="#7c99d1">
<rect x="229.532" y="356.544" width="5.6835" height="5.6835"/>
</g>
<path d="M236.343,359.41h 1.12675" fill="none" stroke="#7c99d1"/>
<path d="M243.153,359.41h 1.12675" fill="none" stroke="#7c99d1"/>
<g fill="#7c99d1">
<rect x="237.469" y="356.569" width="5.6835" height="5.6835"/>
</g>
<path d="M244.28,359.438h 1.12675" fill="none" stroke="#7c99d1"/>
<path d="M251.09,359.438h 1.12675" fill="none" stroke="#7c99d1"/>
<g fill="#7c99d1">
<rect x="245.406" y="356.596" width="5.6835" height="5.6835"/>
</g>
<path d="M252.217,359.438h 1.12675" fill="none" stroke="#7c99d1"/>
<path d="M259.027,359.438h 1.12675" fill="none" stroke="#7c99d1"/>
<g fill="#7c99d1">
<rect x="253.343" y="356.596" width="5.6835" height="5.6835"/>
</g>
<path d="M260.154,359.456h 1.12675" fill="none" stroke="#7c99d1"/>
<path d="M266.964,359.456h 1.12675" fill="none" stroke="#7c99d1"/>
<g fill="#7c99d1">
<rect x="261.28" y="356.614" width="5.6835" height="5.6835"/>
</g>
<path d="M268.091,359.472h 1.12675" fill="none" stroke="#7c99d1"/>
<path d="M274.901,359.472h 1.12675" fill="none" stroke="#7c99d1"/>
<g fill="#7c99d1">
<rect x="269.217" y="356.63" width="5.6835" height="5.6835"/>
</g>
<path d="M276.028,359.457h 1.12675" fill="none" stroke="#7c99d1"/>
<path d="M282.838,359.457h 1.12675" fill="none" stroke="#7c99d1"/>
<g fill="#7c99d1">
<rect x="277.154" y="356.615" width="5.6835" height="5.6835"/>
</g>
<path d="M283.965,359.465h 1.12675" fill="none" stroke="#7c99d1"/>
<path d="M290.775,359.465h 1.12675" fill="none" stroke="#7c99d1"/>
<g fill="#7c99d1">
<rect x="285.091" y="356.623" width="5.6835" height="5.6835"/>
</g>
<path d="M291.902,359.472h 1.12675" fill="none" stroke="#7c99d1"/>
<path d="M298.712,359.472h 1.12675" fill="none" stroke="#7c99d1"/>
<g fill="#7c99d1">
<rect x="293.028" y="356.63" width="5.6835" height="5.6835"/>
</g>
<path d="M299.839,359.48h 1.12675" fill="none" stroke="#7c99d1"/>
<path d="M306.649,359.48h 1.12675" fill="none" stroke="#7c99d1"/>
<g fill="#7c99d1">
<rect x="300.965" y="356.638" width="5.6835" height="5.6835"/>
</g>
<path d="M307.776,359.472h 1.12675" fill="none" stroke="#7c99d1"/>
<path d="M314.586,359.472h 1.12675" fill="none" stroke="#7c99d1"/>
<g fill="#7c99d1">
<rect x="308.902" y="356.63" width="5.6835" height="5.6835"/>
</g>
<path d="M315.713,359.478h 1.12675" fill="none" stroke="#7c99d1"/>
<path d="M322.523,359.478h 1.12675" fill="none" stroke="#7c99d1"/>
<g fill="#7c99d1">
<rect x="316.839" y="356.636" width="5.6835" height="5.6835"/>
</g>
<path d="M323.65,359.48h 1.12675" fill="none" stroke="#7c99d1"/>
<path d="M330.46,359.48h 1.12675" fill="none" stroke="#7c99d1"/>
<g fill="#7c99d1">
<rect x="324.776" y="356.638" width="5.6835" height="5.6835"/>
</g>
<path d="M331.587,359.48h 1.12675" fill="none" stroke="#7c99d1"/>
<path d="M338.397,359.48h 1.12675" fill="none" stroke="#7c99d1"/>
<g fill="#7c99d1">
<rect x="332.713" y="356.638" width="5.6835" height="5.6835"/>
</g>
<path d="M339.524,359.48h 1.12675" fill="none" stroke="#7c99d1"/>
<path d="M346.334,359.48h 1.12675" fill="none" stroke="#7c99d1"/>
<g fill="#7c99d1">
<rect x="340.65" y="356.638" width="5.6835" height="5.6835"/>
</g>
<path d="M347.461,359.48h 1.12675" fill="none" stroke="#7c99d1"/>
<path d="M354.271,359.48h 1.12675" fill="none" stroke="#7c99d1"/>
<g fill="#7c99d1">
<rect x="348.587" y="356.638" width="5.6835" height="5.6835"/>
</g>
<path d="M355.398,359.478h 1.12675" fill="none" stroke="#7c99d1"/>
<path d="M362.208,359.478h 1.12675" fill="none" stroke="#7c99d1"/>
<g fill="#7c99d1">
<rect x="356.524" y="356.636" width="5.6835" height="5.6835"/>
</g>
<path d="M363.335,359.478h 1.12675" fill="none" stroke="#7c99d1"/>
<path d="M370.145,359.478h 1.12675" fill="none" stroke="#7c99d1"/>
<g fill="#7c99d1">
<rect x="364.461" y="356.636" width="5.6835" height="5.6835"/>
</g>
<path d="M379.209,359.48h 1.12675" fill="none" stroke="#7c99d1"/>
<path d="M386.019,359.48h 1.12675" fill="none" stroke="#7c99d1"/>
<g fill="#7c99d1">
<rect x="380.335" y="356.638" width="5.6835" height="5.6835"/>
</g>
<path d="M387.146,359.477h 1.12675" fill="none" stroke="#7c99d1"/>
<path d="M393.956,359.477h 1.12675" fill="none" stroke="#7c99d1"/>
<g fill="#7c99d1">
<rect x="388.272" y="356.635" width="5.6835" height="5.6835"/>
</g>
<path d="M395.083,359.48h 1.12675" fill="none" stroke="#7c99d1"/>
<path d="M401.893,359.48h 1.12675" fill="none" stroke="#7c99d1"/>
<g fill="#7c99d1">
<rect x="396.209" y="356.638" width="5.6835" height="5.6835"/>
</g>
<path d="M403.02,359.48h 1.12675" fill="none" stroke="#7c99d1"/>
<path d="M409.83,359.48h 1.12675" fill="none" stroke="#7c99d1"/>
<g fill="#7c99d1">
<rect x="404.146" y="356.638" width="5.6835" height="5.6835"/>
</g>
<text xml:space="preserve" x="304.567" y="46.1784" fill="black" font-size="15.4909" font-family="Helvetica">PYTHIA8</text>
<text xml:space="preserve" x="304.567" y="70.3333" fill="black" font-size="15.4909" font-family="Helvetica">p+Au 200 GeV</text>
<text xml:space="preserve" x="304.567" y="95.1986" fill="black" font-size="15.4909" font-family="Helvetica">option = 3(No diffraction)</text>
<text xml:space="preserve" x="304.567" y="119.354" fill="black" font-size="15.4909" font-family="Helvetica">100,000 events</text>
<text xml:space="preserve" x="304.567" y="144.219" fill="black" font-size="15.4909" font-family="Helvetica">centrality 40~60%</text></svg>
