<?xml version="1.0" standalone="no"?>
<svg width="567.429" height="409.002" viewBox="0 0 567.429 409.002" xmlns="http://www.w3.org/2000/svg" shape-rendering="crispEdges">
<title>
/Users/jinhyunpark/npl/GitHub/xloadFromServer/Git_Bias_correction_RxA/plots/pTpionClass2(cent 10~20%.svg
</title>
<desc>
Creator: ROOT Version 6.26/06
CreationDate: Thu Feb 23 16:07:53 2023</desc>
<defs>
</defs>
<rect x="0.5" y="0" width="566.929" height="408.502" fill="white"/>
<rect x="85.5394" y="20.4251" width="396.85" height="339.056" fill="white"/>
<rect x="85.5394" y="20.4251" width="396.85" height="339.056" fill="none" stroke="black"/>
<rect x="85.5394" y="20.4251" width="396.85" height="339.056" fill="white"/>
<rect x="85.5394" y="20.4251" width="396.85" height="339.056" fill="none" stroke="black"/>
<path d="M85.5394,359.481h 396.85" fill="none" stroke="black"/>
<path d="M85.5394,350.903v 8.57853" fill="none" stroke="black"/>
<path d="M95.4606,355.192v 4.28927" fill="none" stroke="black"/>
<path d="M105.382,355.192v 4.28927" fill="none" stroke="black"/>
<path d="M115.303,355.192v 4.28927" fill="none" stroke="black"/>
<path d="M125.224,355.192v 4.28927" fill="none" stroke="black"/>
<path d="M135.146,350.903v 8.57853" fill="none" stroke="black"/>
<path d="M145.067,355.192v 4.28927" fill="none" stroke="black"/>
<path d="M154.988,355.192v 4.28927" fill="none" stroke="black"/>
<path d="M164.909,355.192v 4.28927" fill="none" stroke="black"/>
<path d="M174.831,355.192v 4.28927" fill="none" stroke="black"/>
<path d="M184.752,350.903v 8.57853" fill="none" stroke="black"/>
<path d="M194.673,355.192v 4.28927" fill="none" stroke="black"/>
<path d="M204.594,355.192v 4.28927" fill="none" stroke="black"/>
<path d="M214.516,355.192v 4.28927" fill="none" stroke="black"/>
<path d="M224.437,355.192v 4.28927" fill="none" stroke="black"/>
<path d="M234.358,350.903v 8.57853" fill="none" stroke="black"/>
<path d="M244.28,355.192v 4.28927" fill="none" stroke="black"/>
<path d="M254.201,355.192v 4.28927" fill="none" stroke="black"/>
<path d="M264.122,355.192v 4.28927" fill="none" stroke="black"/>
<path d="M274.043,355.192v 4.28927" fill="none" stroke="black"/>
<path d="M283.965,350.903v 8.57853" fill="none" stroke="black"/>
<path d="M293.886,355.192v 4.28927" fill="none" stroke="black"/>
<path d="M303.807,355.192v 4.28927" fill="none" stroke="black"/>
<path d="M313.728,355.192v 4.28927" fill="none" stroke="black"/>
<path d="M323.65,355.192v 4.28927" fill="none" stroke="black"/>
<path d="M333.571,350.903v 8.57853" fill="none" stroke="black"/>
<path d="M343.492,355.192v 4.28927" fill="none" stroke="black"/>
<path d="M353.413,355.192v 4.28927" fill="none" stroke="black"/>
<path d="M363.335,355.192v 4.28927" fill="none" stroke="black"/>
<path d="M373.256,355.192v 4.28927" fill="none" stroke="black"/>
<path d="M383.177,350.903v 8.57853" fill="none" stroke="black"/>
<path d="M393.098,355.192v 4.28927" fill="none" stroke="black"/>
<path d="M403.02,355.192v 4.28927" fill="none" stroke="black"/>
<path d="M412.941,355.192v 4.28927" fill="none" stroke="black"/>
<path d="M422.862,355.192v 4.28927" fill="none" stroke="black"/>
<path d="M432.783,350.903v 8.57853" fill="none" stroke="black"/>
<path d="M442.705,355.192v 4.28927" fill="none" stroke="black"/>
<path d="M452.626,355.192v 4.28927" fill="none" stroke="black"/>
<path d="M462.547,355.192v 4.28927" fill="none" stroke="black"/>
<path d="M472.469,355.192v 4.28927" fill="none" stroke="black"/>
<path d="M482.39,350.903v 8.57853" fill="none" stroke="black"/>
<text xml:space="preserve" x="80.7794" y="374.401" fill="black" font-size="15.4909" font-family="Helvetica">0</text>
<text xml:space="preserve" x="131.931" y="374.401" fill="black" font-size="15.4909" font-family="Helvetica">1</text>
<text xml:space="preserve" x="180.241" y="374.401" fill="black" font-size="15.4909" font-family="Helvetica">2</text>
<text xml:space="preserve" x="229.971" y="374.401" fill="black" font-size="15.4909" font-family="Helvetica">3</text>
<text xml:space="preserve" x="279.702" y="374.401" fill="black" font-size="15.4909" font-family="Helvetica">4</text>
<text xml:space="preserve" x="328.722" y="374.401" fill="black" font-size="15.4909" font-family="Helvetica">5</text>
<text xml:space="preserve" x="378.453" y="374.401" fill="black" font-size="15.4909" font-family="Helvetica">6</text>
<text xml:space="preserve" x="428.183" y="374.401" fill="black" font-size="15.4909" font-family="Helvetica">7</text>
<text xml:space="preserve" x="477.914" y="374.401" fill="black" font-size="15.4909" font-family="Helvetica">8</text>
<text xml:space="preserve" x="432.446" y="397.845" fill="black" font-size="19.2386" font-family="Helvetica">(GeV)</text>
<text xml:space="preserve" x="424.631" y="407.791" fill="black" font-size="12.9924" font-family="Helvetica">T</text>
<text xml:space="preserve" x="413.975" y="397.845" fill="black" font-size="19.2386" font-family="Helvetica">p</text>
<path d="M85.5394,20.4251h 396.85" fill="none" stroke="black"/>
<path d="M85.5394,29.0036v -8.57853" fill="none" stroke="black"/>
<path d="M95.4606,24.7143v -4.28927" fill="none" stroke="black"/>
<path d="M105.382,24.7143v -4.28927" fill="none" stroke="black"/>
<path d="M115.303,24.7143v -4.28927" fill="none" stroke="black"/>
<path d="M125.224,24.7143v -4.28927" fill="none" stroke="black"/>
<path d="M135.146,29.0036v -8.57853" fill="none" stroke="black"/>
<path d="M145.067,24.7143v -4.28927" fill="none" stroke="black"/>
<path d="M154.988,24.7143v -4.28927" fill="none" stroke="black"/>
<path d="M164.909,24.7143v -4.28927" fill="none" stroke="black"/>
<path d="M174.831,24.7143v -4.28927" fill="none" stroke="black"/>
<path d="M184.752,29.0036v -8.57853" fill="none" stroke="black"/>
<path d="M194.673,24.7143v -4.28927" fill="none" stroke="black"/>
<path d="M204.594,24.7143v -4.28927" fill="none" stroke="black"/>
<path d="M214.516,24.7143v -4.28927" fill="none" stroke="black"/>
<path d="M224.437,24.7143v -4.28927" fill="none" stroke="black"/>
<path d="M234.358,29.0036v -8.57853" fill="none" stroke="black"/>
<path d="M244.28,24.7143v -4.28927" fill="none" stroke="black"/>
<path d="M254.201,24.7143v -4.28927" fill="none" stroke="black"/>
<path d="M264.122,24.7143v -4.28927" fill="none" stroke="black"/>
<path d="M274.043,24.7143v -4.28927" fill="none" stroke="black"/>
<path d="M283.965,29.0036v -8.57853" fill="none" stroke="black"/>
<path d="M293.886,24.7143v -4.28927" fill="none" stroke="black"/>
<path d="M303.807,24.7143v -4.28927" fill="none" stroke="black"/>
<path d="M313.728,24.7143v -4.28927" fill="none" stroke="black"/>
<path d="M323.65,24.7143v -4.28927" fill="none" stroke="black"/>
<path d="M333.571,29.0036v -8.57853" fill="none" stroke="black"/>
<path d="M343.492,24.7143v -4.28927" fill="none" stroke="black"/>
<path d="M353.413,24.7143v -4.28927" fill="none" stroke="black"/>
<path d="M363.335,24.7143v -4.28927" fill="none" stroke="black"/>
<path d="M373.256,24.7143v -4.28927" fill="none" stroke="black"/>
<path d="M383.177,29.0036v -8.57853" fill="none" stroke="black"/>
<path d="M393.098,24.7143v -4.28927" fill="none" stroke="black"/>
<path d="M403.02,24.7143v -4.28927" fill="none" stroke="black"/>
<path d="M412.941,24.7143v -4.28927" fill="none" stroke="black"/>
<path d="M422.862,24.7143v -4.28927" fill="none" stroke="black"/>
<path d="M432.783,29.0036v -8.57853" fill="none" stroke="black"/>
<path d="M442.705,24.7143v -4.28927" fill="none" stroke="black"/>
<path d="M452.626,24.7143v -4.28927" fill="none" stroke="black"/>
<path d="M462.547,24.7143v -4.28927" fill="none" stroke="black"/>
<path d="M472.469,24.7143v -4.28927" fill="none" stroke="black"/>
<path d="M482.39,29.0036v -8.57853" fill="none" stroke="black"/>
<path d="M85.5394,359.481v -339.056" fill="none" stroke="black"/>
<path d="M99.6559,359.481h -14.1165" fill="none" stroke="black"/>
<path d="M92.5976,352.7h -7.05827" fill="none" stroke="black"/>
<path d="M92.5976,345.919h -7.05827" fill="none" stroke="black"/>
<path d="M92.5976,339.138h -7.05827" fill="none" stroke="black"/>
<path d="M92.5976,332.357h -7.05827" fill="none" stroke="black"/>
<path d="M99.6559,325.576h -14.1165" fill="none" stroke="black"/>
<path d="M92.5976,318.795h -7.05827" fill="none" stroke="black"/>
<path d="M92.5976,312.014h -7.05827" fill="none" stroke="black"/>
<path d="M92.5976,305.232h -7.05827" fill="none" stroke="black"/>
<path d="M92.5976,298.451h -7.05827" fill="none" stroke="black"/>
<path d="M99.6559,291.67h -14.1165" fill="none" stroke="black"/>
<path d="M92.5976,284.889h -7.05827" fill="none" stroke="black"/>
<path d="M92.5976,278.108h -7.05827" fill="none" stroke="black"/>
<path d="M92.5976,271.327h -7.05827" fill="none" stroke="black"/>
<path d="M92.5976,264.546h -7.05827" fill="none" stroke="black"/>
<path d="M99.6559,257.764h -14.1165" fill="none" stroke="black"/>
<path d="M92.5976,250.983h -7.05827" fill="none" stroke="black"/>
<path d="M92.5976,244.202h -7.05827" fill="none" stroke="black"/>
<path d="M92.5976,237.421h -7.05827" fill="none" stroke="black"/>
<path d="M92.5976,230.64h -7.05827" fill="none" stroke="black"/>
<path d="M99.6559,223.859h -14.1165" fill="none" stroke="black"/>
<path d="M92.5976,217.078h -7.05827" fill="none" stroke="black"/>
<path d="M92.5976,210.297h -7.05827" fill="none" stroke="black"/>
<path d="M92.5976,203.515h -7.05827" fill="none" stroke="black"/>
<path d="M92.5976,196.734h -7.05827" fill="none" stroke="black"/>
<path d="M99.6559,189.953h -14.1165" fill="none" stroke="black"/>
<path d="M92.5976,183.172h -7.05827" fill="none" stroke="black"/>
<path d="M92.5976,176.391h -7.05827" fill="none" stroke="black"/>
<path d="M92.5976,169.61h -7.05827" fill="none" stroke="black"/>
<path d="M92.5976,162.829h -7.05827" fill="none" stroke="black"/>
<path d="M99.6559,156.048h -14.1165" fill="none" stroke="black"/>
<path d="M92.5976,149.266h -7.05827" fill="none" stroke="black"/>
<path d="M92.5976,142.485h -7.05827" fill="none" stroke="black"/>
<path d="M92.5976,135.704h -7.05827" fill="none" stroke="black"/>
<path d="M92.5976,128.923h -7.05827" fill="none" stroke="black"/>
<path d="M99.6559,122.142h -14.1165" fill="none" stroke="black"/>
<path d="M92.5976,115.361h -7.05827" fill="none" stroke="black"/>
<path d="M92.5976,108.58h -7.05827" fill="none" stroke="black"/>
<path d="M92.5976,101.799h -7.05827" fill="none" stroke="black"/>
<path d="M92.5976,95.0175h -7.05827" fill="none" stroke="black"/>
<path d="M99.6559,88.2363h -14.1165" fill="none" stroke="black"/>
<path d="M92.5976,81.4552h -7.05827" fill="none" stroke="black"/>
<path d="M92.5976,74.6741h -7.05827" fill="none" stroke="black"/>
<path d="M92.5976,67.893h -7.05827" fill="none" stroke="black"/>
<path d="M92.5976,61.1118h -7.05827" fill="none" stroke="black"/>
<path d="M99.6559,54.3307h -14.1165" fill="none" stroke="black"/>
<path d="M92.5976,47.5496h -7.05827" fill="none" stroke="black"/>
<path d="M92.5976,40.7685h -7.05827" fill="none" stroke="black"/>
<path d="M92.5976,33.9873h -7.05827" fill="none" stroke="black"/>
<path d="M92.5976,27.2062h -7.05827" fill="none" stroke="black"/>
<path d="M99.6559,20.4251h -14.1165" fill="none" stroke="black"/>
<text xml:space="preserve" x="74.3855" y="365.165" fill="black" font-size="15.4909" font-family="Helvetica">0</text>
<text xml:space="preserve" x="65.8603" y="331.064" fill="black" font-size="15.4909" font-family="Helvetica">10</text>
<text xml:space="preserve" x="65.8603" y="296.963" fill="black" font-size="15.4909" font-family="Helvetica">20</text>
<text xml:space="preserve" x="65.8603" y="262.862" fill="black" font-size="15.4909" font-family="Helvetica">30</text>
<text xml:space="preserve" x="65.8603" y="229.471" fill="black" font-size="15.4909" font-family="Helvetica">40</text>
<text xml:space="preserve" x="65.8603" y="195.37" fill="black" font-size="15.4909" font-family="Helvetica">50</text>
<text xml:space="preserve" x="65.8603" y="161.269" fill="black" font-size="15.4909" font-family="Helvetica">60</text>
<text xml:space="preserve" x="65.8603" y="127.168" fill="black" font-size="15.4909" font-family="Helvetica">70</text>
<text xml:space="preserve" x="65.8603" y="93.7778" fill="black" font-size="15.4909" font-family="Helvetica">80</text>
<text xml:space="preserve" x="65.8603" y="59.6768" fill="black" font-size="15.4909" font-family="Helvetica">90</text>
<text xml:space="preserve" x="58.0454" y="25.5758" fill="black" font-size="15.4909" font-family="Helvetica">100</text>
<g transform="rotate(-90,54.4933,27.7071)">
<text xml:space="preserve" x="54.4933" y="27.7071" fill="black" font-size="12.9924" font-family="Helvetica">T</text>
</g>
<g transform="rotate(-90,43.8367,49.0202)">
<text xml:space="preserve" x="43.8367" y="49.0202" fill="black" font-size="19.2386" font-family="Helvetica">dp</text>
</g>
<g transform="rotate(-90,23.9444,46.1784)">
<text xml:space="preserve" x="23.9444" y="46.1784" fill="black" font-size="19.2386" font-family="Helvetica">dN</text>
</g>
<path d="M27.4966,49.0202v -29.1279" fill="none" stroke="black" stroke-width="2"/>
<g transform="rotate(-90,32.4697,55.4141)">
<text xml:space="preserve" x="32.4697" y="55.4141" fill="black" font-size="19.2386" font-family="Helvetica"> </text>
</g>
<g transform="rotate(-90,49.5202,72.4646)">
<text xml:space="preserve" x="49.5202" y="72.4646" fill="black" font-size="12.9924" font-family="Helvetica">evt</text>
</g>
<g transform="rotate(-90,43.8367,85.2525)">
<text xml:space="preserve" x="43.8367" y="85.2525" fill="black" font-size="19.2386" font-family="Helvetica">N</text>
</g>
<g transform="rotate(-90,24.6549,73.8855)">
<text xml:space="preserve" x="24.6549" y="73.8855" fill="black" font-size="19.2386" font-family="Helvetica">1</text>
</g>
<path d="M27.4966,85.2525v -29.8384" fill="none" stroke="black" stroke-width="2"/>
<path d="M482.39,359.481v -339.056" fill="none" stroke="black"/>
<path d="M468.273,359.481h 14.1165" fill="none" stroke="black"/>
<path d="M475.332,352.7h 7.05827" fill="none" stroke="black"/>
<path d="M475.332,345.919h 7.05827" fill="none" stroke="black"/>
<path d="M475.332,339.138h 7.05827" fill="none" stroke="black"/>
<path d="M475.332,332.357h 7.05827" fill="none" stroke="black"/>
<path d="M468.273,325.576h 14.1165" fill="none" stroke="black"/>
<path d="M475.332,318.795h 7.05827" fill="none" stroke="black"/>
<path d="M475.332,312.014h 7.05827" fill="none" stroke="black"/>
<path d="M475.332,305.232h 7.05827" fill="none" stroke="black"/>
<path d="M475.332,298.451h 7.05827" fill="none" stroke="black"/>
<path d="M468.273,291.67h 14.1165" fill="none" stroke="black"/>
<path d="M475.332,284.889h 7.05827" fill="none" stroke="black"/>
<path d="M475.332,278.108h 7.05827" fill="none" stroke="black"/>
<path d="M475.332,271.327h 7.05827" fill="none" stroke="black"/>
<path d="M475.332,264.546h 7.05827" fill="none" stroke="black"/>
<path d="M468.273,257.764h 14.1165" fill="none" stroke="black"/>
<path d="M475.332,250.983h 7.05827" fill="none" stroke="black"/>
<path d="M475.332,244.202h 7.05827" fill="none" stroke="black"/>
<path d="M475.332,237.421h 7.05827" fill="none" stroke="black"/>
<path d="M475.332,230.64h 7.05827" fill="none" stroke="black"/>
<path d="M468.273,223.859h 14.1165" fill="none" stroke="black"/>
<path d="M475.332,217.078h 7.05827" fill="none" stroke="black"/>
<path d="M475.332,210.297h 7.05827" fill="none" stroke="black"/>
<path d="M475.332,203.515h 7.05827" fill="none" stroke="black"/>
<path d="M475.332,196.734h 7.05827" fill="none" stroke="black"/>
<path d="M468.273,189.953h 14.1165" fill="none" stroke="black"/>
<path d="M475.332,183.172h 7.05827" fill="none" stroke="black"/>
<path d="M475.332,176.391h 7.05827" fill="none" stroke="black"/>
<path d="M475.332,169.61h 7.05827" fill="none" stroke="black"/>
<path d="M475.332,162.829h 7.05827" fill="none" stroke="black"/>
<path d="M468.273,156.048h 14.1165" fill="none" stroke="black"/>
<path d="M475.332,149.266h 7.05827" fill="none" stroke="black"/>
<path d="M475.332,142.485h 7.05827" fill="none" stroke="black"/>
<path d="M475.332,135.704h 7.05827" fill="none" stroke="black"/>
<path d="M475.332,128.923h 7.05827" fill="none" stroke="black"/>
<path d="M468.273,122.142h 14.1165" fill="none" stroke="black"/>
<path d="M475.332,115.361h 7.05827" fill="none" stroke="black"/>
<path d="M475.332,108.58h 7.05827" fill="none" stroke="black"/>
<path d="M475.332,101.799h 7.05827" fill="none" stroke="black"/>
<path d="M475.332,95.0175h 7.05827" fill="none" stroke="black"/>
<path d="M468.273,88.2363h 14.1165" fill="none" stroke="black"/>
<path d="M475.332,81.4552h 7.05827" fill="none" stroke="black"/>
<path d="M475.332,74.6741h 7.05827" fill="none" stroke="black"/>
<path d="M475.332,67.893h 7.05827" fill="none" stroke="black"/>
<path d="M475.332,61.1118h 7.05827" fill="none" stroke="black"/>
<path d="M468.273,54.3307h 14.1165" fill="none" stroke="black"/>
<path d="M475.332,47.5496h 7.05827" fill="none" stroke="black"/>
<path d="M475.332,40.7685h 7.05827" fill="none" stroke="black"/>
<path d="M475.332,33.9873h 7.05827" fill="none" stroke="black"/>
<path d="M475.332,27.2062h 7.05827" fill="none" stroke="black"/>
<path d="M468.273,20.4251h 14.1165" fill="none" stroke="black"/>
<path d="M85.5394,215.458h 0.630691" fill="none" stroke="#7c99d1"/>
<path d="M91.8536,215.458h 0.630691" fill="none" stroke="#7c99d1"/>
<g fill="#7c99d1">
<rect x="86.1701" y="212.616" width="5.6835" height="5.6835"/>
</g>
<path d="M92.4843,105.757h 0.630691" fill="none" stroke="#7c99d1"/>
<path d="M98.7984,105.757h 0.630691" fill="none" stroke="#7c99d1"/>
<g fill="#7c99d1">
<rect x="93.1149" y="102.915" width="5.6835" height="5.6835"/>
</g>
<path d="M99.4291,163.213h 0.630691" fill="none" stroke="#7c99d1"/>
<path d="M105.743,163.213h 0.630691" fill="none" stroke="#7c99d1"/>
<g fill="#7c99d1">
<rect x="100.06" y="160.371" width="5.6835" height="5.6835"/>
</g>
<path d="M106.374,233.84h 0.630691" fill="none" stroke="#7c99d1"/>
<path d="M112.688,233.84h 0.630691" fill="none" stroke="#7c99d1"/>
<g fill="#7c99d1">
<rect x="107.005" y="230.999" width="5.6835" height="5.6835"/>
</g>
<path d="M113.319,286.877h 0.630691" fill="none" stroke="#7c99d1"/>
<path d="M119.633,286.877h 0.630691" fill="none" stroke="#7c99d1"/>
<g fill="#7c99d1">
<rect x="113.95" y="284.036" width="5.6835" height="5.6835"/>
</g>
<path d="M120.264,319.267h 0.630691" fill="none" stroke="#7c99d1"/>
<path d="M126.578,319.267h 0.630691" fill="none" stroke="#7c99d1"/>
<g fill="#7c99d1">
<rect x="120.894" y="316.425" width="5.6835" height="5.6835"/>
</g>
<path d="M127.209,337.78h 0.630691" fill="none" stroke="#7c99d1"/>
<path d="M133.523,337.78h 0.630691" fill="none" stroke="#7c99d1"/>
<g fill="#7c99d1">
<rect x="127.839" y="334.938" width="5.6835" height="5.6835"/>
</g>
<path d="M134.154,347.659h 0.630691" fill="none" stroke="#7c99d1"/>
<path d="M140.468,347.659h 0.630691" fill="none" stroke="#7c99d1"/>
<g fill="#7c99d1">
<rect x="134.784" y="344.818" width="5.6835" height="5.6835"/>
</g>
<path d="M141.098,352.94h 0.630691" fill="none" stroke="#7c99d1"/>
<path d="M147.413,352.94h 0.630691" fill="none" stroke="#7c99d1"/>
<g fill="#7c99d1">
<rect x="141.729" y="350.099" width="5.6835" height="5.6835"/>
</g>
<path d="M148.043,355.613h 0.630691" fill="none" stroke="#7c99d1"/>
<path d="M154.357,355.613h 0.630691" fill="none" stroke="#7c99d1"/>
<g fill="#7c99d1">
<rect x="148.674" y="352.771" width="5.6835" height="5.6835"/>
</g>
<path d="M154.988,357.134h 0.630691" fill="none" stroke="#7c99d1"/>
<path d="M161.302,357.134h 0.630691" fill="none" stroke="#7c99d1"/>
<g fill="#7c99d1">
<rect x="155.619" y="354.292" width="5.6835" height="5.6835"/>
</g>
<path d="M161.933,358.059h 0.630691" fill="none" stroke="#7c99d1"/>
<path d="M168.247,358.059h 0.630691" fill="none" stroke="#7c99d1"/>
<g fill="#7c99d1">
<rect x="162.564" y="355.218" width="5.6835" height="5.6835"/>
</g>
<path d="M168.878,358.517h 0.630691" fill="none" stroke="#7c99d1"/>
<path d="M175.192,358.517h 0.630691" fill="none" stroke="#7c99d1"/>
<g fill="#7c99d1">
<rect x="169.509" y="355.675" width="5.6835" height="5.6835"/>
</g>
<path d="M175.823,358.81h 0.630691" fill="none" stroke="#7c99d1"/>
<path d="M182.137,358.81h 0.630691" fill="none" stroke="#7c99d1"/>
<g fill="#7c99d1">
<rect x="176.454" y="355.969" width="5.6835" height="5.6835"/>
</g>
<path d="M182.768,359.007h 0.630691" fill="none" stroke="#7c99d1"/>
<path d="M189.082,359.007h 0.630691" fill="none" stroke="#7c99d1"/>
<g fill="#7c99d1">
<rect x="183.398" y="356.165" width="5.6835" height="5.6835"/>
</g>
<path d="M189.713,359.208h 0.630691" fill="none" stroke="#7c99d1"/>
<path d="M196.027,359.208h 0.630691" fill="none" stroke="#7c99d1"/>
<g fill="#7c99d1">
<rect x="190.343" y="356.366" width="5.6835" height="5.6835"/>
</g>
<path d="M196.657,359.239h 0.630691" fill="none" stroke="#7c99d1"/>
<path d="M202.972,359.239h 0.630691" fill="none" stroke="#7c99d1"/>
<g fill="#7c99d1">
<rect x="197.288" y="356.397" width="5.6835" height="5.6835"/>
</g>
<path d="M203.602,359.331h 0.630691" fill="none" stroke="#7c99d1"/>
<path d="M209.917,359.331h 0.630691" fill="none" stroke="#7c99d1"/>
<g fill="#7c99d1">
<rect x="204.233" y="356.489" width="5.6835" height="5.6835"/>
</g>
<path d="M210.547,359.365h 0.630691" fill="none" stroke="#7c99d1"/>
<path d="M216.861,359.365h 0.630691" fill="none" stroke="#7c99d1"/>
<g fill="#7c99d1">
<rect x="211.178" y="356.523" width="5.6835" height="5.6835"/>
</g>
<path d="M217.492,359.411h 0.630691" fill="none" stroke="#7c99d1"/>
<path d="M223.806,359.411h 0.630691" fill="none" stroke="#7c99d1"/>
<g fill="#7c99d1">
<rect x="218.123" y="356.569" width="5.6835" height="5.6835"/>
</g>
<path d="M224.437,359.44h 0.630691" fill="none" stroke="#7c99d1"/>
<path d="M230.751,359.44h 0.630691" fill="none" stroke="#7c99d1"/>
<g fill="#7c99d1">
<rect x="225.068" y="356.598" width="5.6835" height="5.6835"/>
</g>
<path d="M231.382,359.457h 0.630691" fill="none" stroke="#7c99d1"/>
<path d="M237.696,359.457h 0.630691" fill="none" stroke="#7c99d1"/>
<g fill="#7c99d1">
<rect x="232.013" y="356.615" width="5.6835" height="5.6835"/>
</g>
<path d="M238.327,359.452h 0.630691" fill="none" stroke="#7c99d1"/>
<path d="M244.641,359.452h 0.630691" fill="none" stroke="#7c99d1"/>
<g fill="#7c99d1">
<rect x="238.957" y="356.611" width="5.6835" height="5.6835"/>
</g>
<path d="M245.272,359.46h 0.630691" fill="none" stroke="#7c99d1"/>
<path d="M251.586,359.46h 0.630691" fill="none" stroke="#7c99d1"/>
<g fill="#7c99d1">
<rect x="245.902" y="356.618" width="5.6835" height="5.6835"/>
</g>
<path d="M252.217,359.464h 0.630691" fill="none" stroke="#7c99d1"/>
<path d="M258.531,359.464h 0.630691" fill="none" stroke="#7c99d1"/>
<g fill="#7c99d1">
<rect x="252.847" y="356.623" width="5.6835" height="5.6835"/>
</g>
<path d="M259.161,359.462h 0.630691" fill="none" stroke="#7c99d1"/>
<path d="M265.476,359.462h 0.630691" fill="none" stroke="#7c99d1"/>
<g fill="#7c99d1">
<rect x="259.792" y="356.62" width="5.6835" height="5.6835"/>
</g>
<path d="M266.106,359.472h 0.630691" fill="none" stroke="#7c99d1"/>
<path d="M272.421,359.472h 0.630691" fill="none" stroke="#7c99d1"/>
<g fill="#7c99d1">
<rect x="266.737" y="356.63" width="5.6835" height="5.6835"/>
</g>
<path d="M273.051,359.474h 0.630691" fill="none" stroke="#7c99d1"/>
<path d="M279.365,359.474h 0.630691" fill="none" stroke="#7c99d1"/>
<g fill="#7c99d1">
<rect x="273.682" y="356.632" width="5.6835" height="5.6835"/>
</g>
<path d="M279.996,359.469h 0.630691" fill="none" stroke="#7c99d1"/>
<path d="M286.31,359.469h 0.630691" fill="none" stroke="#7c99d1"/>
<g fill="#7c99d1">
<rect x="280.627" y="356.628" width="5.6835" height="5.6835"/>
</g>
<path d="M293.886,359.479h 0.630691" fill="none" stroke="#7c99d1"/>
<path d="M300.2,359.479h 0.630691" fill="none" stroke="#7c99d1"/>
<g fill="#7c99d1">
<rect x="294.517" y="356.637" width="5.6835" height="5.6835"/>
</g>
<path d="M300.831,359.477h 0.630691" fill="none" stroke="#7c99d1"/>
<path d="M307.145,359.477h 0.630691" fill="none" stroke="#7c99d1"/>
<g fill="#7c99d1">
<rect x="301.461" y="356.635" width="5.6835" height="5.6835"/>
</g>
<path d="M314.72,359.479h 0.630691" fill="none" stroke="#7c99d1"/>
<path d="M321.035,359.479h 0.630691" fill="none" stroke="#7c99d1"/>
<g fill="#7c99d1">
<rect x="315.351" y="356.637" width="5.6835" height="5.6835"/>
</g>
<path d="M335.555,359.479h 0.630691" fill="none" stroke="#7c99d1"/>
<path d="M341.869,359.479h 0.630691" fill="none" stroke="#7c99d1"/>
<g fill="#7c99d1">
<rect x="336.186" y="356.637" width="5.6835" height="5.6835"/>
</g>
<path d="M370.28,359.479h 0.630691" fill="none" stroke="#7c99d1"/>
<path d="M376.594,359.479h 0.630691" fill="none" stroke="#7c99d1"/>
<g fill="#7c99d1">
<rect x="370.91" y="356.637" width="5.6835" height="5.6835"/>
</g>
<text xml:space="preserve" x="304.567" y="46.1784" fill="black" font-size="15.4909" font-family="Helvetica">PYTHIA8</text>
<text xml:space="preserve" x="304.567" y="70.3333" fill="black" font-size="15.4909" font-family="Helvetica">p+Au 200 GeV</text>
<text xml:space="preserve" x="304.567" y="95.1986" fill="black" font-size="15.4909" font-family="Helvetica">option = 3(No diffraction)</text>
<text xml:space="preserve" x="304.567" y="119.354" fill="black" font-size="15.4909" font-family="Helvetica">100,000 events</text>
<text xml:space="preserve" x="304.567" y="144.219" fill="black" font-size="15.4909" font-family="Helvetica">centrality 10~20%</text></svg>
