<?xml version="1.0" standalone="no"?>
<svg width="567.429" height="409.002" viewBox="0 0 567.429 409.002" xmlns="http://www.w3.org/2000/svg" shape-rendering="crispEdges">
<title>
/Users/jinhyunpark/npl/GitHub/xloadFromServer/Git_Bias_correction_RxA/plots/pTpionClass3(cent 20~40%.svg
</title>
<desc>
Creator: ROOT Version 6.26/06
CreationDate: Thu Feb 23 16:12:02 2023</desc>
<defs>
</defs>
<rect x="0.5" y="0" width="566.929" height="408.502" fill="white"/>
<rect x="85.5394" y="20.4251" width="396.85" height="339.056" fill="white"/>
<rect x="85.5394" y="20.4251" width="396.85" height="339.056" fill="none" stroke="black"/>
<rect x="85.5394" y="20.4251" width="396.85" height="339.056" fill="white"/>
<rect x="85.5394" y="20.4251" width="396.85" height="339.056" fill="none" stroke="black"/>
<path d="M85.5394,359.481h 396.85" fill="none" stroke="black"/>
<path d="M85.5394,350.903v 8.57853" fill="none" stroke="black"/>
<path d="M94.3583,355.192v 4.28927" fill="none" stroke="black"/>
<path d="M103.177,355.192v 4.28927" fill="none" stroke="black"/>
<path d="M111.996,355.192v 4.28927" fill="none" stroke="black"/>
<path d="M120.815,355.192v 4.28927" fill="none" stroke="black"/>
<path d="M129.634,350.903v 8.57853" fill="none" stroke="black"/>
<path d="M138.453,355.192v 4.28927" fill="none" stroke="black"/>
<path d="M147.272,355.192v 4.28927" fill="none" stroke="black"/>
<path d="M156.091,355.192v 4.28927" fill="none" stroke="black"/>
<path d="M164.909,355.192v 4.28927" fill="none" stroke="black"/>
<path d="M173.728,350.903v 8.57853" fill="none" stroke="black"/>
<path d="M182.547,355.192v 4.28927" fill="none" stroke="black"/>
<path d="M191.366,355.192v 4.28927" fill="none" stroke="black"/>
<path d="M200.185,355.192v 4.28927" fill="none" stroke="black"/>
<path d="M209.004,355.192v 4.28927" fill="none" stroke="black"/>
<path d="M217.823,350.903v 8.57853" fill="none" stroke="black"/>
<path d="M226.642,355.192v 4.28927" fill="none" stroke="black"/>
<path d="M235.461,355.192v 4.28927" fill="none" stroke="black"/>
<path d="M244.28,355.192v 4.28927" fill="none" stroke="black"/>
<path d="M253.098,355.192v 4.28927" fill="none" stroke="black"/>
<path d="M261.917,350.903v 8.57853" fill="none" stroke="black"/>
<path d="M270.736,355.192v 4.28927" fill="none" stroke="black"/>
<path d="M279.555,355.192v 4.28927" fill="none" stroke="black"/>
<path d="M288.374,355.192v 4.28927" fill="none" stroke="black"/>
<path d="M297.193,355.192v 4.28927" fill="none" stroke="black"/>
<path d="M306.012,350.903v 8.57853" fill="none" stroke="black"/>
<path d="M314.831,355.192v 4.28927" fill="none" stroke="black"/>
<path d="M323.65,355.192v 4.28927" fill="none" stroke="black"/>
<path d="M332.469,355.192v 4.28927" fill="none" stroke="black"/>
<path d="M341.287,355.192v 4.28927" fill="none" stroke="black"/>
<path d="M350.106,350.903v 8.57853" fill="none" stroke="black"/>
<path d="M358.925,355.192v 4.28927" fill="none" stroke="black"/>
<path d="M367.744,355.192v 4.28927" fill="none" stroke="black"/>
<path d="M376.563,355.192v 4.28927" fill="none" stroke="black"/>
<path d="M385.382,355.192v 4.28927" fill="none" stroke="black"/>
<path d="M394.201,350.903v 8.57853" fill="none" stroke="black"/>
<path d="M403.02,355.192v 4.28927" fill="none" stroke="black"/>
<path d="M411.839,355.192v 4.28927" fill="none" stroke="black"/>
<path d="M420.657,355.192v 4.28927" fill="none" stroke="black"/>
<path d="M429.476,355.192v 4.28927" fill="none" stroke="black"/>
<path d="M438.295,350.903v 8.57853" fill="none" stroke="black"/>
<path d="M447.114,355.192v 4.28927" fill="none" stroke="black"/>
<path d="M455.933,355.192v 4.28927" fill="none" stroke="black"/>
<path d="M464.752,355.192v 4.28927" fill="none" stroke="black"/>
<path d="M473.571,355.192v 4.28927" fill="none" stroke="black"/>
<path d="M482.39,350.903v 8.57853" fill="none" stroke="black"/>
<text xml:space="preserve" x="80.7794" y="374.401" fill="black" font-size="15.4909" font-family="Helvetica">0</text>
<text xml:space="preserve" x="126.247" y="374.401" fill="black" font-size="15.4909" font-family="Helvetica">1</text>
<text xml:space="preserve" x="168.874" y="374.401" fill="black" font-size="15.4909" font-family="Helvetica">2</text>
<text xml:space="preserve" x="212.921" y="374.401" fill="black" font-size="15.4909" font-family="Helvetica">3</text>
<text xml:space="preserve" x="256.968" y="374.401" fill="black" font-size="15.4909" font-family="Helvetica">4</text>
<text xml:space="preserve" x="301.725" y="374.401" fill="black" font-size="15.4909" font-family="Helvetica">5</text>
<text xml:space="preserve" x="345.773" y="374.401" fill="black" font-size="15.4909" font-family="Helvetica">6</text>
<text xml:space="preserve" x="389.82" y="374.401" fill="black" font-size="15.4909" font-family="Helvetica">7</text>
<text xml:space="preserve" x="433.867" y="374.401" fill="black" font-size="15.4909" font-family="Helvetica">8</text>
<text xml:space="preserve" x="477.914" y="374.401" fill="black" font-size="15.4909" font-family="Helvetica">9</text>
<text xml:space="preserve" x="432.446" y="397.845" fill="black" font-size="19.2386" font-family="Helvetica">(GeV)</text>
<text xml:space="preserve" x="424.631" y="407.791" fill="black" font-size="12.9924" font-family="Helvetica">T</text>
<text xml:space="preserve" x="413.975" y="397.845" fill="black" font-size="19.2386" font-family="Helvetica">p</text>
<path d="M85.5394,20.4251h 396.85" fill="none" stroke="black"/>
<path d="M85.5394,29.0036v -8.57853" fill="none" stroke="black"/>
<path d="M94.3583,24.7143v -4.28927" fill="none" stroke="black"/>
<path d="M103.177,24.7143v -4.28927" fill="none" stroke="black"/>
<path d="M111.996,24.7143v -4.28927" fill="none" stroke="black"/>
<path d="M120.815,24.7143v -4.28927" fill="none" stroke="black"/>
<path d="M129.634,29.0036v -8.57853" fill="none" stroke="black"/>
<path d="M138.453,24.7143v -4.28927" fill="none" stroke="black"/>
<path d="M147.272,24.7143v -4.28927" fill="none" stroke="black"/>
<path d="M156.091,24.7143v -4.28927" fill="none" stroke="black"/>
<path d="M164.909,24.7143v -4.28927" fill="none" stroke="black"/>
<path d="M173.728,29.0036v -8.57853" fill="none" stroke="black"/>
<path d="M182.547,24.7143v -4.28927" fill="none" stroke="black"/>
<path d="M191.366,24.7143v -4.28927" fill="none" stroke="black"/>
<path d="M200.185,24.7143v -4.28927" fill="none" stroke="black"/>
<path d="M209.004,24.7143v -4.28927" fill="none" stroke="black"/>
<path d="M217.823,29.0036v -8.57853" fill="none" stroke="black"/>
<path d="M226.642,24.7143v -4.28927" fill="none" stroke="black"/>
<path d="M235.461,24.7143v -4.28927" fill="none" stroke="black"/>
<path d="M244.28,24.7143v -4.28927" fill="none" stroke="black"/>
<path d="M253.098,24.7143v -4.28927" fill="none" stroke="black"/>
<path d="M261.917,29.0036v -8.57853" fill="none" stroke="black"/>
<path d="M270.736,24.7143v -4.28927" fill="none" stroke="black"/>
<path d="M279.555,24.7143v -4.28927" fill="none" stroke="black"/>
<path d="M288.374,24.7143v -4.28927" fill="none" stroke="black"/>
<path d="M297.193,24.7143v -4.28927" fill="none" stroke="black"/>
<path d="M306.012,29.0036v -8.57853" fill="none" stroke="black"/>
<path d="M314.831,24.7143v -4.28927" fill="none" stroke="black"/>
<path d="M323.65,24.7143v -4.28927" fill="none" stroke="black"/>
<path d="M332.469,24.7143v -4.28927" fill="none" stroke="black"/>
<path d="M341.287,24.7143v -4.28927" fill="none" stroke="black"/>
<path d="M350.106,29.0036v -8.57853" fill="none" stroke="black"/>
<path d="M358.925,24.7143v -4.28927" fill="none" stroke="black"/>
<path d="M367.744,24.7143v -4.28927" fill="none" stroke="black"/>
<path d="M376.563,24.7143v -4.28927" fill="none" stroke="black"/>
<path d="M385.382,24.7143v -4.28927" fill="none" stroke="black"/>
<path d="M394.201,29.0036v -8.57853" fill="none" stroke="black"/>
<path d="M403.02,24.7143v -4.28927" fill="none" stroke="black"/>
<path d="M411.839,24.7143v -4.28927" fill="none" stroke="black"/>
<path d="M420.657,24.7143v -4.28927" fill="none" stroke="black"/>
<path d="M429.476,24.7143v -4.28927" fill="none" stroke="black"/>
<path d="M438.295,29.0036v -8.57853" fill="none" stroke="black"/>
<path d="M447.114,24.7143v -4.28927" fill="none" stroke="black"/>
<path d="M455.933,24.7143v -4.28927" fill="none" stroke="black"/>
<path d="M464.752,24.7143v -4.28927" fill="none" stroke="black"/>
<path d="M473.571,24.7143v -4.28927" fill="none" stroke="black"/>
<path d="M482.39,29.0036v -8.57853" fill="none" stroke="black"/>
<path d="M85.5394,359.481v -339.056" fill="none" stroke="black"/>
<path d="M99.6559,359.481h -14.1165" fill="none" stroke="black"/>
<path d="M92.5976,348.18h -7.05827" fill="none" stroke="black"/>
<path d="M92.5976,336.878h -7.05827" fill="none" stroke="black"/>
<path d="M92.5976,325.576h -7.05827" fill="none" stroke="black"/>
<path d="M99.6559,314.274h -14.1165" fill="none" stroke="black"/>
<path d="M92.5976,302.972h -7.05827" fill="none" stroke="black"/>
<path d="M92.5976,291.67h -7.05827" fill="none" stroke="black"/>
<path d="M92.5976,280.368h -7.05827" fill="none" stroke="black"/>
<path d="M99.6559,269.066h -14.1165" fill="none" stroke="black"/>
<path d="M92.5976,257.764h -7.05827" fill="none" stroke="black"/>
<path d="M92.5976,246.463h -7.05827" fill="none" stroke="black"/>
<path d="M92.5976,235.161h -7.05827" fill="none" stroke="black"/>
<path d="M99.6559,223.859h -14.1165" fill="none" stroke="black"/>
<path d="M92.5976,212.557h -7.05827" fill="none" stroke="black"/>
<path d="M92.5976,201.255h -7.05827" fill="none" stroke="black"/>
<path d="M92.5976,189.953h -7.05827" fill="none" stroke="black"/>
<path d="M99.6559,178.651h -14.1165" fill="none" stroke="black"/>
<path d="M92.5976,167.349h -7.05827" fill="none" stroke="black"/>
<path d="M92.5976,156.048h -7.05827" fill="none" stroke="black"/>
<path d="M92.5976,144.746h -7.05827" fill="none" stroke="black"/>
<path d="M99.6559,133.444h -14.1165" fill="none" stroke="black"/>
<path d="M92.5976,122.142h -7.05827" fill="none" stroke="black"/>
<path d="M92.5976,110.84h -7.05827" fill="none" stroke="black"/>
<path d="M92.5976,99.5382h -7.05827" fill="none" stroke="black"/>
<path d="M99.6559,88.2363h -14.1165" fill="none" stroke="black"/>
<path d="M92.5976,76.9345h -7.05827" fill="none" stroke="black"/>
<path d="M92.5976,65.6326h -7.05827" fill="none" stroke="black"/>
<path d="M92.5976,54.3307h -7.05827" fill="none" stroke="black"/>
<path d="M99.6559,43.0288h -14.1165" fill="none" stroke="black"/>
<path d="M99.6559,43.0288h -14.1165" fill="none" stroke="black"/>
<path d="M92.5976,31.727h -7.05827" fill="none" stroke="black"/>
<text xml:space="preserve" x="74.3855" y="365.165" fill="black" font-size="15.4909" font-family="Helvetica">0</text>
<text xml:space="preserve" x="65.8603" y="319.697" fill="black" font-size="15.4909" font-family="Helvetica">20</text>
<text xml:space="preserve" x="65.8603" y="274.229" fill="black" font-size="15.4909" font-family="Helvetica">40</text>
<text xml:space="preserve" x="65.8603" y="229.471" fill="black" font-size="15.4909" font-family="Helvetica">60</text>
<text xml:space="preserve" x="65.8603" y="184.003" fill="black" font-size="15.4909" font-family="Helvetica">80</text>
<text xml:space="preserve" x="58.0454" y="138.535" fill="black" font-size="15.4909" font-family="Helvetica">100</text>
<text xml:space="preserve" x="58.0454" y="93.7778" fill="black" font-size="15.4909" font-family="Helvetica">120</text>
<text xml:space="preserve" x="58.0454" y="48.3098" fill="black" font-size="15.4909" font-family="Helvetica">140</text>
<g transform="rotate(-90,54.4933,27.7071)">
<text xml:space="preserve" x="54.4933" y="27.7071" fill="black" font-size="12.9924" font-family="Helvetica">T</text>
</g>
<g transform="rotate(-90,43.8367,49.0202)">
<text xml:space="preserve" x="43.8367" y="49.0202" fill="black" font-size="19.2386" font-family="Helvetica">dp</text>
</g>
<g transform="rotate(-90,23.9444,46.1784)">
<text xml:space="preserve" x="23.9444" y="46.1784" fill="black" font-size="19.2386" font-family="Helvetica">dN</text>
</g>
<path d="M27.4966,49.0202v -29.1279" fill="none" stroke="black" stroke-width="2"/>
<g transform="rotate(-90,32.4697,55.4141)">
<text xml:space="preserve" x="32.4697" y="55.4141" fill="black" font-size="19.2386" font-family="Helvetica"> </text>
</g>
<g transform="rotate(-90,49.5202,72.4646)">
<text xml:space="preserve" x="49.5202" y="72.4646" fill="black" font-size="12.9924" font-family="Helvetica">evt</text>
</g>
<g transform="rotate(-90,43.8367,85.2525)">
<text xml:space="preserve" x="43.8367" y="85.2525" fill="black" font-size="19.2386" font-family="Helvetica">N</text>
</g>
<g transform="rotate(-90,24.6549,73.8855)">
<text xml:space="preserve" x="24.6549" y="73.8855" fill="black" font-size="19.2386" font-family="Helvetica">1</text>
</g>
<path d="M27.4966,85.2525v -29.8384" fill="none" stroke="black" stroke-width="2"/>
<path d="M482.39,359.481v -339.056" fill="none" stroke="black"/>
<path d="M468.273,359.481h 14.1165" fill="none" stroke="black"/>
<path d="M475.332,348.18h 7.05827" fill="none" stroke="black"/>
<path d="M475.332,336.878h 7.05827" fill="none" stroke="black"/>
<path d="M475.332,325.576h 7.05827" fill="none" stroke="black"/>
<path d="M468.273,314.274h 14.1165" fill="none" stroke="black"/>
<path d="M475.332,302.972h 7.05827" fill="none" stroke="black"/>
<path d="M475.332,291.67h 7.05827" fill="none" stroke="black"/>
<path d="M475.332,280.368h 7.05827" fill="none" stroke="black"/>
<path d="M468.273,269.066h 14.1165" fill="none" stroke="black"/>
<path d="M475.332,257.764h 7.05827" fill="none" stroke="black"/>
<path d="M475.332,246.463h 7.05827" fill="none" stroke="black"/>
<path d="M475.332,235.161h 7.05827" fill="none" stroke="black"/>
<path d="M468.273,223.859h 14.1165" fill="none" stroke="black"/>
<path d="M475.332,212.557h 7.05827" fill="none" stroke="black"/>
<path d="M475.332,201.255h 7.05827" fill="none" stroke="black"/>
<path d="M475.332,189.953h 7.05827" fill="none" stroke="black"/>
<path d="M468.273,178.651h 14.1165" fill="none" stroke="black"/>
<path d="M475.332,167.349h 7.05827" fill="none" stroke="black"/>
<path d="M475.332,156.048h 7.05827" fill="none" stroke="black"/>
<path d="M475.332,144.746h 7.05827" fill="none" stroke="black"/>
<path d="M468.273,133.444h 14.1165" fill="none" stroke="black"/>
<path d="M475.332,122.142h 7.05827" fill="none" stroke="black"/>
<path d="M475.332,110.84h 7.05827" fill="none" stroke="black"/>
<path d="M475.332,99.5382h 7.05827" fill="none" stroke="black"/>
<path d="M468.273,88.2363h 14.1165" fill="none" stroke="black"/>
<path d="M475.332,76.9345h 7.05827" fill="none" stroke="black"/>
<path d="M475.332,65.6326h 7.05827" fill="none" stroke="black"/>
<path d="M475.332,54.3307h 7.05827" fill="none" stroke="black"/>
<path d="M468.273,43.0288h 14.1165" fill="none" stroke="black"/>
<path d="M468.273,43.0288h 14.1165" fill="none" stroke="black"/>
<path d="M475.332,31.727h 7.05827" fill="none" stroke="black"/>
<path d="M85.5394,195.163h 0.244864" fill="none" stroke="#7c99d1"/>
<path d="M91.4677,195.163h 0.244864" fill="none" stroke="#7c99d1"/>
<g fill="#7c99d1">
<rect x="85.7842" y="192.321" width="5.6835" height="5.6835"/>
</g>
<path d="M91.7126,70.488h 0.244864" fill="none" stroke="#7c99d1"/>
<path d="M97.641,70.488h 0.244864" fill="none" stroke="#7c99d1"/>
<g fill="#7c99d1">
<rect x="91.9575" y="67.6463" width="5.6835" height="5.6835"/>
</g>
<path d="M97.8858,135.477h 0.244864" fill="none" stroke="#7c99d1"/>
<path d="M103.814,135.477h 0.244864" fill="none" stroke="#7c99d1"/>
<g fill="#7c99d1">
<rect x="98.1307" y="132.635" width="5.6835" height="5.6835"/>
</g>
<path d="M104.059,215.397h 0.244864" fill="none" stroke="#7c99d1"/>
<path d="M109.987,215.397h 0.244864" fill="none" stroke="#7c99d1"/>
<g fill="#7c99d1">
<rect x="104.304" y="212.556" width="5.6835" height="5.6835"/>
</g>
<path d="M110.232,275.491h 0.244864" fill="none" stroke="#7c99d1"/>
<path d="M116.161,275.491h 0.244864" fill="none" stroke="#7c99d1"/>
<g fill="#7c99d1">
<rect x="110.477" y="272.65" width="5.6835" height="5.6835"/>
</g>
<path d="M116.406,313.317h 0.244864" fill="none" stroke="#7c99d1"/>
<path d="M122.334,313.317h 0.244864" fill="none" stroke="#7c99d1"/>
<g fill="#7c99d1">
<rect x="116.65" y="310.475" width="5.6835" height="5.6835"/>
</g>
<path d="M122.579,334.353h 0.244864" fill="none" stroke="#7c99d1"/>
<path d="M128.507,334.353h 0.244864" fill="none" stroke="#7c99d1"/>
<g fill="#7c99d1">
<rect x="122.824" y="331.511" width="5.6835" height="5.6835"/>
</g>
<path d="M128.752,345.71h 0.244864" fill="none" stroke="#7c99d1"/>
<path d="M134.68,345.71h 0.244864" fill="none" stroke="#7c99d1"/>
<g fill="#7c99d1">
<rect x="128.997" y="342.868" width="5.6835" height="5.6835"/>
</g>
<path d="M134.925,351.831h 0.244864" fill="none" stroke="#7c99d1"/>
<path d="M140.854,351.831h 0.244864" fill="none" stroke="#7c99d1"/>
<g fill="#7c99d1">
<rect x="135.17" y="348.989" width="5.6835" height="5.6835"/>
</g>
<path d="M141.098,354.925h 0.244864" fill="none" stroke="#7c99d1"/>
<path d="M147.027,354.925h 0.244864" fill="none" stroke="#7c99d1"/>
<g fill="#7c99d1">
<rect x="141.343" y="352.084" width="5.6835" height="5.6835"/>
</g>
<path d="M147.272,356.741h 0.244864" fill="none" stroke="#7c99d1"/>
<path d="M153.2,356.741h 0.244864" fill="none" stroke="#7c99d1"/>
<g fill="#7c99d1">
<rect x="147.517" y="353.899" width="5.6835" height="5.6835"/>
</g>
<path d="M153.445,357.779h 0.244864" fill="none" stroke="#7c99d1"/>
<path d="M159.373,357.779h 0.244864" fill="none" stroke="#7c99d1"/>
<g fill="#7c99d1">
<rect x="153.69" y="354.937" width="5.6835" height="5.6835"/>
</g>
<path d="M159.618,358.364h 0.244864" fill="none" stroke="#7c99d1"/>
<path d="M165.546,358.364h 0.244864" fill="none" stroke="#7c99d1"/>
<g fill="#7c99d1">
<rect x="159.863" y="355.522" width="5.6835" height="5.6835"/>
</g>
<path d="M165.791,358.727h 0.244864" fill="none" stroke="#7c99d1"/>
<path d="M171.72,358.727h 0.244864" fill="none" stroke="#7c99d1"/>
<g fill="#7c99d1">
<rect x="166.036" y="355.885" width="5.6835" height="5.6835"/>
</g>
<path d="M171.965,358.992h 0.244864" fill="none" stroke="#7c99d1"/>
<path d="M177.893,358.992h 0.244864" fill="none" stroke="#7c99d1"/>
<g fill="#7c99d1">
<rect x="172.209" y="356.15" width="5.6835" height="5.6835"/>
</g>
<path d="M178.138,359.107h 0.244864" fill="none" stroke="#7c99d1"/>
<path d="M184.066,359.107h 0.244864" fill="none" stroke="#7c99d1"/>
<g fill="#7c99d1">
<rect x="178.383" y="356.265" width="5.6835" height="5.6835"/>
</g>
<path d="M184.311,359.229h 0.244864" fill="none" stroke="#7c99d1"/>
<path d="M190.239,359.229h 0.244864" fill="none" stroke="#7c99d1"/>
<g fill="#7c99d1">
<rect x="184.556" y="356.388" width="5.6835" height="5.6835"/>
</g>
<path d="M190.484,359.296h 0.244864" fill="none" stroke="#7c99d1"/>
<path d="M196.413,359.296h 0.244864" fill="none" stroke="#7c99d1"/>
<g fill="#7c99d1">
<rect x="190.729" y="356.454" width="5.6835" height="5.6835"/>
</g>
<path d="M196.657,359.391h 0.244864" fill="none" stroke="#7c99d1"/>
<path d="M202.586,359.391h 0.244864" fill="none" stroke="#7c99d1"/>
<g fill="#7c99d1">
<rect x="196.902" y="356.549" width="5.6835" height="5.6835"/>
</g>
<path d="M202.831,359.399h 0.244864" fill="none" stroke="#7c99d1"/>
<path d="M208.759,359.399h 0.244864" fill="none" stroke="#7c99d1"/>
<g fill="#7c99d1">
<rect x="203.076" y="356.557" width="5.6835" height="5.6835"/>
</g>
<path d="M209.004,359.435h 0.244864" fill="none" stroke="#7c99d1"/>
<path d="M214.932,359.435h 0.244864" fill="none" stroke="#7c99d1"/>
<g fill="#7c99d1">
<rect x="209.249" y="356.593" width="5.6835" height="5.6835"/>
</g>
<path d="M215.177,359.433h 0.244864" fill="none" stroke="#7c99d1"/>
<path d="M221.106,359.433h 0.244864" fill="none" stroke="#7c99d1"/>
<g fill="#7c99d1">
<rect x="215.422" y="356.591" width="5.6835" height="5.6835"/>
</g>
<path d="M221.35,359.449h 0.244864" fill="none" stroke="#7c99d1"/>
<path d="M227.279,359.449h 0.244864" fill="none" stroke="#7c99d1"/>
<g fill="#7c99d1">
<rect x="221.595" y="356.607" width="5.6835" height="5.6835"/>
</g>
<path d="M227.524,359.452h 0.244864" fill="none" stroke="#7c99d1"/>
<path d="M233.452,359.452h 0.244864" fill="none" stroke="#7c99d1"/>
<g fill="#7c99d1">
<rect x="227.768" y="356.611" width="5.6835" height="5.6835"/>
</g>
<path d="M233.697,359.465h 0.244864" fill="none" stroke="#7c99d1"/>
<path d="M239.625,359.465h 0.244864" fill="none" stroke="#7c99d1"/>
<g fill="#7c99d1">
<rect x="233.942" y="356.623" width="5.6835" height="5.6835"/>
</g>
<path d="M239.87,359.472h 0.244864" fill="none" stroke="#7c99d1"/>
<path d="M245.798,359.472h 0.244864" fill="none" stroke="#7c99d1"/>
<g fill="#7c99d1">
<rect x="240.115" y="356.63" width="5.6835" height="5.6835"/>
</g>
<path d="M246.043,359.467h 0.244864" fill="none" stroke="#7c99d1"/>
<path d="M251.972,359.467h 0.244864" fill="none" stroke="#7c99d1"/>
<g fill="#7c99d1">
<rect x="246.288" y="356.625" width="5.6835" height="5.6835"/>
</g>
<path d="M252.217,359.477h 0.244864" fill="none" stroke="#7c99d1"/>
<path d="M258.145,359.477h 0.244864" fill="none" stroke="#7c99d1"/>
<g fill="#7c99d1">
<rect x="252.461" y="356.635" width="5.6835" height="5.6835"/>
</g>
<path d="M258.39,359.473h 0.244864" fill="none" stroke="#7c99d1"/>
<path d="M264.318,359.473h 0.244864" fill="none" stroke="#7c99d1"/>
<g fill="#7c99d1">
<rect x="258.635" y="356.632" width="5.6835" height="5.6835"/>
</g>
<path d="M264.563,359.478h 0.244864" fill="none" stroke="#7c99d1"/>
<path d="M270.491,359.478h 0.244864" fill="none" stroke="#7c99d1"/>
<g fill="#7c99d1">
<rect x="264.808" y="356.636" width="5.6835" height="5.6835"/>
</g>
<path d="M270.736,359.477h 0.244864" fill="none" stroke="#7c99d1"/>
<path d="M276.665,359.477h 0.244864" fill="none" stroke="#7c99d1"/>
<g fill="#7c99d1">
<rect x="270.981" y="356.635" width="5.6835" height="5.6835"/>
</g>
<path d="M276.909,359.478h 0.244864" fill="none" stroke="#7c99d1"/>
<path d="M282.838,359.478h 0.244864" fill="none" stroke="#7c99d1"/>
<g fill="#7c99d1">
<rect x="277.154" y="356.636" width="5.6835" height="5.6835"/>
</g>
<path d="M283.083,359.478h 0.244864" fill="none" stroke="#7c99d1"/>
<path d="M289.011,359.478h 0.244864" fill="none" stroke="#7c99d1"/>
<g fill="#7c99d1">
<rect x="283.328" y="356.636" width="5.6835" height="5.6835"/>
</g>
<path d="M289.256,359.48h 0.244864" fill="none" stroke="#7c99d1"/>
<path d="M295.184,359.48h 0.244864" fill="none" stroke="#7c99d1"/>
<g fill="#7c99d1">
<rect x="289.501" y="356.638" width="5.6835" height="5.6835"/>
</g>
<path d="M295.429,359.48h 0.244864" fill="none" stroke="#7c99d1"/>
<path d="M301.358,359.48h 0.244864" fill="none" stroke="#7c99d1"/>
<g fill="#7c99d1">
<rect x="295.674" y="356.638" width="5.6835" height="5.6835"/>
</g>
<path d="M320.122,359.48h 0.244864" fill="none" stroke="#7c99d1"/>
<path d="M326.05,359.48h 0.244864" fill="none" stroke="#7c99d1"/>
<g fill="#7c99d1">
<rect x="320.367" y="356.638" width="5.6835" height="5.6835"/>
</g>
<path d="M350.988,359.48h 0.244864" fill="none" stroke="#7c99d1"/>
<path d="M356.917,359.48h 0.244864" fill="none" stroke="#7c99d1"/>
<g fill="#7c99d1">
<rect x="351.233" y="356.638" width="5.6835" height="5.6835"/>
</g>
<path d="M412.72,359.48h 0.244864" fill="none" stroke="#7c99d1"/>
<path d="M418.649,359.48h 0.244864" fill="none" stroke="#7c99d1"/>
<g fill="#7c99d1">
<rect x="412.965" y="356.638" width="5.6835" height="5.6835"/>
</g>
<text xml:space="preserve" x="304.567" y="46.1784" fill="black" font-size="15.4909" font-family="Helvetica">PYTHIA8</text>
<text xml:space="preserve" x="304.567" y="70.3333" fill="black" font-size="15.4909" font-family="Helvetica">p+Au 200 GeV</text>
<text xml:space="preserve" x="304.567" y="95.1986" fill="black" font-size="15.4909" font-family="Helvetica">option = 3(No diffraction)</text>
<text xml:space="preserve" x="304.567" y="119.354" fill="black" font-size="15.4909" font-family="Helvetica">100,000 events</text>
<text xml:space="preserve" x="304.567" y="144.219" fill="black" font-size="15.4909" font-family="Helvetica">centrality 20~40%</text></svg>
