<?xml version="1.0" standalone="no"?>
<svg width="567.429" height="345.467" viewBox="0 0 567.429 345.467" xmlns="http://www.w3.org/2000/svg" shape-rendering="crispEdges">
<title>
/Users/jinhyunpark/npl/gitHub/xloadFromServer/Git_Bias_correction_RxA/plots/R_pAu_opt0_allClass.svg
</title>
<desc>
Creator: ROOT Version 6.26/06
CreationDate: Wed Mar 22 20:22:25 2023</desc>
<defs>
</defs>
<rect x="0.5" y="0" width="566.929" height="344.967" fill="white"/>
<rect x="85.5394" y="17.2484" width="396.85" height="286.323" fill="white"/>
<rect x="85.5394" y="17.2484" width="396.85" height="286.323" fill="none" stroke="black"/>
<rect x="85.5394" y="17.2484" width="396.85" height="286.323" fill="white"/>
<rect x="85.5394" y="17.2484" width="396.85" height="286.323" fill="none" stroke="black"/>
<path d="M85.5394,303.571h 396.85" fill="none" stroke="black"/>
<path d="M85.5394,296.327v 7.24431" fill="none" stroke="black"/>
<path d="M93.4764,299.949v 3.62216" fill="none" stroke="black"/>
<path d="M101.413,299.949v 3.62216" fill="none" stroke="black"/>
<path d="M109.35,299.949v 3.62216" fill="none" stroke="black"/>
<path d="M117.287,299.949v 3.62216" fill="none" stroke="black"/>
<path d="M125.224,296.327v 7.24431" fill="none" stroke="black"/>
<path d="M133.161,299.949v 3.62216" fill="none" stroke="black"/>
<path d="M141.098,299.949v 3.62216" fill="none" stroke="black"/>
<path d="M149.035,299.949v 3.62216" fill="none" stroke="black"/>
<path d="M156.972,299.949v 3.62216" fill="none" stroke="black"/>
<path d="M164.909,296.327v 7.24431" fill="none" stroke="black"/>
<path d="M172.846,299.949v 3.62216" fill="none" stroke="black"/>
<path d="M180.783,299.949v 3.62216" fill="none" stroke="black"/>
<path d="M188.72,299.949v 3.62216" fill="none" stroke="black"/>
<path d="M196.657,299.949v 3.62216" fill="none" stroke="black"/>
<path d="M204.594,296.327v 7.24431" fill="none" stroke="black"/>
<path d="M212.531,299.949v 3.62216" fill="none" stroke="black"/>
<path d="M220.469,299.949v 3.62216" fill="none" stroke="black"/>
<path d="M228.406,299.949v 3.62216" fill="none" stroke="black"/>
<path d="M236.343,299.949v 3.62216" fill="none" stroke="black"/>
<path d="M244.28,296.327v 7.24431" fill="none" stroke="black"/>
<path d="M252.217,299.949v 3.62216" fill="none" stroke="black"/>
<path d="M260.154,299.949v 3.62216" fill="none" stroke="black"/>
<path d="M268.091,299.949v 3.62216" fill="none" stroke="black"/>
<path d="M276.028,299.949v 3.62216" fill="none" stroke="black"/>
<path d="M283.965,296.327v 7.24431" fill="none" stroke="black"/>
<path d="M291.902,299.949v 3.62216" fill="none" stroke="black"/>
<path d="M299.839,299.949v 3.62216" fill="none" stroke="black"/>
<path d="M307.776,299.949v 3.62216" fill="none" stroke="black"/>
<path d="M315.713,299.949v 3.62216" fill="none" stroke="black"/>
<path d="M323.65,296.327v 7.24431" fill="none" stroke="black"/>
<path d="M331.587,299.949v 3.62216" fill="none" stroke="black"/>
<path d="M339.524,299.949v 3.62216" fill="none" stroke="black"/>
<path d="M347.461,299.949v 3.62216" fill="none" stroke="black"/>
<path d="M355.398,299.949v 3.62216" fill="none" stroke="black"/>
<path d="M363.335,296.327v 7.24431" fill="none" stroke="black"/>
<path d="M371.272,299.949v 3.62216" fill="none" stroke="black"/>
<path d="M379.209,299.949v 3.62216" fill="none" stroke="black"/>
<path d="M387.146,299.949v 3.62216" fill="none" stroke="black"/>
<path d="M395.083,299.949v 3.62216" fill="none" stroke="black"/>
<path d="M403.02,296.327v 7.24431" fill="none" stroke="black"/>
<path d="M410.957,299.949v 3.62216" fill="none" stroke="black"/>
<path d="M418.894,299.949v 3.62216" fill="none" stroke="black"/>
<path d="M426.831,299.949v 3.62216" fill="none" stroke="black"/>
<path d="M434.768,299.949v 3.62216" fill="none" stroke="black"/>
<path d="M442.705,296.327v 7.24431" fill="none" stroke="black"/>
<path d="M450.642,299.949v 3.62216" fill="none" stroke="black"/>
<path d="M458.579,299.949v 3.62216" fill="none" stroke="black"/>
<path d="M466.516,299.949v 3.62216" fill="none" stroke="black"/>
<path d="M474.453,299.949v 3.62216" fill="none" stroke="black"/>
<path d="M482.39,296.327v 7.24431" fill="none" stroke="black"/>
<text xml:space="preserve" x="81.7152" y="316.187" fill="black" font-size="13.1593" font-family="Helvetica">0</text>
<text xml:space="preserve" x="122.717" y="316.187" fill="black" font-size="13.1593" font-family="Helvetica">1</text>
<text xml:space="preserve" x="161.353" y="316.187" fill="black" font-size="13.1593" font-family="Helvetica">2</text>
<text xml:space="preserve" x="200.778" y="316.187" fill="black" font-size="13.1593" font-family="Helvetica">3</text>
<text xml:space="preserve" x="240.597" y="316.187" fill="black" font-size="13.1593" font-family="Helvetica">4</text>
<text xml:space="preserve" x="280.416" y="316.187" fill="black" font-size="13.1593" font-family="Helvetica">5</text>
<text xml:space="preserve" x="319.841" y="316.187" fill="black" font-size="13.1593" font-family="Helvetica">6</text>
<text xml:space="preserve" x="359.66" y="316.187" fill="black" font-size="13.1593" font-family="Helvetica">7</text>
<text xml:space="preserve" x="399.085" y="316.187" fill="black" font-size="13.1593" font-family="Helvetica">8</text>
<text xml:space="preserve" x="438.904" y="316.187" fill="black" font-size="13.1593" font-family="Helvetica">9</text>
<text xml:space="preserve" x="475.175" y="316.187" fill="black" font-size="13.1593" font-family="Helvetica">10</text>
<text xml:space="preserve" x="440.087" y="336.294" fill="black" font-size="16.3242" font-family="Helvetica">(GeV)</text>
<text xml:space="preserve" x="433.779" y="344.573" fill="black" font-size="11.0495" font-family="Helvetica">T</text>
<text xml:space="preserve" x="425.105" y="336.294" fill="black" font-size="16.3242" font-family="Helvetica">p</text>
<path d="M85.5394,17.2484h 396.85" fill="none" stroke="black"/>
<path d="M85.5394,24.4927v -7.24431" fill="none" stroke="black"/>
<path d="M93.4764,20.8705v -3.62216" fill="none" stroke="black"/>
<path d="M101.413,20.8705v -3.62216" fill="none" stroke="black"/>
<path d="M109.35,20.8705v -3.62216" fill="none" stroke="black"/>
<path d="M117.287,20.8705v -3.62216" fill="none" stroke="black"/>
<path d="M125.224,24.4927v -7.24431" fill="none" stroke="black"/>
<path d="M133.161,20.8705v -3.62216" fill="none" stroke="black"/>
<path d="M141.098,20.8705v -3.62216" fill="none" stroke="black"/>
<path d="M149.035,20.8705v -3.62216" fill="none" stroke="black"/>
<path d="M156.972,20.8705v -3.62216" fill="none" stroke="black"/>
<path d="M164.909,24.4927v -7.24431" fill="none" stroke="black"/>
<path d="M172.846,20.8705v -3.62216" fill="none" stroke="black"/>
<path d="M180.783,20.8705v -3.62216" fill="none" stroke="black"/>
<path d="M188.72,20.8705v -3.62216" fill="none" stroke="black"/>
<path d="M196.657,20.8705v -3.62216" fill="none" stroke="black"/>
<path d="M204.594,24.4927v -7.24431" fill="none" stroke="black"/>
<path d="M212.531,20.8705v -3.62216" fill="none" stroke="black"/>
<path d="M220.469,20.8705v -3.62216" fill="none" stroke="black"/>
<path d="M228.406,20.8705v -3.62216" fill="none" stroke="black"/>
<path d="M236.343,20.8705v -3.62216" fill="none" stroke="black"/>
<path d="M244.28,24.4927v -7.24431" fill="none" stroke="black"/>
<path d="M252.217,20.8705v -3.62216" fill="none" stroke="black"/>
<path d="M260.154,20.8705v -3.62216" fill="none" stroke="black"/>
<path d="M268.091,20.8705v -3.62216" fill="none" stroke="black"/>
<path d="M276.028,20.8705v -3.62216" fill="none" stroke="black"/>
<path d="M283.965,24.4927v -7.24431" fill="none" stroke="black"/>
<path d="M291.902,20.8705v -3.62216" fill="none" stroke="black"/>
<path d="M299.839,20.8705v -3.62216" fill="none" stroke="black"/>
<path d="M307.776,20.8705v -3.62216" fill="none" stroke="black"/>
<path d="M315.713,20.8705v -3.62216" fill="none" stroke="black"/>
<path d="M323.65,24.4927v -7.24431" fill="none" stroke="black"/>
<path d="M331.587,20.8705v -3.62216" fill="none" stroke="black"/>
<path d="M339.524,20.8705v -3.62216" fill="none" stroke="black"/>
<path d="M347.461,20.8705v -3.62216" fill="none" stroke="black"/>
<path d="M355.398,20.8705v -3.62216" fill="none" stroke="black"/>
<path d="M363.335,24.4927v -7.24431" fill="none" stroke="black"/>
<path d="M371.272,20.8705v -3.62216" fill="none" stroke="black"/>
<path d="M379.209,20.8705v -3.62216" fill="none" stroke="black"/>
<path d="M387.146,20.8705v -3.62216" fill="none" stroke="black"/>
<path d="M395.083,20.8705v -3.62216" fill="none" stroke="black"/>
<path d="M403.02,24.4927v -7.24431" fill="none" stroke="black"/>
<path d="M410.957,20.8705v -3.62216" fill="none" stroke="black"/>
<path d="M418.894,20.8705v -3.62216" fill="none" stroke="black"/>
<path d="M426.831,20.8705v -3.62216" fill="none" stroke="black"/>
<path d="M434.768,20.8705v -3.62216" fill="none" stroke="black"/>
<path d="M442.705,24.4927v -7.24431" fill="none" stroke="black"/>
<path d="M450.642,20.8705v -3.62216" fill="none" stroke="black"/>
<path d="M458.579,20.8705v -3.62216" fill="none" stroke="black"/>
<path d="M466.516,20.8705v -3.62216" fill="none" stroke="black"/>
<path d="M474.453,20.8705v -3.62216" fill="none" stroke="black"/>
<path d="M482.39,24.4927v -7.24431" fill="none" stroke="black"/>
<path d="M85.5394,303.571v -286.323" fill="none" stroke="black"/>
<path d="M99.6559,303.571h -14.1165" fill="none" stroke="black"/>
<path d="M92.5976,292.118h -7.05827" fill="none" stroke="black"/>
<path d="M92.5976,280.665h -7.05827" fill="none" stroke="black"/>
<path d="M92.5976,269.212h -7.05827" fill="none" stroke="black"/>
<path d="M92.5976,257.76h -7.05827" fill="none" stroke="black"/>
<path d="M99.6559,246.307h -14.1165" fill="none" stroke="black"/>
<path d="M92.5976,234.854h -7.05827" fill="none" stroke="black"/>
<path d="M92.5976,223.401h -7.05827" fill="none" stroke="black"/>
<path d="M92.5976,211.948h -7.05827" fill="none" stroke="black"/>
<path d="M92.5976,200.495h -7.05827" fill="none" stroke="black"/>
<path d="M99.6559,189.042h -14.1165" fill="none" stroke="black"/>
<path d="M92.5976,177.589h -7.05827" fill="none" stroke="black"/>
<path d="M92.5976,166.136h -7.05827" fill="none" stroke="black"/>
<path d="M92.5976,154.683h -7.05827" fill="none" stroke="black"/>
<path d="M92.5976,143.23h -7.05827" fill="none" stroke="black"/>
<path d="M99.6559,131.778h -14.1165" fill="none" stroke="black"/>
<path d="M92.5976,120.325h -7.05827" fill="none" stroke="black"/>
<path d="M92.5976,108.872h -7.05827" fill="none" stroke="black"/>
<path d="M92.5976,97.4188h -7.05827" fill="none" stroke="black"/>
<path d="M92.5976,85.9659h -7.05827" fill="none" stroke="black"/>
<path d="M99.6559,74.5129h -14.1165" fill="none" stroke="black"/>
<path d="M92.5976,63.06h -7.05827" fill="none" stroke="black"/>
<path d="M92.5976,51.6071h -7.05827" fill="none" stroke="black"/>
<path d="M92.5976,40.1542h -7.05827" fill="none" stroke="black"/>
<path d="M92.5976,28.7013h -7.05827" fill="none" stroke="black"/>
<path d="M99.6559,17.2484h -14.1165" fill="none" stroke="black"/>
<text xml:space="preserve" x="75.8014" y="308.302" fill="black" font-size="13.1593" font-family="Helvetica">0</text>
<text xml:space="preserve" x="64.7625" y="250.742" fill="black" font-size="13.1593" font-family="Helvetica">0.5</text>
<text xml:space="preserve" x="77.7727" y="193.97" fill="black" font-size="13.1593" font-family="Helvetica">1</text>
<text xml:space="preserve" x="64.7625" y="136.41" fill="black" font-size="13.1593" font-family="Helvetica">1.5</text>
<text xml:space="preserve" x="75.8014" y="79.6382" fill="black" font-size="13.1593" font-family="Helvetica">2</text>
<text xml:space="preserve" x="64.7625" y="21.6837" fill="black" font-size="13.1593" font-family="Helvetica">2.5</text>
<g transform="rotate(-90,47.0213,35.4823)">
<text xml:space="preserve" x="47.0213" y="35.4823" fill="black" font-size="11.0495" font-family="Helvetica">pAu</text>
</g>
<g transform="rotate(-90,42.2903,46.5213)">
<text xml:space="preserve" x="42.2903" y="46.5213" fill="black" font-size="16.3242" font-family="Helvetica">R</text>
</g>
<path d="M482.39,303.571v -286.323" fill="none" stroke="black"/>
<path d="M468.273,303.571h 14.1165" fill="none" stroke="black"/>
<path d="M475.332,292.118h 7.05827" fill="none" stroke="black"/>
<path d="M475.332,280.665h 7.05827" fill="none" stroke="black"/>
<path d="M475.332,269.212h 7.05827" fill="none" stroke="black"/>
<path d="M475.332,257.76h 7.05827" fill="none" stroke="black"/>
<path d="M468.273,246.307h 14.1165" fill="none" stroke="black"/>
<path d="M475.332,234.854h 7.05827" fill="none" stroke="black"/>
<path d="M475.332,223.401h 7.05827" fill="none" stroke="black"/>
<path d="M475.332,211.948h 7.05827" fill="none" stroke="black"/>
<path d="M475.332,200.495h 7.05827" fill="none" stroke="black"/>
<path d="M468.273,189.042h 14.1165" fill="none" stroke="black"/>
<path d="M475.332,177.589h 7.05827" fill="none" stroke="black"/>
<path d="M475.332,166.136h 7.05827" fill="none" stroke="black"/>
<path d="M475.332,154.683h 7.05827" fill="none" stroke="black"/>
<path d="M475.332,143.23h 7.05827" fill="none" stroke="black"/>
<path d="M468.273,131.778h 14.1165" fill="none" stroke="black"/>
<path d="M475.332,120.325h 7.05827" fill="none" stroke="black"/>
<path d="M475.332,108.872h 7.05827" fill="none" stroke="black"/>
<path d="M475.332,97.4188h 7.05827" fill="none" stroke="black"/>
<path d="M475.332,85.9659h 7.05827" fill="none" stroke="black"/>
<path d="M468.273,74.5129h 14.1165" fill="none" stroke="black"/>
<path d="M475.332,63.06h 7.05827" fill="none" stroke="black"/>
<path d="M475.332,51.6071h 7.05827" fill="none" stroke="black"/>
<path d="M475.332,40.1542h 7.05827" fill="none" stroke="black"/>
<path d="M475.332,28.7013h 7.05827" fill="none" stroke="black"/>
<path d="M468.273,17.2484h 14.1165" fill="none" stroke="black"/>
<path d="M85.5394,239.812h 8.34427" fill="none" stroke="black"/>
<path d="M97.0376,239.812h 8.34427" fill="none" stroke="black"/>
<g fill="black">
<circle cx="95.4606" cy="239.812" r="1.57699"/>
</g>
<path d="M105.382,239.032h 8.34427" fill="none" stroke="black"/>
<path d="M116.88,239.032h 8.34427" fill="none" stroke="black"/>
<g fill="black">
<circle cx="115.303" cy="239.032" r="1.57699"/>
</g>
<path d="M135.146,234.097v -2.28031" fill="none" stroke="black"/>
<path d="M135.146,228.663v -2.28031" fill="none" stroke="black"/>
<path d="M125.224,230.24h 8.34427" fill="none" stroke="black"/>
<path d="M136.723,230.24h 8.34427" fill="none" stroke="black"/>
<g fill="black">
<circle cx="135.146" cy="230.24" r="1.57699"/>
</g>
<path d="M154.988,237.904v -7.15074" fill="none" stroke="black"/>
<path d="M154.988,227.6v -7.15074" fill="none" stroke="black"/>
<path d="M145.067,229.177h 8.34427" fill="none" stroke="black"/>
<path d="M156.565,229.177h 8.34427" fill="none" stroke="black"/>
<g fill="black">
<circle cx="154.988" cy="229.177" r="1.57699"/>
</g>
<path d="M174.831,245.409v -14.4654" fill="none" stroke="black"/>
<path d="M174.831,227.79v -14.4654" fill="none" stroke="black"/>
<path d="M164.909,229.367h 8.34427" fill="none" stroke="black"/>
<path d="M176.408,229.367h 8.34427" fill="none" stroke="black"/>
<g fill="black">
<circle cx="174.831" cy="229.367" r="1.57699"/>
</g>
<path d="M194.673,270.111v -24.041" fill="none" stroke="black"/>
<path d="M194.673,242.916v -24.041" fill="none" stroke="black"/>
<path d="M184.752,244.493h 8.34427" fill="none" stroke="black"/>
<path d="M196.25,244.493h 8.34427" fill="none" stroke="black"/>
<g fill="black">
<circle cx="194.673" cy="244.493" r="1.57699"/>
</g>
<path d="M214.516,281.099v -44.2186" fill="none" stroke="black"/>
<path d="M214.516,233.726v -44.2186" fill="none" stroke="black"/>
<path d="M204.594,235.303h 8.34427" fill="none" stroke="black"/>
<path d="M216.093,235.303h 8.34427" fill="none" stroke="black"/>
<g fill="black">
<circle cx="214.516" cy="235.303" r="1.57699"/>
</g>
<path d="M254.201,303.571v -83.7581" fill="none" stroke="black"/>
<path d="M254.201,216.659v -119.105" fill="none" stroke="black"/>
<path d="M244.28,218.236h 8.34427" fill="none" stroke="black"/>
<path d="M255.778,218.236h 8.34427" fill="none" stroke="black"/>
<g fill="black">
<circle cx="254.201" cy="218.236" r="1.57699"/>
</g>
<path d="M85.5394,236.256h 8.34427" fill="none" stroke="#ff0000"/>
<path d="M97.0376,236.256h 8.34427" fill="none" stroke="#ff0000"/>
<g fill="#ff0000">
<rect x="93.8836" y="234.679" width="3.15399" height="3.15399"/>
</g>
<path d="M105.382,232.726h 8.34427" fill="none" stroke="#ff0000"/>
<path d="M116.88,232.726h 8.34427" fill="none" stroke="#ff0000"/>
<g fill="#ff0000">
<rect x="113.726" y="231.149" width="3.15399" height="3.15399"/>
</g>
<path d="M135.146,224.525v -3.09711" fill="none" stroke="#ff0000"/>
<path d="M135.146,218.274v -3.09711" fill="none" stroke="#ff0000"/>
<path d="M125.224,219.851h 8.34427" fill="none" stroke="#ff0000"/>
<path d="M136.723,219.851h 8.34427" fill="none" stroke="#ff0000"/>
<g fill="#ff0000">
<rect x="133.569" y="218.274" width="3.15399" height="3.15399"/>
</g>
<path d="M154.988,222.237v -9.66376" fill="none" stroke="#ff0000"/>
<path d="M154.988,209.419v -9.66376" fill="none" stroke="#ff0000"/>
<path d="M145.067,210.996h 8.34427" fill="none" stroke="#ff0000"/>
<path d="M156.565,210.996h 8.34427" fill="none" stroke="#ff0000"/>
<g fill="#ff0000">
<rect x="153.411" y="209.419" width="3.15399" height="3.15399"/>
</g>
<path d="M174.831,212.731v -22.6974" fill="none" stroke="#ff0000"/>
<path d="M174.831,186.879v -22.6974" fill="none" stroke="#ff0000"/>
<path d="M164.909,188.456h 8.34427" fill="none" stroke="#ff0000"/>
<path d="M176.408,188.456h 8.34427" fill="none" stroke="#ff0000"/>
<g fill="#ff0000">
<rect x="173.254" y="186.879" width="3.15399" height="3.15399"/>
</g>
<path d="M194.673,256.383v -34.5519" fill="none" stroke="#ff0000"/>
<path d="M194.673,218.677v -34.5519" fill="none" stroke="#ff0000"/>
<path d="M184.752,220.254h 8.34427" fill="none" stroke="#ff0000"/>
<path d="M196.25,220.254h 8.34427" fill="none" stroke="#ff0000"/>
<g fill="#ff0000">
<rect x="193.096" y="218.677" width="3.15399" height="3.15399"/>
</g>
<path d="M214.516,295.708v -38.699" fill="none" stroke="#ff0000"/>
<path d="M214.516,253.855v -38.699" fill="none" stroke="#ff0000"/>
<path d="M204.594,255.432h 8.34427" fill="none" stroke="#ff0000"/>
<path d="M216.093,255.432h 8.34427" fill="none" stroke="#ff0000"/>
<g fill="#ff0000">
<rect x="212.939" y="253.855" width="3.15399" height="3.15399"/>
</g>
<path d="M85.5394,229.818h 9.13276" fill="none" stroke="#00ff00"/>
<path d="M96.2491,229.818h 9.13276" fill="none" stroke="#00ff00"/>
<g fill="#00ff00">
<polygon points=" 95.4606, 228.241 97.0376, 231.395 93.8836, 231.395"/>
</g>
<path d="M105.382,228.7h 9.13276" fill="none" stroke="#00ff00"/>
<path d="M116.092,228.7h 9.13276" fill="none" stroke="#00ff00"/>
<g fill="#00ff00">
<polygon points=" 115.303, 227.123 116.88, 230.277 113.726, 230.277"/>
</g>
<path d="M135.146,221.648v -2.71719" fill="none" stroke="#00ff00"/>
<path d="M135.146,215.777v -2.71719" fill="none" stroke="#00ff00"/>
<path d="M125.224,217.354h 9.13276" fill="none" stroke="#00ff00"/>
<path d="M135.934,217.354h 9.13276" fill="none" stroke="#00ff00"/>
<g fill="#00ff00">
<polygon points=" 135.146, 215.777 136.723, 218.931 133.569, 218.931"/>
</g>
<path d="M154.988,235.513v -7.24483" fill="none" stroke="#00ff00"/>
<path d="M154.988,225.114v -7.24483" fill="none" stroke="#00ff00"/>
<path d="M145.067,226.691h 9.13276" fill="none" stroke="#00ff00"/>
<path d="M155.777,226.691h 9.13276" fill="none" stroke="#00ff00"/>
<g fill="#00ff00">
<polygon points=" 154.988, 225.114 156.565, 228.268 153.411, 228.268"/>
</g>
<path d="M174.831,248.339v -13.6572" fill="none" stroke="#00ff00"/>
<path d="M174.831,231.528v -13.6572" fill="none" stroke="#00ff00"/>
<path d="M164.909,233.105h 9.13276" fill="none" stroke="#00ff00"/>
<path d="M175.619,233.105h 9.13276" fill="none" stroke="#00ff00"/>
<g fill="#00ff00">
<polygon points=" 174.831, 231.528 176.408, 234.682 173.254, 234.682"/>
</g>
<path d="M194.673,271.797v -22.7504" fill="none" stroke="#00ff00"/>
<path d="M194.673,245.892v -22.7504" fill="none" stroke="#00ff00"/>
<path d="M184.752,247.469h 9.13276" fill="none" stroke="#00ff00"/>
<path d="M195.462,247.469h 9.13276" fill="none" stroke="#00ff00"/>
<g fill="#00ff00">
<polygon points=" 194.673, 245.892 196.25, 249.046 193.096, 249.046"/>
</g>
<path d="M214.516,282.231v -41.9114" fill="none" stroke="#00ff00"/>
<path d="M214.516,237.166v -41.9114" fill="none" stroke="#00ff00"/>
<path d="M204.594,238.743h 9.13276" fill="none" stroke="#00ff00"/>
<path d="M215.304,238.743h 9.13276" fill="none" stroke="#00ff00"/>
<g fill="#00ff00">
<polygon points=" 214.516, 237.166 216.093, 240.32 212.939, 240.32"/>
</g>
<path d="M254.201,303.571v -160.495" fill="none" stroke="#00ff00"/>
<path d="M254.201,139.922v -122.674" fill="none" stroke="#00ff00"/>
<path d="M244.28,141.499h 9.13276" fill="none" stroke="#00ff00"/>
<path d="M254.989,141.499h 9.13276" fill="none" stroke="#00ff00"/>
<g fill="#00ff00">
<polygon points=" 254.201, 139.922 255.778, 143.076 252.624, 143.076"/>
</g>
<path d="M274.043,303.571v -79.4589" fill="none" stroke="#00ff00"/>
<path d="M274.043,220.958v -113.025" fill="none" stroke="#00ff00"/>
<path d="M264.122,222.535h 9.13276" fill="none" stroke="#00ff00"/>
<path d="M274.832,222.535h 9.13276" fill="none" stroke="#00ff00"/>
<g fill="#00ff00">
<polygon points=" 274.043, 220.958 275.62, 224.112 272.466, 224.112"/>
</g>
<path d="M85.5394,225.32h 9.13276" fill="none" stroke="#0000ff"/>
<path d="M96.2491,225.32h 9.13276" fill="none" stroke="#0000ff"/>
<g fill="#0000ff">
<polygon points=" 93.8836, 223.743 97.0376, 223.743 95.4606, 226.896"/>
</g>
<path d="M115.303,224.396v -0.0189129" fill="none" stroke="#0000ff"/>
<path d="M115.303,221.223v -0.0189129" fill="none" stroke="#0000ff"/>
<path d="M105.382,222.8h 9.13276" fill="none" stroke="#0000ff"/>
<path d="M116.092,222.8h 9.13276" fill="none" stroke="#0000ff"/>
<g fill="#0000ff">
<polygon points=" 113.726, 221.223 116.88, 221.223 115.303, 224.377"/>
</g>
<path d="M135.146,215.739v -3.33539" fill="none" stroke="#0000ff"/>
<path d="M135.146,209.25v -3.33539" fill="none" stroke="#0000ff"/>
<path d="M125.224,210.827h 9.13276" fill="none" stroke="#0000ff"/>
<path d="M135.934,210.827h 9.13276" fill="none" stroke="#0000ff"/>
<g fill="#0000ff">
<polygon points=" 133.569, 209.25 136.723, 209.25 135.146, 212.404"/>
</g>
<path d="M154.988,227.443v -8.88873" fill="none" stroke="#0000ff"/>
<path d="M154.988,215.4v -8.88873" fill="none" stroke="#0000ff"/>
<path d="M145.067,216.977h 9.13276" fill="none" stroke="#0000ff"/>
<path d="M155.777,216.977h 9.13276" fill="none" stroke="#0000ff"/>
<g fill="#0000ff">
<polygon points=" 153.411, 215.4 156.565, 215.4 154.988, 218.554"/>
</g>
<path d="M174.831,230.128v -18.8573" fill="none" stroke="#0000ff"/>
<path d="M174.831,208.117v -18.8573" fill="none" stroke="#0000ff"/>
<path d="M164.909,209.694h 9.13276" fill="none" stroke="#0000ff"/>
<path d="M175.619,209.694h 9.13276" fill="none" stroke="#0000ff"/>
<g fill="#0000ff">
<polygon points=" 173.254, 208.117 176.408, 208.117 174.831, 211.271"/>
</g>
<path d="M194.673,248.262v -36.8062" fill="none" stroke="#0000ff"/>
<path d="M194.673,208.302v -36.8062" fill="none" stroke="#0000ff"/>
<path d="M184.752,209.879h 9.13276" fill="none" stroke="#0000ff"/>
<path d="M195.462,209.879h 9.13276" fill="none" stroke="#0000ff"/>
<g fill="#0000ff">
<polygon points=" 193.096, 208.302 196.25, 208.302 194.673, 211.456"/>
</g>
<path d="M214.516,215.432v -109.592" fill="none" stroke="#0000ff"/>
<path d="M214.516,102.686v -85.4372" fill="none" stroke="#0000ff"/>
<path d="M204.594,104.263h 9.13276" fill="none" stroke="#0000ff"/>
<path d="M215.304,104.263h 9.13276" fill="none" stroke="#0000ff"/>
<g fill="#0000ff">
<polygon points=" 212.939, 102.686 216.093, 102.686 214.516, 105.84"/>
</g>
<path d="M254.201,303.571v -109.15" fill="none" stroke="#0000ff"/>
<path d="M254.201,191.267v -155.015" fill="none" stroke="#0000ff"/>
<path d="M244.28,192.844h 9.13276" fill="none" stroke="#0000ff"/>
<path d="M254.989,192.844h 9.13276" fill="none" stroke="#0000ff"/>
<g fill="#0000ff">
<polygon points=" 252.624, 191.267 255.778, 191.267 254.201, 194.421"/>
</g>
<path d="M274.043,303.571v -109.15" fill="none" stroke="#0000ff"/>
<path d="M274.043,191.267v -155.015" fill="none" stroke="#0000ff"/>
<path d="M264.122,192.844h 9.13276" fill="none" stroke="#0000ff"/>
<path d="M274.832,192.844h 9.13276" fill="none" stroke="#0000ff"/>
<g fill="#0000ff">
<polygon points=" 272.466, 191.267 275.62, 191.267 274.043, 194.421"/>
</g>
<path d="M85.5394,221.215h 8.34427" fill="none" stroke="#ff00ff"/>
<path d="M97.0376,221.215h 8.34427" fill="none" stroke="#ff00ff"/>
<g stroke="#ff00ff" stroke-width="1" fill="none">
<polygon points=" 94.935, 220.689 94.935, 219.638 95.9863, 219.638 95.9863, 220.689 97.0376, 220.689 97.0376, 221.741 95.9863, 221.741 95.9863, 222.792 94.935, 222.792 94.935, 221.741 93.8836, 221.741 93.8836, 220.689"/>
</g>
<path d="M115.303,218.891v -0.224783" fill="none" stroke="#ff00ff"/>
<path d="M115.303,215.512v -0.224783" fill="none" stroke="#ff00ff"/>
<path d="M105.382,217.089h 8.34427" fill="none" stroke="#ff00ff"/>
<path d="M116.88,217.089h 8.34427" fill="none" stroke="#ff00ff"/>
<g stroke="#ff00ff" stroke-width="1" fill="none">
<polygon points=" 114.777, 216.563 114.777, 215.512 115.829, 215.512 115.829, 216.563 116.88, 216.563 116.88, 217.615 115.829, 217.615 115.829, 218.666 114.777, 218.666 114.777, 217.615 113.726, 217.615 113.726, 216.563"/>
</g>
<path d="M135.146,216.896v -3.66067" fill="none" stroke="#ff00ff"/>
<path d="M135.146,210.081v -3.66067" fill="none" stroke="#ff00ff"/>
<path d="M125.224,211.658h 8.34427" fill="none" stroke="#ff00ff"/>
<path d="M136.723,211.658h 8.34427" fill="none" stroke="#ff00ff"/>
<g stroke="#ff00ff" stroke-width="1" fill="none">
<polygon points=" 134.62, 211.132 134.62, 210.081 135.671, 210.081 135.671, 211.132 136.723, 211.132 136.723, 212.184 135.671, 212.184 135.671, 213.235 134.62, 213.235 134.62, 212.184 133.569, 212.184 133.569, 211.132"/>
</g>
<path d="M154.988,222.013v -10.2835" fill="none" stroke="#ff00ff"/>
<path d="M154.988,208.575v -10.2835" fill="none" stroke="#ff00ff"/>
<path d="M145.067,210.152h 8.34427" fill="none" stroke="#ff00ff"/>
<path d="M156.565,210.152h 8.34427" fill="none" stroke="#ff00ff"/>
<g stroke="#ff00ff" stroke-width="1" fill="none">
<polygon points=" 154.463, 209.627 154.463, 208.575 155.514, 208.575 155.514, 209.627 156.565, 209.627 156.565, 210.678 155.514, 210.678 155.514, 211.729 154.463, 211.729 154.463, 210.678 153.411, 210.678 153.411, 209.627"/>
</g>
<path d="M174.831,238.091v -19.0663" fill="none" stroke="#ff00ff"/>
<path d="M174.831,215.871v -19.0663" fill="none" stroke="#ff00ff"/>
<path d="M164.909,217.448h 8.34427" fill="none" stroke="#ff00ff"/>
<path d="M176.408,217.448h 8.34427" fill="none" stroke="#ff00ff"/>
<g stroke="#ff00ff" stroke-width="1" fill="none">
<polygon points=" 174.305, 216.922 174.305, 215.871 175.356, 215.871 175.356, 216.922 176.408, 216.922 176.408, 217.973 175.356, 217.973 175.356, 219.025 174.305, 219.025 174.305, 217.973 173.254, 217.973 173.254, 216.922"/>
</g>
<path d="M194.673,217.579v -53.9194" fill="none" stroke="#ff00ff"/>
<path d="M194.673,160.506v -53.9194" fill="none" stroke="#ff00ff"/>
<path d="M184.752,162.083h 8.34427" fill="none" stroke="#ff00ff"/>
<path d="M196.25,162.083h 8.34427" fill="none" stroke="#ff00ff"/>
<g stroke="#ff00ff" stroke-width="1" fill="none">
<polygon points=" 194.148, 161.557 194.148, 160.506 195.199, 160.506 195.199, 161.557 196.25, 161.557 196.25, 162.608 195.199, 162.608 195.199, 163.66 194.148, 163.66 194.148, 162.608 193.096, 162.608 193.096, 161.557"/>
</g>
<path d="M214.516,280.675v -60.4202" fill="none" stroke="#ff00ff"/>
<path d="M214.516,217.101v -60.4202" fill="none" stroke="#ff00ff"/>
<path d="M204.594,218.678h 8.34427" fill="none" stroke="#ff00ff"/>
<path d="M216.093,218.678h 8.34427" fill="none" stroke="#ff00ff"/>
<g stroke="#ff00ff" stroke-width="1" fill="none">
<polygon points=" 213.99, 218.152 213.99, 217.101 215.041, 217.101 215.041, 218.152 216.093, 218.152 216.093, 219.204 215.041, 219.204 215.041, 220.255 213.99, 220.255 213.99, 219.204 212.939, 219.204 212.939, 218.152"/>
</g>
<path d="M234.358,303.571v -139.912" fill="none" stroke="#ff00ff"/>
<path d="M234.358,160.506v -143.257" fill="none" stroke="#ff00ff"/>
<path d="M224.437,162.083h 8.34427" fill="none" stroke="#ff00ff"/>
<path d="M235.935,162.083h 8.34427" fill="none" stroke="#ff00ff"/>
<g stroke="#ff00ff" stroke-width="1" fill="none">
<polygon points=" 233.833, 161.557 233.833, 160.506 234.884, 160.506 234.884, 161.557 235.935, 161.557 235.935, 162.608 234.884, 162.608 234.884, 163.66 233.833, 163.66 233.833, 162.608 232.781, 162.608 232.781, 161.557"/>
</g>
<path d="M274.043,303.571v -139.912" fill="none" stroke="#ff00ff"/>
<path d="M274.043,160.506v -143.257" fill="none" stroke="#ff00ff"/>
<path d="M264.122,162.083h 8.34427" fill="none" stroke="#ff00ff"/>
<path d="M275.62,162.083h 8.34427" fill="none" stroke="#ff00ff"/>
<g stroke="#ff00ff" stroke-width="1" fill="none">
<polygon points=" 273.518, 161.557 273.518, 160.506 274.569, 160.506 274.569, 161.557 275.62, 161.557 275.62, 162.608 274.569, 162.608 274.569, 163.66 273.518, 163.66 273.518, 162.608 272.466, 162.608 272.466, 161.557"/>
</g>
<path d="M353.413,303.571v -139.912" fill="none" stroke="#ff00ff"/>
<path d="M353.413,160.506v -143.257" fill="none" stroke="#ff00ff"/>
<path d="M343.492,162.083h 8.34427" fill="none" stroke="#ff00ff"/>
<path d="M354.99,162.083h 8.34427" fill="none" stroke="#ff00ff"/>
<g stroke="#ff00ff" stroke-width="1" fill="none">
<polygon points=" 352.888, 161.557 352.888, 160.506 353.939, 160.506 353.939, 161.557 354.99, 161.557 354.99, 162.608 353.939, 162.608 353.939, 163.66 352.888, 163.66 352.888, 162.608 351.836, 162.608 351.836, 161.557"/>
</g>
<text xml:space="preserve" x="304.86" y="33.9054" fill="black" font-size="13.1593" font-family="Helvetica">PYTHIA8</text>
<text xml:space="preserve" x="304.86" y="47.704" fill="black" font-size="13.1593" font-family="Helvetica">p+Au 200 GeV</text>
<text xml:space="preserve" x="304.86" y="61.5027" fill="black" font-size="13.1593" font-family="Helvetica">option0(MCG)</text>
<text xml:space="preserve" x="333.246" y="75.3014" fill="black" font-size="13.1593" font-family="Helvetica">|&lt;1</text>
<text xml:space="preserve" x="326.149" y="75.3014" fill="black" font-size="13.1593" font-family="Times">&#0951;</text>
<text xml:space="preserve" x="316.687" y="75.3014" fill="black" font-size="13.1593" font-family="Helvetica">, |</text>
<text xml:space="preserve" x="311.956" y="70.5704" fill="black" font-size="8.93957" font-family="Helvetica">0</text>
<text xml:space="preserve" x="304.86" y="75.3014" fill="black" font-size="13.1593" font-family="Times">&#0960;</text>
<text xml:space="preserve" x="343.102" y="89.1001" fill="black" font-size="13.1593" font-family="Helvetica">0~10%</text>
<g fill="black">
<circle cx="322.232" cy="86.2418" r="1.57699"/>
</g>
<text xml:space="preserve" x="343.102" y="102.899" fill="black" font-size="13.1593" font-family="Helvetica">10~20%</text>
<g fill="#ff0000">
<rect x="320.655" y="98.4635" width="3.15399" height="3.15399"/>
</g>
<text xml:space="preserve" x="343.102" y="116.698" fill="black" font-size="13.1593" font-family="Helvetica">20~40%</text>
<g fill="#00ff00">
<polygon points=" 322.232, 112.262 323.809, 115.416 320.655, 115.416"/>
</g>
<text xml:space="preserve" x="343.102" y="130.496" fill="black" font-size="13.1593" font-family="Helvetica">40~60%</text>
<g fill="#0000ff">
<polygon points=" 320.655, 126.061 323.809, 126.061 322.232, 129.215"/>
</g>
<text xml:space="preserve" x="343.102" y="144.295" fill="black" font-size="13.1593" font-family="Helvetica">60~80%</text>
<g stroke="#ff00ff" stroke-width="1" fill="none">
<polygon points=" 321.707, 140.911 321.707, 139.86 322.758, 139.86 322.758, 140.911 323.809, 140.911 323.809, 141.962 322.758, 141.962 322.758, 143.014 321.707, 143.014 321.707, 141.962 320.655, 141.962 320.655, 140.911"/>
</g></svg>
