<?xml version="1.0" standalone="no"?>
<svg width="567.429" height="386.304" viewBox="0 0 567.429 386.304" xmlns="http://www.w3.org/2000/svg" shape-rendering="crispEdges">
<title>
/Users/jinhyunpark/npl/gitHub/xloadFromServer/Git_Bias_correction_RxA/plots/R_pAu_class4.svg
</title>
<desc>
Creator: ROOT Version 6.26/06
CreationDate: Wed Mar 15 14:33:18 2023</desc>
<defs>
</defs>
<rect x="0.5" y="0" width="566.929" height="385.804" fill="white"/>
<rect x="57.1929" y="38.5804" width="453.543" height="308.643" fill="white"/>
<rect x="57.1929" y="38.5804" width="453.543" height="308.643" fill="none" stroke="black"/>
<rect x="57.1929" y="38.5804" width="453.543" height="308.643" fill="white"/>
<rect x="57.1929" y="38.5804" width="453.543" height="308.643" fill="none" stroke="black"/>
<path d="M65.2919,177.984v -0.983952" fill="none" stroke="#000099"/>
<path d="M65.2919,177v -0.983952" fill="none" stroke="#000099"/>
<path d="M57.1929,177h 8.09899" fill="none" stroke="#000099"/>
<path d="M65.2919,177h 8.09899" fill="none" stroke="#000099"/>
<g stroke="black" stroke-width="1" fill="none">
<line x1="64.2919" y1="177" x2="65.2919" y2="177"/>
</g>
<path d="M81.4899,175.752v -1.72104" fill="none" stroke="#000099"/>
<path d="M81.4899,174.031v -1.72104" fill="none" stroke="#000099"/>
<path d="M73.3909,174.031h 8.09899" fill="none" stroke="#000099"/>
<path d="M81.4899,174.031h 8.09899" fill="none" stroke="#000099"/>
<g stroke="black" stroke-width="1" fill="none">
<line x1="80.4899" y1="174.031" x2="81.4899" y2="174.031"/>
</g>
<path d="M97.6879,160.861v -5.46639" fill="none" stroke="#000099"/>
<path d="M97.6879,155.394v -5.46639" fill="none" stroke="#000099"/>
<path d="M89.5889,155.394h 8.09899" fill="none" stroke="#000099"/>
<path d="M97.6879,155.394h 8.09899" fill="none" stroke="#000099"/>
<g stroke="black" stroke-width="1" fill="none">
<line x1="96.6879" y1="155.394" x2="97.6879" y2="155.394"/>
</g>
<path d="M113.886,176.544v -11.8143" fill="none" stroke="#000099"/>
<path d="M113.886,164.729v -11.8143" fill="none" stroke="#000099"/>
<path d="M105.787,164.729h 8.09899" fill="none" stroke="#000099"/>
<path d="M113.886,164.729h 8.09899" fill="none" stroke="#000099"/>
<g stroke="black" stroke-width="1" fill="none">
<line x1="112.886" y1="164.729" x2="113.886" y2="164.729"/>
</g>
<path d="M130.084,155.355v -31.2445" fill="none" stroke="#000099"/>
<path d="M130.084,124.111v -31.2445" fill="none" stroke="#000099"/>
<path d="M121.985,124.111h 8.09899" fill="none" stroke="#000099"/>
<path d="M130.084,124.111h 8.09899" fill="none" stroke="#000099"/>
<g stroke="black" stroke-width="1" fill="none">
<line x1="129.084" y1="124.111" x2="130.084" y2="124.111"/>
</g>
<path d="M146.282,218.226v -36.8587" fill="none" stroke="#000099"/>
<path d="M146.282,181.368v -36.8587" fill="none" stroke="#000099"/>
<path d="M138.183,181.368h 8.09899" fill="none" stroke="#000099"/>
<path d="M146.282,181.368h 8.09899" fill="none" stroke="#000099"/>
<g stroke="black" stroke-width="1" fill="none">
<line x1="145.282" y1="181.368" x2="146.282" y2="181.368"/>
</g>
<path d="M162.48,268.584v -27.5781" fill="none" stroke="#000099"/>
<path d="M162.48,241.006v -27.5781" fill="none" stroke="#000099"/>
<path d="M154.381,241.006h 8.09899" fill="none" stroke="#000099"/>
<path d="M162.48,241.006h 8.09899" fill="none" stroke="#000099"/>
<g stroke="black" stroke-width="1" fill="none">
<line x1="161.48" y1="241.006" x2="162.48" y2="241.006"/>
</g>
<path d="M178.678,286.679v -36.8569" fill="none" stroke="#000099"/>
<path d="M178.678,249.822v -36.8569" fill="none" stroke="#000099"/>
<path d="M170.579,249.822h 8.09899" fill="none" stroke="#000099"/>
<path d="M178.678,249.822h 8.09899" fill="none" stroke="#000099"/>
<g stroke="black" stroke-width="1" fill="none">
<line x1="177.678" y1="249.822" x2="178.678" y2="249.822"/>
</g>
<path d="M194.876,314.473v -40.4071" fill="none" stroke="#000099"/>
<path d="M194.876,274.066v -40.4071" fill="none" stroke="#000099"/>
<path d="M186.777,274.066h 8.09899" fill="none" stroke="#000099"/>
<path d="M194.876,274.066h 8.09899" fill="none" stroke="#000099"/>
<g stroke="black" stroke-width="1" fill="none">
<line x1="193.876" y1="274.066" x2="194.876" y2="274.066"/>
</g>
<path d="M211.074,333.226v -139.974" fill="none" stroke="#000099"/>
<path d="M211.074,193.252v -139.974" fill="none" stroke="#000099"/>
<path d="M202.975,193.252h 8.09899" fill="none" stroke="#000099"/>
<path d="M211.074,193.252h 8.09899" fill="none" stroke="#000099"/>
<g stroke="black" stroke-width="1" fill="none">
<line x1="210.074" y1="193.252" x2="211.074" y2="193.252"/>
</g>
<rect x="442.705" y="25.0773" width="113.386" height="61.7287" fill="white"/>
<path d="M442.705,86.8059h 113.386" fill="none" stroke="black"/>
<path d="M556.091,86.8059v -61.7287" fill="none" stroke="black"/>
<path d="M556.091,25.0773h -113.386" fill="none" stroke="black"/>
<path d="M442.705,25.0773v 61.7287" fill="none" stroke="black"/>
<text xml:space="preserve" x="483.771" y="36.5499" fill="black" font-size="13.5253" font-family="Helvetica">pAu3</text>
<path d="M442.705,40.5094h 113.386" fill="none" stroke="black"/>
<text xml:space="preserve" x="448.033" y="52.7943" fill="black" font-size="13.5253" font-family="Helvetica">Entries </text>
<text xml:space="preserve" x="532.504" y="52.7943" fill="black" font-size="13.5253" font-family="Helvetica"> 57</text>
<text xml:space="preserve" x="448.033" y="68.2264" fill="black" font-size="13.5253" font-family="Helvetica">Mean  </text>
<text xml:space="preserve" x="510.574" y="68.2264" fill="black" font-size="13.5253" font-family="Helvetica">  2.168</text>
<text xml:space="preserve" x="448.033" y="83.6586" fill="black" font-size="13.5253" font-family="Helvetica">Std Dev   </text>
<text xml:space="preserve" x="510.574" y="83.6586" fill="black" font-size="13.5253" font-family="Helvetica">  1.356</text>
<path d="M57.1929,347.224h 453.543" fill="none" stroke="black"/>
<path d="M57.1929,337.964v 9.2593" fill="none" stroke="black"/>
<path d="M73.3909,342.594v 4.62965" fill="none" stroke="black"/>
<path d="M89.5889,342.594v 4.62965" fill="none" stroke="black"/>
<path d="M105.787,342.594v 4.62965" fill="none" stroke="black"/>
<path d="M121.985,337.964v 9.2593" fill="none" stroke="black"/>
<path d="M138.183,342.594v 4.62965" fill="none" stroke="black"/>
<path d="M154.381,342.594v 4.62965" fill="none" stroke="black"/>
<path d="M170.579,342.594v 4.62965" fill="none" stroke="black"/>
<path d="M186.777,337.964v 9.2593" fill="none" stroke="black"/>
<path d="M202.975,342.594v 4.62965" fill="none" stroke="black"/>
<path d="M219.173,342.594v 4.62965" fill="none" stroke="black"/>
<path d="M235.371,342.594v 4.62965" fill="none" stroke="black"/>
<path d="M251.569,337.964v 9.2593" fill="none" stroke="black"/>
<path d="M267.767,342.594v 4.62965" fill="none" stroke="black"/>
<path d="M283.965,342.594v 4.62965" fill="none" stroke="black"/>
<path d="M300.163,342.594v 4.62965" fill="none" stroke="black"/>
<path d="M316.361,337.964v 9.2593" fill="none" stroke="black"/>
<path d="M332.559,342.594v 4.62965" fill="none" stroke="black"/>
<path d="M348.756,342.594v 4.62965" fill="none" stroke="black"/>
<path d="M364.954,342.594v 4.62965" fill="none" stroke="black"/>
<path d="M381.152,337.964v 9.2593" fill="none" stroke="black"/>
<path d="M397.35,342.594v 4.62965" fill="none" stroke="black"/>
<path d="M413.548,342.594v 4.62965" fill="none" stroke="black"/>
<path d="M429.746,342.594v 4.62965" fill="none" stroke="black"/>
<path d="M445.944,337.964v 9.2593" fill="none" stroke="black"/>
<path d="M462.142,342.594v 4.62965" fill="none" stroke="black"/>
<path d="M478.34,342.594v 4.62965" fill="none" stroke="black"/>
<path d="M494.538,342.594v 4.62965" fill="none" stroke="black"/>
<path d="M510.736,337.964v 9.2593" fill="none" stroke="black"/>
<text xml:space="preserve" x="52.482" y="359.813" fill="black" font-size="12.8882" font-family="Helvetica">0</text>
<text xml:space="preserve" x="117.46" y="359.813" fill="black" font-size="12.8882" font-family="Helvetica">2</text>
<text xml:space="preserve" x="182.437" y="359.813" fill="black" font-size="12.8882" font-family="Helvetica">4</text>
<text xml:space="preserve" x="247.415" y="359.813" fill="black" font-size="12.8882" font-family="Helvetica">6</text>
<text xml:space="preserve" x="311.58" y="359.813" fill="black" font-size="12.8882" font-family="Helvetica">8</text>
<text xml:space="preserve" x="373.309" y="359.813" fill="black" font-size="12.8882" font-family="Helvetica">10</text>
<text xml:space="preserve" x="438.286" y="359.813" fill="black" font-size="12.8882" font-family="Helvetica">12</text>
<text xml:space="preserve" x="503.264" y="359.813" fill="black" font-size="12.8882" font-family="Helvetica">14</text>
<path d="M57.1929,347.224v -308.643" fill="none" stroke="black"/>
<path d="M70.7992,314.473h -13.6063" fill="none" stroke="black"/>
<path d="M63.9961,301.968h -6.80315" fill="none" stroke="black"/>
<path d="M63.9961,289.463h -6.80315" fill="none" stroke="black"/>
<path d="M63.9961,276.957h -6.80315" fill="none" stroke="black"/>
<path d="M70.7992,264.452h -13.6063" fill="none" stroke="black"/>
<path d="M63.9961,251.946h -6.80315" fill="none" stroke="black"/>
<path d="M63.9961,239.441h -6.80315" fill="none" stroke="black"/>
<path d="M63.9961,226.935h -6.80315" fill="none" stroke="black"/>
<path d="M70.7992,214.43h -13.6063" fill="none" stroke="black"/>
<path d="M63.9961,201.925h -6.80315" fill="none" stroke="black"/>
<path d="M63.9961,189.419h -6.80315" fill="none" stroke="black"/>
<path d="M63.9961,176.914h -6.80315" fill="none" stroke="black"/>
<path d="M70.7992,164.408h -13.6063" fill="none" stroke="black"/>
<path d="M63.9961,151.903h -6.80315" fill="none" stroke="black"/>
<path d="M63.9961,139.397h -6.80315" fill="none" stroke="black"/>
<path d="M63.9961,126.892h -6.80315" fill="none" stroke="black"/>
<path d="M70.7992,114.387h -13.6063" fill="none" stroke="black"/>
<path d="M63.9961,101.881h -6.80315" fill="none" stroke="black"/>
<path d="M63.9961,89.3758h -6.80315" fill="none" stroke="black"/>
<path d="M63.9961,76.8704h -6.80315" fill="none" stroke="black"/>
<path d="M70.7992,64.365h -13.6063" fill="none" stroke="black"/>
<path d="M70.7992,314.473h -13.6063" fill="none" stroke="black"/>
<path d="M63.9961,326.979h -6.80315" fill="none" stroke="black"/>
<path d="M63.9961,339.484h -6.80315" fill="none" stroke="black"/>
<path d="M70.7992,64.365h -13.6063" fill="none" stroke="black"/>
<path d="M63.9961,51.8595h -6.80315" fill="none" stroke="black"/>
<path d="M63.9961,39.3541h -6.80315" fill="none" stroke="black"/>
<text xml:space="preserve" x="46.7965" y="319.202" fill="black" font-size="12.8882" font-family="Helvetica">0</text>
<text xml:space="preserve" x="36.2377" y="268.845" fill="black" font-size="12.8882" font-family="Helvetica">0.2</text>
<text xml:space="preserve" x="36.2377" y="219.299" fill="black" font-size="12.8882" font-family="Helvetica">0.4</text>
<text xml:space="preserve" x="36.2377" y="168.942" fill="black" font-size="12.8882" font-family="Helvetica">0.6</text>
<text xml:space="preserve" x="36.2377" y="118.584" fill="black" font-size="12.8882" font-family="Helvetica">0.8</text>
<text xml:space="preserve" x="49.2332" y="69.8509" fill="black" font-size="12.8882" font-family="Helvetica">1</text>
<rect x="442.705" y="25.0773" width="113.386" height="61.7287" fill="white"/>
<path d="M442.705,86.8059h 113.386" fill="none" stroke="black"/>
<path d="M556.091,86.8059v -61.7287" fill="none" stroke="black"/>
<path d="M556.091,25.0773h -113.386" fill="none" stroke="black"/>
<path d="M442.705,25.0773v 61.7287" fill="none" stroke="black"/>
<text xml:space="preserve" x="483.771" y="36.5499" fill="black" font-size="13.5253" font-family="Helvetica">pAu3</text>
<path d="M442.705,40.5094h 113.386" fill="none" stroke="black"/>
<text xml:space="preserve" x="448.033" y="52.7943" fill="black" font-size="13.5253" font-family="Helvetica">Entries </text>
<text xml:space="preserve" x="532.504" y="52.7943" fill="black" font-size="13.5253" font-family="Helvetica"> 57</text>
<text xml:space="preserve" x="448.033" y="68.2264" fill="black" font-size="13.5253" font-family="Helvetica">Mean  </text>
<text xml:space="preserve" x="510.574" y="68.2264" fill="black" font-size="13.5253" font-family="Helvetica">  2.168</text>
<text xml:space="preserve" x="448.033" y="83.6586" fill="black" font-size="13.5253" font-family="Helvetica">Std Dev   </text>
<text xml:space="preserve" x="510.574" y="83.6586" fill="black" font-size="13.5253" font-family="Helvetica">  1.356</text>
<text xml:space="preserve" x="229.546" y="18.681" fill="black" font-size="17.9813" font-family="Helvetica">cent_pTpion0</text></svg>
