<?xml version="1.0" standalone="no"?>
<svg width="567.429" height="386.304" viewBox="0 0 567.429 386.304" xmlns="http://www.w3.org/2000/svg" shape-rendering="crispEdges">
<title>
/Users/jinhyunpark/npl/gitHub/xloadFromServer/Git_Bias_correction_RxA/plots_dirAdded/plots_testForNewMC/directPhoton_check.svg
</title>
<desc>
Creator: ROOT Version 6.28/04
CreationDate: Sun Sep  3 14:41:18 2023</desc>
<defs>
</defs>
<rect x="0.5" y="0" width="566.929" height="385.804" fill="white"/>
<rect x="57.1929" y="38.5804" width="453.543" height="308.643" fill="white"/>
<rect x="57.1929" y="38.5804" width="453.543" height="308.643" fill="none" stroke="black"/>
<rect x="57.1929" y="38.5804" width="453.543" height="308.643" fill="white"/>
<rect x="57.1929" y="38.5804" width="453.543" height="308.643" fill="none" stroke="black"/>
<rect x="256.752" y="285.495" width="9.07087" height="30.8643" fill="#1063db"/>
<rect x="256.752" y="254.631" width="9.07087" height="30.8643" fill="#f9f90e"/>
<rect x="256.752" y="223.766" width="9.07087" height="30.8643" fill="#263da8"/>
<rect x="256.752" y="192.902" width="9.07087" height="30.8643" fill="#263da8"/>
<path d="M57.1929,347.224h 453.543" fill="none" stroke="black"/>
<path d="M57.1929,337.964v 9.2593" fill="none" stroke="black"/>
<path d="M66.2638,342.594v 4.62965" fill="none" stroke="black"/>
<path d="M75.3346,342.594v 4.62965" fill="none" stroke="black"/>
<path d="M84.4055,342.594v 4.62965" fill="none" stroke="black"/>
<path d="M93.4764,342.594v 4.62965" fill="none" stroke="black"/>
<path d="M102.547,337.964v 9.2593" fill="none" stroke="black"/>
<path d="M111.618,342.594v 4.62965" fill="none" stroke="black"/>
<path d="M120.689,342.594v 4.62965" fill="none" stroke="black"/>
<path d="M129.76,342.594v 4.62965" fill="none" stroke="black"/>
<path d="M138.831,342.594v 4.62965" fill="none" stroke="black"/>
<path d="M147.902,337.964v 9.2593" fill="none" stroke="black"/>
<path d="M156.972,342.594v 4.62965" fill="none" stroke="black"/>
<path d="M166.043,342.594v 4.62965" fill="none" stroke="black"/>
<path d="M175.114,342.594v 4.62965" fill="none" stroke="black"/>
<path d="M184.185,342.594v 4.62965" fill="none" stroke="black"/>
<path d="M193.256,337.964v 9.2593" fill="none" stroke="black"/>
<path d="M202.327,342.594v 4.62965" fill="none" stroke="black"/>
<path d="M211.398,342.594v 4.62965" fill="none" stroke="black"/>
<path d="M220.469,342.594v 4.62965" fill="none" stroke="black"/>
<path d="M229.539,342.594v 4.62965" fill="none" stroke="black"/>
<path d="M238.61,337.964v 9.2593" fill="none" stroke="black"/>
<path d="M247.681,342.594v 4.62965" fill="none" stroke="black"/>
<path d="M256.752,342.594v 4.62965" fill="none" stroke="black"/>
<path d="M265.823,342.594v 4.62965" fill="none" stroke="black"/>
<path d="M274.894,342.594v 4.62965" fill="none" stroke="black"/>
<path d="M283.965,337.964v 9.2593" fill="none" stroke="black"/>
<path d="M293.035,342.594v 4.62965" fill="none" stroke="black"/>
<path d="M302.106,342.594v 4.62965" fill="none" stroke="black"/>
<path d="M311.177,342.594v 4.62965" fill="none" stroke="black"/>
<path d="M320.248,342.594v 4.62965" fill="none" stroke="black"/>
<path d="M329.319,337.964v 9.2593" fill="none" stroke="black"/>
<path d="M338.39,342.594v 4.62965" fill="none" stroke="black"/>
<path d="M347.461,342.594v 4.62965" fill="none" stroke="black"/>
<path d="M356.531,342.594v 4.62965" fill="none" stroke="black"/>
<path d="M365.602,342.594v 4.62965" fill="none" stroke="black"/>
<path d="M374.673,337.964v 9.2593" fill="none" stroke="black"/>
<path d="M383.744,342.594v 4.62965" fill="none" stroke="black"/>
<path d="M392.815,342.594v 4.62965" fill="none" stroke="black"/>
<path d="M401.886,342.594v 4.62965" fill="none" stroke="black"/>
<path d="M410.957,342.594v 4.62965" fill="none" stroke="black"/>
<path d="M420.028,337.964v 9.2593" fill="none" stroke="black"/>
<path d="M429.098,342.594v 4.62965" fill="none" stroke="black"/>
<path d="M438.169,342.594v 4.62965" fill="none" stroke="black"/>
<path d="M447.24,342.594v 4.62965" fill="none" stroke="black"/>
<path d="M456.311,342.594v 4.62965" fill="none" stroke="black"/>
<path d="M465.382,337.964v 9.2593" fill="none" stroke="black"/>
<path d="M474.453,342.594v 4.62965" fill="none" stroke="black"/>
<path d="M483.524,342.594v 4.62965" fill="none" stroke="black"/>
<path d="M492.594,342.594v 4.62965" fill="none" stroke="black"/>
<path d="M501.665,342.594v 4.62965" fill="none" stroke="black"/>
<path d="M510.736,337.964v 9.2593" fill="none" stroke="black"/>
<text xml:space="preserve" x="52.482" y="359.813" fill="black" font-size="12.8882" font-family="Helvetica">0</text>
<text xml:space="preserve" x="97.9663" y="359.813" fill="black" font-size="12.8882" font-family="Helvetica">5</text>
<text xml:space="preserve" x="140.202" y="359.813" fill="black" font-size="12.8882" font-family="Helvetica">10</text>
<text xml:space="preserve" x="185.686" y="359.813" fill="black" font-size="12.8882" font-family="Helvetica">15</text>
<text xml:space="preserve" x="231.17" y="359.813" fill="black" font-size="12.8882" font-family="Helvetica">20</text>
<text xml:space="preserve" x="276.655" y="359.813" fill="black" font-size="12.8882" font-family="Helvetica">25</text>
<text xml:space="preserve" x="321.327" y="359.813" fill="black" font-size="12.8882" font-family="Helvetica">30</text>
<text xml:space="preserve" x="366.811" y="359.813" fill="black" font-size="12.8882" font-family="Helvetica">35</text>
<text xml:space="preserve" x="412.295" y="359.813" fill="black" font-size="12.8882" font-family="Helvetica">40</text>
<text xml:space="preserve" x="457.78" y="359.813" fill="black" font-size="12.8882" font-family="Helvetica">45</text>
<text xml:space="preserve" x="503.264" y="359.813" fill="black" font-size="12.8882" font-family="Helvetica">50</text>
<path d="M57.1929,347.224v -308.643" fill="none" stroke="black"/>
<path d="M70.7992,347.224h -13.6063" fill="none" stroke="black"/>
<path d="M63.9961,341.051h -6.80315" fill="none" stroke="black"/>
<path d="M63.9961,334.878h -6.80315" fill="none" stroke="black"/>
<path d="M63.9961,328.705h -6.80315" fill="none" stroke="black"/>
<path d="M63.9961,322.532h -6.80315" fill="none" stroke="black"/>
<path d="M70.7992,316.359h -13.6063" fill="none" stroke="black"/>
<path d="M63.9961,310.187h -6.80315" fill="none" stroke="black"/>
<path d="M63.9961,304.014h -6.80315" fill="none" stroke="black"/>
<path d="M63.9961,297.841h -6.80315" fill="none" stroke="black"/>
<path d="M63.9961,291.668h -6.80315" fill="none" stroke="black"/>
<path d="M70.7992,285.495h -13.6063" fill="none" stroke="black"/>
<path d="M63.9961,279.322h -6.80315" fill="none" stroke="black"/>
<path d="M63.9961,273.149h -6.80315" fill="none" stroke="black"/>
<path d="M63.9961,266.977h -6.80315" fill="none" stroke="black"/>
<path d="M63.9961,260.804h -6.80315" fill="none" stroke="black"/>
<path d="M70.7992,254.631h -13.6063" fill="none" stroke="black"/>
<path d="M63.9961,248.458h -6.80315" fill="none" stroke="black"/>
<path d="M63.9961,242.285h -6.80315" fill="none" stroke="black"/>
<path d="M63.9961,236.112h -6.80315" fill="none" stroke="black"/>
<path d="M63.9961,229.939h -6.80315" fill="none" stroke="black"/>
<path d="M70.7992,223.766h -13.6063" fill="none" stroke="black"/>
<path d="M63.9961,217.594h -6.80315" fill="none" stroke="black"/>
<path d="M63.9961,211.421h -6.80315" fill="none" stroke="black"/>
<path d="M63.9961,205.248h -6.80315" fill="none" stroke="black"/>
<path d="M63.9961,199.075h -6.80315" fill="none" stroke="black"/>
<path d="M70.7992,192.902h -13.6063" fill="none" stroke="black"/>
<path d="M63.9961,186.729h -6.80315" fill="none" stroke="black"/>
<path d="M63.9961,180.556h -6.80315" fill="none" stroke="black"/>
<path d="M63.9961,174.383h -6.80315" fill="none" stroke="black"/>
<path d="M63.9961,168.211h -6.80315" fill="none" stroke="black"/>
<path d="M70.7992,162.038h -13.6063" fill="none" stroke="black"/>
<path d="M63.9961,155.865h -6.80315" fill="none" stroke="black"/>
<path d="M63.9961,149.692h -6.80315" fill="none" stroke="black"/>
<path d="M63.9961,143.519h -6.80315" fill="none" stroke="black"/>
<path d="M63.9961,137.346h -6.80315" fill="none" stroke="black"/>
<path d="M70.7992,131.173h -13.6063" fill="none" stroke="black"/>
<path d="M63.9961,125.001h -6.80315" fill="none" stroke="black"/>
<path d="M63.9961,118.828h -6.80315" fill="none" stroke="black"/>
<path d="M63.9961,112.655h -6.80315" fill="none" stroke="black"/>
<path d="M63.9961,106.482h -6.80315" fill="none" stroke="black"/>
<path d="M70.7992,100.309h -13.6063" fill="none" stroke="black"/>
<path d="M63.9961,94.1362h -6.80315" fill="none" stroke="black"/>
<path d="M63.9961,87.9634h -6.80315" fill="none" stroke="black"/>
<path d="M63.9961,81.7905h -6.80315" fill="none" stroke="black"/>
<path d="M63.9961,75.6176h -6.80315" fill="none" stroke="black"/>
<path d="M70.7992,69.4448h -13.6063" fill="none" stroke="black"/>
<path d="M63.9961,63.2719h -6.80315" fill="none" stroke="black"/>
<path d="M63.9961,57.099h -6.80315" fill="none" stroke="black"/>
<path d="M63.9961,50.9262h -6.80315" fill="none" stroke="black"/>
<path d="M63.9961,44.7533h -6.80315" fill="none" stroke="black"/>
<path d="M70.7992,38.5804h -13.6063" fill="none" stroke="black"/>
<text xml:space="preserve" x="46.7965" y="351.691" fill="black" font-size="12.8882" font-family="Helvetica">0</text>
<text xml:space="preserve" x="49.2332" y="321.639" fill="black" font-size="12.8882" font-family="Helvetica">1</text>
<text xml:space="preserve" x="46.7965" y="290.775" fill="black" font-size="12.8882" font-family="Helvetica">2</text>
<text xml:space="preserve" x="46.7965" y="259.098" fill="black" font-size="12.8882" font-family="Helvetica">3</text>
<text xml:space="preserve" x="46.7965" y="229.046" fill="black" font-size="12.8882" font-family="Helvetica">4</text>
<text xml:space="preserve" x="46.7965" y="197.369" fill="black" font-size="12.8882" font-family="Helvetica">5</text>
<text xml:space="preserve" x="46.7965" y="166.505" fill="black" font-size="12.8882" font-family="Helvetica">6</text>
<text xml:space="preserve" x="46.7965" y="136.453" fill="black" font-size="12.8882" font-family="Helvetica">7</text>
<text xml:space="preserve" x="46.7965" y="104.776" fill="black" font-size="12.8882" font-family="Helvetica">8</text>
<text xml:space="preserve" x="46.7965" y="73.912" fill="black" font-size="12.8882" font-family="Helvetica">9</text>
<text xml:space="preserve" x="39.4865" y="43.0476" fill="black" font-size="12.8882" font-family="Helvetica">10</text>
<rect x="442.705" y="25.0773" width="113.386" height="92.593" fill="white"/>
<path d="M442.705,117.67h 113.386" fill="none" stroke="black"/>
<path d="M556.091,117.67v -92.593" fill="none" stroke="black"/>
<path d="M556.091,25.0773h -113.386" fill="none" stroke="black"/>
<path d="M442.705,25.0773v 92.593" fill="none" stroke="black"/>
<text xml:space="preserve" x="445.596" y="36.5499" fill="black" font-size="12.0742" font-family="Helvetica">directPhoton_check</text>
<path d="M442.705,40.5094h 113.386" fill="none" stroke="black"/>
<text xml:space="preserve" x="448.033" y="52.7943" fill="black" font-size="12.8782" font-family="Helvetica">Entries </text>
<text xml:space="preserve" x="510.574" y="52.7943" fill="black" font-size="12.8782" font-family="Helvetica"> 60847</text>
<text xml:space="preserve" x="448.033" y="68.2264" fill="black" font-size="12.8782" font-family="Helvetica">Mean x </text>
<text xml:space="preserve" x="517.884" y="69.0387" fill="black" font-size="12.8782" font-family="Helvetica">     22</text>
<text xml:space="preserve" x="448.033" y="82.8464" fill="black" font-size="12.8782" font-family="Helvetica">Mean y </text>
<text xml:space="preserve" x="510.574" y="83.6586" fill="black" font-size="12.8782" font-family="Helvetica">  1.894</text>
<text xml:space="preserve" x="448.033" y="99.0908" fill="black" font-size="12.8782" font-family="Helvetica">Std Dev x </text>
<text xml:space="preserve" x="521.945" y="99.0908" fill="black" font-size="12.8782" font-family="Helvetica">      0</text>
<text xml:space="preserve" x="448.033" y="113.711" fill="black" font-size="12.8782" font-family="Helvetica">Std Dev y </text>
<text xml:space="preserve" x="507.325" y="114.523" fill="black" font-size="12.8782" font-family="Helvetica"> 0.3867</text>
<rect x="513.571" y="331.792" width="25.5118" height="15.4322" fill="#263da8"/>
<rect x="513.571" y="316.359" width="25.5118" height="15.4322" fill="#1652cc"/>
<rect x="513.571" y="300.927" width="25.5118" height="15.4322" fill="#1063db"/>
<rect x="513.571" y="285.495" width="25.5118" height="15.4322" fill="#1171d8"/>
<rect x="513.571" y="270.063" width="25.5118" height="15.4322" fill="#1380d5"/>
<rect x="513.571" y="254.631" width="25.5118" height="15.4322" fill="#0e8ed0"/>
<rect x="513.571" y="239.199" width="25.5118" height="15.4322" fill="#089dcc"/>
<rect x="513.571" y="223.766" width="25.5118" height="15.4322" fill="#0da7c2"/>
<rect x="513.571" y="208.334" width="25.5118" height="15.4322" fill="#1dafb3"/>
<rect x="513.571" y="192.902" width="25.5118" height="15.4322" fill="#2db7a3"/>
<rect x="513.571" y="177.47" width="25.5118" height="15.4322" fill="#52ba91"/>
<rect x="513.571" y="162.038" width="25.5118" height="15.4322" fill="#73bd80"/>
<rect x="513.571" y="146.606" width="25.5118" height="15.4322" fill="#94be71"/>
<rect x="513.571" y="131.173" width="25.5118" height="15.4322" fill="#b2bc65"/>
<rect x="513.571" y="115.741" width="25.5118" height="15.4322" fill="#d0ba59"/>
<rect x="513.571" y="100.309" width="25.5118" height="15.4322" fill="#e1bf4a"/>
<rect x="513.571" y="84.8769" width="25.5118" height="15.4322" fill="#f4c53a"/>
<rect x="513.571" y="69.4448" width="25.5118" height="15.4322" fill="#fcd12b"/>
<rect x="513.571" y="54.0126" width="25.5118" height="15.4322" fill="#fae61c"/>
<rect x="513.571" y="38.5804" width="25.5118" height="15.4322" fill="#f9f90e"/>
<path d="M539.083,347.224v -308.643" fill="none" stroke="black"/>
<path d="M525.476,347.224h 13.6063" fill="none" stroke="black"/>
<path d="M525.476,288.081h 13.6063" fill="none" stroke="black"/>
<path d="M525.476,228.938h 13.6063" fill="none" stroke="black"/>
<path d="M525.476,169.795h 13.6063" fill="none" stroke="black"/>
<path d="M525.476,110.652h 13.6063" fill="none" stroke="black"/>
<path d="M525.476,51.5091h 13.6063" fill="none" stroke="black"/>
<path d="M525.476,51.5091h 13.6063" fill="none" stroke="black"/>
<text xml:space="preserve" x="541.438" y="351.691" fill="black" font-size="12.8882" font-family="Helvetica">0</text>
<text xml:space="preserve" x="541.438" y="292.399" fill="black" font-size="12.8882" font-family="Helvetica">10000</text>
<text xml:space="preserve" x="541.438" y="233.107" fill="black" font-size="12.8882" font-family="Helvetica">20000</text>
<text xml:space="preserve" x="541.438" y="174.627" fill="black" font-size="12.8882" font-family="Helvetica">30000</text>
<text xml:space="preserve" x="541.438" y="115.335" fill="black" font-size="12.8882" font-family="Helvetica">40000</text>
<text xml:space="preserve" x="541.438" y="56.0431" fill="black" font-size="12.8882" font-family="Helvetica">50000</text>
<rect x="442.705" y="25.0773" width="113.386" height="92.593" fill="white"/>
<path d="M442.705,117.67h 113.386" fill="none" stroke="black"/>
<path d="M556.091,117.67v -92.593" fill="none" stroke="black"/>
<path d="M556.091,25.0773h -113.386" fill="none" stroke="black"/>
<path d="M442.705,25.0773v 92.593" fill="none" stroke="black"/>
<text xml:space="preserve" x="445.596" y="36.5499" fill="black" font-size="12.0742" font-family="Helvetica">directPhoton_check</text>
<path d="M442.705,40.5094h 113.386" fill="none" stroke="black"/>
<text xml:space="preserve" x="448.033" y="52.7943" fill="black" font-size="12.8782" font-family="Helvetica">Entries </text>
<text xml:space="preserve" x="510.574" y="52.7943" fill="black" font-size="12.8782" font-family="Helvetica"> 60847</text>
<text xml:space="preserve" x="448.033" y="68.2264" fill="black" font-size="12.8782" font-family="Helvetica">Mean x </text>
<text xml:space="preserve" x="517.884" y="69.0387" fill="black" font-size="12.8782" font-family="Helvetica">     22</text>
<text xml:space="preserve" x="448.033" y="82.8464" fill="black" font-size="12.8782" font-family="Helvetica">Mean y </text>
<text xml:space="preserve" x="510.574" y="83.6586" fill="black" font-size="12.8782" font-family="Helvetica">  1.894</text>
<text xml:space="preserve" x="448.033" y="99.0908" fill="black" font-size="12.8782" font-family="Helvetica">Std Dev x </text>
<text xml:space="preserve" x="521.945" y="99.0908" fill="black" font-size="12.8782" font-family="Helvetica">      0</text>
<text xml:space="preserve" x="448.033" y="113.711" fill="black" font-size="12.8782" font-family="Helvetica">Std Dev y </text>
<text xml:space="preserve" x="507.325" y="114.523" fill="black" font-size="12.8782" font-family="Helvetica"> 0.3867</text>
<text xml:space="preserve" x="191.372" y="18.681" fill="black" font-size="17.9813" font-family="Helvetica">x: mom_id, y: gmom_id</text></svg>
