<?xml version="1.0" standalone="no"?>
<svg width="567.429" height="409.002" viewBox="0 0 567.429 409.002" xmlns="http://www.w3.org/2000/svg" shape-rendering="crispEdges">
<title>
/Users/jinhyunpark/npl/gitHub/xloadFromServer/Git_Bias_correction_RxA/plots_dirAdded/dNdeta_pion0_inTargetEvents.svg
</title>
<desc>
Creator: ROOT Version 6.28/04
CreationDate: Wed Aug 30 23:52:49 2023</desc>
<defs>
</defs>
<rect x="0.5" y="0" width="566.929" height="408.502" fill="white"/>
<rect x="85.5394" y="20.4251" width="396.85" height="339.056" fill="white"/>
<rect x="85.5394" y="20.4251" width="396.85" height="339.056" fill="none" stroke="black"/>
<rect x="85.5394" y="20.4251" width="396.85" height="339.056" fill="white"/>
<rect x="85.5394" y="20.4251" width="396.85" height="339.056" fill="none" stroke="black"/>
<path d="M85.5394,359.481h 396.85" fill="none" stroke="black"/>
<path d="M85.5394,350.903v 8.57853" fill="none" stroke="black"/>
<path d="M102.075,355.192v 4.28927" fill="none" stroke="black"/>
<path d="M118.61,355.192v 4.28927" fill="none" stroke="black"/>
<path d="M135.146,355.192v 4.28927" fill="none" stroke="black"/>
<path d="M151.681,350.903v 8.57853" fill="none" stroke="black"/>
<path d="M168.217,355.192v 4.28927" fill="none" stroke="black"/>
<path d="M184.752,355.192v 4.28927" fill="none" stroke="black"/>
<path d="M201.287,355.192v 4.28927" fill="none" stroke="black"/>
<path d="M217.823,350.903v 8.57853" fill="none" stroke="black"/>
<path d="M234.358,355.192v 4.28927" fill="none" stroke="black"/>
<path d="M250.894,355.192v 4.28927" fill="none" stroke="black"/>
<path d="M267.429,355.192v 4.28927" fill="none" stroke="black"/>
<path d="M283.965,350.903v 8.57853" fill="none" stroke="black"/>
<path d="M300.5,355.192v 4.28927" fill="none" stroke="black"/>
<path d="M317.035,355.192v 4.28927" fill="none" stroke="black"/>
<path d="M333.571,355.192v 4.28927" fill="none" stroke="black"/>
<path d="M350.106,350.903v 8.57853" fill="none" stroke="black"/>
<path d="M366.642,355.192v 4.28927" fill="none" stroke="black"/>
<path d="M383.177,355.192v 4.28927" fill="none" stroke="black"/>
<path d="M399.713,355.192v 4.28927" fill="none" stroke="black"/>
<path d="M416.248,350.903v 8.57853" fill="none" stroke="black"/>
<path d="M432.783,355.192v 4.28927" fill="none" stroke="black"/>
<path d="M449.319,355.192v 4.28927" fill="none" stroke="black"/>
<path d="M465.854,355.192v 4.28927" fill="none" stroke="black"/>
<path d="M482.39,350.903v 8.57853" fill="none" stroke="black"/>
<text xml:space="preserve" x="85.0421" y="372.269" fill="black" font-size="13.617" font-family="Helvetica">6</text>
<text xml:space="preserve" x="77.2272" y="372.269" fill="black" font-size="13.617" font-family="Times">&#8722;</text>
<text xml:space="preserve" x="151.113" y="372.269" fill="black" font-size="13.617" font-family="Helvetica">4</text>
<text xml:space="preserve" x="143.298" y="372.269" fill="black" font-size="13.617" font-family="Times">&#8722;</text>
<text xml:space="preserve" x="217.183" y="372.269" fill="black" font-size="13.617" font-family="Helvetica">2</text>
<text xml:space="preserve" x="209.369" y="372.269" fill="black" font-size="13.617" font-family="Times">&#8722;</text>
<text xml:space="preserve" x="280.412" y="372.269" fill="black" font-size="13.617" font-family="Helvetica">0</text>
<text xml:space="preserve" x="346.483" y="372.269" fill="black" font-size="13.617" font-family="Helvetica">2</text>
<text xml:space="preserve" x="412.554" y="372.269" fill="black" font-size="13.617" font-family="Helvetica">4</text>
<text xml:space="preserve" x="478.624" y="372.269" fill="black" font-size="13.617" font-family="Helvetica">6</text>
<text xml:space="preserve" x="474.362" y="384.347" fill="black" font-size="13.617" font-family="Times">&#0951;</text>
<path d="M85.5394,20.4251h 396.85" fill="none" stroke="black"/>
<path d="M85.5394,29.0036v -8.57853" fill="none" stroke="black"/>
<path d="M102.075,24.7143v -4.28927" fill="none" stroke="black"/>
<path d="M118.61,24.7143v -4.28927" fill="none" stroke="black"/>
<path d="M135.146,24.7143v -4.28927" fill="none" stroke="black"/>
<path d="M151.681,29.0036v -8.57853" fill="none" stroke="black"/>
<path d="M168.217,24.7143v -4.28927" fill="none" stroke="black"/>
<path d="M184.752,24.7143v -4.28927" fill="none" stroke="black"/>
<path d="M201.287,24.7143v -4.28927" fill="none" stroke="black"/>
<path d="M217.823,29.0036v -8.57853" fill="none" stroke="black"/>
<path d="M234.358,24.7143v -4.28927" fill="none" stroke="black"/>
<path d="M250.894,24.7143v -4.28927" fill="none" stroke="black"/>
<path d="M267.429,24.7143v -4.28927" fill="none" stroke="black"/>
<path d="M283.965,29.0036v -8.57853" fill="none" stroke="black"/>
<path d="M300.5,24.7143v -4.28927" fill="none" stroke="black"/>
<path d="M317.035,24.7143v -4.28927" fill="none" stroke="black"/>
<path d="M333.571,24.7143v -4.28927" fill="none" stroke="black"/>
<path d="M350.106,29.0036v -8.57853" fill="none" stroke="black"/>
<path d="M366.642,24.7143v -4.28927" fill="none" stroke="black"/>
<path d="M383.177,24.7143v -4.28927" fill="none" stroke="black"/>
<path d="M399.713,24.7143v -4.28927" fill="none" stroke="black"/>
<path d="M416.248,29.0036v -8.57853" fill="none" stroke="black"/>
<path d="M432.783,24.7143v -4.28927" fill="none" stroke="black"/>
<path d="M449.319,24.7143v -4.28927" fill="none" stroke="black"/>
<path d="M465.854,24.7143v -4.28927" fill="none" stroke="black"/>
<path d="M482.39,29.0036v -8.57853" fill="none" stroke="black"/>
<path d="M85.5394,359.481v -339.056" fill="none" stroke="black"/>
<path d="M99.6559,359.481h -14.1165" fill="none" stroke="black"/>
<path d="M92.5976,352.7h -7.05827" fill="none" stroke="black"/>
<path d="M92.5976,345.919h -7.05827" fill="none" stroke="black"/>
<path d="M92.5976,339.138h -7.05827" fill="none" stroke="black"/>
<path d="M92.5976,332.357h -7.05827" fill="none" stroke="black"/>
<path d="M99.6559,325.576h -14.1165" fill="none" stroke="black"/>
<path d="M92.5976,318.795h -7.05827" fill="none" stroke="black"/>
<path d="M92.5976,312.014h -7.05827" fill="none" stroke="black"/>
<path d="M92.5976,305.232h -7.05827" fill="none" stroke="black"/>
<path d="M92.5976,298.451h -7.05827" fill="none" stroke="black"/>
<path d="M99.6559,291.67h -14.1165" fill="none" stroke="black"/>
<path d="M92.5976,284.889h -7.05827" fill="none" stroke="black"/>
<path d="M92.5976,278.108h -7.05827" fill="none" stroke="black"/>
<path d="M92.5976,271.327h -7.05827" fill="none" stroke="black"/>
<path d="M92.5976,264.546h -7.05827" fill="none" stroke="black"/>
<path d="M99.6559,257.764h -14.1165" fill="none" stroke="black"/>
<path d="M92.5976,250.983h -7.05827" fill="none" stroke="black"/>
<path d="M92.5976,244.202h -7.05827" fill="none" stroke="black"/>
<path d="M92.5976,237.421h -7.05827" fill="none" stroke="black"/>
<path d="M92.5976,230.64h -7.05827" fill="none" stroke="black"/>
<path d="M99.6559,223.859h -14.1165" fill="none" stroke="black"/>
<path d="M92.5976,217.078h -7.05827" fill="none" stroke="black"/>
<path d="M92.5976,210.297h -7.05827" fill="none" stroke="black"/>
<path d="M92.5976,203.515h -7.05827" fill="none" stroke="black"/>
<path d="M92.5976,196.734h -7.05827" fill="none" stroke="black"/>
<path d="M99.6559,189.953h -14.1165" fill="none" stroke="black"/>
<path d="M92.5976,183.172h -7.05827" fill="none" stroke="black"/>
<path d="M92.5976,176.391h -7.05827" fill="none" stroke="black"/>
<path d="M92.5976,169.61h -7.05827" fill="none" stroke="black"/>
<path d="M92.5976,162.829h -7.05827" fill="none" stroke="black"/>
<path d="M99.6559,156.048h -14.1165" fill="none" stroke="black"/>
<path d="M92.5976,149.266h -7.05827" fill="none" stroke="black"/>
<path d="M92.5976,142.485h -7.05827" fill="none" stroke="black"/>
<path d="M92.5976,135.704h -7.05827" fill="none" stroke="black"/>
<path d="M92.5976,128.923h -7.05827" fill="none" stroke="black"/>
<path d="M99.6559,122.142h -14.1165" fill="none" stroke="black"/>
<path d="M92.5976,115.361h -7.05827" fill="none" stroke="black"/>
<path d="M92.5976,108.58h -7.05827" fill="none" stroke="black"/>
<path d="M92.5976,101.799h -7.05827" fill="none" stroke="black"/>
<path d="M92.5976,95.0175h -7.05827" fill="none" stroke="black"/>
<path d="M99.6559,88.2363h -14.1165" fill="none" stroke="black"/>
<path d="M92.5976,81.4552h -7.05827" fill="none" stroke="black"/>
<path d="M92.5976,74.6741h -7.05827" fill="none" stroke="black"/>
<path d="M92.5976,67.893h -7.05827" fill="none" stroke="black"/>
<path d="M92.5976,61.1118h -7.05827" fill="none" stroke="black"/>
<path d="M99.6559,54.3307h -14.1165" fill="none" stroke="black"/>
<path d="M92.5976,47.5496h -7.05827" fill="none" stroke="black"/>
<path d="M92.5976,40.7685h -7.05827" fill="none" stroke="black"/>
<path d="M92.5976,33.9873h -7.05827" fill="none" stroke="black"/>
<path d="M92.5976,27.2062h -7.05827" fill="none" stroke="black"/>
<path d="M99.6559,20.4251h -14.1165" fill="none" stroke="black"/>
<text xml:space="preserve" x="75.0959" y="364.454" fill="black" font-size="13.617" font-family="Helvetica">0</text>
<text xml:space="preserve" x="63.7289" y="330.353" fill="black" font-size="13.617" font-family="Helvetica">0.5</text>
<text xml:space="preserve" x="77.2272" y="296.963" fill="black" font-size="13.617" font-family="Helvetica">1</text>
<text xml:space="preserve" x="63.7289" y="262.151" fill="black" font-size="13.617" font-family="Helvetica">1.5</text>
<text xml:space="preserve" x="75.0959" y="229.471" fill="black" font-size="13.617" font-family="Helvetica">2</text>
<text xml:space="preserve" x="63.7289" y="194.66" fill="black" font-size="13.617" font-family="Helvetica">2.5</text>
<text xml:space="preserve" x="75.0959" y="160.559" fill="black" font-size="13.617" font-family="Helvetica">3</text>
<text xml:space="preserve" x="63.7289" y="126.458" fill="black" font-size="13.617" font-family="Helvetica">3.5</text>
<text xml:space="preserve" x="75.0959" y="93.7778" fill="black" font-size="13.617" font-family="Helvetica">4</text>
<text xml:space="preserve" x="63.7289" y="58.9663" fill="black" font-size="13.617" font-family="Helvetica">4.5</text>
<text xml:space="preserve" x="75.0959" y="24.8653" fill="black" font-size="13.617" font-family="Helvetica">5</text>
<g transform="rotate(-90,51.6515,27.7071)">
<text xml:space="preserve" x="51.6515" y="27.7071" fill="black" font-size="13.617" font-family="Times">&#0951;</text>
</g>
<g transform="rotate(-90,51.6515,39.0741)">
<text xml:space="preserve" x="51.6515" y="39.0741" fill="black" font-size="13.617" font-family="Helvetica">/d</text>
</g>
<g transform="rotate(-90,41.7054,42.6263)">
<text xml:space="preserve" x="41.7054" y="42.6263" fill="black" font-size="6.32979" font-family="Helvetica">0</text>
</g>
<g transform="rotate(-90,45.2576,47.5993)">
<text xml:space="preserve" x="45.2576" y="47.5993" fill="black" font-size="9.24468" font-family="Times">&#0960;</text>
</g>
<g transform="rotate(-90,51.6515,68.202)">
<text xml:space="preserve" x="51.6515" y="68.202" fill="black" font-size="13.617" font-family="Helvetica"> dN</text>
</g>
<g transform="rotate(-90,56.6246,90.936)">
<text xml:space="preserve" x="56.6246" y="90.936" fill="black" font-size="9.24468" font-family="Helvetica">event</text>
</g>
<g transform="rotate(-90,51.6515,111.539)">
<text xml:space="preserve" x="51.6515" y="111.539" fill="black" font-size="13.617" font-family="Helvetica">1/N</text>
</g>
<path d="M482.39,359.481v -339.056" fill="none" stroke="black"/>
<path d="M468.273,359.481h 14.1165" fill="none" stroke="black"/>
<path d="M475.332,352.7h 7.05827" fill="none" stroke="black"/>
<path d="M475.332,345.919h 7.05827" fill="none" stroke="black"/>
<path d="M475.332,339.138h 7.05827" fill="none" stroke="black"/>
<path d="M475.332,332.357h 7.05827" fill="none" stroke="black"/>
<path d="M468.273,325.576h 14.1165" fill="none" stroke="black"/>
<path d="M475.332,318.795h 7.05827" fill="none" stroke="black"/>
<path d="M475.332,312.014h 7.05827" fill="none" stroke="black"/>
<path d="M475.332,305.232h 7.05827" fill="none" stroke="black"/>
<path d="M475.332,298.451h 7.05827" fill="none" stroke="black"/>
<path d="M468.273,291.67h 14.1165" fill="none" stroke="black"/>
<path d="M475.332,284.889h 7.05827" fill="none" stroke="black"/>
<path d="M475.332,278.108h 7.05827" fill="none" stroke="black"/>
<path d="M475.332,271.327h 7.05827" fill="none" stroke="black"/>
<path d="M475.332,264.546h 7.05827" fill="none" stroke="black"/>
<path d="M468.273,257.764h 14.1165" fill="none" stroke="black"/>
<path d="M475.332,250.983h 7.05827" fill="none" stroke="black"/>
<path d="M475.332,244.202h 7.05827" fill="none" stroke="black"/>
<path d="M475.332,237.421h 7.05827" fill="none" stroke="black"/>
<path d="M475.332,230.64h 7.05827" fill="none" stroke="black"/>
<path d="M468.273,223.859h 14.1165" fill="none" stroke="black"/>
<path d="M475.332,217.078h 7.05827" fill="none" stroke="black"/>
<path d="M475.332,210.297h 7.05827" fill="none" stroke="black"/>
<path d="M475.332,203.515h 7.05827" fill="none" stroke="black"/>
<path d="M475.332,196.734h 7.05827" fill="none" stroke="black"/>
<path d="M468.273,189.953h 14.1165" fill="none" stroke="black"/>
<path d="M475.332,183.172h 7.05827" fill="none" stroke="black"/>
<path d="M475.332,176.391h 7.05827" fill="none" stroke="black"/>
<path d="M475.332,169.61h 7.05827" fill="none" stroke="black"/>
<path d="M475.332,162.829h 7.05827" fill="none" stroke="black"/>
<path d="M468.273,156.048h 14.1165" fill="none" stroke="black"/>
<path d="M475.332,149.266h 7.05827" fill="none" stroke="black"/>
<path d="M475.332,142.485h 7.05827" fill="none" stroke="black"/>
<path d="M475.332,135.704h 7.05827" fill="none" stroke="black"/>
<path d="M475.332,128.923h 7.05827" fill="none" stroke="black"/>
<path d="M468.273,122.142h 14.1165" fill="none" stroke="black"/>
<path d="M475.332,115.361h 7.05827" fill="none" stroke="black"/>
<path d="M475.332,108.58h 7.05827" fill="none" stroke="black"/>
<path d="M475.332,101.799h 7.05827" fill="none" stroke="black"/>
<path d="M475.332,95.0175h 7.05827" fill="none" stroke="black"/>
<path d="M468.273,88.2363h 14.1165" fill="none" stroke="black"/>
<path d="M475.332,81.4552h 7.05827" fill="none" stroke="black"/>
<path d="M475.332,74.6741h 7.05827" fill="none" stroke="black"/>
<path d="M475.332,67.893h 7.05827" fill="none" stroke="black"/>
<path d="M475.332,61.1118h 7.05827" fill="none" stroke="black"/>
<path d="M468.273,54.3307h 14.1165" fill="none" stroke="black"/>
<path d="M475.332,47.5496h 7.05827" fill="none" stroke="black"/>
<path d="M475.332,40.7685h 7.05827" fill="none" stroke="black"/>
<path d="M475.332,33.9873h 7.05827" fill="none" stroke="black"/>
<path d="M475.332,27.2062h 7.05827" fill="none" stroke="black"/>
<path d="M468.273,20.4251h 14.1165" fill="none" stroke="black"/>
<path d="M118.61,293.049h 5.42597" fill="none" stroke="#5954d8"/>
<path d="M129.72,293.049h 5.42597" fill="none" stroke="#5954d8"/>
<g fill="#5954d8">
<polygon points=" 125.931, 292.101 125.931, 290.207 127.825, 290.207 127.825, 292.101 129.72, 292.101 129.72, 293.996 127.825, 293.996 127.825, 295.89 125.931, 295.89 125.931, 293.996 124.036, 293.996 124.036, 292.101"/>
</g>
<path d="M135.146,268.507h 5.42597" fill="none" stroke="#5954d8"/>
<path d="M146.255,268.507h 5.42597" fill="none" stroke="#5954d8"/>
<g fill="#5954d8">
<polygon points=" 142.466, 267.56 142.466, 265.665 144.361, 265.665 144.361, 267.56 146.255, 267.56 146.255, 269.454 144.361, 269.454 144.361, 271.349 142.466, 271.349 142.466, 269.454 140.572, 269.454 140.572, 267.56"/>
</g>
<path d="M151.681,249.334h 5.42597" fill="none" stroke="#5954d8"/>
<path d="M162.791,249.334h 5.42597" fill="none" stroke="#5954d8"/>
<g fill="#5954d8">
<polygon points=" 159.002, 248.387 159.002, 246.493 160.896, 246.493 160.896, 248.387 162.791, 248.387 162.791, 250.282 160.896, 250.282 160.896, 252.176 159.002, 252.176 159.002, 250.282 157.107, 250.282 157.107, 248.387"/>
</g>
<path d="M168.217,235.396h 5.42597" fill="none" stroke="#5954d8"/>
<path d="M179.326,235.396h 5.42597" fill="none" stroke="#5954d8"/>
<g fill="#5954d8">
<polygon points=" 175.537, 234.449 175.537, 232.554 177.432, 232.554 177.432, 234.449 179.326, 234.449 179.326, 236.343 177.432, 236.343 177.432, 238.238 175.537, 238.238 175.537, 236.343 173.643, 236.343 173.643, 234.449"/>
</g>
<path d="M184.752,226.238h 5.42597" fill="none" stroke="#5954d8"/>
<path d="M195.861,226.238h 5.42597" fill="none" stroke="#5954d8"/>
<g fill="#5954d8">
<polygon points=" 192.072, 225.291 192.072, 223.396 193.967, 223.396 193.967, 225.291 195.861, 225.291 195.861, 227.185 193.967, 227.185 193.967, 229.08 192.072, 229.08 192.072, 227.185 190.178, 227.185 190.178, 225.291"/>
</g>
<path d="M201.287,221.792h 5.42597" fill="none" stroke="#5954d8"/>
<path d="M212.397,221.792h 5.42597" fill="none" stroke="#5954d8"/>
<g fill="#5954d8">
<polygon points=" 208.608, 220.845 208.608, 218.95 210.502, 218.95 210.502, 220.845 212.397, 220.845 212.397, 222.739 210.502, 222.739 210.502, 224.634 208.608, 224.634 208.608, 222.739 206.713, 222.739 206.713, 220.845"/>
</g>
<path d="M217.823,222.286h 5.42597" fill="none" stroke="#5954d8"/>
<path d="M228.932,222.286h 5.42597" fill="none" stroke="#5954d8"/>
<g fill="#5954d8">
<polygon points=" 225.143, 221.339 225.143, 219.444 227.038, 219.444 227.038, 221.339 228.932, 221.339 228.932, 223.233 227.038, 223.233 227.038, 225.128 225.143, 225.128 225.143, 223.233 223.249, 223.233 223.249, 221.339"/>
</g>
<path d="M234.358,227.675h 5.42597" fill="none" stroke="#5954d8"/>
<path d="M245.468,227.675h 5.42597" fill="none" stroke="#5954d8"/>
<g fill="#5954d8">
<polygon points=" 241.679, 226.728 241.679, 224.834 243.573, 224.834 243.573, 226.728 245.468, 226.728 245.468, 228.623 243.573, 228.623 243.573, 230.517 241.679, 230.517 241.679, 228.623 239.784, 228.623 239.784, 226.728"/>
</g>
<path d="M250.894,235.199h 5.42597" fill="none" stroke="#5954d8"/>
<path d="M262.003,235.199h 5.42597" fill="none" stroke="#5954d8"/>
<g fill="#5954d8">
<polygon points=" 258.214, 234.252 258.214, 232.358 260.109, 232.358 260.109, 234.252 262.003, 234.252 262.003, 236.147 260.109, 236.147 260.109, 238.041 258.214, 238.041 258.214, 236.147 256.32, 236.147 256.32, 234.252"/>
</g>
<path d="M267.429,244.867h 5.42597" fill="none" stroke="#5954d8"/>
<path d="M278.539,244.867h 5.42597" fill="none" stroke="#5954d8"/>
<g fill="#5954d8">
<polygon points=" 274.75, 243.92 274.75, 242.025 276.644, 242.025 276.644, 243.92 278.539, 243.92 278.539, 245.814 276.644, 245.814 276.644, 247.709 274.75, 247.709 274.75, 245.814 272.855, 245.814 272.855, 243.92"/>
</g>
<path d="M283.965,251.589h 5.42597" fill="none" stroke="#5954d8"/>
<path d="M295.074,251.589h 5.42597" fill="none" stroke="#5954d8"/>
<g fill="#5954d8">
<polygon points=" 291.285, 250.642 291.285, 248.747 293.18, 248.747 293.18, 250.642 295.074, 250.642 295.074, 252.536 293.18, 252.536 293.18, 254.431 291.285, 254.431 291.285, 252.536 289.391, 252.536 289.391, 250.642"/>
</g>
<path d="M300.5,256.054h 5.42597" fill="none" stroke="#5954d8"/>
<path d="M311.609,256.054h 5.42597" fill="none" stroke="#5954d8"/>
<g fill="#5954d8">
<polygon points=" 307.82, 255.107 307.82, 253.212 309.715, 253.212 309.715, 255.107 311.609, 255.107 311.609, 257.001 309.715, 257.001 309.715, 258.896 307.82, 258.896 307.82, 257.001 305.926, 257.001 305.926, 255.107"/>
</g>
<path d="M317.035,263.378h 5.42597" fill="none" stroke="#5954d8"/>
<path d="M328.145,263.378h 5.42597" fill="none" stroke="#5954d8"/>
<g fill="#5954d8">
<polygon points=" 324.356, 262.431 324.356, 260.536 326.25, 260.536 326.25, 262.431 328.145, 262.431 328.145, 264.325 326.25, 264.325 326.25, 266.22 324.356, 266.22 324.356, 264.325 322.461, 264.325 322.461, 262.431"/>
</g>
<path d="M333.571,272.648h 5.42597" fill="none" stroke="#5954d8"/>
<path d="M344.68,272.648h 5.42597" fill="none" stroke="#5954d8"/>
<g fill="#5954d8">
<polygon points=" 340.891, 271.7 340.891, 269.806 342.786, 269.806 342.786, 271.7 344.68, 271.7 344.68, 273.595 342.786, 273.595 342.786, 275.489 340.891, 275.489 340.891, 273.595 338.997, 273.595 338.997, 271.7"/>
</g>
<path d="M350.106,285.161h 5.42597" fill="none" stroke="#5954d8"/>
<path d="M361.216,285.161h 5.42597" fill="none" stroke="#5954d8"/>
<g fill="#5954d8">
<polygon points=" 357.427, 284.213 357.427, 282.319 359.321, 282.319 359.321, 284.213 361.216, 284.213 361.216, 286.108 359.321, 286.108 359.321, 288.002 357.427, 288.002 357.427, 286.108 355.532, 286.108 355.532, 284.213"/>
</g>
<path d="M366.642,299.874h 5.42597" fill="none" stroke="#5954d8"/>
<path d="M377.751,299.874h 5.42597" fill="none" stroke="#5954d8"/>
<g fill="#5954d8">
<polygon points=" 373.962, 298.926 373.962, 297.032 375.857, 297.032 375.857, 298.926 377.751, 298.926 377.751, 300.821 375.857, 300.821 375.857, 302.715 373.962, 302.715 373.962, 300.821 372.068, 300.821 372.068, 298.926"/>
</g>
<path d="M383.177,315.256h 5.42597" fill="none" stroke="#5954d8"/>
<path d="M394.287,315.256h 5.42597" fill="none" stroke="#5954d8"/>
<g fill="#5954d8">
<polygon points=" 390.498, 314.309 390.498, 312.414 392.392, 312.414 392.392, 314.309 394.287, 314.309 394.287, 316.203 392.392, 316.203 392.392, 318.098 390.498, 318.098 390.498, 316.203 388.603, 316.203 388.603, 314.309"/>
</g>
<path d="M399.713,329.506h 5.42597" fill="none" stroke="#5954d8"/>
<path d="M410.822,329.506h 5.42597" fill="none" stroke="#5954d8"/>
<g fill="#5954d8">
<polygon points=" 407.033, 328.558 407.033, 326.664 408.928, 326.664 408.928, 328.558 410.822, 328.558 410.822, 330.453 408.928, 330.453 408.928, 332.347 407.033, 332.347 407.033, 330.453 405.139, 330.453 405.139, 328.558"/>
</g>
<path d="M416.248,341.483h 5.42597" fill="none" stroke="#5954d8"/>
<path d="M427.358,341.483h 5.42597" fill="none" stroke="#5954d8"/>
<g fill="#5954d8">
<polygon points=" 423.569, 340.536 423.569, 338.641 425.463, 338.641 425.463, 340.536 427.358, 340.536 427.358, 342.43 425.463, 342.43 425.463, 344.324 423.569, 344.324 423.569, 342.43 421.674, 342.43 421.674, 340.536"/>
</g>
<path d="M432.783,350.235h 5.42597" fill="none" stroke="#5954d8"/>
<path d="M443.893,350.235h 5.42597" fill="none" stroke="#5954d8"/>
<g fill="#5954d8">
<polygon points=" 440.104, 349.288 440.104, 347.393 441.998, 347.393 441.998, 349.288 443.893, 349.288 443.893, 351.182 441.998, 351.182 441.998, 353.077 440.104, 353.077 440.104, 351.182 438.209, 351.182 438.209, 349.288"/>
</g>
<path d="M449.319,359.481h 5.42597" fill="none" stroke="#5954d8"/>
<path d="M460.428,359.481h 5.42597" fill="none" stroke="#5954d8"/>
<g fill="#5954d8">
<polygon points=" 456.639, 358.534 456.639, 356.64 458.534, 356.64 458.534, 358.534 460.428, 358.534 460.428, 360.429 458.534, 360.429 458.534, 362.323 456.639, 362.323 456.639, 360.429 454.745, 360.429 454.745, 358.534"/>
</g>
<path d="M118.61,283.453h 5.42597" fill="none" stroke="#ff00ff"/>
<path d="M129.72,283.453h 5.42597" fill="none" stroke="#ff00ff"/>
<g stroke="#ff00ff" stroke-width="1" fill="none">
<rect x="124.036" y="280.612" width="5.6835" height="5.6835"/>
</g>
<path d="M135.146,254.887h 5.42597" fill="none" stroke="#ff00ff"/>
<path d="M146.255,254.887h 5.42597" fill="none" stroke="#ff00ff"/>
<g stroke="#ff00ff" stroke-width="1" fill="none">
<rect x="140.572" y="252.045" width="5.6835" height="5.6835"/>
</g>
<path d="M151.681,229.804h 5.42597" fill="none" stroke="#ff00ff"/>
<path d="M162.791,229.804h 5.42597" fill="none" stroke="#ff00ff"/>
<g stroke="#ff00ff" stroke-width="1" fill="none">
<rect x="157.107" y="226.962" width="5.6835" height="5.6835"/>
</g>
<path d="M168.217,211.262h 5.42597" fill="none" stroke="#ff00ff"/>
<path d="M179.326,211.262h 5.42597" fill="none" stroke="#ff00ff"/>
<g stroke="#ff00ff" stroke-width="1" fill="none">
<rect x="173.643" y="208.421" width="5.6835" height="5.6835"/>
</g>
<path d="M184.752,197.458h 5.42597" fill="none" stroke="#ff00ff"/>
<path d="M195.861,197.458h 5.42597" fill="none" stroke="#ff00ff"/>
<g stroke="#ff00ff" stroke-width="1" fill="none">
<rect x="190.178" y="194.616" width="5.6835" height="5.6835"/>
</g>
<path d="M201.287,186.924h 5.42597" fill="none" stroke="#ff00ff"/>
<path d="M212.397,186.924h 5.42597" fill="none" stroke="#ff00ff"/>
<g stroke="#ff00ff" stroke-width="1" fill="none">
<rect x="206.713" y="184.082" width="5.6835" height="5.6835"/>
</g>
<path d="M217.823,182.734h 5.42597" fill="none" stroke="#ff00ff"/>
<path d="M228.932,182.734h 5.42597" fill="none" stroke="#ff00ff"/>
<g stroke="#ff00ff" stroke-width="1" fill="none">
<rect x="223.249" y="179.892" width="5.6835" height="5.6835"/>
</g>
<path d="M234.358,186.373h 5.42597" fill="none" stroke="#ff00ff"/>
<path d="M245.468,186.373h 5.42597" fill="none" stroke="#ff00ff"/>
<g stroke="#ff00ff" stroke-width="1" fill="none">
<rect x="239.784" y="183.531" width="5.6835" height="5.6835"/>
</g>
<path d="M250.894,196.656h 5.42597" fill="none" stroke="#ff00ff"/>
<path d="M262.003,196.656h 5.42597" fill="none" stroke="#ff00ff"/>
<g stroke="#ff00ff" stroke-width="1" fill="none">
<rect x="256.32" y="193.814" width="5.6835" height="5.6835"/>
</g>
<path d="M267.429,210.586h 5.42597" fill="none" stroke="#ff00ff"/>
<path d="M278.539,210.586h 5.42597" fill="none" stroke="#ff00ff"/>
<g stroke="#ff00ff" stroke-width="1" fill="none">
<rect x="272.855" y="207.744" width="5.6835" height="5.6835"/>
</g>
<path d="M283.965,217.276h 5.42597" fill="none" stroke="#ff00ff"/>
<path d="M295.074,217.276h 5.42597" fill="none" stroke="#ff00ff"/>
<g stroke="#ff00ff" stroke-width="1" fill="none">
<rect x="289.391" y="214.434" width="5.6835" height="5.6835"/>
</g>
<path d="M300.5,223.688h 5.42597" fill="none" stroke="#ff00ff"/>
<path d="M311.609,223.688h 5.42597" fill="none" stroke="#ff00ff"/>
<g stroke="#ff00ff" stroke-width="1" fill="none">
<rect x="305.926" y="220.846" width="5.6835" height="5.6835"/>
</g>
<path d="M317.035,233.485h 5.42597" fill="none" stroke="#ff00ff"/>
<path d="M328.145,233.485h 5.42597" fill="none" stroke="#ff00ff"/>
<g stroke="#ff00ff" stroke-width="1" fill="none">
<rect x="322.461" y="230.643" width="5.6835" height="5.6835"/>
</g>
<path d="M333.571,246.507h 5.42597" fill="none" stroke="#ff00ff"/>
<path d="M344.68,246.507h 5.42597" fill="none" stroke="#ff00ff"/>
<g stroke="#ff00ff" stroke-width="1" fill="none">
<rect x="338.997" y="243.665" width="5.6835" height="5.6835"/>
</g>
<path d="M350.106,265.542h 5.42597" fill="none" stroke="#ff00ff"/>
<path d="M361.216,265.542h 5.42597" fill="none" stroke="#ff00ff"/>
<g stroke="#ff00ff" stroke-width="1" fill="none">
<rect x="355.532" y="262.701" width="5.6835" height="5.6835"/>
</g>
<path d="M366.642,287.841h 5.42597" fill="none" stroke="#ff00ff"/>
<path d="M377.751,287.841h 5.42597" fill="none" stroke="#ff00ff"/>
<g stroke="#ff00ff" stroke-width="1" fill="none">
<rect x="372.068" y="284.999" width="5.6835" height="5.6835"/>
</g>
<path d="M383.177,310.975h 5.42597" fill="none" stroke="#ff00ff"/>
<path d="M394.287,310.975h 5.42597" fill="none" stroke="#ff00ff"/>
<g stroke="#ff00ff" stroke-width="1" fill="none">
<rect x="388.603" y="308.134" width="5.6835" height="5.6835"/>
</g>
<path d="M399.713,330.11h 5.42597" fill="none" stroke="#ff00ff"/>
<path d="M410.822,330.11h 5.42597" fill="none" stroke="#ff00ff"/>
<g stroke="#ff00ff" stroke-width="1" fill="none">
<rect x="405.139" y="327.268" width="5.6835" height="5.6835"/>
</g>
<path d="M416.248,344.26h 5.42597" fill="none" stroke="#ff00ff"/>
<path d="M427.358,344.26h 5.42597" fill="none" stroke="#ff00ff"/>
<g stroke="#ff00ff" stroke-width="1" fill="none">
<rect x="421.674" y="341.418" width="5.6835" height="5.6835"/>
</g>
<path d="M432.783,352.385h 5.42597" fill="none" stroke="#ff00ff"/>
<path d="M443.893,352.385h 5.42597" fill="none" stroke="#ff00ff"/>
<g stroke="#ff00ff" stroke-width="1" fill="none">
<rect x="438.209" y="349.544" width="5.6835" height="5.6835"/>
</g>
<text xml:space="preserve" x="231.392" y="45.468" fill="black" font-size="11.7432" font-family="Helvetica">PYTHIA8, option3</text>
<text xml:space="preserve" x="231.392" y="72.4646" fill="black" font-size="11.7432" font-family="Helvetica">p+Au, 200 GeV</text>
<text xml:space="preserve" x="310.961" y="99.4613" fill="black" font-size="11.7432" font-family="Helvetica">1</text>
<text xml:space="preserve" x="307.409" y="99.4613" fill="black" font-size="11.7432" font-family="Times">&#0060;</text>
<text xml:space="preserve" x="305.278" y="99.4613" fill="black" font-size="11.7432" font-family="Helvetica">|</text>
<text xml:space="preserve" x="298.884" y="99.4613" fill="black" font-size="11.7432" font-family="Times">&#0951;</text>
<text xml:space="preserve" x="231.392" y="99.4613" fill="black" font-size="11.7432" font-family="Helvetica">mid-rapidity: |</text>
<text xml:space="preserve" x="389.109" y="127.168" fill="black" font-size="11.7432" font-family="Helvetica"> in mid-rapidity</text>
<text xml:space="preserve" x="380.584" y="122.195" fill="black" font-size="7.99544" font-family="Helvetica">dir</text>
<text xml:space="preserve" x="374.901" y="127.168" fill="black" font-size="11.7432" font-family="Times">&#0947;</text>
<text xml:space="preserve" x="280.412" y="127.168" fill="black" font-size="11.7432" font-family="Helvetica"> in event including </text>
<text xml:space="preserve" x="276.15" y="122.906" fill="black" font-size="7.99544" font-family="Helvetica">0</text>
<text xml:space="preserve" x="269.756" y="127.168" fill="black" font-size="11.7432" font-family="Times">&#0960;</text>
<g stroke="#ff00ff" stroke-width="1" fill="none">
<rect x="245.69" y="120.117" width="5.6835" height="5.6835"/>
</g>
<text xml:space="preserve" x="385.557" y="153.455" fill="black" font-size="11.7432" font-family="Helvetica"> in mid-rapidity</text>
<text xml:space="preserve" x="381.294" y="149.192" fill="black" font-size="7.99544" font-family="Helvetica">0</text>
<text xml:space="preserve" x="374.901" y="153.455" fill="black" font-size="11.7432" font-family="Times">&#0960;</text>
<text xml:space="preserve" x="280.412" y="153.455" fill="black" font-size="11.7432" font-family="Helvetica"> in event including </text>
<text xml:space="preserve" x="276.15" y="149.192" fill="black" font-size="7.99544" font-family="Helvetica">0</text>
<text xml:space="preserve" x="269.756" y="153.455" fill="black" font-size="11.7432" font-family="Times">&#0960;</text>
<g fill="#5954d8">
<polygon points=" 247.584, 148.973 247.584, 147.078 249.479, 147.078 249.479, 148.973 251.373, 148.973 251.373, 150.867 249.479, 150.867 249.479, 152.762 247.584, 152.762 247.584, 150.867 245.69, 150.867 245.69, 148.973"/>
</g></svg>
