<?xml version="1.0" standalone="no"?>
<svg width="567.429" height="409.002" viewBox="0 0 567.429 409.002" xmlns="http://www.w3.org/2000/svg" shape-rendering="crispEdges">
<title>
/Users/jinhyunpark/npl/gitHub/xloadFromServer/Git_Bias_correction_RxA/plots_dirAdded/dNdeta_charge_inTargetEvents.svg
</title>
<desc>
Creator: ROOT Version 6.28/04
CreationDate: Thu Aug 31 08:38:30 2023</desc>
<defs>
</defs>
<rect x="0.5" y="0" width="566.929" height="408.502" fill="white"/>
<rect x="85.5394" y="20.4251" width="396.85" height="339.056" fill="white"/>
<rect x="85.5394" y="20.4251" width="396.85" height="339.056" fill="none" stroke="black"/>
<rect x="85.5394" y="20.4251" width="396.85" height="339.056" fill="white"/>
<rect x="85.5394" y="20.4251" width="396.85" height="339.056" fill="none" stroke="black"/>
<path d="M85.5394,359.481h 396.85" fill="none" stroke="black"/>
<path d="M85.5394,350.903v 8.57853" fill="none" stroke="black"/>
<path d="M102.075,355.192v 4.28927" fill="none" stroke="black"/>
<path d="M118.61,355.192v 4.28927" fill="none" stroke="black"/>
<path d="M135.146,355.192v 4.28927" fill="none" stroke="black"/>
<path d="M151.681,350.903v 8.57853" fill="none" stroke="black"/>
<path d="M168.217,355.192v 4.28927" fill="none" stroke="black"/>
<path d="M184.752,355.192v 4.28927" fill="none" stroke="black"/>
<path d="M201.287,355.192v 4.28927" fill="none" stroke="black"/>
<path d="M217.823,350.903v 8.57853" fill="none" stroke="black"/>
<path d="M234.358,355.192v 4.28927" fill="none" stroke="black"/>
<path d="M250.894,355.192v 4.28927" fill="none" stroke="black"/>
<path d="M267.429,355.192v 4.28927" fill="none" stroke="black"/>
<path d="M283.965,350.903v 8.57853" fill="none" stroke="black"/>
<path d="M300.5,355.192v 4.28927" fill="none" stroke="black"/>
<path d="M317.035,355.192v 4.28927" fill="none" stroke="black"/>
<path d="M333.571,355.192v 4.28927" fill="none" stroke="black"/>
<path d="M350.106,350.903v 8.57853" fill="none" stroke="black"/>
<path d="M366.642,355.192v 4.28927" fill="none" stroke="black"/>
<path d="M383.177,355.192v 4.28927" fill="none" stroke="black"/>
<path d="M399.713,355.192v 4.28927" fill="none" stroke="black"/>
<path d="M416.248,350.903v 8.57853" fill="none" stroke="black"/>
<path d="M432.783,355.192v 4.28927" fill="none" stroke="black"/>
<path d="M449.319,355.192v 4.28927" fill="none" stroke="black"/>
<path d="M465.854,355.192v 4.28927" fill="none" stroke="black"/>
<path d="M482.39,350.903v 8.57853" fill="none" stroke="black"/>
<text xml:space="preserve" x="85.0421" y="372.269" fill="black" font-size="13.617" font-family="Helvetica">6</text>
<text xml:space="preserve" x="77.2272" y="372.269" fill="black" font-size="13.617" font-family="Times">&#8722;</text>
<text xml:space="preserve" x="151.113" y="372.269" fill="black" font-size="13.617" font-family="Helvetica">4</text>
<text xml:space="preserve" x="143.298" y="372.269" fill="black" font-size="13.617" font-family="Times">&#8722;</text>
<text xml:space="preserve" x="217.183" y="372.269" fill="black" font-size="13.617" font-family="Helvetica">2</text>
<text xml:space="preserve" x="209.369" y="372.269" fill="black" font-size="13.617" font-family="Times">&#8722;</text>
<text xml:space="preserve" x="280.412" y="372.269" fill="black" font-size="13.617" font-family="Helvetica">0</text>
<text xml:space="preserve" x="346.483" y="372.269" fill="black" font-size="13.617" font-family="Helvetica">2</text>
<text xml:space="preserve" x="412.554" y="372.269" fill="black" font-size="13.617" font-family="Helvetica">4</text>
<text xml:space="preserve" x="478.624" y="372.269" fill="black" font-size="13.617" font-family="Helvetica">6</text>
<text xml:space="preserve" x="474.362" y="384.347" fill="black" font-size="13.617" font-family="Times">&#0951;</text>
<path d="M85.5394,20.4251h 396.85" fill="none" stroke="black"/>
<path d="M85.5394,29.0036v -8.57853" fill="none" stroke="black"/>
<path d="M102.075,24.7143v -4.28927" fill="none" stroke="black"/>
<path d="M118.61,24.7143v -4.28927" fill="none" stroke="black"/>
<path d="M135.146,24.7143v -4.28927" fill="none" stroke="black"/>
<path d="M151.681,29.0036v -8.57853" fill="none" stroke="black"/>
<path d="M168.217,24.7143v -4.28927" fill="none" stroke="black"/>
<path d="M184.752,24.7143v -4.28927" fill="none" stroke="black"/>
<path d="M201.287,24.7143v -4.28927" fill="none" stroke="black"/>
<path d="M217.823,29.0036v -8.57853" fill="none" stroke="black"/>
<path d="M234.358,24.7143v -4.28927" fill="none" stroke="black"/>
<path d="M250.894,24.7143v -4.28927" fill="none" stroke="black"/>
<path d="M267.429,24.7143v -4.28927" fill="none" stroke="black"/>
<path d="M283.965,29.0036v -8.57853" fill="none" stroke="black"/>
<path d="M300.5,24.7143v -4.28927" fill="none" stroke="black"/>
<path d="M317.035,24.7143v -4.28927" fill="none" stroke="black"/>
<path d="M333.571,24.7143v -4.28927" fill="none" stroke="black"/>
<path d="M350.106,29.0036v -8.57853" fill="none" stroke="black"/>
<path d="M366.642,24.7143v -4.28927" fill="none" stroke="black"/>
<path d="M383.177,24.7143v -4.28927" fill="none" stroke="black"/>
<path d="M399.713,24.7143v -4.28927" fill="none" stroke="black"/>
<path d="M416.248,29.0036v -8.57853" fill="none" stroke="black"/>
<path d="M432.783,24.7143v -4.28927" fill="none" stroke="black"/>
<path d="M449.319,24.7143v -4.28927" fill="none" stroke="black"/>
<path d="M465.854,24.7143v -4.28927" fill="none" stroke="black"/>
<path d="M482.39,29.0036v -8.57853" fill="none" stroke="black"/>
<path d="M85.5394,359.481v -339.056" fill="none" stroke="black"/>
<path d="M99.6559,359.481h -14.1165" fill="none" stroke="black"/>
<path d="M92.5976,345.354h -7.05827" fill="none" stroke="black"/>
<path d="M92.5976,331.227h -7.05827" fill="none" stroke="black"/>
<path d="M92.5976,317.099h -7.05827" fill="none" stroke="black"/>
<path d="M99.6559,302.972h -14.1165" fill="none" stroke="black"/>
<path d="M92.5976,288.845h -7.05827" fill="none" stroke="black"/>
<path d="M92.5976,274.717h -7.05827" fill="none" stroke="black"/>
<path d="M92.5976,260.59h -7.05827" fill="none" stroke="black"/>
<path d="M99.6559,246.463h -14.1165" fill="none" stroke="black"/>
<path d="M92.5976,232.335h -7.05827" fill="none" stroke="black"/>
<path d="M92.5976,218.208h -7.05827" fill="none" stroke="black"/>
<path d="M92.5976,204.081h -7.05827" fill="none" stroke="black"/>
<path d="M99.6559,189.953h -14.1165" fill="none" stroke="black"/>
<path d="M92.5976,175.826h -7.05827" fill="none" stroke="black"/>
<path d="M92.5976,161.699h -7.05827" fill="none" stroke="black"/>
<path d="M92.5976,147.571h -7.05827" fill="none" stroke="black"/>
<path d="M99.6559,133.444h -14.1165" fill="none" stroke="black"/>
<path d="M92.5976,119.317h -7.05827" fill="none" stroke="black"/>
<path d="M92.5976,105.189h -7.05827" fill="none" stroke="black"/>
<path d="M92.5976,91.0618h -7.05827" fill="none" stroke="black"/>
<path d="M99.6559,76.9345h -14.1165" fill="none" stroke="black"/>
<path d="M92.5976,62.8071h -7.05827" fill="none" stroke="black"/>
<path d="M92.5976,48.6798h -7.05827" fill="none" stroke="black"/>
<path d="M92.5976,34.5524h -7.05827" fill="none" stroke="black"/>
<path d="M99.6559,20.4251h -14.1165" fill="none" stroke="black"/>
<text xml:space="preserve" x="75.0959" y="364.454" fill="black" font-size="13.617" font-family="Helvetica">0</text>
<text xml:space="preserve" x="75.0959" y="308.33" fill="black" font-size="13.617" font-family="Helvetica">2</text>
<text xml:space="preserve" x="75.0959" y="251.495" fill="black" font-size="13.617" font-family="Helvetica">4</text>
<text xml:space="preserve" x="75.0959" y="194.66" fill="black" font-size="13.617" font-family="Helvetica">6</text>
<text xml:space="preserve" x="75.0959" y="137.825" fill="black" font-size="13.617" font-family="Helvetica">8</text>
<text xml:space="preserve" x="67.2811" y="81.7003" fill="black" font-size="13.617" font-family="Helvetica">10</text>
<text xml:space="preserve" x="67.2811" y="25.5758" fill="black" font-size="13.617" font-family="Helvetica">12</text>
<g transform="rotate(-90,53.7828,27.7071)">
<text xml:space="preserve" x="53.7828" y="27.7071" fill="black" font-size="13.617" font-family="Times">&#0951;</text>
</g>
<g transform="rotate(-90,53.7828,59.6768)">
<text xml:space="preserve" x="53.7828" y="59.6768" fill="black" font-size="13.617" font-family="Helvetica"> dN/d</text>
</g>
<g transform="rotate(-90,58.0454,82.4108)">
<text xml:space="preserve" x="58.0454" y="82.4108" fill="black" font-size="9.24468" font-family="Helvetica">event</text>
</g>
<g transform="rotate(-90,53.7828,103.013)">
<text xml:space="preserve" x="53.7828" y="103.013" fill="black" font-size="13.617" font-family="Helvetica">1/N</text>
</g>
<path d="M482.39,359.481v -339.056" fill="none" stroke="black"/>
<path d="M468.273,359.481h 14.1165" fill="none" stroke="black"/>
<path d="M475.332,345.354h 7.05827" fill="none" stroke="black"/>
<path d="M475.332,331.227h 7.05827" fill="none" stroke="black"/>
<path d="M475.332,317.099h 7.05827" fill="none" stroke="black"/>
<path d="M468.273,302.972h 14.1165" fill="none" stroke="black"/>
<path d="M475.332,288.845h 7.05827" fill="none" stroke="black"/>
<path d="M475.332,274.717h 7.05827" fill="none" stroke="black"/>
<path d="M475.332,260.59h 7.05827" fill="none" stroke="black"/>
<path d="M468.273,246.463h 14.1165" fill="none" stroke="black"/>
<path d="M475.332,232.335h 7.05827" fill="none" stroke="black"/>
<path d="M475.332,218.208h 7.05827" fill="none" stroke="black"/>
<path d="M475.332,204.081h 7.05827" fill="none" stroke="black"/>
<path d="M468.273,189.953h 14.1165" fill="none" stroke="black"/>
<path d="M475.332,175.826h 7.05827" fill="none" stroke="black"/>
<path d="M475.332,161.699h 7.05827" fill="none" stroke="black"/>
<path d="M475.332,147.571h 7.05827" fill="none" stroke="black"/>
<path d="M468.273,133.444h 14.1165" fill="none" stroke="black"/>
<path d="M475.332,119.317h 7.05827" fill="none" stroke="black"/>
<path d="M475.332,105.189h 7.05827" fill="none" stroke="black"/>
<path d="M475.332,91.0618h 7.05827" fill="none" stroke="black"/>
<path d="M468.273,76.9345h 14.1165" fill="none" stroke="black"/>
<path d="M475.332,62.8071h 7.05827" fill="none" stroke="black"/>
<path d="M475.332,48.6798h 7.05827" fill="none" stroke="black"/>
<path d="M475.332,34.5524h 7.05827" fill="none" stroke="black"/>
<path d="M468.273,20.4251h 14.1165" fill="none" stroke="black"/>
<path d="M118.61,295.461h 5.42597" fill="none" stroke="#5954d8"/>
<path d="M129.72,295.461h 5.42597" fill="none" stroke="#5954d8"/>
<g fill="#5954d8">
<polygon points=" 125.931, 294.514 125.931, 292.619 127.825, 292.619 127.825, 294.514 129.72, 294.514 129.72, 296.408 127.825, 296.408 127.825, 298.303 125.931, 298.303 125.931, 296.408 124.036, 296.408 124.036, 294.514"/>
</g>
<path d="M135.146,276.929h 5.42597" fill="none" stroke="#5954d8"/>
<path d="M146.255,276.929h 5.42597" fill="none" stroke="#5954d8"/>
<g fill="#5954d8">
<polygon points=" 142.466, 275.982 142.466, 274.087 144.361, 274.087 144.361, 275.982 146.255, 275.982 146.255, 277.876 144.361, 277.876 144.361, 279.771 142.466, 279.771 142.466, 277.876 140.572, 277.876 140.572, 275.982"/>
</g>
<path d="M151.681,263.543h 5.42597" fill="none" stroke="#5954d8"/>
<path d="M162.791,263.543h 5.42597" fill="none" stroke="#5954d8"/>
<g fill="#5954d8">
<polygon points=" 159.002, 262.596 159.002, 260.701 160.896, 260.701 160.896, 262.596 162.791, 262.596 162.791, 264.49 160.896, 264.49 160.896, 266.385 159.002, 266.385 159.002, 264.49 157.107, 264.49 157.107, 262.596"/>
</g>
<path d="M168.217,253.445h 5.42597" fill="none" stroke="#5954d8"/>
<path d="M179.326,253.445h 5.42597" fill="none" stroke="#5954d8"/>
<g fill="#5954d8">
<polygon points=" 175.537, 252.498 175.537, 250.603 177.432, 250.603 177.432, 252.498 179.326, 252.498 179.326, 254.392 177.432, 254.392 177.432, 256.287 175.537, 256.287 175.537, 254.392 173.643, 254.392 173.643, 252.498"/>
</g>
<path d="M184.752,246.439h 5.42597" fill="none" stroke="#5954d8"/>
<path d="M195.861,246.439h 5.42597" fill="none" stroke="#5954d8"/>
<g fill="#5954d8">
<polygon points=" 192.072, 245.492 192.072, 243.597 193.967, 243.597 193.967, 245.492 195.861, 245.492 195.861, 247.386 193.967, 247.386 193.967, 249.281 192.072, 249.281 192.072, 247.386 190.178, 247.386 190.178, 245.492"/>
</g>
<path d="M201.287,243.386h 5.42597" fill="none" stroke="#5954d8"/>
<path d="M212.397,243.386h 5.42597" fill="none" stroke="#5954d8"/>
<g fill="#5954d8">
<polygon points=" 208.608, 242.439 208.608, 240.544 210.502, 240.544 210.502, 242.439 212.397, 242.439 212.397, 244.333 210.502, 244.333 210.502, 246.228 208.608, 246.228 208.608, 244.333 206.713, 244.333 206.713, 242.439"/>
</g>
<path d="M217.823,244.692h 5.42597" fill="none" stroke="#5954d8"/>
<path d="M228.932,244.692h 5.42597" fill="none" stroke="#5954d8"/>
<g fill="#5954d8">
<polygon points=" 225.143, 243.745 225.143, 241.85 227.038, 241.85 227.038, 243.745 228.932, 243.745 228.932, 245.639 227.038, 245.639 227.038, 247.534 225.143, 247.534 225.143, 245.639 223.249, 245.639 223.249, 243.745"/>
</g>
<path d="M234.358,250.158h 5.42597" fill="none" stroke="#5954d8"/>
<path d="M245.468,250.158h 5.42597" fill="none" stroke="#5954d8"/>
<g fill="#5954d8">
<polygon points=" 241.679, 249.21 241.679, 247.316 243.573, 247.316 243.573, 249.21 245.468, 249.21 245.468, 251.105 243.573, 251.105 243.573, 252.999 241.679, 252.999 241.679, 251.105 239.784, 251.105 239.784, 249.21"/>
</g>
<path d="M250.894,258.492h 5.42597" fill="none" stroke="#5954d8"/>
<path d="M262.003,258.492h 5.42597" fill="none" stroke="#5954d8"/>
<g fill="#5954d8">
<polygon points=" 258.214, 257.544 258.214, 255.65 260.109, 255.65 260.109, 257.544 262.003, 257.544 262.003, 259.439 260.109, 259.439 260.109, 261.333 258.214, 261.333 258.214, 259.439 256.32, 259.439 256.32, 257.544"/>
</g>
<path d="M267.429,266.767h 5.42597" fill="none" stroke="#5954d8"/>
<path d="M278.539,266.767h 5.42597" fill="none" stroke="#5954d8"/>
<g fill="#5954d8">
<polygon points=" 274.75, 265.82 274.75, 263.926 276.644, 263.926 276.644, 265.82 278.539, 265.82 278.539, 267.715 276.644, 267.715 276.644, 269.609 274.75, 269.609 274.75, 267.715 272.855, 267.715 272.855, 265.82"/>
</g>
<path d="M283.965,272.105h 5.42597" fill="none" stroke="#5954d8"/>
<path d="M295.074,272.105h 5.42597" fill="none" stroke="#5954d8"/>
<g fill="#5954d8">
<polygon points=" 291.285, 271.158 291.285, 269.264 293.18, 269.264 293.18, 271.158 295.074, 271.158 295.074, 273.053 293.18, 273.053 293.18, 274.947 291.285, 274.947 291.285, 273.053 289.391, 273.053 289.391, 271.158"/>
</g>
<path d="M300.5,275.202h 5.42597" fill="none" stroke="#5954d8"/>
<path d="M311.609,275.202h 5.42597" fill="none" stroke="#5954d8"/>
<g fill="#5954d8">
<polygon points=" 307.82, 274.255 307.82, 272.361 309.715, 272.361 309.715, 274.255 311.609, 274.255 311.609, 276.15 309.715, 276.15 309.715, 278.044 307.82, 278.044 307.82, 276.15 305.926, 276.15 305.926, 274.255"/>
</g>
<path d="M317.035,279.183h 5.42597" fill="none" stroke="#5954d8"/>
<path d="M328.145,279.183h 5.42597" fill="none" stroke="#5954d8"/>
<g fill="#5954d8">
<polygon points=" 324.356, 278.235 324.356, 276.341 326.25, 276.341 326.25, 278.235 328.145, 278.235 328.145, 280.13 326.25, 280.13 326.25, 282.024 324.356, 282.024 324.356, 280.13 322.461, 280.13 322.461, 278.235"/>
</g>
<path d="M333.571,286.025h 5.42597" fill="none" stroke="#5954d8"/>
<path d="M344.68,286.025h 5.42597" fill="none" stroke="#5954d8"/>
<g fill="#5954d8">
<polygon points=" 340.891, 285.078 340.891, 283.183 342.786, 283.183 342.786, 285.078 344.68, 285.078 344.68, 286.972 342.786, 286.972 342.786, 288.867 340.891, 288.867 340.891, 286.972 338.997, 286.972 338.997, 285.078"/>
</g>
<path d="M350.106,295.815h 5.42597" fill="none" stroke="#5954d8"/>
<path d="M361.216,295.815h 5.42597" fill="none" stroke="#5954d8"/>
<g fill="#5954d8">
<polygon points=" 357.427, 294.867 357.427, 292.973 359.321, 292.973 359.321, 294.867 361.216, 294.867 361.216, 296.762 359.321, 296.762 359.321, 298.656 357.427, 298.656 357.427, 296.762 355.532, 296.762 355.532, 294.867"/>
</g>
<path d="M366.642,307.651h 5.42597" fill="none" stroke="#5954d8"/>
<path d="M377.751,307.651h 5.42597" fill="none" stroke="#5954d8"/>
<g fill="#5954d8">
<polygon points=" 373.962, 306.704 373.962, 304.81 375.857, 304.81 375.857, 306.704 377.751, 306.704 377.751, 308.599 375.857, 308.599 375.857, 310.493 373.962, 310.493 373.962, 308.599 372.068, 308.599 372.068, 306.704"/>
</g>
<path d="M383.177,320.138h 5.42597" fill="none" stroke="#5954d8"/>
<path d="M394.287,320.138h 5.42597" fill="none" stroke="#5954d8"/>
<g fill="#5954d8">
<polygon points=" 390.498, 319.191 390.498, 317.297 392.392, 317.297 392.392, 319.191 394.287, 319.191 394.287, 321.086 392.392, 321.086 392.392, 322.98 390.498, 322.98 390.498, 321.086 388.603, 321.086 388.603, 319.191"/>
</g>
<path d="M399.713,331.68h 5.42597" fill="none" stroke="#5954d8"/>
<path d="M410.822,331.68h 5.42597" fill="none" stroke="#5954d8"/>
<g fill="#5954d8">
<polygon points=" 407.033, 330.733 407.033, 328.838 408.928, 328.838 408.928, 330.733 410.822, 330.733 410.822, 332.627 408.928, 332.627 408.928, 334.522 407.033, 334.522 407.033, 332.627 405.139, 332.627 405.139, 330.733"/>
</g>
<path d="M416.248,341.502h 5.42597" fill="none" stroke="#5954d8"/>
<path d="M427.358,341.502h 5.42597" fill="none" stroke="#5954d8"/>
<g fill="#5954d8">
<polygon points=" 423.569, 340.555 423.569, 338.66 425.463, 338.66 425.463, 340.555 427.358, 340.555 427.358, 342.449 425.463, 342.449 425.463, 344.344 423.569, 344.344 423.569, 342.449 421.674, 342.449 421.674, 340.555"/>
</g>
<path d="M432.783,349.297h 5.42597" fill="none" stroke="#5954d8"/>
<path d="M443.893,349.297h 5.42597" fill="none" stroke="#5954d8"/>
<g fill="#5954d8">
<polygon points=" 440.104, 348.349 440.104, 346.455 441.998, 346.455 441.998, 348.349 443.893, 348.349 443.893, 350.244 441.998, 350.244 441.998, 352.138 440.104, 352.138 440.104, 350.244 438.209, 350.244 438.209, 348.349"/>
</g>
<path d="M449.319,359.481h 5.42597" fill="none" stroke="#5954d8"/>
<path d="M460.428,359.481h 5.42597" fill="none" stroke="#5954d8"/>
<g fill="#5954d8">
<polygon points=" 456.639, 358.534 456.639, 356.64 458.534, 356.64 458.534, 358.534 460.428, 358.534 460.428, 360.429 458.534, 360.429 458.534, 362.323 456.639, 362.323 456.639, 360.429 454.745, 360.429 454.745, 358.534"/>
</g>
<path d="M118.61,285.794h 5.42597" fill="none" stroke="#ff00ff"/>
<path d="M129.72,285.794h 5.42597" fill="none" stroke="#ff00ff"/>
<g stroke="#ff00ff" stroke-width="1" fill="none">
<rect x="124.036" y="282.952" width="5.6835" height="5.6835"/>
</g>
<path d="M135.146,264.13h 5.42597" fill="none" stroke="#ff00ff"/>
<path d="M146.255,264.13h 5.42597" fill="none" stroke="#ff00ff"/>
<g stroke="#ff00ff" stroke-width="1" fill="none">
<rect x="140.572" y="261.288" width="5.6835" height="5.6835"/>
</g>
<path d="M151.681,247.072h 5.42597" fill="none" stroke="#ff00ff"/>
<path d="M162.791,247.072h 5.42597" fill="none" stroke="#ff00ff"/>
<g stroke="#ff00ff" stroke-width="1" fill="none">
<rect x="157.107" y="244.23" width="5.6835" height="5.6835"/>
</g>
<path d="M168.217,232.868h 5.42597" fill="none" stroke="#ff00ff"/>
<path d="M179.326,232.868h 5.42597" fill="none" stroke="#ff00ff"/>
<g stroke="#ff00ff" stroke-width="1" fill="none">
<rect x="173.643" y="230.026" width="5.6835" height="5.6835"/>
</g>
<path d="M184.752,221.701h 5.42597" fill="none" stroke="#ff00ff"/>
<path d="M195.861,221.701h 5.42597" fill="none" stroke="#ff00ff"/>
<g stroke="#ff00ff" stroke-width="1" fill="none">
<rect x="190.178" y="218.859" width="5.6835" height="5.6835"/>
</g>
<path d="M201.287,213.547h 5.42597" fill="none" stroke="#ff00ff"/>
<path d="M212.397,213.547h 5.42597" fill="none" stroke="#ff00ff"/>
<g stroke="#ff00ff" stroke-width="1" fill="none">
<rect x="206.713" y="210.705" width="5.6835" height="5.6835"/>
</g>
<path d="M217.823,211.853h 5.42597" fill="none" stroke="#ff00ff"/>
<path d="M228.932,211.853h 5.42597" fill="none" stroke="#ff00ff"/>
<g stroke="#ff00ff" stroke-width="1" fill="none">
<rect x="223.249" y="209.011" width="5.6835" height="5.6835"/>
</g>
<path d="M234.358,216.825h 5.42597" fill="none" stroke="#ff00ff"/>
<path d="M245.468,216.825h 5.42597" fill="none" stroke="#ff00ff"/>
<g stroke="#ff00ff" stroke-width="1" fill="none">
<rect x="239.784" y="213.983" width="5.6835" height="5.6835"/>
</g>
<path d="M250.894,225.346h 5.42597" fill="none" stroke="#ff00ff"/>
<path d="M262.003,225.346h 5.42597" fill="none" stroke="#ff00ff"/>
<g stroke="#ff00ff" stroke-width="1" fill="none">
<rect x="256.32" y="222.505" width="5.6835" height="5.6835"/>
</g>
<path d="M267.429,235.35h 5.42597" fill="none" stroke="#ff00ff"/>
<path d="M278.539,235.35h 5.42597" fill="none" stroke="#ff00ff"/>
<g stroke="#ff00ff" stroke-width="1" fill="none">
<rect x="272.855" y="232.508" width="5.6835" height="5.6835"/>
</g>
<path d="M283.965,242.866h 5.42597" fill="none" stroke="#ff00ff"/>
<path d="M295.074,242.866h 5.42597" fill="none" stroke="#ff00ff"/>
<g stroke="#ff00ff" stroke-width="1" fill="none">
<rect x="289.391" y="240.025" width="5.6835" height="5.6835"/>
</g>
<path d="M300.5,246.85h 5.42597" fill="none" stroke="#ff00ff"/>
<path d="M311.609,246.85h 5.42597" fill="none" stroke="#ff00ff"/>
<g stroke="#ff00ff" stroke-width="1" fill="none">
<rect x="305.926" y="244.009" width="5.6835" height="5.6835"/>
</g>
<path d="M317.035,253.201h 5.42597" fill="none" stroke="#ff00ff"/>
<path d="M328.145,253.201h 5.42597" fill="none" stroke="#ff00ff"/>
<g stroke="#ff00ff" stroke-width="1" fill="none">
<rect x="322.461" y="250.359" width="5.6835" height="5.6835"/>
</g>
<path d="M333.571,264.195h 5.42597" fill="none" stroke="#ff00ff"/>
<path d="M344.68,264.195h 5.42597" fill="none" stroke="#ff00ff"/>
<g stroke="#ff00ff" stroke-width="1" fill="none">
<rect x="338.997" y="261.353" width="5.6835" height="5.6835"/>
</g>
<path d="M350.106,279.613h 5.42597" fill="none" stroke="#ff00ff"/>
<path d="M361.216,279.613h 5.42597" fill="none" stroke="#ff00ff"/>
<g stroke="#ff00ff" stroke-width="1" fill="none">
<rect x="355.532" y="276.771" width="5.6835" height="5.6835"/>
</g>
<path d="M366.642,297.649h 5.42597" fill="none" stroke="#ff00ff"/>
<path d="M377.751,297.649h 5.42597" fill="none" stroke="#ff00ff"/>
<g stroke="#ff00ff" stroke-width="1" fill="none">
<rect x="372.068" y="294.807" width="5.6835" height="5.6835"/>
</g>
<path d="M383.177,316.35h 5.42597" fill="none" stroke="#ff00ff"/>
<path d="M394.287,316.35h 5.42597" fill="none" stroke="#ff00ff"/>
<g stroke="#ff00ff" stroke-width="1" fill="none">
<rect x="388.603" y="313.508" width="5.6835" height="5.6835"/>
</g>
<path d="M399.713,331.953h 5.42597" fill="none" stroke="#ff00ff"/>
<path d="M410.822,331.953h 5.42597" fill="none" stroke="#ff00ff"/>
<g stroke="#ff00ff" stroke-width="1" fill="none">
<rect x="405.139" y="329.111" width="5.6835" height="5.6835"/>
</g>
<path d="M416.248,344.225h 5.42597" fill="none" stroke="#ff00ff"/>
<path d="M427.358,344.225h 5.42597" fill="none" stroke="#ff00ff"/>
<g stroke="#ff00ff" stroke-width="1" fill="none">
<rect x="421.674" y="341.383" width="5.6835" height="5.6835"/>
</g>
<path d="M432.783,351.822h 5.42597" fill="none" stroke="#ff00ff"/>
<path d="M443.893,351.822h 5.42597" fill="none" stroke="#ff00ff"/>
<g stroke="#ff00ff" stroke-width="1" fill="none">
<rect x="438.209" y="348.98" width="5.6835" height="5.6835"/>
</g>
<text xml:space="preserve" x="117.722" y="45.468" fill="black" font-size="11.7432" font-family="Helvetica">PYTHIA8, option3</text>
<text xml:space="preserve" x="117.722" y="72.4646" fill="black" font-size="11.7432" font-family="Helvetica">p+Au, 200 GeV</text>
<text xml:space="preserve" x="250.574" y="96.6195" fill="black" font-size="7.99544" font-family="Times">&#0177;</text>
<text xml:space="preserve" x="237.786" y="100.172" fill="black" font-size="11.7432" font-family="Helvetica">, p</text>
<text xml:space="preserve" x="233.523" y="95.1986" fill="black" font-size="7.99544" font-family="Times">&#0177;</text>
<text xml:space="preserve" x="221.446" y="100.172" fill="black" font-size="11.7432" font-family="Helvetica">, k</text>
<text xml:space="preserve" x="217.183" y="96.6195" fill="black" font-size="7.99544" font-family="Times">&#0177;</text>
<text xml:space="preserve" x="210.79" y="100.172" fill="black" font-size="11.7432" font-family="Times">&#0960;</text>
<text xml:space="preserve" x="117.722" y="100.172" fill="black" font-size="11.7432" font-family="Helvetica">charged particles: </text>
<text xml:space="preserve" x="374.901" y="127.168" fill="black" font-size="11.7432" font-family="Helvetica">|&lt;1</text>
<text xml:space="preserve" x="368.507" y="127.168" fill="black" font-size="11.7432" font-family="Times">&#0951;</text>
<text xml:space="preserve" x="351.456" y="127.168" fill="black" font-size="11.7432" font-family="Helvetica"> in |</text>
<text xml:space="preserve" x="342.931" y="122.195" fill="black" font-size="7.99544" font-family="Helvetica">dir</text>
<text xml:space="preserve" x="337.247" y="127.168" fill="black" font-size="11.7432" font-family="Times">&#0947;</text>
<text xml:space="preserve" x="156.086" y="127.168" fill="black" font-size="11.7432" font-family="Helvetica">charged particles in event including </text>
<g stroke="#ff00ff" stroke-width="1" fill="none">
<rect x="132.304" y="120.117" width="5.6835" height="5.6835"/>
</g>
<text xml:space="preserve" x="371.348" y="153.455" fill="black" font-size="11.7432" font-family="Helvetica">|&lt;1</text>
<text xml:space="preserve" x="364.954" y="153.455" fill="black" font-size="11.7432" font-family="Times">&#0951;</text>
<text xml:space="preserve" x="347.904" y="153.455" fill="black" font-size="11.7432" font-family="Helvetica"> in |</text>
<text xml:space="preserve" x="343.641" y="149.192" fill="black" font-size="7.99544" font-family="Helvetica">0</text>
<text xml:space="preserve" x="337.247" y="153.455" fill="black" font-size="11.7432" font-family="Times">&#0960;</text>
<text xml:space="preserve" x="156.086" y="153.455" fill="black" font-size="11.7432" font-family="Helvetica">charged particles in event including </text>
<g fill="#5954d8">
<polygon points=" 134.198, 148.973 134.198, 147.078 136.093, 147.078 136.093, 148.973 137.987, 148.973 137.987, 150.867 136.093, 150.867 136.093, 152.762 134.198, 152.762 134.198, 150.867 132.304, 150.867 132.304, 148.973"/>
</g></svg>
