<?xml version="1.0" standalone="no"?>
<svg width="567.429" height="409.002" viewBox="0 0 567.429 409.002" xmlns="http://www.w3.org/2000/svg" shape-rendering="crispEdges">
<title>
/Users/jinhyunpark/npl/gitHub/Centrality_dependent_BiasCorrection/plots/plots_scaled-dNdpT/dNdpT_highpT_pion0_byCentrality.svg
</title>
<desc>
Creator: ROOT Version 6.28/04
CreationDate: Tue Oct 24 12:25:46 2023</desc>
<defs>
</defs>
<rect x="0.5" y="0" width="566.929" height="408.502" fill="white"/>
<rect x="68.5315" y="20.4251" width="430.866" height="339.056" fill="white"/>
<rect x="68.5315" y="20.4251" width="430.866" height="339.056" fill="none" stroke="black"/>
<rect x="68.5315" y="20.4251" width="430.866" height="339.056" fill="white"/>
<rect x="68.5315" y="20.4251" width="430.866" height="339.056" fill="none" stroke="black"/>
<path d="M68.5315,359.481h 430.866" fill="none" stroke="black"/>
<path d="M68.5315,350.168v 9.31384" fill="none" stroke="black"/>
<path d="M80.5,354.824v 4.65692" fill="none" stroke="black"/>
<path d="M92.4685,354.824v 4.65692" fill="none" stroke="black"/>
<path d="M104.437,354.824v 4.65692" fill="none" stroke="black"/>
<path d="M116.406,350.168v 9.31384" fill="none" stroke="black"/>
<path d="M128.374,354.824v 4.65692" fill="none" stroke="black"/>
<path d="M140.343,354.824v 4.65692" fill="none" stroke="black"/>
<path d="M152.311,354.824v 4.65692" fill="none" stroke="black"/>
<path d="M164.28,350.168v 9.31384" fill="none" stroke="black"/>
<path d="M176.248,354.824v 4.65692" fill="none" stroke="black"/>
<path d="M188.217,354.824v 4.65692" fill="none" stroke="black"/>
<path d="M200.185,354.824v 4.65692" fill="none" stroke="black"/>
<path d="M212.154,350.168v 9.31384" fill="none" stroke="black"/>
<path d="M224.122,354.824v 4.65692" fill="none" stroke="black"/>
<path d="M236.091,354.824v 4.65692" fill="none" stroke="black"/>
<path d="M248.059,354.824v 4.65692" fill="none" stroke="black"/>
<path d="M260.028,350.168v 9.31384" fill="none" stroke="black"/>
<path d="M271.996,354.824v 4.65692" fill="none" stroke="black"/>
<path d="M283.965,354.824v 4.65692" fill="none" stroke="black"/>
<path d="M295.933,354.824v 4.65692" fill="none" stroke="black"/>
<path d="M307.902,350.168v 9.31384" fill="none" stroke="black"/>
<path d="M319.87,354.824v 4.65692" fill="none" stroke="black"/>
<path d="M331.839,354.824v 4.65692" fill="none" stroke="black"/>
<path d="M343.807,354.824v 4.65692" fill="none" stroke="black"/>
<path d="M355.776,350.168v 9.31384" fill="none" stroke="black"/>
<path d="M367.744,354.824v 4.65692" fill="none" stroke="black"/>
<path d="M379.713,354.824v 4.65692" fill="none" stroke="black"/>
<path d="M391.681,354.824v 4.65692" fill="none" stroke="black"/>
<path d="M403.65,350.168v 9.31384" fill="none" stroke="black"/>
<path d="M415.618,354.824v 4.65692" fill="none" stroke="black"/>
<path d="M427.587,354.824v 4.65692" fill="none" stroke="black"/>
<path d="M439.555,354.824v 4.65692" fill="none" stroke="black"/>
<path d="M451.524,350.168v 9.31384" fill="none" stroke="black"/>
<path d="M463.492,354.824v 4.65692" fill="none" stroke="black"/>
<path d="M475.461,354.824v 4.65692" fill="none" stroke="black"/>
<path d="M487.429,354.824v 4.65692" fill="none" stroke="black"/>
<path d="M499.398,350.168v 9.31384" fill="none" stroke="black"/>
<text xml:space="preserve" x="64.4394" y="372.269" fill="black" font-size="13.617" font-family="Helvetica">2</text>
<text xml:space="preserve" x="112.749" y="372.269" fill="black" font-size="13.617" font-family="Helvetica">4</text>
<text xml:space="preserve" x="160.348" y="372.269" fill="black" font-size="13.617" font-family="Helvetica">6</text>
<text xml:space="preserve" x="207.948" y="372.269" fill="black" font-size="13.617" font-family="Helvetica">8</text>
<text xml:space="preserve" x="251.995" y="372.269" fill="black" font-size="13.617" font-family="Helvetica">10</text>
<text xml:space="preserve" x="299.594" y="372.269" fill="black" font-size="13.617" font-family="Helvetica">12</text>
<text xml:space="preserve" x="347.904" y="372.269" fill="black" font-size="13.617" font-family="Helvetica">14</text>
<text xml:space="preserve" x="395.503" y="372.269" fill="black" font-size="13.617" font-family="Helvetica">16</text>
<text xml:space="preserve" x="443.103" y="372.269" fill="black" font-size="13.617" font-family="Helvetica">18</text>
<text xml:space="preserve" x="491.412" y="372.269" fill="black" font-size="13.617" font-family="Helvetica">20</text>
<text xml:space="preserve" x="453.759" y="384.347" fill="black" font-size="13.617" font-family="Helvetica">(GeV/c)</text>
<text xml:space="preserve" x="448.076" y="392.162" fill="black" font-size="9.24468" font-family="Helvetica">T</text>
<text xml:space="preserve" x="440.261" y="384.347" fill="black" font-size="13.617" font-family="Helvetica">p</text>
<path d="M68.5315,20.4251h 430.866" fill="none" stroke="black"/>
<path d="M68.5315,29.7389v -9.31384" fill="none" stroke="black"/>
<path d="M80.5,25.082v -4.65692" fill="none" stroke="black"/>
<path d="M92.4685,25.082v -4.65692" fill="none" stroke="black"/>
<path d="M104.437,25.082v -4.65692" fill="none" stroke="black"/>
<path d="M116.406,29.7389v -9.31384" fill="none" stroke="black"/>
<path d="M128.374,25.082v -4.65692" fill="none" stroke="black"/>
<path d="M140.343,25.082v -4.65692" fill="none" stroke="black"/>
<path d="M152.311,25.082v -4.65692" fill="none" stroke="black"/>
<path d="M164.28,29.7389v -9.31384" fill="none" stroke="black"/>
<path d="M176.248,25.082v -4.65692" fill="none" stroke="black"/>
<path d="M188.217,25.082v -4.65692" fill="none" stroke="black"/>
<path d="M200.185,25.082v -4.65692" fill="none" stroke="black"/>
<path d="M212.154,29.7389v -9.31384" fill="none" stroke="black"/>
<path d="M224.122,25.082v -4.65692" fill="none" stroke="black"/>
<path d="M236.091,25.082v -4.65692" fill="none" stroke="black"/>
<path d="M248.059,25.082v -4.65692" fill="none" stroke="black"/>
<path d="M260.028,29.7389v -9.31384" fill="none" stroke="black"/>
<path d="M271.996,25.082v -4.65692" fill="none" stroke="black"/>
<path d="M283.965,25.082v -4.65692" fill="none" stroke="black"/>
<path d="M295.933,25.082v -4.65692" fill="none" stroke="black"/>
<path d="M307.902,29.7389v -9.31384" fill="none" stroke="black"/>
<path d="M319.87,25.082v -4.65692" fill="none" stroke="black"/>
<path d="M331.839,25.082v -4.65692" fill="none" stroke="black"/>
<path d="M343.807,25.082v -4.65692" fill="none" stroke="black"/>
<path d="M355.776,29.7389v -9.31384" fill="none" stroke="black"/>
<path d="M367.744,25.082v -4.65692" fill="none" stroke="black"/>
<path d="M379.713,25.082v -4.65692" fill="none" stroke="black"/>
<path d="M391.681,25.082v -4.65692" fill="none" stroke="black"/>
<path d="M403.65,29.7389v -9.31384" fill="none" stroke="black"/>
<path d="M415.618,25.082v -4.65692" fill="none" stroke="black"/>
<path d="M427.587,25.082v -4.65692" fill="none" stroke="black"/>
<path d="M439.555,25.082v -4.65692" fill="none" stroke="black"/>
<path d="M451.524,29.7389v -9.31384" fill="none" stroke="black"/>
<path d="M463.492,25.082v -4.65692" fill="none" stroke="black"/>
<path d="M475.461,25.082v -4.65692" fill="none" stroke="black"/>
<path d="M487.429,25.082v -4.65692" fill="none" stroke="black"/>
<path d="M499.398,29.7389v -9.31384" fill="none" stroke="black"/>
<path d="M68.5315,359.481v -339.056" fill="none" stroke="black"/>
<path d="M75.5898,359.481h -7.05827" fill="none" stroke="black"/>
<path d="M75.5898,355.804h -7.05827" fill="none" stroke="black"/>
<path d="M75.5898,352.695h -7.05827" fill="none" stroke="black"/>
<path d="M75.5898,350.002h -7.05827" fill="none" stroke="black"/>
<path d="M75.5898,347.627h -7.05827" fill="none" stroke="black"/>
<path d="M82.648,345.502h -14.1165" fill="none" stroke="black"/>
<text xml:space="preserve" x="58.7559" y="345.273" fill="black" font-size="9.24468" font-family="Helvetica">8</text>
<text xml:space="preserve" x="53.7828" y="345.273" fill="black" font-size="9.24468" font-family="Times">&#8722;</text>
<text xml:space="preserve" x="38.8636" y="351.667" fill="black" font-size="13.617" font-family="Helvetica">10</text>
<path d="M75.5898,331.522h -7.05827" fill="none" stroke="black"/>
<path d="M75.5898,323.344h -7.05827" fill="none" stroke="black"/>
<path d="M75.5898,317.542h -7.05827" fill="none" stroke="black"/>
<path d="M75.5898,313.042h -7.05827" fill="none" stroke="black"/>
<path d="M75.5898,309.365h -7.05827" fill="none" stroke="black"/>
<path d="M75.5898,306.256h -7.05827" fill="none" stroke="black"/>
<path d="M75.5898,303.563h -7.05827" fill="none" stroke="black"/>
<path d="M75.5898,301.187h -7.05827" fill="none" stroke="black"/>
<path d="M82.648,299.062h -14.1165" fill="none" stroke="black"/>
<text xml:space="preserve" x="58.7559" y="299.094" fill="black" font-size="9.24468" font-family="Helvetica">7</text>
<text xml:space="preserve" x="53.7828" y="299.094" fill="black" font-size="9.24468" font-family="Times">&#8722;</text>
<text xml:space="preserve" x="38.8636" y="304.778" fill="black" font-size="13.617" font-family="Helvetica">10</text>
<path d="M75.5898,285.082h -7.05827" fill="none" stroke="black"/>
<path d="M75.5898,276.905h -7.05827" fill="none" stroke="black"/>
<path d="M75.5898,271.103h -7.05827" fill="none" stroke="black"/>
<path d="M75.5898,266.602h -7.05827" fill="none" stroke="black"/>
<path d="M75.5898,262.925h -7.05827" fill="none" stroke="black"/>
<path d="M75.5898,259.816h -7.05827" fill="none" stroke="black"/>
<path d="M75.5898,257.123h -7.05827" fill="none" stroke="black"/>
<path d="M75.5898,254.748h -7.05827" fill="none" stroke="black"/>
<path d="M82.648,252.623h -14.1165" fill="none" stroke="black"/>
<text xml:space="preserve" x="58.7559" y="252.205" fill="black" font-size="9.24468" font-family="Helvetica">6</text>
<text xml:space="preserve" x="53.7828" y="252.205" fill="black" font-size="9.24468" font-family="Times">&#8722;</text>
<text xml:space="preserve" x="38.8636" y="258.599" fill="black" font-size="13.617" font-family="Helvetica">10</text>
<path d="M75.5898,238.643h -7.05827" fill="none" stroke="black"/>
<path d="M75.5898,230.465h -7.05827" fill="none" stroke="black"/>
<path d="M75.5898,224.663h -7.05827" fill="none" stroke="black"/>
<path d="M75.5898,220.163h -7.05827" fill="none" stroke="black"/>
<path d="M75.5898,216.486h -7.05827" fill="none" stroke="black"/>
<path d="M75.5898,213.377h -7.05827" fill="none" stroke="black"/>
<path d="M75.5898,210.684h -7.05827" fill="none" stroke="black"/>
<path d="M75.5898,208.308h -7.05827" fill="none" stroke="black"/>
<path d="M82.648,206.183h -14.1165" fill="none" stroke="black"/>
<text xml:space="preserve" x="58.7559" y="206.027" fill="black" font-size="9.24468" font-family="Helvetica">5</text>
<text xml:space="preserve" x="53.7828" y="206.027" fill="black" font-size="9.24468" font-family="Times">&#8722;</text>
<text xml:space="preserve" x="38.8636" y="212.421" fill="black" font-size="13.617" font-family="Helvetica">10</text>
<path d="M75.5898,192.203h -7.05827" fill="none" stroke="black"/>
<path d="M75.5898,184.026h -7.05827" fill="none" stroke="black"/>
<path d="M75.5898,178.224h -7.05827" fill="none" stroke="black"/>
<path d="M75.5898,173.723h -7.05827" fill="none" stroke="black"/>
<path d="M75.5898,170.046h -7.05827" fill="none" stroke="black"/>
<path d="M75.5898,166.937h -7.05827" fill="none" stroke="black"/>
<path d="M75.5898,164.244h -7.05827" fill="none" stroke="black"/>
<path d="M75.5898,161.869h -7.05827" fill="none" stroke="black"/>
<path d="M82.648,159.744h -14.1165" fill="none" stroke="black"/>
<text xml:space="preserve" x="58.7559" y="159.848" fill="black" font-size="9.24468" font-family="Helvetica">4</text>
<text xml:space="preserve" x="53.7828" y="159.848" fill="black" font-size="9.24468" font-family="Times">&#8722;</text>
<text xml:space="preserve" x="38.8636" y="165.532" fill="black" font-size="13.617" font-family="Helvetica">10</text>
<path d="M75.5898,145.764h -7.05827" fill="none" stroke="black"/>
<path d="M75.5898,137.586h -7.05827" fill="none" stroke="black"/>
<path d="M75.5898,131.784h -7.05827" fill="none" stroke="black"/>
<path d="M75.5898,127.284h -7.05827" fill="none" stroke="black"/>
<path d="M75.5898,123.607h -7.05827" fill="none" stroke="black"/>
<path d="M75.5898,120.498h -7.05827" fill="none" stroke="black"/>
<path d="M75.5898,117.805h -7.05827" fill="none" stroke="black"/>
<path d="M75.5898,115.429h -7.05827" fill="none" stroke="black"/>
<path d="M82.648,113.304h -14.1165" fill="none" stroke="black"/>
<text xml:space="preserve" x="58.7559" y="112.96" fill="black" font-size="9.24468" font-family="Helvetica">3</text>
<text xml:space="preserve" x="53.7828" y="112.96" fill="black" font-size="9.24468" font-family="Times">&#8722;</text>
<text xml:space="preserve" x="38.8636" y="119.354" fill="black" font-size="13.617" font-family="Helvetica">10</text>
<path d="M75.5898,99.3244h -7.05827" fill="none" stroke="black"/>
<path d="M75.5898,91.1468h -7.05827" fill="none" stroke="black"/>
<path d="M75.5898,85.3447h -7.05827" fill="none" stroke="black"/>
<path d="M75.5898,80.8443h -7.05827" fill="none" stroke="black"/>
<path d="M75.5898,77.1671h -7.05827" fill="none" stroke="black"/>
<path d="M75.5898,74.0582h -7.05827" fill="none" stroke="black"/>
<path d="M75.5898,71.365h -7.05827" fill="none" stroke="black"/>
<path d="M75.5898,68.9895h -7.05827" fill="none" stroke="black"/>
<path d="M82.648,66.8646h -14.1165" fill="none" stroke="black"/>
<text xml:space="preserve" x="58.7559" y="67.4916" fill="black" font-size="9.24468" font-family="Helvetica">2</text>
<text xml:space="preserve" x="53.7828" y="67.4916" fill="black" font-size="9.24468" font-family="Times">&#8722;</text>
<text xml:space="preserve" x="38.8636" y="73.1751" fill="black" font-size="13.617" font-family="Helvetica">10</text>
<path d="M75.5898,52.8849h -7.05827" fill="none" stroke="black"/>
<path d="M75.5898,44.7073h -7.05827" fill="none" stroke="black"/>
<path d="M75.5898,38.9052h -7.05827" fill="none" stroke="black"/>
<path d="M75.5898,34.4048h -7.05827" fill="none" stroke="black"/>
<path d="M75.5898,30.7276h -7.05827" fill="none" stroke="black"/>
<path d="M75.5898,27.6187h -7.05827" fill="none" stroke="black"/>
<path d="M75.5898,24.9255h -7.05827" fill="none" stroke="black"/>
<path d="M75.5898,22.55h -7.05827" fill="none" stroke="black"/>
<path d="M82.648,20.4251h -14.1165" fill="none" stroke="black"/>
<text xml:space="preserve" x="60.1768" y="20.6027" fill="black" font-size="9.24468" font-family="Helvetica">1</text>
<text xml:space="preserve" x="55.2037" y="20.6027" fill="black" font-size="9.24468" font-family="Times">&#8722;</text>
<text xml:space="preserve" x="40.2845" y="26.2862" fill="black" font-size="13.617" font-family="Helvetica">10</text>
<g transform="rotate(-90,43.1263,27.7071)">
<text xml:space="preserve" x="43.1263" y="27.7071" fill="black" font-size="9.24468" font-family="Helvetica">T</text>
</g>
<g transform="rotate(-90,35.3114,42.6263)">
<text xml:space="preserve" x="35.3114" y="42.6263" fill="black" font-size="13.617" font-family="Helvetica">dp</text>
</g>
<g transform="rotate(-90,11.1566,23.4444)">
<text xml:space="preserve" x="11.1566" y="23.4444" fill="black" font-size="6.32979" font-family="Helvetica">0</text>
</g>
<g transform="rotate(-90,14.7087,28.4175)">
<text xml:space="preserve" x="14.7087" y="28.4175" fill="black" font-size="9.24468" font-family="Times">&#0960;</text>
</g>
<g transform="rotate(-90,21.1027,44.7576)">
<text xml:space="preserve" x="21.1027" y="44.7576" fill="black" font-size="13.617" font-family="Helvetica">dN</text>
</g>
<path d="M23.9444,44.7576v -24.8653" fill="none" stroke="black" stroke-width="2"/>
<g transform="rotate(-90,27.4966,49.0202)">
<text xml:space="preserve" x="27.4966" y="49.0202" fill="black" font-size="13.617" font-family="Helvetica"> </text>
</g>
<g transform="rotate(-90,39.5741,71.7542)">
<text xml:space="preserve" x="39.5741" y="71.7542" fill="black" font-size="9.24468" font-family="Helvetica">event</text>
</g>
<g transform="rotate(-90,35.3114,80.9899)">
<text xml:space="preserve" x="35.3114" y="80.9899" fill="black" font-size="13.617" font-family="Helvetica">N</text>
</g>
<g transform="rotate(-90,21.8131,67.4916)">
<text xml:space="preserve" x="21.8131" y="67.4916" fill="black" font-size="13.617" font-family="Helvetica">1</text>
</g>
<path d="M23.9444,80.9899v -31.9697" fill="none" stroke="black" stroke-width="2"/>
<path d="M499.398,359.481v -339.056" fill="none" stroke="black"/>
<path d="M492.339,359.481h 7.05827" fill="none" stroke="black"/>
<path d="M492.339,355.804h 7.05827" fill="none" stroke="black"/>
<path d="M492.339,352.695h 7.05827" fill="none" stroke="black"/>
<path d="M492.339,350.002h 7.05827" fill="none" stroke="black"/>
<path d="M492.339,347.627h 7.05827" fill="none" stroke="black"/>
<path d="M485.281,345.502h 14.1165" fill="none" stroke="black"/>
<path d="M492.339,331.522h 7.05827" fill="none" stroke="black"/>
<path d="M492.339,323.344h 7.05827" fill="none" stroke="black"/>
<path d="M492.339,317.542h 7.05827" fill="none" stroke="black"/>
<path d="M492.339,313.042h 7.05827" fill="none" stroke="black"/>
<path d="M492.339,309.365h 7.05827" fill="none" stroke="black"/>
<path d="M492.339,306.256h 7.05827" fill="none" stroke="black"/>
<path d="M492.339,303.563h 7.05827" fill="none" stroke="black"/>
<path d="M492.339,301.187h 7.05827" fill="none" stroke="black"/>
<path d="M485.281,299.062h 14.1165" fill="none" stroke="black"/>
<path d="M492.339,285.082h 7.05827" fill="none" stroke="black"/>
<path d="M492.339,276.905h 7.05827" fill="none" stroke="black"/>
<path d="M492.339,271.103h 7.05827" fill="none" stroke="black"/>
<path d="M492.339,266.602h 7.05827" fill="none" stroke="black"/>
<path d="M492.339,262.925h 7.05827" fill="none" stroke="black"/>
<path d="M492.339,259.816h 7.05827" fill="none" stroke="black"/>
<path d="M492.339,257.123h 7.05827" fill="none" stroke="black"/>
<path d="M492.339,254.748h 7.05827" fill="none" stroke="black"/>
<path d="M485.281,252.623h 14.1165" fill="none" stroke="black"/>
<path d="M492.339,238.643h 7.05827" fill="none" stroke="black"/>
<path d="M492.339,230.465h 7.05827" fill="none" stroke="black"/>
<path d="M492.339,224.663h 7.05827" fill="none" stroke="black"/>
<path d="M492.339,220.163h 7.05827" fill="none" stroke="black"/>
<path d="M492.339,216.486h 7.05827" fill="none" stroke="black"/>
<path d="M492.339,213.377h 7.05827" fill="none" stroke="black"/>
<path d="M492.339,210.684h 7.05827" fill="none" stroke="black"/>
<path d="M492.339,208.308h 7.05827" fill="none" stroke="black"/>
<path d="M485.281,206.183h 14.1165" fill="none" stroke="black"/>
<path d="M492.339,192.203h 7.05827" fill="none" stroke="black"/>
<path d="M492.339,184.026h 7.05827" fill="none" stroke="black"/>
<path d="M492.339,178.224h 7.05827" fill="none" stroke="black"/>
<path d="M492.339,173.723h 7.05827" fill="none" stroke="black"/>
<path d="M492.339,170.046h 7.05827" fill="none" stroke="black"/>
<path d="M492.339,166.937h 7.05827" fill="none" stroke="black"/>
<path d="M492.339,164.244h 7.05827" fill="none" stroke="black"/>
<path d="M492.339,161.869h 7.05827" fill="none" stroke="black"/>
<path d="M485.281,159.744h 14.1165" fill="none" stroke="black"/>
<path d="M492.339,145.764h 7.05827" fill="none" stroke="black"/>
<path d="M492.339,137.586h 7.05827" fill="none" stroke="black"/>
<path d="M492.339,131.784h 7.05827" fill="none" stroke="black"/>
<path d="M492.339,127.284h 7.05827" fill="none" stroke="black"/>
<path d="M492.339,123.607h 7.05827" fill="none" stroke="black"/>
<path d="M492.339,120.498h 7.05827" fill="none" stroke="black"/>
<path d="M492.339,117.805h 7.05827" fill="none" stroke="black"/>
<path d="M492.339,115.429h 7.05827" fill="none" stroke="black"/>
<path d="M485.281,113.304h 14.1165" fill="none" stroke="black"/>
<path d="M492.339,99.3244h 7.05827" fill="none" stroke="black"/>
<path d="M492.339,91.1468h 7.05827" fill="none" stroke="black"/>
<path d="M492.339,85.3447h 7.05827" fill="none" stroke="black"/>
<path d="M492.339,80.8443h 7.05827" fill="none" stroke="black"/>
<path d="M492.339,77.1671h 7.05827" fill="none" stroke="black"/>
<path d="M492.339,74.0582h 7.05827" fill="none" stroke="black"/>
<path d="M492.339,71.365h 7.05827" fill="none" stroke="black"/>
<path d="M492.339,68.9895h 7.05827" fill="none" stroke="black"/>
<path d="M485.281,66.8646h 14.1165" fill="none" stroke="black"/>
<path d="M492.339,52.8849h 7.05827" fill="none" stroke="black"/>
<path d="M492.339,44.7073h 7.05827" fill="none" stroke="black"/>
<path d="M492.339,38.9052h 7.05827" fill="none" stroke="black"/>
<path d="M492.339,34.4048h 7.05827" fill="none" stroke="black"/>
<path d="M492.339,30.7276h 7.05827" fill="none" stroke="black"/>
<path d="M492.339,27.6187h 7.05827" fill="none" stroke="black"/>
<path d="M492.339,24.9255h 7.05827" fill="none" stroke="black"/>
<path d="M492.339,22.55h 7.05827" fill="none" stroke="black"/>
<path d="M485.281,20.4251h 14.1165" fill="none" stroke="black"/>
<path d="M68.5315,60.7925h 9.12675" fill="none" stroke="black"/>
<path d="M83.3418,60.7925h 9.12675" fill="none" stroke="black"/>
<g fill="black">
<polygon points=" 79.5527, 59.8453 79.5527, 57.9508 81.4473, 57.9508 81.4473, 59.8453 83.3418, 59.8453 83.3418, 61.7398 81.4473, 61.7398 81.4473, 63.6343 79.5527, 63.6343 79.5527, 61.7398 77.6582, 61.7398 77.6582, 59.8453"/>
</g>
<path d="M92.4685,116.035h 21.0953" fill="none" stroke="black"/>
<path d="M119.247,116.035h 21.0953" fill="none" stroke="black"/>
<g fill="black">
<polygon points=" 115.458, 115.088 115.458, 113.193 117.353, 113.193 117.353, 115.088 119.247, 115.088 119.247, 116.982 117.353, 116.982 117.353, 118.877 115.458, 118.877 115.458, 116.982 113.564, 116.982 113.564, 115.088"/>
</g>
<path d="M140.343,178.75h 21.0953" fill="none" stroke="black"/>
<path d="M167.121,178.75h 21.0953" fill="none" stroke="black"/>
<g fill="black">
<polygon points=" 163.332, 177.802 163.332, 175.908 165.227, 175.908 165.227, 177.802 167.121, 177.802 167.121, 179.697 165.227, 179.697 165.227, 181.591 163.332, 181.591 163.332, 179.697 161.438, 179.697 161.438, 177.802"/>
</g>
<path d="M188.217,222.407h 21.0953" fill="none" stroke="black"/>
<path d="M214.995,222.407h 21.0953" fill="none" stroke="black"/>
<g fill="black">
<polygon points=" 211.206, 221.46 211.206, 219.565 213.101, 219.565 213.101, 221.46 214.995, 221.46 214.995, 223.354 213.101, 223.354 213.101, 225.249 211.206, 225.249 211.206, 223.354 209.312, 223.354 209.312, 221.46"/>
</g>
<path d="M236.091,255.196h 21.0953" fill="none" stroke="black"/>
<path d="M262.869,255.196h 21.0953" fill="none" stroke="black"/>
<g fill="black">
<polygon points=" 259.08, 254.249 259.08, 252.354 260.975, 252.354 260.975, 254.249 262.869, 254.249 262.869, 256.143 260.975, 256.143 260.975, 258.038 259.08, 258.038 259.08, 256.143 257.186, 256.143 257.186, 254.249"/>
</g>
<path d="M283.965,290.477h 45.0323" fill="none" stroke="black"/>
<path d="M334.68,290.477h 45.0323" fill="none" stroke="black"/>
<g fill="black">
<polygon points=" 330.891, 289.53 330.891, 287.636 332.786, 287.636 332.786, 289.53 334.68, 289.53 334.68, 291.425 332.786, 291.425 332.786, 293.319 330.891, 293.319 330.891, 291.425 328.997, 291.425 328.997, 289.53"/>
</g>
<path d="M379.713,336.778h 57.0008" fill="none" stroke="black"/>
<path d="M442.397,336.778h 57.0008" fill="none" stroke="black"/>
<g fill="black">
<polygon points=" 438.608, 335.831 438.608, 333.937 440.502, 333.937 440.502, 335.831 442.397, 335.831 442.397, 337.726 440.502, 337.726 440.502, 339.62 438.608, 339.62 438.608, 337.726 436.713, 337.726 436.713, 335.831"/>
</g>
<path d="M68.5315,51.815h 9.12675" fill="none" stroke="#ffcc00"/>
<path d="M83.3418,51.815h 9.12675" fill="none" stroke="#ffcc00"/>
<g fill="#ffcc00">
<polygon points=" 79.5527, 50.8677 79.5527, 48.9732 81.4473, 48.9732 81.4473, 50.8677 83.3418, 50.8677 83.3418, 52.7622 81.4473, 52.7622 81.4473, 54.6567 79.5527, 54.6567 79.5527, 52.7622 77.6582, 52.7622 77.6582, 50.8677"/>
</g>
<path d="M92.4685,107.847h 21.0953" fill="none" stroke="#ffcc00"/>
<path d="M119.247,107.847h 21.0953" fill="none" stroke="#ffcc00"/>
<g fill="#ffcc00">
<polygon points=" 115.458, 106.9 115.458, 105.006 117.353, 105.006 117.353, 106.9 119.247, 106.9 119.247, 108.795 117.353, 108.795 117.353, 110.689 115.458, 110.689 115.458, 108.795 113.564, 108.795 113.564, 106.9"/>
</g>
<path d="M140.343,172.343h 21.0953" fill="none" stroke="#ffcc00"/>
<path d="M167.121,172.343h 21.0953" fill="none" stroke="#ffcc00"/>
<g fill="#ffcc00">
<polygon points=" 163.332, 171.395 163.332, 169.501 165.227, 169.501 165.227, 171.395 167.121, 171.395 167.121, 173.29 165.227, 173.29 165.227, 175.184 163.332, 175.184 163.332, 173.29 161.438, 173.29 161.438, 171.395"/>
</g>
<path d="M188.217,217.796h 21.0953" fill="none" stroke="#ffcc00"/>
<path d="M214.995,217.796h 21.0953" fill="none" stroke="#ffcc00"/>
<g fill="#ffcc00">
<polygon points=" 211.206, 216.849 211.206, 214.954 213.101, 214.954 213.101, 216.849 214.995, 216.849 214.995, 218.743 213.101, 218.743 213.101, 220.638 211.206, 220.638 211.206, 218.743 209.312, 218.743 209.312, 216.849"/>
</g>
<path d="M236.091,251.967h 21.0953" fill="none" stroke="#ffcc00"/>
<path d="M262.869,251.967h 21.0953" fill="none" stroke="#ffcc00"/>
<g fill="#ffcc00">
<polygon points=" 259.08, 251.02 259.08, 249.125 260.975, 249.125 260.975, 251.02 262.869, 251.02 262.869, 252.914 260.975, 252.914 260.975, 254.809 259.08, 254.809 259.08, 252.914 257.186, 252.914 257.186, 251.02"/>
</g>
<path d="M283.965,287.808h 45.0323" fill="none" stroke="#ffcc00"/>
<path d="M334.68,287.808h 45.0323" fill="none" stroke="#ffcc00"/>
<g fill="#ffcc00">
<polygon points=" 330.891, 286.861 330.891, 284.966 332.786, 284.966 332.786, 286.861 334.68, 286.861 334.68, 288.755 332.786, 288.755 332.786, 290.65 330.891, 290.65 330.891, 288.755 328.997, 288.755 328.997, 286.861"/>
</g>
<path d="M379.713,336.665h 57.0008" fill="none" stroke="#ffcc00"/>
<path d="M442.397,336.665h 57.0008" fill="none" stroke="#ffcc00"/>
<g fill="#ffcc00">
<polygon points=" 438.608, 335.718 438.608, 333.823 440.502, 333.823 440.502, 335.718 442.397, 335.718 442.397, 337.612 440.502, 337.612 440.502, 339.507 438.608, 339.507 438.608, 337.612 436.713, 337.612 436.713, 335.718"/>
</g>
<path d="M68.5315,53.8188h 9.12675" fill="none" stroke="#ff0000"/>
<path d="M83.3418,53.8188h 9.12675" fill="none" stroke="#ff0000"/>
<g fill="#ff0000">
<polygon points=" 79.5527, 52.8715 79.5527, 50.977 81.4473, 50.977 81.4473, 52.8715 83.3418, 52.8715 83.3418, 54.766 81.4473, 54.766 81.4473, 56.6605 79.5527, 56.6605 79.5527, 54.766 77.6582, 54.766 77.6582, 52.8715"/>
</g>
<path d="M92.4685,109.481h 21.0953" fill="none" stroke="#ff0000"/>
<path d="M119.247,109.481h 21.0953" fill="none" stroke="#ff0000"/>
<g fill="#ff0000">
<polygon points=" 115.458, 108.533 115.458, 106.639 117.353, 106.639 117.353, 108.533 119.247, 108.533 119.247, 110.428 117.353, 110.428 117.353, 112.322 115.458, 112.322 115.458, 110.428 113.564, 110.428 113.564, 108.533"/>
</g>
<path d="M140.343,173.255h 21.0953" fill="none" stroke="#ff0000"/>
<path d="M167.121,173.255h 21.0953" fill="none" stroke="#ff0000"/>
<g fill="#ff0000">
<polygon points=" 163.332, 172.308 163.332, 170.413 165.227, 170.413 165.227, 172.308 167.121, 172.308 167.121, 174.202 165.227, 174.202 165.227, 176.097 163.332, 176.097 163.332, 174.202 161.438, 174.202 161.438, 172.308"/>
</g>
<path d="M188.217,217.881h 21.0953" fill="none" stroke="#ff0000"/>
<path d="M214.995,217.881h 21.0953" fill="none" stroke="#ff0000"/>
<g fill="#ff0000">
<polygon points=" 211.206, 216.934 211.206, 215.04 213.101, 215.04 213.101, 216.934 214.995, 216.934 214.995, 218.829 213.101, 218.829 213.101, 220.723 211.206, 220.723 211.206, 218.829 209.312, 218.829 209.312, 216.934"/>
</g>
<path d="M236.091,251.435h 21.0953" fill="none" stroke="#ff0000"/>
<path d="M262.869,251.435h 21.0953" fill="none" stroke="#ff0000"/>
<g fill="#ff0000">
<polygon points=" 259.08, 250.488 259.08, 248.593 260.975, 248.593 260.975, 250.488 262.869, 250.488 262.869, 252.382 260.975, 252.382 260.975, 254.277 259.08, 254.277 259.08, 252.382 257.186, 252.382 257.186, 250.488"/>
</g>
<path d="M283.965,287.332h 45.0323" fill="none" stroke="#ff0000"/>
<path d="M334.68,287.332h 45.0323" fill="none" stroke="#ff0000"/>
<g fill="#ff0000">
<polygon points=" 330.891, 286.385 330.891, 284.49 332.786, 284.49 332.786, 286.385 334.68, 286.385 334.68, 288.279 332.786, 288.279 332.786, 290.174 330.891, 290.174 330.891, 288.279 328.997, 288.279 328.997, 286.385"/>
</g>
<path d="M379.713,334.924h 57.0008" fill="none" stroke="#ff0000"/>
<path d="M442.397,334.924h 57.0008" fill="none" stroke="#ff0000"/>
<g fill="#ff0000">
<polygon points=" 438.608, 333.977 438.608, 332.082 440.502, 332.082 440.502, 333.977 442.397, 333.977 442.397, 335.871 440.502, 335.871 440.502, 337.766 438.608, 337.766 438.608, 335.871 436.713, 335.871 436.713, 333.977"/>
</g>
<path d="M68.5315,56.0923h 9.12675" fill="none" stroke="#ff0033"/>
<path d="M83.3418,56.0923h 9.12675" fill="none" stroke="#ff0033"/>
<g stroke="#ff0033" stroke-width="1" fill="none">
<polygon points=" 79.5527, 55.145 79.5527, 53.2505 81.4473, 53.2505 81.4473, 55.145 83.3418, 55.145 83.3418, 57.0395 81.4473, 57.0395 81.4473, 58.934 79.5527, 58.934 79.5527, 57.0395 77.6582, 57.0395 77.6582, 55.145"/>
</g>
<path d="M92.4685,111.488h 21.0953" fill="none" stroke="#ff0033"/>
<path d="M119.247,111.488h 21.0953" fill="none" stroke="#ff0033"/>
<g stroke="#ff0033" stroke-width="1" fill="none">
<polygon points=" 115.458, 110.54 115.458, 108.646 117.353, 108.646 117.353, 110.54 119.247, 110.54 119.247, 112.435 117.353, 112.435 117.353, 114.329 115.458, 114.329 115.458, 112.435 113.564, 112.435 113.564, 110.54"/>
</g>
<path d="M140.343,174.671h 21.0953" fill="none" stroke="#ff0033"/>
<path d="M167.121,174.671h 21.0953" fill="none" stroke="#ff0033"/>
<g stroke="#ff0033" stroke-width="1" fill="none">
<polygon points=" 163.332, 173.723 163.332, 171.829 165.227, 171.829 165.227, 173.723 167.121, 173.723 167.121, 175.618 165.227, 175.618 165.227, 177.512 163.332, 177.512 163.332, 175.618 161.438, 175.618 161.438, 173.723"/>
</g>
<path d="M188.217,218.659h 21.0953" fill="none" stroke="#ff0033"/>
<path d="M214.995,218.659h 21.0953" fill="none" stroke="#ff0033"/>
<g stroke="#ff0033" stroke-width="1" fill="none">
<polygon points=" 211.206, 217.712 211.206, 215.817 213.101, 215.817 213.101, 217.712 214.995, 217.712 214.995, 219.606 213.101, 219.606 213.101, 221.501 211.206, 221.501 211.206, 219.606 209.312, 219.606 209.312, 217.712"/>
</g>
<path d="M236.091,251.7h 21.0953" fill="none" stroke="#ff0033"/>
<path d="M262.869,251.7h 21.0953" fill="none" stroke="#ff0033"/>
<g stroke="#ff0033" stroke-width="1" fill="none">
<polygon points=" 259.08, 250.753 259.08, 248.858 260.975, 248.858 260.975, 250.753 262.869, 250.753 262.869, 252.647 260.975, 252.647 260.975, 254.542 259.08, 254.542 259.08, 252.647 257.186, 252.647 257.186, 250.753"/>
</g>
<path d="M283.965,287.521h 45.0323" fill="none" stroke="#ff0033"/>
<path d="M334.68,287.521h 45.0323" fill="none" stroke="#ff0033"/>
<g stroke="#ff0033" stroke-width="1" fill="none">
<polygon points=" 330.891, 286.574 330.891, 284.679 332.786, 284.679 332.786, 286.574 334.68, 286.574 334.68, 288.468 332.786, 288.468 332.786, 290.363 330.891, 290.363 330.891, 288.468 328.997, 288.468 328.997, 286.574"/>
</g>
<path d="M379.713,333.778h 57.0008" fill="none" stroke="#ff0033"/>
<path d="M442.397,333.778h 57.0008" fill="none" stroke="#ff0033"/>
<g stroke="#ff0033" stroke-width="1" fill="none">
<polygon points=" 438.608, 332.831 438.608, 330.936 440.502, 330.936 440.502, 332.831 442.397, 332.831 442.397, 334.725 440.502, 334.725 440.502, 336.62 438.608, 336.62 438.608, 334.725 436.713, 334.725 436.713, 332.831"/>
</g>
<path d="M68.5315,60.0155h 10.5476" fill="none" stroke="#ff00ff"/>
<path d="M81.9209,60.0155h 10.5476" fill="none" stroke="#ff00ff"/>
<g fill="#ff00ff">
<polygon points=" 80.5, 61.4364 79.0791, 62.8572 77.6582, 61.4364 79.0791, 60.0155 77.6582, 58.5946 79.0791, 57.1737 80.5, 58.5946 81.9209, 57.1737 83.3418, 58.5946 81.9209, 60.0155 83.3418, 61.4364 81.9209, 62.8572 80.5, 61.4364"/>
</g>
<path d="M92.4685,115.084h 22.5161" fill="none" stroke="#ff00ff"/>
<path d="M117.826,115.084h 22.5161" fill="none" stroke="#ff00ff"/>
<g fill="#ff00ff">
<polygon points=" 116.406, 116.505 114.985, 117.926 113.564, 116.505 114.985, 115.084 113.564, 113.663 114.985, 112.242 116.406, 113.663 117.826, 112.242 119.247, 113.663 117.826, 115.084 119.247, 116.505 117.826, 117.926 116.406, 116.505"/>
</g>
<path d="M140.343,177.509h 22.5161" fill="none" stroke="#ff00ff"/>
<path d="M165.7,177.509h 22.5161" fill="none" stroke="#ff00ff"/>
<g fill="#ff00ff">
<polygon points=" 164.28, 178.93 162.859, 180.351 161.438, 178.93 162.859, 177.509 161.438, 176.088 162.859, 174.667 164.28, 176.088 165.7, 174.667 167.121, 176.088 165.7, 177.509 167.121, 178.93 165.7, 180.351 164.28, 178.93"/>
</g>
<path d="M188.217,221.01h 22.5161" fill="none" stroke="#ff00ff"/>
<path d="M213.574,221.01h 22.5161" fill="none" stroke="#ff00ff"/>
<g fill="#ff00ff">
<polygon points=" 212.154, 222.43 210.733, 223.851 209.312, 222.43 210.733, 221.01 209.312, 219.589 210.733, 218.168 212.154, 219.589 213.574, 218.168 214.995, 219.589 213.574, 221.01 214.995, 222.43 213.574, 223.851 212.154, 222.43"/>
</g>
<path d="M236.091,253.546h 22.5161" fill="none" stroke="#ff00ff"/>
<path d="M261.448,253.546h 22.5161" fill="none" stroke="#ff00ff"/>
<g fill="#ff00ff">
<polygon points=" 260.028, 254.967 258.607, 256.388 257.186, 254.967 258.607, 253.546 257.186, 252.125 258.607, 250.704 260.028, 252.125 261.448, 250.704 262.869, 252.125 261.448, 253.546 262.869, 254.967 261.448, 256.388 260.028, 254.967"/>
</g>
<path d="M283.965,289.03h 46.4531" fill="none" stroke="#ff00ff"/>
<path d="M333.259,289.03h 46.4531" fill="none" stroke="#ff00ff"/>
<g fill="#ff00ff">
<polygon points=" 331.839, 290.451 330.418, 291.871 328.997, 290.451 330.418, 289.03 328.997, 287.609 330.418, 286.188 331.839, 287.609 333.259, 286.188 334.68, 287.609 333.259, 289.03 334.68, 290.451 333.259, 291.871 331.839, 290.451"/>
</g>
<path d="M379.713,334.74h 58.4216" fill="none" stroke="#ff00ff"/>
<path d="M440.976,334.74h 58.4216" fill="none" stroke="#ff00ff"/>
<g fill="#ff00ff">
<polygon points=" 439.555, 336.161 438.134, 337.582 436.713, 336.161 438.134, 334.74 436.713, 333.319 438.134, 331.898 439.555, 333.319 440.976, 331.898 442.397, 333.319 440.976, 334.74 442.397, 336.161 440.976, 337.582 439.555, 336.161"/>
</g>
<path d="M68.5315,66.5416h 9.12675" fill="none" stroke="#cc00ff"/>
<path d="M83.3418,66.5416h 9.12675" fill="none" stroke="#cc00ff"/>
<g stroke="#cc00ff" stroke-width="1" fill="none">
<polygon points=" 79.5527, 65.5943 79.5527, 63.6998 81.4473, 63.6998 81.4473, 65.5943 83.3418, 65.5943 83.3418, 67.4888 81.4473, 67.4888 81.4473, 69.3833 79.5527, 69.3833 79.5527, 67.4888 77.6582, 67.4888 77.6582, 65.5943"/>
</g>
<path d="M92.4685,121.256h 21.0953" fill="none" stroke="#cc00ff"/>
<path d="M119.247,121.256h 21.0953" fill="none" stroke="#cc00ff"/>
<g stroke="#cc00ff" stroke-width="1" fill="none">
<polygon points=" 115.458, 120.309 115.458, 118.414 117.353, 118.414 117.353, 120.309 119.247, 120.309 119.247, 122.203 117.353, 122.203 117.353, 124.098 115.458, 124.098 115.458, 122.203 113.564, 122.203 113.564, 120.309"/>
</g>
<path d="M140.343,182.85h 21.0953" fill="none" stroke="#cc00ff"/>
<path d="M167.121,182.85h 21.0953" fill="none" stroke="#cc00ff"/>
<g stroke="#cc00ff" stroke-width="1" fill="none">
<polygon points=" 163.332, 181.903 163.332, 180.008 165.227, 180.008 165.227, 181.903 167.121, 181.903 167.121, 183.797 165.227, 183.797 165.227, 185.692 163.332, 185.692 163.332, 183.797 161.438, 183.797 161.438, 181.903"/>
</g>
<path d="M188.217,225.557h 21.0953" fill="none" stroke="#cc00ff"/>
<path d="M214.995,225.557h 21.0953" fill="none" stroke="#cc00ff"/>
<g stroke="#cc00ff" stroke-width="1" fill="none">
<polygon points=" 211.206, 224.61 211.206, 222.715 213.101, 222.715 213.101, 224.61 214.995, 224.61 214.995, 226.504 213.101, 226.504 213.101, 228.399 211.206, 228.399 211.206, 226.504 209.312, 226.504 209.312, 224.61"/>
</g>
<path d="M236.091,257.754h 21.0953" fill="none" stroke="#cc00ff"/>
<path d="M262.869,257.754h 21.0953" fill="none" stroke="#cc00ff"/>
<g stroke="#cc00ff" stroke-width="1" fill="none">
<polygon points=" 259.08, 256.807 259.08, 254.912 260.975, 254.912 260.975, 256.807 262.869, 256.807 262.869, 258.701 260.975, 258.701 260.975, 260.596 259.08, 260.596 259.08, 258.701 257.186, 258.701 257.186, 256.807"/>
</g>
<path d="M283.965,292.523h 45.0323" fill="none" stroke="#cc00ff"/>
<path d="M334.68,292.523h 45.0323" fill="none" stroke="#cc00ff"/>
<g stroke="#cc00ff" stroke-width="1" fill="none">
<polygon points=" 330.891, 291.576 330.891, 289.682 332.786, 289.682 332.786, 291.576 334.68, 291.576 334.68, 293.471 332.786, 293.471 332.786, 295.365 330.891, 295.365 330.891, 293.471 328.997, 293.471 328.997, 291.576"/>
</g>
<path d="M379.713,337.739h 57.0008" fill="none" stroke="#cc00ff"/>
<path d="M442.397,337.739h 57.0008" fill="none" stroke="#cc00ff"/>
<g stroke="#cc00ff" stroke-width="1" fill="none">
<polygon points=" 438.608, 336.792 438.608, 334.897 440.502, 334.897 440.502, 336.792 442.397, 336.792 442.397, 338.686 440.502, 338.686 440.502, 340.581 438.608, 340.581 438.608, 338.686 436.713, 338.686 436.713, 336.792"/>
</g>
<text xml:space="preserve" x="181.662" y="51.8619" fill="black" font-size="19.2386" font-family="Helvetica">PYTHIA8, pAu200GeV with option3</text>
<text xml:space="preserve" x="239.207" y="66.7811" fill="black" font-size="19.2386" font-family="Helvetica">|&lt;1</text>
<text xml:space="preserve" x="228.55" y="66.7811" fill="black" font-size="19.2386" font-family="Times">&#0951;</text>
<text xml:space="preserve" x="199.423" y="66.7811" fill="black" font-size="19.2386" font-family="Helvetica"> in |</text>
<text xml:space="preserve" x="192.318" y="59.6768" fill="black" font-size="12.9924" font-family="Helvetica">0</text>
<text xml:space="preserve" x="181.662" y="66.7811" fill="black" font-size="19.2386" font-family="Times">&#0960;</text>
<text xml:space="preserve" x="232.813" y="82.4108" fill="black" font-size="19.2386" font-family="Helvetica">all inelastic(MB)</text>
<g fill="black">
<polygon points=" 203.647, 78.1999 203.647, 76.3054 205.542, 76.3054 205.542, 78.1999 207.436, 78.1999 207.436, 80.0944 205.542, 80.0944 205.542, 81.9889 203.647, 81.9889 203.647, 80.0944 201.753, 80.0944 201.753, 78.1999"/>
</g>
<text xml:space="preserve" x="232.813" y="97.3299" fill="black" font-size="19.2386" font-family="Helvetica">cent: 0~10%</text>
<g fill="#ffcc00">
<polygon points=" 203.647, 93.5187 203.647, 91.6242 205.542, 91.6242 205.542, 93.5187 207.436, 93.5187 207.436, 95.4132 205.542, 95.4132 205.542, 97.3077 203.647, 97.3077 203.647, 95.4132 201.753, 95.4132 201.753, 93.5187"/>
</g>
<text xml:space="preserve" x="232.813" y="112.96" fill="black" font-size="19.2386" font-family="Helvetica">cent: 10~20%</text>
<g fill="#ff0000">
<polygon points=" 203.647, 108.838 203.647, 106.943 205.542, 106.943 205.542, 108.838 207.436, 108.838 207.436, 110.732 205.542, 110.732 205.542, 112.627 203.647, 112.627 203.647, 110.732 201.753, 110.732 201.753, 108.838"/>
</g>
<text xml:space="preserve" x="232.813" y="127.879" fill="black" font-size="19.2386" font-family="Helvetica">cent: 20~40%</text>
<g stroke="#ff0033" stroke-width="1" fill="none">
<polygon points=" 203.647, 124.156 203.647, 122.262 205.542, 122.262 205.542, 124.156 207.436, 124.156 207.436, 126.051 205.542, 126.051 205.542, 127.945 203.647, 127.945 203.647, 126.051 201.753, 126.051 201.753, 124.156"/>
</g>
<text xml:space="preserve" x="232.813" y="143.508" fill="black" font-size="19.2386" font-family="Helvetica">cent: 40~60%</text>
<g fill="#ff00ff">
<polygon points=" 204.594, 141.843 203.174, 143.264 201.753, 141.843 203.174, 140.422 201.753, 139.002 203.174, 137.581 204.594, 139.002 206.015, 137.581 207.436, 139.002 206.015, 140.422 207.436, 141.843 206.015, 143.264 204.594, 141.843"/>
</g>
<text xml:space="preserve" x="232.813" y="159.138" fill="black" font-size="19.2386" font-family="Helvetica">cent: 60~80%</text>
<g stroke="#cc00ff" stroke-width="1" fill="none">
<polygon points=" 203.647, 154.794 203.647, 152.899 205.542, 152.899 205.542, 154.794 207.436, 154.794 207.436, 156.688 205.542, 156.688 205.542, 158.583 203.647, 158.583 203.647, 156.688 201.753, 156.688 201.753, 154.794"/>
</g></svg>
