<?xml version="1.0" standalone="no"?>
<svg width="567.429" height="409.002" viewBox="0 0 567.429 409.002" xmlns="http://www.w3.org/2000/svg" shape-rendering="crispEdges">
<title>
/Users/jinhyunpark/npl/gitHub/Centrality_dependent_BiasCorrection/plots/plots_scaled-dNdpT/dNdpT_highpT_pion0_byCentrality.svg
</title>
<desc>
Creator: ROOT Version 6.28/04
CreationDate: Fri Oct 20 14:53:51 2023</desc>
<defs>
</defs>
<rect x="0.5" y="0" width="566.929" height="408.502" fill="white"/>
<rect x="85.5394" y="20.4251" width="396.85" height="339.056" fill="white"/>
<rect x="85.5394" y="20.4251" width="396.85" height="339.056" fill="none" stroke="black"/>
<rect x="85.5394" y="20.4251" width="396.85" height="339.056" fill="white"/>
<rect x="85.5394" y="20.4251" width="396.85" height="339.056" fill="none" stroke="black"/>
<path d="M85.5394,359.481h 396.85" fill="none" stroke="black"/>
<path d="M85.5394,350.903v 8.57853" fill="none" stroke="black"/>
<path d="M96.563,355.192v 4.28927" fill="none" stroke="black"/>
<path d="M107.587,355.192v 4.28927" fill="none" stroke="black"/>
<path d="M118.61,355.192v 4.28927" fill="none" stroke="black"/>
<path d="M129.634,350.903v 8.57853" fill="none" stroke="black"/>
<path d="M140.657,355.192v 4.28927" fill="none" stroke="black"/>
<path d="M151.681,355.192v 4.28927" fill="none" stroke="black"/>
<path d="M162.705,355.192v 4.28927" fill="none" stroke="black"/>
<path d="M173.728,350.903v 8.57853" fill="none" stroke="black"/>
<path d="M184.752,355.192v 4.28927" fill="none" stroke="black"/>
<path d="M195.776,355.192v 4.28927" fill="none" stroke="black"/>
<path d="M206.799,355.192v 4.28927" fill="none" stroke="black"/>
<path d="M217.823,350.903v 8.57853" fill="none" stroke="black"/>
<path d="M228.846,355.192v 4.28927" fill="none" stroke="black"/>
<path d="M239.87,355.192v 4.28927" fill="none" stroke="black"/>
<path d="M250.894,355.192v 4.28927" fill="none" stroke="black"/>
<path d="M261.917,350.903v 8.57853" fill="none" stroke="black"/>
<path d="M272.941,355.192v 4.28927" fill="none" stroke="black"/>
<path d="M283.965,355.192v 4.28927" fill="none" stroke="black"/>
<path d="M294.988,355.192v 4.28927" fill="none" stroke="black"/>
<path d="M306.012,350.903v 8.57853" fill="none" stroke="black"/>
<path d="M317.035,355.192v 4.28927" fill="none" stroke="black"/>
<path d="M328.059,355.192v 4.28927" fill="none" stroke="black"/>
<path d="M339.083,355.192v 4.28927" fill="none" stroke="black"/>
<path d="M350.106,350.903v 8.57853" fill="none" stroke="black"/>
<path d="M361.13,355.192v 4.28927" fill="none" stroke="black"/>
<path d="M372.154,355.192v 4.28927" fill="none" stroke="black"/>
<path d="M383.177,355.192v 4.28927" fill="none" stroke="black"/>
<path d="M394.201,350.903v 8.57853" fill="none" stroke="black"/>
<path d="M405.224,355.192v 4.28927" fill="none" stroke="black"/>
<path d="M416.248,355.192v 4.28927" fill="none" stroke="black"/>
<path d="M427.272,355.192v 4.28927" fill="none" stroke="black"/>
<path d="M438.295,350.903v 8.57853" fill="none" stroke="black"/>
<path d="M449.319,355.192v 4.28927" fill="none" stroke="black"/>
<path d="M460.343,355.192v 4.28927" fill="none" stroke="black"/>
<path d="M471.366,355.192v 4.28927" fill="none" stroke="black"/>
<path d="M482.39,350.903v 8.57853" fill="none" stroke="black"/>
<text xml:space="preserve" x="81.4899" y="372.269" fill="black" font-size="13.617" font-family="Helvetica">2</text>
<text xml:space="preserve" x="125.537" y="372.269" fill="black" font-size="13.617" font-family="Helvetica">4</text>
<text xml:space="preserve" x="169.584" y="372.269" fill="black" font-size="13.617" font-family="Helvetica">6</text>
<text xml:space="preserve" x="213.631" y="372.269" fill="black" font-size="13.617" font-family="Helvetica">8</text>
<text xml:space="preserve" x="253.416" y="372.269" fill="black" font-size="13.617" font-family="Helvetica">10</text>
<text xml:space="preserve" x="298.173" y="372.269" fill="black" font-size="13.617" font-family="Helvetica">12</text>
<text xml:space="preserve" x="342.22" y="372.269" fill="black" font-size="13.617" font-family="Helvetica">14</text>
<text xml:space="preserve" x="386.268" y="372.269" fill="black" font-size="13.617" font-family="Helvetica">16</text>
<text xml:space="preserve" x="430.315" y="372.269" fill="black" font-size="13.617" font-family="Helvetica">18</text>
<text xml:space="preserve" x="474.362" y="372.269" fill="black" font-size="13.617" font-family="Helvetica">20</text>
<text xml:space="preserve" x="436.709" y="384.347" fill="black" font-size="13.617" font-family="Helvetica">(GeV/c)</text>
<text xml:space="preserve" x="431.025" y="392.162" fill="black" font-size="9.24468" font-family="Helvetica">T</text>
<text xml:space="preserve" x="423.21" y="384.347" fill="black" font-size="13.617" font-family="Helvetica">p</text>
<path d="M85.5394,20.4251h 396.85" fill="none" stroke="black"/>
<path d="M85.5394,29.0036v -8.57853" fill="none" stroke="black"/>
<path d="M96.563,24.7143v -4.28927" fill="none" stroke="black"/>
<path d="M107.587,24.7143v -4.28927" fill="none" stroke="black"/>
<path d="M118.61,24.7143v -4.28927" fill="none" stroke="black"/>
<path d="M129.634,29.0036v -8.57853" fill="none" stroke="black"/>
<path d="M140.657,24.7143v -4.28927" fill="none" stroke="black"/>
<path d="M151.681,24.7143v -4.28927" fill="none" stroke="black"/>
<path d="M162.705,24.7143v -4.28927" fill="none" stroke="black"/>
<path d="M173.728,29.0036v -8.57853" fill="none" stroke="black"/>
<path d="M184.752,24.7143v -4.28927" fill="none" stroke="black"/>
<path d="M195.776,24.7143v -4.28927" fill="none" stroke="black"/>
<path d="M206.799,24.7143v -4.28927" fill="none" stroke="black"/>
<path d="M217.823,29.0036v -8.57853" fill="none" stroke="black"/>
<path d="M228.846,24.7143v -4.28927" fill="none" stroke="black"/>
<path d="M239.87,24.7143v -4.28927" fill="none" stroke="black"/>
<path d="M250.894,24.7143v -4.28927" fill="none" stroke="black"/>
<path d="M261.917,29.0036v -8.57853" fill="none" stroke="black"/>
<path d="M272.941,24.7143v -4.28927" fill="none" stroke="black"/>
<path d="M283.965,24.7143v -4.28927" fill="none" stroke="black"/>
<path d="M294.988,24.7143v -4.28927" fill="none" stroke="black"/>
<path d="M306.012,29.0036v -8.57853" fill="none" stroke="black"/>
<path d="M317.035,24.7143v -4.28927" fill="none" stroke="black"/>
<path d="M328.059,24.7143v -4.28927" fill="none" stroke="black"/>
<path d="M339.083,24.7143v -4.28927" fill="none" stroke="black"/>
<path d="M350.106,29.0036v -8.57853" fill="none" stroke="black"/>
<path d="M361.13,24.7143v -4.28927" fill="none" stroke="black"/>
<path d="M372.154,24.7143v -4.28927" fill="none" stroke="black"/>
<path d="M383.177,24.7143v -4.28927" fill="none" stroke="black"/>
<path d="M394.201,29.0036v -8.57853" fill="none" stroke="black"/>
<path d="M405.224,24.7143v -4.28927" fill="none" stroke="black"/>
<path d="M416.248,24.7143v -4.28927" fill="none" stroke="black"/>
<path d="M427.272,24.7143v -4.28927" fill="none" stroke="black"/>
<path d="M438.295,29.0036v -8.57853" fill="none" stroke="black"/>
<path d="M449.319,24.7143v -4.28927" fill="none" stroke="black"/>
<path d="M460.343,24.7143v -4.28927" fill="none" stroke="black"/>
<path d="M471.366,24.7143v -4.28927" fill="none" stroke="black"/>
<path d="M482.39,29.0036v -8.57853" fill="none" stroke="black"/>
<path d="M85.5394,359.481v -339.056" fill="none" stroke="black"/>
<path d="M92.5976,359.481h -7.05827" fill="none" stroke="black"/>
<path d="M92.5976,355.804h -7.05827" fill="none" stroke="black"/>
<path d="M92.5976,352.695h -7.05827" fill="none" stroke="black"/>
<path d="M92.5976,350.002h -7.05827" fill="none" stroke="black"/>
<path d="M92.5976,347.627h -7.05827" fill="none" stroke="black"/>
<path d="M99.6559,345.502h -14.1165" fill="none" stroke="black"/>
<text xml:space="preserve" x="75.8064" y="345.273" fill="black" font-size="9.24468" font-family="Helvetica">8</text>
<text xml:space="preserve" x="70.8333" y="345.273" fill="black" font-size="9.24468" font-family="Times">&#8722;</text>
<text xml:space="preserve" x="55.9141" y="351.667" fill="black" font-size="13.617" font-family="Helvetica">10</text>
<path d="M92.5976,331.522h -7.05827" fill="none" stroke="black"/>
<path d="M92.5976,323.344h -7.05827" fill="none" stroke="black"/>
<path d="M92.5976,317.542h -7.05827" fill="none" stroke="black"/>
<path d="M92.5976,313.042h -7.05827" fill="none" stroke="black"/>
<path d="M92.5976,309.365h -7.05827" fill="none" stroke="black"/>
<path d="M92.5976,306.256h -7.05827" fill="none" stroke="black"/>
<path d="M92.5976,303.563h -7.05827" fill="none" stroke="black"/>
<path d="M92.5976,301.187h -7.05827" fill="none" stroke="black"/>
<path d="M99.6559,299.062h -14.1165" fill="none" stroke="black"/>
<text xml:space="preserve" x="75.8064" y="299.094" fill="black" font-size="9.24468" font-family="Helvetica">7</text>
<text xml:space="preserve" x="70.8333" y="299.094" fill="black" font-size="9.24468" font-family="Times">&#8722;</text>
<text xml:space="preserve" x="55.9141" y="304.778" fill="black" font-size="13.617" font-family="Helvetica">10</text>
<path d="M92.5976,285.082h -7.05827" fill="none" stroke="black"/>
<path d="M92.5976,276.905h -7.05827" fill="none" stroke="black"/>
<path d="M92.5976,271.103h -7.05827" fill="none" stroke="black"/>
<path d="M92.5976,266.602h -7.05827" fill="none" stroke="black"/>
<path d="M92.5976,262.925h -7.05827" fill="none" stroke="black"/>
<path d="M92.5976,259.816h -7.05827" fill="none" stroke="black"/>
<path d="M92.5976,257.123h -7.05827" fill="none" stroke="black"/>
<path d="M92.5976,254.748h -7.05827" fill="none" stroke="black"/>
<path d="M99.6559,252.623h -14.1165" fill="none" stroke="black"/>
<text xml:space="preserve" x="75.8064" y="252.205" fill="black" font-size="9.24468" font-family="Helvetica">6</text>
<text xml:space="preserve" x="70.8333" y="252.205" fill="black" font-size="9.24468" font-family="Times">&#8722;</text>
<text xml:space="preserve" x="55.9141" y="258.599" fill="black" font-size="13.617" font-family="Helvetica">10</text>
<path d="M92.5976,238.643h -7.05827" fill="none" stroke="black"/>
<path d="M92.5976,230.465h -7.05827" fill="none" stroke="black"/>
<path d="M92.5976,224.663h -7.05827" fill="none" stroke="black"/>
<path d="M92.5976,220.163h -7.05827" fill="none" stroke="black"/>
<path d="M92.5976,216.486h -7.05827" fill="none" stroke="black"/>
<path d="M92.5976,213.377h -7.05827" fill="none" stroke="black"/>
<path d="M92.5976,210.684h -7.05827" fill="none" stroke="black"/>
<path d="M92.5976,208.308h -7.05827" fill="none" stroke="black"/>
<path d="M99.6559,206.183h -14.1165" fill="none" stroke="black"/>
<text xml:space="preserve" x="75.8064" y="206.027" fill="black" font-size="9.24468" font-family="Helvetica">5</text>
<text xml:space="preserve" x="70.8333" y="206.027" fill="black" font-size="9.24468" font-family="Times">&#8722;</text>
<text xml:space="preserve" x="55.9141" y="212.421" fill="black" font-size="13.617" font-family="Helvetica">10</text>
<path d="M92.5976,192.203h -7.05827" fill="none" stroke="black"/>
<path d="M92.5976,184.026h -7.05827" fill="none" stroke="black"/>
<path d="M92.5976,178.224h -7.05827" fill="none" stroke="black"/>
<path d="M92.5976,173.723h -7.05827" fill="none" stroke="black"/>
<path d="M92.5976,170.046h -7.05827" fill="none" stroke="black"/>
<path d="M92.5976,166.937h -7.05827" fill="none" stroke="black"/>
<path d="M92.5976,164.244h -7.05827" fill="none" stroke="black"/>
<path d="M92.5976,161.869h -7.05827" fill="none" stroke="black"/>
<path d="M99.6559,159.744h -14.1165" fill="none" stroke="black"/>
<text xml:space="preserve" x="75.8064" y="159.848" fill="black" font-size="9.24468" font-family="Helvetica">4</text>
<text xml:space="preserve" x="70.8333" y="159.848" fill="black" font-size="9.24468" font-family="Times">&#8722;</text>
<text xml:space="preserve" x="55.9141" y="165.532" fill="black" font-size="13.617" font-family="Helvetica">10</text>
<path d="M92.5976,145.764h -7.05827" fill="none" stroke="black"/>
<path d="M92.5976,137.586h -7.05827" fill="none" stroke="black"/>
<path d="M92.5976,131.784h -7.05827" fill="none" stroke="black"/>
<path d="M92.5976,127.284h -7.05827" fill="none" stroke="black"/>
<path d="M92.5976,123.607h -7.05827" fill="none" stroke="black"/>
<path d="M92.5976,120.498h -7.05827" fill="none" stroke="black"/>
<path d="M92.5976,117.805h -7.05827" fill="none" stroke="black"/>
<path d="M92.5976,115.429h -7.05827" fill="none" stroke="black"/>
<path d="M99.6559,113.304h -14.1165" fill="none" stroke="black"/>
<text xml:space="preserve" x="75.8064" y="112.96" fill="black" font-size="9.24468" font-family="Helvetica">3</text>
<text xml:space="preserve" x="70.8333" y="112.96" fill="black" font-size="9.24468" font-family="Times">&#8722;</text>
<text xml:space="preserve" x="55.9141" y="119.354" fill="black" font-size="13.617" font-family="Helvetica">10</text>
<path d="M92.5976,99.3244h -7.05827" fill="none" stroke="black"/>
<path d="M92.5976,91.1468h -7.05827" fill="none" stroke="black"/>
<path d="M92.5976,85.3447h -7.05827" fill="none" stroke="black"/>
<path d="M92.5976,80.8443h -7.05827" fill="none" stroke="black"/>
<path d="M92.5976,77.1671h -7.05827" fill="none" stroke="black"/>
<path d="M92.5976,74.0582h -7.05827" fill="none" stroke="black"/>
<path d="M92.5976,71.365h -7.05827" fill="none" stroke="black"/>
<path d="M92.5976,68.9895h -7.05827" fill="none" stroke="black"/>
<path d="M99.6559,66.8646h -14.1165" fill="none" stroke="black"/>
<text xml:space="preserve" x="75.8064" y="67.4916" fill="black" font-size="9.24468" font-family="Helvetica">2</text>
<text xml:space="preserve" x="70.8333" y="67.4916" fill="black" font-size="9.24468" font-family="Times">&#8722;</text>
<text xml:space="preserve" x="55.9141" y="73.1751" fill="black" font-size="13.617" font-family="Helvetica">10</text>
<path d="M92.5976,52.8849h -7.05827" fill="none" stroke="black"/>
<path d="M92.5976,44.7073h -7.05827" fill="none" stroke="black"/>
<path d="M92.5976,38.9052h -7.05827" fill="none" stroke="black"/>
<path d="M92.5976,34.4048h -7.05827" fill="none" stroke="black"/>
<path d="M92.5976,30.7276h -7.05827" fill="none" stroke="black"/>
<path d="M92.5976,27.6187h -7.05827" fill="none" stroke="black"/>
<path d="M92.5976,24.9255h -7.05827" fill="none" stroke="black"/>
<path d="M92.5976,22.55h -7.05827" fill="none" stroke="black"/>
<path d="M99.6559,20.4251h -14.1165" fill="none" stroke="black"/>
<text xml:space="preserve" x="77.2272" y="20.6027" fill="black" font-size="9.24468" font-family="Helvetica">1</text>
<text xml:space="preserve" x="72.2542" y="20.6027" fill="black" font-size="9.24468" font-family="Times">&#8722;</text>
<text xml:space="preserve" x="57.335" y="26.2862" fill="black" font-size="13.617" font-family="Helvetica">10</text>
<g transform="rotate(-90,60.1768,27.7071)">
<text xml:space="preserve" x="60.1768" y="27.7071" fill="black" font-size="9.24468" font-family="Helvetica">T</text>
</g>
<g transform="rotate(-90,52.3619,42.6263)">
<text xml:space="preserve" x="52.3619" y="42.6263" fill="black" font-size="13.617" font-family="Helvetica">dp</text>
</g>
<g transform="rotate(-90,28.2071,23.4444)">
<text xml:space="preserve" x="28.2071" y="23.4444" fill="black" font-size="6.32979" font-family="Helvetica">0</text>
</g>
<g transform="rotate(-90,31.7593,28.4175)">
<text xml:space="preserve" x="31.7593" y="28.4175" fill="black" font-size="9.24468" font-family="Times">&#0960;</text>
</g>
<g transform="rotate(-90,38.1532,44.7576)">
<text xml:space="preserve" x="38.1532" y="44.7576" fill="black" font-size="13.617" font-family="Helvetica">dN</text>
</g>
<path d="M40.9949,44.7576v -24.8653" fill="none" stroke="black" stroke-width="2"/>
<g transform="rotate(-90,44.5471,49.0202)">
<text xml:space="preserve" x="44.5471" y="49.0202" fill="black" font-size="13.617" font-family="Helvetica"> </text>
</g>
<g transform="rotate(-90,56.6246,71.7542)">
<text xml:space="preserve" x="56.6246" y="71.7542" fill="black" font-size="9.24468" font-family="Helvetica">event</text>
</g>
<g transform="rotate(-90,52.3619,80.9899)">
<text xml:space="preserve" x="52.3619" y="80.9899" fill="black" font-size="13.617" font-family="Helvetica">N</text>
</g>
<g transform="rotate(-90,38.8636,67.4916)">
<text xml:space="preserve" x="38.8636" y="67.4916" fill="black" font-size="13.617" font-family="Helvetica">1</text>
</g>
<path d="M40.9949,80.9899v -31.9697" fill="none" stroke="black" stroke-width="2"/>
<path d="M482.39,359.481v -339.056" fill="none" stroke="black"/>
<path d="M475.332,359.481h 7.05827" fill="none" stroke="black"/>
<path d="M475.332,355.804h 7.05827" fill="none" stroke="black"/>
<path d="M475.332,352.695h 7.05827" fill="none" stroke="black"/>
<path d="M475.332,350.002h 7.05827" fill="none" stroke="black"/>
<path d="M475.332,347.627h 7.05827" fill="none" stroke="black"/>
<path d="M468.273,345.502h 14.1165" fill="none" stroke="black"/>
<path d="M475.332,331.522h 7.05827" fill="none" stroke="black"/>
<path d="M475.332,323.344h 7.05827" fill="none" stroke="black"/>
<path d="M475.332,317.542h 7.05827" fill="none" stroke="black"/>
<path d="M475.332,313.042h 7.05827" fill="none" stroke="black"/>
<path d="M475.332,309.365h 7.05827" fill="none" stroke="black"/>
<path d="M475.332,306.256h 7.05827" fill="none" stroke="black"/>
<path d="M475.332,303.563h 7.05827" fill="none" stroke="black"/>
<path d="M475.332,301.187h 7.05827" fill="none" stroke="black"/>
<path d="M468.273,299.062h 14.1165" fill="none" stroke="black"/>
<path d="M475.332,285.082h 7.05827" fill="none" stroke="black"/>
<path d="M475.332,276.905h 7.05827" fill="none" stroke="black"/>
<path d="M475.332,271.103h 7.05827" fill="none" stroke="black"/>
<path d="M475.332,266.602h 7.05827" fill="none" stroke="black"/>
<path d="M475.332,262.925h 7.05827" fill="none" stroke="black"/>
<path d="M475.332,259.816h 7.05827" fill="none" stroke="black"/>
<path d="M475.332,257.123h 7.05827" fill="none" stroke="black"/>
<path d="M475.332,254.748h 7.05827" fill="none" stroke="black"/>
<path d="M468.273,252.623h 14.1165" fill="none" stroke="black"/>
<path d="M475.332,238.643h 7.05827" fill="none" stroke="black"/>
<path d="M475.332,230.465h 7.05827" fill="none" stroke="black"/>
<path d="M475.332,224.663h 7.05827" fill="none" stroke="black"/>
<path d="M475.332,220.163h 7.05827" fill="none" stroke="black"/>
<path d="M475.332,216.486h 7.05827" fill="none" stroke="black"/>
<path d="M475.332,213.377h 7.05827" fill="none" stroke="black"/>
<path d="M475.332,210.684h 7.05827" fill="none" stroke="black"/>
<path d="M475.332,208.308h 7.05827" fill="none" stroke="black"/>
<path d="M468.273,206.183h 14.1165" fill="none" stroke="black"/>
<path d="M475.332,192.203h 7.05827" fill="none" stroke="black"/>
<path d="M475.332,184.026h 7.05827" fill="none" stroke="black"/>
<path d="M475.332,178.224h 7.05827" fill="none" stroke="black"/>
<path d="M475.332,173.723h 7.05827" fill="none" stroke="black"/>
<path d="M475.332,170.046h 7.05827" fill="none" stroke="black"/>
<path d="M475.332,166.937h 7.05827" fill="none" stroke="black"/>
<path d="M475.332,164.244h 7.05827" fill="none" stroke="black"/>
<path d="M475.332,161.869h 7.05827" fill="none" stroke="black"/>
<path d="M468.273,159.744h 14.1165" fill="none" stroke="black"/>
<path d="M475.332,145.764h 7.05827" fill="none" stroke="black"/>
<path d="M475.332,137.586h 7.05827" fill="none" stroke="black"/>
<path d="M475.332,131.784h 7.05827" fill="none" stroke="black"/>
<path d="M475.332,127.284h 7.05827" fill="none" stroke="black"/>
<path d="M475.332,123.607h 7.05827" fill="none" stroke="black"/>
<path d="M475.332,120.498h 7.05827" fill="none" stroke="black"/>
<path d="M475.332,117.805h 7.05827" fill="none" stroke="black"/>
<path d="M475.332,115.429h 7.05827" fill="none" stroke="black"/>
<path d="M468.273,113.304h 14.1165" fill="none" stroke="black"/>
<path d="M475.332,99.3244h 7.05827" fill="none" stroke="black"/>
<path d="M475.332,91.1468h 7.05827" fill="none" stroke="black"/>
<path d="M475.332,85.3447h 7.05827" fill="none" stroke="black"/>
<path d="M475.332,80.8443h 7.05827" fill="none" stroke="black"/>
<path d="M475.332,77.1671h 7.05827" fill="none" stroke="black"/>
<path d="M475.332,74.0582h 7.05827" fill="none" stroke="black"/>
<path d="M475.332,71.365h 7.05827" fill="none" stroke="black"/>
<path d="M475.332,68.9895h 7.05827" fill="none" stroke="black"/>
<path d="M468.273,66.8646h 14.1165" fill="none" stroke="black"/>
<path d="M475.332,52.8849h 7.05827" fill="none" stroke="black"/>
<path d="M475.332,44.7073h 7.05827" fill="none" stroke="black"/>
<path d="M475.332,38.9052h 7.05827" fill="none" stroke="black"/>
<path d="M475.332,34.4048h 7.05827" fill="none" stroke="black"/>
<path d="M475.332,30.7276h 7.05827" fill="none" stroke="black"/>
<path d="M475.332,27.6187h 7.05827" fill="none" stroke="black"/>
<path d="M475.332,24.9255h 7.05827" fill="none" stroke="black"/>
<path d="M475.332,22.55h 7.05827" fill="none" stroke="black"/>
<path d="M468.273,20.4251h 14.1165" fill="none" stroke="black"/>
<path d="M85.5394,60.7921h 8.18187" fill="none" stroke="black"/>
<path d="M99.4047,60.7921h 8.18187" fill="none" stroke="black"/>
<g fill="black">
<polygon points=" 95.6157, 59.8448 95.6157, 57.9503 97.5102, 57.9503 97.5102, 59.8448 99.4047, 59.8448 99.4047, 61.7393 97.5102, 61.7393 97.5102, 63.6338 95.6157, 63.6338 95.6157, 61.7393 93.7212, 61.7393 93.7212, 59.8448"/>
</g>
<path d="M107.587,116.029h 19.2055" fill="none" stroke="black"/>
<path d="M132.476,116.029h 19.2055" fill="none" stroke="black"/>
<g fill="black">
<polygon points=" 128.687, 115.082 128.687, 113.187 130.581, 113.187 130.581, 115.082 132.476, 115.082 132.476, 116.976 130.581, 116.976 130.581, 118.871 128.687, 118.871 128.687, 116.976 126.792, 116.976 126.792, 115.082"/>
</g>
<path d="M151.681,178.756h 19.2055" fill="none" stroke="black"/>
<path d="M176.57,178.756h 19.2055" fill="none" stroke="black"/>
<g fill="black">
<polygon points=" 172.781, 177.809 172.781, 175.914 174.676, 175.914 174.676, 177.809 176.57, 177.809 176.57, 179.703 174.676, 179.703 174.676, 181.598 172.781, 181.598 172.781, 179.703 170.887, 179.703 170.887, 177.809"/>
</g>
<path d="M195.776,222.357h 19.2055" fill="none" stroke="black"/>
<path d="M220.665,222.357h 19.2055" fill="none" stroke="black"/>
<g fill="black">
<polygon points=" 216.876, 221.41 216.876, 219.516 218.77, 219.516 218.77, 221.41 220.665, 221.41 220.665, 223.305 218.77, 223.305 218.77, 225.199 216.876, 225.199 216.876, 223.305 214.981, 223.305 214.981, 221.41"/>
</g>
<path d="M239.87,255.152h 19.2055" fill="none" stroke="black"/>
<path d="M264.759,255.152h 19.2055" fill="none" stroke="black"/>
<g fill="black">
<polygon points=" 260.97, 254.205 260.97, 252.31 262.865, 252.31 262.865, 254.205 264.759, 254.205 264.759, 256.099 262.865, 256.099 262.865, 257.994 260.97, 257.994 260.97, 256.099 259.076, 256.099 259.076, 254.205"/>
</g>
<path d="M283.965,290.598h 41.2527" fill="none" stroke="black"/>
<path d="M330.901,290.598h 41.2527" fill="none" stroke="black"/>
<g fill="black">
<polygon points=" 327.112, 289.65 327.112, 287.756 329.006, 287.756 329.006, 289.65 330.901, 289.65 330.901, 291.545 329.006, 291.545 329.006, 293.439 327.112, 293.439 327.112, 291.545 325.217, 291.545 325.217, 289.65"/>
</g>
<path d="M372.154,336.757h 52.2764" fill="none" stroke="black"/>
<path d="M430.113,336.757h 52.2764" fill="none" stroke="black"/>
<g fill="black">
<polygon points=" 426.324, 335.809 426.324, 333.915 428.219, 333.915 428.219, 335.809 430.113, 335.809 430.113, 337.704 428.219, 337.704 428.219, 339.598 426.324, 339.598 426.324, 337.704 424.43, 337.704 424.43, 335.809"/>
</g>
<path d="M85.5394,51.8206h 8.18187" fill="none" stroke="#ffcc00"/>
<path d="M99.4047,51.8206h 8.18187" fill="none" stroke="#ffcc00"/>
<g fill="#ffcc00">
<polygon points=" 95.6157, 50.8733 95.6157, 48.9788 97.5102, 48.9788 97.5102, 50.8733 99.4047, 50.8733 99.4047, 52.7678 97.5102, 52.7678 97.5102, 54.6623 95.6157, 54.6623 95.6157, 52.7678 93.7212, 52.7678 93.7212, 50.8733"/>
</g>
<path d="M107.587,107.816h 19.2055" fill="none" stroke="#ffcc00"/>
<path d="M132.476,107.816h 19.2055" fill="none" stroke="#ffcc00"/>
<g fill="#ffcc00">
<polygon points=" 128.687, 106.869 128.687, 104.974 130.581, 104.974 130.581, 106.869 132.476, 106.869 132.476, 108.763 130.581, 108.763 130.581, 110.658 128.687, 110.658 128.687, 108.763 126.792, 108.763 126.792, 106.869"/>
</g>
<path d="M151.681,172.449h 19.2055" fill="none" stroke="#ffcc00"/>
<path d="M176.57,172.449h 19.2055" fill="none" stroke="#ffcc00"/>
<g fill="#ffcc00">
<polygon points=" 172.781, 171.502 172.781, 169.608 174.676, 169.608 174.676, 171.502 176.57, 171.502 176.57, 173.397 174.676, 173.397 174.676, 175.291 172.781, 175.291 172.781, 173.397 170.887, 173.397 170.887, 171.502"/>
</g>
<path d="M195.776,217.736h 19.2055" fill="none" stroke="#ffcc00"/>
<path d="M220.665,217.736h 19.2055" fill="none" stroke="#ffcc00"/>
<g fill="#ffcc00">
<polygon points=" 216.876, 216.789 216.876, 214.894 218.77, 214.894 218.77, 216.789 220.665, 216.789 220.665, 218.683 218.77, 218.683 218.77, 220.578 216.876, 220.578 216.876, 218.683 214.981, 218.683 214.981, 216.789"/>
</g>
<path d="M239.87,251.28h 19.2055" fill="none" stroke="#ffcc00"/>
<path d="M264.759,251.28h 19.2055" fill="none" stroke="#ffcc00"/>
<g fill="#ffcc00">
<polygon points=" 260.97, 250.332 260.97, 248.438 262.865, 248.438 262.865, 250.332 264.759, 250.332 264.759, 252.227 262.865, 252.227 262.865, 254.121 260.97, 254.121 260.97, 252.227 259.076, 252.227 259.076, 250.332"/>
</g>
<path d="M283.965,287.862h 41.2527" fill="none" stroke="#ffcc00"/>
<path d="M330.901,287.862h 41.2527" fill="none" stroke="#ffcc00"/>
<g fill="#ffcc00">
<polygon points=" 327.112, 286.915 327.112, 285.021 329.006, 285.021 329.006, 286.915 330.901, 286.915 330.901, 288.81 329.006, 288.81 329.006, 290.704 327.112, 290.704 327.112, 288.81 325.217, 288.81 325.217, 286.915"/>
</g>
<path d="M372.154,338.534h 52.2764" fill="none" stroke="#ffcc00"/>
<path d="M430.113,338.534h 52.2764" fill="none" stroke="#ffcc00"/>
<g fill="#ffcc00">
<polygon points=" 426.324, 337.586 426.324, 335.692 428.219, 335.692 428.219, 337.586 430.113, 337.586 430.113, 339.481 428.219, 339.481 428.219, 341.375 426.324, 341.375 426.324, 339.481 424.43, 339.481 424.43, 337.586"/>
</g>
<path d="M85.5394,53.8167h 8.18187" fill="none" stroke="#ff0000"/>
<path d="M99.4047,53.8167h 8.18187" fill="none" stroke="#ff0000"/>
<g fill="#ff0000">
<polygon points=" 95.6157, 52.8695 95.6157, 50.975 97.5102, 50.975 97.5102, 52.8695 99.4047, 52.8695 99.4047, 54.764 97.5102, 54.764 97.5102, 56.6585 95.6157, 56.6585 95.6157, 54.764 93.7212, 54.764 93.7212, 52.8695"/>
</g>
<path d="M107.587,109.489h 19.2055" fill="none" stroke="#ff0000"/>
<path d="M132.476,109.489h 19.2055" fill="none" stroke="#ff0000"/>
<g fill="#ff0000">
<polygon points=" 128.687, 108.541 128.687, 106.647 130.581, 106.647 130.581, 108.541 132.476, 108.541 132.476, 110.436 130.581, 110.436 130.581, 112.33 128.687, 112.33 128.687, 110.436 126.792, 110.436 126.792, 108.541"/>
</g>
<path d="M151.681,173.239h 19.2055" fill="none" stroke="#ff0000"/>
<path d="M176.57,173.239h 19.2055" fill="none" stroke="#ff0000"/>
<g fill="#ff0000">
<polygon points=" 172.781, 172.292 172.781, 170.397 174.676, 170.397 174.676, 172.292 176.57, 172.292 176.57, 174.186 174.676, 174.186 174.676, 176.081 172.781, 176.081 172.781, 174.186 170.887, 174.186 170.887, 172.292"/>
</g>
<path d="M195.776,217.709h 19.2055" fill="none" stroke="#ff0000"/>
<path d="M220.665,217.709h 19.2055" fill="none" stroke="#ff0000"/>
<g fill="#ff0000">
<polygon points=" 216.876, 216.762 216.876, 214.868 218.77, 214.868 218.77, 216.762 220.665, 216.762 220.665, 218.657 218.77, 218.657 218.77, 220.551 216.876, 220.551 216.876, 218.657 214.981, 218.657 214.981, 216.762"/>
</g>
<path d="M239.87,251.915h 19.2055" fill="none" stroke="#ff0000"/>
<path d="M264.759,251.915h 19.2055" fill="none" stroke="#ff0000"/>
<g fill="#ff0000">
<polygon points=" 260.97, 250.967 260.97, 249.073 262.865, 249.073 262.865, 250.967 264.759, 250.967 264.759, 252.862 262.865, 252.862 262.865, 254.756 260.97, 254.756 260.97, 252.862 259.076, 252.862 259.076, 250.967"/>
</g>
<path d="M283.965,287.179h 41.2527" fill="none" stroke="#ff0000"/>
<path d="M330.901,287.179h 41.2527" fill="none" stroke="#ff0000"/>
<g fill="#ff0000">
<polygon points=" 327.112, 286.232 327.112, 284.338 329.006, 284.338 329.006, 286.232 330.901, 286.232 330.901, 288.127 329.006, 288.127 329.006, 290.021 327.112, 290.021 327.112, 288.127 325.217, 288.127 325.217, 286.232"/>
</g>
<path d="M372.154,336.258h 52.2764" fill="none" stroke="#ff0000"/>
<path d="M430.113,336.258h 52.2764" fill="none" stroke="#ff0000"/>
<g fill="#ff0000">
<polygon points=" 426.324, 335.311 426.324, 333.416 428.219, 333.416 428.219, 335.311 430.113, 335.311 430.113, 337.205 428.219, 337.205 428.219, 339.1 426.324, 339.1 426.324, 337.205 424.43, 337.205 424.43, 335.311"/>
</g>
<path d="M85.5394,56.0868h 8.18187" fill="none" stroke="#ff0033"/>
<path d="M99.4047,56.0868h 8.18187" fill="none" stroke="#ff0033"/>
<g stroke="#ff0033" stroke-width="1" fill="none">
<polygon points=" 95.6157, 55.1396 95.6157, 53.2451 97.5102, 53.2451 97.5102, 55.1396 99.4047, 55.1396 99.4047, 57.0341 97.5102, 57.0341 97.5102, 58.9286 95.6157, 58.9286 95.6157, 57.0341 93.7212, 57.0341 93.7212, 55.1396"/>
</g>
<path d="M107.587,111.493h 19.2055" fill="none" stroke="#ff0033"/>
<path d="M132.476,111.493h 19.2055" fill="none" stroke="#ff0033"/>
<g stroke="#ff0033" stroke-width="1" fill="none">
<polygon points=" 128.687, 110.546 128.687, 108.652 130.581, 108.652 130.581, 110.546 132.476, 110.546 132.476, 112.441 130.581, 112.441 130.581, 114.335 128.687, 114.335 128.687, 112.441 126.792, 112.441 126.792, 110.546"/>
</g>
<path d="M151.681,174.668h 19.2055" fill="none" stroke="#ff0033"/>
<path d="M176.57,174.668h 19.2055" fill="none" stroke="#ff0033"/>
<g stroke="#ff0033" stroke-width="1" fill="none">
<polygon points=" 172.781, 173.721 172.781, 171.826 174.676, 171.826 174.676, 173.721 176.57, 173.721 176.57, 175.615 174.676, 175.615 174.676, 177.51 172.781, 177.51 172.781, 175.615 170.887, 175.615 170.887, 173.721"/>
</g>
<path d="M195.776,218.716h 19.2055" fill="none" stroke="#ff0033"/>
<path d="M220.665,218.716h 19.2055" fill="none" stroke="#ff0033"/>
<g stroke="#ff0033" stroke-width="1" fill="none">
<polygon points=" 216.876, 217.769 216.876, 215.875 218.77, 215.875 218.77, 217.769 220.665, 217.769 220.665, 219.664 218.77, 219.664 218.77, 221.558 216.876, 221.558 216.876, 219.664 214.981, 219.664 214.981, 217.769"/>
</g>
<path d="M239.87,251.616h 19.2055" fill="none" stroke="#ff0033"/>
<path d="M264.759,251.616h 19.2055" fill="none" stroke="#ff0033"/>
<g stroke="#ff0033" stroke-width="1" fill="none">
<polygon points=" 260.97, 250.669 260.97, 248.774 262.865, 248.774 262.865, 250.669 264.759, 250.669 264.759, 252.563 262.865, 252.563 262.865, 254.458 260.97, 254.458 260.97, 252.563 259.076, 252.563 259.076, 250.669"/>
</g>
<path d="M283.965,287.441h 41.2527" fill="none" stroke="#ff0033"/>
<path d="M330.901,287.441h 41.2527" fill="none" stroke="#ff0033"/>
<g stroke="#ff0033" stroke-width="1" fill="none">
<polygon points=" 327.112, 286.494 327.112, 284.6 329.006, 284.6 329.006, 286.494 330.901, 286.494 330.901, 288.389 329.006, 288.389 329.006, 290.283 327.112, 290.283 327.112, 288.389 325.217, 288.389 325.217, 286.494"/>
</g>
<path d="M372.154,335.49h 52.2764" fill="none" stroke="#ff0033"/>
<path d="M430.113,335.49h 52.2764" fill="none" stroke="#ff0033"/>
<g stroke="#ff0033" stroke-width="1" fill="none">
<polygon points=" 426.324, 334.543 426.324, 332.649 428.219, 332.649 428.219, 334.543 430.113, 334.543 430.113, 336.438 428.219, 336.438 428.219, 338.332 426.324, 338.332 426.324, 336.438 424.43, 336.438 424.43, 334.543"/>
</g>
<path d="M85.5394,60.0132h 9.60275" fill="none" stroke="#ff00ff"/>
<path d="M97.9839,60.0132h 9.60275" fill="none" stroke="#ff00ff"/>
<g fill="#ff00ff">
<polygon points=" 96.563, 61.4341 95.1421, 62.855 93.7212, 61.4341 95.1421, 60.0132 93.7212, 58.5924 95.1421, 57.1715 96.563, 58.5924 97.9839, 57.1715 99.4047, 58.5924 97.9839, 60.0132 99.4047, 61.4341 97.9839, 62.855 96.563, 61.4341"/>
</g>
<path d="M107.587,115.073h 20.6264" fill="none" stroke="#ff00ff"/>
<path d="M131.055,115.073h 20.6264" fill="none" stroke="#ff00ff"/>
<g fill="#ff00ff">
<polygon points=" 129.634, 116.494 128.213, 117.915 126.792, 116.494 128.213, 115.073 126.792, 113.652 128.213, 112.232 129.634, 113.652 131.055, 112.232 132.476, 113.652 131.055, 115.073 132.476, 116.494 131.055, 117.915 129.634, 116.494"/>
</g>
<path d="M151.681,177.383h 20.6264" fill="none" stroke="#ff00ff"/>
<path d="M175.149,177.383h 20.6264" fill="none" stroke="#ff00ff"/>
<g fill="#ff00ff">
<polygon points=" 173.728, 178.804 172.307, 180.225 170.887, 178.804 172.307, 177.383 170.887, 175.963 172.307, 174.542 173.728, 175.963 175.149, 174.542 176.57, 175.963 175.149, 177.383 176.57, 178.804 175.149, 180.225 173.728, 178.804"/>
</g>
<path d="M195.776,220.971h 20.6264" fill="none" stroke="#ff00ff"/>
<path d="M219.244,220.971h 20.6264" fill="none" stroke="#ff00ff"/>
<g fill="#ff00ff">
<polygon points=" 217.823, 222.392 216.402, 223.813 214.981, 222.392 216.402, 220.971 214.981, 219.55 216.402, 218.13 217.823, 219.55 219.244, 218.13 220.665, 219.55 219.244, 220.971 220.665, 222.392 219.244, 223.813 217.823, 222.392"/>
</g>
<path d="M239.87,253.757h 20.6264" fill="none" stroke="#ff00ff"/>
<path d="M263.338,253.757h 20.6264" fill="none" stroke="#ff00ff"/>
<g fill="#ff00ff">
<polygon points=" 261.917, 255.178 260.496, 256.599 259.076, 255.178 260.496, 253.757 259.076, 252.336 260.496, 250.915 261.917, 252.336 263.338, 250.915 264.759, 252.336 263.338, 253.757 264.759, 255.178 263.338, 256.599 261.917, 255.178"/>
</g>
<path d="M283.965,289.212h 42.6736" fill="none" stroke="#ff00ff"/>
<path d="M329.48,289.212h 42.6736" fill="none" stroke="#ff00ff"/>
<g fill="#ff00ff">
<polygon points=" 328.059, 290.633 326.638, 292.054 325.217, 290.633 326.638, 289.212 325.217, 287.791 326.638, 286.37 328.059, 287.791 329.48, 286.37 330.901, 287.791 329.48, 289.212 330.901, 290.633 329.48, 292.054 328.059, 290.633"/>
</g>
<path d="M427.272,334.659v -0.150465" fill="none" stroke="#ff00ff"/>
<path d="M427.272,331.667v -0.0368402" fill="none" stroke="#ff00ff"/>
<path d="M372.154,333.088h 53.6972" fill="none" stroke="#ff00ff"/>
<path d="M428.693,333.088h 53.6972" fill="none" stroke="#ff00ff"/>
<g fill="#ff00ff">
<polygon points=" 427.272, 334.509 425.851, 335.929 424.43, 334.509 425.851, 333.088 424.43, 331.667 425.851, 330.246 427.272, 331.667 428.693, 330.246 430.113, 331.667 428.693, 333.088 430.113, 334.509 428.693, 335.929 427.272, 334.509"/>
</g>
<path d="M85.5394,66.5445h 8.18187" fill="none" stroke="#cc00ff"/>
<path d="M99.4047,66.5445h 8.18187" fill="none" stroke="#cc00ff"/>
<g stroke="#cc00ff" stroke-width="1" fill="none">
<polygon points=" 95.6157, 65.5973 95.6157, 63.7028 97.5102, 63.7028 97.5102, 65.5973 99.4047, 65.5973 99.4047, 67.4918 97.5102, 67.4918 97.5102, 69.3863 95.6157, 69.3863 95.6157, 67.4918 93.7212, 67.4918 93.7212, 65.5973"/>
</g>
<path d="M107.587,121.26h 19.2055" fill="none" stroke="#cc00ff"/>
<path d="M132.476,121.26h 19.2055" fill="none" stroke="#cc00ff"/>
<g stroke="#cc00ff" stroke-width="1" fill="none">
<polygon points=" 128.687, 120.313 128.687, 118.418 130.581, 118.418 130.581, 120.313 132.476, 120.313 132.476, 122.207 130.581, 122.207 130.581, 124.102 128.687, 124.102 128.687, 122.207 126.792, 122.207 126.792, 120.313"/>
</g>
<path d="M151.681,182.915h 19.2055" fill="none" stroke="#cc00ff"/>
<path d="M176.57,182.915h 19.2055" fill="none" stroke="#cc00ff"/>
<g stroke="#cc00ff" stroke-width="1" fill="none">
<polygon points=" 172.781, 181.967 172.781, 180.073 174.676, 180.073 174.676, 181.967 176.57, 181.967 176.57, 183.862 174.676, 183.862 174.676, 185.756 172.781, 185.756 172.781, 183.862 170.887, 183.862 170.887, 181.967"/>
</g>
<path d="M195.776,225.395h 19.2055" fill="none" stroke="#cc00ff"/>
<path d="M220.665,225.395h 19.2055" fill="none" stroke="#cc00ff"/>
<g stroke="#cc00ff" stroke-width="1" fill="none">
<polygon points=" 216.876, 224.447 216.876, 222.553 218.77, 222.553 218.77, 224.447 220.665, 224.447 220.665, 226.342 218.77, 226.342 218.77, 228.236 216.876, 228.236 216.876, 226.342 214.981, 226.342 214.981, 224.447"/>
</g>
<path d="M239.87,257.642h 19.2055" fill="none" stroke="#cc00ff"/>
<path d="M264.759,257.642h 19.2055" fill="none" stroke="#cc00ff"/>
<g stroke="#cc00ff" stroke-width="1" fill="none">
<polygon points=" 260.97, 256.695 260.97, 254.801 262.865, 254.801 262.865, 256.695 264.759, 256.695 264.759, 258.59 262.865, 258.59 262.865, 260.484 260.97, 260.484 260.97, 258.59 259.076, 258.59 259.076, 256.695"/>
</g>
<path d="M283.965,292.197h 41.2527" fill="none" stroke="#cc00ff"/>
<path d="M330.901,292.197h 41.2527" fill="none" stroke="#cc00ff"/>
<g stroke="#cc00ff" stroke-width="1" fill="none">
<polygon points=" 327.112, 291.249 327.112, 289.355 329.006, 289.355 329.006, 291.249 330.901, 291.249 330.901, 293.144 329.006, 293.144 329.006, 295.038 327.112, 295.038 327.112, 293.144 325.217, 293.144 325.217, 291.249"/>
</g>
<path d="M372.154,336.683h 52.2764" fill="none" stroke="#cc00ff"/>
<path d="M430.113,336.683h 52.2764" fill="none" stroke="#cc00ff"/>
<g stroke="#cc00ff" stroke-width="1" fill="none">
<polygon points=" 426.324, 335.736 426.324, 333.842 428.219, 333.842 428.219, 335.736 430.113, 335.736 430.113, 337.631 428.219, 337.631 428.219, 339.525 426.324, 339.525 426.324, 337.631 424.43, 337.631 424.43, 335.736"/>
</g>
<text xml:space="preserve" x="232.813" y="51.8619" fill="black" font-size="15.4909" font-family="Helvetica">PYTHIA8, pAu200GeV with option3</text>
<text xml:space="preserve" x="278.281" y="66.7811" fill="black" font-size="15.4909" font-family="Helvetica">|&lt;1</text>
<text xml:space="preserve" x="269.756" y="66.7811" fill="black" font-size="15.4909" font-family="Times">&#0951;</text>
<text xml:space="preserve" x="247.022" y="66.7811" fill="black" font-size="15.4909" font-family="Helvetica"> in |</text>
<text xml:space="preserve" x="241.338" y="61.0976" fill="black" font-size="10.4939" font-family="Helvetica">0</text>
<text xml:space="preserve" x="232.813" y="66.7811" fill="black" font-size="15.4909" font-family="Times">&#0960;</text>
<text xml:space="preserve" x="283.965" y="82.4108" fill="black" font-size="15.4909" font-family="Helvetica">all inelastic(MB)</text>
<g fill="black">
<polygon points=" 254.671, 78.1999 254.671, 76.3054 256.565, 76.3054 256.565, 78.1999 258.46, 78.1999 258.46, 80.0944 256.565, 80.0944 256.565, 81.9889 254.671, 81.9889 254.671, 80.0944 252.776, 80.0944 252.776, 78.1999"/>
</g>
<text xml:space="preserve" x="283.965" y="97.3299" fill="black" font-size="15.4909" font-family="Helvetica">cent: 0~10%</text>
<g fill="#ffcc00">
<polygon points=" 254.671, 93.5187 254.671, 91.6242 256.565, 91.6242 256.565, 93.5187 258.46, 93.5187 258.46, 95.4132 256.565, 95.4132 256.565, 97.3077 254.671, 97.3077 254.671, 95.4132 252.776, 95.4132 252.776, 93.5187"/>
</g>
<text xml:space="preserve" x="283.965" y="112.96" fill="black" font-size="15.4909" font-family="Helvetica">cent: 10~20%</text>
<g fill="#ff0000">
<polygon points=" 254.671, 108.838 254.671, 106.943 256.565, 106.943 256.565, 108.838 258.46, 108.838 258.46, 110.732 256.565, 110.732 256.565, 112.627 254.671, 112.627 254.671, 110.732 252.776, 110.732 252.776, 108.838"/>
</g>
<text xml:space="preserve" x="283.965" y="127.879" fill="black" font-size="15.4909" font-family="Helvetica">cent: 20~40%</text>
<g stroke="#ff0033" stroke-width="1" fill="none">
<polygon points=" 254.671, 124.156 254.671, 122.262 256.565, 122.262 256.565, 124.156 258.46, 124.156 258.46, 126.051 256.565, 126.051 256.565, 127.945 254.671, 127.945 254.671, 126.051 252.776, 126.051 252.776, 124.156"/>
</g>
<text xml:space="preserve" x="283.965" y="143.508" fill="black" font-size="15.4909" font-family="Helvetica">cent: 40~60%</text>
<g fill="#ff00ff">
<polygon points=" 255.618, 141.843 254.197, 143.264 252.776, 141.843 254.197, 140.422 252.776, 139.002 254.197, 137.581 255.618, 139.002 257.039, 137.581 258.46, 139.002 257.039, 140.422 258.46, 141.843 257.039, 143.264 255.618, 141.843"/>
</g>
<text xml:space="preserve" x="283.965" y="159.138" fill="black" font-size="15.4909" font-family="Helvetica">cent: 60~80%</text>
<g stroke="#cc00ff" stroke-width="1" fill="none">
<polygon points=" 254.671, 154.794 254.671, 152.899 256.565, 152.899 256.565, 154.794 258.46, 154.794 258.46, 156.688 256.565, 156.688 256.565, 158.583 254.671, 158.583 254.671, 156.688 252.776, 156.688 252.776, 154.794"/>
</g></svg>
