<?xml version="1.0" standalone="no"?>
<svg width="567.429" height="409.002" viewBox="0 0 567.429 409.002" xmlns="http://www.w3.org/2000/svg" shape-rendering="crispEdges">
<title>
/Users/jinhyunpark/npl/gitHub/Centrality_dependent_BiasCorrection/plots/plots_scaled-dNdpT/ratio_scaledYield_highpT_directPhoton_cent2mb.svg
</title>
<desc>
Creator: ROOT Version 6.28/04
CreationDate: Tue Oct 24 12:31:22 2023</desc>
<defs>
</defs>
<rect x="0.5" y="0" width="566.929" height="408.502" fill="white"/>
<rect x="68.5315" y="20.4251" width="430.866" height="339.056" fill="white"/>
<rect x="68.5315" y="20.4251" width="430.866" height="339.056" fill="none" stroke="black"/>
<rect x="68.5315" y="20.4251" width="430.866" height="339.056" fill="white"/>
<rect x="68.5315" y="20.4251" width="430.866" height="339.056" fill="none" stroke="black"/>
<path d="M68.5315,359.481h 430.866" fill="none" stroke="black"/>
<path d="M68.5315,350.168v 9.31384" fill="none" stroke="black"/>
<path d="M80.5,354.824v 4.65692" fill="none" stroke="black"/>
<path d="M92.4685,354.824v 4.65692" fill="none" stroke="black"/>
<path d="M104.437,354.824v 4.65692" fill="none" stroke="black"/>
<path d="M116.406,350.168v 9.31384" fill="none" stroke="black"/>
<path d="M128.374,354.824v 4.65692" fill="none" stroke="black"/>
<path d="M140.343,354.824v 4.65692" fill="none" stroke="black"/>
<path d="M152.311,354.824v 4.65692" fill="none" stroke="black"/>
<path d="M164.28,350.168v 9.31384" fill="none" stroke="black"/>
<path d="M176.248,354.824v 4.65692" fill="none" stroke="black"/>
<path d="M188.217,354.824v 4.65692" fill="none" stroke="black"/>
<path d="M200.185,354.824v 4.65692" fill="none" stroke="black"/>
<path d="M212.154,350.168v 9.31384" fill="none" stroke="black"/>
<path d="M224.122,354.824v 4.65692" fill="none" stroke="black"/>
<path d="M236.091,354.824v 4.65692" fill="none" stroke="black"/>
<path d="M248.059,354.824v 4.65692" fill="none" stroke="black"/>
<path d="M260.028,350.168v 9.31384" fill="none" stroke="black"/>
<path d="M271.996,354.824v 4.65692" fill="none" stroke="black"/>
<path d="M283.965,354.824v 4.65692" fill="none" stroke="black"/>
<path d="M295.933,354.824v 4.65692" fill="none" stroke="black"/>
<path d="M307.902,350.168v 9.31384" fill="none" stroke="black"/>
<path d="M319.87,354.824v 4.65692" fill="none" stroke="black"/>
<path d="M331.839,354.824v 4.65692" fill="none" stroke="black"/>
<path d="M343.807,354.824v 4.65692" fill="none" stroke="black"/>
<path d="M355.776,350.168v 9.31384" fill="none" stroke="black"/>
<path d="M367.744,354.824v 4.65692" fill="none" stroke="black"/>
<path d="M379.713,354.824v 4.65692" fill="none" stroke="black"/>
<path d="M391.681,354.824v 4.65692" fill="none" stroke="black"/>
<path d="M403.65,350.168v 9.31384" fill="none" stroke="black"/>
<path d="M415.618,354.824v 4.65692" fill="none" stroke="black"/>
<path d="M427.587,354.824v 4.65692" fill="none" stroke="black"/>
<path d="M439.555,354.824v 4.65692" fill="none" stroke="black"/>
<path d="M451.524,350.168v 9.31384" fill="none" stroke="black"/>
<path d="M463.492,354.824v 4.65692" fill="none" stroke="black"/>
<path d="M475.461,354.824v 4.65692" fill="none" stroke="black"/>
<path d="M487.429,354.824v 4.65692" fill="none" stroke="black"/>
<path d="M499.398,350.168v 9.31384" fill="none" stroke="black"/>
<text xml:space="preserve" x="64.4394" y="372.269" fill="black" font-size="13.617" font-family="Helvetica">2</text>
<text xml:space="preserve" x="112.749" y="372.269" fill="black" font-size="13.617" font-family="Helvetica">4</text>
<text xml:space="preserve" x="160.348" y="372.269" fill="black" font-size="13.617" font-family="Helvetica">6</text>
<text xml:space="preserve" x="207.948" y="372.269" fill="black" font-size="13.617" font-family="Helvetica">8</text>
<text xml:space="preserve" x="251.995" y="372.269" fill="black" font-size="13.617" font-family="Helvetica">10</text>
<text xml:space="preserve" x="299.594" y="372.269" fill="black" font-size="13.617" font-family="Helvetica">12</text>
<text xml:space="preserve" x="347.904" y="372.269" fill="black" font-size="13.617" font-family="Helvetica">14</text>
<text xml:space="preserve" x="395.503" y="372.269" fill="black" font-size="13.617" font-family="Helvetica">16</text>
<text xml:space="preserve" x="443.103" y="372.269" fill="black" font-size="13.617" font-family="Helvetica">18</text>
<text xml:space="preserve" x="491.412" y="372.269" fill="black" font-size="13.617" font-family="Helvetica">20</text>
<text xml:space="preserve" x="453.759" y="384.347" fill="black" font-size="13.617" font-family="Helvetica">(GeV/c)</text>
<text xml:space="preserve" x="448.076" y="392.162" fill="black" font-size="9.24468" font-family="Helvetica">T</text>
<text xml:space="preserve" x="440.261" y="384.347" fill="black" font-size="13.617" font-family="Helvetica">p</text>
<path d="M68.5315,20.4251h 430.866" fill="none" stroke="black"/>
<path d="M68.5315,29.7389v -9.31384" fill="none" stroke="black"/>
<path d="M80.5,25.082v -4.65692" fill="none" stroke="black"/>
<path d="M92.4685,25.082v -4.65692" fill="none" stroke="black"/>
<path d="M104.437,25.082v -4.65692" fill="none" stroke="black"/>
<path d="M116.406,29.7389v -9.31384" fill="none" stroke="black"/>
<path d="M128.374,25.082v -4.65692" fill="none" stroke="black"/>
<path d="M140.343,25.082v -4.65692" fill="none" stroke="black"/>
<path d="M152.311,25.082v -4.65692" fill="none" stroke="black"/>
<path d="M164.28,29.7389v -9.31384" fill="none" stroke="black"/>
<path d="M176.248,25.082v -4.65692" fill="none" stroke="black"/>
<path d="M188.217,25.082v -4.65692" fill="none" stroke="black"/>
<path d="M200.185,25.082v -4.65692" fill="none" stroke="black"/>
<path d="M212.154,29.7389v -9.31384" fill="none" stroke="black"/>
<path d="M224.122,25.082v -4.65692" fill="none" stroke="black"/>
<path d="M236.091,25.082v -4.65692" fill="none" stroke="black"/>
<path d="M248.059,25.082v -4.65692" fill="none" stroke="black"/>
<path d="M260.028,29.7389v -9.31384" fill="none" stroke="black"/>
<path d="M271.996,25.082v -4.65692" fill="none" stroke="black"/>
<path d="M283.965,25.082v -4.65692" fill="none" stroke="black"/>
<path d="M295.933,25.082v -4.65692" fill="none" stroke="black"/>
<path d="M307.902,29.7389v -9.31384" fill="none" stroke="black"/>
<path d="M319.87,25.082v -4.65692" fill="none" stroke="black"/>
<path d="M331.839,25.082v -4.65692" fill="none" stroke="black"/>
<path d="M343.807,25.082v -4.65692" fill="none" stroke="black"/>
<path d="M355.776,29.7389v -9.31384" fill="none" stroke="black"/>
<path d="M367.744,25.082v -4.65692" fill="none" stroke="black"/>
<path d="M379.713,25.082v -4.65692" fill="none" stroke="black"/>
<path d="M391.681,25.082v -4.65692" fill="none" stroke="black"/>
<path d="M403.65,29.7389v -9.31384" fill="none" stroke="black"/>
<path d="M415.618,25.082v -4.65692" fill="none" stroke="black"/>
<path d="M427.587,25.082v -4.65692" fill="none" stroke="black"/>
<path d="M439.555,25.082v -4.65692" fill="none" stroke="black"/>
<path d="M451.524,29.7389v -9.31384" fill="none" stroke="black"/>
<path d="M463.492,25.082v -4.65692" fill="none" stroke="black"/>
<path d="M475.461,25.082v -4.65692" fill="none" stroke="black"/>
<path d="M487.429,25.082v -4.65692" fill="none" stroke="black"/>
<path d="M499.398,29.7389v -9.31384" fill="none" stroke="black"/>
<path d="M68.5315,359.481v -339.056" fill="none" stroke="black"/>
<path d="M82.648,359.481h -14.1165" fill="none" stroke="black"/>
<path d="M75.5898,345.919h -7.05827" fill="none" stroke="black"/>
<path d="M75.5898,332.357h -7.05827" fill="none" stroke="black"/>
<path d="M75.5898,318.795h -7.05827" fill="none" stroke="black"/>
<path d="M75.5898,305.232h -7.05827" fill="none" stroke="black"/>
<path d="M82.648,291.67h -14.1165" fill="none" stroke="black"/>
<path d="M75.5898,278.108h -7.05827" fill="none" stroke="black"/>
<path d="M75.5898,264.546h -7.05827" fill="none" stroke="black"/>
<path d="M75.5898,250.983h -7.05827" fill="none" stroke="black"/>
<path d="M75.5898,237.421h -7.05827" fill="none" stroke="black"/>
<path d="M82.648,223.859h -14.1165" fill="none" stroke="black"/>
<path d="M75.5898,210.297h -7.05827" fill="none" stroke="black"/>
<path d="M75.5898,196.734h -7.05827" fill="none" stroke="black"/>
<path d="M75.5898,183.172h -7.05827" fill="none" stroke="black"/>
<path d="M75.5898,169.61h -7.05827" fill="none" stroke="black"/>
<path d="M82.648,156.048h -14.1165" fill="none" stroke="black"/>
<path d="M75.5898,142.485h -7.05827" fill="none" stroke="black"/>
<path d="M75.5898,128.923h -7.05827" fill="none" stroke="black"/>
<path d="M75.5898,115.361h -7.05827" fill="none" stroke="black"/>
<path d="M75.5898,101.799h -7.05827" fill="none" stroke="black"/>
<path d="M82.648,88.2363h -14.1165" fill="none" stroke="black"/>
<path d="M75.5898,74.6741h -7.05827" fill="none" stroke="black"/>
<path d="M75.5898,61.1118h -7.05827" fill="none" stroke="black"/>
<path d="M75.5898,47.5496h -7.05827" fill="none" stroke="black"/>
<path d="M75.5898,33.9873h -7.05827" fill="none" stroke="black"/>
<path d="M82.648,20.4251h -14.1165" fill="none" stroke="black"/>
<text xml:space="preserve" x="58.0454" y="364.454" fill="black" font-size="13.617" font-family="Helvetica">0</text>
<text xml:space="preserve" x="46.6784" y="296.252" fill="black" font-size="13.617" font-family="Helvetica">0.5</text>
<text xml:space="preserve" x="60.1768" y="229.471" fill="black" font-size="13.617" font-family="Helvetica">1</text>
<text xml:space="preserve" x="46.6784" y="160.559" fill="black" font-size="13.617" font-family="Helvetica">1.5</text>
<text xml:space="preserve" x="58.0454" y="93.7778" fill="black" font-size="13.617" font-family="Helvetica">2</text>
<text xml:space="preserve" x="46.6784" y="24.8653" fill="black" font-size="13.617" font-family="Helvetica">2.5</text>
<g transform="rotate(-90,32.4697,24.1549)">
<text xml:space="preserve" x="32.4697" y="24.1549" fill="black" font-size="13.617" font-family="Helvetica"> </text>
</g>
<g transform="rotate(-90,40.2845,37.6532)">
<text xml:space="preserve" x="40.2845" y="37.6532" fill="black" font-size="9.24468" font-family="Helvetica">MB</text>
</g>
<g transform="rotate(-90,32.4697,41.2054)">
<text xml:space="preserve" x="32.4697" y="41.2054" fill="black" font-size="13.617" font-family="Helvetica">)</text>
</g>
<g transform="rotate(-90,48.0993,50.4411)">
<text xml:space="preserve" x="48.0993" y="50.4411" fill="black" font-size="9.24468" font-family="Helvetica">T</text>
</g>
<g transform="rotate(-90,40.2845,65.3603)">
<text xml:space="preserve" x="40.2845" y="65.3603" fill="black" font-size="13.617" font-family="Helvetica">dp</text>
</g>
<g transform="rotate(-90,14.7087,47.5993)">
<text xml:space="preserve" x="14.7087" y="47.5993" fill="black" font-size="6.32979" font-family="Helvetica">dir</text>
</g>
<g transform="rotate(-90,18.2609,52.5724)">
<text xml:space="preserve" x="18.2609" y="52.5724" fill="black" font-size="9.24468" font-family="Times">&#0947;</text>
</g>
<g transform="rotate(-90,26.0758,68.9124)">
<text xml:space="preserve" x="26.0758" y="68.9124" fill="black" font-size="13.617" font-family="Helvetica">dN</text>
</g>
<path d="M28.9175,68.9124v -27.7071" fill="none" stroke="black" stroke-width="2"/>
<g transform="rotate(-90,32.4697,73.1751)">
<text xml:space="preserve" x="32.4697" y="73.1751" fill="black" font-size="13.617" font-family="Helvetica"> </text>
</g>
<g transform="rotate(-90,44.5471,95.9091)">
<text xml:space="preserve" x="44.5471" y="95.9091" fill="black" font-size="9.24468" font-family="Helvetica">event</text>
</g>
<g transform="rotate(-90,40.2845,105.145)">
<text xml:space="preserve" x="40.2845" y="105.145" fill="black" font-size="13.617" font-family="Helvetica">N</text>
</g>
<g transform="rotate(-90,26.7862,91.6464)">
<text xml:space="preserve" x="26.7862" y="91.6464" fill="black" font-size="13.617" font-family="Helvetica">1</text>
</g>
<path d="M28.9175,105.145v -31.9697" fill="none" stroke="black" stroke-width="2"/>
<g transform="rotate(-90,32.4697,109.407)">
<text xml:space="preserve" x="32.4697" y="109.407" fill="black" font-size="13.617" font-family="Helvetica"> </text>
</g>
<g transform="rotate(-90,40.9949,113.67)">
<text xml:space="preserve" x="40.9949" y="113.67" fill="black" font-size="13.617" font-family="Times">&#0062;</text>
</g>
<g transform="rotate(-90,40.9949,117.933)">
<text xml:space="preserve" x="40.9949" y="117.933" fill="black" font-size="13.617" font-family="Helvetica"> </text>
</g>
<g transform="rotate(-90,47.3889,131.431)">
<text xml:space="preserve" x="47.3889" y="131.431" fill="black" font-size="9.24468" font-family="Helvetica">coll</text>
</g>
<g transform="rotate(-90,40.9949,144.219)">
<text xml:space="preserve" x="40.9949" y="144.219" fill="black" font-size="13.617" font-family="Helvetica"> N</text>
</g>
<g transform="rotate(-90,40.9949,148.481)">
<text xml:space="preserve" x="40.9949" y="148.481" fill="black" font-size="13.617" font-family="Times">&#0060;</text>
</g>
<g transform="rotate(-90,26.7862,131.431)">
<text xml:space="preserve" x="26.7862" y="131.431" fill="black" font-size="13.617" font-family="Helvetica">1</text>
</g>
<path d="M28.9175,148.481v -39.0741" fill="none" stroke="black" stroke-width="2"/>
<g transform="rotate(-90,32.4697,164.111)">
<text xml:space="preserve" x="32.4697" y="164.111" fill="black" font-size="13.617" font-family="Helvetica"> / (</text>
</g>
<g transform="rotate(-90,39.5741,181.872)">
<text xml:space="preserve" x="39.5741" y="181.872" fill="black" font-size="9.24468" font-family="Helvetica">cent</text>
</g>
<g transform="rotate(-90,32.4697,185.424)">
<text xml:space="preserve" x="32.4697" y="185.424" fill="black" font-size="13.617" font-family="Helvetica">)</text>
</g>
<g transform="rotate(-90,48.0993,194.66)">
<text xml:space="preserve" x="48.0993" y="194.66" fill="black" font-size="9.24468" font-family="Helvetica">T</text>
</g>
<g transform="rotate(-90,40.2845,209.579)">
<text xml:space="preserve" x="40.2845" y="209.579" fill="black" font-size="13.617" font-family="Helvetica">dp</text>
</g>
<g transform="rotate(-90,14.7087,191.818)">
<text xml:space="preserve" x="14.7087" y="191.818" fill="black" font-size="6.32979" font-family="Helvetica">dir</text>
</g>
<g transform="rotate(-90,18.2609,196.791)">
<text xml:space="preserve" x="18.2609" y="196.791" fill="black" font-size="9.24468" font-family="Times">&#0947;</text>
</g>
<g transform="rotate(-90,26.0758,213.131)">
<text xml:space="preserve" x="26.0758" y="213.131" fill="black" font-size="13.617" font-family="Helvetica">dN</text>
</g>
<path d="M28.9175,213.131v -27.7071" fill="none" stroke="black" stroke-width="2"/>
<g transform="rotate(-90,32.4697,217.394)">
<text xml:space="preserve" x="32.4697" y="217.394" fill="black" font-size="13.617" font-family="Helvetica"> </text>
</g>
<g transform="rotate(-90,44.5471,240.128)">
<text xml:space="preserve" x="44.5471" y="240.128" fill="black" font-size="9.24468" font-family="Helvetica">event</text>
</g>
<g transform="rotate(-90,40.2845,249.364)">
<text xml:space="preserve" x="40.2845" y="249.364" fill="black" font-size="13.617" font-family="Helvetica">N</text>
</g>
<g transform="rotate(-90,26.7862,235.865)">
<text xml:space="preserve" x="26.7862" y="235.865" fill="black" font-size="13.617" font-family="Helvetica">1</text>
</g>
<path d="M28.9175,249.364v -31.9697" fill="none" stroke="black" stroke-width="2"/>
<g transform="rotate(-90,32.4697,253.626)">
<text xml:space="preserve" x="32.4697" y="253.626" fill="black" font-size="13.617" font-family="Helvetica"> </text>
</g>
<g transform="rotate(-90,40.9949,257.889)">
<text xml:space="preserve" x="40.9949" y="257.889" fill="black" font-size="13.617" font-family="Times">&#0062;</text>
</g>
<g transform="rotate(-90,40.9949,262.151)">
<text xml:space="preserve" x="40.9949" y="262.151" fill="black" font-size="13.617" font-family="Helvetica"> </text>
</g>
<g transform="rotate(-90,47.3889,275.65)">
<text xml:space="preserve" x="47.3889" y="275.65" fill="black" font-size="9.24468" font-family="Helvetica">coll</text>
</g>
<g transform="rotate(-90,40.9949,288.438)">
<text xml:space="preserve" x="40.9949" y="288.438" fill="black" font-size="13.617" font-family="Helvetica"> N</text>
</g>
<g transform="rotate(-90,40.9949,292.7)">
<text xml:space="preserve" x="40.9949" y="292.7" fill="black" font-size="13.617" font-family="Times">&#0060;</text>
</g>
<g transform="rotate(-90,26.7862,275.65)">
<text xml:space="preserve" x="26.7862" y="275.65" fill="black" font-size="13.617" font-family="Helvetica">1</text>
</g>
<path d="M28.9175,292.7v -39.0741" fill="none" stroke="black" stroke-width="2"/>
<g transform="rotate(-90,32.4697,296.963)">
<text xml:space="preserve" x="32.4697" y="296.963" fill="black" font-size="13.617" font-family="Helvetica">(</text>
</g>
<path d="M499.398,359.481v -339.056" fill="none" stroke="black"/>
<path d="M485.281,359.481h 14.1165" fill="none" stroke="black"/>
<path d="M492.339,345.919h 7.05827" fill="none" stroke="black"/>
<path d="M492.339,332.357h 7.05827" fill="none" stroke="black"/>
<path d="M492.339,318.795h 7.05827" fill="none" stroke="black"/>
<path d="M492.339,305.232h 7.05827" fill="none" stroke="black"/>
<path d="M485.281,291.67h 14.1165" fill="none" stroke="black"/>
<path d="M492.339,278.108h 7.05827" fill="none" stroke="black"/>
<path d="M492.339,264.546h 7.05827" fill="none" stroke="black"/>
<path d="M492.339,250.983h 7.05827" fill="none" stroke="black"/>
<path d="M492.339,237.421h 7.05827" fill="none" stroke="black"/>
<path d="M485.281,223.859h 14.1165" fill="none" stroke="black"/>
<path d="M492.339,210.297h 7.05827" fill="none" stroke="black"/>
<path d="M492.339,196.734h 7.05827" fill="none" stroke="black"/>
<path d="M492.339,183.172h 7.05827" fill="none" stroke="black"/>
<path d="M492.339,169.61h 7.05827" fill="none" stroke="black"/>
<path d="M485.281,156.048h 14.1165" fill="none" stroke="black"/>
<path d="M492.339,142.485h 7.05827" fill="none" stroke="black"/>
<path d="M492.339,128.923h 7.05827" fill="none" stroke="black"/>
<path d="M492.339,115.361h 7.05827" fill="none" stroke="black"/>
<path d="M492.339,101.799h 7.05827" fill="none" stroke="black"/>
<path d="M485.281,88.2363h 14.1165" fill="none" stroke="black"/>
<path d="M492.339,74.6741h 7.05827" fill="none" stroke="black"/>
<path d="M492.339,61.1118h 7.05827" fill="none" stroke="black"/>
<path d="M492.339,47.5496h 7.05827" fill="none" stroke="black"/>
<path d="M492.339,33.9873h 7.05827" fill="none" stroke="black"/>
<path d="M485.281,20.4251h 14.1165" fill="none" stroke="black"/>
<path d="M68.5315,248.417h 9.12675" fill="none" stroke="#00cc00"/>
<path d="M83.3418,248.417h 9.12675" fill="none" stroke="#00cc00"/>
<g fill="#00cc00">
<polygon points=" 79.5527, 247.47 79.5527, 245.576 81.4473, 245.576 81.4473, 247.47 83.3418, 247.47 83.3418, 249.365 81.4473, 249.365 81.4473, 251.259 79.5527, 251.259 79.5527, 249.365 77.6582, 249.365 77.6582, 247.47"/>
</g>
<path d="M92.4685,251.344h 21.0953" fill="none" stroke="#00cc00"/>
<path d="M119.247,251.344h 21.0953" fill="none" stroke="#00cc00"/>
<g fill="#00cc00">
<polygon points=" 115.458, 250.396 115.458, 248.502 117.353, 248.502 117.353, 250.396 119.247, 250.396 119.247, 252.291 117.353, 252.291 117.353, 254.185 115.458, 254.185 115.458, 252.291 113.564, 252.291 113.564, 250.396"/>
</g>
<path d="M140.343,258.842h 21.0953" fill="none" stroke="#00cc00"/>
<path d="M167.121,258.842h 21.0953" fill="none" stroke="#00cc00"/>
<g fill="#00cc00">
<polygon points=" 163.332, 257.895 163.332, 256 165.227, 256 165.227, 257.895 167.121, 257.895 167.121, 259.789 165.227, 259.789 165.227, 261.684 163.332, 261.684 163.332, 259.789 161.438, 259.789 161.438, 257.895"/>
</g>
<path d="M212.154,263.849v -1.06153" fill="none" stroke="#00cc00"/>
<path d="M212.154,257.104v -1.06153" fill="none" stroke="#00cc00"/>
<path d="M188.217,259.946h 21.0953" fill="none" stroke="#00cc00"/>
<path d="M214.995,259.946h 21.0953" fill="none" stroke="#00cc00"/>
<g fill="#00cc00">
<polygon points=" 211.206, 258.999 211.206, 257.104 213.101, 257.104 213.101, 258.999 214.995, 258.999 214.995, 260.893 213.101, 260.893 213.101, 262.788 211.206, 262.788 211.206, 260.893 209.312, 260.893 209.312, 258.999"/>
</g>
<path d="M260.028,279.603v -3.87609" fill="none" stroke="#00cc00"/>
<path d="M260.028,270.044v -3.87609" fill="none" stroke="#00cc00"/>
<path d="M236.091,272.885h 21.0953" fill="none" stroke="#00cc00"/>
<path d="M262.869,272.885h 21.0953" fill="none" stroke="#00cc00"/>
<g fill="#00cc00">
<polygon points=" 259.08, 271.938 259.08, 270.044 260.975, 270.044 260.975, 271.938 262.869, 271.938 262.869, 273.833 260.975, 273.833 260.975, 275.727 259.08, 275.727 259.08, 273.833 257.186, 273.833 257.186, 271.938"/>
</g>
<path d="M331.839,273.415v -7.73836" fill="none" stroke="#00cc00"/>
<path d="M331.839,259.993v -7.73836" fill="none" stroke="#00cc00"/>
<path d="M283.965,262.835h 45.0323" fill="none" stroke="#00cc00"/>
<path d="M334.68,262.835h 45.0323" fill="none" stroke="#00cc00"/>
<g fill="#00cc00">
<polygon points=" 330.891, 261.888 330.891, 259.993 332.786, 259.993 332.786, 261.888 334.68, 261.888 334.68, 263.782 332.786, 263.782 332.786, 265.677 330.891, 265.677 330.891, 263.782 328.997, 263.782 328.997, 261.888"/>
</g>
<path d="M439.555,332.271v -12.6848" fill="none" stroke="#00cc00"/>
<path d="M439.555,313.903v -12.6848" fill="none" stroke="#00cc00"/>
<path d="M379.713,316.745h 57.0008" fill="none" stroke="#00cc00"/>
<path d="M442.397,316.745h 57.0008" fill="none" stroke="#00cc00"/>
<g fill="#00cc00">
<polygon points=" 438.608, 315.797 438.608, 313.903 440.502, 313.903 440.502, 315.797 442.397, 315.797 442.397, 317.692 440.502, 317.692 440.502, 319.586 438.608, 319.586 438.608, 317.692 436.713, 317.692 436.713, 315.797"/>
</g>
<path d="M68.5315,239.125h 9.12675" fill="none" stroke="#33ff99"/>
<path d="M83.3418,239.125h 9.12675" fill="none" stroke="#33ff99"/>
<g fill="#33ff99">
<polygon points=" 79.5527, 238.177 79.5527, 236.283 81.4473, 236.283 81.4473, 238.177 83.3418, 238.177 83.3418, 240.072 81.4473, 240.072 81.4473, 241.966 79.5527, 241.966 79.5527, 240.072 77.6582, 240.072 77.6582, 238.177"/>
</g>
<path d="M92.4685,241.262h 21.0953" fill="none" stroke="#33ff99"/>
<path d="M119.247,241.262h 21.0953" fill="none" stroke="#33ff99"/>
<g fill="#33ff99">
<polygon points=" 115.458, 240.315 115.458, 238.42 117.353, 238.42 117.353, 240.315 119.247, 240.315 119.247, 242.209 117.353, 242.209 117.353, 244.104 115.458, 244.104 115.458, 242.209 113.564, 242.209 113.564, 240.315"/>
</g>
<path d="M140.343,246.131h 21.0953" fill="none" stroke="#33ff99"/>
<path d="M167.121,246.131h 21.0953" fill="none" stroke="#33ff99"/>
<g fill="#33ff99">
<polygon points=" 163.332, 245.184 163.332, 243.29 165.227, 243.29 165.227, 245.184 167.121, 245.184 167.121, 247.079 165.227, 247.079 165.227, 248.973 163.332, 248.973 163.332, 247.079 161.438, 247.079 161.438, 245.184"/>
</g>
<path d="M212.154,246.237v -1.76313" fill="none" stroke="#33ff99"/>
<path d="M212.154,238.79v -1.76313" fill="none" stroke="#33ff99"/>
<path d="M188.217,241.632h 21.0953" fill="none" stroke="#33ff99"/>
<path d="M214.995,241.632h 21.0953" fill="none" stroke="#33ff99"/>
<g fill="#33ff99">
<polygon points=" 211.206, 240.685 211.206, 238.79 213.101, 238.79 213.101, 240.685 214.995, 240.685 214.995, 242.579 213.101, 242.579 213.101, 244.474 211.206, 244.474 211.206, 242.579 209.312, 242.579 209.312, 240.685"/>
</g>
<path d="M260.028,256.72v -5.44073" fill="none" stroke="#33ff99"/>
<path d="M260.028,245.595v -5.44073" fill="none" stroke="#33ff99"/>
<path d="M236.091,248.437h 21.0953" fill="none" stroke="#33ff99"/>
<path d="M262.869,248.437h 21.0953" fill="none" stroke="#33ff99"/>
<g fill="#33ff99">
<polygon points=" 259.08, 247.49 259.08, 245.595 260.975, 245.595 260.975, 247.49 262.869, 247.49 262.869, 249.384 260.975, 249.384 260.975, 251.279 259.08, 251.279 259.08, 249.384 257.186, 249.384 257.186, 247.49"/>
</g>
<path d="M331.839,258.405v -9.5836" fill="none" stroke="#33ff99"/>
<path d="M331.839,243.137v -9.5836" fill="none" stroke="#33ff99"/>
<path d="M283.965,245.979h 45.0323" fill="none" stroke="#33ff99"/>
<path d="M334.68,245.979h 45.0323" fill="none" stroke="#33ff99"/>
<g fill="#33ff99">
<polygon points=" 330.891, 245.032 330.891, 243.137 332.786, 243.137 332.786, 245.032 334.68, 245.032 334.68, 246.926 332.786, 246.926 332.786, 248.821 330.891, 248.821 330.891, 246.926 328.997, 246.926 328.997, 245.032"/>
</g>
<path d="M439.555,280.189v -24.5201" fill="none" stroke="#33ff99"/>
<path d="M439.555,249.985v -24.5201" fill="none" stroke="#33ff99"/>
<path d="M379.713,252.827h 57.0008" fill="none" stroke="#33ff99"/>
<path d="M442.397,252.827h 57.0008" fill="none" stroke="#33ff99"/>
<g fill="#33ff99">
<polygon points=" 438.608, 251.88 438.608, 249.985 440.502, 249.985 440.502, 251.88 442.397, 251.88 442.397, 253.774 440.502, 253.774 440.502, 255.669 438.608, 255.669 438.608, 253.774 436.713, 253.774 436.713, 251.88"/>
</g>
<path d="M68.5315,229.466h 9.12675" fill="none" stroke="#00cccc"/>
<path d="M83.3418,229.466h 9.12675" fill="none" stroke="#00cccc"/>
<g stroke="#00cccc" stroke-width="1" fill="none">
<polygon points=" 79.5527, 228.519 79.5527, 226.624 81.4473, 226.624 81.4473, 228.519 83.3418, 228.519 83.3418, 230.413 81.4473, 230.413 81.4473, 232.308 79.5527, 232.308 79.5527, 230.413 77.6582, 230.413 77.6582, 228.519"/>
</g>
<path d="M92.4685,230.713h 21.0953" fill="none" stroke="#00cccc"/>
<path d="M119.247,230.713h 21.0953" fill="none" stroke="#00cccc"/>
<g stroke="#00cccc" stroke-width="1" fill="none">
<polygon points=" 115.458, 229.766 115.458, 227.872 117.353, 227.872 117.353, 229.766 119.247, 229.766 119.247, 231.661 117.353, 231.661 117.353, 233.555 115.458, 233.555 115.458, 231.661 113.564, 231.661 113.564, 229.766"/>
</g>
<path d="M140.343,232.925h 21.0953" fill="none" stroke="#00cccc"/>
<path d="M167.121,232.925h 21.0953" fill="none" stroke="#00cccc"/>
<g stroke="#00cccc" stroke-width="1" fill="none">
<polygon points=" 163.332, 231.978 163.332, 230.083 165.227, 230.083 165.227, 231.978 167.121, 231.978 167.121, 233.872 165.227, 233.872 165.227, 235.767 163.332, 235.767 163.332, 233.872 161.438, 233.872 161.438, 231.978"/>
</g>
<path d="M212.154,241.391v -0.906666" fill="none" stroke="#00cccc"/>
<path d="M212.154,234.801v -0.906666" fill="none" stroke="#00cccc"/>
<path d="M188.217,237.642h 21.0953" fill="none" stroke="#00cccc"/>
<path d="M214.995,237.642h 21.0953" fill="none" stroke="#00cccc"/>
<g stroke="#00cccc" stroke-width="1" fill="none">
<polygon points=" 211.206, 236.695 211.206, 234.801 213.101, 234.801 213.101, 236.695 214.995, 236.695 214.995, 238.59 213.101, 238.59 213.101, 240.484 211.206, 240.484 211.206, 238.59 209.312, 238.59 209.312, 236.695"/>
</g>
<path d="M260.028,232.433v -4.54923" fill="none" stroke="#00cccc"/>
<path d="M260.028,222.2v -4.54923" fill="none" stroke="#00cccc"/>
<path d="M236.091,225.042h 21.0953" fill="none" stroke="#00cccc"/>
<path d="M262.869,225.042h 21.0953" fill="none" stroke="#00cccc"/>
<g stroke="#00cccc" stroke-width="1" fill="none">
<polygon points=" 259.08, 224.095 259.08, 222.2 260.975, 222.2 260.975, 224.095 262.869, 224.095 262.869, 225.989 260.975, 225.989 260.975, 227.884 259.08, 227.884 259.08, 225.989 257.186, 225.989 257.186, 224.095"/>
</g>
<path d="M331.839,272.408v -6.14557" fill="none" stroke="#00cccc"/>
<path d="M331.839,260.579v -6.14557" fill="none" stroke="#00cccc"/>
<path d="M283.965,263.421h 45.0323" fill="none" stroke="#00cccc"/>
<path d="M334.68,263.421h 45.0323" fill="none" stroke="#00cccc"/>
<g stroke="#00cccc" stroke-width="1" fill="none">
<polygon points=" 330.891, 262.474 330.891, 260.579 332.786, 260.579 332.786, 262.474 334.68, 262.474 334.68, 264.368 332.786, 264.368 332.786, 266.263 330.891, 266.263 330.891, 264.368 328.997, 264.368 328.997, 262.474"/>
</g>
<path d="M439.555,228.155v -24.8077" fill="none" stroke="#00cccc"/>
<path d="M439.555,197.664v -24.8077" fill="none" stroke="#00cccc"/>
<path d="M379.713,200.505h 57.0008" fill="none" stroke="#00cccc"/>
<path d="M442.397,200.505h 57.0008" fill="none" stroke="#00cccc"/>
<g stroke="#00cccc" stroke-width="1" fill="none">
<polygon points=" 438.608, 199.558 438.608, 197.664 440.502, 197.664 440.502, 199.558 442.397, 199.558 442.397, 201.453 440.502, 201.453 440.502, 203.347 438.608, 203.347 438.608, 201.453 436.713, 201.453 436.713, 199.558"/>
</g>
<path d="M68.5315,217.002h 10.5476" fill="none" stroke="#0033ff"/>
<path d="M81.9209,217.002h 10.5476" fill="none" stroke="#0033ff"/>
<g fill="#0033ff">
<polygon points=" 80.5, 218.423 79.0791, 219.844 77.6582, 218.423 79.0791, 217.002 77.6582, 215.581 79.0791, 214.16 80.5, 215.581 81.9209, 214.16 83.3418, 215.581 81.9209, 217.002 83.3418, 218.423 81.9209, 219.844 80.5, 218.423"/>
</g>
<path d="M92.4685,216.142h 22.5161" fill="none" stroke="#0033ff"/>
<path d="M117.826,216.142h 22.5161" fill="none" stroke="#0033ff"/>
<g fill="#0033ff">
<polygon points=" 116.406, 217.562 114.985, 218.983 113.564, 217.562 114.985, 216.142 113.564, 214.721 114.985, 213.3 116.406, 214.721 117.826, 213.3 119.247, 214.721 117.826, 216.142 119.247, 217.562 117.826, 218.983 116.406, 217.562"/>
</g>
<path d="M164.28,215.332v -0.668636" fill="none" stroke="#0033ff"/>
<path d="M164.28,211.821v -0.668636" fill="none" stroke="#0033ff"/>
<path d="M140.343,213.242h 22.5161" fill="none" stroke="#0033ff"/>
<path d="M165.7,213.242h 22.5161" fill="none" stroke="#0033ff"/>
<g fill="#0033ff">
<polygon points=" 164.28, 214.663 162.859, 216.084 161.438, 214.663 162.859, 213.242 161.438, 211.821 162.859, 210.4 164.28, 211.821 165.7, 210.4 167.121, 211.821 165.7, 213.242 167.121, 214.663 165.7, 216.084 164.28, 214.663"/>
</g>
<path d="M212.154,220.931v -3.15932" fill="none" stroke="#0033ff"/>
<path d="M212.154,214.93v -3.15932" fill="none" stroke="#0033ff"/>
<path d="M188.217,216.351h 22.5161" fill="none" stroke="#0033ff"/>
<path d="M213.574,216.351h 22.5161" fill="none" stroke="#0033ff"/>
<g fill="#0033ff">
<polygon points=" 212.154, 217.772 210.733, 219.193 209.312, 217.772 210.733, 216.351 209.312, 214.93 210.733, 213.51 212.154, 214.93 213.574, 213.51 214.995, 214.93 213.574, 216.351 214.995, 217.772 213.574, 219.193 212.154, 217.772"/>
</g>
<path d="M260.028,216.243v -7.40346" fill="none" stroke="#0033ff"/>
<path d="M260.028,205.997v -7.40346" fill="none" stroke="#0033ff"/>
<path d="M236.091,207.418h 22.5161" fill="none" stroke="#0033ff"/>
<path d="M261.448,207.418h 22.5161" fill="none" stroke="#0033ff"/>
<g fill="#0033ff">
<polygon points=" 260.028, 208.839 258.607, 210.26 257.186, 208.839 258.607, 207.418 257.186, 205.997 258.607, 204.577 260.028, 205.997 261.448, 204.577 262.869, 205.997 261.448, 207.418 262.869, 208.839 261.448, 210.26 260.028, 208.839"/>
</g>
<path d="M331.839,205.868v -12.4295" fill="none" stroke="#0033ff"/>
<path d="M331.839,190.597v -12.4295" fill="none" stroke="#0033ff"/>
<path d="M283.965,192.018h 46.4531" fill="none" stroke="#0033ff"/>
<path d="M333.259,192.018h 46.4531" fill="none" stroke="#0033ff"/>
<g fill="#0033ff">
<polygon points=" 331.839, 193.439 330.418, 194.86 328.997, 193.439 330.418, 192.018 328.997, 190.597 330.418, 189.176 331.839, 190.597 333.259, 189.176 334.68, 190.597 333.259, 192.018 334.68, 193.439 333.259, 194.86 331.839, 193.439"/>
</g>
<path d="M439.555,227.948v -29.5932" fill="none" stroke="#0033ff"/>
<path d="M439.555,195.513v -29.5932" fill="none" stroke="#0033ff"/>
<path d="M379.713,196.934h 58.4216" fill="none" stroke="#0033ff"/>
<path d="M440.976,196.934h 58.4216" fill="none" stroke="#0033ff"/>
<g fill="#0033ff">
<polygon points=" 439.555, 198.355 438.134, 199.776 436.713, 198.355 438.134, 196.934 436.713, 195.513 438.134, 194.092 439.555, 195.513 440.976, 194.092 442.397, 195.513 440.976, 196.934 442.397, 198.355 440.976, 199.776 439.555, 198.355"/>
</g>
<path d="M68.5315,201.023h 9.12675" fill="none" stroke="#0000ff"/>
<path d="M83.3418,201.023h 9.12675" fill="none" stroke="#0000ff"/>
<g stroke="#0000ff" stroke-width="1" fill="none">
<polygon points=" 79.5527, 200.076 79.5527, 198.181 81.4473, 198.181 81.4473, 200.076 83.3418, 200.076 83.3418, 201.97 81.4473, 201.97 81.4473, 203.865 79.5527, 203.865 79.5527, 201.97 77.6582, 201.97 77.6582, 200.076"/>
</g>
<path d="M92.4685,197.645h 21.0953" fill="none" stroke="#0000ff"/>
<path d="M119.247,197.645h 21.0953" fill="none" stroke="#0000ff"/>
<g stroke="#0000ff" stroke-width="1" fill="none">
<polygon points=" 115.458, 196.698 115.458, 194.803 117.353, 194.803 117.353, 196.698 119.247, 196.698 119.247, 198.592 117.353, 198.592 117.353, 200.487 115.458, 200.487 115.458, 198.592 113.564, 198.592 113.564, 196.698"/>
</g>
<path d="M140.343,191.842h 21.0953" fill="none" stroke="#0000ff"/>
<path d="M167.121,191.842h 21.0953" fill="none" stroke="#0000ff"/>
<g stroke="#0000ff" stroke-width="1" fill="none">
<polygon points=" 163.332, 190.894 163.332, 189 165.227, 189 165.227, 190.894 167.121, 190.894 167.121, 192.789 165.227, 192.789 165.227, 194.683 163.332, 194.683 163.332, 192.789 161.438, 192.789 161.438, 190.894"/>
</g>
<path d="M212.154,195.631v -3.08575" fill="none" stroke="#0000ff"/>
<path d="M212.154,186.862v -3.08575" fill="none" stroke="#0000ff"/>
<path d="M188.217,189.704h 21.0953" fill="none" stroke="#0000ff"/>
<path d="M214.995,189.704h 21.0953" fill="none" stroke="#0000ff"/>
<g stroke="#0000ff" stroke-width="1" fill="none">
<polygon points=" 211.206, 188.757 211.206, 186.862 213.101, 186.862 213.101, 188.757 214.995, 188.757 214.995, 190.651 213.101, 190.651 213.101, 192.546 211.206, 192.546 211.206, 190.651 209.312, 190.651 209.312, 188.757"/>
</g>
<path d="M260.028,211.748v -7.74788" fill="none" stroke="#0000ff"/>
<path d="M260.028,198.316v -7.74788" fill="none" stroke="#0000ff"/>
<path d="M236.091,201.158h 21.0953" fill="none" stroke="#0000ff"/>
<path d="M262.869,201.158h 21.0953" fill="none" stroke="#0000ff"/>
<g stroke="#0000ff" stroke-width="1" fill="none">
<polygon points=" 259.08, 200.211 259.08, 198.316 260.975, 198.316 260.975, 200.211 262.869, 200.211 262.869, 202.105 260.975, 202.105 260.975, 204 259.08, 204 259.08, 202.105 257.186, 202.105 257.186, 200.211"/>
</g>
<path d="M331.839,204.064v -13.6056" fill="none" stroke="#0000ff"/>
<path d="M331.839,184.775v -13.6056" fill="none" stroke="#0000ff"/>
<path d="M283.965,187.617h 45.0323" fill="none" stroke="#0000ff"/>
<path d="M334.68,187.617h 45.0323" fill="none" stroke="#0000ff"/>
<g stroke="#0000ff" stroke-width="1" fill="none">
<polygon points=" 330.891, 186.67 330.891, 184.775 332.786, 184.775 332.786, 186.67 334.68, 186.67 334.68, 188.564 332.786, 188.564 332.786, 190.459 330.891, 190.459 330.891, 188.564 328.997, 188.564 328.997, 186.67"/>
</g>
<path d="M439.555,241.15v -32.3074" fill="none" stroke="#0000ff"/>
<path d="M439.555,203.16v -32.3074" fill="none" stroke="#0000ff"/>
<path d="M379.713,206.001h 57.0008" fill="none" stroke="#0000ff"/>
<path d="M442.397,206.001h 57.0008" fill="none" stroke="#0000ff"/>
<g stroke="#0000ff" stroke-width="1" fill="none">
<polygon points=" 438.608, 205.054 438.608, 203.16 440.502, 203.16 440.502, 205.054 442.397, 205.054 442.397, 206.949 440.502, 206.949 440.502, 208.843 438.608, 208.843 438.608, 206.949 436.713, 206.949 436.713, 205.054"/>
</g>
<text xml:space="preserve" x="85.7525" y="53.2828" fill="black" font-size="19.2386" font-family="Helvetica">PYTHIA8, pAu200GeV with option3</text>
<text xml:space="preserve" x="149.692" y="71.0438" fill="black" font-size="19.2386" font-family="Helvetica">|&lt;1</text>
<text xml:space="preserve" x="139.035" y="71.0438" fill="black" font-size="19.2386" font-family="Times">&#0951;</text>
<text xml:space="preserve" x="109.907" y="71.0438" fill="black" font-size="19.2386" font-family="Helvetica"> in |</text>
<text xml:space="preserve" x="95.6986" y="63.9394" fill="black" font-size="12.9924" font-family="Helvetica">dir</text>
<text xml:space="preserve" x="85.7525" y="71.0438" fill="black" font-size="19.2386" font-family="Times">&#0947;</text>
<text xml:space="preserve" x="139.035" y="88.0943" fill="black" font-size="19.2386" font-family="Helvetica">centrality: 0~10%</text>
<g fill="#00cc00">
<polygon points=" 108.687, 83.6709 108.687, 81.7764 110.581, 81.7764 110.581, 83.6709 112.476, 83.6709 112.476, 85.5654 110.581, 85.5654 110.581, 87.4599 108.687, 87.4599 108.687, 85.5654 106.792, 85.5654 106.792, 83.6709"/>
</g>
<text xml:space="preserve" x="139.035" y="105.855" fill="black" font-size="19.2386" font-family="Helvetica">centrality: 10~20%</text>
<g fill="#33ff99">
<polygon points=" 108.687, 101.178 108.687, 99.2836 110.581, 99.2836 110.581, 101.178 112.476, 101.178 112.476, 103.073 110.581, 103.073 110.581, 104.967 108.687, 104.967 108.687, 103.073 106.792, 103.073 106.792, 101.178"/>
</g>
<text xml:space="preserve" x="139.035" y="122.906" fill="black" font-size="19.2386" font-family="Helvetica">centrality: 20~40%</text>
<g stroke="#00cccc" stroke-width="1" fill="none">
<polygon points=" 108.687, 118.685 108.687, 116.791 110.581, 116.791 110.581, 118.685 112.476, 118.685 112.476, 120.58 110.581, 120.58 110.581, 122.474 108.687, 122.474 108.687, 120.58 106.792, 120.58 106.792, 118.685"/>
</g>
<text xml:space="preserve" x="139.035" y="140.667" fill="black" font-size="19.2386" font-family="Helvetica">centrality: 40~60%</text>
<g fill="#0033ff">
<polygon points=" 109.634, 138.561 108.213, 139.982 106.792, 138.561 108.213, 137.14 106.792, 135.719 108.213, 134.298 109.634, 135.719 111.055, 134.298 112.476, 135.719 111.055, 137.14 112.476, 138.561 111.055, 139.982 109.634, 138.561"/>
</g>
<text xml:space="preserve" x="139.035" y="158.428" fill="black" font-size="19.2386" font-family="Helvetica">centrality: 60~80%</text>
<g stroke="#0000ff" stroke-width="1" fill="none">
<polygon points=" 108.687, 153.7 108.687, 151.805 110.581, 151.805 110.581, 153.7 112.476, 153.7 112.476, 155.594 110.581, 155.594 110.581, 157.489 108.687, 157.489 108.687, 155.594 106.792, 155.594 106.792, 153.7"/>
</g></svg>
