<?xml version="1.0" standalone="no"?>
<svg width="567.429" height="409.002" viewBox="0 0 567.429 409.002" xmlns="http://www.w3.org/2000/svg" shape-rendering="crispEdges">
<title>
/Users/jinhyunpark/npl/gitHub/Centrality_dependent_BiasCorrection/plots/plots_scaled-dNdpT/ratio_scaledYield_highpT_directPhoton_cent2mb.svg
</title>
<desc>
Creator: ROOT Version 6.28/04
CreationDate: Fri Oct 20 16:47:24 2023</desc>
<defs>
</defs>
<rect x="0.5" y="0" width="566.929" height="408.502" fill="white"/>
<rect x="85.5394" y="20.4251" width="396.85" height="339.056" fill="white"/>
<rect x="85.5394" y="20.4251" width="396.85" height="339.056" fill="none" stroke="black"/>
<rect x="85.5394" y="20.4251" width="396.85" height="339.056" fill="white"/>
<rect x="85.5394" y="20.4251" width="396.85" height="339.056" fill="none" stroke="black"/>
<path d="M85.5394,359.481h 396.85" fill="none" stroke="black"/>
<path d="M85.5394,350.903v 8.57853" fill="none" stroke="black"/>
<path d="M96.563,355.192v 4.28927" fill="none" stroke="black"/>
<path d="M107.587,355.192v 4.28927" fill="none" stroke="black"/>
<path d="M118.61,355.192v 4.28927" fill="none" stroke="black"/>
<path d="M129.634,350.903v 8.57853" fill="none" stroke="black"/>
<path d="M140.657,355.192v 4.28927" fill="none" stroke="black"/>
<path d="M151.681,355.192v 4.28927" fill="none" stroke="black"/>
<path d="M162.705,355.192v 4.28927" fill="none" stroke="black"/>
<path d="M173.728,350.903v 8.57853" fill="none" stroke="black"/>
<path d="M184.752,355.192v 4.28927" fill="none" stroke="black"/>
<path d="M195.776,355.192v 4.28927" fill="none" stroke="black"/>
<path d="M206.799,355.192v 4.28927" fill="none" stroke="black"/>
<path d="M217.823,350.903v 8.57853" fill="none" stroke="black"/>
<path d="M228.846,355.192v 4.28927" fill="none" stroke="black"/>
<path d="M239.87,355.192v 4.28927" fill="none" stroke="black"/>
<path d="M250.894,355.192v 4.28927" fill="none" stroke="black"/>
<path d="M261.917,350.903v 8.57853" fill="none" stroke="black"/>
<path d="M272.941,355.192v 4.28927" fill="none" stroke="black"/>
<path d="M283.965,355.192v 4.28927" fill="none" stroke="black"/>
<path d="M294.988,355.192v 4.28927" fill="none" stroke="black"/>
<path d="M306.012,350.903v 8.57853" fill="none" stroke="black"/>
<path d="M317.035,355.192v 4.28927" fill="none" stroke="black"/>
<path d="M328.059,355.192v 4.28927" fill="none" stroke="black"/>
<path d="M339.083,355.192v 4.28927" fill="none" stroke="black"/>
<path d="M350.106,350.903v 8.57853" fill="none" stroke="black"/>
<path d="M361.13,355.192v 4.28927" fill="none" stroke="black"/>
<path d="M372.154,355.192v 4.28927" fill="none" stroke="black"/>
<path d="M383.177,355.192v 4.28927" fill="none" stroke="black"/>
<path d="M394.201,350.903v 8.57853" fill="none" stroke="black"/>
<path d="M405.224,355.192v 4.28927" fill="none" stroke="black"/>
<path d="M416.248,355.192v 4.28927" fill="none" stroke="black"/>
<path d="M427.272,355.192v 4.28927" fill="none" stroke="black"/>
<path d="M438.295,350.903v 8.57853" fill="none" stroke="black"/>
<path d="M449.319,355.192v 4.28927" fill="none" stroke="black"/>
<path d="M460.343,355.192v 4.28927" fill="none" stroke="black"/>
<path d="M471.366,355.192v 4.28927" fill="none" stroke="black"/>
<path d="M482.39,350.903v 8.57853" fill="none" stroke="black"/>
<text xml:space="preserve" x="81.4899" y="372.269" fill="black" font-size="13.617" font-family="Helvetica">2</text>
<text xml:space="preserve" x="125.537" y="372.269" fill="black" font-size="13.617" font-family="Helvetica">4</text>
<text xml:space="preserve" x="169.584" y="372.269" fill="black" font-size="13.617" font-family="Helvetica">6</text>
<text xml:space="preserve" x="213.631" y="372.269" fill="black" font-size="13.617" font-family="Helvetica">8</text>
<text xml:space="preserve" x="253.416" y="372.269" fill="black" font-size="13.617" font-family="Helvetica">10</text>
<text xml:space="preserve" x="298.173" y="372.269" fill="black" font-size="13.617" font-family="Helvetica">12</text>
<text xml:space="preserve" x="342.22" y="372.269" fill="black" font-size="13.617" font-family="Helvetica">14</text>
<text xml:space="preserve" x="386.268" y="372.269" fill="black" font-size="13.617" font-family="Helvetica">16</text>
<text xml:space="preserve" x="430.315" y="372.269" fill="black" font-size="13.617" font-family="Helvetica">18</text>
<text xml:space="preserve" x="474.362" y="372.269" fill="black" font-size="13.617" font-family="Helvetica">20</text>
<text xml:space="preserve" x="436.709" y="384.347" fill="black" font-size="13.617" font-family="Helvetica">(GeV/c)</text>
<text xml:space="preserve" x="431.025" y="392.162" fill="black" font-size="9.24468" font-family="Helvetica">T</text>
<text xml:space="preserve" x="423.21" y="384.347" fill="black" font-size="13.617" font-family="Helvetica">p</text>
<path d="M85.5394,20.4251h 396.85" fill="none" stroke="black"/>
<path d="M85.5394,29.0036v -8.57853" fill="none" stroke="black"/>
<path d="M96.563,24.7143v -4.28927" fill="none" stroke="black"/>
<path d="M107.587,24.7143v -4.28927" fill="none" stroke="black"/>
<path d="M118.61,24.7143v -4.28927" fill="none" stroke="black"/>
<path d="M129.634,29.0036v -8.57853" fill="none" stroke="black"/>
<path d="M140.657,24.7143v -4.28927" fill="none" stroke="black"/>
<path d="M151.681,24.7143v -4.28927" fill="none" stroke="black"/>
<path d="M162.705,24.7143v -4.28927" fill="none" stroke="black"/>
<path d="M173.728,29.0036v -8.57853" fill="none" stroke="black"/>
<path d="M184.752,24.7143v -4.28927" fill="none" stroke="black"/>
<path d="M195.776,24.7143v -4.28927" fill="none" stroke="black"/>
<path d="M206.799,24.7143v -4.28927" fill="none" stroke="black"/>
<path d="M217.823,29.0036v -8.57853" fill="none" stroke="black"/>
<path d="M228.846,24.7143v -4.28927" fill="none" stroke="black"/>
<path d="M239.87,24.7143v -4.28927" fill="none" stroke="black"/>
<path d="M250.894,24.7143v -4.28927" fill="none" stroke="black"/>
<path d="M261.917,29.0036v -8.57853" fill="none" stroke="black"/>
<path d="M272.941,24.7143v -4.28927" fill="none" stroke="black"/>
<path d="M283.965,24.7143v -4.28927" fill="none" stroke="black"/>
<path d="M294.988,24.7143v -4.28927" fill="none" stroke="black"/>
<path d="M306.012,29.0036v -8.57853" fill="none" stroke="black"/>
<path d="M317.035,24.7143v -4.28927" fill="none" stroke="black"/>
<path d="M328.059,24.7143v -4.28927" fill="none" stroke="black"/>
<path d="M339.083,24.7143v -4.28927" fill="none" stroke="black"/>
<path d="M350.106,29.0036v -8.57853" fill="none" stroke="black"/>
<path d="M361.13,24.7143v -4.28927" fill="none" stroke="black"/>
<path d="M372.154,24.7143v -4.28927" fill="none" stroke="black"/>
<path d="M383.177,24.7143v -4.28927" fill="none" stroke="black"/>
<path d="M394.201,29.0036v -8.57853" fill="none" stroke="black"/>
<path d="M405.224,24.7143v -4.28927" fill="none" stroke="black"/>
<path d="M416.248,24.7143v -4.28927" fill="none" stroke="black"/>
<path d="M427.272,24.7143v -4.28927" fill="none" stroke="black"/>
<path d="M438.295,29.0036v -8.57853" fill="none" stroke="black"/>
<path d="M449.319,24.7143v -4.28927" fill="none" stroke="black"/>
<path d="M460.343,24.7143v -4.28927" fill="none" stroke="black"/>
<path d="M471.366,24.7143v -4.28927" fill="none" stroke="black"/>
<path d="M482.39,29.0036v -8.57853" fill="none" stroke="black"/>
<path d="M85.5394,359.481v -339.056" fill="none" stroke="black"/>
<path d="M99.6559,359.481h -14.1165" fill="none" stroke="black"/>
<path d="M92.5976,345.919h -7.05827" fill="none" stroke="black"/>
<path d="M92.5976,332.357h -7.05827" fill="none" stroke="black"/>
<path d="M92.5976,318.795h -7.05827" fill="none" stroke="black"/>
<path d="M92.5976,305.232h -7.05827" fill="none" stroke="black"/>
<path d="M99.6559,291.67h -14.1165" fill="none" stroke="black"/>
<path d="M92.5976,278.108h -7.05827" fill="none" stroke="black"/>
<path d="M92.5976,264.546h -7.05827" fill="none" stroke="black"/>
<path d="M92.5976,250.983h -7.05827" fill="none" stroke="black"/>
<path d="M92.5976,237.421h -7.05827" fill="none" stroke="black"/>
<path d="M99.6559,223.859h -14.1165" fill="none" stroke="black"/>
<path d="M92.5976,210.297h -7.05827" fill="none" stroke="black"/>
<path d="M92.5976,196.734h -7.05827" fill="none" stroke="black"/>
<path d="M92.5976,183.172h -7.05827" fill="none" stroke="black"/>
<path d="M92.5976,169.61h -7.05827" fill="none" stroke="black"/>
<path d="M99.6559,156.048h -14.1165" fill="none" stroke="black"/>
<path d="M92.5976,142.485h -7.05827" fill="none" stroke="black"/>
<path d="M92.5976,128.923h -7.05827" fill="none" stroke="black"/>
<path d="M92.5976,115.361h -7.05827" fill="none" stroke="black"/>
<path d="M92.5976,101.799h -7.05827" fill="none" stroke="black"/>
<path d="M99.6559,88.2363h -14.1165" fill="none" stroke="black"/>
<path d="M92.5976,74.6741h -7.05827" fill="none" stroke="black"/>
<path d="M92.5976,61.1118h -7.05827" fill="none" stroke="black"/>
<path d="M92.5976,47.5496h -7.05827" fill="none" stroke="black"/>
<path d="M92.5976,33.9873h -7.05827" fill="none" stroke="black"/>
<path d="M99.6559,20.4251h -14.1165" fill="none" stroke="black"/>
<text xml:space="preserve" x="75.0959" y="364.454" fill="black" font-size="13.617" font-family="Helvetica">0</text>
<text xml:space="preserve" x="63.7289" y="296.252" fill="black" font-size="13.617" font-family="Helvetica">0.5</text>
<text xml:space="preserve" x="77.2272" y="229.471" fill="black" font-size="13.617" font-family="Helvetica">1</text>
<text xml:space="preserve" x="63.7289" y="160.559" fill="black" font-size="13.617" font-family="Helvetica">1.5</text>
<text xml:space="preserve" x="75.0959" y="93.7778" fill="black" font-size="13.617" font-family="Helvetica">2</text>
<text xml:space="preserve" x="63.7289" y="24.8653" fill="black" font-size="13.617" font-family="Helvetica">2.5</text>
<g transform="rotate(-90,49.5202,24.1549)">
<text xml:space="preserve" x="49.5202" y="24.1549" fill="black" font-size="13.617" font-family="Helvetica"> </text>
</g>
<g transform="rotate(-90,57.335,37.6532)">
<text xml:space="preserve" x="57.335" y="37.6532" fill="black" font-size="9.24468" font-family="Helvetica">MB</text>
</g>
<g transform="rotate(-90,49.5202,41.2054)">
<text xml:space="preserve" x="49.5202" y="41.2054" fill="black" font-size="13.617" font-family="Helvetica">)</text>
</g>
<g transform="rotate(-90,65.1498,50.4411)">
<text xml:space="preserve" x="65.1498" y="50.4411" fill="black" font-size="9.24468" font-family="Helvetica">T</text>
</g>
<g transform="rotate(-90,57.335,65.3603)">
<text xml:space="preserve" x="57.335" y="65.3603" fill="black" font-size="13.617" font-family="Helvetica">dp</text>
</g>
<g transform="rotate(-90,31.7593,47.5993)">
<text xml:space="preserve" x="31.7593" y="47.5993" fill="black" font-size="6.32979" font-family="Helvetica">dir</text>
</g>
<g transform="rotate(-90,35.3114,52.5724)">
<text xml:space="preserve" x="35.3114" y="52.5724" fill="black" font-size="9.24468" font-family="Times">&#0947;</text>
</g>
<g transform="rotate(-90,43.1263,68.9124)">
<text xml:space="preserve" x="43.1263" y="68.9124" fill="black" font-size="13.617" font-family="Helvetica">dN</text>
</g>
<path d="M45.968,68.9124v -27.7071" fill="none" stroke="black" stroke-width="2"/>
<g transform="rotate(-90,49.5202,73.1751)">
<text xml:space="preserve" x="49.5202" y="73.1751" fill="black" font-size="13.617" font-family="Helvetica"> </text>
</g>
<g transform="rotate(-90,61.5976,95.9091)">
<text xml:space="preserve" x="61.5976" y="95.9091" fill="black" font-size="9.24468" font-family="Helvetica">event</text>
</g>
<g transform="rotate(-90,57.335,105.145)">
<text xml:space="preserve" x="57.335" y="105.145" fill="black" font-size="13.617" font-family="Helvetica">N</text>
</g>
<g transform="rotate(-90,43.8367,91.6464)">
<text xml:space="preserve" x="43.8367" y="91.6464" fill="black" font-size="13.617" font-family="Helvetica">1</text>
</g>
<path d="M45.968,105.145v -31.9697" fill="none" stroke="black" stroke-width="2"/>
<g transform="rotate(-90,49.5202,109.407)">
<text xml:space="preserve" x="49.5202" y="109.407" fill="black" font-size="13.617" font-family="Helvetica"> </text>
</g>
<g transform="rotate(-90,58.0454,113.67)">
<text xml:space="preserve" x="58.0454" y="113.67" fill="black" font-size="13.617" font-family="Times">&#0062;</text>
</g>
<g transform="rotate(-90,58.0454,117.933)">
<text xml:space="preserve" x="58.0454" y="117.933" fill="black" font-size="13.617" font-family="Helvetica"> </text>
</g>
<g transform="rotate(-90,64.4394,131.431)">
<text xml:space="preserve" x="64.4394" y="131.431" fill="black" font-size="9.24468" font-family="Helvetica">coll</text>
</g>
<g transform="rotate(-90,58.0454,144.219)">
<text xml:space="preserve" x="58.0454" y="144.219" fill="black" font-size="13.617" font-family="Helvetica"> N</text>
</g>
<g transform="rotate(-90,58.0454,148.481)">
<text xml:space="preserve" x="58.0454" y="148.481" fill="black" font-size="13.617" font-family="Times">&#0060;</text>
</g>
<g transform="rotate(-90,43.8367,131.431)">
<text xml:space="preserve" x="43.8367" y="131.431" fill="black" font-size="13.617" font-family="Helvetica">1</text>
</g>
<path d="M45.968,148.481v -39.0741" fill="none" stroke="black" stroke-width="2"/>
<g transform="rotate(-90,49.5202,164.111)">
<text xml:space="preserve" x="49.5202" y="164.111" fill="black" font-size="13.617" font-family="Helvetica"> / (</text>
</g>
<g transform="rotate(-90,56.6246,181.872)">
<text xml:space="preserve" x="56.6246" y="181.872" fill="black" font-size="9.24468" font-family="Helvetica">cent</text>
</g>
<g transform="rotate(-90,49.5202,185.424)">
<text xml:space="preserve" x="49.5202" y="185.424" fill="black" font-size="13.617" font-family="Helvetica">)</text>
</g>
<g transform="rotate(-90,65.1498,194.66)">
<text xml:space="preserve" x="65.1498" y="194.66" fill="black" font-size="9.24468" font-family="Helvetica">T</text>
</g>
<g transform="rotate(-90,57.335,209.579)">
<text xml:space="preserve" x="57.335" y="209.579" fill="black" font-size="13.617" font-family="Helvetica">dp</text>
</g>
<g transform="rotate(-90,31.7593,191.818)">
<text xml:space="preserve" x="31.7593" y="191.818" fill="black" font-size="6.32979" font-family="Helvetica">dir</text>
</g>
<g transform="rotate(-90,35.3114,196.791)">
<text xml:space="preserve" x="35.3114" y="196.791" fill="black" font-size="9.24468" font-family="Times">&#0947;</text>
</g>
<g transform="rotate(-90,43.1263,213.131)">
<text xml:space="preserve" x="43.1263" y="213.131" fill="black" font-size="13.617" font-family="Helvetica">dN</text>
</g>
<path d="M45.968,213.131v -27.7071" fill="none" stroke="black" stroke-width="2"/>
<g transform="rotate(-90,49.5202,217.394)">
<text xml:space="preserve" x="49.5202" y="217.394" fill="black" font-size="13.617" font-family="Helvetica"> </text>
</g>
<g transform="rotate(-90,61.5976,240.128)">
<text xml:space="preserve" x="61.5976" y="240.128" fill="black" font-size="9.24468" font-family="Helvetica">event</text>
</g>
<g transform="rotate(-90,57.335,249.364)">
<text xml:space="preserve" x="57.335" y="249.364" fill="black" font-size="13.617" font-family="Helvetica">N</text>
</g>
<g transform="rotate(-90,43.8367,235.865)">
<text xml:space="preserve" x="43.8367" y="235.865" fill="black" font-size="13.617" font-family="Helvetica">1</text>
</g>
<path d="M45.968,249.364v -31.9697" fill="none" stroke="black" stroke-width="2"/>
<g transform="rotate(-90,49.5202,253.626)">
<text xml:space="preserve" x="49.5202" y="253.626" fill="black" font-size="13.617" font-family="Helvetica"> </text>
</g>
<g transform="rotate(-90,58.0454,257.889)">
<text xml:space="preserve" x="58.0454" y="257.889" fill="black" font-size="13.617" font-family="Times">&#0062;</text>
</g>
<g transform="rotate(-90,58.0454,262.151)">
<text xml:space="preserve" x="58.0454" y="262.151" fill="black" font-size="13.617" font-family="Helvetica"> </text>
</g>
<g transform="rotate(-90,64.4394,275.65)">
<text xml:space="preserve" x="64.4394" y="275.65" fill="black" font-size="9.24468" font-family="Helvetica">coll</text>
</g>
<g transform="rotate(-90,58.0454,288.438)">
<text xml:space="preserve" x="58.0454" y="288.438" fill="black" font-size="13.617" font-family="Helvetica"> N</text>
</g>
<g transform="rotate(-90,58.0454,292.7)">
<text xml:space="preserve" x="58.0454" y="292.7" fill="black" font-size="13.617" font-family="Times">&#0060;</text>
</g>
<g transform="rotate(-90,43.8367,275.65)">
<text xml:space="preserve" x="43.8367" y="275.65" fill="black" font-size="13.617" font-family="Helvetica">1</text>
</g>
<path d="M45.968,292.7v -39.0741" fill="none" stroke="black" stroke-width="2"/>
<g transform="rotate(-90,49.5202,296.963)">
<text xml:space="preserve" x="49.5202" y="296.963" fill="black" font-size="13.617" font-family="Helvetica">(</text>
</g>
<path d="M482.39,359.481v -339.056" fill="none" stroke="black"/>
<path d="M468.273,359.481h 14.1165" fill="none" stroke="black"/>
<path d="M475.332,345.919h 7.05827" fill="none" stroke="black"/>
<path d="M475.332,332.357h 7.05827" fill="none" stroke="black"/>
<path d="M475.332,318.795h 7.05827" fill="none" stroke="black"/>
<path d="M475.332,305.232h 7.05827" fill="none" stroke="black"/>
<path d="M468.273,291.67h 14.1165" fill="none" stroke="black"/>
<path d="M475.332,278.108h 7.05827" fill="none" stroke="black"/>
<path d="M475.332,264.546h 7.05827" fill="none" stroke="black"/>
<path d="M475.332,250.983h 7.05827" fill="none" stroke="black"/>
<path d="M475.332,237.421h 7.05827" fill="none" stroke="black"/>
<path d="M468.273,223.859h 14.1165" fill="none" stroke="black"/>
<path d="M475.332,210.297h 7.05827" fill="none" stroke="black"/>
<path d="M475.332,196.734h 7.05827" fill="none" stroke="black"/>
<path d="M475.332,183.172h 7.05827" fill="none" stroke="black"/>
<path d="M475.332,169.61h 7.05827" fill="none" stroke="black"/>
<path d="M468.273,156.048h 14.1165" fill="none" stroke="black"/>
<path d="M475.332,142.485h 7.05827" fill="none" stroke="black"/>
<path d="M475.332,128.923h 7.05827" fill="none" stroke="black"/>
<path d="M475.332,115.361h 7.05827" fill="none" stroke="black"/>
<path d="M475.332,101.799h 7.05827" fill="none" stroke="black"/>
<path d="M468.273,88.2363h 14.1165" fill="none" stroke="black"/>
<path d="M475.332,74.6741h 7.05827" fill="none" stroke="black"/>
<path d="M475.332,61.1118h 7.05827" fill="none" stroke="black"/>
<path d="M475.332,47.5496h 7.05827" fill="none" stroke="black"/>
<path d="M475.332,33.9873h 7.05827" fill="none" stroke="black"/>
<path d="M468.273,20.4251h 14.1165" fill="none" stroke="black"/>
<path d="M85.5394,247.551h 8.18187" fill="none" stroke="#00cc00"/>
<path d="M99.4047,247.551h 8.18187" fill="none" stroke="#00cc00"/>
<g fill="#00cc00">
<polygon points=" 95.6157, 246.604 95.6157, 244.709 97.5102, 244.709 97.5102, 246.604 99.4047, 246.604 99.4047, 248.498 97.5102, 248.498 97.5102, 250.393 95.6157, 250.393 95.6157, 248.498 93.7212, 248.498 93.7212, 246.604"/>
</g>
<path d="M107.587,251.416h 19.2055" fill="none" stroke="#00cc00"/>
<path d="M132.476,251.416h 19.2055" fill="none" stroke="#00cc00"/>
<g fill="#00cc00">
<polygon points=" 128.687, 250.469 128.687, 248.575 130.581, 248.575 130.581, 250.469 132.476, 250.469 132.476, 252.364 130.581, 252.364 130.581, 254.258 128.687, 254.258 128.687, 252.364 126.792, 252.364 126.792, 250.469"/>
</g>
<path d="M173.728,264.529v -1.02116" fill="none" stroke="#00cc00"/>
<path d="M173.728,257.825v -1.02116" fill="none" stroke="#00cc00"/>
<path d="M151.681,260.667h 19.2055" fill="none" stroke="#00cc00"/>
<path d="M176.57,260.667h 19.2055" fill="none" stroke="#00cc00"/>
<g fill="#00cc00">
<polygon points=" 172.781, 259.719 172.781, 257.825 174.676, 257.825 174.676, 259.719 176.57, 259.719 176.57, 261.614 174.676, 261.614 174.676, 263.508 172.781, 263.508 172.781, 261.614 170.887, 261.614 170.887, 259.719"/>
</g>
<path d="M217.823,276.88v -5.26707" fill="none" stroke="#00cc00"/>
<path d="M217.823,265.929v -5.26707" fill="none" stroke="#00cc00"/>
<path d="M195.776,268.771h 19.2055" fill="none" stroke="#00cc00"/>
<path d="M220.665,268.771h 19.2055" fill="none" stroke="#00cc00"/>
<g fill="#00cc00">
<polygon points=" 216.876, 267.824 216.876, 265.929 218.77, 265.929 218.77, 267.824 220.665, 267.824 220.665, 269.718 218.77, 269.718 218.77, 271.613 216.876, 271.613 216.876, 269.718 214.981, 269.718 214.981, 267.824"/>
</g>
<path d="M261.917,290.171v -12.4498" fill="none" stroke="#00cc00"/>
<path d="M261.917,272.037v -12.4498" fill="none" stroke="#00cc00"/>
<path d="M239.87,274.879h 19.2055" fill="none" stroke="#00cc00"/>
<path d="M264.759,274.879h 19.2055" fill="none" stroke="#00cc00"/>
<g fill="#00cc00">
<polygon points=" 260.97, 273.932 260.97, 272.037 262.865, 272.037 262.865, 273.932 264.759, 273.932 264.759, 275.826 262.865, 275.826 262.865, 277.721 260.97, 277.721 260.97, 275.826 259.076, 275.826 259.076, 273.932"/>
</g>
<path d="M328.059,291.398v -21.6699" fill="none" stroke="#00cc00"/>
<path d="M328.059,264.045v -21.6699" fill="none" stroke="#00cc00"/>
<path d="M283.965,266.886h 41.2527" fill="none" stroke="#00cc00"/>
<path d="M330.901,266.886h 41.2527" fill="none" stroke="#00cc00"/>
<g fill="#00cc00">
<polygon points=" 327.112, 265.939 327.112, 264.045 329.006, 264.045 329.006, 265.939 330.901, 265.939 330.901, 267.834 329.006, 267.834 329.006, 269.728 327.112, 269.728 327.112, 267.834 325.217, 267.834 325.217, 265.939"/>
</g>
<path d="M427.272,343.839v -40.278" fill="none" stroke="#00cc00"/>
<path d="M427.272,297.877v -40.278" fill="none" stroke="#00cc00"/>
<path d="M372.154,300.719h 52.2764" fill="none" stroke="#00cc00"/>
<path d="M430.113,300.719h 52.2764" fill="none" stroke="#00cc00"/>
<g fill="#00cc00">
<polygon points=" 426.324, 299.772 426.324, 297.877 428.219, 297.877 428.219, 299.772 430.113, 299.772 430.113, 301.666 428.219, 301.666 428.219, 303.561 426.324, 303.561 426.324, 301.666 424.43, 301.666 424.43, 299.772"/>
</g>
<path d="M85.5394,239.265h 8.18187" fill="none" stroke="#33ff99"/>
<path d="M99.4047,239.265h 8.18187" fill="none" stroke="#33ff99"/>
<g fill="#33ff99">
<polygon points=" 95.6157, 238.318 95.6157, 236.423 97.5102, 236.423 97.5102, 238.318 99.4047, 238.318 99.4047, 240.212 97.5102, 240.212 97.5102, 242.107 95.6157, 242.107 95.6157, 240.212 93.7212, 240.212 93.7212, 238.318"/>
</g>
<path d="M107.587,243.476h 19.2055" fill="none" stroke="#33ff99"/>
<path d="M132.476,243.476h 19.2055" fill="none" stroke="#33ff99"/>
<g fill="#33ff99">
<polygon points=" 128.687, 242.528 128.687, 240.634 130.581, 240.634 130.581, 242.528 132.476, 242.528 132.476, 244.423 130.581, 244.423 130.581, 246.317 128.687, 246.317 128.687, 244.423 126.792, 244.423 126.792, 242.528"/>
</g>
<path d="M173.728,247.656v -1.70197" fill="none" stroke="#33ff99"/>
<path d="M173.728,240.27v -1.70197" fill="none" stroke="#33ff99"/>
<path d="M151.681,243.112h 19.2055" fill="none" stroke="#33ff99"/>
<path d="M176.57,243.112h 19.2055" fill="none" stroke="#33ff99"/>
<g fill="#33ff99">
<polygon points=" 172.781, 242.165 172.781, 240.27 174.676, 240.27 174.676, 242.165 176.57, 242.165 176.57, 244.059 174.676, 244.059 174.676, 245.954 172.781, 245.954 172.781, 244.059 170.887, 244.059 170.887, 242.165"/>
</g>
<path d="M217.823,258.851v -6.86874" fill="none" stroke="#33ff99"/>
<path d="M217.823,246.298v -6.86874" fill="none" stroke="#33ff99"/>
<path d="M195.776,249.14h 19.2055" fill="none" stroke="#33ff99"/>
<path d="M220.665,249.14h 19.2055" fill="none" stroke="#33ff99"/>
<g fill="#33ff99">
<polygon points=" 216.876, 248.193 216.876, 246.298 218.77, 246.298 218.77, 248.193 220.665, 248.193 220.665, 250.087 218.77, 250.087 218.77, 251.982 216.876, 251.982 216.876, 250.087 214.981, 250.087 214.981, 248.193"/>
</g>
<path d="M261.917,283.335v -14.5303" fill="none" stroke="#33ff99"/>
<path d="M261.917,263.122v -14.5303" fill="none" stroke="#33ff99"/>
<path d="M239.87,265.963h 19.2055" fill="none" stroke="#33ff99"/>
<path d="M264.759,265.963h 19.2055" fill="none" stroke="#33ff99"/>
<g fill="#33ff99">
<polygon points=" 260.97, 265.016 260.97, 263.122 262.865, 263.122 262.865, 265.016 264.759, 265.016 264.759, 266.911 262.865, 266.911 262.865, 268.805 260.97, 268.805 260.97, 266.911 259.076, 266.911 259.076, 265.016"/>
</g>
<path d="M328.059,262.028v -28.8458" fill="none" stroke="#33ff99"/>
<path d="M328.059,227.499v -28.8458" fill="none" stroke="#33ff99"/>
<path d="M283.965,230.341h 41.2527" fill="none" stroke="#33ff99"/>
<path d="M330.901,230.341h 41.2527" fill="none" stroke="#33ff99"/>
<g fill="#33ff99">
<polygon points=" 327.112, 229.393 327.112, 227.499 329.006, 227.499 329.006, 229.393 330.901, 229.393 330.901, 231.288 329.006, 231.288 329.006, 233.182 327.112, 233.182 327.112, 231.288 325.217, 231.288 325.217, 229.393"/>
</g>
<path d="M427.272,341.11v -47.8011" fill="none" stroke="#33ff99"/>
<path d="M427.272,287.625v -47.8011" fill="none" stroke="#33ff99"/>
<path d="M372.154,290.467h 52.2764" fill="none" stroke="#33ff99"/>
<path d="M430.113,290.467h 52.2764" fill="none" stroke="#33ff99"/>
<g fill="#33ff99">
<polygon points=" 426.324, 289.52 426.324, 287.625 428.219, 287.625 428.219, 289.52 430.113, 289.52 430.113, 291.414 428.219, 291.414 428.219, 293.309 426.324, 293.309 426.324, 291.414 424.43, 291.414 424.43, 289.52"/>
</g>
<path d="M85.5394,230.389h 8.18187" fill="none" stroke="#00cccc"/>
<path d="M99.4047,230.389h 8.18187" fill="none" stroke="#00cccc"/>
<g stroke="#00cccc" stroke-width="1" fill="none">
<polygon points=" 95.6157, 229.442 95.6157, 227.547 97.5102, 227.547 97.5102, 229.442 99.4047, 229.442 99.4047, 231.336 97.5102, 231.336 97.5102, 233.231 95.6157, 233.231 95.6157, 231.336 93.7212, 231.336 93.7212, 229.442"/>
</g>
<path d="M107.587,230.804h 19.2055" fill="none" stroke="#00cccc"/>
<path d="M132.476,230.804h 19.2055" fill="none" stroke="#00cccc"/>
<g stroke="#00cccc" stroke-width="1" fill="none">
<polygon points=" 128.687, 229.856 128.687, 227.962 130.581, 227.962 130.581, 229.856 132.476, 229.856 132.476, 231.751 130.581, 231.751 130.581, 233.645 128.687, 233.645 128.687, 231.751 126.792, 231.751 126.792, 229.856"/>
</g>
<path d="M173.728,231.425v -1.06466" fill="none" stroke="#00cccc"/>
<path d="M173.728,224.677v -1.06466" fill="none" stroke="#00cccc"/>
<path d="M151.681,227.519h 19.2055" fill="none" stroke="#00cccc"/>
<path d="M176.57,227.519h 19.2055" fill="none" stroke="#00cccc"/>
<g stroke="#00cccc" stroke-width="1" fill="none">
<polygon points=" 172.781, 226.571 172.781, 224.677 174.676, 224.677 174.676, 226.571 176.57, 226.571 176.57, 228.466 174.676, 228.466 174.676, 230.36 172.781, 230.36 172.781, 228.466 170.887, 228.466 170.887, 226.571"/>
</g>
<path d="M217.823,237.964v -5.68209" fill="none" stroke="#00cccc"/>
<path d="M217.823,226.599v -5.68209" fill="none" stroke="#00cccc"/>
<path d="M195.776,229.44h 19.2055" fill="none" stroke="#00cccc"/>
<path d="M220.665,229.44h 19.2055" fill="none" stroke="#00cccc"/>
<g stroke="#00cccc" stroke-width="1" fill="none">
<polygon points=" 216.876, 228.493 216.876, 226.599 218.77, 226.599 218.77, 228.493 220.665, 228.493 220.665, 230.388 218.77, 230.388 218.77, 232.282 216.876, 232.282 216.876, 230.388 214.981, 230.388 214.981, 228.493"/>
</g>
<path d="M261.917,256.488v -12.9892" fill="none" stroke="#00cccc"/>
<path d="M261.917,237.815v -12.9892" fill="none" stroke="#00cccc"/>
<path d="M239.87,240.657h 19.2055" fill="none" stroke="#00cccc"/>
<path d="M264.759,240.657h 19.2055" fill="none" stroke="#00cccc"/>
<g stroke="#00cccc" stroke-width="1" fill="none">
<polygon points=" 260.97, 239.709 260.97, 237.815 262.865, 237.815 262.865, 239.709 264.759, 239.709 264.759, 241.604 262.865, 241.604 262.865, 243.498 260.97, 243.498 260.97, 241.604 259.076, 241.604 259.076, 239.709"/>
</g>
<path d="M328.059,242.406v -24.269" fill="none" stroke="#00cccc"/>
<path d="M328.059,212.453v -24.269" fill="none" stroke="#00cccc"/>
<path d="M283.965,215.295h 41.2527" fill="none" stroke="#00cccc"/>
<path d="M330.901,215.295h 41.2527" fill="none" stroke="#00cccc"/>
<g stroke="#00cccc" stroke-width="1" fill="none">
<polygon points=" 327.112, 214.348 327.112, 212.453 329.006, 212.453 329.006, 214.348 330.901, 214.348 330.901, 216.242 329.006, 216.242 329.006, 218.137 327.112, 218.137 327.112, 216.242 325.217, 216.242 325.217, 214.348"/>
</g>
<path d="M427.272,277.753v -57.7679" fill="none" stroke="#00cccc"/>
<path d="M427.272,214.302v -57.7679" fill="none" stroke="#00cccc"/>
<path d="M372.154,217.143h 52.2764" fill="none" stroke="#00cccc"/>
<path d="M430.113,217.143h 52.2764" fill="none" stroke="#00cccc"/>
<g stroke="#00cccc" stroke-width="1" fill="none">
<polygon points=" 426.324, 216.196 426.324, 214.302 428.219, 214.302 428.219, 216.196 430.113, 216.196 430.113, 218.091 428.219, 218.091 428.219, 219.985 426.324, 219.985 426.324, 218.091 424.43, 218.091 424.43, 216.196"/>
</g>
<path d="M85.5394,216.506h 9.60275" fill="none" stroke="#0033ff"/>
<path d="M97.9839,216.506h 9.60275" fill="none" stroke="#0033ff"/>
<g fill="#0033ff">
<polygon points=" 96.563, 217.927 95.1421, 219.348 93.7212, 217.927 95.1421, 216.506 93.7212, 215.085 95.1421, 213.664 96.563, 215.085 97.9839, 213.664 99.4047, 215.085 97.9839, 216.506 99.4047, 217.927 97.9839, 219.348 96.563, 217.927"/>
</g>
<path d="M129.634,217.789v -0.189301" fill="none" stroke="#0033ff"/>
<path d="M129.634,214.757v -0.189301" fill="none" stroke="#0033ff"/>
<path d="M107.587,216.178h 20.6264" fill="none" stroke="#0033ff"/>
<path d="M131.055,216.178h 20.6264" fill="none" stroke="#0033ff"/>
<g fill="#0033ff">
<polygon points=" 129.634, 217.599 128.213, 219.02 126.792, 217.599 128.213, 216.178 126.792, 214.757 128.213, 213.337 129.634, 214.757 131.055, 213.337 132.476, 214.757 131.055, 216.178 132.476, 217.599 131.055, 219.02 129.634, 217.599"/>
</g>
<path d="M173.728,216.448v -3.21463" fill="none" stroke="#0033ff"/>
<path d="M173.728,210.392v -3.21463" fill="none" stroke="#0033ff"/>
<path d="M151.681,211.813h 20.6264" fill="none" stroke="#0033ff"/>
<path d="M175.149,211.813h 20.6264" fill="none" stroke="#0033ff"/>
<g fill="#0033ff">
<polygon points=" 173.728, 213.234 172.307, 214.655 170.887, 213.234 172.307, 211.813 170.887, 210.392 172.307, 208.971 173.728, 210.392 175.149, 208.971 176.57, 210.392 175.149, 211.813 176.57, 213.234 175.149, 214.655 173.728, 213.234"/>
</g>
<path d="M217.823,224.054v -8.69657" fill="none" stroke="#0033ff"/>
<path d="M217.823,212.516v -8.69657" fill="none" stroke="#0033ff"/>
<path d="M195.776,213.937h 20.6264" fill="none" stroke="#0033ff"/>
<path d="M219.244,213.937h 20.6264" fill="none" stroke="#0033ff"/>
<g fill="#0033ff">
<polygon points=" 217.823, 215.357 216.402, 216.778 214.981, 215.357 216.402, 213.937 214.981, 212.516 216.402, 211.095 217.823, 212.516 219.244, 211.095 220.665, 212.516 219.244, 213.937 220.665, 215.357 219.244, 216.778 217.823, 215.357"/>
</g>
<path d="M261.917,220.14v -19.5741" fill="none" stroke="#0033ff"/>
<path d="M261.917,197.725v -19.5741" fill="none" stroke="#0033ff"/>
<path d="M239.87,199.145h 20.6264" fill="none" stroke="#0033ff"/>
<path d="M263.338,199.145h 20.6264" fill="none" stroke="#0033ff"/>
<g fill="#0033ff">
<polygon points=" 261.917, 200.566 260.496, 201.987 259.076, 200.566 260.496, 199.145 259.076, 197.725 260.496, 196.304 261.917, 197.725 263.338, 196.304 264.759, 197.725 263.338, 199.145 264.759, 200.566 263.338, 201.987 261.917, 200.566"/>
</g>
<path d="M328.059,240.087v -29.3818" fill="none" stroke="#0033ff"/>
<path d="M328.059,207.864v -29.3818" fill="none" stroke="#0033ff"/>
<path d="M283.965,209.285h 42.6736" fill="none" stroke="#0033ff"/>
<path d="M329.48,209.285h 42.6736" fill="none" stroke="#0033ff"/>
<g fill="#0033ff">
<polygon points=" 328.059, 210.705 326.638, 212.126 325.217, 210.705 326.638, 209.285 325.217, 207.864 326.638, 206.443 328.059, 207.864 329.48, 206.443 330.901, 207.864 329.48, 209.285 330.901, 210.705 329.48, 212.126 328.059, 210.705"/>
</g>
<path d="M427.272,253.796v -76.9551" fill="none" stroke="#0033ff"/>
<path d="M427.272,174v -76.9551" fill="none" stroke="#0033ff"/>
<path d="M372.154,175.421h 53.6972" fill="none" stroke="#0033ff"/>
<path d="M428.693,175.421h 53.6972" fill="none" stroke="#0033ff"/>
<g fill="#0033ff">
<polygon points=" 427.272, 176.841 425.851, 178.262 424.43, 176.841 425.851, 175.421 424.43, 174 425.851, 172.579 427.272, 174 428.693, 172.579 430.113, 174 428.693, 175.421 430.113, 176.841 428.693, 178.262 427.272, 176.841"/>
</g>
<path d="M85.5394,201.679h 8.18187" fill="none" stroke="#0000ff"/>
<path d="M99.4047,201.679h 8.18187" fill="none" stroke="#0000ff"/>
<g stroke="#0000ff" stroke-width="1" fill="none">
<polygon points=" 95.6157, 200.732 95.6157, 198.837 97.5102, 198.837 97.5102, 200.732 99.4047, 200.732 99.4047, 202.626 97.5102, 202.626 97.5102, 204.521 95.6157, 204.521 95.6157, 202.626 93.7212, 202.626 93.7212, 200.732"/>
</g>
<path d="M107.587,198.386h 19.2055" fill="none" stroke="#0000ff"/>
<path d="M132.476,198.386h 19.2055" fill="none" stroke="#0000ff"/>
<g stroke="#0000ff" stroke-width="1" fill="none">
<polygon points=" 128.687, 197.438 128.687, 195.544 130.581, 195.544 130.581, 197.438 132.476, 197.438 132.476, 199.333 130.581, 199.333 130.581, 201.227 128.687, 201.227 128.687, 199.333 126.792, 199.333 126.792, 197.438"/>
</g>
<path d="M173.728,206.59v -2.82285" fill="none" stroke="#0000ff"/>
<path d="M173.728,198.084v -2.82285" fill="none" stroke="#0000ff"/>
<path d="M151.681,200.925h 19.2055" fill="none" stroke="#0000ff"/>
<path d="M176.57,200.925h 19.2055" fill="none" stroke="#0000ff"/>
<g stroke="#0000ff" stroke-width="1" fill="none">
<polygon points=" 172.781, 199.978 172.781, 198.084 174.676, 198.084 174.676, 199.978 176.57, 199.978 176.57, 201.873 174.676, 201.873 174.676, 203.767 172.781, 203.767 172.781, 201.873 170.887, 201.873 170.887, 199.978"/>
</g>
<path d="M217.823,206.429v -9.95117" fill="none" stroke="#0000ff"/>
<path d="M217.823,190.794v -9.95117" fill="none" stroke="#0000ff"/>
<path d="M195.776,193.636h 19.2055" fill="none" stroke="#0000ff"/>
<path d="M220.665,193.636h 19.2055" fill="none" stroke="#0000ff"/>
<g stroke="#0000ff" stroke-width="1" fill="none">
<polygon points=" 216.876, 192.689 216.876, 190.794 218.77, 190.794 218.77, 192.689 220.665, 192.689 220.665, 194.583 218.77, 194.583 218.77, 196.478 216.876, 196.478 216.876, 194.583 214.981, 194.583 214.981, 192.689"/>
</g>
<path d="M261.917,218.815v -22.2182" fill="none" stroke="#0000ff"/>
<path d="M261.917,190.913v -22.2182" fill="none" stroke="#0000ff"/>
<path d="M239.87,193.755h 19.2055" fill="none" stroke="#0000ff"/>
<path d="M264.759,193.755h 19.2055" fill="none" stroke="#0000ff"/>
<g stroke="#0000ff" stroke-width="1" fill="none">
<polygon points=" 260.97, 192.807 260.97, 190.913 262.865, 190.913 262.865, 192.807 264.759, 192.807 264.759, 194.702 262.865, 194.702 262.865, 196.596 260.97, 196.596 260.97, 194.702 259.076, 194.702 259.076, 192.807"/>
</g>
<path d="M328.059,264.108v -30.2651" fill="none" stroke="#0000ff"/>
<path d="M328.059,228.16v -30.2651" fill="none" stroke="#0000ff"/>
<path d="M283.965,231.001h 41.2527" fill="none" stroke="#0000ff"/>
<path d="M330.901,231.001h 41.2527" fill="none" stroke="#0000ff"/>
<g stroke="#0000ff" stroke-width="1" fill="none">
<polygon points=" 327.112, 230.054 327.112, 228.16 329.006, 228.16 329.006, 230.054 330.901, 230.054 330.901, 231.949 329.006, 231.949 329.006, 233.843 327.112, 233.843 327.112, 231.949 325.217, 231.949 325.217, 230.054"/>
</g>
<path d="M427.272,233.532v -101.426" fill="none" stroke="#0000ff"/>
<path d="M427.272,126.422v -101.426" fill="none" stroke="#0000ff"/>
<path d="M372.154,129.264h 52.2764" fill="none" stroke="#0000ff"/>
<path d="M430.113,129.264h 52.2764" fill="none" stroke="#0000ff"/>
<g stroke="#0000ff" stroke-width="1" fill="none">
<polygon points=" 426.324, 128.316 426.324, 126.422 428.219, 126.422 428.219, 128.316 430.113, 128.316 430.113, 130.211 428.219, 130.211 428.219, 132.105 426.324, 132.105 426.324, 130.211 424.43, 130.211 424.43, 128.316"/>
</g>
<text xml:space="preserve" x="119.143" y="51.1515" fill="black" font-size="11.7432" font-family="Helvetica">PYTHIA8, pAu200GeV with option3</text>
<text xml:space="preserve" x="156.796" y="65.3603" fill="black" font-size="11.7432" font-family="Helvetica">|&lt;1</text>
<text xml:space="preserve" x="150.402" y="65.3603" fill="black" font-size="11.7432" font-family="Times">&#0951;</text>
<text xml:space="preserve" x="133.352" y="65.3603" fill="black" font-size="11.7432" font-family="Helvetica"> in |</text>
<text xml:space="preserve" x="124.827" y="60.3872" fill="black" font-size="7.99544" font-family="Helvetica">dir</text>
<text xml:space="preserve" x="119.143" y="65.3603" fill="black" font-size="11.7432" font-family="Times">&#0947;</text>
<text xml:space="preserve" x="170.295" y="80.2794" fill="black" font-size="11.7432" font-family="Helvetica">centrality: 0~10%</text>
<g fill="#00cc00">
<polygon points=" 141.285, 76.3763 141.285, 74.4818 143.18, 74.4818 143.18, 76.3763 145.074, 76.3763 145.074, 78.2708 143.18, 78.2708 143.18, 80.1653 141.285, 80.1653 141.285, 78.2708 139.391, 78.2708 139.391, 76.3763"/>
</g>
<text xml:space="preserve" x="170.295" y="94.4882" fill="black" font-size="11.7432" font-family="Helvetica">centrality: 10~20%</text>
<g fill="#33ff99">
<polygon points=" 141.285, 90.9656 141.285, 89.0711 143.18, 89.0711 143.18, 90.9656 145.074, 90.9656 145.074, 92.8601 143.18, 92.8601 143.18, 94.7546 141.285, 94.7546 141.285, 92.8601 139.391, 92.8601 139.391, 90.9656"/>
</g>
<text xml:space="preserve" x="170.295" y="109.407" fill="black" font-size="11.7432" font-family="Helvetica">centrality: 20~40%</text>
<g stroke="#00cccc" stroke-width="1" fill="none">
<polygon points=" 141.285, 105.555 141.285, 103.66 143.18, 103.66 143.18, 105.555 145.074, 105.555 145.074, 107.449 143.18, 107.449 143.18, 109.344 141.285, 109.344 141.285, 107.449 139.391, 107.449 139.391, 105.555"/>
</g>
<text xml:space="preserve" x="170.295" y="124.327" fill="black" font-size="11.7432" font-family="Helvetica">centrality: 40~60%</text>
<g fill="#0033ff">
<polygon points=" 142.232, 122.512 140.811, 123.933 139.391, 122.512 140.811, 121.092 139.391, 119.671 140.811, 118.25 142.232, 119.671 143.653, 118.25 145.074, 119.671 143.653, 121.092 145.074, 122.512 143.653, 123.933 142.232, 122.512"/>
</g>
<text xml:space="preserve" x="170.295" y="138.535" fill="black" font-size="11.7432" font-family="Helvetica">centrality: 60~80%</text>
<g stroke="#0000ff" stroke-width="1" fill="none">
<polygon points=" 141.285, 134.734 141.285, 132.839 143.18, 132.839 143.18, 134.734 145.074, 134.734 145.074, 136.628 143.18, 136.628 143.18, 138.523 141.285, 138.523 141.285, 136.628 139.391, 136.628 139.391, 134.734"/>
</g></svg>
