<?xml version="1.0" standalone="no"?>
<svg width="567.429" height="409.002" viewBox="0 0 567.429 409.002" xmlns="http://www.w3.org/2000/svg" shape-rendering="crispEdges">
<title>
/Users/jinhyunpark/npl/gitHub/Centrality_dependent_BiasCorrection/plots/plots_scaled-dNdpT/ratio_ratioCent2MB_dir2pion0_byCentrality.svg
</title>
<desc>
Creator: ROOT Version 6.28/04
CreationDate: Tue Oct 24 12:48:34 2023</desc>
<defs>
</defs>
<rect x="0.5" y="0" width="566.929" height="408.502" fill="white"/>
<rect x="68.5315" y="20.4251" width="430.866" height="339.056" fill="white"/>
<rect x="68.5315" y="20.4251" width="430.866" height="339.056" fill="none" stroke="black"/>
<rect x="68.5315" y="20.4251" width="430.866" height="339.056" fill="white"/>
<rect x="68.5315" y="20.4251" width="430.866" height="339.056" fill="none" stroke="black"/>
<path d="M68.5315,359.481h 430.866" fill="none" stroke="black"/>
<path d="M68.5315,350.168v 9.31384" fill="none" stroke="black"/>
<path d="M80.5,354.824v 4.65692" fill="none" stroke="black"/>
<path d="M92.4685,354.824v 4.65692" fill="none" stroke="black"/>
<path d="M104.437,354.824v 4.65692" fill="none" stroke="black"/>
<path d="M116.406,350.168v 9.31384" fill="none" stroke="black"/>
<path d="M128.374,354.824v 4.65692" fill="none" stroke="black"/>
<path d="M140.343,354.824v 4.65692" fill="none" stroke="black"/>
<path d="M152.311,354.824v 4.65692" fill="none" stroke="black"/>
<path d="M164.28,350.168v 9.31384" fill="none" stroke="black"/>
<path d="M176.248,354.824v 4.65692" fill="none" stroke="black"/>
<path d="M188.217,354.824v 4.65692" fill="none" stroke="black"/>
<path d="M200.185,354.824v 4.65692" fill="none" stroke="black"/>
<path d="M212.154,350.168v 9.31384" fill="none" stroke="black"/>
<path d="M224.122,354.824v 4.65692" fill="none" stroke="black"/>
<path d="M236.091,354.824v 4.65692" fill="none" stroke="black"/>
<path d="M248.059,354.824v 4.65692" fill="none" stroke="black"/>
<path d="M260.028,350.168v 9.31384" fill="none" stroke="black"/>
<path d="M271.996,354.824v 4.65692" fill="none" stroke="black"/>
<path d="M283.965,354.824v 4.65692" fill="none" stroke="black"/>
<path d="M295.933,354.824v 4.65692" fill="none" stroke="black"/>
<path d="M307.902,350.168v 9.31384" fill="none" stroke="black"/>
<path d="M319.87,354.824v 4.65692" fill="none" stroke="black"/>
<path d="M331.839,354.824v 4.65692" fill="none" stroke="black"/>
<path d="M343.807,354.824v 4.65692" fill="none" stroke="black"/>
<path d="M355.776,350.168v 9.31384" fill="none" stroke="black"/>
<path d="M367.744,354.824v 4.65692" fill="none" stroke="black"/>
<path d="M379.713,354.824v 4.65692" fill="none" stroke="black"/>
<path d="M391.681,354.824v 4.65692" fill="none" stroke="black"/>
<path d="M403.65,350.168v 9.31384" fill="none" stroke="black"/>
<path d="M415.618,354.824v 4.65692" fill="none" stroke="black"/>
<path d="M427.587,354.824v 4.65692" fill="none" stroke="black"/>
<path d="M439.555,354.824v 4.65692" fill="none" stroke="black"/>
<path d="M451.524,350.168v 9.31384" fill="none" stroke="black"/>
<path d="M463.492,354.824v 4.65692" fill="none" stroke="black"/>
<path d="M475.461,354.824v 4.65692" fill="none" stroke="black"/>
<path d="M487.429,354.824v 4.65692" fill="none" stroke="black"/>
<path d="M499.398,350.168v 9.31384" fill="none" stroke="black"/>
<text xml:space="preserve" x="64.4394" y="372.269" fill="black" font-size="13.617" font-family="Helvetica">2</text>
<text xml:space="preserve" x="112.749" y="372.269" fill="black" font-size="13.617" font-family="Helvetica">4</text>
<text xml:space="preserve" x="160.348" y="372.269" fill="black" font-size="13.617" font-family="Helvetica">6</text>
<text xml:space="preserve" x="207.948" y="372.269" fill="black" font-size="13.617" font-family="Helvetica">8</text>
<text xml:space="preserve" x="251.995" y="372.269" fill="black" font-size="13.617" font-family="Helvetica">10</text>
<text xml:space="preserve" x="299.594" y="372.269" fill="black" font-size="13.617" font-family="Helvetica">12</text>
<text xml:space="preserve" x="347.904" y="372.269" fill="black" font-size="13.617" font-family="Helvetica">14</text>
<text xml:space="preserve" x="395.503" y="372.269" fill="black" font-size="13.617" font-family="Helvetica">16</text>
<text xml:space="preserve" x="443.103" y="372.269" fill="black" font-size="13.617" font-family="Helvetica">18</text>
<text xml:space="preserve" x="491.412" y="372.269" fill="black" font-size="13.617" font-family="Helvetica">20</text>
<text xml:space="preserve" x="453.759" y="384.347" fill="black" font-size="13.617" font-family="Helvetica">(GeV/c)</text>
<text xml:space="preserve" x="448.076" y="392.162" fill="black" font-size="9.24468" font-family="Helvetica">T</text>
<text xml:space="preserve" x="440.261" y="384.347" fill="black" font-size="13.617" font-family="Helvetica">p</text>
<path d="M68.5315,20.4251h 430.866" fill="none" stroke="black"/>
<path d="M68.5315,29.7389v -9.31384" fill="none" stroke="black"/>
<path d="M80.5,25.082v -4.65692" fill="none" stroke="black"/>
<path d="M92.4685,25.082v -4.65692" fill="none" stroke="black"/>
<path d="M104.437,25.082v -4.65692" fill="none" stroke="black"/>
<path d="M116.406,29.7389v -9.31384" fill="none" stroke="black"/>
<path d="M128.374,25.082v -4.65692" fill="none" stroke="black"/>
<path d="M140.343,25.082v -4.65692" fill="none" stroke="black"/>
<path d="M152.311,25.082v -4.65692" fill="none" stroke="black"/>
<path d="M164.28,29.7389v -9.31384" fill="none" stroke="black"/>
<path d="M176.248,25.082v -4.65692" fill="none" stroke="black"/>
<path d="M188.217,25.082v -4.65692" fill="none" stroke="black"/>
<path d="M200.185,25.082v -4.65692" fill="none" stroke="black"/>
<path d="M212.154,29.7389v -9.31384" fill="none" stroke="black"/>
<path d="M224.122,25.082v -4.65692" fill="none" stroke="black"/>
<path d="M236.091,25.082v -4.65692" fill="none" stroke="black"/>
<path d="M248.059,25.082v -4.65692" fill="none" stroke="black"/>
<path d="M260.028,29.7389v -9.31384" fill="none" stroke="black"/>
<path d="M271.996,25.082v -4.65692" fill="none" stroke="black"/>
<path d="M283.965,25.082v -4.65692" fill="none" stroke="black"/>
<path d="M295.933,25.082v -4.65692" fill="none" stroke="black"/>
<path d="M307.902,29.7389v -9.31384" fill="none" stroke="black"/>
<path d="M319.87,25.082v -4.65692" fill="none" stroke="black"/>
<path d="M331.839,25.082v -4.65692" fill="none" stroke="black"/>
<path d="M343.807,25.082v -4.65692" fill="none" stroke="black"/>
<path d="M355.776,29.7389v -9.31384" fill="none" stroke="black"/>
<path d="M367.744,25.082v -4.65692" fill="none" stroke="black"/>
<path d="M379.713,25.082v -4.65692" fill="none" stroke="black"/>
<path d="M391.681,25.082v -4.65692" fill="none" stroke="black"/>
<path d="M403.65,29.7389v -9.31384" fill="none" stroke="black"/>
<path d="M415.618,25.082v -4.65692" fill="none" stroke="black"/>
<path d="M427.587,25.082v -4.65692" fill="none" stroke="black"/>
<path d="M439.555,25.082v -4.65692" fill="none" stroke="black"/>
<path d="M451.524,29.7389v -9.31384" fill="none" stroke="black"/>
<path d="M463.492,25.082v -4.65692" fill="none" stroke="black"/>
<path d="M475.461,25.082v -4.65692" fill="none" stroke="black"/>
<path d="M487.429,25.082v -4.65692" fill="none" stroke="black"/>
<path d="M499.398,29.7389v -9.31384" fill="none" stroke="black"/>
<path d="M68.5315,359.481v -339.056" fill="none" stroke="black"/>
<path d="M82.648,336.878h -14.1165" fill="none" stroke="black"/>
<path d="M75.5898,325.576h -7.05827" fill="none" stroke="black"/>
<path d="M75.5898,314.274h -7.05827" fill="none" stroke="black"/>
<path d="M75.5898,302.972h -7.05827" fill="none" stroke="black"/>
<path d="M82.648,291.67h -14.1165" fill="none" stroke="black"/>
<path d="M75.5898,280.368h -7.05827" fill="none" stroke="black"/>
<path d="M75.5898,269.066h -7.05827" fill="none" stroke="black"/>
<path d="M75.5898,257.764h -7.05827" fill="none" stroke="black"/>
<path d="M82.648,246.463h -14.1165" fill="none" stroke="black"/>
<path d="M75.5898,235.161h -7.05827" fill="none" stroke="black"/>
<path d="M75.5898,223.859h -7.05827" fill="none" stroke="black"/>
<path d="M75.5898,212.557h -7.05827" fill="none" stroke="black"/>
<path d="M82.648,201.255h -14.1165" fill="none" stroke="black"/>
<path d="M75.5898,189.953h -7.05827" fill="none" stroke="black"/>
<path d="M75.5898,178.651h -7.05827" fill="none" stroke="black"/>
<path d="M75.5898,167.349h -7.05827" fill="none" stroke="black"/>
<path d="M82.648,156.048h -14.1165" fill="none" stroke="black"/>
<path d="M75.5898,144.746h -7.05827" fill="none" stroke="black"/>
<path d="M75.5898,133.444h -7.05827" fill="none" stroke="black"/>
<path d="M75.5898,122.142h -7.05827" fill="none" stroke="black"/>
<path d="M82.648,110.84h -14.1165" fill="none" stroke="black"/>
<path d="M75.5898,99.5382h -7.05827" fill="none" stroke="black"/>
<path d="M75.5898,88.2363h -7.05827" fill="none" stroke="black"/>
<path d="M75.5898,76.9345h -7.05827" fill="none" stroke="black"/>
<path d="M82.648,65.6326h -14.1165" fill="none" stroke="black"/>
<path d="M75.5898,54.3307h -7.05827" fill="none" stroke="black"/>
<path d="M75.5898,43.0288h -7.05827" fill="none" stroke="black"/>
<path d="M75.5898,31.727h -7.05827" fill="none" stroke="black"/>
<path d="M82.648,20.4251h -14.1165" fill="none" stroke="black"/>
<path d="M82.648,336.878h -14.1165" fill="none" stroke="black"/>
<path d="M75.5898,348.18h -7.05827" fill="none" stroke="black"/>
<path d="M75.5898,359.481h -7.05827" fill="none" stroke="black"/>
<text xml:space="preserve" x="46.6784" y="341.72" fill="black" font-size="13.617" font-family="Helvetica">0.6</text>
<text xml:space="preserve" x="46.6784" y="296.252" fill="black" font-size="13.617" font-family="Helvetica">0.8</text>
<text xml:space="preserve" x="60.1768" y="251.495" fill="black" font-size="13.617" font-family="Helvetica">1</text>
<text xml:space="preserve" x="46.6784" y="206.737" fill="black" font-size="13.617" font-family="Helvetica">1.2</text>
<text xml:space="preserve" x="46.6784" y="161.269" fill="black" font-size="13.617" font-family="Helvetica">1.4</text>
<text xml:space="preserve" x="46.6784" y="115.801" fill="black" font-size="13.617" font-family="Helvetica">1.6</text>
<text xml:space="preserve" x="46.6784" y="70.3333" fill="black" font-size="13.617" font-family="Helvetica">1.8</text>
<text xml:space="preserve" x="58.0454" y="25.5758" fill="black" font-size="13.617" font-family="Helvetica">2</text>
<g transform="rotate(-90,40.9949,33.3906)">
<text xml:space="preserve" x="40.9949" y="33.3906" fill="black" font-size="9.24468" font-family="Helvetica">MB</text>
</g>
<g transform="rotate(-90,33.1801,36.9428)">
<text xml:space="preserve" x="33.1801" y="36.9428" fill="black" font-size="13.617" font-family="Helvetica">)</text>
</g>
<g transform="rotate(-90,21.8131,43.3367)">
<text xml:space="preserve" x="21.8131" y="43.3367" fill="black" font-size="6.32979" font-family="Helvetica">dir</text>
</g>
<g transform="rotate(-90,25.3653,48.3098)">
<text xml:space="preserve" x="25.3653" y="48.3098" fill="black" font-size="9.24468" font-family="Times">&#0947;</text>
</g>
<g transform="rotate(-90,33.1801,61.8081)">
<text xml:space="preserve" x="33.1801" y="61.8081" fill="black" font-size="13.617" font-family="Helvetica">/Y</text>
</g>
<g transform="rotate(-90,23.234,65.3603)">
<text xml:space="preserve" x="23.234" y="65.3603" fill="black" font-size="6.32979" font-family="Helvetica">0</text>
</g>
<g transform="rotate(-90,26.7862,70.3333)">
<text xml:space="preserve" x="26.7862" y="70.3333" fill="black" font-size="9.24468" font-family="Times">&#0960;</text>
</g>
<g transform="rotate(-90,33.1801,95.1986)">
<text xml:space="preserve" x="33.1801" y="95.1986" fill="black" font-size="13.617" font-family="Helvetica"> / (Y</text>
</g>
<g transform="rotate(-90,40.2845,112.96)">
<text xml:space="preserve" x="40.2845" y="112.96" fill="black" font-size="9.24468" font-family="Helvetica">cent</text>
</g>
<g transform="rotate(-90,33.1801,116.512)">
<text xml:space="preserve" x="33.1801" y="116.512" fill="black" font-size="13.617" font-family="Helvetica">)</text>
</g>
<g transform="rotate(-90,21.1027,122.906)">
<text xml:space="preserve" x="21.1027" y="122.906" fill="black" font-size="6.32979" font-family="Helvetica">dir</text>
</g>
<g transform="rotate(-90,25.3653,127.879)">
<text xml:space="preserve" x="25.3653" y="127.879" fill="black" font-size="9.24468" font-family="Times">&#0947;</text>
</g>
<g transform="rotate(-90,33.1801,141.377)">
<text xml:space="preserve" x="33.1801" y="141.377" fill="black" font-size="13.617" font-family="Helvetica">/Y</text>
</g>
<g transform="rotate(-90,22.5236,144.929)">
<text xml:space="preserve" x="22.5236" y="144.929" fill="black" font-size="6.32979" font-family="Helvetica">0</text>
</g>
<g transform="rotate(-90,26.7862,149.902)">
<text xml:space="preserve" x="26.7862" y="149.902" fill="black" font-size="9.24468" font-family="Times">&#0960;</text>
</g>
<g transform="rotate(-90,33.1801,163.401)">
<text xml:space="preserve" x="33.1801" y="163.401" fill="black" font-size="13.617" font-family="Helvetica">(Y</text>
</g>
<path d="M499.398,359.481v -339.056" fill="none" stroke="black"/>
<path d="M485.281,336.878h 14.1165" fill="none" stroke="black"/>
<path d="M492.339,325.576h 7.05827" fill="none" stroke="black"/>
<path d="M492.339,314.274h 7.05827" fill="none" stroke="black"/>
<path d="M492.339,302.972h 7.05827" fill="none" stroke="black"/>
<path d="M485.281,291.67h 14.1165" fill="none" stroke="black"/>
<path d="M492.339,280.368h 7.05827" fill="none" stroke="black"/>
<path d="M492.339,269.066h 7.05827" fill="none" stroke="black"/>
<path d="M492.339,257.764h 7.05827" fill="none" stroke="black"/>
<path d="M485.281,246.463h 14.1165" fill="none" stroke="black"/>
<path d="M492.339,235.161h 7.05827" fill="none" stroke="black"/>
<path d="M492.339,223.859h 7.05827" fill="none" stroke="black"/>
<path d="M492.339,212.557h 7.05827" fill="none" stroke="black"/>
<path d="M485.281,201.255h 14.1165" fill="none" stroke="black"/>
<path d="M492.339,189.953h 7.05827" fill="none" stroke="black"/>
<path d="M492.339,178.651h 7.05827" fill="none" stroke="black"/>
<path d="M492.339,167.349h 7.05827" fill="none" stroke="black"/>
<path d="M485.281,156.048h 14.1165" fill="none" stroke="black"/>
<path d="M492.339,144.746h 7.05827" fill="none" stroke="black"/>
<path d="M492.339,133.444h 7.05827" fill="none" stroke="black"/>
<path d="M492.339,122.142h 7.05827" fill="none" stroke="black"/>
<path d="M485.281,110.84h 14.1165" fill="none" stroke="black"/>
<path d="M492.339,99.5382h 7.05827" fill="none" stroke="black"/>
<path d="M492.339,88.2363h 7.05827" fill="none" stroke="black"/>
<path d="M492.339,76.9345h 7.05827" fill="none" stroke="black"/>
<path d="M485.281,65.6326h 14.1165" fill="none" stroke="black"/>
<path d="M492.339,54.3307h 7.05827" fill="none" stroke="black"/>
<path d="M492.339,43.0288h 7.05827" fill="none" stroke="black"/>
<path d="M492.339,31.727h 7.05827" fill="none" stroke="black"/>
<path d="M485.281,20.4251h 14.1165" fill="none" stroke="black"/>
<path d="M485.281,336.878h 14.1165" fill="none" stroke="black"/>
<path d="M492.339,348.18h 7.05827" fill="none" stroke="black"/>
<path d="M492.339,359.481h 7.05827" fill="none" stroke="black"/>
<path d="M68.5315,229.65h 9.12675" fill="none" stroke="#9900cc"/>
<path d="M83.3418,229.65h 9.12675" fill="none" stroke="#9900cc"/>
<g fill="#9900cc">
<polygon points=" 79.5527, 228.703 79.5527, 226.808 81.4473, 226.808 81.4473, 228.703 83.3418, 228.703 83.3418, 230.597 81.4473, 230.597 81.4473, 232.492 79.5527, 232.492 79.5527, 230.597 77.6582, 230.597 77.6582, 228.703"/>
</g>
<path d="M92.4685,232.659h 21.0953" fill="none" stroke="#9900cc"/>
<path d="M119.247,232.659h 21.0953" fill="none" stroke="#9900cc"/>
<g fill="#9900cc">
<polygon points=" 115.458, 231.711 115.458, 229.817 117.353, 229.817 117.353, 231.711 119.247, 231.711 119.247, 233.606 117.353, 233.606 117.353, 235.5 115.458, 235.5 115.458, 233.606 113.564, 233.606 113.564, 231.711"/>
</g>
<path d="M164.28,240.729v -1.32069" fill="none" stroke="#9900cc"/>
<path d="M164.28,233.725v -1.32069" fill="none" stroke="#9900cc"/>
<path d="M140.343,236.567h 21.0953" fill="none" stroke="#9900cc"/>
<path d="M167.121,236.567h 21.0953" fill="none" stroke="#9900cc"/>
<g fill="#9900cc">
<polygon points=" 163.332, 235.62 163.332, 233.725 165.227, 233.725 165.227, 235.62 167.121, 235.62 167.121, 237.514 165.227, 237.514 165.227, 239.409 163.332, 239.409 163.332, 237.514 161.438, 237.514 161.438, 235.62"/>
</g>
<path d="M212.154,262.885v -5.77383" fill="none" stroke="#9900cc"/>
<path d="M212.154,251.428v -5.77383" fill="none" stroke="#9900cc"/>
<path d="M188.217,254.27h 21.0953" fill="none" stroke="#9900cc"/>
<path d="M214.995,254.27h 21.0953" fill="none" stroke="#9900cc"/>
<g fill="#9900cc">
<polygon points=" 211.206, 253.323 211.206, 251.428 213.101, 251.428 213.101, 253.323 214.995, 253.323 214.995, 255.217 213.101, 255.217 213.101, 257.112 211.206, 257.112 211.206, 255.217 209.312, 255.217 209.312, 253.323"/>
</g>
<path d="M260.028,256.619v -15.4971" fill="none" stroke="#9900cc"/>
<path d="M260.028,235.438v -15.4971" fill="none" stroke="#9900cc"/>
<path d="M236.091,238.28h 21.0953" fill="none" stroke="#9900cc"/>
<path d="M262.869,238.28h 21.0953" fill="none" stroke="#9900cc"/>
<g fill="#9900cc">
<polygon points=" 259.08, 237.332 259.08, 235.438 260.975, 235.438 260.975, 237.332 262.869, 237.332 262.869, 239.227 260.975, 239.227 260.975, 241.121 259.08, 241.121 259.08, 239.227 257.186, 239.227 257.186, 237.332"/>
</g>
<path d="M331.839,291.032v -19.8105" fill="none" stroke="#9900cc"/>
<path d="M331.839,265.538v -19.8105" fill="none" stroke="#9900cc"/>
<path d="M283.965,268.38h 45.0323" fill="none" stroke="#9900cc"/>
<path d="M334.68,268.38h 45.0323" fill="none" stroke="#9900cc"/>
<g fill="#9900cc">
<polygon points=" 330.891, 267.433 330.891, 265.538 332.786, 265.538 332.786, 267.433 334.68, 267.433 334.68, 269.327 332.786, 269.327 332.786, 271.222 330.891, 271.222 330.891, 269.327 328.997, 269.327 328.997, 267.433"/>
</g>
<path d="M439.555,215.226v -146.543" fill="none" stroke="#9900cc"/>
<path d="M439.555,62.9997v -42.5747" fill="none" stroke="#9900cc"/>
<path d="M379.713,65.8415h 57.0008" fill="none" stroke="#9900cc"/>
<path d="M442.397,65.8415h 57.0008" fill="none" stroke="#9900cc"/>
<g fill="#9900cc">
<polygon points=" 438.608, 64.8942 438.608, 62.9997 440.502, 62.9997 440.502, 64.8942 442.397, 64.8942 442.397, 66.7887 440.502, 66.7887 440.502, 68.6832 438.608, 68.6832 438.608, 66.7887 436.713, 66.7887 436.713, 64.8942"/>
</g>
<path d="M68.5315,234.576h 9.12675" fill="none" stroke="#9933ff"/>
<path d="M83.3418,234.576h 9.12675" fill="none" stroke="#9933ff"/>
<g fill="#9933ff">
<polygon points=" 79.5527, 233.619 79.5527, 231.734 81.4473, 231.734 81.4473, 233.629 83.3418, 233.629 83.3418, 235.523 81.4473, 235.523 81.4473, 237.418 79.5527, 237.418 79.5527, 235.523 77.6582, 235.523 77.6582, 233.629 79.5527, 233.638 79.5527,
 235.523 81.4473, 235.523 81.4473, 233.629"/>
</g>
<path d="M92.4685,235.259h 21.0953" fill="none" stroke="#9933ff"/>
<path d="M119.247,235.259h 21.0953" fill="none" stroke="#9933ff"/>
<g fill="#9933ff">
<polygon points=" 115.458, 234.302 115.458, 232.417 117.353, 232.417 117.353, 234.311 119.247, 234.311 119.247, 236.206 117.353, 236.206 117.353, 238.1 115.458, 238.1 115.458, 236.206 113.564, 236.206 113.564, 234.311 115.458, 234.321 115.458,
 236.206 117.353, 236.206 117.353, 234.311"/>
</g>
<path d="M164.28,241.953v -1.3776" fill="none" stroke="#9933ff"/>
<path d="M164.28,234.892v -1.3776" fill="none" stroke="#9933ff"/>
<path d="M140.343,237.734h 21.0953" fill="none" stroke="#9933ff"/>
<path d="M167.121,237.734h 21.0953" fill="none" stroke="#9933ff"/>
<g fill="#9933ff">
<polygon points=" 163.332, 236.777 163.332, 234.892 165.227, 234.892 165.227, 236.786 167.121, 236.786 167.121, 238.681 165.227, 238.681 165.227, 240.575 163.332, 240.575 163.332, 238.681 161.438, 238.681 161.438, 236.786 163.332, 236.796 163.332,
 238.681 165.227, 238.681 165.227, 236.786"/>
</g>
<path d="M212.154,265.755v -5.62487" fill="none" stroke="#9933ff"/>
<path d="M212.154,254.447v -5.62487" fill="none" stroke="#9933ff"/>
<path d="M188.217,257.289h 21.0953" fill="none" stroke="#9933ff"/>
<path d="M214.995,257.289h 21.0953" fill="none" stroke="#9933ff"/>
<g fill="#9933ff">
<polygon points=" 211.206, 256.332 211.206, 254.447 213.101, 254.447 213.101, 256.341 214.995, 256.341 214.995, 258.236 213.101, 258.236 213.101, 260.13 211.206, 260.13 211.206, 258.236 209.312, 258.236 209.312, 256.341 211.206, 256.351 211.206,
 258.236 213.101, 258.236 213.101, 256.341"/>
</g>
<path d="M260.028,269.162v -13.7213" fill="none" stroke="#9933ff"/>
<path d="M260.028,249.757v -13.7213" fill="none" stroke="#9933ff"/>
<path d="M236.091,252.599h 21.0953" fill="none" stroke="#9933ff"/>
<path d="M262.869,252.599h 21.0953" fill="none" stroke="#9933ff"/>
<g fill="#9933ff">
<polygon points=" 259.08, 251.642 259.08, 249.757 260.975, 249.757 260.975, 251.652 262.869, 251.652 262.869, 253.546 260.975, 253.546 260.975, 255.441 259.08, 255.441 259.08, 253.546 257.186, 253.546 257.186, 251.652 259.08, 251.661 259.08, 253.546
 260.975, 253.546 260.975, 251.652"/>
</g>
<path d="M331.839,286.98v -20.3094" fill="none" stroke="#9933ff"/>
<path d="M331.839,260.987v -20.3094" fill="none" stroke="#9933ff"/>
<path d="M283.965,263.829h 45.0323" fill="none" stroke="#9933ff"/>
<path d="M334.68,263.829h 45.0323" fill="none" stroke="#9933ff"/>
<g fill="#9933ff">
<polygon points=" 330.891, 262.872 330.891, 260.987 332.786, 260.987 332.786, 262.882 334.68, 262.882 334.68, 264.776 332.786, 264.776 332.786, 266.671 330.891, 266.671 330.891, 264.776 328.997, 264.776 328.997, 262.882 330.891, 262.891 330.891,
 264.776 332.786, 264.776 332.786, 262.882"/>
</g>
<path d="M439.555,318.737v -51.6951" fill="none" stroke="#9933ff"/>
<path d="M439.555,261.359v -51.6951" fill="none" stroke="#9933ff"/>
<path d="M379.713,264.201h 57.0008" fill="none" stroke="#9933ff"/>
<path d="M442.397,264.201h 57.0008" fill="none" stroke="#9933ff"/>
<g fill="#9933ff">
<polygon points=" 438.608, 263.244 438.608, 261.359 440.502, 261.359 440.502, 263.253 442.397, 263.253 442.397, 265.148 440.502, 265.148 440.502, 267.042 438.608, 267.042 438.608, 265.148 436.713, 265.148 436.713, 263.253 438.608, 263.263 438.608,
 265.148 440.502, 265.148 440.502, 263.253"/>
</g>
<path d="M68.5315,240.449h 9.12675" fill="none" stroke="#6600cc"/>
<path d="M83.3418,240.449h 9.12675" fill="none" stroke="#6600cc"/>
<g stroke="#6600cc" stroke-width="1" fill="none">
<polygon points=" 79.5527, 239.502 79.5527, 237.608 81.4473, 237.608 81.4473, 239.502 83.3418, 239.502 83.3418, 241.397 81.4473, 241.397 81.4473, 243.291 79.5527, 243.291 79.5527, 241.397 77.6582, 241.397 77.6582, 239.502"/>
</g>
<path d="M92.4685,239.969h 21.0953" fill="none" stroke="#6600cc"/>
<path d="M119.247,239.969h 21.0953" fill="none" stroke="#6600cc"/>
<g stroke="#6600cc" stroke-width="1" fill="none">
<polygon points=" 115.458, 239.022 115.458, 237.128 117.353, 237.128 117.353, 239.022 119.247, 239.022 119.247, 240.917 117.353, 240.917 117.353, 242.811 115.458, 242.811 115.458, 240.917 113.564, 240.917 113.564, 239.022"/>
</g>
<path d="M164.28,244.504v -0.32456" fill="none" stroke="#6600cc"/>
<path d="M164.28,238.496v -0.32456" fill="none" stroke="#6600cc"/>
<path d="M140.343,241.338h 21.0953" fill="none" stroke="#6600cc"/>
<path d="M167.121,241.338h 21.0953" fill="none" stroke="#6600cc"/>
<g stroke="#6600cc" stroke-width="1" fill="none">
<polygon points=" 163.332, 240.391 163.332, 238.496 165.227, 238.496 165.227, 240.391 167.121, 240.391 167.121, 242.285 165.227, 242.285 165.227, 244.18 163.332, 244.18 163.332, 242.285 161.438, 242.285 161.438, 240.391"/>
</g>
<path d="M212.154,243.606v -4.47107" fill="none" stroke="#6600cc"/>
<path d="M212.154,233.451v -4.47107" fill="none" stroke="#6600cc"/>
<path d="M188.217,236.293h 21.0953" fill="none" stroke="#6600cc"/>
<path d="M214.995,236.293h 21.0953" fill="none" stroke="#6600cc"/>
<g stroke="#6600cc" stroke-width="1" fill="none">
<polygon points=" 211.206, 235.345 211.206, 233.451 213.101, 233.451 213.101, 235.345 214.995, 235.345 214.995, 237.24 213.101, 237.24 213.101, 239.134 211.206, 239.134 211.206, 237.24 209.312, 237.24 209.312, 235.345"/>
</g>
<path d="M260.028,272.834v -8.89814" fill="none" stroke="#6600cc"/>
<path d="M260.028,258.253v -8.89814" fill="none" stroke="#6600cc"/>
<path d="M236.091,261.094h 21.0953" fill="none" stroke="#6600cc"/>
<path d="M262.869,261.094h 21.0953" fill="none" stroke="#6600cc"/>
<g stroke="#6600cc" stroke-width="1" fill="none">
<polygon points=" 259.08, 260.147 259.08, 258.253 260.975, 258.253 260.975, 260.147 262.869, 260.147 262.869, 262.042 260.975, 262.042 260.975, 263.936 259.08, 263.936 259.08, 262.042 257.186, 262.042 257.186, 260.147"/>
</g>
<path d="M331.839,211.669v -24.3854" fill="none" stroke="#6600cc"/>
<path d="M331.839,181.6v -24.3854" fill="none" stroke="#6600cc"/>
<path d="M283.965,184.441h 45.0323" fill="none" stroke="#6600cc"/>
<path d="M334.68,184.441h 45.0323" fill="none" stroke="#6600cc"/>
<g stroke="#6600cc" stroke-width="1" fill="none">
<polygon points=" 330.891, 183.494 330.891, 181.6 332.786, 181.6 332.786, 183.494 334.68, 183.494 334.68, 185.389 332.786, 185.389 332.786, 187.283 330.891, 187.283 330.891, 185.389 328.997, 185.389 328.997, 183.494"/>
</g>
<path d="M439.555,329.111v -28.207" fill="none" stroke="#6600cc"/>
<path d="M439.555,295.22v -28.207" fill="none" stroke="#6600cc"/>
<path d="M379.713,298.062h 57.0008" fill="none" stroke="#6600cc"/>
<path d="M442.397,298.062h 57.0008" fill="none" stroke="#6600cc"/>
<g stroke="#6600cc" stroke-width="1" fill="none">
<polygon points=" 438.608, 297.115 438.608, 295.22 440.502, 295.22 440.502, 297.115 442.397, 297.115 442.397, 299.009 440.502, 299.009 440.502, 300.904 438.608, 300.904 438.608, 299.009 436.713, 299.009 436.713, 297.115"/>
</g>
<path d="M68.5315,247.07h 10.5476" fill="none" stroke="#330066"/>
<path d="M81.9209,247.07h 10.5476" fill="none" stroke="#330066"/>
<g fill="#330066">
<polygon points=" 80.5, 248.505 79.0791, 249.912 77.6582, 248.491 79.0791, 247.07 77.6582, 245.649 79.0791, 244.228 80.5, 245.649 81.9209, 244.228 83.3418, 245.649 81.9209, 247.07 83.3418, 248.491 81.9209, 249.912 80.5, 248.477 81.9067, 247.07 80.5,
 245.663 79.0933, 247.07 80.5, 248.477"/>
</g>
<path d="M92.4685,246.482h 22.5161" fill="none" stroke="#330066"/>
<path d="M117.826,246.482h 22.5161" fill="none" stroke="#330066"/>
<g fill="#330066">
<polygon points=" 116.406, 247.917 114.985, 249.324 113.564, 247.903 114.985, 246.482 113.564, 245.061 114.985, 243.64 116.406, 245.061 117.826, 243.64 119.247, 245.061 117.826, 246.482 119.247, 247.903 117.826, 249.324 116.406, 247.889 117.812,
 246.482 116.406, 245.075 114.999, 246.482 116.406, 247.889"/>
</g>
<path d="M164.28,250.982v -1.80223" fill="none" stroke="#330066"/>
<path d="M164.28,246.338v -1.80223" fill="none" stroke="#330066"/>
<path d="M140.343,247.759h 22.5161" fill="none" stroke="#330066"/>
<path d="M165.7,247.759h 22.5161" fill="none" stroke="#330066"/>
<g fill="#330066">
<polygon points=" 164.28, 249.194 162.859, 250.601 161.438, 249.18 162.859, 247.759 161.438, 246.338 162.859, 244.917 164.28, 246.338 165.7, 244.917 167.121, 246.338 165.7, 247.759 167.121, 249.18 165.7, 250.601 164.28, 249.166 165.686, 247.759
 164.28, 246.352 162.873, 247.759 164.28, 249.166"/>
</g>
<path d="M212.154,248.536v -6.03196" fill="none" stroke="#330066"/>
<path d="M212.154,239.663v -6.03196" fill="none" stroke="#330066"/>
<path d="M188.217,241.083h 22.5161" fill="none" stroke="#330066"/>
<path d="M213.574,241.083h 22.5161" fill="none" stroke="#330066"/>
<g fill="#330066">
<polygon points=" 212.154, 242.519 210.733, 243.925 209.312, 242.504 210.733, 241.083 209.312, 239.663 210.733, 238.242 212.154, 239.663 213.574, 238.242 214.995, 239.663 213.574, 241.083 214.995, 242.504 213.574, 243.925 212.154, 242.49 213.56,
 241.083 212.154, 239.677 210.747, 241.083 212.154, 242.49"/>
</g>
<path d="M260.028,264.86v -11.5039" fill="none" stroke="#330066"/>
<path d="M260.028,250.515v -11.5039" fill="none" stroke="#330066"/>
<path d="M236.091,251.935h 22.5161" fill="none" stroke="#330066"/>
<path d="M261.448,251.935h 22.5161" fill="none" stroke="#330066"/>
<g fill="#330066">
<polygon points=" 260.028, 253.371 258.607, 254.777 257.186, 253.356 258.607, 251.935 257.186, 250.515 258.607, 249.094 260.028, 250.515 261.448, 249.094 262.869, 250.515 261.448, 251.935 262.869, 253.356 261.448, 254.777 260.028, 253.342 261.434,
 251.935 260.028, 250.529 258.621, 251.935 260.028, 253.342"/>
</g>
<path d="M331.839,290.846v -15.207" fill="none" stroke="#330066"/>
<path d="M331.839,272.797v -15.207" fill="none" stroke="#330066"/>
<path d="M283.965,274.218h 46.4531" fill="none" stroke="#330066"/>
<path d="M333.259,274.218h 46.4531" fill="none" stroke="#330066"/>
<g fill="#330066">
<polygon points=" 331.839, 275.653 330.418, 277.059 328.997, 275.639 330.418, 274.218 328.997, 272.797 330.418, 271.376 331.839, 272.797 333.259, 271.376 334.68, 272.797 333.259, 274.218 334.68, 275.639 333.259, 277.059 331.839, 275.624 333.245,
 274.218 331.839, 272.811 330.432, 274.218 331.839, 275.624"/>
</g>
<path d="M439.555,303.096v -39.5271" fill="none" stroke="#330066"/>
<path d="M439.555,260.728v -39.5271" fill="none" stroke="#330066"/>
<path d="M379.713,262.148h 58.4216" fill="none" stroke="#330066"/>
<path d="M440.976,262.148h 58.4216" fill="none" stroke="#330066"/>
<g fill="#330066">
<polygon points=" 439.555, 263.583 438.134, 264.99 436.713, 263.569 438.134, 262.148 436.713, 260.728 438.134, 259.307 439.555, 260.728 440.976, 259.307 442.397, 260.728 440.976, 262.148 442.397, 263.569 440.976, 264.99 439.555, 263.555 440.962,
 262.148 439.555, 260.742 438.148, 262.148 439.555, 263.555"/>
</g>
<path d="M68.5315,258.39h 10.5476" fill="none" stroke="#330099"/>
<path d="M81.9209,258.39h 10.5476" fill="none" stroke="#330099"/>
<g fill="#330099">
<polygon points=" 80.5, 259.811 79.0791, 261.232 77.6582, 259.811 79.0791, 258.39 77.6582, 256.969 79.0791, 255.549 80.5, 256.969 81.9209, 255.549 83.3418, 256.969 81.9209, 258.39 83.3418, 259.811 81.9209, 261.232 80.5, 259.811"/>
</g>
<path d="M92.4685,257.297h 22.5161" fill="none" stroke="#330099"/>
<path d="M117.826,257.297h 22.5161" fill="none" stroke="#330099"/>
<g fill="#330099">
<polygon points=" 116.406, 258.717 114.985, 260.138 113.564, 258.717 114.985, 257.297 113.564, 255.876 114.985, 254.455 116.406, 255.876 117.826, 254.455 119.247, 255.876 117.826, 257.297 119.247, 258.717 117.826, 260.138 116.406, 258.717"/>
</g>
<path d="M164.28,256.366v -2.06523" fill="none" stroke="#330099"/>
<path d="M164.28,251.459v -2.06523" fill="none" stroke="#330099"/>
<path d="M140.343,252.88h 22.5161" fill="none" stroke="#330099"/>
<path d="M165.7,252.88h 22.5161" fill="none" stroke="#330099"/>
<g fill="#330099">
<polygon points=" 164.28, 254.301 162.859, 255.722 161.438, 254.301 162.859, 252.88 161.438, 251.459 162.859, 250.038 164.28, 251.459 165.7, 250.038 167.121, 251.459 165.7, 252.88 167.121, 254.301 165.7, 255.722 164.28, 254.301"/>
</g>
<path d="M212.154,253.168v -6.56724" fill="none" stroke="#330099"/>
<path d="M212.154,243.759v -6.56724" fill="none" stroke="#330099"/>
<path d="M188.217,245.18h 22.5161" fill="none" stroke="#330099"/>
<path d="M213.574,245.18h 22.5161" fill="none" stroke="#330099"/>
<g fill="#330099">
<polygon points=" 212.154, 246.601 210.733, 248.021 209.312, 246.601 210.733, 245.18 209.312, 243.759 210.733, 242.338 212.154, 243.759 213.574, 242.338 214.995, 243.759 213.574, 245.18 214.995, 246.601 213.574, 248.021 212.154, 246.601"/>
</g>
<path d="M260.028,238.411v -15.5166" fill="none" stroke="#330099"/>
<path d="M260.028,220.053v -15.5166" fill="none" stroke="#330099"/>
<path d="M236.091,221.474h 22.5161" fill="none" stroke="#330099"/>
<path d="M261.448,221.474h 22.5161" fill="none" stroke="#330099"/>
<g fill="#330099">
<polygon points=" 260.028, 222.895 258.607, 224.316 257.186, 222.895 258.607, 221.474 257.186, 220.053 258.607, 218.632 260.028, 220.053 261.448, 218.632 262.869, 220.053 261.448, 221.474 262.869, 222.895 261.448, 224.316 260.028, 222.895"/>
</g>
<path d="M331.839,258.278v -21.5518" fill="none" stroke="#330099"/>
<path d="M331.839,233.885v -21.5518" fill="none" stroke="#330099"/>
<path d="M283.965,235.306h 46.4531" fill="none" stroke="#330099"/>
<path d="M333.259,235.306h 46.4531" fill="none" stroke="#330099"/>
<g fill="#330099">
<polygon points=" 331.839, 236.727 330.418, 238.148 328.997, 236.727 330.418, 235.306 328.997, 233.885 330.418, 232.464 331.839, 233.885 333.259, 232.464 334.68, 233.885 333.259, 235.306 334.68, 236.727 333.259, 238.148 331.839, 236.727"/>
</g>
<path d="M439.555,257.423v -63.7921" fill="none" stroke="#330099"/>
<path d="M439.555,190.789v -63.7921" fill="none" stroke="#330099"/>
<path d="M379.713,192.21h 58.4216" fill="none" stroke="#330099"/>
<path d="M440.976,192.21h 58.4216" fill="none" stroke="#330099"/>
<g fill="#330099">
<polygon points=" 439.555, 193.631 438.134, 195.052 436.713, 193.631 438.134, 192.21 436.713, 190.789 438.134, 189.368 439.555, 190.789 440.976, 189.368 442.397, 190.789 440.976, 192.21 442.397, 193.631 440.976, 195.052 439.555, 193.631"/>
</g>
<text xml:space="preserve" x="85.7525" y="54.7037" fill="black" font-size="19.2386" font-family="Helvetica">PYTHIA8, pAu200GeV with option3</text>
<text xml:space="preserve" x="178.109" y="73.8855" fill="black" font-size="19.2386" font-family="Helvetica">|&lt;1</text>
<text xml:space="preserve" x="167.453" y="73.8855" fill="black" font-size="19.2386" font-family="Times">&#0951;</text>
<text xml:space="preserve" x="138.325" y="73.8855" fill="black" font-size="19.2386" font-family="Helvetica"> in |</text>
<text xml:space="preserve" x="131.221" y="66.7811" fill="black" font-size="12.9924" font-family="Helvetica">0</text>
<text xml:space="preserve" x="120.564" y="73.8855" fill="black" font-size="19.2386" font-family="Times">&#0960;</text>
<text xml:space="preserve" x="109.907" y="73.8855" fill="black" font-size="19.2386" font-family="Helvetica">, </text>
<text xml:space="preserve" x="95.6986" y="66.7811" fill="black" font-size="12.9924" font-family="Helvetica">dir</text>
<text xml:space="preserve" x="85.7525" y="73.8855" fill="black" font-size="19.2386" font-family="Times">&#0947;</text>
<text xml:space="preserve" x="141.877" y="93.0673" fill="black" font-size="19.2386" font-family="Helvetica">centrality: 0~10%</text>
<g fill="#9900cc">
<polygon points=" 110.104, 88.0477 110.104, 86.1532 111.998, 86.1532 111.998, 88.0477 113.893, 88.0477 113.893, 89.9422 111.998, 89.9422 111.998, 91.8367 110.104, 91.8367 110.104, 89.9422 108.209, 89.9422 108.209, 88.0477"/>
</g>
<text xml:space="preserve" x="141.877" y="112.249" fill="black" font-size="19.2386" font-family="Helvetica">centrality: 10~20%</text>
<g fill="#9933ff">
<polygon points=" 110.104, 107.296 110.104, 105.411 111.998, 105.411 111.998, 107.306 113.893, 107.306 113.893, 109.2 111.998, 109.2 111.998, 111.095 110.104, 111.095 110.104, 109.2 108.209, 109.2 108.209, 107.306 110.104, 107.315 110.104, 109.2
 111.998, 109.2 111.998, 107.306"/>
</g>
<text xml:space="preserve" x="141.877" y="131.431" fill="black" font-size="19.2386" font-family="Helvetica">centrality: 20~40%</text>
<g stroke="#6600cc" stroke-width="1" fill="none">
<polygon points=" 110.104, 126.564 110.104, 124.669 111.998, 124.669 111.998, 126.564 113.893, 126.564 113.893, 128.458 111.998, 128.458 111.998, 130.353 110.104, 130.353 110.104, 128.458 108.209, 128.458 108.209, 126.564"/>
</g>
<text xml:space="preserve" x="141.877" y="150.613" fill="black" font-size="19.2386" font-family="Helvetica">centrality: 40~60%</text>
<g fill="#330066">
<polygon points=" 111.051, 148.204 109.63, 149.611 108.209, 148.19 109.63, 146.769 108.209, 145.348 109.63, 143.927 111.051, 145.348 112.472, 143.927 113.893, 145.348 112.472, 146.769 113.893, 148.19 112.472, 149.611 111.051, 148.175 112.458, 146.769
 111.051, 145.362 109.645, 146.769 111.051, 148.175"/>
</g>
<text xml:space="preserve" x="141.877" y="169.795" fill="black" font-size="19.2386" font-family="Helvetica">centrality: 60~80%</text>
<g fill="#330099">
<polygon points=" 111.051, 167.448 109.63, 168.868 108.209, 167.448 109.63, 166.027 108.209, 164.606 109.63, 163.185 111.051, 164.606 112.472, 163.185 113.893, 164.606 112.472, 166.027 113.893, 167.448 112.472, 168.868 111.051, 167.448"/>
</g></svg>
