<?xml version="1.0" standalone="no"?>
<svg width="567.429" height="409.002" viewBox="0 0 567.429 409.002" xmlns="http://www.w3.org/2000/svg" shape-rendering="crispEdges">
<title>
/Users/jinhyunpark/npl/gitHub/git_share/Centrality_dependent_BiasCorrection/plots/plots_scaled-dNdpT/ratio_scaledYield_highpT_directPhoton_cent2mb.svg
</title>
<desc>
Creator: ROOT Version 6.28/04
CreationDate: Tue Sep 26 01:07:18 2023</desc>
<defs>
</defs>
<rect x="0.5" y="0" width="566.929" height="408.502" fill="white"/>
<rect x="85.5394" y="20.4251" width="396.85" height="339.056" fill="white"/>
<rect x="85.5394" y="20.4251" width="396.85" height="339.056" fill="none" stroke="black"/>
<rect x="85.5394" y="20.4251" width="396.85" height="339.056" fill="white"/>
<rect x="85.5394" y="20.4251" width="396.85" height="339.056" fill="none" stroke="black"/>
<path d="M85.5394,359.481h 396.85" fill="none" stroke="black"/>
<path d="M85.5394,350.903v 8.57853" fill="none" stroke="black"/>
<path d="M96.563,355.192v 4.28927" fill="none" stroke="black"/>
<path d="M107.587,355.192v 4.28927" fill="none" stroke="black"/>
<path d="M118.61,355.192v 4.28927" fill="none" stroke="black"/>
<path d="M129.634,350.903v 8.57853" fill="none" stroke="black"/>
<path d="M140.657,355.192v 4.28927" fill="none" stroke="black"/>
<path d="M151.681,355.192v 4.28927" fill="none" stroke="black"/>
<path d="M162.705,355.192v 4.28927" fill="none" stroke="black"/>
<path d="M173.728,350.903v 8.57853" fill="none" stroke="black"/>
<path d="M184.752,355.192v 4.28927" fill="none" stroke="black"/>
<path d="M195.776,355.192v 4.28927" fill="none" stroke="black"/>
<path d="M206.799,355.192v 4.28927" fill="none" stroke="black"/>
<path d="M217.823,350.903v 8.57853" fill="none" stroke="black"/>
<path d="M228.846,355.192v 4.28927" fill="none" stroke="black"/>
<path d="M239.87,355.192v 4.28927" fill="none" stroke="black"/>
<path d="M250.894,355.192v 4.28927" fill="none" stroke="black"/>
<path d="M261.917,350.903v 8.57853" fill="none" stroke="black"/>
<path d="M272.941,355.192v 4.28927" fill="none" stroke="black"/>
<path d="M283.965,355.192v 4.28927" fill="none" stroke="black"/>
<path d="M294.988,355.192v 4.28927" fill="none" stroke="black"/>
<path d="M306.012,350.903v 8.57853" fill="none" stroke="black"/>
<path d="M317.035,355.192v 4.28927" fill="none" stroke="black"/>
<path d="M328.059,355.192v 4.28927" fill="none" stroke="black"/>
<path d="M339.083,355.192v 4.28927" fill="none" stroke="black"/>
<path d="M350.106,350.903v 8.57853" fill="none" stroke="black"/>
<path d="M361.13,355.192v 4.28927" fill="none" stroke="black"/>
<path d="M372.154,355.192v 4.28927" fill="none" stroke="black"/>
<path d="M383.177,355.192v 4.28927" fill="none" stroke="black"/>
<path d="M394.201,350.903v 8.57853" fill="none" stroke="black"/>
<path d="M405.224,355.192v 4.28927" fill="none" stroke="black"/>
<path d="M416.248,355.192v 4.28927" fill="none" stroke="black"/>
<path d="M427.272,355.192v 4.28927" fill="none" stroke="black"/>
<path d="M438.295,350.903v 8.57853" fill="none" stroke="black"/>
<path d="M449.319,355.192v 4.28927" fill="none" stroke="black"/>
<path d="M460.343,355.192v 4.28927" fill="none" stroke="black"/>
<path d="M471.366,355.192v 4.28927" fill="none" stroke="black"/>
<path d="M482.39,350.903v 8.57853" fill="none" stroke="black"/>
<text xml:space="preserve" x="81.4899" y="372.269" fill="black" font-size="13.617" font-family="Helvetica">2</text>
<text xml:space="preserve" x="125.537" y="372.269" fill="black" font-size="13.617" font-family="Helvetica">4</text>
<text xml:space="preserve" x="169.584" y="372.269" fill="black" font-size="13.617" font-family="Helvetica">6</text>
<text xml:space="preserve" x="213.631" y="372.269" fill="black" font-size="13.617" font-family="Helvetica">8</text>
<text xml:space="preserve" x="253.416" y="372.269" fill="black" font-size="13.617" font-family="Helvetica">10</text>
<text xml:space="preserve" x="298.173" y="372.269" fill="black" font-size="13.617" font-family="Helvetica">12</text>
<text xml:space="preserve" x="342.22" y="372.269" fill="black" font-size="13.617" font-family="Helvetica">14</text>
<text xml:space="preserve" x="386.268" y="372.269" fill="black" font-size="13.617" font-family="Helvetica">16</text>
<text xml:space="preserve" x="430.315" y="372.269" fill="black" font-size="13.617" font-family="Helvetica">18</text>
<text xml:space="preserve" x="474.362" y="372.269" fill="black" font-size="13.617" font-family="Helvetica">20</text>
<text xml:space="preserve" x="436.709" y="384.347" fill="black" font-size="13.617" font-family="Helvetica">(GeV/c)</text>
<text xml:space="preserve" x="431.025" y="392.162" fill="black" font-size="9.24468" font-family="Helvetica">T</text>
<text xml:space="preserve" x="423.21" y="384.347" fill="black" font-size="13.617" font-family="Helvetica">p</text>
<path d="M85.5394,20.4251h 396.85" fill="none" stroke="black"/>
<path d="M85.5394,29.0036v -8.57853" fill="none" stroke="black"/>
<path d="M96.563,24.7143v -4.28927" fill="none" stroke="black"/>
<path d="M107.587,24.7143v -4.28927" fill="none" stroke="black"/>
<path d="M118.61,24.7143v -4.28927" fill="none" stroke="black"/>
<path d="M129.634,29.0036v -8.57853" fill="none" stroke="black"/>
<path d="M140.657,24.7143v -4.28927" fill="none" stroke="black"/>
<path d="M151.681,24.7143v -4.28927" fill="none" stroke="black"/>
<path d="M162.705,24.7143v -4.28927" fill="none" stroke="black"/>
<path d="M173.728,29.0036v -8.57853" fill="none" stroke="black"/>
<path d="M184.752,24.7143v -4.28927" fill="none" stroke="black"/>
<path d="M195.776,24.7143v -4.28927" fill="none" stroke="black"/>
<path d="M206.799,24.7143v -4.28927" fill="none" stroke="black"/>
<path d="M217.823,29.0036v -8.57853" fill="none" stroke="black"/>
<path d="M228.846,24.7143v -4.28927" fill="none" stroke="black"/>
<path d="M239.87,24.7143v -4.28927" fill="none" stroke="black"/>
<path d="M250.894,24.7143v -4.28927" fill="none" stroke="black"/>
<path d="M261.917,29.0036v -8.57853" fill="none" stroke="black"/>
<path d="M272.941,24.7143v -4.28927" fill="none" stroke="black"/>
<path d="M283.965,24.7143v -4.28927" fill="none" stroke="black"/>
<path d="M294.988,24.7143v -4.28927" fill="none" stroke="black"/>
<path d="M306.012,29.0036v -8.57853" fill="none" stroke="black"/>
<path d="M317.035,24.7143v -4.28927" fill="none" stroke="black"/>
<path d="M328.059,24.7143v -4.28927" fill="none" stroke="black"/>
<path d="M339.083,24.7143v -4.28927" fill="none" stroke="black"/>
<path d="M350.106,29.0036v -8.57853" fill="none" stroke="black"/>
<path d="M361.13,24.7143v -4.28927" fill="none" stroke="black"/>
<path d="M372.154,24.7143v -4.28927" fill="none" stroke="black"/>
<path d="M383.177,24.7143v -4.28927" fill="none" stroke="black"/>
<path d="M394.201,29.0036v -8.57853" fill="none" stroke="black"/>
<path d="M405.224,24.7143v -4.28927" fill="none" stroke="black"/>
<path d="M416.248,24.7143v -4.28927" fill="none" stroke="black"/>
<path d="M427.272,24.7143v -4.28927" fill="none" stroke="black"/>
<path d="M438.295,29.0036v -8.57853" fill="none" stroke="black"/>
<path d="M449.319,24.7143v -4.28927" fill="none" stroke="black"/>
<path d="M460.343,24.7143v -4.28927" fill="none" stroke="black"/>
<path d="M471.366,24.7143v -4.28927" fill="none" stroke="black"/>
<path d="M482.39,29.0036v -8.57853" fill="none" stroke="black"/>
<path d="M85.5394,359.481v -339.056" fill="none" stroke="black"/>
<path d="M99.6559,359.481h -14.1165" fill="none" stroke="black"/>
<path d="M92.5976,345.919h -7.05827" fill="none" stroke="black"/>
<path d="M92.5976,332.357h -7.05827" fill="none" stroke="black"/>
<path d="M92.5976,318.795h -7.05827" fill="none" stroke="black"/>
<path d="M92.5976,305.232h -7.05827" fill="none" stroke="black"/>
<path d="M99.6559,291.67h -14.1165" fill="none" stroke="black"/>
<path d="M92.5976,278.108h -7.05827" fill="none" stroke="black"/>
<path d="M92.5976,264.546h -7.05827" fill="none" stroke="black"/>
<path d="M92.5976,250.983h -7.05827" fill="none" stroke="black"/>
<path d="M92.5976,237.421h -7.05827" fill="none" stroke="black"/>
<path d="M99.6559,223.859h -14.1165" fill="none" stroke="black"/>
<path d="M92.5976,210.297h -7.05827" fill="none" stroke="black"/>
<path d="M92.5976,196.734h -7.05827" fill="none" stroke="black"/>
<path d="M92.5976,183.172h -7.05827" fill="none" stroke="black"/>
<path d="M92.5976,169.61h -7.05827" fill="none" stroke="black"/>
<path d="M99.6559,156.048h -14.1165" fill="none" stroke="black"/>
<path d="M92.5976,142.485h -7.05827" fill="none" stroke="black"/>
<path d="M92.5976,128.923h -7.05827" fill="none" stroke="black"/>
<path d="M92.5976,115.361h -7.05827" fill="none" stroke="black"/>
<path d="M92.5976,101.799h -7.05827" fill="none" stroke="black"/>
<path d="M99.6559,88.2363h -14.1165" fill="none" stroke="black"/>
<path d="M92.5976,74.6741h -7.05827" fill="none" stroke="black"/>
<path d="M92.5976,61.1118h -7.05827" fill="none" stroke="black"/>
<path d="M92.5976,47.5496h -7.05827" fill="none" stroke="black"/>
<path d="M92.5976,33.9873h -7.05827" fill="none" stroke="black"/>
<path d="M99.6559,20.4251h -14.1165" fill="none" stroke="black"/>
<text xml:space="preserve" x="75.0959" y="364.454" fill="black" font-size="13.617" font-family="Helvetica">0</text>
<text xml:space="preserve" x="63.7289" y="296.252" fill="black" font-size="13.617" font-family="Helvetica">0.5</text>
<text xml:space="preserve" x="77.2272" y="229.471" fill="black" font-size="13.617" font-family="Helvetica">1</text>
<text xml:space="preserve" x="63.7289" y="160.559" fill="black" font-size="13.617" font-family="Helvetica">1.5</text>
<text xml:space="preserve" x="75.0959" y="93.7778" fill="black" font-size="13.617" font-family="Helvetica">2</text>
<text xml:space="preserve" x="63.7289" y="24.8653" fill="black" font-size="13.617" font-family="Helvetica">2.5</text>
<g transform="rotate(-90,49.5202,24.1549)">
<text xml:space="preserve" x="49.5202" y="24.1549" fill="black" font-size="13.617" font-family="Helvetica"> </text>
</g>
<g transform="rotate(-90,57.335,37.6532)">
<text xml:space="preserve" x="57.335" y="37.6532" fill="black" font-size="9.24468" font-family="Helvetica">MB</text>
</g>
<g transform="rotate(-90,49.5202,41.2054)">
<text xml:space="preserve" x="49.5202" y="41.2054" fill="black" font-size="13.617" font-family="Helvetica">)</text>
</g>
<g transform="rotate(-90,65.1498,50.4411)">
<text xml:space="preserve" x="65.1498" y="50.4411" fill="black" font-size="9.24468" font-family="Helvetica">T</text>
</g>
<g transform="rotate(-90,57.335,65.3603)">
<text xml:space="preserve" x="57.335" y="65.3603" fill="black" font-size="13.617" font-family="Helvetica">dp</text>
</g>
<g transform="rotate(-90,31.7593,47.5993)">
<text xml:space="preserve" x="31.7593" y="47.5993" fill="black" font-size="6.32979" font-family="Helvetica">dir</text>
</g>
<g transform="rotate(-90,35.3114,52.5724)">
<text xml:space="preserve" x="35.3114" y="52.5724" fill="black" font-size="9.24468" font-family="Times">&#0947;</text>
</g>
<g transform="rotate(-90,43.1263,68.9124)">
<text xml:space="preserve" x="43.1263" y="68.9124" fill="black" font-size="13.617" font-family="Helvetica">dN</text>
</g>
<path d="M45.968,68.9124v -27.7071" fill="none" stroke="black" stroke-width="2"/>
<g transform="rotate(-90,49.5202,73.1751)">
<text xml:space="preserve" x="49.5202" y="73.1751" fill="black" font-size="13.617" font-family="Helvetica"> </text>
</g>
<g transform="rotate(-90,61.5976,95.9091)">
<text xml:space="preserve" x="61.5976" y="95.9091" fill="black" font-size="9.24468" font-family="Helvetica">event</text>
</g>
<g transform="rotate(-90,57.335,105.145)">
<text xml:space="preserve" x="57.335" y="105.145" fill="black" font-size="13.617" font-family="Helvetica">N</text>
</g>
<g transform="rotate(-90,43.8367,91.6464)">
<text xml:space="preserve" x="43.8367" y="91.6464" fill="black" font-size="13.617" font-family="Helvetica">1</text>
</g>
<path d="M45.968,105.145v -31.9697" fill="none" stroke="black" stroke-width="2"/>
<g transform="rotate(-90,49.5202,109.407)">
<text xml:space="preserve" x="49.5202" y="109.407" fill="black" font-size="13.617" font-family="Helvetica"> </text>
</g>
<g transform="rotate(-90,58.0454,113.67)">
<text xml:space="preserve" x="58.0454" y="113.67" fill="black" font-size="13.617" font-family="Times">&#0062;</text>
</g>
<g transform="rotate(-90,64.4394,127.168)">
<text xml:space="preserve" x="64.4394" y="127.168" fill="black" font-size="9.24468" font-family="Helvetica">coll</text>
</g>
<g transform="rotate(-90,58.0454,136.404)">
<text xml:space="preserve" x="58.0454" y="136.404" fill="black" font-size="13.617" font-family="Helvetica">N</text>
</g>
<g transform="rotate(-90,58.0454,140.667)">
<text xml:space="preserve" x="58.0454" y="140.667" fill="black" font-size="13.617" font-family="Times">&#0060;</text>
</g>
<g transform="rotate(-90,43.8367,127.168)">
<text xml:space="preserve" x="43.8367" y="127.168" fill="black" font-size="13.617" font-family="Helvetica">1</text>
</g>
<path d="M45.968,140.667v -31.2593" fill="none" stroke="black" stroke-width="2"/>
<g transform="rotate(-90,49.5202,156.296)">
<text xml:space="preserve" x="49.5202" y="156.296" fill="black" font-size="13.617" font-family="Helvetica"> / (</text>
</g>
<g transform="rotate(-90,56.6246,174.057)">
<text xml:space="preserve" x="56.6246" y="174.057" fill="black" font-size="9.24468" font-family="Helvetica">cent</text>
</g>
<g transform="rotate(-90,49.5202,177.609)">
<text xml:space="preserve" x="49.5202" y="177.609" fill="black" font-size="13.617" font-family="Helvetica">)</text>
</g>
<g transform="rotate(-90,65.1498,186.845)">
<text xml:space="preserve" x="65.1498" y="186.845" fill="black" font-size="9.24468" font-family="Helvetica">T</text>
</g>
<g transform="rotate(-90,57.335,201.764)">
<text xml:space="preserve" x="57.335" y="201.764" fill="black" font-size="13.617" font-family="Helvetica">dp</text>
</g>
<g transform="rotate(-90,31.7593,184.003)">
<text xml:space="preserve" x="31.7593" y="184.003" fill="black" font-size="6.32979" font-family="Helvetica">dir</text>
</g>
<g transform="rotate(-90,35.3114,188.976)">
<text xml:space="preserve" x="35.3114" y="188.976" fill="black" font-size="9.24468" font-family="Times">&#0947;</text>
</g>
<g transform="rotate(-90,43.1263,205.316)">
<text xml:space="preserve" x="43.1263" y="205.316" fill="black" font-size="13.617" font-family="Helvetica">dN</text>
</g>
<path d="M45.968,205.316v -27.7071" fill="none" stroke="black" stroke-width="2"/>
<g transform="rotate(-90,49.5202,209.579)">
<text xml:space="preserve" x="49.5202" y="209.579" fill="black" font-size="13.617" font-family="Helvetica"> </text>
</g>
<g transform="rotate(-90,61.5976,232.313)">
<text xml:space="preserve" x="61.5976" y="232.313" fill="black" font-size="9.24468" font-family="Helvetica">event</text>
</g>
<g transform="rotate(-90,57.335,241.549)">
<text xml:space="preserve" x="57.335" y="241.549" fill="black" font-size="13.617" font-family="Helvetica">N</text>
</g>
<g transform="rotate(-90,43.8367,228.05)">
<text xml:space="preserve" x="43.8367" y="228.05" fill="black" font-size="13.617" font-family="Helvetica">1</text>
</g>
<path d="M45.968,241.549v -31.9697" fill="none" stroke="black" stroke-width="2"/>
<g transform="rotate(-90,49.5202,245.811)">
<text xml:space="preserve" x="49.5202" y="245.811" fill="black" font-size="13.617" font-family="Helvetica"> </text>
</g>
<g transform="rotate(-90,58.0454,250.074)">
<text xml:space="preserve" x="58.0454" y="250.074" fill="black" font-size="13.617" font-family="Times">&#0062;</text>
</g>
<g transform="rotate(-90,64.4394,263.572)">
<text xml:space="preserve" x="64.4394" y="263.572" fill="black" font-size="9.24468" font-family="Helvetica">coll</text>
</g>
<g transform="rotate(-90,58.0454,272.808)">
<text xml:space="preserve" x="58.0454" y="272.808" fill="black" font-size="13.617" font-family="Helvetica">N</text>
</g>
<g transform="rotate(-90,58.0454,277.071)">
<text xml:space="preserve" x="58.0454" y="277.071" fill="black" font-size="13.617" font-family="Times">&#0060;</text>
</g>
<g transform="rotate(-90,43.8367,263.572)">
<text xml:space="preserve" x="43.8367" y="263.572" fill="black" font-size="13.617" font-family="Helvetica">1</text>
</g>
<path d="M45.968,277.071v -31.2593" fill="none" stroke="black" stroke-width="2"/>
<g transform="rotate(-90,49.5202,281.333)">
<text xml:space="preserve" x="49.5202" y="281.333" fill="black" font-size="13.617" font-family="Helvetica">(</text>
</g>
<path d="M482.39,359.481v -339.056" fill="none" stroke="black"/>
<path d="M468.273,359.481h 14.1165" fill="none" stroke="black"/>
<path d="M475.332,345.919h 7.05827" fill="none" stroke="black"/>
<path d="M475.332,332.357h 7.05827" fill="none" stroke="black"/>
<path d="M475.332,318.795h 7.05827" fill="none" stroke="black"/>
<path d="M475.332,305.232h 7.05827" fill="none" stroke="black"/>
<path d="M468.273,291.67h 14.1165" fill="none" stroke="black"/>
<path d="M475.332,278.108h 7.05827" fill="none" stroke="black"/>
<path d="M475.332,264.546h 7.05827" fill="none" stroke="black"/>
<path d="M475.332,250.983h 7.05827" fill="none" stroke="black"/>
<path d="M475.332,237.421h 7.05827" fill="none" stroke="black"/>
<path d="M468.273,223.859h 14.1165" fill="none" stroke="black"/>
<path d="M475.332,210.297h 7.05827" fill="none" stroke="black"/>
<path d="M475.332,196.734h 7.05827" fill="none" stroke="black"/>
<path d="M475.332,183.172h 7.05827" fill="none" stroke="black"/>
<path d="M475.332,169.61h 7.05827" fill="none" stroke="black"/>
<path d="M468.273,156.048h 14.1165" fill="none" stroke="black"/>
<path d="M475.332,142.485h 7.05827" fill="none" stroke="black"/>
<path d="M475.332,128.923h 7.05827" fill="none" stroke="black"/>
<path d="M475.332,115.361h 7.05827" fill="none" stroke="black"/>
<path d="M475.332,101.799h 7.05827" fill="none" stroke="black"/>
<path d="M468.273,88.2363h 14.1165" fill="none" stroke="black"/>
<path d="M475.332,74.6741h 7.05827" fill="none" stroke="black"/>
<path d="M475.332,61.1118h 7.05827" fill="none" stroke="black"/>
<path d="M475.332,47.5496h 7.05827" fill="none" stroke="black"/>
<path d="M475.332,33.9873h 7.05827" fill="none" stroke="black"/>
<path d="M468.273,20.4251h 14.1165" fill="none" stroke="black"/>
<path d="M85.5394,247.551h 8.18187" fill="none" stroke="#00cc00"/>
<path d="M99.4047,247.551h 8.18187" fill="none" stroke="#00cc00"/>
<g fill="#00cc00">
<polygon points=" 95.6157, 246.604 95.6157, 244.709 97.5102, 244.709 97.5102, 246.604 99.4047, 246.604 99.4047, 248.498 97.5102, 248.498 97.5102, 250.393 95.6157, 250.393 95.6157, 248.498 93.7212, 248.498 93.7212, 246.604"/>
</g>
<path d="M107.587,253.008h 8.18187" fill="none" stroke="#00cc00"/>
<path d="M121.452,253.008h 8.18187" fill="none" stroke="#00cc00"/>
<g fill="#00cc00">
<polygon points=" 117.663, 252.061 117.663, 250.166 119.557, 250.166 119.557, 252.061 121.452, 252.061 121.452, 253.955 119.557, 253.955 119.557, 255.85 117.663, 255.85 117.663, 253.955 115.768, 253.955 115.768, 252.061"/>
</g>
<path d="M140.657,249.338v -0.179297" fill="none" stroke="#00cc00"/>
<path d="M140.657,243.476v -0.179297" fill="none" stroke="#00cc00"/>
<path d="M129.634,246.317h 8.18187" fill="none" stroke="#00cc00"/>
<path d="M143.499,246.317h 8.18187" fill="none" stroke="#00cc00"/>
<g fill="#00cc00">
<polygon points=" 139.71, 245.37 139.71, 243.476 141.605, 243.476 141.605, 245.37 143.499, 245.37 143.499, 247.265 141.605, 247.265 141.605, 249.159 139.71, 249.159 139.71, 247.265 137.816, 247.265 137.816, 245.37"/>
</g>
<path d="M173.728,264.529v -1.02116" fill="none" stroke="#00cc00"/>
<path d="M173.728,257.825v -1.02116" fill="none" stroke="#00cc00"/>
<path d="M151.681,260.667h 19.2055" fill="none" stroke="#00cc00"/>
<path d="M176.57,260.667h 19.2055" fill="none" stroke="#00cc00"/>
<g fill="#00cc00">
<polygon points=" 172.781, 259.719 172.781, 257.825 174.676, 257.825 174.676, 259.719 176.57, 259.719 176.57, 261.614 174.676, 261.614 174.676, 263.508 172.781, 263.508 172.781, 261.614 170.887, 261.614 170.887, 259.719"/>
</g>
<path d="M228.846,279.846v -4.50848" fill="none" stroke="#00cc00"/>
<path d="M228.846,269.654v -4.50848" fill="none" stroke="#00cc00"/>
<path d="M195.776,272.496h 30.2291" fill="none" stroke="#00cc00"/>
<path d="M231.688,272.496h 30.2291" fill="none" stroke="#00cc00"/>
<g fill="#00cc00">
<polygon points=" 227.899, 271.549 227.899, 269.654 229.794, 269.654 229.794, 271.549 231.688, 271.549 231.688, 273.443 229.794, 273.443 229.794, 275.338 227.899, 275.338 227.899, 273.443 226.005, 273.443 226.005, 271.549"/>
</g>
<path d="M317.035,273.904v -16.3109" fill="none" stroke="#00cc00"/>
<path d="M317.035,251.91v -16.3109" fill="none" stroke="#00cc00"/>
<path d="M261.917,254.752h 52.2764" fill="none" stroke="#00cc00"/>
<path d="M319.877,254.752h 52.2764" fill="none" stroke="#00cc00"/>
<g fill="#00cc00">
<polygon points=" 316.088, 253.805 316.088, 251.91 317.983, 251.91 317.983, 253.805 319.877, 253.805 319.877, 255.699 317.983, 255.699 317.983, 257.594 316.088, 257.594 316.088, 255.699 314.194, 255.699 314.194, 253.805"/>
</g>
<path d="M427.272,343.839v -40.278" fill="none" stroke="#00cc00"/>
<path d="M427.272,297.877v -40.278" fill="none" stroke="#00cc00"/>
<path d="M372.154,300.719h 52.2764" fill="none" stroke="#00cc00"/>
<path d="M430.113,300.719h 52.2764" fill="none" stroke="#00cc00"/>
<g fill="#00cc00">
<polygon points=" 426.324, 299.772 426.324, 297.877 428.219, 297.877 428.219, 299.772 430.113, 299.772 430.113, 301.666 428.219, 301.666 428.219, 303.561 426.324, 303.561 426.324, 301.666 424.43, 301.666 424.43, 299.772"/>
</g>
<path d="M85.5394,239.265h 8.18187" fill="none" stroke="#33ff99"/>
<path d="M99.4047,239.265h 8.18187" fill="none" stroke="#33ff99"/>
<g fill="#33ff99">
<polygon points=" 95.6157, 238.318 95.6157, 236.423 97.5102, 236.423 97.5102, 238.318 99.4047, 238.318 99.4047, 240.212 97.5102, 240.212 97.5102, 242.107 95.6157, 242.107 95.6157, 240.212 93.7212, 240.212 93.7212, 238.318"/>
</g>
<path d="M107.587,241.798h 8.18187" fill="none" stroke="#33ff99"/>
<path d="M121.452,241.798h 8.18187" fill="none" stroke="#33ff99"/>
<g fill="#33ff99">
<polygon points=" 117.663, 240.851 117.663, 238.957 119.557, 238.957 119.557, 240.851 121.452, 240.851 121.452, 242.746 119.557, 242.746 119.557, 244.64 117.663, 244.64 117.663, 242.746 115.768, 242.746 115.768, 240.851"/>
</g>
<path d="M140.657,252.051v -0.360232" fill="none" stroke="#33ff99"/>
<path d="M140.657,246.007v -0.360232" fill="none" stroke="#33ff99"/>
<path d="M129.634,248.849h 8.18187" fill="none" stroke="#33ff99"/>
<path d="M143.499,248.849h 8.18187" fill="none" stroke="#33ff99"/>
<g fill="#33ff99">
<polygon points=" 139.71, 247.901 139.71, 246.007 141.605, 246.007 141.605, 247.901 143.499, 247.901 143.499, 249.796 141.605, 249.796 141.605, 251.69 139.71, 251.69 139.71, 249.796 137.816, 249.796 137.816, 247.901"/>
</g>
<path d="M173.728,247.656v -1.70197" fill="none" stroke="#33ff99"/>
<path d="M173.728,240.27v -1.70197" fill="none" stroke="#33ff99"/>
<path d="M151.681,243.112h 19.2055" fill="none" stroke="#33ff99"/>
<path d="M176.57,243.112h 19.2055" fill="none" stroke="#33ff99"/>
<g fill="#33ff99">
<polygon points=" 172.781, 242.165 172.781, 240.27 174.676, 240.27 174.676, 242.165 176.57, 242.165 176.57, 244.059 174.676, 244.059 174.676, 245.954 172.781, 245.954 172.781, 244.059 170.887, 244.059 170.887, 242.165"/>
</g>
<path d="M228.846,258.455v -6.1519" fill="none" stroke="#33ff99"/>
<path d="M228.846,246.619v -6.1519" fill="none" stroke="#33ff99"/>
<path d="M195.776,249.461h 30.2291" fill="none" stroke="#33ff99"/>
<path d="M231.688,249.461h 30.2291" fill="none" stroke="#33ff99"/>
<g fill="#33ff99">
<polygon points=" 227.899, 248.514 227.899, 246.619 229.794, 246.619 229.794, 248.514 231.688, 248.514 231.688, 250.408 229.794, 250.408 229.794, 252.303 227.899, 252.303 227.899, 250.408 226.005, 250.408 226.005, 248.514"/>
</g>
<path d="M317.035,278.381v -17.3531" fill="none" stroke="#33ff99"/>
<path d="M317.035,255.344v -17.3531" fill="none" stroke="#33ff99"/>
<path d="M261.917,258.186h 52.2764" fill="none" stroke="#33ff99"/>
<path d="M319.877,258.186h 52.2764" fill="none" stroke="#33ff99"/>
<g fill="#33ff99">
<polygon points=" 316.088, 257.239 316.088, 255.344 317.983, 255.344 317.983, 257.239 319.877, 257.239 319.877, 259.133 317.983, 259.133 317.983, 261.028 316.088, 261.028 316.088, 259.133 314.194, 259.133 314.194, 257.239"/>
</g>
<path d="M427.272,341.11v -47.8011" fill="none" stroke="#33ff99"/>
<path d="M427.272,287.625v -47.8011" fill="none" stroke="#33ff99"/>
<path d="M372.154,290.467h 52.2764" fill="none" stroke="#33ff99"/>
<path d="M430.113,290.467h 52.2764" fill="none" stroke="#33ff99"/>
<g fill="#33ff99">
<polygon points=" 426.324, 289.52 426.324, 287.625 428.219, 287.625 428.219, 289.52 430.113, 289.52 430.113, 291.414 428.219, 291.414 428.219, 293.309 426.324, 293.309 426.324, 291.414 424.43, 291.414 424.43, 289.52"/>
</g>
<path d="M85.5394,230.389h 8.18187" fill="none" stroke="#00cccc"/>
<path d="M99.4047,230.389h 8.18187" fill="none" stroke="#00cccc"/>
<g stroke="#00cccc" stroke-width="1" fill="none">
<polygon points=" 95.6157, 229.442 95.6157, 227.547 97.5102, 227.547 97.5102, 229.442 99.4047, 229.442 99.4047, 231.336 97.5102, 231.336 97.5102, 233.231 95.6157, 233.231 95.6157, 231.336 93.7212, 231.336 93.7212, 229.442"/>
</g>
<path d="M107.587,229.227h 8.18187" fill="none" stroke="#00cccc"/>
<path d="M121.452,229.227h 8.18187" fill="none" stroke="#00cccc"/>
<g stroke="#00cccc" stroke-width="1" fill="none">
<polygon points=" 117.663, 228.279 117.663, 226.385 119.557, 226.385 119.557, 228.279 121.452, 228.279 121.452, 230.174 119.557, 230.174 119.557, 232.068 117.663, 232.068 117.663, 230.174 115.768, 230.174 115.768, 228.279"/>
</g>
<path d="M129.634,235.854h 8.18187" fill="none" stroke="#00cccc"/>
<path d="M143.499,235.854h 8.18187" fill="none" stroke="#00cccc"/>
<g stroke="#00cccc" stroke-width="1" fill="none">
<polygon points=" 139.71, 234.907 139.71, 233.013 141.605, 233.013 141.605, 234.907 143.499, 234.907 143.499, 236.802 141.605, 236.802 141.605, 238.696 139.71, 238.696 139.71, 236.802 137.816, 236.802 137.816, 234.907"/>
</g>
<path d="M173.728,231.425v -1.06466" fill="none" stroke="#00cccc"/>
<path d="M173.728,224.677v -1.06466" fill="none" stroke="#00cccc"/>
<path d="M151.681,227.519h 19.2055" fill="none" stroke="#00cccc"/>
<path d="M176.57,227.519h 19.2055" fill="none" stroke="#00cccc"/>
<g stroke="#00cccc" stroke-width="1" fill="none">
<polygon points=" 172.781, 226.571 172.781, 224.677 174.676, 224.677 174.676, 226.571 176.57, 226.571 176.57, 228.466 174.676, 228.466 174.676, 230.36 172.781, 230.36 172.781, 228.466 170.887, 228.466 170.887, 226.571"/>
</g>
<path d="M228.846,238.828v -5.00961" fill="none" stroke="#00cccc"/>
<path d="M228.846,228.135v -5.00961" fill="none" stroke="#00cccc"/>
<path d="M195.776,230.976h 30.2291" fill="none" stroke="#00cccc"/>
<path d="M231.688,230.976h 30.2291" fill="none" stroke="#00cccc"/>
<g stroke="#00cccc" stroke-width="1" fill="none">
<polygon points=" 227.899, 230.029 227.899, 228.135 229.794, 228.135 229.794, 230.029 231.688, 230.029 231.688, 231.924 229.794, 231.924 229.794, 233.818 227.899, 233.818 227.899, 231.924 226.005, 231.924 226.005, 230.029"/>
</g>
<path d="M317.035,246.077v -15.9253" fill="none" stroke="#00cccc"/>
<path d="M317.035,224.469v -15.9253" fill="none" stroke="#00cccc"/>
<path d="M261.917,227.31h 52.2764" fill="none" stroke="#00cccc"/>
<path d="M319.877,227.31h 52.2764" fill="none" stroke="#00cccc"/>
<g stroke="#00cccc" stroke-width="1" fill="none">
<polygon points=" 316.088, 226.363 316.088, 224.469 317.983, 224.469 317.983, 226.363 319.877, 226.363 319.877, 228.258 317.983, 228.258 317.983, 230.152 316.088, 230.152 316.088, 228.258 314.194, 228.258 314.194, 226.363"/>
</g>
<path d="M427.272,277.753v -57.7679" fill="none" stroke="#00cccc"/>
<path d="M427.272,214.302v -57.7679" fill="none" stroke="#00cccc"/>
<path d="M372.154,217.143h 52.2764" fill="none" stroke="#00cccc"/>
<path d="M430.113,217.143h 52.2764" fill="none" stroke="#00cccc"/>
<g stroke="#00cccc" stroke-width="1" fill="none">
<polygon points=" 426.324, 216.196 426.324, 214.302 428.219, 214.302 428.219, 216.196 430.113, 216.196 430.113, 218.091 428.219, 218.091 428.219, 219.985 426.324, 219.985 426.324, 218.091 424.43, 218.091 424.43, 216.196"/>
</g>
<path d="M85.5394,216.506h 9.60275" fill="none" stroke="#0033ff"/>
<path d="M97.9839,216.506h 9.60275" fill="none" stroke="#0033ff"/>
<g fill="#0033ff">
<polygon points=" 96.563, 217.927 95.1421, 219.348 93.7212, 217.927 95.1421, 216.506 93.7212, 215.085 95.1421, 213.664 96.563, 215.085 97.9839, 213.664 99.4047, 215.085 97.9839, 216.506 99.4047, 217.927 97.9839, 219.348 96.563, 217.927"/>
</g>
<path d="M118.61,217.915v -0.424426" fill="none" stroke="#0033ff"/>
<path d="M118.61,214.649v -0.424426" fill="none" stroke="#0033ff"/>
<path d="M107.587,216.07h 9.60275" fill="none" stroke="#0033ff"/>
<path d="M120.031,216.07h 9.60275" fill="none" stroke="#0033ff"/>
<g fill="#0033ff">
<polygon points=" 118.61, 217.49 117.189, 218.911 115.768, 217.49 117.189, 216.07 115.768, 214.649 117.189, 213.228 118.61, 214.649 120.031, 213.228 121.452, 214.649 120.031, 216.07 121.452, 217.49 120.031, 218.911 118.61, 217.49"/>
</g>
<path d="M140.657,219.823v -1.87548" fill="none" stroke="#0033ff"/>
<path d="M140.657,215.106v -1.87548" fill="none" stroke="#0033ff"/>
<path d="M129.634,216.527h 9.60275" fill="none" stroke="#0033ff"/>
<path d="M142.078,216.527h 9.60275" fill="none" stroke="#0033ff"/>
<g fill="#0033ff">
<polygon points=" 140.657, 217.948 139.237, 219.369 137.816, 217.948 139.237, 216.527 137.816, 215.106 139.237, 213.685 140.657, 215.106 142.078, 213.685 143.499, 215.106 142.078, 216.527 143.499, 217.948 142.078, 219.369 140.657, 217.948"/>
</g>
<path d="M173.728,216.448v -3.21463" fill="none" stroke="#0033ff"/>
<path d="M173.728,210.392v -3.21463" fill="none" stroke="#0033ff"/>
<path d="M151.681,211.813h 20.6264" fill="none" stroke="#0033ff"/>
<path d="M175.149,211.813h 20.6264" fill="none" stroke="#0033ff"/>
<g fill="#0033ff">
<polygon points=" 173.728, 213.234 172.307, 214.655 170.887, 213.234 172.307, 211.813 170.887, 210.392 172.307, 208.971 173.728, 210.392 175.149, 208.971 176.57, 210.392 175.149, 211.813 176.57, 213.234 175.149, 214.655 173.728, 213.234"/>
</g>
<path d="M228.846,223.16v -7.97123" fill="none" stroke="#0033ff"/>
<path d="M228.846,212.347v -7.97123" fill="none" stroke="#0033ff"/>
<path d="M195.776,213.768h 31.65" fill="none" stroke="#0033ff"/>
<path d="M230.267,213.768h 31.65" fill="none" stroke="#0033ff"/>
<g fill="#0033ff">
<polygon points=" 228.846, 215.189 227.426, 216.61 226.005, 215.189 227.426, 213.768 226.005, 212.347 227.426, 210.926 228.846, 212.347 230.267, 210.926 231.688, 212.347 230.267, 213.768 231.688, 215.189 230.267, 216.61 228.846, 215.189"/>
</g>
<path d="M317.035,217.877v -22.3755" fill="none" stroke="#0033ff"/>
<path d="M317.035,192.66v -22.3755" fill="none" stroke="#0033ff"/>
<path d="M261.917,194.081h 53.6972" fill="none" stroke="#0033ff"/>
<path d="M318.456,194.081h 53.6972" fill="none" stroke="#0033ff"/>
<g fill="#0033ff">
<polygon points=" 317.035, 195.502 315.615, 196.923 314.194, 195.502 315.615, 194.081 314.194, 192.66 315.615, 191.239 317.035, 192.66 318.456, 191.239 319.877, 192.66 318.456, 194.081 319.877, 195.502 318.456, 196.923 317.035, 195.502"/>
</g>
<path d="M427.272,253.796v -76.9551" fill="none" stroke="#0033ff"/>
<path d="M427.272,174v -76.9551" fill="none" stroke="#0033ff"/>
<path d="M372.154,175.421h 53.6972" fill="none" stroke="#0033ff"/>
<path d="M428.693,175.421h 53.6972" fill="none" stroke="#0033ff"/>
<g fill="#0033ff">
<polygon points=" 427.272, 176.841 425.851, 178.262 424.43, 176.841 425.851, 175.421 424.43, 174 425.851, 172.579 427.272, 174 428.693, 172.579 430.113, 174 428.693, 175.421 430.113, 176.841 428.693, 178.262 427.272, 176.841"/>
</g>
<path d="M85.5394,201.679h 8.18187" fill="none" stroke="#0000ff"/>
<path d="M99.4047,201.679h 8.18187" fill="none" stroke="#0000ff"/>
<g stroke="#0000ff" stroke-width="1" fill="none">
<polygon points=" 95.6157, 200.732 95.6157, 198.837 97.5102, 198.837 97.5102, 200.732 99.4047, 200.732 99.4047, 202.626 97.5102, 202.626 97.5102, 204.521 95.6157, 204.521 95.6157, 202.626 93.7212, 202.626 93.7212, 200.732"/>
</g>
<path d="M107.587,200.387h 8.18187" fill="none" stroke="#0000ff"/>
<path d="M121.452,200.387h 8.18187" fill="none" stroke="#0000ff"/>
<g stroke="#0000ff" stroke-width="1" fill="none">
<polygon points=" 117.663, 199.44 117.663, 197.546 119.557, 197.546 119.557, 199.44 121.452, 199.44 121.452, 201.335 119.557, 201.335 119.557, 203.229 117.663, 203.229 117.663, 201.335 115.768, 201.335 115.768, 199.44"/>
</g>
<path d="M140.657,196.211v -1.39455" fill="none" stroke="#0000ff"/>
<path d="M140.657,189.133v -1.39455" fill="none" stroke="#0000ff"/>
<path d="M129.634,191.975h 8.18187" fill="none" stroke="#0000ff"/>
<path d="M143.499,191.975h 8.18187" fill="none" stroke="#0000ff"/>
<g stroke="#0000ff" stroke-width="1" fill="none">
<polygon points=" 139.71, 191.027 139.71, 189.133 141.605, 189.133 141.605, 191.027 143.499, 191.027 143.499, 192.922 141.605, 192.922 141.605, 194.816 139.71, 194.816 139.71, 192.922 137.816, 192.922 137.816, 191.027"/>
</g>
<path d="M173.728,206.59v -2.82285" fill="none" stroke="#0000ff"/>
<path d="M173.728,198.084v -2.82285" fill="none" stroke="#0000ff"/>
<path d="M151.681,200.925h 19.2055" fill="none" stroke="#0000ff"/>
<path d="M176.57,200.925h 19.2055" fill="none" stroke="#0000ff"/>
<g stroke="#0000ff" stroke-width="1" fill="none">
<polygon points=" 172.781, 199.978 172.781, 198.084 174.676, 198.084 174.676, 199.978 176.57, 199.978 176.57, 201.873 174.676, 201.873 174.676, 203.767 172.781, 203.767 172.781, 201.873 170.887, 201.873 170.887, 199.978"/>
</g>
<path d="M228.846,203.934v -9.09274" fill="none" stroke="#0000ff"/>
<path d="M228.846,189.158v -9.09274" fill="none" stroke="#0000ff"/>
<path d="M195.776,191.999h 30.2291" fill="none" stroke="#0000ff"/>
<path d="M231.688,191.999h 30.2291" fill="none" stroke="#0000ff"/>
<g stroke="#0000ff" stroke-width="1" fill="none">
<polygon points=" 227.899, 191.052 227.899, 189.158 229.794, 189.158 229.794, 191.052 231.688, 191.052 231.688, 192.947 229.794, 192.947 229.794, 194.841 227.899, 194.841 227.899, 192.947 226.005, 192.947 226.005, 191.052"/>
</g>
<path d="M317.035,247.724v -22.1702" fill="none" stroke="#0000ff"/>
<path d="M317.035,219.87v -22.1702" fill="none" stroke="#0000ff"/>
<path d="M261.917,222.712h 52.2764" fill="none" stroke="#0000ff"/>
<path d="M319.877,222.712h 52.2764" fill="none" stroke="#0000ff"/>
<g stroke="#0000ff" stroke-width="1" fill="none">
<polygon points=" 316.088, 221.765 316.088, 219.87 317.983, 219.87 317.983, 221.765 319.877, 221.765 319.877, 223.66 317.983, 223.66 317.983, 225.554 316.088, 225.554 316.088, 223.66 314.194, 223.66 314.194, 221.765"/>
</g>
<path d="M427.272,233.532v -101.426" fill="none" stroke="#0000ff"/>
<path d="M427.272,126.422v -101.426" fill="none" stroke="#0000ff"/>
<path d="M372.154,129.264h 52.2764" fill="none" stroke="#0000ff"/>
<path d="M430.113,129.264h 52.2764" fill="none" stroke="#0000ff"/>
<g stroke="#0000ff" stroke-width="1" fill="none">
<polygon points=" 426.324, 128.316 426.324, 126.422 428.219, 126.422 428.219, 128.316 430.113, 128.316 430.113, 130.211 428.219, 130.211 428.219, 132.105 426.324, 132.105 426.324, 130.211 424.43, 130.211 424.43, 128.316"/>
</g>
<text xml:space="preserve" x="119.143" y="51.1515" fill="black" font-size="11.7432" font-family="Helvetica">PYTHIA8, pAu200GeV with option3</text>
<text xml:space="preserve" x="156.796" y="65.3603" fill="black" font-size="11.7432" font-family="Helvetica">|&lt;1</text>
<text xml:space="preserve" x="150.402" y="65.3603" fill="black" font-size="11.7432" font-family="Times">&#0951;</text>
<text xml:space="preserve" x="133.352" y="65.3603" fill="black" font-size="11.7432" font-family="Helvetica"> in |</text>
<text xml:space="preserve" x="124.827" y="60.3872" fill="black" font-size="7.99544" font-family="Helvetica">dir</text>
<text xml:space="preserve" x="119.143" y="65.3603" fill="black" font-size="11.7432" font-family="Times">&#0947;</text>
<text xml:space="preserve" x="170.295" y="80.2794" fill="black" font-size="11.7432" font-family="Helvetica">centrality: 0~10%</text>
<g fill="#00cc00">
<polygon points=" 141.285, 76.3763 141.285, 74.4818 143.18, 74.4818 143.18, 76.3763 145.074, 76.3763 145.074, 78.2708 143.18, 78.2708 143.18, 80.1653 141.285, 80.1653 141.285, 78.2708 139.391, 78.2708 139.391, 76.3763"/>
</g>
<text xml:space="preserve" x="170.295" y="94.4882" fill="black" font-size="11.7432" font-family="Helvetica">centrality: 10~20%</text>
<g fill="#33ff99">
<polygon points=" 141.285, 90.9656 141.285, 89.0711 143.18, 89.0711 143.18, 90.9656 145.074, 90.9656 145.074, 92.8601 143.18, 92.8601 143.18, 94.7546 141.285, 94.7546 141.285, 92.8601 139.391, 92.8601 139.391, 90.9656"/>
</g>
<text xml:space="preserve" x="170.295" y="109.407" fill="black" font-size="11.7432" font-family="Helvetica">centrality: 20~40%</text>
<g stroke="#00cccc" stroke-width="1" fill="none">
<polygon points=" 141.285, 105.555 141.285, 103.66 143.18, 103.66 143.18, 105.555 145.074, 105.555 145.074, 107.449 143.18, 107.449 143.18, 109.344 141.285, 109.344 141.285, 107.449 139.391, 107.449 139.391, 105.555"/>
</g>
<text xml:space="preserve" x="170.295" y="124.327" fill="black" font-size="11.7432" font-family="Helvetica">centrality: 40~60%</text>
<g fill="#0033ff">
<polygon points=" 142.232, 122.512 140.811, 123.933 139.391, 122.512 140.811, 121.092 139.391, 119.671 140.811, 118.25 142.232, 119.671 143.653, 118.25 145.074, 119.671 143.653, 121.092 145.074, 122.512 143.653, 123.933 142.232, 122.512"/>
</g>
<text xml:space="preserve" x="170.295" y="138.535" fill="black" font-size="11.7432" font-family="Helvetica">centrality: 60~80%</text>
<g stroke="#0000ff" stroke-width="1" fill="none">
<polygon points=" 141.285, 134.734 141.285, 132.839 143.18, 132.839 143.18, 134.734 145.074, 134.734 145.074, 136.628 143.18, 136.628 143.18, 138.523 141.285, 138.523 141.285, 136.628 139.391, 136.628 139.391, 134.734"/>
</g></svg>
