<?xml version="1.0" standalone="no"?>
<svg width="567.429" height="409.002" viewBox="0 0 567.429 409.002" xmlns="http://www.w3.org/2000/svg" shape-rendering="crispEdges">
<title>
/Users/jinhyunpark/npl/gitHub/Centrality_dependent_BiasCorrection/plots/plots_scaled-dNdpT/ratio_scaledYield_highpT_pion0_cent2mb.svg
</title>
<desc>
Creator: ROOT Version 6.28/04
CreationDate: Tue Oct 24 12:21:11 2023</desc>
<defs>
</defs>
<rect x="0.5" y="0" width="566.929" height="408.502" fill="white"/>
<rect x="68.5315" y="20.4251" width="430.866" height="339.056" fill="white"/>
<rect x="68.5315" y="20.4251" width="430.866" height="339.056" fill="none" stroke="black"/>
<rect x="68.5315" y="20.4251" width="430.866" height="339.056" fill="white"/>
<rect x="68.5315" y="20.4251" width="430.866" height="339.056" fill="none" stroke="black"/>
<path d="M68.5315,359.481h 430.866" fill="none" stroke="black"/>
<path d="M68.5315,350.168v 9.31384" fill="none" stroke="black"/>
<path d="M80.5,354.824v 4.65692" fill="none" stroke="black"/>
<path d="M92.4685,354.824v 4.65692" fill="none" stroke="black"/>
<path d="M104.437,354.824v 4.65692" fill="none" stroke="black"/>
<path d="M116.406,350.168v 9.31384" fill="none" stroke="black"/>
<path d="M128.374,354.824v 4.65692" fill="none" stroke="black"/>
<path d="M140.343,354.824v 4.65692" fill="none" stroke="black"/>
<path d="M152.311,354.824v 4.65692" fill="none" stroke="black"/>
<path d="M164.28,350.168v 9.31384" fill="none" stroke="black"/>
<path d="M176.248,354.824v 4.65692" fill="none" stroke="black"/>
<path d="M188.217,354.824v 4.65692" fill="none" stroke="black"/>
<path d="M200.185,354.824v 4.65692" fill="none" stroke="black"/>
<path d="M212.154,350.168v 9.31384" fill="none" stroke="black"/>
<path d="M224.122,354.824v 4.65692" fill="none" stroke="black"/>
<path d="M236.091,354.824v 4.65692" fill="none" stroke="black"/>
<path d="M248.059,354.824v 4.65692" fill="none" stroke="black"/>
<path d="M260.028,350.168v 9.31384" fill="none" stroke="black"/>
<path d="M271.996,354.824v 4.65692" fill="none" stroke="black"/>
<path d="M283.965,354.824v 4.65692" fill="none" stroke="black"/>
<path d="M295.933,354.824v 4.65692" fill="none" stroke="black"/>
<path d="M307.902,350.168v 9.31384" fill="none" stroke="black"/>
<path d="M319.87,354.824v 4.65692" fill="none" stroke="black"/>
<path d="M331.839,354.824v 4.65692" fill="none" stroke="black"/>
<path d="M343.807,354.824v 4.65692" fill="none" stroke="black"/>
<path d="M355.776,350.168v 9.31384" fill="none" stroke="black"/>
<path d="M367.744,354.824v 4.65692" fill="none" stroke="black"/>
<path d="M379.713,354.824v 4.65692" fill="none" stroke="black"/>
<path d="M391.681,354.824v 4.65692" fill="none" stroke="black"/>
<path d="M403.65,350.168v 9.31384" fill="none" stroke="black"/>
<path d="M415.618,354.824v 4.65692" fill="none" stroke="black"/>
<path d="M427.587,354.824v 4.65692" fill="none" stroke="black"/>
<path d="M439.555,354.824v 4.65692" fill="none" stroke="black"/>
<path d="M451.524,350.168v 9.31384" fill="none" stroke="black"/>
<path d="M463.492,354.824v 4.65692" fill="none" stroke="black"/>
<path d="M475.461,354.824v 4.65692" fill="none" stroke="black"/>
<path d="M487.429,354.824v 4.65692" fill="none" stroke="black"/>
<path d="M499.398,350.168v 9.31384" fill="none" stroke="black"/>
<text xml:space="preserve" x="64.4394" y="372.269" fill="black" font-size="13.617" font-family="Helvetica">2</text>
<text xml:space="preserve" x="112.749" y="372.269" fill="black" font-size="13.617" font-family="Helvetica">4</text>
<text xml:space="preserve" x="160.348" y="372.269" fill="black" font-size="13.617" font-family="Helvetica">6</text>
<text xml:space="preserve" x="207.948" y="372.269" fill="black" font-size="13.617" font-family="Helvetica">8</text>
<text xml:space="preserve" x="251.995" y="372.269" fill="black" font-size="13.617" font-family="Helvetica">10</text>
<text xml:space="preserve" x="299.594" y="372.269" fill="black" font-size="13.617" font-family="Helvetica">12</text>
<text xml:space="preserve" x="347.904" y="372.269" fill="black" font-size="13.617" font-family="Helvetica">14</text>
<text xml:space="preserve" x="395.503" y="372.269" fill="black" font-size="13.617" font-family="Helvetica">16</text>
<text xml:space="preserve" x="443.103" y="372.269" fill="black" font-size="13.617" font-family="Helvetica">18</text>
<text xml:space="preserve" x="491.412" y="372.269" fill="black" font-size="13.617" font-family="Helvetica">20</text>
<text xml:space="preserve" x="453.759" y="384.347" fill="black" font-size="13.617" font-family="Helvetica">(GeV/c)</text>
<text xml:space="preserve" x="448.076" y="392.162" fill="black" font-size="9.24468" font-family="Helvetica">T</text>
<text xml:space="preserve" x="440.261" y="384.347" fill="black" font-size="13.617" font-family="Helvetica">p</text>
<path d="M68.5315,20.4251h 430.866" fill="none" stroke="black"/>
<path d="M68.5315,29.7389v -9.31384" fill="none" stroke="black"/>
<path d="M80.5,25.082v -4.65692" fill="none" stroke="black"/>
<path d="M92.4685,25.082v -4.65692" fill="none" stroke="black"/>
<path d="M104.437,25.082v -4.65692" fill="none" stroke="black"/>
<path d="M116.406,29.7389v -9.31384" fill="none" stroke="black"/>
<path d="M128.374,25.082v -4.65692" fill="none" stroke="black"/>
<path d="M140.343,25.082v -4.65692" fill="none" stroke="black"/>
<path d="M152.311,25.082v -4.65692" fill="none" stroke="black"/>
<path d="M164.28,29.7389v -9.31384" fill="none" stroke="black"/>
<path d="M176.248,25.082v -4.65692" fill="none" stroke="black"/>
<path d="M188.217,25.082v -4.65692" fill="none" stroke="black"/>
<path d="M200.185,25.082v -4.65692" fill="none" stroke="black"/>
<path d="M212.154,29.7389v -9.31384" fill="none" stroke="black"/>
<path d="M224.122,25.082v -4.65692" fill="none" stroke="black"/>
<path d="M236.091,25.082v -4.65692" fill="none" stroke="black"/>
<path d="M248.059,25.082v -4.65692" fill="none" stroke="black"/>
<path d="M260.028,29.7389v -9.31384" fill="none" stroke="black"/>
<path d="M271.996,25.082v -4.65692" fill="none" stroke="black"/>
<path d="M283.965,25.082v -4.65692" fill="none" stroke="black"/>
<path d="M295.933,25.082v -4.65692" fill="none" stroke="black"/>
<path d="M307.902,29.7389v -9.31384" fill="none" stroke="black"/>
<path d="M319.87,25.082v -4.65692" fill="none" stroke="black"/>
<path d="M331.839,25.082v -4.65692" fill="none" stroke="black"/>
<path d="M343.807,25.082v -4.65692" fill="none" stroke="black"/>
<path d="M355.776,29.7389v -9.31384" fill="none" stroke="black"/>
<path d="M367.744,25.082v -4.65692" fill="none" stroke="black"/>
<path d="M379.713,25.082v -4.65692" fill="none" stroke="black"/>
<path d="M391.681,25.082v -4.65692" fill="none" stroke="black"/>
<path d="M403.65,29.7389v -9.31384" fill="none" stroke="black"/>
<path d="M415.618,25.082v -4.65692" fill="none" stroke="black"/>
<path d="M427.587,25.082v -4.65692" fill="none" stroke="black"/>
<path d="M439.555,25.082v -4.65692" fill="none" stroke="black"/>
<path d="M451.524,29.7389v -9.31384" fill="none" stroke="black"/>
<path d="M463.492,25.082v -4.65692" fill="none" stroke="black"/>
<path d="M475.461,25.082v -4.65692" fill="none" stroke="black"/>
<path d="M487.429,25.082v -4.65692" fill="none" stroke="black"/>
<path d="M499.398,29.7389v -9.31384" fill="none" stroke="black"/>
<path d="M68.5315,359.481v -339.056" fill="none" stroke="black"/>
<path d="M82.648,359.481h -14.1165" fill="none" stroke="black"/>
<path d="M75.5898,345.919h -7.05827" fill="none" stroke="black"/>
<path d="M75.5898,332.357h -7.05827" fill="none" stroke="black"/>
<path d="M75.5898,318.795h -7.05827" fill="none" stroke="black"/>
<path d="M75.5898,305.232h -7.05827" fill="none" stroke="black"/>
<path d="M82.648,291.67h -14.1165" fill="none" stroke="black"/>
<path d="M75.5898,278.108h -7.05827" fill="none" stroke="black"/>
<path d="M75.5898,264.546h -7.05827" fill="none" stroke="black"/>
<path d="M75.5898,250.983h -7.05827" fill="none" stroke="black"/>
<path d="M75.5898,237.421h -7.05827" fill="none" stroke="black"/>
<path d="M82.648,223.859h -14.1165" fill="none" stroke="black"/>
<path d="M75.5898,210.297h -7.05827" fill="none" stroke="black"/>
<path d="M75.5898,196.734h -7.05827" fill="none" stroke="black"/>
<path d="M75.5898,183.172h -7.05827" fill="none" stroke="black"/>
<path d="M75.5898,169.61h -7.05827" fill="none" stroke="black"/>
<path d="M82.648,156.048h -14.1165" fill="none" stroke="black"/>
<path d="M75.5898,142.485h -7.05827" fill="none" stroke="black"/>
<path d="M75.5898,128.923h -7.05827" fill="none" stroke="black"/>
<path d="M75.5898,115.361h -7.05827" fill="none" stroke="black"/>
<path d="M75.5898,101.799h -7.05827" fill="none" stroke="black"/>
<path d="M82.648,88.2363h -14.1165" fill="none" stroke="black"/>
<path d="M75.5898,74.6741h -7.05827" fill="none" stroke="black"/>
<path d="M75.5898,61.1118h -7.05827" fill="none" stroke="black"/>
<path d="M75.5898,47.5496h -7.05827" fill="none" stroke="black"/>
<path d="M75.5898,33.9873h -7.05827" fill="none" stroke="black"/>
<path d="M82.648,20.4251h -14.1165" fill="none" stroke="black"/>
<text xml:space="preserve" x="58.0454" y="364.454" fill="black" font-size="13.617" font-family="Helvetica">0</text>
<text xml:space="preserve" x="46.6784" y="296.252" fill="black" font-size="13.617" font-family="Helvetica">0.5</text>
<text xml:space="preserve" x="60.1768" y="229.471" fill="black" font-size="13.617" font-family="Helvetica">1</text>
<text xml:space="preserve" x="46.6784" y="160.559" fill="black" font-size="13.617" font-family="Helvetica">1.5</text>
<text xml:space="preserve" x="58.0454" y="93.7778" fill="black" font-size="13.617" font-family="Helvetica">2</text>
<text xml:space="preserve" x="46.6784" y="24.8653" fill="black" font-size="13.617" font-family="Helvetica">2.5</text>
<g transform="rotate(-90,32.4697,24.1549)">
<text xml:space="preserve" x="32.4697" y="24.1549" fill="black" font-size="13.617" font-family="Helvetica"> </text>
</g>
<g transform="rotate(-90,40.2845,37.6532)">
<text xml:space="preserve" x="40.2845" y="37.6532" fill="black" font-size="9.24468" font-family="Helvetica">MB</text>
</g>
<g transform="rotate(-90,32.4697,41.2054)">
<text xml:space="preserve" x="32.4697" y="41.2054" fill="black" font-size="13.617" font-family="Helvetica">)</text>
</g>
<g transform="rotate(-90,48.0993,49.0202)">
<text xml:space="preserve" x="48.0993" y="49.0202" fill="black" font-size="9.24468" font-family="Helvetica">T</text>
</g>
<g transform="rotate(-90,40.2845,63.9394)">
<text xml:space="preserve" x="40.2845" y="63.9394" fill="black" font-size="13.617" font-family="Helvetica">dp</text>
</g>
<g transform="rotate(-90,16.1296,44.7576)">
<text xml:space="preserve" x="16.1296" y="44.7576" fill="black" font-size="6.32979" font-family="Helvetica">0</text>
</g>
<g transform="rotate(-90,19.6818,49.7306)">
<text xml:space="preserve" x="19.6818" y="49.7306" fill="black" font-size="9.24468" font-family="Times">&#0960;</text>
</g>
<g transform="rotate(-90,26.0758,66.0707)">
<text xml:space="preserve" x="26.0758" y="66.0707" fill="black" font-size="13.617" font-family="Helvetica">dN</text>
</g>
<path d="M28.9175,66.0707v -24.8653" fill="none" stroke="black" stroke-width="2"/>
<g transform="rotate(-90,32.4697,70.3333)">
<text xml:space="preserve" x="32.4697" y="70.3333" fill="black" font-size="13.617" font-family="Helvetica"> </text>
</g>
<g transform="rotate(-90,44.5471,93.0673)">
<text xml:space="preserve" x="44.5471" y="93.0673" fill="black" font-size="9.24468" font-family="Helvetica">event</text>
</g>
<g transform="rotate(-90,40.2845,102.303)">
<text xml:space="preserve" x="40.2845" y="102.303" fill="black" font-size="13.617" font-family="Helvetica">N</text>
</g>
<g transform="rotate(-90,26.7862,88.8047)">
<text xml:space="preserve" x="26.7862" y="88.8047" fill="black" font-size="13.617" font-family="Helvetica">1</text>
</g>
<path d="M28.9175,102.303v -31.9697" fill="none" stroke="black" stroke-width="2"/>
<g transform="rotate(-90,32.4697,106.566)">
<text xml:space="preserve" x="32.4697" y="106.566" fill="black" font-size="13.617" font-family="Helvetica"> </text>
</g>
<g transform="rotate(-90,40.9949,110.828)">
<text xml:space="preserve" x="40.9949" y="110.828" fill="black" font-size="13.617" font-family="Times">&#0062;</text>
</g>
<g transform="rotate(-90,40.9949,115.091)">
<text xml:space="preserve" x="40.9949" y="115.091" fill="black" font-size="13.617" font-family="Helvetica"> </text>
</g>
<g transform="rotate(-90,47.3889,128.589)">
<text xml:space="preserve" x="47.3889" y="128.589" fill="black" font-size="9.24468" font-family="Helvetica">coll</text>
</g>
<g transform="rotate(-90,40.9949,141.377)">
<text xml:space="preserve" x="40.9949" y="141.377" fill="black" font-size="13.617" font-family="Helvetica"> N</text>
</g>
<g transform="rotate(-90,40.9949,145.64)">
<text xml:space="preserve" x="40.9949" y="145.64" fill="black" font-size="13.617" font-family="Times">&#0060;</text>
</g>
<g transform="rotate(-90,26.7862,128.589)">
<text xml:space="preserve" x="26.7862" y="128.589" fill="black" font-size="13.617" font-family="Helvetica">1</text>
</g>
<path d="M28.9175,145.64v -39.0741" fill="none" stroke="black" stroke-width="2"/>
<g transform="rotate(-90,32.4697,161.269)">
<text xml:space="preserve" x="32.4697" y="161.269" fill="black" font-size="13.617" font-family="Helvetica"> / (</text>
</g>
<g transform="rotate(-90,39.5741,179.03)">
<text xml:space="preserve" x="39.5741" y="179.03" fill="black" font-size="9.24468" font-family="Helvetica">cent</text>
</g>
<g transform="rotate(-90,32.4697,182.582)">
<text xml:space="preserve" x="32.4697" y="182.582" fill="black" font-size="13.617" font-family="Helvetica">)</text>
</g>
<g transform="rotate(-90,48.0993,190.397)">
<text xml:space="preserve" x="48.0993" y="190.397" fill="black" font-size="9.24468" font-family="Helvetica">T</text>
</g>
<g transform="rotate(-90,40.2845,205.316)">
<text xml:space="preserve" x="40.2845" y="205.316" fill="black" font-size="13.617" font-family="Helvetica">dp</text>
</g>
<g transform="rotate(-90,16.1296,186.135)">
<text xml:space="preserve" x="16.1296" y="186.135" fill="black" font-size="6.32979" font-family="Helvetica">0</text>
</g>
<g transform="rotate(-90,19.6818,191.108)">
<text xml:space="preserve" x="19.6818" y="191.108" fill="black" font-size="9.24468" font-family="Times">&#0960;</text>
</g>
<g transform="rotate(-90,26.0758,207.448)">
<text xml:space="preserve" x="26.0758" y="207.448" fill="black" font-size="13.617" font-family="Helvetica">dN</text>
</g>
<path d="M28.9175,207.448v -24.8653" fill="none" stroke="black" stroke-width="2"/>
<g transform="rotate(-90,32.4697,211.71)">
<text xml:space="preserve" x="32.4697" y="211.71" fill="black" font-size="13.617" font-family="Helvetica"> </text>
</g>
<g transform="rotate(-90,44.5471,234.444)">
<text xml:space="preserve" x="44.5471" y="234.444" fill="black" font-size="9.24468" font-family="Helvetica">event</text>
</g>
<g transform="rotate(-90,40.2845,243.68)">
<text xml:space="preserve" x="40.2845" y="243.68" fill="black" font-size="13.617" font-family="Helvetica">N</text>
</g>
<g transform="rotate(-90,26.7862,230.182)">
<text xml:space="preserve" x="26.7862" y="230.182" fill="black" font-size="13.617" font-family="Helvetica">1</text>
</g>
<path d="M28.9175,243.68v -31.9697" fill="none" stroke="black" stroke-width="2"/>
<g transform="rotate(-90,32.4697,247.943)">
<text xml:space="preserve" x="32.4697" y="247.943" fill="black" font-size="13.617" font-family="Helvetica"> </text>
</g>
<g transform="rotate(-90,40.9949,252.205)">
<text xml:space="preserve" x="40.9949" y="252.205" fill="black" font-size="13.617" font-family="Times">&#0062;</text>
</g>
<g transform="rotate(-90,40.9949,256.468)">
<text xml:space="preserve" x="40.9949" y="256.468" fill="black" font-size="13.617" font-family="Helvetica"> </text>
</g>
<g transform="rotate(-90,47.3889,269.966)">
<text xml:space="preserve" x="47.3889" y="269.966" fill="black" font-size="9.24468" font-family="Helvetica">coll</text>
</g>
<g transform="rotate(-90,40.9949,282.754)">
<text xml:space="preserve" x="40.9949" y="282.754" fill="black" font-size="13.617" font-family="Helvetica"> N</text>
</g>
<g transform="rotate(-90,40.9949,287.017)">
<text xml:space="preserve" x="40.9949" y="287.017" fill="black" font-size="13.617" font-family="Times">&#0060;</text>
</g>
<g transform="rotate(-90,26.7862,269.966)">
<text xml:space="preserve" x="26.7862" y="269.966" fill="black" font-size="13.617" font-family="Helvetica">1</text>
</g>
<path d="M28.9175,287.017v -39.0741" fill="none" stroke="black" stroke-width="2"/>
<g transform="rotate(-90,32.4697,291.279)">
<text xml:space="preserve" x="32.4697" y="291.279" fill="black" font-size="13.617" font-family="Helvetica">(</text>
</g>
<path d="M499.398,359.481v -339.056" fill="none" stroke="black"/>
<path d="M485.281,359.481h 14.1165" fill="none" stroke="black"/>
<path d="M492.339,345.919h 7.05827" fill="none" stroke="black"/>
<path d="M492.339,332.357h 7.05827" fill="none" stroke="black"/>
<path d="M492.339,318.795h 7.05827" fill="none" stroke="black"/>
<path d="M492.339,305.232h 7.05827" fill="none" stroke="black"/>
<path d="M485.281,291.67h 14.1165" fill="none" stroke="black"/>
<path d="M492.339,278.108h 7.05827" fill="none" stroke="black"/>
<path d="M492.339,264.546h 7.05827" fill="none" stroke="black"/>
<path d="M492.339,250.983h 7.05827" fill="none" stroke="black"/>
<path d="M492.339,237.421h 7.05827" fill="none" stroke="black"/>
<path d="M485.281,223.859h 14.1165" fill="none" stroke="black"/>
<path d="M492.339,210.297h 7.05827" fill="none" stroke="black"/>
<path d="M492.339,196.734h 7.05827" fill="none" stroke="black"/>
<path d="M492.339,183.172h 7.05827" fill="none" stroke="black"/>
<path d="M492.339,169.61h 7.05827" fill="none" stroke="black"/>
<path d="M485.281,156.048h 14.1165" fill="none" stroke="black"/>
<path d="M492.339,142.485h 7.05827" fill="none" stroke="black"/>
<path d="M492.339,128.923h 7.05827" fill="none" stroke="black"/>
<path d="M492.339,115.361h 7.05827" fill="none" stroke="black"/>
<path d="M492.339,101.799h 7.05827" fill="none" stroke="black"/>
<path d="M485.281,88.2363h 14.1165" fill="none" stroke="black"/>
<path d="M492.339,74.6741h 7.05827" fill="none" stroke="black"/>
<path d="M492.339,61.1118h 7.05827" fill="none" stroke="black"/>
<path d="M492.339,47.5496h 7.05827" fill="none" stroke="black"/>
<path d="M492.339,33.9873h 7.05827" fill="none" stroke="black"/>
<path d="M485.281,20.4251h 14.1165" fill="none" stroke="black"/>
<path d="M68.5315,240.157h 9.12675" fill="none" stroke="#ffcc00"/>
<path d="M83.3418,240.157h 9.12675" fill="none" stroke="#ffcc00"/>
<g fill="#ffcc00">
<polygon points=" 79.5527, 239.209 79.5527, 237.315 81.4473, 237.315 81.4473, 239.209 83.3418, 239.209 83.3418, 241.104 81.4473, 241.104 81.4473, 242.998 79.5527, 242.998 79.5527, 241.104 77.6582, 241.104 77.6582, 239.209"/>
</g>
<path d="M92.4685,244.74h 21.0953" fill="none" stroke="#ffcc00"/>
<path d="M119.247,244.74h 21.0953" fill="none" stroke="#ffcc00"/>
<g fill="#ffcc00">
<polygon points=" 115.458, 243.792 115.458, 241.898 117.353, 241.898 117.353, 243.792 119.247, 243.792 119.247, 245.687 117.353, 245.687 117.353, 247.581 115.458, 247.581 115.458, 245.687 113.564, 245.687 113.564, 243.792"/>
</g>
<path d="M140.343,254.436h 21.0953" fill="none" stroke="#ffcc00"/>
<path d="M167.121,254.436h 21.0953" fill="none" stroke="#ffcc00"/>
<g fill="#ffcc00">
<polygon points=" 163.332, 253.489 163.332, 251.595 165.227, 251.595 165.227, 253.489 167.121, 253.489 167.121, 255.384 165.227, 255.384 165.227, 257.278 163.332, 257.278 163.332, 255.384 161.438, 255.384 161.438, 253.489"/>
</g>
<path d="M188.217,263.384h 21.0953" fill="none" stroke="#ffcc00"/>
<path d="M214.995,263.384h 21.0953" fill="none" stroke="#ffcc00"/>
<g fill="#ffcc00">
<polygon points=" 211.206, 262.437 211.206, 260.542 213.101, 260.542 213.101, 262.437 214.995, 262.437 214.995, 264.331 213.101, 264.331 213.101, 266.226 211.206, 266.226 211.206, 264.331 209.312, 264.331 209.312, 262.437"/>
</g>
<path d="M236.091,269.75h 21.0953" fill="none" stroke="#ffcc00"/>
<path d="M262.869,269.75h 21.0953" fill="none" stroke="#ffcc00"/>
<g fill="#ffcc00">
<polygon points=" 259.08, 268.803 259.08, 266.909 260.975, 266.909 260.975, 268.803 262.869, 268.803 262.869, 270.698 260.975, 270.698 260.975, 272.592 259.08, 272.592 259.08, 270.698 257.186, 270.698 257.186, 268.803"/>
</g>
<path d="M283.965,272.206h 45.0323" fill="none" stroke="#ffcc00"/>
<path d="M334.68,272.206h 45.0323" fill="none" stroke="#ffcc00"/>
<g fill="#ffcc00">
<polygon points=" 330.891, 271.259 330.891, 269.364 332.786, 269.364 332.786, 271.259 334.68, 271.259 334.68, 273.153 332.786, 273.153 332.786, 275.048 330.891, 275.048 330.891, 273.153 328.997, 273.153 328.997, 271.259"/>
</g>
<path d="M439.555,286.771v -1.33482" fill="none" stroke="#ffcc00"/>
<path d="M439.555,279.753v -1.33482" fill="none" stroke="#ffcc00"/>
<path d="M379.713,282.595h 57.0008" fill="none" stroke="#ffcc00"/>
<path d="M442.397,282.595h 57.0008" fill="none" stroke="#ffcc00"/>
<g fill="#ffcc00">
<polygon points=" 438.608, 281.648 438.608, 279.753 440.502, 279.753 440.502, 281.648 442.397, 281.648 442.397, 283.542 440.502, 283.542 440.502, 285.437 438.608, 285.437 438.608, 283.542 436.713, 283.542 436.713, 281.648"/>
</g>
<path d="M68.5315,232.795h 9.12675" fill="none" stroke="#ff0000"/>
<path d="M83.3418,232.795h 9.12675" fill="none" stroke="#ff0000"/>
<g fill="#ff0000">
<polygon points=" 79.5527, 231.848 79.5527, 229.954 81.4473, 229.954 81.4473, 231.848 83.3418, 231.848 83.3418, 233.743 81.4473, 233.743 81.4473, 235.637 79.5527, 235.637 79.5527, 233.743 77.6582, 233.743 77.6582, 231.848"/>
</g>
<path d="M92.4685,235.402h 21.0953" fill="none" stroke="#ff0000"/>
<path d="M119.247,235.402h 21.0953" fill="none" stroke="#ff0000"/>
<g fill="#ff0000">
<polygon points=" 115.458, 234.455 115.458, 232.561 117.353, 232.561 117.353, 234.455 119.247, 234.455 119.247, 236.35 117.353, 236.35 117.353, 238.244 115.458, 238.244 115.458, 236.35 113.564, 236.35 113.564, 234.455"/>
</g>
<path d="M140.343,241.754h 21.0953" fill="none" stroke="#ff0000"/>
<path d="M167.121,241.754h 21.0953" fill="none" stroke="#ff0000"/>
<g fill="#ff0000">
<polygon points=" 163.332, 240.807 163.332, 238.912 165.227, 238.912 165.227, 240.807 167.121, 240.807 167.121, 242.701 165.227, 242.701 165.227, 244.596 163.332, 244.596 163.332, 242.701 161.438, 242.701 161.438, 240.807"/>
</g>
<path d="M188.217,247.276h 21.0953" fill="none" stroke="#ff0000"/>
<path d="M214.995,247.276h 21.0953" fill="none" stroke="#ff0000"/>
<g fill="#ff0000">
<polygon points=" 211.206, 246.329 211.206, 244.435 213.101, 244.435 213.101, 246.329 214.995, 246.329 214.995, 248.224 213.101, 248.224 213.101, 250.118 211.206, 250.118 211.206, 248.224 209.312, 248.224 209.312, 246.329"/>
</g>
<path d="M236.091,251.452h 21.0953" fill="none" stroke="#ff0000"/>
<path d="M262.869,251.452h 21.0953" fill="none" stroke="#ff0000"/>
<g fill="#ff0000">
<polygon points=" 259.08, 250.504 259.08, 248.61 260.975, 248.61 260.975, 250.504 262.869, 250.504 262.869, 252.399 260.975, 252.399 260.975, 254.293 259.08, 254.293 259.08, 252.399 257.186, 252.399 257.186, 250.504"/>
</g>
<path d="M283.965,254.7h 45.0323" fill="none" stroke="#ff0000"/>
<path d="M334.68,254.7h 45.0323" fill="none" stroke="#ff0000"/>
<g fill="#ff0000">
<polygon points=" 330.891, 253.752 330.891, 251.858 332.786, 251.858 332.786, 253.752 334.68, 253.752 334.68, 255.647 332.786, 255.647 332.786, 257.541 330.891, 257.541 330.891, 255.647 328.997, 255.647 328.997, 253.752"/>
</g>
<path d="M439.555,266.335v -2.29628" fill="none" stroke="#ff0000"/>
<path d="M439.555,258.355v -2.29628" fill="none" stroke="#ff0000"/>
<path d="M379.713,261.197h 57.0008" fill="none" stroke="#ff0000"/>
<path d="M442.397,261.197h 57.0008" fill="none" stroke="#ff0000"/>
<g fill="#ff0000">
<polygon points=" 438.608, 260.249 438.608, 258.355 440.502, 258.355 440.502, 260.249 442.397, 260.249 442.397, 262.144 440.502, 262.144 440.502, 264.038 438.608, 264.038 438.608, 262.144 436.713, 262.144 436.713, 260.249"/>
</g>
<path d="M68.5315,226.007h 9.12675" fill="none" stroke="#ff0033"/>
<path d="M83.3418,226.007h 9.12675" fill="none" stroke="#ff0033"/>
<g stroke="#ff0033" stroke-width="1" fill="none">
<polygon points=" 79.5527, 225.06 79.5527, 223.166 81.4473, 223.166 81.4473, 225.06 83.3418, 225.06 83.3418, 226.955 81.4473, 226.955 81.4473, 228.849 79.5527, 228.849 79.5527, 226.955 77.6582, 226.955 77.6582, 225.06"/>
</g>
<path d="M92.4685,227.014h 21.0953" fill="none" stroke="#ff0033"/>
<path d="M119.247,227.014h 21.0953" fill="none" stroke="#ff0033"/>
<g stroke="#ff0033" stroke-width="1" fill="none">
<polygon points=" 115.458, 226.067 115.458, 224.173 117.353, 224.173 117.353, 226.067 119.247, 226.067 119.247, 227.962 117.353, 227.962 117.353, 229.856 115.458, 229.856 115.458, 227.962 113.564, 227.962 113.564, 226.067"/>
</g>
<path d="M140.343,230.056h 21.0953" fill="none" stroke="#ff0033"/>
<path d="M167.121,230.056h 21.0953" fill="none" stroke="#ff0033"/>
<g stroke="#ff0033" stroke-width="1" fill="none">
<polygon points=" 163.332, 229.108 163.332, 227.214 165.227, 227.214 165.227, 229.108 167.121, 229.108 167.121, 231.003 165.227, 231.003 165.227, 232.897 163.332, 232.897 163.332, 231.003 161.438, 231.003 161.438, 229.108"/>
</g>
<path d="M188.217,232.161h 21.0953" fill="none" stroke="#ff0033"/>
<path d="M214.995,232.161h 21.0953" fill="none" stroke="#ff0033"/>
<g stroke="#ff0033" stroke-width="1" fill="none">
<polygon points=" 211.206, 231.213 211.206, 229.319 213.101, 229.319 213.101, 231.213 214.995, 231.213 214.995, 233.108 213.101, 233.108 213.101, 235.002 211.206, 235.002 211.206, 233.108 209.312, 233.108 209.312, 231.213"/>
</g>
<path d="M236.091,233.744h 21.0953" fill="none" stroke="#ff0033"/>
<path d="M262.869,233.744h 21.0953" fill="none" stroke="#ff0033"/>
<g stroke="#ff0033" stroke-width="1" fill="none">
<polygon points=" 259.08, 232.797 259.08, 230.903 260.975, 230.903 260.975, 232.797 262.869, 232.797 262.869, 234.692 260.975, 234.692 260.975, 236.586 259.08, 236.586 259.08, 234.692 257.186, 234.692 257.186, 232.797"/>
</g>
<path d="M283.965,237.064h 45.0323" fill="none" stroke="#ff0033"/>
<path d="M334.68,237.064h 45.0323" fill="none" stroke="#ff0033"/>
<g stroke="#ff0033" stroke-width="1" fill="none">
<polygon points=" 330.891, 236.116 330.891, 234.222 332.786, 234.222 332.786, 236.116 334.68, 236.116 334.68, 238.011 332.786, 238.011 332.786, 239.905 330.891, 239.905 330.891, 238.011 328.997, 238.011 328.997, 236.116"/>
</g>
<path d="M439.555,241.44v -1.80189" fill="none" stroke="#ff0033"/>
<path d="M439.555,233.954v -1.80189" fill="none" stroke="#ff0033"/>
<path d="M379.713,236.796h 57.0008" fill="none" stroke="#ff0033"/>
<path d="M442.397,236.796h 57.0008" fill="none" stroke="#ff0033"/>
<g stroke="#ff0033" stroke-width="1" fill="none">
<polygon points=" 438.608, 235.849 438.608, 233.954 440.502, 233.954 440.502, 235.849 442.397, 235.849 442.397, 237.743 440.502, 237.743 440.502, 239.638 438.608, 239.638 438.608, 237.743 436.713, 237.743 436.713, 235.849"/>
</g>
<path d="M68.5315,217.385h 10.5476" fill="none" stroke="#ff00ff"/>
<path d="M81.9209,217.385h 10.5476" fill="none" stroke="#ff00ff"/>
<g fill="#ff00ff">
<polygon points=" 80.5, 218.806 79.0791, 220.227 77.6582, 218.806 79.0791, 217.385 77.6582, 215.964 79.0791, 214.543 80.5, 215.964 81.9209, 214.543 83.3418, 215.964 81.9209, 217.385 83.3418, 218.806 81.9209, 220.227 80.5, 218.806"/>
</g>
<path d="M92.4685,216.154h 22.5161" fill="none" stroke="#ff00ff"/>
<path d="M117.826,216.154h 22.5161" fill="none" stroke="#ff00ff"/>
<g fill="#ff00ff">
<polygon points=" 116.406, 217.575 114.985, 218.996 113.564, 217.575 114.985, 216.154 113.564, 214.733 114.985, 213.312 116.406, 214.733 117.826, 213.312 119.247, 214.733 117.826, 216.154 119.247, 217.575 117.826, 218.996 116.406, 217.575"/>
</g>
<path d="M140.343,214.081h 22.5161" fill="none" stroke="#ff00ff"/>
<path d="M165.7,214.081h 22.5161" fill="none" stroke="#ff00ff"/>
<g fill="#ff00ff">
<polygon points=" 164.28, 215.502 162.859, 216.922 161.438, 215.502 162.859, 214.081 161.438, 212.66 162.859, 211.239 164.28, 212.66 165.7, 211.239 167.121, 212.66 165.7, 214.081 167.121, 215.502 165.7, 216.922 164.28, 215.502"/>
</g>
<path d="M188.217,212.945h 22.5161" fill="none" stroke="#ff00ff"/>
<path d="M213.574,212.945h 22.5161" fill="none" stroke="#ff00ff"/>
<g fill="#ff00ff">
<polygon points=" 212.154, 214.366 210.733, 215.787 209.312, 214.366 210.733, 212.945 209.312, 211.524 210.733, 210.103 212.154, 211.524 213.574, 210.103 214.995, 211.524 213.574, 212.945 214.995, 214.366 213.574, 215.787 212.154, 214.366"/>
</g>
<path d="M236.091,211.1h 22.5161" fill="none" stroke="#ff00ff"/>
<path d="M261.448,211.1h 22.5161" fill="none" stroke="#ff00ff"/>
<g fill="#ff00ff">
<polygon points=" 260.028, 212.521 258.607, 213.942 257.186, 212.521 258.607, 211.1 257.186, 209.679 258.607, 208.258 260.028, 209.679 261.448, 208.258 262.869, 209.679 261.448, 211.1 262.869, 212.521 261.448, 213.942 260.028, 212.521"/>
</g>
<path d="M331.839,214.616v -0.614716" fill="none" stroke="#ff00ff"/>
<path d="M331.839,211.16v -0.614716" fill="none" stroke="#ff00ff"/>
<path d="M283.965,212.581h 46.4531" fill="none" stroke="#ff00ff"/>
<path d="M333.259,212.581h 46.4531" fill="none" stroke="#ff00ff"/>
<g fill="#ff00ff">
<polygon points=" 331.839, 214.002 330.418, 215.423 328.997, 214.002 330.418, 212.581 328.997, 211.16 330.418, 209.739 331.839, 211.16 333.259, 209.739 334.68, 211.16 333.259, 212.581 334.68, 214.002 333.259, 215.423 331.839, 214.002"/>
</g>
<path d="M439.555,214.052v -4.41685" fill="none" stroke="#ff00ff"/>
<path d="M439.555,206.793v -4.41685" fill="none" stroke="#ff00ff"/>
<path d="M379.713,208.214h 58.4216" fill="none" stroke="#ff00ff"/>
<path d="M440.976,208.214h 58.4216" fill="none" stroke="#ff00ff"/>
<g fill="#ff00ff">
<polygon points=" 439.555, 209.635 438.134, 211.056 436.713, 209.635 438.134, 208.214 436.713, 206.793 438.134, 205.372 439.555, 206.793 440.976, 205.372 442.397, 206.793 440.976, 208.214 442.397, 209.635 440.976, 211.056 439.555, 209.635"/>
</g>
<path d="M68.5315,209.385h 9.12675" fill="none" stroke="#cc00ff"/>
<path d="M83.3418,209.385h 9.12675" fill="none" stroke="#cc00ff"/>
<g stroke="#cc00ff" stroke-width="1" fill="none">
<polygon points=" 79.5527, 208.437 79.5527, 206.543 81.4473, 206.543 81.4473, 208.437 83.3418, 208.437 83.3418, 210.332 81.4473, 210.332 81.4473, 212.226 79.5527, 212.226 79.5527, 210.332 77.6582, 210.332 77.6582, 208.437"/>
</g>
<path d="M92.4685,205.402h 21.0953" fill="none" stroke="#cc00ff"/>
<path d="M119.247,205.402h 21.0953" fill="none" stroke="#cc00ff"/>
<g stroke="#cc00ff" stroke-width="1" fill="none">
<polygon points=" 115.458, 204.454 115.458, 202.56 117.353, 202.56 117.353, 204.454 119.247, 204.454 119.247, 206.349 117.353, 206.349 117.353, 208.243 115.458, 208.243 115.458, 206.349 113.564, 206.349 113.564, 204.454"/>
</g>
<path d="M140.343,196.601h 21.0953" fill="none" stroke="#cc00ff"/>
<path d="M167.121,196.601h 21.0953" fill="none" stroke="#cc00ff"/>
<g stroke="#cc00ff" stroke-width="1" fill="none">
<polygon points=" 163.332, 195.654 163.332, 193.759 165.227, 193.759 165.227, 195.654 167.121, 195.654 167.121, 197.548 165.227, 197.548 165.227, 199.443 163.332, 199.443 163.332, 197.548 161.438, 197.548 161.438, 195.654"/>
</g>
<path d="M188.217,188.74h 21.0953" fill="none" stroke="#cc00ff"/>
<path d="M214.995,188.74h 21.0953" fill="none" stroke="#cc00ff"/>
<g stroke="#cc00ff" stroke-width="1" fill="none">
<polygon points=" 211.206, 187.793 211.206, 185.898 213.101, 185.898 213.101, 187.793 214.995, 187.793 214.995, 189.687 213.101, 189.687 213.101, 191.582 211.206, 191.582 211.206, 189.687 209.312, 189.687 209.312, 187.793"/>
</g>
<path d="M236.091,183.655h 21.0953" fill="none" stroke="#cc00ff"/>
<path d="M262.869,183.655h 21.0953" fill="none" stroke="#cc00ff"/>
<g stroke="#cc00ff" stroke-width="1" fill="none">
<polygon points=" 259.08, 182.708 259.08, 180.814 260.975, 180.814 260.975, 182.708 262.869, 182.708 262.869, 184.603 260.975, 184.603 260.975, 186.497 259.08, 186.497 259.08, 184.603 257.186, 184.603 257.186, 182.708"/>
</g>
<path d="M283.965,179.134h 45.0323" fill="none" stroke="#cc00ff"/>
<path d="M334.68,179.134h 45.0323" fill="none" stroke="#cc00ff"/>
<g stroke="#cc00ff" stroke-width="1" fill="none">
<polygon points=" 330.891, 178.187 330.891, 176.292 332.786, 176.292 332.786, 178.187 334.68, 178.187 334.68, 180.081 332.786, 180.081 332.786, 181.976 330.891, 181.976 330.891, 180.081 328.997, 180.081 328.997, 178.187"/>
</g>
<path d="M439.555,176.974v -4.96884" fill="none" stroke="#cc00ff"/>
<path d="M439.555,166.322v -4.96884" fill="none" stroke="#cc00ff"/>
<path d="M379.713,169.164h 57.0008" fill="none" stroke="#cc00ff"/>
<path d="M442.397,169.164h 57.0008" fill="none" stroke="#cc00ff"/>
<g stroke="#cc00ff" stroke-width="1" fill="none">
<polygon points=" 438.608, 168.216 438.608, 166.322 440.502, 166.322 440.502, 168.216 442.397, 168.216 442.397, 170.111 440.502, 170.111 440.502, 172.005 438.608, 172.005 438.608, 170.111 436.713, 170.111 436.713, 168.216"/>
</g>
<text xml:space="preserve" x="85.7525" y="53.2828" fill="black" font-size="19.2386" font-family="Helvetica">PYTHIA8, pAu200GeV with option3</text>
<text xml:space="preserve" x="143.298" y="71.0438" fill="black" font-size="19.2386" font-family="Helvetica">|&lt;1</text>
<text xml:space="preserve" x="132.641" y="71.0438" fill="black" font-size="19.2386" font-family="Times">&#0951;</text>
<text xml:space="preserve" x="103.513" y="71.0438" fill="black" font-size="19.2386" font-family="Helvetica"> in |</text>
<text xml:space="preserve" x="96.4091" y="63.9394" fill="black" font-size="12.9924" font-family="Helvetica">0</text>
<text xml:space="preserve" x="85.7525" y="71.0438" fill="black" font-size="19.2386" font-family="Times">&#0960;</text>
<text xml:space="preserve" x="139.035" y="88.0943" fill="black" font-size="19.2386" font-family="Helvetica">centrality: 0~10%</text>
<g fill="#ffcc00">
<polygon points=" 108.687, 83.6709 108.687, 81.7764 110.581, 81.7764 110.581, 83.6709 112.476, 83.6709 112.476, 85.5654 110.581, 85.5654 110.581, 87.4599 108.687, 87.4599 108.687, 85.5654 106.792, 85.5654 106.792, 83.6709"/>
</g>
<text xml:space="preserve" x="139.035" y="105.855" fill="black" font-size="19.2386" font-family="Helvetica">centrality: 10~20%</text>
<g fill="#ff0000">
<polygon points=" 108.687, 101.178 108.687, 99.2836 110.581, 99.2836 110.581, 101.178 112.476, 101.178 112.476, 103.073 110.581, 103.073 110.581, 104.967 108.687, 104.967 108.687, 103.073 106.792, 103.073 106.792, 101.178"/>
</g>
<text xml:space="preserve" x="139.035" y="122.906" fill="black" font-size="19.2386" font-family="Helvetica">centrality: 20~40%</text>
<g stroke="#ff0033" stroke-width="1" fill="none">
<polygon points=" 108.687, 118.685 108.687, 116.791 110.581, 116.791 110.581, 118.685 112.476, 118.685 112.476, 120.58 110.581, 120.58 110.581, 122.474 108.687, 122.474 108.687, 120.58 106.792, 120.58 106.792, 118.685"/>
</g>
<text xml:space="preserve" x="139.035" y="140.667" fill="black" font-size="19.2386" font-family="Helvetica">centrality: 40~60%</text>
<g fill="#ff00ff">
<polygon points=" 109.634, 138.561 108.213, 139.982 106.792, 138.561 108.213, 137.14 106.792, 135.719 108.213, 134.298 109.634, 135.719 111.055, 134.298 112.476, 135.719 111.055, 137.14 112.476, 138.561 111.055, 139.982 109.634, 138.561"/>
</g>
<text xml:space="preserve" x="139.035" y="158.428" fill="black" font-size="19.2386" font-family="Helvetica">centrality: 60~80%</text>
<g stroke="#cc00ff" stroke-width="1" fill="none">
<polygon points=" 108.687, 153.7 108.687, 151.805 110.581, 151.805 110.581, 153.7 112.476, 153.7 112.476, 155.594 110.581, 155.594 110.581, 157.489 108.687, 157.489 108.687, 155.594 106.792, 155.594 106.792, 153.7"/>
</g></svg>
