<svg width="800" height="513" xmlns="http://www.w3.org/2000/svg"><path d="M0,0H800V513H0Z" style="pointer-events: visiblefill; fill: rgb(255, 255, 255);"></path><g><g transform="translate(96,26)"><title></title><path d="M0,0H608V426H0Z" style="fill: rgb(255, 255, 255); stroke: rgb(0, 0, 0); stroke-width: 1; pointer-events: visiblefill; cursor: default;"></path><svg x="0" y="0" overflow="hidden" width="608" height="426" viewBox="0 0 608 426" style="pointer-events: visiblefill; cursor: default;"><g><path d="M-122,277h122M-61,277v0M0,292h20M10,292v0M20,295h22M31,294v1M41,297h20M51,297v1M61,300h20M71,300v1M81,303h20M91,302v1M101,305h22M112,305v1M122,308h20M132,308v1M142,309h20M152,308v2M162,311h20M172,311v1M182,311h22M193,310v2M203,317h82M244,316v1M284,321h82M325,320v2M365,320h82M406,317v5M446,327h162M527,324v6" style="stroke: rgb(255, 204, 0); stroke-width: 1;"></path><path d="M-122,277h122v0h-122zM0,292h20v0h-20zM20,294h22v1h-22zM41,297h20v1h-20zM61,300h20v1h-20zM81,302h20v1h-20zM101,305h22v1h-22zM122,308h20v1h-20zM142,308h20v2h-20zM162,311h20v1h-20zM182,310h22v2h-22zM203,316h82v1h-82zM284,320h82v2h-82zM365,317h82v5h-82zM446,324h162v6h-162z" style="fill: none; pointer-events: visiblefill;"></path><path d="M-60,278h3v-3h-3v-3h-3v3h-3v3h3v3h3zM11,293h3v-3h-3v-3h-3v3h-3v3h3v3h3zM32,296h3v-3h-3v-3h-3v3h-3v3h3v3h3zM52,298h3v-3h-3v-3h-3v3h-3v3h3v3h3zM72,301h3v-3h-3v-3h-3v3h-3v3h3v3h3zM92,304h3v-3h-3v-3h-3v3h-3v3h3v3h3zM113,306h3v-3h-3v-3h-3v3h-3v3h3v3h3zM133,309h3v-3h-3v-3h-3v3h-3v3h3v3h3zM153,310h3v-3h-3v-3h-3v3h-3v3h3v3h3zM173,312h3v-3h-3v-3h-3v3h-3v3h3v3h3zM194,312h3v-3h-3v-3h-3v3h-3v3h3v3h3zM245,318h3v-3h-3v-3h-3v3h-3v3h3v3h3zM326,322h3v-3h-3v-3h-3v3h-3v3h3v3h3zM407,321h3v-3h-3v-3h-3v3h-3v3h3v3h3zM528,328h3v-3h-3v-3h-3v3h-3v3h3v3h3z" style="stroke: rgb(255, 204, 0); fill: rgb(255, 204, 0);"></path></g><g><path d="M-122,267h122M-61,267v0M0,276h20M10,276v0M20,278h22M31,278v0M41,280h20M51,280v0M61,282h20M71,282v0M81,284h20M91,283v1M101,285h22M112,285v1M122,286h20M132,285v2M142,288h20M152,287v2M162,289h20M172,288v2M182,291h22M193,290v2M203,293h82M244,292v1M284,297h82M325,296v3M365,302h82M406,299v6M446,300h162M527,297v7" style="stroke: rgb(255, 0, 0); stroke-width: 1;"></path><path d="M-122,267h122v0h-122zM0,276h20v0h-20zM20,278h22v0h-22zM41,280h20v0h-20zM61,282h20v0h-20zM81,283h20v1h-20zM101,285h22v1h-22zM122,285h20v2h-20zM142,287h20v2h-20zM162,288h20v2h-20zM182,290h22v2h-22zM203,292h82v1h-82zM284,296h82v3h-82zM365,299h82v6h-82zM446,297h162v7h-162z" style="fill: none; pointer-events: visiblefill;"></path><path d="M-60,268h3v-3h-3v-3h-3v3h-3v3h3v3h3zM11,277h3v-3h-3v-3h-3v3h-3v3h3v3h3zM32,279h3v-3h-3v-3h-3v3h-3v3h3v3h3zM52,281h3v-3h-3v-3h-3v3h-3v3h3v3h3zM72,283h3v-3h-3v-3h-3v3h-3v3h3v3h3zM92,285h3v-3h-3v-3h-3v3h-3v3h3v3h3zM113,286h3v-3h-3v-3h-3v3h-3v3h3v3h3zM133,287h3v-3h-3v-3h-3v3h-3v3h3v3h3zM153,289h3v-3h-3v-3h-3v3h-3v3h3v3h3zM173,290h3v-3h-3v-3h-3v3h-3v3h3v3h3zM194,292h3v-3h-3v-3h-3v3h-3v3h3v3h3zM245,294h3v-3h-3v-3h-3v3h-3v3h3v3h3zM326,298h3v-3h-3v-3h-3v3h-3v3h3v3h3zM407,303h3v-3h-3v-3h-3v3h-3v3h3v3h3zM528,301h3v-3h-3v-3h-3v3h-3v3h3v3h3z" style="stroke: rgb(255, 0, 0); fill: rgb(255, 0, 0);"></path></g><g><path d="M-122,258h122M-61,258v0M0,262h20M10,262v0M20,263h22M31,263v0M41,264h20M51,264v0M61,265h20M71,264v1M81,266h20M91,266v1M101,267h22M112,266v1M122,267h20M132,267v1M142,269h20M152,268v1M162,268h20M172,267v2M182,269h22M193,268v2M203,270h82M244,269v2M284,270h82M325,269v3M365,272h82M406,270v5M446,276h162M527,272v7" style="stroke: rgb(255, 0, 51); stroke-width: 1;"></path><path d="M-122,258h122v0h-122zM0,262h20v0h-20zM20,263h22v0h-22zM41,264h20v0h-20zM61,264h20v1h-20zM81,266h20v1h-20zM101,266h22v1h-22zM122,267h20v1h-20zM142,268h20v1h-20zM162,267h20v2h-20zM182,268h22v2h-22zM203,269h82v2h-82zM284,269h82v3h-82zM365,270h82v5h-82zM446,272h162v7h-162z" style="fill: none; pointer-events: visiblefill;"></path><path d="M-60,259h3v-3h-3v-3h-3v3h-3v3h3v3h3zM11,263h3v-3h-3v-3h-3v3h-3v3h3v3h3zM32,264h3v-3h-3v-3h-3v3h-3v3h3v3h3zM52,265h3v-3h-3v-3h-3v3h-3v3h3v3h3zM72,266h3v-3h-3v-3h-3v3h-3v3h3v3h3zM92,267h3v-3h-3v-3h-3v3h-3v3h3v3h3zM113,268h3v-3h-3v-3h-3v3h-3v3h3v3h3zM133,268h3v-3h-3v-3h-3v3h-3v3h3v3h3zM153,270h3v-3h-3v-3h-3v3h-3v3h3v3h3zM173,269h3v-3h-3v-3h-3v3h-3v3h3v3h3zM194,270h3v-3h-3v-3h-3v3h-3v3h3v3h3zM245,271h3v-3h-3v-3h-3v3h-3v3h3v3h3zM326,271h3v-3h-3v-3h-3v3h-3v3h3v3h3zM407,273h3v-3h-3v-3h-3v3h-3v3h3v3h3zM528,277h3v-3h-3v-3h-3v3h-3v3h3v3h3z" style="stroke: rgb(255, 0, 51); fill: none;"></path></g><g><path d="M-122,247h122M-61,247v0M0,244h20M10,244v0M20,243h22M31,243v1M41,243h20M51,243v0M61,243h20M71,242v1M81,241h20M91,241v1M101,242h22M112,241v2M122,242h20M132,241v1M142,241h20M152,240v2M162,241h20M172,240v2M182,240h22M193,239v3M203,239h82M244,238v2M284,236h82M325,234v4M365,241h82M406,238v6M446,240h162M527,236v8" style="stroke: rgb(255, 0, 255); stroke-width: 1;"></path><path d="M-122,247h122v0h-122zM0,244h20v0h-20zM20,243h22v1h-22zM41,243h20v0h-20zM61,242h20v1h-20zM81,241h20v1h-20zM101,241h22v2h-22zM122,241h20v1h-20zM142,240h20v2h-20zM162,240h20v2h-20zM182,239h22v3h-22zM203,238h82v2h-82zM284,234h82v4h-82zM365,238h82v6h-82zM446,236h162v8h-162z" style="fill: none; pointer-events: visiblefill;"></path><path d="M-63,243l2,2l2,-2l2,2l-2,2l2,2l-2,2l-2,-2l-2,2l-2,-2l2,-2l-2,-2zM8,240l2,2l2,-2l2,2l-2,2l2,2l-2,2l-2,-2l-2,2l-2,-2l2,-2l-2,-2zM29,239l2,2l2,-2l2,2l-2,2l2,2l-2,2l-2,-2l-2,2l-2,-2l2,-2l-2,-2zM49,239l2,2l2,-2l2,2l-2,2l2,2l-2,2l-2,-2l-2,2l-2,-2l2,-2l-2,-2zM69,239l2,2l2,-2l2,2l-2,2l2,2l-2,2l-2,-2l-2,2l-2,-2l2,-2l-2,-2zM89,237l2,2l2,-2l2,2l-2,2l2,2l-2,2l-2,-2l-2,2l-2,-2l2,-2l-2,-2zM110,238l2,2l2,-2l2,2l-2,2l2,2l-2,2l-2,-2l-2,2l-2,-2l2,-2l-2,-2zM130,238l2,2l2,-2l2,2l-2,2l2,2l-2,2l-2,-2l-2,2l-2,-2l2,-2l-2,-2zM150,237l2,2l2,-2l2,2l-2,2l2,2l-2,2l-2,-2l-2,2l-2,-2l2,-2l-2,-2zM170,237l2,2l2,-2l2,2l-2,2l2,2l-2,2l-2,-2l-2,2l-2,-2l2,-2l-2,-2zM191,236l2,2l2,-2l2,2l-2,2l2,2l-2,2l-2,-2l-2,2l-2,-2l2,-2l-2,-2zM242,235l2,2l2,-2l2,2l-2,2l2,2l-2,2l-2,-2l-2,2l-2,-2l2,-2l-2,-2zM323,232l2,2l2,-2l2,2l-2,2l2,2l-2,2l-2,-2l-2,2l-2,-2l2,-2l-2,-2zM404,237l2,2l2,-2l2,2l-2,2l2,2l-2,2l-2,-2l-2,2l-2,-2l2,-2l-2,-2zM525,236l2,2l2,-2l2,2l-2,2l2,2l-2,2l-2,-2l-2,2l-2,-2l2,-2l-2,-2z" style="stroke: rgb(255, 0, 255); fill: rgb(255, 0, 255);"></path></g><g><path d="M-122,237h122M-61,237v0M0,224h20M10,223v1M20,221h22M31,221v0M41,219h20M51,218v1M61,216h20M71,215v1M81,214h20M91,214v1M101,212h22M112,211v1M122,209h20M132,209v1M142,207h20M152,206v2M162,208h20M172,206v3M182,203h22M193,201v4M203,203h82M244,201v3M284,201h82M325,199v4M365,190h82M406,186v8M446,182h162M527,177v11" style="stroke: rgb(204, 0, 255); stroke-width: 1;"></path><path d="M-122,237h122v0h-122zM0,223h20v1h-20zM20,221h22v0h-22zM41,218h20v1h-20zM61,215h20v1h-20zM81,214h20v1h-20zM101,211h22v1h-22zM122,209h20v1h-20zM142,206h20v2h-20zM162,206h20v3h-20zM182,201h22v4h-22zM203,201h82v3h-82zM284,199h82v4h-82zM365,186h82v8h-82zM446,177h162v11h-162z" style="fill: none; pointer-events: visiblefill;"></path><path d="M-60,238h3v-3h-3v-3h-3v3h-3v3h3v3h3zM11,225h3v-3h-3v-3h-3v3h-3v3h3v3h3zM32,222h3v-3h-3v-3h-3v3h-3v3h3v3h3zM52,220h3v-3h-3v-3h-3v3h-3v3h3v3h3zM72,217h3v-3h-3v-3h-3v3h-3v3h3v3h3zM92,215h3v-3h-3v-3h-3v3h-3v3h3v3h3zM113,213h3v-3h-3v-3h-3v3h-3v3h3v3h3zM133,210h3v-3h-3v-3h-3v3h-3v3h3v3h3zM153,208h3v-3h-3v-3h-3v3h-3v3h3v3h3zM173,209h3v-3h-3v-3h-3v3h-3v3h3v3h3zM194,204h3v-3h-3v-3h-3v3h-3v3h3v3h3zM245,204h3v-3h-3v-3h-3v3h-3v3h3v3h3zM326,202h3v-3h-3v-3h-3v3h-3v3h3v3h3zM407,191h3v-3h-3v-3h-3v3h-3v3h3v3h3zM528,183h3v-3h-3v-3h-3v3h-3v3h3v3h3z" style="stroke: rgb(204, 0, 255); fill: none;"></path></g></svg><g><g transform="translate(0,426)"><path d="M0,0h608M0,-426h608M0,-8V0M20,-8V0M41,-15V0M61,-8V0M81,-8V0M101,-8V0M122,-15V0M142,-8V0M162,-8V0M182,-8V0M203,-15V0M223,-8V0M243,-8V0M263,-8V0M284,-15V0M304,-8V0M324,-8V0M345,-8V0M365,-15V0M385,-8V0M405,-8V0M426,-8V0M446,-15V0M466,-8V0M486,-8V0M507,-8V0M527,-15V0M547,-8V0M567,-8V0M588,-8V0M608,-15V0M0,-418V-426M20,-418V-426M41,-411V-426M61,-418V-426M81,-418V-426M101,-418V-426M122,-411V-426M142,-418V-426M162,-418V-426M182,-418V-426M203,-411V-426M223,-418V-426M243,-418V-426M263,-418V-426M284,-411V-426M304,-418V-426M324,-418V-426M345,-418V-426M365,-411V-426M385,-418V-426M405,-418V-426M426,-418V-426M446,-411V-426M466,-418V-426M486,-418V-426M507,-418V-426M527,-411V-426M547,-418V-426M567,-418V-426M588,-418V-426M608,-411V-426" style="stroke: rgb(0, 0, 0); stroke-width: 1;"></path><g font-family="Arial" font-size="18" xml:space="preserve" fill="#000000" text-anchor="middle"><text dy=".8em" transform="translate(41,3)">6</text><text dy=".8em" transform="translate(122,3)">8</text><text dy=".8em" transform="translate(203,3)">10</text><text dy=".8em" transform="translate(284,3)">12</text><text dy=".8em" transform="translate(365,3)">14</text><text dy=".8em" transform="translate(446,3)">16</text><text dy=".8em" transform="translate(527,3)">18</text><text dy=".8em" transform="translate(608,3)">20</text></g><rect x="0" y="0" width="608" height="21" style="opacity: 0; cursor: crosshair;"></rect><g font-family="Arial" font-size="18" xml:space="preserve" transform="translate(608,29)" style="cursor: move;"><g transform="translate(-79,5)"><text fill="#000000" font-size="18">p</text><text fill="#000000" font-size="11" transform="translate(11,4)">T</text><text fill="#000000" font-size="18" x="17">(GeV/c)</text></g></g></g><g><path d="M0,0v426M608,0v426M24,426H0M12,409H0M12,392H0M12,375H0M12,358H0M24,341H0M12,324H0M12,307H0M12,290H0M12,273H0M24,256H0M12,239H0M12,222H0M12,204H0M12,187H0M24,170H0M12,153H0M12,136H0M12,119H0M12,102H0M24,85H0M12,68H0M12,51H0M12,34H0M12,17H0M24,0H0M584,426H608M596,409H608M596,392H608M596,375H608M596,358H608M584,341H608M596,324H608M596,307H608M596,290H608M596,273H608M584,256H608M596,239H608M596,222H608M596,204H608M596,187H608M584,170H608M596,153H608M596,136H608M596,119H608M596,102H608M584,85H608M596,68H608M596,51H608M596,34H608M596,17H608M584,0H608" style="stroke: rgb(0, 0, 0); stroke-width: 1;"></path><g font-family="Arial" font-size="18" xml:space="preserve" fill="#000000" text-anchor="end"><text dominant-baseline="middle" transform="translate(-4,426)">0</text><text dominant-baseline="middle" transform="translate(-4,341)">0.5</text><text dominant-baseline="middle" transform="translate(-4,256)">1</text><text dominant-baseline="middle" transform="translate(-4,170)">1.5</text><text dominant-baseline="middle" transform="translate(-4,85)">2</text><text dominant-baseline="middle" transform="translate(-4)">2.5</text></g><rect x="-28" y="0" width="28" height="426" style="opacity: 0; cursor: crosshair;"></rect><g font-family="Arial" font-size="18" xml:space="preserve" transform="translate(-45)" style="cursor: move;"><g transform="rotate(270) translate(-386,7)"><text fill="#000000" font-size="18">(</text><g transform="translate(6)"><text fill="#000000" font-size="18" transform="translate(26,-10)">1</text><path d="M0,-6h60" style="stroke: rgb(0, 0, 0); stroke-width: 1; fill: none;"></path><g transform="translate(0,10)"><text fill="#000000" font-size="18">&lt; N</text><text fill="#000000" font-size="11" transform="translate(29,4)">coll</text><text fill="#000000" font-size="18" x="52">&gt;</text></g></g><g transform="translate(75)"><text fill="#000000" font-size="18" transform="translate(15,-10)">1</text><path d="M0,-6h38" style="stroke: rgb(0, 0, 0); stroke-width: 1; fill: none;"></path><g transform="translate(0,10)"><text fill="#000000" font-size="18">N</text><text fill="#000000" font-size="11" transform="translate(14,4)">event</text></g></g><g transform="translate(122)"><g transform="translate(0,-10)"><text fill="#000000" font-size="18">dN</text><g transform="translate(24,-8)"><text fill="#000000" font-size="11">π</text><text fill="#000000" font-size="6" transform="translate(7,-6)">0</text></g></g><path d="M0,-6h32" style="stroke: rgb(0, 0, 0); stroke-width: 1; fill: none;"></path><g transform="translate(4,10)"><text fill="#000000" font-size="18">dp</text><text fill="#000000" font-size="11" transform="translate(21,4)">T</text></g></g><text fill="#000000" font-size="18" x="156">)</text><text fill="#000000" font-size="11" transform="translate(163,4)">cent</text><text fill="#000000" font-size="18" x="190">/ (</text><g transform="translate(206)"><text fill="#000000" font-size="18" transform="translate(26,-10)">1</text><path d="M0,-6h60" style="stroke: rgb(0, 0, 0); stroke-width: 1; fill: none;"></path><g transform="translate(0,10)"><text fill="#000000" font-size="18">&lt; N</text><text fill="#000000" font-size="11" transform="translate(29,4)">coll</text><text fill="#000000" font-size="18" x="52">&gt;</text></g></g><g transform="translate(275)"><text fill="#000000" font-size="18" transform="translate(15,-10)">1</text><path d="M0,-6h38" style="stroke: rgb(0, 0, 0); stroke-width: 1; fill: none;"></path><g transform="translate(0,10)"><text fill="#000000" font-size="18">N</text><text fill="#000000" font-size="11" transform="translate(14,4)">event</text></g></g><g transform="translate(322)"><g transform="translate(0,-10)"><text fill="#000000" font-size="18">dN</text><g transform="translate(24,-8)"><text fill="#000000" font-size="11">π</text><text fill="#000000" font-size="6" transform="translate(7,-6)">0</text></g></g><path d="M0,-6h32" style="stroke: rgb(0, 0, 0); stroke-width: 1; fill: none;"></path><g transform="translate(4,10)"><text fill="#000000" font-size="18">dp</text><text fill="#000000" font-size="11" transform="translate(21,4)">T</text></g></g><text fill="#000000" font-size="18" x="356">)</text><text fill="#000000" font-size="11" transform="translate(363,4)">MB</text></g></g></g></g><path d="M2,2h15v-5h-20v20h5Z" style="opacity: 0; cursor: nw-resize;"></path><path d="M606,2h-15v-5h20v20h-5 Z" style="opacity: 0; cursor: ne-resize;"></path><path d="M2,424h15v5h-20v-20h5Z" style="opacity: 0; cursor: sw-resize;"></path><path d="M606,424h-15v5h20v-20h-5Z" style="opacity: 0; cursor: se-resize;"></path><path d="M-3,18h5v390h-5Z" style="opacity: 0; cursor: w-resize;"></path><path d="M611,18h-5v390h5Z" style="opacity: 0; cursor: e-resize;"></path><path d="M18,-3v5h572v-5Z" style="opacity: 0; cursor: n-resize;"></path><path d="M18,429v-5h572v5Z" style="opacity: 0; cursor: s-resize;"></path></g><g transform="translate(112,51)" font-family="Arial" font-size="19" xml:space="preserve" style="cursor: move;"><path d="M0,0H336V154H0Z" style="fill: none; pointer-events: visiblefill;"></path><text fill="#000000" text-anchor="start" dominant-baseline="middle" transform="translate(10,15)">PYTHIA8, pAu200GeV with option3</text><g transform="translate(10,44)"><text fill="#000000" font-size="19">π</text><text fill="#000000" font-size="11" transform="translate(14,-11)">0</text><text fill="#000000" font-size="19" x="28">in |η|&lt;1</text></g><path d="M43,57h3v-3h-3v-3h-3v3h-3v3h3v3h3z" style="stroke: rgb(255, 204, 0); fill: rgb(255, 204, 0);"></path><text fill="#000000" text-anchor="start" dominant-baseline="middle" transform="translate(84,56)">centrality: 0~10%</text><path d="M43,78h3v-3h-3v-3h-3v3h-3v3h3v3h3z" style="stroke: rgb(255, 0, 0); fill: rgb(255, 0, 0);"></path><text fill="#000000" text-anchor="start" dominant-baseline="middle" transform="translate(84,77)">centrality: 10~20%</text><path d="M43,99h3v-3h-3v-3h-3v3h-3v3h3v3h3z" style="stroke: rgb(255, 0, 51); fill: none;"></path><text fill="#000000" text-anchor="start" dominant-baseline="middle" transform="translate(84,97)">centrality: 20~40%</text><path d="M40,114l2,2l2,-2l2,2l-2,2l2,2l-2,2l-2,-2l-2,2l-2,-2l2,-2l-2,-2z" style="stroke: rgb(255, 0, 255); fill: rgb(255, 0, 255);"></path><text fill="#000000" text-anchor="start" dominant-baseline="middle" transform="translate(84,118)">centrality: 40~60%</text><path d="M43,140h3v-3h-3v-3h-3v3h-3v3h3v3h3z" style="stroke: rgb(204, 0, 255); fill: none;"></path><text fill="#000000" text-anchor="start" dominant-baseline="middle" transform="translate(84,138)">centrality: 60~80%</text><path d="M2,2h15v-5h-20v20h5Z" style="opacity: 0; cursor: nw-resize;"></path><path d="M334,2h-15v-5h20v20h-5 Z" style="opacity: 0; cursor: ne-resize;"></path><path d="M2,152h15v5h-20v-20h5Z" style="opacity: 0; cursor: sw-resize;"></path><path d="M334,152h-15v5h20v-20h-5Z" style="opacity: 0; cursor: se-resize;"></path><path d="M-3,18h5v118h-5Z" style="opacity: 0; cursor: w-resize;"></path><path d="M339,18h-5v118h5Z" style="opacity: 0; cursor: e-resize;"></path><path d="M18,-3v5h300v-5Z" style="opacity: 0; cursor: n-resize;"></path><path d="M18,157v-5h300v5Z" style="opacity: 0; cursor: s-resize;"></path></g></g></svg>