<?xml version="1.0" standalone="no"?>
<svg width="567.429" height="312.341" viewBox="0 0 567.429 312.341" xmlns="http://www.w3.org/2000/svg" shape-rendering="crispEdges">
<title>
/Users/jinhyunpark/npl/gitHub/git_share/Centrality_dependent_BiasCorrection/plots/plots_scaled-dNdpT/ratio_scaledYield_directPhoton_cent2mb.svg
</title>
<desc>
Creator: ROOT Version 6.28/04
CreationDate: Tue Sep 26 01:04:32 2023</desc>
<defs>
</defs>
<rect x="0.5" y="0" width="566.929" height="311.841" fill="white"/>
<rect x="85.5394" y="15.592" width="396.85" height="258.828" fill="white"/>
<rect x="85.5394" y="15.592" width="396.85" height="258.828" fill="none" stroke="black"/>
<rect x="85.5394" y="15.592" width="396.85" height="258.828" fill="white"/>
<rect x="85.5394" y="15.592" width="396.85" height="258.828" fill="none" stroke="black"/>
<path d="M85.5394,274.42h 396.85" fill="none" stroke="black"/>
<path d="M85.5394,267.871v 6.54865" fill="none" stroke="black"/>
<path d="M95.4606,271.145v 3.27433" fill="none" stroke="black"/>
<path d="M105.382,271.145v 3.27433" fill="none" stroke="black"/>
<path d="M115.303,271.145v 3.27433" fill="none" stroke="black"/>
<path d="M125.224,267.871v 6.54865" fill="none" stroke="black"/>
<path d="M135.146,271.145v 3.27433" fill="none" stroke="black"/>
<path d="M145.067,271.145v 3.27433" fill="none" stroke="black"/>
<path d="M154.988,271.145v 3.27433" fill="none" stroke="black"/>
<path d="M164.909,267.871v 6.54865" fill="none" stroke="black"/>
<path d="M174.831,271.145v 3.27433" fill="none" stroke="black"/>
<path d="M184.752,271.145v 3.27433" fill="none" stroke="black"/>
<path d="M194.673,271.145v 3.27433" fill="none" stroke="black"/>
<path d="M204.594,267.871v 6.54865" fill="none" stroke="black"/>
<path d="M214.516,271.145v 3.27433" fill="none" stroke="black"/>
<path d="M224.437,271.145v 3.27433" fill="none" stroke="black"/>
<path d="M234.358,271.145v 3.27433" fill="none" stroke="black"/>
<path d="M244.28,267.871v 6.54865" fill="none" stroke="black"/>
<path d="M254.201,271.145v 3.27433" fill="none" stroke="black"/>
<path d="M264.122,271.145v 3.27433" fill="none" stroke="black"/>
<path d="M274.043,271.145v 3.27433" fill="none" stroke="black"/>
<path d="M283.965,267.871v 6.54865" fill="none" stroke="black"/>
<path d="M293.886,271.145v 3.27433" fill="none" stroke="black"/>
<path d="M303.807,271.145v 3.27433" fill="none" stroke="black"/>
<path d="M313.728,271.145v 3.27433" fill="none" stroke="black"/>
<path d="M323.65,267.871v 6.54865" fill="none" stroke="black"/>
<path d="M333.571,271.145v 3.27433" fill="none" stroke="black"/>
<path d="M343.492,271.145v 3.27433" fill="none" stroke="black"/>
<path d="M353.413,271.145v 3.27433" fill="none" stroke="black"/>
<path d="M363.335,267.871v 6.54865" fill="none" stroke="black"/>
<path d="M373.256,271.145v 3.27433" fill="none" stroke="black"/>
<path d="M383.177,271.145v 3.27433" fill="none" stroke="black"/>
<path d="M393.098,271.145v 3.27433" fill="none" stroke="black"/>
<path d="M403.02,267.871v 6.54865" fill="none" stroke="black"/>
<path d="M412.941,271.145v 3.27433" fill="none" stroke="black"/>
<path d="M422.862,271.145v 3.27433" fill="none" stroke="black"/>
<path d="M432.783,271.145v 3.27433" fill="none" stroke="black"/>
<path d="M442.705,267.871v 6.54865" fill="none" stroke="black"/>
<path d="M452.626,271.145v 3.27433" fill="none" stroke="black"/>
<path d="M462.547,271.145v 3.27433" fill="none" stroke="black"/>
<path d="M472.469,271.145v 3.27433" fill="none" stroke="black"/>
<path d="M482.39,267.871v 6.54865" fill="none" stroke="black"/>
<text xml:space="preserve" x="82.6722" y="284.647" fill="black" font-size="10.5132" font-family="Helvetica">0</text>
<text xml:space="preserve" x="122.28" y="284.647" fill="black" font-size="10.5132" font-family="Helvetica">2</text>
<text xml:space="preserve" x="162.184" y="284.647" fill="black" font-size="10.5132" font-family="Helvetica">4</text>
<text xml:space="preserve" x="201.792" y="284.647" fill="black" font-size="10.5132" font-family="Helvetica">6</text>
<text xml:space="preserve" x="241.401" y="284.647" fill="black" font-size="10.5132" font-family="Helvetica">8</text>
<text xml:space="preserve" x="278.348" y="284.647" fill="black" font-size="10.5132" font-family="Helvetica">10</text>
<text xml:space="preserve" x="317.957" y="284.647" fill="black" font-size="10.5132" font-family="Helvetica">12</text>
<text xml:space="preserve" x="357.565" y="284.647" fill="black" font-size="10.5132" font-family="Helvetica">14</text>
<text xml:space="preserve" x="397.173" y="284.647" fill="black" font-size="10.5132" font-family="Helvetica">16</text>
<text xml:space="preserve" x="437.077" y="284.647" fill="black" font-size="10.5132" font-family="Helvetica">18</text>
<text xml:space="preserve" x="476.685" y="284.647" fill="black" font-size="10.5132" font-family="Helvetica">20</text>
<text xml:space="preserve" x="448.309" y="292.923" fill="black" font-size="10.5132" font-family="Helvetica">(GeV/c)</text>
<text xml:space="preserve" x="444.171" y="298.539" fill="black" font-size="7.17549" font-family="Helvetica">T</text>
<text xml:space="preserve" x="438.85" y="292.923" fill="black" font-size="10.5132" font-family="Helvetica">p</text>
<path d="M85.5394,15.592h 396.85" fill="none" stroke="black"/>
<path d="M85.5394,22.1407v -6.54865" fill="none" stroke="black"/>
<path d="M95.4606,18.8664v -3.27433" fill="none" stroke="black"/>
<path d="M105.382,18.8664v -3.27433" fill="none" stroke="black"/>
<path d="M115.303,18.8664v -3.27433" fill="none" stroke="black"/>
<path d="M125.224,22.1407v -6.54865" fill="none" stroke="black"/>
<path d="M135.146,18.8664v -3.27433" fill="none" stroke="black"/>
<path d="M145.067,18.8664v -3.27433" fill="none" stroke="black"/>
<path d="M154.988,18.8664v -3.27433" fill="none" stroke="black"/>
<path d="M164.909,22.1407v -6.54865" fill="none" stroke="black"/>
<path d="M174.831,18.8664v -3.27433" fill="none" stroke="black"/>
<path d="M184.752,18.8664v -3.27433" fill="none" stroke="black"/>
<path d="M194.673,18.8664v -3.27433" fill="none" stroke="black"/>
<path d="M204.594,22.1407v -6.54865" fill="none" stroke="black"/>
<path d="M214.516,18.8664v -3.27433" fill="none" stroke="black"/>
<path d="M224.437,18.8664v -3.27433" fill="none" stroke="black"/>
<path d="M234.358,18.8664v -3.27433" fill="none" stroke="black"/>
<path d="M244.28,22.1407v -6.54865" fill="none" stroke="black"/>
<path d="M254.201,18.8664v -3.27433" fill="none" stroke="black"/>
<path d="M264.122,18.8664v -3.27433" fill="none" stroke="black"/>
<path d="M274.043,18.8664v -3.27433" fill="none" stroke="black"/>
<path d="M283.965,22.1407v -6.54865" fill="none" stroke="black"/>
<path d="M293.886,18.8664v -3.27433" fill="none" stroke="black"/>
<path d="M303.807,18.8664v -3.27433" fill="none" stroke="black"/>
<path d="M313.728,18.8664v -3.27433" fill="none" stroke="black"/>
<path d="M323.65,22.1407v -6.54865" fill="none" stroke="black"/>
<path d="M333.571,18.8664v -3.27433" fill="none" stroke="black"/>
<path d="M343.492,18.8664v -3.27433" fill="none" stroke="black"/>
<path d="M353.413,18.8664v -3.27433" fill="none" stroke="black"/>
<path d="M363.335,22.1407v -6.54865" fill="none" stroke="black"/>
<path d="M373.256,18.8664v -3.27433" fill="none" stroke="black"/>
<path d="M383.177,18.8664v -3.27433" fill="none" stroke="black"/>
<path d="M393.098,18.8664v -3.27433" fill="none" stroke="black"/>
<path d="M403.02,22.1407v -6.54865" fill="none" stroke="black"/>
<path d="M412.941,18.8664v -3.27433" fill="none" stroke="black"/>
<path d="M422.862,18.8664v -3.27433" fill="none" stroke="black"/>
<path d="M432.783,18.8664v -3.27433" fill="none" stroke="black"/>
<path d="M442.705,22.1407v -6.54865" fill="none" stroke="black"/>
<path d="M452.626,18.8664v -3.27433" fill="none" stroke="black"/>
<path d="M462.547,18.8664v -3.27433" fill="none" stroke="black"/>
<path d="M472.469,18.8664v -3.27433" fill="none" stroke="black"/>
<path d="M482.39,22.1407v -6.54865" fill="none" stroke="black"/>
<path d="M85.5394,274.42v -258.828" fill="none" stroke="black"/>
<path d="M99.6559,274.42h -14.1165" fill="none" stroke="black"/>
<path d="M92.5976,264.067h -7.05827" fill="none" stroke="black"/>
<path d="M92.5976,253.713h -7.05827" fill="none" stroke="black"/>
<path d="M92.5976,243.36h -7.05827" fill="none" stroke="black"/>
<path d="M92.5976,233.007h -7.05827" fill="none" stroke="black"/>
<path d="M99.6559,222.654h -14.1165" fill="none" stroke="black"/>
<path d="M92.5976,212.301h -7.05827" fill="none" stroke="black"/>
<path d="M92.5976,201.948h -7.05827" fill="none" stroke="black"/>
<path d="M92.5976,191.595h -7.05827" fill="none" stroke="black"/>
<path d="M92.5976,181.242h -7.05827" fill="none" stroke="black"/>
<path d="M99.6559,170.889h -14.1165" fill="none" stroke="black"/>
<path d="M92.5976,160.536h -7.05827" fill="none" stroke="black"/>
<path d="M92.5976,150.182h -7.05827" fill="none" stroke="black"/>
<path d="M92.5976,139.829h -7.05827" fill="none" stroke="black"/>
<path d="M92.5976,129.476h -7.05827" fill="none" stroke="black"/>
<path d="M99.6559,119.123h -14.1165" fill="none" stroke="black"/>
<path d="M92.5976,108.77h -7.05827" fill="none" stroke="black"/>
<path d="M92.5976,98.4169h -7.05827" fill="none" stroke="black"/>
<path d="M92.5976,88.0638h -7.05827" fill="none" stroke="black"/>
<path d="M92.5976,77.7107h -7.05827" fill="none" stroke="black"/>
<path d="M99.6559,67.3576h -14.1165" fill="none" stroke="black"/>
<path d="M92.5976,57.0045h -7.05827" fill="none" stroke="black"/>
<path d="M92.5976,46.6513h -7.05827" fill="none" stroke="black"/>
<path d="M92.5976,36.2982h -7.05827" fill="none" stroke="black"/>
<path d="M92.5976,25.9451h -7.05827" fill="none" stroke="black"/>
<path d="M99.6559,15.592h -14.1165" fill="none" stroke="black"/>
<text xml:space="preserve" x="77.3517" y="278.144" fill="black" font-size="10.5132" font-family="Helvetica">0</text>
<text xml:space="preserve" x="69.0754" y="226.417" fill="black" font-size="10.5132" font-family="Helvetica">0.5</text>
<text xml:space="preserve" x="79.1252" y="174.69" fill="black" font-size="10.5132" font-family="Helvetica">1</text>
<text xml:space="preserve" x="69.0754" y="122.963" fill="black" font-size="10.5132" font-family="Helvetica">1.5</text>
<text xml:space="preserve" x="77.3517" y="70.94" fill="black" font-size="10.5132" font-family="Helvetica">2</text>
<text xml:space="preserve" x="69.0754" y="19.2129" fill="black" font-size="10.5132" font-family="Helvetica">2.5</text>
<g transform="rotate(-90,53.1139,18.9173)">
<text xml:space="preserve" x="53.1139" y="18.9173" fill="black" font-size="10.5132" font-family="Helvetica"> </text>
</g>
<g transform="rotate(-90,58.4344,28.9672)">
<text xml:space="preserve" x="58.4344" y="28.9672" fill="black" font-size="7.17549" font-family="Helvetica">MB</text>
</g>
<g transform="rotate(-90,53.1139,31.6274)">
<text xml:space="preserve" x="53.1139" y="31.6274" fill="black" font-size="10.5132" font-family="Helvetica">)</text>
</g>
<g transform="rotate(-90,64.6416,38.4259)">
<text xml:space="preserve" x="64.6416" y="38.4259" fill="black" font-size="7.17549" font-family="Helvetica">T</text>
</g>
<g transform="rotate(-90,59.3211,49.3624)">
<text xml:space="preserve" x="59.3211" y="49.3624" fill="black" font-size="10.5132" font-family="Helvetica">dp</text>
</g>
<g transform="rotate(-90,40.1082,36.6524)">
<text xml:space="preserve" x="40.1082" y="36.6524" fill="black" font-size="4.95032" font-family="Helvetica">dir</text>
</g>
<g transform="rotate(-90,42.4729,40.1994)">
<text xml:space="preserve" x="42.4729" y="40.1994" fill="black" font-size="7.17549" font-family="Times">&#0947;</text>
</g>
<g transform="rotate(-90,48.6801,52.3183)">
<text xml:space="preserve" x="48.6801" y="52.3183" fill="black" font-size="10.5132" font-family="Helvetica">dN</text>
</g>
<path d="M50.4536,52.3183v -20.6908" fill="none" stroke="black" stroke-width="2"/>
<g transform="rotate(-90,53.1139,55.8653)">
<text xml:space="preserve" x="53.1139" y="55.8653" fill="black" font-size="10.5132" font-family="Helvetica"> </text>
</g>
<g transform="rotate(-90,61.9814,72.418)">
<text xml:space="preserve" x="61.9814" y="72.418" fill="black" font-size="7.17549" font-family="Helvetica">event</text>
</g>
<g transform="rotate(-90,59.3211,78.9208)">
<text xml:space="preserve" x="59.3211" y="78.9208" fill="black" font-size="10.5132" font-family="Helvetica">N</text>
</g>
<g transform="rotate(-90,48.9757,69.1665)">
<text xml:space="preserve" x="48.9757" y="69.1665" fill="black" font-size="10.5132" font-family="Helvetica">1</text>
</g>
<path d="M50.4536,78.9208v -23.0555" fill="none" stroke="black" stroke-width="2"/>
<g transform="rotate(-90,53.1139,82.4678)">
<text xml:space="preserve" x="53.1139" y="82.4678" fill="black" font-size="10.5132" font-family="Helvetica"> </text>
</g>
<g transform="rotate(-90,59.6167,85.7192)">
<text xml:space="preserve" x="59.6167" y="85.7192" fill="black" font-size="10.5132" font-family="Times">&#0062;</text>
</g>
<g transform="rotate(-90,64.346,95.4735)">
<text xml:space="preserve" x="64.346" y="95.4735" fill="black" font-size="7.17549" font-family="Helvetica">coll</text>
</g>
<g transform="rotate(-90,59.6167,101.976)">
<text xml:space="preserve" x="59.6167" y="101.976" fill="black" font-size="10.5132" font-family="Helvetica">N</text>
</g>
<g transform="rotate(-90,59.6167,105.228)">
<text xml:space="preserve" x="59.6167" y="105.228" fill="black" font-size="10.5132" font-family="Times">&#0060;</text>
</g>
<g transform="rotate(-90,48.9757,95.4735)">
<text xml:space="preserve" x="48.9757" y="95.4735" fill="black" font-size="10.5132" font-family="Helvetica">1</text>
</g>
<path d="M50.4536,105.228v -22.7599" fill="none" stroke="black" stroke-width="2"/>
<g transform="rotate(-90,53.1139,116.755)">
<text xml:space="preserve" x="53.1139" y="116.755" fill="black" font-size="10.5132" font-family="Helvetica"> / (</text>
</g>
<g transform="rotate(-90,58.4344,129.761)">
<text xml:space="preserve" x="58.4344" y="129.761" fill="black" font-size="7.17549" font-family="Helvetica">cent</text>
</g>
<g transform="rotate(-90,53.1139,132.421)">
<text xml:space="preserve" x="53.1139" y="132.421" fill="black" font-size="10.5132" font-family="Helvetica">)</text>
</g>
<g transform="rotate(-90,64.6416,139.22)">
<text xml:space="preserve" x="64.6416" y="139.22" fill="black" font-size="7.17549" font-family="Helvetica">T</text>
</g>
<g transform="rotate(-90,59.3211,150.156)">
<text xml:space="preserve" x="59.3211" y="150.156" fill="black" font-size="10.5132" font-family="Helvetica">dp</text>
</g>
<g transform="rotate(-90,40.1082,137.446)">
<text xml:space="preserve" x="40.1082" y="137.446" fill="black" font-size="4.95032" font-family="Helvetica">dir</text>
</g>
<g transform="rotate(-90,42.4729,140.993)">
<text xml:space="preserve" x="42.4729" y="140.993" fill="black" font-size="7.17549" font-family="Times">&#0947;</text>
</g>
<g transform="rotate(-90,48.6801,153.112)">
<text xml:space="preserve" x="48.6801" y="153.112" fill="black" font-size="10.5132" font-family="Helvetica">dN</text>
</g>
<path d="M50.4536,153.112v -20.6908" fill="none" stroke="black" stroke-width="2"/>
<g transform="rotate(-90,53.1139,156.659)">
<text xml:space="preserve" x="53.1139" y="156.659" fill="black" font-size="10.5132" font-family="Helvetica"> </text>
</g>
<g transform="rotate(-90,61.9814,173.212)">
<text xml:space="preserve" x="61.9814" y="173.212" fill="black" font-size="7.17549" font-family="Helvetica">event</text>
</g>
<g transform="rotate(-90,59.3211,179.715)">
<text xml:space="preserve" x="59.3211" y="179.715" fill="black" font-size="10.5132" font-family="Helvetica">N</text>
</g>
<g transform="rotate(-90,48.9757,169.96)">
<text xml:space="preserve" x="48.9757" y="169.96" fill="black" font-size="10.5132" font-family="Helvetica">1</text>
</g>
<path d="M50.4536,179.715v -23.0555" fill="none" stroke="black" stroke-width="2"/>
<g transform="rotate(-90,53.1139,183.262)">
<text xml:space="preserve" x="53.1139" y="183.262" fill="black" font-size="10.5132" font-family="Helvetica"> </text>
</g>
<g transform="rotate(-90,59.6167,186.513)">
<text xml:space="preserve" x="59.6167" y="186.513" fill="black" font-size="10.5132" font-family="Times">&#0062;</text>
</g>
<g transform="rotate(-90,64.346,196.267)">
<text xml:space="preserve" x="64.346" y="196.267" fill="black" font-size="7.17549" font-family="Helvetica">coll</text>
</g>
<g transform="rotate(-90,59.6167,202.77)">
<text xml:space="preserve" x="59.6167" y="202.77" fill="black" font-size="10.5132" font-family="Helvetica">N</text>
</g>
<g transform="rotate(-90,59.6167,206.022)">
<text xml:space="preserve" x="59.6167" y="206.022" fill="black" font-size="10.5132" font-family="Times">&#0060;</text>
</g>
<g transform="rotate(-90,48.9757,196.267)">
<text xml:space="preserve" x="48.9757" y="196.267" fill="black" font-size="10.5132" font-family="Helvetica">1</text>
</g>
<path d="M50.4536,206.022v -22.7599" fill="none" stroke="black" stroke-width="2"/>
<g transform="rotate(-90,53.1139,208.978)">
<text xml:space="preserve" x="53.1139" y="208.978" fill="black" font-size="10.5132" font-family="Helvetica">(</text>
</g>
<path d="M482.39,274.42v -258.828" fill="none" stroke="black"/>
<path d="M468.273,274.42h 14.1165" fill="none" stroke="black"/>
<path d="M475.332,264.067h 7.05827" fill="none" stroke="black"/>
<path d="M475.332,253.713h 7.05827" fill="none" stroke="black"/>
<path d="M475.332,243.36h 7.05827" fill="none" stroke="black"/>
<path d="M475.332,233.007h 7.05827" fill="none" stroke="black"/>
<path d="M468.273,222.654h 14.1165" fill="none" stroke="black"/>
<path d="M475.332,212.301h 7.05827" fill="none" stroke="black"/>
<path d="M475.332,201.948h 7.05827" fill="none" stroke="black"/>
<path d="M475.332,191.595h 7.05827" fill="none" stroke="black"/>
<path d="M475.332,181.242h 7.05827" fill="none" stroke="black"/>
<path d="M468.273,170.889h 14.1165" fill="none" stroke="black"/>
<path d="M475.332,160.536h 7.05827" fill="none" stroke="black"/>
<path d="M475.332,150.182h 7.05827" fill="none" stroke="black"/>
<path d="M475.332,139.829h 7.05827" fill="none" stroke="black"/>
<path d="M475.332,129.476h 7.05827" fill="none" stroke="black"/>
<path d="M468.273,119.123h 14.1165" fill="none" stroke="black"/>
<path d="M475.332,108.77h 7.05827" fill="none" stroke="black"/>
<path d="M475.332,98.4169h 7.05827" fill="none" stroke="black"/>
<path d="M475.332,88.0638h 7.05827" fill="none" stroke="black"/>
<path d="M475.332,77.7107h 7.05827" fill="none" stroke="black"/>
<path d="M468.273,67.3576h 14.1165" fill="none" stroke="black"/>
<path d="M475.332,57.0045h 7.05827" fill="none" stroke="black"/>
<path d="M475.332,46.6513h 7.05827" fill="none" stroke="black"/>
<path d="M475.332,36.2982h 7.05827" fill="none" stroke="black"/>
<path d="M475.332,25.9451h 7.05827" fill="none" stroke="black"/>
<path d="M468.273,15.592h 14.1165" fill="none" stroke="black"/>
<path d="M85.5394,187.358h 3.7783" fill="none" stroke="#00cc00"/>
<path d="M91.6823,187.358h 3.7783" fill="none" stroke="#00cc00"/>
<g fill="#00cc00">
<polygon points=" 90.1059, 186.964 90.1059, 186.176 90.8941, 186.176 90.8941, 186.964 91.6823, 186.964 91.6823, 187.752 90.8941, 187.752 90.8941, 188.54 90.1059, 188.54 90.1059, 187.752 89.3177, 187.752 89.3177, 186.964"/>
</g>
<path d="M95.4606,189.783h 3.7783" fill="none" stroke="#00cc00"/>
<path d="M101.604,189.783h 3.7783" fill="none" stroke="#00cc00"/>
<g fill="#00cc00">
<polygon points=" 100.027, 189.389 100.027, 188.601 100.815, 188.601 100.815, 189.389 101.604, 189.389 101.604, 190.177 100.815, 190.177 100.815, 190.966 100.027, 190.966 100.027, 190.177 99.2389, 190.177 99.2389, 189.389"/>
</g>
<path d="M105.382,188.747h 3.7783" fill="none" stroke="#00cc00"/>
<path d="M111.525,188.747h 3.7783" fill="none" stroke="#00cc00"/>
<g fill="#00cc00">
<polygon points=" 109.948, 188.353 109.948, 187.565 110.737, 187.565 110.737, 188.353 111.525, 188.353 111.525, 189.141 110.737, 189.141 110.737, 189.93 109.948, 189.93 109.948, 189.141 109.16, 189.141 109.16, 188.353"/>
</g>
<path d="M120.264,189.195v -0.363859" fill="none" stroke="#00cc00"/>
<path d="M120.264,186.466v -0.363859" fill="none" stroke="#00cc00"/>
<path d="M115.303,187.648h 3.7783" fill="none" stroke="#00cc00"/>
<path d="M121.446,187.648h 3.7783" fill="none" stroke="#00cc00"/>
<g fill="#00cc00">
<polygon points=" 119.87, 187.254 119.87, 186.466 120.658, 186.466 120.658, 187.254 121.446, 187.254 121.446, 188.042 120.658, 188.042 120.658, 188.831 119.87, 188.831 119.87, 188.042 119.081, 188.042 119.081, 187.254"/>
</g>
<path d="M135.146,190.742v -0.829371" fill="none" stroke="#00cc00"/>
<path d="M135.146,187.548v -0.829371" fill="none" stroke="#00cc00"/>
<path d="M125.224,188.73h 8.73893" fill="none" stroke="#00cc00"/>
<path d="M136.328,188.73h 8.73893" fill="none" stroke="#00cc00"/>
<g fill="#00cc00">
<polygon points=" 134.752, 188.336 134.752, 187.548 135.54, 187.548 135.54, 188.336 136.328, 188.336 136.328, 189.124 135.54, 189.124 135.54, 189.912 134.752, 189.912 134.752, 189.124 133.963, 189.124 133.963, 188.336"/>
</g>
<path d="M154.988,196.589v -2.77952" fill="none" stroke="#00cc00"/>
<path d="M154.988,191.445v -2.77952" fill="none" stroke="#00cc00"/>
<path d="M145.067,192.627h 8.73893" fill="none" stroke="#00cc00"/>
<path d="M156.171,192.627h 8.73893" fill="none" stroke="#00cc00"/>
<g fill="#00cc00">
<polygon points=" 154.594, 192.233 154.594, 191.445 155.382, 191.445 155.382, 192.233 156.171, 192.233 156.171, 193.021 155.382, 193.021 155.382, 193.809 154.594, 193.809 154.594, 193.021 153.806, 193.021 153.806, 192.233"/>
</g>
<path d="M174.831,201.511v -5.82215" fill="none" stroke="#00cc00"/>
<path d="M174.831,193.324v -5.82215" fill="none" stroke="#00cc00"/>
<path d="M164.909,194.506h 8.73893" fill="none" stroke="#00cc00"/>
<path d="M176.013,194.506h 8.73893" fill="none" stroke="#00cc00"/>
<g fill="#00cc00">
<polygon points=" 174.437, 194.112 174.437, 193.324 175.225, 193.324 175.225, 194.112 176.013, 194.112 176.013, 194.9 175.225, 194.9 175.225, 195.689 174.437, 195.689 174.437, 194.9 173.648, 194.9 173.648, 194.112"/>
</g>
<path d="M204.594,213.344v -7.88812" fill="none" stroke="#00cc00"/>
<path d="M204.594,203.092v -7.88812" fill="none" stroke="#00cc00"/>
<path d="M184.752,204.274h 18.6602" fill="none" stroke="#00cc00"/>
<path d="M205.777,204.274h 18.6602" fill="none" stroke="#00cc00"/>
<g fill="#00cc00">
<polygon points=" 204.2, 203.88 204.2, 203.092 204.989, 203.092 204.989, 203.88 205.777, 203.88 205.777, 204.668 204.989, 204.668 204.989, 205.456 204.2, 205.456 204.2, 204.668 203.412, 204.668 203.412, 203.88"/>
</g>
<path d="M254.201,235.959v -13.717" fill="none" stroke="#00cc00"/>
<path d="M254.201,219.877v -13.717" fill="none" stroke="#00cc00"/>
<path d="M224.437,221.059h 28.5814" fill="none" stroke="#00cc00"/>
<path d="M255.383,221.059h 28.5814" fill="none" stroke="#00cc00"/>
<g fill="#00cc00">
<polygon points=" 253.807, 220.665 253.807, 219.877 254.595, 219.877 254.595, 220.665 255.383, 220.665 255.383, 221.453 254.595, 221.453 254.595, 222.242 253.807, 222.242 253.807, 221.453 253.018, 221.453 253.018, 220.665"/>
</g>
<path d="M333.571,226.024v -56.4498" fill="none" stroke="#00cc00"/>
<path d="M333.571,167.21v -56.4498" fill="none" stroke="#00cc00"/>
<path d="M283.965,168.392h 48.424" fill="none" stroke="#00cc00"/>
<path d="M334.753,168.392h 48.424" fill="none" stroke="#00cc00"/>
<g fill="#00cc00">
<polygon points=" 333.177, 167.998 333.177, 167.21 333.965, 167.21 333.965, 167.998 334.753, 167.998 334.753, 168.786 333.965, 168.786 333.965, 169.574 333.177, 169.574 333.177, 168.786 332.389, 168.786 332.389, 167.998"/>
</g>
<path d="M85.5394,181.213h 3.7783" fill="none" stroke="#33ff99"/>
<path d="M91.6823,181.213h 3.7783" fill="none" stroke="#33ff99"/>
<g fill="#33ff99">
<polygon points=" 90.1059, 180.819 90.1059, 180.031 90.8941, 180.031 90.8941, 180.819 91.6823, 180.819 91.6823, 181.608 90.8941, 181.608 90.8941, 182.396 90.1059, 182.396 90.1059, 181.608 89.3177, 181.608 89.3177, 180.819"/>
</g>
<path d="M95.4606,182.176h 3.7783" fill="none" stroke="#33ff99"/>
<path d="M101.604,182.176h 3.7783" fill="none" stroke="#33ff99"/>
<g fill="#33ff99">
<polygon points=" 100.027, 181.782 100.027, 180.994 100.815, 180.994 100.815, 181.782 101.604, 181.782 101.604, 182.57 100.815, 182.57 100.815, 183.358 100.027, 183.358 100.027, 182.57 99.2389, 182.57 99.2389, 181.782"/>
</g>
<path d="M105.382,183.007h 3.7783" fill="none" stroke="#33ff99"/>
<path d="M111.525,183.007h 3.7783" fill="none" stroke="#33ff99"/>
<g fill="#33ff99">
<polygon points=" 109.948, 182.613 109.948, 181.824 110.737, 181.824 110.737, 182.613 111.525, 182.613 111.525, 183.401 110.737, 183.401 110.737, 184.189 109.948, 184.189 109.948, 183.401 109.16, 183.401 109.16, 182.613"/>
</g>
<path d="M120.264,183.661v -0.537184" fill="none" stroke="#33ff99"/>
<path d="M120.264,180.759v -0.537184" fill="none" stroke="#33ff99"/>
<path d="M115.303,181.941h 3.7783" fill="none" stroke="#33ff99"/>
<path d="M121.446,181.941h 3.7783" fill="none" stroke="#33ff99"/>
<g fill="#33ff99">
<polygon points=" 119.87, 181.547 119.87, 180.759 120.658, 180.759 120.658, 181.547 121.446, 181.547 121.446, 182.335 120.658, 182.335 120.658, 183.124 119.87, 183.124 119.87, 182.335 119.081, 182.335 119.081, 181.547"/>
</g>
<path d="M135.146,185.203v -1.0568" fill="none" stroke="#33ff99"/>
<path d="M135.146,181.782v -1.0568" fill="none" stroke="#33ff99"/>
<path d="M125.224,182.964h 8.73893" fill="none" stroke="#33ff99"/>
<path d="M136.328,182.964h 8.73893" fill="none" stroke="#33ff99"/>
<g fill="#33ff99">
<polygon points=" 134.752, 182.57 134.752, 181.782 135.54, 181.782 135.54, 182.57 136.328, 182.57 136.328, 183.358 135.54, 183.358 135.54, 184.146 134.752, 184.146 134.752, 183.358 133.963, 183.358 133.963, 182.57"/>
</g>
<path d="M154.988,189.157v -3.29691" fill="none" stroke="#33ff99"/>
<path d="M154.988,183.495v -3.29691" fill="none" stroke="#33ff99"/>
<path d="M145.067,184.678h 8.73893" fill="none" stroke="#33ff99"/>
<path d="M156.171,184.678h 8.73893" fill="none" stroke="#33ff99"/>
<g fill="#33ff99">
<polygon points=" 154.594, 184.283 154.594, 183.495 155.382, 183.495 155.382, 184.283 156.171, 184.283 156.171, 185.072 155.382, 185.072 155.382, 185.86 154.594, 185.86 154.594, 185.072 153.806, 185.072 153.806, 184.283"/>
</g>
<path d="M174.831,198.425v -6.53641" fill="none" stroke="#33ff99"/>
<path d="M174.831,189.524v -6.53641" fill="none" stroke="#33ff99"/>
<path d="M164.909,190.706h 8.73893" fill="none" stroke="#33ff99"/>
<path d="M176.013,190.706h 8.73893" fill="none" stroke="#33ff99"/>
<g fill="#33ff99">
<polygon points=" 174.437, 190.312 174.437, 189.524 175.225, 189.524 175.225, 190.312 176.013, 190.312 176.013, 191.101 175.225, 191.101 175.225, 191.889 174.437, 191.889 174.437, 191.101 173.648, 191.101 173.648, 190.312"/>
</g>
<path d="M204.594,203.827v -9.38285" fill="none" stroke="#33ff99"/>
<path d="M204.594,192.079v -9.38285" fill="none" stroke="#33ff99"/>
<path d="M184.752,193.261h 18.6602" fill="none" stroke="#33ff99"/>
<path d="M205.777,193.261h 18.6602" fill="none" stroke="#33ff99"/>
<g fill="#33ff99">
<polygon points=" 204.2, 192.867 204.2, 192.079 204.989, 192.079 204.989, 192.867 205.777, 192.867 205.777, 193.656 204.989, 193.656 204.989, 194.444 204.2, 194.444 204.2, 193.656 203.412, 193.656 203.412, 192.867"/>
</g>
<path d="M254.201,198.39v -21.2739" fill="none" stroke="#33ff99"/>
<path d="M254.201,174.751v -21.2739" fill="none" stroke="#33ff99"/>
<path d="M224.437,175.934h 28.5814" fill="none" stroke="#33ff99"/>
<path d="M255.383,175.934h 28.5814" fill="none" stroke="#33ff99"/>
<g fill="#33ff99">
<polygon points=" 253.807, 175.539 253.807, 174.751 254.595, 174.751 254.595, 175.539 255.383, 175.539 255.383, 176.328 254.595, 176.328 254.595, 177.116 253.807, 177.116 253.807, 176.328 253.018, 176.328 253.018, 175.539"/>
</g>
<path d="M333.571,258.14v -44.8042" fill="none" stroke="#33ff99"/>
<path d="M333.571,210.971v -44.8042" fill="none" stroke="#33ff99"/>
<path d="M283.965,212.154h 48.424" fill="none" stroke="#33ff99"/>
<path d="M334.753,212.154h 48.424" fill="none" stroke="#33ff99"/>
<g fill="#33ff99">
<polygon points=" 333.177, 211.76 333.177, 210.971 333.965, 210.971 333.965, 211.76 334.753, 211.76 334.753, 212.548 333.965, 212.548 333.965, 213.336 333.177, 213.336 333.177, 212.548 332.389, 212.548 332.389, 211.76"/>
</g>
<path d="M432.783,274.42v -227.126" fill="none" stroke="#33ff99"/>
<path d="M432.783,44.9286v -29.3366" fill="none" stroke="#33ff99"/>
<path d="M383.177,46.1109h 48.424" fill="none" stroke="#33ff99"/>
<path d="M433.966,46.1109h 48.424" fill="none" stroke="#33ff99"/>
<g fill="#33ff99">
<polygon points=" 432.389, 45.7168 432.389, 44.9286 433.178, 44.9286 433.178, 45.7168 433.966, 45.7168 433.966, 46.505 433.178, 46.505 433.178, 47.2933 432.389, 47.2933 432.389, 46.505 431.601, 46.505 431.601, 45.7168"/>
</g>
<path d="M85.5394,174.691h 3.7783" fill="none" stroke="#00cccc"/>
<path d="M91.6823,174.691h 3.7783" fill="none" stroke="#00cccc"/>
<g stroke="#00cccc" stroke-width="1" fill="none">
<polygon points=" 90.1059, 174.297 90.1059, 173.509 90.8941, 173.509 90.8941, 174.297 91.6823, 174.297 91.6823, 175.085 90.8941, 175.085 90.8941, 175.873 90.1059, 175.873 90.1059, 175.085 89.3177, 175.085 89.3177, 174.297"/>
</g>
<path d="M95.4606,176.668h 3.7783" fill="none" stroke="#00cccc"/>
<path d="M101.604,176.668h 3.7783" fill="none" stroke="#00cccc"/>
<g stroke="#00cccc" stroke-width="1" fill="none">
<polygon points=" 100.027, 176.274 100.027, 175.486 100.815, 175.486 100.815, 176.274 101.604, 176.274 101.604, 177.062 100.815, 177.062 100.815, 177.851 100.027, 177.851 100.027, 177.062 99.2389, 177.062 99.2389, 176.274"/>
</g>
<path d="M105.382,175.848h 3.7783" fill="none" stroke="#00cccc"/>
<path d="M111.525,175.848h 3.7783" fill="none" stroke="#00cccc"/>
<g stroke="#00cccc" stroke-width="1" fill="none">
<polygon points=" 109.948, 175.454 109.948, 174.666 110.737, 174.666 110.737, 175.454 111.525, 175.454 111.525, 176.242 110.737, 176.242 110.737, 177.031 109.948, 177.031 109.948, 176.242 109.16, 176.242 109.16, 175.454"/>
</g>
<path d="M120.264,176.19v -0.253868" fill="none" stroke="#00cccc"/>
<path d="M120.264,173.572v -0.253868" fill="none" stroke="#00cccc"/>
<path d="M115.303,174.754h 3.7783" fill="none" stroke="#00cccc"/>
<path d="M121.446,174.754h 3.7783" fill="none" stroke="#00cccc"/>
<g stroke="#00cccc" stroke-width="1" fill="none">
<polygon points=" 119.87, 174.36 119.87, 173.572 120.658, 173.572 120.658, 174.36 121.446, 174.36 121.446, 175.148 120.658, 175.148 120.658, 175.937 119.87, 175.937 119.87, 175.148 119.081, 175.148 119.081, 174.36"/>
</g>
<path d="M135.146,176.877v -0.696784" fill="none" stroke="#00cccc"/>
<path d="M135.146,173.815v -0.696784" fill="none" stroke="#00cccc"/>
<path d="M125.224,174.998h 8.73893" fill="none" stroke="#00cccc"/>
<path d="M136.328,174.998h 8.73893" fill="none" stroke="#00cccc"/>
<g stroke="#00cccc" stroke-width="1" fill="none">
<polygon points=" 134.752, 174.604 134.752, 173.815 135.54, 173.815 135.54, 174.604 136.328, 174.604 136.328, 175.392 135.54, 175.392 135.54, 176.18 134.752, 176.18 134.752, 175.392 133.963, 175.392 133.963, 174.604"/>
</g>
<path d="M154.988,175.456v -2.69449" fill="none" stroke="#00cccc"/>
<path d="M154.988,170.397v -2.69449" fill="none" stroke="#00cccc"/>
<path d="M145.067,171.579h 8.73893" fill="none" stroke="#00cccc"/>
<path d="M156.171,171.579h 8.73893" fill="none" stroke="#00cccc"/>
<g stroke="#00cccc" stroke-width="1" fill="none">
<polygon points=" 154.594, 171.185 154.594, 170.397 155.382, 170.397 155.382, 171.185 156.171, 171.185 156.171, 171.974 155.382, 171.974 155.382, 172.762 154.594, 172.762 154.594, 171.974 153.806, 171.974 153.806, 171.185"/>
</g>
<path d="M174.831,188.992v -5.31162" fill="none" stroke="#00cccc"/>
<path d="M174.831,181.316v -5.31162" fill="none" stroke="#00cccc"/>
<path d="M164.909,182.498h 8.73893" fill="none" stroke="#00cccc"/>
<path d="M176.013,182.498h 8.73893" fill="none" stroke="#00cccc"/>
<g stroke="#00cccc" stroke-width="1" fill="none">
<polygon points=" 174.437, 182.104 174.437, 181.316 175.225, 181.316 175.225, 182.104 176.013, 182.104 176.013, 182.892 175.225, 182.892 175.225, 183.681 174.437, 183.681 174.437, 182.892 173.648, 182.892 173.648, 182.104"/>
</g>
<path d="M204.594,185.992v -8.20069" fill="none" stroke="#00cccc"/>
<path d="M204.594,175.427v -8.20069" fill="none" stroke="#00cccc"/>
<path d="M184.752,176.609h 18.6602" fill="none" stroke="#00cccc"/>
<path d="M205.777,176.609h 18.6602" fill="none" stroke="#00cccc"/>
<g stroke="#00cccc" stroke-width="1" fill="none">
<polygon points=" 204.2, 176.215 204.2, 175.427 204.989, 175.427 204.989, 176.215 205.777, 176.215 205.777, 177.004 204.989, 177.004 204.989, 177.792 204.2, 177.792 204.2, 177.004 203.412, 177.004 203.412, 176.215"/>
</g>
<path d="M254.201,211.091v -14.6176" fill="none" stroke="#00cccc"/>
<path d="M254.201,194.108v -14.6176" fill="none" stroke="#00cccc"/>
<path d="M224.437,195.291h 28.5814" fill="none" stroke="#00cccc"/>
<path d="M255.383,195.291h 28.5814" fill="none" stroke="#00cccc"/>
<g stroke="#00cccc" stroke-width="1" fill="none">
<polygon points=" 253.807, 194.897 253.807, 194.108 254.595, 194.108 254.595, 194.897 255.383, 194.897 255.383, 195.685 254.595, 195.685 254.595, 196.473 253.807, 196.473 253.807, 195.685 253.018, 195.685 253.018, 194.897"/>
</g>
<path d="M333.571,188.258v -59.4044" fill="none" stroke="#00cccc"/>
<path d="M333.571,126.489v -59.4044" fill="none" stroke="#00cccc"/>
<path d="M283.965,127.671h 48.424" fill="none" stroke="#00cccc"/>
<path d="M334.753,127.671h 48.424" fill="none" stroke="#00cccc"/>
<g stroke="#00cccc" stroke-width="1" fill="none">
<polygon points=" 333.177, 127.277 333.177, 126.489 333.965, 126.489 333.965, 127.277 334.753, 127.277 334.753, 128.066 333.965, 128.066 333.965, 128.854 333.177, 128.854 333.177, 128.066 332.389, 128.066 332.389, 127.277"/>
</g>
<path d="M432.783,274.42v -133.337" fill="none" stroke="#00cccc"/>
<path d="M432.783,138.718v -123.126" fill="none" stroke="#00cccc"/>
<path d="M383.177,139.9h 48.424" fill="none" stroke="#00cccc"/>
<path d="M433.966,139.9h 48.424" fill="none" stroke="#00cccc"/>
<g stroke="#00cccc" stroke-width="1" fill="none">
<polygon points=" 432.389, 139.506 432.389, 138.718 433.178, 138.718 433.178, 139.506 433.966, 139.506 433.966, 140.295 433.178, 140.295 433.178, 141.083 432.389, 141.083 432.389, 140.295 431.601, 140.295 431.601, 139.506"/>
</g>
<path d="M85.5394,166.642h 4.36946" fill="none" stroke="#0033ff"/>
<path d="M91.0912,166.642h 4.36946" fill="none" stroke="#0033ff"/>
<g fill="#0033ff">
<polygon points=" 90.5, 167.233 89.9088, 167.824 89.3177, 167.233 89.9088, 166.642 89.3177, 166.051 89.9088, 165.46 90.5, 166.051 91.0912, 165.46 91.6823, 166.051 91.0912, 166.642 91.6823, 167.233 91.0912, 167.824 90.5, 167.233"/>
</g>
<path d="M95.4606,165.384h 4.36946" fill="none" stroke="#0033ff"/>
<path d="M101.012,165.384h 4.36946" fill="none" stroke="#0033ff"/>
<g fill="#0033ff">
<polygon points=" 100.421, 165.975 99.8301, 166.567 99.2389, 165.975 99.8301, 165.384 99.2389, 164.793 99.8301, 164.202 100.421, 164.793 101.012, 164.202 101.604, 164.793 101.012, 165.384 101.604, 165.975 101.012, 166.567 100.421, 165.975"/>
</g>
<path d="M110.343,166.905v -0.380565" fill="none" stroke="#0033ff"/>
<path d="M110.343,165.342v -0.380565" fill="none" stroke="#0033ff"/>
<path d="M105.382,165.933h 4.36946" fill="none" stroke="#0033ff"/>
<path d="M110.934,165.933h 4.36946" fill="none" stroke="#0033ff"/>
<g fill="#0033ff">
<polygon points=" 110.343, 166.524 109.751, 167.115 109.16, 166.524 109.751, 165.933 109.16, 165.342 109.751, 164.751 110.343, 165.342 110.934, 164.751 111.525, 165.342 110.934, 165.933 111.525, 166.524 110.934, 167.115 110.343, 166.524"/>
</g>
<path d="M120.264,167.194v -1.0897" fill="none" stroke="#0033ff"/>
<path d="M120.264,164.922v -1.0897" fill="none" stroke="#0033ff"/>
<path d="M115.303,165.513h 4.36946" fill="none" stroke="#0033ff"/>
<path d="M120.855,165.513h 4.36946" fill="none" stroke="#0033ff"/>
<g fill="#0033ff">
<polygon points=" 120.264, 166.104 119.673, 166.695 119.081, 166.104 119.673, 165.513 119.081, 164.922 119.673, 164.331 120.264, 164.922 120.855, 164.331 121.446, 164.922 120.855, 165.513 121.446, 166.104 120.855, 166.695 120.264, 166.104"/>
</g>
<path d="M135.146,168.2v -1.60548" fill="none" stroke="#0033ff"/>
<path d="M135.146,165.412v -1.60548" fill="none" stroke="#0033ff"/>
<path d="M125.224,166.003h 9.33009" fill="none" stroke="#0033ff"/>
<path d="M135.737,166.003h 9.33009" fill="none" stroke="#0033ff"/>
<g fill="#0033ff">
<polygon points=" 135.146, 166.594 134.555, 167.185 133.963, 166.594 134.555, 166.003 133.963, 165.412 134.555, 164.821 135.146, 165.412 135.737, 164.821 136.328, 165.412 135.737, 166.003 136.328, 166.594 135.737, 167.185 135.146, 166.594"/>
</g>
<path d="M154.988,174.679v -3.74494" fill="none" stroke="#0033ff"/>
<path d="M154.988,169.752v -3.74494" fill="none" stroke="#0033ff"/>
<path d="M145.067,170.343h 9.33009" fill="none" stroke="#0033ff"/>
<path d="M155.579,170.343h 9.33009" fill="none" stroke="#0033ff"/>
<g fill="#0033ff">
<polygon points=" 154.988, 170.934 154.397, 171.526 153.806, 170.934 154.397, 170.343 153.806, 169.752 154.397, 169.161 154.988, 169.752 155.579, 169.161 156.171, 169.752 155.579, 170.343 156.171, 170.934 155.579, 171.526 154.988, 170.934"/>
</g>
<path d="M174.831,163.943v -7.80694" fill="none" stroke="#0033ff"/>
<path d="M174.831,154.954v -7.80694" fill="none" stroke="#0033ff"/>
<path d="M164.909,155.545h 9.33009" fill="none" stroke="#0033ff"/>
<path d="M175.422,155.545h 9.33009" fill="none" stroke="#0033ff"/>
<g fill="#0033ff">
<polygon points=" 174.831, 156.136 174.24, 156.727 173.648, 156.136 174.24, 155.545 173.648, 154.954 174.24, 154.363 174.831, 154.954 175.422, 154.363 176.013, 154.954 175.422, 155.545 176.013, 156.136 175.422, 156.727 174.831, 156.136"/>
</g>
<path d="M204.594,178.586v -10.389" fill="none" stroke="#0033ff"/>
<path d="M204.594,167.015v -10.389" fill="none" stroke="#0033ff"/>
<path d="M184.752,167.606h 19.2514" fill="none" stroke="#0033ff"/>
<path d="M205.186,167.606h 19.2514" fill="none" stroke="#0033ff"/>
<g fill="#0033ff">
<polygon points=" 204.594, 168.197 204.003, 168.788 203.412, 168.197 204.003, 167.606 203.412, 167.015 204.003, 166.424 204.594, 167.015 205.186, 166.424 205.777, 167.015 205.186, 167.606 205.777, 168.197 205.186, 168.788 204.594, 168.197"/>
</g>
<path d="M254.201,177.403v -21.7782" fill="none" stroke="#0033ff"/>
<path d="M254.201,154.442v -21.7782" fill="none" stroke="#0033ff"/>
<path d="M224.437,155.033h 29.1726" fill="none" stroke="#0033ff"/>
<path d="M254.792,155.033h 29.1726" fill="none" stroke="#0033ff"/>
<g fill="#0033ff">
<polygon points=" 254.201, 155.625 253.61, 156.216 253.018, 155.625 253.61, 155.033 253.018, 154.442 253.61, 153.851 254.201, 154.442 254.792, 153.851 255.383, 154.442 254.792, 155.033 255.383, 155.625 254.792, 156.216 254.201, 155.625"/>
</g>
<path d="M333.571,214.573v -58.1727" fill="none" stroke="#0033ff"/>
<path d="M333.571,155.217v -58.1727" fill="none" stroke="#0033ff"/>
<path d="M283.965,155.809h 49.0151" fill="none" stroke="#0033ff"/>
<path d="M334.162,155.809h 49.0151" fill="none" stroke="#0033ff"/>
<g fill="#0033ff">
<polygon points=" 333.571, 156.4 332.98, 156.991 332.389, 156.4 332.98, 155.809 332.389, 155.217 332.98, 154.626 333.571, 155.217 334.162, 154.626 334.753, 155.217 334.162, 155.809 334.753, 156.4 334.162, 156.991 333.571, 156.4"/>
</g>
<path d="M85.5394,155.559h 3.7783" fill="none" stroke="#0000ff"/>
<path d="M91.6823,155.559h 3.7783" fill="none" stroke="#0000ff"/>
<g stroke="#0000ff" stroke-width="1" fill="none">
<polygon points=" 90.1059, 155.165 90.1059, 154.376 90.8941, 154.376 90.8941, 155.165 91.6823, 155.165 91.6823, 155.953 90.8941, 155.953 90.8941, 156.741 90.1059, 156.741 90.1059, 155.953 89.3177, 155.953 89.3177, 155.165"/>
</g>
<path d="M95.4606,153.175h 3.7783" fill="none" stroke="#0000ff"/>
<path d="M101.604,153.175h 3.7783" fill="none" stroke="#0000ff"/>
<g stroke="#0000ff" stroke-width="1" fill="none">
<polygon points=" 100.027, 152.781 100.027, 151.993 100.815, 151.993 100.815, 152.781 101.604, 152.781 101.604, 153.569 100.815, 153.569 100.815, 154.357 100.027, 154.357 100.027, 153.569 99.2389, 153.569 99.2389, 152.781"/>
</g>
<path d="M110.343,153.727v -0.0371956" fill="none" stroke="#0000ff"/>
<path d="M110.343,151.325v -0.0371956" fill="none" stroke="#0000ff"/>
<path d="M105.382,152.507h 3.7783" fill="none" stroke="#0000ff"/>
<path d="M111.525,152.507h 3.7783" fill="none" stroke="#0000ff"/>
<g stroke="#0000ff" stroke-width="1" fill="none">
<polygon points=" 109.948, 152.113 109.948, 151.325 110.737, 151.325 110.737, 152.113 111.525, 152.113 111.525, 152.901 110.737, 152.901 110.737, 153.69 109.948, 153.69 109.948, 152.901 109.16, 152.901 109.16, 152.113"/>
</g>
<path d="M120.264,159.268v -0.875905" fill="none" stroke="#0000ff"/>
<path d="M120.264,156.028v -0.875905" fill="none" stroke="#0000ff"/>
<path d="M115.303,157.21h 3.7783" fill="none" stroke="#0000ff"/>
<path d="M121.446,157.21h 3.7783" fill="none" stroke="#0000ff"/>
<g stroke="#0000ff" stroke-width="1" fill="none">
<polygon points=" 119.87, 156.816 119.87, 156.028 120.658, 156.028 120.658, 156.816 121.446, 156.816 121.446, 157.604 120.658, 157.604 120.658, 158.392 119.87, 158.392 119.87, 157.604 119.081, 157.604 119.081, 156.816"/>
</g>
<path d="M135.146,158.553v -1.53246" fill="none" stroke="#0000ff"/>
<path d="M135.146,154.655v -1.53246" fill="none" stroke="#0000ff"/>
<path d="M125.224,155.838h 8.73893" fill="none" stroke="#0000ff"/>
<path d="M136.328,155.838h 8.73893" fill="none" stroke="#0000ff"/>
<g stroke="#0000ff" stroke-width="1" fill="none">
<polygon points=" 134.752, 155.444 134.752, 154.655 135.54, 154.655 135.54, 155.444 136.328, 155.444 136.328, 156.232 135.54, 156.232 135.54, 157.02 134.752, 157.02 134.752, 156.232 133.963, 156.232 133.963, 155.444"/>
</g>
<path d="M154.988,161.004v -4.31477" fill="none" stroke="#0000ff"/>
<path d="M154.988,154.325v -4.31477" fill="none" stroke="#0000ff"/>
<path d="M145.067,155.507h 8.73893" fill="none" stroke="#0000ff"/>
<path d="M156.171,155.507h 8.73893" fill="none" stroke="#0000ff"/>
<g stroke="#0000ff" stroke-width="1" fill="none">
<polygon points=" 154.594, 155.113 154.594, 154.325 155.382, 154.325 155.382, 155.113 156.171, 155.113 156.171, 155.901 155.382, 155.901 155.382, 156.689 154.594, 156.689 154.594, 155.901 153.806, 155.901 153.806, 155.113"/>
</g>
<path d="M174.831,150.3v -9.39043" fill="none" stroke="#0000ff"/>
<path d="M174.831,138.545v -9.39043" fill="none" stroke="#0000ff"/>
<path d="M164.909,139.727h 8.73893" fill="none" stroke="#0000ff"/>
<path d="M176.013,139.727h 8.73893" fill="none" stroke="#0000ff"/>
<g stroke="#0000ff" stroke-width="1" fill="none">
<polygon points=" 174.437, 139.333 174.437, 138.545 175.225, 138.545 175.225, 139.333 176.013, 139.333 176.013, 140.121 175.225, 140.121 175.225, 140.909 174.437, 140.909 174.437, 140.121 173.648, 140.121 173.648, 139.333"/>
</g>
<path d="M204.594,157.66v -13.3235" fill="none" stroke="#0000ff"/>
<path d="M204.594,141.972v -13.3235" fill="none" stroke="#0000ff"/>
<path d="M184.752,143.154h 18.6602" fill="none" stroke="#0000ff"/>
<path d="M205.777,143.154h 18.6602" fill="none" stroke="#0000ff"/>
<g stroke="#0000ff" stroke-width="1" fill="none">
<polygon points=" 204.2, 142.76 204.2, 141.972 204.989, 141.972 204.989, 142.76 205.777, 142.76 205.777, 143.548 204.989, 143.548 204.989, 144.337 204.2, 144.337 204.2, 143.548 203.412, 143.548 203.412, 142.76"/>
</g>
<path d="M254.201,181.18v -25.0471" fill="none" stroke="#0000ff"/>
<path d="M254.201,153.769v -25.0471" fill="none" stroke="#0000ff"/>
<path d="M224.437,154.951h 28.5814" fill="none" stroke="#0000ff"/>
<path d="M255.383,154.951h 28.5814" fill="none" stroke="#0000ff"/>
<g stroke="#0000ff" stroke-width="1" fill="none">
<polygon points=" 253.807, 154.557 253.807, 153.769 254.595, 153.769 254.595, 154.557 255.383, 154.557 255.383, 155.345 254.595, 155.345 254.595, 156.133 253.807, 156.133 253.807, 155.345 253.018, 155.345 253.018, 154.557"/>
</g>
<path d="M333.571,274.42v -33.4365" fill="none" stroke="#0000ff"/>
<path d="M333.571,238.619v -34.2145" fill="none" stroke="#0000ff"/>
<path d="M283.965,239.801h 48.424" fill="none" stroke="#0000ff"/>
<path d="M334.753,239.801h 48.424" fill="none" stroke="#0000ff"/>
<g stroke="#0000ff" stroke-width="1" fill="none">
<polygon points=" 333.177, 239.407 333.177, 238.619 333.965, 238.619 333.965, 239.407 334.753, 239.407 334.753, 240.195 333.965, 240.195 333.965, 240.983 333.177, 240.983 333.177, 240.195 332.389, 240.195 332.389, 239.407"/>
</g>
<text xml:space="preserve" x="117.847" y="39.017" fill="black" font-size="9.08277" font-family="Helvetica">PYTHIA8, pAu200GeV with option3</text>
<text xml:space="preserve" x="146.814" y="50.2492" fill="black" font-size="9.08277" font-family="Helvetica">|&lt;1</text>
<text xml:space="preserve" x="142.084" y="50.2492" fill="black" font-size="9.08277" font-family="Times">&#0951;</text>
<text xml:space="preserve" x="128.783" y="50.2492" fill="black" font-size="9.08277" font-family="Helvetica"> in |</text>
<text xml:space="preserve" x="122.28" y="46.9978" fill="black" font-size="6.22185" font-family="Helvetica">dir</text>
<text xml:space="preserve" x="117.847" y="50.2492" fill="black" font-size="9.08277" font-family="Times">&#0947;</text>
<text xml:space="preserve" x="156.273" y="61.4814" fill="black" font-size="9.08277" font-family="Helvetica">centrality: 0~10%</text>
<g fill="#00cc00">
<polygon points=" 134.752, 58.6329 134.752, 57.8446 135.54, 57.8446 135.54, 58.6329 136.328, 58.6329 136.328, 59.4211 135.54, 59.4211 135.54, 60.2093 134.752, 60.2093 134.752, 59.4211 133.963, 59.4211 133.963, 58.6329"/>
</g>
<text xml:space="preserve" x="156.273" y="72.418" fill="black" font-size="9.08277" font-family="Helvetica">centrality: 10~20%</text>
<g fill="#33ff99">
<polygon points=" 134.752, 69.77 134.752, 68.9818 135.54, 68.9818 135.54, 69.77 136.328, 69.77 136.328, 70.5582 135.54, 70.5582 135.54, 71.3465 134.752, 71.3465 134.752, 70.5582 133.963, 70.5582 133.963, 69.77"/>
</g>
<text xml:space="preserve" x="156.273" y="83.6501" fill="black" font-size="9.08277" font-family="Helvetica">centrality: 20~40%</text>
<g stroke="#00cccc" stroke-width="1" fill="none">
<polygon points=" 134.752, 80.9072 134.752, 80.119 135.54, 80.119 135.54, 80.9072 136.328, 80.9072 136.328, 81.6954 135.54, 81.6954 135.54, 82.4836 134.752, 82.4836 134.752, 81.6954 133.963, 81.6954 133.963, 80.9072"/>
</g>
<text xml:space="preserve" x="156.273" y="94.8823" fill="black" font-size="9.08277" font-family="Helvetica">centrality: 40~60%</text>
<g fill="#0033ff">
<polygon points=" 135.146, 93.0296 134.555, 93.6208 133.963, 93.0296 134.555, 92.4385 133.963, 91.8473 134.555, 91.2561 135.146, 91.8473 135.737, 91.2561 136.328, 91.8473 135.737, 92.4385 136.328, 93.0296 135.737, 93.6208 135.146, 93.0296"/>
</g>
<text xml:space="preserve" x="156.273" y="105.819" fill="black" font-size="9.08277" font-family="Helvetica">centrality: 60~80%</text>
<g stroke="#0000ff" stroke-width="1" fill="none">
<polygon points=" 134.752, 103.182 134.752, 102.393 135.54, 102.393 135.54, 103.182 136.328, 103.182 136.328, 103.97 135.54, 103.97 135.54, 104.758 134.752, 104.758 134.752, 103.97 133.963, 103.97 133.963, 103.182"/>
</g></svg>
