<?xml version="1.0" standalone="no"?>
<svg width="567.429" height="409.002" viewBox="0 0 567.429 409.002" xmlns="http://www.w3.org/2000/svg" shape-rendering="crispEdges">
<title>
/Users/jinhyunpark/npl/gitHub/Centrality_dependent_BiasCorrection/plots/plots_scaled-dNdpT/ratio_ratioCent2MB_dir2pion0_byCentrality.svg
</title>
<desc>
Creator: ROOT Version 6.28/06
CreationDate: Fri Nov 10 21:00:45 2023</desc>
<defs>
</defs>
<rect x="0.5" y="0" width="566.929" height="408.502" fill="white"/>
<rect x="68.5315" y="20.4251" width="430.866" height="339.056" fill="white"/>
<rect x="68.5315" y="20.4251" width="430.866" height="339.056" fill="none" stroke="black"/>
<rect x="68.5315" y="20.4251" width="430.866" height="339.056" fill="white"/>
<rect x="68.5315" y="20.4251" width="430.866" height="339.056" fill="none" stroke="black"/>
<path d="M68.5315,359.481h 430.866" fill="none" stroke="black"/>
<path d="M68.5315,350.168v 9.31384" fill="none" stroke="black"/>
<path d="M80.5,354.824v 4.65692" fill="none" stroke="black"/>
<path d="M92.4685,354.824v 4.65692" fill="none" stroke="black"/>
<path d="M104.437,354.824v 4.65692" fill="none" stroke="black"/>
<path d="M116.406,350.168v 9.31384" fill="none" stroke="black"/>
<path d="M128.374,354.824v 4.65692" fill="none" stroke="black"/>
<path d="M140.343,354.824v 4.65692" fill="none" stroke="black"/>
<path d="M152.311,354.824v 4.65692" fill="none" stroke="black"/>
<path d="M164.28,350.168v 9.31384" fill="none" stroke="black"/>
<path d="M176.248,354.824v 4.65692" fill="none" stroke="black"/>
<path d="M188.217,354.824v 4.65692" fill="none" stroke="black"/>
<path d="M200.185,354.824v 4.65692" fill="none" stroke="black"/>
<path d="M212.154,350.168v 9.31384" fill="none" stroke="black"/>
<path d="M224.122,354.824v 4.65692" fill="none" stroke="black"/>
<path d="M236.091,354.824v 4.65692" fill="none" stroke="black"/>
<path d="M248.059,354.824v 4.65692" fill="none" stroke="black"/>
<path d="M260.028,350.168v 9.31384" fill="none" stroke="black"/>
<path d="M271.996,354.824v 4.65692" fill="none" stroke="black"/>
<path d="M283.965,354.824v 4.65692" fill="none" stroke="black"/>
<path d="M295.933,354.824v 4.65692" fill="none" stroke="black"/>
<path d="M307.902,350.168v 9.31384" fill="none" stroke="black"/>
<path d="M319.87,354.824v 4.65692" fill="none" stroke="black"/>
<path d="M331.839,354.824v 4.65692" fill="none" stroke="black"/>
<path d="M343.807,354.824v 4.65692" fill="none" stroke="black"/>
<path d="M355.776,350.168v 9.31384" fill="none" stroke="black"/>
<path d="M367.744,354.824v 4.65692" fill="none" stroke="black"/>
<path d="M379.713,354.824v 4.65692" fill="none" stroke="black"/>
<path d="M391.681,354.824v 4.65692" fill="none" stroke="black"/>
<path d="M403.65,350.168v 9.31384" fill="none" stroke="black"/>
<path d="M415.618,354.824v 4.65692" fill="none" stroke="black"/>
<path d="M427.587,354.824v 4.65692" fill="none" stroke="black"/>
<path d="M439.555,354.824v 4.65692" fill="none" stroke="black"/>
<path d="M451.524,350.168v 9.31384" fill="none" stroke="black"/>
<path d="M463.492,354.824v 4.65692" fill="none" stroke="black"/>
<path d="M475.461,354.824v 4.65692" fill="none" stroke="black"/>
<path d="M487.429,354.824v 4.65692" fill="none" stroke="black"/>
<path d="M499.398,350.168v 9.31384" fill="none" stroke="black"/>
<text xml:space="preserve" x="64.4394" y="372.269" fill="black" font-size="13.617" font-family="Helvetica">2</text>
<text xml:space="preserve" x="112.749" y="372.269" fill="black" font-size="13.617" font-family="Helvetica">4</text>
<text xml:space="preserve" x="160.348" y="372.269" fill="black" font-size="13.617" font-family="Helvetica">6</text>
<text xml:space="preserve" x="207.948" y="372.269" fill="black" font-size="13.617" font-family="Helvetica">8</text>
<text xml:space="preserve" x="251.995" y="372.269" fill="black" font-size="13.617" font-family="Helvetica">10</text>
<text xml:space="preserve" x="299.594" y="372.269" fill="black" font-size="13.617" font-family="Helvetica">12</text>
<text xml:space="preserve" x="347.904" y="372.269" fill="black" font-size="13.617" font-family="Helvetica">14</text>
<text xml:space="preserve" x="395.503" y="372.269" fill="black" font-size="13.617" font-family="Helvetica">16</text>
<text xml:space="preserve" x="443.103" y="372.269" fill="black" font-size="13.617" font-family="Helvetica">18</text>
<text xml:space="preserve" x="491.412" y="372.269" fill="black" font-size="13.617" font-family="Helvetica">20</text>
<text xml:space="preserve" x="453.759" y="384.347" fill="black" font-size="13.617" font-family="Helvetica">(GeV/c)</text>
<text xml:space="preserve" x="448.076" y="392.162" fill="black" font-size="9.24468" font-family="Helvetica">T</text>
<text xml:space="preserve" x="440.261" y="384.347" fill="black" font-size="13.617" font-family="Helvetica">p</text>
<path d="M68.5315,20.4251h 430.866" fill="none" stroke="black"/>
<path d="M68.5315,29.7389v -9.31384" fill="none" stroke="black"/>
<path d="M80.5,25.082v -4.65692" fill="none" stroke="black"/>
<path d="M92.4685,25.082v -4.65692" fill="none" stroke="black"/>
<path d="M104.437,25.082v -4.65692" fill="none" stroke="black"/>
<path d="M116.406,29.7389v -9.31384" fill="none" stroke="black"/>
<path d="M128.374,25.082v -4.65692" fill="none" stroke="black"/>
<path d="M140.343,25.082v -4.65692" fill="none" stroke="black"/>
<path d="M152.311,25.082v -4.65692" fill="none" stroke="black"/>
<path d="M164.28,29.7389v -9.31384" fill="none" stroke="black"/>
<path d="M176.248,25.082v -4.65692" fill="none" stroke="black"/>
<path d="M188.217,25.082v -4.65692" fill="none" stroke="black"/>
<path d="M200.185,25.082v -4.65692" fill="none" stroke="black"/>
<path d="M212.154,29.7389v -9.31384" fill="none" stroke="black"/>
<path d="M224.122,25.082v -4.65692" fill="none" stroke="black"/>
<path d="M236.091,25.082v -4.65692" fill="none" stroke="black"/>
<path d="M248.059,25.082v -4.65692" fill="none" stroke="black"/>
<path d="M260.028,29.7389v -9.31384" fill="none" stroke="black"/>
<path d="M271.996,25.082v -4.65692" fill="none" stroke="black"/>
<path d="M283.965,25.082v -4.65692" fill="none" stroke="black"/>
<path d="M295.933,25.082v -4.65692" fill="none" stroke="black"/>
<path d="M307.902,29.7389v -9.31384" fill="none" stroke="black"/>
<path d="M319.87,25.082v -4.65692" fill="none" stroke="black"/>
<path d="M331.839,25.082v -4.65692" fill="none" stroke="black"/>
<path d="M343.807,25.082v -4.65692" fill="none" stroke="black"/>
<path d="M355.776,29.7389v -9.31384" fill="none" stroke="black"/>
<path d="M367.744,25.082v -4.65692" fill="none" stroke="black"/>
<path d="M379.713,25.082v -4.65692" fill="none" stroke="black"/>
<path d="M391.681,25.082v -4.65692" fill="none" stroke="black"/>
<path d="M403.65,29.7389v -9.31384" fill="none" stroke="black"/>
<path d="M415.618,25.082v -4.65692" fill="none" stroke="black"/>
<path d="M427.587,25.082v -4.65692" fill="none" stroke="black"/>
<path d="M439.555,25.082v -4.65692" fill="none" stroke="black"/>
<path d="M451.524,29.7389v -9.31384" fill="none" stroke="black"/>
<path d="M463.492,25.082v -4.65692" fill="none" stroke="black"/>
<path d="M475.461,25.082v -4.65692" fill="none" stroke="black"/>
<path d="M487.429,25.082v -4.65692" fill="none" stroke="black"/>
<path d="M499.398,29.7389v -9.31384" fill="none" stroke="black"/>
<path d="M68.5315,359.481v -339.056" fill="none" stroke="black"/>
<path d="M82.648,359.481h -14.1165" fill="none" stroke="black"/>
<path d="M75.5898,351.005h -7.05827" fill="none" stroke="black"/>
<path d="M75.5898,342.529h -7.05827" fill="none" stroke="black"/>
<path d="M75.5898,334.052h -7.05827" fill="none" stroke="black"/>
<path d="M75.5898,325.576h -7.05827" fill="none" stroke="black"/>
<path d="M82.648,317.099h -14.1165" fill="none" stroke="black"/>
<path d="M75.5898,308.623h -7.05827" fill="none" stroke="black"/>
<path d="M75.5898,300.147h -7.05827" fill="none" stroke="black"/>
<path d="M75.5898,291.67h -7.05827" fill="none" stroke="black"/>
<path d="M75.5898,283.194h -7.05827" fill="none" stroke="black"/>
<path d="M82.648,274.717h -14.1165" fill="none" stroke="black"/>
<path d="M75.5898,266.241h -7.05827" fill="none" stroke="black"/>
<path d="M75.5898,257.764h -7.05827" fill="none" stroke="black"/>
<path d="M75.5898,249.288h -7.05827" fill="none" stroke="black"/>
<path d="M75.5898,240.812h -7.05827" fill="none" stroke="black"/>
<path d="M82.648,232.335h -14.1165" fill="none" stroke="black"/>
<path d="M75.5898,223.859h -7.05827" fill="none" stroke="black"/>
<path d="M75.5898,215.382h -7.05827" fill="none" stroke="black"/>
<path d="M75.5898,206.906h -7.05827" fill="none" stroke="black"/>
<path d="M75.5898,198.43h -7.05827" fill="none" stroke="black"/>
<path d="M82.648,189.953h -14.1165" fill="none" stroke="black"/>
<path d="M75.5898,181.477h -7.05827" fill="none" stroke="black"/>
<path d="M75.5898,173h -7.05827" fill="none" stroke="black"/>
<path d="M75.5898,164.524h -7.05827" fill="none" stroke="black"/>
<path d="M75.5898,156.048h -7.05827" fill="none" stroke="black"/>
<path d="M82.648,147.571h -14.1165" fill="none" stroke="black"/>
<path d="M75.5898,139.095h -7.05827" fill="none" stroke="black"/>
<path d="M75.5898,130.618h -7.05827" fill="none" stroke="black"/>
<path d="M75.5898,122.142h -7.05827" fill="none" stroke="black"/>
<path d="M75.5898,113.666h -7.05827" fill="none" stroke="black"/>
<path d="M82.648,105.189h -14.1165" fill="none" stroke="black"/>
<path d="M75.5898,96.7127h -7.05827" fill="none" stroke="black"/>
<path d="M75.5898,88.2363h -7.05827" fill="none" stroke="black"/>
<path d="M75.5898,79.7599h -7.05827" fill="none" stroke="black"/>
<path d="M75.5898,71.2835h -7.05827" fill="none" stroke="black"/>
<path d="M82.648,62.8071h -14.1165" fill="none" stroke="black"/>
<path d="M75.5898,54.3307h -7.05827" fill="none" stroke="black"/>
<path d="M75.5898,45.8543h -7.05827" fill="none" stroke="black"/>
<path d="M75.5898,37.3779h -7.05827" fill="none" stroke="black"/>
<path d="M75.5898,28.9015h -7.05827" fill="none" stroke="black"/>
<path d="M82.648,20.4251h -14.1165" fill="none" stroke="black"/>
<path d="M82.648,359.481h -14.1165" fill="none" stroke="black"/>
<text xml:space="preserve" x="46.6784" y="364.454" fill="black" font-size="13.617" font-family="Helvetica">0.7</text>
<text xml:space="preserve" x="46.6784" y="321.828" fill="black" font-size="13.617" font-family="Helvetica">0.8</text>
<text xml:space="preserve" x="46.6784" y="279.202" fill="black" font-size="13.617" font-family="Helvetica">0.9</text>
<text xml:space="preserve" x="60.1768" y="237.997" fill="black" font-size="13.617" font-family="Helvetica">1</text>
<text xml:space="preserve" x="48.8097" y="195.37" fill="black" font-size="13.617" font-family="Helvetica">1.1</text>
<text xml:space="preserve" x="46.6784" y="152.744" fill="black" font-size="13.617" font-family="Helvetica">1.2</text>
<text xml:space="preserve" x="46.6784" y="110.118" fill="black" font-size="13.617" font-family="Helvetica">1.3</text>
<text xml:space="preserve" x="46.6784" y="68.202" fill="black" font-size="13.617" font-family="Helvetica">1.4</text>
<text xml:space="preserve" x="46.6784" y="24.8653" fill="black" font-size="13.617" font-family="Helvetica">1.5</text>
<g transform="rotate(-90,40.9949,33.3906)">
<text xml:space="preserve" x="40.9949" y="33.3906" fill="black" font-size="9.24468" font-family="Helvetica">MB</text>
</g>
<g transform="rotate(-90,33.1801,36.9428)">
<text xml:space="preserve" x="33.1801" y="36.9428" fill="black" font-size="13.617" font-family="Helvetica">)</text>
</g>
<g transform="rotate(-90,21.8131,43.3367)">
<text xml:space="preserve" x="21.8131" y="43.3367" fill="black" font-size="6.32979" font-family="Helvetica">dir</text>
</g>
<g transform="rotate(-90,25.3653,48.3098)">
<text xml:space="preserve" x="25.3653" y="48.3098" fill="black" font-size="9.24468" font-family="Times">&#0947;</text>
</g>
<g transform="rotate(-90,33.1801,61.8081)">
<text xml:space="preserve" x="33.1801" y="61.8081" fill="black" font-size="13.617" font-family="Helvetica">/Y</text>
</g>
<g transform="rotate(-90,23.234,65.3603)">
<text xml:space="preserve" x="23.234" y="65.3603" fill="black" font-size="6.32979" font-family="Helvetica">0</text>
</g>
<g transform="rotate(-90,26.7862,70.3333)">
<text xml:space="preserve" x="26.7862" y="70.3333" fill="black" font-size="9.24468" font-family="Times">&#0960;</text>
</g>
<g transform="rotate(-90,33.1801,95.1986)">
<text xml:space="preserve" x="33.1801" y="95.1986" fill="black" font-size="13.617" font-family="Helvetica"> / (Y</text>
</g>
<g transform="rotate(-90,40.2845,112.96)">
<text xml:space="preserve" x="40.2845" y="112.96" fill="black" font-size="9.24468" font-family="Helvetica">cent</text>
</g>
<g transform="rotate(-90,33.1801,116.512)">
<text xml:space="preserve" x="33.1801" y="116.512" fill="black" font-size="13.617" font-family="Helvetica">)</text>
</g>
<g transform="rotate(-90,21.1027,122.906)">
<text xml:space="preserve" x="21.1027" y="122.906" fill="black" font-size="6.32979" font-family="Helvetica">dir</text>
</g>
<g transform="rotate(-90,25.3653,127.879)">
<text xml:space="preserve" x="25.3653" y="127.879" fill="black" font-size="9.24468" font-family="Times">&#0947;</text>
</g>
<g transform="rotate(-90,33.1801,141.377)">
<text xml:space="preserve" x="33.1801" y="141.377" fill="black" font-size="13.617" font-family="Helvetica">/Y</text>
</g>
<g transform="rotate(-90,22.5236,144.929)">
<text xml:space="preserve" x="22.5236" y="144.929" fill="black" font-size="6.32979" font-family="Helvetica">0</text>
</g>
<g transform="rotate(-90,26.7862,149.902)">
<text xml:space="preserve" x="26.7862" y="149.902" fill="black" font-size="9.24468" font-family="Times">&#0960;</text>
</g>
<g transform="rotate(-90,33.1801,163.401)">
<text xml:space="preserve" x="33.1801" y="163.401" fill="black" font-size="13.617" font-family="Helvetica">(Y</text>
</g>
<path d="M499.398,359.481v -339.056" fill="none" stroke="black"/>
<path d="M485.281,359.481h 14.1165" fill="none" stroke="black"/>
<path d="M492.339,351.005h 7.05827" fill="none" stroke="black"/>
<path d="M492.339,342.529h 7.05827" fill="none" stroke="black"/>
<path d="M492.339,334.052h 7.05827" fill="none" stroke="black"/>
<path d="M492.339,325.576h 7.05827" fill="none" stroke="black"/>
<path d="M485.281,317.099h 14.1165" fill="none" stroke="black"/>
<path d="M492.339,308.623h 7.05827" fill="none" stroke="black"/>
<path d="M492.339,300.147h 7.05827" fill="none" stroke="black"/>
<path d="M492.339,291.67h 7.05827" fill="none" stroke="black"/>
<path d="M492.339,283.194h 7.05827" fill="none" stroke="black"/>
<path d="M485.281,274.717h 14.1165" fill="none" stroke="black"/>
<path d="M492.339,266.241h 7.05827" fill="none" stroke="black"/>
<path d="M492.339,257.764h 7.05827" fill="none" stroke="black"/>
<path d="M492.339,249.288h 7.05827" fill="none" stroke="black"/>
<path d="M492.339,240.812h 7.05827" fill="none" stroke="black"/>
<path d="M485.281,232.335h 14.1165" fill="none" stroke="black"/>
<path d="M492.339,223.859h 7.05827" fill="none" stroke="black"/>
<path d="M492.339,215.382h 7.05827" fill="none" stroke="black"/>
<path d="M492.339,206.906h 7.05827" fill="none" stroke="black"/>
<path d="M492.339,198.43h 7.05827" fill="none" stroke="black"/>
<path d="M485.281,189.953h 14.1165" fill="none" stroke="black"/>
<path d="M492.339,181.477h 7.05827" fill="none" stroke="black"/>
<path d="M492.339,173h 7.05827" fill="none" stroke="black"/>
<path d="M492.339,164.524h 7.05827" fill="none" stroke="black"/>
<path d="M492.339,156.048h 7.05827" fill="none" stroke="black"/>
<path d="M485.281,147.571h 14.1165" fill="none" stroke="black"/>
<path d="M492.339,139.095h 7.05827" fill="none" stroke="black"/>
<path d="M492.339,130.618h 7.05827" fill="none" stroke="black"/>
<path d="M492.339,122.142h 7.05827" fill="none" stroke="black"/>
<path d="M492.339,113.666h 7.05827" fill="none" stroke="black"/>
<path d="M485.281,105.189h 14.1165" fill="none" stroke="black"/>
<path d="M492.339,96.7127h 7.05827" fill="none" stroke="black"/>
<path d="M492.339,88.2363h 7.05827" fill="none" stroke="black"/>
<path d="M492.339,79.7599h 7.05827" fill="none" stroke="black"/>
<path d="M492.339,71.2835h 7.05827" fill="none" stroke="black"/>
<path d="M485.281,62.8071h 14.1165" fill="none" stroke="black"/>
<path d="M492.339,54.3307h 7.05827" fill="none" stroke="black"/>
<path d="M492.339,45.8543h 7.05827" fill="none" stroke="black"/>
<path d="M492.339,37.3779h 7.05827" fill="none" stroke="black"/>
<path d="M492.339,28.9015h 7.05827" fill="none" stroke="black"/>
<path d="M485.281,20.4251h 14.1165" fill="none" stroke="black"/>
<path d="M485.281,359.481h 14.1165" fill="none" stroke="black"/>
<path d="M68.5315,200.793h 9.12675" fill="none" stroke="#cc00ff"/>
<path d="M83.3418,200.793h 9.12675" fill="none" stroke="#cc00ff"/>
<g fill="#cc00ff">
<polygon points=" 79.5527, 199.845 79.5527, 197.951 81.4473, 197.951 81.4473, 199.845 83.3418, 199.845 83.3418, 201.74 81.4473, 201.74 81.4473, 203.634 79.5527, 203.634 79.5527, 201.74 77.6582, 201.74 77.6582, 199.845"/>
</g>
<path d="M92.4685,206.174h 21.0953" fill="none" stroke="#cc00ff"/>
<path d="M119.247,206.174h 21.0953" fill="none" stroke="#cc00ff"/>
<g fill="#cc00ff">
<polygon points=" 115.458, 205.227 115.458, 203.333 117.353, 203.333 117.353, 205.227 119.247, 205.227 119.247, 207.122 117.353, 207.122 117.353, 209.016 115.458, 209.016 115.458, 207.122 113.564, 207.122 113.564, 205.227"/>
</g>
<path d="M164.28,219.96v -0.618319" fill="none" stroke="#cc00ff"/>
<path d="M164.28,213.658v -0.618319" fill="none" stroke="#cc00ff"/>
<path d="M140.343,216.5h 21.0953" fill="none" stroke="#cc00ff"/>
<path d="M167.121,216.5h 21.0953" fill="none" stroke="#cc00ff"/>
<g fill="#cc00ff">
<polygon points=" 163.332, 215.553 163.332, 213.658 165.227, 213.658 165.227, 215.553 167.121, 215.553 167.121, 217.447 165.227, 217.447 165.227, 219.342 163.332, 219.342 163.332, 217.447 161.438, 217.447 161.438, 215.553"/>
</g>
<path d="M212.154,246.099v -4.58962" fill="none" stroke="#cc00ff"/>
<path d="M212.154,235.826v -4.58962" fill="none" stroke="#cc00ff"/>
<path d="M188.217,238.668h 21.0953" fill="none" stroke="#cc00ff"/>
<path d="M214.995,238.668h 21.0953" fill="none" stroke="#cc00ff"/>
<g fill="#cc00ff">
<polygon points=" 211.206, 237.721 211.206, 235.826 213.101, 235.826 213.101, 237.721 214.995, 237.721 214.995, 239.615 213.101, 239.615 213.101, 241.51 211.206, 241.51 211.206, 239.615 209.312, 239.615 209.312, 237.721"/>
</g>
<path d="M260.028,246.462v -12.052" fill="none" stroke="#cc00ff"/>
<path d="M260.028,228.726v -12.052" fill="none" stroke="#cc00ff"/>
<path d="M236.091,231.568h 21.0953" fill="none" stroke="#cc00ff"/>
<path d="M262.869,231.568h 21.0953" fill="none" stroke="#cc00ff"/>
<g fill="#cc00ff">
<polygon points=" 259.08, 230.621 259.08, 228.726 260.975, 228.726 260.975, 230.621 262.869, 230.621 262.869, 232.515 260.975, 232.515 260.975, 234.41 259.08, 234.41 259.08, 232.515 257.186, 232.515 257.186, 230.621"/>
</g>
<path d="M331.839,252.584v -19.3299" fill="none" stroke="#cc00ff"/>
<path d="M331.839,227.571v -19.3299" fill="none" stroke="#cc00ff"/>
<path d="M283.965,230.412h 45.0323" fill="none" stroke="#cc00ff"/>
<path d="M334.68,230.412h 45.0323" fill="none" stroke="#cc00ff"/>
<g fill="#cc00ff">
<polygon points=" 330.891, 229.465 330.891, 227.571 332.786, 227.571 332.786, 229.465 334.68, 229.465 334.68, 231.36 332.786, 231.36 332.786, 233.254 330.891, 233.254 330.891, 231.36 328.997, 231.36 328.997, 229.465"/>
</g>
<path d="M439.555,248.525v -60.219" fill="none" stroke="#cc00ff"/>
<path d="M439.555,182.623v -60.219" fill="none" stroke="#cc00ff"/>
<path d="M379.713,185.464h 57.0008" fill="none" stroke="#cc00ff"/>
<path d="M442.397,185.464h 57.0008" fill="none" stroke="#cc00ff"/>
<g fill="#cc00ff">
<polygon points=" 438.608, 184.517 438.608, 182.623 440.502, 182.623 440.502, 184.517 442.397, 184.517 442.397, 186.412 440.502, 186.412 440.502, 188.306 438.608, 188.306 438.608, 186.412 436.713, 186.412 436.713, 184.517"/>
</g>
<path d="M68.5315,209.592h 9.12675" fill="none" stroke="#0000ff"/>
<path d="M83.3418,209.592h 9.12675" fill="none" stroke="#0000ff"/>
<g fill="#0000ff">
<polygon points=" 79.5527, 208.635 79.5527, 206.75 81.4473, 206.75 81.4473, 208.645 83.3418, 208.645 83.3418, 210.539 81.4473, 210.539 81.4473, 212.434 79.5527, 212.434 79.5527, 210.539 77.6582, 210.539 77.6582, 208.645 79.5527, 208.654 79.5527,
 210.539 81.4473, 210.539 81.4473, 208.645"/>
</g>
<path d="M92.4685,211.034h 21.0953" fill="none" stroke="#0000ff"/>
<path d="M119.247,211.034h 21.0953" fill="none" stroke="#0000ff"/>
<g fill="#0000ff">
<polygon points=" 115.458, 210.078 115.458, 208.193 117.353, 208.193 117.353, 210.087 119.247, 210.087 119.247, 211.982 117.353, 211.982 117.353, 213.876 115.458, 213.876 115.458, 211.982 113.564, 211.982 113.564, 210.087 115.458, 210.097 115.458,
 211.982 117.353, 211.982 117.353, 210.087"/>
</g>
<path d="M164.28,226.218v -0.615074" fill="none" stroke="#0000ff"/>
<path d="M164.28,219.919v -0.615074" fill="none" stroke="#0000ff"/>
<path d="M140.343,222.761h 21.0953" fill="none" stroke="#0000ff"/>
<path d="M167.121,222.761h 21.0953" fill="none" stroke="#0000ff"/>
<g fill="#0000ff">
<polygon points=" 163.332, 221.804 163.332, 219.919 165.227, 219.919 165.227, 221.813 167.121, 221.813 167.121, 223.708 165.227, 223.708 165.227, 225.602 163.332, 225.602 163.332, 223.708 161.438, 223.708 161.438, 221.813 163.332, 221.823 163.332,
 223.708 165.227, 223.708 165.227, 221.813"/>
</g>
<path d="M212.154,239.08v -4.80189" fill="none" stroke="#0000ff"/>
<path d="M212.154,228.595v -4.80189" fill="none" stroke="#0000ff"/>
<path d="M188.217,231.437h 21.0953" fill="none" stroke="#0000ff"/>
<path d="M214.995,231.437h 21.0953" fill="none" stroke="#0000ff"/>
<g fill="#0000ff">
<polygon points=" 211.206, 230.48 211.206, 228.595 213.101, 228.595 213.101, 230.49 214.995, 230.49 214.995, 232.384 213.101, 232.384 213.101, 234.279 211.206, 234.279 211.206, 232.384 209.312, 232.384 209.312, 230.49 211.206, 230.499 211.206,
 232.384 213.101, 232.384 213.101, 230.49"/>
</g>
<path d="M260.028,245.765v -11.9445" fill="none" stroke="#0000ff"/>
<path d="M260.028,228.137v -11.9445" fill="none" stroke="#0000ff"/>
<path d="M236.091,230.979h 21.0953" fill="none" stroke="#0000ff"/>
<path d="M262.869,230.979h 21.0953" fill="none" stroke="#0000ff"/>
<g fill="#0000ff">
<polygon points=" 259.08, 230.022 259.08, 228.137 260.975, 228.137 260.975, 230.032 262.869, 230.032 262.869, 231.926 260.975, 231.926 260.975, 233.821 259.08, 233.821 259.08, 231.926 257.186, 231.926 257.186, 230.032 259.08, 230.041 259.08, 231.926
 260.975, 231.926 260.975, 230.032"/>
</g>
<path d="M331.839,285.957v -16.3716" fill="none" stroke="#0000ff"/>
<path d="M331.839,263.902v -16.3716" fill="none" stroke="#0000ff"/>
<path d="M283.965,266.744h 45.0323" fill="none" stroke="#0000ff"/>
<path d="M334.68,266.744h 45.0323" fill="none" stroke="#0000ff"/>
<g fill="#0000ff">
<polygon points=" 330.891, 265.787 330.891, 263.902 332.786, 263.902 332.786, 265.796 334.68, 265.796 334.68, 267.691 332.786, 267.691 332.786, 269.585 330.891, 269.585 330.891, 267.691 328.997, 267.691 328.997, 265.796 330.891, 265.806 330.891,
 267.691 332.786, 267.691 332.786, 265.796"/>
</g>
<path d="M439.555,291.857v -49.0976" fill="none" stroke="#0000ff"/>
<path d="M439.555,237.076v -49.0976" fill="none" stroke="#0000ff"/>
<path d="M379.713,239.917h 57.0008" fill="none" stroke="#0000ff"/>
<path d="M442.397,239.917h 57.0008" fill="none" stroke="#0000ff"/>
<g fill="#0000ff">
<polygon points=" 438.608, 238.961 438.608, 237.076 440.502, 237.076 440.502, 238.97 442.397, 238.97 442.397, 240.865 440.502, 240.865 440.502, 242.759 438.608, 242.759 438.608, 240.865 436.713, 240.865 436.713, 238.97 438.608, 238.98 438.608,
 240.865 440.502, 240.865 440.502, 238.97"/>
</g>
<path d="M68.5315,220.039h 9.12675" fill="none" stroke="#00cc00"/>
<path d="M83.3418,220.039h 9.12675" fill="none" stroke="#00cc00"/>
<g stroke="#00cc00" stroke-width="1" fill="none">
<polygon points=" 79.5527, 219.092 79.5527, 217.197 81.4473, 217.197 81.4473, 219.092 83.3418, 219.092 83.3418, 220.986 81.4473, 220.986 81.4473, 222.881 79.5527, 222.881 79.5527, 220.986 77.6582, 220.986 77.6582, 219.092"/>
</g>
<path d="M92.4685,221.862h 21.0953" fill="none" stroke="#00cc00"/>
<path d="M119.247,221.862h 21.0953" fill="none" stroke="#00cc00"/>
<g stroke="#00cc00" stroke-width="1" fill="none">
<polygon points=" 115.458, 220.915 115.458, 219.02 117.353, 219.02 117.353, 220.915 119.247, 220.915 119.247, 222.809 117.353, 222.809 117.353, 224.704 115.458, 224.704 115.458, 222.809 113.564, 222.809 113.564, 220.915"/>
</g>
<path d="M140.343,227.274h 21.0953" fill="none" stroke="#00cc00"/>
<path d="M167.121,227.274h 21.0953" fill="none" stroke="#00cc00"/>
<g stroke="#00cc00" stroke-width="1" fill="none">
<polygon points=" 163.332, 226.327 163.332, 224.433 165.227, 224.433 165.227, 226.327 167.121, 226.327 167.121, 228.222 165.227, 228.222 165.227, 230.116 163.332, 230.116 163.332, 228.222 161.438, 228.222 161.438, 226.327"/>
</g>
<path d="M212.154,230.087v -3.09171" fill="none" stroke="#00cc00"/>
<path d="M212.154,221.312v -3.09171" fill="none" stroke="#00cc00"/>
<path d="M188.217,224.153h 21.0953" fill="none" stroke="#00cc00"/>
<path d="M214.995,224.153h 21.0953" fill="none" stroke="#00cc00"/>
<g stroke="#00cc00" stroke-width="1" fill="none">
<polygon points=" 211.206, 223.206 211.206, 221.312 213.101, 221.312 213.101, 223.206 214.995, 223.206 214.995, 225.101 213.101, 225.101 213.101, 226.995 211.206, 226.995 211.206, 225.101 209.312, 225.101 209.312, 223.206"/>
</g>
<path d="M260.028,244.495v -8.13616" fill="none" stroke="#00cc00"/>
<path d="M260.028,230.676v -8.13616" fill="none" stroke="#00cc00"/>
<path d="M236.091,233.517h 21.0953" fill="none" stroke="#00cc00"/>
<path d="M262.869,233.517h 21.0953" fill="none" stroke="#00cc00"/>
<g stroke="#00cc00" stroke-width="1" fill="none">
<polygon points=" 259.08, 232.57 259.08, 230.676 260.975, 230.676 260.975, 232.57 262.869, 232.57 262.869, 234.465 260.975, 234.465 260.975, 236.359 259.08, 236.359 259.08, 234.465 257.186, 234.465 257.186, 232.57"/>
</g>
<path d="M331.839,230.62v -14.1675" fill="none" stroke="#00cc00"/>
<path d="M331.839,210.769v -14.1675" fill="none" stroke="#00cc00"/>
<path d="M283.965,213.61h 45.0323" fill="none" stroke="#00cc00"/>
<path d="M334.68,213.61h 45.0323" fill="none" stroke="#00cc00"/>
<g stroke="#00cc00" stroke-width="1" fill="none">
<polygon points=" 330.891, 212.663 330.891, 210.769 332.786, 210.769 332.786, 212.663 334.68, 212.663 334.68, 214.558 332.786, 214.558 332.786, 216.452 330.891, 216.452 330.891, 214.558 328.997, 214.558 328.997, 212.663"/>
</g>
<path d="M439.555,312.335v -30.1107" fill="none" stroke="#00cc00"/>
<path d="M439.555,276.541v -30.1107" fill="none" stroke="#00cc00"/>
<path d="M379.713,279.383h 57.0008" fill="none" stroke="#00cc00"/>
<path d="M442.397,279.383h 57.0008" fill="none" stroke="#00cc00"/>
<g stroke="#00cc00" stroke-width="1" fill="none">
<polygon points=" 438.608, 278.436 438.608, 276.541 440.502, 276.541 440.502, 278.436 442.397, 278.436 442.397, 280.33 440.502, 280.33 440.502, 282.225 438.608, 282.225 438.608, 280.33 436.713, 280.33 436.713, 278.436"/>
</g>
<path d="M68.5315,234.313h 10.5476" fill="none" stroke="#ffcc00"/>
<path d="M81.9209,234.313h 10.5476" fill="none" stroke="#ffcc00"/>
<g fill="#ffcc00">
<polygon points=" 80.5, 235.748 79.0791, 237.154 77.6582, 235.733 79.0791, 234.313 77.6582, 232.892 79.0791, 231.471 80.5, 232.892 81.9209, 231.471 83.3418, 232.892 81.9209, 234.313 83.3418, 235.733 81.9209, 237.154 80.5, 235.719 81.9067, 234.313
 80.5, 232.906 79.0933, 234.313 80.5, 235.719"/>
</g>
<path d="M92.4685,231.675h 22.5161" fill="none" stroke="#ffcc00"/>
<path d="M117.826,231.675h 22.5161" fill="none" stroke="#ffcc00"/>
<g fill="#ffcc00">
<polygon points=" 116.406, 233.111 114.985, 234.517 113.564, 233.096 114.985, 231.675 113.564, 230.255 114.985, 228.834 116.406, 230.255 117.826, 228.834 119.247, 230.255 117.826, 231.675 119.247, 233.096 117.826, 234.517 116.406, 233.082 117.812,
 231.675 116.406, 230.269 114.999, 231.675 116.406, 233.082"/>
</g>
<path d="M164.28,232.617v -1.32813" fill="none" stroke="#ffcc00"/>
<path d="M164.28,228.447v -1.32813" fill="none" stroke="#ffcc00"/>
<path d="M140.343,229.868h 22.5161" fill="none" stroke="#ffcc00"/>
<path d="M165.7,229.868h 22.5161" fill="none" stroke="#ffcc00"/>
<g fill="#ffcc00">
<polygon points=" 164.28, 231.303 162.859, 232.709 161.438, 231.289 162.859, 229.868 161.438, 228.447 162.859, 227.026 164.28, 228.447 165.7, 227.026 167.121, 228.447 165.7, 229.868 167.121, 231.289 165.7, 232.709 164.28, 231.274 165.686, 229.868
 164.28, 228.461 162.873, 229.868 164.28, 231.274"/>
</g>
<path d="M212.154,232.052v -4.75112" fill="none" stroke="#ffcc00"/>
<path d="M212.154,224.459v -4.75112" fill="none" stroke="#ffcc00"/>
<path d="M188.217,225.88h 22.5161" fill="none" stroke="#ffcc00"/>
<path d="M213.574,225.88h 22.5161" fill="none" stroke="#ffcc00"/>
<g fill="#ffcc00">
<polygon points=" 212.154, 227.315 210.733, 228.722 209.312, 227.301 210.733, 225.88 209.312, 224.459 210.733, 223.039 212.154, 224.459 213.574, 223.039 214.995, 224.459 213.574, 225.88 214.995, 227.301 213.574, 228.722 212.154, 227.287 213.56,
 225.88 212.154, 224.474 210.747, 225.88 212.154, 227.287"/>
</g>
<path d="M260.028,246.362v -9.91093" fill="none" stroke="#ffcc00"/>
<path d="M260.028,233.61v -9.91093" fill="none" stroke="#ffcc00"/>
<path d="M236.091,235.031h 22.5161" fill="none" stroke="#ffcc00"/>
<path d="M261.448,235.031h 22.5161" fill="none" stroke="#ffcc00"/>
<g fill="#ffcc00">
<polygon points=" 260.028, 236.466 258.607, 237.872 257.186, 236.451 258.607, 235.031 257.186, 233.61 258.607, 232.189 260.028, 233.61 261.448, 232.189 262.869, 233.61 261.448, 235.031 262.869, 236.451 261.448, 237.872 260.028, 236.437 261.434,
 235.031 260.028, 233.624 258.621, 235.031 260.028, 236.437"/>
</g>
<path d="M331.839,266.502v -14.0382" fill="none" stroke="#ffcc00"/>
<path d="M331.839,249.622v -14.0382" fill="none" stroke="#ffcc00"/>
<path d="M283.965,251.043h 46.4531" fill="none" stroke="#ffcc00"/>
<path d="M333.259,251.043h 46.4531" fill="none" stroke="#ffcc00"/>
<g fill="#ffcc00">
<polygon points=" 331.839, 252.478 330.418, 253.885 328.997, 252.464 330.418, 251.043 328.997, 249.622 330.418, 248.201 331.839, 249.622 333.259, 248.201 334.68, 249.622 333.259, 251.043 334.68, 252.464 333.259, 253.885 331.839, 252.45 333.245,
 251.043 331.839, 249.637 330.432, 251.043 331.839, 252.45"/>
</g>
<path d="M439.555,246.385v -42.1077" fill="none" stroke="#ffcc00"/>
<path d="M439.555,201.436v -42.1077" fill="none" stroke="#ffcc00"/>
<path d="M379.713,202.856h 58.4216" fill="none" stroke="#ffcc00"/>
<path d="M440.976,202.856h 58.4216" fill="none" stroke="#ffcc00"/>
<g fill="#ffcc00">
<polygon points=" 439.555, 204.292 438.134, 205.698 436.713, 204.277 438.134, 202.856 436.713, 201.436 438.134, 200.015 439.555, 201.436 440.976, 200.015 442.397, 201.436 440.976, 202.856 442.397, 204.277 440.976, 205.698 439.555, 204.263 440.962,
 202.856 439.555, 201.45 438.148, 202.856 439.555, 204.263"/>
</g>
<path d="M68.5315,254.262h 10.5476" fill="none" stroke="#ff0000"/>
<path d="M81.9209,254.262h 10.5476" fill="none" stroke="#ff0000"/>
<g fill="#ff0000">
<polygon points=" 80.5, 255.683 79.0791, 257.104 77.6582, 255.683 79.0791, 254.262 77.6582, 252.841 79.0791, 251.42 80.5, 252.841 81.9209, 251.42 83.3418, 252.841 81.9209, 254.262 83.3418, 255.683 81.9209, 257.104 80.5, 255.683"/>
</g>
<path d="M92.4685,250.91h 22.5161" fill="none" stroke="#ff0000"/>
<path d="M117.826,250.91h 22.5161" fill="none" stroke="#ff0000"/>
<g fill="#ff0000">
<polygon points=" 116.406, 252.331 114.985, 253.751 113.564, 252.331 114.985, 250.91 113.564, 249.489 114.985, 248.068 116.406, 249.489 117.826, 248.068 119.247, 249.489 117.826, 250.91 119.247, 252.331 117.826, 253.751 116.406, 252.331"/>
</g>
<path d="M164.28,242.368v -1.55439" fill="none" stroke="#ff0000"/>
<path d="M164.28,237.972v -1.55439" fill="none" stroke="#ff0000"/>
<path d="M140.343,239.393h 22.5161" fill="none" stroke="#ff0000"/>
<path d="M165.7,239.393h 22.5161" fill="none" stroke="#ff0000"/>
<g fill="#ff0000">
<polygon points=" 164.28, 240.814 162.859, 242.235 161.438, 240.814 162.859, 239.393 161.438, 237.972 162.859, 236.551 164.28, 237.972 165.7, 236.551 167.121, 237.972 165.7, 239.393 167.121, 240.814 165.7, 242.235 164.28, 240.814"/>
</g>
<path d="M212.154,244.367v -5.10524" fill="none" stroke="#ff0000"/>
<path d="M212.154,236.42v -5.10524" fill="none" stroke="#ff0000"/>
<path d="M188.217,237.841h 22.5161" fill="none" stroke="#ff0000"/>
<path d="M213.574,237.841h 22.5161" fill="none" stroke="#ff0000"/>
<g fill="#ff0000">
<polygon points=" 212.154, 239.262 210.733, 240.683 209.312, 239.262 210.733, 237.841 209.312, 236.42 210.733, 234.999 212.154, 236.42 213.574, 234.999 214.995, 236.42 213.574, 237.841 214.995, 239.262 213.574, 240.683 212.154, 239.262"/>
</g>
<path d="M260.028,232.351v -11.5788" fill="none" stroke="#ff0000"/>
<path d="M260.028,217.93v -11.5788" fill="none" stroke="#ff0000"/>
<path d="M236.091,219.351h 22.5161" fill="none" stroke="#ff0000"/>
<path d="M261.448,219.351h 22.5161" fill="none" stroke="#ff0000"/>
<g fill="#ff0000">
<polygon points=" 260.028, 220.772 258.607, 222.193 257.186, 220.772 258.607, 219.351 257.186, 217.93 258.607, 216.509 260.028, 217.93 261.448, 216.509 262.869, 217.93 261.448, 219.351 262.869, 220.772 261.448, 222.193 260.028, 220.772"/>
</g>
<path d="M331.839,229.545v -17.7204" fill="none" stroke="#ff0000"/>
<path d="M331.839,208.983v -17.7204" fill="none" stroke="#ff0000"/>
<path d="M283.965,210.404h 46.4531" fill="none" stroke="#ff0000"/>
<path d="M333.259,210.404h 46.4531" fill="none" stroke="#ff0000"/>
<g fill="#ff0000">
<polygon points=" 331.839, 211.825 330.418, 213.246 328.997, 211.825 330.418, 210.404 328.997, 208.983 330.418, 207.562 331.839, 208.983 333.259, 207.562 334.68, 208.983 333.259, 210.404 334.68, 211.825 333.259, 213.246 331.839, 211.825"/>
</g>
<path d="M439.555,250.513v -44.459" fill="none" stroke="#ff0000"/>
<path d="M439.555,203.212v -44.459" fill="none" stroke="#ff0000"/>
<path d="M379.713,204.633h 58.4216" fill="none" stroke="#ff0000"/>
<path d="M440.976,204.633h 58.4216" fill="none" stroke="#ff0000"/>
<g fill="#ff0000">
<polygon points=" 439.555, 206.053 438.134, 207.474 436.713, 206.053 438.134, 204.633 436.713, 203.212 438.134, 201.791 439.555, 203.212 440.976, 201.791 442.397, 203.212 440.976, 204.633 442.397, 206.053 440.976, 207.474 439.555, 206.053"/>
</g>
<text xml:space="preserve" x="85.7525" y="54.7037" fill="black" font-size="15.4909" font-family="Helvetica">PYTHIA8, pAu200GeV with option3</text>
<text xml:space="preserve" x="158.928" y="73.8855" fill="black" font-size="15.4909" font-family="Helvetica">|&lt;1</text>
<text xml:space="preserve" x="150.402" y="73.8855" fill="black" font-size="15.4909" font-family="Times">&#0951;</text>
<text xml:space="preserve" x="127.668" y="73.8855" fill="black" font-size="15.4909" font-family="Helvetica"> in |</text>
<text xml:space="preserve" x="121.985" y="68.202" fill="black" font-size="10.4939" font-family="Helvetica">0</text>
<text xml:space="preserve" x="113.46" y="73.8855" fill="black" font-size="15.4909" font-family="Times">&#0960;</text>
<text xml:space="preserve" x="104.934" y="73.8855" fill="black" font-size="15.4909" font-family="Helvetica">, </text>
<text xml:space="preserve" x="93.5673" y="68.202" fill="black" font-size="10.4939" font-family="Helvetica">dir</text>
<text xml:space="preserve" x="85.7525" y="73.8855" fill="black" font-size="15.4909" font-family="Times">&#0947;</text>
<text xml:space="preserve" x="141.877" y="93.0673" fill="black" font-size="15.4909" font-family="Helvetica">centrality: 0~10%</text>
<g fill="#cc00ff">
<polygon points=" 110.104, 88.0477 110.104, 86.1532 111.998, 86.1532 111.998, 88.0477 113.893, 88.0477 113.893, 89.9422 111.998, 89.9422 111.998, 91.8367 110.104, 91.8367 110.104, 89.9422 108.209, 89.9422 108.209, 88.0477"/>
</g>
<text xml:space="preserve" x="141.877" y="112.249" fill="black" font-size="15.4909" font-family="Helvetica">centrality: 10~20%</text>
<g fill="#0000ff">
<polygon points=" 110.104, 107.296 110.104, 105.411 111.998, 105.411 111.998, 107.306 113.893, 107.306 113.893, 109.2 111.998, 109.2 111.998, 111.095 110.104, 111.095 110.104, 109.2 108.209, 109.2 108.209, 107.306 110.104, 107.315 110.104, 109.2
 111.998, 109.2 111.998, 107.306"/>
</g>
<text xml:space="preserve" x="141.877" y="131.431" fill="black" font-size="15.4909" font-family="Helvetica">centrality: 20~40%</text>
<g stroke="#00cc00" stroke-width="1" fill="none">
<polygon points=" 110.104, 126.564 110.104, 124.669 111.998, 124.669 111.998, 126.564 113.893, 126.564 113.893, 128.458 111.998, 128.458 111.998, 130.353 110.104, 130.353 110.104, 128.458 108.209, 128.458 108.209, 126.564"/>
</g>
<text xml:space="preserve" x="141.877" y="150.613" fill="black" font-size="15.4909" font-family="Helvetica">centrality: 40~60%</text>
<g fill="#ffcc00">
<polygon points=" 111.051, 148.204 109.63, 149.611 108.209, 148.19 109.63, 146.769 108.209, 145.348 109.63, 143.927 111.051, 145.348 112.472, 143.927 113.893, 145.348 112.472, 146.769 113.893, 148.19 112.472, 149.611 111.051, 148.175 112.458, 146.769
 111.051, 145.362 109.645, 146.769 111.051, 148.175"/>
</g>
<text xml:space="preserve" x="141.877" y="169.795" fill="black" font-size="15.4909" font-family="Helvetica">centrality: 60~80%</text>
<g fill="#ff0000">
<polygon points=" 111.051, 167.448 109.63, 168.868 108.209, 167.448 109.63, 166.027 108.209, 164.606 109.63, 163.185 111.051, 164.606 112.472, 163.185 113.893, 164.606 112.472, 166.027 113.893, 167.448 112.472, 168.868 111.051, 167.448"/>
</g></svg>
