<?xml version="1.0" standalone="no"?>
<svg width="567.429" height="409.002" viewBox="0 0 567.429 409.002" xmlns="http://www.w3.org/2000/svg" shape-rendering="crispEdges">
<title>
/Users/jinhyunpark/npl/gitHub/Centrality_dependent_BiasCorrection/plots/plots_scaled-dNdpT/ratio_ratioCent2MB_dir2pion0_byCentrality.svg
</title>
<desc>
Creator: ROOT Version 6.28/04
CreationDate: Sun Oct 22 15:55:24 2023</desc>
<defs>
</defs>
<rect x="0.5" y="0" width="566.929" height="408.502" fill="white"/>
<rect x="85.5394" y="20.4251" width="396.85" height="339.056" fill="white"/>
<rect x="85.5394" y="20.4251" width="396.85" height="339.056" fill="none" stroke="black"/>
<rect x="85.5394" y="20.4251" width="396.85" height="339.056" fill="white"/>
<rect x="85.5394" y="20.4251" width="396.85" height="339.056" fill="none" stroke="black"/>
<path d="M85.5394,359.481h 396.85" fill="none" stroke="black"/>
<path d="M85.5394,350.903v 8.57853" fill="none" stroke="black"/>
<path d="M100.803,355.192v 4.28927" fill="none" stroke="black"/>
<path d="M116.066,355.192v 4.28927" fill="none" stroke="black"/>
<path d="M131.33,355.192v 4.28927" fill="none" stroke="black"/>
<path d="M146.593,350.903v 8.57853" fill="none" stroke="black"/>
<path d="M161.857,355.192v 4.28927" fill="none" stroke="black"/>
<path d="M177.12,355.192v 4.28927" fill="none" stroke="black"/>
<path d="M192.384,355.192v 4.28927" fill="none" stroke="black"/>
<path d="M207.647,350.903v 8.57853" fill="none" stroke="black"/>
<path d="M222.911,355.192v 4.28927" fill="none" stroke="black"/>
<path d="M238.174,355.192v 4.28927" fill="none" stroke="black"/>
<path d="M253.438,355.192v 4.28927" fill="none" stroke="black"/>
<path d="M268.701,350.903v 8.57853" fill="none" stroke="black"/>
<path d="M283.965,355.192v 4.28927" fill="none" stroke="black"/>
<path d="M299.228,355.192v 4.28927" fill="none" stroke="black"/>
<path d="M314.492,355.192v 4.28927" fill="none" stroke="black"/>
<path d="M329.755,350.903v 8.57853" fill="none" stroke="black"/>
<path d="M345.018,355.192v 4.28927" fill="none" stroke="black"/>
<path d="M360.282,355.192v 4.28927" fill="none" stroke="black"/>
<path d="M375.545,355.192v 4.28927" fill="none" stroke="black"/>
<path d="M390.809,350.903v 8.57853" fill="none" stroke="black"/>
<path d="M406.072,355.192v 4.28927" fill="none" stroke="black"/>
<path d="M421.336,355.192v 4.28927" fill="none" stroke="black"/>
<path d="M436.599,355.192v 4.28927" fill="none" stroke="black"/>
<path d="M451.863,350.903v 8.57853" fill="none" stroke="black"/>
<path d="M451.863,350.903v 8.57853" fill="none" stroke="black"/>
<path d="M467.126,355.192v 4.28927" fill="none" stroke="black"/>
<text xml:space="preserve" x="81.4899" y="372.269" fill="black" font-size="13.617" font-family="Helvetica">2</text>
<text xml:space="preserve" x="142.588" y="372.269" fill="black" font-size="13.617" font-family="Helvetica">4</text>
<text xml:space="preserve" x="203.685" y="372.269" fill="black" font-size="13.617" font-family="Helvetica">6</text>
<text xml:space="preserve" x="264.783" y="372.269" fill="black" font-size="13.617" font-family="Helvetica">8</text>
<text xml:space="preserve" x="321.618" y="372.269" fill="black" font-size="13.617" font-family="Helvetica">10</text>
<text xml:space="preserve" x="382.715" y="372.269" fill="black" font-size="13.617" font-family="Helvetica">12</text>
<text xml:space="preserve" x="443.813" y="372.269" fill="black" font-size="13.617" font-family="Helvetica">14</text>
<text xml:space="preserve" x="436.709" y="384.347" fill="black" font-size="13.617" font-family="Helvetica">(GeV/c)</text>
<text xml:space="preserve" x="431.025" y="392.162" fill="black" font-size="9.24468" font-family="Helvetica">T</text>
<text xml:space="preserve" x="423.21" y="384.347" fill="black" font-size="13.617" font-family="Helvetica">p</text>
<path d="M85.5394,20.4251h 396.85" fill="none" stroke="black"/>
<path d="M85.5394,29.0036v -8.57853" fill="none" stroke="black"/>
<path d="M100.803,24.7143v -4.28927" fill="none" stroke="black"/>
<path d="M116.066,24.7143v -4.28927" fill="none" stroke="black"/>
<path d="M131.33,24.7143v -4.28927" fill="none" stroke="black"/>
<path d="M146.593,29.0036v -8.57853" fill="none" stroke="black"/>
<path d="M161.857,24.7143v -4.28927" fill="none" stroke="black"/>
<path d="M177.12,24.7143v -4.28927" fill="none" stroke="black"/>
<path d="M192.384,24.7143v -4.28927" fill="none" stroke="black"/>
<path d="M207.647,29.0036v -8.57853" fill="none" stroke="black"/>
<path d="M222.911,24.7143v -4.28927" fill="none" stroke="black"/>
<path d="M238.174,24.7143v -4.28927" fill="none" stroke="black"/>
<path d="M253.438,24.7143v -4.28927" fill="none" stroke="black"/>
<path d="M268.701,29.0036v -8.57853" fill="none" stroke="black"/>
<path d="M283.965,24.7143v -4.28927" fill="none" stroke="black"/>
<path d="M299.228,24.7143v -4.28927" fill="none" stroke="black"/>
<path d="M314.492,24.7143v -4.28927" fill="none" stroke="black"/>
<path d="M329.755,29.0036v -8.57853" fill="none" stroke="black"/>
<path d="M345.018,24.7143v -4.28927" fill="none" stroke="black"/>
<path d="M360.282,24.7143v -4.28927" fill="none" stroke="black"/>
<path d="M375.545,24.7143v -4.28927" fill="none" stroke="black"/>
<path d="M390.809,29.0036v -8.57853" fill="none" stroke="black"/>
<path d="M406.072,24.7143v -4.28927" fill="none" stroke="black"/>
<path d="M421.336,24.7143v -4.28927" fill="none" stroke="black"/>
<path d="M436.599,24.7143v -4.28927" fill="none" stroke="black"/>
<path d="M451.863,29.0036v -8.57853" fill="none" stroke="black"/>
<path d="M451.863,29.0036v -8.57853" fill="none" stroke="black"/>
<path d="M467.126,24.7143v -4.28927" fill="none" stroke="black"/>
<path d="M85.5394,359.481v -339.056" fill="none" stroke="black"/>
<path d="M99.6559,336.878h -14.1165" fill="none" stroke="black"/>
<path d="M92.5976,325.576h -7.05827" fill="none" stroke="black"/>
<path d="M92.5976,314.274h -7.05827" fill="none" stroke="black"/>
<path d="M92.5976,302.972h -7.05827" fill="none" stroke="black"/>
<path d="M99.6559,291.67h -14.1165" fill="none" stroke="black"/>
<path d="M92.5976,280.368h -7.05827" fill="none" stroke="black"/>
<path d="M92.5976,269.066h -7.05827" fill="none" stroke="black"/>
<path d="M92.5976,257.764h -7.05827" fill="none" stroke="black"/>
<path d="M99.6559,246.463h -14.1165" fill="none" stroke="black"/>
<path d="M92.5976,235.161h -7.05827" fill="none" stroke="black"/>
<path d="M92.5976,223.859h -7.05827" fill="none" stroke="black"/>
<path d="M92.5976,212.557h -7.05827" fill="none" stroke="black"/>
<path d="M99.6559,201.255h -14.1165" fill="none" stroke="black"/>
<path d="M92.5976,189.953h -7.05827" fill="none" stroke="black"/>
<path d="M92.5976,178.651h -7.05827" fill="none" stroke="black"/>
<path d="M92.5976,167.349h -7.05827" fill="none" stroke="black"/>
<path d="M99.6559,156.048h -14.1165" fill="none" stroke="black"/>
<path d="M92.5976,144.746h -7.05827" fill="none" stroke="black"/>
<path d="M92.5976,133.444h -7.05827" fill="none" stroke="black"/>
<path d="M92.5976,122.142h -7.05827" fill="none" stroke="black"/>
<path d="M99.6559,110.84h -14.1165" fill="none" stroke="black"/>
<path d="M92.5976,99.5382h -7.05827" fill="none" stroke="black"/>
<path d="M92.5976,88.2363h -7.05827" fill="none" stroke="black"/>
<path d="M92.5976,76.9345h -7.05827" fill="none" stroke="black"/>
<path d="M99.6559,65.6326h -14.1165" fill="none" stroke="black"/>
<path d="M92.5976,54.3307h -7.05827" fill="none" stroke="black"/>
<path d="M92.5976,43.0288h -7.05827" fill="none" stroke="black"/>
<path d="M92.5976,31.727h -7.05827" fill="none" stroke="black"/>
<path d="M99.6559,20.4251h -14.1165" fill="none" stroke="black"/>
<path d="M99.6559,336.878h -14.1165" fill="none" stroke="black"/>
<path d="M92.5976,348.18h -7.05827" fill="none" stroke="black"/>
<path d="M92.5976,359.481h -7.05827" fill="none" stroke="black"/>
<text xml:space="preserve" x="63.7289" y="341.72" fill="black" font-size="13.617" font-family="Helvetica">0.6</text>
<text xml:space="preserve" x="63.7289" y="296.252" fill="black" font-size="13.617" font-family="Helvetica">0.8</text>
<text xml:space="preserve" x="77.2272" y="251.495" fill="black" font-size="13.617" font-family="Helvetica">1</text>
<text xml:space="preserve" x="63.7289" y="206.737" fill="black" font-size="13.617" font-family="Helvetica">1.2</text>
<text xml:space="preserve" x="63.7289" y="161.269" fill="black" font-size="13.617" font-family="Helvetica">1.4</text>
<text xml:space="preserve" x="63.7289" y="115.801" fill="black" font-size="13.617" font-family="Helvetica">1.6</text>
<text xml:space="preserve" x="63.7289" y="70.3333" fill="black" font-size="13.617" font-family="Helvetica">1.8</text>
<text xml:space="preserve" x="75.0959" y="25.5758" fill="black" font-size="13.617" font-family="Helvetica">2</text>
<g transform="rotate(-90,46.6784,24.8653)">
<text xml:space="preserve" x="46.6784" y="24.8653" fill="black" font-size="9.24468" font-family="Helvetica">0</text>
</g>
<g transform="rotate(-90,51.6515,32.6801)">
<text xml:space="preserve" x="51.6515" y="32.6801" fill="black" font-size="13.617" font-family="Times">&#0960;</text>
</g>
<g transform="rotate(-90,51.6515,153.455)">
<text xml:space="preserve" x="51.6515" y="153.455" fill="black" font-size="13.617" font-family="Helvetica"> / Centrality Bias on </text>
</g>
<g transform="rotate(-90,46.6784,164.111)">
<text xml:space="preserve" x="46.6784" y="164.111" fill="black" font-size="9.24468" font-family="Helvetica">dir</text>
</g>
<g transform="rotate(-90,51.6515,171.215)">
<text xml:space="preserve" x="51.6515" y="171.215" fill="black" font-size="13.617" font-family="Times">&#0947;</text>
</g>
<g transform="rotate(-90,51.6515,280.623)">
<text xml:space="preserve" x="51.6515" y="280.623" fill="black" font-size="13.617" font-family="Helvetica">Centrality Bias on </text>
</g>
<path d="M482.39,359.481v -339.056" fill="none" stroke="black"/>
<path d="M468.273,336.878h 14.1165" fill="none" stroke="black"/>
<path d="M475.332,325.576h 7.05827" fill="none" stroke="black"/>
<path d="M475.332,314.274h 7.05827" fill="none" stroke="black"/>
<path d="M475.332,302.972h 7.05827" fill="none" stroke="black"/>
<path d="M468.273,291.67h 14.1165" fill="none" stroke="black"/>
<path d="M475.332,280.368h 7.05827" fill="none" stroke="black"/>
<path d="M475.332,269.066h 7.05827" fill="none" stroke="black"/>
<path d="M475.332,257.764h 7.05827" fill="none" stroke="black"/>
<path d="M468.273,246.463h 14.1165" fill="none" stroke="black"/>
<path d="M475.332,235.161h 7.05827" fill="none" stroke="black"/>
<path d="M475.332,223.859h 7.05827" fill="none" stroke="black"/>
<path d="M475.332,212.557h 7.05827" fill="none" stroke="black"/>
<path d="M468.273,201.255h 14.1165" fill="none" stroke="black"/>
<path d="M475.332,189.953h 7.05827" fill="none" stroke="black"/>
<path d="M475.332,178.651h 7.05827" fill="none" stroke="black"/>
<path d="M475.332,167.349h 7.05827" fill="none" stroke="black"/>
<path d="M468.273,156.048h 14.1165" fill="none" stroke="black"/>
<path d="M475.332,144.746h 7.05827" fill="none" stroke="black"/>
<path d="M475.332,133.444h 7.05827" fill="none" stroke="black"/>
<path d="M475.332,122.142h 7.05827" fill="none" stroke="black"/>
<path d="M468.273,110.84h 14.1165" fill="none" stroke="black"/>
<path d="M475.332,99.5382h 7.05827" fill="none" stroke="black"/>
<path d="M475.332,88.2363h 7.05827" fill="none" stroke="black"/>
<path d="M475.332,76.9345h 7.05827" fill="none" stroke="black"/>
<path d="M468.273,65.6326h 14.1165" fill="none" stroke="black"/>
<path d="M475.332,54.3307h 7.05827" fill="none" stroke="black"/>
<path d="M475.332,43.0288h 7.05827" fill="none" stroke="black"/>
<path d="M475.332,31.727h 7.05827" fill="none" stroke="black"/>
<path d="M468.273,20.4251h 14.1165" fill="none" stroke="black"/>
<path d="M468.273,336.878h 14.1165" fill="none" stroke="black"/>
<path d="M475.332,348.18h 7.05827" fill="none" stroke="black"/>
<path d="M475.332,359.481h 7.05827" fill="none" stroke="black"/>
<path d="M85.5394,260.407h 12.4217" fill="none" stroke="#ffcc00"/>
<path d="M103.645,260.407h 12.4217" fill="none" stroke="#ffcc00"/>
<g fill="#ffcc00">
<polygon points=" 99.8556, 259.459 99.8556, 257.565 101.75, 257.565 101.75, 259.459 103.645, 259.459 103.645, 261.354 101.75, 261.354 101.75, 263.248 99.8556, 263.248 99.8556, 261.354 97.9611, 261.354 97.9611, 259.459"/>
</g>
<path d="M116.066,259.882h 27.6852" fill="none" stroke="#ffcc00"/>
<path d="M149.435,259.882h 27.6852" fill="none" stroke="#ffcc00"/>
<g fill="#ffcc00">
<polygon points=" 145.646, 258.935 145.646, 257.04 147.541, 257.04 147.541, 258.935 149.435, 258.935 149.435, 260.829 147.541, 260.829 147.541, 262.724 145.646, 262.724 145.646, 260.829 143.752, 260.829 143.752, 258.935"/>
</g>
<path d="M207.647,267.196v -5.54207" fill="none" stroke="#ffcc00"/>
<path d="M207.647,255.971v -5.54207" fill="none" stroke="#ffcc00"/>
<path d="M177.12,258.812h 27.6852" fill="none" stroke="#ffcc00"/>
<path d="M210.489,258.812h 27.6852" fill="none" stroke="#ffcc00"/>
<g fill="#ffcc00">
<polygon points=" 206.7, 257.865 206.7, 255.971 208.594, 255.971 208.594, 257.865 210.489, 257.865 210.489, 259.76 208.594, 259.76 208.594, 261.654 206.7, 261.654 206.7, 259.76 204.805, 259.76 204.805, 257.865"/>
</g>
<path d="M268.701,278.427v -16.3454" fill="none" stroke="#ffcc00"/>
<path d="M268.701,256.398v -16.3454" fill="none" stroke="#ffcc00"/>
<path d="M238.174,259.24h 27.6852" fill="none" stroke="#ffcc00"/>
<path d="M271.543,259.24h 27.6852" fill="none" stroke="#ffcc00"/>
<g fill="#ffcc00">
<polygon points=" 267.754, 258.293 267.754, 256.398 269.648, 256.398 269.648, 258.293 271.543, 258.293 271.543, 260.187 269.648, 260.187 269.648, 262.082 267.754, 262.082 267.754, 260.187 265.859, 260.187 265.859, 258.293"/>
</g>
<path d="M329.755,303.697v -34.7782" fill="none" stroke="#ffcc00"/>
<path d="M329.755,263.236v -34.7782" fill="none" stroke="#ffcc00"/>
<path d="M299.228,266.077h 27.6852" fill="none" stroke="#ffcc00"/>
<path d="M332.597,266.077h 27.6852" fill="none" stroke="#ffcc00"/>
<g fill="#ffcc00">
<polygon points=" 328.808, 265.13 328.808, 263.236 330.702, 263.236 330.702, 265.13 332.597, 265.13 332.597, 267.025 330.702, 267.025 330.702, 268.919 328.808, 268.919 328.808, 267.025 326.913, 267.025 326.913, 265.13"/>
</g>
<path d="M421.336,297.49v -61.1801" fill="none" stroke="#ffcc00"/>
<path d="M421.336,230.626v -61.1801" fill="none" stroke="#ffcc00"/>
<path d="M360.282,233.468h 58.2122" fill="none" stroke="#ffcc00"/>
<path d="M424.178,233.468h 58.2122" fill="none" stroke="#ffcc00"/>
<g fill="#ffcc00">
<polygon points=" 420.389, 232.52 420.389, 230.626 422.283, 230.626 422.283, 232.52 424.178, 232.52 424.178, 234.415 422.283, 234.415 422.283, 236.309 420.389, 236.309 420.389, 234.415 418.494, 234.415 418.494, 232.52"/>
</g>
<path d="M85.5394,258.022h 12.4217" fill="none" stroke="#ff0000"/>
<path d="M103.645,258.022h 12.4217" fill="none" stroke="#ff0000"/>
<g fill="#ff0000">
<polygon points=" 99.8556, 257.075 99.8556, 255.18 101.75, 255.18 101.75, 257.075 103.645, 257.075 103.645, 258.969 101.75, 258.969 101.75, 260.864 99.8556, 260.864 99.8556, 258.969 97.9611, 258.969 97.9611, 257.075"/>
</g>
<path d="M146.593,263.95v -0.0852984" fill="none" stroke="#ff0000"/>
<path d="M146.593,258.181v -0.0852984" fill="none" stroke="#ff0000"/>
<path d="M116.066,261.023h 27.6852" fill="none" stroke="#ff0000"/>
<path d="M149.435,261.023h 27.6852" fill="none" stroke="#ff0000"/>
<g fill="#ff0000">
<polygon points=" 145.646, 260.076 145.646, 258.181 147.541, 258.181 147.541, 260.076 149.435, 260.076 149.435, 261.97 147.541, 261.97 147.541, 263.865 145.646, 263.865 145.646, 261.97 143.752, 261.97 143.752, 260.076"/>
</g>
<path d="M207.647,258.069v -5.90518" fill="none" stroke="#ff0000"/>
<path d="M207.647,246.48v -5.90518" fill="none" stroke="#ff0000"/>
<path d="M177.12,249.322h 27.6852" fill="none" stroke="#ff0000"/>
<path d="M210.489,249.322h 27.6852" fill="none" stroke="#ff0000"/>
<g fill="#ff0000">
<polygon points=" 206.7, 248.375 206.7, 246.48 208.594, 246.48 208.594, 248.375 210.489, 248.375 210.489, 250.269 208.594, 250.269 208.594, 252.164 206.7, 252.164 206.7, 250.269 204.805, 250.269 204.805, 248.375"/>
</g>
<path d="M268.701,271.136v -16.7314" fill="none" stroke="#ff0000"/>
<path d="M268.701,248.721v -16.7314" fill="none" stroke="#ff0000"/>
<path d="M238.174,251.562h 27.6852" fill="none" stroke="#ff0000"/>
<path d="M271.543,251.562h 27.6852" fill="none" stroke="#ff0000"/>
<g fill="#ff0000">
<polygon points=" 267.754, 250.615 267.754, 248.721 269.648, 248.721 269.648, 250.615 271.543, 250.615 271.543, 252.51 269.648, 252.51 269.648, 254.404 267.754, 254.404 267.754, 252.51 265.859, 252.51 265.859, 250.615"/>
</g>
<path d="M329.755,309.288v -34.7646" fill="none" stroke="#ff0000"/>
<path d="M329.755,268.84v -34.7646" fill="none" stroke="#ff0000"/>
<path d="M299.228,271.682h 27.6852" fill="none" stroke="#ff0000"/>
<path d="M332.597,271.682h 27.6852" fill="none" stroke="#ff0000"/>
<g fill="#ff0000">
<polygon points=" 328.808, 270.735 328.808, 268.84 330.702, 268.84 330.702, 270.735 332.597, 270.735 332.597, 272.629 330.702, 272.629 330.702, 274.524 328.808, 274.524 328.808, 272.629 326.913, 272.629 326.913, 270.735"/>
</g>
<path d="M421.336,265.996v -65.4941" fill="none" stroke="#ff0000"/>
<path d="M421.336,194.819v -65.4941" fill="none" stroke="#ff0000"/>
<path d="M360.282,197.66h 58.2122" fill="none" stroke="#ff0000"/>
<path d="M424.178,197.66h 58.2122" fill="none" stroke="#ff0000"/>
<g fill="#ff0000">
<polygon points=" 420.389, 196.713 420.389, 194.819 422.283, 194.819 422.283, 196.713 424.178, 196.713 424.178, 198.608 422.283, 198.608 422.283, 200.502 420.389, 200.502 420.389, 198.608 418.494, 198.608 418.494, 196.713"/>
</g>
<path d="M85.5394,253.937h 12.4217" fill="none" stroke="#ff0033"/>
<path d="M103.645,253.937h 12.4217" fill="none" stroke="#ff0033"/>
<g stroke="#ff0033" stroke-width="1" fill="none">
<polygon points=" 99.8556, 252.99 99.8556, 251.095 101.75, 251.095 101.75, 252.99 103.645, 252.99 103.645, 254.884 101.75, 254.884 101.75, 256.779 99.8556, 256.779 99.8556, 254.884 97.9611, 254.884 97.9611, 252.99"/>
</g>
<path d="M116.066,252.799h 27.6852" fill="none" stroke="#ff0033"/>
<path d="M149.435,252.799h 27.6852" fill="none" stroke="#ff0033"/>
<g stroke="#ff0033" stroke-width="1" fill="none">
<polygon points=" 145.646, 251.852 145.646, 249.957 147.541, 249.957 147.541, 251.852 149.435, 251.852 149.435, 253.746 147.541, 253.746 147.541, 255.641 145.646, 255.641 145.646, 253.746 143.752, 253.746 143.752, 251.852"/>
</g>
<path d="M207.647,248.98v -4.00397" fill="none" stroke="#ff0033"/>
<path d="M207.647,239.293v -4.00397" fill="none" stroke="#ff0033"/>
<path d="M177.12,242.134h 27.6852" fill="none" stroke="#ff0033"/>
<path d="M210.489,242.134h 27.6852" fill="none" stroke="#ff0033"/>
<g stroke="#ff0033" stroke-width="1" fill="none">
<polygon points=" 206.7, 241.187 206.7, 239.293 208.594, 239.293 208.594, 241.187 210.489, 241.187 210.489, 243.082 208.594, 243.082 208.594, 244.976 206.7, 244.976 206.7, 243.082 204.805, 243.082 204.805, 241.187"/>
</g>
<path d="M268.701,255.721v -12.4775" fill="none" stroke="#ff0033"/>
<path d="M268.701,237.559v -12.4775" fill="none" stroke="#ff0033"/>
<path d="M238.174,240.401h 27.6852" fill="none" stroke="#ff0033"/>
<path d="M271.543,240.401h 27.6852" fill="none" stroke="#ff0033"/>
<g stroke="#ff0033" stroke-width="1" fill="none">
<polygon points=" 267.754, 239.454 267.754, 237.559 269.648, 237.559 269.648, 239.454 271.543, 239.454 271.543, 241.348 269.648, 241.348 269.648, 243.243 267.754, 243.243 267.754, 241.348 265.859, 241.348 265.859, 239.454"/>
</g>
<path d="M329.755,287.959v -25.8051" fill="none" stroke="#ff0033"/>
<path d="M329.755,256.471v -25.8051" fill="none" stroke="#ff0033"/>
<path d="M299.228,259.313h 27.6852" fill="none" stroke="#ff0033"/>
<path d="M332.597,259.313h 27.6852" fill="none" stroke="#ff0033"/>
<g stroke="#ff0033" stroke-width="1" fill="none">
<polygon points=" 328.808, 258.365 328.808, 256.471 330.702, 256.471 330.702, 258.365 332.597, 258.365 332.597, 260.26 330.702, 260.26 330.702, 262.154 328.808, 262.154 328.808, 260.26 326.913, 260.26 326.913, 258.365"/>
</g>
<path d="M421.336,259.085v -47.351" fill="none" stroke="#ff0033"/>
<path d="M421.336,206.051v -47.351" fill="none" stroke="#ff0033"/>
<path d="M360.282,208.892h 58.2122" fill="none" stroke="#ff0033"/>
<path d="M424.178,208.892h 58.2122" fill="none" stroke="#ff0033"/>
<g stroke="#ff0033" stroke-width="1" fill="none">
<polygon points=" 420.389, 207.945 420.389, 206.051 422.283, 206.051 422.283, 207.945 424.178, 207.945 424.178, 209.84 422.283, 209.84 422.283, 211.734 420.389, 211.734 420.389, 209.84 418.494, 209.84 418.494, 207.945"/>
</g>
<path d="M100.803,246.536v -0.0311847" fill="none" stroke="#ff00ff"/>
<path d="M100.803,243.663v -0.0311847" fill="none" stroke="#ff00ff"/>
<path d="M85.5394,245.084h 13.8426" fill="none" stroke="#ff00ff"/>
<path d="M102.224,245.084h 13.8426" fill="none" stroke="#ff00ff"/>
<g fill="#ff00ff">
<polygon points=" 100.803, 246.505 99.382, 247.926 97.9611, 246.505 99.382, 245.084 97.9611, 243.663 99.382, 242.242 100.803, 243.663 102.224, 242.242 103.645, 243.663 102.224, 245.084 103.645, 246.505 102.224, 247.926 100.803, 246.505"/>
</g>
<path d="M146.593,249.095v -1.12135" fill="none" stroke="#ff00ff"/>
<path d="M146.593,245.132v -1.12135" fill="none" stroke="#ff00ff"/>
<path d="M116.066,246.553h 29.1061" fill="none" stroke="#ff00ff"/>
<path d="M148.014,246.553h 29.1061" fill="none" stroke="#ff00ff"/>
<g fill="#ff00ff">
<polygon points=" 146.593, 247.974 145.172, 249.395 143.752, 247.974 145.172, 246.553 143.752, 245.132 145.172, 243.711 146.593, 245.132 148.014, 243.711 149.435, 245.132 148.014, 246.553 149.435, 247.974 148.014, 249.395 146.593, 247.974"/>
</g>
<path d="M207.647,251.623v -5.76578" fill="none" stroke="#ff00ff"/>
<path d="M207.647,243.015v -5.76578" fill="none" stroke="#ff00ff"/>
<path d="M177.12,244.436h 29.1061" fill="none" stroke="#ff00ff"/>
<path d="M209.068,244.436h 29.1061" fill="none" stroke="#ff00ff"/>
<g fill="#ff00ff">
<polygon points=" 207.647, 245.857 206.226, 247.278 204.805, 245.857 206.226, 244.436 204.805, 243.015 206.226, 241.594 207.647, 243.015 209.068, 241.594 210.489, 243.015 209.068, 244.436 210.489, 245.857 209.068, 247.278 207.647, 245.857"/>
</g>
<path d="M268.701,263.585v -14.3004" fill="none" stroke="#ff00ff"/>
<path d="M268.701,246.443v -14.3004" fill="none" stroke="#ff00ff"/>
<path d="M238.174,247.864h 29.1061" fill="none" stroke="#ff00ff"/>
<path d="M270.122,247.864h 29.1061" fill="none" stroke="#ff00ff"/>
<g fill="#ff00ff">
<polygon points=" 268.701, 249.285 267.28, 250.706 265.859, 249.285 267.28, 247.864 265.859, 246.443 267.28, 245.022 268.701, 246.443 270.122, 245.022 271.543, 246.443 270.122, 247.864 271.543, 249.285 270.122, 250.706 268.701, 249.285"/>
</g>
<path d="M329.755,257.852v -31.2819" fill="none" stroke="#ff00ff"/>
<path d="M329.755,223.729v -31.2819" fill="none" stroke="#ff00ff"/>
<path d="M299.228,225.149h 29.1061" fill="none" stroke="#ff00ff"/>
<path d="M331.176,225.149h 29.1061" fill="none" stroke="#ff00ff"/>
<g fill="#ff00ff">
<polygon points=" 329.755, 226.57 328.334, 227.991 326.913, 226.57 328.334, 225.149 326.913, 223.729 328.334, 222.308 329.755, 223.729 331.176, 222.308 332.597, 223.729 331.176, 225.149 332.597, 226.57 331.176, 227.991 329.755, 226.57"/>
</g>
<path d="M421.336,288.763v -46.6663" fill="none" stroke="#ff00ff"/>
<path d="M421.336,239.255v -46.6663" fill="none" stroke="#ff00ff"/>
<path d="M360.282,240.675h 59.633" fill="none" stroke="#ff00ff"/>
<path d="M422.757,240.675h 59.633" fill="none" stroke="#ff00ff"/>
<g fill="#ff00ff">
<polygon points=" 421.336, 242.096 419.915, 243.517 418.494, 242.096 419.915, 240.675 418.494, 239.255 419.915, 237.834 421.336, 239.255 422.757, 237.834 424.178, 239.255 422.757, 240.675 424.178, 242.096 422.757, 243.517 421.336, 242.096"/>
</g>
<path d="M85.5394,234.818h 12.4217" fill="none" stroke="#cc00ff"/>
<path d="M103.645,234.818h 12.4217" fill="none" stroke="#cc00ff"/>
<g stroke="#cc00ff" stroke-width="1" fill="none">
<polygon points=" 99.8556, 233.871 99.8556, 231.977 101.75, 231.977 101.75, 233.871 103.645, 233.871 103.645, 235.766 101.75, 235.766 101.75, 237.66 99.8556, 237.66 99.8556, 235.766 97.9611, 235.766 97.9611, 233.871"/>
</g>
<path d="M146.593,239.021v -0.128547" fill="none" stroke="#cc00ff"/>
<path d="M146.593,233.209v -0.128547" fill="none" stroke="#cc00ff"/>
<path d="M116.066,236.051h 27.6852" fill="none" stroke="#cc00ff"/>
<path d="M149.435,236.051h 27.6852" fill="none" stroke="#cc00ff"/>
<g stroke="#cc00ff" stroke-width="1" fill="none">
<polygon points=" 145.646, 235.104 145.646, 233.209 147.541, 233.209 147.541, 235.104 149.435, 235.104 149.435, 236.998 147.541, 236.998 147.541, 238.893 145.646, 238.893 145.646, 236.998 143.752, 236.998 143.752, 235.104"/>
</g>
<path d="M207.647,259.744v -5.07131" fill="none" stroke="#cc00ff"/>
<path d="M207.647,248.989v -5.07131" fill="none" stroke="#cc00ff"/>
<path d="M177.12,251.831h 27.6852" fill="none" stroke="#cc00ff"/>
<path d="M210.489,251.831h 27.6852" fill="none" stroke="#cc00ff"/>
<g stroke="#cc00ff" stroke-width="1" fill="none">
<polygon points=" 206.7, 250.883 206.7, 248.989 208.594, 248.989 208.594, 250.883 210.489, 250.883 210.489, 252.778 208.594, 252.778 208.594, 254.672 206.7, 254.672 206.7, 252.778 204.805, 252.778 204.805, 250.883"/>
</g>
<path d="M268.701,271.12v -14.1113" fill="none" stroke="#cc00ff"/>
<path d="M268.701,251.325v -14.1113" fill="none" stroke="#cc00ff"/>
<path d="M238.174,254.167h 27.6852" fill="none" stroke="#cc00ff"/>
<path d="M271.543,254.167h 27.6852" fill="none" stroke="#cc00ff"/>
<g stroke="#cc00ff" stroke-width="1" fill="none">
<polygon points=" 267.754, 253.22 267.754, 251.325 269.648, 251.325 269.648, 253.22 271.543, 253.22 271.543, 255.114 269.648, 255.114 269.648, 257.009 267.754, 257.009 267.754, 255.114 265.859, 255.114 265.859, 253.22"/>
</g>
<path d="M329.755,292.544v -29.5406" fill="none" stroke="#cc00ff"/>
<path d="M329.755,257.32v -29.5406" fill="none" stroke="#cc00ff"/>
<path d="M299.228,260.162h 27.6852" fill="none" stroke="#cc00ff"/>
<path d="M332.597,260.162h 27.6852" fill="none" stroke="#cc00ff"/>
<g stroke="#cc00ff" stroke-width="1" fill="none">
<polygon points=" 328.808, 259.215 328.808, 257.32 330.702, 257.32 330.702, 259.215 332.597, 259.215 332.597, 261.109 330.702, 261.109 330.702, 263.004 328.808, 263.004 328.808, 261.109 326.913, 261.109 326.913, 259.215"/>
</g>
<path d="M421.336,355.918v -38.0763" fill="none" stroke="#cc00ff"/>
<path d="M421.336,312.158v -38.0763" fill="none" stroke="#cc00ff"/>
<path d="M360.282,315h 58.2122" fill="none" stroke="#cc00ff"/>
<path d="M424.178,315h 58.2122" fill="none" stroke="#cc00ff"/>
<g stroke="#cc00ff" stroke-width="1" fill="none">
<polygon points=" 420.389, 314.053 420.389, 312.158 422.283, 312.158 422.283, 314.053 424.178, 314.053 424.178, 315.947 422.283, 315.947 422.283, 317.842 420.389, 317.842 420.389, 315.947 418.494, 315.947 418.494, 314.053"/>
</g>
<text xml:space="preserve" x="108.487" y="53.2828" fill="black" font-size="15.4909" font-family="Helvetica">PYTHIA8, pAu200GeV with option3</text>
<text xml:space="preserve" x="181.662" y="71.0438" fill="black" font-size="15.4909" font-family="Helvetica">|&lt;1</text>
<text xml:space="preserve" x="173.136" y="71.0438" fill="black" font-size="15.4909" font-family="Times">&#0951;</text>
<text xml:space="preserve" x="150.402" y="71.0438" fill="black" font-size="15.4909" font-family="Helvetica"> in |</text>
<text xml:space="preserve" x="144.719" y="65.3603" fill="black" font-size="10.4939" font-family="Helvetica">0</text>
<text xml:space="preserve" x="136.194" y="71.0438" fill="black" font-size="15.4909" font-family="Times">&#0960;</text>
<text xml:space="preserve" x="127.668" y="71.0438" fill="black" font-size="15.4909" font-family="Helvetica">, </text>
<text xml:space="preserve" x="116.301" y="65.3603" fill="black" font-size="10.4939" font-family="Helvetica">dir</text>
<text xml:space="preserve" x="108.487" y="71.0438" fill="black" font-size="15.4909" font-family="Times">&#0947;</text>
<text xml:space="preserve" x="161.769" y="88.0943" fill="black" font-size="15.4909" font-family="Helvetica">centrality: 0~10%</text>
<g fill="#ffcc00">
<polygon points=" 131.364, 83.6709 131.364, 81.7764 133.258, 81.7764 133.258, 83.6709 135.153, 83.6709 135.153, 85.5654 133.258, 85.5654 133.258, 87.4599 131.364, 87.4599 131.364, 85.5654 129.469, 85.5654 129.469, 83.6709"/>
</g>
<text xml:space="preserve" x="161.769" y="105.855" fill="black" font-size="15.4909" font-family="Helvetica">centrality: 10~20%</text>
<g fill="#ff0000">
<polygon points=" 131.364, 101.178 131.364, 99.2836 133.258, 99.2836 133.258, 101.178 135.153, 101.178 135.153, 103.073 133.258, 103.073 133.258, 104.967 131.364, 104.967 131.364, 103.073 129.469, 103.073 129.469, 101.178"/>
</g>
<text xml:space="preserve" x="161.769" y="122.906" fill="black" font-size="15.4909" font-family="Helvetica">centrality: 20~40%</text>
<g stroke="#ff0033" stroke-width="1" fill="none">
<polygon points=" 131.364, 118.685 131.364, 116.791 133.258, 116.791 133.258, 118.685 135.153, 118.685 135.153, 120.58 133.258, 120.58 133.258, 122.474 131.364, 122.474 131.364, 120.58 129.469, 120.58 129.469, 118.685"/>
</g>
<text xml:space="preserve" x="161.769" y="140.667" fill="black" font-size="15.4909" font-family="Helvetica">centrality: 40~60%</text>
<g fill="#ff00ff">
<polygon points=" 132.311, 138.561 130.89, 139.982 129.469, 138.561 130.89, 137.14 129.469, 135.719 130.89, 134.298 132.311, 135.719 133.732, 134.298 135.153, 135.719 133.732, 137.14 135.153, 138.561 133.732, 139.982 132.311, 138.561"/>
</g>
<text xml:space="preserve" x="161.769" y="158.428" fill="black" font-size="15.4909" font-family="Helvetica">centrality: 60~80%</text>
<g stroke="#cc00ff" stroke-width="1" fill="none">
<polygon points=" 131.364, 153.7 131.364, 151.805 133.258, 151.805 133.258, 153.7 135.153, 153.7 135.153, 155.594 133.258, 155.594 133.258, 157.489 131.364, 157.489 131.364, 155.594 129.469, 155.594 129.469, 153.7"/>
</g></svg>
