<?xml version="1.0" standalone="no"?>
<svg width="567.429" height="409.002" viewBox="0 0 567.429 409.002" xmlns="http://www.w3.org/2000/svg" shape-rendering="crispEdges">
<title>
/Users/jinhyunpark/npl/gitHub/git_share/Centrality_dependent_BiasCorrection/plots/plots_scaled-dNdpT/ratio_scaledYield_highpT_pion0_cent2mb.svg
</title>
<desc>
Creator: ROOT Version 6.28/04
CreationDate: Sun Oct  1 14:57:39 2023</desc>
<defs>
</defs>
<rect x="0.5" y="0" width="566.929" height="408.502" fill="white"/>
<rect x="85.5394" y="20.4251" width="396.85" height="339.056" fill="white"/>
<rect x="85.5394" y="20.4251" width="396.85" height="339.056" fill="none" stroke="black"/>
<rect x="85.5394" y="20.4251" width="396.85" height="339.056" fill="white"/>
<rect x="85.5394" y="20.4251" width="396.85" height="339.056" fill="none" stroke="black"/>
<path d="M85.5394,359.481h 396.85" fill="none" stroke="black"/>
<path d="M85.5394,350.903v 8.57853" fill="none" stroke="black"/>
<path d="M96.563,355.192v 4.28927" fill="none" stroke="black"/>
<path d="M107.587,355.192v 4.28927" fill="none" stroke="black"/>
<path d="M118.61,355.192v 4.28927" fill="none" stroke="black"/>
<path d="M129.634,350.903v 8.57853" fill="none" stroke="black"/>
<path d="M140.657,355.192v 4.28927" fill="none" stroke="black"/>
<path d="M151.681,355.192v 4.28927" fill="none" stroke="black"/>
<path d="M162.705,355.192v 4.28927" fill="none" stroke="black"/>
<path d="M173.728,350.903v 8.57853" fill="none" stroke="black"/>
<path d="M184.752,355.192v 4.28927" fill="none" stroke="black"/>
<path d="M195.776,355.192v 4.28927" fill="none" stroke="black"/>
<path d="M206.799,355.192v 4.28927" fill="none" stroke="black"/>
<path d="M217.823,350.903v 8.57853" fill="none" stroke="black"/>
<path d="M228.846,355.192v 4.28927" fill="none" stroke="black"/>
<path d="M239.87,355.192v 4.28927" fill="none" stroke="black"/>
<path d="M250.894,355.192v 4.28927" fill="none" stroke="black"/>
<path d="M261.917,350.903v 8.57853" fill="none" stroke="black"/>
<path d="M272.941,355.192v 4.28927" fill="none" stroke="black"/>
<path d="M283.965,355.192v 4.28927" fill="none" stroke="black"/>
<path d="M294.988,355.192v 4.28927" fill="none" stroke="black"/>
<path d="M306.012,350.903v 8.57853" fill="none" stroke="black"/>
<path d="M317.035,355.192v 4.28927" fill="none" stroke="black"/>
<path d="M328.059,355.192v 4.28927" fill="none" stroke="black"/>
<path d="M339.083,355.192v 4.28927" fill="none" stroke="black"/>
<path d="M350.106,350.903v 8.57853" fill="none" stroke="black"/>
<path d="M361.13,355.192v 4.28927" fill="none" stroke="black"/>
<path d="M372.154,355.192v 4.28927" fill="none" stroke="black"/>
<path d="M383.177,355.192v 4.28927" fill="none" stroke="black"/>
<path d="M394.201,350.903v 8.57853" fill="none" stroke="black"/>
<path d="M405.224,355.192v 4.28927" fill="none" stroke="black"/>
<path d="M416.248,355.192v 4.28927" fill="none" stroke="black"/>
<path d="M427.272,355.192v 4.28927" fill="none" stroke="black"/>
<path d="M438.295,350.903v 8.57853" fill="none" stroke="black"/>
<path d="M449.319,355.192v 4.28927" fill="none" stroke="black"/>
<path d="M460.343,355.192v 4.28927" fill="none" stroke="black"/>
<path d="M471.366,355.192v 4.28927" fill="none" stroke="black"/>
<path d="M482.39,350.903v 8.57853" fill="none" stroke="black"/>
<text xml:space="preserve" x="81.4899" y="372.269" fill="black" font-size="13.617" font-family="Helvetica">2</text>
<text xml:space="preserve" x="125.537" y="372.269" fill="black" font-size="13.617" font-family="Helvetica">4</text>
<text xml:space="preserve" x="169.584" y="372.269" fill="black" font-size="13.617" font-family="Helvetica">6</text>
<text xml:space="preserve" x="213.631" y="372.269" fill="black" font-size="13.617" font-family="Helvetica">8</text>
<text xml:space="preserve" x="253.416" y="372.269" fill="black" font-size="13.617" font-family="Helvetica">10</text>
<text xml:space="preserve" x="298.173" y="372.269" fill="black" font-size="13.617" font-family="Helvetica">12</text>
<text xml:space="preserve" x="342.22" y="372.269" fill="black" font-size="13.617" font-family="Helvetica">14</text>
<text xml:space="preserve" x="386.268" y="372.269" fill="black" font-size="13.617" font-family="Helvetica">16</text>
<text xml:space="preserve" x="430.315" y="372.269" fill="black" font-size="13.617" font-family="Helvetica">18</text>
<text xml:space="preserve" x="474.362" y="372.269" fill="black" font-size="13.617" font-family="Helvetica">20</text>
<text xml:space="preserve" x="436.709" y="384.347" fill="black" font-size="13.617" font-family="Helvetica">(GeV/c)</text>
<text xml:space="preserve" x="431.025" y="392.162" fill="black" font-size="9.24468" font-family="Helvetica">T</text>
<text xml:space="preserve" x="423.21" y="384.347" fill="black" font-size="13.617" font-family="Helvetica">p</text>
<path d="M85.5394,20.4251h 396.85" fill="none" stroke="black"/>
<path d="M85.5394,29.0036v -8.57853" fill="none" stroke="black"/>
<path d="M96.563,24.7143v -4.28927" fill="none" stroke="black"/>
<path d="M107.587,24.7143v -4.28927" fill="none" stroke="black"/>
<path d="M118.61,24.7143v -4.28927" fill="none" stroke="black"/>
<path d="M129.634,29.0036v -8.57853" fill="none" stroke="black"/>
<path d="M140.657,24.7143v -4.28927" fill="none" stroke="black"/>
<path d="M151.681,24.7143v -4.28927" fill="none" stroke="black"/>
<path d="M162.705,24.7143v -4.28927" fill="none" stroke="black"/>
<path d="M173.728,29.0036v -8.57853" fill="none" stroke="black"/>
<path d="M184.752,24.7143v -4.28927" fill="none" stroke="black"/>
<path d="M195.776,24.7143v -4.28927" fill="none" stroke="black"/>
<path d="M206.799,24.7143v -4.28927" fill="none" stroke="black"/>
<path d="M217.823,29.0036v -8.57853" fill="none" stroke="black"/>
<path d="M228.846,24.7143v -4.28927" fill="none" stroke="black"/>
<path d="M239.87,24.7143v -4.28927" fill="none" stroke="black"/>
<path d="M250.894,24.7143v -4.28927" fill="none" stroke="black"/>
<path d="M261.917,29.0036v -8.57853" fill="none" stroke="black"/>
<path d="M272.941,24.7143v -4.28927" fill="none" stroke="black"/>
<path d="M283.965,24.7143v -4.28927" fill="none" stroke="black"/>
<path d="M294.988,24.7143v -4.28927" fill="none" stroke="black"/>
<path d="M306.012,29.0036v -8.57853" fill="none" stroke="black"/>
<path d="M317.035,24.7143v -4.28927" fill="none" stroke="black"/>
<path d="M328.059,24.7143v -4.28927" fill="none" stroke="black"/>
<path d="M339.083,24.7143v -4.28927" fill="none" stroke="black"/>
<path d="M350.106,29.0036v -8.57853" fill="none" stroke="black"/>
<path d="M361.13,24.7143v -4.28927" fill="none" stroke="black"/>
<path d="M372.154,24.7143v -4.28927" fill="none" stroke="black"/>
<path d="M383.177,24.7143v -4.28927" fill="none" stroke="black"/>
<path d="M394.201,29.0036v -8.57853" fill="none" stroke="black"/>
<path d="M405.224,24.7143v -4.28927" fill="none" stroke="black"/>
<path d="M416.248,24.7143v -4.28927" fill="none" stroke="black"/>
<path d="M427.272,24.7143v -4.28927" fill="none" stroke="black"/>
<path d="M438.295,29.0036v -8.57853" fill="none" stroke="black"/>
<path d="M449.319,24.7143v -4.28927" fill="none" stroke="black"/>
<path d="M460.343,24.7143v -4.28927" fill="none" stroke="black"/>
<path d="M471.366,24.7143v -4.28927" fill="none" stroke="black"/>
<path d="M482.39,29.0036v -8.57853" fill="none" stroke="black"/>
<path d="M85.5394,359.481v -339.056" fill="none" stroke="black"/>
<path d="M99.6559,359.481h -14.1165" fill="none" stroke="black"/>
<path d="M92.5976,345.919h -7.05827" fill="none" stroke="black"/>
<path d="M92.5976,332.357h -7.05827" fill="none" stroke="black"/>
<path d="M92.5976,318.795h -7.05827" fill="none" stroke="black"/>
<path d="M92.5976,305.232h -7.05827" fill="none" stroke="black"/>
<path d="M99.6559,291.67h -14.1165" fill="none" stroke="black"/>
<path d="M92.5976,278.108h -7.05827" fill="none" stroke="black"/>
<path d="M92.5976,264.546h -7.05827" fill="none" stroke="black"/>
<path d="M92.5976,250.983h -7.05827" fill="none" stroke="black"/>
<path d="M92.5976,237.421h -7.05827" fill="none" stroke="black"/>
<path d="M99.6559,223.859h -14.1165" fill="none" stroke="black"/>
<path d="M92.5976,210.297h -7.05827" fill="none" stroke="black"/>
<path d="M92.5976,196.734h -7.05827" fill="none" stroke="black"/>
<path d="M92.5976,183.172h -7.05827" fill="none" stroke="black"/>
<path d="M92.5976,169.61h -7.05827" fill="none" stroke="black"/>
<path d="M99.6559,156.048h -14.1165" fill="none" stroke="black"/>
<path d="M92.5976,142.485h -7.05827" fill="none" stroke="black"/>
<path d="M92.5976,128.923h -7.05827" fill="none" stroke="black"/>
<path d="M92.5976,115.361h -7.05827" fill="none" stroke="black"/>
<path d="M92.5976,101.799h -7.05827" fill="none" stroke="black"/>
<path d="M99.6559,88.2363h -14.1165" fill="none" stroke="black"/>
<path d="M92.5976,74.6741h -7.05827" fill="none" stroke="black"/>
<path d="M92.5976,61.1118h -7.05827" fill="none" stroke="black"/>
<path d="M92.5976,47.5496h -7.05827" fill="none" stroke="black"/>
<path d="M92.5976,33.9873h -7.05827" fill="none" stroke="black"/>
<path d="M99.6559,20.4251h -14.1165" fill="none" stroke="black"/>
<text xml:space="preserve" x="75.0959" y="364.454" fill="black" font-size="13.617" font-family="Helvetica">0</text>
<text xml:space="preserve" x="63.7289" y="296.252" fill="black" font-size="13.617" font-family="Helvetica">0.5</text>
<text xml:space="preserve" x="77.2272" y="229.471" fill="black" font-size="13.617" font-family="Helvetica">1</text>
<text xml:space="preserve" x="63.7289" y="160.559" fill="black" font-size="13.617" font-family="Helvetica">1.5</text>
<text xml:space="preserve" x="75.0959" y="93.7778" fill="black" font-size="13.617" font-family="Helvetica">2</text>
<text xml:space="preserve" x="63.7289" y="24.8653" fill="black" font-size="13.617" font-family="Helvetica">2.5</text>
<g transform="rotate(-90,49.5202,24.1549)">
<text xml:space="preserve" x="49.5202" y="24.1549" fill="black" font-size="13.617" font-family="Helvetica"> </text>
</g>
<g transform="rotate(-90,57.335,37.6532)">
<text xml:space="preserve" x="57.335" y="37.6532" fill="black" font-size="9.24468" font-family="Helvetica">MB</text>
</g>
<g transform="rotate(-90,49.5202,41.2054)">
<text xml:space="preserve" x="49.5202" y="41.2054" fill="black" font-size="13.617" font-family="Helvetica">)</text>
</g>
<g transform="rotate(-90,65.1498,49.0202)">
<text xml:space="preserve" x="65.1498" y="49.0202" fill="black" font-size="9.24468" font-family="Helvetica">T</text>
</g>
<g transform="rotate(-90,57.335,63.9394)">
<text xml:space="preserve" x="57.335" y="63.9394" fill="black" font-size="13.617" font-family="Helvetica">dp</text>
</g>
<g transform="rotate(-90,33.1801,44.7576)">
<text xml:space="preserve" x="33.1801" y="44.7576" fill="black" font-size="6.32979" font-family="Helvetica">0</text>
</g>
<g transform="rotate(-90,36.7323,49.7306)">
<text xml:space="preserve" x="36.7323" y="49.7306" fill="black" font-size="9.24468" font-family="Times">&#0960;</text>
</g>
<g transform="rotate(-90,43.1263,66.0707)">
<text xml:space="preserve" x="43.1263" y="66.0707" fill="black" font-size="13.617" font-family="Helvetica">dN</text>
</g>
<path d="M45.968,66.0707v -24.8653" fill="none" stroke="black" stroke-width="2"/>
<g transform="rotate(-90,49.5202,70.3333)">
<text xml:space="preserve" x="49.5202" y="70.3333" fill="black" font-size="13.617" font-family="Helvetica"> </text>
</g>
<g transform="rotate(-90,61.5976,93.0673)">
<text xml:space="preserve" x="61.5976" y="93.0673" fill="black" font-size="9.24468" font-family="Helvetica">event</text>
</g>
<g transform="rotate(-90,57.335,102.303)">
<text xml:space="preserve" x="57.335" y="102.303" fill="black" font-size="13.617" font-family="Helvetica">N</text>
</g>
<g transform="rotate(-90,43.8367,88.8047)">
<text xml:space="preserve" x="43.8367" y="88.8047" fill="black" font-size="13.617" font-family="Helvetica">1</text>
</g>
<path d="M45.968,102.303v -31.9697" fill="none" stroke="black" stroke-width="2"/>
<g transform="rotate(-90,49.5202,106.566)">
<text xml:space="preserve" x="49.5202" y="106.566" fill="black" font-size="13.617" font-family="Helvetica"> </text>
</g>
<g transform="rotate(-90,58.0454,110.828)">
<text xml:space="preserve" x="58.0454" y="110.828" fill="black" font-size="13.617" font-family="Times">&#0062;</text>
</g>
<g transform="rotate(-90,64.4394,124.327)">
<text xml:space="preserve" x="64.4394" y="124.327" fill="black" font-size="9.24468" font-family="Helvetica">coll</text>
</g>
<g transform="rotate(-90,58.0454,133.562)">
<text xml:space="preserve" x="58.0454" y="133.562" fill="black" font-size="13.617" font-family="Helvetica">N</text>
</g>
<g transform="rotate(-90,58.0454,137.825)">
<text xml:space="preserve" x="58.0454" y="137.825" fill="black" font-size="13.617" font-family="Times">&#0060;</text>
</g>
<g transform="rotate(-90,43.8367,124.327)">
<text xml:space="preserve" x="43.8367" y="124.327" fill="black" font-size="13.617" font-family="Helvetica">1</text>
</g>
<path d="M45.968,137.825v -31.2593" fill="none" stroke="black" stroke-width="2"/>
<g transform="rotate(-90,49.5202,153.455)">
<text xml:space="preserve" x="49.5202" y="153.455" fill="black" font-size="13.617" font-family="Helvetica"> / (</text>
</g>
<g transform="rotate(-90,56.6246,171.215)">
<text xml:space="preserve" x="56.6246" y="171.215" fill="black" font-size="9.24468" font-family="Helvetica">cent</text>
</g>
<g transform="rotate(-90,49.5202,174.768)">
<text xml:space="preserve" x="49.5202" y="174.768" fill="black" font-size="13.617" font-family="Helvetica">)</text>
</g>
<g transform="rotate(-90,65.1498,182.582)">
<text xml:space="preserve" x="65.1498" y="182.582" fill="black" font-size="9.24468" font-family="Helvetica">T</text>
</g>
<g transform="rotate(-90,57.335,197.502)">
<text xml:space="preserve" x="57.335" y="197.502" fill="black" font-size="13.617" font-family="Helvetica">dp</text>
</g>
<g transform="rotate(-90,33.1801,178.32)">
<text xml:space="preserve" x="33.1801" y="178.32" fill="black" font-size="6.32979" font-family="Helvetica">0</text>
</g>
<g transform="rotate(-90,36.7323,183.293)">
<text xml:space="preserve" x="36.7323" y="183.293" fill="black" font-size="9.24468" font-family="Times">&#0960;</text>
</g>
<g transform="rotate(-90,43.1263,199.633)">
<text xml:space="preserve" x="43.1263" y="199.633" fill="black" font-size="13.617" font-family="Helvetica">dN</text>
</g>
<path d="M45.968,199.633v -24.8653" fill="none" stroke="black" stroke-width="2"/>
<g transform="rotate(-90,49.5202,203.896)">
<text xml:space="preserve" x="49.5202" y="203.896" fill="black" font-size="13.617" font-family="Helvetica"> </text>
</g>
<g transform="rotate(-90,61.5976,226.63)">
<text xml:space="preserve" x="61.5976" y="226.63" fill="black" font-size="9.24468" font-family="Helvetica">event</text>
</g>
<g transform="rotate(-90,57.335,235.865)">
<text xml:space="preserve" x="57.335" y="235.865" fill="black" font-size="13.617" font-family="Helvetica">N</text>
</g>
<g transform="rotate(-90,43.8367,222.367)">
<text xml:space="preserve" x="43.8367" y="222.367" fill="black" font-size="13.617" font-family="Helvetica">1</text>
</g>
<path d="M45.968,235.865v -31.9697" fill="none" stroke="black" stroke-width="2"/>
<g transform="rotate(-90,49.5202,240.128)">
<text xml:space="preserve" x="49.5202" y="240.128" fill="black" font-size="13.617" font-family="Helvetica"> </text>
</g>
<g transform="rotate(-90,58.0454,244.391)">
<text xml:space="preserve" x="58.0454" y="244.391" fill="black" font-size="13.617" font-family="Times">&#0062;</text>
</g>
<g transform="rotate(-90,64.4394,257.889)">
<text xml:space="preserve" x="64.4394" y="257.889" fill="black" font-size="9.24468" font-family="Helvetica">coll</text>
</g>
<g transform="rotate(-90,58.0454,267.125)">
<text xml:space="preserve" x="58.0454" y="267.125" fill="black" font-size="13.617" font-family="Helvetica">N</text>
</g>
<g transform="rotate(-90,58.0454,271.387)">
<text xml:space="preserve" x="58.0454" y="271.387" fill="black" font-size="13.617" font-family="Times">&#0060;</text>
</g>
<g transform="rotate(-90,43.8367,257.889)">
<text xml:space="preserve" x="43.8367" y="257.889" fill="black" font-size="13.617" font-family="Helvetica">1</text>
</g>
<path d="M45.968,271.387v -31.2593" fill="none" stroke="black" stroke-width="2"/>
<g transform="rotate(-90,49.5202,275.65)">
<text xml:space="preserve" x="49.5202" y="275.65" fill="black" font-size="13.617" font-family="Helvetica">(</text>
</g>
<path d="M482.39,359.481v -339.056" fill="none" stroke="black"/>
<path d="M468.273,359.481h 14.1165" fill="none" stroke="black"/>
<path d="M475.332,345.919h 7.05827" fill="none" stroke="black"/>
<path d="M475.332,332.357h 7.05827" fill="none" stroke="black"/>
<path d="M475.332,318.795h 7.05827" fill="none" stroke="black"/>
<path d="M475.332,305.232h 7.05827" fill="none" stroke="black"/>
<path d="M468.273,291.67h 14.1165" fill="none" stroke="black"/>
<path d="M475.332,278.108h 7.05827" fill="none" stroke="black"/>
<path d="M475.332,264.546h 7.05827" fill="none" stroke="black"/>
<path d="M475.332,250.983h 7.05827" fill="none" stroke="black"/>
<path d="M475.332,237.421h 7.05827" fill="none" stroke="black"/>
<path d="M468.273,223.859h 14.1165" fill="none" stroke="black"/>
<path d="M475.332,210.297h 7.05827" fill="none" stroke="black"/>
<path d="M475.332,196.734h 7.05827" fill="none" stroke="black"/>
<path d="M475.332,183.172h 7.05827" fill="none" stroke="black"/>
<path d="M475.332,169.61h 7.05827" fill="none" stroke="black"/>
<path d="M468.273,156.048h 14.1165" fill="none" stroke="black"/>
<path d="M475.332,142.485h 7.05827" fill="none" stroke="black"/>
<path d="M475.332,128.923h 7.05827" fill="none" stroke="black"/>
<path d="M475.332,115.361h 7.05827" fill="none" stroke="black"/>
<path d="M475.332,101.799h 7.05827" fill="none" stroke="black"/>
<path d="M468.273,88.2363h 14.1165" fill="none" stroke="black"/>
<path d="M475.332,74.6741h 7.05827" fill="none" stroke="black"/>
<path d="M475.332,61.1118h 7.05827" fill="none" stroke="black"/>
<path d="M475.332,47.5496h 7.05827" fill="none" stroke="black"/>
<path d="M475.332,33.9873h 7.05827" fill="none" stroke="black"/>
<path d="M468.273,20.4251h 14.1165" fill="none" stroke="black"/>
<path d="M85.5394,240.192h 8.18187" fill="none" stroke="#ffcc00"/>
<path d="M99.4047,240.192h 8.18187" fill="none" stroke="#ffcc00"/>
<g fill="#ffcc00">
<polygon points=" 95.6157, 239.245 95.6157, 237.351 97.5102, 237.351 97.5102, 239.245 99.4047, 239.245 99.4047, 241.14 97.5102, 241.14 97.5102, 243.034 95.6157, 243.034 95.6157, 241.14 93.7212, 241.14 93.7212, 239.245"/>
</g>
<path d="M107.587,244.596h 19.2055" fill="none" stroke="#ffcc00"/>
<path d="M132.476,244.596h 19.2055" fill="none" stroke="#ffcc00"/>
<g fill="#ffcc00">
<polygon points=" 128.687, 243.649 128.687, 241.754 130.581, 241.754 130.581, 243.649 132.476, 243.649 132.476, 245.543 130.581, 245.543 130.581, 247.438 128.687, 247.438 128.687, 245.543 126.792, 245.543 126.792, 243.649"/>
</g>
<path d="M151.681,254.956h 19.2055" fill="none" stroke="#ffcc00"/>
<path d="M176.57,254.956h 19.2055" fill="none" stroke="#ffcc00"/>
<g fill="#ffcc00">
<polygon points=" 172.781, 254.008 172.781, 252.114 174.676, 252.114 174.676, 254.008 176.57, 254.008 176.57, 255.903 174.676, 255.903 174.676, 257.797 172.781, 257.797 172.781, 255.903 170.887, 255.903 170.887, 254.008"/>
</g>
<path d="M195.776,263.336h 19.2055" fill="none" stroke="#ffcc00"/>
<path d="M220.665,263.336h 19.2055" fill="none" stroke="#ffcc00"/>
<g fill="#ffcc00">
<polygon points=" 216.876, 262.389 216.876, 260.495 218.77, 260.495 218.77, 262.389 220.665, 262.389 220.665, 264.284 218.77, 264.284 218.77, 266.178 216.876, 266.178 216.876, 264.284 214.981, 264.284 214.981, 262.389"/>
</g>
<path d="M239.87,266.84h 19.2055" fill="none" stroke="#ffcc00"/>
<path d="M264.759,266.84h 19.2055" fill="none" stroke="#ffcc00"/>
<g fill="#ffcc00">
<polygon points=" 260.97, 265.893 260.97, 263.998 262.865, 263.998 262.865, 265.893 264.759, 265.893 264.759, 267.787 262.865, 267.787 262.865, 269.682 260.97, 269.682 260.97, 267.787 259.076, 267.787 259.076, 265.893"/>
</g>
<path d="M328.059,275.489v -0.726986" fill="none" stroke="#ffcc00"/>
<path d="M328.059,269.078v -0.726986" fill="none" stroke="#ffcc00"/>
<path d="M283.965,271.92h 41.2527" fill="none" stroke="#ffcc00"/>
<path d="M330.901,271.92h 41.2527" fill="none" stroke="#ffcc00"/>
<g fill="#ffcc00">
<polygon points=" 327.112, 270.973 327.112, 269.078 329.006, 269.078 329.006, 270.973 330.901, 270.973 330.901, 272.867 329.006, 272.867 329.006, 274.762 327.112, 274.762 327.112, 272.867 325.217, 272.867 325.217, 270.973"/>
</g>
<path d="M427.272,298.344v -6.02844" fill="none" stroke="#ffcc00"/>
<path d="M427.272,286.632v -6.02844" fill="none" stroke="#ffcc00"/>
<path d="M372.154,289.473h 52.2764" fill="none" stroke="#ffcc00"/>
<path d="M430.113,289.473h 52.2764" fill="none" stroke="#ffcc00"/>
<g fill="#ffcc00">
<polygon points=" 426.324, 288.526 426.324, 286.632 428.219, 286.632 428.219, 288.526 430.113, 288.526 430.113, 290.421 428.219, 290.421 428.219, 292.315 426.324, 292.315 426.324, 290.421 424.43, 290.421 424.43, 288.526"/>
</g>
<path d="M85.5394,232.786h 8.18187" fill="none" stroke="#ff0000"/>
<path d="M99.4047,232.786h 8.18187" fill="none" stroke="#ff0000"/>
<g fill="#ff0000">
<polygon points=" 95.6157, 231.839 95.6157, 229.944 97.5102, 229.944 97.5102, 231.839 99.4047, 231.839 99.4047, 233.733 97.5102, 233.733 97.5102, 235.628 95.6157, 235.628 95.6157, 233.733 93.7212, 233.733 93.7212, 231.839"/>
</g>
<path d="M107.587,235.489h 19.2055" fill="none" stroke="#ff0000"/>
<path d="M132.476,235.489h 19.2055" fill="none" stroke="#ff0000"/>
<g fill="#ff0000">
<polygon points=" 128.687, 234.541 128.687, 232.647 130.581, 232.647 130.581, 234.541 132.476, 234.541 132.476, 236.436 130.581, 236.436 130.581, 238.33 128.687, 238.33 128.687, 236.436 126.792, 236.436 126.792, 234.541"/>
</g>
<path d="M151.681,241.621h 19.2055" fill="none" stroke="#ff0000"/>
<path d="M176.57,241.621h 19.2055" fill="none" stroke="#ff0000"/>
<g fill="#ff0000">
<polygon points=" 172.781, 240.674 172.781, 238.78 174.676, 238.78 174.676, 240.674 176.57, 240.674 176.57, 242.569 174.676, 242.569 174.676, 244.463 172.781, 244.463 172.781, 242.569 170.887, 242.569 170.887, 240.674"/>
</g>
<path d="M195.776,246.593h 19.2055" fill="none" stroke="#ff0000"/>
<path d="M220.665,246.593h 19.2055" fill="none" stroke="#ff0000"/>
<g fill="#ff0000">
<polygon points=" 216.876, 245.646 216.876, 243.751 218.77, 243.751 218.77, 245.646 220.665, 245.646 220.665, 247.54 218.77, 247.54 218.77, 249.435 216.876, 249.435 216.876, 247.54 214.981, 247.54 214.981, 245.646"/>
</g>
<path d="M239.87,254.219h 19.2055" fill="none" stroke="#ff0000"/>
<path d="M264.759,254.219h 19.2055" fill="none" stroke="#ff0000"/>
<g fill="#ff0000">
<polygon points=" 260.97, 253.272 260.97, 251.377 262.865, 251.377 262.865, 253.272 264.759, 253.272 264.759, 255.166 262.865, 255.166 262.865, 257.061 260.97, 257.061 260.97, 255.166 259.076, 255.166 259.076, 253.272"/>
</g>
<path d="M328.059,257.538v -1.42495" fill="none" stroke="#ff0000"/>
<path d="M328.059,250.43v -1.42495" fill="none" stroke="#ff0000"/>
<path d="M283.965,253.272h 41.2527" fill="none" stroke="#ff0000"/>
<path d="M330.901,253.272h 41.2527" fill="none" stroke="#ff0000"/>
<g fill="#ff0000">
<polygon points=" 327.112, 252.324 327.112, 250.43 329.006, 250.43 329.006, 252.324 330.901, 252.324 330.901, 254.219 329.006, 254.219 329.006, 256.113 327.112, 256.113 327.112, 254.219 325.217, 254.219 325.217, 252.324"/>
</g>
<path d="M427.272,278.654v -8.22606" fill="none" stroke="#ff0000"/>
<path d="M427.272,264.744v -8.22606" fill="none" stroke="#ff0000"/>
<path d="M372.154,267.586h 52.2764" fill="none" stroke="#ff0000"/>
<path d="M430.113,267.586h 52.2764" fill="none" stroke="#ff0000"/>
<g fill="#ff0000">
<polygon points=" 426.324, 266.639 426.324, 264.744 428.219, 264.744 428.219, 266.639 430.113, 266.639 430.113, 268.533 428.219, 268.533 428.219, 270.428 426.324, 270.428 426.324, 268.533 424.43, 268.533 424.43, 266.639"/>
</g>
<path d="M85.5394,225.974h 8.18187" fill="none" stroke="#ff0033"/>
<path d="M99.4047,225.974h 8.18187" fill="none" stroke="#ff0033"/>
<g stroke="#ff0033" stroke-width="1" fill="none">
<polygon points=" 95.6157, 225.027 95.6157, 223.133 97.5102, 223.133 97.5102, 225.027 99.4047, 225.027 99.4047, 226.922 97.5102, 226.922 97.5102, 228.816 95.6157, 228.816 95.6157, 226.922 93.7212, 226.922 93.7212, 225.027"/>
</g>
<path d="M107.587,227.092h 19.2055" fill="none" stroke="#ff0033"/>
<path d="M132.476,227.092h 19.2055" fill="none" stroke="#ff0033"/>
<g stroke="#ff0033" stroke-width="1" fill="none">
<polygon points=" 128.687, 226.145 128.687, 224.25 130.581, 224.25 130.581, 226.145 132.476, 226.145 132.476, 228.039 130.581, 228.039 130.581, 229.934 128.687, 229.934 128.687, 228.039 126.792, 228.039 126.792, 226.145"/>
</g>
<path d="M151.681,229.998h 19.2055" fill="none" stroke="#ff0033"/>
<path d="M176.57,229.998h 19.2055" fill="none" stroke="#ff0033"/>
<g stroke="#ff0033" stroke-width="1" fill="none">
<polygon points=" 172.781, 229.051 172.781, 227.156 174.676, 227.156 174.676, 229.051 176.57, 229.051 176.57, 230.945 174.676, 230.945 174.676, 232.84 172.781, 232.84 172.781, 230.945 170.887, 230.945 170.887, 229.051"/>
</g>
<path d="M195.776,232.836h 19.2055" fill="none" stroke="#ff0033"/>
<path d="M220.665,232.836h 19.2055" fill="none" stroke="#ff0033"/>
<g stroke="#ff0033" stroke-width="1" fill="none">
<polygon points=" 216.876, 231.889 216.876, 229.995 218.77, 229.995 218.77, 231.889 220.665, 231.889 220.665, 233.784 218.77, 233.784 218.77, 235.678 216.876, 235.678 216.876, 233.784 214.981, 233.784 214.981, 231.889"/>
</g>
<path d="M239.87,233.494h 19.2055" fill="none" stroke="#ff0033"/>
<path d="M264.759,233.494h 19.2055" fill="none" stroke="#ff0033"/>
<g stroke="#ff0033" stroke-width="1" fill="none">
<polygon points=" 260.97, 232.547 260.97, 230.653 262.865, 230.653 262.865, 232.547 264.759, 232.547 264.759, 234.442 262.865, 234.442 262.865, 236.336 260.97, 236.336 260.97, 234.442 259.076, 234.442 259.076, 232.547"/>
</g>
<path d="M328.059,239.557v -0.86999" fill="none" stroke="#ff0033"/>
<path d="M328.059,233.003v -0.86999" fill="none" stroke="#ff0033"/>
<path d="M283.965,235.845h 41.2527" fill="none" stroke="#ff0033"/>
<path d="M330.901,235.845h 41.2527" fill="none" stroke="#ff0033"/>
<g stroke="#ff0033" stroke-width="1" fill="none">
<polygon points=" 327.112, 234.898 327.112, 233.003 329.006, 233.003 329.006, 234.898 330.901, 234.898 330.901, 236.792 329.006, 236.792 329.006, 238.687 327.112, 238.687 327.112, 236.792 325.217, 236.792 325.217, 234.898"/>
</g>
<path d="M427.272,256.768v -7.02195" fill="none" stroke="#ff0033"/>
<path d="M427.272,244.063v -7.02195" fill="none" stroke="#ff0033"/>
<path d="M372.154,246.904h 52.2764" fill="none" stroke="#ff0033"/>
<path d="M430.113,246.904h 52.2764" fill="none" stroke="#ff0033"/>
<g stroke="#ff0033" stroke-width="1" fill="none">
<polygon points=" 426.324, 245.957 426.324, 244.063 428.219, 244.063 428.219, 245.957 430.113, 245.957 430.113, 247.852 428.219, 247.852 428.219, 249.746 426.324, 249.746 426.324, 247.852 424.43, 247.852 424.43, 245.957"/>
</g>
<path d="M85.5394,217.373h 9.60275" fill="none" stroke="#ff00ff"/>
<path d="M97.9839,217.373h 9.60275" fill="none" stroke="#ff00ff"/>
<g fill="#ff00ff">
<polygon points=" 96.563, 218.793 95.1421, 220.214 93.7212, 218.793 95.1421, 217.373 93.7212, 215.952 95.1421, 214.531 96.563, 215.952 97.9839, 214.531 99.4047, 215.952 97.9839, 217.373 99.4047, 218.793 97.9839, 220.214 96.563, 218.793"/>
</g>
<path d="M107.587,216.121h 20.6264" fill="none" stroke="#ff00ff"/>
<path d="M131.055,216.121h 20.6264" fill="none" stroke="#ff00ff"/>
<g fill="#ff00ff">
<polygon points=" 129.634, 217.542 128.213, 218.963 126.792, 217.542 128.213, 216.121 126.792, 214.7 128.213, 213.279 129.634, 214.7 131.055, 213.279 132.476, 214.7 131.055, 216.121 132.476, 217.542 131.055, 218.963 129.634, 217.542"/>
</g>
<path d="M151.681,213.125h 20.6264" fill="none" stroke="#ff00ff"/>
<path d="M175.149,213.125h 20.6264" fill="none" stroke="#ff00ff"/>
<g fill="#ff00ff">
<polygon points=" 173.728, 214.546 172.307, 215.967 170.887, 214.546 172.307, 213.125 170.887, 211.704 172.307, 210.283 173.728, 211.704 175.149, 210.283 176.57, 211.704 175.149, 213.125 176.57, 214.546 175.149, 215.967 173.728, 214.546"/>
</g>
<path d="M195.776,213.029h 20.6264" fill="none" stroke="#ff00ff"/>
<path d="M219.244,213.029h 20.6264" fill="none" stroke="#ff00ff"/>
<g fill="#ff00ff">
<polygon points=" 217.823, 214.45 216.402, 215.87 214.981, 214.45 216.402, 213.029 214.981, 211.608 216.402, 210.187 217.823, 211.608 219.244, 210.187 220.665, 211.608 219.244, 213.029 220.665, 214.45 219.244, 215.87 217.823, 214.45"/>
</g>
<path d="M261.917,215.638v -1.2564" fill="none" stroke="#ff00ff"/>
<path d="M261.917,211.54v -1.2564" fill="none" stroke="#ff00ff"/>
<path d="M239.87,212.961h 20.6264" fill="none" stroke="#ff00ff"/>
<path d="M263.338,212.961h 20.6264" fill="none" stroke="#ff00ff"/>
<g fill="#ff00ff">
<polygon points=" 261.917, 214.382 260.496, 215.803 259.076, 214.382 260.496, 212.961 259.076, 211.54 260.496, 210.119 261.917, 211.54 263.338, 210.119 264.759, 211.54 263.338, 212.961 264.759, 214.382 263.338, 215.803 261.917, 214.382"/>
</g>
<path d="M328.059,217.591v -3.13614" fill="none" stroke="#ff00ff"/>
<path d="M328.059,211.613v -3.13614" fill="none" stroke="#ff00ff"/>
<path d="M283.965,213.034h 42.6736" fill="none" stroke="#ff00ff"/>
<path d="M329.48,213.034h 42.6736" fill="none" stroke="#ff00ff"/>
<g fill="#ff00ff">
<polygon points=" 328.059, 214.455 326.638, 215.876 325.217, 214.455 326.638, 213.034 325.217, 211.613 326.638, 210.192 328.059, 211.613 329.48, 210.192 330.901, 211.613 329.48, 213.034 330.901, 214.455 329.48, 215.876 328.059, 214.455"/>
</g>
<path d="M427.272,209.166v -12.267" fill="none" stroke="#ff00ff"/>
<path d="M427.272,194.057v -12.267" fill="none" stroke="#ff00ff"/>
<path d="M372.154,195.478h 53.6972" fill="none" stroke="#ff00ff"/>
<path d="M428.693,195.478h 53.6972" fill="none" stroke="#ff00ff"/>
<g fill="#ff00ff">
<polygon points=" 427.272, 196.899 425.851, 198.32 424.43, 196.899 425.851, 195.478 424.43, 194.057 425.851, 192.636 427.272, 194.057 428.693, 192.636 430.113, 194.057 428.693, 195.478 430.113, 196.899 428.693, 198.32 427.272, 196.899"/>
</g>
<path d="M85.5394,209.41h 8.18187" fill="none" stroke="#cc00ff"/>
<path d="M99.4047,209.41h 8.18187" fill="none" stroke="#cc00ff"/>
<g stroke="#cc00ff" stroke-width="1" fill="none">
<polygon points=" 95.6157, 208.463 95.6157, 206.568 97.5102, 206.568 97.5102, 208.463 99.4047, 208.463 99.4047, 210.357 97.5102, 210.357 97.5102, 212.252 95.6157, 212.252 95.6157, 210.357 93.7212, 210.357 93.7212, 208.463"/>
</g>
<path d="M107.587,205.479h 19.2055" fill="none" stroke="#cc00ff"/>
<path d="M132.476,205.479h 19.2055" fill="none" stroke="#cc00ff"/>
<g stroke="#cc00ff" stroke-width="1" fill="none">
<polygon points=" 128.687, 204.532 128.687, 202.638 130.581, 202.638 130.581, 204.532 132.476, 204.532 132.476, 206.427 130.581, 206.427 130.581, 208.321 128.687, 208.321 128.687, 206.427 126.792, 206.427 126.792, 204.532"/>
</g>
<path d="M151.681,197.068h 19.2055" fill="none" stroke="#cc00ff"/>
<path d="M176.57,197.068h 19.2055" fill="none" stroke="#cc00ff"/>
<g stroke="#cc00ff" stroke-width="1" fill="none">
<polygon points=" 172.781, 196.121 172.781, 194.227 174.676, 194.227 174.676, 196.121 176.57, 196.121 176.57, 198.016 174.676, 198.016 174.676, 199.91 172.781, 199.91 172.781, 198.016 170.887, 198.016 170.887, 196.121"/>
</g>
<path d="M195.776,187.784h 19.2055" fill="none" stroke="#cc00ff"/>
<path d="M220.665,187.784h 19.2055" fill="none" stroke="#cc00ff"/>
<g stroke="#cc00ff" stroke-width="1" fill="none">
<polygon points=" 216.876, 186.837 216.876, 184.942 218.77, 184.942 218.77, 186.837 220.665, 186.837 220.665, 188.731 218.77, 188.731 218.77, 190.626 216.876, 190.626 216.876, 188.731 214.981, 188.731 214.981, 186.837"/>
</g>
<path d="M261.917,186.556v -0.651832" fill="none" stroke="#cc00ff"/>
<path d="M261.917,180.221v -0.651832" fill="none" stroke="#cc00ff"/>
<path d="M239.87,183.063h 19.2055" fill="none" stroke="#cc00ff"/>
<path d="M264.759,183.063h 19.2055" fill="none" stroke="#cc00ff"/>
<g stroke="#cc00ff" stroke-width="1" fill="none">
<polygon points=" 260.97, 182.115 260.97, 180.221 262.865, 180.221 262.865, 182.115 264.759, 182.115 264.759, 184.01 262.865, 184.01 262.865, 185.904 260.97, 185.904 260.97, 184.01 259.076, 184.01 259.076, 182.115"/>
</g>
<path d="M328.059,181.194v -3.25994" fill="none" stroke="#cc00ff"/>
<path d="M328.059,172.25v -3.25994" fill="none" stroke="#cc00ff"/>
<path d="M283.965,175.092h 41.2527" fill="none" stroke="#cc00ff"/>
<path d="M330.901,175.092h 41.2527" fill="none" stroke="#cc00ff"/>
<g stroke="#cc00ff" stroke-width="1" fill="none">
<polygon points=" 327.112, 174.145 327.112, 172.25 329.006, 172.25 329.006, 174.145 330.901, 174.145 330.901, 176.039 329.006, 176.039 329.006, 177.934 327.112, 177.934 327.112, 176.039 325.217, 176.039 325.217, 174.145"/>
</g>
<path d="M427.272,177.137v -15.1423" fill="none" stroke="#cc00ff"/>
<path d="M427.272,156.311v -15.1423" fill="none" stroke="#cc00ff"/>
<path d="M372.154,159.153h 52.2764" fill="none" stroke="#cc00ff"/>
<path d="M430.113,159.153h 52.2764" fill="none" stroke="#cc00ff"/>
<g stroke="#cc00ff" stroke-width="1" fill="none">
<polygon points=" 426.324, 158.205 426.324, 156.311 428.219, 156.311 428.219, 158.205 430.113, 158.205 430.113, 160.1 428.219, 160.1 428.219, 161.994 426.324, 161.994 426.324, 160.1 424.43, 160.1 424.43, 158.205"/>
</g>
<text xml:space="preserve" x="119.143" y="51.1515" fill="black" font-size="11.7432" font-family="Helvetica">PYTHIA8, pAu200GeV with option3</text>
<text xml:space="preserve" x="153.244" y="65.3603" fill="black" font-size="11.7432" font-family="Helvetica">|&lt;1</text>
<text xml:space="preserve" x="146.85" y="65.3603" fill="black" font-size="11.7432" font-family="Times">&#0951;</text>
<text xml:space="preserve" x="129.8" y="65.3603" fill="black" font-size="11.7432" font-family="Helvetica"> in |</text>
<text xml:space="preserve" x="125.537" y="61.0976" fill="black" font-size="7.99544" font-family="Helvetica">0</text>
<text xml:space="preserve" x="119.143" y="65.3603" fill="black" font-size="11.7432" font-family="Times">&#0960;</text>
<text xml:space="preserve" x="170.295" y="80.2794" fill="black" font-size="11.7432" font-family="Helvetica">centrality: 0~10%</text>
<g fill="#ffcc00">
<polygon points=" 141.285, 76.3763 141.285, 74.4818 143.18, 74.4818 143.18, 76.3763 145.074, 76.3763 145.074, 78.2708 143.18, 78.2708 143.18, 80.1653 141.285, 80.1653 141.285, 78.2708 139.391, 78.2708 139.391, 76.3763"/>
</g>
<text xml:space="preserve" x="170.295" y="94.4882" fill="black" font-size="11.7432" font-family="Helvetica">centrality: 10~20%</text>
<g fill="#ff0000">
<polygon points=" 141.285, 90.9656 141.285, 89.0711 143.18, 89.0711 143.18, 90.9656 145.074, 90.9656 145.074, 92.8601 143.18, 92.8601 143.18, 94.7546 141.285, 94.7546 141.285, 92.8601 139.391, 92.8601 139.391, 90.9656"/>
</g>
<text xml:space="preserve" x="170.295" y="109.407" fill="black" font-size="11.7432" font-family="Helvetica">centrality: 20~40%</text>
<g stroke="#ff0033" stroke-width="1" fill="none">
<polygon points=" 141.285, 105.555 141.285, 103.66 143.18, 103.66 143.18, 105.555 145.074, 105.555 145.074, 107.449 143.18, 107.449 143.18, 109.344 141.285, 109.344 141.285, 107.449 139.391, 107.449 139.391, 105.555"/>
</g>
<text xml:space="preserve" x="170.295" y="124.327" fill="black" font-size="11.7432" font-family="Helvetica">centrality: 40~60%</text>
<g fill="#ff00ff">
<polygon points=" 142.232, 122.512 140.811, 123.933 139.391, 122.512 140.811, 121.092 139.391, 119.671 140.811, 118.25 142.232, 119.671 143.653, 118.25 145.074, 119.671 143.653, 121.092 145.074, 122.512 143.653, 123.933 142.232, 122.512"/>
</g>
<text xml:space="preserve" x="170.295" y="138.535" fill="black" font-size="11.7432" font-family="Helvetica">centrality: 60~80%</text>
<g stroke="#cc00ff" stroke-width="1" fill="none">
<polygon points=" 141.285, 134.734 141.285, 132.839 143.18, 132.839 143.18, 134.734 145.074, 134.734 145.074, 136.628 143.18, 136.628 143.18, 138.523 141.285, 138.523 141.285, 136.628 139.391, 136.628 139.391, 134.734"/>
</g></svg>
