<?xml version="1.0" standalone="no"?>
<svg width="567.429" height="409.002" viewBox="0 0 567.429 409.002" xmlns="http://www.w3.org/2000/svg" shape-rendering="crispEdges">
<title>
/Users/jinhyunpark/npl/gitHub/Centrality_dependent_BiasCorrection/plots/plots_scaled-dNdpT/scaledYield_highpT_directPhoton_byCentrality.svg
</title>
<desc>
Creator: ROOT Version 6.28/04
CreationDate: Fri Oct 20 20:42:11 2023</desc>
<defs>
</defs>
<rect x="0.5" y="0" width="566.929" height="408.502" fill="white"/>
<rect x="85.5394" y="20.4251" width="396.85" height="339.056" fill="white"/>
<rect x="85.5394" y="20.4251" width="396.85" height="339.056" fill="none" stroke="black"/>
<rect x="85.5394" y="20.4251" width="396.85" height="339.056" fill="white"/>
<rect x="85.5394" y="20.4251" width="396.85" height="339.056" fill="none" stroke="black"/>
<path d="M85.5394,359.481h 396.85" fill="none" stroke="black"/>
<path d="M85.5394,350.903v 8.57853" fill="none" stroke="black"/>
<path d="M96.563,355.192v 4.28927" fill="none" stroke="black"/>
<path d="M107.587,355.192v 4.28927" fill="none" stroke="black"/>
<path d="M118.61,355.192v 4.28927" fill="none" stroke="black"/>
<path d="M129.634,350.903v 8.57853" fill="none" stroke="black"/>
<path d="M140.657,355.192v 4.28927" fill="none" stroke="black"/>
<path d="M151.681,355.192v 4.28927" fill="none" stroke="black"/>
<path d="M162.705,355.192v 4.28927" fill="none" stroke="black"/>
<path d="M173.728,350.903v 8.57853" fill="none" stroke="black"/>
<path d="M184.752,355.192v 4.28927" fill="none" stroke="black"/>
<path d="M195.776,355.192v 4.28927" fill="none" stroke="black"/>
<path d="M206.799,355.192v 4.28927" fill="none" stroke="black"/>
<path d="M217.823,350.903v 8.57853" fill="none" stroke="black"/>
<path d="M228.846,355.192v 4.28927" fill="none" stroke="black"/>
<path d="M239.87,355.192v 4.28927" fill="none" stroke="black"/>
<path d="M250.894,355.192v 4.28927" fill="none" stroke="black"/>
<path d="M261.917,350.903v 8.57853" fill="none" stroke="black"/>
<path d="M272.941,355.192v 4.28927" fill="none" stroke="black"/>
<path d="M283.965,355.192v 4.28927" fill="none" stroke="black"/>
<path d="M294.988,355.192v 4.28927" fill="none" stroke="black"/>
<path d="M306.012,350.903v 8.57853" fill="none" stroke="black"/>
<path d="M317.035,355.192v 4.28927" fill="none" stroke="black"/>
<path d="M328.059,355.192v 4.28927" fill="none" stroke="black"/>
<path d="M339.083,355.192v 4.28927" fill="none" stroke="black"/>
<path d="M350.106,350.903v 8.57853" fill="none" stroke="black"/>
<path d="M361.13,355.192v 4.28927" fill="none" stroke="black"/>
<path d="M372.154,355.192v 4.28927" fill="none" stroke="black"/>
<path d="M383.177,355.192v 4.28927" fill="none" stroke="black"/>
<path d="M394.201,350.903v 8.57853" fill="none" stroke="black"/>
<path d="M405.224,355.192v 4.28927" fill="none" stroke="black"/>
<path d="M416.248,355.192v 4.28927" fill="none" stroke="black"/>
<path d="M427.272,355.192v 4.28927" fill="none" stroke="black"/>
<path d="M438.295,350.903v 8.57853" fill="none" stroke="black"/>
<path d="M449.319,355.192v 4.28927" fill="none" stroke="black"/>
<path d="M460.343,355.192v 4.28927" fill="none" stroke="black"/>
<path d="M471.366,355.192v 4.28927" fill="none" stroke="black"/>
<path d="M482.39,350.903v 8.57853" fill="none" stroke="black"/>
<text xml:space="preserve" x="81.4899" y="372.269" fill="black" font-size="13.617" font-family="Helvetica">2</text>
<text xml:space="preserve" x="125.537" y="372.269" fill="black" font-size="13.617" font-family="Helvetica">4</text>
<text xml:space="preserve" x="169.584" y="372.269" fill="black" font-size="13.617" font-family="Helvetica">6</text>
<text xml:space="preserve" x="213.631" y="372.269" fill="black" font-size="13.617" font-family="Helvetica">8</text>
<text xml:space="preserve" x="253.416" y="372.269" fill="black" font-size="13.617" font-family="Helvetica">10</text>
<text xml:space="preserve" x="298.173" y="372.269" fill="black" font-size="13.617" font-family="Helvetica">12</text>
<text xml:space="preserve" x="342.22" y="372.269" fill="black" font-size="13.617" font-family="Helvetica">14</text>
<text xml:space="preserve" x="386.268" y="372.269" fill="black" font-size="13.617" font-family="Helvetica">16</text>
<text xml:space="preserve" x="430.315" y="372.269" fill="black" font-size="13.617" font-family="Helvetica">18</text>
<text xml:space="preserve" x="474.362" y="372.269" fill="black" font-size="13.617" font-family="Helvetica">20</text>
<text xml:space="preserve" x="436.709" y="384.347" fill="black" font-size="13.617" font-family="Helvetica">(GeV/c)</text>
<text xml:space="preserve" x="431.025" y="392.162" fill="black" font-size="9.24468" font-family="Helvetica">T</text>
<text xml:space="preserve" x="423.21" y="384.347" fill="black" font-size="13.617" font-family="Helvetica">p</text>
<path d="M85.5394,20.4251h 396.85" fill="none" stroke="black"/>
<path d="M85.5394,29.0036v -8.57853" fill="none" stroke="black"/>
<path d="M96.563,24.7143v -4.28927" fill="none" stroke="black"/>
<path d="M107.587,24.7143v -4.28927" fill="none" stroke="black"/>
<path d="M118.61,24.7143v -4.28927" fill="none" stroke="black"/>
<path d="M129.634,29.0036v -8.57853" fill="none" stroke="black"/>
<path d="M140.657,24.7143v -4.28927" fill="none" stroke="black"/>
<path d="M151.681,24.7143v -4.28927" fill="none" stroke="black"/>
<path d="M162.705,24.7143v -4.28927" fill="none" stroke="black"/>
<path d="M173.728,29.0036v -8.57853" fill="none" stroke="black"/>
<path d="M184.752,24.7143v -4.28927" fill="none" stroke="black"/>
<path d="M195.776,24.7143v -4.28927" fill="none" stroke="black"/>
<path d="M206.799,24.7143v -4.28927" fill="none" stroke="black"/>
<path d="M217.823,29.0036v -8.57853" fill="none" stroke="black"/>
<path d="M228.846,24.7143v -4.28927" fill="none" stroke="black"/>
<path d="M239.87,24.7143v -4.28927" fill="none" stroke="black"/>
<path d="M250.894,24.7143v -4.28927" fill="none" stroke="black"/>
<path d="M261.917,29.0036v -8.57853" fill="none" stroke="black"/>
<path d="M272.941,24.7143v -4.28927" fill="none" stroke="black"/>
<path d="M283.965,24.7143v -4.28927" fill="none" stroke="black"/>
<path d="M294.988,24.7143v -4.28927" fill="none" stroke="black"/>
<path d="M306.012,29.0036v -8.57853" fill="none" stroke="black"/>
<path d="M317.035,24.7143v -4.28927" fill="none" stroke="black"/>
<path d="M328.059,24.7143v -4.28927" fill="none" stroke="black"/>
<path d="M339.083,24.7143v -4.28927" fill="none" stroke="black"/>
<path d="M350.106,29.0036v -8.57853" fill="none" stroke="black"/>
<path d="M361.13,24.7143v -4.28927" fill="none" stroke="black"/>
<path d="M372.154,24.7143v -4.28927" fill="none" stroke="black"/>
<path d="M383.177,24.7143v -4.28927" fill="none" stroke="black"/>
<path d="M394.201,29.0036v -8.57853" fill="none" stroke="black"/>
<path d="M405.224,24.7143v -4.28927" fill="none" stroke="black"/>
<path d="M416.248,24.7143v -4.28927" fill="none" stroke="black"/>
<path d="M427.272,24.7143v -4.28927" fill="none" stroke="black"/>
<path d="M438.295,29.0036v -8.57853" fill="none" stroke="black"/>
<path d="M449.319,24.7143v -4.28927" fill="none" stroke="black"/>
<path d="M460.343,24.7143v -4.28927" fill="none" stroke="black"/>
<path d="M471.366,24.7143v -4.28927" fill="none" stroke="black"/>
<path d="M482.39,29.0036v -8.57853" fill="none" stroke="black"/>
<path d="M85.5394,359.481v -339.056" fill="none" stroke="black"/>
<path d="M99.6559,359.481h -14.1165" fill="none" stroke="black"/>
<text xml:space="preserve" x="72.2542" y="359.481" fill="black" font-size="9.24468" font-family="Helvetica">11</text>
<text xml:space="preserve" x="67.2811" y="359.481" fill="black" font-size="9.24468" font-family="Times">&#8722;</text>
<text xml:space="preserve" x="52.3619" y="365.165" fill="black" font-size="13.617" font-family="Helvetica">10</text>
<path d="M92.5976,344.9h -7.05827" fill="none" stroke="black"/>
<path d="M92.5976,336.371h -7.05827" fill="none" stroke="black"/>
<path d="M92.5976,330.32h -7.05827" fill="none" stroke="black"/>
<path d="M92.5976,325.626h -7.05827" fill="none" stroke="black"/>
<path d="M92.5976,321.79h -7.05827" fill="none" stroke="black"/>
<path d="M92.5976,318.548h -7.05827" fill="none" stroke="black"/>
<path d="M92.5976,315.739h -7.05827" fill="none" stroke="black"/>
<path d="M92.5976,313.261h -7.05827" fill="none" stroke="black"/>
<path d="M99.6559,311.045h -14.1165" fill="none" stroke="black"/>
<text xml:space="preserve" x="70.8333" y="310.461" fill="black" font-size="9.24468" font-family="Helvetica">10</text>
<text xml:space="preserve" x="65.8603" y="310.461" fill="black" font-size="9.24468" font-family="Times">&#8722;</text>
<text xml:space="preserve" x="50.9411" y="316.855" fill="black" font-size="13.617" font-family="Helvetica">10</text>
<path d="M92.5976,296.464h -7.05827" fill="none" stroke="black"/>
<path d="M92.5976,287.935h -7.05827" fill="none" stroke="black"/>
<path d="M92.5976,281.883h -7.05827" fill="none" stroke="black"/>
<path d="M92.5976,277.189h -7.05827" fill="none" stroke="black"/>
<path d="M92.5976,273.354h -7.05827" fill="none" stroke="black"/>
<path d="M92.5976,270.111h -7.05827" fill="none" stroke="black"/>
<path d="M92.5976,267.302h -7.05827" fill="none" stroke="black"/>
<path d="M92.5976,264.824h -7.05827" fill="none" stroke="black"/>
<path d="M99.6559,262.608h -14.1165" fill="none" stroke="black"/>
<text xml:space="preserve" x="75.8064" y="262.151" fill="black" font-size="9.24468" font-family="Helvetica">9</text>
<text xml:space="preserve" x="70.8333" y="262.151" fill="black" font-size="9.24468" font-family="Times">&#8722;</text>
<text xml:space="preserve" x="55.9141" y="268.545" fill="black" font-size="13.617" font-family="Helvetica">10</text>
<path d="M92.5976,248.027h -7.05827" fill="none" stroke="black"/>
<path d="M92.5976,239.498h -7.05827" fill="none" stroke="black"/>
<path d="M92.5976,233.446h -7.05827" fill="none" stroke="black"/>
<path d="M92.5976,228.752h -7.05827" fill="none" stroke="black"/>
<path d="M92.5976,224.917h -7.05827" fill="none" stroke="black"/>
<path d="M92.5976,221.674h -7.05827" fill="none" stroke="black"/>
<path d="M92.5976,218.866h -7.05827" fill="none" stroke="black"/>
<path d="M92.5976,216.388h -7.05827" fill="none" stroke="black"/>
<path d="M99.6559,214.172h -14.1165" fill="none" stroke="black"/>
<text xml:space="preserve" x="75.8064" y="213.842" fill="black" font-size="9.24468" font-family="Helvetica">8</text>
<text xml:space="preserve" x="70.8333" y="213.842" fill="black" font-size="9.24468" font-family="Times">&#8722;</text>
<text xml:space="preserve" x="55.9141" y="220.236" fill="black" font-size="13.617" font-family="Helvetica">10</text>
<path d="M92.5976,199.591h -7.05827" fill="none" stroke="black"/>
<path d="M92.5976,191.061h -7.05827" fill="none" stroke="black"/>
<path d="M92.5976,185.01h -7.05827" fill="none" stroke="black"/>
<path d="M92.5976,180.316h -7.05827" fill="none" stroke="black"/>
<path d="M92.5976,176.481h -7.05827" fill="none" stroke="black"/>
<path d="M92.5976,173.238h -7.05827" fill="none" stroke="black"/>
<path d="M92.5976,170.429h -7.05827" fill="none" stroke="black"/>
<path d="M92.5976,167.951h -7.05827" fill="none" stroke="black"/>
<path d="M99.6559,165.735h -14.1165" fill="none" stroke="black"/>
<text xml:space="preserve" x="75.8064" y="166.242" fill="black" font-size="9.24468" font-family="Helvetica">7</text>
<text xml:space="preserve" x="70.8333" y="166.242" fill="black" font-size="9.24468" font-family="Times">&#8722;</text>
<text xml:space="preserve" x="55.9141" y="171.926" fill="black" font-size="13.617" font-family="Helvetica">10</text>
<path d="M92.5976,151.154h -7.05827" fill="none" stroke="black"/>
<path d="M92.5976,142.625h -7.05827" fill="none" stroke="black"/>
<path d="M92.5976,136.573h -7.05827" fill="none" stroke="black"/>
<path d="M92.5976,131.879h -7.05827" fill="none" stroke="black"/>
<path d="M92.5976,128.044h -7.05827" fill="none" stroke="black"/>
<path d="M92.5976,124.801h -7.05827" fill="none" stroke="black"/>
<path d="M92.5976,121.992h -7.05827" fill="none" stroke="black"/>
<path d="M92.5976,119.515h -7.05827" fill="none" stroke="black"/>
<path d="M99.6559,117.298h -14.1165" fill="none" stroke="black"/>
<text xml:space="preserve" x="75.8064" y="117.222" fill="black" font-size="9.24468" font-family="Helvetica">6</text>
<text xml:space="preserve" x="70.8333" y="117.222" fill="black" font-size="9.24468" font-family="Times">&#8722;</text>
<text xml:space="preserve" x="55.9141" y="123.616" fill="black" font-size="13.617" font-family="Helvetica">10</text>
<path d="M92.5976,102.717h -7.05827" fill="none" stroke="black"/>
<path d="M92.5976,94.1882h -7.05827" fill="none" stroke="black"/>
<path d="M92.5976,88.1366h -7.05827" fill="none" stroke="black"/>
<path d="M92.5976,83.4426h -7.05827" fill="none" stroke="black"/>
<path d="M92.5976,79.6073h -7.05827" fill="none" stroke="black"/>
<path d="M92.5976,76.3646h -7.05827" fill="none" stroke="black"/>
<path d="M92.5976,73.5557h -7.05827" fill="none" stroke="black"/>
<path d="M92.5976,71.078h -7.05827" fill="none" stroke="black"/>
<path d="M99.6559,68.8617h -14.1165" fill="none" stroke="black"/>
<text xml:space="preserve" x="75.8064" y="68.202" fill="black" font-size="9.24468" font-family="Helvetica">5</text>
<text xml:space="preserve" x="70.8333" y="68.202" fill="black" font-size="9.24468" font-family="Times">&#8722;</text>
<text xml:space="preserve" x="55.9141" y="74.5959" fill="black" font-size="13.617" font-family="Helvetica">10</text>
<path d="M92.5976,54.2808h -7.05827" fill="none" stroke="black"/>
<path d="M92.5976,45.7516h -7.05827" fill="none" stroke="black"/>
<path d="M92.5976,39.6999h -7.05827" fill="none" stroke="black"/>
<path d="M92.5976,35.006h -7.05827" fill="none" stroke="black"/>
<path d="M92.5976,31.1707h -7.05827" fill="none" stroke="black"/>
<path d="M92.5976,27.928h -7.05827" fill="none" stroke="black"/>
<path d="M92.5976,25.1191h -7.05827" fill="none" stroke="black"/>
<path d="M92.5976,22.6414h -7.05827" fill="none" stroke="black"/>
<path d="M99.6559,20.4251h -14.1165" fill="none" stroke="black"/>
<text xml:space="preserve" x="75.8064" y="20.6027" fill="black" font-size="9.24468" font-family="Helvetica">4</text>
<text xml:space="preserve" x="70.8333" y="20.6027" fill="black" font-size="9.24468" font-family="Times">&#8722;</text>
<text xml:space="preserve" x="55.9141" y="26.2862" fill="black" font-size="13.617" font-family="Helvetica">10</text>
<g transform="rotate(-90,39.5741,24.1549)">
<text xml:space="preserve" x="39.5741" y="24.1549" fill="black" font-size="13.617" font-family="Helvetica"> </text>
</g>
<g transform="rotate(-90,55.2037,33.3906)">
<text xml:space="preserve" x="55.2037" y="33.3906" fill="black" font-size="9.24468" font-family="Helvetica">T</text>
</g>
<g transform="rotate(-90,47.3889,48.3098)">
<text xml:space="preserve" x="47.3889" y="48.3098" fill="black" font-size="13.617" font-family="Helvetica">dp</text>
</g>
<g transform="rotate(-90,21.8131,30.5488)">
<text xml:space="preserve" x="21.8131" y="30.5488" fill="black" font-size="6.32979" font-family="Helvetica">dir</text>
</g>
<g transform="rotate(-90,25.3653,35.5219)">
<text xml:space="preserve" x="25.3653" y="35.5219" fill="black" font-size="9.24468" font-family="Times">&#0947;</text>
</g>
<g transform="rotate(-90,33.1801,51.8619)">
<text xml:space="preserve" x="33.1801" y="51.8619" fill="black" font-size="13.617" font-family="Helvetica">dN</text>
</g>
<path d="M36.0219,51.8619v -27.7071" fill="none" stroke="black" stroke-width="2"/>
<g transform="rotate(-90,39.5741,56.1246)">
<text xml:space="preserve" x="39.5741" y="56.1246" fill="black" font-size="13.617" font-family="Helvetica"> </text>
</g>
<g transform="rotate(-90,51.6515,78.8586)">
<text xml:space="preserve" x="51.6515" y="78.8586" fill="black" font-size="9.24468" font-family="Helvetica">event</text>
</g>
<g transform="rotate(-90,47.3889,88.0943)">
<text xml:space="preserve" x="47.3889" y="88.0943" fill="black" font-size="13.617" font-family="Helvetica">N</text>
</g>
<g transform="rotate(-90,33.8906,74.5959)">
<text xml:space="preserve" x="33.8906" y="74.5959" fill="black" font-size="13.617" font-family="Helvetica">1</text>
</g>
<path d="M36.0219,88.0943v -31.9697" fill="none" stroke="black" stroke-width="2"/>
<g transform="rotate(-90,39.5741,92.3569)">
<text xml:space="preserve" x="39.5741" y="92.3569" fill="black" font-size="13.617" font-family="Helvetica"> </text>
</g>
<g transform="rotate(-90,54.4933,110.118)">
<text xml:space="preserve" x="54.4933" y="110.118" fill="black" font-size="9.24468" font-family="Helvetica">cent</text>
</g>
<g transform="rotate(-90,48.0993,114.38)">
<text xml:space="preserve" x="48.0993" y="114.38" fill="black" font-size="13.617" font-family="Times">&#0062;</text>
</g>
<g transform="rotate(-90,48.0993,118.643)">
<text xml:space="preserve" x="48.0993" y="118.643" fill="black" font-size="13.617" font-family="Helvetica"> </text>
</g>
<g transform="rotate(-90,54.4933,132.141)">
<text xml:space="preserve" x="54.4933" y="132.141" fill="black" font-size="9.24468" font-family="Helvetica">coll</text>
</g>
<g transform="rotate(-90,48.0993,144.929)">
<text xml:space="preserve" x="48.0993" y="144.929" fill="black" font-size="13.617" font-family="Helvetica"> N</text>
</g>
<g transform="rotate(-90,48.0993,149.192)">
<text xml:space="preserve" x="48.0993" y="149.192" fill="black" font-size="13.617" font-family="Times">&#0060;</text>
</g>
<g transform="rotate(-90,33.8906,122.906)">
<text xml:space="preserve" x="33.8906" y="122.906" fill="black" font-size="13.617" font-family="Helvetica">1</text>
</g>
<path d="M36.0219,149.192v -56.835" fill="none" stroke="black" stroke-width="2"/>
<path d="M482.39,359.481v -339.056" fill="none" stroke="black"/>
<path d="M468.273,359.481h 14.1165" fill="none" stroke="black"/>
<path d="M475.332,344.9h 7.05827" fill="none" stroke="black"/>
<path d="M475.332,336.371h 7.05827" fill="none" stroke="black"/>
<path d="M475.332,330.32h 7.05827" fill="none" stroke="black"/>
<path d="M475.332,325.626h 7.05827" fill="none" stroke="black"/>
<path d="M475.332,321.79h 7.05827" fill="none" stroke="black"/>
<path d="M475.332,318.548h 7.05827" fill="none" stroke="black"/>
<path d="M475.332,315.739h 7.05827" fill="none" stroke="black"/>
<path d="M475.332,313.261h 7.05827" fill="none" stroke="black"/>
<path d="M468.273,311.045h 14.1165" fill="none" stroke="black"/>
<path d="M475.332,296.464h 7.05827" fill="none" stroke="black"/>
<path d="M475.332,287.935h 7.05827" fill="none" stroke="black"/>
<path d="M475.332,281.883h 7.05827" fill="none" stroke="black"/>
<path d="M475.332,277.189h 7.05827" fill="none" stroke="black"/>
<path d="M475.332,273.354h 7.05827" fill="none" stroke="black"/>
<path d="M475.332,270.111h 7.05827" fill="none" stroke="black"/>
<path d="M475.332,267.302h 7.05827" fill="none" stroke="black"/>
<path d="M475.332,264.824h 7.05827" fill="none" stroke="black"/>
<path d="M468.273,262.608h 14.1165" fill="none" stroke="black"/>
<path d="M475.332,248.027h 7.05827" fill="none" stroke="black"/>
<path d="M475.332,239.498h 7.05827" fill="none" stroke="black"/>
<path d="M475.332,233.446h 7.05827" fill="none" stroke="black"/>
<path d="M475.332,228.752h 7.05827" fill="none" stroke="black"/>
<path d="M475.332,224.917h 7.05827" fill="none" stroke="black"/>
<path d="M475.332,221.674h 7.05827" fill="none" stroke="black"/>
<path d="M475.332,218.866h 7.05827" fill="none" stroke="black"/>
<path d="M475.332,216.388h 7.05827" fill="none" stroke="black"/>
<path d="M468.273,214.172h 14.1165" fill="none" stroke="black"/>
<path d="M475.332,199.591h 7.05827" fill="none" stroke="black"/>
<path d="M475.332,191.061h 7.05827" fill="none" stroke="black"/>
<path d="M475.332,185.01h 7.05827" fill="none" stroke="black"/>
<path d="M475.332,180.316h 7.05827" fill="none" stroke="black"/>
<path d="M475.332,176.481h 7.05827" fill="none" stroke="black"/>
<path d="M475.332,173.238h 7.05827" fill="none" stroke="black"/>
<path d="M475.332,170.429h 7.05827" fill="none" stroke="black"/>
<path d="M475.332,167.951h 7.05827" fill="none" stroke="black"/>
<path d="M468.273,165.735h 14.1165" fill="none" stroke="black"/>
<path d="M475.332,151.154h 7.05827" fill="none" stroke="black"/>
<path d="M475.332,142.625h 7.05827" fill="none" stroke="black"/>
<path d="M475.332,136.573h 7.05827" fill="none" stroke="black"/>
<path d="M475.332,131.879h 7.05827" fill="none" stroke="black"/>
<path d="M475.332,128.044h 7.05827" fill="none" stroke="black"/>
<path d="M475.332,124.801h 7.05827" fill="none" stroke="black"/>
<path d="M475.332,121.992h 7.05827" fill="none" stroke="black"/>
<path d="M475.332,119.515h 7.05827" fill="none" stroke="black"/>
<path d="M468.273,117.298h 14.1165" fill="none" stroke="black"/>
<path d="M475.332,102.717h 7.05827" fill="none" stroke="black"/>
<path d="M475.332,94.1882h 7.05827" fill="none" stroke="black"/>
<path d="M475.332,88.1366h 7.05827" fill="none" stroke="black"/>
<path d="M475.332,83.4426h 7.05827" fill="none" stroke="black"/>
<path d="M475.332,79.6073h 7.05827" fill="none" stroke="black"/>
<path d="M475.332,76.3646h 7.05827" fill="none" stroke="black"/>
<path d="M475.332,73.5557h 7.05827" fill="none" stroke="black"/>
<path d="M475.332,71.078h 7.05827" fill="none" stroke="black"/>
<path d="M468.273,68.8617h 14.1165" fill="none" stroke="black"/>
<path d="M475.332,54.2808h 7.05827" fill="none" stroke="black"/>
<path d="M475.332,45.7516h 7.05827" fill="none" stroke="black"/>
<path d="M475.332,39.6999h 7.05827" fill="none" stroke="black"/>
<path d="M475.332,35.006h 7.05827" fill="none" stroke="black"/>
<path d="M475.332,31.1707h 7.05827" fill="none" stroke="black"/>
<path d="M475.332,27.928h 7.05827" fill="none" stroke="black"/>
<path d="M475.332,25.1191h 7.05827" fill="none" stroke="black"/>
<path d="M475.332,22.6414h 7.05827" fill="none" stroke="black"/>
<path d="M468.273,20.4251h 14.1165" fill="none" stroke="black"/>
<path d="M85.5394,94.8836h 8.18187" fill="none" stroke="black"/>
<path d="M99.4047,94.8836h 8.18187" fill="none" stroke="black"/>
<g fill="black">
<polygon points=" 95.6157, 93.9364 95.6157, 92.0419 97.5102, 92.0419 97.5102, 93.9364 99.4047, 93.9364 99.4047, 95.8309 97.5102, 95.8309 97.5102, 97.7254 95.6157, 97.7254 95.6157, 95.8309 93.7212, 95.8309 93.7212, 93.9364"/>
</g>
<path d="M107.587,133.305h 19.2055" fill="none" stroke="black"/>
<path d="M132.476,133.305h 19.2055" fill="none" stroke="black"/>
<g fill="black">
<polygon points=" 128.687, 132.358 128.687, 130.464 130.581, 130.464 130.581, 132.358 132.476, 132.358 132.476, 134.253 130.581, 134.253 130.581, 136.147 128.687, 136.147 128.687, 134.253 126.792, 134.253 126.792, 132.358"/>
</g>
<path d="M151.681,177.05h 19.2055" fill="none" stroke="black"/>
<path d="M176.57,177.05h 19.2055" fill="none" stroke="black"/>
<g fill="black">
<polygon points=" 172.781, 176.103 172.781, 174.208 174.676, 174.208 174.676, 176.103 176.57, 176.103 176.57, 177.997 174.676, 177.997 174.676, 179.892 172.781, 179.892 172.781, 177.997 170.887, 177.997 170.887, 176.103"/>
</g>
<path d="M195.776,210.246h 19.2055" fill="none" stroke="black"/>
<path d="M220.665,210.246h 19.2055" fill="none" stroke="black"/>
<g fill="black">
<polygon points=" 216.876, 209.299 216.876, 207.404 218.77, 207.404 218.77, 209.299 220.665, 209.299 220.665, 211.193 218.77, 211.193 218.77, 213.088 216.876, 213.088 216.876, 211.193 214.981, 211.193 214.981, 209.299"/>
</g>
<path d="M239.87,238.551h 19.2055" fill="none" stroke="black"/>
<path d="M264.759,238.551h 19.2055" fill="none" stroke="black"/>
<g fill="black">
<polygon points=" 260.97, 237.604 260.97, 235.709 262.865, 235.709 262.865, 237.604 264.759, 237.604 264.759, 239.498 262.865, 239.498 262.865, 241.393 260.97, 241.393 260.97, 239.498 259.076, 239.498 259.076, 237.604"/>
</g>
<path d="M283.965,270.887h 41.2527" fill="none" stroke="black"/>
<path d="M330.901,270.887h 41.2527" fill="none" stroke="black"/>
<g fill="black">
<polygon points=" 327.112, 269.94 327.112, 268.045 329.006, 268.045 329.006, 269.94 330.901, 269.94 330.901, 271.834 329.006, 271.834 329.006, 273.729 327.112, 273.729 327.112, 271.834 325.217, 271.834 325.217, 269.94"/>
</g>
<path d="M427.272,314.35v -1.75037" fill="none" stroke="black"/>
<path d="M427.272,306.916v -0.925328" fill="none" stroke="black"/>
<path d="M372.154,309.758h 52.2764" fill="none" stroke="black"/>
<path d="M430.113,309.758h 52.2764" fill="none" stroke="black"/>
<g fill="black">
<polygon points=" 426.324, 308.811 426.324, 306.916 428.219, 306.916 428.219, 308.811 430.113, 308.811 430.113, 310.705 428.219, 310.705 428.219, 312.6 426.324, 312.6 426.324, 310.705 424.43, 310.705 424.43, 308.811"/>
</g>
<path d="M85.5394,98.9225h 8.18187" fill="none" stroke="#00cc00"/>
<path d="M99.4047,98.9225h 8.18187" fill="none" stroke="#00cc00"/>
<g fill="#00cc00">
<polygon points=" 95.6157, 97.9752 95.6157, 96.0807 97.5102, 96.0807 97.5102, 97.9752 99.4047, 97.9752 99.4047, 99.8697 97.5102, 99.8697 97.5102, 101.764 95.6157, 101.764 95.6157, 99.8697 93.7212, 99.8697 93.7212, 97.9752"/>
</g>
<path d="M107.587,138.083h 19.2055" fill="none" stroke="#00cc00"/>
<path d="M132.476,138.083h 19.2055" fill="none" stroke="#00cc00"/>
<g fill="#00cc00">
<polygon points=" 128.687, 137.136 128.687, 135.242 130.581, 135.242 130.581, 137.136 132.476, 137.136 132.476, 139.031 130.581, 139.031 130.581, 140.925 128.687, 140.925 128.687, 139.031 126.792, 139.031 126.792, 137.136"/>
</g>
<path d="M151.681,183.71h 19.2055" fill="none" stroke="#00cc00"/>
<path d="M176.57,183.71h 19.2055" fill="none" stroke="#00cc00"/>
<g fill="#00cc00">
<polygon points=" 172.781, 182.763 172.781, 180.869 174.676, 180.869 174.676, 182.763 176.57, 182.763 176.57, 184.658 174.676, 184.658 174.676, 186.552 172.781, 186.552 172.781, 184.658 170.887, 184.658 170.887, 182.763"/>
</g>
<path d="M195.776,218.707h 19.2055" fill="none" stroke="#00cc00"/>
<path d="M220.665,218.707h 19.2055" fill="none" stroke="#00cc00"/>
<g fill="#00cc00">
<polygon points=" 216.876, 217.759 216.876, 215.865 218.77, 215.865 218.77, 217.759 220.665, 217.759 220.665, 219.654 218.77, 219.654 218.77, 221.548 216.876, 221.548 216.876, 219.654 214.981, 219.654 214.981, 217.759"/>
</g>
<path d="M261.917,252.436v -1.11585" fill="none" stroke="#00cc00"/>
<path d="M261.917,245.636v -0.487869" fill="none" stroke="#00cc00"/>
<path d="M239.87,248.478h 19.2055" fill="none" stroke="#00cc00"/>
<path d="M264.759,248.478h 19.2055" fill="none" stroke="#00cc00"/>
<g fill="#00cc00">
<polygon points=" 260.97, 247.531 260.97, 245.636 262.865, 245.636 262.865, 247.531 264.759, 247.531 264.759, 249.425 262.865, 249.425 262.865, 251.32 260.97, 251.32 260.97, 249.425 259.076, 249.425 259.076, 247.531"/>
</g>
<path d="M328.059,284.967v -3.20986" fill="none" stroke="#00cc00"/>
<path d="M328.059,276.073v -1.85224" fill="none" stroke="#00cc00"/>
<path d="M283.965,278.915h 41.2527" fill="none" stroke="#00cc00"/>
<path d="M330.901,278.915h 41.2527" fill="none" stroke="#00cc00"/>
<g fill="#00cc00">
<polygon points=" 327.112, 277.968 327.112, 276.073 329.006, 276.073 329.006, 277.968 330.901, 277.968 330.901, 279.862 329.006, 279.862 329.006, 281.757 327.112, 281.757 327.112, 279.862 325.217, 279.862 325.217, 277.968"/>
</g>
<path d="M427.272,353.183v -22.989" fill="none" stroke="#00cc00"/>
<path d="M427.272,324.51v -8.40817" fill="none" stroke="#00cc00"/>
<path d="M372.154,327.352h 52.2764" fill="none" stroke="#00cc00"/>
<path d="M430.113,327.352h 52.2764" fill="none" stroke="#00cc00"/>
<g fill="#00cc00">
<polygon points=" 426.324, 326.404 426.324, 324.51 428.219, 324.51 428.219, 326.404 430.113, 326.404 430.113, 328.299 428.219, 328.299 428.219, 330.193 426.324, 330.193 426.324, 328.299 424.43, 328.299 424.43, 326.404"/>
</g>
<path d="M85.5394,97.4202h 8.18187" fill="none" stroke="#33ff99"/>
<path d="M99.4047,97.4202h 8.18187" fill="none" stroke="#33ff99"/>
<g fill="#33ff99">
<polygon points=" 95.6157, 96.4729 95.6157, 94.5784 97.5102, 94.5784 97.5102, 96.4729 99.4047, 96.4729 99.4047, 98.3674 97.5102, 98.3674 97.5102, 100.262 95.6157, 100.262 95.6157, 98.3674 93.7212, 98.3674 93.7212, 96.4729"/>
</g>
<path d="M107.587,136.592h 19.2055" fill="none" stroke="#33ff99"/>
<path d="M132.476,136.592h 19.2055" fill="none" stroke="#33ff99"/>
<g fill="#33ff99">
<polygon points=" 128.687, 135.645 128.687, 133.75 130.581, 133.75 130.581, 135.645 132.476, 135.645 132.476, 137.539 130.581, 137.539 130.581, 139.434 128.687, 139.434 128.687, 137.539 126.792, 137.539 126.792, 135.645"/>
</g>
<path d="M151.681,180.271h 19.2055" fill="none" stroke="#33ff99"/>
<path d="M176.57,180.271h 19.2055" fill="none" stroke="#33ff99"/>
<g fill="#33ff99">
<polygon points=" 172.781, 179.323 172.781, 177.429 174.676, 177.429 174.676, 179.323 176.57, 179.323 176.57, 181.218 174.676, 181.218 174.676, 183.112 172.781, 183.112 172.781, 181.218 170.887, 181.218 170.887, 179.323"/>
</g>
<path d="M195.776,214.585h 19.2055" fill="none" stroke="#33ff99"/>
<path d="M220.665,214.585h 19.2055" fill="none" stroke="#33ff99"/>
<g fill="#33ff99">
<polygon points=" 216.876, 213.638 216.876, 211.744 218.77, 211.744 218.77, 213.638 220.665, 213.638 220.665, 215.533 218.77, 215.533 218.77, 217.427 216.876, 217.427 216.876, 215.533 214.981, 215.533 214.981, 213.638"/>
</g>
<path d="M261.917,250.462v -1.25029" fill="none" stroke="#33ff99"/>
<path d="M261.917,243.529v -0.582431" fill="none" stroke="#33ff99"/>
<path d="M239.87,246.37h 19.2055" fill="none" stroke="#33ff99"/>
<path d="M264.759,246.37h 19.2055" fill="none" stroke="#33ff99"/>
<g fill="#33ff99">
<polygon points=" 260.97, 245.423 260.97, 243.529 262.865, 243.529 262.865, 245.423 264.759, 245.423 264.759, 247.318 262.865, 247.318 262.865, 249.212 260.97, 249.212 260.97, 247.318 259.076, 247.318 259.076, 245.423"/>
</g>
<path d="M328.059,277.399v -2.6403" fill="none" stroke="#33ff99"/>
<path d="M328.059,269.075v -1.50295" fill="none" stroke="#33ff99"/>
<path d="M283.965,271.917h 41.2527" fill="none" stroke="#33ff99"/>
<path d="M330.901,271.917h 41.2527" fill="none" stroke="#33ff99"/>
<g fill="#33ff99">
<polygon points=" 327.112, 270.97 327.112, 269.075 329.006, 269.075 329.006, 270.97 330.901, 270.97 330.901, 272.864 329.006, 272.864 329.006, 274.759 327.112, 274.759 327.112, 272.864 325.217, 272.864 325.217, 270.97"/>
</g>
<path d="M427.272,349.8v -22.989" fill="none" stroke="#33ff99"/>
<path d="M427.272,321.127v -8.40817" fill="none" stroke="#33ff99"/>
<path d="M372.154,323.969h 52.2764" fill="none" stroke="#33ff99"/>
<path d="M430.113,323.969h 52.2764" fill="none" stroke="#33ff99"/>
<g fill="#33ff99">
<polygon points=" 426.324, 323.022 426.324, 321.127 428.219, 321.127 428.219, 323.022 430.113, 323.022 430.113, 324.916 428.219, 324.916 428.219, 326.811 426.324, 326.811 426.324, 324.916 424.43, 324.916 424.43, 323.022"/>
</g>
<path d="M85.5394,95.9217h 8.18187" fill="none" stroke="#00cccc"/>
<path d="M99.4047,95.9217h 8.18187" fill="none" stroke="#00cccc"/>
<g stroke="#00cccc" stroke-width="1" fill="none">
<polygon points=" 95.6157, 94.9744 95.6157, 93.0799 97.5102, 93.0799 97.5102, 94.9744 99.4047, 94.9744 99.4047, 96.8689 97.5102, 96.8689 97.5102, 98.7634 95.6157, 98.7634 95.6157, 96.8689 93.7212, 96.8689 93.7212, 94.9744"/>
</g>
<path d="M107.587,134.411h 19.2055" fill="none" stroke="#00cccc"/>
<path d="M132.476,134.411h 19.2055" fill="none" stroke="#00cccc"/>
<g stroke="#00cccc" stroke-width="1" fill="none">
<polygon points=" 128.687, 133.464 128.687, 131.569 130.581, 131.569 130.581, 133.464 132.476, 133.464 132.476, 135.358 130.581, 135.358 130.581, 137.253 128.687, 137.253 128.687, 135.358 126.792, 135.358 126.792, 133.464"/>
</g>
<path d="M151.681,177.625h 19.2055" fill="none" stroke="#00cccc"/>
<path d="M176.57,177.625h 19.2055" fill="none" stroke="#00cccc"/>
<g stroke="#00cccc" stroke-width="1" fill="none">
<polygon points=" 172.781, 176.678 172.781, 174.784 174.676, 174.784 174.676, 176.678 176.57, 176.678 176.57, 178.573 174.676, 178.573 174.676, 180.467 172.781, 180.467 172.781, 178.573 170.887, 178.573 170.887, 176.678"/>
</g>
<path d="M195.776,211.13h 19.2055" fill="none" stroke="#00cccc"/>
<path d="M220.665,211.13h 19.2055" fill="none" stroke="#00cccc"/>
<g stroke="#00cccc" stroke-width="1" fill="none">
<polygon points=" 216.876, 210.183 216.876, 208.288 218.77, 208.288 218.77, 210.183 220.665, 210.183 220.665, 212.077 218.77, 212.077 218.77, 213.972 216.876, 213.972 216.876, 212.077 214.981, 212.077 214.981, 210.183"/>
</g>
<path d="M239.87,241.333h 19.2055" fill="none" stroke="#00cccc"/>
<path d="M264.759,241.333h 19.2055" fill="none" stroke="#00cccc"/>
<g stroke="#00cccc" stroke-width="1" fill="none">
<polygon points=" 260.97, 240.385 260.97, 238.491 262.865, 238.491 262.865, 240.385 264.759, 240.385 264.759, 242.28 262.865, 242.28 262.865, 244.174 260.97, 244.174 260.97, 242.28 259.076, 242.28 259.076, 240.385"/>
</g>
<path d="M328.059,273.434v -0.993521" fill="none" stroke="#00cccc"/>
<path d="M328.059,266.757v -0.400926" fill="none" stroke="#00cccc"/>
<path d="M283.965,269.599h 41.2527" fill="none" stroke="#00cccc"/>
<path d="M330.901,269.599h 41.2527" fill="none" stroke="#00cccc"/>
<g stroke="#00cccc" stroke-width="1" fill="none">
<polygon points=" 327.112, 268.652 327.112, 266.757 329.006, 266.757 329.006, 268.652 330.901, 268.652 330.901, 270.546 329.006, 270.546 329.006, 272.441 327.112, 272.441 327.112, 270.546 325.217, 270.546 325.217, 268.652"/>
</g>
<path d="M427.272,318.728v -7.14514" fill="none" stroke="#00cccc"/>
<path d="M427.272,305.9v -3.90247" fill="none" stroke="#00cccc"/>
<path d="M372.154,308.741h 52.2764" fill="none" stroke="#00cccc"/>
<path d="M430.113,308.741h 52.2764" fill="none" stroke="#00cccc"/>
<g stroke="#00cccc" stroke-width="1" fill="none">
<polygon points=" 426.324, 307.794 426.324, 305.9 428.219, 305.9 428.219, 307.794 430.113, 307.794 430.113, 309.689 428.219, 309.689 428.219, 311.583 426.324, 311.583 426.324, 309.689 424.43, 309.689 424.43, 307.794"/>
</g>
<path d="M85.5394,93.7729h 9.60275" fill="none" stroke="#0033ff"/>
<path d="M97.9839,93.7729h 9.60275" fill="none" stroke="#0033ff"/>
<g fill="#0033ff">
<polygon points=" 96.563, 95.1938 95.1421, 96.6147 93.7212, 95.1938 95.1421, 93.7729 93.7212, 92.3521 95.1421, 90.9312 96.563, 92.3521 97.9839, 90.9312 99.4047, 92.3521 97.9839, 93.7729 99.4047, 95.1938 97.9839, 96.6147 96.563, 95.1938"/>
</g>
<path d="M107.587,132.147h 20.6264" fill="none" stroke="#0033ff"/>
<path d="M131.055,132.147h 20.6264" fill="none" stroke="#0033ff"/>
<g fill="#0033ff">
<polygon points=" 129.634, 133.567 128.213, 134.988 126.792, 133.567 128.213, 132.147 126.792, 130.726 128.213, 129.305 129.634, 130.726 131.055, 129.305 132.476, 130.726 131.055, 132.147 132.476, 133.567 131.055, 134.988 129.634, 133.567"/>
</g>
<path d="M151.681,175.26h 20.6264" fill="none" stroke="#0033ff"/>
<path d="M175.149,175.26h 20.6264" fill="none" stroke="#0033ff"/>
<g fill="#0033ff">
<polygon points=" 173.728, 176.681 172.307, 178.102 170.887, 176.681 172.307, 175.26 170.887, 173.839 172.307, 172.418 173.728, 173.839 175.149, 172.418 176.57, 173.839 175.149, 175.26 176.57, 176.681 175.149, 178.102 173.728, 176.681"/>
</g>
<path d="M195.776,208.761h 20.6264" fill="none" stroke="#0033ff"/>
<path d="M219.244,208.761h 20.6264" fill="none" stroke="#0033ff"/>
<g fill="#0033ff">
<polygon points=" 217.823, 210.181 216.402, 211.602 214.981, 210.181 216.402, 208.761 214.981, 207.34 216.402, 205.919 217.823, 207.34 219.244, 205.919 220.665, 207.34 219.244, 208.761 220.665, 210.181 219.244, 211.602 217.823, 210.181"/>
</g>
<path d="M261.917,237.667v -1.21689" fill="none" stroke="#0033ff"/>
<path d="M261.917,233.609v -0.922681" fill="none" stroke="#0033ff"/>
<path d="M239.87,235.03h 20.6264" fill="none" stroke="#0033ff"/>
<path d="M263.338,235.03h 20.6264" fill="none" stroke="#0033ff"/>
<g fill="#0033ff">
<polygon points=" 261.917, 236.451 260.496, 237.871 259.076, 236.451 260.496, 235.03 259.076, 233.609 260.496, 232.188 261.917, 233.609 263.338, 232.188 264.759, 233.609 263.338, 235.03 264.759, 236.451 263.338, 237.871 261.917, 236.451"/>
</g>
<path d="M328.059,273.061v -2.9003" fill="none" stroke="#0033ff"/>
<path d="M328.059,267.319v -2.16213" fill="none" stroke="#0033ff"/>
<path d="M283.965,268.74h 42.6736" fill="none" stroke="#0033ff"/>
<path d="M329.48,268.74h 42.6736" fill="none" stroke="#0033ff"/>
<g fill="#0033ff">
<polygon points=" 328.059, 270.161 326.638, 271.582 325.217, 270.161 326.638, 268.74 325.217, 267.319 326.638, 265.898 328.059, 267.319 329.48, 265.898 330.901, 267.319 329.48, 268.74 330.901, 270.161 329.48, 271.582 328.059, 270.161"/>
</g>
<path d="M427.272,313.321v -8.56602" fill="none" stroke="#0033ff"/>
<path d="M427.272,301.913v -5.32334" fill="none" stroke="#0033ff"/>
<path d="M372.154,303.334h 53.6972" fill="none" stroke="#0033ff"/>
<path d="M428.693,303.334h 53.6972" fill="none" stroke="#0033ff"/>
<g fill="#0033ff">
<polygon points=" 427.272, 304.755 425.851, 306.176 424.43, 304.755 425.851, 303.334 424.43, 301.913 425.851, 300.492 427.272, 301.913 428.693, 300.492 430.113, 301.913 428.693, 303.334 430.113, 304.755 428.693, 306.176 427.272, 304.755"/>
</g>
<path d="M85.5394,91.6974h 8.18187" fill="none" stroke="#0000ff"/>
<path d="M99.4047,91.6974h 8.18187" fill="none" stroke="#0000ff"/>
<g stroke="#0000ff" stroke-width="1" fill="none">
<polygon points=" 95.6157, 90.7501 95.6157, 88.8556 97.5102, 88.8556 97.5102, 90.7501 99.4047, 90.7501 99.4047, 92.6446 97.5102, 92.6446 97.5102, 94.5391 95.6157, 94.5391 95.6157, 92.6446 93.7212, 92.6446 93.7212, 90.7501"/>
</g>
<path d="M107.587,129.685h 19.2055" fill="none" stroke="#0000ff"/>
<path d="M132.476,129.685h 19.2055" fill="none" stroke="#0000ff"/>
<g stroke="#0000ff" stroke-width="1" fill="none">
<polygon points=" 128.687, 128.737 128.687, 126.843 130.581, 126.843 130.581, 128.737 132.476, 128.737 132.476, 130.632 130.581, 130.632 130.581, 132.526 128.687, 132.526 128.687, 130.632 126.792, 130.632 126.792, 128.737"/>
</g>
<path d="M151.681,173.763h 19.2055" fill="none" stroke="#0000ff"/>
<path d="M176.57,173.763h 19.2055" fill="none" stroke="#0000ff"/>
<g stroke="#0000ff" stroke-width="1" fill="none">
<polygon points=" 172.781, 172.816 172.781, 170.922 174.676, 170.922 174.676, 172.816 176.57, 172.816 176.57, 174.711 174.676, 174.711 174.676, 176.605 172.781, 176.605 172.781, 174.711 170.887, 174.711 170.887, 172.816"/>
</g>
<path d="M195.776,206.014h 19.2055" fill="none" stroke="#0000ff"/>
<path d="M220.665,206.014h 19.2055" fill="none" stroke="#0000ff"/>
<g stroke="#0000ff" stroke-width="1" fill="none">
<polygon points=" 216.876, 205.067 216.876, 203.172 218.77, 203.172 218.77, 205.067 220.665, 205.067 220.665, 206.961 218.77, 206.961 218.77, 208.856 216.876, 208.856 216.876, 206.961 214.981, 206.961 214.981, 205.067"/>
</g>
<path d="M261.917,237.507v -0.331608" fill="none" stroke="#0000ff"/>
<path d="M239.87,234.334h 19.2055" fill="none" stroke="#0000ff"/>
<path d="M264.759,234.334h 19.2055" fill="none" stroke="#0000ff"/>
<g stroke="#0000ff" stroke-width="1" fill="none">
<polygon points=" 260.97, 233.387 260.97, 231.492 262.865, 231.492 262.865, 233.387 264.759, 233.387 264.759, 235.281 262.865, 235.281 262.865, 237.176 260.97, 237.176 260.97, 235.281 259.076, 235.281 259.076, 233.387"/>
</g>
<path d="M328.059,277.868v -3.00154" fill="none" stroke="#0000ff"/>
<path d="M328.059,269.183v -1.72625" fill="none" stroke="#0000ff"/>
<path d="M283.965,272.025h 41.2527" fill="none" stroke="#0000ff"/>
<path d="M330.901,272.025h 41.2527" fill="none" stroke="#0000ff"/>
<g stroke="#0000ff" stroke-width="1" fill="none">
<polygon points=" 327.112, 271.078 327.112, 269.183 329.006, 269.183 329.006, 271.078 330.901, 271.078 330.901, 272.972 329.006, 272.972 329.006, 274.867 327.112, 274.867 327.112, 272.972 325.217, 272.972 325.217, 271.078"/>
</g>
<path d="M427.272,309.664v -8.19504" fill="none" stroke="#0000ff"/>
<path d="M427.272,295.785v -4.35977" fill="none" stroke="#0000ff"/>
<path d="M372.154,298.627h 52.2764" fill="none" stroke="#0000ff"/>
<path d="M430.113,298.627h 52.2764" fill="none" stroke="#0000ff"/>
<g stroke="#0000ff" stroke-width="1" fill="none">
<polygon points=" 426.324, 297.68 426.324, 295.785 428.219, 295.785 428.219, 297.68 430.113, 297.68 430.113, 299.574 428.219, 299.574 428.219, 301.469 426.324, 301.469 426.324, 299.574 424.43, 299.574 424.43, 297.68"/>
</g>
<text xml:space="preserve" x="232.813" y="51.8619" fill="black" font-size="15.4909" font-family="Helvetica">PYTHIA8, pAu200GeV with option3</text>
<text xml:space="preserve" x="283.254" y="66.7811" fill="black" font-size="15.4909" font-family="Helvetica">|&lt;1</text>
<text xml:space="preserve" x="274.729" y="66.7811" fill="black" font-size="15.4909" font-family="Times">&#0951;</text>
<text xml:space="preserve" x="251.995" y="66.7811" fill="black" font-size="15.4909" font-family="Helvetica"> in |</text>
<text xml:space="preserve" x="240.628" y="61.0976" fill="black" font-size="10.4939" font-family="Helvetica">dir</text>
<text xml:space="preserve" x="232.813" y="66.7811" fill="black" font-size="15.4909" font-family="Times">&#0947;</text>
<text xml:space="preserve" x="283.965" y="82.4108" fill="black" font-size="15.4909" font-family="Helvetica">inelastic events(MB)</text>
<g fill="black">
<polygon points=" 254.671, 78.1999 254.671, 76.3054 256.565, 76.3054 256.565, 78.1999 258.46, 78.1999 258.46, 80.0944 256.565, 80.0944 256.565, 81.9889 254.671, 81.9889 254.671, 80.0944 252.776, 80.0944 252.776, 78.1999"/>
</g>
<text xml:space="preserve" x="283.965" y="97.3299" fill="black" font-size="15.4909" font-family="Helvetica">centrality: 0~10%</text>
<g fill="#00cc00">
<polygon points=" 254.671, 93.5187 254.671, 91.6242 256.565, 91.6242 256.565, 93.5187 258.46, 93.5187 258.46, 95.4132 256.565, 95.4132 256.565, 97.3077 254.671, 97.3077 254.671, 95.4132 252.776, 95.4132 252.776, 93.5187"/>
</g>
<text xml:space="preserve" x="283.965" y="112.96" fill="black" font-size="15.4909" font-family="Helvetica">centrality: 10~20%</text>
<g fill="#33ff99">
<polygon points=" 254.671, 108.838 254.671, 106.943 256.565, 106.943 256.565, 108.838 258.46, 108.838 258.46, 110.732 256.565, 110.732 256.565, 112.627 254.671, 112.627 254.671, 110.732 252.776, 110.732 252.776, 108.838"/>
</g>
<text xml:space="preserve" x="283.965" y="127.879" fill="black" font-size="15.4909" font-family="Helvetica">centrality: 20~40%</text>
<g stroke="#00cccc" stroke-width="1" fill="none">
<polygon points=" 254.671, 124.156 254.671, 122.262 256.565, 122.262 256.565, 124.156 258.46, 124.156 258.46, 126.051 256.565, 126.051 256.565, 127.945 254.671, 127.945 254.671, 126.051 252.776, 126.051 252.776, 124.156"/>
</g>
<text xml:space="preserve" x="283.965" y="143.508" fill="black" font-size="15.4909" font-family="Helvetica">centrality: 40~60%</text>
<g fill="#0033ff">
<polygon points=" 255.618, 141.843 254.197, 143.264 252.776, 141.843 254.197, 140.422 252.776, 139.002 254.197, 137.581 255.618, 139.002 257.039, 137.581 258.46, 139.002 257.039, 140.422 258.46, 141.843 257.039, 143.264 255.618, 141.843"/>
</g>
<text xml:space="preserve" x="283.965" y="159.138" fill="black" font-size="15.4909" font-family="Helvetica">centrality: 60~80%</text>
<g stroke="#0000ff" stroke-width="1" fill="none">
<polygon points=" 254.671, 154.794 254.671, 152.899 256.565, 152.899 256.565, 154.794 258.46, 154.794 258.46, 156.688 256.565, 156.688 256.565, 158.583 254.671, 158.583 254.671, 156.688 252.776, 156.688 252.776, 154.794"/>
</g></svg>
