<?xml version="1.0" standalone="no"?>
<svg width="567.429" height="409.002" viewBox="0 0 567.429 409.002" xmlns="http://www.w3.org/2000/svg" shape-rendering="crispEdges">
<title>
/Users/jinhyunpark/npl/gitHub/git_share/Centrality_dependent_BiasCorrection/plots/plots_scaled-dNdpT/scaledYield_pion0_byCentrality.svg
</title>
<desc>
Creator: ROOT Version 6.28/04
CreationDate: Mon Sep 25 12:36:01 2023</desc>
<defs>
</defs>
<rect x="0.5" y="0" width="566.929" height="408.502" fill="white"/>
<rect x="85.5394" y="20.4251" width="396.85" height="339.056" fill="white"/>
<rect x="85.5394" y="20.4251" width="396.85" height="339.056" fill="none" stroke="black"/>
<rect x="85.5394" y="20.4251" width="396.85" height="339.056" fill="white"/>
<rect x="85.5394" y="20.4251" width="396.85" height="339.056" fill="none" stroke="black"/>
<path d="M85.5394,359.481h 396.85" fill="none" stroke="black"/>
<path d="M85.5394,350.903v 8.57853" fill="none" stroke="black"/>
<path d="M95.4606,355.192v 4.28927" fill="none" stroke="black"/>
<path d="M105.382,355.192v 4.28927" fill="none" stroke="black"/>
<path d="M115.303,355.192v 4.28927" fill="none" stroke="black"/>
<path d="M125.224,350.903v 8.57853" fill="none" stroke="black"/>
<path d="M135.146,355.192v 4.28927" fill="none" stroke="black"/>
<path d="M145.067,355.192v 4.28927" fill="none" stroke="black"/>
<path d="M154.988,355.192v 4.28927" fill="none" stroke="black"/>
<path d="M164.909,350.903v 8.57853" fill="none" stroke="black"/>
<path d="M174.831,355.192v 4.28927" fill="none" stroke="black"/>
<path d="M184.752,355.192v 4.28927" fill="none" stroke="black"/>
<path d="M194.673,355.192v 4.28927" fill="none" stroke="black"/>
<path d="M204.594,350.903v 8.57853" fill="none" stroke="black"/>
<path d="M214.516,355.192v 4.28927" fill="none" stroke="black"/>
<path d="M224.437,355.192v 4.28927" fill="none" stroke="black"/>
<path d="M234.358,355.192v 4.28927" fill="none" stroke="black"/>
<path d="M244.28,350.903v 8.57853" fill="none" stroke="black"/>
<path d="M254.201,355.192v 4.28927" fill="none" stroke="black"/>
<path d="M264.122,355.192v 4.28927" fill="none" stroke="black"/>
<path d="M274.043,355.192v 4.28927" fill="none" stroke="black"/>
<path d="M283.965,350.903v 8.57853" fill="none" stroke="black"/>
<path d="M293.886,355.192v 4.28927" fill="none" stroke="black"/>
<path d="M303.807,355.192v 4.28927" fill="none" stroke="black"/>
<path d="M313.728,355.192v 4.28927" fill="none" stroke="black"/>
<path d="M323.65,350.903v 8.57853" fill="none" stroke="black"/>
<path d="M333.571,355.192v 4.28927" fill="none" stroke="black"/>
<path d="M343.492,355.192v 4.28927" fill="none" stroke="black"/>
<path d="M353.413,355.192v 4.28927" fill="none" stroke="black"/>
<path d="M363.335,350.903v 8.57853" fill="none" stroke="black"/>
<path d="M373.256,355.192v 4.28927" fill="none" stroke="black"/>
<path d="M383.177,355.192v 4.28927" fill="none" stroke="black"/>
<path d="M393.098,355.192v 4.28927" fill="none" stroke="black"/>
<path d="M403.02,350.903v 8.57853" fill="none" stroke="black"/>
<path d="M412.941,355.192v 4.28927" fill="none" stroke="black"/>
<path d="M422.862,355.192v 4.28927" fill="none" stroke="black"/>
<path d="M432.783,355.192v 4.28927" fill="none" stroke="black"/>
<path d="M442.705,350.903v 8.57853" fill="none" stroke="black"/>
<path d="M452.626,355.192v 4.28927" fill="none" stroke="black"/>
<path d="M462.547,355.192v 4.28927" fill="none" stroke="black"/>
<path d="M472.469,355.192v 4.28927" fill="none" stroke="black"/>
<path d="M482.39,350.903v 8.57853" fill="none" stroke="black"/>
<text xml:space="preserve" x="81.4899" y="372.269" fill="black" font-size="13.617" font-family="Helvetica">0</text>
<text xml:space="preserve" x="121.274" y="372.269" fill="black" font-size="13.617" font-family="Helvetica">2</text>
<text xml:space="preserve" x="161.059" y="372.269" fill="black" font-size="13.617" font-family="Helvetica">4</text>
<text xml:space="preserve" x="200.843" y="372.269" fill="black" font-size="13.617" font-family="Helvetica">6</text>
<text xml:space="preserve" x="240.628" y="372.269" fill="black" font-size="13.617" font-family="Helvetica">8</text>
<text xml:space="preserve" x="276.15" y="372.269" fill="black" font-size="13.617" font-family="Helvetica">10</text>
<text xml:space="preserve" x="315.224" y="372.269" fill="black" font-size="13.617" font-family="Helvetica">12</text>
<text xml:space="preserve" x="355.008" y="372.269" fill="black" font-size="13.617" font-family="Helvetica">14</text>
<text xml:space="preserve" x="394.793" y="372.269" fill="black" font-size="13.617" font-family="Helvetica">16</text>
<text xml:space="preserve" x="434.577" y="372.269" fill="black" font-size="13.617" font-family="Helvetica">18</text>
<text xml:space="preserve" x="474.362" y="372.269" fill="black" font-size="13.617" font-family="Helvetica">20</text>
<text xml:space="preserve" x="436.709" y="384.347" fill="black" font-size="13.617" font-family="Helvetica">(GeV/c)</text>
<text xml:space="preserve" x="431.025" y="392.162" fill="black" font-size="9.24468" font-family="Helvetica">T</text>
<text xml:space="preserve" x="423.21" y="384.347" fill="black" font-size="13.617" font-family="Helvetica">p</text>
<path d="M85.5394,20.4251h 396.85" fill="none" stroke="black"/>
<path d="M85.5394,29.0036v -8.57853" fill="none" stroke="black"/>
<path d="M95.4606,24.7143v -4.28927" fill="none" stroke="black"/>
<path d="M105.382,24.7143v -4.28927" fill="none" stroke="black"/>
<path d="M115.303,24.7143v -4.28927" fill="none" stroke="black"/>
<path d="M125.224,29.0036v -8.57853" fill="none" stroke="black"/>
<path d="M135.146,24.7143v -4.28927" fill="none" stroke="black"/>
<path d="M145.067,24.7143v -4.28927" fill="none" stroke="black"/>
<path d="M154.988,24.7143v -4.28927" fill="none" stroke="black"/>
<path d="M164.909,29.0036v -8.57853" fill="none" stroke="black"/>
<path d="M174.831,24.7143v -4.28927" fill="none" stroke="black"/>
<path d="M184.752,24.7143v -4.28927" fill="none" stroke="black"/>
<path d="M194.673,24.7143v -4.28927" fill="none" stroke="black"/>
<path d="M204.594,29.0036v -8.57853" fill="none" stroke="black"/>
<path d="M214.516,24.7143v -4.28927" fill="none" stroke="black"/>
<path d="M224.437,24.7143v -4.28927" fill="none" stroke="black"/>
<path d="M234.358,24.7143v -4.28927" fill="none" stroke="black"/>
<path d="M244.28,29.0036v -8.57853" fill="none" stroke="black"/>
<path d="M254.201,24.7143v -4.28927" fill="none" stroke="black"/>
<path d="M264.122,24.7143v -4.28927" fill="none" stroke="black"/>
<path d="M274.043,24.7143v -4.28927" fill="none" stroke="black"/>
<path d="M283.965,29.0036v -8.57853" fill="none" stroke="black"/>
<path d="M293.886,24.7143v -4.28927" fill="none" stroke="black"/>
<path d="M303.807,24.7143v -4.28927" fill="none" stroke="black"/>
<path d="M313.728,24.7143v -4.28927" fill="none" stroke="black"/>
<path d="M323.65,29.0036v -8.57853" fill="none" stroke="black"/>
<path d="M333.571,24.7143v -4.28927" fill="none" stroke="black"/>
<path d="M343.492,24.7143v -4.28927" fill="none" stroke="black"/>
<path d="M353.413,24.7143v -4.28927" fill="none" stroke="black"/>
<path d="M363.335,29.0036v -8.57853" fill="none" stroke="black"/>
<path d="M373.256,24.7143v -4.28927" fill="none" stroke="black"/>
<path d="M383.177,24.7143v -4.28927" fill="none" stroke="black"/>
<path d="M393.098,24.7143v -4.28927" fill="none" stroke="black"/>
<path d="M403.02,29.0036v -8.57853" fill="none" stroke="black"/>
<path d="M412.941,24.7143v -4.28927" fill="none" stroke="black"/>
<path d="M422.862,24.7143v -4.28927" fill="none" stroke="black"/>
<path d="M432.783,24.7143v -4.28927" fill="none" stroke="black"/>
<path d="M442.705,29.0036v -8.57853" fill="none" stroke="black"/>
<path d="M452.626,24.7143v -4.28927" fill="none" stroke="black"/>
<path d="M462.547,24.7143v -4.28927" fill="none" stroke="black"/>
<path d="M472.469,24.7143v -4.28927" fill="none" stroke="black"/>
<path d="M482.39,29.0036v -8.57853" fill="none" stroke="black"/>
<path d="M85.5394,359.481v -339.056" fill="none" stroke="black"/>
<path d="M99.6559,359.481h -14.1165" fill="none" stroke="black"/>
<text xml:space="preserve" x="70.8333" y="359.481" fill="black" font-size="9.24468" font-family="Helvetica">10</text>
<text xml:space="preserve" x="65.8603" y="359.481" fill="black" font-size="9.24468" font-family="Times">&#8722;</text>
<text xml:space="preserve" x="50.9411" y="365.875" fill="black" font-size="13.617" font-family="Helvetica">10</text>
<path d="M92.5976,350.203h -7.05827" fill="none" stroke="black"/>
<path d="M92.5976,344.775h -7.05827" fill="none" stroke="black"/>
<path d="M92.5976,340.924h -7.05827" fill="none" stroke="black"/>
<path d="M92.5976,337.937h -7.05827" fill="none" stroke="black"/>
<path d="M92.5976,335.496h -7.05827" fill="none" stroke="black"/>
<path d="M92.5976,333.433h -7.05827" fill="none" stroke="black"/>
<path d="M92.5976,331.645h -7.05827" fill="none" stroke="black"/>
<path d="M92.5976,330.068h -7.05827" fill="none" stroke="black"/>
<path d="M99.6559,328.658h -14.1165" fill="none" stroke="black"/>
<text xml:space="preserve" x="75.8064" y="328.222" fill="black" font-size="9.24468" font-family="Helvetica">9</text>
<text xml:space="preserve" x="70.8333" y="328.222" fill="black" font-size="9.24468" font-family="Times">&#8722;</text>
<text xml:space="preserve" x="55.9141" y="334.616" fill="black" font-size="13.617" font-family="Helvetica">10</text>
<path d="M92.5976,319.379h -7.05827" fill="none" stroke="black"/>
<path d="M92.5976,313.952h -7.05827" fill="none" stroke="black"/>
<path d="M92.5976,310.101h -7.05827" fill="none" stroke="black"/>
<path d="M92.5976,307.113h -7.05827" fill="none" stroke="black"/>
<path d="M92.5976,304.673h -7.05827" fill="none" stroke="black"/>
<path d="M92.5976,302.609h -7.05827" fill="none" stroke="black"/>
<path d="M92.5976,300.822h -7.05827" fill="none" stroke="black"/>
<path d="M92.5976,299.245h -7.05827" fill="none" stroke="black"/>
<path d="M99.6559,297.835h -14.1165" fill="none" stroke="black"/>
<text xml:space="preserve" x="75.8064" y="297.673" fill="black" font-size="9.24468" font-family="Helvetica">8</text>
<text xml:space="preserve" x="70.8333" y="297.673" fill="black" font-size="9.24468" font-family="Times">&#8722;</text>
<text xml:space="preserve" x="55.9141" y="304.067" fill="black" font-size="13.617" font-family="Helvetica">10</text>
<path d="M92.5976,288.556h -7.05827" fill="none" stroke="black"/>
<path d="M92.5976,283.128h -7.05827" fill="none" stroke="black"/>
<path d="M92.5976,279.277h -7.05827" fill="none" stroke="black"/>
<path d="M92.5976,276.29h -7.05827" fill="none" stroke="black"/>
<path d="M92.5976,273.85h -7.05827" fill="none" stroke="black"/>
<path d="M92.5976,271.786h -7.05827" fill="none" stroke="black"/>
<path d="M92.5976,269.999h -7.05827" fill="none" stroke="black"/>
<path d="M92.5976,268.422h -7.05827" fill="none" stroke="black"/>
<path d="M99.6559,267.011h -14.1165" fill="none" stroke="black"/>
<text xml:space="preserve" x="75.8064" y="267.125" fill="black" font-size="9.24468" font-family="Helvetica">7</text>
<text xml:space="preserve" x="70.8333" y="267.125" fill="black" font-size="9.24468" font-family="Times">&#8722;</text>
<text xml:space="preserve" x="55.9141" y="272.808" fill="black" font-size="13.617" font-family="Helvetica">10</text>
<path d="M92.5976,257.733h -7.05827" fill="none" stroke="black"/>
<path d="M92.5976,252.305h -7.05827" fill="none" stroke="black"/>
<path d="M92.5976,248.454h -7.05827" fill="none" stroke="black"/>
<path d="M92.5976,245.467h -7.05827" fill="none" stroke="black"/>
<path d="M92.5976,243.026h -7.05827" fill="none" stroke="black"/>
<path d="M92.5976,240.963h -7.05827" fill="none" stroke="black"/>
<path d="M92.5976,239.175h -7.05827" fill="none" stroke="black"/>
<path d="M92.5976,237.599h -7.05827" fill="none" stroke="black"/>
<path d="M99.6559,236.188h -14.1165" fill="none" stroke="black"/>
<text xml:space="preserve" x="75.8064" y="235.865" fill="black" font-size="9.24468" font-family="Helvetica">6</text>
<text xml:space="preserve" x="70.8333" y="235.865" fill="black" font-size="9.24468" font-family="Times">&#8722;</text>
<text xml:space="preserve" x="55.9141" y="242.259" fill="black" font-size="13.617" font-family="Helvetica">10</text>
<path d="M92.5976,226.909h -7.05827" fill="none" stroke="black"/>
<path d="M92.5976,221.482h -7.05827" fill="none" stroke="black"/>
<path d="M92.5976,217.631h -7.05827" fill="none" stroke="black"/>
<path d="M92.5976,214.644h -7.05827" fill="none" stroke="black"/>
<path d="M92.5976,212.203h -7.05827" fill="none" stroke="black"/>
<path d="M92.5976,210.139h -7.05827" fill="none" stroke="black"/>
<path d="M92.5976,208.352h -7.05827" fill="none" stroke="black"/>
<path d="M92.5976,206.775h -7.05827" fill="none" stroke="black"/>
<path d="M99.6559,205.365h -14.1165" fill="none" stroke="black"/>
<text xml:space="preserve" x="75.8064" y="205.316" fill="black" font-size="9.24468" font-family="Helvetica">5</text>
<text xml:space="preserve" x="70.8333" y="205.316" fill="black" font-size="9.24468" font-family="Times">&#8722;</text>
<text xml:space="preserve" x="55.9141" y="211.71" fill="black" font-size="13.617" font-family="Helvetica">10</text>
<path d="M92.5976,196.086h -7.05827" fill="none" stroke="black"/>
<path d="M92.5976,190.658h -7.05827" fill="none" stroke="black"/>
<path d="M92.5976,186.807h -7.05827" fill="none" stroke="black"/>
<path d="M92.5976,183.82h -7.05827" fill="none" stroke="black"/>
<path d="M92.5976,181.38h -7.05827" fill="none" stroke="black"/>
<path d="M92.5976,179.316h -7.05827" fill="none" stroke="black"/>
<path d="M92.5976,177.529h -7.05827" fill="none" stroke="black"/>
<path d="M92.5976,175.952h -7.05827" fill="none" stroke="black"/>
<path d="M99.6559,174.542h -14.1165" fill="none" stroke="black"/>
<text xml:space="preserve" x="75.8064" y="174.768" fill="black" font-size="9.24468" font-family="Helvetica">4</text>
<text xml:space="preserve" x="70.8333" y="174.768" fill="black" font-size="9.24468" font-family="Times">&#8722;</text>
<text xml:space="preserve" x="55.9141" y="180.451" fill="black" font-size="13.617" font-family="Helvetica">10</text>
<path d="M92.5976,165.263h -7.05827" fill="none" stroke="black"/>
<path d="M92.5976,159.835h -7.05827" fill="none" stroke="black"/>
<path d="M92.5976,155.984h -7.05827" fill="none" stroke="black"/>
<path d="M92.5976,152.997h -7.05827" fill="none" stroke="black"/>
<path d="M92.5976,150.556h -7.05827" fill="none" stroke="black"/>
<path d="M92.5976,148.493h -7.05827" fill="none" stroke="black"/>
<path d="M92.5976,146.705h -7.05827" fill="none" stroke="black"/>
<path d="M92.5976,145.129h -7.05827" fill="none" stroke="black"/>
<path d="M99.6559,143.718h -14.1165" fill="none" stroke="black"/>
<text xml:space="preserve" x="75.8064" y="143.508" fill="black" font-size="9.24468" font-family="Helvetica">3</text>
<text xml:space="preserve" x="70.8333" y="143.508" fill="black" font-size="9.24468" font-family="Times">&#8722;</text>
<text xml:space="preserve" x="55.9141" y="149.902" fill="black" font-size="13.617" font-family="Helvetica">10</text>
<path d="M92.5976,134.44h -7.05827" fill="none" stroke="black"/>
<path d="M92.5976,129.012h -7.05827" fill="none" stroke="black"/>
<path d="M92.5976,125.161h -7.05827" fill="none" stroke="black"/>
<path d="M92.5976,122.174h -7.05827" fill="none" stroke="black"/>
<path d="M92.5976,119.733h -7.05827" fill="none" stroke="black"/>
<path d="M92.5976,117.67h -7.05827" fill="none" stroke="black"/>
<path d="M92.5976,115.882h -7.05827" fill="none" stroke="black"/>
<path d="M92.5976,114.305h -7.05827" fill="none" stroke="black"/>
<path d="M99.6559,112.895h -14.1165" fill="none" stroke="black"/>
<text xml:space="preserve" x="75.8064" y="112.96" fill="black" font-size="9.24468" font-family="Helvetica">2</text>
<text xml:space="preserve" x="70.8333" y="112.96" fill="black" font-size="9.24468" font-family="Times">&#8722;</text>
<text xml:space="preserve" x="55.9141" y="118.643" fill="black" font-size="13.617" font-family="Helvetica">10</text>
<path d="M92.5976,103.616h -7.05827" fill="none" stroke="black"/>
<path d="M92.5976,98.1885h -7.05827" fill="none" stroke="black"/>
<path d="M92.5976,94.3375h -7.05827" fill="none" stroke="black"/>
<path d="M92.5976,91.3504h -7.05827" fill="none" stroke="black"/>
<path d="M92.5976,88.9098h -7.05827" fill="none" stroke="black"/>
<path d="M92.5976,86.8463h -7.05827" fill="none" stroke="black"/>
<path d="M92.5976,85.0588h -7.05827" fill="none" stroke="black"/>
<path d="M92.5976,83.4821h -7.05827" fill="none" stroke="black"/>
<path d="M99.6559,82.0717h -14.1165" fill="none" stroke="black"/>
<text xml:space="preserve" x="77.2272" y="82.4108" fill="black" font-size="9.24468" font-family="Helvetica">1</text>
<text xml:space="preserve" x="72.2542" y="82.4108" fill="black" font-size="9.24468" font-family="Times">&#8722;</text>
<text xml:space="preserve" x="57.335" y="88.0943" fill="black" font-size="13.617" font-family="Helvetica">10</text>
<path d="M92.5976,72.7929h -7.05827" fill="none" stroke="black"/>
<path d="M92.5976,67.3652h -7.05827" fill="none" stroke="black"/>
<path d="M92.5976,63.5142h -7.05827" fill="none" stroke="black"/>
<path d="M92.5976,60.5271h -7.05827" fill="none" stroke="black"/>
<path d="M92.5976,58.0865h -7.05827" fill="none" stroke="black"/>
<path d="M92.5976,56.023h -7.05827" fill="none" stroke="black"/>
<path d="M92.5976,54.2355h -7.05827" fill="none" stroke="black"/>
<path d="M92.5976,52.6588h -7.05827" fill="none" stroke="black"/>
<path d="M99.6559,51.2484h -14.1165" fill="none" stroke="black"/>
<text xml:space="preserve" x="75.8064" y="56.835" fill="black" font-size="13.617" font-family="Helvetica">1</text>
<path d="M92.5976,41.9696h -7.05827" fill="none" stroke="black"/>
<path d="M92.5976,36.5419h -7.05827" fill="none" stroke="black"/>
<path d="M92.5976,32.6909h -7.05827" fill="none" stroke="black"/>
<path d="M92.5976,29.7038h -7.05827" fill="none" stroke="black"/>
<path d="M92.5976,27.2632h -7.05827" fill="none" stroke="black"/>
<path d="M92.5976,25.1997h -7.05827" fill="none" stroke="black"/>
<path d="M92.5976,23.4122h -7.05827" fill="none" stroke="black"/>
<path d="M92.5976,21.8355h -7.05827" fill="none" stroke="black"/>
<path d="M99.6559,20.4251h -14.1165" fill="none" stroke="black"/>
<text xml:space="preserve" x="65.8603" y="24.8653" fill="black" font-size="13.617" font-family="Helvetica">10</text>
<g transform="rotate(-90,39.5741,24.1549)">
<text xml:space="preserve" x="39.5741" y="24.1549" fill="black" font-size="13.617" font-family="Helvetica"> </text>
</g>
<g transform="rotate(-90,55.2037,31.9697)">
<text xml:space="preserve" x="55.2037" y="31.9697" fill="black" font-size="9.24468" font-family="Helvetica">T</text>
</g>
<g transform="rotate(-90,47.3889,46.8889)">
<text xml:space="preserve" x="47.3889" y="46.8889" fill="black" font-size="13.617" font-family="Helvetica">dp</text>
</g>
<g transform="rotate(-90,23.234,27.7071)">
<text xml:space="preserve" x="23.234" y="27.7071" fill="black" font-size="6.32979" font-family="Helvetica">0</text>
</g>
<g transform="rotate(-90,26.7862,32.6801)">
<text xml:space="preserve" x="26.7862" y="32.6801" fill="black" font-size="9.24468" font-family="Times">&#0960;</text>
</g>
<g transform="rotate(-90,33.1801,49.0202)">
<text xml:space="preserve" x="33.1801" y="49.0202" fill="black" font-size="13.617" font-family="Helvetica">dN</text>
</g>
<path d="M36.0219,49.0202v -24.8653" fill="none" stroke="black" stroke-width="2"/>
<g transform="rotate(-90,39.5741,53.2828)">
<text xml:space="preserve" x="39.5741" y="53.2828" fill="black" font-size="13.617" font-family="Helvetica"> </text>
</g>
<g transform="rotate(-90,51.6515,76.0168)">
<text xml:space="preserve" x="51.6515" y="76.0168" fill="black" font-size="9.24468" font-family="Helvetica">event</text>
</g>
<g transform="rotate(-90,47.3889,85.2525)">
<text xml:space="preserve" x="47.3889" y="85.2525" fill="black" font-size="13.617" font-family="Helvetica">N</text>
</g>
<g transform="rotate(-90,33.8906,71.7542)">
<text xml:space="preserve" x="33.8906" y="71.7542" fill="black" font-size="13.617" font-family="Helvetica">1</text>
</g>
<path d="M36.0219,85.2525v -31.9697" fill="none" stroke="black" stroke-width="2"/>
<g transform="rotate(-90,39.5741,89.5151)">
<text xml:space="preserve" x="39.5741" y="89.5151" fill="black" font-size="13.617" font-family="Helvetica"> </text>
</g>
<g transform="rotate(-90,54.4933,107.276)">
<text xml:space="preserve" x="54.4933" y="107.276" fill="black" font-size="9.24468" font-family="Helvetica">cent</text>
</g>
<g transform="rotate(-90,48.0993,111.539)">
<text xml:space="preserve" x="48.0993" y="111.539" fill="black" font-size="13.617" font-family="Times">&#0062;</text>
</g>
<g transform="rotate(-90,54.4933,125.037)">
<text xml:space="preserve" x="54.4933" y="125.037" fill="black" font-size="9.24468" font-family="Helvetica">coll</text>
</g>
<g transform="rotate(-90,48.0993,134.273)">
<text xml:space="preserve" x="48.0993" y="134.273" fill="black" font-size="13.617" font-family="Helvetica">N</text>
</g>
<g transform="rotate(-90,48.0993,138.535)">
<text xml:space="preserve" x="48.0993" y="138.535" fill="black" font-size="13.617" font-family="Times">&#0060;</text>
</g>
<g transform="rotate(-90,33.8906,116.512)">
<text xml:space="preserve" x="33.8906" y="116.512" fill="black" font-size="13.617" font-family="Helvetica">1</text>
</g>
<path d="M36.0219,138.535v -49.0202" fill="none" stroke="black" stroke-width="2"/>
<path d="M482.39,359.481v -339.056" fill="none" stroke="black"/>
<path d="M468.273,359.481h 14.1165" fill="none" stroke="black"/>
<path d="M475.332,350.203h 7.05827" fill="none" stroke="black"/>
<path d="M475.332,344.775h 7.05827" fill="none" stroke="black"/>
<path d="M475.332,340.924h 7.05827" fill="none" stroke="black"/>
<path d="M475.332,337.937h 7.05827" fill="none" stroke="black"/>
<path d="M475.332,335.496h 7.05827" fill="none" stroke="black"/>
<path d="M475.332,333.433h 7.05827" fill="none" stroke="black"/>
<path d="M475.332,331.645h 7.05827" fill="none" stroke="black"/>
<path d="M475.332,330.068h 7.05827" fill="none" stroke="black"/>
<path d="M468.273,328.658h 14.1165" fill="none" stroke="black"/>
<path d="M475.332,319.379h 7.05827" fill="none" stroke="black"/>
<path d="M475.332,313.952h 7.05827" fill="none" stroke="black"/>
<path d="M475.332,310.101h 7.05827" fill="none" stroke="black"/>
<path d="M475.332,307.113h 7.05827" fill="none" stroke="black"/>
<path d="M475.332,304.673h 7.05827" fill="none" stroke="black"/>
<path d="M475.332,302.609h 7.05827" fill="none" stroke="black"/>
<path d="M475.332,300.822h 7.05827" fill="none" stroke="black"/>
<path d="M475.332,299.245h 7.05827" fill="none" stroke="black"/>
<path d="M468.273,297.835h 14.1165" fill="none" stroke="black"/>
<path d="M475.332,288.556h 7.05827" fill="none" stroke="black"/>
<path d="M475.332,283.128h 7.05827" fill="none" stroke="black"/>
<path d="M475.332,279.277h 7.05827" fill="none" stroke="black"/>
<path d="M475.332,276.29h 7.05827" fill="none" stroke="black"/>
<path d="M475.332,273.85h 7.05827" fill="none" stroke="black"/>
<path d="M475.332,271.786h 7.05827" fill="none" stroke="black"/>
<path d="M475.332,269.999h 7.05827" fill="none" stroke="black"/>
<path d="M475.332,268.422h 7.05827" fill="none" stroke="black"/>
<path d="M468.273,267.011h 14.1165" fill="none" stroke="black"/>
<path d="M475.332,257.733h 7.05827" fill="none" stroke="black"/>
<path d="M475.332,252.305h 7.05827" fill="none" stroke="black"/>
<path d="M475.332,248.454h 7.05827" fill="none" stroke="black"/>
<path d="M475.332,245.467h 7.05827" fill="none" stroke="black"/>
<path d="M475.332,243.026h 7.05827" fill="none" stroke="black"/>
<path d="M475.332,240.963h 7.05827" fill="none" stroke="black"/>
<path d="M475.332,239.175h 7.05827" fill="none" stroke="black"/>
<path d="M475.332,237.599h 7.05827" fill="none" stroke="black"/>
<path d="M468.273,236.188h 14.1165" fill="none" stroke="black"/>
<path d="M475.332,226.909h 7.05827" fill="none" stroke="black"/>
<path d="M475.332,221.482h 7.05827" fill="none" stroke="black"/>
<path d="M475.332,217.631h 7.05827" fill="none" stroke="black"/>
<path d="M475.332,214.644h 7.05827" fill="none" stroke="black"/>
<path d="M475.332,212.203h 7.05827" fill="none" stroke="black"/>
<path d="M475.332,210.139h 7.05827" fill="none" stroke="black"/>
<path d="M475.332,208.352h 7.05827" fill="none" stroke="black"/>
<path d="M475.332,206.775h 7.05827" fill="none" stroke="black"/>
<path d="M468.273,205.365h 14.1165" fill="none" stroke="black"/>
<path d="M475.332,196.086h 7.05827" fill="none" stroke="black"/>
<path d="M475.332,190.658h 7.05827" fill="none" stroke="black"/>
<path d="M475.332,186.807h 7.05827" fill="none" stroke="black"/>
<path d="M475.332,183.82h 7.05827" fill="none" stroke="black"/>
<path d="M475.332,181.38h 7.05827" fill="none" stroke="black"/>
<path d="M475.332,179.316h 7.05827" fill="none" stroke="black"/>
<path d="M475.332,177.529h 7.05827" fill="none" stroke="black"/>
<path d="M475.332,175.952h 7.05827" fill="none" stroke="black"/>
<path d="M468.273,174.542h 14.1165" fill="none" stroke="black"/>
<path d="M475.332,165.263h 7.05827" fill="none" stroke="black"/>
<path d="M475.332,159.835h 7.05827" fill="none" stroke="black"/>
<path d="M475.332,155.984h 7.05827" fill="none" stroke="black"/>
<path d="M475.332,152.997h 7.05827" fill="none" stroke="black"/>
<path d="M475.332,150.556h 7.05827" fill="none" stroke="black"/>
<path d="M475.332,148.493h 7.05827" fill="none" stroke="black"/>
<path d="M475.332,146.705h 7.05827" fill="none" stroke="black"/>
<path d="M475.332,145.129h 7.05827" fill="none" stroke="black"/>
<path d="M468.273,143.718h 14.1165" fill="none" stroke="black"/>
<path d="M475.332,134.44h 7.05827" fill="none" stroke="black"/>
<path d="M475.332,129.012h 7.05827" fill="none" stroke="black"/>
<path d="M475.332,125.161h 7.05827" fill="none" stroke="black"/>
<path d="M475.332,122.174h 7.05827" fill="none" stroke="black"/>
<path d="M475.332,119.733h 7.05827" fill="none" stroke="black"/>
<path d="M475.332,117.67h 7.05827" fill="none" stroke="black"/>
<path d="M475.332,115.882h 7.05827" fill="none" stroke="black"/>
<path d="M475.332,114.305h 7.05827" fill="none" stroke="black"/>
<path d="M468.273,112.895h 14.1165" fill="none" stroke="black"/>
<path d="M475.332,103.616h 7.05827" fill="none" stroke="black"/>
<path d="M475.332,98.1885h 7.05827" fill="none" stroke="black"/>
<path d="M475.332,94.3375h 7.05827" fill="none" stroke="black"/>
<path d="M475.332,91.3504h 7.05827" fill="none" stroke="black"/>
<path d="M475.332,88.9098h 7.05827" fill="none" stroke="black"/>
<path d="M475.332,86.8463h 7.05827" fill="none" stroke="black"/>
<path d="M475.332,85.0588h 7.05827" fill="none" stroke="black"/>
<path d="M475.332,83.4821h 7.05827" fill="none" stroke="black"/>
<path d="M468.273,82.0717h 14.1165" fill="none" stroke="black"/>
<path d="M475.332,72.7929h 7.05827" fill="none" stroke="black"/>
<path d="M475.332,67.3652h 7.05827" fill="none" stroke="black"/>
<path d="M475.332,63.5142h 7.05827" fill="none" stroke="black"/>
<path d="M475.332,60.5271h 7.05827" fill="none" stroke="black"/>
<path d="M475.332,58.0865h 7.05827" fill="none" stroke="black"/>
<path d="M475.332,56.023h 7.05827" fill="none" stroke="black"/>
<path d="M475.332,54.2355h 7.05827" fill="none" stroke="black"/>
<path d="M475.332,52.6588h 7.05827" fill="none" stroke="black"/>
<path d="M468.273,51.2484h 14.1165" fill="none" stroke="black"/>
<path d="M475.332,41.9696h 7.05827" fill="none" stroke="black"/>
<path d="M475.332,36.5419h 7.05827" fill="none" stroke="black"/>
<path d="M475.332,32.6909h 7.05827" fill="none" stroke="black"/>
<path d="M475.332,29.7038h 7.05827" fill="none" stroke="black"/>
<path d="M475.332,27.2632h 7.05827" fill="none" stroke="black"/>
<path d="M475.332,25.1997h 7.05827" fill="none" stroke="black"/>
<path d="M475.332,23.4122h 7.05827" fill="none" stroke="black"/>
<path d="M475.332,21.8355h 7.05827" fill="none" stroke="black"/>
<path d="M468.273,20.4251h 14.1165" fill="none" stroke="black"/>
<path d="M85.5394,43.548h 2.11888" fill="none" stroke="black"/>
<path d="M93.3418,43.548h 2.11888" fill="none" stroke="black"/>
<g fill="black">
<polygon points=" 89.5527, 42.6008 89.5527, 40.7063 91.4473, 40.7063 91.4473, 42.6008 93.3418, 42.6008 93.3418, 44.4953 91.4473, 44.4953 91.4473, 46.3898 89.5527, 46.3898 89.5527, 44.4953 87.6582, 44.4953 87.6582, 42.6008"/>
</g>
<path d="M95.4606,57.8335h 2.11888" fill="none" stroke="black"/>
<path d="M103.263,57.8335h 2.11888" fill="none" stroke="black"/>
<g fill="black">
<polygon points=" 99.474, 56.8862 99.474, 54.9917 101.369, 54.9917 101.369, 56.8862 103.263, 56.8862 103.263, 58.7807 101.369, 58.7807 101.369, 60.6752 99.474, 60.6752 99.474, 58.7807 97.5795, 58.7807 97.5795, 56.8862"/>
</g>
<path d="M105.382,84.2678h 2.11888" fill="none" stroke="black"/>
<path d="M113.184,84.2678h 2.11888" fill="none" stroke="black"/>
<g fill="black">
<polygon points=" 109.395, 83.3205 109.395, 81.426 111.29, 81.426 111.29, 83.3205 113.184, 83.3205 113.184, 85.215 111.29, 85.215 111.29, 87.1095 109.395, 87.1095 109.395, 85.215 107.501, 85.215 107.501, 83.3205"/>
</g>
<path d="M115.303,106.412h 2.11888" fill="none" stroke="black"/>
<path d="M123.106,106.412h 2.11888" fill="none" stroke="black"/>
<g fill="black">
<polygon points=" 119.317, 105.464 119.317, 103.57 121.211, 103.57 121.211, 105.464 123.106, 105.464 123.106, 107.359 121.211, 107.359 121.211, 109.253 119.317, 109.253 119.317, 107.359 117.422, 107.359 117.422, 105.464"/>
</g>
<path d="M125.224,130.636h 7.07951" fill="none" stroke="black"/>
<path d="M137.987,130.636h 7.07951" fill="none" stroke="black"/>
<g fill="black">
<polygon points=" 134.198, 129.689 134.198, 127.794 136.093, 127.794 136.093, 129.689 137.987, 129.689 137.987, 131.583 136.093, 131.583 136.093, 133.478 134.198, 133.478 134.198, 131.583 132.304, 131.583 132.304, 129.689"/>
</g>
<path d="M145.067,160.141h 7.07951" fill="none" stroke="black"/>
<path d="M157.83,160.141h 7.07951" fill="none" stroke="black"/>
<g fill="black">
<polygon points=" 154.041, 159.194 154.041, 157.299 155.935, 157.299 155.935, 159.194 157.83, 159.194 157.83, 161.088 155.935, 161.088 155.935, 162.983 154.041, 162.983 154.041, 161.088 152.146, 161.088 152.146, 159.194"/>
</g>
<path d="M164.909,183.627h 7.07951" fill="none" stroke="black"/>
<path d="M177.672,183.627h 7.07951" fill="none" stroke="black"/>
<g fill="black">
<polygon points=" 173.883, 182.68 173.883, 180.785 175.778, 180.785 175.778, 182.68 177.672, 182.68 177.672, 184.574 175.778, 184.574 175.778, 186.469 173.883, 186.469 173.883, 184.574 171.989, 184.574 171.989, 182.68"/>
</g>
<path d="M184.752,209.012h 17.0008" fill="none" stroke="black"/>
<path d="M207.436,209.012h 17.0008" fill="none" stroke="black"/>
<g fill="black">
<polygon points=" 203.647, 208.065 203.647, 206.171 205.542, 206.171 205.542, 208.065 207.436, 208.065 207.436, 209.96 205.542, 209.96 205.542, 211.854 203.647, 211.854 203.647, 209.96 201.753, 209.96 201.753, 208.065"/>
</g>
<path d="M224.437,241.695h 26.922" fill="none" stroke="black"/>
<path d="M257.043,241.695h 26.922" fill="none" stroke="black"/>
<g fill="black">
<polygon points=" 253.254, 240.748 253.254, 238.854 255.148, 238.854 255.148, 240.748 257.043, 240.748 257.043, 242.643 255.148, 242.643 255.148, 244.537 253.254, 244.537 253.254, 242.643 251.359, 242.643 251.359, 240.748"/>
</g>
<path d="M283.965,276.962h 46.7645" fill="none" stroke="black"/>
<path d="M336.413,276.962h 46.7645" fill="none" stroke="black"/>
<g fill="black">
<polygon points=" 332.624, 276.015 332.624, 274.12 334.518, 274.12 334.518, 276.015 336.413, 276.015 336.413, 277.909 334.518, 277.909 334.518, 279.804 332.624, 279.804 332.624, 277.909 330.729, 277.909 330.729, 276.015"/>
</g>
<path d="M383.177,315.168h 46.7645" fill="none" stroke="black"/>
<path d="M435.625,315.168h 46.7645" fill="none" stroke="black"/>
<g fill="black">
<polygon points=" 431.836, 314.221 431.836, 312.326 433.731, 312.326 433.731, 314.221 435.625, 314.221 435.625, 316.115 433.731, 316.115 433.731, 318.01 431.836, 318.01 431.836, 316.115 429.942, 316.115 429.942, 314.221"/>
</g>
<path d="M85.5394,44.4387h 2.11888" fill="none" stroke="#ffcc00"/>
<path d="M93.3418,44.4387h 2.11888" fill="none" stroke="#ffcc00"/>
<g fill="#ffcc00">
<polygon points=" 89.5527, 43.4915 89.5527, 41.597 91.4473, 41.597 91.4473, 43.4915 93.3418, 43.4915 93.3418, 45.386 91.4473, 45.386 91.4473, 47.2805 89.5527, 47.2805 89.5527, 45.386 87.6582, 45.386 87.6582, 43.4915"/>
</g>
<path d="M95.4606,58.8179h 2.11888" fill="none" stroke="#ffcc00"/>
<path d="M103.263,58.8179h 2.11888" fill="none" stroke="#ffcc00"/>
<g fill="#ffcc00">
<polygon points=" 99.474, 57.8707 99.474, 55.9762 101.369, 55.9762 101.369, 57.8707 103.263, 57.8707 103.263, 59.7652 101.369, 59.7652 101.369, 61.6597 99.474, 61.6597 99.474, 59.7652 97.5795, 59.7652 97.5795, 57.8707"/>
</g>
<path d="M105.382,85.4044h 2.11888" fill="none" stroke="#ffcc00"/>
<path d="M113.184,85.4044h 2.11888" fill="none" stroke="#ffcc00"/>
<g fill="#ffcc00">
<polygon points=" 109.395, 84.4571 109.395, 82.5626 111.29, 82.5626 111.29, 84.4571 113.184, 84.4571 113.184, 86.3516 111.29, 86.3516 111.29, 88.2461 109.395, 88.2461 109.395, 86.3516 107.501, 86.3516 107.501, 84.4571"/>
</g>
<path d="M115.303,107.829h 2.11888" fill="none" stroke="#ffcc00"/>
<path d="M123.106,107.829h 2.11888" fill="none" stroke="#ffcc00"/>
<g fill="#ffcc00">
<polygon points=" 119.317, 106.882 119.317, 104.988 121.211, 104.988 121.211, 106.882 123.106, 106.882 123.106, 108.777 121.211, 108.777 121.211, 110.671 119.317, 110.671 119.317, 108.777 117.422, 108.777 117.422, 106.882"/>
</g>
<path d="M125.224,132.369h 7.07951" fill="none" stroke="#ffcc00"/>
<path d="M137.987,132.369h 7.07951" fill="none" stroke="#ffcc00"/>
<g fill="#ffcc00">
<polygon points=" 134.198, 131.422 134.198, 129.527 136.093, 129.527 136.093, 131.422 137.987, 131.422 137.987, 133.316 136.093, 133.316 136.093, 135.211 134.198, 135.211 134.198, 133.316 132.304, 133.316 132.304, 131.422"/>
</g>
<path d="M145.067,162.304h 7.07951" fill="none" stroke="#ffcc00"/>
<path d="M157.83,162.304h 7.07951" fill="none" stroke="#ffcc00"/>
<g fill="#ffcc00">
<polygon points=" 154.041, 161.357 154.041, 159.462 155.935, 159.462 155.935, 161.357 157.83, 161.357 157.83, 163.251 155.935, 163.251 155.935, 165.146 154.041, 165.146 154.041, 163.251 152.146, 163.251 152.146, 161.357"/>
</g>
<path d="M164.909,186.266h 7.07951" fill="none" stroke="#ffcc00"/>
<path d="M177.672,186.266h 7.07951" fill="none" stroke="#ffcc00"/>
<g fill="#ffcc00">
<polygon points=" 173.883, 185.319 173.883, 183.424 175.778, 183.424 175.778, 185.319 177.672, 185.319 177.672, 187.213 175.778, 187.213 175.778, 189.108 173.883, 189.108 173.883, 187.213 171.989, 187.213 171.989, 185.319"/>
</g>
<path d="M184.752,212.659h 17.0008" fill="none" stroke="#ffcc00"/>
<path d="M207.436,212.659h 17.0008" fill="none" stroke="#ffcc00"/>
<g fill="#ffcc00">
<polygon points=" 203.647, 211.712 203.647, 209.817 205.542, 209.817 205.542, 211.712 207.436, 211.712 207.436, 213.606 205.542, 213.606 205.542, 215.501 203.647, 215.501 203.647, 213.606 201.753, 213.606 201.753, 211.712"/>
</g>
<path d="M224.437,246.824h 26.922" fill="none" stroke="#ffcc00"/>
<path d="M257.043,246.824h 26.922" fill="none" stroke="#ffcc00"/>
<g fill="#ffcc00">
<polygon points=" 253.254, 245.877 253.254, 243.983 255.148, 243.983 255.148, 245.877 257.043, 245.877 257.043, 247.772 255.148, 247.772 255.148, 249.666 253.254, 249.666 253.254, 247.772 251.359, 247.772 251.359, 245.877"/>
</g>
<path d="M283.965,281.786h 46.7645" fill="none" stroke="#ffcc00"/>
<path d="M336.413,281.786h 46.7645" fill="none" stroke="#ffcc00"/>
<g fill="#ffcc00">
<polygon points=" 332.624, 280.839 332.624, 278.944 334.518, 278.944 334.518, 280.839 336.413, 280.839 336.413, 282.733 334.518, 282.733 334.518, 284.628 332.624, 284.628 332.624, 282.733 330.729, 282.733 330.729, 280.839"/>
</g>
<path d="M432.783,331.352v -4.18166" fill="none" stroke="#ffcc00"/>
<path d="M432.783,321.487v -1.74103" fill="none" stroke="#ffcc00"/>
<path d="M383.177,324.329h 46.7645" fill="none" stroke="#ffcc00"/>
<path d="M435.625,324.329h 46.7645" fill="none" stroke="#ffcc00"/>
<g fill="#ffcc00">
<polygon points=" 431.836, 323.382 431.836, 321.487 433.731, 321.487 433.731, 323.382 435.625, 323.382 435.625, 325.276 433.731, 325.276 433.731, 327.171 431.836, 327.171 431.836, 325.276 429.942, 325.276 429.942, 323.382"/>
</g>
<path d="M85.5394,44.3013h 2.11888" fill="none" stroke="#ff0000"/>
<path d="M93.3418,44.3013h 2.11888" fill="none" stroke="#ff0000"/>
<g fill="#ff0000">
<polygon points=" 89.5527, 43.354 89.5527, 41.4595 91.4473, 41.4595 91.4473, 43.354 93.3418, 43.354 93.3418, 45.2485 91.4473, 45.2485 91.4473, 47.143 89.5527, 47.143 89.5527, 45.2485 87.6582, 45.2485 87.6582, 43.354"/>
</g>
<path d="M95.4606,58.6041h 2.11888" fill="none" stroke="#ff0000"/>
<path d="M103.263,58.6041h 2.11888" fill="none" stroke="#ff0000"/>
<g fill="#ff0000">
<polygon points=" 99.474, 57.6569 99.474, 55.7624 101.369, 55.7624 101.369, 57.6569 103.263, 57.6569 103.263, 59.5514 101.369, 59.5514 101.369, 61.4459 99.474, 61.4459 99.474, 59.5514 97.5795, 59.5514 97.5795, 57.6569"/>
</g>
<path d="M105.382,84.9825h 2.11888" fill="none" stroke="#ff0000"/>
<path d="M113.184,84.9825h 2.11888" fill="none" stroke="#ff0000"/>
<g fill="#ff0000">
<polygon points=" 109.395, 84.0353 109.395, 82.1408 111.29, 82.1408 111.29, 84.0353 113.184, 84.0353 113.184, 85.9298 111.29, 85.9298 111.29, 87.8243 109.395, 87.8243 109.395, 85.9298 107.501, 85.9298 107.501, 84.0353"/>
</g>
<path d="M115.303,107.206h 2.11888" fill="none" stroke="#ff0000"/>
<path d="M123.106,107.206h 2.11888" fill="none" stroke="#ff0000"/>
<g fill="#ff0000">
<polygon points=" 119.317, 106.259 119.317, 104.365 121.211, 104.365 121.211, 106.259 123.106, 106.259 123.106, 108.154 121.211, 108.154 121.211, 110.048 119.317, 110.048 119.317, 108.154 117.422, 108.154 117.422, 106.259"/>
</g>
<path d="M125.224,131.541h 7.07951" fill="none" stroke="#ff0000"/>
<path d="M137.987,131.541h 7.07951" fill="none" stroke="#ff0000"/>
<g fill="#ff0000">
<polygon points=" 134.198, 130.594 134.198, 128.7 136.093, 128.7 136.093, 130.594 137.987, 130.594 137.987, 132.489 136.093, 132.489 136.093, 134.383 134.198, 134.383 134.198, 132.489 132.304, 132.489 132.304, 130.594"/>
</g>
<path d="M145.067,161.27h 7.07951" fill="none" stroke="#ff0000"/>
<path d="M157.83,161.27h 7.07951" fill="none" stroke="#ff0000"/>
<g fill="#ff0000">
<polygon points=" 154.041, 160.323 154.041, 158.428 155.935, 158.428 155.935, 160.323 157.83, 160.323 157.83, 162.217 155.935, 162.217 155.935, 164.112 154.041, 164.112 154.041, 162.217 152.146, 162.217 152.146, 160.323"/>
</g>
<path d="M164.909,185.179h 7.07951" fill="none" stroke="#ff0000"/>
<path d="M177.672,185.179h 7.07951" fill="none" stroke="#ff0000"/>
<g fill="#ff0000">
<polygon points=" 173.883, 184.232 173.883, 182.337 175.778, 182.337 175.778, 184.232 177.672, 184.232 177.672, 186.126 175.778, 186.126 175.778, 188.021 173.883, 188.021 173.883, 186.126 171.989, 186.126 171.989, 184.232"/>
</g>
<path d="M184.752,210.69h 17.0008" fill="none" stroke="#ff0000"/>
<path d="M207.436,210.69h 17.0008" fill="none" stroke="#ff0000"/>
<g fill="#ff0000">
<polygon points=" 203.647, 209.743 203.647, 207.849 205.542, 207.849 205.542, 209.743 207.436, 209.743 207.436, 211.638 205.542, 211.638 205.542, 213.532 203.647, 213.532 203.647, 211.638 201.753, 211.638 201.753, 209.743"/>
</g>
<path d="M224.437,244.213h 26.922" fill="none" stroke="#ff0000"/>
<path d="M257.043,244.213h 26.922" fill="none" stroke="#ff0000"/>
<g fill="#ff0000">
<polygon points=" 253.254, 243.266 253.254, 241.371 255.148, 241.371 255.148, 243.266 257.043, 243.266 257.043, 245.16 255.148, 245.16 255.148, 247.055 253.254, 247.055 253.254, 245.16 251.359, 245.16 251.359, 243.266"/>
</g>
<path d="M283.965,280.106h 46.7645" fill="none" stroke="#ff0000"/>
<path d="M336.413,280.106h 46.7645" fill="none" stroke="#ff0000"/>
<g fill="#ff0000">
<polygon points=" 332.624, 279.159 332.624, 277.264 334.518, 277.264 334.518, 279.159 336.413, 279.159 336.413, 281.053 334.518, 281.053 334.518, 282.948 332.624, 282.948 332.624, 281.053 330.729, 281.053 330.729, 279.159"/>
</g>
<path d="M432.783,326.467v -3.51355" fill="none" stroke="#ff0000"/>
<path d="M432.783,317.27v -1.45003" fill="none" stroke="#ff0000"/>
<path d="M383.177,320.112h 46.7645" fill="none" stroke="#ff0000"/>
<path d="M435.625,320.112h 46.7645" fill="none" stroke="#ff0000"/>
<g fill="#ff0000">
<polygon points=" 431.836, 319.165 431.836, 317.27 433.731, 317.27 433.731, 319.165 435.625, 319.165 435.625, 321.059 433.731, 321.059 433.731, 322.954 431.836, 322.954 431.836, 321.059 429.942, 321.059 429.942, 319.165"/>
</g>
<path d="M85.5394,44.0606h 2.11888" fill="none" stroke="#ff0033"/>
<path d="M93.3418,44.0606h 2.11888" fill="none" stroke="#ff0033"/>
<g stroke="#ff0033" stroke-width="1" fill="none">
<polygon points=" 89.5527, 43.1134 89.5527, 41.2189 91.4473, 41.2189 91.4473, 43.1134 93.3418, 43.1134 93.3418, 45.0079 91.4473, 45.0079 91.4473, 46.9024 89.5527, 46.9024 89.5527, 45.0079 87.6582, 45.0079 87.6582, 43.1134"/>
</g>
<path d="M95.4606,58.3064h 2.11888" fill="none" stroke="#ff0033"/>
<path d="M103.263,58.3064h 2.11888" fill="none" stroke="#ff0033"/>
<g stroke="#ff0033" stroke-width="1" fill="none">
<polygon points=" 99.474, 57.3592 99.474, 55.4647 101.369, 55.4647 101.369, 57.3592 103.263, 57.3592 103.263, 59.2537 101.369, 59.2537 101.369, 61.1482 99.474, 61.1482 99.474, 59.2537 97.5795, 59.2537 97.5795, 57.3592"/>
</g>
<path d="M105.382,84.5563h 2.11888" fill="none" stroke="#ff0033"/>
<path d="M113.184,84.5563h 2.11888" fill="none" stroke="#ff0033"/>
<g stroke="#ff0033" stroke-width="1" fill="none">
<polygon points=" 109.395, 83.609 109.395, 81.7145 111.29, 81.7145 111.29, 83.609 113.184, 83.609 113.184, 85.5035 111.29, 85.5035 111.29, 87.398 109.395, 87.398 109.395, 85.5035 107.501, 85.5035 107.501, 83.609"/>
</g>
<path d="M115.303,106.629h 2.11888" fill="none" stroke="#ff0033"/>
<path d="M123.106,106.629h 2.11888" fill="none" stroke="#ff0033"/>
<g stroke="#ff0033" stroke-width="1" fill="none">
<polygon points=" 119.317, 105.682 119.317, 103.787 121.211, 103.787 121.211, 105.682 123.106, 105.682 123.106, 107.576 121.211, 107.576 121.211, 109.471 119.317, 109.471 119.317, 107.576 117.422, 107.576 117.422, 105.682"/>
</g>
<path d="M125.224,130.849h 7.07951" fill="none" stroke="#ff0033"/>
<path d="M137.987,130.849h 7.07951" fill="none" stroke="#ff0033"/>
<g stroke="#ff0033" stroke-width="1" fill="none">
<polygon points=" 134.198, 129.901 134.198, 128.007 136.093, 128.007 136.093, 129.901 137.987, 129.901 137.987, 131.796 136.093, 131.796 136.093, 133.69 134.198, 133.69 134.198, 131.796 132.304, 131.796 132.304, 129.901"/>
</g>
<path d="M145.067,160.433h 7.07951" fill="none" stroke="#ff0033"/>
<path d="M157.83,160.433h 7.07951" fill="none" stroke="#ff0033"/>
<g stroke="#ff0033" stroke-width="1" fill="none">
<polygon points=" 154.041, 159.486 154.041, 157.591 155.935, 157.591 155.935, 159.486 157.83, 159.486 157.83, 161.38 155.935, 161.38 155.935, 163.275 154.041, 163.275 154.041, 161.38 152.146, 161.38 152.146, 159.486"/>
</g>
<path d="M164.909,184.035h 7.07951" fill="none" stroke="#ff0033"/>
<path d="M177.672,184.035h 7.07951" fill="none" stroke="#ff0033"/>
<g stroke="#ff0033" stroke-width="1" fill="none">
<polygon points=" 173.883, 183.088 173.883, 181.194 175.778, 181.194 175.778, 183.088 177.672, 183.088 177.672, 184.983 175.778, 184.983 175.778, 186.877 173.883, 186.877 173.883, 184.983 171.989, 184.983 171.989, 183.088"/>
</g>
<path d="M184.752,209.734h 17.0008" fill="none" stroke="#ff0033"/>
<path d="M207.436,209.734h 17.0008" fill="none" stroke="#ff0033"/>
<g stroke="#ff0033" stroke-width="1" fill="none">
<polygon points=" 203.647, 208.787 203.647, 206.892 205.542, 206.892 205.542, 208.787 207.436, 208.787 207.436, 210.681 205.542, 210.681 205.542, 212.576 203.647, 212.576 203.647, 210.681 201.753, 210.681 201.753, 208.787"/>
</g>
<path d="M224.437,242.796h 26.922" fill="none" stroke="#ff0033"/>
<path d="M257.043,242.796h 26.922" fill="none" stroke="#ff0033"/>
<g stroke="#ff0033" stroke-width="1" fill="none">
<polygon points=" 253.254, 241.849 253.254, 239.954 255.148, 239.954 255.148, 241.849 257.043, 241.849 257.043, 243.743 255.148, 243.743 255.148, 245.638 253.254, 245.638 253.254, 243.743 251.359, 243.743 251.359, 241.849"/>
</g>
<path d="M283.965,278.805h 46.7645" fill="none" stroke="#ff0033"/>
<path d="M336.413,278.805h 46.7645" fill="none" stroke="#ff0033"/>
<g stroke="#ff0033" stroke-width="1" fill="none">
<polygon points=" 332.624, 277.857 332.624, 275.963 334.518, 275.963 334.518, 277.857 336.413, 277.857 336.413, 279.752 334.518, 279.752 334.518, 281.646 332.624, 281.646 332.624, 279.752 330.729, 279.752 330.729, 277.857"/>
</g>
<path d="M432.783,322.077v -1.32096" fill="none" stroke="#ff0033"/>
<path d="M432.783,315.073v -0.328924" fill="none" stroke="#ff0033"/>
<path d="M383.177,317.915h 46.7645" fill="none" stroke="#ff0033"/>
<path d="M435.625,317.915h 46.7645" fill="none" stroke="#ff0033"/>
<g stroke="#ff0033" stroke-width="1" fill="none">
<polygon points=" 431.836, 316.967 431.836, 315.073 433.731, 315.073 433.731, 316.967 435.625, 316.967 435.625, 318.862 433.731, 318.862 433.731, 320.756 431.836, 320.756 431.836, 318.862 429.942, 318.862 429.942, 316.967"/>
</g>
<path d="M85.5394,43.5328h 3.53975" fill="none" stroke="#ff00ff"/>
<path d="M91.9209,43.5328h 3.53975" fill="none" stroke="#ff00ff"/>
<g stroke="#ff00ff" stroke-width="1" fill="none">
<polygon points=" 90.5, 44.9537 89.0791, 46.3746 87.6582, 44.9537 89.0791, 43.5328 87.6582, 42.1119 89.0791, 40.6911 90.5, 42.1119 91.9209, 40.6911 93.3418, 42.1119 91.9209, 43.5328 93.3418, 44.9537 91.9209, 46.3746 90.5, 44.9537"/>
</g>
<path d="M95.4606,57.737h 3.53975" fill="none" stroke="#ff00ff"/>
<path d="M101.842,57.737h 3.53975" fill="none" stroke="#ff00ff"/>
<g stroke="#ff00ff" stroke-width="1" fill="none">
<polygon points=" 100.421, 59.1579 99.0004, 60.5788 97.5795, 59.1579 99.0004, 57.737 97.5795, 56.3161 99.0004, 54.8953 100.421, 56.3161 101.842, 54.8953 103.263, 56.3161 101.842, 57.737 103.263, 59.1579 101.842, 60.5788 100.421, 59.1579"/>
</g>
<path d="M105.382,83.9425h 3.53975" fill="none" stroke="#ff00ff"/>
<path d="M111.763,83.9425h 3.53975" fill="none" stroke="#ff00ff"/>
<g stroke="#ff00ff" stroke-width="1" fill="none">
<polygon points=" 110.343, 85.3633 108.922, 86.7842 107.501, 85.3633 108.922, 83.9425 107.501, 82.5216 108.922, 81.1007 110.343, 82.5216 111.763, 81.1007 113.184, 82.5216 111.763, 83.9425 113.184, 85.3633 111.763, 86.7842 110.343, 85.3633"/>
</g>
<path d="M115.303,105.895h 3.53975" fill="none" stroke="#ff00ff"/>
<path d="M121.685,105.895h 3.53975" fill="none" stroke="#ff00ff"/>
<g stroke="#ff00ff" stroke-width="1" fill="none">
<polygon points=" 120.264, 107.316 118.843, 108.737 117.422, 107.316 118.843, 105.895 117.422, 104.474 118.843, 103.053 120.264, 104.474 121.685, 103.053 123.106, 104.474 121.685, 105.895 123.106, 107.316 121.685, 108.737 120.264, 107.316"/>
</g>
<path d="M125.224,130.006h 8.50039" fill="none" stroke="#ff00ff"/>
<path d="M136.567,130.006h 8.50039" fill="none" stroke="#ff00ff"/>
<g stroke="#ff00ff" stroke-width="1" fill="none">
<polygon points=" 135.146, 131.427 133.725, 132.847 132.304, 131.427 133.725, 130.006 132.304, 128.585 133.725, 127.164 135.146, 128.585 136.567, 127.164 137.987, 128.585 136.567, 130.006 137.987, 131.427 136.567, 132.847 135.146, 131.427"/>
</g>
<path d="M145.067,159.402h 8.50039" fill="none" stroke="#ff00ff"/>
<path d="M156.409,159.402h 8.50039" fill="none" stroke="#ff00ff"/>
<g stroke="#ff00ff" stroke-width="1" fill="none">
<polygon points=" 154.988, 160.823 153.567, 162.244 152.146, 160.823 153.567, 159.402 152.146, 157.981 153.567, 156.56 154.988, 157.981 156.409, 156.56 157.83, 157.981 156.409, 159.402 157.83, 160.823 156.409, 162.244 154.988, 160.823"/>
</g>
<path d="M164.909,182.846h 8.50039" fill="none" stroke="#ff00ff"/>
<path d="M176.252,182.846h 8.50039" fill="none" stroke="#ff00ff"/>
<g stroke="#ff00ff" stroke-width="1" fill="none">
<polygon points=" 174.831, 184.267 173.41, 185.688 171.989, 184.267 173.41, 182.846 171.989, 181.425 173.41, 180.004 174.831, 181.425 176.252, 180.004 177.672, 181.425 176.252, 182.846 177.672, 184.267 176.252, 185.688 174.831, 184.267"/>
</g>
<path d="M184.752,207.834h 18.4216" fill="none" stroke="#ff00ff"/>
<path d="M206.015,207.834h 18.4216" fill="none" stroke="#ff00ff"/>
<g stroke="#ff00ff" stroke-width="1" fill="none">
<polygon points=" 204.594, 209.255 203.174, 210.676 201.753, 209.255 203.174, 207.834 201.753, 206.413 203.174, 204.992 204.594, 206.413 206.015, 204.992 207.436, 206.413 206.015, 207.834 207.436, 209.255 206.015, 210.676 204.594, 209.255"/>
</g>
<path d="M224.437,240.465h 28.3429" fill="none" stroke="#ff00ff"/>
<path d="M255.622,240.465h 28.3429" fill="none" stroke="#ff00ff"/>
<g stroke="#ff00ff" stroke-width="1" fill="none">
<polygon points=" 254.201, 241.886 252.78, 243.306 251.359, 241.886 252.78, 240.465 251.359, 239.044 252.78, 237.623 254.201, 239.044 255.622, 237.623 257.043, 239.044 255.622, 240.465 257.043, 241.886 255.622, 243.306 254.201, 241.886"/>
</g>
<path d="M283.965,275.057h 48.1854" fill="none" stroke="#ff00ff"/>
<path d="M334.992,275.057h 48.1854" fill="none" stroke="#ff00ff"/>
<g stroke="#ff00ff" stroke-width="1" fill="none">
<polygon points=" 333.571, 276.478 332.15, 277.899 330.729, 276.478 332.15, 275.057 330.729, 273.636 332.15, 272.215 333.571, 273.636 334.992, 272.215 336.413, 273.636 334.992, 275.057 336.413, 276.478 334.992, 277.899 333.571, 276.478"/>
</g>
<path d="M432.783,314.706v -2.17736" fill="none" stroke="#ff00ff"/>
<path d="M432.783,309.687v -1.41221" fill="none" stroke="#ff00ff"/>
<path d="M383.177,311.108h 48.1854" fill="none" stroke="#ff00ff"/>
<path d="M434.204,311.108h 48.1854" fill="none" stroke="#ff00ff"/>
<g stroke="#ff00ff" stroke-width="1" fill="none">
<polygon points=" 432.783, 312.529 431.363, 313.95 429.942, 312.529 431.363, 311.108 429.942, 309.687 431.363, 308.266 432.783, 309.687 434.204, 308.266 435.625, 309.687 434.204, 311.108 435.625, 312.529 434.204, 313.95 432.783, 312.529"/>
</g>
<path d="M85.5394,42.5266h 2.11888" fill="none" stroke="#cc00ff"/>
<path d="M93.3418,42.5266h 2.11888" fill="none" stroke="#cc00ff"/>
<g stroke="#cc00ff" stroke-width="1" fill="none">
<polygon points=" 89.5527, 41.5794 89.5527, 39.6849 91.4473, 39.6849 91.4473, 41.5794 93.3418, 41.5794 93.3418, 43.4739 91.4473, 43.4739 91.4473, 45.3684 89.5527, 45.3684 89.5527, 43.4739 87.6582, 43.4739 87.6582, 41.5794"/>
</g>
<path d="M95.4606,56.7757h 2.11888" fill="none" stroke="#cc00ff"/>
<path d="M103.263,56.7757h 2.11888" fill="none" stroke="#cc00ff"/>
<g stroke="#cc00ff" stroke-width="1" fill="none">
<polygon points=" 99.474, 55.8284 99.474, 53.9339 101.369, 53.9339 101.369, 55.8284 103.263, 55.8284 103.263, 57.7229 101.369, 57.7229 101.369, 59.6174 99.474, 59.6174 99.474, 57.7229 97.5795, 57.7229 97.5795, 55.8284"/>
</g>
<path d="M105.382,83.2187h 2.11888" fill="none" stroke="#cc00ff"/>
<path d="M113.184,83.2187h 2.11888" fill="none" stroke="#cc00ff"/>
<g stroke="#cc00ff" stroke-width="1" fill="none">
<polygon points=" 109.395, 82.2715 109.395, 80.377 111.29, 80.377 111.29, 82.2715 113.184, 82.2715 113.184, 84.166 111.29, 84.166 111.29, 86.0605 109.395, 86.0605 109.395, 84.166 107.501, 84.166 107.501, 82.2715"/>
</g>
<path d="M115.303,105.22h 2.11888" fill="none" stroke="#cc00ff"/>
<path d="M123.106,105.22h 2.11888" fill="none" stroke="#cc00ff"/>
<g stroke="#cc00ff" stroke-width="1" fill="none">
<polygon points=" 119.317, 104.273 119.317, 102.378 121.211, 102.378 121.211, 104.273 123.106, 104.273 123.106, 106.167 121.211, 106.167 121.211, 108.062 119.317, 108.062 119.317, 106.167 117.422, 106.167 117.422, 104.273"/>
</g>
<path d="M125.224,129.283h 7.07951" fill="none" stroke="#cc00ff"/>
<path d="M137.987,129.283h 7.07951" fill="none" stroke="#cc00ff"/>
<g stroke="#cc00ff" stroke-width="1" fill="none">
<polygon points=" 134.198, 128.336 134.198, 126.441 136.093, 126.441 136.093, 128.336 137.987, 128.336 137.987, 130.23 136.093, 130.23 136.093, 132.125 134.198, 132.125 134.198, 130.23 132.304, 130.23 132.304, 128.336"/>
</g>
<path d="M145.067,158.533h 7.07951" fill="none" stroke="#cc00ff"/>
<path d="M157.83,158.533h 7.07951" fill="none" stroke="#cc00ff"/>
<g stroke="#cc00ff" stroke-width="1" fill="none">
<polygon points=" 154.041, 157.586 154.041, 155.691 155.935, 155.691 155.935, 157.586 157.83, 157.586 157.83, 159.48 155.935, 159.48 155.935, 161.375 154.041, 161.375 154.041, 159.48 152.146, 159.48 152.146, 157.586"/>
</g>
<path d="M164.909,181.538h 7.07951" fill="none" stroke="#cc00ff"/>
<path d="M177.672,181.538h 7.07951" fill="none" stroke="#cc00ff"/>
<g stroke="#cc00ff" stroke-width="1" fill="none">
<polygon points=" 173.883, 180.591 173.883, 178.697 175.778, 178.697 175.778, 180.591 177.672, 180.591 177.672, 182.486 175.778, 182.486 175.778, 184.38 173.883, 184.38 173.883, 182.486 171.989, 182.486 171.989, 180.591"/>
</g>
<path d="M184.752,206.781h 17.0008" fill="none" stroke="#cc00ff"/>
<path d="M207.436,206.781h 17.0008" fill="none" stroke="#cc00ff"/>
<g stroke="#cc00ff" stroke-width="1" fill="none">
<polygon points=" 203.647, 205.833 203.647, 203.939 205.542, 203.939 205.542, 205.833 207.436, 205.833 207.436, 207.728 205.542, 207.728 205.542, 209.622 203.647, 209.622 203.647, 207.728 201.753, 207.728 201.753, 205.833"/>
</g>
<path d="M224.437,238.44h 26.922" fill="none" stroke="#cc00ff"/>
<path d="M257.043,238.44h 26.922" fill="none" stroke="#cc00ff"/>
<g stroke="#cc00ff" stroke-width="1" fill="none">
<polygon points=" 253.254, 237.492 253.254, 235.598 255.148, 235.598 255.148, 237.492 257.043, 237.492 257.043, 239.387 255.148, 239.387 255.148, 241.281 253.254, 241.281 253.254, 239.387 251.359, 239.387 251.359, 237.492"/>
</g>
<path d="M283.965,273.815h 46.7645" fill="none" stroke="#cc00ff"/>
<path d="M336.413,273.815h 46.7645" fill="none" stroke="#cc00ff"/>
<g stroke="#cc00ff" stroke-width="1" fill="none">
<polygon points=" 332.624, 272.867 332.624, 270.973 334.518, 270.973 334.518, 272.867 336.413, 272.867 336.413, 274.762 334.518, 274.762 334.518, 276.656 332.624, 276.656 332.624, 274.762 330.729, 274.762 330.729, 272.867"/>
</g>
<path d="M432.783,313.575v -1.32096" fill="none" stroke="#cc00ff"/>
<path d="M432.783,306.571v -0.328924" fill="none" stroke="#cc00ff"/>
<path d="M383.177,309.413h 46.7645" fill="none" stroke="#cc00ff"/>
<path d="M435.625,309.413h 46.7645" fill="none" stroke="#cc00ff"/>
<g stroke="#cc00ff" stroke-width="1" fill="none">
<polygon points=" 431.836, 308.465 431.836, 306.571 433.731, 306.571 433.731, 308.465 435.625, 308.465 435.625, 310.36 433.731, 310.36 433.731, 312.254 431.836, 312.254 431.836, 310.36 429.942, 310.36 429.942, 308.465"/>
</g>
<text xml:space="preserve" x="232.813" y="49.7306" fill="black" font-size="11.7432" font-family="Helvetica">PYTHIA8, pAu200GeV with option3</text>
<text xml:space="preserve" x="266.914" y="62.5185" fill="black" font-size="11.7432" font-family="Helvetica">|&lt;1</text>
<text xml:space="preserve" x="260.52" y="62.5185" fill="black" font-size="11.7432" font-family="Times">&#0951;</text>
<text xml:space="preserve" x="243.47" y="62.5185" fill="black" font-size="11.7432" font-family="Helvetica"> in |</text>
<text xml:space="preserve" x="239.207" y="58.2559" fill="black" font-size="7.99544" font-family="Helvetica">0</text>
<text xml:space="preserve" x="232.813" y="62.5185" fill="black" font-size="11.7432" font-family="Times">&#0960;</text>
<text xml:space="preserve" x="283.965" y="75.3064" fill="black" font-size="11.7432" font-family="Helvetica">inelastic events(MB)</text>
<g fill="black">
<polygon points=" 254.671, 71.8171 254.671, 69.9226 256.565, 69.9226 256.565, 71.8171 258.46, 71.8171 258.46, 73.7116 256.565, 73.7116 256.565, 75.6061 254.671, 75.6061 254.671, 73.7116 252.776, 73.7116 252.776, 71.8171"/>
</g>
<text xml:space="preserve" x="283.965" y="88.0943" fill="black" font-size="11.7432" font-family="Helvetica">centrality: 0~10%</text>
<g fill="#ffcc00">
<polygon points=" 254.671, 84.5828 254.671, 82.6883 256.565, 82.6883 256.565, 84.5828 258.46, 84.5828 258.46, 86.4773 256.565, 86.4773 256.565, 88.3718 254.671, 88.3718 254.671, 86.4773 252.776, 86.4773 252.776, 84.5828"/>
</g>
<text xml:space="preserve" x="283.965" y="100.882" fill="black" font-size="11.7432" font-family="Helvetica">centrality: 10~20%</text>
<g fill="#ff0000">
<polygon points=" 254.671, 97.3484 254.671, 95.4539 256.565, 95.4539 256.565, 97.3484 258.46, 97.3484 258.46, 99.2429 256.565, 99.2429 256.565, 101.137 254.671, 101.137 254.671, 99.2429 252.776, 99.2429 252.776, 97.3484"/>
</g>
<text xml:space="preserve" x="283.965" y="113.67" fill="black" font-size="11.7432" font-family="Helvetica">centrality: 20~40%</text>
<g stroke="#ff0033" stroke-width="1" fill="none">
<polygon points=" 254.671, 110.114 254.671, 108.22 256.565, 108.22 256.565, 110.114 258.46, 110.114 258.46, 112.009 256.565, 112.009 256.565, 113.903 254.671, 113.903 254.671, 112.009 252.776, 112.009 252.776, 110.114"/>
</g>
<text xml:space="preserve" x="283.965" y="126.458" fill="black" font-size="11.7432" font-family="Helvetica">centrality: 40~60%</text>
<g stroke="#ff00ff" stroke-width="1" fill="none">
<polygon points=" 255.618, 125.248 254.197, 126.669 252.776, 125.248 254.197, 123.827 252.776, 122.406 254.197, 120.985 255.618, 122.406 257.039, 120.985 258.46, 122.406 257.039, 123.827 258.46, 125.248 257.039, 126.669 255.618, 125.248"/>
</g>
<text xml:space="preserve" x="283.965" y="139.246" fill="black" font-size="11.7432" font-family="Helvetica">centrality: 60~80%</text>
<g stroke="#cc00ff" stroke-width="1" fill="none">
<polygon points=" 254.671, 135.645 254.671, 133.751 256.565, 133.751 256.565, 135.645 258.46, 135.645 258.46, 137.54 256.565, 137.54 256.565, 139.434 254.671, 139.434 254.671, 137.54 252.776, 137.54 252.776, 135.645"/>
</g></svg>
