<?xml version="1.0" standalone="no"?>
<svg width="567.429" height="409.002" viewBox="0 0 567.429 409.002" xmlns="http://www.w3.org/2000/svg" shape-rendering="crispEdges">
<title>
/Users/jinhyunpark/npl/gitHub/Centrality_dependent_BiasCorrection/plots/plots_scaled-dNdpT/scaledYield_highpT_directPhoton_byCentrality.svg
</title>
<desc>
Creator: ROOT Version 6.28/04
CreationDate: Tue Oct 24 12:24:37 2023</desc>
<defs>
</defs>
<rect x="0.5" y="0" width="566.929" height="408.502" fill="white"/>
<rect x="68.5315" y="20.4251" width="430.866" height="339.056" fill="white"/>
<rect x="68.5315" y="20.4251" width="430.866" height="339.056" fill="none" stroke="black"/>
<rect x="68.5315" y="20.4251" width="430.866" height="339.056" fill="white"/>
<rect x="68.5315" y="20.4251" width="430.866" height="339.056" fill="none" stroke="black"/>
<path d="M68.5315,359.481h 430.866" fill="none" stroke="black"/>
<path d="M68.5315,350.168v 9.31384" fill="none" stroke="black"/>
<path d="M80.5,354.824v 4.65692" fill="none" stroke="black"/>
<path d="M92.4685,354.824v 4.65692" fill="none" stroke="black"/>
<path d="M104.437,354.824v 4.65692" fill="none" stroke="black"/>
<path d="M116.406,350.168v 9.31384" fill="none" stroke="black"/>
<path d="M128.374,354.824v 4.65692" fill="none" stroke="black"/>
<path d="M140.343,354.824v 4.65692" fill="none" stroke="black"/>
<path d="M152.311,354.824v 4.65692" fill="none" stroke="black"/>
<path d="M164.28,350.168v 9.31384" fill="none" stroke="black"/>
<path d="M176.248,354.824v 4.65692" fill="none" stroke="black"/>
<path d="M188.217,354.824v 4.65692" fill="none" stroke="black"/>
<path d="M200.185,354.824v 4.65692" fill="none" stroke="black"/>
<path d="M212.154,350.168v 9.31384" fill="none" stroke="black"/>
<path d="M224.122,354.824v 4.65692" fill="none" stroke="black"/>
<path d="M236.091,354.824v 4.65692" fill="none" stroke="black"/>
<path d="M248.059,354.824v 4.65692" fill="none" stroke="black"/>
<path d="M260.028,350.168v 9.31384" fill="none" stroke="black"/>
<path d="M271.996,354.824v 4.65692" fill="none" stroke="black"/>
<path d="M283.965,354.824v 4.65692" fill="none" stroke="black"/>
<path d="M295.933,354.824v 4.65692" fill="none" stroke="black"/>
<path d="M307.902,350.168v 9.31384" fill="none" stroke="black"/>
<path d="M319.87,354.824v 4.65692" fill="none" stroke="black"/>
<path d="M331.839,354.824v 4.65692" fill="none" stroke="black"/>
<path d="M343.807,354.824v 4.65692" fill="none" stroke="black"/>
<path d="M355.776,350.168v 9.31384" fill="none" stroke="black"/>
<path d="M367.744,354.824v 4.65692" fill="none" stroke="black"/>
<path d="M379.713,354.824v 4.65692" fill="none" stroke="black"/>
<path d="M391.681,354.824v 4.65692" fill="none" stroke="black"/>
<path d="M403.65,350.168v 9.31384" fill="none" stroke="black"/>
<path d="M415.618,354.824v 4.65692" fill="none" stroke="black"/>
<path d="M427.587,354.824v 4.65692" fill="none" stroke="black"/>
<path d="M439.555,354.824v 4.65692" fill="none" stroke="black"/>
<path d="M451.524,350.168v 9.31384" fill="none" stroke="black"/>
<path d="M463.492,354.824v 4.65692" fill="none" stroke="black"/>
<path d="M475.461,354.824v 4.65692" fill="none" stroke="black"/>
<path d="M487.429,354.824v 4.65692" fill="none" stroke="black"/>
<path d="M499.398,350.168v 9.31384" fill="none" stroke="black"/>
<text xml:space="preserve" x="64.4394" y="372.269" fill="black" font-size="13.617" font-family="Helvetica">2</text>
<text xml:space="preserve" x="112.749" y="372.269" fill="black" font-size="13.617" font-family="Helvetica">4</text>
<text xml:space="preserve" x="160.348" y="372.269" fill="black" font-size="13.617" font-family="Helvetica">6</text>
<text xml:space="preserve" x="207.948" y="372.269" fill="black" font-size="13.617" font-family="Helvetica">8</text>
<text xml:space="preserve" x="251.995" y="372.269" fill="black" font-size="13.617" font-family="Helvetica">10</text>
<text xml:space="preserve" x="299.594" y="372.269" fill="black" font-size="13.617" font-family="Helvetica">12</text>
<text xml:space="preserve" x="347.904" y="372.269" fill="black" font-size="13.617" font-family="Helvetica">14</text>
<text xml:space="preserve" x="395.503" y="372.269" fill="black" font-size="13.617" font-family="Helvetica">16</text>
<text xml:space="preserve" x="443.103" y="372.269" fill="black" font-size="13.617" font-family="Helvetica">18</text>
<text xml:space="preserve" x="491.412" y="372.269" fill="black" font-size="13.617" font-family="Helvetica">20</text>
<text xml:space="preserve" x="453.759" y="384.347" fill="black" font-size="13.617" font-family="Helvetica">(GeV/c)</text>
<text xml:space="preserve" x="448.076" y="392.162" fill="black" font-size="9.24468" font-family="Helvetica">T</text>
<text xml:space="preserve" x="440.261" y="384.347" fill="black" font-size="13.617" font-family="Helvetica">p</text>
<path d="M68.5315,20.4251h 430.866" fill="none" stroke="black"/>
<path d="M68.5315,29.7389v -9.31384" fill="none" stroke="black"/>
<path d="M80.5,25.082v -4.65692" fill="none" stroke="black"/>
<path d="M92.4685,25.082v -4.65692" fill="none" stroke="black"/>
<path d="M104.437,25.082v -4.65692" fill="none" stroke="black"/>
<path d="M116.406,29.7389v -9.31384" fill="none" stroke="black"/>
<path d="M128.374,25.082v -4.65692" fill="none" stroke="black"/>
<path d="M140.343,25.082v -4.65692" fill="none" stroke="black"/>
<path d="M152.311,25.082v -4.65692" fill="none" stroke="black"/>
<path d="M164.28,29.7389v -9.31384" fill="none" stroke="black"/>
<path d="M176.248,25.082v -4.65692" fill="none" stroke="black"/>
<path d="M188.217,25.082v -4.65692" fill="none" stroke="black"/>
<path d="M200.185,25.082v -4.65692" fill="none" stroke="black"/>
<path d="M212.154,29.7389v -9.31384" fill="none" stroke="black"/>
<path d="M224.122,25.082v -4.65692" fill="none" stroke="black"/>
<path d="M236.091,25.082v -4.65692" fill="none" stroke="black"/>
<path d="M248.059,25.082v -4.65692" fill="none" stroke="black"/>
<path d="M260.028,29.7389v -9.31384" fill="none" stroke="black"/>
<path d="M271.996,25.082v -4.65692" fill="none" stroke="black"/>
<path d="M283.965,25.082v -4.65692" fill="none" stroke="black"/>
<path d="M295.933,25.082v -4.65692" fill="none" stroke="black"/>
<path d="M307.902,29.7389v -9.31384" fill="none" stroke="black"/>
<path d="M319.87,25.082v -4.65692" fill="none" stroke="black"/>
<path d="M331.839,25.082v -4.65692" fill="none" stroke="black"/>
<path d="M343.807,25.082v -4.65692" fill="none" stroke="black"/>
<path d="M355.776,29.7389v -9.31384" fill="none" stroke="black"/>
<path d="M367.744,25.082v -4.65692" fill="none" stroke="black"/>
<path d="M379.713,25.082v -4.65692" fill="none" stroke="black"/>
<path d="M391.681,25.082v -4.65692" fill="none" stroke="black"/>
<path d="M403.65,29.7389v -9.31384" fill="none" stroke="black"/>
<path d="M415.618,25.082v -4.65692" fill="none" stroke="black"/>
<path d="M427.587,25.082v -4.65692" fill="none" stroke="black"/>
<path d="M439.555,25.082v -4.65692" fill="none" stroke="black"/>
<path d="M451.524,29.7389v -9.31384" fill="none" stroke="black"/>
<path d="M463.492,25.082v -4.65692" fill="none" stroke="black"/>
<path d="M475.461,25.082v -4.65692" fill="none" stroke="black"/>
<path d="M487.429,25.082v -4.65692" fill="none" stroke="black"/>
<path d="M499.398,29.7389v -9.31384" fill="none" stroke="black"/>
<path d="M68.5315,359.481v -339.056" fill="none" stroke="black"/>
<path d="M82.648,359.481h -14.1165" fill="none" stroke="black"/>
<text xml:space="preserve" x="55.2037" y="359.481" fill="black" font-size="9.24468" font-family="Helvetica">11</text>
<text xml:space="preserve" x="50.2306" y="359.481" fill="black" font-size="9.24468" font-family="Times">&#8722;</text>
<text xml:space="preserve" x="35.3114" y="365.165" fill="black" font-size="13.617" font-family="Helvetica">10</text>
<path d="M75.5898,344.9h -7.05827" fill="none" stroke="black"/>
<path d="M75.5898,336.371h -7.05827" fill="none" stroke="black"/>
<path d="M75.5898,330.32h -7.05827" fill="none" stroke="black"/>
<path d="M75.5898,325.626h -7.05827" fill="none" stroke="black"/>
<path d="M75.5898,321.79h -7.05827" fill="none" stroke="black"/>
<path d="M75.5898,318.548h -7.05827" fill="none" stroke="black"/>
<path d="M75.5898,315.739h -7.05827" fill="none" stroke="black"/>
<path d="M75.5898,313.261h -7.05827" fill="none" stroke="black"/>
<path d="M82.648,311.045h -14.1165" fill="none" stroke="black"/>
<text xml:space="preserve" x="53.7828" y="310.461" fill="black" font-size="9.24468" font-family="Helvetica">10</text>
<text xml:space="preserve" x="48.8097" y="310.461" fill="black" font-size="9.24468" font-family="Times">&#8722;</text>
<text xml:space="preserve" x="33.8906" y="316.855" fill="black" font-size="13.617" font-family="Helvetica">10</text>
<path d="M75.5898,296.464h -7.05827" fill="none" stroke="black"/>
<path d="M75.5898,287.935h -7.05827" fill="none" stroke="black"/>
<path d="M75.5898,281.883h -7.05827" fill="none" stroke="black"/>
<path d="M75.5898,277.189h -7.05827" fill="none" stroke="black"/>
<path d="M75.5898,273.354h -7.05827" fill="none" stroke="black"/>
<path d="M75.5898,270.111h -7.05827" fill="none" stroke="black"/>
<path d="M75.5898,267.302h -7.05827" fill="none" stroke="black"/>
<path d="M75.5898,264.824h -7.05827" fill="none" stroke="black"/>
<path d="M82.648,262.608h -14.1165" fill="none" stroke="black"/>
<text xml:space="preserve" x="58.7559" y="262.151" fill="black" font-size="9.24468" font-family="Helvetica">9</text>
<text xml:space="preserve" x="53.7828" y="262.151" fill="black" font-size="9.24468" font-family="Times">&#8722;</text>
<text xml:space="preserve" x="38.8636" y="268.545" fill="black" font-size="13.617" font-family="Helvetica">10</text>
<path d="M75.5898,248.027h -7.05827" fill="none" stroke="black"/>
<path d="M75.5898,239.498h -7.05827" fill="none" stroke="black"/>
<path d="M75.5898,233.446h -7.05827" fill="none" stroke="black"/>
<path d="M75.5898,228.752h -7.05827" fill="none" stroke="black"/>
<path d="M75.5898,224.917h -7.05827" fill="none" stroke="black"/>
<path d="M75.5898,221.674h -7.05827" fill="none" stroke="black"/>
<path d="M75.5898,218.866h -7.05827" fill="none" stroke="black"/>
<path d="M75.5898,216.388h -7.05827" fill="none" stroke="black"/>
<path d="M82.648,214.172h -14.1165" fill="none" stroke="black"/>
<text xml:space="preserve" x="58.7559" y="213.842" fill="black" font-size="9.24468" font-family="Helvetica">8</text>
<text xml:space="preserve" x="53.7828" y="213.842" fill="black" font-size="9.24468" font-family="Times">&#8722;</text>
<text xml:space="preserve" x="38.8636" y="220.236" fill="black" font-size="13.617" font-family="Helvetica">10</text>
<path d="M75.5898,199.591h -7.05827" fill="none" stroke="black"/>
<path d="M75.5898,191.061h -7.05827" fill="none" stroke="black"/>
<path d="M75.5898,185.01h -7.05827" fill="none" stroke="black"/>
<path d="M75.5898,180.316h -7.05827" fill="none" stroke="black"/>
<path d="M75.5898,176.481h -7.05827" fill="none" stroke="black"/>
<path d="M75.5898,173.238h -7.05827" fill="none" stroke="black"/>
<path d="M75.5898,170.429h -7.05827" fill="none" stroke="black"/>
<path d="M75.5898,167.951h -7.05827" fill="none" stroke="black"/>
<path d="M82.648,165.735h -14.1165" fill="none" stroke="black"/>
<text xml:space="preserve" x="58.7559" y="166.242" fill="black" font-size="9.24468" font-family="Helvetica">7</text>
<text xml:space="preserve" x="53.7828" y="166.242" fill="black" font-size="9.24468" font-family="Times">&#8722;</text>
<text xml:space="preserve" x="38.8636" y="171.926" fill="black" font-size="13.617" font-family="Helvetica">10</text>
<path d="M75.5898,151.154h -7.05827" fill="none" stroke="black"/>
<path d="M75.5898,142.625h -7.05827" fill="none" stroke="black"/>
<path d="M75.5898,136.573h -7.05827" fill="none" stroke="black"/>
<path d="M75.5898,131.879h -7.05827" fill="none" stroke="black"/>
<path d="M75.5898,128.044h -7.05827" fill="none" stroke="black"/>
<path d="M75.5898,124.801h -7.05827" fill="none" stroke="black"/>
<path d="M75.5898,121.992h -7.05827" fill="none" stroke="black"/>
<path d="M75.5898,119.515h -7.05827" fill="none" stroke="black"/>
<path d="M82.648,117.298h -14.1165" fill="none" stroke="black"/>
<text xml:space="preserve" x="58.7559" y="117.222" fill="black" font-size="9.24468" font-family="Helvetica">6</text>
<text xml:space="preserve" x="53.7828" y="117.222" fill="black" font-size="9.24468" font-family="Times">&#8722;</text>
<text xml:space="preserve" x="38.8636" y="123.616" fill="black" font-size="13.617" font-family="Helvetica">10</text>
<path d="M75.5898,102.717h -7.05827" fill="none" stroke="black"/>
<path d="M75.5898,94.1882h -7.05827" fill="none" stroke="black"/>
<path d="M75.5898,88.1366h -7.05827" fill="none" stroke="black"/>
<path d="M75.5898,83.4426h -7.05827" fill="none" stroke="black"/>
<path d="M75.5898,79.6073h -7.05827" fill="none" stroke="black"/>
<path d="M75.5898,76.3646h -7.05827" fill="none" stroke="black"/>
<path d="M75.5898,73.5557h -7.05827" fill="none" stroke="black"/>
<path d="M75.5898,71.078h -7.05827" fill="none" stroke="black"/>
<path d="M82.648,68.8617h -14.1165" fill="none" stroke="black"/>
<text xml:space="preserve" x="58.7559" y="68.202" fill="black" font-size="9.24468" font-family="Helvetica">5</text>
<text xml:space="preserve" x="53.7828" y="68.202" fill="black" font-size="9.24468" font-family="Times">&#8722;</text>
<text xml:space="preserve" x="38.8636" y="74.5959" fill="black" font-size="13.617" font-family="Helvetica">10</text>
<path d="M75.5898,54.2808h -7.05827" fill="none" stroke="black"/>
<path d="M75.5898,45.7516h -7.05827" fill="none" stroke="black"/>
<path d="M75.5898,39.6999h -7.05827" fill="none" stroke="black"/>
<path d="M75.5898,35.006h -7.05827" fill="none" stroke="black"/>
<path d="M75.5898,31.1707h -7.05827" fill="none" stroke="black"/>
<path d="M75.5898,27.928h -7.05827" fill="none" stroke="black"/>
<path d="M75.5898,25.1191h -7.05827" fill="none" stroke="black"/>
<path d="M75.5898,22.6414h -7.05827" fill="none" stroke="black"/>
<path d="M82.648,20.4251h -14.1165" fill="none" stroke="black"/>
<text xml:space="preserve" x="58.7559" y="20.6027" fill="black" font-size="9.24468" font-family="Helvetica">4</text>
<text xml:space="preserve" x="53.7828" y="20.6027" fill="black" font-size="9.24468" font-family="Times">&#8722;</text>
<text xml:space="preserve" x="38.8636" y="26.2862" fill="black" font-size="13.617" font-family="Helvetica">10</text>
<g transform="rotate(-90,22.5236,24.1549)">
<text xml:space="preserve" x="22.5236" y="24.1549" fill="black" font-size="13.617" font-family="Helvetica"> </text>
</g>
<g transform="rotate(-90,38.1532,33.3906)">
<text xml:space="preserve" x="38.1532" y="33.3906" fill="black" font-size="9.24468" font-family="Helvetica">T</text>
</g>
<g transform="rotate(-90,30.3384,48.3098)">
<text xml:space="preserve" x="30.3384" y="48.3098" fill="black" font-size="13.617" font-family="Helvetica">dp</text>
</g>
<g transform="rotate(-90,4.76263,30.5488)">
<text xml:space="preserve" x="4.76263" y="30.5488" fill="black" font-size="6.32979" font-family="Helvetica">dir</text>
</g>
<g transform="rotate(-90,8.31481,35.5219)">
<text xml:space="preserve" x="8.31481" y="35.5219" fill="black" font-size="9.24468" font-family="Times">&#0947;</text>
</g>
<g transform="rotate(-90,16.1296,51.8619)">
<text xml:space="preserve" x="16.1296" y="51.8619" fill="black" font-size="13.617" font-family="Helvetica">dN</text>
</g>
<path d="M18.9714,51.8619v -27.7071" fill="none" stroke="black" stroke-width="2"/>
<g transform="rotate(-90,22.5236,56.1246)">
<text xml:space="preserve" x="22.5236" y="56.1246" fill="black" font-size="13.617" font-family="Helvetica"> </text>
</g>
<g transform="rotate(-90,34.601,78.8586)">
<text xml:space="preserve" x="34.601" y="78.8586" fill="black" font-size="9.24468" font-family="Helvetica">event</text>
</g>
<g transform="rotate(-90,30.3384,88.0943)">
<text xml:space="preserve" x="30.3384" y="88.0943" fill="black" font-size="13.617" font-family="Helvetica">N</text>
</g>
<g transform="rotate(-90,16.8401,74.5959)">
<text xml:space="preserve" x="16.8401" y="74.5959" fill="black" font-size="13.617" font-family="Helvetica">1</text>
</g>
<path d="M18.9714,88.0943v -31.9697" fill="none" stroke="black" stroke-width="2"/>
<g transform="rotate(-90,22.5236,92.3569)">
<text xml:space="preserve" x="22.5236" y="92.3569" fill="black" font-size="13.617" font-family="Helvetica"> </text>
</g>
<g transform="rotate(-90,37.4427,110.118)">
<text xml:space="preserve" x="37.4427" y="110.118" fill="black" font-size="9.24468" font-family="Helvetica">cent</text>
</g>
<g transform="rotate(-90,31.0488,114.38)">
<text xml:space="preserve" x="31.0488" y="114.38" fill="black" font-size="13.617" font-family="Times">&#0062;</text>
</g>
<g transform="rotate(-90,31.0488,118.643)">
<text xml:space="preserve" x="31.0488" y="118.643" fill="black" font-size="13.617" font-family="Helvetica"> </text>
</g>
<g transform="rotate(-90,37.4427,132.141)">
<text xml:space="preserve" x="37.4427" y="132.141" fill="black" font-size="9.24468" font-family="Helvetica">coll</text>
</g>
<g transform="rotate(-90,31.0488,144.929)">
<text xml:space="preserve" x="31.0488" y="144.929" fill="black" font-size="13.617" font-family="Helvetica"> N</text>
</g>
<g transform="rotate(-90,31.0488,149.192)">
<text xml:space="preserve" x="31.0488" y="149.192" fill="black" font-size="13.617" font-family="Times">&#0060;</text>
</g>
<g transform="rotate(-90,16.8401,122.906)">
<text xml:space="preserve" x="16.8401" y="122.906" fill="black" font-size="13.617" font-family="Helvetica">1</text>
</g>
<path d="M18.9714,149.192v -56.835" fill="none" stroke="black" stroke-width="2"/>
<path d="M499.398,359.481v -339.056" fill="none" stroke="black"/>
<path d="M485.281,359.481h 14.1165" fill="none" stroke="black"/>
<path d="M492.339,344.9h 7.05827" fill="none" stroke="black"/>
<path d="M492.339,336.371h 7.05827" fill="none" stroke="black"/>
<path d="M492.339,330.32h 7.05827" fill="none" stroke="black"/>
<path d="M492.339,325.626h 7.05827" fill="none" stroke="black"/>
<path d="M492.339,321.79h 7.05827" fill="none" stroke="black"/>
<path d="M492.339,318.548h 7.05827" fill="none" stroke="black"/>
<path d="M492.339,315.739h 7.05827" fill="none" stroke="black"/>
<path d="M492.339,313.261h 7.05827" fill="none" stroke="black"/>
<path d="M485.281,311.045h 14.1165" fill="none" stroke="black"/>
<path d="M492.339,296.464h 7.05827" fill="none" stroke="black"/>
<path d="M492.339,287.935h 7.05827" fill="none" stroke="black"/>
<path d="M492.339,281.883h 7.05827" fill="none" stroke="black"/>
<path d="M492.339,277.189h 7.05827" fill="none" stroke="black"/>
<path d="M492.339,273.354h 7.05827" fill="none" stroke="black"/>
<path d="M492.339,270.111h 7.05827" fill="none" stroke="black"/>
<path d="M492.339,267.302h 7.05827" fill="none" stroke="black"/>
<path d="M492.339,264.824h 7.05827" fill="none" stroke="black"/>
<path d="M485.281,262.608h 14.1165" fill="none" stroke="black"/>
<path d="M492.339,248.027h 7.05827" fill="none" stroke="black"/>
<path d="M492.339,239.498h 7.05827" fill="none" stroke="black"/>
<path d="M492.339,233.446h 7.05827" fill="none" stroke="black"/>
<path d="M492.339,228.752h 7.05827" fill="none" stroke="black"/>
<path d="M492.339,224.917h 7.05827" fill="none" stroke="black"/>
<path d="M492.339,221.674h 7.05827" fill="none" stroke="black"/>
<path d="M492.339,218.866h 7.05827" fill="none" stroke="black"/>
<path d="M492.339,216.388h 7.05827" fill="none" stroke="black"/>
<path d="M485.281,214.172h 14.1165" fill="none" stroke="black"/>
<path d="M492.339,199.591h 7.05827" fill="none" stroke="black"/>
<path d="M492.339,191.061h 7.05827" fill="none" stroke="black"/>
<path d="M492.339,185.01h 7.05827" fill="none" stroke="black"/>
<path d="M492.339,180.316h 7.05827" fill="none" stroke="black"/>
<path d="M492.339,176.481h 7.05827" fill="none" stroke="black"/>
<path d="M492.339,173.238h 7.05827" fill="none" stroke="black"/>
<path d="M492.339,170.429h 7.05827" fill="none" stroke="black"/>
<path d="M492.339,167.951h 7.05827" fill="none" stroke="black"/>
<path d="M485.281,165.735h 14.1165" fill="none" stroke="black"/>
<path d="M492.339,151.154h 7.05827" fill="none" stroke="black"/>
<path d="M492.339,142.625h 7.05827" fill="none" stroke="black"/>
<path d="M492.339,136.573h 7.05827" fill="none" stroke="black"/>
<path d="M492.339,131.879h 7.05827" fill="none" stroke="black"/>
<path d="M492.339,128.044h 7.05827" fill="none" stroke="black"/>
<path d="M492.339,124.801h 7.05827" fill="none" stroke="black"/>
<path d="M492.339,121.992h 7.05827" fill="none" stroke="black"/>
<path d="M492.339,119.515h 7.05827" fill="none" stroke="black"/>
<path d="M485.281,117.298h 14.1165" fill="none" stroke="black"/>
<path d="M492.339,102.717h 7.05827" fill="none" stroke="black"/>
<path d="M492.339,94.1882h 7.05827" fill="none" stroke="black"/>
<path d="M492.339,88.1366h 7.05827" fill="none" stroke="black"/>
<path d="M492.339,83.4426h 7.05827" fill="none" stroke="black"/>
<path d="M492.339,79.6073h 7.05827" fill="none" stroke="black"/>
<path d="M492.339,76.3646h 7.05827" fill="none" stroke="black"/>
<path d="M492.339,73.5557h 7.05827" fill="none" stroke="black"/>
<path d="M492.339,71.078h 7.05827" fill="none" stroke="black"/>
<path d="M485.281,68.8617h 14.1165" fill="none" stroke="black"/>
<path d="M492.339,54.2808h 7.05827" fill="none" stroke="black"/>
<path d="M492.339,45.7516h 7.05827" fill="none" stroke="black"/>
<path d="M492.339,39.6999h 7.05827" fill="none" stroke="black"/>
<path d="M492.339,35.006h 7.05827" fill="none" stroke="black"/>
<path d="M492.339,31.1707h 7.05827" fill="none" stroke="black"/>
<path d="M492.339,27.928h 7.05827" fill="none" stroke="black"/>
<path d="M492.339,25.1191h 7.05827" fill="none" stroke="black"/>
<path d="M492.339,22.6414h 7.05827" fill="none" stroke="black"/>
<path d="M485.281,20.4251h 14.1165" fill="none" stroke="black"/>
<path d="M68.5315,94.9782h 9.12675" fill="none" stroke="black"/>
<path d="M83.3418,94.9782h 9.12675" fill="none" stroke="black"/>
<g fill="black">
<polygon points=" 79.5527, 94.031 79.5527, 92.1365 81.4473, 92.1365 81.4473, 94.031 83.3418, 94.031 83.3418, 95.9255 81.4473, 95.9255 81.4473, 97.82 79.5527, 97.82 79.5527, 95.9255 77.6582, 95.9255 77.6582, 94.031"/>
</g>
<path d="M92.4685,133.336h 21.0953" fill="none" stroke="black"/>
<path d="M119.247,133.336h 21.0953" fill="none" stroke="black"/>
<g fill="black">
<polygon points=" 115.458, 132.389 115.458, 130.495 117.353, 130.495 117.353, 132.389 119.247, 132.389 119.247, 134.284 117.353, 134.284 117.353, 136.178 115.458, 136.178 115.458, 134.284 113.564, 134.284 113.564, 132.389"/>
</g>
<path d="M140.343,177.623h 21.0953" fill="none" stroke="black"/>
<path d="M167.121,177.623h 21.0953" fill="none" stroke="black"/>
<g fill="black">
<polygon points=" 163.332, 176.676 163.332, 174.781 165.227, 174.781 165.227, 176.676 167.121, 176.676 167.121, 178.57 165.227, 178.57 165.227, 180.465 163.332, 180.465 163.332, 178.57 161.438, 178.57 161.438, 176.676"/>
</g>
<path d="M188.217,211.172h 21.0953" fill="none" stroke="black"/>
<path d="M214.995,211.172h 21.0953" fill="none" stroke="black"/>
<g fill="black">
<polygon points=" 211.206, 210.225 211.206, 208.331 213.101, 208.331 213.101, 210.225 214.995, 210.225 214.995, 212.12 213.101, 212.12 213.101, 214.014 211.206, 214.014 211.206, 212.12 209.312, 212.12 209.312, 210.225"/>
</g>
<path d="M236.091,237.262h 21.0953" fill="none" stroke="black"/>
<path d="M262.869,237.262h 21.0953" fill="none" stroke="black"/>
<g fill="black">
<polygon points=" 259.08, 236.315 259.08, 234.42 260.975, 234.42 260.975, 236.315 262.869, 236.315 262.869, 238.209 260.975, 238.209 260.975, 240.104 259.08, 240.104 259.08, 238.209 257.186, 238.209 257.186, 236.315"/>
</g>
<path d="M283.965,268.395h 45.0323" fill="none" stroke="black"/>
<path d="M334.68,268.395h 45.0323" fill="none" stroke="black"/>
<g fill="black">
<polygon points=" 330.891, 267.448 330.891, 265.554 332.786, 265.554 332.786, 267.448 334.68, 267.448 334.68, 269.343 332.786, 269.343 332.786, 271.237 330.891, 271.237 330.891, 269.343 328.997, 269.343 328.997, 267.448"/>
</g>
<path d="M379.713,307.753h 57.0008" fill="none" stroke="black"/>
<path d="M442.397,307.753h 57.0008" fill="none" stroke="black"/>
<g fill="black">
<polygon points=" 438.608, 306.806 438.608, 304.911 440.502, 304.911 440.502, 306.806 442.397, 306.806 442.397, 308.7 440.502, 308.7 440.502, 310.595 438.608, 310.595 438.608, 308.7 436.713, 308.7 436.713, 306.806"/>
</g>
<path d="M68.5315,99.1805h 9.12675" fill="none" stroke="#00cc00"/>
<path d="M83.3418,99.1805h 9.12675" fill="none" stroke="#00cc00"/>
<g fill="#00cc00">
<polygon points=" 79.5527, 98.2333 79.5527, 96.3388 81.4473, 96.3388 81.4473, 98.2333 83.3418, 98.2333 83.3418, 100.128 81.4473, 100.128 81.4473, 102.022 79.5527, 102.022 79.5527, 100.128 77.6582, 100.128 77.6582, 98.2333"/>
</g>
<path d="M92.4685,138.1h 21.0953" fill="none" stroke="#00cc00"/>
<path d="M119.247,138.1h 21.0953" fill="none" stroke="#00cc00"/>
<g fill="#00cc00">
<polygon points=" 115.458, 137.153 115.458, 135.258 117.353, 135.258 117.353, 137.153 119.247, 137.153 119.247, 139.047 117.353, 139.047 117.353, 140.942 115.458, 140.942 115.458, 139.047 113.564, 139.047 113.564, 137.153"/>
</g>
<path d="M140.343,183.899h 21.0953" fill="none" stroke="#00cc00"/>
<path d="M167.121,183.899h 21.0953" fill="none" stroke="#00cc00"/>
<g fill="#00cc00">
<polygon points=" 163.332, 182.952 163.332, 181.057 165.227, 181.057 165.227, 182.952 167.121, 182.952 167.121, 184.846 165.227, 184.846 165.227, 186.741 163.332, 186.741 163.332, 184.846 161.438, 184.846 161.438, 182.952"/>
</g>
<path d="M188.217,217.68h 21.0953" fill="none" stroke="#00cc00"/>
<path d="M214.995,217.68h 21.0953" fill="none" stroke="#00cc00"/>
<g fill="#00cc00">
<polygon points=" 211.206, 216.733 211.206, 214.838 213.101, 214.838 213.101, 216.733 214.995, 216.733 214.995, 218.627 213.101, 218.627 213.101, 220.522 211.206, 220.522 211.206, 218.627 209.312, 218.627 209.312, 216.733"/>
</g>
<path d="M236.091,246.699h 21.0953" fill="none" stroke="#00cc00"/>
<path d="M262.869,246.699h 21.0953" fill="none" stroke="#00cc00"/>
<g fill="#00cc00">
<polygon points=" 259.08, 245.752 259.08, 243.857 260.975, 243.857 260.975, 245.752 262.869, 245.752 262.869, 247.646 260.975, 247.646 260.975, 249.541 259.08, 249.541 259.08, 247.646 257.186, 247.646 257.186, 245.752"/>
</g>
<path d="M283.965,275.523h 45.0323" fill="none" stroke="#00cc00"/>
<path d="M334.68,275.523h 45.0323" fill="none" stroke="#00cc00"/>
<g fill="#00cc00">
<polygon points=" 330.891, 274.575 330.891, 272.681 332.786, 272.681 332.786, 274.575 334.68, 274.575 334.68, 276.47 332.786, 276.47 332.786, 278.364 330.891, 278.364 330.891, 276.47 328.997, 276.47 328.997, 274.575"/>
</g>
<path d="M439.555,341.223v -6.33541" fill="none" stroke="#00cc00"/>
<path d="M439.555,329.204v -3.52647" fill="none" stroke="#00cc00"/>
<path d="M379.713,332.046h 57.0008" fill="none" stroke="#00cc00"/>
<path d="M442.397,332.046h 57.0008" fill="none" stroke="#00cc00"/>
<g fill="#00cc00">
<polygon points=" 438.608, 331.098 438.608, 329.204 440.502, 329.204 440.502, 331.098 442.397, 331.098 442.397, 332.993 440.502, 332.993 440.502, 334.887 438.608, 334.887 438.608, 332.993 436.713, 332.993 436.713, 331.098"/>
</g>
<path d="M68.5315,97.4902h 9.12675" fill="none" stroke="#33ff99"/>
<path d="M83.3418,97.4902h 9.12675" fill="none" stroke="#33ff99"/>
<g fill="#33ff99">
<polygon points=" 79.5527, 96.543 79.5527, 94.6485 81.4473, 94.6485 81.4473, 96.543 83.3418, 96.543 83.3418, 98.4375 81.4473, 98.4375 81.4473, 100.332 79.5527, 100.332 79.5527, 98.4375 77.6582, 98.4375 77.6582, 96.543"/>
</g>
<path d="M92.4685,136.225h 21.0953" fill="none" stroke="#33ff99"/>
<path d="M119.247,136.225h 21.0953" fill="none" stroke="#33ff99"/>
<g fill="#33ff99">
<polygon points=" 115.458, 135.278 115.458, 133.383 117.353, 133.383 117.353, 135.278 119.247, 135.278 119.247, 137.172 117.353, 137.172 117.353, 139.067 115.458, 139.067 115.458, 137.172 113.564, 137.172 113.564, 135.278"/>
</g>
<path d="M140.343,181.397h 21.0953" fill="none" stroke="#33ff99"/>
<path d="M167.121,181.397h 21.0953" fill="none" stroke="#33ff99"/>
<g fill="#33ff99">
<polygon points=" 163.332, 180.45 163.332, 178.555 165.227, 178.555 165.227, 180.45 167.121, 180.45 167.121, 182.344 165.227, 182.344 165.227, 184.239 163.332, 184.239 163.332, 182.344 161.438, 182.344 161.438, 180.45"/>
</g>
<path d="M188.217,214.127h 21.0953" fill="none" stroke="#33ff99"/>
<path d="M214.995,214.127h 21.0953" fill="none" stroke="#33ff99"/>
<g fill="#33ff99">
<polygon points=" 211.206, 213.18 211.206, 211.286 213.101, 211.286 213.101, 213.18 214.995, 213.18 214.995, 215.075 213.101, 215.075 213.101, 216.969 211.206, 216.969 211.206, 215.075 209.312, 215.075 209.312, 213.18"/>
</g>
<path d="M236.091,241.468h 21.0953" fill="none" stroke="#33ff99"/>
<path d="M262.869,241.468h 21.0953" fill="none" stroke="#33ff99"/>
<g fill="#33ff99">
<polygon points=" 259.08, 240.521 259.08, 238.626 260.975, 238.626 260.975, 240.521 262.869, 240.521 262.869, 242.415 260.975, 242.415 260.975, 244.31 259.08, 244.31 259.08, 242.415 257.186, 242.415 257.186, 240.521"/>
</g>
<path d="M283.965,272.141h 45.0323" fill="none" stroke="#33ff99"/>
<path d="M334.68,272.141h 45.0323" fill="none" stroke="#33ff99"/>
<g fill="#33ff99">
<polygon points=" 330.891, 271.194 330.891, 269.299 332.786, 269.299 332.786, 271.194 334.68, 271.194 334.68, 273.088 332.786, 273.088 332.786, 274.983 330.891, 274.983 330.891, 273.088 328.997, 273.088 328.997, 271.194"/>
</g>
<path d="M439.555,318.651v -3.00154" fill="none" stroke="#33ff99"/>
<path d="M439.555,309.966v -1.72625" fill="none" stroke="#33ff99"/>
<path d="M379.713,312.808h 57.0008" fill="none" stroke="#33ff99"/>
<path d="M442.397,312.808h 57.0008" fill="none" stroke="#33ff99"/>
<g fill="#33ff99">
<polygon points=" 438.608, 311.86 438.608, 309.966 440.502, 309.966 440.502, 311.86 442.397, 311.86 442.397, 313.755 440.502, 313.755 440.502, 315.649 438.608, 315.649 438.608, 313.755 436.713, 313.755 436.713, 311.86"/>
</g>
<path d="M68.5315,95.8664h 9.12675" fill="none" stroke="#00cccc"/>
<path d="M83.3418,95.8664h 9.12675" fill="none" stroke="#00cccc"/>
<g stroke="#00cccc" stroke-width="1" fill="none">
<polygon points=" 79.5527, 94.9192 79.5527, 93.0247 81.4473, 93.0247 81.4473, 94.9192 83.3418, 94.9192 83.3418, 96.8137 81.4473, 96.8137 81.4473, 98.7082 79.5527, 98.7082 79.5527, 96.8137 77.6582, 96.8137 77.6582, 94.9192"/>
</g>
<path d="M92.4685,134.427h 21.0953" fill="none" stroke="#00cccc"/>
<path d="M119.247,134.427h 21.0953" fill="none" stroke="#00cccc"/>
<g stroke="#00cccc" stroke-width="1" fill="none">
<polygon points=" 115.458, 133.48 115.458, 131.585 117.353, 131.585 117.353, 133.48 119.247, 133.48 119.247, 135.374 117.353, 135.374 117.353, 137.269 115.458, 137.269 115.458, 135.374 113.564, 135.374 113.564, 133.48"/>
</g>
<path d="M140.343,179.079h 21.0953" fill="none" stroke="#00cccc"/>
<path d="M167.121,179.079h 21.0953" fill="none" stroke="#00cccc"/>
<g stroke="#00cccc" stroke-width="1" fill="none">
<polygon points=" 163.332, 178.131 163.332, 176.237 165.227, 176.237 165.227, 178.131 167.121, 178.131 167.121, 180.026 165.227, 180.026 165.227, 181.92 163.332, 181.92 163.332, 180.026 161.438, 180.026 161.438, 178.131"/>
</g>
<path d="M188.217,213.427h 21.0953" fill="none" stroke="#00cccc"/>
<path d="M214.995,213.427h 21.0953" fill="none" stroke="#00cccc"/>
<g stroke="#00cccc" stroke-width="1" fill="none">
<polygon points=" 211.206, 212.48 211.206, 210.585 213.101, 210.585 213.101, 212.48 214.995, 212.48 214.995, 214.374 213.101, 214.374 213.101, 216.269 211.206, 216.269 211.206, 214.374 209.312, 214.374 209.312, 212.48"/>
</g>
<path d="M236.091,237.446h 21.0953" fill="none" stroke="#00cccc"/>
<path d="M262.869,237.446h 21.0953" fill="none" stroke="#00cccc"/>
<g stroke="#00cccc" stroke-width="1" fill="none">
<polygon points=" 259.08, 236.499 259.08, 234.605 260.975, 234.605 260.975, 236.499 262.869, 236.499 262.869, 238.394 260.975, 238.394 260.975, 240.288 259.08, 240.288 259.08, 238.394 257.186, 238.394 257.186, 236.499"/>
</g>
<path d="M283.965,275.65h 45.0323" fill="none" stroke="#00cccc"/>
<path d="M334.68,275.65h 45.0323" fill="none" stroke="#00cccc"/>
<g stroke="#00cccc" stroke-width="1" fill="none">
<polygon points=" 330.891, 274.703 330.891, 272.809 332.786, 272.809 332.786, 274.703 334.68, 274.703 334.68, 276.598 332.786, 276.598 332.786, 278.492 330.891, 278.492 330.891, 276.598 328.997, 276.598 328.997, 274.703"/>
</g>
<path d="M439.555,307.892v -0.638884" fill="none" stroke="#00cccc"/>
<path d="M439.555,301.569v -0.143902" fill="none" stroke="#00cccc"/>
<path d="M379.713,304.411h 57.0008" fill="none" stroke="#00cccc"/>
<path d="M442.397,304.411h 57.0008" fill="none" stroke="#00cccc"/>
<g stroke="#00cccc" stroke-width="1" fill="none">
<polygon points=" 438.608, 303.464 438.608, 301.569 440.502, 301.569 440.502, 303.464 442.397, 303.464 442.397, 305.358 440.502, 305.358 440.502, 307.253 438.608, 307.253 438.608, 305.358 436.713, 305.358 436.713, 303.464"/>
</g>
<path d="M68.5315,93.9407h 10.5476" fill="none" stroke="#0033ff"/>
<path d="M81.9209,93.9407h 10.5476" fill="none" stroke="#0033ff"/>
<g fill="#0033ff">
<polygon points=" 80.5, 95.3616 79.0791, 96.7825 77.6582, 95.3616 79.0791, 93.9407 77.6582, 92.5198 79.0791, 91.099 80.5, 92.5198 81.9209, 91.099 83.3418, 92.5198 81.9209, 93.9407 83.3418, 95.3616 81.9209, 96.7825 80.5, 95.3616"/>
</g>
<path d="M92.4685,132.172h 22.5161" fill="none" stroke="#0033ff"/>
<path d="M117.826,132.172h 22.5161" fill="none" stroke="#0033ff"/>
<g fill="#0033ff">
<polygon points=" 116.406, 133.593 114.985, 135.014 113.564, 133.593 114.985, 132.172 113.564, 130.751 114.985, 129.33 116.406, 130.751 117.826, 129.33 119.247, 130.751 117.826, 132.172 119.247, 133.593 117.826, 135.014 116.406, 133.593"/>
</g>
<path d="M140.343,176.038h 22.5161" fill="none" stroke="#0033ff"/>
<path d="M165.7,176.038h 22.5161" fill="none" stroke="#0033ff"/>
<g fill="#0033ff">
<polygon points=" 164.28, 177.459 162.859, 178.879 161.438, 177.459 162.859, 176.038 161.438, 174.617 162.859, 173.196 164.28, 174.617 165.7, 173.196 167.121, 174.617 165.7, 176.038 167.121, 177.459 165.7, 178.879 164.28, 177.459"/>
</g>
<path d="M188.217,210.039h 22.5161" fill="none" stroke="#0033ff"/>
<path d="M213.574,210.039h 22.5161" fill="none" stroke="#0033ff"/>
<g fill="#0033ff">
<polygon points=" 212.154, 211.46 210.733, 212.881 209.312, 211.46 210.733, 210.039 209.312, 208.618 210.733, 207.197 212.154, 208.618 213.574, 207.197 214.995, 208.618 213.574, 210.039 214.995, 211.46 213.574, 212.881 212.154, 211.46"/>
</g>
<path d="M236.091,234.855h 22.5161" fill="none" stroke="#0033ff"/>
<path d="M261.448,234.855h 22.5161" fill="none" stroke="#0033ff"/>
<g fill="#0033ff">
<polygon points=" 260.028, 236.276 258.607, 237.697 257.186, 236.276 258.607, 234.855 257.186, 233.434 258.607, 232.013 260.028, 233.434 261.448, 232.013 262.869, 233.434 261.448, 234.855 262.869, 236.276 261.448, 237.697 260.028, 236.276"/>
</g>
<path d="M331.839,265.579v -0.199214" fill="none" stroke="#0033ff"/>
<path d="M331.839,262.538v -0.0833142" fill="none" stroke="#0033ff"/>
<path d="M283.965,263.959h 46.4531" fill="none" stroke="#0033ff"/>
<path d="M333.259,263.959h 46.4531" fill="none" stroke="#0033ff"/>
<g fill="#0033ff">
<polygon points=" 331.839, 265.38 330.418, 266.801 328.997, 265.38 330.418, 263.959 328.997, 262.538 330.418, 261.117 331.839, 262.538 333.259, 261.117 334.68, 262.538 333.259, 263.959 334.68, 265.38 333.259, 266.801 331.839, 265.38"/>
</g>
<path d="M439.555,307.901v -2.53672" fill="none" stroke="#0033ff"/>
<path d="M439.555,302.523v -1.90874" fill="none" stroke="#0033ff"/>
<path d="M379.713,303.944h 58.4216" fill="none" stroke="#0033ff"/>
<path d="M440.976,303.944h 58.4216" fill="none" stroke="#0033ff"/>
<g fill="#0033ff">
<polygon points=" 439.555, 305.365 438.134, 306.785 436.713, 305.365 438.134, 303.944 436.713, 302.523 438.134, 301.102 439.555, 302.523 440.976, 301.102 442.397, 302.523 440.976, 303.944 442.397, 305.365 440.976, 306.785 439.555, 305.365"/>
</g>
<path d="M68.5315,91.7047h 9.12675" fill="none" stroke="#0000ff"/>
<path d="M83.3418,91.7047h 9.12675" fill="none" stroke="#0000ff"/>
<g stroke="#0000ff" stroke-width="1" fill="none">
<polygon points=" 79.5527, 90.7575 79.5527, 88.863 81.4473, 88.863 81.4473, 90.7575 83.3418, 90.7575 83.3418, 92.652 81.4473, 92.652 81.4473, 94.5465 79.5527, 94.5465 79.5527, 92.652 77.6582, 92.652 77.6582, 90.7575"/>
</g>
<path d="M92.4685,129.619h 21.0953" fill="none" stroke="#0000ff"/>
<path d="M119.247,129.619h 21.0953" fill="none" stroke="#0000ff"/>
<g stroke="#0000ff" stroke-width="1" fill="none">
<polygon points=" 115.458, 128.672 115.458, 126.777 117.353, 126.777 117.353, 128.672 119.247, 128.672 119.247, 130.566 117.353, 130.566 117.353, 132.461 115.458, 132.461 115.458, 130.566 113.564, 130.566 113.564, 128.672"/>
</g>
<path d="M140.343,173.165h 21.0953" fill="none" stroke="#0000ff"/>
<path d="M167.121,173.165h 21.0953" fill="none" stroke="#0000ff"/>
<g stroke="#0000ff" stroke-width="1" fill="none">
<polygon points=" 163.332, 172.218 163.332, 170.323 165.227, 170.323 165.227, 172.218 167.121, 172.218 167.121, 174.112 165.227, 174.112 165.227, 176.007 163.332, 176.007 163.332, 174.112 161.438, 174.112 161.438, 172.218"/>
</g>
<path d="M188.217,206.447h 21.0953" fill="none" stroke="#0000ff"/>
<path d="M214.995,206.447h 21.0953" fill="none" stroke="#0000ff"/>
<g stroke="#0000ff" stroke-width="1" fill="none">
<polygon points=" 211.206, 205.5 211.206, 203.606 213.101, 203.606 213.101, 205.5 214.995, 205.5 214.995, 207.395 213.101, 207.395 213.101, 209.289 211.206, 209.289 211.206, 207.395 209.312, 207.395 209.312, 205.5"/>
</g>
<path d="M236.091,234.007h 21.0953" fill="none" stroke="#0000ff"/>
<path d="M262.869,234.007h 21.0953" fill="none" stroke="#0000ff"/>
<g stroke="#0000ff" stroke-width="1" fill="none">
<polygon points=" 259.08, 233.059 259.08, 231.165 260.975, 231.165 260.975, 233.059 262.869, 233.059 262.869, 234.954 260.975, 234.954 260.975, 236.848 259.08, 236.848 259.08, 234.954 257.186, 234.954 257.186, 233.059"/>
</g>
<path d="M283.965,263.413h 45.0323" fill="none" stroke="#0000ff"/>
<path d="M334.68,263.413h 45.0323" fill="none" stroke="#0000ff"/>
<g stroke="#0000ff" stroke-width="1" fill="none">
<polygon points=" 330.891, 262.466 330.891, 260.572 332.786, 260.572 332.786, 262.466 334.68, 262.466 334.68, 264.361 332.786, 264.361 332.786, 266.255 330.891, 266.255 330.891, 264.361 328.997, 264.361 328.997, 262.466"/>
</g>
<path d="M439.555,310.195v -2.20225" fill="none" stroke="#0000ff"/>
<path d="M439.555,302.309v -1.22366" fill="none" stroke="#0000ff"/>
<path d="M379.713,305.151h 57.0008" fill="none" stroke="#0000ff"/>
<path d="M442.397,305.151h 57.0008" fill="none" stroke="#0000ff"/>
<g stroke="#0000ff" stroke-width="1" fill="none">
<polygon points=" 438.608, 304.204 438.608, 302.309 440.502, 302.309 440.502, 304.204 442.397, 304.204 442.397, 306.098 440.502, 306.098 440.502, 307.993 438.608, 307.993 438.608, 306.098 436.713, 306.098 436.713, 304.204"/>
</g>
<text xml:space="preserve" x="181.662" y="51.8619" fill="black" font-size="19.2386" font-family="Helvetica">PYTHIA8, pAu200GeV with option3</text>
<text xml:space="preserve" x="245.601" y="66.7811" fill="black" font-size="19.2386" font-family="Helvetica">|&lt;1</text>
<text xml:space="preserve" x="234.944" y="66.7811" fill="black" font-size="19.2386" font-family="Times">&#0951;</text>
<text xml:space="preserve" x="205.816" y="66.7811" fill="black" font-size="19.2386" font-family="Helvetica"> in |</text>
<text xml:space="preserve" x="191.608" y="59.6768" fill="black" font-size="12.9924" font-family="Helvetica">dir</text>
<text xml:space="preserve" x="181.662" y="66.7811" fill="black" font-size="19.2386" font-family="Times">&#0947;</text>
<text xml:space="preserve" x="232.813" y="82.4108" fill="black" font-size="19.2386" font-family="Helvetica">inelastic events(MB)</text>
<g fill="black">
<polygon points=" 203.647, 78.1999 203.647, 76.3054 205.542, 76.3054 205.542, 78.1999 207.436, 78.1999 207.436, 80.0944 205.542, 80.0944 205.542, 81.9889 203.647, 81.9889 203.647, 80.0944 201.753, 80.0944 201.753, 78.1999"/>
</g>
<text xml:space="preserve" x="232.813" y="97.3299" fill="black" font-size="19.2386" font-family="Helvetica">centrality: 0~10%</text>
<g fill="#00cc00">
<polygon points=" 203.647, 93.5187 203.647, 91.6242 205.542, 91.6242 205.542, 93.5187 207.436, 93.5187 207.436, 95.4132 205.542, 95.4132 205.542, 97.3077 203.647, 97.3077 203.647, 95.4132 201.753, 95.4132 201.753, 93.5187"/>
</g>
<text xml:space="preserve" x="232.813" y="112.96" fill="black" font-size="19.2386" font-family="Helvetica">centrality: 10~20%</text>
<g fill="#33ff99">
<polygon points=" 203.647, 108.838 203.647, 106.943 205.542, 106.943 205.542, 108.838 207.436, 108.838 207.436, 110.732 205.542, 110.732 205.542, 112.627 203.647, 112.627 203.647, 110.732 201.753, 110.732 201.753, 108.838"/>
</g>
<text xml:space="preserve" x="232.813" y="127.879" fill="black" font-size="19.2386" font-family="Helvetica">centrality: 20~40%</text>
<g stroke="#00cccc" stroke-width="1" fill="none">
<polygon points=" 203.647, 124.156 203.647, 122.262 205.542, 122.262 205.542, 124.156 207.436, 124.156 207.436, 126.051 205.542, 126.051 205.542, 127.945 203.647, 127.945 203.647, 126.051 201.753, 126.051 201.753, 124.156"/>
</g>
<text xml:space="preserve" x="232.813" y="143.508" fill="black" font-size="19.2386" font-family="Helvetica">centrality: 40~60%</text>
<g fill="#0033ff">
<polygon points=" 204.594, 141.843 203.174, 143.264 201.753, 141.843 203.174, 140.422 201.753, 139.002 203.174, 137.581 204.594, 139.002 206.015, 137.581 207.436, 139.002 206.015, 140.422 207.436, 141.843 206.015, 143.264 204.594, 141.843"/>
</g>
<text xml:space="preserve" x="232.813" y="159.138" fill="black" font-size="19.2386" font-family="Helvetica">centrality: 60~80%</text>
<g stroke="#0000ff" stroke-width="1" fill="none">
<polygon points=" 203.647, 154.794 203.647, 152.899 205.542, 152.899 205.542, 154.794 207.436, 154.794 207.436, 156.688 205.542, 156.688 205.542, 158.583 203.647, 158.583 203.647, 156.688 201.753, 156.688 201.753, 154.794"/>
</g></svg>
