<?xml version="1.0" standalone="no"?>
<svg width="567.429" height="409.002" viewBox="0 0 567.429 409.002" xmlns="http://www.w3.org/2000/svg" shape-rendering="crispEdges">
<title>
/Users/jinhyunpark/npl/gitHub/Centrality_dependent_BiasCorrection/plots/plots_scaled-dNdpT/scaledYield_highpT_pion0_byCentrality.svg
</title>
<desc>
Creator: ROOT Version 6.28/04
CreationDate: Fri Oct 20 20:40:53 2023</desc>
<defs>
</defs>
<rect x="0.5" y="0" width="566.929" height="408.502" fill="white"/>
<rect x="85.5394" y="20.4251" width="396.85" height="339.056" fill="white"/>
<rect x="85.5394" y="20.4251" width="396.85" height="339.056" fill="none" stroke="black"/>
<rect x="85.5394" y="20.4251" width="396.85" height="339.056" fill="white"/>
<rect x="85.5394" y="20.4251" width="396.85" height="339.056" fill="none" stroke="black"/>
<path d="M85.5394,359.481h 396.85" fill="none" stroke="black"/>
<path d="M85.5394,350.903v 8.57853" fill="none" stroke="black"/>
<path d="M96.563,355.192v 4.28927" fill="none" stroke="black"/>
<path d="M107.587,355.192v 4.28927" fill="none" stroke="black"/>
<path d="M118.61,355.192v 4.28927" fill="none" stroke="black"/>
<path d="M129.634,350.903v 8.57853" fill="none" stroke="black"/>
<path d="M140.657,355.192v 4.28927" fill="none" stroke="black"/>
<path d="M151.681,355.192v 4.28927" fill="none" stroke="black"/>
<path d="M162.705,355.192v 4.28927" fill="none" stroke="black"/>
<path d="M173.728,350.903v 8.57853" fill="none" stroke="black"/>
<path d="M184.752,355.192v 4.28927" fill="none" stroke="black"/>
<path d="M195.776,355.192v 4.28927" fill="none" stroke="black"/>
<path d="M206.799,355.192v 4.28927" fill="none" stroke="black"/>
<path d="M217.823,350.903v 8.57853" fill="none" stroke="black"/>
<path d="M228.846,355.192v 4.28927" fill="none" stroke="black"/>
<path d="M239.87,355.192v 4.28927" fill="none" stroke="black"/>
<path d="M250.894,355.192v 4.28927" fill="none" stroke="black"/>
<path d="M261.917,350.903v 8.57853" fill="none" stroke="black"/>
<path d="M272.941,355.192v 4.28927" fill="none" stroke="black"/>
<path d="M283.965,355.192v 4.28927" fill="none" stroke="black"/>
<path d="M294.988,355.192v 4.28927" fill="none" stroke="black"/>
<path d="M306.012,350.903v 8.57853" fill="none" stroke="black"/>
<path d="M317.035,355.192v 4.28927" fill="none" stroke="black"/>
<path d="M328.059,355.192v 4.28927" fill="none" stroke="black"/>
<path d="M339.083,355.192v 4.28927" fill="none" stroke="black"/>
<path d="M350.106,350.903v 8.57853" fill="none" stroke="black"/>
<path d="M361.13,355.192v 4.28927" fill="none" stroke="black"/>
<path d="M372.154,355.192v 4.28927" fill="none" stroke="black"/>
<path d="M383.177,355.192v 4.28927" fill="none" stroke="black"/>
<path d="M394.201,350.903v 8.57853" fill="none" stroke="black"/>
<path d="M405.224,355.192v 4.28927" fill="none" stroke="black"/>
<path d="M416.248,355.192v 4.28927" fill="none" stroke="black"/>
<path d="M427.272,355.192v 4.28927" fill="none" stroke="black"/>
<path d="M438.295,350.903v 8.57853" fill="none" stroke="black"/>
<path d="M449.319,355.192v 4.28927" fill="none" stroke="black"/>
<path d="M460.343,355.192v 4.28927" fill="none" stroke="black"/>
<path d="M471.366,355.192v 4.28927" fill="none" stroke="black"/>
<path d="M482.39,350.903v 8.57853" fill="none" stroke="black"/>
<text xml:space="preserve" x="81.4899" y="372.269" fill="black" font-size="13.617" font-family="Helvetica">2</text>
<text xml:space="preserve" x="125.537" y="372.269" fill="black" font-size="13.617" font-family="Helvetica">4</text>
<text xml:space="preserve" x="169.584" y="372.269" fill="black" font-size="13.617" font-family="Helvetica">6</text>
<text xml:space="preserve" x="213.631" y="372.269" fill="black" font-size="13.617" font-family="Helvetica">8</text>
<text xml:space="preserve" x="253.416" y="372.269" fill="black" font-size="13.617" font-family="Helvetica">10</text>
<text xml:space="preserve" x="298.173" y="372.269" fill="black" font-size="13.617" font-family="Helvetica">12</text>
<text xml:space="preserve" x="342.22" y="372.269" fill="black" font-size="13.617" font-family="Helvetica">14</text>
<text xml:space="preserve" x="386.268" y="372.269" fill="black" font-size="13.617" font-family="Helvetica">16</text>
<text xml:space="preserve" x="430.315" y="372.269" fill="black" font-size="13.617" font-family="Helvetica">18</text>
<text xml:space="preserve" x="474.362" y="372.269" fill="black" font-size="13.617" font-family="Helvetica">20</text>
<text xml:space="preserve" x="436.709" y="384.347" fill="black" font-size="13.617" font-family="Helvetica">(GeV/c)</text>
<text xml:space="preserve" x="431.025" y="392.162" fill="black" font-size="9.24468" font-family="Helvetica">T</text>
<text xml:space="preserve" x="423.21" y="384.347" fill="black" font-size="13.617" font-family="Helvetica">p</text>
<path d="M85.5394,20.4251h 396.85" fill="none" stroke="black"/>
<path d="M85.5394,29.0036v -8.57853" fill="none" stroke="black"/>
<path d="M96.563,24.7143v -4.28927" fill="none" stroke="black"/>
<path d="M107.587,24.7143v -4.28927" fill="none" stroke="black"/>
<path d="M118.61,24.7143v -4.28927" fill="none" stroke="black"/>
<path d="M129.634,29.0036v -8.57853" fill="none" stroke="black"/>
<path d="M140.657,24.7143v -4.28927" fill="none" stroke="black"/>
<path d="M151.681,24.7143v -4.28927" fill="none" stroke="black"/>
<path d="M162.705,24.7143v -4.28927" fill="none" stroke="black"/>
<path d="M173.728,29.0036v -8.57853" fill="none" stroke="black"/>
<path d="M184.752,24.7143v -4.28927" fill="none" stroke="black"/>
<path d="M195.776,24.7143v -4.28927" fill="none" stroke="black"/>
<path d="M206.799,24.7143v -4.28927" fill="none" stroke="black"/>
<path d="M217.823,29.0036v -8.57853" fill="none" stroke="black"/>
<path d="M228.846,24.7143v -4.28927" fill="none" stroke="black"/>
<path d="M239.87,24.7143v -4.28927" fill="none" stroke="black"/>
<path d="M250.894,24.7143v -4.28927" fill="none" stroke="black"/>
<path d="M261.917,29.0036v -8.57853" fill="none" stroke="black"/>
<path d="M272.941,24.7143v -4.28927" fill="none" stroke="black"/>
<path d="M283.965,24.7143v -4.28927" fill="none" stroke="black"/>
<path d="M294.988,24.7143v -4.28927" fill="none" stroke="black"/>
<path d="M306.012,29.0036v -8.57853" fill="none" stroke="black"/>
<path d="M317.035,24.7143v -4.28927" fill="none" stroke="black"/>
<path d="M328.059,24.7143v -4.28927" fill="none" stroke="black"/>
<path d="M339.083,24.7143v -4.28927" fill="none" stroke="black"/>
<path d="M350.106,29.0036v -8.57853" fill="none" stroke="black"/>
<path d="M361.13,24.7143v -4.28927" fill="none" stroke="black"/>
<path d="M372.154,24.7143v -4.28927" fill="none" stroke="black"/>
<path d="M383.177,24.7143v -4.28927" fill="none" stroke="black"/>
<path d="M394.201,29.0036v -8.57853" fill="none" stroke="black"/>
<path d="M405.224,24.7143v -4.28927" fill="none" stroke="black"/>
<path d="M416.248,24.7143v -4.28927" fill="none" stroke="black"/>
<path d="M427.272,24.7143v -4.28927" fill="none" stroke="black"/>
<path d="M438.295,29.0036v -8.57853" fill="none" stroke="black"/>
<path d="M449.319,24.7143v -4.28927" fill="none" stroke="black"/>
<path d="M460.343,24.7143v -4.28927" fill="none" stroke="black"/>
<path d="M471.366,24.7143v -4.28927" fill="none" stroke="black"/>
<path d="M482.39,29.0036v -8.57853" fill="none" stroke="black"/>
<path d="M85.5394,359.481v -339.056" fill="none" stroke="black"/>
<path d="M99.6559,359.481h -14.1165" fill="none" stroke="black"/>
<text xml:space="preserve" x="70.8333" y="358.771" fill="black" font-size="9.24468" font-family="Helvetica">10</text>
<text xml:space="preserve" x="65.8603" y="358.771" fill="black" font-size="9.24468" font-family="Times">&#8722;</text>
<text xml:space="preserve" x="50.9411" y="365.165" fill="black" font-size="13.617" font-family="Helvetica">10</text>
<path d="M92.5976,346.723h -7.05827" fill="none" stroke="black"/>
<path d="M92.5976,339.26h -7.05827" fill="none" stroke="black"/>
<path d="M92.5976,333.965h -7.05827" fill="none" stroke="black"/>
<path d="M92.5976,329.858h -7.05827" fill="none" stroke="black"/>
<path d="M92.5976,326.502h -7.05827" fill="none" stroke="black"/>
<path d="M92.5976,323.664h -7.05827" fill="none" stroke="black"/>
<path d="M92.5976,321.207h -7.05827" fill="none" stroke="black"/>
<path d="M92.5976,319.039h -7.05827" fill="none" stroke="black"/>
<path d="M99.6559,317.099h -14.1165" fill="none" stroke="black"/>
<text xml:space="preserve" x="75.8064" y="316.855" fill="black" font-size="9.24468" font-family="Helvetica">9</text>
<text xml:space="preserve" x="70.8333" y="316.855" fill="black" font-size="9.24468" font-family="Times">&#8722;</text>
<text xml:space="preserve" x="55.9141" y="323.249" fill="black" font-size="13.617" font-family="Helvetica">10</text>
<path d="M92.5976,304.341h -7.05827" fill="none" stroke="black"/>
<path d="M92.5976,296.878h -7.05827" fill="none" stroke="black"/>
<path d="M92.5976,291.583h -7.05827" fill="none" stroke="black"/>
<path d="M92.5976,287.476h -7.05827" fill="none" stroke="black"/>
<path d="M92.5976,284.12h -7.05827" fill="none" stroke="black"/>
<path d="M92.5976,281.282h -7.05827" fill="none" stroke="black"/>
<path d="M92.5976,278.825h -7.05827" fill="none" stroke="black"/>
<path d="M92.5976,276.657h -7.05827" fill="none" stroke="black"/>
<path d="M99.6559,274.717h -14.1165" fill="none" stroke="black"/>
<text xml:space="preserve" x="75.8064" y="274.229" fill="black" font-size="9.24468" font-family="Helvetica">8</text>
<text xml:space="preserve" x="70.8333" y="274.229" fill="black" font-size="9.24468" font-family="Times">&#8722;</text>
<text xml:space="preserve" x="55.9141" y="280.623" fill="black" font-size="13.617" font-family="Helvetica">10</text>
<path d="M92.5976,261.959h -7.05827" fill="none" stroke="black"/>
<path d="M92.5976,254.496h -7.05827" fill="none" stroke="black"/>
<path d="M92.5976,249.201h -7.05827" fill="none" stroke="black"/>
<path d="M92.5976,245.094h -7.05827" fill="none" stroke="black"/>
<path d="M92.5976,241.738h -7.05827" fill="none" stroke="black"/>
<path d="M92.5976,238.9h -7.05827" fill="none" stroke="black"/>
<path d="M92.5976,236.442h -7.05827" fill="none" stroke="black"/>
<path d="M92.5976,234.275h -7.05827" fill="none" stroke="black"/>
<path d="M99.6559,232.335h -14.1165" fill="none" stroke="black"/>
<text xml:space="preserve" x="75.8064" y="233.024" fill="black" font-size="9.24468" font-family="Helvetica">7</text>
<text xml:space="preserve" x="70.8333" y="233.024" fill="black" font-size="9.24468" font-family="Times">&#8722;</text>
<text xml:space="preserve" x="55.9141" y="238.707" fill="black" font-size="13.617" font-family="Helvetica">10</text>
<path d="M92.5976,219.577h -7.05827" fill="none" stroke="black"/>
<path d="M92.5976,212.114h -7.05827" fill="none" stroke="black"/>
<path d="M92.5976,206.819h -7.05827" fill="none" stroke="black"/>
<path d="M92.5976,202.711h -7.05827" fill="none" stroke="black"/>
<path d="M92.5976,199.356h -7.05827" fill="none" stroke="black"/>
<path d="M92.5976,196.518h -7.05827" fill="none" stroke="black"/>
<path d="M92.5976,194.06h -7.05827" fill="none" stroke="black"/>
<path d="M92.5976,191.893h -7.05827" fill="none" stroke="black"/>
<path d="M99.6559,189.953h -14.1165" fill="none" stroke="black"/>
<text xml:space="preserve" x="75.8064" y="189.687" fill="black" font-size="9.24468" font-family="Helvetica">6</text>
<text xml:space="preserve" x="70.8333" y="189.687" fill="black" font-size="9.24468" font-family="Times">&#8722;</text>
<text xml:space="preserve" x="55.9141" y="196.081" fill="black" font-size="13.617" font-family="Helvetica">10</text>
<path d="M92.5976,177.195h -7.05827" fill="none" stroke="black"/>
<path d="M92.5976,169.732h -7.05827" fill="none" stroke="black"/>
<path d="M92.5976,164.437h -7.05827" fill="none" stroke="black"/>
<path d="M92.5976,160.329h -7.05827" fill="none" stroke="black"/>
<path d="M92.5976,156.974h -7.05827" fill="none" stroke="black"/>
<path d="M92.5976,154.136h -7.05827" fill="none" stroke="black"/>
<path d="M92.5976,151.678h -7.05827" fill="none" stroke="black"/>
<path d="M92.5976,149.51h -7.05827" fill="none" stroke="black"/>
<path d="M99.6559,147.571h -14.1165" fill="none" stroke="black"/>
<text xml:space="preserve" x="75.8064" y="147.061" fill="black" font-size="9.24468" font-family="Helvetica">5</text>
<text xml:space="preserve" x="70.8333" y="147.061" fill="black" font-size="9.24468" font-family="Times">&#8722;</text>
<text xml:space="preserve" x="55.9141" y="153.455" fill="black" font-size="13.617" font-family="Helvetica">10</text>
<path d="M92.5976,134.813h -7.05827" fill="none" stroke="black"/>
<path d="M92.5976,127.35h -7.05827" fill="none" stroke="black"/>
<path d="M92.5976,122.055h -7.05827" fill="none" stroke="black"/>
<path d="M92.5976,117.947h -7.05827" fill="none" stroke="black"/>
<path d="M92.5976,114.592h -7.05827" fill="none" stroke="black"/>
<path d="M92.5976,111.754h -7.05827" fill="none" stroke="black"/>
<path d="M92.5976,109.296h -7.05827" fill="none" stroke="black"/>
<path d="M92.5976,107.128h -7.05827" fill="none" stroke="black"/>
<path d="M99.6559,105.189h -14.1165" fill="none" stroke="black"/>
<text xml:space="preserve" x="75.8064" y="105.855" fill="black" font-size="9.24468" font-family="Helvetica">4</text>
<text xml:space="preserve" x="70.8333" y="105.855" fill="black" font-size="9.24468" font-family="Times">&#8722;</text>
<text xml:space="preserve" x="55.9141" y="111.539" fill="black" font-size="13.617" font-family="Helvetica">10</text>
<path d="M92.5976,92.4309h -7.05827" fill="none" stroke="black"/>
<path d="M92.5976,84.9678h -7.05827" fill="none" stroke="black"/>
<path d="M92.5976,79.6726h -7.05827" fill="none" stroke="black"/>
<path d="M92.5976,75.5654h -7.05827" fill="none" stroke="black"/>
<path d="M92.5976,72.2095h -7.05827" fill="none" stroke="black"/>
<path d="M92.5976,69.3722h -7.05827" fill="none" stroke="black"/>
<path d="M92.5976,66.9144h -7.05827" fill="none" stroke="black"/>
<path d="M92.5976,64.7464h -7.05827" fill="none" stroke="black"/>
<path d="M99.6559,62.8071h -14.1165" fill="none" stroke="black"/>
<text xml:space="preserve" x="75.8064" y="62.5185" fill="black" font-size="9.24468" font-family="Helvetica">3</text>
<text xml:space="preserve" x="70.8333" y="62.5185" fill="black" font-size="9.24468" font-family="Times">&#8722;</text>
<text xml:space="preserve" x="55.9141" y="68.9124" fill="black" font-size="13.617" font-family="Helvetica">10</text>
<path d="M92.5976,50.0489h -7.05827" fill="none" stroke="black"/>
<path d="M92.5976,42.5857h -7.05827" fill="none" stroke="black"/>
<path d="M92.5976,37.2906h -7.05827" fill="none" stroke="black"/>
<path d="M92.5976,33.1833h -7.05827" fill="none" stroke="black"/>
<path d="M92.5976,29.8275h -7.05827" fill="none" stroke="black"/>
<path d="M92.5976,26.9901h -7.05827" fill="none" stroke="black"/>
<path d="M92.5976,24.5323h -7.05827" fill="none" stroke="black"/>
<path d="M92.5976,22.3644h -7.05827" fill="none" stroke="black"/>
<path d="M99.6559,20.4251h -14.1165" fill="none" stroke="black"/>
<text xml:space="preserve" x="75.8064" y="20.6027" fill="black" font-size="9.24468" font-family="Helvetica">2</text>
<text xml:space="preserve" x="70.8333" y="20.6027" fill="black" font-size="9.24468" font-family="Times">&#8722;</text>
<text xml:space="preserve" x="55.9141" y="26.2862" fill="black" font-size="13.617" font-family="Helvetica">10</text>
<g transform="rotate(-90,39.5741,24.1549)">
<text xml:space="preserve" x="39.5741" y="24.1549" fill="black" font-size="13.617" font-family="Helvetica"> </text>
</g>
<g transform="rotate(-90,55.2037,31.9697)">
<text xml:space="preserve" x="55.2037" y="31.9697" fill="black" font-size="9.24468" font-family="Helvetica">T</text>
</g>
<g transform="rotate(-90,47.3889,46.8889)">
<text xml:space="preserve" x="47.3889" y="46.8889" fill="black" font-size="13.617" font-family="Helvetica">dp</text>
</g>
<g transform="rotate(-90,23.234,27.7071)">
<text xml:space="preserve" x="23.234" y="27.7071" fill="black" font-size="6.32979" font-family="Helvetica">0</text>
</g>
<g transform="rotate(-90,26.7862,32.6801)">
<text xml:space="preserve" x="26.7862" y="32.6801" fill="black" font-size="9.24468" font-family="Times">&#0960;</text>
</g>
<g transform="rotate(-90,33.1801,49.0202)">
<text xml:space="preserve" x="33.1801" y="49.0202" fill="black" font-size="13.617" font-family="Helvetica">dN</text>
</g>
<path d="M36.0219,49.0202v -24.8653" fill="none" stroke="black" stroke-width="2"/>
<g transform="rotate(-90,39.5741,53.2828)">
<text xml:space="preserve" x="39.5741" y="53.2828" fill="black" font-size="13.617" font-family="Helvetica"> </text>
</g>
<g transform="rotate(-90,51.6515,76.0168)">
<text xml:space="preserve" x="51.6515" y="76.0168" fill="black" font-size="9.24468" font-family="Helvetica">event</text>
</g>
<g transform="rotate(-90,47.3889,85.2525)">
<text xml:space="preserve" x="47.3889" y="85.2525" fill="black" font-size="13.617" font-family="Helvetica">N</text>
</g>
<g transform="rotate(-90,33.8906,71.7542)">
<text xml:space="preserve" x="33.8906" y="71.7542" fill="black" font-size="13.617" font-family="Helvetica">1</text>
</g>
<path d="M36.0219,85.2525v -31.9697" fill="none" stroke="black" stroke-width="2"/>
<g transform="rotate(-90,39.5741,89.5151)">
<text xml:space="preserve" x="39.5741" y="89.5151" fill="black" font-size="13.617" font-family="Helvetica"> </text>
</g>
<g transform="rotate(-90,54.4933,107.276)">
<text xml:space="preserve" x="54.4933" y="107.276" fill="black" font-size="9.24468" font-family="Helvetica">cent</text>
</g>
<g transform="rotate(-90,48.0993,111.539)">
<text xml:space="preserve" x="48.0993" y="111.539" fill="black" font-size="13.617" font-family="Times">&#0062;</text>
</g>
<g transform="rotate(-90,48.0993,115.801)">
<text xml:space="preserve" x="48.0993" y="115.801" fill="black" font-size="13.617" font-family="Helvetica"> </text>
</g>
<g transform="rotate(-90,54.4933,129.3)">
<text xml:space="preserve" x="54.4933" y="129.3" fill="black" font-size="9.24468" font-family="Helvetica">coll</text>
</g>
<g transform="rotate(-90,48.0993,142.088)">
<text xml:space="preserve" x="48.0993" y="142.088" fill="black" font-size="13.617" font-family="Helvetica"> N</text>
</g>
<g transform="rotate(-90,48.0993,146.35)">
<text xml:space="preserve" x="48.0993" y="146.35" fill="black" font-size="13.617" font-family="Times">&#0060;</text>
</g>
<g transform="rotate(-90,33.8906,120.064)">
<text xml:space="preserve" x="33.8906" y="120.064" fill="black" font-size="13.617" font-family="Helvetica">1</text>
</g>
<path d="M36.0219,146.35v -56.835" fill="none" stroke="black" stroke-width="2"/>
<path d="M482.39,359.481v -339.056" fill="none" stroke="black"/>
<path d="M468.273,359.481h 14.1165" fill="none" stroke="black"/>
<path d="M475.332,346.723h 7.05827" fill="none" stroke="black"/>
<path d="M475.332,339.26h 7.05827" fill="none" stroke="black"/>
<path d="M475.332,333.965h 7.05827" fill="none" stroke="black"/>
<path d="M475.332,329.858h 7.05827" fill="none" stroke="black"/>
<path d="M475.332,326.502h 7.05827" fill="none" stroke="black"/>
<path d="M475.332,323.664h 7.05827" fill="none" stroke="black"/>
<path d="M475.332,321.207h 7.05827" fill="none" stroke="black"/>
<path d="M475.332,319.039h 7.05827" fill="none" stroke="black"/>
<path d="M468.273,317.099h 14.1165" fill="none" stroke="black"/>
<path d="M475.332,304.341h 7.05827" fill="none" stroke="black"/>
<path d="M475.332,296.878h 7.05827" fill="none" stroke="black"/>
<path d="M475.332,291.583h 7.05827" fill="none" stroke="black"/>
<path d="M475.332,287.476h 7.05827" fill="none" stroke="black"/>
<path d="M475.332,284.12h 7.05827" fill="none" stroke="black"/>
<path d="M475.332,281.282h 7.05827" fill="none" stroke="black"/>
<path d="M475.332,278.825h 7.05827" fill="none" stroke="black"/>
<path d="M475.332,276.657h 7.05827" fill="none" stroke="black"/>
<path d="M468.273,274.717h 14.1165" fill="none" stroke="black"/>
<path d="M475.332,261.959h 7.05827" fill="none" stroke="black"/>
<path d="M475.332,254.496h 7.05827" fill="none" stroke="black"/>
<path d="M475.332,249.201h 7.05827" fill="none" stroke="black"/>
<path d="M475.332,245.094h 7.05827" fill="none" stroke="black"/>
<path d="M475.332,241.738h 7.05827" fill="none" stroke="black"/>
<path d="M475.332,238.9h 7.05827" fill="none" stroke="black"/>
<path d="M475.332,236.442h 7.05827" fill="none" stroke="black"/>
<path d="M475.332,234.275h 7.05827" fill="none" stroke="black"/>
<path d="M468.273,232.335h 14.1165" fill="none" stroke="black"/>
<path d="M475.332,219.577h 7.05827" fill="none" stroke="black"/>
<path d="M475.332,212.114h 7.05827" fill="none" stroke="black"/>
<path d="M475.332,206.819h 7.05827" fill="none" stroke="black"/>
<path d="M475.332,202.711h 7.05827" fill="none" stroke="black"/>
<path d="M475.332,199.356h 7.05827" fill="none" stroke="black"/>
<path d="M475.332,196.518h 7.05827" fill="none" stroke="black"/>
<path d="M475.332,194.06h 7.05827" fill="none" stroke="black"/>
<path d="M475.332,191.893h 7.05827" fill="none" stroke="black"/>
<path d="M468.273,189.953h 14.1165" fill="none" stroke="black"/>
<path d="M475.332,177.195h 7.05827" fill="none" stroke="black"/>
<path d="M475.332,169.732h 7.05827" fill="none" stroke="black"/>
<path d="M475.332,164.437h 7.05827" fill="none" stroke="black"/>
<path d="M475.332,160.329h 7.05827" fill="none" stroke="black"/>
<path d="M475.332,156.974h 7.05827" fill="none" stroke="black"/>
<path d="M475.332,154.136h 7.05827" fill="none" stroke="black"/>
<path d="M475.332,151.678h 7.05827" fill="none" stroke="black"/>
<path d="M475.332,149.51h 7.05827" fill="none" stroke="black"/>
<path d="M468.273,147.571h 14.1165" fill="none" stroke="black"/>
<path d="M475.332,134.813h 7.05827" fill="none" stroke="black"/>
<path d="M475.332,127.35h 7.05827" fill="none" stroke="black"/>
<path d="M475.332,122.055h 7.05827" fill="none" stroke="black"/>
<path d="M475.332,117.947h 7.05827" fill="none" stroke="black"/>
<path d="M475.332,114.592h 7.05827" fill="none" stroke="black"/>
<path d="M475.332,111.754h 7.05827" fill="none" stroke="black"/>
<path d="M475.332,109.296h 7.05827" fill="none" stroke="black"/>
<path d="M475.332,107.128h 7.05827" fill="none" stroke="black"/>
<path d="M468.273,105.189h 14.1165" fill="none" stroke="black"/>
<path d="M475.332,92.4309h 7.05827" fill="none" stroke="black"/>
<path d="M475.332,84.9678h 7.05827" fill="none" stroke="black"/>
<path d="M475.332,79.6726h 7.05827" fill="none" stroke="black"/>
<path d="M475.332,75.5654h 7.05827" fill="none" stroke="black"/>
<path d="M475.332,72.2095h 7.05827" fill="none" stroke="black"/>
<path d="M475.332,69.3722h 7.05827" fill="none" stroke="black"/>
<path d="M475.332,66.9144h 7.05827" fill="none" stroke="black"/>
<path d="M475.332,64.7464h 7.05827" fill="none" stroke="black"/>
<path d="M468.273,62.8071h 14.1165" fill="none" stroke="black"/>
<path d="M475.332,50.0489h 7.05827" fill="none" stroke="black"/>
<path d="M475.332,42.5857h 7.05827" fill="none" stroke="black"/>
<path d="M475.332,37.2906h 7.05827" fill="none" stroke="black"/>
<path d="M475.332,33.1833h 7.05827" fill="none" stroke="black"/>
<path d="M475.332,29.8275h 7.05827" fill="none" stroke="black"/>
<path d="M475.332,26.9901h 7.05827" fill="none" stroke="black"/>
<path d="M475.332,24.5323h 7.05827" fill="none" stroke="black"/>
<path d="M475.332,22.3644h 7.05827" fill="none" stroke="black"/>
<path d="M468.273,20.4251h 14.1165" fill="none" stroke="black"/>
<path d="M85.5394,44.8182h 8.18187" fill="none" stroke="black"/>
<path d="M99.4047,44.8182h 8.18187" fill="none" stroke="black"/>
<g fill="black">
<polygon points=" 95.6157, 43.8709 95.6157, 41.9764 97.5102, 41.9764 97.5102, 43.8709 99.4047, 43.8709 99.4047, 45.7654 97.5102, 45.7654 97.5102, 47.6599 95.6157, 47.6599 95.6157, 45.7654 93.7212, 45.7654 93.7212, 43.8709"/>
</g>
<path d="M107.587,95.229h 19.2055" fill="none" stroke="black"/>
<path d="M132.476,95.229h 19.2055" fill="none" stroke="black"/>
<g fill="black">
<polygon points=" 128.687, 94.2817 128.687, 92.3872 130.581, 92.3872 130.581, 94.2817 132.476, 94.2817 132.476, 96.1762 130.581, 96.1762 130.581, 98.0707 128.687, 98.0707 128.687, 96.1762 126.792, 96.1762 126.792, 94.2817"/>
</g>
<path d="M151.681,152.476h 19.2055" fill="none" stroke="black"/>
<path d="M176.57,152.476h 19.2055" fill="none" stroke="black"/>
<g fill="black">
<polygon points=" 172.781, 151.528 172.781, 149.634 174.676, 149.634 174.676, 151.528 176.57, 151.528 176.57, 153.423 174.676, 153.423 174.676, 155.317 172.781, 155.317 172.781, 153.423 170.887, 153.423 170.887, 151.528"/>
</g>
<path d="M195.776,192.267h 19.2055" fill="none" stroke="black"/>
<path d="M220.665,192.267h 19.2055" fill="none" stroke="black"/>
<g fill="black">
<polygon points=" 216.876, 191.32 216.876, 189.426 218.77, 189.426 218.77, 191.32 220.665, 191.32 220.665, 193.215 218.77, 193.215 218.77, 195.109 216.876, 195.109 216.876, 193.215 214.981, 193.215 214.981, 191.32"/>
</g>
<path d="M239.87,222.197h 19.2055" fill="none" stroke="black"/>
<path d="M264.759,222.197h 19.2055" fill="none" stroke="black"/>
<g fill="black">
<polygon points=" 260.97, 221.25 260.97, 219.355 262.865, 219.355 262.865, 221.25 264.759, 221.25 264.759, 223.144 262.865, 223.144 262.865, 225.039 260.97, 225.039 260.97, 223.144 259.076, 223.144 259.076, 221.25"/>
</g>
<path d="M283.965,254.545h 41.2527" fill="none" stroke="black"/>
<path d="M330.901,254.545h 41.2527" fill="none" stroke="black"/>
<g fill="black">
<polygon points=" 327.112, 253.598 327.112, 251.704 329.006, 251.704 329.006, 253.598 330.901, 253.598 330.901, 255.493 329.006, 255.493 329.006, 257.387 327.112, 257.387 327.112, 255.493 325.217, 255.493 325.217, 253.598"/>
</g>
<path d="M372.154,296.671h 52.2764" fill="none" stroke="black"/>
<path d="M430.113,296.671h 52.2764" fill="none" stroke="black"/>
<g fill="black">
<polygon points=" 426.324, 295.724 426.324, 293.83 428.219, 293.83 428.219, 295.724 430.113, 295.724 430.113, 297.619 428.219, 297.619 428.219, 299.513 426.324, 299.513 426.324, 297.619 424.43, 297.619 424.43, 295.724"/>
</g>
<path d="M85.5394,47.1802h 8.18187" fill="none" stroke="#ffcc00"/>
<path d="M99.4047,47.1802h 8.18187" fill="none" stroke="#ffcc00"/>
<g fill="#ffcc00">
<polygon points=" 95.6157, 46.2329 95.6157, 44.3384 97.5102, 44.3384 97.5102, 46.2329 99.4047, 46.2329 99.4047, 48.1274 97.5102, 48.1274 97.5102, 50.0219 95.6157, 50.0219 95.6157, 48.1274 93.7212, 48.1274 93.7212, 46.2329"/>
</g>
<path d="M107.587,98.2833h 19.2055" fill="none" stroke="#ffcc00"/>
<path d="M132.476,98.2833h 19.2055" fill="none" stroke="#ffcc00"/>
<g fill="#ffcc00">
<polygon points=" 128.687, 97.3361 128.687, 95.4416 130.581, 95.4416 130.581, 97.3361 132.476, 97.3361 132.476, 99.2306 130.581, 99.2306 130.581, 101.125 128.687, 101.125 128.687, 99.2306 126.792, 99.2306 126.792, 97.3361"/>
</g>
<path d="M151.681,157.269h 19.2055" fill="none" stroke="#ffcc00"/>
<path d="M176.57,157.269h 19.2055" fill="none" stroke="#ffcc00"/>
<g fill="#ffcc00">
<polygon points=" 172.781, 156.322 172.781, 154.428 174.676, 154.428 174.676, 156.322 176.57, 156.322 176.57, 158.217 174.676, 158.217 174.676, 160.111 172.781, 160.111 172.781, 158.217 170.887, 158.217 170.887, 156.322"/>
</g>
<path d="M195.776,198.599h 19.2055" fill="none" stroke="#ffcc00"/>
<path d="M220.665,198.599h 19.2055" fill="none" stroke="#ffcc00"/>
<g fill="#ffcc00">
<polygon points=" 216.876, 197.652 216.876, 195.758 218.77, 195.758 218.77, 197.652 220.665, 197.652 220.665, 199.547 218.77, 199.547 218.77, 201.441 216.876, 201.441 216.876, 199.547 214.981, 199.547 214.981, 197.652"/>
</g>
<path d="M239.87,229.212h 19.2055" fill="none" stroke="#ffcc00"/>
<path d="M264.759,229.212h 19.2055" fill="none" stroke="#ffcc00"/>
<g fill="#ffcc00">
<polygon points=" 260.97, 228.265 260.97, 226.37 262.865, 226.37 262.865, 228.265 264.759, 228.265 264.759, 230.159 262.865, 230.159 262.865, 232.054 260.97, 232.054 260.97, 230.159 259.076, 230.159 259.076, 228.265"/>
</g>
<path d="M283.965,262.599h 41.2527" fill="none" stroke="#ffcc00"/>
<path d="M330.901,262.599h 41.2527" fill="none" stroke="#ffcc00"/>
<g fill="#ffcc00">
<polygon points=" 327.112, 261.651 327.112, 259.757 329.006, 259.757 329.006, 261.651 330.901, 261.651 330.901, 263.546 329.006, 263.546 329.006, 265.44 327.112, 265.44 327.112, 263.546 325.217, 263.546 325.217, 261.651"/>
</g>
<path d="M372.154,308.843h 52.2764" fill="none" stroke="#ffcc00"/>
<path d="M430.113,308.843h 52.2764" fill="none" stroke="#ffcc00"/>
<g fill="#ffcc00">
<polygon points=" 426.324, 307.896 426.324, 306.001 428.219, 306.001 428.219, 307.896 430.113, 307.896 430.113, 309.79 428.219, 309.79 428.219, 311.685 426.324, 311.685 426.324, 309.79 424.43, 309.79 424.43, 307.896"/>
</g>
<path d="M85.5394,46.0715h 8.18187" fill="none" stroke="#ff0000"/>
<path d="M99.4047,46.0715h 8.18187" fill="none" stroke="#ff0000"/>
<g fill="#ff0000">
<polygon points=" 95.6157, 45.1242 95.6157, 43.2297 97.5102, 43.2297 97.5102, 45.1242 99.4047, 45.1242 99.4047, 47.0187 97.5102, 47.0187 97.5102, 48.9132 95.6157, 48.9132 95.6157, 47.0187 93.7212, 47.0187 93.7212, 45.1242"/>
</g>
<path d="M107.587,96.8791h 19.2055" fill="none" stroke="#ff0000"/>
<path d="M132.476,96.8791h 19.2055" fill="none" stroke="#ff0000"/>
<g fill="#ff0000">
<polygon points=" 128.687, 95.9319 128.687, 94.0374 130.581, 94.0374 130.581, 95.9319 132.476, 95.9319 132.476, 97.8264 130.581, 97.8264 130.581, 99.7209 128.687, 99.7209 128.687, 97.8264 126.792, 97.8264 126.792, 95.9319"/>
</g>
<path d="M151.681,155.059h 19.2055" fill="none" stroke="#ff0000"/>
<path d="M176.57,155.059h 19.2055" fill="none" stroke="#ff0000"/>
<g fill="#ff0000">
<polygon points=" 172.781, 154.112 172.781, 152.218 174.676, 152.218 174.676, 154.112 176.57, 154.112 176.57, 156.007 174.676, 156.007 174.676, 157.901 172.781, 157.901 172.781, 156.007 170.887, 156.007 170.887, 154.112"/>
</g>
<path d="M195.776,195.644h 19.2055" fill="none" stroke="#ff0000"/>
<path d="M220.665,195.644h 19.2055" fill="none" stroke="#ff0000"/>
<g fill="#ff0000">
<polygon points=" 216.876, 194.697 216.876, 192.803 218.77, 192.803 218.77, 194.697 220.665, 194.697 220.665, 196.592 218.77, 196.592 218.77, 198.486 216.876, 198.486 216.876, 196.592 214.981, 196.592 214.981, 194.697"/>
</g>
<path d="M239.87,226.861h 19.2055" fill="none" stroke="#ff0000"/>
<path d="M264.759,226.861h 19.2055" fill="none" stroke="#ff0000"/>
<g fill="#ff0000">
<polygon points=" 260.97, 225.914 260.97, 224.02 262.865, 224.02 262.865, 225.914 264.759, 225.914 264.759, 227.809 262.865, 227.809 262.865, 229.703 260.97, 229.703 260.97, 227.809 259.076, 227.809 259.076, 225.914"/>
</g>
<path d="M283.965,259.045h 41.2527" fill="none" stroke="#ff0000"/>
<path d="M330.901,259.045h 41.2527" fill="none" stroke="#ff0000"/>
<g fill="#ff0000">
<polygon points=" 327.112, 258.098 327.112, 256.203 329.006, 256.203 329.006, 258.098 330.901, 258.098 330.901, 259.992 329.006, 259.992 329.006, 261.887 327.112, 261.887 327.112, 259.992 325.217, 259.992 325.217, 258.098"/>
</g>
<path d="M372.154,303.835h 52.2764" fill="none" stroke="#ff0000"/>
<path d="M430.113,303.835h 52.2764" fill="none" stroke="#ff0000"/>
<g fill="#ff0000">
<polygon points=" 426.324, 302.888 426.324, 300.994 428.219, 300.994 428.219, 302.888 430.113, 302.888 430.113, 304.783 428.219, 304.783 428.219, 306.677 426.324, 306.677 426.324, 304.783 424.43, 304.783 424.43, 302.888"/>
</g>
<path d="M85.5394,45.1076h 8.18187" fill="none" stroke="#ff0033"/>
<path d="M99.4047,45.1076h 8.18187" fill="none" stroke="#ff0033"/>
<g stroke="#ff0033" stroke-width="1" fill="none">
<polygon points=" 95.6157, 44.1603 95.6157, 42.2658 97.5102, 42.2658 97.5102, 44.1603 99.4047, 44.1603 99.4047, 46.0548 97.5102, 46.0548 97.5102, 47.9493 95.6157, 47.9493 95.6157, 46.0548 93.7212, 46.0548 93.7212, 44.1603"/>
</g>
<path d="M107.587,95.6731h 19.2055" fill="none" stroke="#ff0033"/>
<path d="M132.476,95.6731h 19.2055" fill="none" stroke="#ff0033"/>
<g stroke="#ff0033" stroke-width="1" fill="none">
<polygon points=" 128.687, 94.7259 128.687, 92.8314 130.581, 92.8314 130.581, 94.7259 132.476, 94.7259 132.476, 96.6204 130.581, 96.6204 130.581, 98.5149 128.687, 98.5149 128.687, 96.6204 126.792, 96.6204 126.792, 94.7259"/>
</g>
<path d="M151.681,153.328h 19.2055" fill="none" stroke="#ff0033"/>
<path d="M176.57,153.328h 19.2055" fill="none" stroke="#ff0033"/>
<g stroke="#ff0033" stroke-width="1" fill="none">
<polygon points=" 172.781, 152.381 172.781, 150.487 174.676, 150.487 174.676, 152.381 176.57, 152.381 176.57, 154.276 174.676, 154.276 174.676, 156.17 172.781, 156.17 172.781, 154.276 170.887, 154.276 170.887, 152.381"/>
</g>
<path d="M195.776,193.528h 19.2055" fill="none" stroke="#ff0033"/>
<path d="M220.665,193.528h 19.2055" fill="none" stroke="#ff0033"/>
<g stroke="#ff0033" stroke-width="1" fill="none">
<polygon points=" 216.876, 192.581 216.876, 190.686 218.77, 190.686 218.77, 192.581 220.665, 192.581 220.665, 194.475 218.77, 194.475 218.77, 196.37 216.876, 196.37 216.876, 194.475 214.981, 194.475 214.981, 192.581"/>
</g>
<path d="M239.87,223.553h 19.2055" fill="none" stroke="#ff0033"/>
<path d="M264.759,223.553h 19.2055" fill="none" stroke="#ff0033"/>
<g stroke="#ff0033" stroke-width="1" fill="none">
<polygon points=" 260.97, 222.606 260.97, 220.712 262.865, 220.712 262.865, 222.606 264.759, 222.606 264.759, 224.501 262.865, 224.501 262.865, 226.395 260.97, 226.395 260.97, 224.501 259.076, 224.501 259.076, 222.606"/>
</g>
<path d="M283.965,256.248h 41.2527" fill="none" stroke="#ff0033"/>
<path d="M330.901,256.248h 41.2527" fill="none" stroke="#ff0033"/>
<g stroke="#ff0033" stroke-width="1" fill="none">
<polygon points=" 327.112, 255.301 327.112, 253.407 329.006, 253.407 329.006, 255.301 330.901, 255.301 330.901, 257.196 329.006, 257.196 329.006, 259.09 327.112, 259.09 327.112, 257.196 325.217, 257.196 325.217, 255.301"/>
</g>
<path d="M372.154,300.099h 52.2764" fill="none" stroke="#ff0033"/>
<path d="M430.113,300.099h 52.2764" fill="none" stroke="#ff0033"/>
<g stroke="#ff0033" stroke-width="1" fill="none">
<polygon points=" 426.324, 299.152 426.324, 297.258 428.219, 297.258 428.219, 299.152 430.113, 299.152 430.113, 301.047 428.219, 301.047 428.219, 302.941 426.324, 302.941 426.324, 301.047 424.43, 301.047 424.43, 299.152"/>
</g>
<path d="M85.5394,43.9583h 9.60275" fill="none" stroke="#ff00ff"/>
<path d="M97.9839,43.9583h 9.60275" fill="none" stroke="#ff00ff"/>
<g stroke="#ff00ff" stroke-width="1" fill="none">
<polygon points=" 96.563, 45.3792 95.1421, 46.8 93.7212, 45.3792 95.1421, 43.9583 93.7212, 42.5374 95.1421, 41.1165 96.563, 42.5374 97.9839, 41.1165 99.4047, 42.5374 97.9839, 43.9583 99.4047, 45.3792 97.9839, 46.8 96.563, 45.3792"/>
</g>
<path d="M107.587,94.2077h 20.6264" fill="none" stroke="#ff00ff"/>
<path d="M131.055,94.2077h 20.6264" fill="none" stroke="#ff00ff"/>
<g stroke="#ff00ff" stroke-width="1" fill="none">
<polygon points=" 129.634, 95.6286 128.213, 97.0494 126.792, 95.6286 128.213, 94.2077 126.792, 92.7868 128.213, 91.3659 129.634, 92.7868 131.055, 91.3659 132.476, 92.7868 131.055, 94.2077 132.476, 95.6286 131.055, 97.0494 129.634, 95.6286"/>
</g>
<path d="M151.681,151.074h 20.6264" fill="none" stroke="#ff00ff"/>
<path d="M175.149,151.074h 20.6264" fill="none" stroke="#ff00ff"/>
<g stroke="#ff00ff" stroke-width="1" fill="none">
<polygon points=" 173.728, 152.495 172.307, 153.915 170.887, 152.495 172.307, 151.074 170.887, 149.653 172.307, 148.232 173.728, 149.653 175.149, 148.232 176.57, 149.653 175.149, 151.074 176.57, 152.495 175.149, 153.915 173.728, 152.495"/>
</g>
<path d="M195.776,190.853h 20.6264" fill="none" stroke="#ff00ff"/>
<path d="M219.244,190.853h 20.6264" fill="none" stroke="#ff00ff"/>
<g stroke="#ff00ff" stroke-width="1" fill="none">
<polygon points=" 217.823, 192.274 216.402, 193.695 214.981, 192.274 216.402, 190.853 214.981, 189.432 216.402, 188.011 217.823, 189.432 219.244, 188.011 220.665, 189.432 219.244, 190.853 220.665, 192.274 219.244, 193.695 217.823, 192.274"/>
</g>
<path d="M239.87,220.774h 20.6264" fill="none" stroke="#ff00ff"/>
<path d="M263.338,220.774h 20.6264" fill="none" stroke="#ff00ff"/>
<g stroke="#ff00ff" stroke-width="1" fill="none">
<polygon points=" 261.917, 222.195 260.496, 223.616 259.076, 222.195 260.496, 220.774 259.076, 219.353 260.496, 217.932 261.917, 219.353 263.338, 217.932 264.759, 219.353 263.338, 220.774 264.759, 222.195 263.338, 223.616 261.917, 222.195"/>
</g>
<path d="M283.965,253.132h 42.6736" fill="none" stroke="#ff00ff"/>
<path d="M329.48,253.132h 42.6736" fill="none" stroke="#ff00ff"/>
<g stroke="#ff00ff" stroke-width="1" fill="none">
<polygon points=" 328.059, 254.553 326.638, 255.974 325.217, 254.553 326.638, 253.132 325.217, 251.711 326.638, 250.29 328.059, 251.711 329.48, 250.29 330.901, 251.711 329.48, 253.132 330.901, 254.553 329.48, 255.974 328.059, 254.553"/>
</g>
<path d="M427.272,294.608v -0.0131755" fill="none" stroke="#ff00ff"/>
<path d="M372.154,293.174h 53.6972" fill="none" stroke="#ff00ff"/>
<path d="M428.693,293.174h 53.6972" fill="none" stroke="#ff00ff"/>
<g stroke="#ff00ff" stroke-width="1" fill="none">
<polygon points=" 427.272, 294.595 425.851, 296.016 424.43, 294.595 425.851, 293.174 424.43, 291.753 425.851, 290.332 427.272, 291.753 428.693, 290.332 430.113, 291.753 428.693, 293.174 430.113, 294.595 428.693, 296.016 427.272, 294.595"/>
</g>
<path d="M85.5394,42.9548h 8.18187" fill="none" stroke="#cc00ff"/>
<path d="M99.4047,42.9548h 8.18187" fill="none" stroke="#cc00ff"/>
<g stroke="#cc00ff" stroke-width="1" fill="none">
<polygon points=" 95.6157, 42.0076 95.6157, 40.1131 97.5102, 40.1131 97.5102, 42.0076 99.4047, 42.0076 99.4047, 43.9021 97.5102, 43.9021 97.5102, 45.7966 95.6157, 45.7966 95.6157, 43.9021 93.7212, 43.9021 93.7212, 42.0076"/>
</g>
<path d="M107.587,92.8897h 19.2055" fill="none" stroke="#cc00ff"/>
<path d="M132.476,92.8897h 19.2055" fill="none" stroke="#cc00ff"/>
<g stroke="#cc00ff" stroke-width="1" fill="none">
<polygon points=" 128.687, 91.9425 128.687, 90.048 130.581, 90.048 130.581, 91.9425 132.476, 91.9425 132.476, 93.837 130.581, 93.837 130.581, 95.7315 128.687, 95.7315 128.687, 93.837 126.792, 93.837 126.792, 91.9425"/>
</g>
<path d="M151.681,149.158h 19.2055" fill="none" stroke="#cc00ff"/>
<path d="M176.57,149.158h 19.2055" fill="none" stroke="#cc00ff"/>
<g stroke="#cc00ff" stroke-width="1" fill="none">
<polygon points=" 172.781, 148.21 172.781, 146.316 174.676, 146.316 174.676, 148.21 176.57, 148.21 176.57, 150.105 174.676, 150.105 174.676, 151.999 172.781, 151.999 172.781, 150.105 170.887, 150.105 170.887, 148.21"/>
</g>
<path d="M195.776,187.926h 19.2055" fill="none" stroke="#cc00ff"/>
<path d="M220.665,187.926h 19.2055" fill="none" stroke="#cc00ff"/>
<g stroke="#cc00ff" stroke-width="1" fill="none">
<polygon points=" 216.876, 186.979 216.876, 185.084 218.77, 185.084 218.77, 186.979 220.665, 186.979 220.665, 188.873 218.77, 188.873 218.77, 190.768 216.876, 190.768 216.876, 188.873 214.981, 188.873 214.981, 186.979"/>
</g>
<path d="M239.87,217.356h 19.2055" fill="none" stroke="#cc00ff"/>
<path d="M264.759,217.356h 19.2055" fill="none" stroke="#cc00ff"/>
<g stroke="#cc00ff" stroke-width="1" fill="none">
<polygon points=" 260.97, 216.409 260.97, 214.514 262.865, 214.514 262.865, 216.409 264.759, 216.409 264.759, 218.303 262.865, 218.303 262.865, 220.198 260.97, 220.198 260.97, 218.303 259.076, 218.303 259.076, 216.409"/>
</g>
<path d="M283.965,248.891h 41.2527" fill="none" stroke="#cc00ff"/>
<path d="M330.901,248.891h 41.2527" fill="none" stroke="#cc00ff"/>
<g stroke="#cc00ff" stroke-width="1" fill="none">
<polygon points=" 327.112, 247.944 327.112, 246.05 329.006, 246.05 329.006, 247.944 330.901, 247.944 330.901, 249.839 329.006, 249.839 329.006, 251.733 327.112, 251.733 327.112, 249.839 325.217, 249.839 325.217, 247.944"/>
</g>
<path d="M372.154,289.491h 52.2764" fill="none" stroke="#cc00ff"/>
<path d="M430.113,289.491h 52.2764" fill="none" stroke="#cc00ff"/>
<g stroke="#cc00ff" stroke-width="1" fill="none">
<polygon points=" 426.324, 288.544 426.324, 286.65 428.219, 286.65 428.219, 288.544 430.113, 288.544 430.113, 290.439 428.219, 290.439 428.219, 292.333 426.324, 292.333 426.324, 290.439 424.43, 290.439 424.43, 288.544"/>
</g>
<text xml:space="preserve" x="232.813" y="51.8619" fill="black" font-size="15.4909" font-family="Helvetica">PYTHIA8, pAu200GeV with option3</text>
<text xml:space="preserve" x="278.281" y="66.7811" fill="black" font-size="15.4909" font-family="Helvetica">|&lt;1</text>
<text xml:space="preserve" x="269.756" y="66.7811" fill="black" font-size="15.4909" font-family="Times">&#0951;</text>
<text xml:space="preserve" x="247.022" y="66.7811" fill="black" font-size="15.4909" font-family="Helvetica"> in |</text>
<text xml:space="preserve" x="241.338" y="61.0976" fill="black" font-size="10.4939" font-family="Helvetica">0</text>
<text xml:space="preserve" x="232.813" y="66.7811" fill="black" font-size="15.4909" font-family="Times">&#0960;</text>
<text xml:space="preserve" x="283.965" y="82.4108" fill="black" font-size="15.4909" font-family="Helvetica">inelastic events(MB)</text>
<g fill="black">
<polygon points=" 254.671, 78.1999 254.671, 76.3054 256.565, 76.3054 256.565, 78.1999 258.46, 78.1999 258.46, 80.0944 256.565, 80.0944 256.565, 81.9889 254.671, 81.9889 254.671, 80.0944 252.776, 80.0944 252.776, 78.1999"/>
</g>
<text xml:space="preserve" x="283.965" y="97.3299" fill="black" font-size="15.4909" font-family="Helvetica">centrality: 0~10%</text>
<g fill="#ffcc00">
<polygon points=" 254.671, 93.5187 254.671, 91.6242 256.565, 91.6242 256.565, 93.5187 258.46, 93.5187 258.46, 95.4132 256.565, 95.4132 256.565, 97.3077 254.671, 97.3077 254.671, 95.4132 252.776, 95.4132 252.776, 93.5187"/>
</g>
<text xml:space="preserve" x="283.965" y="112.96" fill="black" font-size="15.4909" font-family="Helvetica">centrality: 10~20%</text>
<g fill="#ff0000">
<polygon points=" 254.671, 108.838 254.671, 106.943 256.565, 106.943 256.565, 108.838 258.46, 108.838 258.46, 110.732 256.565, 110.732 256.565, 112.627 254.671, 112.627 254.671, 110.732 252.776, 110.732 252.776, 108.838"/>
</g>
<text xml:space="preserve" x="283.965" y="127.879" fill="black" font-size="15.4909" font-family="Helvetica">centrality: 20~40%</text>
<g stroke="#ff0033" stroke-width="1" fill="none">
<polygon points=" 254.671, 124.156 254.671, 122.262 256.565, 122.262 256.565, 124.156 258.46, 124.156 258.46, 126.051 256.565, 126.051 256.565, 127.945 254.671, 127.945 254.671, 126.051 252.776, 126.051 252.776, 124.156"/>
</g>
<text xml:space="preserve" x="283.965" y="143.508" fill="black" font-size="15.4909" font-family="Helvetica">centrality: 40~60%</text>
<g stroke="#ff00ff" stroke-width="1" fill="none">
<polygon points=" 255.618, 141.843 254.197, 143.264 252.776, 141.843 254.197, 140.422 252.776, 139.002 254.197, 137.581 255.618, 139.002 257.039, 137.581 258.46, 139.002 257.039, 140.422 258.46, 141.843 257.039, 143.264 255.618, 141.843"/>
</g>
<text xml:space="preserve" x="283.965" y="159.138" fill="black" font-size="15.4909" font-family="Helvetica">centrality: 60~80%</text>
<g stroke="#cc00ff" stroke-width="1" fill="none">
<polygon points=" 254.671, 154.794 254.671, 152.899 256.565, 152.899 256.565, 154.794 258.46, 154.794 258.46, 156.688 256.565, 156.688 256.565, 158.583 254.671, 158.583 254.671, 156.688 252.776, 156.688 252.776, 154.794"/>
</g></svg>
