<svg width="800" height="513" xmlns="http://www.w3.org/2000/svg"><path d="M0,0H800V513H0Z" style="pointer-events: visiblefill; fill: rgb(255, 255, 255);"></path><g><g transform="translate(96,26)"><title></title><path d="M0,0H608V426H0Z" style="fill: rgb(255, 255, 255); stroke: rgb(0, 0, 0); stroke-width: 1; pointer-events: visiblefill; cursor: default;"></path><svg x="0" y="0" overflow="hidden" width="608" height="426" viewBox="0 0 608 426" style="pointer-events: visiblefill; cursor: default;"><g><path d="M0,302h76M38,302v0M76,284h76M114,284v0M152,273h76M190,273v0M228,262h76M266,262v0M304,251h76M342,251v0M380,240h76M418,240v0M456,230h76M494,230v0M532,222h76M570,222v0M608,217h76M646,217v0M684,204h76M722,204v0M760,220h76M798,220v0" style="stroke: rgb(255, 204, 0); stroke-width: 1;"></path><path d="M0,302h76v0h-76zM76,284h76v0h-76zM152,273h76v0h-76zM228,262h76v0h-76zM304,251h76v0h-76zM380,240h76v0h-76zM456,230h76v0h-76zM532,222h76v0h-76zM608,217h76v0h-76zM684,204h76v0h-76zM760,220h76v0h-76z" style="fill: none; pointer-events: visiblefill;"></path><path d="M39,303h3v-3h-3v-3h-3v3h-3v3h3v3h3zM115,285h3v-3h-3v-3h-3v3h-3v3h3v3h3zM191,274h3v-3h-3v-3h-3v3h-3v3h3v3h3zM267,263h3v-3h-3v-3h-3v3h-3v3h3v3h3zM343,252h3v-3h-3v-3h-3v3h-3v3h3v3h3zM419,241h3v-3h-3v-3h-3v3h-3v3h3v3h3zM495,231h3v-3h-3v-3h-3v3h-3v3h3v3h3zM571,223h3v-3h-3v-3h-3v3h-3v3h3v3h3zM647,218h3v-3h-3v-3h-3v3h-3v3h3v3h3zM723,205h3v-3h-3v-3h-3v3h-3v3h3v3h3zM799,221h3v-3h-3v-3h-3v3h-3v3h3v3h3z" style="stroke: rgb(255, 204, 0); fill: rgb(255, 204, 0);"></path></g><g><path d="M0,325h76M38,325v0M76,298h76M114,298v0M152,281h76M190,280v1M228,265h76M266,264v1M304,249h76M342,249v0M380,232h76M418,232v0M456,214h76M494,214v1M532,197h76M570,196v1M608,179h76M646,179v0M684,152h76M722,151v1M760,150h76M798,150v1" style="stroke: rgb(255, 0, 0); stroke-width: 1;"></path><path d="M0,325h76v0h-76zM76,298h76v0h-76zM152,280h76v1h-76zM228,264h76v1h-76zM304,249h76v0h-76zM380,232h76v0h-76zM456,214h76v1h-76zM532,196h76v1h-76zM608,179h76v0h-76zM684,151h76v1h-76zM760,150h76v1h-76z" style="fill: none; pointer-events: visiblefill;"></path><path d="M39,326h3v-3h-3v-3h-3v3h-3v3h3v3h3zM115,299h3v-3h-3v-3h-3v3h-3v3h3v3h3zM191,282h3v-3h-3v-3h-3v3h-3v3h3v3h3zM267,266h3v-3h-3v-3h-3v3h-3v3h3v3h3zM343,250h3v-3h-3v-3h-3v3h-3v3h3v3h3zM419,233h3v-3h-3v-3h-3v3h-3v3h3v3h3zM495,215h3v-3h-3v-3h-3v3h-3v3h3v3h3zM571,198h3v-3h-3v-3h-3v3h-3v3h3v3h3zM647,180h3v-3h-3v-3h-3v3h-3v3h3v3h3zM723,153h3v-3h-3v-3h-3v3h-3v3h3v3h3zM799,151h3v-3h-3v-3h-3v3h-3v3h3v3h3z" style="stroke: rgb(255, 0, 0); fill: rgb(255, 0, 0);"></path></g><g><path d="M0,359h76M38,358v1M76,320h76M114,319v1M152,295h76M190,295v1M228,271h76M266,271v1M304,248h76M342,247v1M380,220h76M418,220v1M456,191h76M494,191v1M532,158h76M570,157v2M608,113h76M646,111v3M684,57h76M722,55v4M760,19h76M798,17v4" style="stroke: rgb(255, 0, 51); stroke-width: 1;"></path><path d="M0,358h76v1h-76zM76,319h76v1h-76zM152,295h76v1h-76zM228,271h76v1h-76zM304,247h76v1h-76zM380,220h76v1h-76zM456,191h76v1h-76zM532,157h76v2h-76zM608,111h76v3h-76zM684,55h76v4h-76zM760,17h76v4h-76z" style="fill: none; pointer-events: visiblefill;"></path><path d="M39,360h3v-3h-3v-3h-3v3h-3v3h3v3h3zM115,321h3v-3h-3v-3h-3v3h-3v3h3v3h3zM191,296h3v-3h-3v-3h-3v3h-3v3h3v3h3zM267,272h3v-3h-3v-3h-3v3h-3v3h3v3h3zM343,249h3v-3h-3v-3h-3v3h-3v3h3v3h3zM419,221h3v-3h-3v-3h-3v3h-3v3h3v3h3zM495,192h3v-3h-3v-3h-3v3h-3v3h3v3h3zM571,159h3v-3h-3v-3h-3v3h-3v3h3v3h3zM647,114h3v-3h-3v-3h-3v3h-3v3h3v3h3zM723,58h3v-3h-3v-3h-3v3h-3v3h3v3h3zM799,20h3v-3h-3v-3h-3v3h-3v3h3v3h3z" style="stroke: rgb(255, 0, 51); fill: none;"></path></g><g><path d="M0,382h76M38,380v3M76,336h76M114,335v2M152,303h76M190,301v4M228,276h76M266,274v3M304,246h76M342,244v4M380,211h76M418,209v4M456,177h76M494,175v5M532,134h76M570,131v6M608,74h76M646,71v7M684,-6h76M722,-12v12M760,-85h76M798,-92v15" style="stroke: rgb(255, 0, 255); stroke-width: 1;"></path><path d="M0,380h76v3h-76zM76,335h76v2h-76zM152,301h76v4h-76zM228,274h76v3h-76zM304,244h76v4h-76zM380,209h76v4h-76zM456,175h76v5h-76zM532,131h76v6h-76zM608,71h76v7h-76zM684,-12h76v12h-76zM760,-92h76v15h-76z" style="fill: none; pointer-events: visiblefill;"></path><path d="M36,378l2,2l2,-2l2,2l-2,2l2,2l-2,2l-2,-2l-2,2l-2,-2l2,-2l-2,-2zM112,332l2,2l2,-2l2,2l-2,2l2,2l-2,2l-2,-2l-2,2l-2,-2l2,-2l-2,-2zM188,299l2,2l2,-2l2,2l-2,2l2,2l-2,2l-2,-2l-2,2l-2,-2l2,-2l-2,-2zM264,272l2,2l2,-2l2,2l-2,2l2,2l-2,2l-2,-2l-2,2l-2,-2l2,-2l-2,-2zM340,242l2,2l2,-2l2,2l-2,2l2,2l-2,2l-2,-2l-2,2l-2,-2l2,-2l-2,-2zM416,207l2,2l2,-2l2,2l-2,2l2,2l-2,2l-2,-2l-2,2l-2,-2l2,-2l-2,-2zM492,173l2,2l2,-2l2,2l-2,2l2,2l-2,2l-2,-2l-2,2l-2,-2l2,-2l-2,-2zM568,130l2,2l2,-2l2,2l-2,2l2,2l-2,2l-2,-2l-2,2l-2,-2l2,-2l-2,-2zM644,70l2,2l2,-2l2,2l-2,2l2,2l-2,2l-2,-2l-2,2l-2,-2l2,-2l-2,-2zM720,-10l2,2l2,-2l2,2l-2,2l2,2l-2,2l-2,-2l-2,2l-2,-2l2,-2l-2,-2zM796,-89l2,2l2,-2l2,2l-2,2l2,2l-2,2l-2,-2l-2,2l-2,-2l2,-2l-2,-2z" style="stroke: rgb(255, 0, 255); fill: rgb(255, 0, 255);"></path></g><g><path d="M0,394h76M38,390v9M76,352h76M114,346v11M152,311h76M190,305v12M228,279h76M266,272v14M304,250h76M342,242v15M380,205h76M418,196v17M456,153h76M494,143v20M532,105h76M570,93v23M608,61h76M646,47v28M684,-26h76M722,-49v47M760,-182h76M798,-214v63" style="stroke: rgb(204, 0, 255); stroke-width: 1;"></path><path d="M0,390h76v9h-76zM76,346h76v11h-76zM152,305h76v12h-76zM228,272h76v14h-76zM304,242h76v15h-76zM380,196h76v17h-76zM456,143h76v20h-76zM532,93h76v23h-76zM608,47h76v28h-76zM684,-49h76v47h-76zM760,-214h76v63h-76z" style="fill: none; pointer-events: visiblefill;"></path><path d="M39,395h3v-3h-3v-3h-3v3h-3v3h3v3h3zM115,353h3v-3h-3v-3h-3v3h-3v3h3v3h3zM191,312h3v-3h-3v-3h-3v3h-3v3h3v3h3zM267,280h3v-3h-3v-3h-3v3h-3v3h3v3h3zM343,251h3v-3h-3v-3h-3v3h-3v3h3v3h3zM419,206h3v-3h-3v-3h-3v3h-3v3h3v3h3zM495,154h3v-3h-3v-3h-3v3h-3v3h3v3h3zM571,106h3v-3h-3v-3h-3v3h-3v3h3v3h3zM647,62h3v-3h-3v-3h-3v3h-3v3h3v3h3zM723,-25h3v-3h-3v-3h-3v3h-3v3h3v3h3zM799,-181h3v-3h-3v-3h-3v3h-3v3h3v3h3z" style="stroke: rgb(204, 0, 255); fill: none;"></path></g></svg><g><g transform="translate(0,426)"><path d="M0,0h608M0,-426h608M0,-15V0M15,-8V0M30,-8V0M46,-8V0M61,-8V0M76,-15V0M91,-8V0M106,-8V0M122,-8V0M137,-8V0M152,-15V0M167,-8V0M182,-8V0M198,-8V0M213,-8V0M228,-15V0M243,-8V0M258,-8V0M274,-8V0M289,-8V0M304,-15V0M319,-8V0M334,-8V0M350,-8V0M365,-8V0M380,-15V0M395,-8V0M410,-8V0M426,-8V0M441,-8V0M456,-15V0M471,-8V0M486,-8V0M502,-8V0M517,-8V0M532,-15V0M547,-8V0M562,-8V0M578,-8V0M593,-8V0M608,-15V0M0,-411V-426M15,-418V-426M30,-418V-426M46,-418V-426M61,-418V-426M76,-411V-426M91,-418V-426M106,-418V-426M122,-418V-426M137,-418V-426M152,-411V-426M167,-418V-426M182,-418V-426M198,-418V-426M213,-418V-426M228,-411V-426M243,-418V-426M258,-418V-426M274,-418V-426M289,-418V-426M304,-411V-426M319,-418V-426M334,-418V-426M350,-418V-426M365,-418V-426M380,-411V-426M395,-418V-426M410,-418V-426M426,-418V-426M441,-418V-426M456,-411V-426M471,-418V-426M486,-418V-426M502,-418V-426M517,-418V-426M532,-411V-426M547,-418V-426M562,-418V-426M578,-418V-426M593,-418V-426M608,-411V-426" style="stroke: rgb(0, 0, 0); stroke-width: 1;"></path><g font-family="Arial" font-size="18" xml:space="preserve" fill="#000000" text-anchor="middle"><text dy=".8em" transform="translate(0,3)">0</text><text dy=".8em" transform="translate(76,3)">10</text><text dy=".8em" transform="translate(152,3)">20</text><text dy=".8em" transform="translate(228,3)">30</text><text dy=".8em" transform="translate(304,3)">40</text><text dy=".8em" transform="translate(380,3)">50</text><text dy=".8em" transform="translate(456,3)">60</text><text dy=".8em" transform="translate(532,3)">70</text><text dy=".8em" transform="translate(608,3)">80</text></g><rect x="0" y="0" width="608" height="21" style="opacity: 0; cursor: crosshair;"></rect><g font-family="Arial" font-size="18" xml:space="preserve" transform="translate(608,29)" style="cursor: move;"><text fill="#000000" text-anchor="end" dominant-baseline="middle">centrality(%)</text></g></g><g><path d="M0,0v426M608,0v426M12,426H0M12,410H0M24,393H0M12,377H0M12,360H0M12,344H0M24,328H0M12,311H0M12,295H0M12,279H0M24,262H0M12,246H0M12,229H0M12,213H0M24,197H0M12,180H0M12,164H0M12,147H0M24,131H0M12,115H0M12,98H0M12,82H0M24,66H0M12,49H0M12,33H0M12,16H0M24,0H0M596,426H608M596,410H608M584,393H608M596,377H608M596,360H608M596,344H608M584,328H608M596,311H608M596,295H608M596,279H608M584,262H608M596,246H608M596,229H608M596,213H608M584,197H608M596,180H608M596,164H608M596,147H608M584,131H608M596,115H608M596,98H608M596,82H608M584,66H608M596,49H608M596,33H608M596,16H608M584,0H608" style="stroke: rgb(0, 0, 0); stroke-width: 1;"></path><g font-family="Arial" font-size="18" xml:space="preserve" fill="#000000" text-anchor="end"><text dominant-baseline="middle" transform="translate(-4,393)">0.06</text><text dominant-baseline="middle" transform="translate(-4,328)">0.08</text><text dominant-baseline="middle" transform="translate(-4,262)">0.1</text><text dominant-baseline="middle" transform="translate(-4,197)">0.12</text><text dominant-baseline="middle" transform="translate(-4,131)">0.14</text><text dominant-baseline="middle" transform="translate(-4,66)">0.16</text><text dominant-baseline="middle" transform="translate(-4)">0.18</text></g><rect x="-38" y="0" width="38" height="426" style="opacity: 0; cursor: crosshair;"></rect><g font-family="Arial" font-size="18" xml:space="preserve" transform="translate(-55)" style="cursor: move;"><g transform="rotate(270) translate(-136,8)"><text fill="#000000" font-size="18">π</text><text fill="#000000" font-size="11" transform="translate(13,-10)">0</text><text fill="#000000" font-size="18" x="26">centrality bias</text></g></g></g></g><path d="M2,2h15v-5h-20v20h5Z" style="opacity: 0; cursor: nw-resize;"></path><path d="M606,2h-15v-5h20v20h-5 Z" style="opacity: 0; cursor: ne-resize;"></path><path d="M2,424h15v5h-20v-20h5Z" style="opacity: 0; cursor: sw-resize;"></path><path d="M606,424h-15v5h20v-20h-5Z" style="opacity: 0; cursor: se-resize;"></path><path d="M-3,18h5v390h-5Z" style="opacity: 0; cursor: w-resize;"></path><path d="M611,18h-5v390h5Z" style="opacity: 0; cursor: e-resize;"></path><path d="M18,-3v5h572v-5Z" style="opacity: 0; cursor: n-resize;"></path><path d="M18,429v-5h572v5Z" style="opacity: 0; cursor: s-resize;"></path></g><g transform="translate(120,51)" font-family="Arial" font-size="19" xml:space="preserve" style="cursor: move;"><path d="M0,0H288V154H0Z" style="fill: none; pointer-events: visiblefill;"></path><text fill="#000000" text-anchor="start" dominant-baseline="middle" transform="translate(9,15)">PYTHIA8, pAu200GeV with option3</text><g transform="translate(9,44)"><text fill="#000000" font-size="19">π</text><text fill="#000000" font-size="11" transform="translate(14,-11)">0</text><text fill="#000000" font-size="19" x="28">in |η|&lt;1</text></g><path d="M37,57h3v-3h-3v-3h-3v3h-3v3h3v3h3z" style="stroke: rgb(255, 204, 0); fill: rgb(255, 204, 0);"></path><g transform="translate(72,61)"><text fill="#000000" font-size="19">p</text><text fill="#000000" font-size="11" transform="translate(11,4)">T</text><text fill="#000000" font-size="19" x="17">: 2~4 GeV/c</text></g><path d="M37,78h3v-3h-3v-3h-3v3h-3v3h3v3h3z" style="stroke: rgb(255, 0, 0); fill: rgb(255, 0, 0);"></path><g transform="translate(72,82)"><text fill="#000000" font-size="19">p</text><text fill="#000000" font-size="11" transform="translate(11,4)">T</text><text fill="#000000" font-size="19" x="17">: 4~7 GeV/c</text></g><path d="M37,99h3v-3h-3v-3h-3v3h-3v3h3v3h3z" style="stroke: rgb(255, 0, 51); fill: none;"></path><g transform="translate(72,102)"><text fill="#000000" font-size="19">p</text><text fill="#000000" font-size="11" transform="translate(11,4)">T</text><text fill="#000000" font-size="19" x="17">: 7~10 GeV/c</text></g><path d="M34,114l2,2l2,-2l2,2l-2,2l2,2l-2,2l-2,-2l-2,2l-2,-2l2,-2l-2,-2z" style="stroke: rgb(255, 0, 255); fill: rgb(255, 0, 255);"></path><g transform="translate(72,123)"><text fill="#000000" font-size="19">p</text><text fill="#000000" font-size="11" transform="translate(11,4)">T</text><text fill="#000000" font-size="19" x="17">: 10~15 GeV/c</text></g><path d="M37,140h3v-3h-3v-3h-3v3h-3v3h3v3h3z" style="stroke: rgb(204, 0, 255); fill: none;"></path><g transform="translate(72,143)"><text fill="#000000" font-size="19">p</text><text fill="#000000" font-size="11" transform="translate(11,4)">T</text><text fill="#000000" font-size="19" x="17">: 15~20 GeV/c</text></g><path d="M2,2h15v-5h-20v20h5Z" style="opacity: 0; cursor: nw-resize;"></path><path d="M286,2h-15v-5h20v20h-5 Z" style="opacity: 0; cursor: ne-resize;"></path><path d="M2,152h15v5h-20v-20h5Z" style="opacity: 0; cursor: sw-resize;"></path><path d="M286,152h-15v5h20v-20h-5Z" style="opacity: 0; cursor: se-resize;"></path><path d="M-3,18h5v118h-5Z" style="opacity: 0; cursor: w-resize;"></path><path d="M291,18h-5v118h5Z" style="opacity: 0; cursor: e-resize;"></path><path d="M18,-3v5h252v-5Z" style="opacity: 0; cursor: n-resize;"></path><path d="M18,157v-5h252v5Z" style="opacity: 0; cursor: s-resize;"></path></g></g></svg>