<svg width="800" height="513" xmlns="http://www.w3.org/2000/svg"><path d="M0,0H800V513H0Z" style="pointer-events: visiblefill; fill: rgb(255, 255, 255);"></path><g><g transform="translate(96,26)"><title></title><path d="M0,0H608V426H0Z" style="fill: rgb(255, 255, 255); stroke: rgb(0, 0, 0); stroke-width: 1; pointer-events: visiblefill; cursor: default;"></path><svg x="0" y="0" overflow="hidden" width="608" height="426" viewBox="0 0 608 426" style="pointer-events: visiblefill; cursor: default;"><g><path d="M0,323h76M38,323v0M76,299h76M114,299v0M152,284h76M190,284v0M228,269h76M266,268v1M304,253h76M342,253v0M380,236h76M418,235v1M456,216h76M494,216v1M532,195h76M570,194v1M608,168h76M646,167v1M684,133h76M722,133v1M760,105h76M798,105v1" style="stroke: rgb(0, 204, 0); stroke-width: 1;"></path><path d="M0,323h76v0h-76zM76,299h76v0h-76zM152,284h76v0h-76zM228,268h76v1h-76zM304,253h76v0h-76zM380,235h76v1h-76zM456,216h76v1h-76zM532,194h76v1h-76zM608,167h76v1h-76zM684,133h76v1h-76zM760,105h76v1h-76z" style="fill: none; pointer-events: visiblefill;"></path><path d="M39,324h3v-3h-3v-3h-3v3h-3v3h3v3h3zM115,300h3v-3h-3v-3h-3v3h-3v3h3v3h3zM191,285h3v-3h-3v-3h-3v3h-3v3h3v3h3zM267,270h3v-3h-3v-3h-3v3h-3v3h3v3h3zM343,254h3v-3h-3v-3h-3v3h-3v3h3v3h3zM419,237h3v-3h-3v-3h-3v3h-3v3h3v3h3zM495,217h3v-3h-3v-3h-3v3h-3v3h3v3h3zM571,196h3v-3h-3v-3h-3v3h-3v3h3v3h3zM647,169h3v-3h-3v-3h-3v3h-3v3h3v3h3zM723,134h3v-3h-3v-3h-3v3h-3v3h3v3h3zM799,106h3v-3h-3v-3h-3v3h-3v3h3v3h3z" style="stroke: rgb(0, 204, 0); fill: rgb(0, 204, 0);"></path></g><g><path d="M0,338h76M38,337v1M76,308h76M114,308v1M152,290h76M190,289v1M228,270h76M266,269v2M304,252h76M342,251v1M380,229h76M418,229v1M456,206h76M494,205v1M532,179h76M570,178v2M608,145h76M646,144v2M684,98h76M722,96v3M760,57h76M798,55v4" style="stroke: rgb(51, 255, 153); stroke-width: 1;"></path><path d="M0,337h76v1h-76zM76,308h76v1h-76zM152,289h76v1h-76zM228,269h76v2h-76zM304,251h76v1h-76zM380,229h76v1h-76zM456,205h76v1h-76zM532,178h76v2h-76zM608,144h76v2h-76zM684,96h76v3h-76zM760,55h76v4h-76z" style="fill: none; pointer-events: visiblefill;"></path><path d="M39,339h3v-3h-3v-3h-3v3h-3v3h3v3h3zM115,309h3v-3h-3v-3h-3v3h-3v3h3v3h3zM191,291h3v-3h-3v-3h-3v3h-3v3h3v3h3zM267,271h3v-3h-3v-3h-3v3h-3v3h3v3h3zM343,253h3v-3h-3v-3h-3v3h-3v3h3v3h3zM419,230h3v-3h-3v-3h-3v3h-3v3h3v3h3zM495,207h3v-3h-3v-3h-3v3h-3v3h3v3h3zM571,180h3v-3h-3v-3h-3v3h-3v3h3v3h3zM647,146h3v-3h-3v-3h-3v3h-3v3h3v3h3zM723,99h3v-3h-3v-3h-3v3h-3v3h3v3h3zM799,58h3v-3h-3v-3h-3v3h-3v3h3v3h3z" style="stroke: rgb(51, 255, 153); fill: rgb(51, 255, 153);"></path></g><g><path d="M0,359h76M38,358v3M76,321h76M114,319v3M152,295h76M190,293v3M228,277h76M266,274v5M304,250h76M342,248v4M380,222h76M418,219v5M456,191h76M494,188v6M532,154h76M570,150v7M608,112h76M646,108v8M684,48h76M722,41v14M760,-24h76M798,-33v17" style="stroke: rgb(0, 204, 204); stroke-width: 1;"></path><path d="M0,358h76v3h-76zM76,319h76v3h-76zM152,293h76v3h-76zM228,274h76v5h-76zM304,248h76v4h-76zM380,219h76v5h-76zM456,188h76v6h-76zM532,150h76v7h-76zM608,108h76v8h-76zM684,41h76v14h-76zM760,-33h76v17h-76z" style="fill: none; pointer-events: visiblefill;"></path><path d="M39,360h3v-3h-3v-3h-3v3h-3v3h3v3h3zM115,322h3v-3h-3v-3h-3v3h-3v3h3v3h3zM191,296h3v-3h-3v-3h-3v3h-3v3h3v3h3zM267,278h3v-3h-3v-3h-3v3h-3v3h3v3h3zM343,251h3v-3h-3v-3h-3v3h-3v3h3v3h3zM419,223h3v-3h-3v-3h-3v3h-3v3h3v3h3zM495,192h3v-3h-3v-3h-3v3h-3v3h3v3h3zM571,155h3v-3h-3v-3h-3v3h-3v3h3v3h3zM647,113h3v-3h-3v-3h-3v3h-3v3h3v3h3zM723,49h3v-3h-3v-3h-3v3h-3v3h3v3h3zM799,-23h3v-3h-3v-3h-3v3h-3v3h3v3h3z" style="stroke: rgb(0, 204, 204); fill: none;"></path></g><g><path d="M0,376h76M38,373v6M76,334h76M114,331v7M152,295h76M190,291v8M228,275h76M266,271v9M304,245h76M342,240v10M380,212h76M418,207v11M456,188h76M494,182v13M532,142h76M570,134v16M608,81h76M646,72v19M684,20h76M722,4v31M760,-77h76M798,-97v40" style="stroke: rgb(0, 51, 255); stroke-width: 1;"></path><path d="M0,373h76v6h-76zM76,331h76v7h-76zM152,291h76v8h-76zM228,271h76v9h-76zM304,240h76v10h-76zM380,207h76v11h-76zM456,182h76v13h-76zM532,134h76v16h-76zM608,72h76v19h-76zM684,4h76v31h-76zM760,-97h76v40h-76z" style="fill: none; pointer-events: visiblefill;"></path><path d="M36,372l2,2l2,-2l2,2l-2,2l2,2l-2,2l-2,-2l-2,2l-2,-2l2,-2l-2,-2zM112,330l2,2l2,-2l2,2l-2,2l2,2l-2,2l-2,-2l-2,2l-2,-2l2,-2l-2,-2zM188,291l2,2l2,-2l2,2l-2,2l2,2l-2,2l-2,-2l-2,2l-2,-2l2,-2l-2,-2zM264,271l2,2l2,-2l2,2l-2,2l2,2l-2,2l-2,-2l-2,2l-2,-2l2,-2l-2,-2zM340,241l2,2l2,-2l2,2l-2,2l2,2l-2,2l-2,-2l-2,2l-2,-2l2,-2l-2,-2zM416,208l2,2l2,-2l2,2l-2,2l2,2l-2,2l-2,-2l-2,2l-2,-2l2,-2l-2,-2zM492,184l2,2l2,-2l2,2l-2,2l2,2l-2,2l-2,-2l-2,2l-2,-2l2,-2l-2,-2zM568,138l2,2l2,-2l2,2l-2,2l2,2l-2,2l-2,-2l-2,2l-2,-2l2,-2l-2,-2zM644,77l2,2l2,-2l2,2l-2,2l2,2l-2,2l-2,-2l-2,2l-2,-2l2,-2l-2,-2zM720,16l2,2l2,-2l2,2l-2,2l2,2l-2,2l-2,-2l-2,2l-2,-2l2,-2l-2,-2zM796,-81l2,2l2,-2l2,2l-2,2l2,2l-2,2l-2,-2l-2,2l-2,-2l2,-2l-2,-2z" style="stroke: rgb(0, 51, 255); fill: rgb(0, 51, 255);"></path></g><g><path d="M0,404h76M38,395v18M76,345h76M114,333v23M152,324h76M190,311v26M228,261h76M266,247v29M304,232h76M342,215v33M380,184h76M418,165v38M456,173h76M494,152v42M532,136h76M570,111v49M608,60h76M646,30v61M684,-55h76M722,-107v103M760,-123h76M798,-187v128" style="stroke: rgb(0, 0, 255); stroke-width: 1;"></path><path d="M0,395h76v18h-76zM76,333h76v23h-76zM152,311h76v26h-76zM228,247h76v29h-76zM304,215h76v33h-76zM380,165h76v38h-76zM456,152h76v42h-76zM532,111h76v49h-76zM608,30h76v61h-76zM684,-107h76v103h-76zM760,-187h76v128h-76z" style="fill: none; pointer-events: visiblefill;"></path><path d="M39,405h3v-3h-3v-3h-3v3h-3v3h3v3h3zM115,346h3v-3h-3v-3h-3v3h-3v3h3v3h3zM191,325h3v-3h-3v-3h-3v3h-3v3h3v3h3zM267,262h3v-3h-3v-3h-3v3h-3v3h3v3h3zM343,233h3v-3h-3v-3h-3v3h-3v3h3v3h3zM419,185h3v-3h-3v-3h-3v3h-3v3h3v3h3zM495,174h3v-3h-3v-3h-3v3h-3v3h3v3h3zM571,137h3v-3h-3v-3h-3v3h-3v3h3v3h3zM647,61h3v-3h-3v-3h-3v3h-3v3h3v3h3zM723,-54h3v-3h-3v-3h-3v3h-3v3h3v3h3zM799,-122h3v-3h-3v-3h-3v3h-3v3h3v3h3z" style="stroke: rgb(0, 0, 255); fill: none;"></path></g></svg><g><g transform="translate(0,426)"><path d="M0,0h608M0,-426h608M0,-15V0M15,-8V0M30,-8V0M46,-8V0M61,-8V0M76,-15V0M91,-8V0M106,-8V0M122,-8V0M137,-8V0M152,-15V0M167,-8V0M182,-8V0M198,-8V0M213,-8V0M228,-15V0M243,-8V0M258,-8V0M274,-8V0M289,-8V0M304,-15V0M319,-8V0M334,-8V0M350,-8V0M365,-8V0M380,-15V0M395,-8V0M410,-8V0M426,-8V0M441,-8V0M456,-15V0M471,-8V0M486,-8V0M502,-8V0M517,-8V0M532,-15V0M547,-8V0M562,-8V0M578,-8V0M593,-8V0M608,-15V0M0,-411V-426M15,-418V-426M30,-418V-426M46,-418V-426M61,-418V-426M76,-411V-426M91,-418V-426M106,-418V-426M122,-418V-426M137,-418V-426M152,-411V-426M167,-418V-426M182,-418V-426M198,-418V-426M213,-418V-426M228,-411V-426M243,-418V-426M258,-418V-426M274,-418V-426M289,-418V-426M304,-411V-426M319,-418V-426M334,-418V-426M350,-418V-426M365,-418V-426M380,-411V-426M395,-418V-426M410,-418V-426M426,-418V-426M441,-418V-426M456,-411V-426M471,-418V-426M486,-418V-426M502,-418V-426M517,-418V-426M532,-411V-426M547,-418V-426M562,-418V-426M578,-418V-426M593,-418V-426M608,-411V-426" style="stroke: rgb(0, 0, 0); stroke-width: 1;"></path><g font-family="Arial" font-size="18" xml:space="preserve" fill="#000000" text-anchor="middle"><text dy=".8em" transform="translate(0,3)">0</text><text dy=".8em" transform="translate(76,3)">10</text><text dy=".8em" transform="translate(152,3)">20</text><text dy=".8em" transform="translate(228,3)">30</text><text dy=".8em" transform="translate(304,3)">40</text><text dy=".8em" transform="translate(380,3)">50</text><text dy=".8em" transform="translate(456,3)">60</text><text dy=".8em" transform="translate(532,3)">70</text><text dy=".8em" transform="translate(608,3)">80</text></g><rect x="0" y="0" width="608" height="21" style="opacity: 0; cursor: crosshair;"></rect><g font-family="Arial" font-size="18" xml:space="preserve" transform="translate(608,29)" style="cursor: move;"><text fill="#000000" text-anchor="end" dominant-baseline="middle">centrality(%)</text></g></g><g><path d="M0,0v426M608,0v426M12,426H0M12,410H0M24,393H0M12,377H0M12,360H0M12,344H0M24,328H0M12,311H0M12,295H0M12,279H0M24,262H0M12,246H0M12,229H0M12,213H0M24,197H0M12,180H0M12,164H0M12,147H0M24,131H0M12,115H0M12,98H0M12,82H0M24,66H0M12,49H0M12,33H0M12,16H0M24,0H0M596,426H608M596,410H608M584,393H608M596,377H608M596,360H608M596,344H608M584,328H608M596,311H608M596,295H608M596,279H608M584,262H608M596,246H608M596,229H608M596,213H608M584,197H608M596,180H608M596,164H608M596,147H608M584,131H608M596,115H608M596,98H608M596,82H608M584,66H608M596,49H608M596,33H608M596,16H608M584,0H608" style="stroke: rgb(0, 0, 0); stroke-width: 1;"></path><g font-family="Arial" font-size="18" xml:space="preserve" fill="#000000" text-anchor="end"><text dominant-baseline="middle" transform="translate(-4,393)">0.06</text><text dominant-baseline="middle" transform="translate(-4,328)">0.08</text><text dominant-baseline="middle" transform="translate(-4,262)">0.1</text><text dominant-baseline="middle" transform="translate(-4,197)">0.12</text><text dominant-baseline="middle" transform="translate(-4,131)">0.14</text><text dominant-baseline="middle" transform="translate(-4,66)">0.16</text><text dominant-baseline="middle" transform="translate(-4)">0.18</text></g><rect x="-38" y="0" width="38" height="426" style="opacity: 0; cursor: crosshair;"></rect><g font-family="Arial" font-size="18" xml:space="preserve" transform="translate(-55)" style="cursor: move;"><g transform="rotate(270) translate(-139,8)"><text fill="#000000" font-size="18">γ</text><text fill="#000000" font-size="11" transform="translate(10,-10)">dir</text><text fill="#000000" font-size="18" x="29">centrality bias</text></g></g></g></g><path d="M2,2h15v-5h-20v20h5Z" style="opacity: 0; cursor: nw-resize;"></path><path d="M606,2h-15v-5h20v20h-5 Z" style="opacity: 0; cursor: ne-resize;"></path><path d="M2,424h15v5h-20v-20h5Z" style="opacity: 0; cursor: sw-resize;"></path><path d="M606,424h-15v5h20v-20h-5Z" style="opacity: 0; cursor: se-resize;"></path><path d="M-3,18h5v390h-5Z" style="opacity: 0; cursor: w-resize;"></path><path d="M611,18h-5v390h5Z" style="opacity: 0; cursor: e-resize;"></path><path d="M18,-3v5h572v-5Z" style="opacity: 0; cursor: n-resize;"></path><path d="M18,429v-5h572v5Z" style="opacity: 0; cursor: s-resize;"></path></g><g transform="translate(120,51)" font-family="Arial" font-size="19" xml:space="preserve" style="cursor: move;"><path d="M0,0H288V154H0Z" style="fill: none; pointer-events: visiblefill;"></path><text fill="#000000" text-anchor="start" dominant-baseline="middle" transform="translate(9,15)">PYTHIA8, pAu200GeV with option3</text><g transform="translate(9,44)"><text fill="#000000" font-size="19">γ</text><text fill="#000000" font-size="11" transform="translate(10,-11)">dir</text><text fill="#000000" font-size="19" x="30">in |η|&lt;1</text></g><path d="M37,57h3v-3h-3v-3h-3v3h-3v3h3v3h3z" style="stroke: rgb(0, 204, 0); fill: rgb(0, 204, 0);"></path><g transform="translate(72,61)"><text fill="#000000" font-size="19">p</text><text fill="#000000" font-size="11" transform="translate(11,4)">T</text><text fill="#000000" font-size="19" x="17">: 2~4 GeV/c</text></g><path d="M37,78h3v-3h-3v-3h-3v3h-3v3h3v3h3z" style="stroke: rgb(51, 255, 153); fill: rgb(51, 255, 153);"></path><g transform="translate(72,82)"><text fill="#000000" font-size="19">p</text><text fill="#000000" font-size="11" transform="translate(11,4)">T</text><text fill="#000000" font-size="19" x="17">: 4~7 GeV/c</text></g><path d="M37,99h3v-3h-3v-3h-3v3h-3v3h3v3h3z" style="stroke: rgb(0, 204, 204); fill: none;"></path><g transform="translate(72,102)"><text fill="#000000" font-size="19">p</text><text fill="#000000" font-size="11" transform="translate(11,4)">T</text><text fill="#000000" font-size="19" x="17">: 7~10 GeV/c</text></g><path d="M34,114l2,2l2,-2l2,2l-2,2l2,2l-2,2l-2,-2l-2,2l-2,-2l2,-2l-2,-2z" style="stroke: rgb(0, 51, 255); fill: rgb(0, 51, 255);"></path><g transform="translate(72,123)"><text fill="#000000" font-size="19">p</text><text fill="#000000" font-size="11" transform="translate(11,4)">T</text><text fill="#000000" font-size="19" x="17">: 10~15 GeV/c</text></g><path d="M37,140h3v-3h-3v-3h-3v3h-3v3h3v3h3z" style="stroke: rgb(0, 0, 255); fill: none;"></path><g transform="translate(72,143)"><text fill="#000000" font-size="19">p</text><text fill="#000000" font-size="11" transform="translate(11,4)">T</text><text fill="#000000" font-size="19" x="17">: 15~20 GeV/c</text></g><path d="M2,2h15v-5h-20v20h5Z" style="opacity: 0; cursor: nw-resize;"></path><path d="M286,2h-15v-5h20v20h-5 Z" style="opacity: 0; cursor: ne-resize;"></path><path d="M2,152h15v5h-20v-20h5Z" style="opacity: 0; cursor: sw-resize;"></path><path d="M286,152h-15v5h20v-20h-5Z" style="opacity: 0; cursor: se-resize;"></path><path d="M-3,18h5v118h-5Z" style="opacity: 0; cursor: w-resize;"></path><path d="M291,18h-5v118h5Z" style="opacity: 0; cursor: e-resize;"></path><path d="M18,-3v5h252v-5Z" style="opacity: 0; cursor: n-resize;"></path><path d="M18,157v-5h252v5Z" style="opacity: 0; cursor: s-resize;"></path></g></g></svg>