<?xml version="1.0" standalone="no"?>
<svg width="567.429" height="386.304" viewBox="0 0 567.429 386.304" xmlns="http://www.w3.org/2000/svg" shape-rendering="crispEdges">
<title>
/Users/jinhyunpark/npl/gitHub/xloadFromServer/Git_Bias_correction_RxA/plots_dirAdded/nOfPion0Centrality_highpT.svg
</title>
<desc>
Creator: ROOT Version 6.28/04
CreationDate: Thu Aug 17 22:26:24 2023</desc>
<defs>
</defs>
<rect x="0.5" y="0" width="566.929" height="385.804" fill="white"/>
<rect x="57.1929" y="38.5804" width="453.543" height="308.643" fill="white"/>
<rect x="57.1929" y="38.5804" width="453.543" height="308.643" fill="none" stroke="black"/>
<rect x="57.1929" y="38.5804" width="453.543" height="308.643" fill="white"/>
<rect x="57.1929" y="38.5804" width="453.543" height="308.643" fill="none" stroke="black"/>
<path d="M85.5394,295.837v -1.45232" fill="none" stroke="#000099"/>
<path d="M85.5394,294.385v -1.45232" fill="none" stroke="#000099"/>
<path d="M57.1929,294.385h 28.3465" fill="none" stroke="#000099"/>
<path d="M85.5394,294.385h 28.3465" fill="none" stroke="#000099"/>
<g stroke="black" stroke-width="1" fill="none">
<line x1="84.5394" y1="294.385" x2="85.5394" y2="294.385"/>
</g>
<path d="M142.232,333.226v -1.37998" fill="none" stroke="#000099"/>
<path d="M142.232,331.846v -1.37998" fill="none" stroke="#000099"/>
<path d="M113.886,331.846h 28.3465" fill="none" stroke="#000099"/>
<path d="M142.232,331.846h 28.3465" fill="none" stroke="#000099"/>
<g stroke="black" stroke-width="1" fill="none">
<line x1="141.232" y1="331.846" x2="142.232" y2="331.846"/>
</g>
<path d="M227.272,56.9751v -1.8487" fill="none" stroke="#000099"/>
<path d="M227.272,55.1264v -1.8487" fill="none" stroke="#000099"/>
<path d="M170.579,55.1264h 56.6929" fill="none" stroke="#000099"/>
<path d="M227.272,55.1264h 56.6929" fill="none" stroke="#000099"/>
<g stroke="black" stroke-width="1" fill="none">
<line x1="226.272" y1="55.1264" x2="227.272" y2="55.1264"/>
</g>
<path d="M340.657,164.906v -1.68123" fill="none" stroke="#000099"/>
<path d="M340.657,163.224v -1.68123" fill="none" stroke="#000099"/>
<path d="M283.965,163.224h 56.6929" fill="none" stroke="#000099"/>
<path d="M340.657,163.224h 56.6929" fill="none" stroke="#000099"/>
<g stroke="black" stroke-width="1" fill="none">
<line x1="339.657" y1="163.224" x2="340.657" y2="163.224"/>
</g>
<path d="M454.043,305.313v -1.43433" fill="none" stroke="#000099"/>
<path d="M454.043,303.879v -1.43433" fill="none" stroke="#000099"/>
<path d="M397.35,303.879h 56.6929" fill="none" stroke="#000099"/>
<path d="M454.043,303.879h 56.6929" fill="none" stroke="#000099"/>
<g stroke="black" stroke-width="1" fill="none">
<line x1="453.043" y1="303.879" x2="454.043" y2="303.879"/>
</g>
<rect x="442.705" y="25.0773" width="113.386" height="61.7287" fill="white"/>
<path d="M442.705,86.8059h 113.386" fill="none" stroke="black"/>
<path d="M556.091,86.8059v -61.7287" fill="none" stroke="black"/>
<path d="M556.091,25.0773h -113.386" fill="none" stroke="black"/>
<path d="M442.705,25.0773v 61.7287" fill="none" stroke="black"/>
<path d="M442.705,40.5094h 113.386" fill="none" stroke="black"/>
<text xml:space="preserve" x="448.033" y="52.7943" fill="black" font-size="12.7086" font-family="Helvetica">Entries </text>
<text xml:space="preserve" x="506.513" y="52.7943" fill="black" font-size="12.7086" font-family="Helvetica"> 453850</text>
<text xml:space="preserve" x="448.033" y="68.2264" fill="black" font-size="12.7086" font-family="Helvetica">Mean  </text>
<text xml:space="preserve" x="515.447" y="68.2264" fill="black" font-size="12.7086" font-family="Helvetica">  39.71</text>
<text xml:space="preserve" x="448.033" y="83.6586" fill="black" font-size="12.7086" font-family="Helvetica">Std Dev   </text>
<text xml:space="preserve" x="513.01" y="83.6586" fill="black" font-size="12.7086" font-family="Helvetica">  26.79</text>
<path d="M57.1929,347.224h 453.543" fill="none" stroke="black"/>
<path d="M57.1929,337.964v 9.2593" fill="none" stroke="black"/>
<path d="M68.5315,342.594v 4.62965" fill="none" stroke="black"/>
<path d="M79.8701,342.594v 4.62965" fill="none" stroke="black"/>
<path d="M91.2087,342.594v 4.62965" fill="none" stroke="black"/>
<path d="M102.547,342.594v 4.62965" fill="none" stroke="black"/>
<path d="M113.886,337.964v 9.2593" fill="none" stroke="black"/>
<path d="M125.224,342.594v 4.62965" fill="none" stroke="black"/>
<path d="M136.563,342.594v 4.62965" fill="none" stroke="black"/>
<path d="M147.902,342.594v 4.62965" fill="none" stroke="black"/>
<path d="M159.24,342.594v 4.62965" fill="none" stroke="black"/>
<path d="M170.579,337.964v 9.2593" fill="none" stroke="black"/>
<path d="M181.917,342.594v 4.62965" fill="none" stroke="black"/>
<path d="M193.256,342.594v 4.62965" fill="none" stroke="black"/>
<path d="M204.594,342.594v 4.62965" fill="none" stroke="black"/>
<path d="M215.933,342.594v 4.62965" fill="none" stroke="black"/>
<path d="M227.272,337.964v 9.2593" fill="none" stroke="black"/>
<path d="M238.61,342.594v 4.62965" fill="none" stroke="black"/>
<path d="M249.949,342.594v 4.62965" fill="none" stroke="black"/>
<path d="M261.287,342.594v 4.62965" fill="none" stroke="black"/>
<path d="M272.626,342.594v 4.62965" fill="none" stroke="black"/>
<path d="M283.965,337.964v 9.2593" fill="none" stroke="black"/>
<path d="M295.303,342.594v 4.62965" fill="none" stroke="black"/>
<path d="M306.642,342.594v 4.62965" fill="none" stroke="black"/>
<path d="M317.98,342.594v 4.62965" fill="none" stroke="black"/>
<path d="M329.319,342.594v 4.62965" fill="none" stroke="black"/>
<path d="M340.657,337.964v 9.2593" fill="none" stroke="black"/>
<path d="M351.996,342.594v 4.62965" fill="none" stroke="black"/>
<path d="M363.335,342.594v 4.62965" fill="none" stroke="black"/>
<path d="M374.673,342.594v 4.62965" fill="none" stroke="black"/>
<path d="M386.012,342.594v 4.62965" fill="none" stroke="black"/>
<path d="M397.35,337.964v 9.2593" fill="none" stroke="black"/>
<path d="M408.689,342.594v 4.62965" fill="none" stroke="black"/>
<path d="M420.028,342.594v 4.62965" fill="none" stroke="black"/>
<path d="M431.366,342.594v 4.62965" fill="none" stroke="black"/>
<path d="M442.705,342.594v 4.62965" fill="none" stroke="black"/>
<path d="M454.043,337.964v 9.2593" fill="none" stroke="black"/>
<path d="M465.382,342.594v 4.62965" fill="none" stroke="black"/>
<path d="M476.72,342.594v 4.62965" fill="none" stroke="black"/>
<path d="M488.059,342.594v 4.62965" fill="none" stroke="black"/>
<path d="M499.398,342.594v 4.62965" fill="none" stroke="black"/>
<path d="M510.736,337.964v 9.2593" fill="none" stroke="black"/>
<text xml:space="preserve" x="52.482" y="359.813" fill="black" font-size="12.8882" font-family="Helvetica">0</text>
<text xml:space="preserve" x="106.089" y="359.813" fill="black" font-size="12.8882" font-family="Helvetica">10</text>
<text xml:space="preserve" x="162.944" y="359.813" fill="black" font-size="12.8882" font-family="Helvetica">20</text>
<text xml:space="preserve" x="219.799" y="359.813" fill="black" font-size="12.8882" font-family="Helvetica">30</text>
<text xml:space="preserve" x="276.655" y="359.813" fill="black" font-size="12.8882" font-family="Helvetica">40</text>
<text xml:space="preserve" x="332.698" y="359.813" fill="black" font-size="12.8882" font-family="Helvetica">50</text>
<text xml:space="preserve" x="389.553" y="359.813" fill="black" font-size="12.8882" font-family="Helvetica">60</text>
<text xml:space="preserve" x="446.408" y="359.813" fill="black" font-size="12.8882" font-family="Helvetica">70</text>
<text xml:space="preserve" x="503.264" y="359.813" fill="black" font-size="12.8882" font-family="Helvetica">80</text>
<path d="M57.1929,347.224v -308.643" fill="none" stroke="black"/>
<path d="M70.7992,297.239h -13.6063" fill="none" stroke="black"/>
<path d="M63.9961,286.302h -6.80315" fill="none" stroke="black"/>
<path d="M63.9961,275.364h -6.80315" fill="none" stroke="black"/>
<path d="M63.9961,264.426h -6.80315" fill="none" stroke="black"/>
<path d="M63.9961,253.488h -6.80315" fill="none" stroke="black"/>
<path d="M70.7992,242.55h -13.6063" fill="none" stroke="black"/>
<path d="M63.9961,231.613h -6.80315" fill="none" stroke="black"/>
<path d="M63.9961,220.675h -6.80315" fill="none" stroke="black"/>
<path d="M63.9961,209.737h -6.80315" fill="none" stroke="black"/>
<path d="M63.9961,198.799h -6.80315" fill="none" stroke="black"/>
<path d="M70.7992,187.862h -13.6063" fill="none" stroke="black"/>
<path d="M63.9961,176.924h -6.80315" fill="none" stroke="black"/>
<path d="M63.9961,165.986h -6.80315" fill="none" stroke="black"/>
<path d="M63.9961,155.048h -6.80315" fill="none" stroke="black"/>
<path d="M63.9961,144.111h -6.80315" fill="none" stroke="black"/>
<path d="M70.7992,133.173h -13.6063" fill="none" stroke="black"/>
<path d="M63.9961,122.235h -6.80315" fill="none" stroke="black"/>
<path d="M63.9961,111.297h -6.80315" fill="none" stroke="black"/>
<path d="M63.9961,100.36h -6.80315" fill="none" stroke="black"/>
<path d="M63.9961,89.4218h -6.80315" fill="none" stroke="black"/>
<path d="M70.7992,78.484h -13.6063" fill="none" stroke="black"/>
<path d="M70.7992,297.239h -13.6063" fill="none" stroke="black"/>
<path d="M63.9961,308.177h -6.80315" fill="none" stroke="black"/>
<path d="M63.9961,319.115h -6.80315" fill="none" stroke="black"/>
<path d="M63.9961,330.053h -6.80315" fill="none" stroke="black"/>
<path d="M63.9961,340.99h -6.80315" fill="none" stroke="black"/>
<path d="M70.7992,78.484h -13.6063" fill="none" stroke="black"/>
<path d="M63.9961,67.5463h -6.80315" fill="none" stroke="black"/>
<path d="M63.9961,56.6085h -6.80315" fill="none" stroke="black"/>
<path d="M63.9961,45.6707h -6.80315" fill="none" stroke="black"/>
<text xml:space="preserve" x="39.4865" y="301.333" fill="black" font-size="12.8882" font-family="Helvetica">70</text>
<text xml:space="preserve" x="39.4865" y="246.915" fill="black" font-size="12.8882" font-family="Helvetica">80</text>
<text xml:space="preserve" x="39.4865" y="192.496" fill="black" font-size="12.8882" font-family="Helvetica">90</text>
<text xml:space="preserve" x="32.9888" y="137.265" fill="black" font-size="12.8882" font-family="Helvetica">100</text>
<text xml:space="preserve" x="32.9888" y="82.8464" fill="black" font-size="12.8882" font-family="Helvetica">110</text>
<text xml:space="preserve" x="78.4731" y="29.2399" fill="black" font-size="8.75881" font-family="Helvetica">3</text>
<text xml:space="preserve" x="63.8531" y="36.5499" fill="black" font-size="12.8882" font-family="Helvetica">10</text>
<text xml:space="preserve" x="56.5431" y="36.5499" fill="black" font-size="12.8882" font-family="Times">&#0215;</text>
<rect x="442.705" y="25.0773" width="113.386" height="61.7287" fill="white"/>
<path d="M442.705,86.8059h 113.386" fill="none" stroke="black"/>
<path d="M556.091,86.8059v -61.7287" fill="none" stroke="black"/>
<path d="M556.091,25.0773h -113.386" fill="none" stroke="black"/>
<path d="M442.705,25.0773v 61.7287" fill="none" stroke="black"/>
<path d="M442.705,40.5094h 113.386" fill="none" stroke="black"/>
<text xml:space="preserve" x="448.033" y="52.7943" fill="black" font-size="12.7086" font-family="Helvetica">Entries </text>
<text xml:space="preserve" x="506.513" y="52.7943" fill="black" font-size="12.7086" font-family="Helvetica"> 453850</text>
<text xml:space="preserve" x="448.033" y="68.2264" fill="black" font-size="12.7086" font-family="Helvetica">Mean  </text>
<text xml:space="preserve" x="515.447" y="68.2264" fill="black" font-size="12.7086" font-family="Helvetica">  39.71</text>
<text xml:space="preserve" x="448.033" y="83.6586" fill="black" font-size="12.7086" font-family="Helvetica">Std Dev   </text>
<text xml:space="preserve" x="513.01" y="83.6586" fill="black" font-size="12.7086" font-family="Helvetica">  26.79</text>
<text xml:space="preserve" x="185.686" y="18.681" fill="black" font-size="17.9813" font-family="Helvetica">x: centrality y: pion0's pT</text></svg>
