<?xml version="1.0" standalone="no"?>
<svg width="567.429" height="409.002" viewBox="0 0 567.429 409.002" xmlns="http://www.w3.org/2000/svg" shape-rendering="crispEdges">
<title>
/Users/jinhyunpark/npl/gitHub/xloadFromServer/Git_Bias_correction_RxA/plots_dirAdded/plots_testForNewMC/dNdetaDirphoton_inTargetEvents_NewOldCompare.svg
</title>
<desc>
Creator: ROOT Version 6.28/04
CreationDate: Mon Sep  4 21:38:25 2023</desc>
<defs>
</defs>
<rect x="0.5" y="0" width="566.929" height="408.502" fill="white"/>
<rect x="85.5394" y="20.4251" width="396.85" height="339.056" fill="white"/>
<rect x="85.5394" y="20.4251" width="396.85" height="339.056" fill="none" stroke="black"/>
<rect x="85.5394" y="20.4251" width="396.85" height="339.056" fill="white"/>
<rect x="85.5394" y="20.4251" width="396.85" height="339.056" fill="none" stroke="black"/>
<path d="M85.5394,359.481h 396.85" fill="none" stroke="black"/>
<path d="M85.5394,350.903v 8.57853" fill="none" stroke="black"/>
<path d="M102.075,355.192v 4.28927" fill="none" stroke="black"/>
<path d="M118.61,355.192v 4.28927" fill="none" stroke="black"/>
<path d="M135.146,355.192v 4.28927" fill="none" stroke="black"/>
<path d="M151.681,350.903v 8.57853" fill="none" stroke="black"/>
<path d="M168.217,355.192v 4.28927" fill="none" stroke="black"/>
<path d="M184.752,355.192v 4.28927" fill="none" stroke="black"/>
<path d="M201.287,355.192v 4.28927" fill="none" stroke="black"/>
<path d="M217.823,350.903v 8.57853" fill="none" stroke="black"/>
<path d="M234.358,355.192v 4.28927" fill="none" stroke="black"/>
<path d="M250.894,355.192v 4.28927" fill="none" stroke="black"/>
<path d="M267.429,355.192v 4.28927" fill="none" stroke="black"/>
<path d="M283.965,350.903v 8.57853" fill="none" stroke="black"/>
<path d="M300.5,355.192v 4.28927" fill="none" stroke="black"/>
<path d="M317.035,355.192v 4.28927" fill="none" stroke="black"/>
<path d="M333.571,355.192v 4.28927" fill="none" stroke="black"/>
<path d="M350.106,350.903v 8.57853" fill="none" stroke="black"/>
<path d="M366.642,355.192v 4.28927" fill="none" stroke="black"/>
<path d="M383.177,355.192v 4.28927" fill="none" stroke="black"/>
<path d="M399.713,355.192v 4.28927" fill="none" stroke="black"/>
<path d="M416.248,350.903v 8.57853" fill="none" stroke="black"/>
<path d="M432.783,355.192v 4.28927" fill="none" stroke="black"/>
<path d="M449.319,355.192v 4.28927" fill="none" stroke="black"/>
<path d="M465.854,355.192v 4.28927" fill="none" stroke="black"/>
<path d="M482.39,350.903v 8.57853" fill="none" stroke="black"/>
<text xml:space="preserve" x="85.0421" y="372.269" fill="black" font-size="13.617" font-family="Helvetica">6</text>
<text xml:space="preserve" x="77.2272" y="372.269" fill="black" font-size="13.617" font-family="Times">&#8722;</text>
<text xml:space="preserve" x="151.113" y="372.269" fill="black" font-size="13.617" font-family="Helvetica">4</text>
<text xml:space="preserve" x="143.298" y="372.269" fill="black" font-size="13.617" font-family="Times">&#8722;</text>
<text xml:space="preserve" x="217.183" y="372.269" fill="black" font-size="13.617" font-family="Helvetica">2</text>
<text xml:space="preserve" x="209.369" y="372.269" fill="black" font-size="13.617" font-family="Times">&#8722;</text>
<text xml:space="preserve" x="280.412" y="372.269" fill="black" font-size="13.617" font-family="Helvetica">0</text>
<text xml:space="preserve" x="346.483" y="372.269" fill="black" font-size="13.617" font-family="Helvetica">2</text>
<text xml:space="preserve" x="412.554" y="372.269" fill="black" font-size="13.617" font-family="Helvetica">4</text>
<text xml:space="preserve" x="478.624" y="372.269" fill="black" font-size="13.617" font-family="Helvetica">6</text>
<text xml:space="preserve" x="474.362" y="384.347" fill="black" font-size="13.617" font-family="Times">&#0951;</text>
<path d="M85.5394,20.4251h 396.85" fill="none" stroke="black"/>
<path d="M85.5394,29.0036v -8.57853" fill="none" stroke="black"/>
<path d="M102.075,24.7143v -4.28927" fill="none" stroke="black"/>
<path d="M118.61,24.7143v -4.28927" fill="none" stroke="black"/>
<path d="M135.146,24.7143v -4.28927" fill="none" stroke="black"/>
<path d="M151.681,29.0036v -8.57853" fill="none" stroke="black"/>
<path d="M168.217,24.7143v -4.28927" fill="none" stroke="black"/>
<path d="M184.752,24.7143v -4.28927" fill="none" stroke="black"/>
<path d="M201.287,24.7143v -4.28927" fill="none" stroke="black"/>
<path d="M217.823,29.0036v -8.57853" fill="none" stroke="black"/>
<path d="M234.358,24.7143v -4.28927" fill="none" stroke="black"/>
<path d="M250.894,24.7143v -4.28927" fill="none" stroke="black"/>
<path d="M267.429,24.7143v -4.28927" fill="none" stroke="black"/>
<path d="M283.965,29.0036v -8.57853" fill="none" stroke="black"/>
<path d="M300.5,24.7143v -4.28927" fill="none" stroke="black"/>
<path d="M317.035,24.7143v -4.28927" fill="none" stroke="black"/>
<path d="M333.571,24.7143v -4.28927" fill="none" stroke="black"/>
<path d="M350.106,29.0036v -8.57853" fill="none" stroke="black"/>
<path d="M366.642,24.7143v -4.28927" fill="none" stroke="black"/>
<path d="M383.177,24.7143v -4.28927" fill="none" stroke="black"/>
<path d="M399.713,24.7143v -4.28927" fill="none" stroke="black"/>
<path d="M416.248,29.0036v -8.57853" fill="none" stroke="black"/>
<path d="M432.783,24.7143v -4.28927" fill="none" stroke="black"/>
<path d="M449.319,24.7143v -4.28927" fill="none" stroke="black"/>
<path d="M465.854,24.7143v -4.28927" fill="none" stroke="black"/>
<path d="M482.39,29.0036v -8.57853" fill="none" stroke="black"/>
<path d="M85.5394,359.481v -339.056" fill="none" stroke="black"/>
<path d="M99.6559,359.481h -14.1165" fill="none" stroke="black"/>
<path d="M92.5976,352.7h -7.05827" fill="none" stroke="black"/>
<path d="M92.5976,345.919h -7.05827" fill="none" stroke="black"/>
<path d="M92.5976,339.138h -7.05827" fill="none" stroke="black"/>
<path d="M92.5976,332.357h -7.05827" fill="none" stroke="black"/>
<path d="M99.6559,325.576h -14.1165" fill="none" stroke="black"/>
<path d="M92.5976,318.795h -7.05827" fill="none" stroke="black"/>
<path d="M92.5976,312.014h -7.05827" fill="none" stroke="black"/>
<path d="M92.5976,305.232h -7.05827" fill="none" stroke="black"/>
<path d="M92.5976,298.451h -7.05827" fill="none" stroke="black"/>
<path d="M99.6559,291.67h -14.1165" fill="none" stroke="black"/>
<path d="M92.5976,284.889h -7.05827" fill="none" stroke="black"/>
<path d="M92.5976,278.108h -7.05827" fill="none" stroke="black"/>
<path d="M92.5976,271.327h -7.05827" fill="none" stroke="black"/>
<path d="M92.5976,264.546h -7.05827" fill="none" stroke="black"/>
<path d="M99.6559,257.764h -14.1165" fill="none" stroke="black"/>
<path d="M92.5976,250.983h -7.05827" fill="none" stroke="black"/>
<path d="M92.5976,244.202h -7.05827" fill="none" stroke="black"/>
<path d="M92.5976,237.421h -7.05827" fill="none" stroke="black"/>
<path d="M92.5976,230.64h -7.05827" fill="none" stroke="black"/>
<path d="M99.6559,223.859h -14.1165" fill="none" stroke="black"/>
<path d="M92.5976,217.078h -7.05827" fill="none" stroke="black"/>
<path d="M92.5976,210.297h -7.05827" fill="none" stroke="black"/>
<path d="M92.5976,203.515h -7.05827" fill="none" stroke="black"/>
<path d="M92.5976,196.734h -7.05827" fill="none" stroke="black"/>
<path d="M99.6559,189.953h -14.1165" fill="none" stroke="black"/>
<path d="M92.5976,183.172h -7.05827" fill="none" stroke="black"/>
<path d="M92.5976,176.391h -7.05827" fill="none" stroke="black"/>
<path d="M92.5976,169.61h -7.05827" fill="none" stroke="black"/>
<path d="M92.5976,162.829h -7.05827" fill="none" stroke="black"/>
<path d="M99.6559,156.048h -14.1165" fill="none" stroke="black"/>
<path d="M92.5976,149.266h -7.05827" fill="none" stroke="black"/>
<path d="M92.5976,142.485h -7.05827" fill="none" stroke="black"/>
<path d="M92.5976,135.704h -7.05827" fill="none" stroke="black"/>
<path d="M92.5976,128.923h -7.05827" fill="none" stroke="black"/>
<path d="M99.6559,122.142h -14.1165" fill="none" stroke="black"/>
<path d="M92.5976,115.361h -7.05827" fill="none" stroke="black"/>
<path d="M92.5976,108.58h -7.05827" fill="none" stroke="black"/>
<path d="M92.5976,101.799h -7.05827" fill="none" stroke="black"/>
<path d="M92.5976,95.0175h -7.05827" fill="none" stroke="black"/>
<path d="M99.6559,88.2363h -14.1165" fill="none" stroke="black"/>
<path d="M92.5976,81.4552h -7.05827" fill="none" stroke="black"/>
<path d="M92.5976,74.6741h -7.05827" fill="none" stroke="black"/>
<path d="M92.5976,67.893h -7.05827" fill="none" stroke="black"/>
<path d="M92.5976,61.1118h -7.05827" fill="none" stroke="black"/>
<path d="M99.6559,54.3307h -14.1165" fill="none" stroke="black"/>
<path d="M92.5976,47.5496h -7.05827" fill="none" stroke="black"/>
<path d="M92.5976,40.7685h -7.05827" fill="none" stroke="black"/>
<path d="M92.5976,33.9873h -7.05827" fill="none" stroke="black"/>
<path d="M92.5976,27.2062h -7.05827" fill="none" stroke="black"/>
<path d="M99.6559,20.4251h -14.1165" fill="none" stroke="black"/>
<text xml:space="preserve" x="75.0959" y="364.454" fill="black" font-size="13.617" font-family="Helvetica">0</text>
<text xml:space="preserve" x="55.9141" y="330.353" fill="black" font-size="13.617" font-family="Helvetica">0.05</text>
<text xml:space="preserve" x="65.8603" y="296.252" fill="black" font-size="13.617" font-family="Helvetica">0.1</text>
<text xml:space="preserve" x="55.9141" y="262.151" fill="black" font-size="13.617" font-family="Helvetica">0.15</text>
<text xml:space="preserve" x="63.7289" y="228.761" fill="black" font-size="13.617" font-family="Helvetica">0.2</text>
<text xml:space="preserve" x="55.9141" y="194.66" fill="black" font-size="13.617" font-family="Helvetica">0.25</text>
<text xml:space="preserve" x="63.7289" y="160.559" fill="black" font-size="13.617" font-family="Helvetica">0.3</text>
<text xml:space="preserve" x="55.9141" y="126.458" fill="black" font-size="13.617" font-family="Helvetica">0.35</text>
<text xml:space="preserve" x="63.7289" y="93.0673" fill="black" font-size="13.617" font-family="Helvetica">0.4</text>
<text xml:space="preserve" x="55.9141" y="58.9663" fill="black" font-size="13.617" font-family="Helvetica">0.45</text>
<text xml:space="preserve" x="63.7289" y="24.8653" fill="black" font-size="13.617" font-family="Helvetica">0.5</text>
<text xml:space="preserve" x="112.039" y="11.367" fill="black" font-size="9.24468" font-family="Helvetica">3</text>
<text xml:space="preserve" x="107.776" y="11.367" fill="black" font-size="9.24468" font-family="Times">&#8722;</text>
<text xml:space="preserve" x="92.8569" y="18.4714" fill="black" font-size="13.617" font-family="Helvetica">10</text>
<text xml:space="preserve" x="85.0421" y="18.4714" fill="black" font-size="13.617" font-family="Times">&#0215;</text>
<g transform="rotate(-90,44.5471,27.7071)">
<text xml:space="preserve" x="44.5471" y="27.7071" fill="black" font-size="13.617" font-family="Times">&#0951;</text>
</g>
<g transform="rotate(-90,44.5471,39.0741)">
<text xml:space="preserve" x="44.5471" y="39.0741" fill="black" font-size="13.617" font-family="Helvetica">/d</text>
</g>
<g transform="rotate(-90,33.1801,45.468)">
<text xml:space="preserve" x="33.1801" y="45.468" fill="black" font-size="6.32979" font-family="Helvetica">dir</text>
</g>
<g transform="rotate(-90,36.7323,50.4411)">
<text xml:space="preserve" x="36.7323" y="50.4411" fill="black" font-size="9.24468" font-family="Times">&#0947;</text>
</g>
<g transform="rotate(-90,44.5471,71.0438)">
<text xml:space="preserve" x="44.5471" y="71.0438" fill="black" font-size="13.617" font-family="Helvetica"> dN</text>
</g>
<g transform="rotate(-90,49.5202,93.7778)">
<text xml:space="preserve" x="49.5202" y="93.7778" fill="black" font-size="9.24468" font-family="Helvetica">event</text>
</g>
<g transform="rotate(-90,44.5471,114.38)">
<text xml:space="preserve" x="44.5471" y="114.38" fill="black" font-size="13.617" font-family="Helvetica">1/N</text>
</g>
<path d="M482.39,359.481v -339.056" fill="none" stroke="black"/>
<path d="M468.273,359.481h 14.1165" fill="none" stroke="black"/>
<path d="M475.332,352.7h 7.05827" fill="none" stroke="black"/>
<path d="M475.332,345.919h 7.05827" fill="none" stroke="black"/>
<path d="M475.332,339.138h 7.05827" fill="none" stroke="black"/>
<path d="M475.332,332.357h 7.05827" fill="none" stroke="black"/>
<path d="M468.273,325.576h 14.1165" fill="none" stroke="black"/>
<path d="M475.332,318.795h 7.05827" fill="none" stroke="black"/>
<path d="M475.332,312.014h 7.05827" fill="none" stroke="black"/>
<path d="M475.332,305.232h 7.05827" fill="none" stroke="black"/>
<path d="M475.332,298.451h 7.05827" fill="none" stroke="black"/>
<path d="M468.273,291.67h 14.1165" fill="none" stroke="black"/>
<path d="M475.332,284.889h 7.05827" fill="none" stroke="black"/>
<path d="M475.332,278.108h 7.05827" fill="none" stroke="black"/>
<path d="M475.332,271.327h 7.05827" fill="none" stroke="black"/>
<path d="M475.332,264.546h 7.05827" fill="none" stroke="black"/>
<path d="M468.273,257.764h 14.1165" fill="none" stroke="black"/>
<path d="M475.332,250.983h 7.05827" fill="none" stroke="black"/>
<path d="M475.332,244.202h 7.05827" fill="none" stroke="black"/>
<path d="M475.332,237.421h 7.05827" fill="none" stroke="black"/>
<path d="M475.332,230.64h 7.05827" fill="none" stroke="black"/>
<path d="M468.273,223.859h 14.1165" fill="none" stroke="black"/>
<path d="M475.332,217.078h 7.05827" fill="none" stroke="black"/>
<path d="M475.332,210.297h 7.05827" fill="none" stroke="black"/>
<path d="M475.332,203.515h 7.05827" fill="none" stroke="black"/>
<path d="M475.332,196.734h 7.05827" fill="none" stroke="black"/>
<path d="M468.273,189.953h 14.1165" fill="none" stroke="black"/>
<path d="M475.332,183.172h 7.05827" fill="none" stroke="black"/>
<path d="M475.332,176.391h 7.05827" fill="none" stroke="black"/>
<path d="M475.332,169.61h 7.05827" fill="none" stroke="black"/>
<path d="M475.332,162.829h 7.05827" fill="none" stroke="black"/>
<path d="M468.273,156.048h 14.1165" fill="none" stroke="black"/>
<path d="M475.332,149.266h 7.05827" fill="none" stroke="black"/>
<path d="M475.332,142.485h 7.05827" fill="none" stroke="black"/>
<path d="M475.332,135.704h 7.05827" fill="none" stroke="black"/>
<path d="M475.332,128.923h 7.05827" fill="none" stroke="black"/>
<path d="M468.273,122.142h 14.1165" fill="none" stroke="black"/>
<path d="M475.332,115.361h 7.05827" fill="none" stroke="black"/>
<path d="M475.332,108.58h 7.05827" fill="none" stroke="black"/>
<path d="M475.332,101.799h 7.05827" fill="none" stroke="black"/>
<path d="M475.332,95.0175h 7.05827" fill="none" stroke="black"/>
<path d="M468.273,88.2363h 14.1165" fill="none" stroke="black"/>
<path d="M475.332,81.4552h 7.05827" fill="none" stroke="black"/>
<path d="M475.332,74.6741h 7.05827" fill="none" stroke="black"/>
<path d="M475.332,67.893h 7.05827" fill="none" stroke="black"/>
<path d="M475.332,61.1118h 7.05827" fill="none" stroke="black"/>
<path d="M468.273,54.3307h 14.1165" fill="none" stroke="black"/>
<path d="M475.332,47.5496h 7.05827" fill="none" stroke="black"/>
<path d="M475.332,40.7685h 7.05827" fill="none" stroke="black"/>
<path d="M475.332,33.9873h 7.05827" fill="none" stroke="black"/>
<path d="M475.332,27.2062h 7.05827" fill="none" stroke="black"/>
<path d="M468.273,20.4251h 14.1165" fill="none" stroke="black"/>
<path d="M118.61,351.27h 6.84684" fill="none" stroke="black"/>
<path d="M128.299,351.27h 6.84684" fill="none" stroke="black"/>
<g fill="black">
<polygon points=" 126.878, 354.112 127.516, 352.148 129.581, 352.148 127.91, 350.935 128.548, 348.971 126.878, 350.185 125.208, 348.971 125.846, 350.935 124.175, 352.148 126.24, 352.148"/>
</g>
<path d="M135.146,337.946h 6.84684" fill="none" stroke="black"/>
<path d="M144.834,337.946h 6.84684" fill="none" stroke="black"/>
<g fill="black">
<polygon points=" 143.413, 340.788 144.051, 338.824 146.116, 338.824 144.446, 337.61 145.084, 335.647 143.413, 336.86 141.743, 335.647 142.381, 337.61 140.711, 338.824 142.775, 338.824"/>
</g>
<path d="M151.681,315.894h 6.84684" fill="none" stroke="black"/>
<path d="M161.37,315.894h 6.84684" fill="none" stroke="black"/>
<g fill="black">
<polygon points=" 159.949, 318.736 160.587, 316.772 162.651, 316.772 160.981, 315.559 161.619, 313.595 159.949, 314.809 158.278, 313.595 158.916, 315.559 157.246, 316.772 159.311, 316.772"/>
</g>
<path d="M168.217,287.426h 6.84684" fill="none" stroke="black"/>
<path d="M177.905,287.426h 6.84684" fill="none" stroke="black"/>
<g fill="black">
<polygon points=" 176.484, 290.268 177.122, 288.304 179.187, 288.304 177.517, 287.09 178.155, 285.127 176.484, 286.34 174.814, 285.127 175.452, 287.09 173.782, 288.304 175.846, 288.304"/>
</g>
<path d="M193.02,258.773v -0.164932" fill="none" stroke="black"/>
<path d="M193.02,255.767v -0.164932" fill="none" stroke="black"/>
<path d="M184.752,257.188h 6.84684" fill="none" stroke="black"/>
<path d="M194.441,257.188h 6.84684" fill="none" stroke="black"/>
<g fill="black">
<polygon points=" 193.02, 260.029 193.658, 258.066 195.722, 258.066 194.052, 256.852 194.69, 254.889 193.02, 256.102 191.349, 254.889 191.987, 256.852 190.317, 258.066 192.382, 258.066"/>
</g>
<path d="M209.555,240.472v -0.301931" fill="none" stroke="black"/>
<path d="M209.555,237.329v -0.301931" fill="none" stroke="black"/>
<path d="M201.287,238.75h 6.84684" fill="none" stroke="black"/>
<path d="M210.976,238.75h 6.84684" fill="none" stroke="black"/>
<g fill="black">
<polygon points=" 209.555, 241.591 210.193, 239.628 212.258, 239.628 210.587, 238.414 211.225, 236.451 209.555, 237.664 207.885, 236.451 208.523, 238.414 206.852, 239.628 208.917, 239.628"/>
</g>
<path d="M226.091,229.462v -0.379301" fill="none" stroke="black"/>
<path d="M226.091,226.241v -0.379301" fill="none" stroke="black"/>
<path d="M217.823,227.662h 6.84684" fill="none" stroke="black"/>
<path d="M227.511,227.662h 6.84684" fill="none" stroke="black"/>
<g fill="black">
<polygon points=" 226.091, 230.504 226.729, 228.54 228.793, 228.54 227.123, 227.327 227.761, 225.363 226.091, 226.577 224.42, 225.363 225.058, 227.327 223.388, 228.54 225.453, 228.54"/>
</g>
<path d="M242.626,233.466v -0.351557" fill="none" stroke="black"/>
<path d="M242.626,230.273v -0.351557" fill="none" stroke="black"/>
<path d="M234.358,231.694h 6.84684" fill="none" stroke="black"/>
<path d="M244.047,231.694h 6.84684" fill="none" stroke="black"/>
<g fill="black">
<polygon points=" 242.626, 234.536 243.264, 232.572 245.329, 232.572 243.658, 231.359 244.296, 229.395 242.626, 230.609 240.956, 229.395 241.594, 231.359 239.923, 232.572 241.988, 232.572"/>
</g>
<path d="M259.161,241.034v -0.297892" fill="none" stroke="black"/>
<path d="M259.161,237.894v -0.297892" fill="none" stroke="black"/>
<path d="M250.894,239.315h 6.84684" fill="none" stroke="black"/>
<path d="M260.582,239.315h 6.84684" fill="none" stroke="black"/>
<g fill="black">
<polygon points=" 259.161, 242.157 259.799, 240.193 261.864, 240.193 260.194, 238.98 260.832, 237.016 259.161, 238.23 257.491, 237.016 258.129, 238.98 256.459, 240.193 258.523, 240.193"/>
</g>
<path d="M275.697,249.746v -0.233937" fill="none" stroke="black"/>
<path d="M275.697,246.671v -0.233937" fill="none" stroke="black"/>
<path d="M267.429,248.092h 6.84684" fill="none" stroke="black"/>
<path d="M277.118,248.092h 6.84684" fill="none" stroke="black"/>
<g fill="black">
<polygon points=" 275.697, 250.933 276.335, 248.97 278.399, 248.97 276.729, 247.756 277.367, 245.793 275.697, 247.006 274.027, 245.793 274.665, 247.756 272.994, 248.97 275.059, 248.97"/>
</g>
<path d="M292.232,257.578v -0.174242" fill="none" stroke="black"/>
<path d="M292.232,254.562v -0.174242" fill="none" stroke="black"/>
<path d="M283.965,255.983h 6.84684" fill="none" stroke="black"/>
<path d="M293.653,255.983h 6.84684" fill="none" stroke="black"/>
<g fill="black">
<polygon points=" 292.232, 258.825 292.87, 256.861 294.935, 256.861 293.265, 255.648 293.903, 253.684 292.232, 254.898 290.562, 253.684 291.2, 255.648 289.53, 256.861 291.594, 256.861"/>
</g>
<path d="M308.768,262.188v -0.138026" fill="none" stroke="black"/>
<path d="M308.768,259.208v -0.138026" fill="none" stroke="black"/>
<path d="M300.5,260.629h 6.84684" fill="none" stroke="black"/>
<path d="M310.189,260.629h 6.84684" fill="none" stroke="black"/>
<g fill="black">
<polygon points=" 308.768, 263.471 309.406, 261.508 311.47, 261.508 309.8, 260.294 310.438, 258.33 308.768, 259.544 307.097, 258.33 307.735, 260.294 306.065, 261.508 308.13, 261.508"/>
</g>
<path d="M325.303,267.236v -0.09737" fill="none" stroke="black"/>
<path d="M325.303,264.297v -0.09737" fill="none" stroke="black"/>
<path d="M317.035,265.718h 6.84684" fill="none" stroke="black"/>
<path d="M326.724,265.718h 6.84684" fill="none" stroke="black"/>
<g fill="black">
<polygon points=" 325.303, 268.56 325.941, 266.596 328.006, 266.596 326.335, 265.383 326.973, 263.419 325.303, 264.633 323.633, 263.419 324.271, 265.383 322.601, 266.596 324.665, 266.596"/>
</g>
<path d="M341.839,267.675v -0.0937831" fill="none" stroke="black"/>
<path d="M341.839,264.74v -0.0937831" fill="none" stroke="black"/>
<path d="M333.571,266.161h 6.84684" fill="none" stroke="black"/>
<path d="M343.259,266.161h 6.84684" fill="none" stroke="black"/>
<g fill="black">
<polygon points=" 341.839, 269.003 342.477, 267.039 344.541, 267.039 342.871, 265.825 343.509, 263.862 341.839, 265.075 340.168, 263.862 340.806, 265.825 339.136, 267.039 341.201, 267.039"/>
</g>
<path d="M350.106,278.871h 6.84684" fill="none" stroke="black"/>
<path d="M359.795,278.871h 6.84684" fill="none" stroke="black"/>
<g fill="black">
<polygon points=" 358.374, 281.712 359.012, 279.749 361.077, 279.749 359.406, 278.535 360.044, 276.572 358.374, 277.785 356.704, 276.572 357.342, 278.535 355.671, 279.749 357.736, 279.749"/>
</g>
<path d="M366.642,293.842h 6.84684" fill="none" stroke="black"/>
<path d="M376.33,293.842h 6.84684" fill="none" stroke="black"/>
<g fill="black">
<polygon points=" 374.909, 296.684 375.547, 294.72 377.612, 294.72 375.942, 293.507 376.58, 291.543 374.909, 292.757 373.239, 291.543 373.877, 293.507 372.207, 294.72 374.271, 294.72"/>
</g>
<path d="M383.177,316.115h 6.84684" fill="none" stroke="black"/>
<path d="M392.866,316.115h 6.84684" fill="none" stroke="black"/>
<g fill="black">
<polygon points=" 391.445, 318.957 392.083, 316.993 394.147, 316.993 392.477, 315.78 393.115, 313.816 391.445, 315.03 389.775, 313.816 390.413, 315.78 388.742, 316.993 390.807, 316.993"/>
</g>
<path d="M399.713,335.365h 6.84684" fill="none" stroke="black"/>
<path d="M409.401,335.365h 6.84684" fill="none" stroke="black"/>
<g fill="black">
<polygon points=" 407.98, 338.206 408.618, 336.243 410.683, 336.243 409.013, 335.029 409.651, 333.066 407.98, 334.279 406.31, 333.066 406.948, 335.029 405.278, 336.243 407.342, 336.243"/>
</g>
<path d="M416.248,348.837h 6.84684" fill="none" stroke="black"/>
<path d="M425.937,348.837h 6.84684" fill="none" stroke="black"/>
<g fill="black">
<polygon points=" 424.516, 351.678 425.154, 349.715 427.218, 349.715 425.548, 348.501 426.186, 346.538 424.516, 347.751 422.845, 346.538 423.483, 348.501 421.813, 349.715 423.878, 349.715"/>
</g>
<path d="M432.783,355.499h 6.84684" fill="none" stroke="black"/>
<path d="M442.472,355.499h 6.84684" fill="none" stroke="black"/>
<g fill="black">
<polygon points=" 441.051, 358.341 441.689, 356.377 443.754, 356.377 442.083, 355.163 442.721, 353.2 441.051, 354.413 439.381, 353.2 440.019, 355.163 438.349, 356.377 440.413, 356.377"/>
</g>
<path d="M118.61,351.27h 5.42597" fill="none" stroke="black"/>
<path d="M129.72,351.27h 5.42597" fill="none" stroke="black"/>
<g stroke="black" stroke-width="1" fill="none">
<rect x="124.036" y="348.429" width="5.6835" height="5.6835"/>
</g>
<path d="M135.146,338.02h 5.42597" fill="none" stroke="black"/>
<path d="M146.255,338.02h 5.42597" fill="none" stroke="black"/>
<g stroke="black" stroke-width="1" fill="none">
<rect x="140.572" y="335.178" width="5.6835" height="5.6835"/>
</g>
<path d="M151.681,315.82h 5.42597" fill="none" stroke="black"/>
<path d="M162.791,315.82h 5.42597" fill="none" stroke="black"/>
<g stroke="black" stroke-width="1" fill="none">
<rect x="157.107" y="312.979" width="5.6835" height="5.6835"/>
</g>
<path d="M168.217,287.278h 5.42597" fill="none" stroke="black"/>
<path d="M179.326,287.278h 5.42597" fill="none" stroke="black"/>
<g stroke="black" stroke-width="1" fill="none">
<rect x="173.643" y="284.437" width="5.6835" height="5.6835"/>
</g>
<path d="M184.752,256.966h 5.42597" fill="none" stroke="black"/>
<path d="M195.861,256.966h 5.42597" fill="none" stroke="black"/>
<g stroke="black" stroke-width="1" fill="none">
<rect x="190.178" y="254.125" width="5.6835" height="5.6835"/>
</g>
<path d="M201.287,238.774h 5.42597" fill="none" stroke="black"/>
<path d="M212.397,238.774h 5.42597" fill="none" stroke="black"/>
<g stroke="black" stroke-width="1" fill="none">
<rect x="206.713" y="235.932" width="5.6835" height="5.6835"/>
</g>
<path d="M217.823,227.515h 5.42597" fill="none" stroke="black"/>
<path d="M228.932,227.515h 5.42597" fill="none" stroke="black"/>
<g stroke="black" stroke-width="1" fill="none">
<rect x="223.249" y="224.673" width="5.6835" height="5.6835"/>
</g>
<path d="M234.358,231.768h 5.42597" fill="none" stroke="black"/>
<path d="M245.468,231.768h 5.42597" fill="none" stroke="black"/>
<g stroke="black" stroke-width="1" fill="none">
<rect x="239.784" y="228.926" width="5.6835" height="5.6835"/>
</g>
<path d="M250.894,239.29h 5.42597" fill="none" stroke="black"/>
<path d="M262.003,239.29h 5.42597" fill="none" stroke="black"/>
<g stroke="black" stroke-width="1" fill="none">
<rect x="256.32" y="236.449" width="5.6835" height="5.6835"/>
</g>
<path d="M267.429,248.067h 5.42597" fill="none" stroke="black"/>
<path d="M278.539,248.067h 5.42597" fill="none" stroke="black"/>
<g stroke="black" stroke-width="1" fill="none">
<rect x="272.855" y="245.225" width="5.6835" height="5.6835"/>
</g>
<path d="M283.965,256.008h 5.42597" fill="none" stroke="black"/>
<path d="M295.074,256.008h 5.42597" fill="none" stroke="black"/>
<g stroke="black" stroke-width="1" fill="none">
<rect x="289.391" y="253.166" width="5.6835" height="5.6835"/>
</g>
<path d="M300.5,260.654h 5.42597" fill="none" stroke="black"/>
<path d="M311.609,260.654h 5.42597" fill="none" stroke="black"/>
<g stroke="black" stroke-width="1" fill="none">
<rect x="305.926" y="257.812" width="5.6835" height="5.6835"/>
</g>
<path d="M317.035,265.767h 5.42597" fill="none" stroke="black"/>
<path d="M328.145,265.767h 5.42597" fill="none" stroke="black"/>
<g stroke="black" stroke-width="1" fill="none">
<rect x="322.461" y="262.926" width="5.6835" height="5.6835"/>
</g>
<path d="M333.571,266.185h 5.42597" fill="none" stroke="black"/>
<path d="M344.68,266.185h 5.42597" fill="none" stroke="black"/>
<g stroke="black" stroke-width="1" fill="none">
<rect x="338.997" y="263.344" width="5.6835" height="5.6835"/>
</g>
<path d="M350.106,278.772h 5.42597" fill="none" stroke="black"/>
<path d="M361.216,278.772h 5.42597" fill="none" stroke="black"/>
<g stroke="black" stroke-width="1" fill="none">
<rect x="355.532" y="275.931" width="5.6835" height="5.6835"/>
</g>
<path d="M366.642,293.842h 5.42597" fill="none" stroke="black"/>
<path d="M377.751,293.842h 5.42597" fill="none" stroke="black"/>
<g stroke="black" stroke-width="1" fill="none">
<rect x="372.068" y="291.001" width="5.6835" height="5.6835"/>
</g>
<path d="M383.177,316.14h 5.42597" fill="none" stroke="black"/>
<path d="M394.287,316.14h 5.42597" fill="none" stroke="black"/>
<g stroke="black" stroke-width="1" fill="none">
<rect x="388.603" y="313.298" width="5.6835" height="5.6835"/>
</g>
<path d="M399.713,335.438h 5.42597" fill="none" stroke="black"/>
<path d="M410.822,335.438h 5.42597" fill="none" stroke="black"/>
<g stroke="black" stroke-width="1" fill="none">
<rect x="405.139" y="332.597" width="5.6835" height="5.6835"/>
</g>
<path d="M416.248,348.861h 5.42597" fill="none" stroke="black"/>
<path d="M427.358,348.861h 5.42597" fill="none" stroke="black"/>
<g stroke="black" stroke-width="1" fill="none">
<rect x="421.674" y="346.019" width="5.6835" height="5.6835"/>
</g>
<path d="M432.783,355.474h 5.42597" fill="none" stroke="black"/>
<path d="M443.893,355.474h 5.42597" fill="none" stroke="black"/>
<g stroke="black" stroke-width="1" fill="none">
<rect x="438.209" y="352.632" width="5.6835" height="5.6835"/>
</g>
<text xml:space="preserve" x="117.722" y="48.3098" fill="black" font-size="11.7432" font-family="Helvetica">PYTHIA8, option3</text>
<text xml:space="preserve" x="117.722" y="82.4108" fill="black" font-size="11.7432" font-family="Helvetica">p+Au, 200 GeV</text>
<text xml:space="preserve" x="187.345" y="116.512" fill="black" font-size="11.7432" font-family="Helvetica"> in mid-rapidity, New-MC sets</text>
<text xml:space="preserve" x="183.082" y="112.249" fill="black" font-size="7.99544" font-family="Helvetica">0</text>
<text xml:space="preserve" x="176.689" y="116.512" fill="black" font-size="11.7432" font-family="Times">&#0960;</text>
<text xml:space="preserve" x="170.295" y="116.512" fill="black" font-size="11.7432" font-family="Helvetica">, </text>
<text xml:space="preserve" x="161.769" y="111.539" fill="black" font-size="7.99544" font-family="Helvetica">dir</text>
<text xml:space="preserve" x="156.086" y="116.512" fill="black" font-size="11.7432" font-family="Times">&#0947;</text>
<g fill="black">
<polygon points=" 135.146, 115.69 135.784, 113.727 137.848, 113.727 136.178, 112.513 136.816, 110.55 135.146, 111.763 133.475, 110.55 134.113, 112.513 132.443, 113.727 134.508, 113.727"/>
</g>
<text xml:space="preserve" x="187.345" y="150.613" fill="black" font-size="11.7432" font-family="Helvetica"> in mid-rapidity, Old-MC sets</text>
<text xml:space="preserve" x="183.082" y="146.35" fill="black" font-size="7.99544" font-family="Helvetica">0</text>
<text xml:space="preserve" x="176.689" y="150.613" fill="black" font-size="11.7432" font-family="Times">&#0960;</text>
<text xml:space="preserve" x="170.295" y="150.613" fill="black" font-size="11.7432" font-family="Helvetica">, </text>
<text xml:space="preserve" x="161.769" y="145.64" fill="black" font-size="7.99544" font-family="Helvetica">dir</text>
<text xml:space="preserve" x="156.086" y="150.613" fill="black" font-size="11.7432" font-family="Times">&#0947;</text>
<g stroke="black" stroke-width="1" fill="none">
<rect x="132.304" y="143.708" width="5.6835" height="5.6835"/>
</g></svg>
