<?xml version="1.0" standalone="no"?>
<svg width="567.429" height="409.002" viewBox="0 0 567.429 409.002" xmlns="http://www.w3.org/2000/svg" shape-rendering="crispEdges">
<title>
/Users/jinhyunpark/npl/gitHub/git_share/Git_Bias_correction_RxA/plots_dirAdded/plots_testForNewMC/ratio_dNdpT_dirMB_byMCversion.svg
</title>
<desc>
Creator: ROOT Version 6.28/04
CreationDate: Thu Sep 21 13:47:22 2023</desc>
<defs>
</defs>
<rect x="0.5" y="0" width="566.929" height="408.502" fill="white"/>
<rect x="85.5394" y="20.4251" width="396.85" height="339.056" fill="white"/>
<rect x="85.5394" y="20.4251" width="396.85" height="339.056" fill="none" stroke="black"/>
<rect x="85.5394" y="20.4251" width="396.85" height="339.056" fill="white"/>
<rect x="85.5394" y="20.4251" width="396.85" height="339.056" fill="none" stroke="black"/>
<path d="M85.5394,359.481h 396.85" fill="none" stroke="black"/>
<path d="M85.5394,350.903v 8.57853" fill="none" stroke="black"/>
<path d="M93.4764,355.192v 4.28927" fill="none" stroke="black"/>
<path d="M101.413,355.192v 4.28927" fill="none" stroke="black"/>
<path d="M109.35,355.192v 4.28927" fill="none" stroke="black"/>
<path d="M117.287,355.192v 4.28927" fill="none" stroke="black"/>
<path d="M125.224,350.903v 8.57853" fill="none" stroke="black"/>
<path d="M133.161,355.192v 4.28927" fill="none" stroke="black"/>
<path d="M141.098,355.192v 4.28927" fill="none" stroke="black"/>
<path d="M149.035,355.192v 4.28927" fill="none" stroke="black"/>
<path d="M156.972,355.192v 4.28927" fill="none" stroke="black"/>
<path d="M164.909,350.903v 8.57853" fill="none" stroke="black"/>
<path d="M172.846,355.192v 4.28927" fill="none" stroke="black"/>
<path d="M180.783,355.192v 4.28927" fill="none" stroke="black"/>
<path d="M188.72,355.192v 4.28927" fill="none" stroke="black"/>
<path d="M196.657,355.192v 4.28927" fill="none" stroke="black"/>
<path d="M204.594,350.903v 8.57853" fill="none" stroke="black"/>
<path d="M212.531,355.192v 4.28927" fill="none" stroke="black"/>
<path d="M220.469,355.192v 4.28927" fill="none" stroke="black"/>
<path d="M228.406,355.192v 4.28927" fill="none" stroke="black"/>
<path d="M236.343,355.192v 4.28927" fill="none" stroke="black"/>
<path d="M244.28,350.903v 8.57853" fill="none" stroke="black"/>
<path d="M252.217,355.192v 4.28927" fill="none" stroke="black"/>
<path d="M260.154,355.192v 4.28927" fill="none" stroke="black"/>
<path d="M268.091,355.192v 4.28927" fill="none" stroke="black"/>
<path d="M276.028,355.192v 4.28927" fill="none" stroke="black"/>
<path d="M283.965,350.903v 8.57853" fill="none" stroke="black"/>
<path d="M291.902,355.192v 4.28927" fill="none" stroke="black"/>
<path d="M299.839,355.192v 4.28927" fill="none" stroke="black"/>
<path d="M307.776,355.192v 4.28927" fill="none" stroke="black"/>
<path d="M315.713,355.192v 4.28927" fill="none" stroke="black"/>
<path d="M323.65,350.903v 8.57853" fill="none" stroke="black"/>
<path d="M331.587,355.192v 4.28927" fill="none" stroke="black"/>
<path d="M339.524,355.192v 4.28927" fill="none" stroke="black"/>
<path d="M347.461,355.192v 4.28927" fill="none" stroke="black"/>
<path d="M355.398,355.192v 4.28927" fill="none" stroke="black"/>
<path d="M363.335,350.903v 8.57853" fill="none" stroke="black"/>
<path d="M371.272,355.192v 4.28927" fill="none" stroke="black"/>
<path d="M379.209,355.192v 4.28927" fill="none" stroke="black"/>
<path d="M387.146,355.192v 4.28927" fill="none" stroke="black"/>
<path d="M395.083,355.192v 4.28927" fill="none" stroke="black"/>
<path d="M403.02,350.903v 8.57853" fill="none" stroke="black"/>
<path d="M410.957,355.192v 4.28927" fill="none" stroke="black"/>
<path d="M418.894,355.192v 4.28927" fill="none" stroke="black"/>
<path d="M426.831,355.192v 4.28927" fill="none" stroke="black"/>
<path d="M434.768,355.192v 4.28927" fill="none" stroke="black"/>
<path d="M442.705,350.903v 8.57853" fill="none" stroke="black"/>
<path d="M450.642,355.192v 4.28927" fill="none" stroke="black"/>
<path d="M458.579,355.192v 4.28927" fill="none" stroke="black"/>
<path d="M466.516,355.192v 4.28927" fill="none" stroke="black"/>
<path d="M474.453,355.192v 4.28927" fill="none" stroke="black"/>
<path d="M482.39,350.903v 8.57853" fill="none" stroke="black"/>
<text xml:space="preserve" x="81.4899" y="372.269" fill="black" font-size="13.617" font-family="Helvetica">0</text>
<text xml:space="preserve" x="121.985" y="372.269" fill="black" font-size="13.617" font-family="Helvetica">1</text>
<text xml:space="preserve" x="161.059" y="372.269" fill="black" font-size="13.617" font-family="Helvetica">2</text>
<text xml:space="preserve" x="200.843" y="372.269" fill="black" font-size="13.617" font-family="Helvetica">3</text>
<text xml:space="preserve" x="240.628" y="372.269" fill="black" font-size="13.617" font-family="Helvetica">4</text>
<text xml:space="preserve" x="280.412" y="372.269" fill="black" font-size="13.617" font-family="Helvetica">5</text>
<text xml:space="preserve" x="319.486" y="372.269" fill="black" font-size="13.617" font-family="Helvetica">6</text>
<text xml:space="preserve" x="359.271" y="372.269" fill="black" font-size="13.617" font-family="Helvetica">7</text>
<text xml:space="preserve" x="399.055" y="372.269" fill="black" font-size="13.617" font-family="Helvetica">8</text>
<text xml:space="preserve" x="438.84" y="372.269" fill="black" font-size="13.617" font-family="Helvetica">9</text>
<text xml:space="preserve" x="474.362" y="372.269" fill="black" font-size="13.617" font-family="Helvetica">10</text>
<text xml:space="preserve" x="476.493" y="390.741" fill="black" font-size="9.24468" font-family="Helvetica">T</text>
<text xml:space="preserve" x="468.678" y="382.926" fill="black" font-size="13.617" font-family="Helvetica">p</text>
<path d="M85.5394,20.4251h 396.85" fill="none" stroke="black"/>
<path d="M85.5394,29.0036v -8.57853" fill="none" stroke="black"/>
<path d="M93.4764,24.7143v -4.28927" fill="none" stroke="black"/>
<path d="M101.413,24.7143v -4.28927" fill="none" stroke="black"/>
<path d="M109.35,24.7143v -4.28927" fill="none" stroke="black"/>
<path d="M117.287,24.7143v -4.28927" fill="none" stroke="black"/>
<path d="M125.224,29.0036v -8.57853" fill="none" stroke="black"/>
<path d="M133.161,24.7143v -4.28927" fill="none" stroke="black"/>
<path d="M141.098,24.7143v -4.28927" fill="none" stroke="black"/>
<path d="M149.035,24.7143v -4.28927" fill="none" stroke="black"/>
<path d="M156.972,24.7143v -4.28927" fill="none" stroke="black"/>
<path d="M164.909,29.0036v -8.57853" fill="none" stroke="black"/>
<path d="M172.846,24.7143v -4.28927" fill="none" stroke="black"/>
<path d="M180.783,24.7143v -4.28927" fill="none" stroke="black"/>
<path d="M188.72,24.7143v -4.28927" fill="none" stroke="black"/>
<path d="M196.657,24.7143v -4.28927" fill="none" stroke="black"/>
<path d="M204.594,29.0036v -8.57853" fill="none" stroke="black"/>
<path d="M212.531,24.7143v -4.28927" fill="none" stroke="black"/>
<path d="M220.469,24.7143v -4.28927" fill="none" stroke="black"/>
<path d="M228.406,24.7143v -4.28927" fill="none" stroke="black"/>
<path d="M236.343,24.7143v -4.28927" fill="none" stroke="black"/>
<path d="M244.28,29.0036v -8.57853" fill="none" stroke="black"/>
<path d="M252.217,24.7143v -4.28927" fill="none" stroke="black"/>
<path d="M260.154,24.7143v -4.28927" fill="none" stroke="black"/>
<path d="M268.091,24.7143v -4.28927" fill="none" stroke="black"/>
<path d="M276.028,24.7143v -4.28927" fill="none" stroke="black"/>
<path d="M283.965,29.0036v -8.57853" fill="none" stroke="black"/>
<path d="M291.902,24.7143v -4.28927" fill="none" stroke="black"/>
<path d="M299.839,24.7143v -4.28927" fill="none" stroke="black"/>
<path d="M307.776,24.7143v -4.28927" fill="none" stroke="black"/>
<path d="M315.713,24.7143v -4.28927" fill="none" stroke="black"/>
<path d="M323.65,29.0036v -8.57853" fill="none" stroke="black"/>
<path d="M331.587,24.7143v -4.28927" fill="none" stroke="black"/>
<path d="M339.524,24.7143v -4.28927" fill="none" stroke="black"/>
<path d="M347.461,24.7143v -4.28927" fill="none" stroke="black"/>
<path d="M355.398,24.7143v -4.28927" fill="none" stroke="black"/>
<path d="M363.335,29.0036v -8.57853" fill="none" stroke="black"/>
<path d="M371.272,24.7143v -4.28927" fill="none" stroke="black"/>
<path d="M379.209,24.7143v -4.28927" fill="none" stroke="black"/>
<path d="M387.146,24.7143v -4.28927" fill="none" stroke="black"/>
<path d="M395.083,24.7143v -4.28927" fill="none" stroke="black"/>
<path d="M403.02,29.0036v -8.57853" fill="none" stroke="black"/>
<path d="M410.957,24.7143v -4.28927" fill="none" stroke="black"/>
<path d="M418.894,24.7143v -4.28927" fill="none" stroke="black"/>
<path d="M426.831,24.7143v -4.28927" fill="none" stroke="black"/>
<path d="M434.768,24.7143v -4.28927" fill="none" stroke="black"/>
<path d="M442.705,29.0036v -8.57853" fill="none" stroke="black"/>
<path d="M450.642,24.7143v -4.28927" fill="none" stroke="black"/>
<path d="M458.579,24.7143v -4.28927" fill="none" stroke="black"/>
<path d="M466.516,24.7143v -4.28927" fill="none" stroke="black"/>
<path d="M474.453,24.7143v -4.28927" fill="none" stroke="black"/>
<path d="M482.39,29.0036v -8.57853" fill="none" stroke="black"/>
<path d="M85.5394,359.481v -339.056" fill="none" stroke="black"/>
<path d="M99.6559,359.481h -14.1165" fill="none" stroke="black"/>
<path d="M92.5976,345.354h -7.05827" fill="none" stroke="black"/>
<path d="M92.5976,331.227h -7.05827" fill="none" stroke="black"/>
<path d="M92.5976,317.099h -7.05827" fill="none" stroke="black"/>
<path d="M99.6559,302.972h -14.1165" fill="none" stroke="black"/>
<path d="M92.5976,288.845h -7.05827" fill="none" stroke="black"/>
<path d="M92.5976,274.717h -7.05827" fill="none" stroke="black"/>
<path d="M92.5976,260.59h -7.05827" fill="none" stroke="black"/>
<path d="M99.6559,246.463h -14.1165" fill="none" stroke="black"/>
<path d="M92.5976,232.335h -7.05827" fill="none" stroke="black"/>
<path d="M92.5976,218.208h -7.05827" fill="none" stroke="black"/>
<path d="M92.5976,204.081h -7.05827" fill="none" stroke="black"/>
<path d="M99.6559,189.953h -14.1165" fill="none" stroke="black"/>
<path d="M92.5976,175.826h -7.05827" fill="none" stroke="black"/>
<path d="M92.5976,161.699h -7.05827" fill="none" stroke="black"/>
<path d="M92.5976,147.571h -7.05827" fill="none" stroke="black"/>
<path d="M99.6559,133.444h -14.1165" fill="none" stroke="black"/>
<path d="M92.5976,119.317h -7.05827" fill="none" stroke="black"/>
<path d="M92.5976,105.189h -7.05827" fill="none" stroke="black"/>
<path d="M92.5976,91.0618h -7.05827" fill="none" stroke="black"/>
<path d="M99.6559,76.9345h -14.1165" fill="none" stroke="black"/>
<path d="M92.5976,62.8071h -7.05827" fill="none" stroke="black"/>
<path d="M92.5976,48.6798h -7.05827" fill="none" stroke="black"/>
<path d="M92.5976,34.5524h -7.05827" fill="none" stroke="black"/>
<path d="M99.6559,20.4251h -14.1165" fill="none" stroke="black"/>
<text xml:space="preserve" x="63.7289" y="364.454" fill="black" font-size="13.617" font-family="Helvetica">0.8</text>
<text xml:space="preserve" x="77.2272" y="308.33" fill="black" font-size="13.617" font-family="Helvetica">1</text>
<text xml:space="preserve" x="63.7289" y="251.495" fill="black" font-size="13.617" font-family="Helvetica">1.2</text>
<text xml:space="preserve" x="63.7289" y="195.37" fill="black" font-size="13.617" font-family="Helvetica">1.4</text>
<text xml:space="preserve" x="63.7289" y="137.825" fill="black" font-size="13.617" font-family="Helvetica">1.6</text>
<text xml:space="preserve" x="63.7289" y="81.7003" fill="black" font-size="13.617" font-family="Helvetica">1.8</text>
<text xml:space="preserve" x="75.0959" y="25.5758" fill="black" font-size="13.617" font-family="Helvetica">2</text>
<g transform="rotate(-90,57.335,76.0168)">
<text xml:space="preserve" x="57.335" y="76.0168" fill="black" font-size="9.24468" font-family="Helvetica">reference MC</text>
</g>
<g transform="rotate(-90,49.5202,79.569)">
<text xml:space="preserve" x="49.5202" y="79.569" fill="black" font-size="13.617" font-family="Helvetica">)</text>
</g>
<g transform="rotate(-90,65.1498,88.8047)">
<text xml:space="preserve" x="65.1498" y="88.8047" fill="black" font-size="9.24468" font-family="Helvetica">T</text>
</g>
<g transform="rotate(-90,57.335,103.724)">
<text xml:space="preserve" x="57.335" y="103.724" fill="black" font-size="13.617" font-family="Helvetica">dp</text>
</g>
<g transform="rotate(-90,31.7593,85.9629)">
<text xml:space="preserve" x="31.7593" y="85.9629" fill="black" font-size="6.32979" font-family="Helvetica">dir</text>
</g>
<g transform="rotate(-90,35.3114,90.936)">
<text xml:space="preserve" x="35.3114" y="90.936" fill="black" font-size="9.24468" font-family="Times">&#0947;</text>
</g>
<g transform="rotate(-90,43.1263,107.276)">
<text xml:space="preserve" x="43.1263" y="107.276" fill="black" font-size="13.617" font-family="Helvetica">dN</text>
</g>
<path d="M45.968,107.276v -27.7071" fill="none" stroke="black" stroke-width="2"/>
<g transform="rotate(-90,49.5202,111.539)">
<text xml:space="preserve" x="49.5202" y="111.539" fill="black" font-size="13.617" font-family="Helvetica"> </text>
</g>
<g transform="rotate(-90,61.5976,134.273)">
<text xml:space="preserve" x="61.5976" y="134.273" fill="black" font-size="9.24468" font-family="Helvetica">event</text>
</g>
<g transform="rotate(-90,57.335,143.508)">
<text xml:space="preserve" x="57.335" y="143.508" fill="black" font-size="13.617" font-family="Helvetica">N</text>
</g>
<g transform="rotate(-90,43.8367,130.01)">
<text xml:space="preserve" x="43.8367" y="130.01" fill="black" font-size="13.617" font-family="Helvetica">1</text>
</g>
<path d="M45.968,143.508v -31.9697" fill="none" stroke="black" stroke-width="2"/>
<g transform="rotate(-90,49.5202,159.138)">
<text xml:space="preserve" x="49.5202" y="159.138" fill="black" font-size="13.617" font-family="Helvetica"> / (</text>
</g>
<g transform="rotate(-90,57.335,199.633)">
<text xml:space="preserve" x="57.335" y="199.633" fill="black" font-size="9.24468" font-family="Helvetica">target MC</text>
</g>
<g transform="rotate(-90,49.5202,203.185)">
<text xml:space="preserve" x="49.5202" y="203.185" fill="black" font-size="13.617" font-family="Helvetica">)</text>
</g>
<g transform="rotate(-90,65.1498,212.421)">
<text xml:space="preserve" x="65.1498" y="212.421" fill="black" font-size="9.24468" font-family="Helvetica">T</text>
</g>
<g transform="rotate(-90,57.335,227.34)">
<text xml:space="preserve" x="57.335" y="227.34" fill="black" font-size="13.617" font-family="Helvetica">dp</text>
</g>
<g transform="rotate(-90,31.7593,209.579)">
<text xml:space="preserve" x="31.7593" y="209.579" fill="black" font-size="6.32979" font-family="Helvetica">dir</text>
</g>
<g transform="rotate(-90,35.3114,214.552)">
<text xml:space="preserve" x="35.3114" y="214.552" fill="black" font-size="9.24468" font-family="Times">&#0947;</text>
</g>
<g transform="rotate(-90,43.1263,230.892)">
<text xml:space="preserve" x="43.1263" y="230.892" fill="black" font-size="13.617" font-family="Helvetica">dN</text>
</g>
<path d="M45.968,230.892v -27.7071" fill="none" stroke="black" stroke-width="2"/>
<g transform="rotate(-90,49.5202,235.155)">
<text xml:space="preserve" x="49.5202" y="235.155" fill="black" font-size="13.617" font-family="Helvetica"> </text>
</g>
<g transform="rotate(-90,61.5976,257.889)">
<text xml:space="preserve" x="61.5976" y="257.889" fill="black" font-size="9.24468" font-family="Helvetica">event</text>
</g>
<g transform="rotate(-90,57.335,267.125)">
<text xml:space="preserve" x="57.335" y="267.125" fill="black" font-size="13.617" font-family="Helvetica">N</text>
</g>
<g transform="rotate(-90,43.8367,253.626)">
<text xml:space="preserve" x="43.8367" y="253.626" fill="black" font-size="13.617" font-family="Helvetica">1</text>
</g>
<path d="M45.968,267.125v -31.9697" fill="none" stroke="black" stroke-width="2"/>
<g transform="rotate(-90,49.5202,271.387)">
<text xml:space="preserve" x="49.5202" y="271.387" fill="black" font-size="13.617" font-family="Helvetica">(</text>
</g>
<path d="M482.39,359.481v -339.056" fill="none" stroke="black"/>
<path d="M468.273,359.481h 14.1165" fill="none" stroke="black"/>
<path d="M475.332,345.354h 7.05827" fill="none" stroke="black"/>
<path d="M475.332,331.227h 7.05827" fill="none" stroke="black"/>
<path d="M475.332,317.099h 7.05827" fill="none" stroke="black"/>
<path d="M468.273,302.972h 14.1165" fill="none" stroke="black"/>
<path d="M475.332,288.845h 7.05827" fill="none" stroke="black"/>
<path d="M475.332,274.717h 7.05827" fill="none" stroke="black"/>
<path d="M475.332,260.59h 7.05827" fill="none" stroke="black"/>
<path d="M468.273,246.463h 14.1165" fill="none" stroke="black"/>
<path d="M475.332,232.335h 7.05827" fill="none" stroke="black"/>
<path d="M475.332,218.208h 7.05827" fill="none" stroke="black"/>
<path d="M475.332,204.081h 7.05827" fill="none" stroke="black"/>
<path d="M468.273,189.953h 14.1165" fill="none" stroke="black"/>
<path d="M475.332,175.826h 7.05827" fill="none" stroke="black"/>
<path d="M475.332,161.699h 7.05827" fill="none" stroke="black"/>
<path d="M475.332,147.571h 7.05827" fill="none" stroke="black"/>
<path d="M468.273,133.444h 14.1165" fill="none" stroke="black"/>
<path d="M475.332,119.317h 7.05827" fill="none" stroke="black"/>
<path d="M475.332,105.189h 7.05827" fill="none" stroke="black"/>
<path d="M475.332,91.0618h 7.05827" fill="none" stroke="black"/>
<path d="M468.273,76.9345h 14.1165" fill="none" stroke="black"/>
<path d="M475.332,62.8071h 7.05827" fill="none" stroke="black"/>
<path d="M475.332,48.6798h 7.05827" fill="none" stroke="black"/>
<path d="M475.332,34.5524h 7.05827" fill="none" stroke="black"/>
<path d="M468.273,20.4251h 14.1165" fill="none" stroke="black"/>
<path d="M95.4606,305.851v -0.147572" fill="none" stroke="#00cccc"/>
<path d="M95.4606,300.02v -0.147572" fill="none" stroke="#00cccc"/>
<path d="M85.5394,302.862h 7.07951" fill="none" stroke="#00cccc"/>
<path d="M98.3024,302.862h 7.07951" fill="none" stroke="#00cccc"/>
<g stroke="#00cccc" stroke-width="1" fill="none">
<rect x="92.6189" y="300.02" width="5.6835" height="5.6835"/>
</g>
<path d="M105.382,302.874h 7.07951" fill="none" stroke="#00cccc"/>
<path d="M118.145,302.874h 7.07951" fill="none" stroke="#00cccc"/>
<g stroke="#00cccc" stroke-width="1" fill="none">
<rect x="112.461" y="300.032" width="5.6835" height="5.6835"/>
</g>
<path d="M135.146,307.154v -1.37149" fill="none" stroke="#00cccc"/>
<path d="M135.146,300.099v -1.37149" fill="none" stroke="#00cccc"/>
<path d="M125.224,302.941h 7.07951" fill="none" stroke="#00cccc"/>
<path d="M137.987,302.941h 7.07951" fill="none" stroke="#00cccc"/>
<g stroke="#00cccc" stroke-width="1" fill="none">
<rect x="132.304" y="300.099" width="5.6835" height="5.6835"/>
</g>
<path d="M154.988,309.93v -4.2959" fill="none" stroke="#00cccc"/>
<path d="M154.988,299.951v -4.2959" fill="none" stroke="#00cccc"/>
<path d="M145.067,302.793h 7.07951" fill="none" stroke="#00cccc"/>
<path d="M157.83,302.793h 7.07951" fill="none" stroke="#00cccc"/>
<g stroke="#00cccc" stroke-width="1" fill="none">
<rect x="152.146" y="299.951" width="5.6835" height="5.6835"/>
</g>
<path d="M184.752,313.535v -7.02815" fill="none" stroke="#00cccc"/>
<path d="M184.752,300.823v -7.02815" fill="none" stroke="#00cccc"/>
<path d="M164.909,303.665h 17.0008" fill="none" stroke="#00cccc"/>
<path d="M187.594,303.665h 17.0008" fill="none" stroke="#00cccc"/>
<g stroke="#00cccc" stroke-width="1" fill="none">
<rect x="181.91" y="300.823" width="5.6835" height="5.6835"/>
</g>
<path d="M224.437,323.21v -18.1741" fill="none" stroke="#00cccc"/>
<path d="M224.437,299.353v -18.1741" fill="none" stroke="#00cccc"/>
<path d="M204.594,302.194h 17.0008" fill="none" stroke="#00cccc"/>
<path d="M227.279,302.194h 17.0008" fill="none" stroke="#00cccc"/>
<g stroke="#00cccc" stroke-width="1" fill="none">
<rect x="221.595" y="299.353" width="5.6835" height="5.6835"/>
</g>
<path d="M264.122,347.099v -41.2846" fill="none" stroke="#00cccc"/>
<path d="M264.122,300.131v -41.2846" fill="none" stroke="#00cccc"/>
<path d="M244.28,302.973h 17.0008" fill="none" stroke="#00cccc"/>
<path d="M266.964,302.973h 17.0008" fill="none" stroke="#00cccc"/>
<g stroke="#00cccc" stroke-width="1" fill="none">
<rect x="261.28" y="300.131" width="5.6835" height="5.6835"/>
</g>
<path d="M323.65,359.481v -53.667" fill="none" stroke="#00cccc"/>
<path d="M323.65,300.131v -57.3973" fill="none" stroke="#00cccc"/>
<path d="M283.965,302.973h 36.8433" fill="none" stroke="#00cccc"/>
<path d="M326.491,302.973h 36.8433" fill="none" stroke="#00cccc"/>
<g stroke="#00cccc" stroke-width="1" fill="none">
<rect x="320.808" y="300.131" width="5.6835" height="5.6835"/>
</g>
<path d="M422.862,359.481v -53.667" fill="none" stroke="#00cccc"/>
<path d="M422.862,300.131v -138.431" fill="none" stroke="#00cccc"/>
<path d="M363.335,302.973h 56.6858" fill="none" stroke="#00cccc"/>
<path d="M425.704,302.973h 56.6858" fill="none" stroke="#00cccc"/>
<g stroke="#00cccc" stroke-width="1" fill="none">
<rect x="420.02" y="300.131" width="5.6835" height="5.6835"/>
</g>
<path d="M95.4606,286.53v -0.863813" fill="none" stroke="#cc0000"/>
<path d="M95.4606,282.824v -0.863813" fill="none" stroke="#cc0000"/>
<path d="M85.5394,284.245h 8.50039" fill="none" stroke="#cc0000"/>
<path d="M96.8815,284.245h 8.50039" fill="none" stroke="#cc0000"/>
<g fill="#cc0000">
<polygon points=" 95.4606, 287.087 96.0986, 285.123 98.1632, 285.123 96.493, 283.91 97.131, 281.946 95.4606, 283.16 93.7903, 281.946 94.4283, 283.91 92.758, 285.123 94.8226, 285.123"/>
</g>
<path d="M115.303,293.416v -0.338393" fill="none" stroke="#cc0000"/>
<path d="M115.303,290.236v -0.338393" fill="none" stroke="#cc0000"/>
<path d="M105.382,291.657h 8.50039" fill="none" stroke="#cc0000"/>
<path d="M116.724,291.657h 8.50039" fill="none" stroke="#cc0000"/>
<g fill="#cc0000">
<polygon points=" 115.303, 294.499 115.941, 292.535 118.006, 292.535 116.335, 291.322 116.973, 289.358 115.303, 290.572 113.633, 289.358 114.271, 291.322 112.601, 292.535 114.665, 292.535"/>
</g>
<path d="M135.146,283.786v -1.83912" fill="none" stroke="#cc0000"/>
<path d="M135.146,279.105v -1.83912" fill="none" stroke="#cc0000"/>
<path d="M125.224,280.526h 8.50039" fill="none" stroke="#cc0000"/>
<path d="M136.567,280.526h 8.50039" fill="none" stroke="#cc0000"/>
<g fill="#cc0000">
<polygon points=" 135.146, 283.368 135.784, 281.404 137.848, 281.404 136.178, 280.191 136.816, 278.227 135.146, 279.441 133.475, 278.227 134.113, 280.191 132.443, 281.404 134.508, 281.404"/>
</g>
<path d="M154.988,290.828v -4.01277" fill="none" stroke="#cc0000"/>
<path d="M154.988,283.974v -4.01277" fill="none" stroke="#cc0000"/>
<path d="M145.067,285.395h 8.50039" fill="none" stroke="#cc0000"/>
<path d="M156.409,285.395h 8.50039" fill="none" stroke="#cc0000"/>
<g fill="#cc0000">
<polygon points=" 154.988, 288.236 155.626, 286.273 157.691, 286.273 156.021, 285.059 156.659, 283.096 154.988, 284.309 153.318, 283.096 153.956, 285.059 152.286, 286.273 154.35, 286.273"/>
</g>
<path d="M184.752,278.28v -6.48183" fill="none" stroke="#cc0000"/>
<path d="M184.752,268.956v -6.48183" fill="none" stroke="#cc0000"/>
<path d="M164.909,270.377h 18.4216" fill="none" stroke="#cc0000"/>
<path d="M186.173,270.377h 18.4216" fill="none" stroke="#cc0000"/>
<g fill="#cc0000">
<polygon points=" 184.752, 273.219 185.39, 271.255 187.455, 271.255 185.784, 270.042 186.422, 268.078 184.752, 269.292 183.082, 268.078 183.72, 270.042 182.049, 271.255 184.114, 271.255"/>
</g>
<path d="M224.437,313.492v -13.8808" fill="none" stroke="#cc0000"/>
<path d="M224.437,296.77v -13.8808" fill="none" stroke="#cc0000"/>
<path d="M204.594,298.191h 18.4216" fill="none" stroke="#cc0000"/>
<path d="M225.858,298.191h 18.4216" fill="none" stroke="#cc0000"/>
<g fill="#cc0000">
<polygon points=" 224.437, 301.033 225.075, 299.069 227.14, 299.069 225.469, 297.855 226.107, 295.892 224.437, 297.105 222.767, 295.892 223.405, 297.855 221.734, 299.069 223.799, 299.069"/>
</g>
<path d="M264.122,288.054v -36.0294" fill="none" stroke="#cc0000"/>
<path d="M264.122,249.183v -36.0294" fill="none" stroke="#cc0000"/>
<path d="M244.28,250.604h 18.4216" fill="none" stroke="#cc0000"/>
<path d="M265.543,250.604h 18.4216" fill="none" stroke="#cc0000"/>
<g fill="#cc0000">
<polygon points=" 264.122, 253.446 264.76, 251.482 266.825, 251.482 265.154, 250.269 265.792, 248.305 264.122, 249.519 262.452, 248.305 263.09, 250.269 261.419, 251.482 263.484, 251.482"/>
</g>
<path d="M323.65,358.585v -39.6103" fill="none" stroke="#cc0000"/>
<path d="M323.65,316.133v -39.6103" fill="none" stroke="#cc0000"/>
<path d="M283.965,317.554h 38.2642" fill="none" stroke="#cc0000"/>
<path d="M325.07,317.554h 38.2642" fill="none" stroke="#cc0000"/>
<g fill="#cc0000">
<polygon points=" 323.65, 320.396 324.288, 318.432 326.352, 318.432 324.682, 317.219 325.32, 315.255 323.65, 316.469 321.979, 315.255 322.617, 317.219 320.947, 318.432 323.012, 318.432"/>
</g>
<path d="M422.862,359.481v -42.7217" fill="none" stroke="#cc0000"/>
<path d="M422.862,313.918v -95.589" fill="none" stroke="#cc0000"/>
<path d="M363.335,315.339h 58.1067" fill="none" stroke="#cc0000"/>
<path d="M424.283,315.339h 58.1067" fill="none" stroke="#cc0000"/>
<g fill="#cc0000">
<polygon points=" 422.862, 318.181 423.5, 316.217 425.565, 316.217 423.895, 315.003 424.533, 313.04 422.862, 314.253 421.192, 313.04 421.83, 315.003 420.16, 316.217 422.224, 316.217"/>
</g>
<path d="M95.4606,305.85v -0.147582" fill="none" stroke="#00cccc"/>
<path d="M95.4606,300.019v -0.147582" fill="none" stroke="#00cccc"/>
<path d="M85.5394,302.861h 7.07951" fill="none" stroke="#00cccc"/>
<path d="M98.3024,302.861h 7.07951" fill="none" stroke="#00cccc"/>
<g fill="#00cccc">
<circle cx="95.4606" cy="302.861" r="2.84175"/>
</g>
<path d="M105.382,302.765h 7.07951" fill="none" stroke="#00cccc"/>
<path d="M118.145,302.765h 7.07951" fill="none" stroke="#00cccc"/>
<g fill="#00cccc">
<circle cx="115.303" cy="302.765" r="2.84175"/>
</g>
<path d="M135.146,306.905v -1.37431" fill="none" stroke="#00cccc"/>
<path d="M135.146,299.847v -1.37431" fill="none" stroke="#00cccc"/>
<path d="M125.224,302.689h 7.07951" fill="none" stroke="#00cccc"/>
<path d="M137.987,302.689h 7.07951" fill="none" stroke="#00cccc"/>
<g fill="#00cccc">
<circle cx="135.146" cy="302.689" r="2.84175"/>
</g>
<path d="M154.988,309.752v -4.29933" fill="none" stroke="#00cccc"/>
<path d="M154.988,299.77v -4.29933" fill="none" stroke="#00cccc"/>
<path d="M145.067,302.611h 7.07951" fill="none" stroke="#00cccc"/>
<path d="M157.83,302.611h 7.07951" fill="none" stroke="#00cccc"/>
<g fill="#00cccc">
<circle cx="154.988" cy="302.611" r="2.84175"/>
</g>
<path d="M184.752,313.365v -7.03273" fill="none" stroke="#00cccc"/>
<path d="M184.752,300.649v -7.03273" fill="none" stroke="#00cccc"/>
<path d="M164.909,303.491h 17.0008" fill="none" stroke="#00cccc"/>
<path d="M187.594,303.491h 17.0008" fill="none" stroke="#00cccc"/>
<g fill="#00cccc">
<circle cx="184.752" cy="303.491" r="2.84175"/>
</g>
<path d="M224.437,325.414v -18.0442" fill="none" stroke="#00cccc"/>
<path d="M224.437,301.687v -18.0442" fill="none" stroke="#00cccc"/>
<path d="M204.594,304.528h 17.0008" fill="none" stroke="#00cccc"/>
<path d="M227.279,304.528h 17.0008" fill="none" stroke="#00cccc"/>
<g fill="#00cccc">
<circle cx="224.437" cy="304.528" r="2.84175"/>
</g>
<path d="M264.122,344.056v -41.6881" fill="none" stroke="#00cccc"/>
<path d="M264.122,296.684v -41.6881" fill="none" stroke="#00cccc"/>
<path d="M244.28,299.526h 17.0008" fill="none" stroke="#00cccc"/>
<path d="M266.964,299.526h 17.0008" fill="none" stroke="#00cccc"/>
<g fill="#00cccc">
<circle cx="264.122" cy="299.526" r="2.84175"/>
</g>
<path d="M323.65,359.481v -53.668" fill="none" stroke="#00cccc"/>
<path d="M323.65,300.13v -57.3975" fill="none" stroke="#00cccc"/>
<path d="M283.965,302.972h 36.8433" fill="none" stroke="#00cccc"/>
<path d="M326.491,302.972h 36.8433" fill="none" stroke="#00cccc"/>
<g fill="#00cccc">
<circle cx="323.65" cy="302.972" r="2.84175"/>
</g>
<path d="M422.862,359.481v -53.668" fill="none" stroke="#00cccc"/>
<path d="M422.862,300.13v -138.432" fill="none" stroke="#00cccc"/>
<path d="M363.335,302.972h 56.6858" fill="none" stroke="#00cccc"/>
<path d="M425.704,302.972h 56.6858" fill="none" stroke="#00cccc"/>
<g fill="#00cccc">
<circle cx="422.862" cy="302.972" r="2.84175"/>
</g>
<path d="M85.5394,301.654h 7.07951" fill="none" stroke="#cc0000"/>
<path d="M98.3024,301.654h 7.07951" fill="none" stroke="#cc0000"/>
<g stroke="#cc0000" stroke-width="1" fill="none">
<polygon points=" 94.5134, 300.707 94.5134, 298.812 96.4079, 298.812 96.4079, 300.707 98.3024, 300.707 98.3024, 302.601 96.4079, 302.601 96.4079, 304.496 94.5134, 304.496 94.5134, 302.601 92.6189, 302.601 92.6189, 300.707"/>
</g>
<path d="M105.382,303.478h 7.07951" fill="none" stroke="#cc0000"/>
<path d="M118.145,303.478h 7.07951" fill="none" stroke="#cc0000"/>
<g stroke="#cc0000" stroke-width="1" fill="none">
<polygon points=" 114.356, 302.531 114.356, 300.637 116.25, 300.637 116.25, 302.531 118.145, 302.531 118.145, 304.426 116.25, 304.426 116.25, 306.32 114.356, 306.32 114.356, 304.426 112.461, 304.426 112.461, 302.531"/>
</g>
<path d="M135.146,304.007v -0.202757" fill="none" stroke="#cc0000"/>
<path d="M135.146,298.121v -0.202757" fill="none" stroke="#cc0000"/>
<path d="M125.224,300.963h 7.07951" fill="none" stroke="#cc0000"/>
<path d="M137.987,300.963h 7.07951" fill="none" stroke="#cc0000"/>
<g stroke="#cc0000" stroke-width="1" fill="none">
<polygon points=" 134.198, 300.016 134.198, 298.121 136.093, 298.121 136.093, 300.016 137.987, 300.016 137.987, 301.91 136.093, 301.91 136.093, 303.805 134.198, 303.805 134.198, 301.91 132.304, 301.91 132.304, 300.016"/>
</g>
<path d="M154.988,314.389v -2.16356" fill="none" stroke="#cc0000"/>
<path d="M154.988,306.542v -2.16356" fill="none" stroke="#cc0000"/>
<path d="M145.067,309.383h 7.07951" fill="none" stroke="#cc0000"/>
<path d="M157.83,309.383h 7.07951" fill="none" stroke="#cc0000"/>
<g stroke="#cc0000" stroke-width="1" fill="none">
<polygon points=" 154.041, 308.436 154.041, 306.542 155.935, 306.542 155.935, 308.436 157.83, 308.436 157.83, 310.331 155.935, 310.331 155.935, 312.225 154.041, 312.225 154.041, 310.331 152.146, 310.331 152.146, 308.436"/>
</g>
<path d="M184.752,301.272v -4.47751" fill="none" stroke="#cc0000"/>
<path d="M184.752,291.111v -4.47751" fill="none" stroke="#cc0000"/>
<path d="M164.909,293.952h 17.0008" fill="none" stroke="#cc0000"/>
<path d="M187.594,293.952h 17.0008" fill="none" stroke="#cc0000"/>
<g stroke="#cc0000" stroke-width="1" fill="none">
<polygon points=" 183.805, 293.005 183.805, 291.111 185.699, 291.111 185.699, 293.005 187.594, 293.005 187.594, 294.9 185.699, 294.9 185.699, 296.794 183.805, 296.794 183.805, 294.9 181.91, 294.9 181.91, 293.005"/>
</g>
<path d="M224.437,321.762v -12.0018" fill="none" stroke="#cc0000"/>
<path d="M224.437,304.077v -12.0018" fill="none" stroke="#cc0000"/>
<path d="M204.594,306.918h 17.0008" fill="none" stroke="#cc0000"/>
<path d="M227.279,306.918h 17.0008" fill="none" stroke="#cc0000"/>
<g stroke="#cc0000" stroke-width="1" fill="none">
<polygon points=" 223.49, 305.971 223.49, 304.077 225.384, 304.077 225.384, 305.971 227.279, 305.971 227.279, 307.866 225.384, 307.866 225.384, 309.76 223.49, 309.76 223.49, 307.866 221.595, 307.866 221.595, 305.971"/>
</g>
<path d="M264.122,295.773v -33.6503" fill="none" stroke="#cc0000"/>
<path d="M264.122,256.439v -33.6503" fill="none" stroke="#cc0000"/>
<path d="M244.28,259.281h 17.0008" fill="none" stroke="#cc0000"/>
<path d="M266.964,259.281h 17.0008" fill="none" stroke="#cc0000"/>
<g stroke="#cc0000" stroke-width="1" fill="none">
<polygon points=" 263.175, 258.333 263.175, 256.439 265.069, 256.439 265.069, 258.333 266.964, 258.333 266.964, 260.228 265.069, 260.228 265.069, 262.122 263.175, 262.122 263.175, 260.228 261.28, 260.228 261.28, 258.333"/>
</g>
<path d="M323.65,357.272v -38.4226" fill="none" stroke="#cc0000"/>
<path d="M323.65,313.166v -38.4226" fill="none" stroke="#cc0000"/>
<path d="M283.965,316.008h 36.8433" fill="none" stroke="#cc0000"/>
<path d="M326.491,316.008h 36.8433" fill="none" stroke="#cc0000"/>
<g stroke="#cc0000" stroke-width="1" fill="none">
<polygon points=" 322.702, 315.061 322.702, 313.166 324.597, 313.166 324.597, 315.061 326.491, 315.061 326.491, 316.955 324.597, 316.955 324.597, 318.85 322.702, 318.85 322.702, 316.955 320.808, 316.955 320.808, 315.061"/>
</g>
<path d="M422.862,359.481v -81.569" fill="none" stroke="#cc0000"/>
<path d="M422.862,272.229v -108.407" fill="none" stroke="#cc0000"/>
<path d="M363.335,275.071h 56.6858" fill="none" stroke="#cc0000"/>
<path d="M425.704,275.071h 56.6858" fill="none" stroke="#cc0000"/>
<g stroke="#cc0000" stroke-width="1" fill="none">
<polygon points=" 421.915, 274.123 421.915, 272.229 423.809, 272.229 423.809, 274.123 425.704, 274.123 425.704, 276.018 423.809, 276.018 423.809, 277.912 421.915, 277.912 421.915, 276.018 420.02, 276.018 420.02, 274.123"/>
</g>
<text xml:space="preserve" x="117.722" y="40.4949" fill="black" font-size="11.7432" font-family="Helvetica">PYTHIA8, option3</text>
<text xml:space="preserve" x="117.722" y="57.5454" fill="black" font-size="11.7432" font-family="Helvetica">p+Au, 200 GeV</text>
<text xml:space="preserve" x="117.722" y="73.8855" fill="black" font-size="11.7432" font-family="Helvetica">MB events</text>
<text xml:space="preserve" x="117.722" y="90.936" fill="black" font-size="11.7432" font-family="Helvetica">reference MC : ver3, pythia8303, external package attatcged, NPL</text>
<text xml:space="preserve" x="156.086" y="107.987" fill="black" font-size="11.7432" font-family="Helvetica">target: ver2, pythia8303, external package attatched, NPL</text>
<g stroke="#00cccc" stroke-width="1" fill="none">
<rect x="132.304" y="101.581" width="5.6835" height="5.6835"/>
</g>
<text xml:space="preserve" x="156.086" y="125.037" fill="black" font-size="11.7432" font-family="Helvetica">target: ver3, pythia8307, root only,KIAF</text>
<g fill="#cc0000">
<polygon points=" 135.146, 124.116 135.784, 122.152 137.848, 122.152 136.178, 120.938 136.816, 118.975 135.146, 120.188 133.475, 118.975 134.113, 120.938 132.443, 122.152 134.508, 122.152"/>
</g>
<text xml:space="preserve" x="156.086" y="141.377" fill="black" font-size="11.7432" font-family="Helvetica">target: ver3, pythia8303, root only, NPL</text>
<g fill="#00cccc">
<circle cx="135.146" cy="138.125" r="2.84175"/>
</g>
<text xml:space="preserve" x="156.086" y="158.428" fill="black" font-size="11.7432" font-family="Helvetica">target: ver3, pythia8303, root only, KIAF</text>
<g stroke="#cc0000" stroke-width="1" fill="none">
<polygon points=" 134.198, 154.028 134.198, 152.134 136.093, 152.134 136.093, 154.028 137.987, 154.028 137.987, 155.923 136.093, 155.923 136.093, 157.817 134.198, 157.817 134.198, 155.923 132.304, 155.923 132.304, 154.028"/>
</g></svg>
