<svg width="800" height="513" xmlns="http://www.w3.org/2000/svg"><path d="M0,0H800V513H0Z" style="pointer-events: visiblefill; fill: rgb(255, 255, 255);"></path><g><g transform="translate(96,26)"><title></title><path d="M0,0H608V426H0Z" style="fill: rgb(255, 255, 255); stroke: rgb(0, 0, 0); stroke-width: 1; pointer-events: visiblefill; cursor: default;"></path><svg x="0" y="0" overflow="hidden" width="608" height="426" viewBox="0 0 608 426" style="pointer-events: visiblefill; cursor: default;"><g><path d="M0,351h30M15,351v0M30,329h32M46,329v0M61,313h30M76,313v0M91,302h32M107,302v0M122,294h30M137,294v0M152,290h30M167,290v0M182,292h32M198,292v0M213,298h30M228,298v0M243,308h32M259,308v0M274,318h30M289,318v0M304,324h30M319,324v0M334,328h32M350,328v0M365,332h30M380,332v0M395,340h32M411,340v0M426,351h30M441,351v0M456,365h30M471,365v0M486,379h32M502,379v0M517,393h30M532,393v0M547,404h32M563,404v0M578,414h30M593,414v0" style="stroke: rgb(0, 0, 0); stroke-width: 1;"></path><path d="M0,351h30v0h-30zM30,329h32v0h-32zM61,313h30v0h-30zM91,302h32v0h-32zM122,294h30v0h-30zM152,290h30v0h-30zM182,292h32v0h-32zM213,298h30v0h-30zM243,308h32v0h-32zM274,318h30v0h-30zM304,324h30v0h-30zM334,328h32v0h-32zM365,332h30v0h-30zM395,340h32v0h-32zM426,351h30v0h-30zM456,365h30v0h-30zM486,379h32v0h-32zM517,393h30v0h-30zM547,404h32v0h-32zM578,414h30v0h-30z" style="fill: none; pointer-events: visiblefill;"></path><path d="M16,352h3v-3h-3v-3h-3v3h-3v3h3v3h3zM47,330h3v-3h-3v-3h-3v3h-3v3h3v3h3zM77,314h3v-3h-3v-3h-3v3h-3v3h3v3h3zM108,303h3v-3h-3v-3h-3v3h-3v3h3v3h3zM138,295h3v-3h-3v-3h-3v3h-3v3h3v3h3zM168,291h3v-3h-3v-3h-3v3h-3v3h3v3h3zM199,293h3v-3h-3v-3h-3v3h-3v3h3v3h3zM229,299h3v-3h-3v-3h-3v3h-3v3h3v3h3zM260,309h3v-3h-3v-3h-3v3h-3v3h3v3h3zM290,319h3v-3h-3v-3h-3v3h-3v3h3v3h3zM320,325h3v-3h-3v-3h-3v3h-3v3h3v3h3zM351,329h3v-3h-3v-3h-3v3h-3v3h3v3h3zM381,333h3v-3h-3v-3h-3v3h-3v3h3v3h3zM412,341h3v-3h-3v-3h-3v3h-3v3h3v3h3zM442,352h3v-3h-3v-3h-3v3h-3v3h3v3h3zM472,366h3v-3h-3v-3h-3v3h-3v3h3v3h3zM503,380h3v-3h-3v-3h-3v3h-3v3h3v3h3zM533,394h3v-3h-3v-3h-3v3h-3v3h3v3h3zM564,405h3v-3h-3v-3h-3v3h-3v3h3v3h3zM594,415h3v-3h-3v-3h-3v3h-3v3h3v3h3z" style="stroke: rgb(0, 0, 0); fill: rgb(0, 0, 0);"></path></g><g><path d="M0,335h30M15,335v0M30,307h32M46,307v0M61,286h30M76,286v0M91,268h32M107,268v0M122,253h30M137,253v0M152,243h30M167,243v0M182,240h32M198,240v0M213,243h30M228,243v0M243,252h32M259,251v1M274,262h30M289,262v0M304,271h30M319,271v0M334,279h32M350,279v0M365,291h30M380,291v0M395,307h32M411,307v0M426,327h30M441,327v0M456,350h30M471,350v0M486,374h32M502,374v0M517,394h30M532,394v0M547,408h32M563,408v0M578,417h30M593,417v0" style="stroke: rgb(255, 153, 102); stroke-width: 1;"></path><path d="M0,335h30v0h-30zM30,307h32v0h-32zM61,286h30v0h-30zM91,268h32v0h-32zM122,253h30v0h-30zM152,243h30v0h-30zM182,240h32v0h-32zM213,243h30v0h-30zM243,251h32v1h-32zM274,262h30v0h-30zM304,271h30v0h-30zM334,279h32v0h-32zM365,291h30v0h-30zM395,307h32v0h-32zM426,327h30v0h-30zM456,350h30v0h-30zM486,374h32v0h-32zM517,394h30v0h-30zM547,408h32v0h-32zM578,417h30v0h-30z" style="fill: none; pointer-events: visiblefill;"></path><path d="M11,335a4,4,0,1,0,8,0a4,4,0,1,0,-8,0zM42,307a4,4,0,1,0,8,0a4,4,0,1,0,-8,0zM72,286a4,4,0,1,0,8,0a4,4,0,1,0,-8,0zM103,268a4,4,0,1,0,8,0a4,4,0,1,0,-8,0zM133,253a4,4,0,1,0,8,0a4,4,0,1,0,-8,0zM163,243a4,4,0,1,0,8,0a4,4,0,1,0,-8,0zM194,240a4,4,0,1,0,8,0a4,4,0,1,0,-8,0zM224,243a4,4,0,1,0,8,0a4,4,0,1,0,-8,0zM255,252a4,4,0,1,0,8,0a4,4,0,1,0,-8,0zM285,262a4,4,0,1,0,8,0a4,4,0,1,0,-8,0zM315,271a4,4,0,1,0,8,0a4,4,0,1,0,-8,0zM346,279a4,4,0,1,0,8,0a4,4,0,1,0,-8,0zM376,291a4,4,0,1,0,8,0a4,4,0,1,0,-8,0zM407,307a4,4,0,1,0,8,0a4,4,0,1,0,-8,0zM437,327a4,4,0,1,0,8,0a4,4,0,1,0,-8,0zM467,350a4,4,0,1,0,8,0a4,4,0,1,0,-8,0zM498,374a4,4,0,1,0,8,0a4,4,0,1,0,-8,0zM528,394a4,4,0,1,0,8,0a4,4,0,1,0,-8,0zM559,408a4,4,0,1,0,8,0a4,4,0,1,0,-8,0zM589,417a4,4,0,1,0,8,0a4,4,0,1,0,-8,0z" style="stroke: rgb(255, 153, 102); fill: rgb(255, 153, 102);"></path></g><g><path d="M0,341h30M15,340v1M30,316h32M46,315v1M61,297h30M76,296v1M91,281h32M107,281v0M122,267h30M137,266v1M152,255h30M167,255v0M182,245h32M198,245v1M213,239h30M228,238v1M243,235h32M259,234v1M274,239h30M289,239v1M304,248h30M319,248v1M334,262h32M350,261v1M365,284h30M380,283v1M395,308h32M411,307v1M426,333h30M441,333v1M456,358h30M471,358v0M486,381h32M502,381v0M517,398h30M532,398v1M547,411h32M563,411v0M578,419h30M593,419v0" style="stroke: rgb(255, 0, 51); stroke-width: 1;"></path><path d="M0,340h30v1h-30zM30,315h32v1h-32zM61,296h30v1h-30zM91,281h32v0h-32zM122,266h30v1h-30zM152,255h30v0h-30zM182,245h32v1h-32zM213,238h30v1h-30zM243,234h32v1h-32zM274,239h30v1h-30zM304,248h30v1h-30zM334,261h32v1h-32zM365,283h30v1h-30zM395,307h32v1h-32zM426,333h30v1h-30zM456,358h30v0h-30zM486,381h32v0h-32zM517,398h30v1h-30zM547,411h32v0h-32zM578,419h30v0h-30z" style="fill: none; pointer-events: visiblefill;"></path><path d="M11,337v8h8v-8zM42,312v8h8v-8zM72,293v8h8v-8zM103,277v8h8v-8zM133,263v8h8v-8zM163,251v8h8v-8zM194,241v8h8v-8zM224,235v8h8v-8zM255,231v8h8v-8zM285,235v8h8v-8zM315,244v8h8v-8zM346,258v8h8v-8zM376,280v8h8v-8zM407,304v8h8v-8zM437,329v8h8v-8zM467,354v8h8v-8zM498,377v8h8v-8zM528,394v8h8v-8zM559,407v8h8v-8zM589,415v8h8v-8z" style="stroke: rgb(255, 0, 51); fill: rgb(255, 0, 51);"></path></g><g><path d="M0,342h30M15,339v5M30,319h32M46,316v6M61,300h30M76,297v6M91,287h32M107,283v7M122,281h30M137,278v7M152,269h30M167,266v7M182,260h32M198,256v7M213,244h30M228,240v8M243,227h32M259,223v8M274,210h30M289,206v8M304,230h30M319,226v8M334,252h32M350,248v8M365,295h30M380,292v6M395,318h32M411,315v6M426,342h30M441,339v6M456,370h30M471,368v4M486,387h32M502,385v3M517,405h30M532,403v3M547,413h32M563,412v2M578,420h30M593,420v1" style="stroke: rgb(204, 0, 255); stroke-width: 1;"></path><path d="M0,339h30v5h-30zM30,316h32v6h-32zM61,297h30v6h-30zM91,283h32v7h-32zM122,278h30v7h-30zM152,266h30v7h-30zM182,256h32v7h-32zM213,240h30v8h-30zM243,223h32v8h-32zM274,206h30v8h-30zM304,226h30v8h-30zM334,248h32v8h-32zM365,292h30v6h-30zM395,315h32v6h-32zM426,339h30v6h-30zM456,368h30v4h-30zM486,385h32v3h-32zM517,403h30v3h-30zM547,412h32v2h-32zM578,420h30v1h-30z" style="fill: none; pointer-events: visiblefill;"></path><path d="M15,338l-4,8h8zM46,315l-4,8h8zM76,296l-4,8h8zM107,283l-4,8h8zM137,277l-4,8h8zM167,265l-4,8h8zM198,256l-4,8h8zM228,240l-4,8h8zM259,223l-4,8h8zM289,206l-4,8h8zM319,226l-4,8h8zM350,248l-4,8h8zM380,291l-4,8h8zM411,314l-4,8h8zM441,338l-4,8h8zM471,366l-4,8h8zM502,383l-4,8h8zM532,401l-4,8h8zM563,409l-4,8h8zM593,416l-4,8h8z" style="stroke: rgb(204, 0, 255); fill: rgb(204, 0, 255);"></path></g></svg><g><g transform="translate(0,426)"><path d="M0,0h608M0,-426h608M0,-15V0M12,-8V0M24,-8V0M36,-8V0M49,-8V0M61,-15V0M73,-8V0M85,-8V0M97,-8V0M109,-8V0M122,-15V0M134,-8V0M146,-8V0M158,-8V0M170,-8V0M182,-15V0M195,-8V0M207,-8V0M219,-8V0M231,-8V0M243,-15V0M255,-8V0M268,-8V0M280,-8V0M292,-8V0M304,-15V0M316,-8V0M328,-8V0M340,-8V0M353,-8V0M365,-15V0M377,-8V0M389,-8V0M401,-8V0M413,-8V0M426,-15V0M438,-8V0M450,-8V0M462,-8V0M474,-8V0M486,-15V0M499,-8V0M511,-8V0M523,-8V0M535,-8V0M547,-15V0M559,-8V0M572,-8V0M584,-8V0M596,-8V0M608,-15V0M0,-411V-426M12,-418V-426M24,-418V-426M36,-418V-426M49,-418V-426M61,-411V-426M73,-418V-426M85,-418V-426M97,-418V-426M109,-418V-426M122,-411V-426M134,-418V-426M146,-418V-426M158,-418V-426M170,-418V-426M182,-411V-426M195,-418V-426M207,-418V-426M219,-418V-426M231,-418V-426M243,-411V-426M255,-418V-426M268,-418V-426M280,-418V-426M292,-418V-426M304,-411V-426M316,-418V-426M328,-418V-426M340,-418V-426M353,-418V-426M365,-411V-426M377,-418V-426M389,-418V-426M401,-418V-426M413,-418V-426M426,-411V-426M438,-418V-426M450,-418V-426M462,-418V-426M474,-418V-426M486,-411V-426M499,-418V-426M511,-418V-426M523,-418V-426M535,-418V-426M547,-411V-426M559,-418V-426M572,-418V-426M584,-418V-426M596,-418V-426M608,-411V-426" style="stroke: rgb(0, 0, 0); stroke-width: 1;"></path><g font-family="Arial" font-size="18" xml:space="preserve" fill="#000000" text-anchor="middle"><text dy=".8em" transform="translate(0,3)">-5</text><text dy=".8em" transform="translate(61,3)">-4</text><text dy=".8em" transform="translate(122,3)">-3</text><text dy=".8em" transform="translate(182,3)">-2</text><text dy=".8em" transform="translate(243,3)">-1</text><text dy=".8em" transform="translate(304,3)">0</text><text dy=".8em" transform="translate(365,3)">1</text><text dy=".8em" transform="translate(426,3)">2</text><text dy=".8em" transform="translate(486,3)">3</text><text dy=".8em" transform="translate(547,3)">4</text><text dy=".8em" transform="translate(608,3)">5</text></g><rect x="0" y="0" width="608" height="21" style="opacity: 0; cursor: crosshair;"></rect><g font-family="Arial" font-size="18" xml:space="preserve" transform="translate(608,29)" style="cursor: move;"><g transform="translate(-10,6)"><text fill="#000000" font-size="18">η</text></g></g></g><g><path d="M0,0v426M608,0v426M24,426H0M12,409H0M12,392H0M12,375H0M12,358H0M24,341H0M12,324H0M12,307H0M12,290H0M12,273H0M24,256H0M12,239H0M12,222H0M12,204H0M12,187H0M24,170H0M12,153H0M12,136H0M12,119H0M12,102H0M24,85H0M12,68H0M12,51H0M12,34H0M12,17H0M24,0H0M584,426H608M596,409H608M596,392H608M596,375H608M596,358H608M584,341H608M596,324H608M596,307H608M596,290H608M596,273H608M584,256H608M596,239H608M596,222H608M596,204H608M596,187H608M584,170H608M596,153H608M596,136H608M596,119H608M596,102H608M584,85H608M596,68H608M596,51H608M596,34H608M596,17H608M584,0H608" style="stroke: rgb(0, 0, 0); stroke-width: 1;"></path><g font-family="Arial" font-size="18" xml:space="preserve" fill="#000000" text-anchor="end"><text dominant-baseline="middle" transform="translate(-4,426)">0</text><text dominant-baseline="middle" transform="translate(-4,341)">5</text><text dominant-baseline="middle" transform="translate(-4,256)">10</text><text dominant-baseline="middle" transform="translate(-4,170)">15</text><text dominant-baseline="middle" transform="translate(-4,85)">20</text><text dominant-baseline="middle" transform="translate(-4)">25</text></g><rect x="-23" y="0" width="23" height="426" style="opacity: 0; cursor: crosshair;"></rect><g font-family="Arial" font-size="18" xml:space="preserve" transform="translate(-40)" style="cursor: move;"><g transform="rotate(270) translate(-60,8)"><text fill="#000000" font-size="18">dN</text><text fill="#000000" font-size="11" transform="translate(24,-10)">ch</text><text fill="#000000" font-size="18" x="35">/dη</text></g></g></g></g><path d="M2,2h15v-5h-20v20h5Z" style="opacity: 0; cursor: nw-resize;"></path><path d="M606,2h-15v-5h20v20h-5 Z" style="opacity: 0; cursor: ne-resize;"></path><path d="M2,424h15v5h-20v-20h5Z" style="opacity: 0; cursor: sw-resize;"></path><path d="M606,424h-15v5h20v-20h-5Z" style="opacity: 0; cursor: se-resize;"></path><path d="M-3,18h5v390h-5Z" style="opacity: 0; cursor: w-resize;"></path><path d="M611,18h-5v390h5Z" style="opacity: 0; cursor: e-resize;"></path><path d="M18,-3v5h572v-5Z" style="opacity: 0; cursor: n-resize;"></path><path d="M18,429v-5h572v5Z" style="opacity: 0; cursor: s-resize;"></path></g><g transform="translate(120,51)" font-family="Arial" font-size="21" xml:space="preserve" style="cursor: move;"><path d="M0,0H288V128H0Z" style="fill: none; pointer-events: visiblefill;"></path><text fill="#000000" text-anchor="start" dominant-baseline="middle" transform="translate(9,16)">PYTHIA8, p+Au 200GeV with option3</text><path d="M37,41h3v-3h-3v-3h-3v3h-3v3h3v3h3z" style="stroke: rgb(0, 0, 0); fill: rgb(0, 0, 0);"></path><text fill="#000000" text-anchor="start" dominant-baseline="middle" transform="translate(72,40)">MB events</text><path d="M32,64a4,4,0,1,0,8,0a4,4,0,1,0,-8,0z" style="stroke: rgb(255, 153, 102); fill: rgb(255, 153, 102);"></path><g transform="translate(72,72)"><text fill="#000000" font-size="21">Events with 2 GeV ≤ p</text><text fill="#000000" font-size="13" transform="translate(208,4)">T</text><text fill="#000000" font-size="21" x="223">&lt; 4 GeV π</text><text fill="#000000" font-size="13" transform="translate(321,-11)">0</text><text fill="#000000" font-size="21" x="336">at |η|&lt;1</text></g><path d="M32,84v8h8v-8z" style="stroke: rgb(255, 0, 51); fill: rgb(255, 0, 51);"></path><g transform="translate(72,96)"><text fill="#000000" font-size="21">Events with 7 GeV ≤ p</text><text fill="#000000" font-size="13" transform="translate(208,4)">T</text><text fill="#000000" font-size="21" x="223">&lt; 10 GeV π</text><text fill="#000000" font-size="13" transform="translate(333,-11)">0</text><text fill="#000000" font-size="21" x="348">at |η|&lt;1</text></g><path d="M36,108l-4,8h8z" style="stroke: rgb(204, 0, 255); fill: rgb(204, 0, 255);"></path><g transform="translate(72,120)"><text fill="#000000" font-size="21">Events with 15 GeV ≤ p</text><text fill="#000000" font-size="13" transform="translate(220,4)">T</text><text fill="#000000" font-size="21" x="235">&lt; 20 GeV π</text><text fill="#000000" font-size="13" transform="translate(345,-11)">0</text><text fill="#000000" font-size="21" x="360">at |η|&lt;1</text></g><path d="M2,2h15v-5h-20v20h5Z" style="opacity: 0; cursor: nw-resize;"></path><path d="M286,2h-15v-5h20v20h-5 Z" style="opacity: 0; cursor: ne-resize;"></path><path d="M2,126h15v5h-20v-20h5Z" style="opacity: 0; cursor: sw-resize;"></path><path d="M286,126h-15v5h20v-20h-5Z" style="opacity: 0; cursor: se-resize;"></path><path d="M-3,18h5v92h-5Z" style="opacity: 0; cursor: w-resize;"></path><path d="M291,18h-5v92h5Z" style="opacity: 0; cursor: e-resize;"></path><path d="M18,-3v5h252v-5Z" style="opacity: 0; cursor: n-resize;"></path><path d="M18,131v-5h252v5Z" style="opacity: 0; cursor: s-resize;"></path></g></g></svg>