<?xml version="1.0" standalone="no"?>
<svg width="567.429" height="409.002" viewBox="0 0 567.429 409.002" xmlns="http://www.w3.org/2000/svg" shape-rendering="crispEdges">
<title>
/Users/jinhyunpark/npl/gitHub/xloadFromServer/Git_Bias_correction_RxA/plots_dirIncluded/dirInExCompare_decayOff_dNchdeta.svg
</title>
<desc>
Creator: ROOT Version 6.28/04
CreationDate: Tue Jul 25 01:03:58 2023</desc>
<defs>
</defs>
<rect x="0.5" y="0" width="566.929" height="408.502" fill="white"/>
<rect x="57.1929" y="20.4251" width="453.543" height="339.056" fill="white"/>
<rect x="57.1929" y="20.4251" width="453.543" height="339.056" fill="none" stroke="black"/>
<rect x="57.1929" y="20.4251" width="453.543" height="339.056" fill="white"/>
<rect x="57.1929" y="20.4251" width="453.543" height="339.056" fill="none" stroke="black"/>
<path d="M57.1929,359.481h 453.543" fill="none" stroke="black"/>
<path d="M57.1929,349.677v 9.80404" fill="none" stroke="black"/>
<path d="M76.0906,354.579v 4.90202" fill="none" stroke="black"/>
<path d="M94.9882,354.579v 4.90202" fill="none" stroke="black"/>
<path d="M113.886,354.579v 4.90202" fill="none" stroke="black"/>
<path d="M132.783,349.677v 9.80404" fill="none" stroke="black"/>
<path d="M151.681,354.579v 4.90202" fill="none" stroke="black"/>
<path d="M170.579,354.579v 4.90202" fill="none" stroke="black"/>
<path d="M189.476,354.579v 4.90202" fill="none" stroke="black"/>
<path d="M208.374,349.677v 9.80404" fill="none" stroke="black"/>
<path d="M227.272,354.579v 4.90202" fill="none" stroke="black"/>
<path d="M246.169,354.579v 4.90202" fill="none" stroke="black"/>
<path d="M265.067,354.579v 4.90202" fill="none" stroke="black"/>
<path d="M283.965,349.677v 9.80404" fill="none" stroke="black"/>
<path d="M302.862,354.579v 4.90202" fill="none" stroke="black"/>
<path d="M321.76,354.579v 4.90202" fill="none" stroke="black"/>
<path d="M340.657,354.579v 4.90202" fill="none" stroke="black"/>
<path d="M359.555,349.677v 9.80404" fill="none" stroke="black"/>
<path d="M378.453,354.579v 4.90202" fill="none" stroke="black"/>
<path d="M397.35,354.579v 4.90202" fill="none" stroke="black"/>
<path d="M416.248,354.579v 4.90202" fill="none" stroke="black"/>
<path d="M435.146,349.677v 9.80404" fill="none" stroke="black"/>
<path d="M454.043,354.579v 4.90202" fill="none" stroke="black"/>
<path d="M472.941,354.579v 4.90202" fill="none" stroke="black"/>
<path d="M491.839,354.579v 4.90202" fill="none" stroke="black"/>
<path d="M510.736,349.677v 9.80404" fill="none" stroke="black"/>
<text xml:space="preserve" x="56.6246" y="372.269" fill="black" font-size="13.617" font-family="Helvetica">6</text>
<text xml:space="preserve" x="48.8097" y="372.269" fill="black" font-size="13.617" font-family="Times">&#8722;</text>
<text xml:space="preserve" x="132.641" y="372.269" fill="black" font-size="13.617" font-family="Helvetica">4</text>
<text xml:space="preserve" x="124.827" y="372.269" fill="black" font-size="13.617" font-family="Times">&#8722;</text>
<text xml:space="preserve" x="207.948" y="372.269" fill="black" font-size="13.617" font-family="Helvetica">2</text>
<text xml:space="preserve" x="200.133" y="372.269" fill="black" font-size="13.617" font-family="Times">&#8722;</text>
<text xml:space="preserve" x="280.412" y="372.269" fill="black" font-size="13.617" font-family="Helvetica">0</text>
<text xml:space="preserve" x="355.719" y="372.269" fill="black" font-size="13.617" font-family="Helvetica">2</text>
<text xml:space="preserve" x="431.025" y="372.269" fill="black" font-size="13.617" font-family="Helvetica">4</text>
<text xml:space="preserve" x="507.042" y="372.269" fill="black" font-size="13.617" font-family="Helvetica">6</text>
<text xml:space="preserve" x="502.779" y="384.347" fill="black" font-size="13.617" font-family="Times">&#0951;</text>
<path d="M57.1929,20.4251h 453.543" fill="none" stroke="black"/>
<path d="M57.1929,30.2291v -9.80404" fill="none" stroke="black"/>
<path d="M76.0906,25.3271v -4.90202" fill="none" stroke="black"/>
<path d="M94.9882,25.3271v -4.90202" fill="none" stroke="black"/>
<path d="M113.886,25.3271v -4.90202" fill="none" stroke="black"/>
<path d="M132.783,30.2291v -9.80404" fill="none" stroke="black"/>
<path d="M151.681,25.3271v -4.90202" fill="none" stroke="black"/>
<path d="M170.579,25.3271v -4.90202" fill="none" stroke="black"/>
<path d="M189.476,25.3271v -4.90202" fill="none" stroke="black"/>
<path d="M208.374,30.2291v -9.80404" fill="none" stroke="black"/>
<path d="M227.272,25.3271v -4.90202" fill="none" stroke="black"/>
<path d="M246.169,25.3271v -4.90202" fill="none" stroke="black"/>
<path d="M265.067,25.3271v -4.90202" fill="none" stroke="black"/>
<path d="M283.965,30.2291v -9.80404" fill="none" stroke="black"/>
<path d="M302.862,25.3271v -4.90202" fill="none" stroke="black"/>
<path d="M321.76,25.3271v -4.90202" fill="none" stroke="black"/>
<path d="M340.657,25.3271v -4.90202" fill="none" stroke="black"/>
<path d="M359.555,30.2291v -9.80404" fill="none" stroke="black"/>
<path d="M378.453,25.3271v -4.90202" fill="none" stroke="black"/>
<path d="M397.35,25.3271v -4.90202" fill="none" stroke="black"/>
<path d="M416.248,25.3271v -4.90202" fill="none" stroke="black"/>
<path d="M435.146,30.2291v -9.80404" fill="none" stroke="black"/>
<path d="M454.043,25.3271v -4.90202" fill="none" stroke="black"/>
<path d="M472.941,25.3271v -4.90202" fill="none" stroke="black"/>
<path d="M491.839,25.3271v -4.90202" fill="none" stroke="black"/>
<path d="M510.736,30.2291v -9.80404" fill="none" stroke="black"/>
<path d="M57.1929,359.481v -339.056" fill="none" stroke="black"/>
<path d="M71.3094,359.481h -14.1165" fill="none" stroke="black"/>
<path d="M64.2512,352.7h -7.05827" fill="none" stroke="black"/>
<path d="M64.2512,345.919h -7.05827" fill="none" stroke="black"/>
<path d="M64.2512,339.138h -7.05827" fill="none" stroke="black"/>
<path d="M64.2512,332.357h -7.05827" fill="none" stroke="black"/>
<path d="M71.3094,325.576h -14.1165" fill="none" stroke="black"/>
<path d="M64.2512,318.795h -7.05827" fill="none" stroke="black"/>
<path d="M64.2512,312.014h -7.05827" fill="none" stroke="black"/>
<path d="M64.2512,305.232h -7.05827" fill="none" stroke="black"/>
<path d="M64.2512,298.451h -7.05827" fill="none" stroke="black"/>
<path d="M71.3094,291.67h -14.1165" fill="none" stroke="black"/>
<path d="M64.2512,284.889h -7.05827" fill="none" stroke="black"/>
<path d="M64.2512,278.108h -7.05827" fill="none" stroke="black"/>
<path d="M64.2512,271.327h -7.05827" fill="none" stroke="black"/>
<path d="M64.2512,264.546h -7.05827" fill="none" stroke="black"/>
<path d="M71.3094,257.764h -14.1165" fill="none" stroke="black"/>
<path d="M64.2512,250.983h -7.05827" fill="none" stroke="black"/>
<path d="M64.2512,244.202h -7.05827" fill="none" stroke="black"/>
<path d="M64.2512,237.421h -7.05827" fill="none" stroke="black"/>
<path d="M64.2512,230.64h -7.05827" fill="none" stroke="black"/>
<path d="M71.3094,223.859h -14.1165" fill="none" stroke="black"/>
<path d="M64.2512,217.078h -7.05827" fill="none" stroke="black"/>
<path d="M64.2512,210.297h -7.05827" fill="none" stroke="black"/>
<path d="M64.2512,203.515h -7.05827" fill="none" stroke="black"/>
<path d="M64.2512,196.734h -7.05827" fill="none" stroke="black"/>
<path d="M71.3094,189.953h -14.1165" fill="none" stroke="black"/>
<path d="M64.2512,183.172h -7.05827" fill="none" stroke="black"/>
<path d="M64.2512,176.391h -7.05827" fill="none" stroke="black"/>
<path d="M64.2512,169.61h -7.05827" fill="none" stroke="black"/>
<path d="M64.2512,162.829h -7.05827" fill="none" stroke="black"/>
<path d="M71.3094,156.048h -14.1165" fill="none" stroke="black"/>
<path d="M64.2512,149.266h -7.05827" fill="none" stroke="black"/>
<path d="M64.2512,142.485h -7.05827" fill="none" stroke="black"/>
<path d="M64.2512,135.704h -7.05827" fill="none" stroke="black"/>
<path d="M64.2512,128.923h -7.05827" fill="none" stroke="black"/>
<path d="M71.3094,122.142h -14.1165" fill="none" stroke="black"/>
<path d="M64.2512,115.361h -7.05827" fill="none" stroke="black"/>
<path d="M64.2512,108.58h -7.05827" fill="none" stroke="black"/>
<path d="M64.2512,101.799h -7.05827" fill="none" stroke="black"/>
<path d="M64.2512,95.0175h -7.05827" fill="none" stroke="black"/>
<path d="M71.3094,88.2363h -14.1165" fill="none" stroke="black"/>
<path d="M64.2512,81.4552h -7.05827" fill="none" stroke="black"/>
<path d="M64.2512,74.6741h -7.05827" fill="none" stroke="black"/>
<path d="M64.2512,67.893h -7.05827" fill="none" stroke="black"/>
<path d="M64.2512,61.1118h -7.05827" fill="none" stroke="black"/>
<path d="M71.3094,54.3307h -14.1165" fill="none" stroke="black"/>
<path d="M64.2512,47.5496h -7.05827" fill="none" stroke="black"/>
<path d="M64.2512,40.7685h -7.05827" fill="none" stroke="black"/>
<path d="M64.2512,33.9873h -7.05827" fill="none" stroke="black"/>
<path d="M64.2512,27.2062h -7.05827" fill="none" stroke="black"/>
<path d="M71.3094,20.4251h -14.1165" fill="none" stroke="black"/>
<text xml:space="preserve" x="46.6784" y="364.454" fill="black" font-size="13.617" font-family="Helvetica">0</text>
<text xml:space="preserve" x="48.8097" y="331.064" fill="black" font-size="13.617" font-family="Helvetica">1</text>
<text xml:space="preserve" x="46.6784" y="296.963" fill="black" font-size="13.617" font-family="Helvetica">2</text>
<text xml:space="preserve" x="46.6784" y="262.151" fill="black" font-size="13.617" font-family="Helvetica">3</text>
<text xml:space="preserve" x="46.6784" y="229.471" fill="black" font-size="13.617" font-family="Helvetica">4</text>
<text xml:space="preserve" x="46.6784" y="194.66" fill="black" font-size="13.617" font-family="Helvetica">5</text>
<text xml:space="preserve" x="46.6784" y="160.559" fill="black" font-size="13.617" font-family="Helvetica">6</text>
<text xml:space="preserve" x="46.6784" y="127.168" fill="black" font-size="13.617" font-family="Helvetica">7</text>
<text xml:space="preserve" x="46.6784" y="93.0673" fill="black" font-size="13.617" font-family="Helvetica">8</text>
<text xml:space="preserve" x="46.6784" y="58.9663" fill="black" font-size="13.617" font-family="Helvetica">9</text>
<text xml:space="preserve" x="38.8636" y="24.8653" fill="black" font-size="13.617" font-family="Helvetica">10</text>
<g transform="rotate(-90,26.0758,102.303)">
<text xml:space="preserve" x="26.0758" y="102.303" fill="black" font-size="13.617" font-family="Helvetica">invariant yield</text>
</g>
<path d="M510.736,359.481v -339.056" fill="none" stroke="black"/>
<path d="M496.62,359.481h 14.1165" fill="none" stroke="black"/>
<path d="M503.678,352.7h 7.05827" fill="none" stroke="black"/>
<path d="M503.678,345.919h 7.05827" fill="none" stroke="black"/>
<path d="M503.678,339.138h 7.05827" fill="none" stroke="black"/>
<path d="M503.678,332.357h 7.05827" fill="none" stroke="black"/>
<path d="M496.62,325.576h 14.1165" fill="none" stroke="black"/>
<path d="M503.678,318.795h 7.05827" fill="none" stroke="black"/>
<path d="M503.678,312.014h 7.05827" fill="none" stroke="black"/>
<path d="M503.678,305.232h 7.05827" fill="none" stroke="black"/>
<path d="M503.678,298.451h 7.05827" fill="none" stroke="black"/>
<path d="M496.62,291.67h 14.1165" fill="none" stroke="black"/>
<path d="M503.678,284.889h 7.05827" fill="none" stroke="black"/>
<path d="M503.678,278.108h 7.05827" fill="none" stroke="black"/>
<path d="M503.678,271.327h 7.05827" fill="none" stroke="black"/>
<path d="M503.678,264.546h 7.05827" fill="none" stroke="black"/>
<path d="M496.62,257.764h 14.1165" fill="none" stroke="black"/>
<path d="M503.678,250.983h 7.05827" fill="none" stroke="black"/>
<path d="M503.678,244.202h 7.05827" fill="none" stroke="black"/>
<path d="M503.678,237.421h 7.05827" fill="none" stroke="black"/>
<path d="M503.678,230.64h 7.05827" fill="none" stroke="black"/>
<path d="M496.62,223.859h 14.1165" fill="none" stroke="black"/>
<path d="M503.678,217.078h 7.05827" fill="none" stroke="black"/>
<path d="M503.678,210.297h 7.05827" fill="none" stroke="black"/>
<path d="M503.678,203.515h 7.05827" fill="none" stroke="black"/>
<path d="M503.678,196.734h 7.05827" fill="none" stroke="black"/>
<path d="M496.62,189.953h 14.1165" fill="none" stroke="black"/>
<path d="M503.678,183.172h 7.05827" fill="none" stroke="black"/>
<path d="M503.678,176.391h 7.05827" fill="none" stroke="black"/>
<path d="M503.678,169.61h 7.05827" fill="none" stroke="black"/>
<path d="M503.678,162.829h 7.05827" fill="none" stroke="black"/>
<path d="M496.62,156.048h 14.1165" fill="none" stroke="black"/>
<path d="M503.678,149.266h 7.05827" fill="none" stroke="black"/>
<path d="M503.678,142.485h 7.05827" fill="none" stroke="black"/>
<path d="M503.678,135.704h 7.05827" fill="none" stroke="black"/>
<path d="M503.678,128.923h 7.05827" fill="none" stroke="black"/>
<path d="M496.62,122.142h 14.1165" fill="none" stroke="black"/>
<path d="M503.678,115.361h 7.05827" fill="none" stroke="black"/>
<path d="M503.678,108.58h 7.05827" fill="none" stroke="black"/>
<path d="M503.678,101.799h 7.05827" fill="none" stroke="black"/>
<path d="M503.678,95.0175h 7.05827" fill="none" stroke="black"/>
<path d="M496.62,88.2363h 14.1165" fill="none" stroke="black"/>
<path d="M503.678,81.4552h 7.05827" fill="none" stroke="black"/>
<path d="M503.678,74.6741h 7.05827" fill="none" stroke="black"/>
<path d="M503.678,67.893h 7.05827" fill="none" stroke="black"/>
<path d="M503.678,61.1118h 7.05827" fill="none" stroke="black"/>
<path d="M496.62,54.3307h 14.1165" fill="none" stroke="black"/>
<path d="M503.678,47.5496h 7.05827" fill="none" stroke="black"/>
<path d="M503.678,40.7685h 7.05827" fill="none" stroke="black"/>
<path d="M503.678,33.9873h 7.05827" fill="none" stroke="black"/>
<path d="M503.678,27.2062h 7.05827" fill="none" stroke="black"/>
<path d="M496.62,20.4251h 14.1165" fill="none" stroke="black"/>
<path d="M94.9882,216.225h 6.60707" fill="none" stroke="#ff0000"/>
<path d="M107.279,216.225h 6.60707" fill="none" stroke="#ff0000"/>
<g fill="#ff0000">
<circle cx="104.437" cy="216.225" r="2.84175"/>
</g>
<path d="M113.886,174.231h 6.60707" fill="none" stroke="#ff0000"/>
<path d="M126.176,174.231h 6.60707" fill="none" stroke="#ff0000"/>
<g fill="#ff0000">
<circle cx="123.335" cy="174.231" r="2.84175"/>
</g>
<path d="M132.783,143.901h 6.60707" fill="none" stroke="#ff0000"/>
<path d="M145.074,143.901h 6.60707" fill="none" stroke="#ff0000"/>
<g fill="#ff0000">
<circle cx="142.232" cy="143.901" r="2.84175"/>
</g>
<path d="M151.681,121.969h 6.60707" fill="none" stroke="#ff0000"/>
<path d="M163.972,121.969h 6.60707" fill="none" stroke="#ff0000"/>
<g fill="#ff0000">
<circle cx="161.13" cy="121.969" r="2.84175"/>
</g>
<path d="M170.579,106.053h 6.60707" fill="none" stroke="#ff0000"/>
<path d="M182.869,106.053h 6.60707" fill="none" stroke="#ff0000"/>
<g fill="#ff0000">
<circle cx="180.028" cy="106.053" r="2.84175"/>
</g>
<path d="M189.476,99.2489h 6.60707" fill="none" stroke="#ff0000"/>
<path d="M201.767,99.2489h 6.60707" fill="none" stroke="#ff0000"/>
<g fill="#ff0000">
<circle cx="198.925" cy="99.2489" r="2.84175"/>
</g>
<path d="M208.374,103.38h 6.60707" fill="none" stroke="#ff0000"/>
<path d="M220.665,103.38h 6.60707" fill="none" stroke="#ff0000"/>
<g fill="#ff0000">
<circle cx="217.823" cy="103.38" r="2.84175"/>
</g>
<path d="M227.272,114.529h 6.60707" fill="none" stroke="#ff0000"/>
<path d="M239.562,114.529h 6.60707" fill="none" stroke="#ff0000"/>
<g fill="#ff0000">
<circle cx="236.72" cy="114.529" r="2.84175"/>
</g>
<path d="M246.169,134.477h 6.60707" fill="none" stroke="#ff0000"/>
<path d="M258.46,134.477h 6.60707" fill="none" stroke="#ff0000"/>
<g fill="#ff0000">
<circle cx="255.618" cy="134.477" r="2.84175"/>
</g>
<path d="M265.067,152.823h 6.60707" fill="none" stroke="#ff0000"/>
<path d="M277.358,152.823h 6.60707" fill="none" stroke="#ff0000"/>
<g fill="#ff0000">
<circle cx="274.516" cy="152.823" r="2.84175"/>
</g>
<path d="M283.965,165.22h 6.60707" fill="none" stroke="#ff0000"/>
<path d="M296.255,165.22h 6.60707" fill="none" stroke="#ff0000"/>
<g fill="#ff0000">
<circle cx="293.413" cy="165.22" r="2.84175"/>
</g>
<path d="M302.862,171.654h 6.60707" fill="none" stroke="#ff0000"/>
<path d="M315.153,171.654h 6.60707" fill="none" stroke="#ff0000"/>
<g fill="#ff0000">
<circle cx="312.311" cy="171.654" r="2.84175"/>
</g>
<path d="M321.76,179.577h 6.60707" fill="none" stroke="#ff0000"/>
<path d="M334.05,179.577h 6.60707" fill="none" stroke="#ff0000"/>
<g fill="#ff0000">
<circle cx="331.209" cy="179.577" r="2.84175"/>
</g>
<path d="M340.657,194.233h 6.60707" fill="none" stroke="#ff0000"/>
<path d="M352.948,194.233h 6.60707" fill="none" stroke="#ff0000"/>
<g fill="#ff0000">
<circle cx="350.106" cy="194.233" r="2.84175"/>
</g>
<path d="M359.555,215.968h 6.60707" fill="none" stroke="#ff0000"/>
<path d="M371.846,215.968h 6.60707" fill="none" stroke="#ff0000"/>
<g fill="#ff0000">
<circle cx="369.004" cy="215.968" r="2.84175"/>
</g>
<path d="M378.453,242.118h 6.60707" fill="none" stroke="#ff0000"/>
<path d="M390.743,242.118h 6.60707" fill="none" stroke="#ff0000"/>
<g fill="#ff0000">
<circle cx="387.902" cy="242.118" r="2.84175"/>
</g>
<path d="M397.35,269.581h 6.60707" fill="none" stroke="#ff0000"/>
<path d="M409.641,269.581h 6.60707" fill="none" stroke="#ff0000"/>
<g fill="#ff0000">
<circle cx="406.799" cy="269.581" r="2.84175"/>
</g>
<path d="M416.248,295.79h 6.60707" fill="none" stroke="#ff0000"/>
<path d="M428.539,295.79h 6.60707" fill="none" stroke="#ff0000"/>
<g fill="#ff0000">
<circle cx="425.697" cy="295.79" r="2.84175"/>
</g>
<path d="M435.146,317.996h 6.60707" fill="none" stroke="#ff0000"/>
<path d="M447.436,317.996h 6.60707" fill="none" stroke="#ff0000"/>
<g fill="#ff0000">
<circle cx="444.594" cy="317.996" r="2.84175"/>
</g>
<path d="M454.043,335.591h 6.60707" fill="none" stroke="#ff0000"/>
<path d="M466.334,335.591h 6.60707" fill="none" stroke="#ff0000"/>
<g fill="#ff0000">
<circle cx="463.492" cy="335.591" r="2.84175"/>
</g>
<path d="M94.9882,216h 6.60707" fill="none" stroke="#0000ff"/>
<path d="M107.279,216h 6.60707" fill="none" stroke="#0000ff"/>
<g stroke="#0000ff" stroke-width="1" fill="none">
<polygon points=" 103.49, 215.052 103.49, 213.158 105.384, 213.158 105.384, 215.052 107.279, 215.052 107.279, 216.947 105.384, 216.947 105.384, 218.841 103.49, 218.841 103.49, 216.947 101.595, 216.947 101.595, 215.052"/>
</g>
<path d="M113.886,174.333h 6.60707" fill="none" stroke="#0000ff"/>
<path d="M126.176,174.333h 6.60707" fill="none" stroke="#0000ff"/>
<g stroke="#0000ff" stroke-width="1" fill="none">
<polygon points=" 122.387, 173.386 122.387, 171.491 124.282, 171.491 124.282, 173.386 126.176, 173.386 126.176, 175.28 124.282, 175.28 124.282, 177.175 122.387, 177.175 122.387, 175.28 120.493, 175.28 120.493, 173.386"/>
</g>
<path d="M132.783,143.941h 6.60707" fill="none" stroke="#0000ff"/>
<path d="M145.074,143.941h 6.60707" fill="none" stroke="#0000ff"/>
<g stroke="#0000ff" stroke-width="1" fill="none">
<polygon points=" 141.285, 142.994 141.285, 141.1 143.18, 141.1 143.18, 142.994 145.074, 142.994 145.074, 144.889 143.18, 144.889 143.18, 146.783 141.285, 146.783 141.285, 144.889 139.391, 144.889 139.391, 142.994"/>
</g>
<path d="M151.681,122.244h 6.60707" fill="none" stroke="#0000ff"/>
<path d="M163.972,122.244h 6.60707" fill="none" stroke="#0000ff"/>
<g stroke="#0000ff" stroke-width="1" fill="none">
<polygon points=" 160.183, 121.297 160.183, 119.403 162.077, 119.403 162.077, 121.297 163.972, 121.297 163.972, 123.192 162.077, 123.192 162.077, 125.086 160.183, 125.086 160.183, 123.192 158.288, 123.192 158.288, 121.297"/>
</g>
<path d="M170.579,105.953h 6.60707" fill="none" stroke="#0000ff"/>
<path d="M182.869,105.953h 6.60707" fill="none" stroke="#0000ff"/>
<g stroke="#0000ff" stroke-width="1" fill="none">
<polygon points=" 179.08, 105.005 179.08, 103.111 180.975, 103.111 180.975, 105.005 182.869, 105.005 182.869, 106.9 180.975, 106.9 180.975, 108.794 179.08, 108.794 179.08, 106.9 177.186, 106.9 177.186, 105.005"/>
</g>
<path d="M189.476,99.2808h 6.60707" fill="none" stroke="#0000ff"/>
<path d="M201.767,99.2808h 6.60707" fill="none" stroke="#0000ff"/>
<g stroke="#0000ff" stroke-width="1" fill="none">
<polygon points=" 197.978, 98.3335 197.978, 96.439 199.872, 96.439 199.872, 98.3335 201.767, 98.3335 201.767, 100.228 199.872, 100.228 199.872, 102.123 197.978, 102.123 197.978, 100.228 196.083, 100.228 196.083, 98.3335"/>
</g>
<path d="M208.374,103.332h 6.60707" fill="none" stroke="#0000ff"/>
<path d="M220.665,103.332h 6.60707" fill="none" stroke="#0000ff"/>
<g stroke="#0000ff" stroke-width="1" fill="none">
<polygon points=" 216.876, 102.385 216.876, 100.49 218.77, 100.49 218.77, 102.385 220.665, 102.385 220.665, 104.279 218.77, 104.279 218.77, 106.174 216.876, 106.174 216.876, 104.279 214.981, 104.279 214.981, 102.385"/>
</g>
<path d="M227.272,114.738h 6.60707" fill="none" stroke="#0000ff"/>
<path d="M239.562,114.738h 6.60707" fill="none" stroke="#0000ff"/>
<g stroke="#0000ff" stroke-width="1" fill="none">
<polygon points=" 235.773, 113.79 235.773, 111.896 237.668, 111.896 237.668, 113.79 239.562, 113.79 239.562, 115.685 237.668, 115.685 237.668, 117.579 235.773, 117.579 235.773, 115.685 233.879, 115.685 233.879, 113.79"/>
</g>
<path d="M246.169,134.701h 6.60707" fill="none" stroke="#0000ff"/>
<path d="M258.46,134.701h 6.60707" fill="none" stroke="#0000ff"/>
<g stroke="#0000ff" stroke-width="1" fill="none">
<polygon points=" 254.671, 133.753 254.671, 131.859 256.565, 131.859 256.565, 133.753 258.46, 133.753 258.46, 135.648 256.565, 135.648 256.565, 137.542 254.671, 137.542 254.671, 135.648 252.776, 135.648 252.776, 133.753"/>
</g>
<path d="M265.067,152.833h 6.60707" fill="none" stroke="#0000ff"/>
<path d="M277.358,152.833h 6.60707" fill="none" stroke="#0000ff"/>
<g stroke="#0000ff" stroke-width="1" fill="none">
<polygon points=" 273.569, 151.885 273.569, 149.991 275.463, 149.991 275.463, 151.885 277.358, 151.885 277.358, 153.78 275.463, 153.78 275.463, 155.674 273.569, 155.674 273.569, 153.78 271.674, 153.78 271.674, 151.885"/>
</g>
<path d="M283.965,165.383h 6.60707" fill="none" stroke="#0000ff"/>
<path d="M296.255,165.383h 6.60707" fill="none" stroke="#0000ff"/>
<g stroke="#0000ff" stroke-width="1" fill="none">
<polygon points=" 292.466, 164.436 292.466, 162.541 294.361, 162.541 294.361, 164.436 296.255, 164.436 296.255, 166.33 294.361, 166.33 294.361, 168.225 292.466, 168.225 292.466, 166.33 290.572, 166.33 290.572, 164.436"/>
</g>
<path d="M302.862,171.485h 6.60707" fill="none" stroke="#0000ff"/>
<path d="M315.153,171.485h 6.60707" fill="none" stroke="#0000ff"/>
<g stroke="#0000ff" stroke-width="1" fill="none">
<polygon points=" 311.364, 170.538 311.364, 168.643 313.258, 168.643 313.258, 170.538 315.153, 170.538 315.153, 172.432 313.258, 172.432 313.258, 174.327 311.364, 174.327 311.364, 172.432 309.469, 172.432 309.469, 170.538"/>
</g>
<path d="M321.76,179.772h 6.60707" fill="none" stroke="#0000ff"/>
<path d="M334.05,179.772h 6.60707" fill="none" stroke="#0000ff"/>
<g stroke="#0000ff" stroke-width="1" fill="none">
<polygon points=" 330.261, 178.825 330.261, 176.93 332.156, 176.93 332.156, 178.825 334.05, 178.825 334.05, 180.719 332.156, 180.719 332.156, 182.614 330.261, 182.614 330.261, 180.719 328.367, 180.719 328.367, 178.825"/>
</g>
<path d="M340.657,194.199h 6.60707" fill="none" stroke="#0000ff"/>
<path d="M352.948,194.199h 6.60707" fill="none" stroke="#0000ff"/>
<g stroke="#0000ff" stroke-width="1" fill="none">
<polygon points=" 349.159, 193.252 349.159, 191.357 351.054, 191.357 351.054, 193.252 352.948, 193.252 352.948, 195.146 351.054, 195.146 351.054, 197.041 349.159, 197.041 349.159, 195.146 347.265, 195.146 347.265, 193.252"/>
</g>
<path d="M359.555,216.028h 6.60707" fill="none" stroke="#0000ff"/>
<path d="M371.846,216.028h 6.60707" fill="none" stroke="#0000ff"/>
<g stroke="#0000ff" stroke-width="1" fill="none">
<polygon points=" 368.057, 215.081 368.057, 213.186 369.951, 213.186 369.951, 215.081 371.846, 215.081 371.846, 216.975 369.951, 216.975 369.951, 218.87 368.057, 218.87 368.057, 216.975 366.162, 216.975 366.162, 215.081"/>
</g>
<path d="M378.453,242.31h 6.60707" fill="none" stroke="#0000ff"/>
<path d="M390.743,242.31h 6.60707" fill="none" stroke="#0000ff"/>
<g stroke="#0000ff" stroke-width="1" fill="none">
<polygon points=" 386.954, 241.363 386.954, 239.469 388.849, 239.469 388.849, 241.363 390.743, 241.363 390.743, 243.258 388.849, 243.258 388.849, 245.152 386.954, 245.152 386.954, 243.258 385.06, 243.258 385.06, 241.363"/>
</g>
<path d="M397.35,269.737h 6.60707" fill="none" stroke="#0000ff"/>
<path d="M409.641,269.737h 6.60707" fill="none" stroke="#0000ff"/>
<g stroke="#0000ff" stroke-width="1" fill="none">
<polygon points=" 405.852, 268.79 405.852, 266.896 407.746, 266.896 407.746, 268.79 409.641, 268.79 409.641, 270.685 407.746, 270.685 407.746, 272.579 405.852, 272.579 405.852, 270.685 403.957, 270.685 403.957, 268.79"/>
</g>
<path d="M416.248,295.628h 6.60707" fill="none" stroke="#0000ff"/>
<path d="M428.539,295.628h 6.60707" fill="none" stroke="#0000ff"/>
<g stroke="#0000ff" stroke-width="1" fill="none">
<polygon points=" 424.75, 294.68 424.75, 292.786 426.644, 292.786 426.644, 294.68 428.539, 294.68 428.539, 296.575 426.644, 296.575 426.644, 298.469 424.75, 298.469 424.75, 296.575 422.855, 296.575 422.855, 294.68"/>
</g>
<path d="M435.146,318.053h 6.60707" fill="none" stroke="#0000ff"/>
<path d="M447.436,318.053h 6.60707" fill="none" stroke="#0000ff"/>
<g stroke="#0000ff" stroke-width="1" fill="none">
<polygon points=" 443.647, 317.106 443.647, 315.212 445.542, 315.212 445.542, 317.106 447.436, 317.106 447.436, 319.001 445.542, 319.001 445.542, 320.895 443.647, 320.895 443.647, 319.001 441.753, 319.001 441.753, 317.106"/>
</g>
<path d="M454.043,335.545h 6.60707" fill="none" stroke="#0000ff"/>
<path d="M466.334,335.545h 6.60707" fill="none" stroke="#0000ff"/>
<g stroke="#0000ff" stroke-width="1" fill="none">
<polygon points=" 462.545, 334.598 462.545, 332.704 464.439, 332.704 464.439, 334.598 466.334, 334.598 466.334, 336.493 464.439, 336.493 464.439, 338.387 462.545, 338.387 462.545, 336.493 460.65, 336.493 460.65, 334.598"/>
</g>
<text xml:space="preserve" x="304.567" y="46.1784" fill="black" font-size="15.4909" font-family="Helvetica">PYTHIA8, option3</text>
<text xml:space="preserve" x="352.167" y="63.2289" fill="black" font-size="10.4939" font-family="Times">&#0177;</text>
<text xml:space="preserve" x="339.379" y="70.3333" fill="black" font-size="15.4909" font-family="Helvetica">/p</text>
<text xml:space="preserve" x="333.695" y="63.2289" fill="black" font-size="10.4939" font-family="Times">&#0177;</text>
<text xml:space="preserve" x="318.776" y="70.3333" fill="black" font-size="15.4909" font-family="Helvetica">/K</text>
<text xml:space="preserve" x="313.092" y="65.3603" fill="black" font-size="10.4939" font-family="Times">&#0177;</text>
<text xml:space="preserve" x="304.567" y="70.3333" fill="black" font-size="15.4909" font-family="Times">&#0960;</text>
<text xml:space="preserve" x="304.567" y="95.1986" fill="black" font-size="15.4909" font-family="Helvetica">100,000 events</text>
<text xml:space="preserve" x="350.746" y="119.354" fill="black" font-size="15.4909" font-family="Helvetica"> included file, decayOff</text>
<text xml:space="preserve" x="342.931" y="119.354" fill="black" font-size="15.4909" font-family="Times">&#0947;</text>
<g fill="#ff0000">
<circle cx="322.232" cy="114.38" r="2.84175"/>
</g>
<text xml:space="preserve" x="350.746" y="144.219" fill="black" font-size="15.4909" font-family="Helvetica"> excluded file</text>
<text xml:space="preserve" x="342.931" y="144.219" fill="black" font-size="15.4909" font-family="Times">&#0947;</text>
<g stroke="#0000ff" stroke-width="1" fill="none">
<polygon points=" 321.285, 137.943 321.285, 136.049 323.18, 136.049 323.18, 137.943 325.074, 137.943 325.074, 139.838 323.18, 139.838 323.18, 141.732 321.285, 141.732 321.285, 139.838 319.391, 139.838 319.391, 137.943"/>
</g></svg>
